<svg xmlns="http://www.w3.org/2000/svg" viewBox="0 0 64.25 64.5">
  <defs>
    <style>
      .a9bbe3dd-84a8-4f12-bf18-1e253a8043dc {
        fill: #6dbbdf;
      }
    </style>
  </defs>
  <g id="becb5d73-cb76-4967-9c19-b997834e61f6" data-name="Layer 2">
    <g id="a6f86e7c-ebc2-43b0-bd63-11bf6ae64cdc" data-name="Shapes">
      <g id="ae802485-033c-484c-8118-5a210d2ad77f" data-name="15">
        <path class="a9bbe3dd-84a8-4f12-bf18-1e253a8043dc" d="M55.78,21.5a10.9,10.9,0,0,1,8.47,4V5.69A5.69,5.69,0,0,0,58.56,0H38.87a10.9,10.9,0,0,1-6.75,19.34A10.81,10.81,0,0,1,21.38,8.47a10.89,10.89,0,0,1,4-8.47H5.69A5.69,5.69,0,0,0,0,5.69V25.51A10.75,10.75,0,1,1,0,39V58.81A5.69,5.69,0,0,0,5.69,64.5H58.56a5.69,5.69,0,0,0,5.69-5.69V39A10.82,10.82,0,1,1,55.78,21.5Z"/>
      </g>
    </g>
  </g>
</svg>
