<svg xmlns="http://www.w3.org/2000/svg" viewBox="0 0 111.65 64.5">
  <defs>
    <style>
      .ab804a31-9f0c-4fc6-8edb-d0c2db6260a3 {
        fill: #6dbbdf;
      }
    </style>
  </defs>
  <g id="f9c1ab8d-02a8-42cb-8de9-b45ffb14256f" data-name="Layer 2">
    <g id="b879a74d-3f1b-4352-8d0a-c74d04a8865d" data-name="Shapes">
      <g id="a76c6acb-4d03-4954-9121-30c7c36c8040" data-name="7">
        <path class="ab804a31-9f0c-4fc6-8edb-d0c2db6260a3" d="M101.73,22.39A10,10,0,0,0,94.05,26H90.66v0l-2.58-3.79V5.82a5.68,5.68,0,0,0-1.74-4.09A5.69,5.69,0,0,0,82.26,0H29.39a5.69,5.69,0,0,0-4.08,1.73,5.67,5.67,0,0,0-1.73,4.09V22.26L21,26.05v0H17.6a9.93,9.93,0,1,0,.33,12.15h3l2.61,2.9V58.68a5.91,5.91,0,0,0,5.81,5.82H50.11a10.75,10.75,0,1,1,10.13,0h22a5.93,5.93,0,0,0,5.82-5.82V41.07l2.6-2.9h3a9.92,9.92,0,1,0,8-15.78Z"/>
      </g>
    </g>
  </g>
</svg>
