<svg xmlns="http://www.w3.org/2000/svg" viewBox="0 0 63.03 62.95">
  <defs>
    <style>
      .bcf6efdc-0e41-4b85-94cf-e500e1cb79c3 {
        fill: #6dbbdf;
      }
    </style>
  </defs>
  <g id="a51fb833-577e-4c04-bbbf-4876917296d1" data-name="Layer 2">
    <g id="b856cfba-97af-4d0b-8cff-e27f2f5b4360" data-name="Shapes">
      <g id="a9517a6e-0044-40bb-a6c2-589928e9cc0b" data-name="18">
        <path class="bcf6efdc-0e41-4b85-94cf-e500e1cb79c3" d="M55.17,42.22A10.75,10.75,0,1,1,63,24.06,32.42,32.42,0,0,0,39.11,0a10.89,10.89,0,0,1-7.59,18.56A10.81,10.81,0,0,1,20.77,7.69,10.88,10.88,0,0,1,23.92,0,32.42,32.42,0,0,0,0,24.06,10.75,10.75,0,1,1,0,38.88,32.42,32.42,0,0,0,23.92,63a10.76,10.76,0,1,1,15.19,0A32.42,32.42,0,0,0,63,38.88,10.89,10.89,0,0,1,55.17,42.22Z"/>
      </g>
    </g>
  </g>
</svg>
