<svg xmlns="http://www.w3.org/2000/svg" viewBox="0 0 109.9 87.69">
  <defs>
    <style>
      .e17e24f4-6feb-405d-862a-bf48b1f992ba {
        fill: #6dbbdf;
      }
    </style>
  </defs>
  <g id="e4bb3668-8218-4e7d-9d40-92b73a2d540c" data-name="Layer 2">
    <g id="be1c8f1c-75b9-4efb-a080-3eee99ab288b" data-name="Shapes">
      <g id="a409255b-4d15-4a20-a003-3e89168e3213" data-name="2">
        <path class="e17e24f4-6feb-405d-862a-bf48b1f992ba" d="M100,45.58a9.92,9.92,0,0,0-7.68,3.63H88.91v0l-1.83-2.69V28.88a5.7,5.7,0,0,0-5.7-5.69h-18L60.81,21v-3a9.92,9.92,0,1,0-12.15-.33V21h0l-3.21,2.2H28.52a5.69,5.69,0,0,0-5.69,5.69V46.54L21,49.23v0H17.6a9.93,9.93,0,1,0,.33,12.15h3l1.86,2.16V82a5.7,5.7,0,0,0,5.69,5.7H81.38a5.7,5.7,0,0,0,5.7-5.7V63.52l1.85-2.16h3a9.92,9.92,0,1,0,8-15.78Z"/>
      </g>
    </g>
  </g>
</svg>
