<svg xmlns="http://www.w3.org/2000/svg" viewBox="0 0 86.83 64.5">
  <defs>
    <style>
      .ed0c3de1-1267-46a0-a682-8f4d064e0bea {
        fill: #6dbbdf;
      }
    </style>
  </defs>
  <g id="a27be0a8-d8cf-462b-8973-62b43f305dd1" data-name="Layer 2">
    <g id="ffb22407-8f4a-455f-8936-b661720f6ee5" data-name="Shapes">
      <g id="a53738d5-9d55-407e-a934-31b934f3dba8" data-name="8">
        <path class="ed0c3de1-1267-46a0-a682-8f4d064e0bea" d="M79.58,21.27a10.72,10.72,0,0,1,7.25,2.83V5.69A5.7,5.7,0,0,0,81.13,0H28.27a5.69,5.69,0,0,0-5.69,5.69V24.46L21,26.33h-3a9.92,9.92,0,1,0-.33,12.15H21v0l1.59,2.33v18a5.69,5.69,0,0,0,5.69,5.69H46a10.75,10.75,0,1,1,17.12,0h18a5.7,5.7,0,0,0,5.7-5.69V39.94a10.74,10.74,0,1,1-7.25-18.67Z"/>
      </g>
    </g>
  </g>
</svg>
