<svg xmlns="http://www.w3.org/2000/svg" viewBox="0 0 64.25 64.5">
  <defs>
    <style>
      .a8b2c459-8ea6-407a-8e1e-db046c5a082e {
        fill: #6dbbdf;
      }
    </style>
  </defs>
  <g id="e85ff956-25fc-4114-ac99-ad0535ac9d30" data-name="Layer 2">
    <g id="b37a71a7-185b-4bf9-9060-e44304d614c6" data-name="Shapes">
      <g id="ff203753-2453-43ee-897f-e87d974f9bcb" data-name="14">
        <path class="a8b2c459-8ea6-407a-8e1e-db046c5a082e" d="M55.78,21.5a10.73,10.73,0,0,1,8.47,4.15v-20A5.69,5.69,0,0,0,58.56,0H38.73A10.75,10.75,0,1,1,25.52,0H5.69A5.69,5.69,0,0,0,0,5.69v20a10.75,10.75,0,1,1,0,13.2v20A5.69,5.69,0,0,0,5.69,64.5H25.52a10.76,10.76,0,1,1,13.21,0H58.56a5.69,5.69,0,0,0,5.69-5.69v-20A10.74,10.74,0,1,1,55.78,21.5Z"/>
      </g>
    </g>
  </g>
</svg>
