<svg xmlns="http://www.w3.org/2000/svg" viewBox="0 0 64.25 88.08">
  <defs>
    <style>
      .acd40429-b43a-473a-9285-bf610ea285ca {
        fill: #6dbbdf;
      }
    </style>
  </defs>
  <g id="a2eedff1-23ca-4ce5-b756-c2f054d66ef3" data-name="Layer 2">
    <g id="a0377588-32cb-43fd-b8d8-d5c1c919512a" data-name="Shapes">
      <g id="a4687bd9-372e-4582-bfe1-85aa41c48794" data-name="10">
        <path class="acd40429-b43a-473a-9285-bf610ea285ca" d="M58.56,23.58H40.94L38.05,21v-3A9.92,9.92,0,1,0,25.9,17.6V21h0l-3.79,2.59H5.69A5.69,5.69,0,0,0,0,29.27v20A10.76,10.76,0,1,1,0,62.43V82.38a5.7,5.7,0,0,0,5.69,5.7H25.54a10.76,10.76,0,1,1,13.17,0H58.56a5.7,5.7,0,0,0,5.69-5.7V29.27A5.69,5.69,0,0,0,58.56,23.58Z"/>
      </g>
    </g>
  </g>
</svg>
