<svg xmlns="http://www.w3.org/2000/svg" viewBox="0 0 109.9 87.69">
  <defs>
    <style>
      .ec92b5cd-c75f-40e5-8194-e81ebe04b966 {
        fill: #6dbbdf;
      }
    </style>
  </defs>
  <g id="e9af248e-956d-49fc-89f7-66def2d7f4b0" data-name="Layer 2">
    <g id="b65b32bf-df96-4d42-b9cd-df3d08f92212" data-name="Shapes">
      <g id="ab57feaf-5039-42d1-b6c1-1cea1375a368" data-name="6">
        <path class="ec92b5cd-c75f-40e5-8194-e81ebe04b966" d="M100,45.58a9.92,9.92,0,0,0-7.68,3.63H88.91v0l-1.83-2.69V28.88a5.7,5.7,0,0,0-5.7-5.69h-18L60.81,21v-3a9.92,9.92,0,1,0-12.15-.33V21h0l-3.21,2.2H28.52a5.69,5.69,0,0,0-5.69,5.69V46.54L21,49.23v0H17.6a9.93,9.93,0,1,0,.33,12.15h3l1.86,2.16V82a5.7,5.7,0,0,0,5.69,5.7H48.36a10.75,10.75,0,1,1,13.18,0H81.38a5.7,5.7,0,0,0,5.7-5.7V63.52l1.85-2.16h3a9.92,9.92,0,1,0,8-15.78Z"/>
      </g>
    </g>
  </g>
</svg>
