<svg xmlns="http://www.w3.org/2000/svg" viewBox="0 0 64.25 111.65">
  <defs>
    <style>
      .fbda3a4e-db9e-43ac-9775-2b63dee067ab {
        fill: #6dbbdf;
      }
    </style>
  </defs>
  <g id="ae0460e2-6d5a-4651-b693-cbd1a302291c" data-name="Layer 2">
    <g id="a65cde2d-f0cf-49a3-bb24-c72b4591ede4" data-name="Shapes">
      <g id="e0e7da58-a167-4c2c-bcd0-9277709a33c5" data-name="3">
        <path class="fbda3a4e-db9e-43ac-9775-2b63dee067ab" d="M58.56,23.58H40.94L38.05,21v-3A9.92,9.92,0,1,0,25.9,17.6V21h0l-3.79,2.59H5.69A5.69,5.69,0,0,0,0,29.27V82.38a5.7,5.7,0,0,0,5.69,5.7H22.13l3.79,2.58h0v3.39a9.94,9.94,0,1,0,12.15-.32v-3l2.89-2.6H58.56a5.7,5.7,0,0,0,5.69-5.7V29.27A5.69,5.69,0,0,0,58.56,23.58Z"/>
      </g>
    </g>
  </g>
</svg>
