<svg xmlns="http://www.w3.org/2000/svg" viewBox="0 0 88.08 88.08">
  <defs>
    <style>
      .b796efef-9b84-4107-a20b-ea6da0600531 {
        fill: #6dbbdf;
      }
    </style>
  </defs>
  <g id="a03443b8-3421-4a11-9916-328b4b7d9dad" data-name="Layer 2">
    <g id="bedd4e8c-9013-4c8f-9e33-e6eff616ac05" data-name="Shapes">
      <g id="e9cbf3b2-0ff1-44ea-971b-20aaad4bb81c" data-name="9">
        <path class="b796efef-9b84-4107-a20b-ea6da0600531" d="M78.15,46a9.89,9.89,0,0,0-7.67,3.63H67.09v0L64.5,45.84V29.39a5.91,5.91,0,0,0-5.82-5.81H41.07L38.17,21v-3A9.92,9.92,0,1,0,26,17.6V21h0l-3.79,2.59H5.82a5.67,5.67,0,0,0-4.09,1.73A5.69,5.69,0,0,0,0,29.39v20A10.76,10.76,0,1,1,0,62.26v20a5.69,5.69,0,0,0,1.73,4.08,5.68,5.68,0,0,0,4.09,1.74H58.68a5.93,5.93,0,0,0,5.82-5.82V64.64l2.61-2.89h3a9.92,9.92,0,1,0,8-15.78Z"/>
      </g>
    </g>
  </g>
</svg>
