<svg xmlns="http://www.w3.org/2000/svg" viewBox="0 0 111.65 111.65">
  <defs>
    <style>
      .aa9239a2-523b-4877-a375-9ffb21cc6427 {
        fill: #6dbbdf;
      }
    </style>
  </defs>
  <g id="bc91923f-72d9-489e-a2d8-acf20819d873" data-name="Layer 2">
    <g id="a8277e8d-a3e3-4aaa-a6bf-90ced596f37c" data-name="Shapes">
      <g id="f63a27f3-03f2-40c7-a60f-22dbe1582fd0" data-name="1">
        <path class="aa9239a2-523b-4877-a375-9ffb21cc6427" d="M101.73,46a9.92,9.92,0,0,0-7.68,3.63H90.66v0l-2.58-3.78V29.39a5.93,5.93,0,0,0-5.82-5.81H64.64L61.75,21v-3A9.92,9.92,0,1,0,49.6,17.6V21h0l-3.78,2.59H29.39a5.91,5.91,0,0,0-5.81,5.81V45.84L21,49.62v0H17.6a9.93,9.93,0,1,0,.33,12.15h3l2.61,2.89V82.26a5.93,5.93,0,0,0,5.81,5.82H45.84l3.78,2.58h0v3.39a9.94,9.94,0,1,0,12.15-.32v-3l2.89-2.6H82.26a5.95,5.95,0,0,0,5.82-5.82V64.64l2.6-2.89h3a9.92,9.92,0,1,0,8-15.78Z"/>
      </g>
    </g>
  </g>
</svg>
