<svg xmlns="http://www.w3.org/2000/svg" viewBox="0 0 64.25 88.08">
  <defs>
    <style>
      .f8495018-e27a-43f1-86a4-c210a4067d56 {
        fill: #6dbbdf;
      }
    </style>
  </defs>
  <g id="f9d9860f-a214-4626-8e86-e20c5f366c90" data-name="Layer 2">
    <g id="f19f1284-f950-4496-a2a2-07ec59475458" data-name="Shapes">
      <g id="f7b4a9ac-30a5-4527-8a47-296487bc50dd" data-name="12">
        <path class="f8495018-e27a-43f1-86a4-c210a4067d56" d="M55.78,45.08a10.73,10.73,0,0,1,8.47,4.14V29.27a5.69,5.69,0,0,0-5.69-5.69H40.94L38.05,21v-3A9.92,9.92,0,1,0,25.9,17.6V21h0l-3.79,2.59H5.69A5.69,5.69,0,0,0,0,29.27v20A10.76,10.76,0,1,1,0,62.43V82.38a5.7,5.7,0,0,0,5.69,5.7H25.54a10.76,10.76,0,1,1,13.17,0H58.56a5.7,5.7,0,0,0,5.69-5.7V62.43a10.74,10.74,0,1,1-8.47-17.35Z"/>
      </g>
    </g>
  </g>
</svg>
