<svg xmlns="http://www.w3.org/2000/svg" viewBox="0 0 64.25 88.08">
  <defs>
    <style>
      .a2ad68a3-dd94-4302-92fb-cc32a992696b {
        fill: #6dbbdf;
      }
    </style>
  </defs>
  <g id="bd1397bc-e0a3-4b38-b23a-23ba09c4887c" data-name="Layer 2">
    <g id="e5582f09-57e2-4ac6-a5e2-fb9633706673" data-name="Shapes">
      <g id="a51ced3d-444f-4dc2-b551-0b7d11005d2d" data-name="11">
        <path class="a2ad68a3-dd94-4302-92fb-cc32a992696b" d="M55.78,45.08a10.73,10.73,0,0,1,8.47,4.14V29.27a5.69,5.69,0,0,0-5.69-5.69H40.94L38.05,21v-3A9.92,9.92,0,1,0,25.9,17.6V21h0l-3.79,2.59H5.69A5.69,5.69,0,0,0,0,29.27v20A10.76,10.76,0,1,1,0,62.43V82.38a5.7,5.7,0,0,0,5.69,5.7H58.56a5.7,5.7,0,0,0,5.69-5.7V62.43a10.74,10.74,0,1,1-8.47-17.35Z"/>
      </g>
    </g>
  </g>
</svg>
