<svg xmlns="http://www.w3.org/2000/svg" xmlns:xlink="http://www.w3.org/1999/xlink" viewBox="0 0 74 101.58">
  <defs>
    <style>
      .b7dab97e-0c10-408f-99a4-a94d798de687 {
        fill: #fff;
      }

      .a42ac274-7b12-4b20-bb14-8a5ef1f19243 {
        fill: #fefefe;
      }

      .bc057b9d-791a-4d49-b0a3-cf28dfb618aa {
        fill: #93cdf2;
      }

      .b9fb3300-8eba-46de-a89f-272cfc65119a {
        fill: #fea5b7;
      }

      .b5dce0eb-1087-41ec-ab29-086d927f5450 {
        fill: #bc8eb5;
      }

      .e41ce4a3-3f2c-4428-b9af-5c79c0cd5ad7 {
        fill: url(#b3f61f33-c125-4e6e-863b-eda5866949ee);
      }

      .bc45a86c-2d2a-4e10-90cc-5acf776e76ff {
        fill: url(#ba2b0d66-dfcc-4845-b821-2f8e0ca0dc8c);
      }
    </style>
    <radialGradient id="b3f61f33-c125-4e6e-863b-eda5866949ee" cx="98.64" cy="36.82" r="5.25" gradientTransform="matrix(-1.9, -0.01, -0.01, 1.79, 248.55, -22.93)" gradientUnits="userSpaceOnUse">
      <stop offset="0.15" stop-color="#ff9765"/>
      <stop offset="0.2" stop-color="#fc9273"/>
      <stop offset="0.29" stop-color="#f58598"/>
      <stop offset="0.34" stop-color="#f07cb0"/>
      <stop offset="0.43" stop-color="#f078ac"/>
      <stop offset="0.52" stop-color="#ee6aa0"/>
      <stop offset="0.62" stop-color="#ec558b"/>
      <stop offset="0.72" stop-color="#e93a72"/>
      <stop offset="0.76" stop-color="#ea3f79"/>
      <stop offset="0.81" stop-color="#eb4c8b"/>
      <stop offset="0.88" stop-color="#ee61a9"/>
      <stop offset="0.95" stop-color="#f17ed3"/>
      <stop offset="1" stop-color="#f494f2"/>
    </radialGradient>
    <radialGradient id="ba2b0d66-dfcc-4845-b821-2f8e0ca0dc8c" cx="99.9" cy="36.87" r="4.8" gradientTransform="matrix(-1.9, -0.01, -0.01, 1.79, 248.55, -22.93)" gradientUnits="userSpaceOnUse">
      <stop offset="0" stop-color="#ff9765"/>
      <stop offset="0.12" stop-color="#fc9273"/>
      <stop offset="0.34" stop-color="#f58598"/>
      <stop offset="0.47" stop-color="#f07cb0"/>
      <stop offset="0.54" stop-color="#f07eb4"/>
      <stop offset="0.62" stop-color="#f182c2"/>
      <stop offset="0.7" stop-color="#f28ad7"/>
      <stop offset="0.78" stop-color="#f496f6"/>
      <stop offset="0.81" stop-color="#f599ff"/>
      <stop offset="0.83" stop-color="#f594f8"/>
      <stop offset="0.87" stop-color="#f788e6"/>
      <stop offset="0.91" stop-color="#f973c8"/>
      <stop offset="0.95" stop-color="#fb569e"/>
      <stop offset="1" stop-color="#ff3169"/>
    </radialGradient>
  </defs>
  <g id="fdd782e5-a263-4bd2-875f-b0ce4d79fafa" data-name="Layer 2">
    <g id="bb2154fa-8e28-4f73-a865-ce0694eccd92" data-name="IDENTITY">
      <g id="b483bf38-8a62-4d2e-a425-2441d1f21ac0" data-name="Layer 54">
        <rect class="b7dab97e-0c10-408f-99a4-a94d798de687" x="11.25" y="27.53" width="14" height="74.05"/>
        <rect class="a42ac274-7b12-4b20-bb14-8a5ef1f19243" x="51" y="27.53" width="11" height="74.05"/>
        <path class="bc057b9d-791a-4d49-b0a3-cf28dfb618aa" d="M48,27.43l-4.2-2.52.06-3.21A11.95,11.95,0,0,0,37,0V81.67a11.88,11.88,0,0,1,11.75,12,12.05,12.05,0,0,1-2.81,7.76H51v-74Z"/>
        <path class="b9fb3300-8eba-46de-a89f-272cfc65119a" d="M25.25,93.67A11.88,11.88,0,0,1,37,81.67V0a11.95,11.95,0,0,0-6.9,21.7l.06,3.21L26,27.43H23v74h5.06A12.05,12.05,0,0,1,25.25,93.67Z"/>
        <path class="b5dce0eb-1087-41ec-ab29-086d927f5450" d="M62,101.47v-74h4.88A7.12,7.12,0,0,1,74,34.55l-.1,60.56c0,2.71-3.07,6.36-7,6.36Z"/>
        <path class="b5dce0eb-1087-41ec-ab29-086d927f5450" d="M0,95.06V34.3a6.77,6.77,0,0,1,6.77-6.77H14l-.1,73.8-6.8.1C3,101.43,0,97.91,0,95.06Z"/>
        <g id="adb07ab4-1ea7-4201-acdd-d3cb6fe67ea5" data-name="Layer 80 copy 6">
          <g>
            <path class="e41ce4a3-3f2c-4428-b9af-5c79c0cd5ad7" d="M52.11,44.52c.39,2.57,2.44,4.83,3.74,4.83,1,0,5-1.63,5.59-4.65a4.21,4.21,0,0,0-5.53-4.92C52.84,39.76,51.52,40.73,52.11,44.52Z"/>
            <path class="bc45a86c-2d2a-4e10-90cc-5acf776e76ff" d="M50.37,44.86c.6,2.52,4.18,4.49,5.48,4.49,1,0,3.84-6.19.06-9.57C52.52,38.6,49.47,41.13,50.37,44.86Z"/>
          </g>
        </g>
      </g>
    </g>
  </g>
</svg>
