<svg xmlns="http://www.w3.org/2000/svg" viewBox="0 0 88.36 102.97">
  <defs>
    <style>
      .a3de3318-6960-4a7a-be05-143b3c5249a8 {
        fill: none;
        stroke: #000;
        stroke-miterlimit: 10;
      }
    </style>
  </defs>
  <g id="a90b57d6-0684-4169-952e-f13367e50cd3" data-name="Layer 2">
    <g id="af60e0f9-e0ac-4e40-bf58-1900f2960c20" data-name="Layer 1">
      <path class="a3de3318-6960-4a7a-be05-143b3c5249a8" d="M78.44,36.2a9.27,9.27,0,0,0-3.54.7V35.14a7.08,7.08,0,0,0-7.07-7.09h-19l-4.22-2.53.06-3.23a12,12,0,1,0-13.87,0l0,3.23-4.21,2.53h-19A7.1,7.1,0,0,0,.5,35.11V95.36a7.08,7.08,0,0,0,7.07,7.11H67.81A7.08,7.08,0,0,0,74.9,95.4V54.35A9.42,9.42,0,1,0,78.44,36.2Z"/>
    </g>
  </g>
</svg>
