<svg xmlns="http://www.w3.org/2000/svg" xmlns:xlink="http://www.w3.org/1999/xlink" viewBox="0 0 74 101.58">
  <defs>
    <style>
      .aedbf701-a89a-4452-ad48-2870d6bae157 {
        fill: #fff;
      }

      .b11c06c6-27ca-4bf7-a38f-bfbcd2b80140 {
        fill: #fefefe;
      }

      .b5d26f28-e060-434c-8ad2-dee1ab68b870 {
        fill: #060002;
      }

      .ec499876-abe3-44db-96ec-735ede1f9b7d {
        fill: #772593;
      }

      .edd6a8a4-a0a9-41cc-b62f-23554a516baf {
        fill: #0233b3;
      }

      .ae24d168-bc6f-4be8-ad2e-5694a3ab0795 {
        fill: #ff4a91;
      }

      .b3649adb-6ad8-4257-9105-82e3e13134ef {
        fill: url(#b2f4a0d2-503e-4606-9552-796f6e3ff08f);
      }

      .f33e91de-83ea-4743-a013-384b536d7b30 {
        fill: url(#b8beb989-b650-4ab1-aeb1-29f5b9892a29);
      }
    </style>
    <radialGradient id="b2f4a0d2-503e-4606-9552-796f6e3ff08f" cx="98.64" cy="36.82" r="5.25" gradientTransform="matrix(-1.9, -0.01, -0.01, 1.79, 248.55, -22.93)" gradientUnits="userSpaceOnUse">
      <stop offset="0.15" stop-color="#ff9765"/>
      <stop offset="0.2" stop-color="#fc9273"/>
      <stop offset="0.29" stop-color="#f58598"/>
      <stop offset="0.34" stop-color="#f07cb0"/>
      <stop offset="0.43" stop-color="#f078ac"/>
      <stop offset="0.52" stop-color="#ee6aa0"/>
      <stop offset="0.62" stop-color="#ec558b"/>
      <stop offset="0.72" stop-color="#e93a72"/>
      <stop offset="0.76" stop-color="#ea3f79"/>
      <stop offset="0.81" stop-color="#eb4c8b"/>
      <stop offset="0.88" stop-color="#ee61a9"/>
      <stop offset="0.95" stop-color="#f17ed3"/>
      <stop offset="1" stop-color="#f494f2"/>
    </radialGradient>
    <radialGradient id="b8beb989-b650-4ab1-aeb1-29f5b9892a29" cx="99.9" cy="36.87" r="4.8" gradientTransform="matrix(-1.9, -0.01, -0.01, 1.79, 248.55, -22.93)" gradientUnits="userSpaceOnUse">
      <stop offset="0" stop-color="#ff9765"/>
      <stop offset="0.12" stop-color="#fc9273"/>
      <stop offset="0.34" stop-color="#f58598"/>
      <stop offset="0.47" stop-color="#f07cb0"/>
      <stop offset="0.54" stop-color="#f07eb4"/>
      <stop offset="0.62" stop-color="#f182c2"/>
      <stop offset="0.7" stop-color="#f28ad7"/>
      <stop offset="0.78" stop-color="#f496f6"/>
      <stop offset="0.81" stop-color="#f599ff"/>
      <stop offset="0.83" stop-color="#f594f8"/>
      <stop offset="0.87" stop-color="#f788e6"/>
      <stop offset="0.91" stop-color="#f973c8"/>
      <stop offset="0.95" stop-color="#fb569e"/>
      <stop offset="1" stop-color="#ff3169"/>
    </radialGradient>
  </defs>
  <g id="a97c5a8a-5a3b-4b9f-b657-1595972d1a0b" data-name="Layer 2">
    <g id="aaaab6ba-74e2-4b28-8d6f-16b723f34e59" data-name="IDENTITY">
      <g id="ef3c86e4-56c8-4458-84a7-059f7186abe6" data-name="Layer 56">
        <rect class="aedbf701-a89a-4452-ad48-2870d6bae157" x="11.25" y="27.53" width="14" height="74.05"/>
        <rect class="b11c06c6-27ca-4bf7-a38f-bfbcd2b80140" x="51" y="27.53" width="11" height="74.05"/>
        <path class="b5d26f28-e060-434c-8ad2-dee1ab68b870" d="M48,27.43l-4.2-2.52.06-3.21A11.95,11.95,0,0,0,37,0V81.67a11.88,11.88,0,0,1,11.75,12,12.05,12.05,0,0,1-2.81,7.76H51v-74Z"/>
        <path class="ec499876-abe3-44db-96ec-735ede1f9b7d" d="M25.25,93.67A11.88,11.88,0,0,1,37,81.67V0a11.95,11.95,0,0,0-6.9,21.7l.06,3.21L26,27.43H23v74h5.06A12.05,12.05,0,0,1,25.25,93.67Z"/>
        <path class="edd6a8a4-a0a9-41cc-b62f-23554a516baf" d="M62,101.47v-74h4.88A7.12,7.12,0,0,1,74,34.55l-.1,60.56c0,2.71-3.07,6.36-7,6.36Z"/>
        <path class="ae24d168-bc6f-4be8-ad2e-5694a3ab0795" d="M0,95.06V34.3a6.77,6.77,0,0,1,6.77-6.77H14l-.1,73.8-6.8.1C3,101.43,0,97.91,0,95.06Z"/>
        <g id="b2c9dbf6-bb7b-4c81-9e3d-c1b133801557" data-name="Layer 80 copy 15">
          <g>
            <path class="b3649adb-6ad8-4257-9105-82e3e13134ef" d="M52.11,44.52c.39,2.57,2.44,4.83,3.74,4.83,1,0,5-1.63,5.59-4.65a4.21,4.21,0,0,0-5.53-4.92C52.84,39.76,51.52,40.73,52.11,44.52Z"/>
            <path class="f33e91de-83ea-4743-a013-384b536d7b30" d="M50.37,44.86c.6,2.52,4.18,4.49,5.48,4.49,1,0,3.84-6.19.06-9.57C52.52,38.6,49.47,41.13,50.37,44.86Z"/>
          </g>
        </g>
      </g>
    </g>
  </g>
</svg>
