<svg xmlns="http://www.w3.org/2000/svg" xmlns:xlink="http://www.w3.org/1999/xlink" viewBox="0 0 74 108.51">
  <defs>
    <style>
      .acf4dbd8-cdcb-4134-9178-f4e7835c992e {
        fill: #fff;
      }

      .f6a8862d-7e9d-4d90-ab96-971d382f8219 {
        fill: #fefefe;
      }

      .befb30b6-9286-487d-8bba-a4f98b00d48e {
        fill: #93cdf2;
      }

      .ead35821-9d73-4e34-85a3-081e2a807638 {
        fill: #fea5b7;
      }

      .f7e7a3d8-23f7-4ffe-9258-595fe76ad5e3 {
        fill: #bc8eb5;
      }

      .a2b6e92e-ce1d-4c88-87db-8c2c74be7e43 {
        fill: url(#afdea1f0-56c8-4816-b072-7336d5ddc345);
      }

      .b3ba1996-9c1c-42c5-ad63-3c47552b62da {
        fill: url(#b76619f0-831c-469f-9fff-4279089defab);
      }
    </style>
    <radialGradient id="afdea1f0-56c8-4816-b072-7336d5ddc345" cx="98.64" cy="36.82" r="5.25" gradientTransform="matrix(-1.9, -0.01, -0.01, 1.79, 248.55, -22.93)" gradientUnits="userSpaceOnUse">
      <stop offset="0.15" stop-color="#ff9765"/>
      <stop offset="0.2" stop-color="#fc9273"/>
      <stop offset="0.29" stop-color="#f58598"/>
      <stop offset="0.34" stop-color="#f07cb0"/>
      <stop offset="0.43" stop-color="#f078ac"/>
      <stop offset="0.52" stop-color="#ee6aa0"/>
      <stop offset="0.62" stop-color="#ec558b"/>
      <stop offset="0.72" stop-color="#e93a72"/>
      <stop offset="0.76" stop-color="#ea3f79"/>
      <stop offset="0.81" stop-color="#eb4c8b"/>
      <stop offset="0.88" stop-color="#ee61a9"/>
      <stop offset="0.95" stop-color="#f17ed3"/>
      <stop offset="1" stop-color="#f494f2"/>
    </radialGradient>
    <radialGradient id="b76619f0-831c-469f-9fff-4279089defab" cx="99.9" cy="36.87" r="4.8" gradientTransform="matrix(-1.9, -0.01, -0.01, 1.79, 248.55, -22.93)" gradientUnits="userSpaceOnUse">
      <stop offset="0" stop-color="#ff9765"/>
      <stop offset="0.12" stop-color="#fc9273"/>
      <stop offset="0.34" stop-color="#f58598"/>
      <stop offset="0.47" stop-color="#f07cb0"/>
      <stop offset="0.54" stop-color="#f07eb4"/>
      <stop offset="0.62" stop-color="#f182c2"/>
      <stop offset="0.7" stop-color="#f28ad7"/>
      <stop offset="0.78" stop-color="#f496f6"/>
      <stop offset="0.81" stop-color="#f599ff"/>
      <stop offset="0.83" stop-color="#f594f8"/>
      <stop offset="0.87" stop-color="#f788e6"/>
      <stop offset="0.91" stop-color="#f973c8"/>
      <stop offset="0.95" stop-color="#fb569e"/>
      <stop offset="1" stop-color="#ff3169"/>
    </radialGradient>
  </defs>
  <g id="a90dbe09-3e86-49ae-83e2-9295a900fcd6" data-name="Layer 2">
    <g id="bf64bc38-13f0-43f2-bbc3-9d9f51616920" data-name="IDENTITY">
      <g id="f4d21b2e-6363-437c-b72d-d58ecbfbdb2c" data-name="Layer 53">
        <rect class="acf4dbd8-cdcb-4134-9178-f4e7835c992e" x="11.25" y="27.53" width="14" height="74.05"/>
        <rect class="f6a8862d-7e9d-4d90-ab96-971d382f8219" x="51" y="27.53" width="11" height="74.05"/>
        <path class="befb30b6-9286-487d-8bba-a4f98b00d48e" d="M37,0a11.95,11.95,0,0,1,6.9,21.7l-.06,3.21L48,27.43h3v74H37Z"/>
        <path class="ead35821-9d73-4e34-85a3-081e2a807638" d="M37,0a11.95,11.95,0,0,0-6.9,21.7l.06,3.21L26,27.43H23v74H37Z"/>
        <path class="befb30b6-9286-487d-8bba-a4f98b00d48e" d="M37,108.51a2.44,2.44,0,0,0,1.41-4.44v-.66l.86-.51h.61V87.75H37Z"/>
        <path class="ead35821-9d73-4e34-85a3-081e2a807638" d="M37,108.51a2.44,2.44,0,0,1-1.41-4.44v-.66l-.86-.51h-.61V87.75H37Z"/>
        <path class="f7e7a3d8-23f7-4ffe-9258-595fe76ad5e3" d="M62,101.47v-74h4.88A7.12,7.12,0,0,1,74,34.55l-.1,60.56c0,2.71-3.07,6.36-7,6.36Z"/>
        <path class="f7e7a3d8-23f7-4ffe-9258-595fe76ad5e3" d="M0,95.06V34.3a6.77,6.77,0,0,1,6.77-6.77H14l-.1,73.8-6.8.1C3,101.43,0,97.91,0,95.06Z"/>
        <g id="fec4dc69-b446-4c7b-b9be-3deaddddaa50" data-name="Layer 80 copy 5">
          <g>
            <path class="a2b6e92e-ce1d-4c88-87db-8c2c74be7e43" d="M52.11,44.52c.39,2.57,2.44,4.83,3.74,4.83,1,0,5-1.63,5.59-4.65a4.21,4.21,0,0,0-5.53-4.92C52.84,39.76,51.52,40.73,52.11,44.52Z"/>
            <path class="b3ba1996-9c1c-42c5-ad63-3c47552b62da" d="M50.37,44.86c.6,2.52,4.18,4.49,5.48,4.49,1,0,3.84-6.19.06-9.57C52.52,38.6,49.47,41.13,50.37,44.86Z"/>
          </g>
        </g>
      </g>
    </g>
  </g>
</svg>
