<svg xmlns="http://www.w3.org/2000/svg" xmlns:xlink="http://www.w3.org/1999/xlink" viewBox="0 0 73.96 108.11">
  <defs>
    <style>
      .aa4e8f5f-ceb6-4fa4-afab-5349e64dd810 {
        fill: #fa8706;
      }

      .f1b03bc1-4d82-4b96-b9e9-04f7cfabbb8e {
        fill: #15a915;
      }

      .b2b802b2-1bd5-4579-bb77-932ad8f792f7, .f1b03bc1-4d82-4b96-b9e9-04f7cfabbb8e {
        opacity: 0.68;
      }

      .b5096e77-9fce-4b0d-beb5-9be4901f2449 {
        fill: #0d8ffe;
      }

      .eadfb5f1-8b96-424b-aefe-a9011f171dbe {
        fill: #f60003;
      }

      .b52f22a3-823a-41b4-8ebf-173bd640dc06 {
        fill: #3a1a65;
      }

      .b2b802b2-1bd5-4579-bb77-932ad8f792f7 {
        fill: #feee15;
      }

      .bf2c837f-a9d5-4d99-8821-c166c65051ee {
        fill: #e61518;
      }

      .ec1f4eb3-04d1-49d1-b498-b041a531e54e {
        fill: url(#e21a19b8-d7df-4c93-9e06-401458f37bbe);
      }

      .e884303b-ba2f-4b2c-a9bd-0d53c9ba7397 {
        fill: url(#e7516098-b56d-4335-9372-6c2192bb4841);
      }
    </style>
    <radialGradient id="e21a19b8-d7df-4c93-9e06-401458f37bbe" cx="98.64" cy="36.67" r="5.25" gradientTransform="matrix(-1.9, -0.01, -0.01, 1.79, 248.55, -22.81)" gradientUnits="userSpaceOnUse">
      <stop offset="0.15" stop-color="#ff9765"/>
      <stop offset="0.2" stop-color="#fc9273"/>
      <stop offset="0.29" stop-color="#f58598"/>
      <stop offset="0.34" stop-color="#f07cb0"/>
      <stop offset="0.43" stop-color="#f078ac"/>
      <stop offset="0.52" stop-color="#ee6aa0"/>
      <stop offset="0.62" stop-color="#ec558b"/>
      <stop offset="0.72" stop-color="#e93a72"/>
      <stop offset="0.76" stop-color="#ea3f79"/>
      <stop offset="0.81" stop-color="#eb4c8b"/>
      <stop offset="0.88" stop-color="#ee61a9"/>
      <stop offset="0.95" stop-color="#f17ed3"/>
      <stop offset="1" stop-color="#f494f2"/>
    </radialGradient>
    <radialGradient id="e7516098-b56d-4335-9372-6c2192bb4841" cx="99.9" cy="36.71" r="4.8" gradientTransform="matrix(-1.9, -0.01, -0.01, 1.79, 248.55, -22.81)" gradientUnits="userSpaceOnUse">
      <stop offset="0" stop-color="#ff9765"/>
      <stop offset="0.12" stop-color="#fc9273"/>
      <stop offset="0.34" stop-color="#f58598"/>
      <stop offset="0.47" stop-color="#f07cb0"/>
      <stop offset="0.54" stop-color="#f07eb4"/>
      <stop offset="0.62" stop-color="#f182c2"/>
      <stop offset="0.7" stop-color="#f28ad7"/>
      <stop offset="0.78" stop-color="#f496f6"/>
      <stop offset="0.81" stop-color="#f599ff"/>
      <stop offset="0.83" stop-color="#f594f8"/>
      <stop offset="0.87" stop-color="#f788e6"/>
      <stop offset="0.91" stop-color="#f973c8"/>
      <stop offset="0.95" stop-color="#fb569e"/>
      <stop offset="1" stop-color="#ff3169"/>
    </radialGradient>
  </defs>
  <g id="acab30d8-bebe-443b-8c55-242ae4e40940" data-name="Layer 2">
    <g id="be304e78-8f87-4632-9ad3-e78461f3f3da" data-name="IDENTITY">
      <g id="b5846e58-7771-4519-830e-ab29932470cc" data-name="Layer 44">
        <g>
          <g>
            <rect class="aa4e8f5f-ceb6-4fa4-afab-5349e64dd810" x="12.34" y="27.43" width="12.35" height="74"/>
            <path class="f1b03bc1-4d82-4b96-b9e9-04f7cfabbb8e" d="M49.28,27.43H48L43.8,24.91l.05-3.21A11.94,11.94,0,0,0,37,0V101.43h0v6.68a2.33,2.33,0,0,0,1.34-4.24v-.62l.82-.49h.25v-1.33h9.88Z"/>
            <rect class="b5096e77-9fce-4b0d-beb5-9be4901f2449" x="49.27" y="27.43" width="12.35" height="74"/>
            <path class="eadfb5f1-8b96-424b-aefe-a9011f171dbe" d="M7.67,27.43A7.65,7.65,0,0,0,0,35.08V94.41a7,7,0,0,0,7,7h5.32v-74Z"/>
            <path class="b52f22a3-823a-41b4-8ebf-173bd640dc06" d="M66.67,27.43H61.62v74H67A6.92,6.92,0,0,0,74,94.52V34.7A7.27,7.27,0,0,0,66.67,27.43Z"/>
          </g>
          <g>
            <rect class="aa4e8f5f-ceb6-4fa4-afab-5349e64dd810" x="12.34" y="27.43" width="12.35" height="74"/>
            <path class="f1b03bc1-4d82-4b96-b9e9-04f7cfabbb8e" d="M49.28,27.43H48L43.8,24.91l.05-3.21A11.94,11.94,0,0,0,37,0V101.43h0v6.68a2.33,2.33,0,0,0,1.34-4.24v-.62l.82-.49h.25v-1.33h9.88Z"/>
            <rect class="b5096e77-9fce-4b0d-beb5-9be4901f2449" x="49.27" y="27.43" width="12.35" height="74"/>
            <path class="eadfb5f1-8b96-424b-aefe-a9011f171dbe" d="M7.67,27.43A7.65,7.65,0,0,0,0,35.08V94.41a7,7,0,0,0,7,7h5.32v-74Z"/>
            <path class="b52f22a3-823a-41b4-8ebf-173bd640dc06" d="M66.67,27.43H61.62v74H67A6.92,6.92,0,0,0,74,94.52V34.7A7.27,7.27,0,0,0,66.67,27.43Z"/>
          </g>
          <g>
            <rect class="aa4e8f5f-ceb6-4fa4-afab-5349e64dd810" x="12.34" y="27.43" width="12.35" height="74"/>
            <path class="f1b03bc1-4d82-4b96-b9e9-04f7cfabbb8e" d="M49.28,27.43H48L43.8,24.91l.05-3.21A11.94,11.94,0,0,0,37,0V101.43h0v6.68a2.33,2.33,0,0,0,1.34-4.24v-.62l.82-.49h.25v-1.33h9.88Z"/>
            <rect class="b5096e77-9fce-4b0d-beb5-9be4901f2449" x="49.27" y="27.43" width="12.35" height="74"/>
            <path class="eadfb5f1-8b96-424b-aefe-a9011f171dbe" d="M7.67,27.43A7.65,7.65,0,0,0,0,35.08V94.41a7,7,0,0,0,7,7h5.32v-74Z"/>
            <path class="b52f22a3-823a-41b4-8ebf-173bd640dc06" d="M66.67,27.43H61.62v74H67A6.92,6.92,0,0,0,74,94.52V34.7A7.27,7.27,0,0,0,66.67,27.43Z"/>
          </g>
          <g>
            <rect class="aa4e8f5f-ceb6-4fa4-afab-5349e64dd810" x="12.34" y="27.43" width="12.35" height="74"/>
            <path class="f1b03bc1-4d82-4b96-b9e9-04f7cfabbb8e" d="M49.28,27.43H48L43.8,24.91l.05-3.21A11.94,11.94,0,0,0,37,0V101.43h0v6.68a2.33,2.33,0,0,0,1.34-4.24v-.62l.82-.49h.25v-1.33h9.88Z"/>
            <rect class="b5096e77-9fce-4b0d-beb5-9be4901f2449" x="49.27" y="27.43" width="12.35" height="74"/>
            <path class="eadfb5f1-8b96-424b-aefe-a9011f171dbe" d="M7.67,27.43A7.65,7.65,0,0,0,0,35.08V94.41a7,7,0,0,0,7,7h5.32v-74Z"/>
            <path class="b52f22a3-823a-41b4-8ebf-173bd640dc06" d="M66.67,27.43H61.62v74H67A6.92,6.92,0,0,0,74,94.52V34.7A7.27,7.27,0,0,0,66.67,27.43Z"/>
          </g>
          <g>
            <rect class="aa4e8f5f-ceb6-4fa4-afab-5349e64dd810" x="12.34" y="27.43" width="12.35" height="74"/>
            <path class="b2b802b2-1bd5-4579-bb77-932ad8f792f7" d="M37,88.32V0A11.95,11.95,0,0,0,30.1,21.7l.06,3.21L26,27.43H24.68v74H34.6v1.33h.25l.82.49v.62A2.33,2.33,0,0,0,37,108.11V88.32Z"/>
            <path class="f1b03bc1-4d82-4b96-b9e9-04f7cfabbb8e" d="M49.28,27.43H48L43.8,24.91l.05-3.21A11.94,11.94,0,0,0,37,0V101.43h0v6.68a2.33,2.33,0,0,0,1.34-4.24v-.62l.82-.49h.25v-1.33h9.88Z"/>
            <rect class="b5096e77-9fce-4b0d-beb5-9be4901f2449" x="49.27" y="27.43" width="12.35" height="74"/>
            <path class="bf2c837f-a9d5-4d99-8821-c166c65051ee" d="M7.67,27.43A7.65,7.65,0,0,0,0,35.08V94.41a7,7,0,0,0,7,7h5.32v-74Z"/>
            <path class="b52f22a3-823a-41b4-8ebf-173bd640dc06" d="M66.67,27.43H61.62v74H67A6.92,6.92,0,0,0,74,94.52V34.7A7.27,7.27,0,0,0,66.67,27.43Z"/>
          </g>
        </g>
        <g>
          <g>
            <rect class="aa4e8f5f-ceb6-4fa4-afab-5349e64dd810" x="12.34" y="27.43" width="12.35" height="74"/>
            <path class="f1b03bc1-4d82-4b96-b9e9-04f7cfabbb8e" d="M49.28,27.43H48L43.8,24.91l.05-3.21A11.94,11.94,0,0,0,37,0V101.43h0v6.68a2.33,2.33,0,0,0,1.34-4.24v-.62l.82-.49h.25v-1.33h9.88Z"/>
            <rect class="b5096e77-9fce-4b0d-beb5-9be4901f2449" x="49.27" y="27.43" width="12.35" height="74"/>
            <path class="eadfb5f1-8b96-424b-aefe-a9011f171dbe" d="M7.67,27.43A7.65,7.65,0,0,0,0,35.08V94.41a7,7,0,0,0,7,7h5.32v-74Z"/>
            <path class="b52f22a3-823a-41b4-8ebf-173bd640dc06" d="M66.67,27.43H61.62v74H67A6.92,6.92,0,0,0,74,94.52V34.7A7.27,7.27,0,0,0,66.67,27.43Z"/>
          </g>
          <g>
            <rect class="aa4e8f5f-ceb6-4fa4-afab-5349e64dd810" x="12.34" y="27.43" width="12.35" height="74"/>
            <path class="f1b03bc1-4d82-4b96-b9e9-04f7cfabbb8e" d="M49.28,27.43H48L43.8,24.91l.05-3.21A11.94,11.94,0,0,0,37,0V101.43h0v6.68a2.33,2.33,0,0,0,1.34-4.24v-.62l.82-.49h.25v-1.33h9.88Z"/>
            <rect class="b5096e77-9fce-4b0d-beb5-9be4901f2449" x="49.27" y="27.43" width="12.35" height="74"/>
            <path class="eadfb5f1-8b96-424b-aefe-a9011f171dbe" d="M7.67,27.43A7.65,7.65,0,0,0,0,35.08V94.41a7,7,0,0,0,7,7h5.32v-74Z"/>
            <path class="b52f22a3-823a-41b4-8ebf-173bd640dc06" d="M66.67,27.43H61.62v74H67A6.92,6.92,0,0,0,74,94.52V34.7A7.27,7.27,0,0,0,66.67,27.43Z"/>
          </g>
          <g>
            <rect class="aa4e8f5f-ceb6-4fa4-afab-5349e64dd810" x="12.34" y="27.43" width="12.35" height="74"/>
            <path class="f1b03bc1-4d82-4b96-b9e9-04f7cfabbb8e" d="M49.28,27.43H48L43.8,24.91l.05-3.21A11.94,11.94,0,0,0,37,0V101.43h0v6.68a2.33,2.33,0,0,0,1.34-4.24v-.62l.82-.49h.25v-1.33h9.88Z"/>
            <rect class="b5096e77-9fce-4b0d-beb5-9be4901f2449" x="49.27" y="27.43" width="12.35" height="74"/>
            <path class="eadfb5f1-8b96-424b-aefe-a9011f171dbe" d="M7.67,27.43A7.65,7.65,0,0,0,0,35.08V94.41a7,7,0,0,0,7,7h5.32v-74Z"/>
            <path class="b52f22a3-823a-41b4-8ebf-173bd640dc06" d="M66.67,27.43H61.62v74H67A6.92,6.92,0,0,0,74,94.52V34.7A7.27,7.27,0,0,0,66.67,27.43Z"/>
          </g>
          <g>
            <rect class="aa4e8f5f-ceb6-4fa4-afab-5349e64dd810" x="12.34" y="27.43" width="12.35" height="74"/>
            <path class="f1b03bc1-4d82-4b96-b9e9-04f7cfabbb8e" d="M49.28,27.43H48L43.8,24.91l.05-3.21A11.94,11.94,0,0,0,37,0V101.43h0v6.68a2.33,2.33,0,0,0,1.34-4.24v-.62l.82-.49h.25v-1.33h9.88Z"/>
            <rect class="b5096e77-9fce-4b0d-beb5-9be4901f2449" x="49.27" y="27.43" width="12.35" height="74"/>
            <path class="eadfb5f1-8b96-424b-aefe-a9011f171dbe" d="M7.67,27.43A7.65,7.65,0,0,0,0,35.08V94.41a7,7,0,0,0,7,7h5.32v-74Z"/>
            <path class="b52f22a3-823a-41b4-8ebf-173bd640dc06" d="M66.67,27.43H61.62v74H67A6.92,6.92,0,0,0,74,94.52V34.7A7.27,7.27,0,0,0,66.67,27.43Z"/>
          </g>
          <g>
            <rect class="aa4e8f5f-ceb6-4fa4-afab-5349e64dd810" x="12.34" y="27.43" width="12.35" height="74"/>
            <path class="b2b802b2-1bd5-4579-bb77-932ad8f792f7" d="M37,88.32V0A11.95,11.95,0,0,0,30.1,21.7l.06,3.21L26,27.43H24.68v74H34.6v1.33h.25l.82.49v.62A2.33,2.33,0,0,0,37,108.11V88.32Z"/>
            <path class="f1b03bc1-4d82-4b96-b9e9-04f7cfabbb8e" d="M49.28,27.43H48L43.8,24.91l.05-3.21A11.94,11.94,0,0,0,37,0V101.43h0v6.68a2.33,2.33,0,0,0,1.34-4.24v-.62l.82-.49h.25v-1.33h9.88Z"/>
            <rect class="b5096e77-9fce-4b0d-beb5-9be4901f2449" x="49.27" y="27.43" width="12.35" height="74"/>
            <path class="bf2c837f-a9d5-4d99-8821-c166c65051ee" d="M7.67,27.43A7.65,7.65,0,0,0,0,35.08V94.41a7,7,0,0,0,7,7h5.32v-74Z"/>
            <path class="b52f22a3-823a-41b4-8ebf-173bd640dc06" d="M66.67,27.43H61.62v74H67A6.92,6.92,0,0,0,74,94.52V34.7A7.27,7.27,0,0,0,66.67,27.43Z"/>
          </g>
        </g>
        <g>
          <g>
            <rect class="aa4e8f5f-ceb6-4fa4-afab-5349e64dd810" x="12.34" y="27.43" width="12.35" height="74"/>
            <path class="f1b03bc1-4d82-4b96-b9e9-04f7cfabbb8e" d="M49.28,27.43H48L43.8,24.91l.05-3.21A11.94,11.94,0,0,0,37,0V101.43h0v6.68a2.33,2.33,0,0,0,1.34-4.24v-.62l.82-.49h.25v-1.33h9.88Z"/>
            <rect class="b5096e77-9fce-4b0d-beb5-9be4901f2449" x="49.27" y="27.43" width="12.35" height="74"/>
            <path class="eadfb5f1-8b96-424b-aefe-a9011f171dbe" d="M7.67,27.43A7.65,7.65,0,0,0,0,35.08V94.41a7,7,0,0,0,7,7h5.32v-74Z"/>
            <path class="b52f22a3-823a-41b4-8ebf-173bd640dc06" d="M66.67,27.43H61.62v74H67A6.92,6.92,0,0,0,74,94.52V34.7A7.27,7.27,0,0,0,66.67,27.43Z"/>
          </g>
          <g>
            <rect class="aa4e8f5f-ceb6-4fa4-afab-5349e64dd810" x="12.34" y="27.43" width="12.35" height="74"/>
            <path class="f1b03bc1-4d82-4b96-b9e9-04f7cfabbb8e" d="M49.28,27.43H48L43.8,24.91l.05-3.21A11.94,11.94,0,0,0,37,0V101.43h0v6.68a2.33,2.33,0,0,0,1.34-4.24v-.62l.82-.49h.25v-1.33h9.88Z"/>
            <rect class="b5096e77-9fce-4b0d-beb5-9be4901f2449" x="49.27" y="27.43" width="12.35" height="74"/>
            <path class="eadfb5f1-8b96-424b-aefe-a9011f171dbe" d="M7.67,27.43A7.65,7.65,0,0,0,0,35.08V94.41a7,7,0,0,0,7,7h5.32v-74Z"/>
            <path class="b52f22a3-823a-41b4-8ebf-173bd640dc06" d="M66.67,27.43H61.62v74H67A6.92,6.92,0,0,0,74,94.52V34.7A7.27,7.27,0,0,0,66.67,27.43Z"/>
          </g>
          <g>
            <rect class="aa4e8f5f-ceb6-4fa4-afab-5349e64dd810" x="12.34" y="27.43" width="12.35" height="74"/>
            <path class="f1b03bc1-4d82-4b96-b9e9-04f7cfabbb8e" d="M49.28,27.43H48L43.8,24.91l.05-3.21A11.94,11.94,0,0,0,37,0V101.43h0v6.68a2.33,2.33,0,0,0,1.34-4.24v-.62l.82-.49h.25v-1.33h9.88Z"/>
            <rect class="b5096e77-9fce-4b0d-beb5-9be4901f2449" x="49.27" y="27.43" width="12.35" height="74"/>
            <path class="eadfb5f1-8b96-424b-aefe-a9011f171dbe" d="M7.67,27.43A7.65,7.65,0,0,0,0,35.08V94.41a7,7,0,0,0,7,7h5.32v-74Z"/>
            <path class="b52f22a3-823a-41b4-8ebf-173bd640dc06" d="M66.67,27.43H61.62v74H67A6.92,6.92,0,0,0,74,94.52V34.7A7.27,7.27,0,0,0,66.67,27.43Z"/>
          </g>
          <g>
            <rect class="aa4e8f5f-ceb6-4fa4-afab-5349e64dd810" x="12.34" y="27.43" width="12.35" height="74"/>
            <path class="f1b03bc1-4d82-4b96-b9e9-04f7cfabbb8e" d="M49.28,27.43H48L43.8,24.91l.05-3.21A11.94,11.94,0,0,0,37,0V101.43h0v6.68a2.33,2.33,0,0,0,1.34-4.24v-.62l.82-.49h.25v-1.33h9.88Z"/>
            <rect class="b5096e77-9fce-4b0d-beb5-9be4901f2449" x="49.27" y="27.43" width="12.35" height="74"/>
            <path class="eadfb5f1-8b96-424b-aefe-a9011f171dbe" d="M7.67,27.43A7.65,7.65,0,0,0,0,35.08V94.41a7,7,0,0,0,7,7h5.32v-74Z"/>
            <path class="b52f22a3-823a-41b4-8ebf-173bd640dc06" d="M66.67,27.43H61.62v74H67A6.92,6.92,0,0,0,74,94.52V34.7A7.27,7.27,0,0,0,66.67,27.43Z"/>
          </g>
          <g>
            <rect class="aa4e8f5f-ceb6-4fa4-afab-5349e64dd810" x="12.34" y="27.43" width="12.35" height="74"/>
            <path class="b2b802b2-1bd5-4579-bb77-932ad8f792f7" d="M37,88.32V0A11.95,11.95,0,0,0,30.1,21.7l.06,3.21L26,27.43H24.68v74H34.6v1.33h.25l.82.49v.62A2.33,2.33,0,0,0,37,108.11V88.32Z"/>
            <path class="f1b03bc1-4d82-4b96-b9e9-04f7cfabbb8e" d="M49.28,27.43H48L43.8,24.91l.05-3.21A11.94,11.94,0,0,0,37,0V101.43h0v6.68a2.33,2.33,0,0,0,1.34-4.24v-.62l.82-.49h.25v-1.33h9.88Z"/>
            <rect class="b5096e77-9fce-4b0d-beb5-9be4901f2449" x="49.27" y="27.43" width="12.35" height="74"/>
            <path class="bf2c837f-a9d5-4d99-8821-c166c65051ee" d="M7.67,27.43A7.65,7.65,0,0,0,0,35.08V94.41a7,7,0,0,0,7,7h5.32v-74Z"/>
            <path class="b52f22a3-823a-41b4-8ebf-173bd640dc06" d="M66.67,27.43H61.62v74H67A6.92,6.92,0,0,0,74,94.52V34.7A7.27,7.27,0,0,0,66.67,27.43Z"/>
          </g>
        </g>
        <g>
          <g>
            <rect class="aa4e8f5f-ceb6-4fa4-afab-5349e64dd810" x="12.34" y="27.43" width="12.35" height="74"/>
            <path class="f1b03bc1-4d82-4b96-b9e9-04f7cfabbb8e" d="M49.28,27.43H48L43.8,24.91l.05-3.21A11.94,11.94,0,0,0,37,0V101.43h0v6.68a2.33,2.33,0,0,0,1.34-4.24v-.62l.82-.49h.25v-1.33h9.88Z"/>
            <rect class="b5096e77-9fce-4b0d-beb5-9be4901f2449" x="49.27" y="27.43" width="12.35" height="74"/>
            <path class="eadfb5f1-8b96-424b-aefe-a9011f171dbe" d="M7.67,27.43A7.65,7.65,0,0,0,0,35.08V94.41a7,7,0,0,0,7,7h5.32v-74Z"/>
            <path class="b52f22a3-823a-41b4-8ebf-173bd640dc06" d="M66.67,27.43H61.62v74H67A6.92,6.92,0,0,0,74,94.52V34.7A7.27,7.27,0,0,0,66.67,27.43Z"/>
          </g>
          <g>
            <rect class="aa4e8f5f-ceb6-4fa4-afab-5349e64dd810" x="12.34" y="27.43" width="12.35" height="74"/>
            <path class="f1b03bc1-4d82-4b96-b9e9-04f7cfabbb8e" d="M49.28,27.43H48L43.8,24.91l.05-3.21A11.94,11.94,0,0,0,37,0V101.43h0v6.68a2.33,2.33,0,0,0,1.34-4.24v-.62l.82-.49h.25v-1.33h9.88Z"/>
            <rect class="b5096e77-9fce-4b0d-beb5-9be4901f2449" x="49.27" y="27.43" width="12.35" height="74"/>
            <path class="eadfb5f1-8b96-424b-aefe-a9011f171dbe" d="M7.67,27.43A7.65,7.65,0,0,0,0,35.08V94.41a7,7,0,0,0,7,7h5.32v-74Z"/>
            <path class="b52f22a3-823a-41b4-8ebf-173bd640dc06" d="M66.67,27.43H61.62v74H67A6.92,6.92,0,0,0,74,94.52V34.7A7.27,7.27,0,0,0,66.67,27.43Z"/>
          </g>
          <g>
            <rect class="aa4e8f5f-ceb6-4fa4-afab-5349e64dd810" x="12.34" y="27.43" width="12.35" height="74"/>
            <path class="f1b03bc1-4d82-4b96-b9e9-04f7cfabbb8e" d="M49.28,27.43H48L43.8,24.91l.05-3.21A11.94,11.94,0,0,0,37,0V101.43h0v6.68a2.33,2.33,0,0,0,1.34-4.24v-.62l.82-.49h.25v-1.33h9.88Z"/>
            <rect class="b5096e77-9fce-4b0d-beb5-9be4901f2449" x="49.27" y="27.43" width="12.35" height="74"/>
            <path class="eadfb5f1-8b96-424b-aefe-a9011f171dbe" d="M7.67,27.43A7.65,7.65,0,0,0,0,35.08V94.41a7,7,0,0,0,7,7h5.32v-74Z"/>
            <path class="b52f22a3-823a-41b4-8ebf-173bd640dc06" d="M66.67,27.43H61.62v74H67A6.92,6.92,0,0,0,74,94.52V34.7A7.27,7.27,0,0,0,66.67,27.43Z"/>
          </g>
          <g>
            <rect class="aa4e8f5f-ceb6-4fa4-afab-5349e64dd810" x="12.34" y="27.43" width="12.35" height="74"/>
            <path class="f1b03bc1-4d82-4b96-b9e9-04f7cfabbb8e" d="M49.28,27.43H48L43.8,24.91l.05-3.21A11.94,11.94,0,0,0,37,0V101.43h0v6.68a2.33,2.33,0,0,0,1.34-4.24v-.62l.82-.49h.25v-1.33h9.88Z"/>
            <rect class="b5096e77-9fce-4b0d-beb5-9be4901f2449" x="49.27" y="27.43" width="12.35" height="74"/>
            <path class="eadfb5f1-8b96-424b-aefe-a9011f171dbe" d="M7.67,27.43A7.65,7.65,0,0,0,0,35.08V94.41a7,7,0,0,0,7,7h5.32v-74Z"/>
            <path class="b52f22a3-823a-41b4-8ebf-173bd640dc06" d="M66.67,27.43H61.62v74H67A6.92,6.92,0,0,0,74,94.52V34.7A7.27,7.27,0,0,0,66.67,27.43Z"/>
          </g>
          <g>
            <rect class="aa4e8f5f-ceb6-4fa4-afab-5349e64dd810" x="12.34" y="27.43" width="12.35" height="74"/>
            <path class="b2b802b2-1bd5-4579-bb77-932ad8f792f7" d="M37,88.32V0A11.95,11.95,0,0,0,30.1,21.7l.06,3.21L26,27.43H24.68v74H34.6v1.33h.25l.82.49v.62A2.33,2.33,0,0,0,37,108.11V88.32Z"/>
            <path class="f1b03bc1-4d82-4b96-b9e9-04f7cfabbb8e" d="M49.28,27.43H48L43.8,24.91l.05-3.21A11.94,11.94,0,0,0,37,0V101.43h0v6.68a2.33,2.33,0,0,0,1.34-4.24v-.62l.82-.49h.25v-1.33h9.88Z"/>
            <rect class="b5096e77-9fce-4b0d-beb5-9be4901f2449" x="49.27" y="27.43" width="12.35" height="74"/>
            <path class="bf2c837f-a9d5-4d99-8821-c166c65051ee" d="M7.67,27.43A7.65,7.65,0,0,0,0,35.08V94.41a7,7,0,0,0,7,7h5.32v-74Z"/>
            <path class="b52f22a3-823a-41b4-8ebf-173bd640dc06" d="M66.67,27.43H61.62v74H67A6.92,6.92,0,0,0,74,94.52V34.7A7.27,7.27,0,0,0,66.67,27.43Z"/>
          </g>
        </g>
        <g>
          <g>
            <rect class="aa4e8f5f-ceb6-4fa4-afab-5349e64dd810" x="12.34" y="27.43" width="12.35" height="74"/>
            <path class="f1b03bc1-4d82-4b96-b9e9-04f7cfabbb8e" d="M49.28,27.43H48L43.8,24.91l.05-3.21A11.94,11.94,0,0,0,37,0V101.43h0v6.68a2.33,2.33,0,0,0,1.34-4.24v-.62l.82-.49h.25v-1.33h9.88Z"/>
            <rect class="b5096e77-9fce-4b0d-beb5-9be4901f2449" x="49.27" y="27.43" width="12.35" height="74"/>
            <path class="eadfb5f1-8b96-424b-aefe-a9011f171dbe" d="M7.67,27.43A7.65,7.65,0,0,0,0,35.08V94.41a7,7,0,0,0,7,7h5.32v-74Z"/>
            <path class="b52f22a3-823a-41b4-8ebf-173bd640dc06" d="M66.67,27.43H61.62v74H67A6.92,6.92,0,0,0,74,94.52V34.7A7.27,7.27,0,0,0,66.67,27.43Z"/>
          </g>
          <g>
            <rect class="aa4e8f5f-ceb6-4fa4-afab-5349e64dd810" x="12.34" y="27.43" width="12.35" height="74"/>
            <path class="f1b03bc1-4d82-4b96-b9e9-04f7cfabbb8e" d="M49.28,27.43H48L43.8,24.91l.05-3.21A11.94,11.94,0,0,0,37,0V101.43h0v6.68a2.33,2.33,0,0,0,1.34-4.24v-.62l.82-.49h.25v-1.33h9.88Z"/>
            <rect class="b5096e77-9fce-4b0d-beb5-9be4901f2449" x="49.27" y="27.43" width="12.35" height="74"/>
            <path class="eadfb5f1-8b96-424b-aefe-a9011f171dbe" d="M7.67,27.43A7.65,7.65,0,0,0,0,35.08V94.41a7,7,0,0,0,7,7h5.32v-74Z"/>
            <path class="b52f22a3-823a-41b4-8ebf-173bd640dc06" d="M66.67,27.43H61.62v74H67A6.92,6.92,0,0,0,74,94.52V34.7A7.27,7.27,0,0,0,66.67,27.43Z"/>
          </g>
          <g>
            <rect class="aa4e8f5f-ceb6-4fa4-afab-5349e64dd810" x="12.34" y="27.43" width="12.35" height="74"/>
            <path class="f1b03bc1-4d82-4b96-b9e9-04f7cfabbb8e" d="M49.28,27.43H48L43.8,24.91l.05-3.21A11.94,11.94,0,0,0,37,0V101.43h0v6.68a2.33,2.33,0,0,0,1.34-4.24v-.62l.82-.49h.25v-1.33h9.88Z"/>
            <rect class="b5096e77-9fce-4b0d-beb5-9be4901f2449" x="49.27" y="27.43" width="12.35" height="74"/>
            <path class="eadfb5f1-8b96-424b-aefe-a9011f171dbe" d="M7.67,27.43A7.65,7.65,0,0,0,0,35.08V94.41a7,7,0,0,0,7,7h5.32v-74Z"/>
            <path class="b52f22a3-823a-41b4-8ebf-173bd640dc06" d="M66.67,27.43H61.62v74H67A6.92,6.92,0,0,0,74,94.52V34.7A7.27,7.27,0,0,0,66.67,27.43Z"/>
          </g>
          <g>
            <rect class="aa4e8f5f-ceb6-4fa4-afab-5349e64dd810" x="12.34" y="27.43" width="12.35" height="74"/>
            <path class="f1b03bc1-4d82-4b96-b9e9-04f7cfabbb8e" d="M49.28,27.43H48L43.8,24.91l.05-3.21A11.94,11.94,0,0,0,37,0V101.43h0v6.68a2.33,2.33,0,0,0,1.34-4.24v-.62l.82-.49h.25v-1.33h9.88Z"/>
            <rect class="b5096e77-9fce-4b0d-beb5-9be4901f2449" x="49.27" y="27.43" width="12.35" height="74"/>
            <path class="eadfb5f1-8b96-424b-aefe-a9011f171dbe" d="M7.67,27.43A7.65,7.65,0,0,0,0,35.08V94.41a7,7,0,0,0,7,7h5.32v-74Z"/>
            <path class="b52f22a3-823a-41b4-8ebf-173bd640dc06" d="M66.67,27.43H61.62v74H67A6.92,6.92,0,0,0,74,94.52V34.7A7.27,7.27,0,0,0,66.67,27.43Z"/>
          </g>
          <g>
            <rect class="aa4e8f5f-ceb6-4fa4-afab-5349e64dd810" x="12.34" y="27.43" width="12.35" height="74"/>
            <path class="b2b802b2-1bd5-4579-bb77-932ad8f792f7" d="M37,88.32V0A11.95,11.95,0,0,0,30.1,21.7l.06,3.21L26,27.43H24.68v74H34.6v1.33h.25l.82.49v.62A2.33,2.33,0,0,0,37,108.11V88.32Z"/>
            <path class="f1b03bc1-4d82-4b96-b9e9-04f7cfabbb8e" d="M49.28,27.43H48L43.8,24.91l.05-3.21A11.94,11.94,0,0,0,37,0V101.43h0v6.68a2.33,2.33,0,0,0,1.34-4.24v-.62l.82-.49h.25v-1.33h9.88Z"/>
            <rect class="b5096e77-9fce-4b0d-beb5-9be4901f2449" x="49.27" y="27.43" width="12.35" height="74"/>
            <path class="bf2c837f-a9d5-4d99-8821-c166c65051ee" d="M7.67,27.43A7.65,7.65,0,0,0,0,35.08V94.41a7,7,0,0,0,7,7h5.32v-74Z"/>
            <path class="b52f22a3-823a-41b4-8ebf-173bd640dc06" d="M66.67,27.43H61.62v74H67A6.92,6.92,0,0,0,74,94.52V34.7A7.27,7.27,0,0,0,66.67,27.43Z"/>
          </g>
        </g>
        <g>
          <g>
            <rect class="aa4e8f5f-ceb6-4fa4-afab-5349e64dd810" x="12.34" y="27.43" width="12.35" height="74"/>
            <path class="f1b03bc1-4d82-4b96-b9e9-04f7cfabbb8e" d="M49.28,27.43H48L43.8,24.91l.05-3.21A11.94,11.94,0,0,0,37,0V101.43h0v6.68a2.33,2.33,0,0,0,1.34-4.24v-.62l.82-.49h.25v-1.33h9.88Z"/>
            <rect class="b5096e77-9fce-4b0d-beb5-9be4901f2449" x="49.27" y="27.43" width="12.35" height="74"/>
            <path class="eadfb5f1-8b96-424b-aefe-a9011f171dbe" d="M7.67,27.43A7.65,7.65,0,0,0,0,35.08V94.41a7,7,0,0,0,7,7h5.32v-74Z"/>
            <path class="b52f22a3-823a-41b4-8ebf-173bd640dc06" d="M66.67,27.43H61.62v74H67A6.92,6.92,0,0,0,74,94.52V34.7A7.27,7.27,0,0,0,66.67,27.43Z"/>
          </g>
          <g>
            <rect class="aa4e8f5f-ceb6-4fa4-afab-5349e64dd810" x="12.34" y="27.43" width="12.35" height="74"/>
            <path class="f1b03bc1-4d82-4b96-b9e9-04f7cfabbb8e" d="M49.28,27.43H48L43.8,24.91l.05-3.21A11.94,11.94,0,0,0,37,0V101.43h0v6.68a2.33,2.33,0,0,0,1.34-4.24v-.62l.82-.49h.25v-1.33h9.88Z"/>
            <rect class="b5096e77-9fce-4b0d-beb5-9be4901f2449" x="49.27" y="27.43" width="12.35" height="74"/>
            <path class="eadfb5f1-8b96-424b-aefe-a9011f171dbe" d="M7.67,27.43A7.65,7.65,0,0,0,0,35.08V94.41a7,7,0,0,0,7,7h5.32v-74Z"/>
            <path class="b52f22a3-823a-41b4-8ebf-173bd640dc06" d="M66.67,27.43H61.62v74H67A6.92,6.92,0,0,0,74,94.52V34.7A7.27,7.27,0,0,0,66.67,27.43Z"/>
          </g>
          <g>
            <rect class="aa4e8f5f-ceb6-4fa4-afab-5349e64dd810" x="12.34" y="27.43" width="12.35" height="74"/>
            <path class="f1b03bc1-4d82-4b96-b9e9-04f7cfabbb8e" d="M49.28,27.43H48L43.8,24.91l.05-3.21A11.94,11.94,0,0,0,37,0V101.43h0v6.68a2.33,2.33,0,0,0,1.34-4.24v-.62l.82-.49h.25v-1.33h9.88Z"/>
            <rect class="b5096e77-9fce-4b0d-beb5-9be4901f2449" x="49.27" y="27.43" width="12.35" height="74"/>
            <path class="eadfb5f1-8b96-424b-aefe-a9011f171dbe" d="M7.67,27.43A7.65,7.65,0,0,0,0,35.08V94.41a7,7,0,0,0,7,7h5.32v-74Z"/>
            <path class="b52f22a3-823a-41b4-8ebf-173bd640dc06" d="M66.67,27.43H61.62v74H67A6.92,6.92,0,0,0,74,94.52V34.7A7.27,7.27,0,0,0,66.67,27.43Z"/>
          </g>
          <g>
            <rect class="aa4e8f5f-ceb6-4fa4-afab-5349e64dd810" x="12.34" y="27.43" width="12.35" height="74"/>
            <path class="f1b03bc1-4d82-4b96-b9e9-04f7cfabbb8e" d="M49.28,27.43H48L43.8,24.91l.05-3.21A11.94,11.94,0,0,0,37,0V101.43h0v6.68a2.33,2.33,0,0,0,1.34-4.24v-.62l.82-.49h.25v-1.33h9.88Z"/>
            <rect class="b5096e77-9fce-4b0d-beb5-9be4901f2449" x="49.27" y="27.43" width="12.35" height="74"/>
            <path class="eadfb5f1-8b96-424b-aefe-a9011f171dbe" d="M7.67,27.43A7.65,7.65,0,0,0,0,35.08V94.41a7,7,0,0,0,7,7h5.32v-74Z"/>
            <path class="b52f22a3-823a-41b4-8ebf-173bd640dc06" d="M66.67,27.43H61.62v74H67A6.92,6.92,0,0,0,74,94.52V34.7A7.27,7.27,0,0,0,66.67,27.43Z"/>
          </g>
          <g>
            <rect class="aa4e8f5f-ceb6-4fa4-afab-5349e64dd810" x="12.34" y="27.43" width="12.35" height="74"/>
            <path class="b2b802b2-1bd5-4579-bb77-932ad8f792f7" d="M37,88.32V0A11.95,11.95,0,0,0,30.1,21.7l.06,3.21L26,27.43H24.68v74H34.6v1.33h.25l.82.49v.62A2.33,2.33,0,0,0,37,108.11V88.32Z"/>
            <path class="f1b03bc1-4d82-4b96-b9e9-04f7cfabbb8e" d="M49.28,27.43H48L43.8,24.91l.05-3.21A11.94,11.94,0,0,0,37,0V101.43h0v6.68a2.33,2.33,0,0,0,1.34-4.24v-.62l.82-.49h.25v-1.33h9.88Z"/>
            <rect class="b5096e77-9fce-4b0d-beb5-9be4901f2449" x="49.27" y="27.43" width="12.35" height="74"/>
            <path class="bf2c837f-a9d5-4d99-8821-c166c65051ee" d="M7.67,27.43A7.65,7.65,0,0,0,0,35.08V94.41a7,7,0,0,0,7,7h5.32v-74Z"/>
            <path class="b52f22a3-823a-41b4-8ebf-173bd640dc06" d="M66.67,27.43H61.62v74H67A6.92,6.92,0,0,0,74,94.52V34.7A7.27,7.27,0,0,0,66.67,27.43Z"/>
          </g>
        </g>
        <g id="a2de5228-161a-4e75-82aa-379ea44d3a2c" data-name="Layer 80 copy 8">
          <g>
            <path class="ec1f4eb3-04d1-49d1-b498-b041a531e54e" d="M52.11,44.37c.39,2.57,2.44,4.82,3.74,4.83,1,0,5-1.63,5.59-4.65a4.21,4.21,0,0,0-5.53-4.92C52.84,39.61,51.52,40.57,52.11,44.37Z"/>
            <path class="e884303b-ba2f-4b2c-a9bd-0d53c9ba7397" d="M50.37,44.71c.6,2.52,4.18,4.48,5.48,4.49,1,0,3.84-6.19.06-9.57C52.52,38.45,49.47,41,50.37,44.71Z"/>
          </g>
        </g>
      </g>
    </g>
  </g>
</svg>
