<svg xmlns="http://www.w3.org/2000/svg" xmlns:xlink="http://www.w3.org/1999/xlink" viewBox="0 0 74 101.43">
  <defs>
    <style>
      .bc1edd46-4513-4424-8daf-951779f9cba4 {
        fill: #ff9192;
      }

      .a6df409d-e2f4-4c0c-b1bc-b40f7af716f4 {
        fill: url(#b83d2b2f-380d-4946-aca2-63a2cf4e818d);
      }

      .b3377216-5a54-4766-a01c-e2c05309ff6f {
        fill: url(#bfe13aa5-973c-44b8-8d27-85e753272ced);
      }
    </style>
    <radialGradient id="b83d2b2f-380d-4946-aca2-63a2cf4e818d" cx="98.64" cy="36.82" r="5.25" gradientTransform="matrix(-1.9, -0.01, -0.01, 1.79, 248.55, -22.93)" gradientUnits="userSpaceOnUse">
      <stop offset="0.15" stop-color="#ff9765"/>
      <stop offset="0.2" stop-color="#fc9273"/>
      <stop offset="0.29" stop-color="#f58598"/>
      <stop offset="0.34" stop-color="#f07cb0"/>
      <stop offset="0.43" stop-color="#f078ac"/>
      <stop offset="0.52" stop-color="#ee6aa0"/>
      <stop offset="0.62" stop-color="#ec558b"/>
      <stop offset="0.72" stop-color="#e93a72"/>
      <stop offset="0.76" stop-color="#ea3f79"/>
      <stop offset="0.81" stop-color="#eb4c8b"/>
      <stop offset="0.88" stop-color="#ee61a9"/>
      <stop offset="0.95" stop-color="#f17ed3"/>
      <stop offset="1" stop-color="#f494f2"/>
    </radialGradient>
    <radialGradient id="bfe13aa5-973c-44b8-8d27-85e753272ced" cx="99.9" cy="36.87" r="4.8" gradientTransform="matrix(-1.9, -0.01, -0.01, 1.79, 248.55, -22.93)" gradientUnits="userSpaceOnUse">
      <stop offset="0" stop-color="#ff9765"/>
      <stop offset="0.12" stop-color="#fc9273"/>
      <stop offset="0.34" stop-color="#f58598"/>
      <stop offset="0.47" stop-color="#f07cb0"/>
      <stop offset="0.54" stop-color="#f07eb4"/>
      <stop offset="0.62" stop-color="#f182c2"/>
      <stop offset="0.7" stop-color="#f28ad7"/>
      <stop offset="0.78" stop-color="#f496f6"/>
      <stop offset="0.81" stop-color="#f599ff"/>
      <stop offset="0.83" stop-color="#f594f8"/>
      <stop offset="0.87" stop-color="#f788e6"/>
      <stop offset="0.91" stop-color="#f973c8"/>
      <stop offset="0.95" stop-color="#fb569e"/>
      <stop offset="1" stop-color="#ff3169"/>
    </radialGradient>
  </defs>
  <g id="a7d3dd0e-f2db-4e77-ba27-31025c2f196c" data-name="Layer 2">
    <g id="a27e1713-7b7b-4809-8b8f-a692fc54e3cd" data-name="IDENTITY">
      <g id="ab80afc6-7b9f-4408-ab22-b9a618e3ab93" data-name="Layer 67">
        <path class="bc1edd46-4513-4424-8daf-951779f9cba4" d="M67,27.43H48l-4.2-2.52.06-3.21a12,12,0,1,0-13.8,0l.06,3.21L26,27.43H7.05a7.05,7.05,0,0,0-7,7V94.37a7.06,7.06,0,0,0,7.05,7.06h21a12.05,12.05,0,0,1-2.81-7.76,11.75,11.75,0,1,1,23.5,0,12.05,12.05,0,0,1-2.81,7.76H67a7.06,7.06,0,0,0,7-7.06V34.48A7.05,7.05,0,0,0,67,27.43Z"/>
        <g id="f1a4e885-dabc-43d9-a8f0-dd7cac915525" data-name="Layer 80 copy 17">
          <g>
            <path class="a6df409d-e2f4-4c0c-b1bc-b40f7af716f4" d="M52.11,44.52c.39,2.57,2.44,4.83,3.74,4.83,1,0,5-1.63,5.59-4.65a4.21,4.21,0,0,0-5.53-4.92C52.84,39.76,51.52,40.73,52.11,44.52Z"/>
            <path class="b3377216-5a54-4766-a01c-e2c05309ff6f" d="M50.37,44.86c.6,2.52,4.18,4.49,5.48,4.49,1,0,3.84-6.19.06-9.57C52.52,38.6,49.47,41.13,50.37,44.86Z"/>
          </g>
        </g>
      </g>
    </g>
  </g>
</svg>
