<svg xmlns="http://www.w3.org/2000/svg" xmlns:xlink="http://www.w3.org/1999/xlink" viewBox="0 0 74 107.78">
  <defs>
    <style>
      .a9676c9a-e067-4afe-b973-7dc5af4e158f {
        fill: #a3a3a3;
      }

      .bd08d0f5-5089-47e0-b89e-49fc028acc85 {
        fill: #fefdf8;
      }

      .bba76303-32b5-4868-82d9-7385f4e210aa {
        fill: #fff315;
      }

      .f2ce6210-2565-4cef-9074-3586e6728e7d {
        fill: #fff;
      }

      .b6cbfd8d-d98d-46e8-94aa-7ecc3dd49696 {
        fill: #a952d5;
      }

      .b67d5a1f-f5d5-4da4-b337-f5bef9baa9f4 {
        fill: url(#e819ed1c-691a-446d-a27a-e5de79b777e5);
      }

      .f87c295e-6e99-45db-a990-251c467b6f82 {
        fill: url(#ae8091ce-130a-4521-b0ea-35395f3c864e);
      }
    </style>
    <radialGradient id="e819ed1c-691a-446d-a27a-e5de79b777e5" cx="98.64" cy="36.71" r="5.25" gradientTransform="matrix(-1.9, -0.01, -0.01, 1.79, 248.55, -22.84)" gradientUnits="userSpaceOnUse">
      <stop offset="0.15" stop-color="#ff9765"/>
      <stop offset="0.2" stop-color="#fc9273"/>
      <stop offset="0.29" stop-color="#f58598"/>
      <stop offset="0.34" stop-color="#f07cb0"/>
      <stop offset="0.43" stop-color="#f078ac"/>
      <stop offset="0.52" stop-color="#ee6aa0"/>
      <stop offset="0.62" stop-color="#ec558b"/>
      <stop offset="0.72" stop-color="#e93a72"/>
      <stop offset="0.76" stop-color="#ea3f79"/>
      <stop offset="0.81" stop-color="#eb4c8b"/>
      <stop offset="0.88" stop-color="#ee61a9"/>
      <stop offset="0.95" stop-color="#f17ed3"/>
      <stop offset="1" stop-color="#f494f2"/>
    </radialGradient>
    <radialGradient id="ae8091ce-130a-4521-b0ea-35395f3c864e" cx="99.9" cy="36.75" r="4.8" gradientTransform="matrix(-1.9, -0.01, -0.01, 1.79, 248.55, -22.84)" gradientUnits="userSpaceOnUse">
      <stop offset="0" stop-color="#ff9765"/>
      <stop offset="0.12" stop-color="#fc9273"/>
      <stop offset="0.34" stop-color="#f58598"/>
      <stop offset="0.47" stop-color="#f07cb0"/>
      <stop offset="0.54" stop-color="#f07eb4"/>
      <stop offset="0.62" stop-color="#f182c2"/>
      <stop offset="0.7" stop-color="#f28ad7"/>
      <stop offset="0.78" stop-color="#f496f6"/>
      <stop offset="0.81" stop-color="#f599ff"/>
      <stop offset="0.83" stop-color="#f594f8"/>
      <stop offset="0.87" stop-color="#f788e6"/>
      <stop offset="0.91" stop-color="#f973c8"/>
      <stop offset="0.95" stop-color="#fb569e"/>
      <stop offset="1" stop-color="#ff3169"/>
    </radialGradient>
  </defs>
  <g id="a8c42da1-6ff0-4a62-966a-61d152205bd4" data-name="Layer 2">
    <g id="feb98dde-ea84-4b7b-bb65-51fca9840bcc" data-name="IDENTITY">
      <g id="b21fb0c5-ee10-4da1-8a1c-b5900a89a4d0" data-name="Layer 60">
        <path class="a9676c9a-e067-4afe-b973-7dc5af4e158f" d="M25.05,12A11.93,11.93,0,0,0,30.1,21.7l.06,3.21L26,27.43H17.5v74H37V0A12,12,0,0,0,25.05,12Z"/>
        <path class="bd08d0f5-5089-47e0-b89e-49fc028acc85" d="M49,12A11.93,11.93,0,0,1,43.9,21.7l-.06,3.21L48,27.43H56.5v74H37V0A12,12,0,0,1,49,12Z"/>
        <g id="a8b1be18-993f-4d73-91fe-85a723926956" data-name="Layer 83">
          <path class="bba76303-32b5-4868-82d9-7385f4e210aa" d="M6.38,27.42H17.5a0,0,0,0,1,0,0v73.9a0,0,0,0,1,0,0H6.38A6.38,6.38,0,0,1,0,94.94V33.79A6.38,6.38,0,0,1,6.38,27.42Z"/>
          <path d="M56.5,27.42h10a7.5,7.5,0,0,1,7.5,7.5v59a7.44,7.44,0,0,1-7.44,7.44H56.5a0,0,0,0,1,0,0V27.42a0,0,0,0,1,0,0Z"/>
        </g>
        <path class="f2ce6210-2565-4cef-9074-3586e6728e7d" d="M25.05,12A11.93,11.93,0,0,0,30.1,21.7l.06,3.21L26,27.43H17.5v74H37V0A12,12,0,0,0,25.05,12Z"/>
        <path class="b6cbfd8d-d98d-46e8-94aa-7ecc3dd49696" d="M49,12A11.93,11.93,0,0,1,43.9,21.7l-.06,3.21L48,27.43H56.5v74H37V0A12,12,0,0,1,49,12Z"/>
        <path class="f2ce6210-2565-4cef-9074-3586e6728e7d" d="M34.94,105.72a2.06,2.06,0,0,1,.87-1.68v-.55l-.72-.43H33.64V90.3H37v17.48A2.06,2.06,0,0,1,34.94,105.72Z"/>
        <path class="b6cbfd8d-d98d-46e8-94aa-7ecc3dd49696" d="M39.06,105.72a2.06,2.06,0,0,0-.87-1.68v-.55l.72-.43h1.46V90.3H37v17.48A2.06,2.06,0,0,0,39.06,105.72Z"/>
        <g id="a1f5c556-c329-489a-bc44-33756e570e9e" data-name="Layer 80 copy 11">
          <g>
            <path class="b67d5a1f-f5d5-4da4-b337-f5bef9baa9f4" d="M52.11,44.41c.39,2.57,2.44,4.82,3.74,4.83,1,0,5-1.63,5.59-4.65a4.21,4.21,0,0,0-5.53-4.92C52.84,39.65,51.52,40.62,52.11,44.41Z"/>
            <path class="f87c295e-6e99-45db-a990-251c467b6f82" d="M50.37,44.75c.6,2.52,4.18,4.48,5.48,4.49,1,0,3.84-6.19.06-9.57C52.52,38.49,49.47,41,50.37,44.75Z"/>
          </g>
        </g>
      </g>
    </g>
  </g>
</svg>
