<svg xmlns="http://www.w3.org/2000/svg" xmlns:xlink="http://www.w3.org/1999/xlink" viewBox="0 0 74.97 108.11">
  <defs>
    <style>
      .aa270c6c-fb0c-48c0-ac76-d6e202956b78 {
        fill: #05d961;
      }

      .ebe84564-9f4c-4fa1-a924-146812d7afa0 {
        fill: #e90274;
      }

      .bc666087-dbfe-459a-a690-7d4697396fb2 {
        fill: #0493fd;
      }

      .fa7f622a-aa2c-42d4-be4f-962c5f6b1d07 {
        fill: url(#bedef0e6-07ca-4b3a-85ed-277243c6d2e8);
      }

      .fa67f65e-4462-49d1-8b16-8cf6dd9a3597 {
        fill: url(#bf1bb20b-8a50-4e83-bde0-0a39f9700c0a);
      }
    </style>
    <radialGradient id="bedef0e6-07ca-4b3a-85ed-277243c6d2e8" cx="99.02" cy="36.67" r="5.25" gradientTransform="matrix(-1.9, -0.01, -0.01, 1.79, 249.66, -22.81)" gradientUnits="userSpaceOnUse">
      <stop offset="0.15" stop-color="#ff9765"/>
      <stop offset="0.2" stop-color="#fc9273"/>
      <stop offset="0.29" stop-color="#f58598"/>
      <stop offset="0.34" stop-color="#f07cb0"/>
      <stop offset="0.43" stop-color="#f078ac"/>
      <stop offset="0.52" stop-color="#ee6aa0"/>
      <stop offset="0.62" stop-color="#ec558b"/>
      <stop offset="0.72" stop-color="#e93a72"/>
      <stop offset="0.76" stop-color="#ea3f79"/>
      <stop offset="0.81" stop-color="#eb4c8b"/>
      <stop offset="0.88" stop-color="#ee61a9"/>
      <stop offset="0.95" stop-color="#f17ed3"/>
      <stop offset="1" stop-color="#f494f2"/>
    </radialGradient>
    <radialGradient id="bf1bb20b-8a50-4e83-bde0-0a39f9700c0a" cx="100.28" cy="36.71" r="4.8" gradientTransform="matrix(-1.9, -0.01, -0.01, 1.79, 249.66, -22.81)" gradientUnits="userSpaceOnUse">
      <stop offset="0" stop-color="#ff9765"/>
      <stop offset="0.12" stop-color="#fc9273"/>
      <stop offset="0.34" stop-color="#f58598"/>
      <stop offset="0.47" stop-color="#f07cb0"/>
      <stop offset="0.54" stop-color="#f07eb4"/>
      <stop offset="0.62" stop-color="#f182c2"/>
      <stop offset="0.7" stop-color="#f28ad7"/>
      <stop offset="0.78" stop-color="#f496f6"/>
      <stop offset="0.81" stop-color="#f599ff"/>
      <stop offset="0.83" stop-color="#f594f8"/>
      <stop offset="0.87" stop-color="#f788e6"/>
      <stop offset="0.91" stop-color="#f973c8"/>
      <stop offset="0.95" stop-color="#fb569e"/>
      <stop offset="1" stop-color="#ff3169"/>
    </radialGradient>
  </defs>
  <g id="af8776eb-392a-4fe4-9bd0-bf757543b455" data-name="Layer 2">
    <g id="abebf76b-6e31-410b-be84-af6cf48a2d8b" data-name="IDENTITY">
      <g id="f53286cd-efbc-4a54-a735-0112f7b64323" data-name="Layer 49">
        <g id="a9c16d5b-e5da-41e2-825f-d9f1b2102bdd" data-name="Layer 80">
          <g>
            <rect class="aa270c6c-fb0c-48c0-ac76-d6e202956b78" x="24.99" y="27.35" width="24.78" height="73.93"/>
            <g>
              <path class="aa270c6c-fb0c-48c0-ac76-d6e202956b78" d="M48.4,27.43l-4.2-2.52.06-3.21a12,12,0,1,0-13.8,0l.06,3.21-4.2,2.52"/>
              <path class="aa270c6c-fb0c-48c0-ac76-d6e202956b78" d="M25,27.35v73.93h3.45a12.07,12.07,0,0,1-2.81-7.76,11.75,11.75,0,1,1,23.5,0,12.12,12.12,0,0,1-2.8,7.76h3.44V27.35"/>
            </g>
            <g>
              <path class="aa270c6c-fb0c-48c0-ac76-d6e202956b78" d="M39.58,103V89.16h-.65a2.25,2.25,0,0,1,.53,1.45,2.2,2.2,0,1,1-4.39,0,2.29,2.29,0,0,1,.52-1.45H35V103"/>
              <path class="aa270c6c-fb0c-48c0-ac76-d6e202956b78" d="M35.2,103l.79.47v.6a2.24,2.24,0,1,0,2.57,0v-.6l.79-.47"/>
            </g>
          </g>
        </g>
        <g id="a47d9a88-037d-4cab-8f41-1193dc5bba85" data-name="Layer 79">
          <path class="ebe84564-9f4c-4fa1-a924-146812d7afa0" d="M7,27.43H25.2a0,0,0,0,1,0,0v73.85a0,0,0,0,1,0,0H6.47A6.47,6.47,0,0,1,0,94.8V34.46A7,7,0,0,1,7,27.43Z"/>
          <path class="bc666087-dbfe-459a-a690-7d4697396fb2" d="M56.25,27.43H75a0,0,0,0,1,0,0v73.85a0,0,0,0,1,0,0H56.81a7,7,0,0,1-7-7V33.9A6.47,6.47,0,0,1,56.25,27.43Z" transform="translate(124.74 128.7) rotate(180)"/>
        </g>
        <g id="e5c119bf-d308-44e1-a14d-89e267c9a82e" data-name="Layer 80 copy">
          <g>
            <path class="fa7f622a-aa2c-42d4-be4f-962c5f6b1d07" d="M52.49,44.37c.39,2.57,2.44,4.82,3.74,4.83,1,0,5-1.63,5.59-4.65a4.21,4.21,0,0,0-5.53-4.92C53.22,39.61,51.9,40.57,52.49,44.37Z"/>
            <path class="fa67f65e-4462-49d1-8b16-8cf6dd9a3597" d="M50.75,44.71c.6,2.52,4.18,4.48,5.48,4.49,1,0,3.85-6.19.06-9.57C52.91,38.45,49.85,41,50.75,44.71Z"/>
          </g>
        </g>
      </g>
    </g>
  </g>
</svg>
