<svg xmlns="http://www.w3.org/2000/svg" xmlns:xlink="http://www.w3.org/1999/xlink" viewBox="0 0 74.97 101.43">
  <defs>
    <style>
      .be547994-d9ef-497b-a5aa-83a3d91e26dc {
        fill: #fed500;
      }

      .affaa59e-2954-40fe-a5e8-aaf2792d00b6 {
        fill: #fd0192;
      }

      .a32e49c0-4d79-42ac-85d8-f0fb748b3ba4 {
        fill: #0493fd;
      }

      .a154375b-cf9c-4fee-9ee2-92687c77d509 {
        fill: url(#f59851cc-b2cd-4dd3-b215-0ee9cec3e216);
      }

      .f1b79307-575d-413e-b66a-528f5dbc7259 {
        fill: url(#e8619f52-a372-47f5-ac89-7ebea5f4ffc0);
      }
    </style>
    <radialGradient id="f59851cc-b2cd-4dd3-b215-0ee9cec3e216" cx="99.02" cy="36.82" r="5.25" gradientTransform="matrix(-1.9, -0.01, -0.01, 1.79, 249.66, -22.93)" gradientUnits="userSpaceOnUse">
      <stop offset="0.15" stop-color="#ff9765"/>
      <stop offset="0.2" stop-color="#fc9273"/>
      <stop offset="0.29" stop-color="#f58598"/>
      <stop offset="0.34" stop-color="#f07cb0"/>
      <stop offset="0.43" stop-color="#f078ac"/>
      <stop offset="0.52" stop-color="#ee6aa0"/>
      <stop offset="0.62" stop-color="#ec558b"/>
      <stop offset="0.72" stop-color="#e93a72"/>
      <stop offset="0.76" stop-color="#ea3f79"/>
      <stop offset="0.81" stop-color="#eb4c8b"/>
      <stop offset="0.88" stop-color="#ee61a9"/>
      <stop offset="0.95" stop-color="#f17ed3"/>
      <stop offset="1" stop-color="#f494f2"/>
    </radialGradient>
    <radialGradient id="e8619f52-a372-47f5-ac89-7ebea5f4ffc0" cx="100.28" cy="36.87" r="4.8" gradientTransform="matrix(-1.9, -0.01, -0.01, 1.79, 249.66, -22.93)" gradientUnits="userSpaceOnUse">
      <stop offset="0" stop-color="#ff9765"/>
      <stop offset="0.12" stop-color="#fc9273"/>
      <stop offset="0.34" stop-color="#f58598"/>
      <stop offset="0.47" stop-color="#f07cb0"/>
      <stop offset="0.54" stop-color="#f07eb4"/>
      <stop offset="0.62" stop-color="#f182c2"/>
      <stop offset="0.7" stop-color="#f28ad7"/>
      <stop offset="0.78" stop-color="#f496f6"/>
      <stop offset="0.81" stop-color="#f599ff"/>
      <stop offset="0.83" stop-color="#f594f8"/>
      <stop offset="0.87" stop-color="#f788e6"/>
      <stop offset="0.91" stop-color="#f973c8"/>
      <stop offset="0.95" stop-color="#fb569e"/>
      <stop offset="1" stop-color="#ff3169"/>
    </radialGradient>
  </defs>
  <g id="aaa7bb6e-b9fd-48e4-b66d-44c235e93211" data-name="Layer 2">
    <g id="b8d0a430-9864-4344-98da-f55725edaaae" data-name="IDENTITY">
      <g id="acb737bc-37a8-4ecf-9045-3673d73f3526" data-name="Layer 47">
        <path class="be547994-d9ef-497b-a5aa-83a3d91e26dc" d="M67.61,27.5a7,7,0,0,1,1.84.25,7.07,7.07,0,0,0-2.12-.32H48.42l-4.2-2.52.06-3.21a12,12,0,1,0-13.8,0l.06,3.21-4.19,2.52H7.44a7,7,0,0,0-3.38.86A7.05,7.05,0,0,1,7.3,27.5H25v73.93h3.45a12.05,12.05,0,0,1-2.81-7.76,11.75,11.75,0,1,1,23.5,0,12.1,12.1,0,0,1-2.8,7.76h3.44V27.5Z"/>
        <g id="f7faf92c-18af-4f2f-a1f4-b95b676ace51" data-name="Layer 79 copy 3">
          <path class="affaa59e-2954-40fe-a5e8-aaf2792d00b6" d="M7,27.58H25.2a0,0,0,0,1,0,0v73.85a0,0,0,0,1,0,0H6.47A6.47,6.47,0,0,1,0,95V34.61A7,7,0,0,1,7,27.58Z"/>
          <path class="a32e49c0-4d79-42ac-85d8-f0fb748b3ba4" d="M56.25,27.58H75a0,0,0,0,1,0,0v73.85a0,0,0,0,1,0,0H56.81a7,7,0,0,1-7-7V34.05A6.47,6.47,0,0,1,56.25,27.58Z" transform="translate(124.74 129.01) rotate(180)"/>
        </g>
        <g id="a105cc14-761b-4954-8057-74ae447185f8" data-name="Layer 80 copy 4">
          <g>
            <path class="a154375b-cf9c-4fee-9ee2-92687c77d509" d="M52.49,44.52c.39,2.57,2.44,4.83,3.74,4.83,1,0,5-1.63,5.59-4.65a4.21,4.21,0,0,0-5.53-4.92C53.22,39.76,51.9,40.73,52.49,44.52Z"/>
            <path class="f1b79307-575d-413e-b66a-528f5dbc7259" d="M50.75,44.86c.6,2.52,4.18,4.49,5.48,4.49,1,0,3.85-6.19.06-9.57C52.91,38.6,49.85,41.13,50.75,44.86Z"/>
          </g>
        </g>
      </g>
    </g>
  </g>
</svg>
