<svg xmlns="http://www.w3.org/2000/svg" xmlns:xlink="http://www.w3.org/1999/xlink" viewBox="0 0 74 101.43">
  <defs>
    <style>
      .bb39ec35-6e3a-40d4-b573-0cd435d9eded {
        fill: #fff315;
      }

      .bc4afc9a-5ddd-4f27-b496-6c02a34c7532 {
        fill: #fff;
      }

      .aa1387ce-7615-4e13-ba93-de18d0664ca6 {
        fill: #a952d5;
      }

      .bf08767e-432e-4ca7-9083-f4fc95ba34ee {
        fill: url(#aa15f6bb-8c38-4dce-94d5-f253900d0963);
      }

      .a184cc5e-aafe-4794-9a41-5482c71779aa {
        fill: url(#b95dfde0-aec8-4aa9-9264-b5ea46db1628);
      }
    </style>
    <radialGradient id="aa15f6bb-8c38-4dce-94d5-f253900d0963" cx="98.64" cy="36.71" r="5.25" gradientTransform="matrix(-1.9, -0.01, -0.01, 1.79, 248.55, -22.84)" gradientUnits="userSpaceOnUse">
      <stop offset="0.15" stop-color="#ff9765"/>
      <stop offset="0.2" stop-color="#fc9273"/>
      <stop offset="0.29" stop-color="#f58598"/>
      <stop offset="0.34" stop-color="#f07cb0"/>
      <stop offset="0.43" stop-color="#f078ac"/>
      <stop offset="0.52" stop-color="#ee6aa0"/>
      <stop offset="0.62" stop-color="#ec558b"/>
      <stop offset="0.72" stop-color="#e93a72"/>
      <stop offset="0.76" stop-color="#ea3f79"/>
      <stop offset="0.81" stop-color="#eb4c8b"/>
      <stop offset="0.88" stop-color="#ee61a9"/>
      <stop offset="0.95" stop-color="#f17ed3"/>
      <stop offset="1" stop-color="#f494f2"/>
    </radialGradient>
    <radialGradient id="b95dfde0-aec8-4aa9-9264-b5ea46db1628" cx="99.9" cy="36.75" r="4.8" gradientTransform="matrix(-1.9, -0.01, -0.01, 1.79, 248.55, -22.84)" gradientUnits="userSpaceOnUse">
      <stop offset="0" stop-color="#ff9765"/>
      <stop offset="0.12" stop-color="#fc9273"/>
      <stop offset="0.34" stop-color="#f58598"/>
      <stop offset="0.47" stop-color="#f07cb0"/>
      <stop offset="0.54" stop-color="#f07eb4"/>
      <stop offset="0.62" stop-color="#f182c2"/>
      <stop offset="0.7" stop-color="#f28ad7"/>
      <stop offset="0.78" stop-color="#f496f6"/>
      <stop offset="0.81" stop-color="#f599ff"/>
      <stop offset="0.83" stop-color="#f594f8"/>
      <stop offset="0.87" stop-color="#f788e6"/>
      <stop offset="0.91" stop-color="#f973c8"/>
      <stop offset="0.95" stop-color="#fb569e"/>
      <stop offset="1" stop-color="#ff3169"/>
    </radialGradient>
  </defs>
  <g id="ab98d79f-150d-4239-ad4f-288d2c101ad7" data-name="Layer 2">
    <g id="b2241568-f694-41fc-8dae-3c3379b362f4" data-name="IDENTITY">
      <g id="a8b4f660-bad8-4923-b684-d6b0408f4df7" data-name="Layer 61">
        <g id="a0c1be43-4e79-4135-a3f1-ac557652c6e8" data-name="Layer 83 copy">
          <path class="bb39ec35-6e3a-40d4-b573-0cd435d9eded" d="M6.38,27.42H17.5a0,0,0,0,1,0,0v73.9a0,0,0,0,1,0,0H6.38A6.38,6.38,0,0,1,0,94.94V33.79A6.38,6.38,0,0,1,6.38,27.42Z"/>
          <path d="M56.5,27.42h10a7.5,7.5,0,0,1,7.5,7.5v59a7.44,7.44,0,0,1-7.44,7.44H56.5a0,0,0,0,1,0,0V27.42a0,0,0,0,1,0,0Z"/>
        </g>
        <path class="bc4afc9a-5ddd-4f27-b496-6c02a34c7532" d="M25.25,93.56A11.88,11.88,0,0,1,37,81.56V0a11.95,11.95,0,0,0-6.9,21.7l.06,3.21L26,27.43H17.5v74H28.14A12.12,12.12,0,0,1,25.25,93.56Z"/>
        <path class="aa1387ce-7615-4e13-ba93-de18d0664ca6" d="M48,27.43l-4.2-2.52.06-3.21A11.95,11.95,0,0,0,37,0V81.56a11.88,11.88,0,0,1,11.75,12,12.12,12.12,0,0,1-2.89,7.87H56.5v-74Z"/>
        <g id="e0d6414b-7d87-4bc9-a52e-3362fa9b3ecb" data-name="Layer 80 copy 12">
          <g>
            <path class="bf08767e-432e-4ca7-9083-f4fc95ba34ee" d="M52.11,44.41c.39,2.57,2.44,4.82,3.74,4.83,1,0,5-1.63,5.59-4.65a4.21,4.21,0,0,0-5.53-4.92C52.84,39.65,51.52,40.62,52.11,44.41Z"/>
            <path class="a184cc5e-aafe-4794-9a41-5482c71779aa" d="M50.37,44.75c.6,2.52,4.18,4.48,5.48,4.49,1,0,3.84-6.19.06-9.57C52.52,38.49,49.47,41,50.37,44.75Z"/>
          </g>
        </g>
      </g>
    </g>
  </g>
</svg>
