<svg xmlns="http://www.w3.org/2000/svg" viewBox="0 0 131.88 78.84"><defs><style>.a341b73c-ae7f-4864-97eb-1ee6a1afced4{fill:#29efef;}.aefea186-2adf-4836-a5f6-ddaf94cfc687{fill:#0049ff;opacity:0.11;}.aefea186-2adf-4836-a5f6-ddaf94cfc687,.f56fd90d-f80b-447c-bd9d-fd55f5cf6bfb{isolation:isolate;}.f56fd90d-f80b-447c-bd9d-fd55f5cf6bfb{fill:#fff463;opacity:0.2;}.a95dfb76-964a-41a2-8b8e-f38cfda7db25{fill:#c6f227;}</style></defs><g id="ab3810aa-cba0-4bbd-b76c-d1a1255cab62" data-name="Layer 2"><g id="a3251821-1015-4c0f-9e8b-98a5b5ec8299" data-name="Layer 1"><g id="e6a18467-54f3-424d-a1f6-01a4d53e2114" data-name="b7ab3842-f1d1-4e06-9075-f519ef754258"><g id="b44646d0-30a9-41b2-a109-0cd48684c12e" data-name="f5535db9-3b2b-42cb-8b9c-eb1642d2215d"><g id="a4a2338e-9420-44de-b851-86dadaafb565" data-name="ae01b51e-69f1-4ea0-8f51-eef222403fb3"><path class="a341b73c-ae7f-4864-97eb-1ee6a1afced4" d="M131.66,44.81c-2,6.4-16,14.06-28.67,19.15-2.12.84-4.21,1.62-6.19,2.31C89.81,68.69,84,70,82.2,69.44c-.23-.06-.45-.15-.67-.23,1-1.82,5.11-5.81,10.68-10.24,11.23-8.94,28.32-19.7,37.05-18.06a5.46,5.46,0,0,1,.87.2C131.86,41.65,132.16,43.16,131.66,44.81Z"/><path class="aefea186-2adf-4836-a5f6-ddaf94cfc687" d="M100.27,55.76l.36.13c3.9,1.19,8.56-1.11,12.41-1.84-2.58,1.64-9,5.06-10,8.08A5.12,5.12,0,0,0,103,64c-2.12.84-4.21,1.62-6.19,2.31C89.81,68.69,84,70,82.2,69.44c-.23-.06-.45-.15-.67-.23,1-1.82,5.11-5.81,10.68-10.24,11.23-8.94,28.32-19.7,37.05-18.06C118.89,41.29,109.21,48.75,100.27,55.76Z"/><path class="aefea186-2adf-4836-a5f6-ddaf94cfc687" d="M96.5,65.85c.09.14.21.28.31.41C89.82,68.68,84,70,82.2,69.44c-.23-.06-.44-.15-.66-.23,1-1.82,5.11-5.81,10.67-10.24v0a3.78,3.78,0,0,0,1.86,1.26c2,.62,4.5-.31,6.62-.67C99,60,97,64.4,96.5,65.85Z"/><path class="a341b73c-ae7f-4864-97eb-1ee6a1afced4" d="M114.1,24.61C112.3,30.45,103.69,40.55,96.44,48c-2.47,2.54-4.77,4.79-6.6,6.46-.42.39-.81.74-1.18,1.06l-.73.65c-3.24,3-7.63,7.74-12.21,6.67h-.08A164.32,164.32,0,0,1,84,48c8.47-13.72,21.46-31.7,29.93-30.36,0,0,0,0,0,0A9.63,9.63,0,0,1,114.1,24.61Z"/><path class="aefea186-2adf-4836-a5f6-ddaf94cfc687" d="M88.4,42.4c.06.17.08.14.07.27,3.18.76,9.11-3.33,11.73-5-1.52,1.27-5.24,4.72-6,7.32a2.08,2.08,0,0,0,1.06,2.74,2.39,2.39,0,0,0,.54.15,3.85,3.85,0,0,0,.69.16c-2.48,2.54-4.78,4.8-6.61,6.46a2.37,2.37,0,0,0,.34.13c-.73.53-1.47,1.06-2.24,1.59a52,52,0,0,1-12.22,6.66h-.07A164.15,164.15,0,0,1,84,48c8.47-13.72,21.45-31.7,29.92-30.37,0,0,0,0,0,0C107.52,18.37,91,39.45,88.4,42.4Z"/><path class="aefea186-2adf-4836-a5f6-ddaf94cfc687" d="M90.17,54.61c-.72.52-1.47,1.06-2.24,1.58-3.24,3-7.64,7.74-12.22,6.67h-.07A164.32,164.32,0,0,1,84,48l.37.13c2.43.74,5.08-.4,7.37-1.65a26.7,26.7,0,0,0-2.94,5.14,2,2,0,0,0,.88,2.72l.19.08A2.41,2.41,0,0,0,90.17,54.61Z"/><path class="a341b73c-ae7f-4864-97eb-1ee6a1afced4" d="M82.81,39.56c-.13.48-.28,1-.43,1.46-2.71,8.85-6.52,18.14-14,21.63-1.13-.85-2.71-3.95-3.29-8.62a35.67,35.67,0,0,1,1.48-14.87C68.23,33.7,81.38,4,86.94,4.53l.24,0,.14.05c4.77,1.46,3.33,11.67,2,15.9-.78,2.54-2.68,5.85-3.86,9.69C84.66,33,83.81,36.2,82.81,39.56Z"/><path class="aefea186-2adf-4836-a5f6-ddaf94cfc687" d="M82.37,41a77,77,0,0,1-2.77,7.81,30.13,30.13,0,0,1-7.45,11.32,16,16,0,0,1-3.79,2.5,9.68,9.68,0,0,1-2.45-4.6,24,24,0,0,1-.83-4,14.18,14.18,0,0,1,.08-1.43,33.06,33.06,0,0,1,1.41-6.89c.34-1.13,1.85-5.45,4-10.91,5.53-1,9.56-7.24,13.27-12.48a44.9,44.9,0,0,0-2.94,7.23c-1.21,3.92-2,8.88,1.22,9.87.23.06.46.11.7.15C82.68,40,82.53,40.53,82.37,41Z"/><path class="aefea186-2adf-4836-a5f6-ddaf94cfc687" d="M79.6,48.83a30.13,30.13,0,0,1-7.45,11.32,18.5,18.5,0,0,1-4.61-.87A2.45,2.45,0,0,1,67,59a6.09,6.09,0,0,1-1.11-1,24.23,24.23,0,0,1-.83-4,14.18,14.18,0,0,1,.08-1.43c4.73-2.83,9.31-12.23,11.92-17.43-.76,3.28-4.24,11.62,2.16,13.57A1.19,1.19,0,0,0,79.6,48.83Z"/><path class="aefea186-2adf-4836-a5f6-ddaf94cfc687" d="M66.58,45.69A31,31,0,0,0,65.08,54a35.46,35.46,0,0,1,1.48-14.86C68.23,33.7,81.38,4,86.94,4.53c-5.11,3.39-12,19.2-16.37,30.26C68.43,40.25,66.94,44.57,66.58,45.69Z"/><path class="a341b73c-ae7f-4864-97eb-1ee6a1afced4" d="M63,60.51c-1.09,3.54-3.65,5.89-9.16,5a41.51,41.51,0,0,1-4.23-9.18,110.78,110.78,0,0,1-4-16.34C43.19,26.66,42.66,13.07,44,8.68,45.16,4.87,47.28,1.19,50,0,56.5,2.82,60.27,18.91,62.09,33.87c.78,6.35,1.2,12.5,1.31,17.32A41.54,41.54,0,0,1,63,60.51Z"/><path class="aefea186-2adf-4836-a5f6-ddaf94cfc687" d="M63,60.51c-1.09,3.54-3.65,5.89-9.16,5a41.51,41.51,0,0,1-4.23-9.18,37.93,37.93,0,0,0,2.34-5.81c1.33-4.34.34-8.44,1.57-12.47l.2-.6c1.58,5.78,2.51,11.62,8.36,13.41a11.71,11.71,0,0,0,1.33.32A40.87,40.87,0,0,1,63,60.51Z"/><path class="aefea186-2adf-4836-a5f6-ddaf94cfc687" d="M63,60.51c-1.09,3.54-3.65,5.89-9.16,5a41.51,41.51,0,0,1-4.23-9.18,110.78,110.78,0,0,1-4-16.34,8.53,8.53,0,0,0,3.35-4.87l0-.07a89.87,89.87,0,0,0,3.19-21.39c1.19,4.88,3.39,18.25,9.32,20,.21.06.42.11.64.15.79,6.34,1.2,12.49,1.31,17.32A41.45,41.45,0,0,1,63,60.51Z"/><path class="f56fd90d-f80b-447c-bd9d-fd55f5cf6bfb" d="M39.61,36.11c-7.3-5-19.55-13.32-20.7-13.68a36,36,0,0,0-5.64-1.08h0a11.83,11.83,0,0,1,7.9-.08C26.22,22.81,33.31,28.38,39.61,36.11Z"/><path class="a341b73c-ae7f-4864-97eb-1ee6a1afced4" d="M54,67.6A8.07,8.07,0,0,1,49,67.49c-7.21-2.21-16.63-12.18-24-22.38-.11-.14-.2-.28-.31-.44-6.63-9.22-11.53-18.56-11.58-22.42a2.73,2.73,0,0,1,.14-.9h0a11.83,11.83,0,0,1,7.9-.08c5,1.54,12.14,7.12,18.44,14.85h0A73.34,73.34,0,0,1,49.51,52,51.19,51.19,0,0,1,54,67.6Z"/><path class="aefea186-2adf-4836-a5f6-ddaf94cfc687" d="M54,67.6A8.07,8.07,0,0,1,49,67.49c-7.21-2.21-16.63-12.18-24-22.38-.11-.14-.2-.28-.31-.44-6.63-9.22-11.53-18.56-11.58-22.42a5.22,5.22,0,0,1,4.38-.36c4.61,1.41,15,12.73,22.2,21.27,4.1,4.82,7.18,8.75,7.65,9.5A7.12,7.12,0,0,1,49.52,52,51.34,51.34,0,0,1,54,67.6Z"/><path class="aefea186-2adf-4836-a5f6-ddaf94cfc687" d="M54,67.6A8.07,8.07,0,0,1,49,67.49c-7.21-2.21-16.63-12.18-24-22.38-.11-.14-.2-.28-.31-.44a5.21,5.21,0,0,0,.92-1.8c1-3.13-.09-7.55-.85-10.09,2.32,2.65,6.66,9.8,10.89,11.09a4,4,0,0,0,4-.72c4.11,4.82,7.18,8.75,7.66,9.5A7.43,7.43,0,0,1,49.53,52,51.52,51.52,0,0,1,54,67.6Z"/><path class="a341b73c-ae7f-4864-97eb-1ee6a1afced4" d="M50.71,69.89A7,7,0,0,1,48.77,71c-3.27,1.26-7.37.13-10.7-.89l-1.29-.39c-4.44-1.36-9.65-2.54-14.58-4q-2.49-.78-4.89-1.8C9.26,60.49.41,54.48,0,48a6.56,6.56,0,0,1,.09-1.77,6.21,6.21,0,0,1,.21-.85c.87-2.84,5.24-2.42,9.82-1a121.73,121.73,0,0,1,21.11,10.1h0C39.8,59.4,48,65.24,50.71,69.89Z"/><path class="aefea186-2adf-4836-a5f6-ddaf94cfc687" d="M48.77,71c-3.27,1.26-7.37.14-10.69-.89l-1.3-.39c-4.44-1.36-9.65-2.54-14.57-4a52.14,52.14,0,0,1-4.9-1.8C9.26,60.48.41,54.48,0,48c1.54-1.79,4.27-1.8,7-1a184.79,184.79,0,0,1,19.72,9.83A153.19,153.19,0,0,1,48.77,71Z"/><path class="aefea186-2adf-4836-a5f6-ddaf94cfc687" d="M48.77,71c-3.27,1.26-7.37.14-10.69-.89l-1.3-.39c-4.44-1.36-9.65-2.54-14.57-4a52.14,52.14,0,0,1-4.9-1.8c.32-3.26-1.29-5.3-4-7.67a11.64,11.64,0,0,1,1.2.28c2.68.83,5,2.59,7.72,3.43,1.63.49,4.41.92,4.9-.7a3.64,3.64,0,0,0-.44-2.44A152.62,152.62,0,0,1,48.77,71Z"/><path class="f56fd90d-f80b-447c-bd9d-fd55f5cf6bfb" d="M31.25,54.42c-7.48-3-16.84-6.77-17.65-7C4.61,44.64,3.21,44.85.12,46.2a7.9,7.9,0,0,1,.2-.84c.87-2.85,5.24-2.43,9.82-1A122.42,122.42,0,0,1,31.25,54.42Z"/><path class="a95dfb76-964a-41a2-8b8e-f38cfda7db25" d="M93.76,70.14c-.76,2.47-3.67,5-7.68,6-.72.16-1.48.32-2.26.47a149.69,149.69,0,0,1-36.49,1.9A32.13,32.13,0,0,1,41,77.31a17.43,17.43,0,0,1-1.75-.65c-2.5-1.13-4.44-3-3.62-5.63.91-3,5.41-5.2,8.62-4.59a5.23,5.23,0,0,1,.54.12l.44.16c-.21-1.29-.56-2.23-.74-3.26a7.92,7.92,0,0,1,.35-3.86,8.71,8.71,0,0,1,10.63-6.2l.43.12a10.52,10.52,0,0,1,5.4,4C63.51,52.7,68.09,48,72,49.16a5.53,5.53,0,0,1,.61.24h0a8.69,8.69,0,0,1,3.8,5.21c2-.31,3.67-1.19,5.6-1.34a6.76,6.76,0,0,1,2.53.28c3.61,1.1,4.5,4.8,3.48,8.14a9.25,9.25,0,0,1-1.42,2.8,14,14,0,0,1,3.75.54C93.48,66,94.4,68,93.76,70.14Z"/><path class="aefea186-2adf-4836-a5f6-ddaf94cfc687" d="M83.84,76.56a149.88,149.88,0,0,1-36.51,1.91,31.63,31.63,0,0,1-6.4-1.17,16,16,0,0,1-1.75-.65c-2.5-1.13-4.44-3-3.62-5.63.92-3,5.41-5.2,8.62-4.59a3.39,3.39,0,0,1,.55.13c.15,0,.3.11.44.16-.21-1.29-.57-2.23-.75-3.26a7.9,7.9,0,0,1,.36-3.86A8.69,8.69,0,0,1,55.4,53.39l.43.13a10.42,10.42,0,0,1,5.42,4C63.51,52.69,68.09,48,72,49.16a3.51,3.51,0,0,1,.61.24h0a8.64,8.64,0,0,1,3.8,5.2c2-.3,3.67-1.19,5.61-1.34-3.67,1.9-6.36,6.07-8.94,9.24-.09-3-.21-6.37-2.78-7.16-3.47-1.06-6.24,1.92-7.33,5.45-.81,2.65-1.41,6.39-1.81,7.71A1.49,1.49,0,0,1,61,69c-1.25-2.85-2-8-6.43-9.32a4.23,4.23,0,0,0-5.41,2.56,4,4,0,0,0-.17.59c-1.65,5.39,2.73,11,8,12.61C62.67,77.13,75.4,77,83.84,76.56Z"/><path class="aefea186-2adf-4836-a5f6-ddaf94cfc687" d="M44.19,66.43a23.81,23.81,0,0,0,1.82,7,20.32,20.32,0,0,0-4-1.86c-1.75-.54-3.39-.6-3.82.81a4.72,4.72,0,0,0,1.06,4.23c-2.5-1.13-4.44-3-3.62-5.63C36.49,68,41,65.82,44.19,66.43Z"/><path class="aefea186-2adf-4836-a5f6-ddaf94cfc687" d="M72.58,49.4c-5.43.06-9.52,6-12.48,10.93-1.75-2.18-2.18-3.25-5-4.1-4.91-1.5-9,1.48-10.41,6.1a8.51,8.51,0,0,0-.29,1.13,7.9,7.9,0,0,1,.36-3.86A8.68,8.68,0,0,1,55.4,53.39l.44.13a10.43,10.43,0,0,1,5.41,4C63.51,52.68,68.09,48,72,49.15A4.6,4.6,0,0,1,72.58,49.4Z"/><path class="f56fd90d-f80b-447c-bd9d-fd55f5cf6bfb" d="M57.27,64a7.05,7.05,0,0,0-2-1.05,2.18,2.18,0,0,0-2.87,1.14,2.44,2.44,0,0,0-.14.46c-.78,2.54.41,6.55,3.39,7.46a2.43,2.43,0,0,0,3-1.65,1.72,1.72,0,0,0,.08-.38A5.73,5.73,0,0,0,57.27,64Z"/><path class="f56fd90d-f80b-447c-bd9d-fd55f5cf6bfb" d="M67.18,60.27A7.74,7.74,0,0,0,63.79,65c-1.38,4.51.29,7.23,1.78,7.69,2,.62,3.88-2.14,4.51-4.26,1-3.18.5-7.12-2.54-8A1.89,1.89,0,0,0,67.18,60.27Z"/><path class="f56fd90d-f80b-447c-bd9d-fd55f5cf6bfb" d="M81.93,56.76C79,58.3,76.18,60.55,74,67.62c-.8,2.62-.75,5.41,1.06,6,2.18.67,7.46-2.19,9.32-8.22C85.39,62.1,85,58.65,81.93,56.76Z"/><path class="f56fd90d-f80b-447c-bd9d-fd55f5cf6bfb" d="M88.87,65.64a5.12,5.12,0,0,0-5.13,3.72,3.67,3.67,0,0,0,2,4.81l.26.1a6,6,0,0,0,7.31-3.62A3.6,3.6,0,0,0,91.05,66a2.22,2.22,0,0,0-.39-.12A6.75,6.75,0,0,0,88.87,65.64Z"/></g></g></g></g></g></svg>