<svg xmlns="http://www.w3.org/2000/svg" viewBox="0 0 170.29 179.55"><defs><style>.a5412af8-bcf9-4983-a413-d54b78ef76f4{fill:#3f362e;stroke:#3f362e;}.a017f124-39be-4a7f-aa63-7d59492d813b,.a0257756-a31f-455d-ad81-942626ab5acc,.a07b9137-5a78-479e-87da-dddedf977ee7,.a1ca403f-0dfe-4b47-aed8-ddd455cae15c,.a246525c-0c02-4a50-9d50-b04de37718e2,.a306b17f-24d7-4471-9fca-5a4395d51291,.a30db962-a8ee-4838-a94b-eed79aaa1a40,.a3c4781a-2834-48f1-a910-4f8dbabb33d3,.a494dc46-0073-4dfe-b2fc-5630c22500f4,.a4e33061-524a-4f78-a160-d8a2de26c093,.a5412af8-bcf9-4983-a413-d54b78ef76f4,.a5f9252d-b22c-4297-8106-0b137600b081,.a61774a9-c8ac-43e9-a116-51150a18ce5a,.a6452cf7-5bb9-497b-9067-84499d0b7f7b,.a664e298-b33f-4b61-955c-9f04592cada0,.a7d0e3bb-a8f8-4a2d-82fd-090019eef5ca,.a85e69a5-9e5f-4825-af29-4647045af6e1,.a98b75a5-ac20-486c-9527-d68dfb640cc0,.aa99c09c-6ebd-4a53-abf5-b0dc157f7315,.aaeb5cfb-1db9-498d-ad03-30b5106b72b3,.ac13f5f6-dd2c-4bdc-ae50-8b8dbb533289,.ad09b7bf-38b2-4cae-ba15-e6915f15d124,.aefa72fd-314c-4e29-b391-46563aebff36,.b0e00211-7094-4f71-a843-85fda3e502fd,.b102a914-e5fc-4cb5-b8c6-6e5ed2ac80b7,.b1243432-a021-426b-884f-325ac1bf8d7e,.b1ab70f3-0699-4531-b05d-7be7906c78df,.b1d54283-b610-4acf-be94-9dbb6c6c0f20,.b23ecb7e-9d3e-45ff-b391-0cd1b82d7f5f,.b286fd2e-7418-4a34-a37e-fa96de696a73,.b3852c56-7b0b-4d7c-a465-9729bf1ffb95,.b3e2b870-e9cb-403c-809d-be1356d28f1b,.b626ea89-b167-4738-b25f-a3dbd0da876f,.b69cf8f2-3b6f-498c-b280-554289148f0a,.b716db03-6e8e-4df5-b657-ae0628c1183f,.b7a0714c-c8b9-41cf-a8fb-36f2e3e47b01,.b8ece1c5-bdb2-4894-a18a-e641fd9d9a86,.b9c2b8e8-a20c-4ce5-882f-37b044e20df3,.bb4b950d-eeaf-4780-aa24-cbc3313b9392,.bb7898a8-0a68-4ba4-b165-ff703f372980,.bb9508e2-e1fd-4ce8-aac4-6b943b67264e,.bbe62547-a91c-48e6-a2e2-0ea161c8fa85,.bd2640f7-d05b-4e58-87b1-cc4a0499402b,.bda47e41-7414-4b07-ae89-051505e4b3a3,.be1e813d-08b4-4837-908a-e967b741c699,.bf0a32df-4c76-4935-9f84-777078354cea,.e05943db-430e-46a3-8268-924b9011fd51,.e07796cd-41c5-4696-ada6-ddc36664dfc2,.e3323814-b0c1-4710-a04c-420d01e8df2d,.e6614baa-30c3-40ae-a522-82e20198a04e,.e6f87eda-f778-4eae-b51c-acdeee242c04,.e74914c3-fe18-420b-be64-a012a418806b,.e85ea30d-43dd-4740-8f4d-521b185ae07d,.e87b18b2-c246-4355-8979-7d4fdaaf1463,.ed2ef99c-925f-4ab3-8964-8c5390ddce26,.ee66e333-cd0d-4493-a758-804c55fe5ea8,.f105eed6-b6dc-417a-9376-18d2bd5396c7,.f1f4a706-8f5f-4cfa-b8ff-2a08b26f7096,.f3d8ba4b-277a-4ab0-9790-897b42752db2,.f6ef8c30-5aca-4cec-908b-d3545d80de4a,.f6f18f9b-24c9-4ce7-9e06-c22d5f01398c,.f87bba39-ded4-45f8-bb89-e7ca34e8948f,.f8a3c940-3ed6-4c4e-96d5-72b5cafba46c,.f949fe09-4785-4f1c-93aa-1ce9948b8d2a,.f98a6ed7-44c0-4fb5-81a2-2fed85598c44,.fac4ef97-dd53-42b9-9a10-3b87b53de352,.fc78d47b-a8de-44a4-b72b-719c48a9ef91,.fcb8ebf3-6f52-4b4a-9244-bfccf6b42482,.fe0c50e6-4a15-4ed2-88f1-f9d48b9235d5,.ffce76ef-885d-485e-b515-e6872028a84c{stroke-linecap:round;stroke-linejoin:round;stroke-width:0.21px;}.ffce76ef-885d-485e-b515-e6872028a84c{fill:#e7a352;stroke:#e7a352;}.b69cf8f2-3b6f-498c-b280-554289148f0a{fill:#db853f;stroke:#db853f;}.b7a0714c-c8b9-41cf-a8fb-36f2e3e47b01{fill:#ece5e0;stroke:#ece5e0;}.e85ea30d-43dd-4740-8f4d-521b185ae07d{fill:#e6a554;stroke:#e6a554;}.be1e813d-08b4-4837-908a-e967b741c699{fill:#362d27;stroke:#362d27;}.b3852c56-7b0b-4d7c-a465-9729bf1ffb95{fill:#2e1f1e;stroke:#2e1f1e;}.bb9508e2-e1fd-4ce8-aac4-6b943b67264e{fill:#d98641;stroke:#d98641;}.a85e69a5-9e5f-4825-af29-4647045af6e1{fill:#d58745;stroke:#d58745;}.a017f124-39be-4a7f-aa63-7d59492d813b{fill:#5f0505;stroke:#5f0505;}.a5f9252d-b22c-4297-8106-0b137600b081{fill:#493c25;stroke:#493c25;}.a3c4781a-2834-48f1-a910-4f8dbabb33d3{fill:#d2ceca;stroke:#d2ceca;}.b1d54283-b610-4acf-be94-9dbb6c6c0f20{fill:#3e241f;stroke:#3e241f;}.f1f4a706-8f5f-4cfa-b8ff-2a08b26f7096{fill:#fbef0c;stroke:#fbef0c;}.f87bba39-ded4-45f8-bb89-e7ca34e8948f{fill:#443921;stroke:#443921;}.fc78d47b-a8de-44a4-b72b-719c48a9ef91{fill:#a90c08;stroke:#a90c08;}.b716db03-6e8e-4df5-b657-ae0628c1183f{fill:#3a2f26;stroke:#3a2f26;}.e87b18b2-c246-4355-8979-7d4fdaaf1463{fill:#cd7c39;stroke:#cd7c39;}.f105eed6-b6dc-417a-9376-18d2bd5396c7{fill:#ac9e92;stroke:#ac9e92;}.aa99c09c-6ebd-4a53-abf5-b0dc157f7315{fill:#de8a41;stroke:#de8a41;}.bd2640f7-d05b-4e58-87b1-cc4a0499402b{fill:#382722;stroke:#382722;}.b9c2b8e8-a20c-4ce5-882f-37b044e20df3{fill:#d7d7d7;stroke:#d7d7d7;}.bbe62547-a91c-48e6-a2e2-0ea161c8fa85{fill:#393534;stroke:#393534;}.ad09b7bf-38b2-4cae-ba15-e6915f15d124{fill:#dc8d0b;stroke:#dc8d0b;}.b0e00211-7094-4f71-a843-85fda3e502fd{fill:#529b5e;stroke:#529b5e;}.e07796cd-41c5-4696-ada6-ddc36664dfc2{fill:#5a0708;stroke:#5a0708;}.bda47e41-7414-4b07-ae89-051505e4b3a3{fill:#b6130f;stroke:#b6130f;}.a30db962-a8ee-4838-a94b-eed79aaa1a40{fill:#e7ddd3;stroke:#e7ddd3;}.b23ecb7e-9d3e-45ff-b391-0cd1b82d7f5f{fill:#530a0a;stroke:#530a0a;}.f98a6ed7-44c0-4fb5-81a2-2fed85598c44{fill:#836e23;stroke:#836e23;}.a61774a9-c8ac-43e9-a116-51150a18ce5a{fill:#747374;stroke:#747374;}.a306b17f-24d7-4471-9fca-5a4395d51291{fill:#fdef15;stroke:#fdef15;}.ed2ef99c-925f-4ab3-8964-8c5390ddce26{fill:#44362b;stroke:#44362b;}.bf0a32df-4c76-4935-9f84-777078354cea{fill:#7dbf8c;stroke:#7dbf8c;}.b102a914-e5fc-4cb5-b8c6-6e5ed2ac80b7{fill:#2f2823;stroke:#2f2823;}.f6ef8c30-5aca-4cec-908b-d3545d80de4a{fill:#af130f;stroke:#af130f;}.f8a3c940-3ed6-4c4e-96d5-72b5cafba46c{fill:#d6cec8;stroke:#d6cec8;}.bb7898a8-0a68-4ba4-b165-ff703f372980{fill:#eaeaea;stroke:#eaeaea;}.ee66e333-cd0d-4493-a758-804c55fe5ea8{fill:#6c472b;stroke:#6c472b;}.a0257756-a31f-455d-ad81-942626ab5acc{fill:#332a23;stroke:#332a23;}.b1243432-a021-426b-884f-325ac1bf8d7e{fill:#7e7e7e;stroke:#7e7e7e;}.e74914c3-fe18-420b-be64-a012a418806b{fill:#c8c6c5;stroke:#c8c6c5;}.bb4b950d-eeaf-4780-aa24-cbc3313b9392{fill:#d68c0b;stroke:#d68c0b;}.f3d8ba4b-277a-4ab0-9790-897b42752db2{fill:#ea8f09;stroke:#ea8f09;}.fac4ef97-dd53-42b9-9a10-3b87b53de352{fill:#c77b3a;stroke:#c77b3a;}.f949fe09-4785-4f1c-93aa-1ce9948b8d2a{fill:#f2d7c0;stroke:#f2d7c0;}.aefa72fd-314c-4e29-b391-46563aebff36{fill:#f8e4c7;stroke:#f8e4c7;}.fcb8ebf3-6f52-4b4a-9244-bfccf6b42482{fill:#454330;stroke:#454330;}.b1ab70f3-0699-4531-b05d-7be7906c78df{fill:#f9e7ce;stroke:#f9e7ce;}.b286fd2e-7418-4a34-a37e-fa96de696a73{fill:#2f2522;stroke:#2f2522;}.a6452cf7-5bb9-497b-9067-84499d0b7f7b{fill:#f8ede2;stroke:#f8ede2;}.a4e33061-524a-4f78-a160-d8a2de26c093{fill:#4c8755;stroke:#4c8755;}.e6614baa-30c3-40ae-a522-82e20198a04e{fill:#d5820b;stroke:#d5820b;}.a7d0e3bb-a8f8-4a2d-82fd-090019eef5ca{fill:#2e2f28;stroke:#2e2f28;}.a1ca403f-0dfe-4b47-aed8-ddd455cae15c{fill:#938f8d;stroke:#938f8d;}.a98b75a5-ac20-486c-9527-d68dfb640cc0{fill:#665c21;stroke:#665c21;}.a07b9137-5a78-479e-87da-dddedf977ee7{fill:#65936c;stroke:#65936c;}.e3323814-b0c1-4710-a04c-420d01e8df2d{fill:#fbf1e3;stroke:#fbf1e3;}.a664e298-b33f-4b61-955c-9f04592cada0{fill:#f9e5ca;stroke:#f9e5ca;}.e05943db-430e-46a3-8268-924b9011fd51{fill:#fdf6ed;stroke:#fdf6ed;}.a246525c-0c02-4a50-9d50-b04de37718e2{fill:#faeddb;stroke:#faeddb;}.b626ea89-b167-4738-b25f-a3dbd0da876f{fill:#4a8353;stroke:#4a8353;}.b3e2b870-e9cb-403c-809d-be1356d28f1b{fill:#eed8d4;stroke:#eed8d4;}.fe0c50e6-4a15-4ed2-88f1-f9d48b9235d5{fill:#fcf6ec;stroke:#fcf6ec;}.a494dc46-0073-4dfe-b2fc-5630c22500f4{fill:#79b786;stroke:#79b786;}.b8ece1c5-bdb2-4894-a18a-e641fd9d9a86{fill:#fbeedc;stroke:#fbeedc;}.f6f18f9b-24c9-4ce7-9e06-c22d5f01398c{fill:#fdf8f0;stroke:#fdf8f0;}.aaeb5cfb-1db9-498d-ad03-30b5106b72b3{fill:#858585;stroke:#858585;}.e6f87eda-f778-4eae-b51c-acdeee242c04{fill:#e98f08;stroke:#e98f08;}.ac13f5f6-dd2c-4bdc-ae50-8b8dbb533289{fill:#f0dfc9;stroke:#f0dfc9;}</style></defs><g id="a309af29-e9cf-4156-9e83-084c83c3df86" data-name="Layer 2"><g id="a54905e7-0e52-4e71-a643-4b7ac32e39a4" data-name="Layer 1"><g id="bffc0590-4748-4be4-aaa0-0a1d6eacf187" data-name="f7c959dd-f314-494e-bb86-68a93c9eae17"><g id="ec955d52-c14f-4616-a649-1bbc01283997" data-name="a172382f-f333-4b76-96b5-1157158c139d"><g id="a3bce205-9841-4d1b-a40d-3f07df771bfe" data-name="aecf4b1f-52ae-44b3-b1e7-cdde135e624e"><path class="a5412af8-bcf9-4983-a413-d54b78ef76f4" d="M70.42,4.56c-.49,1-.65,2.86-1.72,3.42.24.45.13.58-.31.81.26.72-.79,4.16-1.53,4.55.81,3-3,8.87-3.51,12h-.48c0,1.4-.73,5.66-2,6.33C61.25,33,53.15,50,52,50.4c0,.89-5.81,15.23-5.87,15.27l.33.32-.48.17.33.32c-1.86.66-1.83,7.9-4,9.43.41.78-2.51,7.65-3.41,8l.32.16c-.32,1-1.4,4.55-2.34,4.88l.33.15c-.2.65,0,.43-.63.66l.32.32c-.62,1.3-2,3.78-2,5.2l-.48.17c.35.67-.7,3.33-1.4,3.58.25.48,0,.89-.47,1.14.61,1.16-2.47,6.85-2.93,7.79l-.17-.32c-2.35,2.43-2.69,9.22-5.62,10.75V118c-2.16,2.24-5.88,7.68-6.59,10.76-.29,1.23-.15,2.55-1.06,3.74-2.42,3.13-5.84,4.07-8.43,6.76l.16.32c-5.66,3.91-3.74,13.25,2.22,16.1l-.32.49c2.85,1.37,5.65,4.35,8.5,6,6.25,3.61,13.9,5.39,20.79,7.55,0-.44-.49-5.48,1.2-5.5,0,.44-.1.27.33.47-1.07.56-.45.12-.28,2.75.22,3.44,4.24,4.95,7,5.69,7.18,1.92,17,2.73,23.91.88-1-.47-1.32-1.71-1.5-2.72.78-.27,2.79,1.11,3.42,1.72l-.32.17c8,3.83,18.2,4.22,26.68,2.76,1.64-.28,9.27-1.65,10.11-3.4.32-.67-1-1.45-1-2.24,1.12.72,1,.48,2.91.59-.92.2-.69-.07-1,.5,4.73-.08,9.67,1.77,15.2,1.68,13.39-.23,30.26-7.51,39.58-17.15,5.37-5.56-.55-13.66-6.57-15.55-8.92-2.8-16.23,1.78-23.81,4.45,4.5-4.66,18.48-9.52,23.62-6.22-2.77-15.06-14.9-27.09-22.63-39.48-11.79-18.9-20.18-41.36-28.84-62-3.38-8-6.56-16.17-9.94-24.21-.76-1.8-1.55-7.43-3.37-7.85a29.75,29.75,0,0,0,.22,3.07h.32c0,.44,0,.22-.15.65h.32c0,.55-.18.55,0,1.13h.33l-.16.32c.47.23.38.37.17.81h.34l-.16.33c2.06,1,2.81,10.07-1.78,9.39-3.93-.59-4.29-16-6-18.14-2.2-2.83-6,0-5.92,2.85l-.48.17c.39,1.48-.6,3.29-.73,4.85-.39,4.78-.81,9.84-.87,14.71-.13-2.34-.13-2.34-.25-4.68a2.55,2.55,0,0,0-.29,1.94c-.63.34-.09,1.08-.61,1.63l.16.32a.82.82,0,0,0-.32,1.1l0,0c-1.24.65-1.68,10.59-5.78,10.92-8.78.7-1.42-21.49.66-27,.86-2.26,3.09-7-.29-7.74,1-.17,1.26-.2,1.94.45l-.32.17h.32c-.44.91.36,2.38.38,3.38,0,1.9-1.32,3.71-1.84,5.36l.32.15-.16.48H73c-.55,1.74-.55,3.45-1,5l-.16-.32c-.44,1.39-.3,3-.9,4.21h.32c.24.67-.14.88-.13,1.61L70.87,22c-.65,1.38-2.14,13.29,1,12.09,5.08-1.91,6.78-23,7.45-26.6C80,3.6,82.12-1.12,87,.4c0,.88,1.67.85,1.16,1.91h.48c0,.91.14,3,.71,3.54-.43.91.21,2.18.06,3.23h.32a5.08,5.08,0,0,1-.13,1.62h.32c-.81,1.69,1,3.69,1.7,5l-.32.16h.5c0,.62.62.87.35,1.45,1.15.55.86,1.28,2.6,1.25.68-2.14-1.8-14.28-1.06-14.67,1.09-.57,2.34,3.24,2.65,4,1.71,4.05,6.16,10.48,6.23,14.75h.33c-.25.77,2,6.91,3.18,6.89,0,1.79,7.84,18.9,8.56,18.89l-.64.33a42.37,42.37,0,0,1,2.35,5.13h.32a2.48,2.48,0,0,0,.84,1.76c-.52,1.1,1.71,4.47,2.19,5.61,2.46,5.87,5.26,11.6,7.72,17.47.43,1,2.42,6.41,3.34,6.4-.74,1.55,4.39,8.16,5.34,9.75,3.83,6.44,8.45,12.29,12.43,18.67,1.35,2.17,4.78,5.66,4.82,8h.32c0,1.5,1.87,3.38,2.51,4.79,2.24,5,3.93,9.41,6.86,13.93,1.52,2.35,5,2.87,6.39,5.54s0,6.24.79,8.54c-.84,0-1.73,2.4-1.72,3.1l-.49-.16c-.81,1.4-4,3.17-3.95,4.59-.88,0-1.36.67-2.08,1.17l.65.15c-4.14.07-8.42,5.2-12.16,6.34-2.35.72-5.41,1.25-7.54,2.72l.32.15a12.88,12.88,0,0,0-4.82,1.21l.17.32c-1.94,0-5.5.26-6.92,1.25l.32.16c-4.78.08-15.69,2.61-20.2-1.75-9.45,4.93-12.79,6.5-25.25,5.77-1.76-.11-13.17-3.48-13.78-3.32a53.52,53.52,0,0,1-17.57,1.27A36.83,36.83,0,0,1,44.79,175c-1.34-.51-3.09-2.69-4.25-2.84C28.89,170.69-3,160.75.35,144.28c1.71-8.39,13.89-8.79,15.11-13.34,2-7.38,7-13.72,10.78-20.37,4.4-7.6,7-16.36,10.07-24.54,3.2-8.41,7.24-16.27,9.58-25,2.19-8.2,7.3-15.26,10.9-22.78,3-6.36,4.79-13.7,6.91-20.46C64.29,15.89,68.78,4.59,70.42,4.56Z"/><path class="ffce76ef-885d-485e-b515-e6872028a84c" d="M121.05,132.34c-.85-2.43-3-3.85-5.4-4.59v-.32a3.35,3.35,0,0,1-1.29-.14V127c-1.46,0-2.76-1.17-4.22-1.38v-.33c-9.51-1.73-15.59,6.22-8.17,13.38,2,2,5,1,7.46,2,2,.75,5.5,3.84,7.62,1.65,0,1.38,1.48.86,2.6.92-5.61.22-16.63.46-21.38,5.38,2.57-.05,5.36-1.44,7.71-1.91,5.21-1,11.76-.85,16.77-.94.12,0,18.79,2.16,11.78,0,5.81-3,9.24-3.53,17.05-3.85l-1,.34c3.3,1.58,3.25,5.86,0,7.91-.4.25-6.54-3.37-9.86-.8-2.76,2.14-6.12,8.06-9.54,8.4-3.87.39-9.26-5.17-14.94-5.07-4.8.08-7.46,7.07-12,6.82a35.56,35.56,0,0,1-7.46-2c-2.17-.88-2-5-6.55-5.53-.44,2.92,2.63,6.17.8,9-2.61-2.52-8.3-5-11.67-2.86-1.85,1.15-3.57,5.62-5.72,5.42-4.4-.41-5.79-8.4-9.06-10.5-2.86-1.83-7.73.62-10.8.68-2,0-4.91-1.87-6.83-2.47,0-.59-.58-.58-1.14-.62-4.84-.38-4.36,1.86-8.17,3.2-.49.17-1.46-1.07-2.11-1.09-2.35-.09-5.64.74-7.61-1.16s-2.05-5.94-5.44-6.36c-4.68-.59-6.69,5.91-11.57,3.1-1.19-.69-1-6.51-.14-8.39,2.81-5.88,9.92,1,14.87.87,12.93-.22,22.28,4.47,34,8.94,2.2.84,5.42.43,7.29,1.34,1-2.08-13.14-3.54-13.17-5.75-1.15,0-2.41-1.1-3.58-1.23v-.48c-1.21,0-2.51-.89-3.73-1.07V142c-2.11,0-5-1.27-7.13-1.65l.16-.33a14.44,14.44,0,0,1-4.37-.41l.48-.17c-14.65-4.6-11.76-12.25-8.34-25,.61-2.29,2.33-5.27,2.29-7.46S33,101.57,33,99l.48-.17c0-1.26.93-2.14.91-3.41l.48-.16c0-1.78,2-3.81,2-5.53h-.3l.48-.17c0-.45-.05-.23.15-.65h-.32l.48-.17c0-1.53,1.22-3.56,1.85-4.87h-.32l.48-.17c-.1-5.78,6.75-11.14,6.64-17.23h.33v-.32H46l.49-.17v-.33h-.32c1-.51,1.24-3.51,1.37-4.54.43-3.39,4.56-7.15,4.5-10.73,1.45-.52,2.62-4.43,3.45-5.88,2.7-4.68,7.66-14.48,7.58-19.34l.32.16C63.27,20.4,67,12.44,68.7,8c.55-1.44,2-2.84,2-4.55,1-.27,1.76-1.8,3-1.18,2,.94-.14,5.7-.68,7.12C71,15,66.52,28.83,68.34,34l-.32.17c2.73,7.71,11.63-4.74,9.7-8.42l.33-.17a.8.8,0,0,1,.27-1.12l0,0a.82.82,0,0,1,.27-1.12h0c-.08-.32-.08-.32-.17-.64.56-.3.13-1.29.45-1.95l.24,4.52c0-1.49,0-5,.2-6.95.12-1.1.35-2.1.43-3.23.11-1.47,1.52-18.38,6.87-13.2C90,5.06,88.56,12.33,90.8,16.64l-.32.16c.74,2.09,5,7,5.85,2,.58-3.21-.89-4.72-.93-7.24h-.33l.16-.32-.33-.16c.21-.42.16-.21.15-.65h-.32l.16-.33c-.71-.34-.34-.7-.35-1.28h-.32c.2-.42.16-.21.15-.65h-.32C94,7.11,93.49,6,94,5c1.63,1,1.94,5.38,2.71,7.22C99.58,19,102.24,26,105.13,32.85c7.53,17.93,16.15,35.42,23.68,53.35,3.54,8.43,9.79,15.31,12.68,23.51-.86-.27-.33-.11-1.63-.46-.07.33-.07.33-.15.65-4.47.08-4.27,1.35-4.9,5.58-.2-1-.43-2-.7-3.06-.78.4-.55,2.8-1.23,3.73-1.17,1.62-10.78,7.72-12.64,6.84.87-.91,2.07-1.19,2-2.62-2.72,0-3.88,1.92-4.12,4.43,1,0,.36.1,1.6-1,.66,1.28-.39,2.34,1.34,2.89V127l-1,0-.29,1a9.58,9.58,0,0,0-4.23-1.86C115.66,128.56,121.71,128.73,121.05,132.34Z"/><path class="b69cf8f2-3b6f-498c-b280-554289148f0a" d="M140.12,142.5c4.78-.08,9.76-2.75,15-2.84,4.69-.08,15.34,7,11.2,12.72-8.86,12.24-26.79,16.68-40.83,19.27-.72.13-14.49.92-16.65-1.16-.24.49,0,.59.34,1-2.39,1.65-7.13,2-10,2.43-6.38,1-10.42.66-18.55.8-4.24.08-7.16-1.82-10.71-3.52-.16,1.28-.42.86.18,1.45-8.36.67-16.05,2.17-24.07-.88a7.73,7.73,0,0,1-4.59-3.95c-.32-.76-.33-3.23-1.19-3.21v-.32c-2.19,0-2.47,2.51-2.67,4.08-2.49,0-5.5-1.58-7.79-2.45-9.59-3.65-25.5-9.11-25.71-21.35-.09-5.35,10.1-7.36,12.57-11.19.07,4.3,8.67,5.35,11.58,6.74-7.34,2.58-9-3.47-15.24-3-3.64.29-2.34,11-1.74,11.32,4.2,2.43,7-3.35,11.24-3.42,3.16-.05,3.89,5.58,6.09,7,2.68,1.72,6.21-.06,9.07,1.78,2.11-2.19,6.2-4.55,9.31-3.07-3.86,2-8.32,3.81-7.91,9.18.07,1,.92,1.1,1.64,1.26.62-2.69,2.66-9.89,6.28-10,3.32-.06,6,2.48,9.57,2.41,2.89,0,6.07-2.69,8.71-.15,2.8,2.71,4.12,9,8.4,9.87,2.78.56,4.13-5.43,7.49-5.78,1.4-.15,10,.63,10.07,3.7.07,4-4.42,9.7-7.06,11.74,5.77-.1,9.53-11.94,9.24-16.46,0-.9-1.52-3.35-1.2-4,1.69.81,3.51,4.58,4.61,4.93,2.19.69,6.71,2,9.07,1.93,1.18,0,1.94-2,2.86-2.63,3.36-2.49,5.93-4.14,10.26-4.21,4.74-.08,7.68,5.19,12.2,5.12,3.12-.06,6.24-6.18,8.74-7.9,3.9-2.7,6.8-.55,10.49.3-3.22,4-8.35,5.53-11.62,8.92,1,1.87,4.47.2,6-.42,3.95-1.67,15.47-10.45,9.59-14.7-.74-.53-1.83-1.82-2.94-1.88-2.14-.12-4.3-.09-6.45-.05C143.32,142,141.75,142.47,140.12,142.5Z"/><path class="b7a0714c-c8b9-41cf-a8fb-36f2e3e47b01" d="M167.34,148.49c1.74,4.94-3.25,9.43-7.06,12.07-9.68,6.7-22.51,11.77-34.33,12.37-5,.26-10.6.77-15.36-1.51.27-.57,0-.32,1-.34,4.91-.08,9.43,1.61,14.7.56C138.63,169.16,164.05,162.69,167.34,148.49Z"/><path class="e85ea30d-43dd-4740-8f4d-521b185ae07d" d="M130.93,133.94l-1.77.2C141,139.8,146.06,121.29,143.5,114l-.32.33c-.62-2.33-2.21-2.93-3.79-4.45l.47-.66a10.11,10.11,0,0,0,1.63.46c0-1-.39-.49-.2-1.77,3.58,6.85,12.72,17.06,6.58,25.55-3.21,4.43-8.69,8.1-12.88,11.36h.32c-.54.75-.23.52-.79.82h.32c-2,.54-6.12-1.55-8.26-1.79-1.71-.2-8.77.17-9.39-1.3,0-.11-.11-.2-.16-.31,2.42-2.2,4.23-7.36,4.17-10.73.61,2.26.27,3.66-.22,5.81,5.41-.09-.82-9.27-1-10.15a4.71,4.71,0,0,0,1.6-.35c2,5.75,6.72-2.53,8.35-2.73,1.83-.21,3.71.2,5-1.37.14-.17-.15-7.95,0-9.37.24,3.25,2.08,8.34,0,11.3-1.25,1.81-7.68,3.71-7.81,6C127,133.76,128.06,133.8,130.93,133.94Z"/><path class="be1e813d-08b4-4837-908a-e967b741c699" d="M17.62,134.45c3.21,6.17,16.7,4,21.89,5.59l-.16.33c2.51,0,4.79.91,7.13,1.65v.49c.91,0,3.72.46,3.74,1.55.6.06,3.57.67,3.59,1.55,2.46-.05,6.13,2.42,8.61,3.08.47.12,6.17,1.22,4.56,2.34-1.86,1.29-7.21-1.17-9.24-1.93-5.69-2.16-11-5.23-16.91-6.82-4.5-1.21-9.26-1.31-13.76-2.35C24,139.23,18.76,137.64,17.62,134.45Z"/><path class="b3852c56-7b0b-4d7c-a465-9729bf1ffb95" d="M48.48,108.26l-.17-.64-.32.16.17.32-.33.17.17.32-.32.17c.34.64-1.38,4-2,4.71.63,1.21-2.22,3.54-1.53,4.87-1,.52-.43,3.85-.08,4.85h.33c0,.44,0,.23-.15.65h.32a3.77,3.77,0,0,0,.19,1.61h.32c-.15.48-.27.81.34.8l-.16.49.33.15-.16.33h.33l-.16.33h.32l-.15.33.32.15-.15.33h.32c-.17.56-.22.86.34,1.13-.08.16-.08.16-.15.32h.32c0,1.14-.35,2.61.22,3.71a4,4,0,0,0-.93,1.79c-22.32,7.87-21.11-22-10.1-33.4,2.27-2.36,6.28-2.47,9.16-2.42C49.27,99.51,48.68,105.78,48.48,108.26Z"/><path class="bb9508e2-e1fd-4ce8-aac4-6b943b67264e" d="M138.5,142.21c-.05-2.59,10.24-6.7,10.57-13.75.23-4.85-.69-10.62-3.81-14.62-1.38-1.79-4.61-5.46-4.65-7.83,6.82,9.86,14.41,19.09,16.36,31.2-4.08.07-9-.72-12.73,1.83l.49.15C142.54,140,140.63,141.45,138.5,142.21Z"/><path class="a85e69a5-9e5f-4825-af29-4647045af6e1" d="M29.42,107.61c0,2.07-1.44,4.62-2,6.65-3.47,13-6.63,20.39,8.18,25a32.5,32.5,0,0,1-14.08-2c-1.8-.69-3-2.43-4.73-3C16.73,129.28,26.31,112.46,29.42,107.61Z"/><path class="a017f124-39be-4a7f-aa63-7d59492d813b" d="M45.36,133c-2-.08-5-.18-6.81-1.5-.8-.57-3.23-3.65-3.62-3.65-.09-5.3-2-14.73,1.75-19.88,1.74-2.41,7.77-7.44,9.65-2.11h.33c-.09-5.31-5.58-6.08-9.41-2.58a22,22,0,0,0-7,15c-.12,5.56-.5,11.1,3.65,15.11C36.1,135.49,45.43,137.06,45.36,133Z"/><path class="a5f9252d-b22c-4297-8106-0b137600b081" d="M63.88,140c-7.06-.43-14-7.26-14.79-14.76-.36-3.58,1.43-11.64,6.57-11.73.55,0,3.43,8.58,4.38,10.09C63.24,128.67,79.28,140.86,63.88,140Z"/><path class="a3c4781a-2834-48f1-a910-4f8dbabb33d3" d="M39.93,164.25c-.72,1.49-1.67,4-.88,5.5-2,0-4.68-1.36-6.65-2a79.35,79.35,0,0,1-16.09-6.67c-2.26-1.3-4.18-3.68-6.39-4.73l.48-.34c6.53,6.31,18.58,9.59,27.17,12.3C37.55,166.66,38.15,164.88,39.93,164.25Z"/><path class="b1d54283-b610-4acf-be94-9dbb6c6c0f20" d="M110.12,125.26v.33c1.53.28,2.74,1,4.22,1.38v.32c1,0,.55-.1,1.29.14v.32c2.32,0,4.56,2.67,5.24,4.59h.32c-.13,1.6-1.77,4.11-1.35,5.67-2.7,1.41-1.08,4.7-6,4.79-1.7,0-3.32-1.69-4.88-2.18-2.29-.72-4.92,0-6.81-1.82C94.49,131.43,100.46,123.83,110.12,125.26Z"/><path class="f1f4a706-8f5f-4cfa-b8ff-2a08b26f7096" d="M63.2,128.82c1.45,2.44,5.7,5.32,5,8.79-.49,2.39-7.31.22-8.73-.82-5.33-3.85-8.85-7.52-9-14.86,0-1.2,2.33-6.2,3.62-5.71,1.65.63,1.8,4.75,2.36,6.1C57.66,125.15,61.74,126.35,63.2,128.82Z"/><path class="f87bba39-ded4-45f8-bb89-e7ca34e8948f" d="M135.09,113.21c-.2-5.13,5.27-3.63,7.25-.77,2.54,3.67-3.18,18.47-6.9,20.78-1.61,1-6.35.77-6.93.77-.42,0-1.1-1.06-1.16-1.44-.72-4.47,4.42-4.65,7-7.06C137.31,122.68,135.22,116.58,135.09,113.21Z"/><path class="fc78d47b-a8de-44a4-b72b-719c48a9ef91" d="M45.36,133c-13.38,1.82-13.92-15.92-8.19-25.85,1.62-2.82,9.26-5.68,9.35-.48s-4.35,9.7-4.25,15.24C42.31,124.84,48.44,132.58,45.36,133Z"/><path class="b716db03-6e8e-4df5-b657-ae0628c1183f" d="M129.32,97.17c.45,0,.65,0,.66.47.52.17,1.62.71,1.63,1.26h.33v.32c3,0,2.28,7.36,1.12,8.86-4.83,6.26-17.18,6.21-20-1.92h-.32c2.46-5.14,4.6-11,11.6-10.69C125,95.5,129.3,95.91,129.32,97.17Z"/><path class="e87b18b2-c246-4355-8979-7d4fdaaf1463" d="M57.35,117.3l.32-.17c3.5,6.71,10.13,9.71,14,15.9s-3,8.86-8.11,7.24c2-1.37,4.88.93,6.76-1.4,1.37-1.7-.69-4.47-1.72-5.79-2.35-3-5.63-4.89-7.73-8.26C59.41,122.48,58.65,119.78,57.35,117.3Z"/><path class="f105eed6-b6dc-417a-9376-18d2bd5396c7" d="M71.08,173.88c-7.74,2.73-29.84,3.26-30.82-9h.32C43.08,178.44,64,170.51,71.08,173.88Z"/><path class="aa99c09c-6ebd-4a53-abf5-b0dc157f7315" d="M143.5,114c4.53,8.69-3.69,23.67-14.51,20.27,1.95-.36,4.76.22,6.44-1.08,3.64-2.83,6.1-10,7.49-14.5C143.41,117.21,142.84,115.4,143.5,114Z"/><path class="bd2640f7-d05b-4e58-87b1-cc4a0499402b" d="M99,32.8v.32c2.72,0,3.24,2.75,4.74,3.48l-.16.32h.33l-.16.32h.32l-.15.32h.32c0,.44.05.22-.15.64h.32c0,1.58-.73,4.52-.06,5.81l-.32.17.17.32-.32.16.17.32c-1.53,1.58-1.73,4.52-4.43,5.25C95.4,51.36,86,46.91,85.91,41.91,85.81,36.13,94.51,32.88,99,32.8Z"/><path class="b9c2b8e8-a20c-4ce5-882f-37b044e20df3" d="M73.71,92.64C70.82,87.53,62.33,91,56.86,88.9a22.56,22.56,0,0,1-7.5-4.4c-.28-.27-.25-.76-.82-.47-.18.1,3.43,5.75,3.83,6.4C55.24,95,76.93,98.31,73.71,92.64Z"/><path class="bbe62547-a91c-48e6-a2e2-0ea161c8fa85" d="M138.79,159c3-3.08,21.5-12.2,11.81-16.83,1.64-.36,4,1.13,4.73,2.5-.53.28-.45,2.87-1.07,3.73a32.79,32.79,0,0,1-7.93,7.88C145.27,157,139.77,160.87,138.79,159Z"/><path class="ad09b7bf-38b2-4cae-ba15-e6915f15d124" d="M128.45,130.92c.06,3.49,4.72,2.41,6.8.69,3.86-3.21,9.81-19,2.23-20.38-.25.52-.8.5-.47,1.14l-.31.33c4.22,4.08,2.34,13.83-1.78,18.11C133.37,132.41,129.67,133.25,128.45,130.92Z"/><path class="b0e00211-7094-4f71-a843-85fda3e502fd" d="M115.05,102.74c-6.09,6.31,9.23,11,14.17,7.18,8.08-6.28-.75-15.26-8.77-12.44a14.15,14.15,0,0,1,5,1C141.46,106.18,116.58,115.76,115.05,102.74Z"/><path class="e07796cd-41c5-4696-ada6-ddc36664dfc2" d="M118.71,137.06c.14,7.78-6.8,2.58-10.45,2.27-1.18-.09-3.29.15-4.53-.56-1-.58-3.18-4-3.63-4,0-3.08-1-4.88.84-7.44,0,2.14-1.3,4.58.28,6.62,1.2,1.54,12.52,5.27,15.59,5.22C117.61,139.18,118.37,137.6,118.71,137.06Z"/><path class="bda47e41-7414-4b07-ae89-051505e4b3a3" d="M118.71,137.06c.77-1.48,1.91-3.52,1.21-5.19-1.68-4-16.25-7.89-19-4.51-.65.8-.58,3.9-.57,4.37.09,5.1,6.14,4,9.13,5.17,2.75,1,4,2.35,7.3,2.29C117.61,139.18,118.42,137.63,118.71,137.06Z"/><path class="a30db962-a8ee-4838-a94b-eed79aaa1a40" d="M139.92,159.46c6.21-.11,14.63-9.14,15.09-14.63,2.93-.05-.86,6.06-1.5,6.8C149.86,155.83,145.6,159.36,139.92,159.46Z"/><path class="b23ecb7e-9d3e-45ff-b391-0cd1b82d7f5f" d="M88.14,40.25C86,44.71,94.41,50.54,99,48.94c7.12-2.51,5.53-14.28-3.48-14.63,8.83.95,8.48,17.1-1.26,11.48-.93-.53-4.86-1-4.88-2.17C88.32,43.64,88.19,40.67,88.14,40.25Z"/><path class="f98a6ed7-44c0-4fb5-81a2-2fed85598c44" d="M120.1,124.12c2.67-2.93,7.62-3,10.56-5.67.83-.74,2.38-1.94,2.69-3.27,0-.05.53-3.1.76-2.76,1.71,2.49,1.18,8.1-1.12,10.19-1.18,1.06-3.43.22-4.84.24-2.22,0-2.46,4.08-4.44,4.27S118.29,126.11,120.1,124.12Z"/><path class="a61774a9-c8ac-43e9-a116-51150a18ce5a" d="M98.71,91.24c3.14,6,17.78-8.3,19.22-9,.14,8-15.16,11.13-20.17,9.55C98,91.29,98.22,91.41,98.71,91.24Z"/><path class="a306b17f-24d7-4471-9fca-5a4395d51291" d="M128.45,130.92a11.61,11.61,0,0,1,6.09-2.85l-.49-.15c5.5-2.87,3-10.2,3-15.07,3.06,5.87,1.87,10.31-1,16.33C134.88,131.54,130.16,134.18,128.45,130.92Z"/><path class="a306b17f-24d7-4471-9fca-5a4395d51291" d="M48.58,67.62a11.58,11.58,0,0,1,6.08-2.85l-.48-.15c5.49-2.87,3-10.2,3-15.07,3.06,5.86,1.87,10.31-1,16.32C55,68.24,50.28,70.88,48.58,67.62Z"/><path class="ed2ef99c-925f-4ab3-8964-8c5390ddce26" d="M90.08,152.08c6.87-1,1.8,20.8-5.94,20.93C90.57,166.36,92.07,161.2,90.08,152.08Z"/><path class="bf0a32df-4c76-4935-9f84-777078354cea" d="M115.05,102.74c.15-2,3-4.86,5.24-5.09,3.12-.32,13.17,3.26,10.31,8.21C127,112.05,114.55,109.43,115.05,102.74Z"/><path class="bf0a32df-4c76-4935-9f84-777078354cea" d="M73.75,71c.16-2,3-4.86,5.24-5.09,3.12-.32,13.17,3.26,10.32,8.22C85.74,80.29,73.25,77.67,73.75,71Z"/><path class="bf0a32df-4c76-4935-9f84-777078354cea" d="M54.52,103.53c.16-2,3-4.87,5.24-5.1,3.12-.31,13.17,3.27,10.32,8.22C66.51,112.83,54,110.22,54.52,103.53Z"/><path class="b102a914-e5fc-4cb5-b8c6-6e5ed2ac80b7" d="M135,145.82c5.19,2.56-11.72.06-12.27.05-4.85-.06-11.66-.6-16.78.77-1.46.39-5.93,2.18-7.71,1.91a9.2,9.2,0,0,1,1-.66,14.43,14.43,0,0,1,2.88-1.34c3-.79,5.56-2.23,8.67-2.73,6.8-1.1,13.37-.37,20,.62A14.93,14.93,0,0,1,135,145.82Z"/><path class="f6ef8c30-5aca-4cec-908b-d3545d80de4a" d="M88.14,40.25c2.14-8.66,16.13-6.3,13.94,3.15C100.36,50.82,86.88,45.4,88.14,40.25Z"/><path class="f6ef8c30-5aca-4cec-908b-d3545d80de4a" d="M93.58,70.17c2.13-8.67,16.12-6.3,13.93,3.15C105.79,80.74,92.31,75.32,93.58,70.17Z"/><path class="f6ef8c30-5aca-4cec-908b-d3545d80de4a" d="M77.47,118.44c2.13-8.66,16.12-6.3,13.93,3.15C89.68,129,76.2,123.6,77.47,118.44Z"/><path class="f6ef8c30-5aca-4cec-908b-d3545d80de4a" d="M58.31,65.6c2.13-8.66,16.13-6.3,13.93,3.15C70.53,76.18,57,70.76,58.31,65.6Z"/><path class="f8a3c940-3ed6-4c4e-96d5-72b5cafba46c" d="M109.8,172.41c-10.82,5.64-25.8,6.3-36.95,1,.84-.88,6.45,1.15,7.76,1.15q8,0,16-.11C98.35,174.38,109.39,171.23,109.8,172.41Z"/><path class="bb7898a8-0a68-4ba4-b165-ff703f372980" d="M98.71,91.24c6.24-.11,12.67-5.47,17.94-8.22l.17.32C115.17,85,101.31,96.23,98.71,91.24Z"/><path class="ee66e333-cd0d-4493-a758-804c55fe5ea8" d="M125.05,157.77v.65c-12.58.22-11.62-2.43-20.07,6.32C110.3,156.46,115.68,155.6,125.05,157.77Z"/><path class="a0257756-a31f-455d-ad81-942626ab5acc" d="M64.8,146.55a3.56,3.56,0,0,1,2.43.6l-.32.17c8.31-.15,18.62-2.66,26.64-.14v.32c1.54,0,2.62,1.86,2.64,3.19-2.84.33-5.15-2.38-8.28-2.44-5.62-.12-10.87.51-16.45.61C70.47,148.87,64.83,148.28,64.8,146.55Z"/><path class="b1243432-a021-426b-884f-325ac1bf8d7e" d="M73.71,92.64l1.94,0c.16,9-20.22,4.8-22.12-.59C58.75,91.93,70.72,102.17,73.71,92.64Z"/><path class="e74914c3-fe18-420b-be64-a012a418806b" d="M144.25,139c3.23-1.68,9.7-3.28,12.73-1.83,0-2.57-1.54-4.89-1.58-7.4,1,2.75,3,5.86,3.06,8.82C153.65,136.33,146.87,140.29,144.25,139Z"/><path class="bb4b950d-eeaf-4780-aa24-cbc3313b9392" d="M62.87,128.34c-4.22-2-5.08-12-7.33-13.26-.69-.41-1.47.77-1.92,1.16C54.79,116.21,58,128.42,62.87,128.34Z"/><path class="f3d8ba4b-277a-4ab0-9790-897b42752db2" d="M133.53,116.46c.1,5.59,1.18,5.25-5.87,5.6a1.05,1.05,0,0,0-.49.16c-2.69,1.68-2.84,5-6.4,3.34l.32-.65c2.53.59,2.73-1.32,4.47-2.82,1.27-1.1,3.32-.56,5-.73a1.4,1.4,0,0,0,.64-.33C132.41,120.08,132.71,117.75,133.53,116.46Z"/><path class="fac4ef97-dd53-42b9-9a10-3b87b53de352" d="M121.61,127c3.8-.06,3-1.93,5.74-3.81,3.1-2.15,6.1,1.24,7.2-3.51,1.84,5.18-2.22,3.19-5.24,4.77C127.45,125.42,124.12,131.81,121.61,127Z"/><path class="f949fe09-4785-4f1c-93aa-1ce9948b8d2a" d="M43.6,162.25c3.35-.58,3.83,4.63,7.2,5.52.62.17,5.59,1.28,4.24,2.68C51.64,174,38.19,163.19,43.6,162.25Z"/><path class="aefa72fd-314c-4e29-b391-46563aebff36" d="M51.34,133.87c2.78,5.32,10.69,4.67,12.56,7.37C58.38,144.12,53.13,138.07,51,134Z"/><path class="fcb8ebf3-6f52-4b4a-9244-bfccf6b42482" d="M62.42,37.3c1.66-.66,11.1,9.43,5.83,10.23C64.05,48.17,56.58,39.64,62.42,37.3Z"/><path class="b1ab70f3-0699-4531-b05d-7be7906c78df" d="M115.62,126.46c4.88-2.54,10.39,10.79,5.36,10.88,0-1.58.75-3,.72-4.69C121.65,129.49,117.46,128.23,115.62,126.46Z"/><path class="b286fd2e-7418-4a34-a37e-fa96de696a73" d="M40,161c-.08-4.51,2.54-8.91,7.09-10.13v.32c-3.79.07-5.63,6.95-6.28,9.8Z"/><path class="a6452cf7-5bb9-497b-9067-84499d0b7f7b" d="M158.54,143.64c3.4-1.29,7.78,3.47,6.26,7.47-.2.54-3,4-3.67,2.16-.8-2,.83-3.9-.11-6.13C160.48,145.86,157.32,144.1,158.54,143.64Z"/><path class="a4e33061-524a-4f78-a160-d8a2de26c093" d="M68.36,44.31c2.06,2-1.33,3.26-2.87,2.14-2-1.43-7-10.69-1.75-8.2C59.88,39.28,65.67,47.08,68.36,44.31Z"/><path class="e6614baa-30c3-40ae-a522-82e20198a04e" d="M65.15,138.47C72,138.35,64.4,131.6,63,129,65.87,128.93,74.17,141.31,65.15,138.47Z"/><path class="a7d0e3bb-a8f8-4a2d-82fd-090019eef5ca" d="M81.91,137.21v.33h.48v.32c3,0,3.87,2.84-2.53,3-3.2,0-6.18-6.12-2.7-6.57C79.56,133.92,80,136.62,81.91,137.21Z"/><path class="a1ca403f-0dfe-4b47-aed8-ddd455cae15c" d="M40,161c-3.9-1.87,2-9.24,4.84-9.29C42.75,156.18,40.28,155.47,40,161Z"/><path class="a98b75a5-ac20-486c-9527-d68dfb640cc0" d="M92.55,24l-.16.33h.32l-.15.33c2.08,1-.82,6-4.13,4.1-2.17-1.25-4.47-7-.12-7.1C94.62,21.57,89.65,22.65,92.55,24Z"/><path class="a07b9137-5a78-479e-87da-dddedf977ee7" d="M68.19,44.31c-.25,3.74-8.15-4.81-5.1-5.88C64.15,38.05,68.3,42.82,68.19,44.31Z"/><path class="e3323814-b0c1-4710-a04c-420d01e8df2d" d="M84.52,26.91c1.27,2.43,4.42,3,7,2.63.09,5.15-6.52,1.81-7.3-2.46Z"/><path class="a664e298-b33f-4b61-955c-9f04592cada0" d="M66.8,84.85c-2,4.21-7.22-.88-8.28-2.93C58.93,81.51,65.47,84.58,66.8,84.85Z"/><path class="e05943db-430e-46a3-8268-924b9011fd51" d="M48.63,98.72c-3.24.33-6.15-.87-9.53-.48C39,93.85,47.85,94.46,48.63,98.72Z"/><path class="a246525c-0c02-4a50-9d50-b04de37718e2" d="M105.32,81.12a1.82,1.82,0,0,0,.5,1.12c-1-.32-1.78,1.25-2.71,1.83a11.59,11.59,0,0,1-5.47,1.38C98.07,84.55,104.29,81.14,105.32,81.12Z"/><path class="b626ea89-b167-4738-b25f-a3dbd0da876f" d="M83.73,139.45c-.71-1.35-6.33-5-7-3.59C77.77,136.86,82.43,140.78,83.73,139.45Z"/><path class="b3e2b870-e9cb-403c-809d-be1356d28f1b" d="M74.67,110.7a31.77,31.77,0,0,1-7.22,2.22C68.36,111,73.92,106,74.67,110.7Z"/><path class="fe0c50e6-4a15-4ed2-88f1-f9d48b9235d5" d="M102.37,32.25c-2.61.29-5.58-.59-8.24-.66C96,27.76,101.6,28,102.37,32.25Z"/><path class="a494dc46-0073-4dfe-b2fc-5630c22500f4" d="M83.09,139.77c-2.49,1.3-7.51-.11-6.36-3.76A69.65,69.65,0,0,1,83.09,139.77Z"/><path class="b8ece1c5-bdb2-4894-a18a-e641fd9d9a86" d="M122.27,90.66c1.44-.33,5,0,5,2.5,0,.12,0,.29-.16.32C123.76,94.48,113.66,92.66,122.27,90.66Z"/><path class="f6f18f9b-24c9-4ce7-9e06-c22d5f01398c" d="M85,84.53c2.8.08,2.89,2.9.37,3.06-3,.21-9.65-1.71-2-2.71A11.28,11.28,0,0,1,85,84.53Z"/><path class="aaeb5cfb-1db9-498d-ad03-30b5106b72b3" d="M93.56,92.13c1.38,0,3.52,4.47,5.2,1.85C101,95.05,93.66,97.71,93.56,92.13Z"/><path class="e6f87eda-f778-4eae-b51c-acdeee242c04" d="M89.62,23.11c3.38.78,2.25,7.89-1.54,4.23C90.2,26.23,90.36,25.2,89.62,23.11Z"/><path class="ac13f5f6-dd2c-4bdc-ae50-8b8dbb533289" d="M119.78,123.8c-1.24,1.1-.61,1-1.6,1a4.08,4.08,0,0,1,4.12-4.43c0,1.38-1,1.9-2,2.62.56,0,.22,0,1,.31C120.67,123.77,120.19,124.6,119.78,123.8Z"/></g></g></g></g></g></svg>