<svg xmlns="http://www.w3.org/2000/svg" viewBox="0 0 67.31 83.97"><defs><style>.f710c5b3-4001-4416-9ded-9eff2208e2ee{stroke:#391332;}.a0ce1df1-e755-484b-b36a-74780dd1d95e,.a0d5cc67-6e37-40fc-845e-05087c40b211,.a1bf6c02-24ee-41fa-8588-5f312b947ae9,.a1d95e1f-60a7-494e-9f85-651ceb9892b0,.a285096e-4a7a-4e6e-93e3-8ecdd20a1a54,.a4cb74eb-ee07-4c7e-9bf2-5bf8d93e9ff4,.a613f720-2690-40a7-90f5-c068372f5418,.a6e848ae-5da3-4c9a-b105-7dc29e8f5504,.aa5896bf-fb33-4c1e-b0fc-d6707914316a,.aa710275-1475-4037-9cb6-948686556d8c,.aa97a3db-0ab2-4f64-ae00-8cedd48b46c4,.ab1511da-5976-4851-bf60-fdf7c763a929,.ab570b6d-0c44-4073-8dc0-0c38d0078a54,.ac023c9e-f12a-4e60-9600-0943154bbca5,.acda82fb-b596-42a2-8c57-2fbd2406574c,.ad95bae1-c11c-4368-8c6f-596871ab10ce,.ae87acf2-c7e7-4bc3-9463-3f5e950c5f4d,.aee7a12f-15eb-4c90-8ec3-b4c3816b6d9d,.afa4a9f5-ade7-48f4-8951-27efbd41d878,.b02a865e-37ed-40eb-86c3-97d27e909f65,.b1128b3c-1afc-4ce6-8d59-c6c931cf5ece,.b2484160-394c-4586-a5e8-58b6dd1040a6,.b26b9f09-63f9-4401-b4bc-918495b8e674,.b2f71192-9bd9-406f-9f34-d3ea3f140b8a,.b543515c-5ebf-4c3b-aedc-1b98f0bb57bc,.b5536bc8-e32c-492d-bbdd-c336a144ef22,.b5f26607-1b7e-47a3-8e2c-86f8d5bb1fe7,.b61b129b-82e3-4c4a-b4ab-0db4f857d51b,.b7128c4c-6e24-411b-a633-0e0ec1097da9,.b7bdd2b8-da41-4814-bdea-7b6987570760,.b8adf055-233b-45a5-ae62-8944e3c10e2f,.b8df768a-2dfe-4e69-ae55-a648dbd9ef12,.b8e869bb-5588-4fab-a09f-fad980f693da,.b9c99c8f-f679-4ce9-9a76-1f2c1ab7b707,.bc3862e1-ef62-42eb-9198-e9e519ac804a,.bc8297d4-ccf8-4acc-a413-1f03b020c5b9,.bd7c82c1-b8ea-4217-839e-8327b97b19ae,.bdaba5dd-6f5e-487c-91e8-ebce26ba8ca5,.bf0b2625-de6a-4562-9fc0-95df101ba90e,.bf714a1a-eb8d-4a9b-a029-5caa51ba9b3c,.e1649b51-d223-492e-8bd6-77c5dddc853a,.e639895d-2410-48c7-8709-711f5a2f1153,.e73017b5-7274-4e67-8545-d9a2c963f86c,.ee45b1ce-fbab-4f97-b1f9-667164253af1,.f0e94063-74de-40f3-8624-834f7398a5fd,.f710c5b3-4001-4416-9ded-9eff2208e2ee,.f735d2d7-146b-4ef6-b36e-0885aa0f4497,.fa325571-ff86-492c-9688-70d4910d6d01,.fbbe5da1-4d7e-43ed-a7be-fe989cb4cddf,.fd91ccff-ad61-4b12-bd00-3653c8f7f8ae,.feb316c6-fc95-4cbe-b743-81b14c9fd997,.ff9aa935-9523-48a8-99ee-5763808458a8,.ffb1651d-86b1-4eca-adc9-829ceb2a9879{stroke-linecap:round;stroke-linejoin:round;stroke-width:0.98px;}.b5f26607-1b7e-47a3-8e2c-86f8d5bb1fe7{stroke:#351231;}.b9c99c8f-f679-4ce9-9a76-1f2c1ab7b707{fill:#cf3844;stroke:#cf3844;}.aa710275-1475-4037-9cb6-948686556d8c{stroke:#37112f;}.f735d2d7-146b-4ef6-b36e-0885aa0f4497{stroke:#351030;}.ae87acf2-c7e7-4bc3-9463-3f5e950c5f4d,.b8adf055-233b-45a5-ae62-8944e3c10e2f{stroke:#4d1a49;}.fd91ccff-ad61-4b12-bd00-3653c8f7f8ae{stroke:#4b1947;}.aa5896bf-fb33-4c1e-b0fc-d6707914316a{stroke:#4b1946;}.e1649b51-d223-492e-8bd6-77c5dddc853a{stroke:#361031;}.b02a865e-37ed-40eb-86c3-97d27e909f65{stroke:#521c4e;}.fbbe5da1-4d7e-43ed-a7be-fe989cb4cddf{fill:#f75aad;stroke:#f75aad;}.ab570b6d-0c44-4073-8dc0-0c38d0078a54{stroke:#351031;}.b7bdd2b8-da41-4814-bdea-7b6987570760{stroke:#4c1a48;}.b8e869bb-5588-4fab-a09f-fad980f693da{fill:#f759a7;stroke:#f759a7;}.ffb1651d-86b1-4eca-adc9-829ceb2a9879{fill:#f95aae;stroke:#f95aae;}.bc3862e1-ef62-42eb-9198-e9e519ac804a{stroke:#491845;}.fa325571-ff86-492c-9688-70d4910d6d01{fill:#d63b89;stroke:#d63b89;}.a1d95e1f-60a7-494e-9f85-651ceb9892b0{fill:#d63b81;stroke:#d63b81;}.ff9aa935-9523-48a8-99ee-5763808458a8{fill:#f5579f;stroke:#f5579f;}.feb316c6-fc95-4cbe-b743-81b14c9fd997{stroke:#471843;}.b5536bc8-e32c-492d-bbdd-c336a144ef22{fill:#f25391;stroke:#f25391;}.ad95bae1-c11c-4368-8c6f-596871ab10ce{fill:#d63b85;stroke:#d63b85;}.bdaba5dd-6f5e-487c-91e8-ebce26ba8ca5{fill:#d63b87;stroke:#d63b87;}.a0ce1df1-e755-484b-b36a-74780dd1d95e{fill:#fa5cb4;stroke:#fa5cb4;}.e73017b5-7274-4e67-8545-d9a2c963f86c{stroke:#4f1b49;}.bc8297d4-ccf8-4acc-a413-1f03b020c5b9{fill:#d63a76;stroke:#d63a76;}.b2484160-394c-4586-a5e8-58b6dd1040a6{fill:#f5569d;stroke:#f5569d;}.bd7c82c1-b8ea-4217-839e-8327b97b19ae{fill:#f758a4;stroke:#f758a4;}.a285096e-4a7a-4e6e-93e3-8ecdd20a1a54{fill:#d63a7d;stroke:#d63a7d;}.aa97a3db-0ab2-4f64-ae00-8cedd48b46c4{fill:#f5569e;stroke:#f5569e;}.a613f720-2690-40a7-90f5-c068372f5418{fill:#f85aab;stroke:#f85aab;}.b2f71192-9bd9-406f-9f34-d3ea3f140b8a{stroke:#4f1b4b;}.b1128b3c-1afc-4ce6-8d59-c6c931cf5ece{stroke:#4e1b4a;}.a1bf6c02-24ee-41fa-8588-5f312b947ae9{stroke:#501b4c;}.aee7a12f-15eb-4c90-8ec3-b4c3816b6d9d{stroke:#4a1946;}.b61b129b-82e3-4c4a-b4ab-0db4f857d51b{fill:#d63b8a;stroke:#d63b8a;}.a4cb74eb-ee07-4c7e-9bf2-5bf8d93e9ff4{fill:#f5569c;stroke:#f5569c;}.f0e94063-74de-40f3-8624-834f7398a5fd{fill:#d63b86;stroke:#d63b86;}.ee45b1ce-fbab-4f97-b1f9-667164253af1{fill:#d63a70;stroke:#d63a70;}.b7128c4c-6e24-411b-a633-0e0ec1097da9{fill:#d63b82;stroke:#d63b82;}.b543515c-5ebf-4c3b-aedc-1b98f0bb57bc{fill:#d63b8b;stroke:#d63b8b;}.bf714a1a-eb8d-4a9b-a029-5caa51ba9b3c{fill:#d63b8c;stroke:#d63b8c;}.ac023c9e-f12a-4e60-9600-0943154bbca5{fill:#d63a7f;stroke:#d63a7f;}.acda82fb-b596-42a2-8c57-2fbd2406574c{fill:#d63a7b;stroke:#d63a7b;}.bf0b2625-de6a-4562-9fc0-95df101ba90e{stroke:#441640;}.a0d5cc67-6e37-40fc-845e-05087c40b211{fill:#d63b83;stroke:#d63b83;}.e639895d-2410-48c7-8709-711f5a2f1153{fill:#d43977;stroke:#d43977;}.b26b9f09-63f9-4401-b4bc-918495b8e674{fill:#d63c97;stroke:#d63c97;}.b8df768a-2dfe-4e69-ae55-a648dbd9ef12{fill:#40153c;stroke:#40153c;}.ab1511da-5976-4851-bf60-fdf7c763a929{fill:#d63a74;stroke:#d63a74;}.a6e848ae-5da3-4c9a-b105-7dc29e8f5504{fill:#f4569a;stroke:#f4569a;}.afa4a9f5-ade7-48f4-8951-27efbd41d878{fill:#f25392;stroke:#f25392;}.b8adf055-233b-45a5-ae62-8944e3c10e2f{fill:#4d1a49;}</style></defs><g id="a84a4695-3a7e-4514-b294-543b2577c439" data-name="Layer 2"><g id="a1494aec-ce6d-40b1-9034-a68f8d155339" data-name="Layer 1"><g id="ee51a31d-60ea-46a4-a592-8a1186175ca3" data-name="Layer 1"><path class="f710c5b3-4001-4416-9ded-9eff2208e2ee" d="M32.49,31.35h.28a11.08,11.08,0,0,0-2.65,1.83c.39.2.11.21-.37.09-.46.93-1.58.79,0,1.74a2,2,0,0,1-1.19-.82,4.25,4.25,0,0,0-1.64,1.28c.41.2-3.66,3.56-3.66,5.58,0,.27,0,.45.27.45,0,.42,1.13,1.45,1.46,1.56,0,.25,0,.15.19.27-.13.25,0,.55.27.55-.35,1.07.3,2.46-1.37,3,1.69-1.69-2.16-3.81-3-4.67-1.46-1.46-.11-3.18.83-4.39-.88-.43-4.3,2-5.13,2.38s-2.33.61-3,1.47C10.67,45.53,10.2,56,10.91,60.25h.19c0,.35-.1.45,0,.82h.18v.28h.18a2.2,2.2,0,0,1-.18.64l.18.09-.09.27.18.09-.09.28.18.09-.09.18.19.09A.85.85,0,0,0,12,64l-.09.18.18.09-.09.19.18.09c-.13.27,0,.45.09.73h.19l-.09.18c.23.24.16.42.27.73h.18l-.09.19h.18c-.19.58.43.34.19.82h.18l-.09.18h.18l-.09.18h.18c-.12.26,0,.55.28.55l-.09.19c.88,0-1.57.7-1.92.82C10.37,69.57,8.37,70.43,8,72c-1,4.18,4.55,10.16-2.29,11.53C9,82.39,7.39,78.68,6,76.8,2.38,72,3.91,66.64,10.09,65.1c0-.72-2.28-2.47-2.84-3a25,25,0,0,1-5.12-8C-2.6,42.2,3.52,31.8,12.47,24.13c.32.64-.31,1.61,0,2.38.38.94,1.73.72,2.37,1.37s.57,1.66,1.19,2.28c-.77.52-2.1.52-3,.83a10,10,0,0,0,3.65-.19c1.39,2.77,6.42-1.24,8.14-1.73.49-.14,2.84.08,2.84.73-2,0-4.79,1.72-6.77,2.28-3.61,1-8.5,1.37-11.8,3C15.9,35.4,21.88,32.43,28,30,28.82,29.66,32.49,30.56,32.49,31.35Z"/><path class="b5f26607-1b7e-47a3-8e2c-86f8d5bb1fe7" d="M55.81,49.46C55.32,47,54.35,42,52.25,40.31c-1.49-1.18-4.61-1.66-6.41-2.56-1.14-.57-3.27-2.47-4.48-2.47-.65,0-1.23,1.1-2,1.1a17.09,17.09,0,0,1,1.92-1.19A18,18,0,0,0,39.35,34c-.29.29-1,1-1.37,1,.41-.41.87-.78,1.28-1.19a19.37,19.37,0,0,1-3-2.1c.4-.8,1.49-.72,2.2-1C39,31.87,41,32.85,42,33.64c6.61,5,14.74,6,22.86,6.13-8.21-1-19.66-3-25.87-9.24,1.84-1.23,4.12.9,6.21,1.74a53,53,0,0,0,16.74,3.47C56.82,34.46,51.79,33.67,46.76,32c1-.33,2,.43,3.11,0s1.33-1.49,1.92-2.38c.27-.4,1,0,1.46,0,1,0,.18-.91,2.56-.91l-1.55-.09c1-2,1.36-5.4-1-6.59.13-.25.13-.52.37-.64,3.69,3.69,7.32,7.08,10.15,11.8,5.81,9.68,3.08,24-6.13,30.91,3.37.84,7.1,4.17,6.13,8-1,4.08-6.18,6.25-2,10.42-5.76-.82-1.92-7.74-1.92-11.34,0-2.16-4.12-3.21-5.67-3.47.5-1.52,1-3,1.37-4.57C54.15,64.1,56.36,52.22,55.81,49.46Z"/><path class="b9c99c8f-f679-4ce9-9a76-1f2c1ab7b707" d="M12.74,26.69h-.18c0-2,2-9.12,4.2-9.51,1.68-.3,1.46.73,2.66.73,1.78,0,3.19-1,5.21,0,2.08-2.08,3.5-2,6.4-2.65.53-.12,1.44-1,1.92-1.28,3.11-1.56,5,.13,5.4,3a4.28,4.28,0,0,1,3.56,2.19c.19-.1.91-1.49,1.19-1.74.95-.84,9.42.55,10.15,1.65.59.88-.24,2.37.09,2.92,1.34,2.23,2.34,3.75.92,6.59h1.55a10.86,10.86,0,0,0-2.56,1c-.49,0-1.19-.4-1.46,0-1,1.44-1.32,2.57-3.39,2.57C47,32.18,45.09,32.06,44,31c-.78-.78-1.83-3.3-3.11-3.3,0,3.86-6,4.25-8.42,3.66,0-.25.06-.15-.18-.27a50.18,50.18,0,0,0-6.86-2.29c-2.49,0-5.38,4.29-7.95,2.74-1.45-.86-1.51-2.89-2.66-3.65C14.17,27.43,13.05,27.63,12.74,26.69Z"/><path class="aa710275-1475-4037-9cb6-948686556d8c" d="M38.35,17a4.28,4.28,0,0,1,3.56,2.19C45.36,17.47,47,6.92,44.2,4.1c2.73,1.37,2,10.58.82,12.9,1.48.73,4.75.95,6.13.91,2-.06,3-9.55,3-10.06a2.72,2.72,0,0,0-.1-.46c1.89,3.77-.16,7.82-2.46,10.7a2.11,2.11,0,0,1,1.55,1c2.84-2.59,3.66-5.22,3.66-9,0-.93-.64-1.78-.64-2.66,1.61,3.23,1.82,10.55-2.75,12.07a4.87,4.87,0,0,1,.19,1.19c6.91,0,8-10.33,4-14.26C51.82.57,42.84.05,34.78.72l.37.09c0,1.33,1.3,3.17,1.55,4.57.52,2.85.22,5.72.46,8.6C37.22,14.71,38.21,16,38.35,17Z"/><path class="f735d2d7-146b-4ef6-b36e-0885aa0f4497" d="M33,14c-.65-3.91-1.6-7.78-2.56-11.62-.31,4,.53,8.47,1.19,12.44-1.75.88-4.23,1.38-6.13,2.2-.41.17-1.8-3.94-1.92-4.3a22,22,0,0,1-.91-9.06,21.86,21.86,0,0,0,.27,9.42c.3,1.06,2.05,3.74,1.92,4.67-.06.45-.68,0-.82-.09-1.87-.75-2.87-.6-3.66-2.57A18.62,18.62,0,0,1,19,7.67c0-1.31.91-2.54.91-3.75A64.41,64.41,0,0,1,35.15.81c0,1.66,1,3.53,1.18,5.21a61.1,61.1,0,0,1,.28,7.77C35.34,13.16,34.17,13.67,33,14Z"/><path class="ae87acf2-c7e7-4bc3-9463-3f5e950c5f4d" d="M30.76,30.62c-1.09,1.62-4,2.84-5.67,3.84-6.81,4.08-14,6.81-22,7C13.21,39.47,21.66,35.17,30.76,30.62Z"/><path class="fd91ccff-ad61-4b12-bd00-3653c8f7f8ae" d="M38.44,30.71a1.12,1.12,0,0,0,.55-.18c5.78,5.79,18.24,8.19,25.87,9.14C57.48,39.79,43.24,37.92,38.44,30.71Z"/><path class="aa5896bf-fb33-4c1e-b0fc-d6707914316a" d="M40.91,27.69a4.25,4.25,0,0,1-.83,2,53.89,53.89,0,0,0,21.86,6c-3.13-.78-6.39-1-9.51-1.92-1.75-.5-3.93-1.71-5.67-1.92-.53-.06-1.3.14-1.83-.18C43.63,30.94,42.5,27.69,40.91,27.69Z"/><path class="e1649b51-d223-492e-8bd6-77c5dddc853a" d="M14.57,19.74c-1.1-2.19-4-3.7-4.21-6.68-.4-5.88,4.79-7.57,9.51-9.14A12.72,12.72,0,0,0,18.69,13c.15.53,2,4.28,2,4.3-1.69,1.13-2.54-.88-4.3,0a12.51,12.51,0,0,1-1.19-9,9.5,9.5,0,0,0-.73,6.22,33.55,33.55,0,0,1,1.37,3.11A20.35,20.35,0,0,1,14.57,19.74Z"/><path class="b02a865e-37ed-40eb-86c3-97d27e909f65" d="M28.56,29.8c-1.89,0-5,2-6.77,2.74A38.44,38.44,0,0,1,9,35.19c2-1,4.81-1,7-1.64,4-1.13,7.81-2.45,11.71-3.75v-.19C28.08,29.61,27.77,29.6,28.56,29.8Z"/><path class="fbbe5da1-4d7e-43ed-a7be-fe989cb4cddf" d="M36.06,30.35c1.92-1.92,3-3.52,1.74-6.68-.85-2.11-4.37-4-5.76-1.19-.92-2.76,4.18-2.42,5.3-2.1C42,21.72,41.05,33.67,36.06,30.35Z"/><path class="ab570b6d-0c44-4073-8dc0-0c38d0078a54" d="M10.73,8.86c0,1.46-.82,3-.82,4.57,0,2.14,2.67,6.13,4.57,6.77,0,2.71-3.74-2.12-4.39-3.2C8.18,13.81,9.31,11.7,10.73,8.86Z"/><path class="b7bdd2b8-da41-4814-bdea-7b6987570760" d="M11.19,66.19c-5.41,2.71-5,4.35-5,9.51-2.09-3.12-1.62-6.21,1.73-8.23C8.51,67.1,10.57,65.89,11.19,66.19Z"/><path class="b8e869bb-5588-4fab-a09f-fad980f693da" d="M31.4,28.43c2.38-.6,6.39-1.05,5.12-4.85-.46-1.36-3.39-1.36-3.39,0,0,.78,1.56.78,1.56-.46h-.18c.29-.29.09-.2.64-.09.28,2.59-2.93,2-2.93-.09,0-2.4,4-1.43,4.75-.09C40.25,28.31,34.62,33.27,31.4,28.43Z"/><path class="ffb1651d-86b1-4eca-adc9-829ceb2a9879" d="M37.71,19c-.43,0-1.55-1.9-2-2.29-2.33-1.94-5.22.76-5.76,2.93-3.22-1.61,7.17-10.5,8-3A7,7,0,0,1,37.71,19Z"/><path class="bc3862e1-ef62-42eb-9198-e9e519ac804a" d="M14.48,20.2c-3.48-1.75-5.65-7.37-3.84-11,.41.82-.53,3.72.18,5.49C11.41,16.17,14.72,19,14.48,20.2Z"/><path class="fa325571-ff86-492c-9688-70d4910d6d01" d="M46.67,31.08c5.5-.92,3.92-10-.19-7.32,1.38-1.55,5.23-.92,5.49,1.47C52.32,28.33,50.85,33.87,46.67,31.08Z"/><path class="bc3862e1-ef62-42eb-9198-e9e519ac804a" d="M53.43,19.46c4.33-2.16,4.62-8.31,2.75-12.07-.28.82.64,5.09.64,5.49,0,2.31-2.24,4.72-3.57,6.31Z"/><path class="a1d95e1f-60a7-494e-9f85-651ceb9892b0" d="M44,27.69c.73,1.48,4.78,1.07,5.21-.64,1-4.07-3.5-1.9-1.65-1.37.76.22.38-.42.82-.64.78.78-.54,1.26-1.18,1.19-1.54-.17-.78-2.69,1-2.56,3.32.24,1.44,5.33,0,6.77C46.47,32.19,44,29.23,44,27.69Z"/><path class="ff9aa935-9523-48a8-99ee-5763808458a8" d="M29.93,21.2c0,.65.55,1.19.83,1.74-2.67,2.67,2,4.17,3.65,4.3C31.1,31.66,25.38,21.2,29.93,21.2Z"/><path class="fd91ccff-ad61-4b12-bd00-3653c8f7f8ae" d="M24.81,17.54a22,22,0,0,1-2.28-13.8c.5,3.51-.34,10.09,2.74,13.16Z"/><path class="feb316c6-fc95-4cbe-b743-81b14c9fd997" d="M56.73,65.37c4,0,6.41,5,4.29,8.14,0-1,.37-1.94.37-3C61.39,67.2,57.54,67,56.73,65.37Z"/><path class="b5536bc8-e32c-492d-bbdd-c336a144ef22" d="M38.44,20.56c-4.19-2.09-6.5-.48-7,3.57-.67-2,0-5.24,2.65-5.49C35,18.55,38.44,19,38.44,20.56Z"/><path class="b7bdd2b8-da41-4814-bdea-7b6987570760" d="M19.87,3.92c.2.4-.44,1.54-.54,2A20.62,20.62,0,0,0,19,10.59c0,2.34,1.38,4.5,2.38,6.5-.93.46-2-2.67-2.29-3.39C17.72,10.37,18.34,7,19.87,3.92Z"/><path class="ad95bae1-c11c-4368-8c6f-596871ab10ce" d="M20.15,19.56c-2.87,0-4.48-.09-4.48,3.38a1.91,1.91,0,0,0,.55,1.19l-.19.18C11.87,22.23,17.16,13.59,20.15,19.56Z"/><path class="bdaba5dd-6f5e-487c-91e8-ebce26ba8ca5" d="M51.79,23.3c0-3.13-3.53-5.72-5.76-2.37-.79-3.14,5.54-3.52,6.95-1.65C53.59,20.1,53.09,23.3,51.79,23.3Z"/><path class="a0ce1df1-e755-484b-b36a-74780dd1d95e" d="M38.35,17.36c3.5,0,6.52,7.56,2.46,8.14C40.81,22.25,37.49,20.34,38.35,17.36Z"/><path class="b7bdd2b8-da41-4814-bdea-7b6987570760" d="M51,18c2.76-1.38,3.52-8.51,3.1-10.61C54.68,8.6,54.44,18.58,51,18Z"/><path class="ff9aa935-9523-48a8-99ee-5763808458a8" d="M36.88,18.73c-4.51,0-4.13-.78-6.22,3.39C29.14,17.55,34.63,14.24,36.88,18.73Z"/><path class="e73017b5-7274-4e67-8545-d9a2c963f86c" d="M31.58,14.71c0-4-.95-8.23-1.28-12.25A62.47,62.47,0,0,1,33,14C33,14.22,31.82,14.71,31.58,14.71Z"/><path class="bc8297d4-ccf8-4acc-a413-1f03b020c5b9" d="M24.54,27.6c-.61.61-1.7.5-2.47.55.69-1.38,1.71-2.18,1.55-4.11a1.66,1.66,0,1,0-3.29.45c.86.18,1.33-.62.37-1,.16-.32,0-.14.45-.46.57.57.79,1.34.1,1.92-1.7,1.41-3.06-2.77,0-3.11C25.4,21.38,23.52,25.58,24.54,27.6Z"/><path class="b2484160-394c-4586-a5e8-58b6dd1040a6" d="M30.39,15.62c0,1.58-2.07,1.37-2.93,2-1.52,1.14-1.46,2.11-1.46,4C24.07,17.8,26,15.62,30.39,15.62Z"/><path class="bd7c82c1-b8ea-4217-839e-8327b97b19ae" d="M25.73,21.93c1.37-.3,1.14,4,1.19,4.67a4.06,4.06,0,0,0,.64,1.92c.19.26.86.5.64.73C26.17,31.27,22.18,22.71,25.73,21.93Z"/><path class="bc3862e1-ef62-42eb-9198-e9e519ac804a" d="M45.2,17.18l-.27-.09C46.64,13.66,47.31,7,44.29,4c0,1.12.87,2.4,1,3.57.34,2.91.2,6.82-1.19,9.6Z"/><path class="a285096e-4a7a-4e6e-93e3-8ecdd20a1a54" d="M24.63,23.12c-2-2-5.67-2-5.67,1.47C15.83,18.32,28.07,19.68,24.63,23.12Z"/><path class="aa97a3db-0ab2-4f64-ae00-8cedd48b46c4" d="M29.2,17.45a14.65,14.65,0,0,0,.64,3.39c-3.42,0-1.19,3.44-1.19,5C27.62,23.79,23.7,17.45,29.2,17.45Z"/><path class="a613f720-2690-40a7-90f5-c068372f5418" d="M27.28,24.77c1.61,1.6,4.37,3.33,5.4,5.39C28.72,30.16,27.28,28.77,27.28,24.77Z"/><path class="b2f71192-9bd9-406f-9f34-d3ea3f140b8a" d="M56.36,46.71c1.14,2.27,7.37,2.57,9.24,2.84C64.17,50.26,56.36,49.77,56.36,46.71Z"/><path class="b2f71192-9bd9-406f-9f34-d3ea3f140b8a" d="M11,47.35c0,3.19-8.19,3.31-9.32,2.93A18.66,18.66,0,0,0,11,47.35Z"/><path class="b1128b3c-1afc-4ce6-8d59-c6c931cf5ece" d="M11.74,42.78c0,3.26-8.21,3.21-9.33,2.93A18.63,18.63,0,0,0,11.74,42.78Z"/><path class="a1bf6c02-24ee-41fa-8588-5f312b947ae9" d="M55.63,42.14C56.76,44.41,63,44.71,64.86,45,63.69,45.37,55.63,45.39,55.63,42.14Z"/><path class="aee7a12f-15eb-4c90-8ec3-b4c3816b6d9d" d="M35.24,1.18A21.1,21.1,0,0,1,37,14c-1.19-.8-.25-2.87-.27-4.3A28,28,0,0,0,35.24,1.18Z"/><path class="b61b129b-82e3-4c4a-b4ab-0db4f857d51b" d="M14.75,23.49c.42.83,1.44,1,2.2,1.37-1.5,2,.64,2.65,2.1,3.38C17.21,28.4,11.05,25.34,14.75,23.49Z"/><path class="a4cb74eb-ee07-4c7e-9bf2-5bf8d93e9ff4" d="M35.69,22.94a4,4,0,0,1,.74,2.47c0,3.72-8,.62-5.58-1.83,0,.47.46,1.28.91,1.28,0,1,1.51,1.34,2.2.82.53-.4,1.37-.94,1.55-1.64C35.61,23.63,35.24,23.17,35.69,22.94Z"/><path class="f0e94063-74de-40f3-8624-834f7398a5fd" d="M44.47,21.75c2.17-.58-.09,3-.09,4.39,0,.61.9,1.27,1.37,1.46.31.13,1.13.43.83.55C43.36,29.44,41.67,22.5,44.47,21.75Z"/><path class="ee45b1ce-fbab-4f97-b1f9-667164253af1" d="M21.43,19.83c-2.15,1.07-5,4.21-1.74,5.85C17.54,26.4,16,19.29,21.43,19.83Z"/><path class="b7128c4c-6e24-411b-a633-0e0ec1097da9" d="M15.3,27.79c1.5-.92,2.21,1.25,3.48,2,.5.3,2.21.62,1.92.91C18.62,32.79,13.84,28.68,15.3,27.79Z"/><path class="bdaba5dd-6f5e-487c-91e8-ebce26ba8ca5" d="M17.13,25.13c1.18-.78,1.33,1,2.2,1.65a2.45,2.45,0,0,0,2.46.18c.47-.35,1.07-1.73,1.28-1.19C24.71,29.85,13.79,27.36,17.13,25.13Z"/><path class="bc8297d4-ccf8-4acc-a413-1f03b020c5b9" d="M52,24.68c-1.56-3.12-5-2.54-6.4.18C44.89,20.8,52,20.66,52,24.68Z"/><path class="b543515c-5ebf-4c3b-aedc-1b98f0bb57bc" d="M53.16,22.3a3.39,3.39,0,0,1,1.37,2c.42,1.47,0,5.47-2.38,5a.27.27,0,0,1-.18-.18c-.31-1.08.55-2.4.55-3.48,0-.49-.6-1.68-.46-2.1S52.81,22.07,53.16,22.3Z"/><path class="bdaba5dd-6f5e-487c-91e8-ebce26ba8ca5" d="M19.51,19.65c0,1.69-4.13,1.26-1.37,5.39C16,25.75,14.14,18.57,19.51,19.65Z"/><path class="fd91ccff-ad61-4b12-bd00-3653c8f7f8ae" d="M15.85,17.64c-1.44-2.88-2.25-6.2-.73-9.24.61,1.23-.37,2.74-.37,4.11,0,1.87,1.24,3.21,1.65,4.85Z"/><path class="bf714a1a-eb8d-4a9b-a029-5caa51ba9b3c" d="M21.25,17.36c2.57-.11,2.75.33,3.29,2.47.05.2.52.84.36,1,0,0-.5-.26-.55-.28-1.13-.56-4.75-.86-4.75-2.28C19.6,17.75,20.9,17.38,21.25,17.36Z"/><path class="ac023c9e-f12a-4e60-9600-0943154bbca5" d="M19,26c1.74-.58,3,1.09,3-1.92a1.18,1.18,0,0,0-.83-1.19c.35-.68,2,.63,2.11,1.19C23.72,26.35,20.32,28,19,26Z"/><path class="bf714a1a-eb8d-4a9b-a029-5caa51ba9b3c" d="M51.42,22.76c-1.39-2.79-4.14-.63-5.76.18C45.66,19.1,51.42,18.54,51.42,22.76Z"/><path class="f0e94063-74de-40f3-8624-834f7398a5fd" d="M45.2,24c.16.46,0,.89.1,1.37h.18c0,2.16,3.16,1.45,3.56-.18C50.89,28.91,42.26,28.45,45.2,24Z"/><path class="acda82fb-b596-42a2-8c57-2fbd2406574c" d="M47.76,18.09c-.82,1.66-5-.69-5,2.38h-.19C41.47,17.24,45.66,16.69,47.76,18.09Z"/><path class="bf0b2625-de6a-4562-9fc0-95df101ba90e" d="M22.16,4.1c0,1.31-.85,2.73-.91,4.12-.12,2.65.64,4.73.64,7.13C20.94,11.56,19.78,7.68,22.16,4.1Z"/><path class="a0d5cc67-6e37-40fc-845e-05087c40b211" d="M46.3,19.19a3.77,3.77,0,0,0-.64,2.47c-1.52,0-1.83-.08-2.56,1.37C42.29,20.6,45.06,16.7,46.3,19.19Z"/><path class="e639895d-2410-48c7-8709-711f5a2f1153" d="M14.3,21.84a2,2,0,0,0,.27,1.28c-1.17,1.56-.94,3.51.82,4.39C11.46,28.82,13.09,23.35,14.3,21.84Z"/><path class="b26b9f09-63f9-4401-b4bc-918495b8e674" d="M42.55,25c.59,1.19.75,3.41,1.65,4.3-.35.35-.87-.11-1.19-.37-1-.82-1.77-1.46-1.65-3C41.38,25.71,42.38,25.3,42.55,25Z"/><path class="b8df768a-2dfe-4e69-ae55-a648dbd9ef12" d="M23.53,37.2c-1.22,1.53-2,2-2,4,0,.47.55.69.55,1.19C21,40.3,20.93,38.51,23.53,37.2Z"/><path class="f0e94063-74de-40f3-8624-834f7398a5fd" d="M23.71,28.33c0,2.37-5.67,2.37-5.67.28A26.53,26.53,0,0,0,23.71,28.33Z"/><path class="ab1511da-5976-4851-bf60-fdf7c763a929" d="M43.92,29.8c.41-.42,1.77.67,2.2,1.09.11.12.73.72.55.74C46.08,31.67,43,30.8,43.92,29.8Z"/><path class="a6e848ae-5da3-4c9a-b105-7dc29e8f5504" d="M36.52,30.8c0,1.9-3.61,0-4.21-.18C33.65,30.09,35.16,30.53,36.52,30.8Z"/><path class="afa4a9f5-ade7-48f4-8951-27efbd41d878" d="M31.94,23.21c0,1.06,1.11,1.74,2,1.92C32.7,27,31.94,24,31.94,23.21Z"/><path class="b543515c-5ebf-4c3b-aedc-1b98f0bb57bc" d="M46.12,24.4c0,.69.05,1.67.82,1.92v.19C45.7,26.51,45.46,25.39,46.12,24.4Z"/><path class="b8adf055-233b-45a5-ae62-8944e3c10e2f" d="M16.58,30.8c-.78.4-3,.24-3.66.28C14,30.71,15.73,30,16.58,30.8Z"/><path class="a285096e-4a7a-4e6e-93e3-8ecdd20a1a54" d="M21.61,25c0,1.55-1.41.53-2.1.19C20.21,25,20.91,25.51,21.61,25Z"/></g></g></g></svg>