<svg xmlns="http://www.w3.org/2000/svg" xmlns:xlink="http://www.w3.org/1999/xlink" viewBox="0 0 533.51 611.06"><defs><style>.ed790d0c-523a-4e5e-874b-0726950b20ed{fill:#040607;stroke:#040607;}.a033e1d0-7976-4ae1-b16a-aea995ed3a34,.a09a5050-7979-4b49-9398-724deca97636,.a30c0f7e-55ba-4725-92d1-bda2f6d883d4,.a3de8669-5dc6-4fb3-b438-c3a035c993d7,.a47c9c9a-197a-4bbb-87ad-8cd38fdcaf06,.a51343dc-9899-48a1-a555-7db78569e481,.a5b481d9-cad6-41ba-97f9-3cb970879721,.a5d60871-12e6-460a-97c7-34eead58e93d,.a6e28e96-81fd-4035-b84c-99a86f50e3ad,.a79161f1-4530-4635-8028-af31a7e8525e,.a7e3a5b8-12cc-4510-bfd1-9ab598f3c689,.a7f8dd25-af4b-434e-a1ec-e65e232079e1,.a90cd173-d0fe-4f1b-9942-5a5fbec21614,.a937d259-4575-415c-ad6e-d11e9d4dcf04,.a94c8dd0-4008-4c84-9326-feb038d06bc3,.a974cc21-a32d-42e4-8332-c7f93816ffc6,.a9df9bc9-aac8-4729-8f17-c1798738322a,.aa90c041-fe0b-4eaa-a694-4e8b6bb70c15,.ac35d16a-647d-4681-9132-e002e94c7bae,.ac41907c-1b76-4f07-b7bc-6b4790084aa2,.acaa0fc0-8fa8-4ea3-a507-717a36df3715,.acdf1fa4-3599-44b0-a799-faa126191934,.ae3a4464-4a00-4b58-aa26-a2ec8a88222b,.aea531c3-c84a-4f43-84a4-b4ac9e2c03bf,.af16dea3-7425-4f17-9751-fbdf5ee701e9,.b154a200-2f22-4c97-9071-06ff671aefcb,.b200a5d8-58a6-4c02-975d-7be4639bca00,.b2bd3dcc-727d-478e-830f-f021be277231,.b2ca1da9-3c65-4add-a261-1d615f5d3f31,.b467734c-ba5b-4f28-aa0f-6294230a62f7,.b4c28b7f-80dc-4d09-8065-3ee6bfa55e13,.b4c47e96-faf2-49e7-b5d9-2603d846b12e,.b66c7ef9-07e3-401b-a44f-ebb7f49c1da5,.b9bd7b33-0048-4708-a1f2-ef8656b27893,.baed028c-48da-44ee-9860-ff339f3508b5,.bb0fe6cd-dc49-45a7-a95d-6da97f7e9841,.bb6d0f32-5fc8-4f01-89dc-da18293c99c9,.bc576c2e-cbc3-43f2-aa8a-9e0a206f01c2,.bc602502-0203-49be-9d40-8e0bf322ffe3,.bd0691e7-57d2-4e23-b2e6-74e63557c108,.bf114831-6991-4717-be18-b1ebc4cda744,.bf680f42-b60c-46de-81e0-c0bb14f0cc77,.bfb98afe-db5d-45ea-a0b0-81f2775c556a,.bfc3fdb2-b3e6-4aca-b509-5f8f6f0041a6,.bfcff1a8-f7da-442a-9c89-b89d1a813417,.e08ddf02-2e21-436e-894d-33097c42730f,.e11e3afa-c139-40a5-ac5a-775e021e2461,.e2d90c2b-88d2-42e4-b599-38ffa113d5b3,.e41e03e7-e0ec-4deb-84d3-6b6223bf7ae6,.e5fb5e4f-2fd7-4222-a388-8873c44bbbaa,.e77b0599-5aaf-4ccb-9f9a-d5025b4e948c,.e7c4cf0d-e022-427b-b0a6-db2872fedb7a,.ebd6b7ef-e970-492e-a0d6-1aa70439298f,.ed0f400b-b3ce-4c12-b24c-5429b1acd494,.ed790d0c-523a-4e5e-874b-0726950b20ed,.ef738b17-52bf-40d0-8b14-9c2e7dcea2cc,.efc3d430-7aef-44d8-bf54-b72e0feba60b,.f0b2cf3e-a4d2-449a-9546-41043566cfc5,.f1a0d938-a2fa-4b6f-9e13-e18172230ee6,.f206f235-ecbe-4f0c-bb1d-1cf5fdd615ac,.f3388e65-6154-4b0c-a2c1-bd4a4b3ad722,.f50c213e-7c92-4be8-bf85-ba8df083ecc8,.fa6f14e1-aecb-4dd8-97b2-ec9ff1261d9e,.fb9b395d-23fd-4d0b-85ec-ea7320193efa,.fb9e7c83-aa16-4f49-964c-6bce2684fb6f,.fc8cd01a-4064-4871-a59d-8df6f24f8157,.fecc2376-9a71-40a6-af21-e4cb64583c1c{stroke-linecap:round;stroke-linejoin:round;stroke-width:1.26px;}.bfcff1a8-f7da-442a-9c89-b89d1a813417{fill:#090f10;stroke:#090f10;}.a5b481d9-cad6-41ba-97f9-3cb970879721,.a5d60871-12e6-460a-97c7-34eead58e93d,.a9df9bc9-aac8-4729-8f17-c1798738322a,.ac35d16a-647d-4681-9132-e002e94c7bae,.bc576c2e-cbc3-43f2-aa8a-9e0a206f01c2{fill:#4bd5df;}.a9df9bc9-aac8-4729-8f17-c1798738322a,.f3388e65-6154-4b0c-a2c1-bd4a4b3ad722{stroke:#0c1515;}.b2bd3dcc-727d-478e-830f-f021be277231,.bb0fe6cd-dc49-45a7-a95d-6da97f7e9841,.e7c4cf0d-e022-427b-b0a6-db2872fedb7a,.ed0f400b-b3ce-4c12-b24c-5429b1acd494,.f1a0d938-a2fa-4b6f-9e13-e18172230ee6{fill:#58dee8;}.ed0f400b-b3ce-4c12-b24c-5429b1acd494{stroke:#0c1616;}.b2bd3dcc-727d-478e-830f-f021be277231,.baed028c-48da-44ee-9860-ff339f3508b5{stroke:#111e1f;}.bc576c2e-cbc3-43f2-aa8a-9e0a206f01c2,.e41e03e7-e0ec-4deb-84d3-6b6223bf7ae6{stroke:#020303;}.a51343dc-9899-48a1-a555-7db78569e481{fill:#080e0f;stroke:#080e0f;}.f0b2cf3e-a4d2-449a-9546-41043566cfc5{fill:#000101;stroke:#000101;}.a90cd173-d0fe-4f1b-9942-5a5fbec21614,.acaa0fc0-8fa8-4ea3-a507-717a36df3715,.b2ca1da9-3c65-4add-a261-1d615f5d3f31,.b4c28b7f-80dc-4d09-8065-3ee6bfa55e13,.b4c47e96-faf2-49e7-b5d9-2603d846b12e,.baed028c-48da-44ee-9860-ff339f3508b5,.bd0691e7-57d2-4e23-b2e6-74e63557c108,.bfc3fdb2-b3e6-4aca-b509-5f8f6f0041a6,.f206f235-ecbe-4f0c-bb1d-1cf5fdd615ac{fill:#ce3939;}.bfc3fdb2-b3e6-4aca-b509-5f8f6f0041a6,.fb9b395d-23fd-4d0b-85ec-ea7320193efa{stroke:#020404;}.a5b481d9-cad6-41ba-97f9-3cb970879721,.a974cc21-a32d-42e4-8332-c7f93816ffc6,.b4c47e96-faf2-49e7-b5d9-2603d846b12e,.f50c213e-7c92-4be8-bf85-ba8df083ecc8{stroke:#0b1415;}.fa6f14e1-aecb-4dd8-97b2-ec9ff1261d9e{fill:#0c1617;}.ae3a4464-4a00-4b58-aa26-a2ec8a88222b,.fa6f14e1-aecb-4dd8-97b2-ec9ff1261d9e{stroke:#0c1617;}.b4c28b7f-80dc-4d09-8065-3ee6bfa55e13,.b66c7ef9-07e3-401b-a44f-ebb7f49c1da5,.f1a0d938-a2fa-4b6f-9e13-e18172230ee6{stroke:#060a0b;}.b2ca1da9-3c65-4add-a261-1d615f5d3f31,.bc602502-0203-49be-9d40-8e0bf322ffe3,.e7c4cf0d-e022-427b-b0a6-db2872fedb7a{stroke:#070c0d;}.a5d60871-12e6-460a-97c7-34eead58e93d{stroke:#030606;}.efc3d430-7aef-44d8-bf54-b72e0feba60b{fill:#050808;stroke:#050808;}.a79161f1-4530-4635-8028-af31a7e8525e{stroke:#0d1819;fill:url(#f94f443d-69d4-4de1-8645-4d50599b499a);}.e11e3afa-c139-40a5-ac5a-775e021e2461{fill:#091011;}.a30c0f7e-55ba-4725-92d1-bda2f6d883d4,.e11e3afa-c139-40a5-ac5a-775e021e2461{stroke:#091011;}.b154a200-2f22-4c97-9071-06ff671aefcb{fill:#152526;stroke:#152526;}.a937d259-4575-415c-ad6e-d11e9d4dcf04,.ac35d16a-647d-4681-9132-e002e94c7bae{stroke:#070c0c;}.bb0fe6cd-dc49-45a7-a95d-6da97f7e9841,.e08ddf02-2e21-436e-894d-33097c42730f{stroke:#070d0d;}.acdf1fa4-3599-44b0-a799-faa126191934{fill:#030505;}.acdf1fa4-3599-44b0-a799-faa126191934,.fecc2376-9a71-40a6-af21-e4cb64583c1c{stroke:#030505;}.f50c213e-7c92-4be8-bf85-ba8df083ecc8{fill:url(#ae641f3d-034a-4742-8e90-fabfff22490c);}.ae3a4464-4a00-4b58-aa26-a2ec8a88222b{fill:url(#e167a996-3219-481d-883b-d92a875d5ea7);}.a974cc21-a32d-42e4-8332-c7f93816ffc6{fill:url(#b18e805b-d1d4-4269-b988-a2d38006e5cc);}.a47c9c9a-197a-4bbb-87ad-8cd38fdcaf06,.acaa0fc0-8fa8-4ea3-a507-717a36df3715,.e77b0599-5aaf-4ccb-9f9a-d5025b4e948c{stroke:#0b1314;}.e77b0599-5aaf-4ccb-9f9a-d5025b4e948c{fill:url(#e9af951d-0d24-42df-9dc4-818fe5a4cc09);}.e5fb5e4f-2fd7-4222-a388-8873c44bbbaa{fill:#010101;stroke:#010101;}.bf114831-6991-4717-be18-b1ebc4cda744{fill:#010303;stroke:#010303;}.aea531c3-c84a-4f43-84a4-b4ac9e2c03bf{fill:#101d1e;stroke:#101d1e;}.bb6d0f32-5fc8-4f01-89dc-da18293c99c9{fill:#050909;stroke:#050909;}.b467734c-ba5b-4f28-aa0f-6294230a62f7{stroke:#4d8a8e;fill:url(#b4a0ae93-7a95-4f4e-b215-faa53d0a2737);}.a94c8dd0-4008-4c84-9326-feb038d06bc3{fill:#152527;stroke:#152527;}.aa90c041-fe0b-4eaa-a694-4e8b6bb70c15{fill:#0d1818;stroke:#0d1818;}.b66c7ef9-07e3-401b-a44f-ebb7f49c1da5{fill:#060a0b;}.bd0691e7-57d2-4e23-b2e6-74e63557c108{stroke:#040708;}.fb9b395d-23fd-4d0b-85ec-ea7320193efa{fill:#020404;}.a3de8669-5dc6-4fb3-b438-c3a035c993d7{fill:#080f0f;stroke:#080f0f;}.fb9e7c83-aa16-4f49-964c-6bce2684fb6f{fill:#172a2b;stroke:#172a2b;}.a033e1d0-7976-4ae1-b16a-aea995ed3a34{fill:#0a1112;stroke:#0a1112;}.a47c9c9a-197a-4bbb-87ad-8cd38fdcaf06{fill:#0b1314;}.e41e03e7-e0ec-4deb-84d3-6b6223bf7ae6{fill:#020303;}.ac41907c-1b76-4f07-b7bc-6b4790084aa2{stroke:#0f1b1c;fill:url(#bdab52a9-2ce8-4b73-af77-fad738080e60);}.a7e3a5b8-12cc-4510-bfd1-9ab598f3c689,.a7f8dd25-af4b-434e-a1ec-e65e232079e1,.af16dea3-7425-4f17-9751-fbdf5ee701e9,.e2d90c2b-88d2-42e4-b599-38ffa113d5b3,.ebd6b7ef-e970-492e-a0d6-1aa70439298f{stroke:#f9b54c;}.a7f8dd25-af4b-434e-a1ec-e65e232079e1{fill:url(#b82a94ea-9a9d-419f-ab84-004bbab3d269);}.ef738b17-52bf-40d0-8b14-9c2e7dcea2cc{stroke:#070d0e;fill:url(#ff02f0e6-0988-4951-b4d0-90cc2e932cfa);}.bc602502-0203-49be-9d40-8e0bf322ffe3{fill:#070c0d;}.bfb98afe-db5d-45ea-a0b0-81f2775c556a{stroke:#274648;fill:url(#f1aebfe7-8f85-40a4-8f8b-12465775af9b);}.b200a5d8-58a6-4c02-975d-7be4639bca00{fill:#060b0b;stroke:#060b0b;}.a7e3a5b8-12cc-4510-bfd1-9ab598f3c689{fill:url(#b439b93f-4496-4d5d-897e-8d23ae89fd70);}.fecc2376-9a71-40a6-af21-e4cb64583c1c{fill:url(#bdfb9a19-5e6a-4699-8c2f-af64e438c2e6);}.a90cd173-d0fe-4f1b-9942-5a5fbec21614{stroke:#0e1919;}.a30c0f7e-55ba-4725-92d1-bda2f6d883d4{fill:url(#ed6d057d-000c-459c-a613-9bb2b1b94a72);}.e08ddf02-2e21-436e-894d-33097c42730f{fill:url(#f97427c5-a156-41f8-a89a-d657757d94d3);}.bf680f42-b60c-46de-81e0-c0bb14f0cc77{stroke:#05090a;fill:url(#a57e7041-f32d-42af-9201-2c0405db3b19);}.a937d259-4575-415c-ad6e-d11e9d4dcf04{fill:url(#efd609de-30f9-4be7-baa7-cfc3aa352fb2);}.f3388e65-6154-4b0c-a2c1-bd4a4b3ad722{fill:#0c1515;}.a09a5050-7979-4b49-9398-724deca97636,.fc8cd01a-4064-4871-a59d-8df6f24f8157{stroke:#010202;}.fc8cd01a-4064-4871-a59d-8df6f24f8157{fill:url(#b58707ee-7da4-449f-8f4c-48d5fdce7dbe);}.e2d90c2b-88d2-42e4-b599-38ffa113d5b3{fill:url(#bfb9dc9a-7986-44d3-af49-829d0f2af452);}.ebd6b7ef-e970-492e-a0d6-1aa70439298f{fill:url(#ad5580c6-35cd-4232-a45e-076eba02a25d);}.af16dea3-7425-4f17-9751-fbdf5ee701e9{fill:url(#b958dfc8-a5e9-4ee8-b928-be0c025d6cc8);}.a6e28e96-81fd-4035-b84c-99a86f50e3ad{fill:#040808;stroke:#040808;}.b9bd7b33-0048-4708-a1f2-ef8656b27893{stroke:#0a1313;fill:url(#e2eb4add-4afe-4fb6-979d-8055a2e3071a);}.a09a5050-7979-4b49-9398-724deca97636{fill:url(#e7b5533d-9d1a-4c2f-bbb4-6ea0aa20f8b0);}.f206f235-ecbe-4f0c-bb1d-1cf5fdd615ac{stroke:#132122;}</style><linearGradient id="f94f443d-69d4-4de1-8645-4d50599b499a" x1="-772.57" y1="763.86" x2="-730.07" y2="763.86" gradientTransform="matrix(1.26, 0, 0, -1.26, 1212.85, 1001.34)" gradientUnits="userSpaceOnUse"><stop offset="0" stop-color="#ffaf00"/><stop offset="1" stop-color="#feff00"/></linearGradient><linearGradient id="ae641f3d-034a-4742-8e90-fabfff22490c" x1="-947.19" y1="590.36" x2="-906.98" y2="590.36" xlink:href="#f94f443d-69d4-4de1-8645-4d50599b499a"/><linearGradient id="e167a996-3219-481d-883b-d92a875d5ea7" x1="-946.57" y1="610.77" x2="-906.98" y2="610.77" xlink:href="#f94f443d-69d4-4de1-8645-4d50599b499a"/><linearGradient id="b18e805b-d1d4-4269-b988-a2d38006e5cc" x1="-592.75" y1="590.36" x2="-553.16" y2="590.36" xlink:href="#f94f443d-69d4-4de1-8645-4d50599b499a"/><linearGradient id="e9af951d-0d24-42df-9dc4-818fe5a4cc09" x1="-593.37" y1="610.77" x2="-553.78" y2="610.77" xlink:href="#f94f443d-69d4-4de1-8645-4d50599b499a"/><linearGradient id="b4a0ae93-7a95-4f4e-b215-faa53d0a2737" x1="-764.09" y1="774.27" x2="-737.9" y2="774.27" xlink:href="#f94f443d-69d4-4de1-8645-4d50599b499a"/><linearGradient id="bdab52a9-2ce8-4b73-af77-fad738080e60" x1="-746.58" y1="783.04" x2="-730.36" y2="783.04" xlink:href="#f94f443d-69d4-4de1-8645-4d50599b499a"/><linearGradient id="b82a94ea-9a9d-419f-ab84-004bbab3d269" x1="-748.01" y1="415.3" x2="-735.64" y2="415.3" xlink:href="#f94f443d-69d4-4de1-8645-4d50599b499a"/><linearGradient id="ff02f0e6-0988-4951-b4d0-90cc2e932cfa" x1="-769.84" y1="782.33" x2="-754.81" y2="782.33" xlink:href="#f94f443d-69d4-4de1-8645-4d50599b499a"/><linearGradient id="f1aebfe7-8f85-40a4-8f8b-12465775af9b" x1="-756.86" y1="786.24" x2="-742.83" y2="786.24" xlink:href="#f94f443d-69d4-4de1-8645-4d50599b499a"/><linearGradient id="b439b93f-4496-4d5d-897e-8d23ae89fd70" x1="-764.09" y1="415.61" x2="-752.34" y2="415.61" xlink:href="#f94f443d-69d4-4de1-8645-4d50599b499a"/><linearGradient id="bdfb9a19-5e6a-4699-8c2f-af64e438c2e6" x1="-941.46" y1="600.93" x2="-928.61" y2="600.93" xlink:href="#f94f443d-69d4-4de1-8645-4d50599b499a"/><linearGradient id="ed6d057d-000c-459c-a613-9bb2b1b94a72" x1="-559.01" y1="590.49" x2="-544.14" y2="590.49" xlink:href="#f94f443d-69d4-4de1-8645-4d50599b499a"/><linearGradient id="f97427c5-a156-41f8-a89a-d657757d94d3" x1="-955.51" y1="612.11" x2="-939.77" y2="612.11" xlink:href="#f94f443d-69d4-4de1-8645-4d50599b499a"/><linearGradient id="a57e7041-f32d-42af-9201-2c0405db3b19" x1="-571.1" y1="601.07" x2="-558.73" y2="601.07" xlink:href="#f94f443d-69d4-4de1-8645-4d50599b499a"/><linearGradient id="efd609de-30f9-4be7-baa7-cfc3aa352fb2" x1="-957.21" y1="591.67" x2="-939.24" y2="591.67" xlink:href="#f94f443d-69d4-4de1-8645-4d50599b499a"/><linearGradient id="b58707ee-7da4-449f-8f4c-48d5fdce7dbe" x1="-559.72" y1="612.48" x2="-544.01" y2="612.48" xlink:href="#f94f443d-69d4-4de1-8645-4d50599b499a"/><linearGradient id="bfb9dc9a-7986-44d3-af49-829d0f2af452" x1="-752.38" y1="420.33" x2="-746.97" y2="420.33" xlink:href="#f94f443d-69d4-4de1-8645-4d50599b499a"/><linearGradient id="ad5580c6-35cd-4232-a45e-076eba02a25d" x1="-744.92" y1="409.73" x2="-730.07" y2="409.73" xlink:href="#f94f443d-69d4-4de1-8645-4d50599b499a"/><linearGradient id="b958dfc8-a5e9-4ee8-b928-be0c025d6cc8" x1="-769.66" y1="409.93" x2="-754.81" y2="409.93" xlink:href="#f94f443d-69d4-4de1-8645-4d50599b499a"/><linearGradient id="e2eb4add-4afe-4fb6-979d-8055a2e3071a" x1="-556.87" y1="599.43" x2="-539.55" y2="599.43" xlink:href="#f94f443d-69d4-4de1-8645-4d50599b499a"/><linearGradient id="e7b5533d-9d1a-4c2f-bbb4-6ea0aa20f8b0" x1="-960.8" y1="599.79" x2="-944.1" y2="599.79" xlink:href="#f94f443d-69d4-4de1-8645-4d50599b499a"/></defs><g id="a7dc5fa1-9eac-464c-aa42-8639d398ec4c" data-name="Layer 2"><g id="b6eb0447-5c8a-4dc6-a860-396c04404114" data-name="Layer 1"><g id="a8c8cb62-e4db-4fba-b634-cc5d5efc5fe4" data-name="Layer 1"><path class="ed790d0c-523a-4e5e-874b-0726950b20ed" d="M16.24,16.51c3.15,1,2.15,2.35,5.46,2.35v1.56H24V22c3.32,0,2.31,1.29,5.47,2.34v1.56c23.16,7.72,36.34,38.85,57,49.17l-.78,1.56c2.61,1.3,4.68,3.13,4.68,6.24l2.34.78-.78,1.56H93.5l-.78,1.56c7.16,3.58,6.52,16.86-4.68,15.61C79.87,101.45,16.24,24.56,16.24,16.51Z"/><path class="bfcff1a8-f7da-442a-9c89-b89d1a813417" d="M515.72,16.51c1.58-.7-15.37,23.87-18,27.32-14.51,19.34-31,44.35-49.95,57-2.2,1.47-9.73,3.29-10.92,0-4.8-13.18,11.48-27.09,19.51-35.12,3.27-3.27,15.91-14.79,20.29-18.73C488.46,36.37,501.05,23.06,515.72,16.51Z"/><path class="a9df9bc9-aac8-4729-8f17-c1798738322a" d="M132.52,409.85l-.78,1.57h1.57C128.54,435.24,71.53,457,49,464.49,61.43,452.08,107.28,397.23,132.52,409.85Z"/><path class="ed0f400b-b3ce-4c12-b24c-5429b1acd494" d="M481.38,477l.78,1.56C465.75,495,439.69,515.5,419,523.8c-4.1,1.64-20.18,7.19-23.42,2.34-4.65-7,12.33-17.39,17.17-20.29C434.16,493,459.12,488.1,481.38,477Z"/><path class="b2bd3dcc-727d-478e-830f-f021be277231" d="M427.53,413.76v1.56h2.34v1.56c18.86,0,37.2,38.11,53.07,46-3.51,3.51-18.88-6.32-23.41-8.58-17-8.51-39.78-16.36-53.07-29.66C386.26,404.48,416,409.9,427.53,413.76Z"/><path class="bc576c2e-cbc3-43f2-aa8a-9e0a206f01c2" d="M51.36,477c6.08,1.52,11.74,4.22,18,5.47V484c3.67,0,1.58-.16,6.24.78v1.56c4,0,7.76,2.33,11.71,3.12V491c3.67,0,7.3,2.4,10.93,3.12v1.56c2.92,0,10.14,1.22,10.14,4.69,4.66,0,8.38,4.09,12.49,5.46v1.56c6,0,9.11,6.9,14.05,9.36l-.78,1.57c1.95,1,2.5,4.14,3.9,6.24-21.41,16-69.35-37-87.41-46.05Z"/><path class="a51343dc-9899-48a1-a555-7db78569e481" d="M84.92,3.25c13.62-.32,55.61-6.82,68.68,6.24,14.52,14.53-43.17,18-44.49,18A253,253,0,0,1,32.63,15c-1.82-.6-18-4.92-18-7,0-1.47,25.23-2.17,28.09-2.34,4.95-.29,9.89-.51,14.83-.78C66.71,4.3,75.8,3.46,84.92,3.25Z"/><path class="f0b2cf3e-a4d2-449a-9546-41043566cfc5" d="M417.38,3.25c31.06-.52,28.58-.34,57,.78,9.89.38,19.77,1,29.65,1.56,4.49.26,13.27-2.15,13.27,2.34,0,2.08-20.41,7.17-22.63,7.8a310.43,310.43,0,0,1-82.73,11.71c-5,0-47-7.69-30.44-19.51C388.11,3.2,411.14,3.35,417.38,3.25Z"/><path class="bfc3fdb2-b3e6-4aca-b509-5f8f6f0041a6" d="M231.64,541.75v1.56c5.38,1.79,10.88,6.93,13.27,11.71,2.4-4.8,2.11-11.37,7.8-13.27-1,2.08-1,1,0,3.12-3.26,3.27-1.61,14.67,0,19.51h1.56l-.78,1.56h1.56v1.56c-6.63,1.66-13-1-19.51,1.56-8.91,3.57-16.27,13.27-26.53,13.27-2.1-18.89,17.6-19.38,31.22-20.29,0-9.29-33.14-22-40.59-25.75C209,530.08,222.37,538.66,231.64,541.75Z"/><path class="b4c47e96-faf2-49e7-b5d9-2603d846b12e" d="M333.1,535.5c-11.63,5.82-33.75,13.64-39.8,25.76h10.92l-.78,1.56c4.56,0,17.17,2.68,17.17,8.59l2.34.78-.78,1.56c4.18,2.08.57,5,2.34,8.58-15.78,0-27.59-14.83-46-14.83,0-9.07,3.92-16.3,1.56-25.75l3.12.78-.78,1.56c1.9.95,3.32,5.06,2.34,7h1.56v3.13C299.36,554.24,308.67,527.36,333.1,535.5Z"/><path class="fa6f14e1-aecb-4dd8-97b2-ec9ff1261d9e" d="M529,14.17c11.85,23.71-7.87,56,0,79.61-7.87,3.93,3,37.5-6.25,42.14,1.2,2.4,1.11,1.08-.78,3.9-8.89-3-6.24-27.43-6.24-33.56C515.72,77.53,515.57,41,529,14.17Z"/><path class="f1a0d938-a2fa-4b6f-9e13-e18172230ee6" d="M506.35,353.66c0,7.17,7.57,40.7,0,44.49.81,6.46-1,8.54,0,14.83-2.55,1.27-3.87,18-3.12,20.29l-1.56.78c1.28,3.83-1.09,2.66,0,7a3.94,3.94,0,0,0-1.56,5.47l-1.56.78.78,2.34-1.56.78.78,1.56-2.34,2.34.78,1.56C490.7,449.61,482.71,349.72,506.35,353.66Z"/><path class="e7c4cf0d-e022-427b-b0a6-db2872fedb7a" d="M466.55,395.81v1.56l2.34.78v1.56l2.34.78v2.34h1.57l-.78,1.56h1.56L472.8,406h1.56l-.78,1.56h1.56l-.78,1.56h1.56c0,6.63,3.07,13.08,4.68,19.51h1.56c0,2.61,1.12,4.79,0,7h1.56c0,2.92.35,1.64-.78,3.9h1.56c-1.13,2.26-.78,1-.78,3.9h1.56c0,3.71.47,2.19-.78,4.69h1.56c0,3.94.33,2.13-.78,5.46h1.56l.78,2.34C478.08,449.54,436.38,395.81,466.55,395.81Z"/><path class="a5d60871-12e6-460a-97c7-34eead58e93d" d="M38.09,365.37l-.78,1.56h1.56c-1.24,2.49-1.2,3.48.78,5.46L38.87,374c6.29,3.15-1.56,72.41-1.56,84.29C28,430.28,25.78,401.83,24,372.39c-.15-2.59-3.38-22.48,7-19.51C35,354,35.24,362.52,38.09,365.37Z"/><path class="a5b481d9-cad6-41ba-97f9-3cb970879721" d="M75.55,413l-1.56.78.78,1.56-1.56.78.78,1.56c-8.43,4.22-14.45,38.24-28.87,38.24C48.72,448.7,61.6,357.16,75.55,413Z"/><path class="efc3d430-7aef-44d8-bf54-b72e0feba60b" d="M3,15c1,2,.2,1.56,2.34,1.56-1,3-.18,4.13.78,7H7.65c-1.58,4.74,3.56,7.71,1.57,11.7h1.56c-1.25,2.5-1.2,3.49.78,5.47l-.78,1.56c3.6,1.8,4,26.25,3.12,30.44h1.56c0,18.53-2.24,38.85.78,57-3.4,1.7.32,3.58-2.34,6.24,2.35,4.7-5.14-.81-6.25-8.58C6,115.69,5.22,104,4.53,92.22,3,66.34,3,41,3,15Z"/><path class="a79161f1-4530-4635-8028-af31a7e8525e" d="M291,30.56l-.78,1.56h1.56c-4.61,9.22-10.66,16.13-18.73,0-2.92,2.93-2.69,1.3-1.56,4.69H273c-1.86,3.72,1.69,9.8-2.34,12.48-11,7.32-11.76-11.6-8.58-17.95-7.48,0-9.12,13.61-19.51,10.15-15.15-5.05,13-16.53,15.61-17.17,0,2.55-6.85,6.84-8.59,8.58,7.73,2.58,7-3.9,14.83-3.9.84,11.75-2.68,9.77,3.12,11.71,0-10.73-1.51-7.12.78-11.71,4.91,1,11.15,8.65,14.83,3.12-3.35-1.67-5.32-4.89-9.37-6.24C276.31,20.83,287.5,28.83,291,30.56Z"/><path class="e11e3afa-c139-40a5-ac5a-775e021e2461" d="M174.67,555v1.56c3,0,5.77,2.18,8.58,3.12v1.56c4.46,0,6.09,3.58,7.81,7-16,5.34-38-11.47-48.39-21.85C150.47,538.63,167.18,555,174.67,555Z"/><path class="b154a200-2f22-4c97-9071-06ff671aefcb" d="M188.72,28.22c3-.81,8-2,9.36.78,2.24,4.48-9.1,4.25-13.27,7-5.63,3.76-9.4,18.6-15.6,20.3C141.32,63.92,176,31.61,188.72,28.22Z"/><path class="ac35d16a-647d-4681-9132-e002e94c7bae" d="M98.19,464.49c13.87-1,21.52-2.56,25.75,10.14,1.11,3.34-2.82,6.34-6.24,7C106,484,19.71,477,81,467.61,86.83,466.71,92.31,464.91,98.19,464.49Z"/><path class="bb0fe6cd-dc49-45a7-a95d-6da97f7e9841" d="M419.73,464.49c9.57-1,17.29.24,26.53,1.56,65.14,9.3-8.31,16.39-29.66,16.39C402.48,482.44,409.35,465.56,419.73,464.49Z"/><path class="acdf1fa4-3599-44b0-a799-faa126191934" d="M99,35.24c-2.73,10.9-17.15,5.43-21.08,13.27h2.35v1.56c4.29,0,6.07,5.92,7.8,9.37C74.48,61.13,64.31,43.88,53.7,36.81,65.28,36.32,87.84,31.54,99,35.24Z"/><path class="f50c213e-7c92-4be8-bf85-ba8df083ecc8" d="M68.53,245.18c-9.39,12.52-34.6,20.62-50.73,22.63C29,254.34,51.12,245.18,68.53,245.18Z"/><path class="ae3a4464-4a00-4b58-aa26-a2ec8a88222b" d="M18.58,219.43c10.26,0,19.8,5.83,29.66,7.8v1.56c3.42,0,6.88,2.82,10.14,3.91v1.56h2.34v1.56h2.35v1.56c3.33,1.11,3.93,1.62,5.46,4.68C56,242.06,23.15,233.12,18.58,219.43Z"/><path class="a974cc21-a32d-42e4-8332-c7f93816ffc6" d="M465,245.18c15.5,0,29.92,14.05,41.36,14.05v1.56c3,1,7.1,4,8.59,7C497.43,267.81,476.89,257.08,465,245.18Z"/><path class="e77b0599-5aaf-4ccb-9f9a-d5025b4e948c" d="M514.16,219.43c0,12.29-40,21.73-49.95,22.63C474.12,230.17,498.77,219.43,514.16,219.43Z"/><path class="e5fb5e4f-2fd7-4222-a388-8873c44bbbaa" d="M479,36v1.57c-12.11,0-19.07,21.85-33.56,21.85-2.11-6.33,6.2-7.72,8.59-12.49-5.45,0-26.2-12.16-17.95-12.49C450.45,33.89,464.72,35.43,479,36Z"/><path class="bf114831-6991-4717-be18-b1ebc4cda744" d="M383.83,544.87c9.38,1-25.72,26.54-39.81,25C329,568.18,382.55,544.74,383.83,544.87Z"/><path class="aea531c3-c84a-4f43-84a4-b4ac9e2c03bf" d="M508.7,51.63c0,12.26,8.61,31.2-2.35,36.68l.79,1.56-4.69.79c-3.21-6.43-2.71-13.4-1.56-20.3-5,5-8.77,10.15-16.39,10.15C482.51,72.53,503.74,56.28,508.7,51.63Z"/><path class="bb6d0f32-5fc8-4f01-89dc-da18293c99c9" d="M24.82,51.63C32,62.44,46.47,67.78,49,80.51c-5.89,2.95-14.29-5.94-16.39-10.15-1.16,1.74.35,26.11-5.46,20.3C20.43,83.92,24.31,51.89,24.82,51.63Z"/><path class="b467734c-ba5b-4f28-aa0f-6294230a62f7" d="M273.78,25.88c3.86,1.93,9.38,3.87,7.81,8.58-5.67-1.13-7.91-4.57-13.27-5.46-2.18,4.36-.83,1,0,10.93H265.2L264.42,29c-6.85,0-7,6.09-14.05,4.68,2.24-4.47,5.85-5.45,7.81-9.36h-2.35V22.76l2.35-.78c-3.33-2.22-6.54-4.2-9.37-7l1.56-2.34c3.67,1.22,7.68,3.65,9.37,7l1.56-1.57c-1-2-1-2.66,0-4.68,0,2.5-.29,1.13,1.56,3.9,3-5.92,10.94-15.66,5.46.78,2.2-1.09,1.54-2.27,2.34-4.68,1.64,3.28,1.16,3.55,0,7,13.36-11.88,14.49-5.24,3.12,2.34H280C277.45,23.79,274.9,23.64,273.78,25.88Z"/><path class="a94c8dd0-4008-4c84-9326-feb038d06bc3" d="M369,42.27l-.78,1.56h1.56L369,45.39h1.56L369.78,47h1.56l-.78,1.56h1.56c-7.69,15.39-23.81-13.92-38.24-18.73C350,21.7,359,37.29,369,42.27Z"/><path class="aa90c041-fe0b-4eaa-a694-4e8b6bb70c15" d="M17.8,283.42l2.34.78a10.16,10.16,0,0,0,3.12,7l-.78,1.56H24c0,2.14.24,1.09-.78,3.12h1.56c0,2.92.35,1.64-.78,3.9H25.6c0,3.17.25,1.6-.78,4.69h1.57c0,10,5,30.07-1.57,36.68l.78,1.56L24,344.3C9.2,336.87,12.84,290.87,17.8,283.42Z"/><path class="b66c7ef9-07e3-401b-a44f-ebb7f49c1da5" d="M515.72,283.42l-.78,1.56h1.56c-1.09,3.26,1.38,3.48,0,6.25h1.56c0,9.75-5.3,33.26-2.34,42.14l-1.56.78.78,1.56-1.56.78.78,1.56c-3,1.52-1.37,4.88-5.46,6.25a21.05,21.05,0,0,1-2.35-8.59c-.44-8.57-.78-17.16-.78-25.75C505.57,304.35,507.72,283.42,515.72,283.42Z"/><path class="fa6f14e1-aecb-4dd8-97b2-ec9ff1261d9e" d="M520.4,152.31c2.39,1.19,1.76,4.1,3.9,6.24l-.78,1.56h1.57c0,10.48-2.53,24.25,0,34.34l-.79-1.56c-1.35,4.07,1.62,7.75-1.56,10.93l.78,1.56-1.56.78.78,1.56-1.56.78.78,1.56c-2,1-1,.78-3.12.78C514.19,196.88,508.72,164,520.4,152.31Z"/><path class="b4c28b7f-80dc-4d09-8065-3ee6bfa55e13" d="M274.56,549.55l-.78,1.56h1.56c0,2.94-2,9.23-.78,11.71L273,564.38l.78,1.56c-2.47,1.24-2.76,3.06-1.56,5.47l-1.56.78.78,2.34-1.56.78.78,1.56-1.56.78.78,1.56-1.56.78c1.13,3.39,1.36,1.76-1.56,4.68l.78,1.56H265.2C265.2,564.94,241.28,553.25,274.56,549.55Z"/><path class="acaa0fc0-8fa8-4ea3-a507-717a36df3715" d="M275.34,597.94c-4-1.32-3.58-3.58-6.24-6.24,4.59-9.18,31-31.49,23.41-8.59C289.78,591.31,278.42,591.8,275.34,597.94Z"/><path class="bd0691e7-57d2-4e23-b2e6-74e63557c108" d="M262.08,587.79c-1,2-.92,3.13,1.56,3.13,0,2.41-3.41,4.47-4.68,7-2.52-1.26-30.39-23.41-14.83-23.41C257.42,574.53,254.05,585.12,262.08,587.79Z"/><path class="fb9b395d-23fd-4d0b-85ec-ea7320193efa" d="M11.56,152.31c2.24,1.12,1.23,2,3.12,3.9l-.78,1.56h1.56c-1.25,2.49-.78,1-.78,4.69h1.56C14,167,11.32,204.13,14.68,210.84,7.42,210.84,2.84,161,11.56,152.31Z"/><path class="a3de8669-5dc6-4fb3-b438-c3a035c993d7" d="M318.27,28.22a78.73,78.73,0,0,0,10.14,4.68v1.56h2.35V36c2.7.91,13.18,11.73,6.24,13.27-10.66,2.37-14-14-19.51-19.51Z"/><path class="fb9e7c83-aa16-4f49-964c-6bce2684fb6f" d="M214.47,29c4.43,5.53-11.32,22.69-18.73,19.51C187,44.74,210.93,24.57,214.47,29Z"/><path class="a033e1d0-7976-4ae1-b16a-aea995ed3a34" d="M297.2,25.88a78.73,78.73,0,0,0,10.14,4.68v1.56c4.93,0,7,5.06,10.93,7l-.78,1.56h1.56C312,54.83,293.36,33.55,297.2,25.88Z"/><path class="a47c9c9a-197a-4bbb-87ad-8cd38fdcaf06" d="M232.42,11.83v1.56h2.34V15h2.34v1.56h2.34v1.56c-10.06,0-25.37-1.58-30.43-11.7C215.35,0,226.61,9.89,232.42,11.83Z"/><path class="e41e03e7-e0ec-4deb-84d3-6b6223bf7ae6" d="M315.93,4.81c20.17,0-15.4,14.87-23.42,13.26-4-.8,6.62-4.9,10.15-7C307.08,8.4,311,4.81,315.93,4.81Z"/><path class="ac41907c-1b76-4f07-b7bc-6b4790084aa2" d="M273.78,22.76c8.54-8.54,11.69-14.81-2.34-2.34C268,13.51,282.18,4,287.83,4V5.59h2.34c0,2.14.24,1.09-.78,3.12H291c0,6,1.63,4.65-1.56,6.24l.78,1.56C284.18,20.51,281.66,22.76,273.78,22.76Z"/><path class="a7f8dd25-af4b-434e-a1ec-e65e232079e1" d="M284.71,466.83c0,5.11-11.12,21.07-15.61,21.07C272.74,480.62,274.28,466.83,284.71,466.83Z"/><path class="ef738b17-52bf-40d0-8b14-9c2e7dcea2cc" d="M256.61,8.71l-.78,1.56c2,1,1.56.2,1.56,2.34l2.35.78c-1.21,2.42.78,4.25.78,7-1.74-3.47-6.39-6.87-10.15-7.81L248.81,15a54.52,54.52,0,0,0,8.58,7C243.47,28.94,230.47-4.36,256.61,8.71Z"/><path class="bc602502-0203-49be-9d40-8e0bf322ffe3" d="M204.33,13.39V15c2.88,0,1-.1,5.46.78v1.56c3.09,0,6.3,2.36,9.36,3.13V22c-11.35,0-19.8-.62-29.65-3.91,0-2.92.35-1.64-.78-3.9C193.23,9.66,198.75,12.46,204.33,13.39Z"/><path class="bfb98afe-db5d-45ea-a0b0-81f2775c556a" d="M262.86,17.29c3-5.92,10.94-15.66,5.46.78C294,5.26,242.41-13.37,262.86,17.29Z"/><path class="b200a5d8-58a6-4c02-975d-7be4639bca00" d="M343.24,11.83l-.78,1.56H344c0,11.47-24.72,8.79-29.65,7.81C323.87,16.44,332.41,11.83,343.24,11.83Z"/><path class="a7e3a5b8-12cc-4510-bfd1-9ab598f3c689" d="M248.81,466.83c5.41,0,3.58,1.79,7.8,3.9l-.78,1.56h1.56l-.78,1.56h1.57l-.79,1.56c2.77,1.39,3.4,8.86,6.25,11.71C257.33,485.54,248.81,473.44,248.81,466.83Z"/><path class="fecc2376-9a71-40a6-af21-e4cb64583c1c" d="M30.29,235c12.67-2,16.12,16.39.78,16.39C22.53,251.43,23.76,236.07,30.29,235Z"/><path class="a90cd173-d0fe-4f1b-9942-5a5fbec21614" d="M259,526.14c6.52,1.31,8.51,0,14.82,0,0,2.92-.34,1.64.78,3.9l-1.56.78c1.72,3.43-4.54,11.4-7.8,12.49C262.36,537.63,259,532.71,259,526.14Z"/><path class="a30c0f7e-55ba-4725-92d1-bda2f6d883d4" d="M509.48,249.86c2.2-2.11,21.9,10.13,15.61,12.49C516.51,265.57,502.41,256.65,509.48,249.86Z"/><path class="e08ddf02-2e21-436e-894d-33097c42730f" d="M25.6,231.13c0,2.15-.46,1.33,1.57,2.35C18.08,240.29,5,224.22,7.65,223.33,14.91,220.91,20.05,231.13,25.6,231.13Z"/><path class="bf680f42-b60c-46de-81e0-c0bb14f0cc77" d="M506.35,237.38l-.78,1.56h1.57l-.79,1.56h1.57c0,11.1-6.41,11.65-15.61,8.58C492.31,239.66,494,231.2,506.35,237.38Z"/><path class="b4c28b7f-80dc-4d09-8065-3ee6bfa55e13" d="M292.51,538.63l.79,1.56-1.57.78.78,1.56C287,540.7,281.94,516,291.73,516,296.75,516,295,536.16,292.51,538.63Z"/><path class="a937d259-4575-415c-ad6e-d11e9d4dcf04" d="M20.14,249.86c29.38,4.65-37,18.11-7,3.13C15.45,251.82,17.56,249.46,20.14,249.86Z"/><path class="f3388e65-6154-4b0c-a2c1-bd4a4b3ad722" d="M75.55,375.52c7.1-3.07,15.17,8.62,7,14C73.34,395.72,67.93,378.8,75.55,375.52Z"/><path class="fc8cd01a-4064-4871-a59d-8df6f24f8157" d="M522,223.33c20.21,2.89-35.49,20.2-7,3.12C517.13,225.14,519.46,223,522,223.33Z"/><path class="a51343dc-9899-48a1-a555-7db78569e481" d="M145,474.63l-.78,1.56h1.56C145.79,509.68,117.53,460.89,145,474.63Z"/><path class="b2ca1da9-3c65-4add-a261-1d615f5d3f31" d="M245.69,520.68c-1.16,2.32-2.38,16.27-1.56,18.73l-1.56.78.78,1.56-1.56.78.78,1.56H241C241,535.37,232.43,507.41,245.69,520.68Z"/><path class="e2d90c2b-88d2-42e4-b599-38ffa113d5b3" d="M267.54,485.56H265.2c0-8.78.13,1.94-.78-11.71-.35-5.2-1-10.4-.78-15.61.1-2.26,4.56-2.14,5.46-.78C273.48,464,265.3,478.82,267.54,485.56Z"/><path class="ebd6b7ef-e970-492e-a0d6-1aa70439298f" d="M291.73,479.31c0,6.26-13.55,8.42-18.73,10.15C279.12,483.35,283.1,479.31,291.73,479.31Z"/><path class="ed790d0c-523a-4e5e-874b-0726950b20ed" d="M461.09,385.66c-3,2-2,.67-3.12,3.9C438.75,389.56,449.31,362.11,461.09,385.66Z"/><path class="af16dea3-7425-4f17-9751-fbdf5ee701e9" d="M241.79,479.31c4.51,0,4.83.31,8.58,1.56v1.57h2.34V484c3.53,1.17,4.51,3.58,7.81,4.68C254.75,490.12,241.79,486.05,241.79,479.31Z"/><path class="a6e28e96-81fd-4035-b84c-99a86f50e3ad" d="M401.78,481.65l-1.56.79L401,484C377.58,495.7,390,458.05,401.78,481.65Z"/><path class="b9bd7b33-0048-4708-a1f2-ef8656b27893" d="M511.82,241.28c11.61,0,11.9-1,19.51,1.56l-.78,1.56h1.56c0,7.4-14.46,3.58-21.85,3.9C510.26,244.85,510.11,247.24,511.82,241.28Z"/><path class="baed028c-48da-44ee-9860-ff339f3508b5" d="M300.32,580c0,2.34,1.13,2.91,3.12,3.9l-.78,1.56h1.56l-.78,1.56H305l-.78,1.56h1.56l-.78,1.57h1.56C306.56,612,291,584.63,300.32,580Z"/><path class="a09a5050-7979-4b49-9398-724deca97636" d="M20.92,241.28c0,5.51-.49,3.2.78,7-5.72,0-11.46.46-17.17,0C3,248.18,2,246.64.63,246,6.84,238.2,8.14,241.28,20.92,241.28Z"/><path class="f206f235-ecbe-4f0c-bb1d-1cf5fdd615ac" d="M267.54,594l-.78,1.56h1.56c-1.15,2.3-1,1,0,3.9h1.56c0,4.64.92,3-1.56,5.46,1.26,2.52-.78,2.86-.78,5.47H265.2C265.2,606.47,259.63,594,267.54,594Z"/></g></g></g></svg>