<svg xmlns="http://www.w3.org/2000/svg" viewBox="0 0 110.53 112.69"><defs><style>.b5f9f147-ff38-4992-9cbd-fd8b8c52e921{fill:#d300ea;}.ae08a986-4c92-42ff-b5be-b166d863f566,.be475166-1ee0-46b7-81df-856d98ade548,.f1966ea0-3190-487f-9f11-826ab52d30bc{isolation:isolate;}.ae08a986-4c92-42ff-b5be-b166d863f566{opacity:0.5;}.ea6bde13-ad7c-4d5e-ad31-5e4889667504{fill:#ffccda;}.f1966ea0-3190-487f-9f11-826ab52d30bc{opacity:0.25;}.be475166-1ee0-46b7-81df-856d98ade548{fill:#fff;opacity:0.3;}</style></defs><g id="b790229d-d9aa-4a83-b6fb-b042f38c08da" data-name="Layer 2"><g id="a91f7b0e-ebde-482e-9d7a-f6538ff80caa" data-name="Layer 1"><g id="b61ff5cd-24ae-416c-a41a-fc17b6ba3fe5" data-name="ee70e3a2-e2eb-4a5c-90d1-998a8a5408e1"><g id="a04b8109-d941-4b59-8882-dd79ce87ca61" data-name="a71c4152-dcbe-4924-a5ed-70bfeda2fdc0"><g id="a8fb1d49-ff34-420b-b75f-1fa513e3d9d5" data-name="fc71f0ec-25cf-4c27-affd-f848b2be20a2"><path class="b5f9f147-ff38-4992-9cbd-fd8b8c52e921" d="M87.7,94.53c0,13.21-10.93,18.15-23.27,18.15-10.7-.36-18.84-11.07-19.29-21.24,0-6.88,2.81-14.08,4.15-20.41.78-3.65,4.56-4.86,8.9-4.86C73.68,65.85,87.82,78.83,87.7,94.53Z"/><path class="ae08a986-4c92-42ff-b5be-b166d863f566" d="M67.3,93.38c0,3.77,1.88,7.76,2.64,11.11-8.73-16.82-21.84-13.55-17.69,2.56-11-10.49-6.25-23.58-3-36,.78-3.64,4.56-4.86,8.9-4.86C72.65,66,86,77,87.54,91.52,82.12,86.13,67.28,81.69,67.3,93.38Z"/><path class="ae08a986-4c92-42ff-b5be-b166d863f566" d="M86.26,85.74c-4.9-2-11-5.89-15.5-4.1-6.7,1.39-5.63,5.46-6.52,11a1.87,1.87,0,0,0-.4-.13C59.63,79.71,45.3,81.88,45.66,95.49,43.77,87.38,47.77,78.6,49.27,71c.78-3.64,4.57-4.86,8.91-4.86A29.61,29.61,0,0,1,86.26,85.74Z"/><path class="b5f9f147-ff38-4992-9cbd-fd8b8c52e921" d="M58.19,66.15h-.84c29.14-1.32,43.12,47,6.67,46.51C102.62,114,88.83,64.94,58.19,66.15Z"/><path class="b5f9f147-ff38-4992-9cbd-fd8b8c52e921" d="M110.53,49.05c-.94,25.36-48.06,33-48.72,1.44C60.59,20.31,110.41,14,110.53,49.05Z"/><path class="ae08a986-4c92-42ff-b5be-b166d863f566" d="M95.23,69C63.05,82.49,47.43,39.5,78.4,26.63,71.08,39.37,88,45.36,100.47,45.54c-5.68,3-19.07,2.76-19.07,11.94C81.37,64.22,87.8,67.47,95.23,69Z"/><path class="ae08a986-4c92-42ff-b5be-b166d863f566" d="M85.8,71.34c-21.91,2.59-32.19-24.1-16.49-39.23-2.17,8.66,13.48,12.07,20.22,12.63C70.64,48.22,69.75,64.4,85.8,71.34Z"/><path class="b5f9f147-ff38-4992-9cbd-fd8b8c52e921" d="M87.47,25.07c-.44,0-.85,0-1.27,0,28.56,1,29.94,44.07-3.58,46.28C118.49,71.89,118.49,24.94,87.47,25.07Z"/><path class="b5f9f147-ff38-4992-9cbd-fd8b8c52e921" d="M70.06,26.89C68.77,65.81,31.13,53,31.47,21.63,34.68-12.59,70.51-2.4,70.06,26.89Z"/><path class="ae08a986-4c92-42ff-b5be-b166d863f566" d="M70.06,26.89c-1.59,39.91-40,25.3-38.56-6.48a8.43,8.43,0,0,0,7,4.66c8.05,0,9.27-13.85,10.11-18.81,1.23,7.21.16,15.41,10.59,15.41,2.54,0,6.38-3,8.6-6.91A32.11,32.11,0,0,1,70.06,26.89Z"/><path class="ae08a986-4c92-42ff-b5be-b166d863f566" d="M70.06,26.89c.19,31.16-30.14,31.57-37.32,4.18,8,6.7,17.6.93,17-9.74C50.62,34.75,64.4,34.89,70,24.94,70,25.58,70.06,26.23,70.06,26.89Z"/><path class="b5f9f147-ff38-4992-9cbd-fd8b8c52e921" d="M49.89.85c7.5,0,20,9.3,20.16,26.68-.32-33-36.37-38.18-38.56-5.46C31.76,7.92,42.43.85,49.89.85Z"/><path class="b5f9f147-ff38-4992-9cbd-fd8b8c52e921" d="M45,48.91C40.71,75.15-.62,61.57,0,39.77.94,14.08,44.49,29.58,45,48.91Z"/><path class="ae08a986-4c92-42ff-b5be-b166d863f566" d="M45,48.91c-1.81,16.73-22,17.15-33.06,9.72,5.68-5.37-1.58-15.81-3.58-20.35,4.9,1.95,8.2,7.14,14.08,7.14A15,15,0,0,0,35.68,33.88C40.45,37.58,44.59,42.65,45,48.91Z"/><path class="ae08a986-4c92-42ff-b5be-b166d863f566" d="M45,48.91C43.85,61.46,30.7,65.44,20.53,62.33c7.89-2.6,1.85-12.14-3.41-15.5,11.69,7.26,22,3.84,22.57-9.23A17.91,17.91,0,0,1,45,48.91Z"/><path class="b5f9f147-ff38-4992-9cbd-fd8b8c52e921" d="M14.25,27.53C31,27.53,44.35,40,44.93,49.36c3.49-15.43-44.28-38-44.9-9C.23,32.25,5,27.53,14.25,27.53Z"/><path class="b5f9f147-ff38-4992-9cbd-fd8b8c52e921" d="M50.11,79.46c-1.58,21-44.87,30.77-44.23,3.82C6,70.61,17.49,60,29.76,58.87,41.53,57.32,49.24,68.92,50.11,79.46Z"/><path class="ae08a986-4c92-42ff-b5be-b166d863f566" d="M50.11,79.46c-.26,8-7,13.53-13.63,16.8,5.06-14.12-13.37-21.39-20.62-9,2-3.94,8.09-9.53,8.09-14.57,0-5.84-6.79-7.37-11.3-5.33C27.51,52.32,47.8,57.5,50.11,79.46Z"/><path class="ae08a986-4c92-42ff-b5be-b166d863f566" d="M44.91,90.35c.58-11.48-8.08-15.85-16.33-11.84,5.89-6.72,2.31-17.79-8.35-16.81,9-5.28,22.67-3.27,26.67,7.34C51,75.75,51.36,85,44.91,90.35Z"/><path class="b5f9f147-ff38-4992-9cbd-fd8b8c52e921" d="M46.88,69.05a18,18,0,0,0-5.69-7.22c4.71,4.28,7.4,10.69,8.08,17C49.06,92.73,24,105.07,11,96.08c12.65,10.28,38.89-2.44,39.1-16.64A25.91,25.91,0,0,0,46.88,69.05Z"/><path class="ea6bde13-ad7c-4d5e-ad31-5e4889667504" d="M73.24,64.62c-7.48,26.05-46,11.68-34.55-12.91C48.65,32.23,78.5,43.4,73.24,64.62Z"/><path class="f1966ea0-3190-487f-9f11-826ab52d30bc" d="M70.43,70.75a18.63,18.63,0,0,1-28,2.9C31.63,64,37,44.83,51.1,42c-1.9,1.77-3,4.8-.55,6.36,2.37,0,6.3-2.36,6.66,1.85-1.39,1.26-4.54,3.16-4.54,6.26a3.2,3.2,0,0,0,4.53,2.93c1-1.67.7-3.31.61-5.25a2.73,2.73,0,0,1,2-.67,7,7,0,0,0,.85.78c.48,1.48-.11,2.54-.28,4.18a3.09,3.09,0,0,0,1.86,1.14,4,4,0,0,0,.73-3,2.47,2.47,0,0,1,1.85-.36c3.09,4.63-2.75,6.38-3.14,10.46A2.64,2.64,0,0,0,64,69.64a1.67,1.67,0,0,0,.32,0c7.31,0-.32-13.11,9.44-11A18.55,18.55,0,0,1,70.43,70.75Z"/><path class="f1966ea0-3190-487f-9f11-826ab52d30bc" d="M70.43,70.75C55.4,91.17,25.2,68.1,41,48.24c-.28,1.59,1.58,2.59,3,2.49a8.17,8.17,0,0,0,1.43-1.11c2.21-.21,3.38,1,3.39,3.37a7.91,7.91,0,0,1-2.24.71c-1.76,2.26-3.53,7.83.67,8.39a3.55,3.55,0,0,0,1.12-2.65c1-.76,1.87-.5,2.86.56.07,1.83-2.88,6.1,1,6.18a8.74,8.74,0,0,0,1.52-2.71A2.23,2.23,0,0,1,57,65.68c-.25,2.31-4,8.1,1.53,7.27.19-.16.39-.33.59-.52a16.58,16.58,0,0,0-.29-5.61,5.91,5.91,0,0,0,.94.25c.72,1.73.29,3.53.3,5.35a3.92,3.92,0,0,0,2.71.88C64.4,72.06,68.87,68,70.43,70.75Z"/><path class="f1966ea0-3190-487f-9f11-826ab52d30bc" d="M61.86,77.41C47,83.68,31.13,66.73,38.39,52.29a5.75,5.75,0,0,0,.44,1.77,10.16,10.16,0,0,0,1.56.13c.13-.22.26-.44.41-.66a9.22,9.22,0,0,0,1,1.21q.07.75.09,1.5c-3.09,2.09-4.15,8.44.58,9.67l.34-.33c0-.35.07-.71.11-1.07-.11-.15-.23-.31-.34-.44,5.3-.67-1.95,8.79,5.3,8.09l.44-.34a3,3,0,0,0-.2-1.76,4.32,4.32,0,0,1,1.77-.4c1.24,1.43,1,3.09.88,4.93a3.27,3.27,0,0,0,2.61.9c1.65-1.9,3.78.59,5.29,1.51A30.14,30.14,0,0,1,61.86,77.41Z"/><path class="f1966ea0-3190-487f-9f11-826ab52d30bc" d="M73.24,64.62c-7.51,26.07-46,11.67-34.55-12.91,5,10.29,21.49,13.47,35,6.43A18.37,18.37,0,0,1,73.24,64.62Z"/><path class="f1966ea0-3190-487f-9f11-826ab52d30bc" d="M73.24,64.62c-4.35,18-30.39,18.65-35.72,1C47.71,74.36,62.58,70.58,73.24,64.62Z"/><path class="be475166-1ee0-46b7-81df-856d98ade548" d="M61.61,9.89c-1.07-4-7.21-8-9.8-3.2C48.89,13.45,64.87,20.67,61.61,9.89Z"/><path class="be475166-1ee0-46b7-81df-856d98ade548" d="M43.18,8.69c-4.56-3.39-8.24,3.92-7.38,7.84C39.22,23.58,47.38,12.8,43.18,8.69Z"/><path class="be475166-1ee0-46b7-81df-856d98ade548" d="M9,46.75c-.22-2.26-1.27-5.25-3.56-6.11C1.68,39.87,1.33,45,3,47.24,4.06,49.92,8.88,50.17,9,46.75Z"/><path class="be475166-1ee0-46b7-81df-856d98ade548" d="M23.37,33.81c-1.56-4.35-8.35-6.88-12.19-4.05C4.49,37.34,24.9,44.43,23.37,33.81Z"/><path class="be475166-1ee0-46b7-81df-856d98ade548" d="M18,74.9c-1.18-3.68-6.3-2.42-6.79,1-.73,2.18-2.65,5-.54,7C15.21,86,19.37,78.93,18,74.9Z"/><path class="be475166-1ee0-46b7-81df-856d98ade548" d="M27.19,87.8c-4.05-2.75-11.33,2.56-7.28,6.81C24.4,98.73,33.36,92.4,27.19,87.8Z"/><path class="be475166-1ee0-46b7-81df-856d98ade548" d="M95.77,35.94c-1.46-6.07-16.09-8.06-13.12.6C85.13,40.61,96.51,43.17,95.77,35.94Z"/><path class="be475166-1ee0-46b7-81df-856d98ade548" d="M101.33,52.26c-4.81-5.32-14.1,3.36-11.27,9.1C95.53,67.43,104.72,58.85,101.33,52.26Z"/><path class="be475166-1ee0-46b7-81df-856d98ade548" d="M80.38,95.74c-1.26-6.18-10.91-5.56-9.77,1.16C68.61,107.77,83.88,106.14,80.38,95.74Z"/><path class="be475166-1ee0-46b7-81df-856d98ade548" d="M63.76,104.15c-1.21-5.26-9.88-5.38-8.9.78C56.07,109.33,65,110,63.76,104.15Z"/><path class="be475166-1ee0-46b7-81df-856d98ade548" d="M67,49.88A6.21,6.21,0,0,0,64.82,47c-1.09-.75-3.45-1.64-4,.13h0a5.38,5.38,0,0,0,1.76,6.18A3,3,0,0,0,67,49.88Z"/><path class="be475166-1ee0-46b7-81df-856d98ade548" d="M57.84,45.09a1.3,1.3,0,1,0-2.47.78C55.82,47.62,58.28,46.76,57.84,45.09Z"/><path class="be475166-1ee0-46b7-81df-856d98ade548" d="M42.44,61a.88.88,0,0,0,0,1.76A.88.88,0,0,0,42.44,61Z"/><path class="be475166-1ee0-46b7-81df-856d98ade548" d="M46.65,52.6a.75.75,0,1,0-1.44.39A.75.75,0,0,0,46.65,52.6Z"/><path class="be475166-1ee0-46b7-81df-856d98ade548" d="M50.38,57.27a.37.37,0,0,0-.37.37.38.38,0,0,0,.37.37.37.37,0,0,0,.37-.37A.36.36,0,0,0,50.38,57.27Z"/><path class="be475166-1ee0-46b7-81df-856d98ade548" d="M46.51,62.41a.46.46,0,0,0-.45.46.45.45,0,0,0,.45.45.46.46,0,0,0,.46-.45A.47.47,0,0,0,46.51,62.41Z"/><path class="be475166-1ee0-46b7-81df-856d98ade548" d="M41.28,57.12a.53.53,0,0,0-.38.64.51.51,0,0,0,.38.38.52.52,0,0,0,.39-.63A.55.55,0,0,0,41.28,57.12Z"/><path class="be475166-1ee0-46b7-81df-856d98ade548" d="M46.12,68.92a.73.73,0,0,0-.65.81.66.66,0,1,0,1.31-.16A.73.73,0,0,0,46.12,68.92Z"/><path class="be475166-1ee0-46b7-81df-856d98ade548" d="M54.9,67.25c-.37-1-1.8-.12-1.43.7S55.28,68.05,54.9,67.25Z"/><path class="be475166-1ee0-46b7-81df-856d98ade548" d="M54.83,73.8c0-1-1.15-1-1.14,0C53.47,75,55.1,75,54.83,73.8Z"/><path class="be475166-1ee0-46b7-81df-856d98ade548" d="M57,65.49a.47.47,0,0,0-.48.48.48.48,0,0,0,.48.48.48.48,0,0,0,0-1Z"/><path class="be475166-1ee0-46b7-81df-856d98ade548" d="M61.81,71.59a.26.26,0,0,0-.32,0l-.07,0h0c-.78.33.08,1.2.42.44h0a.33.33,0,0,0,0-.4Z"/><path class="be475166-1ee0-46b7-81df-856d98ade548" d="M62.21,64.41a.59.59,0,0,0-.54.64.6.6,0,0,0,.54.54.59.59,0,0,0,.53-.64A.58.58,0,0,0,62.21,64.41Z"/><path class="be475166-1ee0-46b7-81df-856d98ade548" d="M68.21,67.39a.13.13,0,0,0-.1.16.13.13,0,0,0,.1.1.13.13,0,0,0,0-.26Z"/><path class="be475166-1ee0-46b7-81df-856d98ade548" d="M70.73,63a.42.42,0,0,0-.36.45.4.4,0,0,0,.36.36.4.4,0,0,0,.36-.44A.41.41,0,0,0,70.73,63Z"/><path class="be475166-1ee0-46b7-81df-856d98ade548" d="M71.59,43.59c0-.88-.89-.88-.94,0C70.52,44.32,71.75,44.33,71.59,43.59Z"/><path class="be475166-1ee0-46b7-81df-856d98ade548" d="M70.7,38.27c-.48-.66-1.59.17-1,.8S71,38.89,70.7,38.27Z"/><path class="be475166-1ee0-46b7-81df-856d98ade548" d="M77.74,43.58c-.07-1-1.16-.94-1.24,0S77.93,44.53,77.74,43.58Z"/><path class="be475166-1ee0-46b7-81df-856d98ade548" d="M76.93,35a.53.53,0,0,0-.53.53.53.53,0,0,0,1.06,0A.53.53,0,0,0,76.93,35Z"/><path class="be475166-1ee0-46b7-81df-856d98ade548" d="M82,40.17a.45.45,0,0,0-.31.55A.45.45,0,0,0,82,41a.45.45,0,0,0,.3-.55A.5.5,0,0,0,82,40.17Z"/><path class="be475166-1ee0-46b7-81df-856d98ade548" d="M85.26,44.32a.33.33,0,0,0-.33.33.33.33,0,0,0,.33.33.32.32,0,0,0,.33-.33A.33.33,0,0,0,85.26,44.32Z"/><path class="be475166-1ee0-46b7-81df-856d98ade548" d="M80.12,49.8c-.52-.33-1.32.44-.71.88S80.83,50.24,80.12,49.8Z"/><path class="be475166-1ee0-46b7-81df-856d98ade548" d="M77.9,53.36a.4.4,0,0,0-.31.48.4.4,0,0,0,.31.31.41.41,0,0,0,.31-.48A.42.42,0,0,0,77.9,53.36Z"/><path class="be475166-1ee0-46b7-81df-856d98ade548" d="M78.69,62.06v0Z"/><path class="be475166-1ee0-46b7-81df-856d98ade548" d="M78.58,62.22a.6.6,0,0,0,.09-.15h0a.53.53,0,0,0-.11-.75.54.54,0,0,0-.46-.09.61.61,0,0,0-.24.15h0a.31.31,0,0,0-.09.11h0a.76.76,0,0,0-.06.47h0l.06.14h0a.57.57,0,0,0,.44.26.56.56,0,0,0,.37-.15h0s.09-.09.08-.14A1.09,1.09,0,0,1,78.58,62.22Z"/><path class="be475166-1ee0-46b7-81df-856d98ade548" d="M85.32,64.89l0-.11h0c0-.07-.11-.12-.17-.16h0a.46.46,0,0,0-.48,0h0a.68.68,0,0,0-.29.24h0c-.44.67.54,1.16.91.5h0v0l0,0h0A.61.61,0,0,0,85.32,64.89Z"/><path class="be475166-1ee0-46b7-81df-856d98ade548" d="M89.33,63.94a.49.49,0,0,0-.41.54.48.48,0,0,0,.41.41.48.48,0,0,0,0-1Z"/><path class="be475166-1ee0-46b7-81df-856d98ade548" d="M85.07,54.67a.44.44,0,0,0-.44.44.43.43,0,0,0,.44.44.44.44,0,0,0,.44-.44A.44.44,0,0,0,85.07,54.67Z"/><path class="be475166-1ee0-46b7-81df-856d98ade548" d="M90.3,50.33a.36.36,0,1,0,.36.35A.36.36,0,0,0,90.3,50.33Z"/><path class="be475166-1ee0-46b7-81df-856d98ade548" d="M37,26.75a.08.08,0,0,0-.06.1.09.09,0,0,0,.06.06.09.09,0,0,0,.06-.1A.09.09,0,0,0,37,26.75Z"/><path class="be475166-1ee0-46b7-81df-856d98ade548" d="M40.55,20.87c-.44-1.4-2,.12-.58.55a.46.46,0,0,0,.58-.31.49.49,0,0,0,0-.24Z"/><path class="be475166-1ee0-46b7-81df-856d98ade548" d="M46.12,27.52a.67.67,0,0,0,0,1.33.67.67,0,0,0,0-1.33Z"/><path class="be475166-1ee0-46b7-81df-856d98ade548" d="M39,30.57a.52.52,0,1,0,.52.52A.52.52,0,0,0,39,30.57Z"/><path class="be475166-1ee0-46b7-81df-856d98ade548" d="M45.73,37a.52.52,0,0,0-.38.63.54.54,0,0,0,.38.39.53.53,0,0,0,.38-.64A.49.49,0,0,0,45.73,37Z"/><path class="be475166-1ee0-46b7-81df-856d98ade548" d="M51.88,37.85c-.44-.82-1.42-.09-1.05.65a.56.56,0,0,0,.77.18.59.59,0,0,0,.27-.47C51.88,38.09,51.88,38,51.88,37.85Z"/><path class="be475166-1ee0-46b7-81df-856d98ade548" d="M52.54,29.87a.45.45,0,1,0,.44.45A.45.45,0,0,0,52.54,29.87Z"/><path class="be475166-1ee0-46b7-81df-856d98ade548" d="M56.39,38a.52.52,0,0,0,0,1,.53.53,0,0,0,.4-.63A.52.52,0,0,0,56.39,38Z"/><path class="be475166-1ee0-46b7-81df-856d98ade548" d="M57.47,26.33a.52.52,0,1,0-.95.39C57,27.66,57.92,27.34,57.47,26.33Z"/><path class="be475166-1ee0-46b7-81df-856d98ade548" d="M62.12,30.5c-.24-.59-1-.29-1.15.21-.19,1.07,1.51.67,1.16-.21Z"/><path class="be475166-1ee0-46b7-81df-856d98ade548" d="M63.16,23.05c-.15-.49-1.12-.37-.95.21S63.31,23.59,63.16,23.05Z"/><path class="be475166-1ee0-46b7-81df-856d98ade548" d="M66.47,23.69a.24.24,0,0,0-.15.3.28.28,0,0,0,.15.15.24.24,0,0,0,.14-.3A.26.26,0,0,0,66.47,23.69Z"/><path class="be475166-1ee0-46b7-81df-856d98ade548" d="M63.76,35a.52.52,0,0,0-.39.64.55.55,0,0,0,.39.38.53.53,0,0,0,.38-.64A.54.54,0,0,0,63.76,35Z"/><path class="be475166-1ee0-46b7-81df-856d98ade548" d="M18.68,54.15A.49.49,0,0,0,18,53.9a.45.45,0,0,0-.23.2,1.05,1.05,0,0,0,0,.78C18.28,55.62,18.87,54.74,18.68,54.15Z"/><path class="be475166-1ee0-46b7-81df-856d98ade548" d="M17,46.89c-.44-.39-.88.24-.59.65S17.32,47.26,17,46.89Z"/><path class="be475166-1ee0-46b7-81df-856d98ade548" d="M28.88,51.92a.49.49,0,0,0,0,1h0a.49.49,0,0,0,0-1Z"/><path class="be475166-1ee0-46b7-81df-856d98ade548" d="M27.33,58.65c-.37-1-1.62-.09-1.16.68a.67.67,0,0,0,1.16-.68Z"/><path class="be475166-1ee0-46b7-81df-856d98ade548" d="M34.31,54a.52.52,0,0,0-.39.63.55.55,0,0,0,.39.39.53.53,0,0,0,.38-.64A.51.51,0,0,0,34.31,54Z"/><path class="be475166-1ee0-46b7-81df-856d98ade548" d="M31.6,49a.52.52,0,0,0-.52.52.52.52,0,0,0,.52.52.52.52,0,0,0,.52-.52A.53.53,0,0,0,31.6,49Z"/><path class="be475166-1ee0-46b7-81df-856d98ade548" d="M28.49,43.08a.41.41,0,0,0-.41.41.41.41,0,0,0,.41.42.42.42,0,0,0,.42-.42A.41.41,0,0,0,28.49,43.08Z"/><path class="be475166-1ee0-46b7-81df-856d98ade548" d="M37.79,48.89a.44.44,0,0,0-.27.56.45.45,0,0,0,.27.27.42.42,0,0,0,.38-.46A.42.42,0,0,0,37.79,48.89Z"/><path class="be475166-1ee0-46b7-81df-856d98ade548" d="M37.87,44.15c-.16-.6-1.25-.39-1.08.25S38.05,44.8,37.87,44.15Z"/><path class="be475166-1ee0-46b7-81df-856d98ade548" d="M33.92,40.27a.52.52,0,0,0-.52.52.52.52,0,1,0,1,0A.52.52,0,0,0,33.92,40.27Z"/><path class="be475166-1ee0-46b7-81df-856d98ade548" d="M36.05,38.28a.37.37,0,1,0,0,.74h0a.37.37,0,1,0,0-.74Z"/><path class="be475166-1ee0-46b7-81df-856d98ade548" d="M16.83,69.55a.36.36,0,0,0-.48-.2.38.38,0,0,0-.23.4.38.38,0,0,0,.48.2A.38.38,0,0,0,16.83,69.55Z"/><path class="be475166-1ee0-46b7-81df-856d98ade548" d="M26.12,73.49c-.32-.8-1.53-.08-1.22.61S26.46,74.16,26.12,73.49Z"/><path class="be475166-1ee0-46b7-81df-856d98ade548" d="M30.24,69.26a.58.58,0,0,0-.53.63.6.6,0,0,0,.53.53.58.58,0,0,0,0-1.16Z"/><path class="be475166-1ee0-46b7-81df-856d98ade548" d="M23.7,65.57c-.24-.6-1.36-.19-1.37.37C22.36,66.92,24,66.32,23.7,65.57Z"/><path class="be475166-1ee0-46b7-81df-856d98ade548" d="M30.43,63a.6.6,0,0,0-.55.65.56.56,0,1,0,1.11-.1A.6.6,0,0,0,30.43,63Z"/><path class="be475166-1ee0-46b7-81df-856d98ade548" d="M35.16,70.35c-.16-.83-1.14-1-1.28-.1C33.94,71.19,35.32,71.58,35.16,70.35Z"/><path class="be475166-1ee0-46b7-81df-856d98ade548" d="M37.21,73.78a.52.52,0,0,0-.52.52.52.52,0,0,0,1,0,.52.52,0,0,0-.52-.52Z"/><path class="be475166-1ee0-46b7-81df-856d98ade548" d="M28.1,77.25a.53.53,0,0,0-.52.54.53.53,0,0,0,1.05,0A.53.53,0,0,0,28.1,77.25Z"/><path class="be475166-1ee0-46b7-81df-856d98ade548" d="M34.7,82.36a.67.67,0,1,0,.66.66A.67.67,0,0,0,34.7,82.36Z"/><path class="be475166-1ee0-46b7-81df-856d98ade548" d="M37.62,88a.47.47,0,0,0-.37-.38l-.29,0h0c-1.3.44.32,2,.69.69h0A.37.37,0,0,0,37.62,88Z"/><path class="be475166-1ee0-46b7-81df-856d98ade548" d="M39.34,79.58a.14.14,0,0,0-.14.14.15.15,0,0,0,.14.15.15.15,0,0,0,.15-.15A.15.15,0,0,0,39.34,79.58Z"/><path class="be475166-1ee0-46b7-81df-856d98ade548" d="M42.64,84.86a.29.29,0,1,0,.29.29.29.29,0,0,0-.29-.29Z"/><path class="be475166-1ee0-46b7-81df-856d98ade548" d="M44.38,80.15a.35.35,0,1,0,.35.35A.35.35,0,0,0,44.38,80.15Z"/><path class="be475166-1ee0-46b7-81df-856d98ade548" d="M51,90.43a.53.53,0,0,0-.53.53.53.53,0,1,0,1.06,0A.54.54,0,0,0,51,90.43Z"/><path class="be475166-1ee0-46b7-81df-856d98ade548" d="M52.71,84.62a.54.54,0,0,0-.48.58.54.54,0,0,0,.48.48.53.53,0,0,0,0-1.06Z"/><path class="be475166-1ee0-46b7-81df-856d98ade548" d="M58.48,90.35c-.51-.92-1.57.09-.94.8C58.08,91.65,58.74,90.94,58.48,90.35Z"/><path class="be475166-1ee0-46b7-81df-856d98ade548" d="M59.88,81.67a.55.55,0,0,0-.5.6.51.51,0,1,0,1-.1A.54.54,0,0,0,59.88,81.67Z"/><path class="be475166-1ee0-46b7-81df-856d98ade548" d="M64.73,86a.56.56,0,1,0,.55.56A.56.56,0,0,0,64.73,86Z"/><path class="be475166-1ee0-46b7-81df-856d98ade548" d="M67.19,79.19c-.19-.67-1.41-.44-1.21.28S67.4,79.9,67.19,79.19Z"/><path class="be475166-1ee0-46b7-81df-856d98ade548" d="M72.28,83a.41.41,0,0,0-.36.45.37.37,0,1,0,.36-.45Z"/><path class="be475166-1ee0-46b7-81df-856d98ade548" d="M72.84,77.7a.27.27,0,0,0,0,.53.27.27,0,1,0,0-.53Z"/><path class="be475166-1ee0-46b7-81df-856d98ade548" d="M76.16,82.33a.3.3,0,0,0-.31.3.31.31,0,1,0,.61,0,.3.3,0,0,0-.3-.3Z"/><path class="be475166-1ee0-46b7-81df-856d98ade548" d="M78.86,81.09a.57.57,0,0,0-.5.64.57.57,0,0,0,.5.5.57.57,0,0,0,.5-.64A.57.57,0,0,0,78.86,81.09Z"/><path class="be475166-1ee0-46b7-81df-856d98ade548" d="M72.84,73.12a.6.6,0,1,0,.53.53A.6.6,0,0,0,72.84,73.12Z"/></g></g></g></g></g></svg>