<svg xmlns="http://www.w3.org/2000/svg" xmlns:xlink="http://www.w3.org/1999/xlink" viewBox="0 0 61.78 48.49"><defs><style>.b9c976e4-c77a-4731-8b5c-f0dd86ebb369{fill:#3d2229;stroke:#3d2229;}.a0aaffb3-5d29-4843-83e1-ac548ad8f029,.a46fe0ec-5e7f-485e-87d9-b463c03d51f1,.a6c83885-d487-46f9-b207-ca458b8d7786,.ab0d1d2b-0e80-4a8f-a739-5429cbc4b550,.ac7127eb-0535-4d9e-8bf4-785e52e3f1a0,.b462c830-ea0d-43f0-aa24-40e43a8139d4,.b489ca85-b640-41a0-84aa-2d8da3a0199a,.b5e8c85b-b6d9-4957-bb16-3e2aafb2a798,.b8a051f2-fcf6-40bc-9633-91862b624e4c,.b9c976e4-c77a-4731-8b5c-f0dd86ebb369,.bff9ab4a-cd10-47ad-b69f-c70672292a6a,.e1d7b597-9942-48c4-97bc-f9adcbed9217,.e9c3ae53-df7c-4864-be5a-6c7d7913572b,.f273dadc-7dff-4a9b-968b-f2d6282b973d,.f73634f5-448c-45ad-a7aa-f6ea11be7b43,.f7a8ad35-da0d-420b-a7e5-f8ccdbe0000c,.fe4c4f65-02dc-4374-8f08-d0e1d6a68e2e,.ff35e4d1-212f-4fe1-95b7-08999a62e6ee{stroke-linecap:round;stroke-linejoin:round;stroke-width:0.84px;}.f73634f5-448c-45ad-a7aa-f6ea11be7b43{stroke:#b78c2b;fill:url(#a8f0001e-a205-4df7-87a6-6ed8324cf9ce);}.b1408c51-1ea9-45ba-be7f-31e10aff84f3{fill:url(#a79cef41-b1a0-43ce-9c71-c7131434536e);}.e282f86f-dfbc-47a7-8e95-1895fead7d3f{fill:url(#b0e511c7-799e-4846-a062-8613e0b4dcea);}.fe4c4f65-02dc-4374-8f08-d0e1d6a68e2e{fill:#fcfaf7;stroke:#fcfaf7;}.bff9ab4a-cd10-47ad-b69f-c70672292a6a{fill:#fcdaca;stroke:#fcdaca;}.b462c830-ea0d-43f0-aa24-40e43a8139d4{stroke:#f04c03;}.b8a051f2-fcf6-40bc-9633-91862b624e4c{fill:#f1f0f1;stroke:#f1f0f1;}.e1d7b597-9942-48c4-97bc-f9adcbed9217{fill:#e6e3e5;stroke:#e6e3e5;}.f7a8ad35-da0d-420b-a7e5-f8ccdbe0000c{fill:#ea1803;stroke:#ea1803;}.e9c3ae53-df7c-4864-be5a-6c7d7913572b{fill:#f5f5f5;stroke:#f5f5f5;}.b489ca85-b640-41a0-84aa-2d8da3a0199a{fill:#c4c2c4;stroke:#c4c2c4;}.ab0d1d2b-0e80-4a8f-a739-5429cbc4b550{fill:#dfe0e0;stroke:#dfe0e0;}.ac7127eb-0535-4d9e-8bf4-785e52e3f1a0{fill:#dfdedf;stroke:#dfdedf;}.a6c83885-d487-46f9-b207-ca458b8d7786{fill:#fcc145;stroke:#fcc145;}.a46fe0ec-5e7f-485e-87d9-b463c03d51f1{fill:#e6e4e5;stroke:#e6e4e5;}.f273dadc-7dff-4a9b-968b-f2d6282b973d{fill:#e4e5e5;stroke:#e4e5e5;}.a0aaffb3-5d29-4843-83e1-ac548ad8f029{fill:#dad8d9;stroke:#dad8d9;}.ff35e4d1-212f-4fe1-95b7-08999a62e6ee{fill:#f5bc42;stroke:#f5bc42;}.b5e8c85b-b6d9-4957-bb16-3e2aafb2a798{stroke:#975aba;}</style><linearGradient id="a8f0001e-a205-4df7-87a6-6ed8324cf9ce" x1="-670.13" y1="408.14" x2="-603.39" y2="408.14" gradientTransform="matrix(0.84, 0, 0, -0.84, 568.19, 371.46)" gradientUnits="userSpaceOnUse"><stop offset="0" stop-color="#fedf1a"/><stop offset="0.08" stop-color="#fba658"/><stop offset="0.17" stop-color="#f6789c"/><stop offset="0.26" stop-color="#c86bd5"/><stop offset="0.36" stop-color="#9c88db"/><stop offset="0.46" stop-color="#ae9ee2"/><stop offset="0.56" stop-color="#5caee4"/><stop offset="0.65" stop-color="#19d2e3"/><stop offset="0.75" stop-color="#18ddd4"/><stop offset="0.76" stop-color="#2de4ba"/><stop offset="0.89" stop-color="#80efd5"/><stop offset="0.92" stop-color="#62fc6c"/><stop offset="1" stop-color="#62fc6c"/></linearGradient><linearGradient id="a79cef41-b1a0-43ce-9c71-c7131434536e" x1="-674.95" y1="453.5" x2="-608.3" y2="453.5" gradientTransform="matrix(0.84, 0, 0, -0.84, 573.63, 405.73)" xlink:href="#a8f0001e-a205-4df7-87a6-6ed8324cf9ce"/><linearGradient id="b0e511c7-799e-4846-a062-8613e0b4dcea" x1="-669.68" y1="433.77" x2="-611.42" y2="433.77" gradientTransform="matrix(0.84, 0, 0, -0.84, 572, 400.29)" gradientUnits="userSpaceOnUse"><stop offset="0" stop-color="#fedf1a"/><stop offset="0.15" stop-color="#fba658"/><stop offset="0.23" stop-color="#f6789c"/><stop offset="0.29" stop-color="#c86bd5"/><stop offset="0.39" stop-color="#9c88db"/><stop offset="0.49" stop-color="#ae9ee2"/><stop offset="0.56" stop-color="#5caee4"/><stop offset="0.65" stop-color="#19d2e3"/><stop offset="0.75" stop-color="#18ddd4"/><stop offset="0.84" stop-color="#2de4ba"/><stop offset="0.89" stop-color="#80efd5"/><stop offset="0.95" stop-color="#62fc6c"/><stop offset="1" stop-color="#62fc6c"/></linearGradient></defs><g id="f5a6cab4-5f7a-4524-b7bb-b83e8547dc80" data-name="Layer 2"><g id="a5fd2122-ad75-4bcf-88bc-483f47fd7140" data-name="Layer 1"><g id="a3356217-5f87-4d57-be2d-52a8147ce840" data-name="Layer 1"><path class="b9c976e4-c77a-4731-8b5c-f0dd86ebb369" d="M32,.42h-.11a55.43,55.43,0,0,0-8.36,6.79.41.41,0,0,1-.11.07.55.55,0,0,1-.2.2V7.43a1.15,1.15,0,0,1-.71,0,10.73,10.73,0,0,0-2.44.9L19,8.86a11.71,11.71,0,0,1-1.15.42A28.93,28.93,0,0,0,3.75,19.1c-.25.35-.49.7-.71,1.06-.11.2-.22.4-.31.59a2.55,2.55,0,0,0-.16,1.06l-.12-.23a2.61,2.61,0,0,0-.2.3A29.3,29.3,0,0,0,.42,31.69,40.53,40.53,0,0,0,1,36.5a41.51,41.51,0,0,0,2.16,6.21c.36.53.69,1,1.11,1.64.73,1,1.45,2,2.2,2.9.34.41.43.5.6.69.34.05.66.09,1.14.13,0-.29,0-.56,0-.84-.13-.49-.26-1-.3-1.16s-.21-.8-.27-1a14,14,0,0,1-.33-1.55,4.63,4.63,0,0,1,.33-3.07,1,1,0,0,1,.51-.4,2.18,2.18,0,0,1,.42-.24v0a.84.84,0,0,1,.47-.47l.12-.06a.86.86,0,0,1,.23-.05,4.72,4.72,0,0,1,1.86.23c.72.2,1,.23,1.21.16a.5.5,0,0,1,.12,0,.11.11,0,0,0,0-.05l0-.11a3.29,3.29,0,0,1,1.07-1.45,3,3,0,0,1,1.71-.58,6.37,6.37,0,0,1,1.36.1h.08a3,3,0,0,0,1,.07h0a2,2,0,0,0,.23-.2l.09-.09a3.74,3.74,0,0,1,.58-.47,2.45,2.45,0,0,1,1.1-.38l.35,0c.3,0,.56,0,.81-.05a4.1,4.1,0,0,1,1.75.25,4.69,4.69,0,0,1,.77.45l.79.54.4.26c.22.13.37.2.52.28s0,0,0,0a2.78,2.78,0,0,0,.31-.47,1.23,1.23,0,0,0,0-.18,2.47,2.47,0,0,1,.09-.46,1.17,1.17,0,0,1,.09-.24.88.88,0,0,1,.18-.28A1.4,1.4,0,0,1,27.58,36l.13,0,.12.06.23.13.58.31.26.13.41.18.05,0a7.5,7.5,0,0,0,3-.8h0l.55-.31c.2-.11.37-.19.53-.26a1.92,1.92,0,0,1,1-.15,2.52,2.52,0,0,1,1.34.65,6,6,0,0,1,.66.74l0,0a3.14,3.14,0,0,0,.31.36,7.82,7.82,0,0,0,1.39-.31l.8-.27c1-.33,1.13-.37,1.5-.47l.31-.14.36-.14a1.69,1.69,0,0,1,.87-.09,1.82,1.82,0,0,1,1,.58,3.46,3.46,0,0,1,.36.49l.09.14a6,6,0,0,0,.91.44l.14.06c.43.19.68.3.94.43h0l.3,0H46a3,3,0,0,1,1.66.4,1.54,1.54,0,0,1,.59.66,2.34,2.34,0,0,1,.09.24l.36.21a3.86,3.86,0,0,0,.59.27,4.14,4.14,0,0,0,.9.15,4.27,4.27,0,0,1,2.33.74,2.27,2.27,0,0,1,.88,1.2,3.29,3.29,0,0,1,.16,1h0a2,2,0,0,0,.07.45l.19.2c.18.18.41.39.66.6s.49.4.69.54l.23.15,0,0-.11,0a1.19,1.19,0,0,1,.87,1.21l.6-.1c.38-.53.71-1,1.24-1.74l.18-.24C59.05,42.64,59.51,42,60,41.3c1.56-3.53,1.4-8.17,1.4-12,0-1.31-1.42-4.6-.88-5.61a1,1,0,0,1-.37-1.15c-.34-.31-.29-.12-.12-.57h-.25c-.17-.46-.42-.79-.25-1.26h-.25l.12-.23-.25-.11.13-.23H59l.12-.23h-.25l-.24-.69h-.25v-.68H58l.25-.12c-.38-.35-.19-.13-.5-.69l-.37.12v-.35c-.37.17-.22,0-.37.46a.73.73,0,0,1,.37-.91.86.86,0,0,0-.07-.1,35.59,35.59,0,0,0-8-5.69L48,10.54A21.46,21.46,0,0,0,45.23,9.2a14.18,14.18,0,0,0-2-.54L43,8.6A18.21,18.21,0,0,1,40.88,8a2.89,2.89,0,0,1-1.35-1.3c-.08-.12-.17-.27-.25-.41l-.09,0,.06-.09-.2-.32c-.24-.43-.81-1.51-.84-1.57s-.13-.18-.19-.28A2.55,2.55,0,0,1,37,3.25c-.32-.21-.62-.4-1.05-.65l-.37-.22-1.73-.93L32.68.82Z"/><path class="f73634f5-448c-45ad-a7aa-f6ea11be7b43" d="M32.27,8.79c-2.26,0-4.34.09-4.45.3-7-.81-15.92,2.75-20.3,7.79C5.62,19.05,5,21.63,3.66,24.09H3.9c-.18.33-.12.15-.12.57l-.12-.22C2.3,27.55,2.91,31,2.91,34.17h.25c.15,1.52.74,3.07.74,4.58h.38c-.19.53-.15.23,0,.92h.5l-.13,1.49H4.9c-.4,1.11,2,3.27,2.49,4.23,0-3.14-2.13-5.69-.87-9.16H6.27c.66-11.57,19.79-11.81,28.15-11.57a51.33,51.33,0,0,1,7.84.81,21.5,21.5,0,0,1,10.47,5c.58.53,4,5,2.24,5,1.13,2.08.58,4.75,1.49,6.42.44-.2.22-.92.87-.92l-.12-.23c1.2-1.1,1.44-5.47,1.62-7h.25c-.34-1.54,0-3.48-.13-5-.15-2.31-1.24-4.43-1.24-6.53h-.25a3.73,3.73,0,0,1-.25-.92H57c-.14-.53-.12-.3-.12-.68-.34.62-.38,0-.38,1h.25c0,.43.06.24-.12.57-.89-.16-3.32-.08-2.49-1.6-.72-.66-2.31-.46-3.24-1-2.15-1.31-5.46-6.9-.13-5.26,0-1-1.9-2.29-3-2.29,0-.47-.59-.46-1-.46v-.23c-1.33-.41-2.56-1.15-4-1.15V10a21.27,21.27,0,0,0-5-.68V9.09A37.91,37.91,0,0,0,32.27,8.79Z"/><path class="b1408c51-1ea9-45ba-be7f-31e10aff84f3" d="M59.88,35.16h.25a1.6,1.6,0,0,0-.12-.8l.24-.12v.35l.13-1.26c-.13,0-.35,0-.37-.12-.7-3.5-.47-6.92-2.25-10.19.63-.58-1.2-.91-.74-2.18-.78,0-5.94-6-8.6-6.64V14c-2.3,0-5.11-1.67-7.47-2.06-7-1.17-14.73-1.4-21.55.68,0,.54-.13.46-.74.46l.12-.23C17.73,12.82,12.3,15,12.3,16h.25v.23c-.8.15-2,.13-2,1.15-.87-.27-2.48,1.65-2.24,2.52l.25-.12.12.23c-.37.34-.45.34-1,.34v-.45a1.07,1.07,0,0,0-.5,1.37c-.84,0-1.51,1.3-1.12,1.83a1.32,1.32,0,0,0-.75,1.61l.25-.12c0,.43.11.29-.25.46a2,2,0,0,0-.12-.8c-.31.42-.9,1.45-.63,1.94-.41.2-.52,1.2-.37,1.61h.62c0-8.46,16.19-15,23.79-14.09.22-.41,8.33-.38,10,0V14a21.44,21.44,0,0,1,5,.69v.23c1.43,0,2.66.74,4,1.14v.23c.41,0,1,0,1,.46,2.26,0,2.44,2.47,4.11,3,0,1,4.73,3.89,1.74,5.26.35.17.18.06.5.35-.83,1.52,1.6,1.44,2.49,1.6.18-.33.12-.14.12-.57h-.24c0-1.06,0-.41.37-1,0,.38,0,.15.12.69H58a3.63,3.63,0,0,0,.25.91h.25C58.51,29.47,59.68,32.35,59.88,35.16Z"/><path class="e282f86f-dfbc-47a7-8e95-1895fead7d3f" d="M7,40.15a2.25,2.25,0,0,1,.74-1.38c.9.41.15-1.71,1.62-1,.17-.31.24-.41-.12-.57l.25-.46v.23c.67-.47.54-.73,1.24-1.38,0,.47,0,.24.13.69.34,0,.5,0,.5-.34h-.25a3.75,3.75,0,0,1,.74-1c.21.37,0,.21.63.34-.19-.34.06-.46-.13-.8,1.2-1.1,2.47-1.13,4.11-1-.47-.22-.15-.1-1-.23,0-.45.58-.59,1-.46.35-.48.39-.37,1-.23v-.23c2.36-.27,4.24-1.34,7-1,0-.91,4.31-.44,9-.57S45,30.71,49.05,33.5c1.15.8,2.9,2.49,4.11,2.87,0,.4.05.45.5.45,0,.49,2.2,3.09,2.37,2.41,1.21-5-10.55-9.28-14.45-10.08s-8.23-.69-12.08-.69C21.83,28.46,7,30.61,7,40.15Z"/><path class="fe4c4f65-02dc-4374-8f08-d0e1d6a68e2e" d="M53.76,22.38c-3.3.72-8.1-6.08-5-6.3C51.25,15.91,57.14,21.64,53.76,22.38Z"/><path class="bff9ab4a-cd10-47ad-b69f-c70672292a6a" d="M28.6,6.69,26,6.8c.6-.55,4.85-5.74,6.61-4.12-1.77,1.08-3.91,2-5,4Z"/><path class="b462c830-ea0d-43f0-aa24-40e43a8139d4" d="M27.6,6.69c1.82-3.35,6.47-4.83,8-.69h.25c0,.53.3.32.5.69A76.87,76.87,0,0,1,27.6,6.69Z"/><path class="b8a051f2-fcf6-40bc-9633-91862b624e4c" d="M30.22,35.67c.94-.87-2.67-4.11-.37-4.81v-.35C38.19,30.51,31.24,36.6,30.22,35.67Z"/><path class="e1d7b597-9942-48c4-97bc-f9adcbed9217" d="M24.24,36.12c1-.4,2.27-4,1.37-4.81-.72-.66-3.9-.72-4.11.35S22.77,36.69,24.24,36.12Z"/><path class="f7a8ad35-da0d-420b-a7e5-f8ccdbe0000c" d="M32,2.91a7.14,7.14,0,0,1,2.12.34c0,.52,3.09,2.83,3.61,3.55-1,.6-1.09-.34-1.74-.34C36,5.13,33,3.82,32,2.91Z"/><path class="e9c3ae53-df7c-4864-be5a-6c7d7913572b" d="M39.68,31v.34c2.21,0-1.3,4.38-1.61,4.81C35.5,35.34,35,29.54,39.68,31Z"/><path class="b489ca85-b640-41a0-84aa-2d8da3a0199a" d="M37.69,36.12c1.59,0,2.46-3.33,2.62-4.46-.33-.15-.26-.35-.63-.35v-.23c4.23,0-.59,4.77-.49,5Z"/><path class="ab0d1d2b-0e80-4a8f-a739-5429cbc4b550" d="M24.12,36.12c-3.1,0-5.32-6-1.75-4.92C20.48,32.07,22.4,35.73,24.12,36.12Z"/><path class="ac7127eb-0535-4d9e-8bf4-785e52e3f1a0" d="M44.42,32.92c3.73-.44,4.57,3.72.62,4.23C43.66,37.34,43,33.08,44.42,32.92Z"/><path class="a6c83885-d487-46f9-b207-ca458b8d7786" d="M18.51,22.84l.13.34h.25c0,2.46-.13,2.79-2.87,3v-.23c-1.67,0-2.46-4,2-3.44.33.05.25.13.25.35Z"/><path class="a46fe0ec-5e7f-485e-87d9-b463c03d51f1" d="M16.15,32.92C18.7,32.5,19,36.36,17.52,37,16.46,37.52,13.07,33.41,16.15,32.92Z"/><path class="f273dadc-7dff-4a9b-968b-f2d6282b973d" d="M29.72,30.63l.13.23c-2.42,0,1,4.49.49,4.81-.24.14-.86-.77-1-.92C28,33.23,27.42,31.33,29.72,30.63Z"/><path class="a0aaffb3-5d29-4843-83e1-ac548ad8f029" d="M50,36.24c.81-.5,3.76,1.31,2.12,2.52C49.86,40.43,47.74,37.63,50,36.24Z"/><path class="b8a051f2-fcf6-40bc-9633-91862b624e4c" d="M12,36.24c0,1,.87,2,.49,3.09C9.07,39.33,8.42,36.24,12,36.24Z"/><path class="ff35e4d1-212f-4fe1-95b7-08999a62e6ee" d="M48.28,21.92c1.21-.2,1.74,1.92.5,2.06C47.14,24.17,46.71,22.19,48.28,21.92Z"/><path class="b5e8c85b-b6d9-4957-bb16-3e2aafb2a798" d="M29.22,11.81h0a3,3,0,0,1,3.16,2.91h0a3,3,0,0,1-3.16,2.91h0a3,3,0,0,1-3.16-2.91h0A3,3,0,0,1,29.22,11.81Z"/><path class="b5e8c85b-b6d9-4957-bb16-3e2aafb2a798" d="M36.05,15.56h0a3.54,3.54,0,0,1,3.68,3.37h0a3.54,3.54,0,0,1-3.68,3.38h0a3.54,3.54,0,0,1-3.67-3.38h0A3.53,3.53,0,0,1,36.05,15.56Z"/></g></g></g></svg>