<svg xmlns="http://www.w3.org/2000/svg" viewBox="0 0 28.75 15.92"><defs><style>.b20ba6a0-54f8-4570-b56b-3500b557b65a,.bbeabc14-eb67-42b0-8805-23e14602eda1{fill:#673d9b;}.a30495ab-d734-4be7-9588-cc6a89e3699c,.ea075a83-5bb8-4046-a111-b53f60a3c860{fill:#411783;}.f71f704f-6a29-4660-89b0-6fc1e8394b00{fill:#3b1568;stroke:#3b1568;}.a09bb1e6-e89b-482b-91d5-7c4720ae9d70,.a17f00c9-0362-4405-a4c2-4aeb89150fce,.a3232e24-6af5-4c34-8291-c5781e53292d,.a4e23ce0-336b-4459-b452-4bbabf8c377b,.a81a75af-1e94-451c-b4a2-773d4ba1b663,.ac55e1c0-92ae-41fa-a985-9950b52e22db,.ae6417a1-5261-42ed-ae86-f3c01873bf56,.afa535f2-7aa2-4359-a61f-bc68f8fc539d,.afaae1fb-aed5-42c3-a722-56685ef22ca0,.b06e3ba1-3398-4abe-8195-491fab5333f3,.b0d0b4df-2def-4ea9-857e-527bbd3b90e9,.b2844325-4d44-4da9-9ed3-5bdefad20c7f,.b29bfbca-3df4-4e7e-b1bd-81b2c00f3e19,.b2e96fb1-2b05-4ac3-bc2f-bb26bb66fe34,.b36b9eec-16bc-4b7c-a838-71145f5840c5,.b7c2943d-d27b-4e1c-a412-98060af16ee0,.b8770806-018b-45a2-ab2f-91f7395af571,.b88fd9de-c1a6-4307-bb88-ead1cc9af0f0,.b8bca29e-af3a-4c49-94cc-8e5a1013bfbc,.b980eeee-4b02-429f-a19e-f8e4c29cfbd3,.ba6750fc-805e-477f-a911-b52f537c90ab,.bbeabc14-eb67-42b0-8805-23e14602eda1,.bc1f824a-1e70-4752-a25c-196b407d415f,.bdced3bd-e65f-44cb-acc0-012c6a98e5c0,.bdd5b7ec-9ea2-4fa5-affd-a71fb838a7c8,.be1831f0-55a5-4225-85f1-706cc116b6ad,.be9b9f50-bf79-4b03-8d71-424ae8a44022,.bea9d76d-c945-463b-9052-4b857f3ffae3,.e3cec2b0-10e7-4605-854d-dddc2a5f7916,.e67cf15f-62ae-436f-88a9-d24798bd3f0f,.e7e7e0a4-41b8-4a1a-82d6-eea999977322,.e91cea35-c87f-4ed5-bde7-bc8ddbea1c36,.ea075a83-5bb8-4046-a111-b53f60a3c860,.edbbc5e3-14b4-456b-8828-0407eb03d8a6,.eddb5caa-8e48-40bf-b0bf-3157fb82f491,.eeaefdc3-0251-43e5-b3a8-0897baf7e784,.f02b0ed5-6d9e-4909-8c6e-a2be538f60c8,.f1dd33e7-c53a-45e9-9ea9-051b54b0360c,.f38ec1d4-b875-4a48-aa41-0afa581e0d52,.f71f704f-6a29-4660-89b0-6fc1e8394b00,.f754b9a5-86cb-44e7-afad-e8c2c71da3a2,.f77911b8-3faf-4a21-ab39-17770e4c8095,.faeaee82-929c-496e-969d-3978616ce199,.fb91ce4b-304e-4ba3-8706-4a176b479766,.fbaa66ac-64a0-4b6c-8057-4d908787315e,.fdeb883f-21bf-4a14-a394-aef818534512,.fe40b540-cdb4-4ead-b5b5-277ef17c1cfc,.fe90086a-686e-45d6-b720-c3477cb297de,.ff8ba288-1568-44d6-be81-2aee0f75748b{stroke-linecap:round;stroke-linejoin:round;stroke-width:0.84px;}.bbeabc14-eb67-42b0-8805-23e14602eda1{stroke:#673d9b;}.a81a75af-1e94-451c-b4a2-773d4ba1b663{fill:#562f8d;stroke:#562f8d;}.b8770806-018b-45a2-ab2f-91f7395af571{fill:#441543;stroke:#441543;}.a4e23ce0-336b-4459-b452-4bbabf8c377b{fill:#b3506d;stroke:#b3506d;}.ac55e1c0-92ae-41fa-a985-9950b52e22db{fill:#3f0d3c;stroke:#3f0d3c;}.ea075a83-5bb8-4046-a111-b53f60a3c860{stroke:#411783;}.e91cea35-c87f-4ed5-bde7-bc8ddbea1c36{fill:#4a1c48;stroke:#4a1c48;}.b2844325-4d44-4da9-9ed3-5bdefad20c7f{fill:#17052b;stroke:#17052b;}.edbbc5e3-14b4-456b-8828-0407eb03d8a6{fill:#40103d;stroke:#40103d;}.b2e96fb1-2b05-4ac3-bc2f-bb26bb66fe34{fill:#4a1b48;stroke:#4a1b48;}.afa535f2-7aa2-4359-a61f-bc68f8fc539d{fill:#9b366e;stroke:#9b366e;}.be1831f0-55a5-4225-85f1-706cc116b6ad{fill:#522a92;stroke:#522a92;}.bdd5b7ec-9ea2-4fa5-affd-a71fb838a7c8{fill:#411245;stroke:#411245;}.eddb5caa-8e48-40bf-b0bf-3157fb82f491{fill:#e9cca9;stroke:#e9cca9;}.fdeb883f-21bf-4a14-a394-aef818534512{fill:#3f0f3c;stroke:#3f0f3c;}.b8bca29e-af3a-4c49-94cc-8e5a1013bfbc{fill:#e8caa1;stroke:#e8caa1;}.f02b0ed5-6d9e-4909-8c6e-a2be538f60c8{fill:#542e89;stroke:#542e89;}.fe90086a-686e-45d6-b720-c3477cb297de{fill:#eed5ad;stroke:#eed5ad;}.b88fd9de-c1a6-4307-bb88-ead1cc9af0f0{fill:#ebd4b5;stroke:#ebd4b5;}.bdced3bd-e65f-44cb-acc0-012c6a98e5c0{fill:#9d4b6a;stroke:#9d4b6a;}.b06e3ba1-3398-4abe-8195-491fab5333f3{fill:#edd0a3;stroke:#edd0a3;}.ae6417a1-5261-42ed-ae86-f3c01873bf56{fill:#bd9270;stroke:#bd9270;}.b0d0b4df-2def-4ea9-857e-527bbd3b90e9{fill:#d9b498;stroke:#d9b498;}.f77911b8-3faf-4a21-ab39-17770e4c8095{fill:#ead0ab;stroke:#ead0ab;}.a3232e24-6af5-4c34-8291-c5781e53292d{fill:#c8a17f;stroke:#c8a17f;}.fbaa66ac-64a0-4b6c-8057-4d908787315e{fill:#f0dcbe;stroke:#f0dcbe;}.f38ec1d4-b875-4a48-aa41-0afa581e0d52{fill:#c69d72;stroke:#c69d72;}.f754b9a5-86cb-44e7-afad-e8c2c71da3a2{fill:#eccfa5;stroke:#eccfa5;}.a17f00c9-0362-4405-a4c2-4aeb89150fce{fill:#debba3;stroke:#debba3;}.e7e7e0a4-41b8-4a1a-82d6-eea999977322{fill:#ecd3b0;stroke:#ecd3b0;}.be9b9f50-bf79-4b03-8d71-424ae8a44022{fill:#f8ebd9;stroke:#f8ebd9;}.b7c2943d-d27b-4e1c-a412-98060af16ee0{fill:#dcc2a9;stroke:#dcc2a9;}.bea9d76d-c945-463b-9052-4b857f3ffae3{fill:#f7ebd9;stroke:#f7ebd9;}.e67cf15f-62ae-436f-88a9-d24798bd3f0f{fill:#8551bf;stroke:#8551bf;}.b36b9eec-16bc-4b7c-a838-71145f5840c5{fill:#7a49b4;stroke:#7a49b4;}.afaae1fb-aed5-42c3-a722-56685ef22ca0{fill:#d6bda7;stroke:#d6bda7;}.faeaee82-929c-496e-969d-3978616ce199{fill:#e1c29d;stroke:#e1c29d;}.ba6750fc-805e-477f-a911-b52f537c90ab{fill:#c59c75;stroke:#c59c75;}.a09bb1e6-e89b-482b-91d5-7c4720ae9d70{fill:#804ebb;stroke:#804ebb;}.ff8ba288-1568-44d6-be81-2aee0f75748b{fill:#ebcda1;stroke:#ebcda1;}.b29bfbca-3df4-4e7e-b1bd-81b2c00f3e19{fill:#d8b697;stroke:#d8b697;}.b980eeee-4b02-429f-a19e-f8e4c29cfbd3{fill:#e4c59f;stroke:#e4c59f;}.eeaefdc3-0251-43e5-b3a8-0897baf7e784{fill:#7344ae;stroke:#7344ae;}.e3cec2b0-10e7-4605-854d-dddc2a5f7916{fill:#d7a490;stroke:#d7a490;}.fe40b540-cdb4-4ead-b5b5-277ef17c1cfc{fill:#d5ac9c;stroke:#d5ac9c;}.bc1f824a-1e70-4752-a25c-196b407d415f{fill:#e8c9a0;stroke:#e8c9a0;}.fb91ce4b-304e-4ba3-8706-4a176b479766{fill:#e0bd96;stroke:#e0bd96;}.f1dd33e7-c53a-45e9-9ea9-051b54b0360c{fill:#7144a8;stroke:#7144a8;}</style></defs><g id="bbdccb97-c508-4f2a-af72-a420e67b4e6d" data-name="Layer 2"><g id="bf46a665-94a7-405d-a50d-b440a27fa9ff" data-name="Layer 1"><g id="e5ae0689-0a50-4a6c-87ac-721d3cf2f2b7" data-name="Layer 1"><path class="b20ba6a0-54f8-4570-b56b-3500b557b65a" d="M18.1,14.51a12,12,0,0,1,2.53.49c.38.12.78.15,1.15.27a3.84,3.84,0,0,1,.36.14,3.89,3.89,0,0,0,.83.14c.43,0,.87.12,1.31.17a4.32,4.32,0,0,0,1.24.08c.21,0,.39-.12.61-.15a1.38,1.38,0,0,0,.72-.18,5.22,5.22,0,0,0,.6-.55c.14-.12.2-.12.28-.27s.16-.4.26-.59l.22-.39a5.78,5.78,0,0,0,.14-.7,6.37,6.37,0,0,0,0-2.09,8.5,8.5,0,0,0-.28-1.49c0-.14-.11-.26-.16-.4-.14-.39-.18-.81-.31-1.2A16.21,16.21,0,0,0,27,6.25a5.69,5.69,0,0,0-.26-.56c-.11-.19-.25-.35-.37-.53a9.68,9.68,0,0,0-1-1.44c-.2-.22-.44-.37-.66-.57s-.12-.15-.19-.22-.38-.28-.57-.43-.45-.36-.69-.51a7.66,7.66,0,0,0-1.59-.67A7.81,7.81,0,0,0,20.19.84c-.47-.08-.94-.12-1.41-.2a2.31,2.31,0,0,0-.69-.11c-.05,0-.09.06-.15.07a2,2,0,0,1-.37,0C16.68.43,15.8.18,14.91.12a3.81,3.81,0,0,0-1.05.15c-.36.06-.71.14-1.07.18s-1,0-1.44.07a2.09,2.09,0,0,0-.56,0c-.09,0-.13.17-.22.21A3.62,3.62,0,0,1,9.49,1a5.9,5.9,0,0,0-.93.19A9.7,9.7,0,0,0,6.6,2c-.1.06-.22.09-.33.15s-.36.25-.56.36c-.41.25-.88.37-1.29.63a2.34,2.34,0,0,0-.4.37c-.16.14-.34.25-.51.38-.39.33-.74.72-1.12,1.07A2.92,2.92,0,0,0,2,5.36c-.11.17-.2.38-.3.55a4.92,4.92,0,0,0-.44.78c-.08.18-.12.38-.2.57a8.68,8.68,0,0,0-.34.84c-.1.34-.06.69-.13,1s-.13.43-.19.64a5.84,5.84,0,0,0-.11.73,4.13,4.13,0,0,0,0,1.85A3.79,3.79,0,0,0,1.67,14c.14.11.24.25.37.36a3.48,3.48,0,0,0,.77.44c.27.11.57.14.85.25a8.63,8.63,0,0,0,2,.45,5.16,5.16,0,0,0,.88.1c.48,0,.9-.27,1.38-.33.87-.11,1.75-.21,2.62-.35.33-.05.63-.2,1-.28a7.86,7.86,0,0,1,1.19-.11c.53,0,1.06-.08,1.6-.06.3,0,.6.09.9.1s.72-.08,1.08-.08.83,0,1.25.05h.3c.18,0,.28.08.46.11s.59.07.87.1l.52,0a5.24,5.24,0,0,0,.53.08,2.93,2.93,0,0,1,.78,0"/><path class="a30495ab-d734-4be7-9588-cc6a89e3699c" d="M14.83.09a3.83,3.83,0,0,0-.89.13,11.53,11.53,0,0,1-1.15.2c-.32,0-.64,0-1,0l-.5,0a3.68,3.68,0,0,0-.47,0l-.08,0c-.09,0-.12.13-.19.18a.27.27,0,0,1-.12.06l-.16,0a6.09,6.09,0,0,1-.73.1,5.88,5.88,0,0,0-1,.21,10.8,10.8,0,0,0-1.34.5l-.47.24L6.56,2c-.1.06-.21.08-.3.13s-.4.28-.61.4c-.4.22-.85.35-1.25.59a2.86,2.86,0,0,0-.4.38c-.16.14-.34.25-.5.38-.34.27-.63.59-.94.89L2.3,5A2.13,2.13,0,0,0,2,5.27a3.85,3.85,0,0,0-.36.62c-.13.22-.28.42-.39.65S1.08,7,1,7.25a8.76,8.76,0,0,0-.35.84,3.26,3.26,0,0,0-.09.69,2.34,2.34,0,0,1-.07.45c0,.22-.14.43-.19.65s0,.41-.07.62L.16,11a3.09,3.09,0,0,0,.13,1.48A4,4,0,0,0,1.65,14c.14.11.24.25.38.36a2.88,2.88,0,0,0,.84.47c.25.09.52.13.78.23l.64.2a11.39,11.39,0,0,0,1.32.25,5.16,5.16,0,0,0,.88.1,4.75,4.75,0,0,0,.92-.22,2.56,2.56,0,0,1,.46-.11l.77-.1c.62-.07,1.24-.15,1.85-.25a7.53,7.53,0,0,0,.81-.24l.35-.08a10.54,10.54,0,0,1,1.13-.08,14.15,14.15,0,0,1,1.46,0c.33,0,.66.1,1,.1s.66-.07,1-.08.83,0,1.24,0h.26a4.54,4.54,0,0,1,.5.12,5.93,5.93,0,0,0,.59.07l.38,0,.36,0,.25.05.62.16.4.11c.32.08.64.12,1,.21l.23.1.26.09a6.13,6.13,0,0,0,.86.11c.36.05.72.11,1.09.15l.62.08a3.38,3.38,0,0,0,.55,0c.23,0,.45-.12.69-.16a2,2,0,0,0,.76-.18,3.59,3.59,0,0,0,.58-.52.69.69,0,0,1,.13-.11.77.77,0,0,0,.16-.15,1.73,1.73,0,0,0,.18-.36c0-.1.08-.2.13-.3a3.81,3.81,0,0,0,.23-.45,4.84,4.84,0,0,0,.13-.64c0-.21.07-.41.09-.62a9.57,9.57,0,0,0,0-1.31,9.32,9.32,0,0,0-.3-1.66C28.07,9.25,28,9.12,28,9c-.13-.39-.18-.81-.3-1.2a11.36,11.36,0,0,0-.55-1.29c-.06-.12-.11-.23-.16-.35s-.1-.25-.16-.38-.29-.41-.42-.62a11.19,11.19,0,0,0-1-1.44c-.2-.21-.44-.38-.66-.57A.86.86,0,0,1,24.53,3a.63.63,0,0,0-.11-.12,5.17,5.17,0,0,0-.53-.39A7.28,7.28,0,0,0,23,1.86a10.66,10.66,0,0,0-1.41-.57A9,9,0,0,0,20.2.82C19.81.74,19.41.71,19,.65a1.86,1.86,0,0,1-.34-.06L18.26.5a.34.34,0,0,0-.2,0s-.08.06-.13.06a.55.55,0,0,1-.18,0l-.29,0C16.87.43,16.29.28,15.7.19L15,.1Zm0,.05.25,0,.61.08c.59.1,1.17.24,1.76.33l.33.05h.16a.91.91,0,0,0,.14-.07.53.53,0,0,1,.18,0l.4.09L19,.71c.39.05.79.09,1.18.16a8.53,8.53,0,0,1,1.4.47A11.35,11.35,0,0,1,23,1.9a10.56,10.56,0,0,1,.87.62c.17.13.36.25.53.39l.1.11a.93.93,0,0,0,.13.15,7.3,7.3,0,0,1,.66.57,11,11,0,0,1,1,1.43,6.15,6.15,0,0,1,.42.62c.06.12.11.25.16.37s.1.23.16.35a12,12,0,0,1,.55,1.28c.12.4.16.82.3,1.21.05.14.12.26.17.4a9.68,9.68,0,0,1,.32,2,6,6,0,0,1,0,1.12c0,.19-.06.37-.09.55a4.36,4.36,0,0,1-.11.52,1.92,1.92,0,0,1-.12.25,2.85,2.85,0,0,0-.16.3,2.65,2.65,0,0,1-.25.54.77.77,0,0,1-.16.15l-.12.11a5.67,5.67,0,0,1-.58.52,1.93,1.93,0,0,1-.79.17,4.61,4.61,0,0,1-.64.16,3.08,3.08,0,0,1-.53,0l-.68-.09-1-.14c-.26,0-.52,0-.78-.1l-.26-.07-.23-.11-.26-.07L20.83,15l-.4-.11-.33-.09h.5a1.17,1.17,0,0,1,.32,0l0,0s0,0,0,0a1.86,1.86,0,0,0-.33,0c-.15,0-.3,0-.45,0s-.32,0-.48-.07h-.13a11.62,11.62,0,0,0-1.44-.21l0,0a0,0,0,0,0,0,0c.35,0,.7.08,1,.14l-.4,0a4.46,4.46,0,0,1-.51-.07,2.89,2.89,0,0,0-.51-.11h-.25c-.42,0-.84-.06-1.25-.05s-.66.09-1,.09-.66-.09-1-.1a12,12,0,0,0-1.47.05,10.73,10.73,0,0,0-1.13.08l-.36.08a7.32,7.32,0,0,1-.8.23c-.63.11-1.27.19-1.9.27l-.72.08-.46.11a3.66,3.66,0,0,1-.91.22,5.13,5.13,0,0,1-1-.11,10.12,10.12,0,0,1-1.22-.24,4.75,4.75,0,0,1-.64-.2c-.26-.09-.53-.13-.79-.22a2.69,2.69,0,0,1-.82-.47c-.13-.11-.24-.24-.37-.35A4,4,0,0,1,.34,12.42a3,3,0,0,1-.11-1.53c0-.17,0-.34.05-.51s0-.32.07-.48.13-.44.19-.66a2.34,2.34,0,0,0,.07-.45A3.09,3.09,0,0,1,.7,8.11,8.68,8.68,0,0,1,1,7.27c.09-.23.14-.48.25-.71s.26-.42.39-.64A3.79,3.79,0,0,1,2,5.3,2.8,2.8,0,0,1,2.34,5l.26-.24a12.77,12.77,0,0,1,.93-.88c.17-.14.35-.25.5-.39a2.74,2.74,0,0,1,.4-.37c.4-.24.84-.37,1.25-.59.21-.12.4-.28.61-.4L6.58,2l.18-.1.47-.24a10.23,10.23,0,0,1,1.34-.5,5.85,5.85,0,0,1,1-.21,6,6,0,0,0,.74-.09.85.85,0,0,0,.31-.13s.1-.15.17-.17l.07,0a3.53,3.53,0,0,1,.46,0c.17,0,.33,0,.5,0,.32,0,.64,0,1-.05A7.58,7.58,0,0,0,13.6.34L14,.26A3.51,3.51,0,0,1,14.83.14Z"/><path class="f71f704f-6a29-4660-89b0-6fc1e8394b00" d="M1,11.4C1.3,10,.86,8.58,2,7.47L2,7.58c.14-.07.07,0,.22,0A3.27,3.27,0,0,1,3.88,5.14c0,.24,0,.27.21.37.13-.13.43-.53,0-.53a2.43,2.43,0,0,1,1.65-.9c0-.52,3.49-1.38,4-1.59.19.57.83.74.69-.11a20.12,20.12,0,0,1,9.54.32c.51.17,4,1.49,4,1.86h.16v.1c.49,0,1,.8,1.43,1,0,.6,1.26,1.5,1.48,2.17h.11c.09.38.2.75.32,1.12h.16c0-1.26-1.19-3.28-2.34-3.66,0-.33-1.45-1.24-1.8-1.33,0-1.16-6.12-2-6.68-2.07a32.53,32.53,0,0,0-4.19-.1C8.13,2-1,5.34,1,11.4Z"/><path class="bbeabc14-eb67-42b0-8805-23e14602eda1" d="M25.94,13.68l-.06.16h.22c-.14-.27.32-.3.53-.37l-.06.1h.16c-.07-.14-.05-.06-.05-.21.88.29,1-2.22,1.43-2.44a3,3,0,0,1-.05,1h.16a1.89,1.89,0,0,1-.16.74h.1v.1h.16a1.33,1.33,0,0,1-.05.43h-.11V13l-.05.16L28.06,13c-.24.36-.14.66-.32,1l-.16-.11a.61.61,0,0,0-.16.37l-.21.05c-.08-.15-.07-.06,0-.26-.54,0-1.08.74-1.59.74l.05-.16-.1-.05c-.07.26-.08.24-.32.32,0-.31,0-.19-.05-.37-.38.18,0,.31-.64.31l0,.16A10.86,10.86,0,0,1,23.23,15c0-.52.07-.33-.05-.58-.21.1,0,.49-.37.53a21.16,21.16,0,0,1-5-.64l-.05-.58c-.1.29,0,.45-.32.53V14.1c-.13.39-2,.35-2.6.06-.49.49-.57-.43-.63-.69-.22.1,0,.58-.27.63-1.54.27-3.25.33-4.82.48-.23,0-1.65.37-1.65,0-.5.25-1.89,1.09-2.28.32-.67.33-2.15.72-1.85-.48-.25,0-.21.22-.38.32C2.38,15.07.45,14,.86,13.2c-.71,0-.37-3.63-.27-4l.11.11c0-.18-.07-.95.26-.95V8.11l.16,0c0,1.1-.49,2.17-.1,3.34h.1c0,.19.13.79.37.79.75,2.24,4.46,1.12,5.73,1.75.27-.27.38.16.69,0-1.19,1.49,4.11-.12,2.65-.37v-.1a2.39,2.39,0,0,1,.85-.06c-.08.25-.07.11,0,.43.45,0,1.06.29,1.06-.37.38-.13.1-.05.85-.11l-.11.05c.3.12.22,0,.32.22l-.32,0v-.16c-.17.08-.1,0-.1.26a2.12,2.12,0,0,1,.53.06c0-.45-.05-.31-.16-.64,3.29-.06,6.35.52,9.59.64C23.56,13.86,25.19,14.18,25.94,13.68Z"/><path class="a81a75af-1e94-451c-b4a2-773d4ba1b663" d="M27,6.15l-.11,0c.05.27.3.46.16.74-.57-.57-.82-1.42-1.65-1.69,0-.33-1.45-1.24-1.8-1.33,0-1-5.31-1.9-5.83-2A29.74,29.74,0,0,0,14,1.69c-3.29,0-6.59.53-9.28,2.44-.89.64-1.67,2-2.54,2.44l0-.1C2.46,6.08,4.41,4.14,4.41,4L4.62,4c-.08-.24,0-.12-.26-.31A5.72,5.72,0,0,0,6.11,2.54l.1.06a.79.79,0,0,1,.69-.32l-.05-.11C9.41.46,13.84.42,16.71.42c.78,0,2,.66,2.71.43-.19.37-1.27,0-1.65,0a9.24,9.24,0,0,0,2,.58V1.22c-.14,0-.07,0-.21-.06C20.71.77,22.85,2.36,24,2.6l-.16.1h.21V3A13.15,13.15,0,0,1,27,6.15Z"/><path class="b8770806-018b-45a2-ab2f-91f7395af571" d="M8.6,6.2a3,3,0,0,1,.26-.9l.11,0,0-.1c0,.2,0,.13.11.21.09-.19,0-.07,0-.37h-.1c0-.43.26-.84.26-1.27.15,0,.09,0,.16-.11l.11.16c.06-.2.07-.11,0-.27.45-.11.91-.22,1.37-.31,0,.61-.12,1.23-.15,1.85-.21,4.14,2.18,1,3.65,1.27v.11a8.88,8.88,0,0,0,1.7.37L16,7a3.78,3.78,0,0,0,.74-.11c0-.15.1-.19.16-.32v.11c.35-1-.11-2.46.22-3.45H17c.07-.14.05-.06.05-.21,2,0,1.88.76,2.23,2.49h.1c0,.82-.38,1.93-.1,2.76h.16c-.25.06-.14.05-.32.05-.27.81.44,2,.1,3-.12.36-.75,1.91-1.32,1.21-.13-.15.09-.33.16-.42a3.64,3.64,0,0,0,.21-3.23,16.57,16.57,0,0,0-2.6-1.17c-.12.24-.33-.08-.48.21-.44.88.7,1.73,0,2.65-.92,1.23-2.51-.1-2.38-1.27h-.11c0-.54.31-.76.16-1.38-.32-1.27-3,.34-3.18,1.27-.34,1.69.07,2.26.74,3.61-.9.18-.65-.34-1.48-.48,0-1.09-.62-2.08-.22-3.28.22-.66,1.87-2,1.7-2.6S9,6.07,8.6,6.2Z"/><path class="a4e23ce0-336b-4459-b452-4bbabf8c377b" d="M6.42,5.41c-.13.13-.1,0-.1.21L6.16,5.3l0,.11a1.08,1.08,0,0,0-.22-.53c-.22.15-.49,0-.74-.11-.24.48-1.05.86-1.27,1.38s.79,1.38.16,1.7A6.07,6.07,0,0,0,3.88,7l0,.32c-.15-1.21-.17-1-1.06-1,0-.45.78-.95,1.11-1.17,0,.24,0,.27.21.37.13-.13.43-.53,0-.53a2.43,2.43,0,0,1,1.65-.9c0-.52,3.49-1.38,4-1.59.19.57.83.74.69-.11A24.3,24.3,0,0,1,20.85,3c0,.21.09.18.21.37a6.23,6.23,0,0,0-2.17-.53l-.11.48c-.62-.11-1.23-.19-1.86-.27,0-.84-2.11-1.06-2.54-.85-.24.12-.31,1.33,0,1.33a2.25,2.25,0,0,0-.26,1.06A9.44,9.44,0,0,1,14.11,3l-.37-.06c0-.26,0-.07-.1-.58-.23,0-.84-.23-.64.16-.25.12-.11,0-.11.53-.32,0-.18,0-.42,0V2.38c-.81,0-1.26.22-1.49.91a5.42,5.42,0,0,0-1.32.26.51.51,0,0,1-.05.32l-.06-.16-.21.11a2.2,2.2,0,0,1,.05-.48c-.51,0-2-.61-2,.1-.14,0-.07,0-.21,0-.29.39-.09.49-.21,1.06S5.76,4.41,6.42,5.41Z"/><path class="ac55e1c0-92ae-41fa-a985-9950b52e22db" d="M19.26,8.32v.11c.21,0,.12,0,.26-.11v.11c.35,0,.21-.26.43-.37-.11-.22.11-.44.26-.59l-.11,0c.13-.24,0-.21.22-.21,0,.56.77,1.48.9,2.12.09.46-.08,1.08.16,1.48A.5.5,0,0,0,22,11c.76-.15.45-2,1.27-1.85.63.1.23,1.25.43,1.85,2.09,0,1-3.41,1.91-4.29.08.16.2.24.26.42h.11c0,.16.11.27.16.43.53,0,1.68,4.72.53,5.3l.1.21-.1.06c.2,0,.11,0,.26.05-.1.2-.37.11-.16.42h-.16l.06-.1c-.21,0-.67.1-.53.37h-.22l.06-.16a3.62,3.62,0,0,1-1.38.21c.11-.23.06-.2.37-.26l-.21-.06c0-1.42-.52-.63-1.49-.63l.11.47h-.27a9,9,0,0,0-.1-1.48c-.17.34-1-.21-1.38.16l.21.05-.1.11.05.1c-.6,0-1,.16-1.38.16v-.16l-.05.32c-.39-.39-.93-.41-1.12.16a1.46,1.46,0,0,1-.63-.16,10.65,10.65,0,0,0,.53-4.35Z"/><path class="ea075a83-5bb8-4046-a111-b53f60a3c860" d="M1.44,14.31c.22.11.23.19.42.32l.22-.21c.71.36.7,0,1.22,0,0,.21-.06.37-.06.58.5.17,1.09,0,1.54.22a1.13,1.13,0,0,1,.37-.32c0,.89,2-.17,2.28-.32v.16a34.15,34.15,0,0,0,6.47-.58c.23-.06,0-.57.27-.69a2.3,2.3,0,0,0,.1.69c.73,0,2.85.5,3.13-.06l.16.11a1.48,1.48,0,0,1,.11-.48l.1.53c1.65.14,3.41.64,5,.64.34,0,.18-.44.37-.53a3.57,3.57,0,0,0,.05.58,5.88,5.88,0,0,1,1.28.05v-.1c.71-.09.3-.18.69-.37a1,1,0,0,0,.05.37c.24,0,.22-.08.32-.32.17.09,0,.13.21.21.17-.34,1.07-.49,1.38-.79,0,.17-.05.31.16.31,0,.16.1.15.16.32l-.11.06.05.15c-.19-.06-.19,0-.37,0v-.1l-.1,0c.35.35-.34.66-.48.37a2.27,2.27,0,0,0,.37-.32c-.46-.22-1.32.3-1.86.32-.86,0-1.73.06-2.59.06-1.62,0-3.58-1-5.15-.75-2.65.38-5.81.3-8.64.59-1.8.18-3.55.21-5.36.32-.05,0-.07.07-.1.1H3.3C2.76,15.62,1.44,14.84,1.44,14.31Z"/><path class="e91cea35-c87f-4ed5-bde7-bc8ddbea1c36" d="M4.57,5.67A6.35,6.35,0,0,0,4.78,7.9C8.6,7.9,5,5.45,7,4.45a15.27,15.27,0,0,0,.1,1.8h.11a1.88,1.88,0,0,0,0,.53h.11A18,18,0,0,0,5.89,9.07c-.3.9.12,2-.31,2.91h.15l-.15,0c.12.07.25.1.37.16-.32.07-.4.05-.32.37-.35,0-1.41.08-1.17-.63-.36-.18-.48-1-.53-1.38-.54,0-.62,1-.79,1.33-.21-.06-.25-.22-.43-.22,0-.15,0-.31-.21-.31,0-.62-.28-1.33-.32-2-.74,0-.63,2.75-.63,3l-.06-.22h-.1c0-1.66-.79-3.34.58-4.72L2,7.58s.73,1.38,1.7.69a1.57,1.57,0,0,0,.16-2.12A1.25,1.25,0,0,1,4.57,5.67Z"/><path class="b2844325-4d44-4da9-9ed3-5bdefad20c7f" d="M15.54,12.35l.06-.9c-.91,0-.87-.08-1,.9h-.37c-.08-.7-.14-.59-.85-.53v-.21l-.1.9a11.13,11.13,0,0,0-2.92.32c-.68-1.36-1.78-4.45.58-5,1.53-.38,2.18.09,1.7,1.54h.11c0,1.14,1.21,2.45,2.38,1.27.36-.35-.22-3.08.43-2.75.26-.53,1.91.32,2.22.63.68.67,1,3.87,0,4.08A6.8,6.8,0,0,1,15.54,12.35Z"/><path class="edbbc5e3-14b4-456b-8828-0407eb03d8a6" d="M6,13.94c0-.89.64-1.5-.43-1.85L5.73,12l-.15,0c.08-.16,0,0,0-.21a16,16,0,0,1,.42-3.24c.1-.35.59-.67.59-1.06.26-.08.35-.39.63-.53,0,.55.35,1.75,1,1.75,0-.37.27-.79.27-1.06H8.44A7,7,0,0,1,8.6,6.2c.62,0,1.49-.43,1.75.27.19.52-1.21,1.62-1.43,2.06-.62,1.24-.25,2.57,0,3.82.75,0,.41.21.79.59L9.45,13l-.06-.43a3.3,3.3,0,0,1-1,.27c0,.83-.24.68.11.85a3.11,3.11,0,0,0-.75.1c.09-.17.09-.42.32-.42-.74-.5-.34-.53-1.32-.53v-.11a5.21,5.21,0,0,0-.11.91c.26,0,.47.14.74,0v.1H7.7A4,4,0,0,1,6,13.94Z"/><path class="b2e96fb1-2b05-4ac3-bc2f-bb26bb66fe34" d="M25.14,7.69l-.1,0,.31,0c0,1-.4,3-1.69,3.18a17.9,17.9,0,0,1-.32-1.8c-.18,0-.07,0-.32-.05a4.56,4.56,0,0,0-.42,1c-1.41,3.51-1.3-2.86-2.39-2.86.07-.15.19-.21.27-.37v.1c.07-.14,0-.08.16-.16-.25-.12-.07-.79.15-.9-.22-.45.58-2.88,1.12-1.8.46.93-2.09,3,1.06,3,0-.83.26-1.58.21-2.44.42,0,.73.39,1.11.48C23.9,6.33,23.7,7.48,25.14,7.69Z"/><path class="afa535f2-7aa2-4359-a61f-bc68f8fc539d" d="M9.45,13.36c-.23-.46,1.32-.54,1.59-.58.56-.1,1.76-.5,2.28-.27a3.53,3.53,0,0,0,1.22.48c.26,0,.56-.33,1-.11,0-.23,0-.22,0-.42.95-.05,3.54-.24,3.77.9a11.48,11.48,0,0,1-2.86-.16,21.93,21.93,0,0,0-5.94.27v.1c-.81,0-2.25.58-3,.32C8.13,13.57,8.91,13.9,9.45,13.36Z"/><path class="be1831f0-55a5-4225-85f1-706cc116b6ad" d="M1,8.06a11.71,11.71,0,0,1,3.4-4.4c.22.15.13,0,.26.31H4.46C4.2,4.76,1.69,5.8,2.13,6.68a5.16,5.16,0,0,0-1,1.48C1.1,8,1.16,8.06,1,8.06Z"/><path class="bdd5b7ec-9ea2-4fa5-affd-a71fb838a7c8" d="M26.63,13.1c.17-.09.12-.15,0-.27,1.58-.53-.05-4.17-.43-5.3-.22,0-.41-.71-.69-.85a2.27,2.27,0,0,0,.11-.53c.67,0,1.3,1.1,1.48,1.64h.11c.09.38.2.75.32,1.12h.21c0,.42.05.84.05,1.27S27.46,13.37,26.63,13.1Z"/><path class="eddb5caa-8e48-40bf-b0bf-3157fb82f491" d="M13.85,4.88c.05.21.11.41.16.63h.1v.11a3.23,3.23,0,0,1,.64,0v.16c.58,0,.63-1.34.58-2s-1.2-.14-1-.53h-.11c0-2,2.44-1.32,2.7-.27H17c0,.15,0,.07-.05.21h.16A15.33,15.33,0,0,0,17,5.88L17,5.67c-.22.44-.5.52-.8.37-.12.18-.14.22.05.32-.76.38-1.56.7-2.06-.32l-.11.06L14,5.94h-.16Z"/><path class="fdeb883f-21bf-4a14-a394-aef818534512" d="M4.46,11.93c-.36-.18-.48-1-.53-1.38-.54,0-.62,1-.79,1.33-.21-.06-.25-.22-.43-.22,0-.15,0-.31-.21-.31,0-.62-.28-1.33-.32-2-.48,0-.56,1.37-.58,1.65-.13,1.54.31,2.15,1.75,2.44a5.08,5.08,0,0,0,.16-.85l.05.1c.25-.12.07,0,.58-.1v.1a1,1,0,0,0,.43-.1c0,.35,0,.7,0,1.06l.16.05S4.44,12,4.46,11.93Z"/><path class="b8bca29e-af3a-4c49-94cc-8e5a1013bfbc" d="M11.25,2.7c.4-.13.81-.23,1.22-.32,0,.65-.13.59.37.69l.05-.53h.16c.07.44.17.83.21,1.28h.11V3.07c.38.76,0,2.38,0,3.13a1.69,1.69,0,0,1,.42,0l0,.11.16.11c-.2.1-.08,0-.26.31-.18-.08-.88.18-1.12.22a5.24,5.24,0,0,0,.11-1.7l.26,0V5c-.21,0-.12,0-.26.11-.11-.43.28-.74.1-1.27-.3,0-.16.07-.42.15V3.82H12.2a.9.9,0,0,0,0-.43l-.05.11C12,3.24,11.86,3,11.57,3l.1-.06C11.25,2.85,11.34,3,11.25,2.7Z"/><path class="f02b0ed5-6d9e-4909-8c6e-a2be538f60c8" d="M27,6.1c1.56,1.56,1,4.36,1.37,6.2h-.21a2.88,2.88,0,0,0,.11-.42h-.16a6.47,6.47,0,0,1,.05-1c-.26.13-.92,2.07-1.27,2.49l-.11-.05c1.11-1.1,1.21-3.49.9-4.88C27.51,7.93,26.57,6.47,27,6.1Z"/><path class="fe90086a-686e-45d6-b720-c3477cb297de" d="M18.89,2.81a8.59,8.59,0,0,0,.37,2.7h.1A18,18,0,0,0,19.26,8c.42-.63,1.64-3.87,1.85-3.76C21.11,3,19.94,2.88,18.89,2.81Z"/><path class="b88fd9de-c1a6-4307-bb88-ead1cc9af0f0" d="M11.3,2.7v.16l.37.05-.1.06h.21c0,.17.23.36.32.53l.05-.11a.91.91,0,0,0,0,.43h.11V4c.17,0,.2-.11.42-.15,0,.5-.15.83-.15,1.27.2-.14.09-.11.31-.11v.27h-.21c0,.54-.3,1.15,0,1.64-.33.33-.92.18-1.38.16C10.27,7,10.86,2.7,11.3,2.7Z"/><path class="bdced3bd-e65f-44cb-acc0-012c6a98e5c0" d="M20.85,3.34c.14-.07.07-.07.21,0-.08-.15-.21-.15-.21-.32C21.37,3.13,24,4,24,4.56h.16v.1c.22,0,.63.37.79.53-.14.29-.5,0-.74.11l.05-.11c-.73-.48-.82-.32-1.22-1.11l-.21,0v.16c-.17-.34-.65-.15-.95,0V4.08C21.28,4.08,21.26,3.61,20.85,3.34Z"/><path class="b06e3ba1-3398-4abe-8195-491fab5333f3" d="M7,4.35c0-.21-.07-1.15.42-.91,0-.48,1-.24,1.43-.26-.24.12-.66.9-.21.9v.11h.11c0,.31-.21.55-.21.79h.1c0,.82-.38,1.72-.42,2.65H8.07L8,8C7.83,7.57,7.49,4.35,7,4.35Z"/><path class="ae6417a1-5261-42ed-ae86-f3c01873bf56" d="M19.26,8.32h.16l-.16-.05c0-.61.59-.92.79-1.43.37-.92.41-1.83.85-2.71.33.17.05,1.44-.16,1.65l.05.1c-.21.11-.22.63-.26.85l.11,0c-.14.07-.11,0-.11.16l-.05-.1a2.61,2.61,0,0,1-.53.9L20,7.9l-.11,0,.06.11c-.22.11-.08.37-.43.37V8.32c-.14.15-.05.11-.26.11Z"/><path class="b0d0b4df-2def-4ea9-857e-527bbd3b90e9" d="M23.07,13.41a9,9,0,0,0-.1-1.48c-.17.34-1-.21-1.38.16l.21.05-.1.11.05.1c-.6,0-1,.16-1.38.16v-.16c-.14,1.88,2.22,1.46,3.71,1.54a3.35,3.35,0,0,1-.69-.16C23.39,13.46,23.35,13.47,23.07,13.41Z"/><path class="f77911b8-3faf-4a21-ab39-17770e4c8095" d="M23,7.16c-.37-.37-1.1-.1-1.54-.53-.28-.29.12-2,.42-2.34s.64-.08,1-.1v.1c.07-.22,0-.13.21-.26C23.58,5.14,22.67,6.25,23,7.16Z"/><path class="a3232e24-6af5-4c34-8291-c5781e53292d" d="M14.11,3l-.37-.06c0-.26,0-.07-.1-.58-.68-.06-.55-.24-.69,0,.25.26.28,1.1.31,1.44h.11V3.07c.38.76,0,2.38,0,3.13a1.69,1.69,0,0,1,.42,0l0,.11a2,2,0,0,0,.59,0L14.17,6l-.11.06L14,5.94h-.16C13.85,4.92,14.11,4,14.11,3Z"/><path class="fbaa66ac-64a0-4b6c-8057-4d908787315e" d="M7,4.35c.44,0,.76,3.22,1,3.6.07-.34,0-.24.27-.32a8.53,8.53,0,0,1,.1.85c-.07.62-1.3-1.11-1-1.7H7.22c0-.22-.07-.33,0-.53H7.11C7.11,5.62,7,5,7,4.35Z"/><path class="f38ec1d4-b875-4a48-aa41-0afa581e0d52" d="M8.44,7.63h.11c0,.23-.16.28-.16.64H8.28A9.09,9.09,0,0,1,8.65,5h-.1a7.84,7.84,0,0,1,.21-.79H8.65V4.08h-.1c0-.68,0-1,.84-.74,0,.52-.47,1.29-.31,1.75h.1c0,.31.06.2-.1.37V5.25c-.14.07-.07,0-.22,0,0,.17-.19.26-.1.42C8.43,6.06,8.5,7.19,8.44,7.63Z"/><path class="f754b9a5-86cb-44e7-afad-e8c2c71da3a2" d="M6.11,5.41l0-.11a.65.65,0,0,0,.11.32c.07-.14,0-.09.15-.16,0,1.44.31,1.49-.84,2.07,0-.49,0-.8-.48-.9V6.31L5,6.36l.06.16-.27.05V6.41l0,.11-.06-.27-.1.11C4.46,5.26,5.63,4,6.11,5.41Z"/><path class="a17f00c9-0362-4405-a4c2-4aeb89150fce" d="M24,7c0-1.6,0-1.24,1-1.75a1.32,1.32,0,0,0,.58.37c0,.36.52.56.64.9a1.12,1.12,0,0,1-.53-.42c-.17.08-.11,0-.11.26l-.11-.11c-.14.07-.11.16-.26.16-.07.2,0,.14-.16.22h.11c0,.54-.36.89-.48.15l0,.22C24.13,6.94,24.34,6.89,24,7Z"/><path class="e7e7e0a4-41b8-4a1a-82d6-eea999977322" d="M3.56,6.15c0,.38.17.79.21,1.17l.06-.27c.06.32.14.63.21,1C1.65,9.2,1.63,6.79,3.56,6.15Z"/><path class="be9b9f50-bf79-4b03-8d71-424ae8a44022" d="M11.62,3.44v.11h.11c0,.9.08,1.69,0,2.7.2,0,.08-.1.32-.1v.1h.1c0,.47-.92.59-1.11.27A.3.3,0,0,1,11,6.36C11,6.24,10.67,3.21,11.62,3.44Z"/><path class="b7c2943d-d27b-4e1c-a412-98060af16ee0" d="M5.58,7.42v.11c.7-.36.64.14,1-.8.76,1.52-3.12,1.94-1.91-.48l.11.27,0-.11v.16H5V6.36c.13.33,0,.27.32.27C4.06,6.84,5.28,8.32,5.58,7.42Z"/><path class="bea9d76d-c945-463b-9052-4b857f3ffae3" d="M14,3.87h.1c.08.4.07.17,0,.69a5.36,5.36,0,0,1,.16-.74c.2-.41.24-.48.74-.38.88.18-.26,3.4-.26,2.23-.19,0-.64.14-.64-.16H14A8.17,8.17,0,0,1,14,3.87Z"/><path class="e67cf15f-62ae-436f-88a9-d24798bd3f0f" d="M10.88,13.63c0,.17,0,.07,0,.31a7.9,7.9,0,0,1-3.23.53C7.41,13.61,10.73,13.63,10.88,13.63Z"/><path class="b36b9eec-16bc-4b7c-a838-71145f5840c5" d="M18.3,13.68a3.59,3.59,0,0,1,1.22.1c.39,0,.78,0,1.17.06.12,0,1.14.52.69.58a13.42,13.42,0,0,1-3-.21C18.08,14.16,18,13.74,18.3,13.68Z"/><path class="afaae1fb-aed5-42c3-a722-56685ef22ca0" d="M25,7.79l.16,0c-.53-.08-.93-.21-1.11-.74.31-.11.1-.06.64,0V6.84c.35.89.79-.21.42-.21.14-.07.11,0,.11-.16.19-.07.17-.13.31-.27C25.59,6.71,25.51,7.79,25,7.79Z"/><path class="faeaee82-929c-496e-969d-3978616ce199" d="M4.78,12.62a4.08,4.08,0,0,0,.8,0c.06-.31,0-.19.1-.37.85.12.42,1.08.27,1.69l-1.12,0Z"/><path class="ba6750fc-805e-477f-a911-b52f537c90ab" d="M15.39,6.78a2.88,2.88,0,0,0,.84-.42l-.16-.16L16.18,6c.32.16.57.09.8-.37a3.79,3.79,0,0,0,0,1l-.06-.11c-.06.13-.16.17-.16.32A3.78,3.78,0,0,0,16,7l.16-.11Z"/><path class="a09bb1e6-e89b-482b-91d5-7c4720ae9d70" d="M12.31.85l0,.26a8.42,8.42,0,0,1-2.75.43C9.61,1,12,.83,12.31.85Z"/><path class="ff8ba288-1568-44d6-be81-2aee0f75748b" d="M24.93,13.63l-.21-.06c0-1.42-.52-.63-1.49-.63C23.37,14.19,24.07,13.8,24.93,13.63Z"/><path class="b29bfbca-3df4-4e7e-b1bd-81b2c00f3e19" d="M4.14,12.72v-.1c-.38,0-.37,0-.63.1v-.1a7.62,7.62,0,0,0-.11,1.06,4.67,4.67,0,0,0,1.43.21C4.69,13.45,4.85,12.37,4.14,12.72Z"/><path class="b980eeee-4b02-429f-a19e-f8e4c29cfbd3" d="M15.86,12.41l-.32-.06.06-.9c-1.1,0-.9,0-.9,1.33.78.05.52-.06.84.1,0-.23,0-.22,0-.42Z"/><path class="eeaefdc3-0251-43e5-b3a8-0897baf7e784" d="M11.36,13.36c.7-.09,1.41-.12,2.12-.16a2.81,2.81,0,0,1,.21.58c-.48.06-.29.1-.58,0,0-.25-.07-.18.1-.26v.16h.27v-.16l-.32,0,.16-.06c-.28,0-2.84,1-1.86.06Z"/><path class="e3cec2b0-10e7-4605-854d-dddc2a5f7916" d="M13.37,11.66l.05.16c.71-.06.77-.17.85.53h.37c.13,1-.49.43-1.22.43A3.36,3.36,0,0,1,13.37,11.66Z"/><path class="fe40b540-cdb4-4ead-b5b5-277ef17c1cfc" d="M19.26,12.83c0-1,1.43-.18,1.22.69C20.33,14.1,19.27,13.17,19.26,12.83Z"/><path class="bc1f824a-1e70-4752-a25c-196b407d415f" d="M8.12,13.36c-.74-.5-.34-.53-1.32-.53v-.11a5.21,5.21,0,0,0-.11.91c.26,0,.47.14.74,0v.1C8,13.78,7.73,13.36,8.12,13.36Z"/><path class="fb91ce4b-304e-4ba3-8706-4a176b479766" d="M9.66,13c-.19.06-.32.16-.21.37-.34.34-.47.27-1,.27l0-.75a2.73,2.73,0,0,0,1-.37l.06.48Z"/><path class="f1dd33e7-c53a-45e9-9ea9-051b54b0360c" d="M19.68,1.06l-.16.1c.14.07.07.06.21.06v.21C16.66,1.43,17.72.08,19.68,1.06Z"/><path class="be9b9f50-bf79-4b03-8d71-424ae8a44022" d="M5.58,7.42C5.25,8.56,4.32,6.76,5,6.68c.26,0,.48.06.53.32A1,1,0,0,1,5.58,7.42Z"/></g></g></g></svg>