<svg xmlns="http://www.w3.org/2000/svg" viewBox="0 0 50.45 47.35"><defs><style>.f5e82a0d-310e-4434-a486-7d643703a5fb{fill:#261910;}.f9c64a49-eaa2-4f0c-ad4a-853a842eefd8{fill:#6e4625;}.a63df626-b9a1-42f5-9d95-dd69cfcebaee{fill:#ecb876;}.a8a672ca-05b4-4758-8a4e-95fb6f44c802{fill:#f1f2f2;}.ea916496-bd05-43ba-9aa4-a49c1411c7bd{fill:#553722;}.b5626348-5906-4a77-8246-2093a825b6bf{fill:#e0c5b3;}.ed636c0f-538a-46e2-8ea1-29fa84bf206e{fill:#ffe8d9;}</style></defs><g id="b1a03237-8de7-4eb5-9aa2-2ceb290bfb7b" data-name="Layer 2"><g id="be18f8d1-3647-42ec-beed-4a5fac7ca584" data-name="Layer 1"><g id="a822a751-4f3a-4877-bd28-0e17cc417216" data-name="Untitled"><path class="f5e82a0d-310e-4434-a486-7d643703a5fb" d="M27.44,39.82a9.56,9.56,0,0,0,0,1.07,2,2,0,0,0,.14.52.61.61,0,0,0,.24.32.37.37,0,0,0,.36,0,.51.51,0,0,0,.23-.37A1.4,1.4,0,0,0,28,40.24,2,2,0,0,0,27.44,39.82Z"/><path class="f5e82a0d-310e-4434-a486-7d643703a5fb" d="M22.36,40.35a1.18,1.18,0,0,0-.3,1.11.5.5,0,0,0,.29.28.32.32,0,0,0,.34-.07,1,1,0,0,0,.22-.4,2.45,2.45,0,0,0,.1-.54c0-.3,0-.6,0-.91A1.91,1.91,0,0,0,22.36,40.35Z"/><path class="f9c64a49-eaa2-4f0c-ad4a-853a842eefd8" d="M34.52,41.43a7.48,7.48,0,0,1-1.1-2s0,0,0-.06l-1.56-.44a7.66,7.66,0,0,1,.46.7,1.68,1.68,0,0,1,.35.81.09.09,0,0,1-.13.07,2.06,2.06,0,0,1-.52-.78c-.13-.29-.25-.56-.35-.85l-1.51-.4a4.91,4.91,0,0,1,.59,1c.16.33.41.73.25,1.08a0,0,0,0,1-.07,0c-.29-.19-.34-.59-.46-.9s-.41-.84-.62-1.26l-.78-.19a15.48,15.48,0,0,0-2.23-.37c-.37,0-.73,0-1.1,0-.18,0-.37,0-.55,0s-.37,0-.55,0a14.33,14.33,0,0,0-4.11.59c-.21.42-.43.82-.61,1.26s-.17.7-.46.89a.05.05,0,0,1-.08,0c-.16-.35.1-.75.25-1.08a4.84,4.84,0,0,1,.59-1l-1.51.41c-.1.28-.22.55-.35.83a1.88,1.88,0,0,1-.52.78.09.09,0,0,1-.13-.07,1.89,1.89,0,0,1,.35-.81c.14-.23.29-.46.44-.67L17,39.36a.06.06,0,0,1,0,.06,7.58,7.58,0,0,1-1.1,2,5.15,5.15,0,0,1-.57.58c.54,0,1.07-.09,1.6-.1a8.35,8.35,0,0,1,.6-.83,0,0,0,0,1,.06,0,2.15,2.15,0,0,1-.29.8h.75c.31,0,.61,0,.91.07l.06-.2a1.33,1.33,0,0,1,.25-.6,0,0,0,0,1,0,0,2,2,0,0,1-.05.72s0,.08,0,.12c.35,0,.69.11,1,.19A2.76,2.76,0,0,1,20.57,40c.26-.54.78-1.46,1.45-1.56.06,0,.11.07,0,.1a3.62,3.62,0,0,0-1.14,1.7,8.32,8.32,0,0,0-.21,2l1.05.28c.61.18,1.21.36,1.81.56a4.06,4.06,0,0,0,.49-.44,2,2,0,0,0,.37-.84s.08,0,.09,0a1.24,1.24,0,0,1-.16,1,1.73,1.73,0,0,1-.39.43c.42.15.84.29,1.26.45q.63-.24,1.26-.45a1.73,1.73,0,0,1-.39-.43,1.21,1.21,0,0,1-.16-1s.08,0,.09,0a2.1,2.1,0,0,0,.36.84,4.14,4.14,0,0,0,.5.44c.76-.25,1.53-.49,2.3-.7l.56-.14c0-.34,0-.67,0-1a4.08,4.08,0,0,0-1.37-2.72c-.06,0,0-.11.05-.1.67.1,1.19,1,1.44,1.56a2.75,2.75,0,0,1,.25,2.2c.35-.08.69-.14,1-.19a.62.62,0,0,1,0-.13,2.2,2.2,0,0,1-.06-.72s0,0,0,0a1.45,1.45,0,0,1,.25.6c0,.07.05.14.07.22A10.56,10.56,0,0,1,33,41.9h.17a2.12,2.12,0,0,1-.3-.79,0,0,0,0,1,.07,0c.18.28.43.53.59.83.53,0,1.06.05,1.6.1A6.15,6.15,0,0,1,34.52,41.43Zm-10-2a0,0,0,0,1-.08,0,1.56,1.56,0,0,0-.48-.6,2.25,2.25,0,0,0-.71-.22.11.11,0,0,1,0-.2.93.93,0,0,1,.92.2A.89.89,0,0,1,24.5,39.38Zm1.55,0s-.08,0-.09,0a.87.87,0,0,1,.39-.81.9.9,0,0,1,.91-.2.11.11,0,0,1,0,.2,2.33,2.33,0,0,0-.71.22A1.54,1.54,0,0,0,26.05,39.39Z"/><path class="a63df626-b9a1-42f5-9d95-dd69cfcebaee" d="M40,43h-.54a1.6,1.6,0,0,0,0,.21,8.17,8.17,0,0,0-.09.85c0,.05-.09.07-.1,0a4,4,0,0,1-.06-.84,2.09,2.09,0,0,1,0-.25c-.43,0-.87,0-1.3-.09l0,.18c0,.18-.07.36-.09.55s-.17.1-.16,0a4.38,4.38,0,0,0,0-.51,2.08,2.08,0,0,1,0-.25l-.73-.07a5.38,5.38,0,0,1-.07.69c0,.36,0,.73-.07,1.09a.09.09,0,0,1-.18,0,4.57,4.57,0,0,1,0-1.11,2.94,2.94,0,0,1,.08-.72l-.84-.09a7.91,7.91,0,0,0-.11,1.08,2.31,2.31,0,0,0,.38.94s.17.31.21.4l.09,0,.24,0,.53.08c.09,0,.21.06.28,0a1,1,0,0,0,.15-.29,1,1,0,0,1,.21-.3.67.67,0,0,1,.44-.18.89.89,0,0,1,.45.15,1.52,1.52,0,0,0,.79.1l.26,0h.09v0a.19.19,0,0,1,0-.08.53.53,0,0,1,.11-.21c.14-.2.32-.33.36-.59a.77.77,0,0,0-.16-.57A.29.29,0,0,1,40,43Z"/><path class="a8a672ca-05b4-4758-8a4e-95fb6f44c802" d="M36.17,45.11s0,0,0,0Z"/><path class="ea916496-bd05-43ba-9aa4-a49c1411c7bd" d="M37.2,42.22a1.64,1.64,0,0,1-.43-.44c-.05-.07.06-.13.12-.08a3.93,3.93,0,0,0,.66.47,2.08,2.08,0,0,0,.3.12c.67.06,1.35.1,2,.1a5.83,5.83,0,0,1-.8-.51,4.8,4.8,0,0,1-1.32-1.45h0c-.77-.15-1.54-.34-2.3-.54a5.93,5.93,0,0,0,.47.62,3.33,3.33,0,0,1,.61.7c0,.06-.05.11-.1.1-.32-.09-.56-.44-.75-.69a3,3,0,0,1-.46-.79l-1.68-.45h0a14.93,14.93,0,0,0,1.25,1.81,2.93,2.93,0,0,0,.53.47c.2.15.41.28.61.44Z"/><path class="a63df626-b9a1-42f5-9d95-dd69cfcebaee" d="M32.61,42.49l-.72,0-.26,0a2.24,2.24,0,0,1-.05.57q0,.36,0,.72a0,0,0,0,1-.08,0,6.13,6.13,0,0,1-.11-.73,1.4,1.4,0,0,1,0-.54,12.74,12.74,0,0,0-1.26.23l-.06.23a2.75,2.75,0,0,0-.05.57.1.1,0,0,1-.19,0c0-.2,0-.4,0-.6v-.12l-1,.27a4.52,4.52,0,0,1-.15.61c-.05.28-.07.56-.12.84a.06.06,0,0,1-.12,0,2.89,2.89,0,0,1,.08-1.36l-.21.06-.7.22a.06.06,0,0,1,0,.06,5.54,5.54,0,0,0,.1,1.86c0,.08,0,.11.1.13a1.58,1.58,0,0,0,.38,0l.23,0h.16l0,0a1.74,1.74,0,0,0,.11-.18,6.49,6.49,0,0,1,.46-.7,1.16,1.16,0,0,1,.74-.29c.25,0,.64-.18.85,0a.58.58,0,0,1,.14.42c0,.14,0,.28,0,.41,0,.49,0,1,0,1.48a.87.87,0,0,0,.28-.05c.15-.07.15-.25.18-.39a.9.9,0,0,1,.36-.58c.15-.11.35-.15.49-.27s.14-.33.18-.49.1-.52.14-.79a5.05,5.05,0,0,0,0-1.6A.41.41,0,0,1,32.61,42.49Z"/><path class="a63df626-b9a1-42f5-9d95-dd69cfcebaee" d="M13.94,42.75a2.94,2.94,0,0,1,.08.72A4.14,4.14,0,0,1,14,44.58c0,.11-.17.07-.18,0,0-.36,0-.73-.06-1.09s-.08-.46-.08-.69l-.73.07a2.09,2.09,0,0,1,0,.25,4.34,4.34,0,0,0,0,.51c0,.1-.14.09-.16,0a5.43,5.43,0,0,0-.09-.56.88.88,0,0,1,0-.17c-.44,0-.87.07-1.3.08a2.26,2.26,0,0,0,0,.26,4.57,4.57,0,0,1-.07.83c0,.06-.09,0-.09,0a8.17,8.17,0,0,0-.09-.85,2.25,2.25,0,0,0,0-.22h-.54a.43.43,0,0,1-.09.21.72.72,0,0,0-.14.65c.08.29.37.45.46.74a.14.14,0,0,1,0,.07l.14,0,.42,0a1.51,1.51,0,0,0,.42-.05c.15,0,.27-.14.41-.18a.68.68,0,0,1,.77.31c.09.13.14.46.33.47a2.43,2.43,0,0,0,.47-.08l.48-.07.1,0c0-.08.08-.15.11-.22l.22-.44a1.53,1.53,0,0,0,.25-.79c0-.33-.07-.65-.11-1Z"/><path class="a8a672ca-05b4-4758-8a4e-95fb6f44c802" d="M14.32,45.08h0S14.33,45.06,14.32,45.08Z"/><path class="f9c64a49-eaa2-4f0c-ad4a-853a842eefd8" d="M15.68,41.18a12.71,12.71,0,0,0,1.24-1.79l-1.67.44a3.08,3.08,0,0,1-.46.78c-.19.25-.43.6-.75.69,0,0-.12,0-.09-.1.11-.28.41-.47.61-.7a5.41,5.41,0,0,0,.46-.61c-.77.19-1.54.38-2.32.53a4.6,4.6,0,0,1-1.32,1.46,4.94,4.94,0,0,1-.81.51,19.9,19.9,0,0,0,2-.1,2.08,2.08,0,0,0,.3-.12,3.48,3.48,0,0,0,.66-.48c.06,0,.17,0,.12.09a1.64,1.64,0,0,1-.43.44l.2,0,1.09-.11A8,8,0,0,0,15.68,41.18Z"/><path class="a63df626-b9a1-42f5-9d95-dd69cfcebaee" d="M22.82,43.53l-.91-.28A3,3,0,0,1,22,44.61a.06.06,0,0,1-.12,0c-.05-.28-.07-.56-.13-.84s-.12-.4-.15-.61L21.17,43l-.55-.14V43c0,.2,0,.4,0,.6s-.2.12-.2,0a2.75,2.75,0,0,0-.05-.57c0-.07,0-.14-.05-.21-.33-.08-.65-.15-1-.2l-.28-.05a1.63,1.63,0,0,1,0,.54,3.68,3.68,0,0,1-.11.73,0,0,0,0,1-.08,0q0-.36,0-.72a2.69,2.69,0,0,1,0-.57l-1-.06a.41.41,0,0,1,0,.11,4.78,4.78,0,0,0,0,1.6c0,.26.09.53.14.79s0,.38.17.49.34.16.49.27a.86.86,0,0,1,.36.58c0,.15,0,.32.21.39a1.09,1.09,0,0,0,.26.05c0-.57,0-1.14,0-1.71,0-.28,0-.69.4-.71a3,3,0,0,1,.42.06l.42.07a.82.82,0,0,1,.62.41l.46.74v0h0l.2,0,.42,0c.07,0,.16,0,.21-.06a.82.82,0,0,0,.06-.27,6.3,6.3,0,0,0,.06-1.68Z"/><path class="a8a672ca-05b4-4758-8a4e-95fb6f44c802" d="M28.59,45.69h0S28.58,45.69,28.59,45.69Z"/><path class="a63df626-b9a1-42f5-9d95-dd69cfcebaee" d="M43.49,42.66c0,.18,0,.37-.05.55s-.1.08-.12,0a2.56,2.56,0,0,1,0-.62v-.15l-.61.19,0,.07a1.68,1.68,0,0,1,.07.63c0,.14,0,.29.11.37a.48.48,0,0,0,.32.08,1.09,1.09,0,0,0,.51-.24,1.59,1.59,0,0,1,.27-.18l.3-.1c.11,0,.13-.12.15-.25,0-.37.08-.74.12-1.12a7.64,7.64,0,0,1-1,.46C43.53,42.46,43.5,42.56,43.49,42.66Z"/><path class="f9c64a49-eaa2-4f0c-ad4a-853a842eefd8" d="M12.53,40.46l-.9.17c-.94.16-1.88.27-2.84.34a1.6,1.6,0,0,1-.37.31,1.31,1.31,0,0,1-.59.29s-.06,0,0,0,.32-.25.48-.39L8.41,41a20.87,20.87,0,0,1-3-.06,8.13,8.13,0,0,0,1,.6,7.31,7.31,0,0,0,1.66.6c.23-.1.51-.12.75-.21A5.37,5.37,0,0,0,10,41.29s.07,0,.05.06a3.11,3.11,0,0,1-1,.74l-.34.16.17,0c.28,0,.56.07.85.09.12-.06.25-.09.41-.15a5,5,0,0,0,1-.47A5.72,5.72,0,0,0,12.53,40.46Z"/><path class="ea916496-bd05-43ba-9aa4-a49c1411c7bd" d="M42.06,41a.93.93,0,0,0,.14.14c.15.14.33.24.47.39s0,.06,0,0a1.4,1.4,0,0,1-.6-.29,1.85,1.85,0,0,1-.37-.31,31.13,31.13,0,0,1-3.74-.51,5.51,5.51,0,0,0,2.5,1.79l.32.11a8.86,8.86,0,0,0,1-.12l-.34-.15a3.26,3.26,0,0,1-1-.74s0-.09.05-.06a5.86,5.86,0,0,0,1.12.63c.23.09.52.11.75.21a7.62,7.62,0,0,0,1.91-.73,7.54,7.54,0,0,0,.77-.47A20.76,20.76,0,0,1,42.06,41Z"/><path class="b5626348-5906-4a77-8246-2093a825b6bf" d="M24.1,32.85c-.31,0-.61,0-.91.06a27,27,0,0,0-3.44.74c-.75.19-1.53.3-2.28.5a8,8,0,0,1-1.91,1.57A23.66,23.66,0,0,0,19.08,35c1.33-.33,2.66-.7,4-.91,0,0,0,0,0,0-1.36.5-2.78.82-4.18,1.2a12.47,12.47,0,0,1-4,.74l0,0a7.08,7.08,0,0,1-5.44.18,5.83,5.83,0,0,1-.72-.32c-.6,0-1.2,0-1.79,0-1.08,0-2.15-.1-3.22-.23a23.73,23.73,0,0,1-2.63-.46,2.82,2.82,0,0,0-.08,1c1.37.09,2.63.56,4,.64a0,0,0,1,1,0,0,6.54,6.54,0,0,1-1.82-.11,10.85,10.85,0,0,0-2.12-.24,2.92,2.92,0,0,0,.54,1.14,3.64,3.64,0,0,1,.37.59,1.76,1.76,0,0,1,.1.3,4,4,0,0,1,.84.09l1.3.15c.8.09,1.61.16,2.41.19A22.35,22.35,0,0,0,12,38.5s0,0,0,0a13.63,13.63,0,0,1-5.26.87c-.92,0-1.83-.1-2.74-.2A9.67,9.67,0,0,1,2.18,39a3,3,0,0,0,.1.32.19.19,0,0,0,0,.08.11.11,0,0,1,0,.06l0,.05a.25.25,0,0,0,0,.07.63.63,0,0,0,.21.22.9.9,0,0,0,.42.1H3.1c.35.09.71.16,1.06.23a22.71,22.71,0,0,0,8.69-.36c1.43-.3,2.85-.68,4.26-1.07s2.84-.83,4.29-1.15a16.19,16.19,0,0,1,2.18-.34,10.17,10.17,0,0,1,1.1,0c.19,0,.37,0,.55,0s.37,0,.55,0a15.39,15.39,0,0,1,4.36.64c2.85.74,5.65,1.64,8.56,2.16a20.39,20.39,0,0,0,8.66-.08h.08a.92.92,0,0,0,.47-.13l.06-.05.05-.06a1.4,1.4,0,0,0,.1-.16l0,0,0-.07a.5.5,0,0,1,0-.13,2.68,2.68,0,0,0,.07-.27c-.23,0-.47.06-.7.09-.4.06-.81.1-1.22.15-.87.09-1.75.16-2.63.18a13.66,13.66,0,0,1-5.26-.87s0,0,0,0a22.35,22.35,0,0,0,5.35.48c.84,0,1.68-.11,2.52-.2l1.19-.14a4,4,0,0,1,.84-.09,1.72,1.72,0,0,1,.19-.47c.12-.2.27-.38.4-.58a2.75,2.75,0,0,0,.42-1,11.67,11.67,0,0,0-2.12.24,6.54,6.54,0,0,1-1.82.11,0,0,0,1,1,0,0c1.36-.08,2.62-.55,4-.64a2.84,2.84,0,0,0-.08-1c-.44.11-.88.2-1.33.27a33.21,33.21,0,0,1-6.3.43,7.24,7.24,0,0,1-1.36.53,7.14,7.14,0,0,1-4.84-.41,12.52,12.52,0,0,1-4-.74c-1.39-.38-2.82-.71-4.17-1.2,0,0,0,0,0,0,1.36.21,2.69.58,4,.91a23.4,23.4,0,0,0,3.52.73A8,8,0,0,1,33,34.15c-.86-.24-1.76-.36-2.63-.59a19.48,19.48,0,0,0-3.56-.69c-.3,0-.61,0-.91,0s-.6,0-.9,0A6.76,6.76,0,0,0,24.1,32.85Zm1.13,3.08a28.47,28.47,0,0,1,8.21,1.25,0,0,0,1,1,0,.09c-1.37-.22-2.73-.54-4.1-.75a26.69,26.69,0,0,0-4.09-.28,38.26,38.26,0,0,0-8.18,1,.05.05,0,0,1,0-.1A34.06,34.06,0,0,1,25.23,35.93Z"/><path class="b5626348-5906-4a77-8246-2093a825b6bf" d="M46.91,18.15a22.79,22.79,0,0,0-2.35.17c-1.08.11-2.16.26-3.25.35s-2.25.11-3.37.1c-2.26,0-4.52-.12-6.77-.19l-3.36-.1c-1.14,0-2.28-.08-3.42-.05l-6.78.2c-2.25.07-4.5.19-6.75.13s-4.38-.46-6.58-.58a5.77,5.77,0,0,0-2.8.29,1.43,1.43,0,0,0-.83,1,1.32,1.32,0,0,0,0,.44c.93-.1,1.8-.45,2.73-.53a9.71,9.71,0,0,1,2.89.3s0,0,0,0a13.79,13.79,0,0,0-3.08,0,17.84,17.84,0,0,1-2.5.5,4.88,4.88,0,0,0,.2.65c.13.33.3.66.45,1a.1.1,0,0,1,.05,0,11.39,11.39,0,0,1,2-.33,16.05,16.05,0,0,1,2.3-.14s0,0,0,.06c-.9.14-1.81.26-2.7.42-.38.07-1.25.46-1.6.17a3.34,3.34,0,0,1,.39,1.64v0a9.38,9.38,0,0,1,1.06,0c.44,0,.88,0,1.31,0,0,0,0,0,0,0a4.57,4.57,0,0,1-2.4.15,4,4,0,0,0-.14,1.28v.05a2,2,0,0,1,.93-.23,6.38,6.38,0,0,1,1.38,0,.07.07,0,0,1,0,.13c-.47,0-.94.08-1.41.16a2.58,2.58,0,0,1-.86.14,6.71,6.71,0,0,0,.48,1.14.32.32,0,0,1,0,.09l.2-.07a3.49,3.49,0,0,1,1.54,0c.15-.12.31-.23.47-.34l.06,0,.12-.07a11.44,11.44,0,0,1,4.2-1.35,31.92,31.92,0,0,1,5.17-.33c1.72,0,3.43.12,5.14.27,1.39.12,2.78.27,4.17.42a19.8,19.8,0,0,0,2.19.16c.91,0,1.82-.16,2.72-.26,1.49-.16,3-.31,4.48-.42,1.75-.12,3.51-.2,5.26-.16a26.4,26.4,0,0,1,5,.53A10.43,10.43,0,0,1,46,26.11l.08.05c.16.11.31.21.46.33a3,3,0,0,1,1.74,0l0-.09a5.41,5.41,0,0,0,.48-1.14,2.58,2.58,0,0,1-.86-.14C47.5,25.07,47,25,46.56,25a.07.07,0,0,1,0-.13,6.36,6.36,0,0,1,1.38,0,2,2,0,0,1,.93.23v-.05a4,4,0,0,0-.14-1.28,4.57,4.57,0,0,1-2.4-.15s0,0,0,0c.43,0,.87,0,1.31,0a9.38,9.38,0,0,1,1.06,0A2.9,2.9,0,0,1,49,22.21c0-.09.08-.18.12-.28-.35.28-1.22-.1-1.59-.17-.9-.16-1.81-.28-2.71-.42a0,0,0,0,1,0-.06,16.05,16.05,0,0,1,2.3.14,10.41,10.41,0,0,1,2,.33.07.07,0,0,1,.05,0,6.41,6.41,0,0,0,.66-1.64,18.27,18.27,0,0,1-2.51-.5,13.22,13.22,0,0,0-3.08,0s0,0,0,0a9.61,9.61,0,0,1,2.88-.3c.94.08,1.8.43,2.74.53a1.81,1.81,0,0,0,0-.4c-.2-.94-1.27-1.23-2.13-1.29A6.77,6.77,0,0,0,46.91,18.15ZM17.16,19.54c1.38.15,2.75.29,4.15.32s2.61-.11,3.92-.1,2.69.18,4,.16,2.69-.13,4-.25a.05.05,0,0,1,0,.1,26,26,0,0,1-4,.42c-1.35,0-2.69-.12-4-.11-.71,0-1.42.13-2.14.16s-1.35,0-2,0a27.6,27.6,0,0,1-4-.34C16.9,19.87,16.94,19.51,17.16,19.54Zm19.71,1c.93,0,1.86,0,2.79,0a9.21,9.21,0,0,1,2.57.2c.06,0,.08.13,0,.14a11.64,11.64,0,0,1-2.57-.05c-.93,0-1.86,0-2.79,0C36.69,20.85,36.69,20.57,36.87,20.57Zm-23.28,0a.14.14,0,1,1,0,.28c-.93,0-1.85,0-2.78,0a11.65,11.65,0,0,1-2.57.05c-.08,0-.07-.12,0-.14a9.15,9.15,0,0,1,2.57-.2C11.73,20.56,12.66,20.56,13.59,20.57Zm-1.08,1.84c.68,0,1.36,0,2,0,2.8.12,5.58.48,8.39.35.06,0,.08.1,0,.11a41.32,41.32,0,0,1-8.17-.08,27.92,27.92,0,0,0-4.19.08c-.76.07-1.51.18-2.26.31a13.3,13.3,0,0,1-1.88.27.09.09,0,0,1,0-.17,16.66,16.66,0,0,1,4-.75C11.15,22.47,11.83,22.43,12.51,22.41Zm25.5,0a20.77,20.77,0,0,1,2.09.16A16.73,16.73,0,0,1,44,23.3a.09.09,0,0,1,0,.17,12.09,12.09,0,0,1-2-.29c-.75-.12-1.5-.23-2.26-.3a27.79,27.79,0,0,0-4.08-.07,41.32,41.32,0,0,1-8.17.08c-.06,0-.05-.11,0-.11,2.81.13,5.58-.23,8.39-.34C36.62,22.41,37.31,22.4,38,22.41Z"/><path class="f9c64a49-eaa2-4f0c-ad4a-853a842eefd8" d="M47.62,27a3.38,3.38,0,0,0-.45,0,3,3,0,0,1-.15.68,0,0,0,0,1-.07,0,1.66,1.66,0,0,1-.11-.58.43.43,0,0,0,0-.05l-.55.12c0,.05,0,.1,0,.14a9.57,9.57,0,0,1-1.55,5.9,8.38,8.38,0,0,1-2.06,2.14h.89a.11.11,0,0,1,0-.11,3.36,3.36,0,0,0,.41-.34c.1-.11.2-.26.36-.28s.08,0,.09.07-.15.3-.28.41l-.29.24,1,0c.1-.13.22-.25.32-.36s.31-.36.47-.53,0,0,0,0a3.77,3.77,0,0,1-.37.65l-.15.19.72-.06a5,5,0,0,1,.49-.8A10.89,10.89,0,0,0,47,33.2a0,0,0,0,1,.07,0,2.91,2.91,0,0,1-.3,1.29,3.28,3.28,0,0,1-.37.64l1-.13a3.18,3.18,0,0,1,.24-.53,0,0,0,0,1,.08,0,.69.69,0,0,1-.09.48l.79-.14c0-.24.08-.47.13-.71a.06.06,0,0,1,.11,0c0,.21,0,.42,0,.64l.24-.06a.49.49,0,0,1,0-.12,11.86,11.86,0,0,0,.2-2.23,4.71,4.71,0,0,0-.1-.92,9.27,9.27,0,0,0-.29-1,7,7,0,0,1-.25-1,3.14,3.14,0,0,1,0-1.06,2,2,0,0,0,0-.93A.71.71,0,0,0,48,27l-.12,0a2.63,2.63,0,0,1,.06.47,1.38,1.38,0,0,1,0,.64.11.11,0,0,1-.19,0,1.14,1.14,0,0,1-.13-.61A2,2,0,0,1,47.62,27ZM47,28a.12.12,0,0,1,.13.14,5,5,0,0,1-.44,2.09c0,.09-.17,0-.15-.06a10.71,10.71,0,0,0,.31-2A.14.14,0,0,1,47,28Zm.71.85s0,0,.06,0a2.4,2.4,0,0,1,.07.6,1,1,0,0,1-.11.56.1.1,0,0,1-.18,0,1.3,1.3,0,0,1,0-.48c0-.22.06-.43.08-.65A.05.05,0,0,1,47.7,28.86Zm-1.76,3.49a.08.08,0,0,1,.11.07c0,.34-.31.76-.49,1a2.69,2.69,0,0,1-.78.83,0,0,0,0,1,0,0,8.5,8.5,0,0,0,.68-1C45.58,33,45.66,32.54,45.94,32.35Zm2.72.46a.09.09,0,0,1,.07.08c0,.11,0,.23,0,.35a.61.61,0,0,1,0,.3.09.09,0,0,1-.13,0c-.18-.15-.1-.49,0-.68A.1.1,0,0,1,48.66,32.81Zm-.58.3a.1.1,0,0,1,.05,0,.76.76,0,0,1,0,.42,4.13,4.13,0,0,1-.15.5.06.06,0,1,1-.12,0c0-.16.08-.32.11-.48a.87.87,0,0,1,.1-.42A.05.05,0,0,1,48.08,33.11Zm-1.85.1a.06.06,0,0,1,0,.07c0,.11-.07.24-.11.35a.49.49,0,0,1-.18.26.06.06,0,0,1-.09,0,.43.43,0,0,1,.07-.29c.06-.11.13-.22.2-.33A.06.06,0,0,1,46.23,33.21Z"/><path class="b5626348-5906-4a77-8246-2093a825b6bf" d="M6.62,9.25c4.3-.25,8.61.11,12.91.23,1.08,0,2.16,0,3.23,0l1.62,0c.28,0,.57,0,.85,0l.76,0c2.17.09,4.34,0,6.51,0s4.32-.2,6.48-.24a42,42,0,0,1,6.34.2A13.47,13.47,0,0,1,47,9.7c-.07-.21-.14-.43-.22-.63A4,4,0,0,1,46.07,9l-.92-.07c-.07,0-.07-.09,0-.1a6.56,6.56,0,0,1,1,0,4.55,4.55,0,0,1,.52,0v0c0-.08-.07-.17-.11-.25-.25,0-.5-.11-.74-.16l-1.38-.26a27.89,27.89,0,0,0-2.88-.33A53.31,53.31,0,0,0,36,7.74a0,0,0,0,1,0,0,26.58,26.58,0,0,1,5.64-.18c.94.07,1.88.18,2.82.31a14,14,0,0,1,1.83.27c-.24-.49-.51-1-.79-1.42L45,5.9a.12.12,0,0,1-.12.11C44,6,43,5.87,42,5.84s-1.76,0-2.65,0c-1.84,0-3.68.18-5.53.21a0,0,0,0,1,0,0c1.83-.24,3.68-.38,5.53-.45A27.16,27.16,0,0,1,45,5.76h0c-.22-.35-.45-.7-.7-1a2.31,2.31,0,0,0-1.73-1,4.91,4.91,0,0,0-1.15.07.25.25,0,0,1-.17,0c-.35.06-.7.15-1,.22a16.86,16.86,0,0,1-2.52.45,9.68,9.68,0,0,1-2.52-.2c-.87-.16-1.73-.31-2.61-.4s-1.75-.15-2.62-.18c-1.77-.06-3.55-.1-5.32-.07s-3.54,0-5.31.13c-.89.06-1.77.15-2.65.29s-1.67.33-2.52.41a17.41,17.41,0,0,1-4.86-.65.25.25,0,0,1-.15,0h0A3,3,0,0,0,6.93,4,4.94,4.94,0,0,0,5.59,5.65l-.07.11a27.09,27.09,0,0,1,5.55-.17c1.85.08,3.7.21,5.54.45,0,0,0,0,0,0-1.85,0-3.69-.17-5.53-.21S7.39,6,5.54,6a.13.13,0,0,1-.12-.1C5,6.62,4.53,7.34,4.15,8.09A14.5,14.5,0,0,1,6,7.82c.93-.13,1.87-.24,2.8-.31a25.94,25.94,0,0,1,5.64.19s0,0,0,0a53.47,53.47,0,0,0-5.52.06C8,7.87,7,8,6.05,8.13l-1.39.26c-.24,0-.48.12-.73.16l-.12.28a2.85,2.85,0,0,1,.51,0,5.44,5.44,0,0,1,1,0,.06.06,0,0,1,0,.11L4.39,9a5.36,5.36,0,0,1-.68.06c-.08.21-.16.42-.23.64l.12,0A15.48,15.48,0,0,1,6.62,9.25ZM19.51,4.67a8,8,0,0,1,1.61.13c.46,0,.92.08,1.38.1.91,0,1.82.07,2.73.08C27.15,5,29,4.9,31,4.74a0,0,0,0,1,0,.09,30.9,30.9,0,0,1-5.85.42c-1,0-2.05,0-3.07,0a7.44,7.44,0,0,1-2.58-.32C19.34,4.83,19.42,4.69,19.51,4.67Zm0,3.08c.89-.34,1.89.15,2.83,0a21.79,21.79,0,0,1,2.91.06,25.32,25.32,0,0,1,2.89,0c.95.12,1.9-.3,2.82,0,.06,0,0,.1,0,.09-.88-.24-1.76.2-2.65.11s-2,.06-3,.07-2-.08-3,0a23.28,23.28,0,0,0-2.64-.08A.17.17,0,0,1,19.49,7.75Z"/><path class="b5626348-5906-4a77-8246-2093a825b6bf" d="M15.05,3.71c.88-.15,1.75-.32,2.64-.42s1.83-.16,2.75-.2C22.26,3,24.1,3,25.93,3s3.62,0,5.43.15c.92.07,1.83.16,2.73.31a25.74,25.74,0,0,0,2.61.41,14.06,14.06,0,0,0,3.75-.55h0c-.34-.2-.68-.39-1-.57l0,0a18.52,18.52,0,0,1-4.14-.14,20.62,20.62,0,0,0-4.36-.28,0,0,0,1,1,0-.06,11.53,11.53,0,0,1,4.14,0c.76.06,1.53.12,2.29.16.59,0,1.19,0,1.78.08A24.48,24.48,0,0,0,34.67.93C32.53.35,30.32.68,28.15.86c-.55,0-1.1.08-1.65.09H24.81a26,26,0,0,1-3.3-.15A26.13,26.13,0,0,0,18.2.6a9.41,9.41,0,0,0-1.59.15,11.75,11.75,0,0,0-1.55.4,22.22,22.22,0,0,0-3.63,1.42c.62-.07,1.27,0,1.89-.09s1.45-.09,2.17-.15a11.53,11.53,0,0,1,4.14,0s0,.07,0,.06a20.72,20.72,0,0,0-4.37.28,18.45,18.45,0,0,1-4.13.14s0,0,0,0c-.37.19-.72.38-1.07.59.79.18,1.58.38,2.4.49A8.67,8.67,0,0,0,15.05,3.71Zm7.26-2.09c1,.09,2,.25,2.92.27s2-.12,2.93-.17c0,0,0,.07,0,.07-1,.12-2,.31-2.93.34a28.49,28.49,0,0,1-2.92-.24C22.13,1.88,22.13,1.61,22.31,1.62Z"/><path class="f9c64a49-eaa2-4f0c-ad4a-853a842eefd8" d="M2.84,27a2,2,0,0,1,0,.54,1,1,0,0,1-.13.61.1.1,0,0,1-.18,0,1.38,1.38,0,0,1,0-.64c0-.15,0-.31.06-.47a1.31,1.31,0,0,0-.28.09c-.61.28-.35,1.06-.29,1.56a5,5,0,0,1-.37,2,7.44,7.44,0,0,0-.25,1,6,6,0,0,0,0,.95,10.88,10.88,0,0,0,.2,2,.24.24,0,0,1,0,.12l1,.19.29,0a.66.66,0,0,1-.09-.47s.07,0,.09,0a3.27,3.27,0,0,1,.22.51l1,.14a3.73,3.73,0,0,1-.36-.63,2.91,2.91,0,0,1-.3-1.29s.06,0,.07,0c.19.4.36.81.58,1.19a5,5,0,0,1,.49.8l.72.06-.15-.19a3.45,3.45,0,0,1-.36-.65s0-.06,0,0,.31.35.47.53.23.23.33.36l1,0a3.65,3.65,0,0,1-.31-.24C6.12,35,6,34.84,6,34.66a.09.09,0,0,1,.1-.07c.16,0,.24.18.35.29a3.29,3.29,0,0,0,.41.33.11.11,0,0,1,0,.12h.9a8.38,8.38,0,0,1-2.43-2.73,9.69,9.69,0,0,1-1.17-5.45l-.55-.11v.07a1.66,1.66,0,0,1-.1.54,0,0,0,0,1-.08,0A4.14,4.14,0,0,1,3.29,27H2.84Zm.64,1a.14.14,0,0,1,.14.14,10.71,10.71,0,0,0,.31,2,.08.08,0,0,1-.15.06,5,5,0,0,1-.44-2.09A.13.13,0,0,1,3.48,28Zm-.72.85a0,0,0,0,1,.05.05c0,.22,0,.43.08.65a1,1,0,0,1,0,.48c0,.08-.13.08-.18,0a1,1,0,0,1-.11-.56,3,3,0,0,1,.07-.6S2.73,28.85,2.76,28.86Zm1.69,3.49s0,0,.07,0c.28.18.37.61.52.89a11.26,11.26,0,0,0,.69,1s0,.06-.05,0a2.58,2.58,0,0,1-.77-.84c-.19-.28-.53-.69-.5-1A.08.08,0,0,1,4.45,32.35Zm-2.65.46a.09.09,0,0,1,.09.06c.07.19.15.53,0,.69a.08.08,0,0,1-.12,0,.61.61,0,0,1,0-.3c0-.12,0-.23,0-.35A.1.1,0,0,1,1.8,32.81Zm.58.3a.05.05,0,0,1,.05,0,1,1,0,0,1,.11.42c0,.16.06.32.1.48a.06.06,0,0,1-.12,0l-.15-.5a.86.86,0,0,1,0-.42A.1.1,0,0,1,2.38,33.11Zm1.86.1a.05.05,0,0,1,.07,0,2.9,2.9,0,0,1,.2.33.44.44,0,0,1,.08.29.07.07,0,0,1-.1,0,.43.43,0,0,1-.17-.26c-.05-.11-.08-.24-.12-.35A.05.05,0,0,1,4.24,33.21Z"/><path class="b5626348-5906-4a77-8246-2093a825b6bf" d="M5.05,17.64c1.15.1,2.29.26,3.43.37a33.26,33.26,0,0,0,3.46.17c2.35,0,4.71-.11,7.06-.18l3.56-.11c1.19,0,2.37-.08,3.56-.05l7,.21c2.36.07,4.73.2,7.1.1s4.54-.57,6.84-.59a5.53,5.53,0,0,1,1.8.23,8.15,8.15,0,0,1-.16-.86c0-.13,0-.26,0-.39a2.29,2.29,0,0,1-.67-.06,11,11,0,0,0-1.28,0,23.14,23.14,0,0,0-2.64.27,16,16,0,0,1-4.73.22c-.07,0,0-.14,0-.13a30.69,30.69,0,0,0,5.24-.59,16.38,16.38,0,0,1,2.32-.2,4.52,4.52,0,0,1,1.7.13c-.06-.68-.07-1.37-.07-2.06v-.2c-4.26,0-8.49.59-12.75.58a.15.15,0,0,1,0-.29c4.26,0,8.5-.57,12.75-.69a13.87,13.87,0,0,0-.07-2c-3-.61-6-.25-9.07-.16,0,0,0,0,0,0a26.3,26.3,0,0,1,9-.18.56.56,0,0,0-.17-.21,1.75,1.75,0,0,0-.52-.28,9.89,9.89,0,0,0-1.41-.41,17.19,17.19,0,0,0-2.95-.33c-4.21-.19-8.41.14-12.61.25-1,0-2.09,0-3.14,0l-1.56,0c-.53,0-1,0-1.57,0-2.09.09-4.18,0-6.27,0S14,9.84,11.87,9.79a49.32,49.32,0,0,0-6.2.13,11.32,11.32,0,0,0-2.88.63,1.33,1.33,0,0,0-.72.5,26.18,26.18,0,0,1,9,.18s0,0,0,0c-3-.09-6-.45-9.07.16a10.64,10.64,0,0,0-.07,1.26v.78c4.25.12,8.49.66,12.75.69a.15.15,0,0,1,0,.29c-4.26,0-8.5-.56-12.75-.58,0,.76,0,1.52-.08,2.27A4.37,4.37,0,0,1,3.52,16a16.38,16.38,0,0,1,2.32.2,30.69,30.69,0,0,0,5.24.59.07.07,0,0,1,0,.13,15.92,15.92,0,0,1-4.72-.22,23.14,23.14,0,0,0-2.64-.27,11,11,0,0,0-1.28,0,2.41,2.41,0,0,1-.68.06,10.49,10.49,0,0,1-.2,1.25A9.85,9.85,0,0,1,5.05,17.64Zm27.16-.4C31,17.17,29.81,17,28.6,17s-2.25.07-3.37.07S23,17,21.86,17s-2.41.09-3.61.17c0,0,0-.06,0-.07a29.08,29.08,0,0,1,3.37-.28c1.21,0,2.41.05,3.61.05a44.23,44.23,0,0,1,7,.18C32.34,17.07,32.31,17.24,32.21,17.24ZM19,14.52a114.37,114.37,0,0,0,12.42.13c.06,0,.07.08,0,.09a28.41,28.41,0,0,1-6.11.38c-2.13,0-4.21,0-6.33-.24C18.79,14.85,18.78,14.49,19,14.52Zm-4.38-2.94a.09.09,0,0,1,0-.18,39.32,39.32,0,0,1,5.2-.29c1.78,0,3.53.17,5.3.22.91,0,1.85-.13,2.77-.16s1.76,0,2.65,0c1.77,0,3.53.11,5.3.27.1,0,.1.17,0,.16-1.77-.14-3.53-.21-5.3-.19-.89,0-1.77,0-2.65.08s-1.78.19-2.65.18-1.77-.13-2.65-.17-1.76-.06-2.65-.06C18.16,11.41,16.4,11.52,14.64,11.58Z"/><path class="a63df626-b9a1-42f5-9d95-dd69cfcebaee" d="M7.19,42.61a2.56,2.56,0,0,1-.05.62c0,.06-.11,0-.11,0L7,42.66c0-.1,0-.19,0-.29a9,9,0,0,1-1-.46c0,.37.07.75.12,1.12,0,.13,0,.21.15.25l.29.1a1.27,1.27,0,0,1,.27.18,1.2,1.2,0,0,0,.51.24.42.42,0,0,0,.32-.08c.11-.08.11-.23.11-.37a1.91,1.91,0,0,1,.07-.63l0-.06-.61-.19Z"/><path class="ea916496-bd05-43ba-9aa4-a49c1411c7bd" d="M31.06,25.27l-.34,0a3,3,0,0,1-.23.27,3.34,3.34,0,0,0-.25.4c0,.05-.13,0-.11,0a2.81,2.81,0,0,1,.21-.47.75.75,0,0,1,.07-.12l-1.17.12a10.82,10.82,0,0,0-.36,3.76c0,.07-.1.08-.12,0a5.64,5.64,0,0,1,.32-3.77l-1,.1a10.68,10.68,0,0,0-.46,2.7s0,0,0,0a4.34,4.34,0,0,1,.19-2.66l-.6.06-.46.05c0,.33-.08.65-.1,1a2.14,2.14,0,0,1-.12.91s-.08,0-.09,0a1.67,1.67,0,0,1,0-1,6.39,6.39,0,0,1,.18-.87l-.72.06a3,3,0,0,1-.06.59,5.7,5.7,0,0,1-.17.9,0,0,0,0,1-.07,0,5.25,5.25,0,0,1,0-1,2.07,2.07,0,0,1,0-.5h-.72a2.75,2.75,0,0,1,0,.5,6.29,6.29,0,0,1,0,1s-.07,0-.08,0a7.08,7.08,0,0,1-.16-.9,2.86,2.86,0,0,1-.06-.58c-.24,0-.48,0-.72-.06a6.39,6.39,0,0,1,.18.87,1.72,1.72,0,0,1,0,1,.05.05,0,0,1-.09,0,2.11,2.11,0,0,1-.12-.9c0-.32-.06-.64-.1-1l-1.07-.13a4.3,4.3,0,0,1,.2,2.67s0,0,0,0a10.69,10.69,0,0,0-.47-2.69l-.95-.1a5.6,5.6,0,0,1,.31,3.76c0,.07-.12.05-.12,0a10.64,10.64,0,0,0-.35-3.77l-1.17-.11.07.12a2.81,2.81,0,0,1,.21.47c0,.06-.08.1-.11,0a3.73,3.73,0,0,0-.25-.39c-.07-.09-.17-.18-.23-.27l-.34,0,.12.48a9.88,9.88,0,0,1-.74,6.44,7.78,7.78,0,0,1-.72,1.2l1.21-.24a11.14,11.14,0,0,1,.6-1.37,14.11,14.11,0,0,0,.51-1.51c0-.05.09,0,.08,0a5.28,5.28,0,0,1-.81,2.78L20,33l.55-.15c.1-.37.3-.72.42-1.09s.24-.83.35-1.25a0,0,0,0,1,.07,0,4.84,4.84,0,0,1-.47,2.24c.44-.11.89-.21,1.35-.29a18,18,0,0,0,.3-1.93,6.85,6.85,0,0,1,.19-1.63c0-.07.14-.08.16,0a4.28,4.28,0,0,1-.06,1.67c-.1.62-.24,1.25-.39,1.86l.7-.1a3.38,3.38,0,0,1,.11-.34c.05-.17.12-.34.16-.51s.12,0,.11,0a3.55,3.55,0,0,1-.06.55c0,.08,0,.17-.06.26l.21,0c.24,0,.49,0,.73,0a7.71,7.71,0,0,1,.11-.84,5.93,5.93,0,0,1,.13-.86.1.1,0,0,1,.19,0,4.16,4.16,0,0,1-.12.93,3.85,3.85,0,0,1-.16.75h0a7.22,7.22,0,0,0,.93,0l.49,0a3.85,3.85,0,0,1-.16-.75,4.16,4.16,0,0,1-.12-.93.1.1,0,0,1,.19,0,4.82,4.82,0,0,1,.13.86c0,.27.1.56.11.84.31,0,.62,0,.94,0A2.44,2.44,0,0,1,27,32a3.43,3.43,0,0,1-.06-.55.06.06,0,0,1,.11,0c0,.17.11.33.16.5a2.24,2.24,0,0,1,.11.34l.7.1c-.15-.61-.28-1.23-.38-1.86a4.1,4.1,0,0,1-.07-1.67.09.09,0,0,1,.16,0,6.38,6.38,0,0,1,.19,1.63,16,16,0,0,0,.31,1.94c.45.08.9.18,1.35.29a4.89,4.89,0,0,1-.48-2.25s.06,0,.07,0c.11.42.21.84.35,1.26s.33.72.42,1.09l.89.23A5.31,5.31,0,0,1,30,30.28c0-.05.07-.06.08,0,.13.5.33,1,.51,1.51a12.06,12.06,0,0,1,.61,1.38l1.21.25a9.19,9.19,0,0,1-1-1.9A9.81,9.81,0,0,1,31.06,25.27Zm-10.6,1.24s.06,0,.07,0A3.23,3.23,0,0,1,20.62,29a0,0,0,0,1-.08,0,6.19,6.19,0,0,1,0-1.14c0-.43-.07-.86-.11-1.3A0,0,0,0,1,20.46,26.51Zm9.55,0a.05.05,0,0,1,0,0c0,.43-.11.86-.12,1.3a5.42,5.42,0,0,1,0,1.14s-.06,0-.07,0a3.19,3.19,0,0,1,.09-2.46A.06.06,0,0,1,30,26.51Zm-5.27,1.43a.08.08,0,0,1,.1.07,3.42,3.42,0,0,1,0,1.46,0,0,0,0,1,0,0A7.71,7.71,0,0,1,24.65,28,.12.12,0,0,1,24.74,27.94Zm1,0c.05,0,.09,0,.09.09a7.71,7.71,0,0,1-.12,1.44s0,0,0,0a3.78,3.78,0,0,1,0-1.46C25.64,28,25.68,27.93,25.72,27.94Zm-1.83.31a0,0,0,0,1,.05,0,6.48,6.48,0,0,1-.2,2.48.09.09,0,0,1-.18,0A13.83,13.83,0,0,1,23.89,28.25Zm2.68,0a13.83,13.83,0,0,1,.33,2.47.09.09,0,0,1-.18,0,6.48,6.48,0,0,1-.2-2.48A0,0,0,0,1,26.57,28.25Z"/><path class="ed636c0f-538a-46e2-8ea1-29fa84bf206e" d="M47.89,10.19a1.1,1.1,0,0,1,.82.7,3.42,3.42,0,0,1,.17,1.1c0,1.55.23,3.18.2,4.74a2.33,2.33,0,0,0,.19,1.2c.21.39.64.65.84,1.05A2.19,2.19,0,0,1,50,20.67c-.18.45-.37.94-.59,1.38a4.24,4.24,0,0,0-.16,2.35,2.89,2.89,0,0,1-.47,2.27.46.46,0,0,1-.2.14c-.18.06-.36,0-.54-.1-.34-.08-.7.08-1.05,0-.16,0-.3-.1-.45-.12s-.23,0-.34,0a1.05,1.05,0,0,1-.34-.19,7.72,7.72,0,0,0-2.73-1,44.56,44.56,0,0,0-5.27-.88,4.83,4.83,0,0,1,2.48-.76,8.88,8.88,0,0,1,1.63,0,10.48,10.48,0,0,1,1.66.37c.51.14,1,.29,1.54.46a5.26,5.26,0,0,0,2,.46.86.86,0,0,0,.23-.05.45.45,0,0,0,.06-.61,2,2,0,0,0-1.26-.71,4.18,4.18,0,0,1,.71-.22,1,1,0,0,0,.59-.42.71.71,0,0,0-.15-.76,1.84,1.84,0,0,0-.7-.45,7.4,7.4,0,0,0-1.72-.51c.59-.08,1.27.1,1.73-.26a.4.4,0,0,0,.19-.36.44.44,0,0,0-.08-.2,2.9,2.9,0,0,0-2.12-.89,4.72,4.72,0,0,0,.9-.29c.19-.09.4-.28.3-.45a.34.34,0,0,0-.19-.14,5.2,5.2,0,0,0-1.41-.41,1.19,1.19,0,0,1-.66-.28,4.19,4.19,0,0,0,2.49-.5c.17-.13.34-.32.28-.52s-.24-.26-.41-.32a4.61,4.61,0,0,0-1-.2A3.28,3.28,0,0,0,46.72,16a.63.63,0,0,0,.35-.4c0-.23-.18-.41-.38-.53a5.44,5.44,0,0,0-2.15-.56c-.86-.11-1.6-.32-2.45-.49a13.08,13.08,0,0,0,3-.88.84.84,0,0,0,.43-.3.65.65,0,0,0,0-.62,2,2,0,0,0-1.16-.86c-.47-.16-1-.23-1.43-.41l1.59-.35c.1,0,.22-.06.24-.15a.23.23,0,0,0,0-.15.92.92,0,0,0-.51-.28c-.43-.13-.79-.27-1.21-.4a6.47,6.47,0,0,0,1-.3,1,1,0,0,0,.27-.15.51.51,0,0,0,0-.66,1.23,1.23,0,0,0-.59-.43,4.12,4.12,0,0,0-1.43-.31A4.5,4.5,0,0,0,44,7.31a.75.75,0,0,0,.41-.39.52.52,0,0,0-.17-.48,1.46,1.46,0,0,0-.45-.27l-1.21-.56A1.38,1.38,0,0,0,43.76,5a1.3,1.3,0,0,0,.07-1.32A16.65,16.65,0,0,1,47,9.05C47.18,9.54,47.35,10.11,47.89,10.19Z"/><path class="ed636c0f-538a-46e2-8ea1-29fa84bf206e" d="M2.56,10.19a1.1,1.1,0,0,0-.82.7A3.42,3.42,0,0,0,1.57,12c-.05,1.55-.23,3.18-.2,4.74a2.33,2.33,0,0,1-.19,1.2C1,18.32.54,18.58.34,19A2.19,2.19,0,0,0,.5,20.67c.18.45.37.94.59,1.38a4.24,4.24,0,0,1,.16,2.35,2.89,2.89,0,0,0,.47,2.27.46.46,0,0,0,.2.14c.18.06.36,0,.54-.1.34-.08.7.08,1,0,.16,0,.3-.1.45-.12s.23,0,.34,0a1.05,1.05,0,0,0,.34-.19,7.72,7.72,0,0,1,2.73-1,44.22,44.22,0,0,1,5.27-.88,4.83,4.83,0,0,0-2.48-.76,8.88,8.88,0,0,0-1.63,0,10.48,10.48,0,0,0-1.66.37c-.51.14-1,.29-1.54.46a5.26,5.26,0,0,1-2,.46A.86.86,0,0,1,3.09,25,.45.45,0,0,1,3,24.37a2,2,0,0,1,1.26-.71,4.18,4.18,0,0,0-.71-.22A1,1,0,0,1,3,23a.71.71,0,0,1,.15-.76,1.84,1.84,0,0,1,.7-.45,7.4,7.4,0,0,1,1.72-.51c-.59-.08-1.27.1-1.73-.26a.4.4,0,0,1-.19-.36.44.44,0,0,1,.08-.2,2.9,2.9,0,0,1,2.12-.89,4.72,4.72,0,0,1-.9-.29c-.19-.09-.4-.28-.3-.45a.34.34,0,0,1,.19-.14,5.2,5.2,0,0,1,1.41-.41A1.19,1.19,0,0,0,6.9,18a4.19,4.19,0,0,1-2.49-.5c-.17-.13-.34-.32-.28-.52s.24-.26.41-.32a4.61,4.61,0,0,1,1-.2A3.28,3.28,0,0,1,3.73,16a.63.63,0,0,1-.35-.4c0-.23.18-.41.38-.53a5.44,5.44,0,0,1,2.15-.56c.86-.11,1.6-.32,2.45-.49a12.93,12.93,0,0,1-3-.88.84.84,0,0,1-.43-.3.65.65,0,0,1,0-.62,2,2,0,0,1,1.16-.86c.47-.16,1-.23,1.43-.41L6,10.62c-.1,0-.22-.06-.24-.15a.23.23,0,0,1,0-.15A.92.92,0,0,1,6.29,10c.43-.13.79-.27,1.21-.4a6.47,6.47,0,0,1-1-.3.89.89,0,0,1-.27-.15.51.51,0,0,1,0-.66,1.23,1.23,0,0,1,.59-.43,4.12,4.12,0,0,1,1.43-.31,4.5,4.5,0,0,1-1.69-.48.72.72,0,0,1-.41-.39.52.52,0,0,1,.17-.48,1.46,1.46,0,0,1,.45-.27l1.21-.56A1.38,1.38,0,0,1,6.69,5a1.3,1.3,0,0,1-.07-1.32A16.65,16.65,0,0,0,3.46,9.05C3.28,9.54,3.1,10.11,2.56,10.19Z"/><path class="ed636c0f-538a-46e2-8ea1-29fa84bf206e" d="M25.22,32.49a13.2,13.2,0,0,1,5.35.66,7.57,7.57,0,0,0,2.68.53c.1,0,.79.86.93,1a6.69,6.69,0,0,0,1.27.91,5.15,5.15,0,0,0,1.46.59,3.93,3.93,0,0,0,1.48.17c1.31-.29,2.64-.11,3.71-.9a14.6,14.6,0,0,0,6.51-.25,1.18,1.18,0,0,1,.64-.07.77.77,0,0,1,.53.6,2,2,0,0,1-.08.83,14.39,14.39,0,0,1-1.55,3.3,1,1,0,0,1-.33.4,1.26,1.26,0,0,1-.47.12l-1.62.15c-.17,0-1.17.23-1.2,0h0c0-.08.06-.07.13-.11s.32-.15.47-.26a2.39,2.39,0,0,0,.69-.76.17.17,0,0,0,0-.13.18.18,0,0,0-.16-.11,2,2,0,0,0-.54-.06,3.61,3.61,0,0,0,1.21-.68.84.84,0,0,0,.31-.41.75.75,0,0,0-.4-.76,6.77,6.77,0,0,0-.88-.36.76.76,0,0,0,.6-.37c-2.42,0-4.77,1.09-7.18.87l.83-.35L37.45,37a8.55,8.55,0,0,1-4.2-.89,1.82,1.82,0,0,0,.86-.27,7,7,0,0,1-2.2-.69c.25.07.44-.29.32-.52a1.06,1.06,0,0,0-.65-.39,26,26,0,0,0-6.35-1.17,26,26,0,0,0-6.36,1.17,1,1,0,0,0-.64.39c-.13.23.06.59.31.52a6.88,6.88,0,0,1-2.2.69,1.82,1.82,0,0,0,.86.27A8.52,8.52,0,0,1,13,37L10.8,37l.83.35c-2.41.22-4.76-.91-7.18-.87a.78.78,0,0,0,.6.37,6.63,6.63,0,0,0-.87.36.74.74,0,0,0-.41.76.9.9,0,0,0,.31.41,3.71,3.71,0,0,0,1.21.68,2,2,0,0,0-.54.06.18.18,0,0,0-.16.11.17.17,0,0,0,0,.13,2.39,2.39,0,0,0,.69.76c.15.11.32.17.47.26s.13,0,.13.11h0c0,.2-1,0-1.2,0l-1.61-.15a1.26,1.26,0,0,1-.48-.12,1.08,1.08,0,0,1-.33-.4,14.82,14.82,0,0,1-1.55-3.3,2,2,0,0,1-.08-.83.77.77,0,0,1,.53-.6,1.18,1.18,0,0,1,.64.07,14.6,14.6,0,0,0,6.51.25c1.08.79,2.4.61,3.72.9a4,4,0,0,0,1.48-.17A5.21,5.21,0,0,0,15,35.57a6.76,6.76,0,0,0,1.28-.91,8.92,8.92,0,0,1,.93-1,7.51,7.51,0,0,0,2.67-.53A13.17,13.17,0,0,1,25.22,32.49Z"/><path class="ed636c0f-538a-46e2-8ea1-29fa84bf206e" d="M28,45.78a.4.4,0,0,1-.16-.31,2.36,2.36,0,0,1,.69-1.88,8.65,8.65,0,0,1,.09.89,1.7,1.7,0,0,1,.82-1.1.47.47,0,0,1,.32-.08c.18.05.24.26.28.43a1.7,1.7,0,0,1,.69-.64c.22-.12.53-.18.69,0s0,.57.15.8c.16-.17.13-.5.35-.56a.36.36,0,0,1,.37.21c.29.46.19,1.06.36,1.57a5.84,5.84,0,0,0,.29-2.84.23.23,0,0,0-.07-.15.22.22,0,0,0-.16,0l-.72.1a13.86,13.86,0,0,0-4.38,1.12.28.28,0,0,0-.14.1.29.29,0,0,0,0,.16,7.35,7.35,0,0,0,.15,1.75,1.23,1.23,0,0,0,.21.53.47.47,0,0,0,.53.17C28.18,46,28,45.9,28,45.78Z"/><path class="ed636c0f-538a-46e2-8ea1-29fa84bf206e" d="M22.5,45.78a.37.37,0,0,0,.16-.31A2.33,2.33,0,0,0,22,43.59a8.65,8.65,0,0,0-.09.89,1.7,1.7,0,0,0-.82-1.1.47.47,0,0,0-.32-.08c-.18.05-.24.26-.28.43a1.7,1.7,0,0,0-.69-.64c-.22-.12-.53-.18-.69,0s0,.57-.14.8c-.17-.17-.14-.5-.36-.56a.36.36,0,0,0-.37.21c-.28.46-.19,1.06-.36,1.57a5.84,5.84,0,0,1-.29-2.84.23.23,0,0,1,.07-.15.22.22,0,0,1,.16,0l.72.1a13.86,13.86,0,0,1,4.38,1.12.24.24,0,0,1,.14.1.29.29,0,0,1,0,.16,7.35,7.35,0,0,1-.15,1.75,1.23,1.23,0,0,1-.21.53.47.47,0,0,1-.53.17C22.28,46,22.44,45.9,22.5,45.78Z"/><path class="ed636c0f-538a-46e2-8ea1-29fa84bf206e" d="M35.46,44.12a1.44,1.44,0,0,1,.49-.76c.11-.09.28-.17.39-.08a.35.35,0,0,1,.1.22l.11.67a2.14,2.14,0,0,1,.72-1,.15.15,0,0,1,.13,0s.06.06.08.11.11.32.16.48a1.82,1.82,0,0,1,.61-.37.65.65,0,0,1,.67.12,2.61,2.61,0,0,1,.28.52.71.71,0,0,1,.21-.39c.13-.09.36-.06.39.09s-.39.38-.33.62c0,0,0,.09.05.13a.31.31,0,0,1-.14.35A1.22,1.22,0,0,1,39,45a1.2,1.2,0,0,0,.91-.36l.14-.25c.05-.09.13-.16.19-.25a1.45,1.45,0,0,0,0-1.21.53.53,0,0,0-.11-.24.67.67,0,0,0-.59-.1,14.6,14.6,0,0,1-3.84-.24.27.27,0,0,0-.2,0,.26.26,0,0,0-.05.12c-.06.24-.12.48-.17.72a2.56,2.56,0,0,0-.11.77.89.89,0,0,0,.36.67A1.25,1.25,0,0,1,35.46,44.12Z"/><path class="ed636c0f-538a-46e2-8ea1-29fa84bf206e" d="M15,44.12a1.44,1.44,0,0,0-.49-.76c-.11-.09-.28-.17-.39-.08a.41.41,0,0,0-.1.22l-.11.67a2.07,2.07,0,0,0-.72-1,.13.13,0,0,0-.12,0c-.05,0-.07.06-.09.11s-.1.32-.16.48a1.82,1.82,0,0,0-.61-.37.65.65,0,0,0-.67.12,2.61,2.61,0,0,0-.28.52.65.65,0,0,0-.21-.39c-.13-.09-.36-.06-.39.09s.39.38.33.62c0,0,0,.09-.05.13a.31.31,0,0,0,.14.35,1.22,1.22,0,0,0,.38.13,1.2,1.2,0,0,1-.91-.36l-.14-.25c-.05-.09-.13-.16-.19-.25a1.45,1.45,0,0,1,0-1.21.53.53,0,0,1,.11-.24.67.67,0,0,1,.59-.1,14.68,14.68,0,0,0,3.85-.24.25.25,0,0,1,.19,0,.26.26,0,0,1,.05.12l.18.72a2.55,2.55,0,0,1,.1.77.89.89,0,0,1-.36.67A1.25,1.25,0,0,0,15,44.12Z"/><path class="ed636c0f-538a-46e2-8ea1-29fa84bf206e" d="M43,42.74a.12.12,0,0,1,.08,0s0,0,.07.06a2.93,2.93,0,0,1,.19.4,1.62,1.62,0,0,0,.21-.36.37.37,0,0,1,.32-.23.3.3,0,0,1,.26.31.68.68,0,0,1-.17.39,2.39,2.39,0,0,0-.28.35,1.55,1.55,0,0,0,1-.5,1.19,1.19,0,0,0,.13-.74,3.62,3.62,0,0,0-.09-.66.25.25,0,0,0-.06-.14c-.07-.06-.19,0-.28,0-.63.26-1.25.55-1.87.85a.33.33,0,0,0-.16.12.27.27,0,0,0,0,.18,3.91,3.91,0,0,0,.2.9C42.7,43.32,42.72,43,43,42.74Z"/><path class="ed636c0f-538a-46e2-8ea1-29fa84bf206e" d="M7.42,42.74a.12.12,0,0,0-.08,0s0,0-.07.06a2.93,2.93,0,0,0-.19.4,1.62,1.62,0,0,1-.21-.36.37.37,0,0,0-.32-.23.3.3,0,0,0-.26.31.68.68,0,0,0,.17.39,2.39,2.39,0,0,1,.28.35,1.55,1.55,0,0,1-1-.5,1.19,1.19,0,0,1-.13-.74,3.62,3.62,0,0,1,.09-.66.25.25,0,0,1,.06-.14c.07-.06.18,0,.28,0,.63.26,1.25.55,1.87.85a.33.33,0,0,1,.16.12.27.27,0,0,1,0,.18,3.91,3.91,0,0,1-.2.9C7.75,43.32,7.73,43,7.42,42.74Z"/><path class="ed636c0f-538a-46e2-8ea1-29fa84bf206e" d="M28.84,44.2c0,.11.14.18.25.15a.68.68,0,0,0,.28-.17,1.71,1.71,0,0,1,1-.37.18.18,0,0,0,.1.24.57.57,0,0,0,.29,0,.61.61,0,0,1,.3,0c.24.13.13.51.31.72l.23-.33c-.08.35-.17.7-.26,1.06,0,0,0,0,0,.05s.05,0,.08,0l.51-.24c.05.06,0,.14,0,.2s0,.17,0,.18H32s0,.06,0,.09l-.27.77a.88.88,0,0,1-.16.32,1,1,0,0,1-.62.21h-.08c-.09,0-.09-.14-.08-.22A6.18,6.18,0,0,0,30.61,45a.42.42,0,0,0-.12-.27c-.11-.11-.3-.08-.45,0a1.14,1.14,0,0,0-.58.26,3,3,0,0,0-.28.49.92.92,0,0,1-.59.41c-.1,0-.59.05-.61-.1s.49-.33.55-.52c-.27.08-.18-.27-.11-.38S28.7,44.42,28.84,44.2Z"/><path class="ed636c0f-538a-46e2-8ea1-29fa84bf206e" d="M21.61,44.2c0,.11-.14.18-.25.15a.68.68,0,0,1-.28-.17,1.71,1.71,0,0,0-1-.37.18.18,0,0,1-.1.24.57.57,0,0,1-.29,0,.56.56,0,0,0-.29,0c-.25.13-.14.51-.32.72l-.23-.33c.08.35.17.7.26,1.06,0,0,0,0,0,.05s-.06,0-.09,0l-.51-.24c-.05.06,0,.14,0,.2s0,.17,0,.18h-.06s0,.06,0,.09l.27.77a.88.88,0,0,0,.16.32,1,1,0,0,0,.62.21h.08c.09,0,.09-.14.08-.22A6.18,6.18,0,0,1,19.84,45a.48.48,0,0,1,.12-.27c.11-.11.3-.08.45,0A1.14,1.14,0,0,1,21,45a3,3,0,0,1,.28.49.92.92,0,0,0,.59.41c.1,0,.59.05.61-.1s-.49-.33-.55-.52c.27.08.18-.27.11-.38S21.75,44.42,21.61,44.2Z"/><path class="ed636c0f-538a-46e2-8ea1-29fa84bf206e" d="M36,44.48c.07.08.18.15.26.1s0-.06.07-.09l.23-.42c.08.16.07.35.18.49a.39.39,0,0,0,.41.15.39.39,0,0,0,.3-.33.13.13,0,0,1,0-.1s.07,0,.12,0a2.38,2.38,0,0,0,.86-.26.76.76,0,0,0,.4.41.48.48,0,0,0,.42,0c0,.15,0,.31,0,.46a0,0,0,0,1,0,.06.09.09,0,0,1-.09,0l-1-.24a.28.28,0,0,0-.2,0,.25.25,0,0,0-.13.12c-.14.22-.2.49-.42.64a1,1,0,0,1-.83,0,1.59,1.59,0,0,1-.65-.28,1.55,1.55,0,0,1-.28-.39,2.06,2.06,0,0,1-.37-1.13c.1.14.23.22.33.36A2.88,2.88,0,0,0,36,44.48Z"/><path class="ed636c0f-538a-46e2-8ea1-29fa84bf206e" d="M14.46,44.48c-.07.08-.18.15-.26.1s0-.06-.07-.09l-.23-.42c-.08.16-.07.35-.18.49a.39.39,0,0,1-.71-.18.13.13,0,0,0,0-.1s-.07,0-.12,0A2.38,2.38,0,0,1,12,44a.76.76,0,0,1-.4.41.48.48,0,0,1-.42,0c0,.15,0,.31,0,.46a0,0,0,0,0,0,.06.09.09,0,0,0,.09,0l1-.24a.28.28,0,0,1,.2,0,.25.25,0,0,1,.13.12c.14.22.2.49.42.64a1,1,0,0,0,.83,0,1.59,1.59,0,0,0,.65-.28,1.55,1.55,0,0,0,.28-.39,2.06,2.06,0,0,0,.37-1.13c-.1.14-.23.22-.33.36A2.88,2.88,0,0,1,14.46,44.48Z"/><path class="ed636c0f-538a-46e2-8ea1-29fa84bf206e" d="M43.19,43.5a.38.38,0,0,0,.38-.06.94.94,0,0,0,.23-.32,1.33,1.33,0,0,1-.19.14.32.32,0,0,1-.23.05.26.26,0,0,1-.15-.16.87.87,0,0,0-.1-.19,0,0,0,0,0-.06,0C42.81,43,43.08,43.44,43.19,43.5Z"/><path class="ed636c0f-538a-46e2-8ea1-29fa84bf206e" d="M7.26,43.5a.38.38,0,0,1-.38-.06.94.94,0,0,1-.23-.32,1.33,1.33,0,0,0,.19.14.32.32,0,0,0,.23.05.26.26,0,0,0,.15-.16,1.74,1.74,0,0,1,.1-.19s0,0,.06,0C7.64,43,7.38,43.44,7.26,43.5Z"/><path class="ed636c0f-538a-46e2-8ea1-29fa84bf206e" d="M48.83,30a6.47,6.47,0,0,1-.74-1.52c0-.05-.05-.1-.09-.07s0,0,0,0a3.88,3.88,0,0,0-.27.94,4.12,4.12,0,0,0-.27-1.1A3.62,3.62,0,0,1,46.93,30a.7.7,0,0,0-.11-.37,6.14,6.14,0,0,0-.43.61c0,.08-.1.17-.06.25a.93.93,0,0,1,.05.1.21.21,0,0,1,0,.11,4.17,4.17,0,0,0-.57,1.84.21.21,0,0,0,0,.19c.12.1.3-.08.45,0a1.55,1.55,0,0,0-.23.86l.31-.06a1.23,1.23,0,0,0-.25.6.17.17,0,0,0,0,.14c.06.06.16,0,.23,0a1.47,1.47,0,0,0,.49-.47,1.07,1.07,0,0,0,.46,1.38l-1.39.3a6.88,6.88,0,0,1-.77.13c-.23,0-.46,0-.69,0a5,5,0,0,1-2.37-.13,22.52,22.52,0,0,0,2.15-2,5.36,5.36,0,0,0,.89-1.23,6.14,6.14,0,0,0,.45-1.89,16.82,16.82,0,0,0,.22-2.92.74.74,0,0,1,0-.33.75.75,0,0,1,.22-.25,2,2,0,0,1,2.32-.06.85.85,0,0,1,.34.41,1.3,1.3,0,0,1,0,.4,8.86,8.86,0,0,0,.36,2.89A2.34,2.34,0,0,0,48.83,30Z"/><path class="ed636c0f-538a-46e2-8ea1-29fa84bf206e" d="M1.63,30a6.85,6.85,0,0,0,.73-1.52c0-.05.05-.1.09-.07l0,0a5.06,5.06,0,0,1,.27.94A3.76,3.76,0,0,1,3,28.25,3.62,3.62,0,0,0,3.52,30a.81.81,0,0,1,.12-.37c.15.2.29.4.43.61s.09.17,0,.25,0,.06,0,.1a.14.14,0,0,0,0,.11,4.17,4.17,0,0,1,.57,1.84.18.18,0,0,1,0,.19c-.11.1-.3-.08-.45,0a1.55,1.55,0,0,1,.23.86l-.31-.06a1.24,1.24,0,0,1,.26.6.22.22,0,0,1,0,.14c-.06.06-.16,0-.23,0a1.47,1.47,0,0,1-.49-.47,1.06,1.06,0,0,1-.46,1.38l1.39.3a6.88,6.88,0,0,0,.77.13c.23,0,.46,0,.7,0a4.91,4.91,0,0,0,2.36-.13,23.79,23.79,0,0,1-2.15-2,5,5,0,0,1-.88-1.23,6.46,6.46,0,0,1-.46-1.89,16.82,16.82,0,0,1-.22-2.92.74.74,0,0,0,0-.33.75.75,0,0,0-.22-.25,2,2,0,0,0-2.32-.06.91.91,0,0,0-.34.41,1.3,1.3,0,0,0,0,.4,8.6,8.6,0,0,1-.36,2.89A2.37,2.37,0,0,1,1.63,30Z"/><path class="ed636c0f-538a-46e2-8ea1-29fa84bf206e" d="M25.22,28.35c.14.2.29.4.45.59.11-.47.22-.94.32-1.4a1,1,0,0,1,.14-.37.38.38,0,0,1,.33-.18,5.11,5.11,0,0,0,.25,2.23A3.84,3.84,0,0,1,27.54,27a8,8,0,0,0,.26,2.79A5.79,5.79,0,0,1,28,28.43a2.18,2.18,0,0,1,.71-1.2c0,.65.11,1.3.21,1.94l.24-.9a.71.71,0,0,1,.17-.36.3.3,0,0,1,.37-.07c.12.08.12.25.11.39a6.78,6.78,0,0,0,.21,2.2l.15-.88a6.26,6.26,0,0,1,.88,2.1c0,.11,0,.27-.1.27a.12.12,0,0,1-.11,0,1.29,1.29,0,0,1-.45-.48l.27.61c0,.08.06.19,0,.25a.22.22,0,0,1-.11.05l-.58.13a.33.33,0,0,1-.17,0,.26.26,0,0,1-.15-.16,5.39,5.39,0,0,1-.54-1.55A1.54,1.54,0,0,1,29,31.9a1.3,1.3,0,0,1-1,.68l4.68,1.08c.06,0,.15,0,.18,0a.16.16,0,0,0,0-.15,9.45,9.45,0,0,0-.59-1.08A9.68,9.68,0,0,1,31,28.77,7.13,7.13,0,0,1,31.54,25a13.85,13.85,0,0,0-1.44,0c-.52,0-1,.11-1.56.16-1,.12-2.09.19-3.13.22H25c-1.05,0-2.09-.1-3.13-.22-.52-.05-1-.12-1.56-.16a13.85,13.85,0,0,0-1.44,0,7.13,7.13,0,0,1,.52,3.79,9.68,9.68,0,0,1-1.28,3.63,9.45,9.45,0,0,0-.59,1.08c0,.05,0,.11,0,.15s.12,0,.18,0l4.68-1.08a1.3,1.3,0,0,1-1-.68,1.54,1.54,0,0,1-.09-1.17,5.39,5.39,0,0,1-.54,1.55.26.26,0,0,1-.15.16.33.33,0,0,1-.17,0l-.58-.13a.22.22,0,0,1-.11-.05c-.06-.06,0-.17,0-.25l.27-.61a1.29,1.29,0,0,1-.45.48.12.12,0,0,1-.11,0c-.11,0-.13-.16-.1-.27a6.26,6.26,0,0,1,.88-2.1l.15.88a6.78,6.78,0,0,0,.21-2.2.42.42,0,0,1,.11-.39.3.3,0,0,1,.37.07.71.71,0,0,1,.17.36l.24.9c.1-.64.17-1.29.21-1.94a2.18,2.18,0,0,1,.71,1.2,5.79,5.79,0,0,1,.18,1.37A8,8,0,0,0,22.91,27a3.84,3.84,0,0,1,.83,2.21A5,5,0,0,0,24,27a.38.38,0,0,1,.33.18,1.18,1.18,0,0,1,.14.37c.1.46.21.93.32,1.4A6,6,0,0,0,25.22,28.35Z"/><path class="ed636c0f-538a-46e2-8ea1-29fa84bf206e" d="M25.22,40.93a.42.42,0,0,1,.15,0,7,7,0,0,0,.73,1.67,1.42,1.42,0,0,0,1.1.77c-.21,0-.73.32-.93.41a4.08,4.08,0,0,1-1,.37h-.07a4.17,4.17,0,0,1-1-.37c-.21-.09-.73-.43-.94-.41a1.44,1.44,0,0,0,1.1-.77,7,7,0,0,0,.73-1.67A.33.33,0,0,1,25.22,40.93Z"/><path class="ed636c0f-538a-46e2-8ea1-29fa84bf206e" d="M27.4,43.05h0a1.54,1.54,0,0,0,.34.12c.28,0,.51-.19.77-.28s.57,0,.83-.15A1,1,0,0,0,30,42a2.93,2.93,0,0,0,0-1c0,.16-.27.49-.36.62a3.06,3.06,0,0,1-.55.53,1.58,1.58,0,0,1-1.5.33c-.37-.14-.65-.65-.89-.94h0s0,0,0,0a1.9,1.9,0,0,0,.49,1.32A.84.84,0,0,0,27.4,43.05Z"/><path class="ed636c0f-538a-46e2-8ea1-29fa84bf206e" d="M23.05,43.05h0a1.54,1.54,0,0,1-.34.12c-.28,0-.51-.19-.77-.28s-.56,0-.83-.15A1,1,0,0,1,20.5,42a2.93,2.93,0,0,1,0-1c0,.16.27.49.36.62a3.06,3.06,0,0,0,.55.53,1.59,1.59,0,0,0,1.5.33c.37-.14.65-.65.89-.94h0s0,0,0,0a1.9,1.9,0,0,1-.49,1.32A.84.84,0,0,1,23.05,43.05Z"/><path class="ed636c0f-538a-46e2-8ea1-29fa84bf206e" d="M36.29,42.53l2.62.17a8.52,8.52,0,0,1,1,.12A25.09,25.09,0,0,0,43.43,42a3,3,0,0,0,1.2-.63l-.49.12a3.16,3.16,0,0,1-1.67,0,.26.26,0,0,1-.08.4.68.68,0,0,1-.47.06,4,4,0,0,1-1.39-.46,1,1,0,0,1,.22.27.32.32,0,0,1,0,.33.5.5,0,0,1-.52.07,4.74,4.74,0,0,1-1.69-.93,3.45,3.45,0,0,0,.14.34.32.32,0,0,1,0,.34.41.41,0,0,1-.26.09,4.2,4.2,0,0,1-1.12,0,.45.45,0,0,1-.2,0,3.48,3.48,0,0,1-.81-1,1.22,1.22,0,0,1,.05.37.49.49,0,0,1-.14.34,1,1,0,0,1-.23.11c-.28.09-.61.21-.84,0a4.58,4.58,0,0,1-.81-1A.94.94,0,0,0,34,40.5c0,.2.11.41,0,.61a.46.46,0,0,1-.25.28,1,1,0,0,1-.39.1c-.13,0-.28.07-.33-.05-.23-.5-.46-1-.7-1.49a3.39,3.39,0,0,1,0,.78,1.15,1.15,0,0,1-.35.7.83.83,0,0,1-.76.26,13.48,13.48,0,0,0-.5-1.64,6,6,0,0,1,.07.85,1.7,1.7,0,0,1-.13.74,3.08,3.08,0,0,0-1.26-2.08,4,4,0,0,1,.47,2.69c0,.09,0,.22.11.22l.06,0a10.16,10.16,0,0,1,3.69-.35,3.35,3.35,0,0,1,1.22.19c.24.09.52.25.76.13a.31.31,0,0,1,.37,0,.36.36,0,0,0,.1.11S36.27,42.58,36.29,42.53Z"/><path class="ed636c0f-538a-46e2-8ea1-29fa84bf206e" d="M14.17,42.53l-2.63.17a8.52,8.52,0,0,0-1,.12A25.09,25.09,0,0,1,7,42a3,3,0,0,1-1.2-.63l.49.12a3.16,3.16,0,0,0,1.67,0,.26.26,0,0,0,.08.4.69.69,0,0,0,.47.06,3.93,3.93,0,0,0,1.39-.46,1,1,0,0,0-.22.27.32.32,0,0,0,0,.33.52.52,0,0,0,.53.07,4.79,4.79,0,0,0,1.68-.93,3.45,3.45,0,0,1-.14.34.32.32,0,0,0,0,.34.41.41,0,0,0,.26.09,4.2,4.2,0,0,0,1.12,0c.07,0,.15,0,.2,0a3.48,3.48,0,0,0,.81-1,1.22,1.22,0,0,0-.05.37.49.49,0,0,0,.14.34,1,1,0,0,0,.23.11c.28.09.61.21.84,0a4.58,4.58,0,0,0,.81-1,.94.94,0,0,1,.27-.32c0,.2-.11.41-.05.61a.46.46,0,0,0,.25.28,1,1,0,0,0,.39.1c.13,0,.28.07.33-.05.23-.5.46-1,.7-1.49a2.91,2.91,0,0,0,0,.78,1.09,1.09,0,0,0,.34.7.84.84,0,0,0,.76.26,13.48,13.48,0,0,1,.5-1.64,7.9,7.9,0,0,0-.07.85,1.7,1.7,0,0,0,.13.74A3.08,3.08,0,0,1,21,39.56a4.07,4.07,0,0,0-.47,2.69c0,.09,0,.22-.11.22l-.06,0a10.16,10.16,0,0,0-3.69-.35,3.3,3.3,0,0,0-1.21.19c-.25.09-.53.25-.77.13a.3.3,0,0,0-.36,0s-.07.09-.11.11S14.18,42.58,14.17,42.53Z"/><path class="ed636c0f-538a-46e2-8ea1-29fa84bf206e" d="M25.22,37.63a9.52,9.52,0,0,1,4,.23c1.25.37,2.5.5,3.74.91a3.28,3.28,0,0,0,.82.14,1.46,1.46,0,0,1,.49.15l.06,0a1.22,1.22,0,0,0,.5.08,2.31,2.31,0,0,1,.67.23,9.53,9.53,0,0,0,1.26.37,23.25,23.25,0,0,0,4.21.76,10.4,10.4,0,0,1,1.58.11,1.39,1.39,0,0,1,.49.19,3.81,3.81,0,0,0-.79.54l-.28-.1a2.15,2.15,0,0,0-.74-.17.75.75,0,0,0-.65.32A3.39,3.39,0,0,0,39,40.85c-.24,0-.53,0-.64.21,0,0,0,.07,0,.06a3.93,3.93,0,0,1-.62-.3,3.18,3.18,0,0,0-.87-.22.55.55,0,0,0-.53.12.57.57,0,0,0-.08.29c-.23-.15-.34-.29-.56-.46l-.3-.23a1.63,1.63,0,0,0-.79-.41c-.3,0-.65.19-.62.49l-.52-.5a1.93,1.93,0,0,0-.46-.35.65.65,0,0,0-.56,0,.53.53,0,0,0-.26.23,1,1,0,0,0-1-.62.5.5,0,0,0-.21,0,.59.59,0,0,0-.19.56l-.4-.57a1.21,1.21,0,0,0-.27-.32.47.47,0,0,0-.41-.09.46.46,0,0,0-.27.29,1.12,1.12,0,0,0,0,.41,5,5,0,0,0-.7-.75,1.81,1.81,0,0,0-1.46-.32c-.35.08-.68.27-1,.36a2.83,2.83,0,0,1,.63-.94,2,2,0,0,0-1.26.79,2.39,2.39,0,0,0-.39.84,2.58,2.58,0,0,0-.39-.84,2,2,0,0,0-1.26-.79,2.83,2.83,0,0,1,.63.94c-.36-.09-.68-.28-1-.36a1.8,1.8,0,0,0-1.46.32,5,5,0,0,0-.7.75,1.12,1.12,0,0,0,0-.41.44.44,0,0,0-.26-.29.47.47,0,0,0-.41.09,1.24,1.24,0,0,0-.28.32l-.39.57a.59.59,0,0,0-.19-.56.5.5,0,0,0-.21,0,1,1,0,0,0-1,.62.58.58,0,0,0-.26-.23.65.65,0,0,0-.56,0,1.75,1.75,0,0,0-.46.35l-.52.5c0-.3-.32-.51-.62-.49a1.66,1.66,0,0,0-.8.41l-.3.23c-.21.17-.33.31-.55.46a.42.42,0,0,0-.62-.41,3.27,3.27,0,0,0-.87.22,3.45,3.45,0,0,1-.61.3s0,0,0-.06c-.1-.2-.39-.23-.63-.21a3.35,3.35,0,0,0-1.53.57.75.75,0,0,0-.65-.32,2.1,2.1,0,0,0-.74.17l-.28.1a3.88,3.88,0,0,0-.8-.54,1.44,1.44,0,0,1,.5-.19,10.4,10.4,0,0,1,1.58-.11,23.14,23.14,0,0,0,4.2-.76A8.72,8.72,0,0,0,15,39.4a2.8,2.8,0,0,1,.67-.23,1.27,1.27,0,0,0,.51-.08l.06,0a1.46,1.46,0,0,1,.49-.15,3.8,3.8,0,0,0,.82-.14c1.24-.41,2.48-.54,3.73-.91A9.49,9.49,0,0,1,25.22,37.63Z"/><path class="ed636c0f-538a-46e2-8ea1-29fa84bf206e" d="M29.73,6.48l4.39-.84a7,7,0,0,0-2.33,0,3.31,3.31,0,0,1-2.24-.44c1-.74,2.58-.13,3.75-.66-1-.41-2.31,0-3.27-.55-.07-.05-.15-.1-.17-.19s.05-.19,0-.29-.22-.17-.37-.17l-5.66-.13.87.25-.67-.11a2.24,2.24,0,0,1,1.1,1,.47.47,0,0,1,.07.41c-.07.16-.27.21-.45.24a17.15,17.15,0,0,1-5-.2,3.89,3.89,0,0,0,2.88,1.31,20.88,20.88,0,0,0,2.24.14,4.65,4.65,0,0,1,2.63.46c-1.19.78-2.75.52-4.17.4a11.44,11.44,0,0,0-5.54.71,3.77,3.77,0,0,0,1.6.26l9.14.07a2.68,2.68,0,0,0,.8-.06c.25-.06.49-.18.74-.22.6-.1,1.26.25,1.81,0A3.78,3.78,0,0,1,29.73,6.48Z"/><path class="ed636c0f-538a-46e2-8ea1-29fa84bf206e" d="M36.93,18.39q-10.82-.12-21.65-.11c.31.13.16.22.49.25a4,4,0,0,1,2.07.8l-.62.29a2.3,2.3,0,0,0,1.68.46l8.82.08c.09.13,0,.22.19.29s.3.23.22.37-.1.1-.17.14a3,3,0,0,1-1.06.27,22.06,22.06,0,0,0,6.59.18,5,5,0,0,1-.84-.61c.6-.34,1.43-.17,2-.59.16-.13.29-.3.45-.43a2.55,2.55,0,0,1,.9-.41l2-.61C37.77,18.44,37.31,18.39,36.93,18.39Z"/><path class="ed636c0f-538a-46e2-8ea1-29fa84bf206e" d="M29.94,12.33c.24-.06.53-.17.58-.41s-.44-.53-.82-.56l4.76.11a13.19,13.19,0,0,0,1.54,0,.34.34,0,0,0,.25-.11c.1-.14-.1-.31-.27-.39l-.79-.35a12.26,12.26,0,0,1,4.72.19,20.6,20.6,0,0,1-3.72,1.48c.35.59,1.42.25,1.88.76a13.84,13.84,0,0,1-2.87.37c-2.42.14-4.85.26-7.27.35a1.1,1.1,0,0,0,.33-.38,24.41,24.41,0,0,1-3.42.3,5.84,5.84,0,0,1-1.56-.12c-.46-.11-.89-.32-1.35-.45a8,8,0,0,0-2-.2l-4.41-.1,4.4-.4-.6-.51a15.62,15.62,0,0,0,4,.19,3.9,3.9,0,0,1,2.09.13c-.32,0-.89,0-1,.38A11.61,11.61,0,0,0,29.94,12.33Z"/><path class="ed636c0f-538a-46e2-8ea1-29fa84bf206e" d="M14.44,15.27C14,15.2,13.55,15,13.09,15a.36.36,0,0,0-.23.05c-.09.07-.07.21-.1.32-.08.29-.49.34-.81.33l-3.38-.14c.67.89,2,1,3.11.93a1.91,1.91,0,0,1,1.44.26l-.36.22a.48.48,0,0,0,.62.11,3.78,3.78,0,0,0,.54-.43,2.64,2.64,0,0,1,1.45-.34l4.6-.19-2.39-.29a1.21,1.21,0,0,1-.77-.28l.55-.48a6.19,6.19,0,0,0-1.66-.26C16.45,15.06,14.7,15.31,14.44,15.27Z"/><path class="ed636c0f-538a-46e2-8ea1-29fa84bf206e" d="M39.41,21.44c.26,0,.57-.16.61-.41l-.42-.29a29,29,0,0,1,3.95.24l-.73.37c-.11.06-.24.15-.2.27s.08.09.14.12l1.09.61-2.12-.09a25.26,25.26,0,0,0-4.92.09,17.24,17.24,0,0,1-2,.29,11.53,11.53,0,0,1-2-.19,7.09,7.09,0,0,0,1.66,0,.91.91,0,0,0,.61-.25.34.34,0,0,0-.11-.52c.67,0,1.33-.15,2-.15A14.83,14.83,0,0,0,39.41,21.44Z"/><path class="ed636c0f-538a-46e2-8ea1-29fa84bf206e" d="M14.84,21.59c.17,0,.4.14.32.28A.35.35,0,0,1,15,22l-1.88.47A38.17,38.17,0,0,0,21,23l-1-.67c-.12-.08-.26-.22-.19-.34s.16-.09.26-.09c.44,0,.89,0,1.33,0a10.54,10.54,0,0,0,3.11-.45,1.82,1.82,0,0,0-.9-.15l-4.95,0a.22.22,0,0,0-.11,0c-.15.11.25.39.09.49a13.65,13.65,0,0,1-3.22-.72c0-.14.15-.22.27-.28s.27-.19.2-.31a.26.26,0,0,0-.18-.09,12.15,12.15,0,0,0-3-.38c.33.18,1.09.44,1.25.81s-.8.51-1.13.61C13.47,21.5,14.16,21.54,14.84,21.59Z"/><path class="ed636c0f-538a-46e2-8ea1-29fa84bf206e" d="M24.42,35.26a4.2,4.2,0,0,0-1.12-.56,9.53,9.53,0,0,1,5.08.15.7.7,0,0,0-.46.14,24.94,24.94,0,0,0,4.24,1.36,2.9,2.9,0,0,1-2,0,10.44,10.44,0,0,0-1.37-.15c-.88,0-1.76-.1-2.64-.11a27.24,27.24,0,0,0-4.33.29c-.56.08-1.1.18-1.65.29s-1,.12-1.48.18a1.76,1.76,0,0,1-.23,0,.2.2,0,0,1-.08,0,.09.09,0,0,1,0-.11,4.09,4.09,0,0,1,1.18-.54,11.82,11.82,0,0,1,1.29-.37,13.56,13.56,0,0,1,1.78-.32C22.93,35.4,24.18,35.09,24.42,35.26Z"/><path class="ea916496-bd05-43ba-9aa4-a49c1411c7bd" d="M32.35,0A24.78,24.78,0,0,0,29,.19a27.07,27.07,0,0,1-3.37.16,7.85,7.85,0,0,0-.84,0H24c-.56,0-1.12,0-1.68-.1-2.22-.18-4.47-.49-6.65.1a23.35,23.35,0,0,0-5.9,2.45l-.59.36a4.8,4.8,0,0,0-1.69,0A3,3,0,0,0,5.68,4.43c-.47.63-.88,1.31-1.28,2A16.63,16.63,0,0,0,3.26,8.57C3.1,9,3,9.34,2.83,9.73a.43.43,0,0,0,0,.16,1.88,1.88,0,0,0-1.41,1.16,5.36,5.36,0,0,0-.12,1.33c0,.47,0,.94,0,1.4a24,24,0,0,1-.13,2.94,11.22,11.22,0,0,1-.29,1.4A1.83,1.83,0,0,0,0,19.5a5.68,5.68,0,0,0,.86,2.83,2.46,2.46,0,0,1,.21,1.51A3.48,3.48,0,0,0,1,25.31a6,6,0,0,0,.57,1.42.29.29,0,0,0,.08.1L1.55,27a1.45,1.45,0,0,0-.22,1,7.74,7.74,0,0,1,.1,1.08,4.71,4.71,0,0,1-.24,1.1c-.11.35-.23.71-.31,1.07a6.38,6.38,0,0,0-.13,1.07,11.12,11.12,0,0,0,.2,2.3.23.23,0,0,0-.12.06.31.31,0,0,0-.26.21,3.32,3.32,0,0,0,.37,2.9c.14.21.31.41.44.64a3.1,3.1,0,0,1,.22.75,2.46,2.46,0,0,0,.28.74A1.32,1.32,0,0,0,3,40.5q.66.16,1.32.27a9.08,9.08,0,0,0,1,.76.2.2,0,0,0,0,.11c0,.42.09.85.14,1.28a1.44,1.44,0,0,0,.13.58.79.79,0,0,0,.5.35.7.7,0,0,1,.2.08,1.88,1.88,0,0,1,.23.16,1.8,1.8,0,0,0,.54.26,1.06,1.06,0,0,0,1.06-.28,1,1,0,0,0,.22-.63,1.84,1.84,0,0,1,0-.57.14.14,0,0,0,0-.09,12.78,12.78,0,0,0,1.5.18A1.31,1.31,0,0,0,10,44.53a1.74,1.74,0,0,1,.13.15.64.64,0,0,1,.06.18.5.5,0,0,0,.43.37,4,4,0,0,0,1.09,0,1.8,1.8,0,0,0,.51-.17l.09-.05h0a.17.17,0,0,1,.06.06,3.65,3.65,0,0,1,.18.34.74.74,0,0,0,.4.36,1.14,1.14,0,0,0,.55,0l.59-.1a1.59,1.59,0,0,0,.53-.13,1.16,1.16,0,0,0,.33-.5,4.51,4.51,0,0,0,.5-1.15,2.21,2.21,0,0,0,0-.63c0-.23-.05-.46-.08-.69h0c.62-.05,1.24-.1,1.87-.11a5.78,5.78,0,0,0,0,1.81c.05.3.11.61.16.91a1.15,1.15,0,0,0,.33.69c.17.16.4.2.58.34s.12.39.19.55c.2.52.78.6,1.28.56a.32.32,0,0,0,.31-.3q0-.59,0-1.17c0-.19,0-.37,0-.56s0-.19,0-.29V45l.19,0,.39.06c.08,0,.1.07.14.14s.15.23.22.35.28.57.54.66a2.21,2.21,0,0,0,.81,0,1.09,1.09,0,0,0,.7-.23,1.22,1.22,0,0,0,.25-.71,6.43,6.43,0,0,0,.06-1.52l1.38.48a1.51,1.51,0,0,0,.41.13,1.57,1.57,0,0,0,.42-.13l.81-.29.56-.19a7.71,7.71,0,0,0,.06,1.52,1.24,1.24,0,0,0,.26.71,1.06,1.06,0,0,0,.7.23,2.16,2.16,0,0,0,.8,0c.27-.09.41-.44.55-.66l.21-.35c0-.07.06-.12.15-.14s.26,0,.39-.06l.19,0v0c0,.1,0,.2,0,.3s0,.39,0,.58q0,.59,0,1.17a.3.3,0,0,0,.3.3c.51,0,1.08,0,1.29-.56.06-.16,0-.43.19-.55s.41-.18.58-.34a1.14,1.14,0,0,0,.32-.69c.06-.3.12-.6.16-.91a5.5,5.5,0,0,0,0-1.81c.62,0,1.24.06,1.86.11h0c0,.19,0,.38-.07.58a4,4,0,0,0,0,.6,2.86,2.86,0,0,0,.39,1c.16.32.27.75.68.83l.54.09a3.42,3.42,0,0,0,.63.09.8.8,0,0,0,.76-.56.6.6,0,0,1,.16-.25l.08,0a1.69,1.69,0,0,0,.31.13,2.47,2.47,0,0,0,1.05.06,1.2,1.2,0,0,0,.52-.12.4.4,0,0,0,.18-.24,1.87,1.87,0,0,1,.07-.22c.09-.14.22-.24.31-.38a1.34,1.34,0,0,0,.16-.55,1.23,1.23,0,0,0-.19-.79l.6-.05c.3,0,.6-.08.89-.13a.15.15,0,0,0,0,.09,1.6,1.6,0,0,1,0,.49,1.24,1.24,0,0,0,.12.57,1,1,0,0,0,1,.44,1.48,1.48,0,0,0,.57-.19,2.57,2.57,0,0,1,.44-.29,1.22,1.22,0,0,0,.52-.26.93.93,0,0,0,.22-.52c.07-.49.11-1,.16-1.48a.36.36,0,0,0,0-.1l.22-.14a7.73,7.73,0,0,0,.77-.62l.3-.05c.35-.06.69-.14,1-.23a1.27,1.27,0,0,0,1-.47,1.92,1.92,0,0,0,.33-.69c.07-.25.1-.51.19-.76a2.44,2.44,0,0,1,.39-.63,3.35,3.35,0,0,0,.49-3.07.3.3,0,0,0-.26-.2.23.23,0,0,0-.12-.06,11.77,11.77,0,0,0,.2-2,7.11,7.11,0,0,0-.36-2.14,8.06,8.06,0,0,1-.29-1.07,3.26,3.26,0,0,1,0-1.08A2,2,0,0,0,49,27.16a1.5,1.5,0,0,0-.23-.33.27.27,0,0,0,.08-.1,5.63,5.63,0,0,0,.57-1.42,3.72,3.72,0,0,0-.09-1.52c-.2-1.05.54-2,.89-2.92a2.24,2.24,0,0,0-.48-2.6.83.83,0,0,0-.16-.12,23.83,23.83,0,0,1-.44-5.78,5.32,5.32,0,0,0-.12-1.32,1.43,1.43,0,0,0-.82-.91,6.07,6.07,0,0,0-.59-.24.33.33,0,0,0,0-.17A18,18,0,0,0,45.4,5.34,6.37,6.37,0,0,0,44,3.64a3.09,3.09,0,0,0-2.22-.53l-.5.06A22.8,22.8,0,0,0,35.59.58,13.88,13.88,0,0,0,34,.18,10.39,10.39,0,0,0,32.35,0ZM18.21.6a26.08,26.08,0,0,1,3.3.19,26,26,0,0,0,3.3.15h1.68c.56,0,1.11,0,1.66-.09,2.17-.18,4.38-.51,6.52.07A24.2,24.2,0,0,1,39,2.57c-.58-.07-1.19,0-1.77-.08-.77,0-1.53-.09-2.3-.16a11.3,11.3,0,0,0-4.14,0,0,0,0,1,0,0,.06,20.62,20.62,0,0,1,4.36.28,18.52,18.52,0,0,0,4.14.14l0,0c.35.18.69.37,1,.57h0a14,14,0,0,1-3.75.55,25.74,25.74,0,0,1-2.61-.41c-.9-.15-1.81-.24-2.72-.31C29.56,3,27.74,3,25.93,3s-3.67,0-5.49.07c-.92,0-1.84.1-2.75.2s-1.76.27-2.64.42a8.67,8.67,0,0,1-2.64.12c-.81-.11-1.6-.32-2.4-.49.35-.21.7-.4,1.07-.59a.05.05,0,0,0,0,0,18.43,18.43,0,0,0,4.13-.14,20.72,20.72,0,0,1,4.37-.28s.05,0,0-.06a11.31,11.31,0,0,0-4.14,0c-.72.06-1.45.12-2.17.15s-1.27,0-1.89.09a22.22,22.22,0,0,1,3.63-1.42,11.75,11.75,0,0,1,1.55-.4A9.43,9.43,0,0,1,18.21.6Zm4.09,1c-.17,0-.17.26,0,.27a28.92,28.92,0,0,0,2.93.24c1,0,2-.22,2.93-.34,0,0,.05-.07,0-.07-1,0-2,.19-2.93.17S23.27,1.71,22.3,1.62Zm2.28,2c1.77,0,3.55,0,5.32.08.87,0,1.75.08,2.62.17s1.74.25,2.61.41a10.14,10.14,0,0,0,2.52.2A18.24,18.24,0,0,0,40.17,4c.34-.08.69-.16,1-.22a.25.25,0,0,0,.17,0,4.94,4.94,0,0,1,1.15-.07,2.31,2.31,0,0,1,1.73,1,12.32,12.32,0,0,1,.69,1,27.09,27.09,0,0,0-5.55-.18c-1.85.08-3.71.22-5.54.46a0,0,0,0,0,0,0c1.85,0,3.69-.18,5.54-.21.88,0,1.76,0,2.64,0S44,6,44.92,6c.07,0,.11,0,.13-.1.16.25.31.51.47.77.28.46.55.94.79,1.42a14,14,0,0,0-1.83-.27c-.94-.13-1.87-.25-2.82-.31A26,26,0,0,0,36,7.69s0,0,0,0a53.31,53.31,0,0,1,5.51,0,27.92,27.92,0,0,1,2.88.34c.46.08.92.16,1.38.26.25,0,.49.12.74.16,0,.08.07.17.11.25v0a4.55,4.55,0,0,0-.52,0,6.56,6.56,0,0,0-1,0,.05.05,0,1,0,0,.1l.93.07a3.07,3.07,0,0,0,.68.06c.08.21.16.42.23.64a12,12,0,0,0-1.67-.31A43.26,43.26,0,0,0,39,9.18c-2.16.05-4.32.16-6.48.24s-4.34.14-6.51.05l-.76,0c-.28,0-.57,0-.85.05l-1.62,0c-1.08,0-2.15,0-3.23,0-4.3-.13-8.61-.48-12.91-.23a16.27,16.27,0,0,0-3,.42l-.12,0c.07-.21.15-.43.23-.64A3.89,3.89,0,0,0,4.39,9l.92-.08a.05.05,0,1,0,0-.1,6.51,6.51,0,0,0-1,0,4.21,4.21,0,0,0-.51,0l.12-.28c.25,0,.49-.11.74-.16.46-.1.92-.18,1.38-.26A27.7,27.7,0,0,1,8.92,7.8a53.47,53.47,0,0,1,5.52-.06s0,0,0,0A26.7,26.7,0,0,0,8.8,7.51c-.93.06-1.86.18-2.8.31a16.42,16.42,0,0,0-1.85.26c.38-.75.82-1.46,1.27-2.17,0,0,.06.1.12.09,1.85,0,3.67-.18,5.53-.14s3.68.18,5.53.21c0,0,0,0,0,0-1.84-.24-3.69-.38-5.54-.46a27.81,27.81,0,0,0-5.55.18l.07-.12A4.93,4.93,0,0,1,6.93,4a3,3,0,0,1,2.16-.25h0a.25.25,0,0,0,.15,0,17.36,17.36,0,0,0,4.86.65c.85-.08,1.68-.28,2.52-.41s1.77-.23,2.65-.29C21,3.63,22.81,3.63,24.58,3.6ZM19.52,4.68c-.1,0-.18.15-.06.2A7.66,7.66,0,0,0,22,5.2c1,0,2.05,0,3.08,0A30.05,30.05,0,0,0,31,4.83a0,0,0,0,0,0-.09C29,4.9,27.15,5,25.23,5c-.91,0-1.82,0-2.73-.08-.46,0-.92-.06-1.38-.1A7.24,7.24,0,0,0,19.52,4.68Zm.66,3a2.39,2.39,0,0,0-.7.12.17.17,0,0,0,.1.32,23.42,23.42,0,0,1,2.64.08c1-.09,2,0,3,0a27.87,27.87,0,0,1,3-.08c.9.09,1.78-.34,2.66-.11.06,0,.09-.08,0-.09-.93-.3-1.88.12-2.83,0a25.32,25.32,0,0,0-2.89,0,21.79,21.79,0,0,0-2.91-.06C21.62,7.87,20.88,7.62,20.18,7.63ZM8.77,9.76c1,0,2.07,0,3.1,0,2.11.05,4.22.16,6.33.24s4.18.12,6.27,0c.53,0,1,0,1.57,0s1,0,1.57,0c1,0,2.09,0,3.13,0,4.2-.12,8.41-.45,12.61-.26a17.42,17.42,0,0,1,3,.33,11.76,11.76,0,0,1,1.4.41,1.75,1.75,0,0,1,.52.28.52.52,0,0,1,.17.22,26,26,0,0,0-9,.17s0,0,0,0c3-.09,6-.45,9.07.16a13.87,13.87,0,0,1,.08,2c-4.26.12-8.5.67-12.76.7a.14.14,0,0,0,0,.28c4.26,0,8.49-.56,12.75-.58v.2c0,.69,0,1.38.07,2.07a4.53,4.53,0,0,0-1.7-.14,17.71,17.71,0,0,0-2.31.21,32,32,0,0,1-5.25.58c-.07,0-.09.12,0,.13a16.26,16.26,0,0,0,4.72-.21,23.15,23.15,0,0,1,2.64-.28,11,11,0,0,1,1.28,0,2.73,2.73,0,0,0,.67.07c0,.13,0,.26,0,.39a8.46,8.46,0,0,0,.16.85,5.78,5.78,0,0,0-1.8-.23c-2.29,0-4.55.48-6.84.59s-4.74,0-7.1-.1l-7-.2c-1.18,0-2.37,0-3.56,0L19,18c-2.35.07-4.71.18-7.06.18-1.16,0-2.3-.05-3.45-.16s-2.29-.28-3.44-.37a9.78,9.78,0,0,0-3.47.14,10.62,10.62,0,0,0,.19-1.24,2.85,2.85,0,0,0,.68-.07,11.12,11.12,0,0,1,1.29,0,23.22,23.22,0,0,1,2.63.28,16.32,16.32,0,0,0,4.73.21c.07,0,.06-.13,0-.13a31.83,31.83,0,0,1-5.24-.58A16.4,16.4,0,0,0,3.52,16a4.38,4.38,0,0,0-1.71.14c.06-.75.08-1.51.08-2.27,4.26,0,8.49.59,12.75.58a.14.14,0,1,0,0-.28c-4.26,0-8.49-.58-12.75-.7,0-.26,0-.52,0-.78A8.93,8.93,0,0,1,2,11.44c3-.61,6-.25,9.07-.16,0,0,0,0,0,0a26.12,26.12,0,0,0-8.95-.18,1.26,1.26,0,0,1,.72-.5,11.32,11.32,0,0,1,2.88-.63C6.7,9.82,7.73,9.77,8.77,9.76Zm11,1.35a39.32,39.32,0,0,0-5.2.29.09.09,0,0,0,0,.18c1.76-.06,3.53-.17,5.3-.17.88,0,1.76,0,2.65.06s1.77.17,2.64.17,1.77-.13,2.65-.18,1.77-.07,2.65-.08c1.77,0,3.53,0,5.3.19.1,0,.1-.15,0-.16-1.76-.16-3.53-.26-5.3-.27-.88,0-1.77,0-2.65,0s-1.86.19-2.77.16C23.34,11.28,21.59,11.1,19.81,11.11ZM19,14.52c-.24,0-.23.33,0,.36a60.88,60.88,0,0,0,6.33.24,28.37,28.37,0,0,0,6.11-.38c.05,0,0-.09,0-.09A114.37,114.37,0,0,1,19,14.52Zm2.6,2.3a31.69,31.69,0,0,0-3.37.29s0,.07,0,.07c1.21-.08,2.41-.16,3.61-.17s2.25.08,3.37.08S27.48,17,28.6,17s2.4.15,3.61.22c.1,0,.13-.16,0-.18a44.23,44.23,0,0,0-7-.18C24,16.88,22.83,16.79,21.62,16.82Zm25.29,1.33c.26,0,.52,0,.78,0,.86.06,1.94.35,2.13,1.3a1.72,1.72,0,0,1,0,.39c-.94-.1-1.81-.44-2.74-.53a10.3,10.3,0,0,0-2.88.3s0,.05,0,0a13.8,13.8,0,0,1,3.08,0,15.7,15.7,0,0,0,2.51.5,6.47,6.47,0,0,1-.66,1.65.08.08,0,0,0-.05-.05,10.4,10.4,0,0,0-2-.32,16.06,16.06,0,0,0-2.3-.15,0,0,0,0,0,0,.06c.9.15,1.81.26,2.71.43.37.06,1.24.45,1.59.17,0,.09-.09.18-.12.27a2.92,2.92,0,0,0-.26,1.39,9.38,9.38,0,0,0-1.06,0c-.44,0-.88,0-1.31,0,0,0,0,0,0,0a4.67,4.67,0,0,0,2.4.14,4,4,0,0,1,.14,1.29v0a2,2,0,0,0-.93-.23,5.79,5.79,0,0,0-1.38,0,.06.06,0,0,0,0,.12c.47,0,.94.09,1.41.17a2.57,2.57,0,0,0,.86.13,5.2,5.2,0,0,1-.48,1.14l0,.09a3.11,3.11,0,0,0-1.74,0c-.15-.11-.3-.22-.46-.32L46,26.12a10.18,10.18,0,0,0-3.16-1.2,25.63,25.63,0,0,0-5-.54c-1.75,0-3.51,0-5.26.17-1.5.11-3,.26-4.48.42-.9.1-1.81.24-2.72.25a17.64,17.64,0,0,1-2.19-.16c-1.39-.15-2.78-.3-4.17-.42-1.71-.15-3.42-.25-5.14-.26a31.91,31.91,0,0,0-5.17.32,11.83,11.83,0,0,0-4.2,1.35l-.12.07-.06,0c-.16.1-.32.22-.47.33a3.49,3.49,0,0,0-1.54,0l-.2.07a.32.32,0,0,0,0-.09,6.39,6.39,0,0,1-.48-1.14,2.53,2.53,0,0,0,.86-.13C3,25.08,3.43,25,3.9,25a.06.06,0,1,0,0-.12,5.8,5.8,0,0,0-1.38,0,2,2,0,0,0-.93.23v0a4,4,0,0,1,.14-1.29,4.67,4.67,0,0,0,2.4-.14s0,0,0,0c-.43,0-.88,0-1.31,0a9.38,9.38,0,0,0-1.06,0v0a3.36,3.36,0,0,0-.39-1.64c.35.29,1.22-.09,1.6-.16.89-.17,1.8-.29,2.7-.43,0,0,0-.06,0-.06a16.06,16.06,0,0,0-2.3.15,10.52,10.52,0,0,0-2,.32l-.05.05c-.15-.34-.32-.66-.45-1a4.47,4.47,0,0,1-.2-.65,16.51,16.51,0,0,0,2.5-.5,13.79,13.79,0,0,1,3.08,0s0,0,0,0a9.71,9.71,0,0,0-2.89-.3c-.93.08-1.8.43-2.73.53a1.26,1.26,0,0,1,0-.43,1.41,1.41,0,0,1,.83-.95,5.65,5.65,0,0,1,2.8-.29c2.2.12,4.37.52,6.58.57s4.5-.06,6.75-.12l6.78-.2c1.14,0,2.28,0,3.42,0l3.36.1c2.25.06,4.51.16,6.77.19,1.12,0,2.25,0,3.37-.11s2.17-.24,3.25-.35C45.33,18.24,46.12,18.16,46.91,18.15ZM17.16,19.54c-.21,0-.26.33-.05.36a29.12,29.12,0,0,0,4,.34c.67,0,1.35,0,2,0s1.44-.15,2.14-.16c1.35,0,2.69.15,4,.11a26.11,26.11,0,0,0,4.05-.42s0-.1,0-.1c-1.34.11-2.68.22-4,.25s-2.69-.16-4-.16-2.61.13-3.92.1S18.54,19.69,17.16,19.54Zm-3.57,1c-.93,0-1.85,0-2.78,0a9.15,9.15,0,0,0-2.57.2c-.07,0-.08.13,0,.14a11.65,11.65,0,0,0,2.57-.05c.92,0,1.85,0,2.78,0A.14.14,0,1,0,13.59,20.57Zm23.28,0a.14.14,0,0,0,0,.28q1.4,0,2.79,0a11.64,11.64,0,0,0,2.57.05c.08,0,.06-.12,0-.14a9.21,9.21,0,0,0-2.57-.2C38.73,20.56,37.8,20.56,36.87,20.57ZM12.51,22.41c-.68,0-1.36.06-2,.14a16.66,16.66,0,0,0-4,.75.09.09,0,0,0,0,.17,12,12,0,0,0,1.88-.27c.75-.13,1.5-.24,2.26-.31a27.92,27.92,0,0,1,4.19-.08A42.1,42.1,0,0,0,23,22.9a.06.06,0,0,0,0-.12c-2.81.13-5.59-.23-8.39-.34Q13.53,22.4,12.51,22.41Zm25.5,0c-.7,0-1.39,0-2.09,0-2.81.11-5.59.47-8.39.34-.07,0-.08.1,0,.11a41.32,41.32,0,0,0,8.17-.08,27.79,27.79,0,0,1,4.08.07c.75.07,1.51.18,2.26.3a12.24,12.24,0,0,0,2,.29.09.09,0,0,0,0-.17,16.65,16.65,0,0,0-3.92-.73C39.41,22.48,38.71,22.43,38,22.41ZM36.39,25a31.87,31.87,0,0,1,5.07.28,11.79,11.79,0,0,1,4.12,1.28l0,0c0,.12,0,.25.05.37s0,0,0,0a9.11,9.11,0,0,1-1.09,5.34,7.41,7.41,0,0,1-3.77,3.38,6.49,6.49,0,0,1-5-.16,7.72,7.72,0,0,1-3.62-3.65,9.15,9.15,0,0,1-.68-6c0-.23.12-.45.18-.67C33.27,25.08,34.83,25,36.39,25ZM12.78,25c1.73,0,3.46.05,5.18.18l.79.06a9.36,9.36,0,0,1,.39,2.46,1.82,1.82,0,0,1,0,.33,9,9,0,0,1-.62,3.28,7.9,7.9,0,0,1-3.31,3.95,6.54,6.54,0,0,1-5,.67,7.25,7.25,0,0,1-4-3,9.06,9.06,0,0,1-1.47-5.51l0-.42v0c0-.12,0-.25,0-.37a10.08,10.08,0,0,1,3-1.1A26.33,26.33,0,0,1,12.78,25Zm18.28.29a9.91,9.91,0,0,0,.32,6.25,9.42,9.42,0,0,0,1,1.89l-1.22-.25a11.08,11.08,0,0,0-.6-1.38,13.4,13.4,0,0,1-.51-1.51c0-.05-.09,0-.08,0a5.29,5.29,0,0,0,.81,2.79l-.89-.22c-.1-.38-.3-.73-.43-1.1s-.23-.84-.34-1.26c0,0-.07,0-.07,0a4.6,4.6,0,0,0,.48,2.25c-.45-.11-.91-.21-1.36-.29a15.66,15.66,0,0,1-.3-1.94,6.71,6.71,0,0,0-.19-1.62c0-.08-.14-.09-.16,0a4.05,4.05,0,0,0,.06,1.66c.1.63.24,1.25.39,1.87-.23,0-.46-.08-.7-.1a2.42,2.42,0,0,0-.12-.35c-.05-.17-.11-.33-.16-.5s-.11,0-.1,0A2.5,2.5,0,0,0,27,32l.06.26c-.31,0-.62,0-.94,0A6,6,0,0,0,26,31.4a5,5,0,0,0-.12-.86.1.1,0,0,0-.19,0,3.71,3.71,0,0,0,.12.93,3.85,3.85,0,0,0,.16.75,4,4,0,0,0-.49,0c-.31,0-.62,0-.94,0h0a4.89,4.89,0,0,0,.16-.74,4.29,4.29,0,0,0,.11-.93.1.1,0,0,0-.19,0,6.14,6.14,0,0,0-.12.86,7.9,7.9,0,0,0-.11.85c-.25,0-.49,0-.74,0l-.2,0,.06-.26a3.31,3.31,0,0,0,.06-.55.06.06,0,0,0-.11,0c-.05.17-.11.33-.16.5a2.79,2.79,0,0,0-.12.34l-.7.1q.24-.91.39-1.86a4.05,4.05,0,0,0,.07-1.66.09.09,0,0,0-.17,0,7.25,7.25,0,0,0-.19,1.62,16,16,0,0,1-.3,1.94c-.45.08-.9.17-1.35.28a4.69,4.69,0,0,0,.47-2.24s-.05,0-.06,0c-.12.42-.22.84-.35,1.26s-.33.71-.42,1.08L20,33l-.33.08a5.37,5.37,0,0,0,.81-2.78,0,0,0,0,0-.09,0,14.11,14.11,0,0,1-.51,1.51,11.85,11.85,0,0,0-.6,1.37l-1.2.25a9.5,9.5,0,0,0,1.46-7.65c0-.16-.08-.32-.13-.48l.34,0c.06.1.17.18.23.27s.18.26.26.39a.05.05,0,0,0,.1,0,2.76,2.76,0,0,0-.2-.47l-.08-.12,1.17.11a10.65,10.65,0,0,1,.36,3.77.06.06,0,0,0,.12,0,5.63,5.63,0,0,0-.31-3.77l.95.1a10.25,10.25,0,0,1,.46,2.7s0,0,0,0a4.3,4.3,0,0,0-.2-2.67l1.07.13c0,.32.07.64.1,1a2.09,2.09,0,0,0,.11.9.06.06,0,0,0,.1,0,1.81,1.81,0,0,0,0-1,6.39,6.39,0,0,0-.18-.87q.36,0,.72.06a2.29,2.29,0,0,0,.06.58,4.59,4.59,0,0,0,.16.9s.07,0,.07,0a5.14,5.14,0,0,0,0-1,4,4,0,0,0,0-.5h.71a4.26,4.26,0,0,0,0,.51,7.7,7.7,0,0,0,0,1,0,0,0,0,0,.08,0,5.7,5.7,0,0,0,.17-.9,3,3,0,0,0,.06-.59c.24,0,.47,0,.71-.06a6.51,6.51,0,0,0-.17.88,1.64,1.64,0,0,0,0,1,.07.07,0,0,0,.1,0,2.34,2.34,0,0,0,.12-.9l.09-1,.47-.06.6-.06a4.37,4.37,0,0,0-.2,2.67s0,0,0,0a10.69,10.69,0,0,1,.47-2.69l.95-.1-.22,1a10.63,10.63,0,0,0-.09,2.72.06.06,0,0,0,.12,0,10.39,10.39,0,0,1,.36-3.76l1.17-.12-.08.13a1.8,1.8,0,0,0-.2.47.05.05,0,0,0,.1,0,3.42,3.42,0,0,1,.26-.4,2,2,0,0,0,.22-.27Zm-10.6,1.25a0,0,0,0,0-.05,0c0,.43.1.86.11,1.3a6.19,6.19,0,0,0,0,1.14,0,0,0,0,0,.08,0,3.23,3.23,0,0,0-.09-2.46A.06.06,0,0,0,20.46,26.51Zm9.55,0a.07.07,0,0,0-.07,0A3.19,3.19,0,0,0,29.85,29s.06,0,.07,0a5.42,5.42,0,0,0,0-1.14c0-.43.07-.86.12-1.3A.05.05,0,0,0,30,26.51ZM47.62,27a1.94,1.94,0,0,0,0,.54,1.14,1.14,0,0,0,.13.61.11.11,0,0,0,.19,0,1.38,1.38,0,0,0,0-.64,4,4,0,0,0-.06-.47L48,27a.69.69,0,0,1,.5.4,1.87,1.87,0,0,1,0,.94,3.14,3.14,0,0,0,0,1.06,7,7,0,0,0,.25,1,9.75,9.75,0,0,1,.29,1,4.88,4.88,0,0,1,.09.93,10.46,10.46,0,0,1-.2,2.23v.12l-.24.05q0-.31,0-.63c0-.06-.1-.08-.11,0a6.11,6.11,0,0,0-.13.7c-.26.06-.53.11-.79.15a.69.69,0,0,0,.09-.48,0,0,0,0,0-.08,0,3.48,3.48,0,0,0-.24.52l-1,.14a3.28,3.28,0,0,0,.37-.64,2.91,2.91,0,0,0,.3-1.29,0,0,0,0,0-.07,0,10.89,10.89,0,0,1-.58,1.19,5.9,5.9,0,0,0-.49.8l-.72.06.15-.2a3.38,3.38,0,0,0,.36-.64s0-.06,0,0l-.47.52c-.1.12-.22.24-.32.37l-1,0,.29-.23c.12-.11.3-.24.28-.42a.09.09,0,0,0-.1-.07c-.16,0-.24.18-.35.29a3.29,3.29,0,0,1-.41.33.11.11,0,0,0,0,.11h-.9a8.29,8.29,0,0,0,2.07-2.15,9.54,9.54,0,0,0,1.55-5.89s0-.09,0-.14l.54-.12v.05a1.56,1.56,0,0,0,.11.57,0,0,0,0,0,.07,0,2.8,2.8,0,0,0,.15-.67A2.26,2.26,0,0,1,47.62,27ZM2.84,27h.45a3.27,3.27,0,0,0,.15.66,0,0,0,0,0,.07,0,1.41,1.41,0,0,0,.11-.54v-.07l.55.11a9.6,9.6,0,0,0,1.17,5.45,8.51,8.51,0,0,0,2.43,2.74l-.9,0a.09.09,0,0,0,0-.11,4.35,4.35,0,0,1-.41-.34c-.1-.11-.2-.26-.36-.28s-.08,0-.09.07.16.3.28.41a2.25,2.25,0,0,0,.3.24l-1,0c-.1-.13-.23-.25-.33-.37l-.47-.53s0,0,0,0a4.18,4.18,0,0,0,.37.65l.15.19c-.24,0-.48,0-.72-.06a5.24,5.24,0,0,0-.49-.79,11.85,11.85,0,0,1-.58-1.19,0,0,0,0,0-.07,0,2.9,2.9,0,0,0,.3,1.28,2.54,2.54,0,0,0,.36.63c-.33,0-.67-.08-1-.14a3.27,3.27,0,0,0-.22-.51s-.08,0-.09,0a.66.66,0,0,0,.09.47l-.29,0c-.33-.05-.66-.12-1-.19v-.12a10.88,10.88,0,0,1-.2-2,5.93,5.93,0,0,1,0-.94,7.23,7.23,0,0,1,.25-1,4.87,4.87,0,0,0,.36-2c-.05-.5-.31-1.28.3-1.56A1.31,1.31,0,0,1,2.6,27c0,.16,0,.32-.06.47a1.38,1.38,0,0,0,0,.64.1.1,0,0,0,.18,0,1,1,0,0,0,.13-.61A2,2,0,0,0,2.84,27Zm21.9,1a.12.12,0,0,0-.09.09,7.71,7.71,0,0,0,.13,1.44,0,0,0,0,0,0,0,3.43,3.43,0,0,0,0-1.46A.08.08,0,0,0,24.74,27.94Zm1,0s-.08,0-.1.07a3.78,3.78,0,0,0,0,1.46s0,0,0,0A7.78,7.78,0,0,0,25.81,28,.11.11,0,0,0,25.72,27.94ZM3.48,28a.13.13,0,0,0-.14.14,5,5,0,0,0,.44,2.09c.05.09.17,0,.15-.06a10.84,10.84,0,0,1-.31-2A.14.14,0,0,0,3.48,28ZM47,28a.14.14,0,0,0-.15.14,10.71,10.71,0,0,1-.31,2c0,.08.11.15.15.06a5,5,0,0,0,.44-2.09A.12.12,0,0,0,47,28Zm-23.1.23a14.06,14.06,0,0,0-.33,2.48.09.09,0,0,0,.18,0A6.72,6.72,0,0,0,24,28.25S23.9,28.22,23.89,28.24Zm2.68,0a0,0,0,0,0-.05,0,6.48,6.48,0,0,0,.2,2.48.09.09,0,0,0,.18,0A13.83,13.83,0,0,0,26.57,28.25Zm-23.81.61s0,0-.06,0a3,3,0,0,0-.07.6,1.06,1.06,0,0,0,.11.56c0,.06.16.06.18,0a1.12,1.12,0,0,0,0-.48c0-.22-.05-.43-.08-.65A0,0,0,0,0,2.76,28.86Zm44.94,0a.05.05,0,0,0-.05.05c0,.22,0,.43-.08.65a1.12,1.12,0,0,0,0,.48.1.1,0,0,0,.18,0,.9.9,0,0,0,.11-.56,2.4,2.4,0,0,0-.07-.6S47.73,28.85,47.7,28.86Zm-1.76,3.49c-.28.18-.36.61-.52.89a9.4,9.4,0,0,1-.68,1s0,.06,0,0a2.73,2.73,0,0,0,.78-.84c.18-.27.53-.69.49-1A.07.07,0,0,0,45.94,32.35Zm-41.49,0a.1.1,0,0,0,0,.07c0,.34.31.76.5,1a2.66,2.66,0,0,0,.77.83s.07,0,.05,0a10,10,0,0,1-.69-1c-.15-.28-.24-.7-.52-.89Zm-2.65.46a.09.09,0,0,0-.07.08c0,.11,0,.23,0,.35a.61.61,0,0,0,0,.3.09.09,0,0,0,.13,0c.18-.15.1-.49,0-.68A.09.09,0,0,0,1.8,32.81Zm46.86,0a.1.1,0,0,0-.09.06c-.06.19-.14.54,0,.69a.09.09,0,0,0,.13,0,.61.61,0,0,0,0-.3c0-.12,0-.24,0-.35A.09.09,0,0,0,48.66,32.81Zm-22.75,0,.9,0a19.48,19.48,0,0,1,3.56.69c.87.24,1.77.35,2.63.59a8,8,0,0,0,1.91,1.57A23.66,23.66,0,0,1,31.39,35c-1.33-.33-2.66-.7-4-.91,0,0,0,0,0,0,1.35.5,2.78.82,4.17,1.2a12.52,12.52,0,0,0,4,.74,7.14,7.14,0,0,0,4.84.41,7,7,0,0,0,1.36-.53A33.21,33.21,0,0,0,48,35.5c.44-.07.89-.16,1.33-.27a2.84,2.84,0,0,1,.08,1c-1.37.09-2.63.56-4,.64a0,0,0,1,0,0,0,6.54,6.54,0,0,0,1.82-.11,10.85,10.85,0,0,1,2.12-.24,2.58,2.58,0,0,1-.42,1c-.13.19-.28.38-.4.58a1.72,1.72,0,0,0-.19.47,4,4,0,0,0-.84.09l-1.19.14c-.84.09-1.68.17-2.52.2a22.35,22.35,0,0,1-5.35-.48s-.05,0,0,0a13.66,13.66,0,0,0,5.26.87c.88,0,1.76-.09,2.63-.18l1.22-.15c.23,0,.48,0,.7-.09a2.68,2.68,0,0,1-.07.27s0,.08,0,.13l0,.07a.08.08,0,0,1,0,0,1.4,1.4,0,0,1-.1.16l-.05.06-.06.05a.89.89,0,0,1-.47.13h-.08A20.39,20.39,0,0,1,38.7,40c-2.91-.52-5.71-1.42-8.56-2.17a15.33,15.33,0,0,0-4.36-.63c-.18,0-.37,0-.55,0s-.37,0-.55,0a10.17,10.17,0,0,0-1.1,0,16.19,16.19,0,0,0-2.18.34c-1.44.32-2.86.75-4.29,1.15s-2.83.77-4.26,1.07a22.67,22.67,0,0,1-8.68.36c-.36-.07-.72-.15-1.07-.24H3a.79.79,0,0,1-.42-.1.53.53,0,0,1-.21-.21.25.25,0,0,1,0-.07s0,0,0-.05a.21.21,0,0,1,0-.06.19.19,0,0,1,0-.08,3,3,0,0,1-.1-.32A9.77,9.77,0,0,0,4,39.22c.91.1,1.83.17,2.74.19A13.62,13.62,0,0,0,12,38.55s0-.06,0,0A22.39,22.39,0,0,1,6.63,39c-.81,0-1.62-.09-2.42-.18l-1.3-.15a4,4,0,0,0-.84-.09,1.76,1.76,0,0,0-.1-.3,3.64,3.64,0,0,0-.37-.59,2.92,2.92,0,0,1-.54-1.14,10.85,10.85,0,0,1,2.12.24A6.61,6.61,0,0,0,5,36.87s0,0,0,0c-1.37-.08-2.63-.56-4-.64a2.6,2.6,0,0,1,.09-1,21.09,21.09,0,0,0,2.62.45c1.07.13,2.14.21,3.22.24.59,0,1.19,0,1.79,0a6.58,6.58,0,0,0,.72.32,7.08,7.08,0,0,0,5.44-.18l0,0a12.47,12.47,0,0,0,4-.74c1.4-.38,2.83-.71,4.18-1.2,0,0,0,0,0,0-1.35.21-2.68.58-4,.91a23.66,23.66,0,0,1-3.52.73,8,8,0,0,0,1.91-1.57c.75-.2,1.53-.31,2.29-.5a26.86,26.86,0,0,1,3.43-.74,9.13,9.13,0,0,1,1.81,0C25.3,32.89,25.6,32.85,25.91,32.84Zm-23.53.27s0,0,0,0a.76.76,0,0,0,0,.42l.15.5a.06.06,0,1,0,.12,0c0-.16-.07-.32-.1-.48a1.18,1.18,0,0,0-.1-.42A.09.09,0,0,0,2.38,33.11Zm45.7,0a.05.05,0,0,0,0,0,.87.87,0,0,0-.1.42c0,.16-.07.32-.11.48a.06.06,0,1,0,.12,0c.05-.16.11-.33.15-.5a.86.86,0,0,0,0-.42A.1.1,0,0,0,48.08,33.11Zm-43.84.1a.05.05,0,0,0,0,.07c0,.11.07.23.12.35a.46.46,0,0,0,.17.26.07.07,0,0,0,.1,0,.44.44,0,0,0-.08-.29,2.23,2.23,0,0,0-.2-.33A.05.05,0,0,0,4.24,33.21Zm42,0a.06.06,0,0,0-.08,0c-.07.11-.14.22-.2.33a.43.43,0,0,0-.07.29.06.06,0,0,0,.09,0,.49.49,0,0,0,.18-.26c0-.11.07-.24.11-.35A.06.06,0,0,0,46.23,33.21Zm-21,2.72A34.06,34.06,0,0,0,17,37.18a.05.05,0,0,0,0,.1,38.26,38.26,0,0,1,8.18-1,26.69,26.69,0,0,1,4.09.28c1.37.21,2.73.53,4.1.75a0,0,0,1,0,0-.09A28.47,28.47,0,0,0,25.23,35.93Zm-1.8,2.38a.46.46,0,0,0-.23.06.11.11,0,0,0,0,.2,2.25,2.25,0,0,1,.71.22,1.56,1.56,0,0,1,.48.6,0,0,0,0,0,.08,0,.87.87,0,0,0-.39-.81A1.08,1.08,0,0,0,23.43,38.31Zm3.6,0a1.1,1.1,0,0,0-.68.26.87.87,0,0,0-.39.81,0,0,0,0,0,.08,0,1.56,1.56,0,0,1,.48-.6,2.25,2.25,0,0,1,.71-.22.11.11,0,0,0,0-.2A.46.46,0,0,0,27,38.31Zm6.49,1.06,1.68.45a3.51,3.51,0,0,0,.47.79c.19.25.43.6.75.68,0,0,.09-.09.09-.09l-.6-.7a7.31,7.31,0,0,1-.48-.62c.77.2,1.53.38,2.31.54h0a4.6,4.6,0,0,0,1.32,1.46,6.19,6.19,0,0,0,.8.51c-.68,0-1.36,0-2-.1a1.7,1.7,0,0,1-.3-.12,5.79,5.79,0,0,1-.66-.48s-.17,0-.12.09a1.64,1.64,0,0,0,.43.44l-1.29-.13a8.83,8.83,0,0,1-1.13-.91,13.88,13.88,0,0,1-1.25-1.81Zm-16.59,0a13.68,13.68,0,0,1-1.25,1.79,7.51,7.51,0,0,1-1.13.91l-1.09.12-.2,0a1.84,1.84,0,0,0,.43-.45c.05-.07,0-.13-.11-.08a4.54,4.54,0,0,1-.67.48c-.08,0-.2.07-.3.11-.68.06-1.36.11-2,.11a6.17,6.17,0,0,0,.8-.52,4.49,4.49,0,0,0,1.32-1.46c.78-.15,1.55-.33,2.32-.53a6.62,6.62,0,0,1-.46.62c-.2.22-.5.42-.61.69,0,.06,0,.11.09.1a1.67,1.67,0,0,0,.75-.69,3.61,3.61,0,0,0,.47-.77Zm-4.4,1.06a5.46,5.46,0,0,1-1.45,1.3,4.94,4.94,0,0,1-.95.47l-.42.14a8,8,0,0,1-.84-.09l-.17,0L9,42.09a3.15,3.15,0,0,0,1-.74s0-.09,0-.06a5.86,5.86,0,0,1-1.12.63c-.24.09-.53.11-.76.21a7.67,7.67,0,0,1-1.66-.6,7.43,7.43,0,0,1-1-.61,19.38,19.38,0,0,0,3,.07.93.93,0,0,1-.14.14,5.71,5.71,0,0,0-.47.39s0,.06,0,0a1.35,1.35,0,0,0,.6-.29A1.61,1.61,0,0,0,8.79,41a27.16,27.16,0,0,0,2.84-.34Zm25.4,0a31.13,31.13,0,0,0,3.74.51,1.56,1.56,0,0,0,.37.31,1.44,1.44,0,0,0,.59.3s.06,0,0-.06a5.58,5.58,0,0,0-.47-.38L42.05,41a20.73,20.73,0,0,0,3-.06,7.39,7.39,0,0,1-.76.47,7.62,7.62,0,0,1-1.91.73c-.23-.1-.52-.13-.75-.21a5.57,5.57,0,0,1-1.12-.63s-.08,0-.05.06a3.15,3.15,0,0,0,1,.74l.33.16c-.33,0-.67.09-1,.11l-.32-.11a5.53,5.53,0,0,1-1-.5A5.6,5.6,0,0,1,37.93,40.46Zm-32,1.45a9.11,9.11,0,0,0,1,.47c0,.09,0,.18,0,.27l.06.56a.06.06,0,0,0,.11,0,2.51,2.51,0,0,0,.05-.61.76.76,0,0,0,0-.15,6.13,6.13,0,0,0,.61.18l0,.07a1.88,1.88,0,0,0-.07.63c0,.14,0,.29-.1.37a.4.4,0,0,1-.33.08,1.09,1.09,0,0,1-.51-.24,1.27,1.27,0,0,0-.27-.18l-.29-.1c-.12,0-.13-.12-.15-.25C6,42.66,6,42.28,5.92,41.91Zm38.62,0c0,.37-.06.75-.11,1.12,0,.13,0,.21-.16.25l-.29.1a1.59,1.59,0,0,0-.27.18,1.09,1.09,0,0,1-.51.24.43.43,0,0,1-.32-.08c-.11-.08-.11-.23-.11-.37a1.65,1.65,0,0,0-.07-.63l0-.07c.2,0,.41-.12.61-.19a.81.81,0,0,1,0,.16,2.51,2.51,0,0,0,0,.61c0,.06.11,0,.12,0s0-.37.05-.56,0-.19,0-.28A9,9,0,0,0,44.54,41.91Zm-26.69.58,1,.06a2.22,2.22,0,0,0,0,.57q0,.36,0,.72a0,0,0,0,0,.08,0,3.68,3.68,0,0,0,.11-.73,1.62,1.62,0,0,0,0-.54l.28,0c.33.06.65.13,1,.21,0,.07,0,.14.05.21a2.65,2.65,0,0,1,.05.56.1.1,0,1,0,.19,0,5.86,5.86,0,0,0,0-.59v-.12l.55.15.43.12c0,.21.11.41.15.61s.07.56.13.84a.06.06,0,0,0,.11,0,2.89,2.89,0,0,0-.08-1.36l.91.28v.06a6.3,6.3,0,0,1-.06,1.68.64.64,0,0,1-.07.27c0,.06-.13.05-.21.06l-.41,0-.2,0h0v0l-.46-.74a.82.82,0,0,0-.62-.41l-.42-.07a3,3,0,0,0-.42-.06c-.39,0-.38.43-.4.71,0,.57-.05,1.14,0,1.71a1.09,1.09,0,0,1-.26-.05c-.17-.07-.17-.24-.21-.4a.91.91,0,0,0-.36-.58c-.15-.1-.34-.14-.49-.26S18,45.15,18,45s-.1-.53-.14-.79a4.83,4.83,0,0,1,0-1.61A.34.34,0,0,0,17.85,42.49Zm14.76,0v.1a4.58,4.58,0,0,1,0,1.61c0,.26-.09.53-.14.79s0,.38-.17.49-.34.16-.49.27a.9.9,0,0,0-.36.58c0,.14,0,.32-.19.38a.64.64,0,0,1-.28.06c0-.49,0-1,0-1.48l0-.41a.57.57,0,0,0-.13-.42c-.21-.21-.61-.06-.86,0a1.12,1.12,0,0,0-.73.28,5.38,5.38,0,0,0-.46.71l-.11.18,0,0h-.16l-.24,0a1.55,1.55,0,0,1-.37,0c-.07,0-.08,0-.1-.13a5.29,5.29,0,0,1-.1-1.86v-.06l.7-.22.21-.06a2.89,2.89,0,0,0-.08,1.36.06.06,0,0,0,.11,0c.06-.28.07-.56.13-.84s.12-.41.15-.61q.48-.15,1-.27a.49.49,0,0,0,0,.12c0,.2,0,.4,0,.59a.1.1,0,0,0,.2,0,2.71,2.71,0,0,1,.05-.56l.06-.23a10.57,10.57,0,0,1,1.25-.23,1.61,1.61,0,0,0,0,.54,4.6,4.6,0,0,0,.11.73,0,0,0,0,0,.08,0q0-.36,0-.72a2.22,2.22,0,0,0,0-.57l.26,0Zm-17.84.17c0,.32.09.64.11,1a1.52,1.52,0,0,1-.24.79l-.22.44c0,.07-.08.14-.11.22l-.1,0-.48.07a2.57,2.57,0,0,1-.47.08c-.19,0-.25-.34-.33-.47a.69.69,0,0,0-.77-.31c-.15,0-.26.14-.41.18a1.51,1.51,0,0,1-.42.05,3.11,3.11,0,0,1-.43,0l-.13,0a.25.25,0,0,1,0-.07c-.09-.29-.38-.44-.46-.73a.72.72,0,0,1,.14-.66.34.34,0,0,0,.08-.21h.54a1.6,1.6,0,0,1,0,.21,8.53,8.53,0,0,1,.1.85c0,.05.08.07.09,0a4,4,0,0,0,.06-.84,2.35,2.35,0,0,0,0-.26c.44,0,.87-.05,1.3-.08l0,.18c0,.18.07.36.09.55s.17.1.16,0,0-.34,0-.51a1,1,0,0,0,0-.25l.73-.07c0,.23,0,.47.07.69s0,.72.07,1.09c0,.09.16.13.18,0a4.57,4.57,0,0,0,0-1.11,2.94,2.94,0,0,0-.08-.72Zm20.92,0,.84.09a2.94,2.94,0,0,0-.08.72,4.12,4.12,0,0,0,0,1.11c0,.11.17.07.18,0,0-.36,0-.73.07-1.09s.07-.46.07-.69l.73.07a1,1,0,0,0,0,.25,4.34,4.34,0,0,1,0,.51c0,.1.15.1.16,0s.06-.37.09-.55a1.1,1.1,0,0,0,0-.18c.44,0,.87.07,1.31.09a2.09,2.09,0,0,0,0,.25,4,4,0,0,0,.06.84s.09,0,.09,0a8.47,8.47,0,0,1,.09-.85,1.6,1.6,0,0,0,0-.21H40a.32.32,0,0,0,.08.21.69.69,0,0,1,.16.57c0,.26-.21.39-.36.59a.7.7,0,0,0-.11.21s0,0,0,.08v0h-.09l-.26,0a1.56,1.56,0,0,1-.8-.1.91.91,0,0,0-.44-.16.66.66,0,0,0-.44.19,1,1,0,0,0-.21.3,1.32,1.32,0,0,1-.15.29c-.07.07-.19,0-.28,0l-.53-.09-.24,0-.1,0a3.54,3.54,0,0,0-.21-.4,2.46,2.46,0,0,1-.38-.94A7.93,7.93,0,0,1,35.69,42.66Z"/></g></g></g></svg>