<svg xmlns="http://www.w3.org/2000/svg" viewBox="0 0 67.89 54.79"><defs><style>.ff6db4b4-3144-4082-8ee2-e04dce558b98{fill:#ad7129;}.bd6f71f0-7cb0-4c9c-a302-b77260428167{fill:#f1f2f2;}.a2336772-0cd8-45d8-8f14-90e0fd134c98{fill:#895c33;}.bb4c5540-dac5-4494-bd66-82f81573cabb{fill:#c1761d;}.f4528ea3-a6e5-4249-b062-cd051ab2203b{fill:#ad7d3d;}.f1480d20-0f9b-4510-8dfb-eeaf52ebdfcc{fill:#97601f;}.abc2736d-e677-45fb-acde-8500e40adee4{fill:#2b1b08;}</style></defs><g id="be111ca4-a640-437d-b87e-6f9bdda9ad8c" data-name="Layer 2"><g id="b22ba2cc-a994-4e89-ab07-cc393c81e8b4" data-name="Layer 1"><g id="b2af7cfe-2835-4160-80a0-af15e4a9b768" data-name="Untitled"><path class="ff6db4b4-3144-4082-8ee2-e04dce558b98" d="M19.17,25.06a2.11,2.11,0,0,1-.19.23.29.29,0,0,1-.25.09c-.06,1.24-.12,2.48-.23,3.72a2.49,2.49,0,0,1,.37-.09,6.86,6.86,0,0,1,4.58.57c.27.14.54.3.8.47.11-.79.18-1.59.28-2.39l-3.46-.09c0,.09,0,.18,0,.27s0,.4,0,.61a.07.07,0,0,1-.14,0,3.93,3.93,0,0,1-.14-.92.34.34,0,0,1-.19-.15C20.14,26.6,19.66,25.82,19.17,25.06Z"/><path class="ff6db4b4-3144-4082-8ee2-e04dce558b98" d="M23.45,44.65a5.94,5.94,0,0,1-1.05.43A6.79,6.79,0,0,1,18,45l.12.82,0,.23a.33.33,0,0,1,.34.16c.81,1.33,1.47,2.75,2.18,4.14.06.12.12.24.19.36-.09-.58-.08-1.19-.12-1.76a24.11,24.11,0,0,1,0-2.55c0-.06.1-.08.11,0,.13.76.19,1.53.26,2.3A17.25,17.25,0,0,1,21.24,51l.17-.11c.13-.08.25-.17.37-.26A5.7,5.7,0,0,0,23,49.38a4.11,4.11,0,0,1,.69-1v0C23.54,47.12,23.48,45.89,23.45,44.65Z"/><path class="ff6db4b4-3144-4082-8ee2-e04dce558b98" d="M34.06,50.07h0S34.07,50.08,34.06,50.07Z"/><path class="ff6db4b4-3144-4082-8ee2-e04dce558b98" d="M32,27.92c0,.92-.09,1.86-.1,2.78s-.05,2.1-.11,3.15c0,0,0,0-.05,0a27.63,27.63,0,0,1-.2-3.28,23.79,23.79,0,0,1,0-2.67h-.23l-.1,0a.32.32,0,0,1-.18-.15l-.54-.86c0,1.88-.34,3.79-.42,5.66s-.14,4-.15,6c0,3.6-.06,7.18-.22,10.77h0l1.41,3.64c.12.31.23.62.36.93,0,.06.07.2.14.24h0a14.47,14.47,0,0,1-.25-4,22.23,22.23,0,0,1,.33-4s.05,0,.05,0c.1,1.32,0,2.65.06,4,0,.64,0,1.28.06,1.93s.1,1.18.08,1.76l.12-.25c.47-1.07.67-2.27,1.15-3.36a2.29,2.29,0,0,1,.36-.58c-.13-3.67,0-7.37,0-11V33.22c0-.94,0-1.89,0-2.84a19.33,19.33,0,0,1,.09-2.4C33.11,28,32.54,27.94,32,27.92Z"/><path class="ff6db4b4-3144-4082-8ee2-e04dce558b98" d="M33.83,50.06h0Z"/><path class="ff6db4b4-3144-4082-8ee2-e04dce558b98" d="M26.89,24.05c-.64,1.15-1.32,2.29-2,3.41-.09,1-.16,1.92-.23,2.88a8,8,0,0,1,2.1,2.5,9,9,0,0,1,1.05,4.91,8.77,8.77,0,0,1-1.67,4.62,8,8,0,0,1-2.1,2v0c.07,1.28.16,2.56.25,3.84.48.08.72.7.92,1.1l1,2,.5,1a21.57,21.57,0,0,1-.2-6.61,0,0,0,1,1,.08,0,54.8,54.8,0,0,0,.61,7,3.29,3.29,0,0,0,.61-.77c.16-.25.32-.51.47-.77a10,10,0,0,0,.77-1.82l0,0c.16-3.63.22-7.24.26-10.87,0-2,0-4.09.17-6.13a26.37,26.37,0,0,1,.71-5.8c-.23-.34-.48-.69-.72-1a.92.92,0,0,1-.4.11,1.07,1.07,0,0,1-.86-.4c-.23-.26-.41-.56-.65-.82l-.25-.27c-.12,1-.28,2-.36,3.06s-.07,2.33-.14,3.5a0,0,0,0,1-.07,0,15.89,15.89,0,0,1-.2-3.51A17.77,17.77,0,0,1,26.89,24.05Z"/><path class="ff6db4b4-3144-4082-8ee2-e04dce558b98" d="M46.83,27.57l-3.46.09c.1.8.17,1.6.28,2.4a7.08,7.08,0,0,1,1.85-.91,6.81,6.81,0,0,1,3.9,0c-.11-1.24-.18-2.48-.23-3.72a.3.3,0,0,1-.26-.09c-.06-.08-.12-.15-.17-.23-.5.76-1,1.54-1.43,2.34a.34.34,0,0,1-.19.15,3.77,3.77,0,0,1-.14.91.07.07,0,0,1-.14,0c0-.2,0-.4,0-.61S46.83,27.66,46.83,27.57Z"/><path class="ff6db4b4-3144-4082-8ee2-e04dce558b98" d="M34.05,50.07Z"/><path class="bd6f71f0-7cb0-4c9c-a302-b77260428167" d="M38.69,24.86s0,0,0,0Z"/><path class="ff6db4b4-3144-4082-8ee2-e04dce558b98" d="M34.06,50.07s0,0,0,0Z"/><path class="ff6db4b4-3144-4082-8ee2-e04dce558b98" d="M41.15,41.4a9.12,9.12,0,0,1-1-4.91,8.81,8.81,0,0,1,1.68-4.63,7.79,7.79,0,0,1,1.47-1.51c-.06-1-.14-1.93-.22-2.89-.71-1.12-1.38-2.26-2-3.41a17.89,17.89,0,0,1,.32,3.08,15.89,15.89,0,0,1-.2,3.51s-.07,0-.08,0c-.06-1.17,0-2.33-.13-3.5s-.25-2-.36-3.06l-.26.27c-.23.26-.41.56-.64.82a1.08,1.08,0,0,1-.86.4.89.89,0,0,1-.4-.12c-.25.34-.49.69-.72,1a27,27,0,0,1,.71,5.81c.12,2,.15,4.08.17,6.12,0,3.63.1,7.25.26,10.87l0,0a10.26,10.26,0,0,0,.89,2,10.71,10.71,0,0,0,.59.9,2,2,0,0,0,.37.44,55.27,55.27,0,0,0,.61-7c0-.06.07,0,.08,0a21.56,21.56,0,0,1-.2,6.61s0,0,0,0l.24-.46.49-1,1-1.92a1.14,1.14,0,0,1,.63-.66l.07,0c.1-1.28.19-2.56.26-3.84v0A8,8,0,0,1,41.15,41.4Z"/><path class="ff6db4b4-3144-4082-8ee2-e04dce558b98" d="M37.83,32.4c-.09-1.84-.38-3.7-.42-5.54-.18.29-.37.57-.54.86a.34.34,0,0,1-.19.15l-.1,0h-.22a23.79,23.79,0,0,1,0,2.67,25.57,25.57,0,0,1-.21,3.28s0,0,0,0c-.05-1.05-.09-2.1-.1-3.15s-.12-1.86-.1-2.79l-.7,0-1,0a21.22,21.22,0,0,1,.08,2.52c0,.9,0,1.81,0,2.72v5.33c0,3.68.12,7.38,0,11a2.61,2.61,0,0,1,.52,1c.21.58.39,1.19.57,1.78a8.54,8.54,0,0,0,.54,1.44c0-.58.05-1.19.07-1.76s0-1.29.07-1.93c.05-1.32,0-2.66.06-4,0,0,0,0,0,0a22.23,22.23,0,0,1,.33,4,14.5,14.5,0,0,1-.25,4l.07-.08a4.19,4.19,0,0,0,.29-.69l.3-.79,1.26-3.25h0C38,45.7,38,42.12,38,38.52,38,36.48,37.92,34.44,37.83,32.4Z"/><path class="ff6db4b4-3144-4082-8ee2-e04dce558b98" d="M11.83,37.59a37.69,37.69,0,0,1,.56-5.51,21.63,21.63,0,0,1,1.25-4.67l-1.68,0a9.88,9.88,0,0,1-.35,1.21c-.13.49-.25,1-.35,1.48-.23,1.06-.31,2.17-.58,3.22,0,0-.08,0-.08,0A12.92,12.92,0,0,1,11,30.13c.1-.54.22-1.07.35-1.61a6.64,6.64,0,0,1,.31-1.14l-1.48,0a33,33,0,0,0-1,4.82A43.81,43.81,0,0,0,9,41.62c.13,1.47.27,3,.5,4.4a17.53,17.53,0,0,0,.88,3.42c.1-.14.21-.28.32-.41a.27.27,0,0,1,.21-.09,17.33,17.33,0,0,1-.44-3.64,30.71,30.71,0,0,1,0-4.29.06.06,0,1,1,.12,0c0,1.39.07,2.78.21,4.17.07.78.18,1.56.3,2.33.08.54.22,1.09.25,1.64.44.38.9.75,1.35,1.12A7.38,7.38,0,0,1,13,48.89h0A43.84,43.84,0,0,1,11.83,37.59Z"/><path class="ff6db4b4-3144-4082-8ee2-e04dce558b98" d="M17.14,23.52c-.05.77-.22,1.56-.33,2.32s-.2,1.81-.35,2.7c0,0,0,0,0,0,0-.91.07-1.82.13-2.73l0-.61c-.19.67-.38,1.34-.58,2a.33.33,0,0,1-.07.13.31.31,0,0,1-.24.11l-1.72,0c-.37,1.6-.82,3.17-1.09,4.79a38.9,38.9,0,0,0-.5,5.49,43.75,43.75,0,0,0,1.07,10.45L13.6,48a.32.32,0,0,1,.46,0,12.49,12.49,0,0,1,1.24,1.8l.24.45c0,.08.13.21.18.33l0,0a.05.05,0,0,1-.05,0,8.42,8.42,0,0,1-.33-2.65c-.07-1-.14-2.08-.12-3.13a0,0,0,0,1,.09,0c.18,1,.27,1.91.37,2.88a11.62,11.62,0,0,1,.2,2.64c0-.11.11-.21.17-.32.35-.67.76-1.34,1.06-2,.22-.51.36-1.06.63-1.55a2.25,2.25,0,0,1-.07-.58c0-.31,0-.62,0-.94a7.73,7.73,0,0,1-3.38-2.92,8.92,8.92,0,0,1-1.37-4.79A9.61,9.61,0,0,1,13,35.81a8.69,8.69,0,0,1,2-4.42,7.49,7.49,0,0,1,3-2.11c.16-1.33.3-2.66.59-4l0,0Q17.79,24.44,17.14,23.52Z"/><path class="a2336772-0cd8-45d8-8f14-90e0fd134c98" d="M28.76,19.2l2.91.09c1,0,2,.09,3,.05,1.94-.07,3.89-.13,5.83-.17,3.54-.07,7.08-.08,10.61-.05l6.2.08Q57.2,18.59,57,18c0-.15-.1-.31-.14-.46a22.25,22.25,0,0,1-3.16.1H50.32c-1.13,0-2.25,0-3.38,0a16.39,16.39,0,0,1-3.13-.17,0,0,0,0,1,0-.09,16.4,16.4,0,0,1,3.13-.18l3.38,0H53.7a25.83,25.83,0,0,1,3,.09c-.12-.38-.26-.77-.39-1.15a4.91,4.91,0,0,1-1.53,0,11.79,11.79,0,0,1-2-.13s0-.06,0-.06a11.79,11.79,0,0,1,2-.13,6,6,0,0,1,1.4,0c-.13-.39-.28-.76-.42-1.14H12.1c-.15.38-.29.75-.43,1.14a6,6,0,0,1,1.4,0,11.91,11.91,0,0,1,2,.13s0,.06,0,.06a11.91,11.91,0,0,1-2,.13,4.91,4.91,0,0,1-1.53,0c-.13.39-.27.77-.39,1.15a23.85,23.85,0,0,1,3-.08c1.13,0,2.25,0,3.38,0s2.25,0,3.37,0a16.46,16.46,0,0,1,3.14.18,0,0,0,0,1,0,.09,16.45,16.45,0,0,1-3.14.17c-1.12,0-2.25,0-3.37,0H14.2a22.2,22.2,0,0,1-3.16-.1c-.18.56-.34,1.13-.5,1.7,2.49,0,5-.08,7.49-.1Q23.39,19.08,28.76,19.2Zm-.57-2.56c1.91-.14,3.85-.06,5.76-.07s3.84-.05,5.76,0a.13.13,0,0,1,0,.25c-1.92.09-3.84,0-5.76,0s-3.85.07-5.76-.07A.09.09,0,0,1,28.19,16.64Z"/><path class="bb4c5540-dac5-4494-bd66-82f81573cabb" d="M15.74,10.2c0-.09.15,0,.14,0a22.16,22.16,0,0,0-.2,3.64h3.45a5.32,5.32,0,0,1,0-1.64q.09-.88.24-1.77a19.61,19.61,0,0,1,1-3.83.06.06,0,0,1,.11,0c-.25,1.22-.55,2.42-.73,3.65q-.13,1-.21,1.92a8.07,8.07,0,0,1-.13,1.64h5.73a14.17,14.17,0,0,1,.13-3.38A29.32,29.32,0,0,1,26,6.92a.16.16,0,0,1,.3.08,23.5,23.5,0,0,0-.6,3.63c-.09,1.08,0,2.18-.09,3.25h4.57a3.82,3.82,0,0,1,0-1.43c0-.49.06-1,.1-1.47a7.45,7.45,0,0,1,.56-2.51.07.07,0,0,1,.13.06,9.64,9.64,0,0,0-.28,2.94,7.19,7.19,0,0,1-.21,2.41h7a7.48,7.48,0,0,1-.22-2.41,9.31,9.31,0,0,0-.28-2.94c0-.08.1-.13.13-.06A7.46,7.46,0,0,1,37.63,11c0,.53.07,1.06.11,1.59a3.6,3.6,0,0,1,0,1.31h4.58c-.08-1.07,0-2.17-.09-3.25A24.76,24.76,0,0,0,41.62,7a.15.15,0,0,1,.29-.08,27.57,27.57,0,0,1,.69,3.58,14.17,14.17,0,0,1,.13,3.38h5.73a8.07,8.07,0,0,1-.14-1.64c0-.64-.11-1.28-.2-1.92-.18-1.23-.48-2.43-.74-3.65a.06.06,0,0,1,.12,0,19.42,19.42,0,0,1,1,3.83c.09.59.17,1.18.23,1.77a5,5,0,0,1,.05,1.64h3.44A22.15,22.15,0,0,0,52,10.24a.07.07,0,0,1,.14,0,12.06,12.06,0,0,1,.45,3.68h2.93c-.31-.76-.64-1.51-1-2.26A17.34,17.34,0,0,0,51,6.4,18.42,18.42,0,0,0,46,3a25.34,25.34,0,0,0-6.24-2A25.89,25.89,0,0,0,36.47.68c-.55,0-1.1,0-1.65,0s-1.1,0-1.66,0a25.48,25.48,0,0,0-6.56.72c-4,1-8,2.89-10.72,6.09a22.39,22.39,0,0,0-3.2,5.63l-.33.78h2.94A12.06,12.06,0,0,1,15.74,10.2Z"/><path class="ff6db4b4-3144-4082-8ee2-e04dce558b98" d="M56.27,27.38a7.7,7.7,0,0,1,.31,1.14c.13.54.25,1.07.35,1.61a13.45,13.45,0,0,1,.37,3.16s-.07.05-.08,0c-.27-1-.35-2.16-.58-3.22-.11-.54-.24-1.07-.39-1.6a8,8,0,0,1-.31-1.09l-1.68,0a21.81,21.81,0,0,1,1.27,4.77,37.71,37.71,0,0,1,.54,5.4,43.84,43.84,0,0,1-1.19,11.29v0a7.08,7.08,0,0,1,.36,1.37c.45-.37.91-.74,1.35-1.12a17.39,17.39,0,0,1,.27-1.76c.11-.73.21-1.47.28-2.21.14-1.38.18-2.78.21-4.17,0-.08.11-.07.12,0a30.86,30.86,0,0,1,0,4.3A17.31,17.31,0,0,1,57,48.94a.27.27,0,0,1,.21.09c.11.14.22.27.32.41a18,18,0,0,0,1-4c.21-1.47.36-3,.47-4.44s.15-3.16.11-4.74a36.37,36.37,0,0,0-1.31-8.93Z"/><path class="bd6f71f0-7cb0-4c9c-a302-b77260428167" d="M1.2,23.23Z"/><path class="f4528ea3-a6e5-4249-b062-cd051ab2203b" d="M66.24,23.09a1.37,1.37,0,0,0,.34-.07l0-.06h0l0-.06-.22-.22L66,22.48a14.33,14.33,0,0,0-2.47-1.33,13.47,13.47,0,0,1-1.36-.7,4.55,4.55,0,0,1,.42,1.78c0,.12-.15.12-.19,0-.3-.72-.56-1.44-.92-2.14a.28.28,0,0,1,0-.18l-1.19,0-1.87,0A5.48,5.48,0,0,1,59.15,22a19.15,19.15,0,0,1,.36,2.49c0,.08-.11.09-.13,0-.19-.8-.45-1.59-.67-2.38a7.37,7.37,0,0,1-.57-2.2.16.16,0,0,1,0-.09l-3.47-.05a12.29,12.29,0,0,1,.22,1.9A20.74,20.74,0,0,1,55,24.08a0,0,0,0,1-.07,0c-.16-.76-.26-1.53-.37-2.31a16,16,0,0,1-.23-1.95l-3.46,0a9,9,0,0,1,.07,1.8c0,.16-.26.16-.25,0a8.31,8.31,0,0,0-.15-1.8H47a5.85,5.85,0,0,1,.38,1.91A10.74,10.74,0,0,1,47.5,24c0,.06-.1.08-.11,0-.19-.76-.29-1.55-.42-2.33a7,7,0,0,1-.26-1.86l-3.55,0a12.66,12.66,0,0,1,.68,5s-.06,0-.06,0a23.56,23.56,0,0,1-.51-2.5c-.17-.83-.36-1.65-.59-2.47q-1.77,0-3.54.06H39a9.4,9.4,0,0,1,.19,3.26.16.16,0,0,1-.32,0c0-.6,0-1.19-.09-1.79a6.55,6.55,0,0,1-.09-1.46L36.23,20H36a.21.21,0,0,1,0,.12A14.34,14.34,0,0,1,35.7,23s-.08,0-.08,0a21.89,21.89,0,0,1,0-2.92.2.2,0,0,1,0-.11c-.81,0-1.62.06-2.44,0l-.9,0a.2.2,0,0,1,0,.11,21.89,21.89,0,0,1,0,2.92s-.07.06-.08,0a14.34,14.34,0,0,1-.29-2.93A.21.21,0,0,1,32,20l-2.75-.08a6.52,6.52,0,0,1-.09,1.46c-.05.6-.09,1.19-.09,1.79a.16.16,0,0,1-.32,0,8.94,8.94,0,0,1,.19-3.26l-1.55,0-2.12,0c-.23.82-.43,1.64-.6,2.48a24,24,0,0,1-.5,2.5s-.06,0-.06,0a12.5,12.5,0,0,1,.68-5l-3.55,0a6.59,6.59,0,0,1-.27,1.86c-.12.78-.22,1.57-.41,2.33a.06.06,0,0,1-.11,0,10.77,10.77,0,0,1,.11-2.27,5.65,5.65,0,0,1,.38-1.91H17.37a8.31,8.31,0,0,0-.15,1.8c0,.16-.24.16-.25,0a9,9,0,0,1,.07-1.8h-.3l-3.16,0a16,16,0,0,1-.23,1.95c-.11.78-.21,1.55-.37,2.31a0,0,0,0,1-.07,0A20.74,20.74,0,0,1,13,21.72a12.29,12.29,0,0,1,.22-1.9l-3.47.05a.16.16,0,0,1,0,.09,7.3,7.3,0,0,1-.57,2.2c-.22.79-.48,1.58-.67,2.38,0,.07-.14.06-.13,0A19.15,19.15,0,0,1,8.75,22a5.48,5.48,0,0,1,.72-2.15l-3.06.05a.28.28,0,0,1,0,.18c-.36.7-.62,1.42-.92,2.14,0,.1-.19.09-.19,0a4.7,4.7,0,0,1,.43-1.8l-.29.17c-.83.47-1.72.83-2.56,1.27-.2.11-.41.22-.6.34L2,22.39l-.13.1h0l-.05,0a3,3,0,0,0-.4.4h0v0l0,0h0a1.35,1.35,0,0,0,.34.06A.33.33,0,0,1,2,23.5c-.34,1.07-.72,2.11-1.16,3.14h1A33.57,33.57,0,0,1,4.11,23,.33.33,0,0,1,4.62,23l.9,1c.09-.26.19-.53.28-.8s.48-.36.6-.08a23.27,23.27,0,0,1,1.23,3.61c2.61,0,5.22.06,7.82.11l1.2-4.17a.34.34,0,0,1,.61-.08,23.32,23.32,0,0,0,1.46,2,1.43,1.43,0,0,0,.08-.22.33.33,0,0,1,.6-.07c.59.87,1.14,1.77,1.67,2.69l3.32.09q1.18-1.9,2.28-3.88a.32.32,0,0,1,.45-.11,6.64,6.64,0,0,1,1.35,1.35c.13.19.28.46.51.54a.29.29,0,0,0,.16,0h.07s0,0,0,0a.33.33,0,0,1,.6-.08c.6.8,1.16,1.63,1.68,2.48l1.17,0c.42,0,.85.06,1.28.06.82,0,1.63-.06,2.45-.1.52-.85,1.09-1.68,1.68-2.48a.33.33,0,0,1,.6.08v0s0,0,0,0a.14.14,0,0,0,.07,0,.33.33,0,0,0,.17,0c.22-.1.35-.34.49-.52A6.22,6.22,0,0,1,40.79,23a.32.32,0,0,1,.45.12q1.08,2,2.28,3.87l3.32-.09c.52-.91,1.08-1.81,1.67-2.69a.33.33,0,0,1,.6.08,1.72,1.72,0,0,0,.07.21c.52-.63,1-1.29,1.47-2a.33.33,0,0,1,.6.08l1.2,4.17c2.61-.05,5.21-.08,7.82-.1a24.11,24.11,0,0,1,1.23-3.62c.12-.28.52-.15.6.08s.19.54.28.8l.9-1a.34.34,0,0,1,.52.06,36,36,0,0,1,2.31,3.63h1c-.43-1-.82-2.07-1.16-3.14A.33.33,0,0,1,66.24,23.09Zm-52.49-2.5s0,0,0,0S13.76,20.59,13.75,20.59Zm.77.77s0,0,0,0S14.53,21.36,14.52,21.36Zm.87.27s0,0,0,0Zm7,1.73s0,0,0,0S22.35,23.36,22.34,23.36Zm23.22,0s0,0,0,0S45.57,23.36,45.56,23.36Zm6.95-1.73h0S52.52,21.63,52.51,21.63Zm.87-.27s0,0,0,0S53.39,21.36,53.38,21.36Zm.77-.77s0,0,0,0S54.16,20.59,54.15,20.59Z"/><path class="ff6db4b4-3144-4082-8ee2-e04dce558b98" d="M44.45,44.66c0,1.23-.09,2.46-.19,3.69v0a6.66,6.66,0,0,1,.91,1.31,5.19,5.19,0,0,0,1.33,1.23,1.11,1.11,0,0,0,.16.11,20.86,20.86,0,0,1,.21-2.37c.08-.77.14-1.55.27-2.31,0-.07.1,0,.11,0a21.7,21.7,0,0,1,0,2.55c0,.58,0,1.18-.11,1.76.14-.26.27-.53.4-.79.63-1.25,1.24-2.51,2-3.71A.32.32,0,0,1,49.8,46a.85.85,0,0,1,0-.23c0-.28.07-.55.11-.83a6.68,6.68,0,0,1-5.49-.3Z"/><path class="ff6db4b4-3144-4082-8ee2-e04dce558b98" d="M55.5,37.71a37.37,37.37,0,0,0-.51-5.6c-.27-1.59-.72-3.13-1.08-4.69l-1.71,0a.3.3,0,0,1-.25-.11l0,0h0a.19.19,0,0,1,0-.09l-.57-2,0,.6c.06.91.15,1.82.13,2.74,0,0,0,0,0,0-.16-.89-.22-1.8-.35-2.7s-.29-1.55-.33-2.33c-.43.61-.9,1.2-1.38,1.77l0,0c.29,1.31.42,2.64.59,4l.15.05a7.74,7.74,0,0,1,3.53,3A8.92,8.92,0,0,1,55,37.12a9.5,9.5,0,0,1-.09,1.31,8.69,8.69,0,0,1-2,4.42,7.56,7.56,0,0,1-2.69,2l0,.94a2.3,2.3,0,0,1-.07.58c.27.49.41,1.06.64,1.58.3.69.69,1.35,1,2l.17.32a11.58,11.58,0,0,1,.19-2.64c.1-1,.2-1.93.38-2.88a0,0,0,0,1,.09,0c0,1.05-.06,2.08-.13,3.13a8.08,8.08,0,0,1-.33,2.64s0,0,0,0l0,0s.05-.08.06-.11l.11-.23c.08-.16.17-.32.26-.48A12.38,12.38,0,0,1,53.84,48a.33.33,0,0,1,.46,0l.14.14A43.61,43.61,0,0,0,55.5,37.71Z"/><path class="f1480d20-0f9b-4510-8dfb-eeaf52ebdfcc" d="M34,45.41a.57.57,0,0,1,.13.42,5.8,5.8,0,0,0,.5,2.6c.07.14.15.29.3.33a.43.43,0,0,0,.36-.08,1.55,1.55,0,0,0,.5-.92c.15-.51.3-1,.44-1.53a4.15,4.15,0,0,0,.72,1.86.33.33,0,0,0,.17.14c.18.06.33-.13.42-.3a7.86,7.86,0,0,0,.87-3.72c.26,1.2.58,2.41.87,3.6.09.37.24.79.6.89s.75-.21,1-.54a5.51,5.51,0,0,0,.56-2.27L41.7,47c.13.41.36.9.79.92a.81.81,0,0,0,.43-.11,2,2,0,0,0,1-1.56,20.23,20.23,0,0,0,1.36,2c.12.15.26.31.45.31a.47.47,0,0,0,.32-.12,3.33,3.33,0,0,0,1-2.09,1.85,1.85,0,0,0,.12.62.66.66,0,0,0,.47.39.94.94,0,0,0,.7-.37l1.74-1.73a4,4,0,0,0,.64,1,.81.81,0,0,0,.35.28.64.64,0,0,0,.59-.14,1.76,1.76,0,0,0,.37-.52,6.19,6.19,0,0,0,.41-1c.11.27.06.45.17.71a1.14,1.14,0,0,0,.31.44.73.73,0,0,0,.8,0,1.8,1.8,0,0,0,.53-.66,12.2,12.2,0,0,0,1.24-3.07c.1.78.13,1.56.23,2.34,0,.25.1.55.34.64s.62-.29.73-.64a17.43,17.43,0,0,0,.56-3,12.69,12.69,0,0,0,.33,2.75c0,.19.16.44.36.4s.19-.12.24-.22A6,6,0,0,0,59,42.91a45.44,45.44,0,0,1-1.19,6.85.82.82,0,0,0-1-.13,3.76,3.76,0,0,0-.84.66,1.46,1.46,0,0,1-.93.48,5.18,5.18,0,0,0-.62-2.27.45.45,0,0,0-.24-.23.4.4,0,0,0-.34.15c-.65.65-.83,1.66-1.47,2.32a.27.27,0,0,1-.18.1c-.09,0-.15-.09-.2-.17-.81-1.35-1.57-2.74-2.26-4.17a5.24,5.24,0,0,0-.92,1.31L47.1,51.1c0,.08-.09.16-.17.18a.23.23,0,0,1-.18,0,5.32,5.32,0,0,1-.93-.71c-.19-.15-.4-.26-.59-.4a5.63,5.63,0,0,1-1.36-1.55c-.74.16-1.09.75-1.46,1.41l-1.49,2.68a.22.22,0,0,1-.09.1l-.09,0a2.8,2.8,0,0,1-1.24-1.28l-.88-1.41a.31.31,0,0,0-.1-.12c-.15-.08-.29.1-.36.26l-1.62,3.65c-.09.2-.26.45-.47.39a.45.45,0,0,1-.19-.14,2.1,2.1,0,0,1-.45-.78c-.13-.4-.25-.74-.35-1.14s-.19-.69-.32-1c-.24-.6-.6-1.15-.81-1.76-.21.61-.58,1.16-.81,1.76a8.64,8.64,0,0,0-.32,1c-.11.4-.22.74-.35,1.14a2.1,2.1,0,0,1-.45.78.52.52,0,0,1-.19.14c-.21.06-.38-.19-.47-.39l-1.62-3.65c-.07-.16-.21-.34-.36-.26a.2.2,0,0,0-.1.12c-.3.47-.59.94-.88,1.41a2.8,2.8,0,0,1-1.24,1.28l-.09,0c-.05,0-.07-.06-.1-.1L25.48,50c-.36-.66-.71-1.25-1.45-1.41a5.63,5.63,0,0,1-1.36,1.55c-.19.14-.4.25-.59.4a4.88,4.88,0,0,1-.93.71.23.23,0,0,1-.18,0c-.08,0-.13-.1-.17-.18l-1.74-3.29a5.24,5.24,0,0,0-.92-1.31c-.69,1.43-1.45,2.82-2.26,4.17-.05.08-.11.17-.2.17a.27.27,0,0,1-.18-.1c-.64-.66-.82-1.67-1.47-2.32a.4.4,0,0,0-.34-.15.45.45,0,0,0-.24.23,5.18,5.18,0,0,0-.62,2.27,1.51,1.51,0,0,1-.94-.48,3.5,3.5,0,0,0-.83-.66.82.82,0,0,0-1,.13,45.44,45.44,0,0,1-1.19-6.85,6.32,6.32,0,0,0,.65,1.62c.06.1.14.21.25.22s.32-.21.36-.4a12.69,12.69,0,0,0,.33-2.75,17.43,17.43,0,0,0,.56,3c.11.35.38.76.73.64s.31-.39.34-.64c.1-.78.13-1.56.23-2.34a12.2,12.2,0,0,0,1.24,3.07,1.8,1.8,0,0,0,.53.66.73.73,0,0,0,.8,0,1,1,0,0,0,.3-.44c.12-.26.07-.44.18-.71a6.19,6.19,0,0,0,.41,1,1.76,1.76,0,0,0,.37.52.64.64,0,0,0,.59.14.81.81,0,0,0,.35-.28,4,4,0,0,0,.63-1c.59.57,1.17,1.15,1.75,1.73a.94.94,0,0,0,.7.37.66.66,0,0,0,.47-.39,2.13,2.13,0,0,0,.12-.62,3.33,3.33,0,0,0,1,2.09.47.47,0,0,0,.32.12c.19,0,.33-.16.45-.31a22.06,22.06,0,0,0,1.36-2,2,2,0,0,0,1,1.56.81.81,0,0,0,.43.11c.43,0,.66-.51.79-.92l.36-1.1a5.36,5.36,0,0,0,.56,2.27c.2.33.57.65.94.54s.51-.53.61-.89c.29-1.19.61-2.4.87-3.6a7.86,7.86,0,0,0,.87,3.72c.08.17.24.36.42.3a.38.38,0,0,0,.17-.14,4.19,4.19,0,0,0,.72-1.86c.14.51.29,1,.43,1.53a1.65,1.65,0,0,0,.51.92.43.43,0,0,0,.36.08.51.51,0,0,0,.29-.33,5.68,5.68,0,0,0,.51-2.6A.55.55,0,0,1,34,45.41Z"/><path class="f1480d20-0f9b-4510-8dfb-eeaf52ebdfcc" d="M34,30.11a1.33,1.33,0,0,1,1.32.39,2.64,2.64,0,0,1,.65,1.39c.1.51.14,1,.27,1.54.13-.8.25-1.61.37-2.41a2.7,2.7,0,0,1,.27-.93.51.51,0,0,1,.39-.28c.23,0,.39.23.48.44a4.45,4.45,0,0,1,.34,1.3,8.58,8.58,0,0,1,.63-2.92,1.65,1.65,0,0,1,.8-1,1.2,1.2,0,0,1,1.39.67A3.37,3.37,0,0,1,41.13,30a2.1,2.1,0,0,1,1.15-1.53.56.56,0,0,1,.45-.07.6.6,0,0,1,.21.21A3,3,0,0,1,43.41,30a4.1,4.1,0,0,1,2.49-1.83,1.41,1.41,0,0,1,.6-.13.47.47,0,0,1,.44.38A3.39,3.39,0,0,1,48,27.54a1.21,1.21,0,0,1,1.26.11c.14.13.24.29.38.41a.78.78,0,0,1,.68-.59.82.82,0,0,1,.81.44c.16.31.11.71.32,1a2.11,2.11,0,0,1,.88-.63,1.46,1.46,0,0,1,1.5.65,4.83,4.83,0,0,1,.65,1.61,3.49,3.49,0,0,0,.76,1.54,4.2,4.2,0,0,1,.47-2.95.61.61,0,0,1,.41-.27c.3,0,.47.33.55.62A10.75,10.75,0,0,1,57,31.35l.21-1.67c0-.28.12-.62.39-.73a.65.65,0,0,1,.68.28,4.22,4.22,0,0,0,.49.61c-.18-1-.4-2-.66-3a6.09,6.09,0,0,1-2.37.16c-1.11-.06-2.26,0-3.36-.12a.79.79,0,0,1-.53-.35,2.45,2.45,0,0,1-.25-.6,5.73,5.73,0,0,1-.3-1.35A8.27,8.27,0,0,0,51,23.21a.23.23,0,0,0-.07-.14c-.08-.06-.19,0-.26.1-.36.4-.71.8-1.07,1.19a.85.85,0,0,1-.31.26.32.32,0,0,1-.38-.07c0-.05-.06-.13-.13-.12s-.07,0-.09.07L47,27.07c-.16.26-.48.17-.78.16l-2.75-.05a.68.68,0,0,1-.2,0c-.16-.06-.24-.25-.31-.42a8.21,8.21,0,0,0-1.9-2.89c-.06-.06-.14-.13-.22-.12a.29.29,0,0,0-.15.09,7.42,7.42,0,0,1-1.1,1c-.48.28-1.1.31-1.56.63a4.13,4.13,0,0,0-.81,1,2.28,2.28,0,0,1-.43.5c-.16.12-.27.29-.43.4a.51.51,0,0,1-.45.06.84.84,0,0,0-.47,0,9.77,9.77,0,0,1-1.07.25.54.54,0,0,0-.3.15.44.44,0,0,0-.08.25c0,.17-.05.35-.07.52,0-.17-.05-.35-.07-.52a.53.53,0,0,0-.08-.25.54.54,0,0,0-.3-.15,9.94,9.94,0,0,1-1.08-.25.84.84,0,0,0-.47,0,.5.5,0,0,1-.44-.06c-.16-.11-.28-.28-.43-.4a2.32,2.32,0,0,1-.44-.5,3.87,3.87,0,0,0-.8-1c-.46-.32-1.08-.35-1.57-.63a7.35,7.35,0,0,1-1.09-1,.29.29,0,0,0-.15-.09.32.32,0,0,0-.22.12,8.24,8.24,0,0,0-1.91,2.89c-.06.17-.14.36-.31.42a.62.62,0,0,1-.19,0l-2.75.05c-.31,0-.62.1-.79-.16L19.23,24.5s-.06-.07-.1-.07-.09.07-.13.12a.3.3,0,0,1-.37.07.77.77,0,0,1-.31-.26c-.36-.39-.72-.79-1.07-1.19-.07-.08-.18-.16-.26-.1a.19.19,0,0,0-.07.14,8.27,8.27,0,0,0-.33,1.39A5.75,5.75,0,0,1,16.28,26a2.12,2.12,0,0,1-.25.6.75.75,0,0,1-.53.35c-1.09.09-2.24.06-3.35.12a6.14,6.14,0,0,1-2.38-.16c-.25,1-.47,2-.65,3a4.17,4.17,0,0,0,.48-.61.66.66,0,0,1,.69-.28c.27.11.35.45.38.73.08.56.15,1.11.22,1.67a10.75,10.75,0,0,1,.35-1.88c.08-.29.24-.63.54-.62a.65.65,0,0,1,.42.27,4.14,4.14,0,0,1,.46,2.95,3.51,3.51,0,0,0,.77-1.54,5,5,0,0,1,.64-1.61,1.46,1.46,0,0,1,1.5-.65,2.08,2.08,0,0,1,.89.63c.2-.28.16-.68.31-1a.84.84,0,0,1,.82-.44.79.79,0,0,1,.68.59c.14-.12.23-.28.37-.41a1.23,1.23,0,0,1,1.27-.11,3.64,3.64,0,0,1,1.05.83.45.45,0,0,1,.43-.38,1.46,1.46,0,0,1,.61.13A4.05,4.05,0,0,1,24.48,30,3,3,0,0,1,25,28.57a.53.53,0,0,1,.21-.21.56.56,0,0,1,.45.07A2.07,2.07,0,0,1,26.76,30,3.49,3.49,0,0,1,27,28.32a1.21,1.21,0,0,1,1.39-.67,1.58,1.58,0,0,1,.8,1,8.35,8.35,0,0,1,.63,2.92,4.47,4.47,0,0,1,.35-1.3c.09-.22.25-.45.48-.44a.49.49,0,0,1,.38.28,2.5,2.5,0,0,1,.27.93c.13.8.25,1.61.37,2.41.14-.5.18-1,.28-1.54a2.7,2.7,0,0,1,.64-1.39A1.35,1.35,0,0,1,34,30.11Z"/><path class="f1480d20-0f9b-4510-8dfb-eeaf52ebdfcc" d="M35.08,39.54l.61-1.3a32.06,32.06,0,0,1,.59,4.67c0,.68.1,1.35.16,2a2.58,2.58,0,0,0,.34-1.26,42.16,42.16,0,0,0,0-8.1c-.18.69-.35,1.38-.52,2.08a13.16,13.16,0,0,0-1.06-3.54,5.49,5.49,0,0,1-.11,1.49c0,.34,0,.69,0,1C35.05,37.61,35,38.57,35.08,39.54Z"/><path class="f1480d20-0f9b-4510-8dfb-eeaf52ebdfcc" d="M32.82,39.54l-.61-1.3a32.06,32.06,0,0,0-.59,4.67c-.05.68-.1,1.35-.16,2a2.58,2.58,0,0,1-.34-1.26,42.16,42.16,0,0,1,0-8.1c.17.69.35,1.38.52,2.08a12.81,12.81,0,0,1,1.06-3.54,5.49,5.49,0,0,0,.11,1.49c0,.34,0,.69,0,1C32.84,37.61,32.86,38.57,32.82,39.54Z"/><path class="f1480d20-0f9b-4510-8dfb-eeaf52ebdfcc" d="M39.09,33.53a6.77,6.77,0,0,1,.52-1.82L40,32.82s0,.07.06.08a.1.1,0,0,0,.1-.06,26.2,26.2,0,0,0,1.78-2.44l-.75.66c-.18.16-.46.33-.64.17a.6.6,0,0,1-.13-.25,7.29,7.29,0,0,0-.87-1.85L39.37,31a7.61,7.61,0,0,1-.43-1.12c0,.53,0,1.06,0,1.59,0,.36,0,.73,0,1.09A7.94,7.94,0,0,1,39.09,33.53Z"/><path class="f1480d20-0f9b-4510-8dfb-eeaf52ebdfcc" d="M28.81,33.53a6.77,6.77,0,0,0-.52-1.82l-.36,1.11s0,.07-.06.08-.08,0-.11-.06A28,28,0,0,1,26,30.4l.75.66c.18.16.46.33.64.17a.6.6,0,0,0,.13-.25,7.29,7.29,0,0,1,.87-1.85L28.53,31A8.92,8.92,0,0,0,29,29.85c0,.53,0,1.06,0,1.59,0,.36,0,.73,0,1.09A7.94,7.94,0,0,0,28.81,33.53Z"/><path class="f1480d20-0f9b-4510-8dfb-eeaf52ebdfcc" d="M40.73,44.56c.07-.13.17-.27.31-.27s.3.22.37.4a5.85,5.85,0,0,0,1.24,2.13,10.6,10.6,0,0,0-1.1-3.74l-.27.65c-.22,0-.33-.27-.41-.49L40.3,41.7A21.81,21.81,0,0,0,40.15,44c-.19-1.31-.39-2.63-.58-3.95a12.65,12.65,0,0,0-.19,3.42,9.23,9.23,0,0,0,.47,3A18.4,18.4,0,0,1,40.73,44.56Z"/><path class="f1480d20-0f9b-4510-8dfb-eeaf52ebdfcc" d="M27.17,44.56c-.07-.13-.17-.27-.31-.27s-.3.22-.37.4a6,6,0,0,1-1.24,2.13,10.8,10.8,0,0,1,1.09-3.74l.27.65c.23,0,.34-.27.42-.49.19-.51.38-1,.56-1.54A19.4,19.4,0,0,1,27.75,44c.19-1.31.39-2.63.58-3.95a13.06,13.06,0,0,1,.19,3.42,9.23,9.23,0,0,1-.47,3A18.4,18.4,0,0,0,27.17,44.56Z"/><path class="f1480d20-0f9b-4510-8dfb-eeaf52ebdfcc" d="M45.35,47.47a.16.16,0,0,0,.07.11c.07,0,.15,0,.19-.13a4,4,0,0,1,1-1.22.46.46,0,0,1,.38-.16.58.58,0,0,1,.26.19c.31.33.52.32.84,0l1-.9-.92.38a.37.37,0,0,1-.14,0c-.13,0-.21-.13-.3-.22a.84.84,0,0,0-.95-.05c-.3.15-.54.4-.84.56a.17.17,0,0,1-.17,0s0-.06-.06-.09l-.2-.53c0,.29-.09.57-.13.86A7,7,0,0,0,45,45.2c.06.14,0,.45,0,.62a2,2,0,0,0,.1.4C45.22,46.63,45.26,47.06,45.35,47.47Z"/><path class="f1480d20-0f9b-4510-8dfb-eeaf52ebdfcc" d="M22.55,47.47s0,.09-.07.11-.15,0-.19-.13a4.09,4.09,0,0,0-1-1.22.46.46,0,0,0-.38-.16.58.58,0,0,0-.26.19c-.31.33-.53.32-.84,0l-1-.9.92.38a.37.37,0,0,0,.14,0c.13,0,.21-.13.3-.22a.84.84,0,0,1,.95-.05c.3.15.54.4.84.56.05,0,.11.06.16,0a.13.13,0,0,0,.06-.09l.21-.53c0,.29.09.57.13.86a6.18,6.18,0,0,1,.36-1.18c-.06.14,0,.45,0,.62a2.92,2.92,0,0,1-.1.4C22.68,46.63,22.64,47.06,22.55,47.47Z"/><path class="f1480d20-0f9b-4510-8dfb-eeaf52ebdfcc" d="M53.36,43.87l-.32-.8a11.4,11.4,0,0,0-1.63,2.09c.38-.32.76-.64,1.13-1a.55.55,0,0,1,.37-.17c0,.33.09.67.14,1,.41-.21.57-.73,1-.93-.06.35-.11.7-.17,1.06a.37.37,0,0,0,.19-.16,6.77,6.77,0,0,0,1.06-2.81,10.12,10.12,0,0,0,0-3,5.41,5.41,0,0,1-.31,1.23c-.11.39-.24.77-.37,1.15A19.77,19.77,0,0,1,53.36,43.87Z"/><path class="f1480d20-0f9b-4510-8dfb-eeaf52ebdfcc" d="M14.54,43.87c.1-.27.21-.53.32-.8a11.4,11.4,0,0,1,1.63,2.09l-1.14-1A.51.51,0,0,0,15,44c-.05.33-.1.67-.14,1-.41-.21-.57-.73-1-.93.05.35.11.7.16,1.06a.35.35,0,0,1-.18-.16,6.77,6.77,0,0,1-1.06-2.81,9.8,9.8,0,0,1,.05-3,5.41,5.41,0,0,0,.31,1.23c.1.39.24.77.37,1.15A19.77,19.77,0,0,0,14.54,43.87Z"/><path class="f1480d20-0f9b-4510-8dfb-eeaf52ebdfcc" d="M56.44,42a22.44,22.44,0,0,1,1.09-2.86,2.29,2.29,0,0,1,.31,1q.18,1.27.24,2.55a18.59,18.59,0,0,0,.37-4.46c-.12.35-.23.71-.34,1.06l-.21-.51c-.07-.18-.2-.39-.4-.36s-.22.16-.28.28l-.32.62a2.75,2.75,0,0,0-.53-1.58c0,.63.1,1.25.09,1.88S56.45,41.26,56.44,42Z"/><path class="f1480d20-0f9b-4510-8dfb-eeaf52ebdfcc" d="M11.46,42a22.44,22.44,0,0,0-1.09-2.86,2.43,2.43,0,0,0-.32,1q-.17,1.27-.24,2.55a19.11,19.11,0,0,1-.36-4.46l.34,1.06.21-.51c.07-.18.2-.39.4-.36s.22.16.28.28.21.41.32.62a2.75,2.75,0,0,1,.53-1.58c0,.63-.1,1.25-.09,1.88S11.45,41.26,11.46,42Z"/><path class="f1480d20-0f9b-4510-8dfb-eeaf52ebdfcc" d="M56.45,35a9.31,9.31,0,0,0-.55-5.34,14.91,14.91,0,0,0,.1,2.67c.06.45.12.91.19,1.36A4.76,4.76,0,0,1,56.45,35Z"/><path class="f1480d20-0f9b-4510-8dfb-eeaf52ebdfcc" d="M11.45,35A9.31,9.31,0,0,1,12,29.65a14.91,14.91,0,0,1-.1,2.67c-.06.45-.12.91-.19,1.36A4.76,4.76,0,0,0,11.45,35Z"/><path class="f1480d20-0f9b-4510-8dfb-eeaf52ebdfcc" d="M57.85,34.47c0,.1.08.24.18.21a.17.17,0,0,0,.1-.14,4.52,4.52,0,0,0,.11-1.16,14.16,14.16,0,0,0-.47-3.48A10.37,10.37,0,0,0,57.85,34.47Z"/><path class="f1480d20-0f9b-4510-8dfb-eeaf52ebdfcc" d="M10.05,34.47c0,.1-.08.24-.18.21a.17.17,0,0,1-.1-.14,4.12,4.12,0,0,1-.11-1.16,14.64,14.64,0,0,1,.46-3.48A10.37,10.37,0,0,1,10.05,34.47Z"/><path class="f1480d20-0f9b-4510-8dfb-eeaf52ebdfcc" d="M52.85,30.72a9.49,9.49,0,0,1,1,1.14,9.61,9.61,0,0,1,.85,1.77,10,10,0,0,0-1-3.74c0,.19-.05.38-.07.58,0-.39-1.5-1.44-1.85-1.28S52.69,30.55,52.85,30.72Z"/><path class="f1480d20-0f9b-4510-8dfb-eeaf52ebdfcc" d="M15.05,30.72a9.49,9.49,0,0,0-1,1.14,9.61,9.61,0,0,0-.85,1.77,10,10,0,0,1,1-3.74c0,.19.05.38.07.58,0-.39,1.5-1.44,1.85-1.28S15.21,30.55,15.05,30.72Z"/><path class="f1480d20-0f9b-4510-8dfb-eeaf52ebdfcc" d="M34,26.19a5.78,5.78,0,0,0,.72,0,3.19,3.19,0,0,0,1.8-.7c.59-.52.91-1.31,1.52-1.79l.23.5s.06.12.12.14a.28.28,0,0,0,.21-.07l2.37-1.71a.27.27,0,0,0,.31-.12.83.83,0,0,0,.1-.34,1.05,1.05,0,0,1,.38.61,11.33,11.33,0,0,0,1.06,2L43.6,26l1,.17a1.24,1.24,0,0,1,.28-.7.8.8,0,0,0,.6.64,1.26,1.26,0,0,0,.91-.11,3.62,3.62,0,0,0,1.2-1.2l1.11-1.56a.73.73,0,0,1,.28.5,17.7,17.7,0,0,1,1.9-2.16c.13-.12.24,0,.37.13a1.17,1.17,0,0,1,.26.46,18.3,18.3,0,0,0,.93,2.13.81.81,0,0,0,.24.33c.2.15.48.13.69.27,0,.2-.44.18-.41.38a.15.15,0,0,0,.07.11,2.38,2.38,0,0,0,2,.37,7.62,7.62,0,0,1,1.58.05,7,7,0,0,0,2.28.08,2.31,2.31,0,0,0,1.45-1.47c.16-.43.21-.9.38-1.34a1.37,1.37,0,0,1,.95-.93,2.08,2.08,0,0,0,.56.69,1.31,1.31,0,0,1,.51-.89c.05.15.09.3.13.46a1.92,1.92,0,0,1,1.21,0,2.09,2.09,0,0,1,.83,1.22,14.68,14.68,0,0,0,1,2.19.87.87,0,0,0,.29.34.46.46,0,0,0,.64-.36,3.93,3.93,0,0,1,.57,1.25,5.12,5.12,0,0,1-1.41.07.42.42,0,0,1-.22-.05.59.59,0,0,1-.2-.34,7.5,7.5,0,0,0-1.9-3.13.3.3,0,0,0-.46,0c-.21.15-.37.36-.59.49A.52.52,0,0,1,62,24c-.09-.12-.13-.33-.28-.33s-.19.13-.23.25q-.44,1.33-.75,2.7a.61.61,0,0,1-.12.27.5.5,0,0,1-.22.13c-.86.28-1.78-.13-2.67-.11a10.23,10.23,0,0,0-1.34.17,12.8,12.8,0,0,1-1.52.05l-2.05,0a.89.89,0,0,1-.51-.11.94.94,0,0,1-.27-.5l-.75-2.66a1.44,1.44,0,0,0-.44-.8,4.42,4.42,0,0,1-1.47,1.77.63.63,0,0,1-.39.15c-.15,0-.29-.15-.24-.29-.53.81-1.07,1.56-1.6,2.37a.7.7,0,0,1-.13.16.59.59,0,0,1-.35,0,15.2,15.2,0,0,0-2.94,0,.9.9,0,0,1-.46,0,.82.82,0,0,1-.25-.24,14.93,14.93,0,0,1-2-3.27c-.15-.08-.29,0-.43.14a4.38,4.38,0,0,0-.73.76,2.37,2.37,0,0,1-.35.42.62.62,0,0,1-.5.15c-.15,0-.28-.15-.43-.16a.64.64,0,0,0-.51.31,12.07,12.07,0,0,0-1.16,1.6c-.19.33-.42.7-.79.79a1.9,1.9,0,0,1-.67,0c-.51-.06-1,.05-1.53,0s-1-.1-1.53,0a1.9,1.9,0,0,1-.67,0c-.37-.09-.6-.46-.8-.79a12,12,0,0,0-1.15-1.6.64.64,0,0,0-.51-.31,2.5,2.5,0,0,0-.43.16.61.61,0,0,1-.5-.15,2.37,2.37,0,0,1-.35-.42,4.44,4.44,0,0,0-.74-.76c-.13-.11-.27-.22-.42-.14a14.93,14.93,0,0,1-2,3.27.82.82,0,0,1-.25.24.9.9,0,0,1-.46,0,15.2,15.2,0,0,0-2.94,0,.59.59,0,0,1-.35,0,.51.51,0,0,1-.13-.16c-.53-.81-1.07-1.56-1.6-2.37.05.14-.09.28-.24.29a.63.63,0,0,1-.39-.15A4.53,4.53,0,0,1,17,23a1.43,1.43,0,0,0-.43.8l-.75,2.66a.89.89,0,0,1-.28.5.86.86,0,0,1-.5.11l-2.05,0a13,13,0,0,1-1.53-.05,9.87,9.87,0,0,0-1.33-.17c-.89,0-1.81.39-2.67.11a.5.5,0,0,1-.22-.13.61.61,0,0,1-.12-.27q-.31-1.36-.75-2.7c0-.12-.11-.25-.23-.25s-.19.21-.28.33a.52.52,0,0,1-.69.08c-.22-.13-.38-.34-.59-.49a.34.34,0,0,0-.27-.09.35.35,0,0,0-.19.12,7.5,7.5,0,0,0-1.9,3.13.59.59,0,0,1-.2.34.42.42,0,0,1-.22.05,5.12,5.12,0,0,1-1.41-.07A3.93,3.93,0,0,1,1,25.82a.46.46,0,0,0,.64.36,1,1,0,0,0,.29-.34A14.68,14.68,0,0,0,3,23.65a2.09,2.09,0,0,1,.83-1.22,1.92,1.92,0,0,1,1.21,0c0-.16.08-.31.13-.46a1.31,1.31,0,0,1,.51.89,2.08,2.08,0,0,0,.56-.69,1.37,1.37,0,0,1,1,.93c.17.44.22.91.38,1.34A2.31,2.31,0,0,0,9,25.87a7,7,0,0,0,2.28-.08,7.62,7.62,0,0,1,1.58-.05,2.38,2.38,0,0,0,2-.37s.07-.07.07-.11c0-.2-.38-.18-.41-.38.2-.14.49-.12.69-.27a.81.81,0,0,0,.24-.33,20.18,20.18,0,0,0,.93-2.13,1.17,1.17,0,0,1,.26-.46c.13-.12.24-.25.37-.13a17.7,17.7,0,0,1,1.9,2.16.73.73,0,0,1,.28-.5l1.11,1.56a3.53,3.53,0,0,0,1.2,1.2,1.26,1.26,0,0,0,.91.11.82.82,0,0,0,.6-.64,1.24,1.24,0,0,1,.28.7l1-.17.83-1.33a11.33,11.33,0,0,0,1.06-2,1.05,1.05,0,0,1,.38-.61.83.83,0,0,0,.1.34.27.27,0,0,0,.31.12l2.37,1.71a.28.28,0,0,0,.21.07.32.32,0,0,0,.12-.14l.23-.5c.61.48.93,1.27,1.52,1.79a3.19,3.19,0,0,0,1.8.7A5.78,5.78,0,0,0,34,26.19Z"/><path class="f1480d20-0f9b-4510-8dfb-eeaf52ebdfcc" d="M58.5,32.61c.18,1.39.18,2.79.42,4.16a4.81,4.81,0,0,0,.4-2,21.42,21.42,0,0,0-1-6.38c0-.05,0-.1-.07-.12a.18.18,0,0,0-.16,0c-.37.12-.92.12-.86.56s.48.81.62,1.14A9.29,9.29,0,0,1,58.5,32.61Z"/><path class="f1480d20-0f9b-4510-8dfb-eeaf52ebdfcc" d="M9.4,32.61C9.22,34,9.22,35.4,9,36.77a4.81,4.81,0,0,1-.4-2,21.41,21.41,0,0,1,1-6.38c0-.05,0-.1.07-.12a.18.18,0,0,1,.16,0c.37.12.93.12.87.56s-.48.81-.62,1.14A9.29,9.29,0,0,0,9.4,32.61Z"/><path class="f1480d20-0f9b-4510-8dfb-eeaf52ebdfcc" d="M34,23.05c.16-.48.31-1,.47-1.45a1.19,1.19,0,0,1,.41-.7c.3.69.61,1.36.87,2.06a2.72,2.72,0,0,1,1.64-2.18,1.22,1.22,0,0,1,1.13,0,1.64,1.64,0,0,1,.52.9,2.81,2.81,0,0,1,1.23-1.23,2.43,2.43,0,0,1,2.2-.21,2.94,2.94,0,0,1,1,1.21,2,2,0,0,1,.67-.76,3.42,3.42,0,0,1,.92-.45,1.49,1.49,0,0,1,.66-.09,1.46,1.46,0,0,1,.67.33,2.45,2.45,0,0,1,.85,1.16,3.15,3.15,0,0,1,1.31-1.46c.85-.43,2-.39,2.28.65A2.28,2.28,0,0,1,53,20.19a2.39,2.39,0,0,1,1.68,1.58A2.6,2.6,0,0,1,57,20.37,2.85,2.85,0,0,1,59,22.06a2.35,2.35,0,0,1,1.19-1.38,1.71,1.71,0,0,1,1.77.17c0-.38,0-.83-.38-1a1.24,1.24,0,0,0-.47-.11c-2.35-.15-4.71-.25-7.07-.28l-3.27,0H48.09c-1.21.08-2.45.09-3.67.17a8.68,8.68,0,0,1-1.14,0c-.56,0-1.12-.18-1.68-.24a30.15,30.15,0,0,0-3.15.12c-.44,0-.88,0-1.31,0-.89,0-1.78,0-2.67,0l-.52,0-.52,0c-.88,0-1.77-.05-2.66,0-.44,0-.88,0-1.31,0a30.36,30.36,0,0,0-3.15-.12c-.57.06-1.12.2-1.69.24a8.68,8.68,0,0,1-1.14,0c-1.21-.08-2.46-.09-3.67-.17h-2.7c-1.09,0-2.19,0-3.28,0-2.36,0-4.71.13-7.06.28a1.25,1.25,0,0,0-.48.11c-.33.19-.37.64-.37,1a1.71,1.71,0,0,1,1.77-.17,2.42,2.42,0,0,1,1.19,1.38,2.86,2.86,0,0,1,2-1.69,2.58,2.58,0,0,1,2.31,1.4,2.38,2.38,0,0,1,1.69-1.58,2.26,2.26,0,0,1,2.14.66c.29-1,1.44-1.07,2.29-.65a3.21,3.21,0,0,1,1.31,1.46,2.43,2.43,0,0,1,.84-1.16,1.22,1.22,0,0,1,1.33-.24,3.63,3.63,0,0,1,.93.45,2.22,2.22,0,0,1,.67.76,2.92,2.92,0,0,1,1-1.21,2.46,2.46,0,0,1,2.21.21,2.79,2.79,0,0,1,1.22,1.23,1.59,1.59,0,0,1,.53-.9,1.22,1.22,0,0,1,1.13,0A2.71,2.71,0,0,1,32.2,23c.26-.7.58-1.37.87-2.06a1.26,1.26,0,0,1,.42.7C33.64,22.08,33.79,22.57,34,23.05Z"/><path class="f1480d20-0f9b-4510-8dfb-eeaf52ebdfcc" d="M34,12.65a10.77,10.77,0,0,0,1-1.19,2,2,0,0,0,.2,1.24.8.8,0,0,0,.38.39.66.66,0,0,0,.7-.21,2.14,2.14,0,0,0,.35-.69l.68-2a6.08,6.08,0,0,0,.37,1.69,2,2,0,0,0,1.18,1.19A2.09,2.09,0,0,0,40.21,13a3.38,3.38,0,0,0,2.15-2.67c.28.06.25.3.4.54a4.4,4.4,0,0,0,1.55,1.54,3.16,3.16,0,0,0,1.83.38,2.2,2.2,0,0,0,1.24-.47A3.33,3.33,0,0,0,48.21,10a4.86,4.86,0,0,0,1.25,2.77,2.09,2.09,0,0,0,.61.5,1.54,1.54,0,0,0,1.65-.33,2.36,2.36,0,0,0,.68-1.61,4.45,4.45,0,0,0,.26,1,1.5,1.5,0,0,0,.74.71A1.09,1.09,0,0,0,54.87,12a10.55,10.55,0,0,1,.92,2.29H12.1A11.11,11.11,0,0,1,13,12a1.09,1.09,0,0,0,1.47,1.08,1.54,1.54,0,0,0,.74-.71,4.45,4.45,0,0,0,.26-1,2.39,2.39,0,0,0,.67,1.61,1.56,1.56,0,0,0,1.66.33,2.09,2.09,0,0,0,.61-.5A4.78,4.78,0,0,0,19.68,10a3.34,3.34,0,0,0,.84,2.31,2.2,2.2,0,0,0,1.23.47,3.2,3.2,0,0,0,1.84-.38,4.48,4.48,0,0,0,1.55-1.54c.15-.24.12-.48.4-.54A3.38,3.38,0,0,0,27.69,13a2.09,2.09,0,0,0,1.35.08,2,2,0,0,0,1.18-1.19,6,6,0,0,0,.37-1.69l.68,2a2.14,2.14,0,0,0,.35.69.65.65,0,0,0,.7.21.8.8,0,0,0,.38-.39,2.12,2.12,0,0,0,.2-1.24A10.77,10.77,0,0,0,34,12.65Z"/><path class="f1480d20-0f9b-4510-8dfb-eeaf52ebdfcc" d="M53,15c.23.1.48.27.46.52s-.28.36-.49.44l-1,.36a2.68,2.68,0,0,1,1.5.28.89.89,0,0,1-.75.21,24.66,24.66,0,0,0-5.49.49,16.65,16.65,0,0,0,2.92.36,4.39,4.39,0,0,1,2.69,1l-1.75.6a1.61,1.61,0,0,0,.65.13c1.24.09,2.49.11,3.73.14l2.32,0a40.75,40.75,0,0,0-1.64-5.31.5.5,0,0,0-.13-.22.58.58,0,0,0-.29-.09,23.28,23.28,0,0,0-2.64-.08c-.43,0-.86,0-1.29,0a2.67,2.67,0,0,0-1.06.09c.11.23.52.33.75.41A13.07,13.07,0,0,1,53,15Z"/><path class="f1480d20-0f9b-4510-8dfb-eeaf52ebdfcc" d="M14.93,15c-.23.1-.48.27-.46.52s.27.36.49.44l1,.36a2.68,2.68,0,0,0-1.5.28.89.89,0,0,0,.75.21,24.71,24.71,0,0,1,5.49.49,16.77,16.77,0,0,1-2.92.36,4.39,4.39,0,0,0-2.69,1l1.75.6a1.62,1.62,0,0,1-.66.13c-1.24.09-2.48.11-3.72.14l-2.32,0a40.75,40.75,0,0,1,1.64-5.31.5.5,0,0,1,.13-.22.55.55,0,0,1,.29-.09,23.21,23.21,0,0,1,2.64-.08c.43,0,.86,0,1.29,0a2.67,2.67,0,0,1,1.06.09c-.11.23-.52.33-.75.41A13.07,13.07,0,0,0,14.93,15Z"/><path class="f1480d20-0f9b-4510-8dfb-eeaf52ebdfcc" d="M34,.33a27.36,27.36,0,0,1,4,.22l2.62.27a20.52,20.52,0,0,1,2,.53,15.74,15.74,0,0,1,5.75,2.47A18.85,18.85,0,0,1,53,8.1a11,11,0,0,1,1.66,3.45,18.68,18.68,0,0,0-7.07-6.77c-3-1.55-6.48-2-9.86-2.42A20.33,20.33,0,0,0,34,2.12a20.44,20.44,0,0,0-3.74.24c-3.37.42-6.83.87-9.85,2.42a18.77,18.77,0,0,0-7.08,6.77A11.23,11.23,0,0,1,14.94,8.1a19.07,19.07,0,0,1,4.59-4.28,15.74,15.74,0,0,1,5.75-2.47c.68-.14,1.32-.45,2-.53L29.9.55A27.57,27.57,0,0,1,34,.33Z"/><path class="abc2736d-e677-45fb-acde-8500e40adee4" d="M33.08,0c-.56,0-1.13,0-1.7,0A27.16,27.16,0,0,0,28,.42a26.1,26.1,0,0,0-6.4,2,19.1,19.1,0,0,0-5.16,3.45,17.71,17.71,0,0,0-3.65,5.35,49.24,49.24,0,0,0-2.53,6.53c-.15.47-.29.95-.42,1.42l-2.25,0-1.12,0a.33.33,0,0,0-.42,0l-.2.2-.09.08-.06.05,0,0a5.8,5.8,0,0,1-.52.34c-.41.24-.85.45-1.28.65a12.74,12.74,0,0,0-2.53,1.4,2.46,2.46,0,0,0-.8,1.06.34.34,0,0,0,.15.37,2.32,2.32,0,0,0,.54.19C.88,24.74.49,25.79.05,26.81H0A.32.32,0,0,0,0,27a.28.28,0,0,0,0,.13.33.33,0,0,0,.11.15h0s0,0,0,0h0l.11,0H2a.3.3,0,0,0,.26-.14h0a32.77,32.77,0,0,1,2.14-3.43l1,1.09A.33.33,0,0,0,6,24.67l.18-.51a23.24,23.24,0,0,1,.91,2.94.28.28,0,0,0,.23.22l.09,0,2.1,0a36.73,36.73,0,0,0-1.29,9,45.44,45.44,0,0,0,.12,4.81c.11,1.52.27,3,.48,4.54A18.64,18.64,0,0,0,10,50.15a.26.26,0,0,0,.07.15.33.33,0,0,0,.44.1.27.27,0,0,0,.11-.1h0c.13-.19.25-.37.39-.55.55.46,1.12.91,1.66,1.38a.34.34,0,0,0,.56-.14c.1-.48.18-1,.31-1.43a2.56,2.56,0,0,1,.32-.78,12.3,12.3,0,0,1,1.11,1.75c.15.29.26.78.62.88s.64-.29.8-.59c.42-.78.84-1.56,1.24-2.35.24-.46.37-1,.58-1.45.64,1.12,1.2,2.29,1.78,3.44.26.51.56,1.41,1.3,1.27a2.08,2.08,0,0,0,.83-.47,5.9,5.9,0,0,0,.75-.66,6.16,6.16,0,0,0,.6-.75c.17-.25.3-.53.47-.77.05-.07.14-.22.23-.23s.16.12.2.19c.19.33.35.68.52,1l1.09,2.13c.27.51.57,1.42,1.33,1.21a1.79,1.79,0,0,0,.84-.75,9.9,9.9,0,0,0,.63-1,11.1,11.1,0,0,0,.66-1.34l1,2.58.31.78a3.64,3.64,0,0,0,.31.73.77.77,0,0,0,1.22.1,3.27,3.27,0,0,0,.67-1.31c.22-.63.4-1.28.61-1.92.08-.26.18-.54.28-.78a1.59,1.59,0,0,1,.15-.29,3.65,3.65,0,0,1,.28.64c.22.62.4,1.25.6,1.88a6.25,6.25,0,0,0,.64,1.56.9.9,0,0,0,1,.45c.52-.2.67-1,.84-1.41.39-1,.78-2,1.18-3A10.81,10.81,0,0,0,39,51.42a8,8,0,0,0,.54.88,4.29,4.29,0,0,0,.62.8.9.9,0,0,0,.9.27,1.22,1.22,0,0,0,.6-.66l1.1-2.13.53-1,.24-.47c0-.08.11-.23.21-.23s.37.44.45.58a6.23,6.23,0,0,0,.54.8,5.94,5.94,0,0,0,1.44,1.3,1,1,0,0,0,.92.14,1.34,1.34,0,0,0,.56-.66c.69-1.33,1.32-2.69,2.07-4,.21.48.34,1,.57,1.45.4.79.83,1.57,1.24,2.35.16.3.39.71.81.59s.46-.59.61-.88a12.3,12.3,0,0,1,1.11-1.75,2.56,2.56,0,0,1,.32.78c.13.47.22,1,.32,1.43a.33.33,0,0,0,.55.14c.54-.47,1.11-.92,1.66-1.38.14.18.26.36.39.55h0a.29.29,0,0,0,.11.11.35.35,0,0,0,.44-.1.33.33,0,0,0,.07-.16A17.13,17.13,0,0,0,59,46.23c.24-1.49.39-3,.52-4.5a43.83,43.83,0,0,0-.15-9.58,34,34,0,0,0-1-4.78l2.1,0h.1a.3.3,0,0,0,.22-.23,23.24,23.24,0,0,1,.91-2.94l.18.51a.34.34,0,0,0,.55.15l1-1.1a32.77,32.77,0,0,1,2.14,3.43.28.28,0,0,0,.27.16h1.77l0,0h0a.24.24,0,0,0,.1-.1.26.26,0,0,0,.06-.19.22.22,0,0,0,0-.14,0,0,0,0,0,0,0c-.44-1-.83-2.07-1.18-3.14a2.1,2.1,0,0,0,.53-.19.31.31,0,0,0,.15-.37,3.48,3.48,0,0,0-1.82-1.72c-.86-.47-1.78-.83-2.63-1.31a3.62,3.62,0,0,1-1.06-.77.32.32,0,0,0-.42,0l-3.37-.06a52.87,52.87,0,0,0-2.26-6.44A23,23,0,0,0,52.49,7a17.08,17.08,0,0,0-4.84-3.86A25.24,25.24,0,0,0,41.47.75,26.41,26.41,0,0,0,34.78,0c-.28,0-.55,0-.83,0S33.37,0,33.08,0Zm.08.66c.56,0,1.11,0,1.66,0s1.1,0,1.65,0a24.18,24.18,0,0,1,3.29.37A25.34,25.34,0,0,1,46,3,18.27,18.27,0,0,1,51,6.4a17.26,17.26,0,0,1,3.54,5.23q.53,1.11,1,2.25H52.61a11.38,11.38,0,0,0-.45-3.67c0-.1-.15-.06-.14,0a22.21,22.21,0,0,1,.19,3.64H48.77a5.25,5.25,0,0,0,0-1.63c-.07-.59-.15-1.19-.24-1.77a19.25,19.25,0,0,0-1-3.83c0-.07-.13-.05-.11,0,.25,1.21.55,2.41.73,3.64.09.64.16,1.29.21,1.93a7.38,7.38,0,0,0,.13,1.63H42.72a13.56,13.56,0,0,0-.12-3.37,26.94,26.94,0,0,0-.69-3.58.15.15,0,1,0-.29.08,23.16,23.16,0,0,1,.59,3.62c.09,1.08,0,2.18.1,3.25H37.73a3.6,3.6,0,0,0,0-1.31c0-.53-.07-1.06-.11-1.59a7.51,7.51,0,0,0-.57-2.51c0-.07-.16,0-.13.06a9.34,9.34,0,0,1,.28,2.94,7.48,7.48,0,0,0,.22,2.41h-7a7.46,7.46,0,0,0,.21-2.41A9.34,9.34,0,0,1,31,8.53c0-.07-.1-.13-.14-.06A7.45,7.45,0,0,0,30.27,11c0,.49-.07,1-.11,1.47a4,4,0,0,0,0,1.43H25.59c.08-1.07,0-2.17.09-3.25A23.17,23.17,0,0,1,26.28,7a.16.16,0,0,0-.3-.08,28.62,28.62,0,0,0-.68,3.58,14.06,14.06,0,0,0-.13,3.37H19.44a8,8,0,0,0,.13-1.63c.05-.64.12-1.29.21-1.93.18-1.23.48-2.43.73-3.64,0-.08-.08-.1-.11,0a19.25,19.25,0,0,0-1,3.83c-.1.58-.18,1.18-.24,1.77a5.57,5.57,0,0,0-.05,1.63H15.68a23.39,23.39,0,0,1,.2-3.64c0-.09-.12-.13-.14,0a11.38,11.38,0,0,0-.45,3.67H12.36c.1-.26.21-.52.32-.78a22.33,22.33,0,0,1,3.2-5.62c2.68-3.2,6.74-5.12,10.72-6.09A25.49,25.49,0,0,1,33.16.66ZM12.1,14.54H55.81c.14.38.29.75.42,1.13a7.28,7.28,0,0,0-1.4,0,11.79,11.79,0,0,0-2,.14,0,0,0,0,0,0,.06,11.79,11.79,0,0,0,2,.13,4.91,4.91,0,0,0,1.53,0c.14.39.27.77.39,1.15a25.83,25.83,0,0,0-3-.09H50.32l-3.37,0a16.46,16.46,0,0,0-3.14.18,0,0,0,0,0,0,.08,15.68,15.68,0,0,0,3.14.18c1.12,0,2.24,0,3.37,0H53.7a22.06,22.06,0,0,0,3.15-.1L57,18l.36,1.23-6.2-.08c-3.54,0-7.07,0-10.61.05-1.94,0-3.89.1-5.83.17-1,0-2,0-3-.05l-2.91-.09c-3.58-.09-7.16-.11-10.73-.09q-3.75,0-7.49.09c.16-.56.33-1.13.5-1.69a22.2,22.2,0,0,0,3.16.1h3.38c1.13,0,2.25,0,3.38,0a17.26,17.26,0,0,0,3.13-.18,0,0,0,0,0,0-.09A16.4,16.4,0,0,0,21,17.13l-3.38,0H14.2a25.83,25.83,0,0,0-3,.09L11.54,16a4.91,4.91,0,0,0,1.53,0,11.91,11.91,0,0,0,2-.13s0-.06,0-.06a13.18,13.18,0,0,0-2-.14,7.26,7.26,0,0,0-1.4,0C11.81,15.29,12,14.91,12.1,14.54Zm24.73,2-2.88,0c-1.91,0-3.86-.07-5.76.07a.09.09,0,0,0,0,.18c1.91.14,3.85.06,5.76.07s3.85.06,5.76,0a.13.13,0,0,0,0-.25C38.75,16.56,37.79,16.55,36.83,16.55ZM20.88,19.77a5.64,5.64,0,0,0-.37,1.91A11.49,11.49,0,0,0,20.39,24a.06.06,0,0,0,.12,0c.18-.77.29-1.56.41-2.33a6.7,6.7,0,0,0,.26-1.87l3.55,0a12.73,12.73,0,0,0-.68,5,0,0,0,0,0,.07,0c.25-.81.33-1.67.5-2.5s.37-1.66.6-2.48l2.12,0,1.54,0a9.46,9.46,0,0,0-.19,3.27.16.16,0,0,0,.32,0c0-.61,0-1.19.1-1.79a8.07,8.07,0,0,0,.09-1.47L32,20a.17.17,0,0,0,0,.13A14.31,14.31,0,0,0,32.19,23a0,0,0,0,0,.09,0,21.74,21.74,0,0,0,0-2.91.18.18,0,0,0,0-.11l.91,0c.81,0,1.62,0,2.44,0a.16.16,0,0,0,0,.11,21.74,21.74,0,0,0,0,2.91,0,0,0,0,0,.09,0A14.31,14.31,0,0,0,36,20.09a.14.14,0,0,0,0-.13h.28l2.47-.07a7.9,7.9,0,0,0,.09,1.46c.06.6.09,1.2.1,1.8a.16.16,0,0,0,.32,0,9.22,9.22,0,0,0-.2-3.27h.14l3.54-.06c.23.82.42,1.65.59,2.48s.25,1.68.5,2.5c0,0,.06,0,.07,0a12.73,12.73,0,0,0-.68-5l3.55,0A6.7,6.7,0,0,0,47,21.64c.12.77.23,1.56.42,2.32,0,.07.11.05.11,0a11.48,11.48,0,0,0-.11-2.27A5.9,5.9,0,0,0,47,19.77h3.51a7.81,7.81,0,0,1,.15,1.81c0,.15.25.15.25,0a8.44,8.44,0,0,0-.06-1.81l3.45,0a16.38,16.38,0,0,0,.24,2c.11.77.21,1.54.36,2.31,0,0,.07,0,.07,0a18.45,18.45,0,0,0-.07-2.35,12.28,12.28,0,0,0-.22-1.91l3.48.06a.11.11,0,0,0,0,.08,7.58,7.58,0,0,0,.56,2.2c.22.79.49,1.58.68,2.38,0,.07.14.06.13,0A21,21,0,0,0,59.15,22a5.33,5.33,0,0,0-.73-2.15l1.88,0,1.19,0a.22.22,0,0,0,0,.18c.36.7.61,1.43.91,2.15,0,.09.19.09.19,0a4.42,4.42,0,0,0-.42-1.78,13.62,13.62,0,0,0,1.37.7A14.7,14.7,0,0,1,66,22.48a2.22,2.22,0,0,1,.22.18,2.39,2.39,0,0,1,.22.23.12.12,0,0,1,0,.05h0l0,.07a2,2,0,0,1-.35.06.33.33,0,0,0-.31.42c.33,1.06.72,2.11,1.15,3.14h-1A33.57,33.57,0,0,0,63.79,23a.34.34,0,0,0-.52-.07l-.89,1-.28-.81c-.08-.23-.48-.36-.6-.07a22.92,22.92,0,0,0-1.23,3.61q-3.92,0-7.83.11l-1.2-4.18a.33.33,0,0,0-.6-.08,21.81,21.81,0,0,1-1.46,2,1.31,1.31,0,0,1-.08-.21.33.33,0,0,0-.6-.08c-.58.88-1.14,1.78-1.67,2.69l-3.32.1q-1.18-1.92-2.28-3.88a.34.34,0,0,0-.45-.12,6.69,6.69,0,0,0-1.35,1.36c-.13.18-.27.43-.48.52a.37.37,0,0,1-.18,0l-.07,0,0,0v0a.33.33,0,0,0-.6-.07c-.6.8-1.16,1.62-1.69,2.47-.81,0-1.63.1-2.44.1-.43,0-.86,0-1.29,0l-1.16-.05c-.53-.85-1.08-1.67-1.68-2.47a.34.34,0,0,0-.61.07s0,0,0,0h-.06a.25.25,0,0,1-.17,0c-.23-.08-.37-.35-.51-.53A6.22,6.22,0,0,0,27.11,23a.33.33,0,0,0-.45.12q-1.08,2-2.28,3.88l-3.32-.1C20.54,26,20,25.09,19.4,24.21a.34.34,0,0,0-.61.08,1.72,1.72,0,0,1-.07.21,21.44,21.44,0,0,1-1.47-2,.33.33,0,0,0-.6.08l-1.2,4.18c-2.61-.05-5.21-.09-7.82-.11A24,24,0,0,0,6.4,23.07c-.12-.29-.52-.16-.6.07s-.19.54-.28.81l-.9-1A.34.34,0,0,0,4.1,23a36,36,0,0,0-2.31,3.63h-1c.43-1,.82-2.08,1.16-3.15a.33.33,0,0,0-.32-.41A1.28,1.28,0,0,1,1.32,23h0l0-.05h0v0a3.89,3.89,0,0,1,.41-.4l0,0,0,0L2,22.4a2.11,2.11,0,0,1,.27-.18c.2-.13.4-.24.61-.35.84-.44,1.73-.8,2.56-1.27l.29-.16a4.28,4.28,0,0,0-.43,1.79c0,.12.15.12.19,0,.3-.72.56-1.45.91-2.15a.23.23,0,0,0,0-.18l3.06-.05A5.37,5.37,0,0,0,8.75,22a21.06,21.06,0,0,0-.37,2.49c0,.08.12.1.14,0,.19-.8.45-1.59.67-2.38A7.6,7.6,0,0,0,9.76,20a.2.2,0,0,0,0-.08l3.48-.06A11.18,11.18,0,0,0,13,21.73a18.45,18.45,0,0,0-.07,2.35s.06.05.07,0c.15-.77.25-1.54.36-2.31a16.14,16.14,0,0,0,.24-2l3.16,0H17A9.14,9.14,0,0,0,17,21.59c0,.15.26.16.25,0a7.81,7.81,0,0,1,.15-1.81Zm-3.74,3.75q.64.91,1.38,1.77l0,0c-.29,1.3-.42,2.64-.59,4a7.49,7.49,0,0,0-3,2.11,8.69,8.69,0,0,0-2,4.42,9.61,9.61,0,0,0-.09,1.31,8.92,8.92,0,0,0,1.37,4.79,7.72,7.72,0,0,0,3.39,2.93l0,.93a2.2,2.2,0,0,0,.07.58c-.27.49-.41,1-.63,1.55-.3.7-.7,1.37-1.06,2l-.17.32a10.58,10.58,0,0,0-.2-2.64c-.09-1-.19-1.92-.37-2.88a0,0,0,0,0-.09,0c0,1,0,2.09.13,3.13a8.14,8.14,0,0,0,.33,2.65s0,0,0,0a0,0,0,0,0,0,0c-.06-.12-.15-.25-.19-.33l-.24-.45A12.25,12.25,0,0,0,14.06,48a.32.32,0,0,0-.46,0l-.14.14A43.74,43.74,0,0,1,12.4,37.7a37.46,37.46,0,0,1,.49-5.49c.27-1.62.72-3.19,1.09-4.79l1.72,0a.34.34,0,0,0,.25-.11.54.54,0,0,0,.07-.13l.57-2,0,.6c-.06.91-.15,1.82-.13,2.73,0,0,0,0,0,0,.16-.9.22-1.81.35-2.71S17.1,24.29,17.14,23.52Zm33.62,0c0,.78.21,1.56.32,2.32s.2,1.81.36,2.71c0,0,0,0,0,0,0-.91-.08-1.82-.13-2.73l0-.6.57,2,0,.09h0s0,0,0,0a.31.31,0,0,0,.25.11l1.71,0c.36,1.56.81,3.1,1.07,4.68a37.62,37.62,0,0,1,.52,5.6,43.64,43.64,0,0,1-1.06,10.45L54.3,48a.34.34,0,0,0-.47,0,12.58,12.58,0,0,0-1.21,1.77c-.09.16-.18.32-.26.48a2.4,2.4,0,0,0-.11.23.54.54,0,0,0-.06.11l0,0,0,0a8.11,8.11,0,0,0,.33-2.65c.07-1,.14-2.08.12-3.12,0,0-.08-.07-.09,0-.17,1-.27,1.91-.37,2.87A11.11,11.11,0,0,0,52,50.26L51.82,50c-.35-.67-.74-1.33-1-2-.23-.52-.37-1.09-.65-1.59a1.6,1.6,0,0,0,.07-.58c0-.31,0-.62,0-.93a7.56,7.56,0,0,0,2.69-2,8.68,8.68,0,0,0,2-4.42,9.63,9.63,0,0,0,.1-1.31,8.9,8.9,0,0,0-1.38-4.79,7.68,7.68,0,0,0-3.53-3L50,29.28c-.17-1.33-.3-2.67-.6-4,0,0,0,0,0,0C49.86,24.72,50.33,24.13,50.76,23.52ZM41,24.05c.65,1.15,1.32,2.29,2,3.41.08,1,.16,1.92.22,2.89a7.79,7.79,0,0,0-1.47,1.51,8.72,8.72,0,0,0-1.67,4.63,9.1,9.1,0,0,0,1,4.91,8,8,0,0,0,2.72,2.93v0c-.08,1.28-.17,2.56-.26,3.84l-.07,0a1.14,1.14,0,0,0-.63.66l-1,1.92-.49,1c-.08.15-.16.3-.23.46l0,0a21.88,21.88,0,0,0,.2-6.61,0,0,0,1,0-.08,0,55.11,55.11,0,0,1-.61,7,2,2,0,0,1-.37-.44,10.71,10.71,0,0,1-.59-.9,10,10,0,0,1-.89-2l0,0c-.16-3.63-.22-7.24-.26-10.87,0-2,0-4.09-.17-6.12a27,27,0,0,0-.71-5.81q.34-.51.72-1a1,1,0,0,0,.4.11,1.08,1.08,0,0,0,.86-.4c.23-.26.41-.56.65-.82l.25-.27c.12,1,.28,2,.36,3.06s.07,2.33.13,3.5c0,0,.07.05.08,0a15.85,15.85,0,0,0,.2-3.51A17.89,17.89,0,0,0,41,24.05Zm-14.1,0a17.67,17.67,0,0,0-.32,3.07,15.85,15.85,0,0,0,.2,3.51s.07,0,.08,0c.06-1.17,0-2.33.13-3.5.08-1,.24-2,.36-3.06l.25.27c.24.26.42.56.65.82a1,1,0,0,0,.86.4.92.92,0,0,0,.4-.11c.25.34.49.68.72,1a26.23,26.23,0,0,0-.71,5.8c-.12,2-.15,4.08-.17,6.12,0,3.63-.1,7.24-.26,10.87l0,0a9.75,9.75,0,0,1-.77,1.82,7.68,7.68,0,0,1-.47.78,3.24,3.24,0,0,1-.61.77,55,55,0,0,1-.61-7,0,0,0,1,0-.08,0,21.57,21.57,0,0,0,.2,6.61l-.5-1-1-2c-.2-.4-.44-1-.92-1.1-.09-1.28-.18-2.56-.25-3.84,0,0,0,0,0,0a8,8,0,0,0,2.1-1.95,8.75,8.75,0,0,0,1.67-4.63,9,9,0,0,0-1.05-4.91,8,8,0,0,0-2.1-2.5c.07-1,.14-1.92.23-2.88C25.57,26.34,26.25,25.21,26.9,24.06Zm-7.74,1c.5.76,1,1.54,1.43,2.34a.34.34,0,0,0,.19.15,3.77,3.77,0,0,0,.14.91.07.07,0,0,0,.14,0c0-.21,0-.41,0-.62s0-.17,0-.26l3.46.09c-.1.8-.17,1.59-.28,2.39-.26-.17-.53-.33-.8-.47A6.88,6.88,0,0,0,18.86,29a2.37,2.37,0,0,0-.36.09c.11-1.24.17-2.48.23-3.72a.28.28,0,0,0,.25-.09A1.3,1.3,0,0,0,19.16,25.06Zm29.57,0,.18.23a.3.3,0,0,0,.26.09c0,1.24.12,2.48.23,3.72a6.81,6.81,0,0,0-3.9,0,7.08,7.08,0,0,0-1.85.91c-.11-.8-.18-1.6-.28-2.4l3.46-.09a2.43,2.43,0,0,1,0,.27c0,.2,0,.4,0,.61s.13.1.15,0a3.93,3.93,0,0,0,.14-.92.34.34,0,0,0,.19-.15C47.76,26.6,48.23,25.82,48.73,25.06Zm-11.32,1.8c0,1.84.33,3.7.42,5.54q.14,3.06.15,6.12c0,3.6.06,7.18.22,10.77h0l-1.26,3.25-.3.79a4.19,4.19,0,0,1-.29.69l-.07.08a14.52,14.52,0,0,0,.25-4,22.16,22.16,0,0,0-.33-4s0,0,0,0c-.1,1.32,0,2.66-.06,4,0,.64,0,1.28-.07,1.93s-.09,1.18-.07,1.76a8.88,8.88,0,0,1-.54-1.44c-.18-.59-.36-1.2-.58-1.78a2.43,2.43,0,0,0-.5-1c.12-3.68,0-7.37,0-11V33.23c0-.91,0-1.82,0-2.72A21.15,21.15,0,0,0,34.22,28l1,0,.69,0c0,.93.08,1.87.1,2.79s0,2.1.11,3.15c0,0,0,0,0,0a27.63,27.63,0,0,0,.2-3.28,23.79,23.79,0,0,0,0-2.67h.22l.1,0a.34.34,0,0,0,.19-.15Zm-6.93,0c.19.29.37.58.55.87a.3.3,0,0,0,.18.14l.1,0h.23a26.43,26.43,0,0,0,0,2.67,29.93,29.93,0,0,0,.21,3.28s.05,0,.05,0c.06-1.05.09-2.1.11-3.15s.12-1.86.09-2.78c.58,0,1.15.06,1.73.07a17.45,17.45,0,0,0-.09,2.4c0,.94,0,1.89,0,2.84v5.33c0,3.68-.12,7.38,0,11a2.29,2.29,0,0,0-.36.58c-.48,1.09-.68,2.29-1.15,3.36L32,53.8c0-.58-.05-1.19-.07-1.76s0-1.29-.07-1.93c-.05-1.32,0-2.66-.06-4,0,0-.05,0-.05,0a22.23,22.23,0,0,0-.33,4,14.47,14.47,0,0,0,.25,4h0c-.07,0-.11-.18-.14-.24-.13-.3-.24-.62-.36-.92L29.71,49.3h0c.16-3.59.19-7.17.22-10.77,0-2,0-4,.15-6S30.45,28.74,30.48,26.86Zm27.27.5a36.44,36.44,0,0,1,1.31,8.93A47,47,0,0,1,59,41c-.11,1.48-.26,3-.47,4.44a18.61,18.61,0,0,1-1,4c-.1-.14-.21-.28-.32-.41a.29.29,0,0,0-.21-.09,16.69,16.69,0,0,0,.44-3.64,30.71,30.71,0,0,0,0-4.29.06.06,0,1,0-.12,0c0,1.39-.07,2.78-.2,4.17-.08.74-.18,1.47-.29,2.21a14.93,14.93,0,0,0-.26,1.76l-1.36,1.12a7.38,7.38,0,0,0-.36-1.38h0a43.84,43.84,0,0,0,1.19-11.29,37.56,37.56,0,0,0-.54-5.4,22,22,0,0,0-1.27-4.78l1.67,0a10.45,10.45,0,0,0,.32,1.09q.22.8.39,1.59c.23,1.07.31,2.18.58,3.23,0,0,.08,0,.08,0a13.57,13.57,0,0,0-.37-3.16c-.1-.53-.22-1.07-.35-1.6a7.7,7.7,0,0,0-.31-1.14Zm-47.6,0h1.48a7.7,7.7,0,0,0-.31,1.14c-.13.54-.25,1.07-.35,1.61a12.52,12.52,0,0,0-.37,3.16s.07.05.08,0c.27-1,.35-2.16.58-3.22.1-.5.22-1,.35-1.47A10.58,10.58,0,0,0,12,27.39l1.68,0a21.54,21.54,0,0,0-1.25,4.66,37.7,37.7,0,0,0-.57,5.51A44.19,44.19,0,0,0,13,48.88v0a7.08,7.08,0,0,0-.36,1.37L11.3,49.15a14.89,14.89,0,0,0-.24-1.63c-.12-.78-.23-1.56-.31-2.34-.13-1.39-.17-2.78-.2-4.17,0-.08-.11-.07-.12,0a32.48,32.48,0,0,0,0,4.3,18,18,0,0,0,.44,3.63.27.27,0,0,0-.2.09l-.33.41A17.51,17.51,0,0,1,9.5,46c-.23-1.45-.37-2.93-.5-4.39a43.91,43.91,0,0,1,.16-9.45A32.57,32.57,0,0,1,10.15,27.37Zm9.94,2.13a6.13,6.13,0,0,1,2.12.28,6.73,6.73,0,0,1,3.38,2.47,8.12,8.12,0,0,1,1.55,4.26,8.44,8.44,0,0,1-1,4.55,7.19,7.19,0,0,1-3,3,6.13,6.13,0,0,1-4.14.52,6.65,6.65,0,0,1-3.57-2.19,8,8,0,0,1-1.82-4.13,8.77,8.77,0,0,1-.07-1.15,8.22,8.22,0,0,1,1.26-4.42A6.9,6.9,0,0,1,18,30,6.1,6.1,0,0,1,20.09,29.5Zm27.74,0a6.16,6.16,0,0,1,1.05.14,6.76,6.76,0,0,1,3.57,2.2A8.07,8.07,0,0,1,54.27,36a9,9,0,0,1,.07,1.16,8.22,8.22,0,0,1-1.26,4.42,7,7,0,0,1-3.18,2.73,6.16,6.16,0,0,1-4.21.19A6.8,6.8,0,0,1,42.31,42a8,8,0,0,1-1.55-4.27,8.37,8.37,0,0,1,1-4.55,7.22,7.22,0,0,1,3-3A6.15,6.15,0,0,1,47.83,29.5ZM23.45,44.66c0,1.23.1,2.46.2,3.7h0a4.15,4.15,0,0,0-.7,1,5.09,5.09,0,0,1-1.17,1.28c-.12.09-.24.18-.37.26a1.11,1.11,0,0,1-.16.11A20.86,20.86,0,0,0,21,48.66c-.08-.78-.14-1.55-.27-2.31,0-.06-.1-.05-.11,0a21.7,21.7,0,0,0,0,2.55c0,.58,0,1.18.11,1.76-.06-.12-.12-.24-.19-.36-.71-1.39-1.37-2.8-2.18-4.14A.31.31,0,0,0,18.1,46l0-.23c0-.28-.07-.55-.11-.83a6.83,6.83,0,0,0,4.44.13A7.46,7.46,0,0,0,23.45,44.66Zm21,0a6.88,6.88,0,0,0,4.59.57A7.3,7.3,0,0,0,50,45c-.05.27-.09.55-.12.83a1.81,1.81,0,0,0,0,.23.31.31,0,0,0-.34.15c-.73,1.2-1.34,2.46-2,3.71l-.41.79c.08-.58.08-1.18.11-1.76a21.7,21.7,0,0,0,0-2.55c0-.06-.1-.08-.11,0-.13.76-.19,1.53-.27,2.31A20.66,20.66,0,0,0,46.65,51c-.06,0-.11-.08-.16-.11a5.16,5.16,0,0,1-1.32-1.23,7.16,7.16,0,0,0-.92-1.31v0C44.36,47.12,44.42,45.89,44.45,44.66Z"/><path class="ff6db4b4-3144-4082-8ee2-e04dce558b98" d="M24.22,42.46v0Z"/><path class="abc2736d-e677-45fb-acde-8500e40adee4" d="M13.75,20.58s0,0,0,0S13.76,20.58,13.75,20.58Z"/><path class="abc2736d-e677-45fb-acde-8500e40adee4" d="M54.15,20.58s0,0,0,0S54.16,20.58,54.15,20.58Z"/><path class="abc2736d-e677-45fb-acde-8500e40adee4" d="M14.52,21.35s0,0,0,0S14.53,21.35,14.52,21.35Z"/><path class="abc2736d-e677-45fb-acde-8500e40adee4" d="M53.38,21.35s0,0,0,0S53.39,21.35,53.38,21.35Z"/><path class="abc2736d-e677-45fb-acde-8500e40adee4" d="M15.38,21.62v0S15.39,21.62,15.38,21.62Z"/><path class="abc2736d-e677-45fb-acde-8500e40adee4" d="M52.51,21.62v0S52.52,21.62,52.51,21.62Z"/><path class="abc2736d-e677-45fb-acde-8500e40adee4" d="M22.34,23.35s0,0,0,0S22.35,23.35,22.34,23.35Z"/><path class="abc2736d-e677-45fb-acde-8500e40adee4" d="M45.56,23.35s0,0,0,0Z"/><path class="ff6db4b4-3144-4082-8ee2-e04dce558b98" d="M33.83,50.06h0Z"/></g></g></g></svg>