<svg xmlns="http://www.w3.org/2000/svg" viewBox="0 0 31.7 23.81"><defs><style>.b130846c-b95d-42dd-8ffd-e00b96d8d534{fill:#c3d62a;stroke:#c3d62a;}.a154e038-2d82-4487-88c1-78d1ed9305a3,.a3b0e2b6-5c50-462b-9c94-b39ee244fe04,.a43317fb-0bd6-433c-9aaf-8a9ed102847f,.a43ec375-39de-43f0-98b3-13d52995a3b4,.a5f72094-a8d1-402e-bc32-146da6ee4ff8,.a670833e-db7d-467b-8584-9fdb626fe783,.a6e592c4-500b-4059-bac1-82ed4f2a14e2,.a7679864-fc02-4ad9-b255-3d5da30e314c,.a786f542-c624-4dde-b480-1a4e7a77b5d7,.a84d4294-24c2-4714-a7cf-86df2db35166,.a8777492-bf76-455e-a6bc-539bd2c74e56,.a8b7a77a-ee7e-4167-9b87-5b51d925849c,.a909f7b3-874d-41e2-bd90-81867afed149,.a9db79f8-6e7a-49ec-b7fc-bc610dc33c02,.aa5a49aa-f867-4130-9a48-5ba62165f83d,.aa7208a7-6726-407e-9e9a-88e012906068,.ab11b771-e837-4ab9-9370-c591591cd4d2,.ac7e11b5-d1d0-4863-a04d-ed2d87f24efe,.adf3b0b2-7935-4d59-8fff-123d0b9884d8,.ae74df58-999f-446a-af0e-a1bf1043bffb,.aef50ba4-5bbf-4ad7-9b96-1e596b11ee06,.af18fc0c-5e09-4bb9-b99b-5be5764dc258,.b00eca42-ae47-4655-84e2-a9d91f910ed2,.b0d420f1-1073-4460-a259-5f4400301203,.b130846c-b95d-42dd-8ffd-e00b96d8d534,.b18e6769-ac28-4efa-987b-03141970eecd,.b3bfc570-2f69-4633-bb16-7e3dd2343d13,.b41d17c8-bfd1-4dd3-a6aa-c16c1241f316,.b4311709-69f2-485c-9dd4-0b69aa8c31ee,.b4379052-5ce4-4441-b0f8-45e39ec88788,.b50fe18f-d39c-44b1-b3d0-9ca7638cc458,.b5163622-79ae-4a29-9318-e48169b41ed6,.b89de8fc-1581-4f0e-978b-83dd65d692f0,.b95b5760-3604-4b69-9e2a-12871191519c,.ba4ef0e6-1aab-4e8c-9ad5-09ba20956ed2,.ba917196-18e2-4aa4-93f3-bc88b5c3c645,.bbdaa154-3347-4f87-9c48-4ff1c435130f,.bf394d90-6ccf-4476-9ae3-6f6e90606a20,.bfa27fa7-7fb6-4a8b-b019-1aa5ca0ca459,.bfc57ac1-b4c6-4bda-ba17-a592f3849506,.e4c9d30d-7d7a-44f3-9240-b942415144cd,.e9a87457-9a9a-401a-8b9e-853c50c8dada,.eb9c2854-e0f4-4e63-b85e-58722cbac1df,.ed2d6594-80ea-41fd-a602-fea5f4f9096a,.eda201d7-a1bc-4a1a-8574-b64b66cc9836,.f07ece19-9f12-40aa-9aef-d274c8ef5be2,.f3578d95-0c11-4d76-b5ec-22e295c5859b,.f5634876-333f-4c4b-b9b5-ea5bf271b766,.f64ed0d8-0dc9-45b8-8dab-f91d21ba47ab,.f717a10e-82ca-4917-b279-1218669d98e3,.f741b70e-b4fa-4106-ba14-e9860b23fc36,.f851a443-517b-4179-b1a7-37854dcb92e6,.f8c1ad04-7e1d-42c5-9afe-f9ef922219cc,.f8d3e076-9385-4ea6-b083-95dca436029c,.fa8ae8f2-8a6b-479d-bb98-36175f487ae1,.face0945-007f-4fcd-abf0-daf7cba0ea8d,.fc591816-f9e3-4d2e-8792-794d4847ab3e,.fd59a103-158d-438e-9d57-fdf05f299058,.fe15d9dc-1107-4f61-813d-e2f4d3944cfd,.fe21b86c-ba5a-427b-88eb-217e5d5732b2{stroke-linecap:round;stroke-linejoin:round;stroke-width:0.84px;}.bbdaa154-3347-4f87-9c48-4ff1c435130f{fill:#a0ad0c;stroke:#a0ad0c;}.a7679864-fc02-4ad9-b255-3d5da30e314c{fill:#5e7308;stroke:#5e7308;}.b95b5760-3604-4b69-9e2a-12871191519c{fill:#c2d62c;stroke:#c2d62c;}.fc591816-f9e3-4d2e-8792-794d4847ab3e{fill:#b1b809;stroke:#b1b809;}.b18e6769-ac28-4efa-987b-03141970eecd{fill:#b8c507;stroke:#b8c507;}.f07ece19-9f12-40aa-9aef-d274c8ef5be2{fill:#434b07;stroke:#434b07;}.f5634876-333f-4c4b-b9b5-ea5bf271b766{fill:#667d07;stroke:#667d07;}.adf3b0b2-7935-4d59-8fff-123d0b9884d8{fill:#6b7d13;stroke:#6b7d13;}.eb9c2854-e0f4-4e63-b85e-58722cbac1df{fill:#576902;stroke:#576902;}.f3578d95-0c11-4d76-b5ec-22e295c5859b{fill:#6a830c;stroke:#6a830c;}.b41d17c8-bfd1-4dd3-a6aa-c16c1241f316{fill:#405403;stroke:#405403;}.b4311709-69f2-485c-9dd4-0b69aa8c31ee{fill:#454c08;stroke:#454c08;}.e9a87457-9a9a-401a-8b9e-853c50c8dada{fill:#e4bb73;stroke:#e4bb73;}.ba917196-18e2-4aa4-93f3-bc88b5c3c645{fill:#535d07;stroke:#535d07;}.f851a443-517b-4179-b1a7-37854dcb92e6{fill:#bbcc32;stroke:#bbcc32;}.a909f7b3-874d-41e2-bd90-81867afed149{fill:#eacc77;stroke:#eacc77;}.f64ed0d8-0dc9-45b8-8dab-f91d21ba47ab{fill:#4c5802;stroke:#4c5802;}.a8777492-bf76-455e-a6bc-539bd2c74e56{fill:#fce4ac;stroke:#fce4ac;}.f741b70e-b4fa-4106-ba14-e9860b23fc36{fill:#d8e840;stroke:#d8e840;}.e4c9d30d-7d7a-44f3-9240-b942415144cd{fill:#3c4203;stroke:#3c4203;}.fd59a103-158d-438e-9d57-fdf05f299058{fill:#d5bd66;stroke:#d5bd66;}.fa8ae8f2-8a6b-479d-bb98-36175f487ae1{fill:#f3d27e;stroke:#f3d27e;}.a3b0e2b6-5c50-462b-9c94-b39ee244fe04{fill:#405504;stroke:#405504;}.a670833e-db7d-467b-8584-9fdb626fe783{fill:#fee6b0;stroke:#fee6b0;}.a6e592c4-500b-4059-bac1-82ed4f2a14e2{fill:#c6b353;stroke:#c6b353;}.bfa27fa7-7fb6-4a8b-b019-1aa5ca0ca459{fill:#e2c16e;stroke:#e2c16e;}.aa5a49aa-f867-4130-9a48-5ba62165f83d{fill:#e0ee49;stroke:#e0ee49;}.aa7208a7-6726-407e-9e9a-88e012906068{fill:#fee5ae;stroke:#fee5ae;}.ae74df58-999f-446a-af0e-a1bf1043bffb{fill:#8c990f;stroke:#8c990f;}.a9db79f8-6e7a-49ec-b7fc-bc610dc33c02{fill:#edca74;stroke:#edca74;}.a154e038-2d82-4487-88c1-78d1ed9305a3{fill:#fae2a6;stroke:#fae2a6;}.b4379052-5ce4-4441-b0f8-45e39ec88788{fill:#65790f;stroke:#65790f;}.face0945-007f-4fcd-abf0-daf7cba0ea8d{fill:#fee5af;stroke:#fee5af;}.f8d3e076-9385-4ea6-b083-95dca436029c{fill:#fefcd5;stroke:#fefcd5;}.ba4ef0e6-1aab-4e8c-9ad5-09ba20956ed2{fill:#fee3ab;stroke:#fee3ab;}.a43ec375-39de-43f0-98b3-13d52995a3b4{fill:#cfc268;stroke:#cfc268;}.b50fe18f-d39c-44b1-b3d0-9ca7638cc458{fill:#d9c464;stroke:#d9c464;}.f717a10e-82ca-4917-b279-1218669d98e3{fill:#c8b058;stroke:#c8b058;}.a8b7a77a-ee7e-4167-9b87-5b51d925849c{fill:#697b12;stroke:#697b12;}.ed2d6594-80ea-41fd-a602-fea5f4f9096a{fill:#f7cf7a;stroke:#f7cf7a;}.aef50ba4-5bbf-4ad7-9b96-1e596b11ee06{fill:#ebd371;stroke:#ebd371;}.bf394d90-6ccf-4476-9ae3-6f6e90606a20{fill:#fefcd4;stroke:#fefcd4;}.b5163622-79ae-4a29-9318-e48169b41ed6{fill:#f7cc80;stroke:#f7cc80;}.a5f72094-a8d1-402e-bc32-146da6ee4ff8{fill:#f5cf86;stroke:#f5cf86;}.b89de8fc-1581-4f0e-978b-83dd65d692f0{fill:#f8cf83;stroke:#f8cf83;}.b00eca42-ae47-4655-84e2-a9d91f910ed2{fill:#f8cf85;stroke:#f8cf85;}.ac7e11b5-d1d0-4863-a04d-ed2d87f24efe{fill:#d4e53e;stroke:#d4e53e;}.eda201d7-a1bc-4a1a-8574-b64b66cc9836{fill:#ddec43;stroke:#ddec43;}.ab11b771-e837-4ab9-9370-c591591cd4d2{fill:#fee1a8;stroke:#fee1a8;}.f8c1ad04-7e1d-42c5-9afe-f9ef922219cc{fill:#747e10;stroke:#747e10;}.a786f542-c624-4dde-b480-1a4e7a77b5d7{fill:#eef75c;stroke:#eef75c;}.fe21b86c-ba5a-427b-88eb-217e5d5732b2{fill:#fde2aa;stroke:#fde2aa;}.fe15d9dc-1107-4f61-813d-e2f4d3944cfd{fill:#e3f04c;stroke:#e3f04c;}.a43317fb-0bd6-433c-9aaf-8a9ed102847f{fill:#e6f250;stroke:#e6f250;}.b3bfc570-2f69-4633-bb16-7e3dd2343d13{fill:#fde3ab;stroke:#fde3ab;}.bfc57ac1-b4c6-4bda-ba17-a592f3849506{fill:#fde1a7;stroke:#fde1a7;}.a84d4294-24c2-4714-a7cf-86df2db35166{fill:#fefbd3;stroke:#fefbd3;}.b0d420f1-1073-4460-a259-5f4400301203{fill:#fee2aa;stroke:#fee2aa;}.af18fc0c-5e09-4bb9-b99b-5be5764dc258{fill:#fee3aa;stroke:#fee3aa;}</style></defs><g id="f5c5c4a5-e270-4677-9976-32e5b230293f" data-name="Layer 2"><g id="a594e47e-aa43-499d-8485-c86ddb1551ec" data-name="Layer 1"><g id="b8ca1c6c-5df5-4de3-a681-ec2540c6e3ba" data-name="Layer 2"><path class="b130846c-b95d-42dd-8ffd-e00b96d8d534" d="M13.91,7.21c-.14-.33,3.38-4.79,3.54-5a15.05,15.05,0,0,1,4-1.49C22.62,1,25.69,4.06,26.22,5c.62,1.07,1.07,2.21,1.66,3.3a40.8,40.8,0,0,1,2,5c.18.91.45,1.81.66,2.72a11.63,11.63,0,0,1,.68,2.72,8.81,8.81,0,0,1-.75,4.41c-.73.7-4.37,0-4.65-.07s-.49-.06-.71-.13a2.65,2.65,0,0,1-.5-.26c-.28-.14-.58-.24-.86-.36S23,22,22.61,21.85c-.21-.1-.41-.25-.63-.33a3,3,0,0,1-.42-.15A5.84,5.84,0,0,0,21,21c-.26-.11-.59-.08-.82-.23s-.4-.35-.62-.46-.5-.19-.73-.32-.42-.28-.64-.4c-.5-.28-1-.51-1.51-.8-.2-.11-.44-.15-.65-.25s-.51-.31-.77-.4-.26-.05-.39-.09a6.25,6.25,0,0,0-.6-.24c-.18,0-.38,0-.57,0s-.21-.08-.32-.09a10.58,10.58,0,0,0-2.57-.2,5.64,5.64,0,0,1-.67.13H9.62a6.36,6.36,0,0,0-.83.22c-.09,0-.16.09-.26.09"/><path class="b130846c-b95d-42dd-8ffd-e00b96d8d534" d="M9.12,17.68c-.42,0-.62.33-.93.57a4.87,4.87,0,0,1-.47.32c-.18.11-.42.19-.59.32s-1.22.8-1.3.86a5.53,5.53,0,0,1-1.63.95L3.42,21a2.78,2.78,0,0,1-1.81-.32,3.24,3.24,0,0,1-.88-1.83,9.83,9.83,0,0,1-.26-3.2,30.74,30.74,0,0,1,1.76-5.36c.4-.67,2.56-4.51,3.06-5.1A3.19,3.19,0,0,1,6,4.52a1.56,1.56,0,0,1,.39-.19c.09,0,.13,0,.23,0a3.1,3.1,0,0,1,.74-.19c.21,0,.09,0,.29.06a5,5,0,0,1,.91.21c.31.13.56.53.82.74s.43.31.62.5.35.47.58.66a6.49,6.49,0,0,0,.55.36c.22.17.42.37.65.52a3.77,3.77,0,0,0,.92.46,2.74,2.74,0,0,0,1.72-.35,1.65,1.65,0,0,0,.5-.28,1.88,1.88,0,0,0,.14-.24"/></g><g id="ede64a4d-458f-4a26-b513-1d52c396595d" data-name="Layer 1"><path class="bbdaa154-3347-4f87-9c48-4ff1c435130f" d="M22.64,19.23c0,.29,1.15.68,1.47.76v.11c1.25,0,3.74,1.6,4.79.54h-.16a1.43,1.43,0,0,1,.16-.27l-.27-.05c.79-.16.46-1.95.38-2.56a28.33,28.33,0,0,0-2-6.76c-.14-.35-.73-2.18-1.09-2.18,0-.38-.11-.27-.49-.22.34-1.38-2.33-5.11-3.65-5.78l.11,0-.11-.16c.82-.09,2-.13,2.29.76h.27v.11l.11-.06a4.15,4.15,0,0,0,.05.82H25l-.11.22H25c-.14.28.13.24.38.27l.05.38-.1.06h.1V5.5l.44,0c-.25.51-.05.87.44.87a2,2,0,0,0,.05.93l.11-.06v.17c.15-.08.08,0,.22-.17,0,.29.16.55-.06.77h.11a22.32,22.32,0,0,0,1.69,4.08,2.93,2.93,0,0,0,.49,1.8c-.11.22.16.9.22,1.15h.11c0,.76.33,1.55.33,2.34l-.17-.33-.05.44h.11c-.33.66.53,2.24-.22,2.61.19.59,0,.41,0,1h.11c-.12.24.11.41-.17.55l-.05-.11a1.29,1.29,0,0,1-.55.11c0-.22.26-.34.44-.44-.16-.08-.13-.12-.05-.27-1.1,0-2.16.25-3.27.16-1.48-.11-2.48-.91-3.82-1.36v-.11c-.34-.11-2-.91-2-1.25-.5-.16-3.47-2-2.95-2.18l-.05.11c.2-.07.11-.08.27,0,.13-.26.29-.1.49,0C19.33,17.19,20.77,18.76,22.64,19.23Z"/><path class="a7679864-fc02-4ad9-b255-3d5da30e314c" d="M20,3.7A3.37,3.37,0,0,1,21,3.1c.24,1,.76,5.44,1.85,3.27l.11,0a4.12,4.12,0,0,1,.38-1.58c.13.2.05.14.22.22.27-.55,1.91,2.67,2.12,2.89a.65.65,0,0,0-.11.6c.33,0,.76.33.33.54.1.2-.15.66.16.66v.1c.53,0,1.15,1.76,1.31,2.24a11.46,11.46,0,0,1-.27,8.39c-.19-2.24.47-4.28.33-6.65h-.11a3.64,3.64,0,0,0-.17-.92H27c-.25-.76-1-1.85-2-1.75a.15.15,0,0,0-.11.11c-.21,1.81.3,3.45-.16,5.29-1.28-1.28-1.29,2.05-1.42,2.56a2.93,2.93,0,0,0-.65-.22c0-.51-.05-2.1.22-2.23a9.76,9.76,0,0,1-.11-1.53H23a4.2,4.2,0,0,0,.05-.87H23c0-1.51-.41-4.28-2.12-4.85C20.84,8.19,21.21,4.89,20,3.7Z"/><path class="b95b5760-3604-4b69-9e2a-12871191519c" d="M9.39,17.27l.17-.06-.17-.05c0-.21,0-.12-.05-.28,1.63-.54,3.12-.27,4.85-.27.8,0-.2-1.32,0-1.42l-.11,0a2.6,2.6,0,0,1,1.53.33l.05-.11.16.05v.17c.32,0,1.49.41,1.31.76-.16-.08-.07-.07-.27,0l.05-.11c-.17,0-.16.11-.21.27.75,0,1.46,1,2.18,1.26v.1c.29,0,.65.44,1,.55v.11c.61,0,1.36,1,2,1.14v.11c.59,0,1.21.59,1.75.82A9.36,9.36,0,0,0,29,21c0,.15,0,.08-.06.22H29a1.61,1.61,0,0,1-.71.54c.14.14.09.07.17.22l-.17.17a1.81,1.81,0,0,0-1,0V22c-.42.2-1,0-1.42.11V22c-.21,0-.25.24-.49,0-.23.15-.1.12-.38,0,0-.15,0-.08.05-.22l.11.06c0-.3-.08-.19-.38-.22-1.36-.15-2.68-1-4-1.47l.06-.11a7.18,7.18,0,0,1-2.29-.93c-2.48-1-5.11-2.69-7.9-2.29-.07.33-.12.31-.38.44v-.11A1.21,1.21,0,0,1,9.39,17.27Z"/><path class="b130846c-b95d-42dd-8ffd-e00b96d8d534" d="M6.51,5.93c.18-.28.92-.57.92-.93a3.52,3.52,0,0,1,1-.16V5c-.8,0,.88.93,1.2,1,.1-.2.06-.07,0-.39l.16,0A1.4,1.4,0,0,1,9.88,6c.52-.35,1,.94,1.37,1.19s2.2.28,2.78.28V7.24c.22-.08.13,0,.27-.22l.11.11c0-.31,0-.12.27-.49l.11.05c0-.33.25-.44.38-.7l.11,0c0-.33.12-.67.49-.54V5.22h-.11l.05-.16c2,1,1.44-2.33,1-1.42,0-.31.12-.21.27-.43l-.11-.11c.09-.18,0-.08.22-.28v.11l.16-.05c-.07-.2,0-.2,0-.38h.11v.11c.51,0-.34,1.14.44,1.14a7,7,0,0,0,2.67-2.12,1.63,1.63,0,0,0,.16.49c.09-.18,0-.39.22-.49V2c.63,0,1.3.2,1.3-.49H22c.71-.24.88.8,1.41,1v.16c-.54,0-1.39-.49-1.63,0h.11c-.32.62-2.2.49-2.89,1-2.46,1.76-3.94,5.69-7.52,4.8l-.06.11h.17l-.22.11c.12.23-.08.19-.22.32C8.73,7.75,10.48,5.93,6.51,5.93Z"/><path class="fc591816-f9e3-4d2e-8792-794d4847ab3e" d="M5.52,8.44l0-.11a4,4,0,0,0-1.09,2.45l-.11,0c-.69,1-1.59,4.56-1.09,5.55-.22.11-.08,1.24-.05,1.48h.11c0,.22-.09,1,.27,1v-.49a6.28,6.28,0,0,0,.22.7c-.33.11-.18.26-.06.5-1,.49-.87-2.46-.87-2.78,0-.74.79-6.72,1.63-7.14-.15-.3.42-1.36.6-1.64L5.14,8c0-.15,0-.1.11-.17v.11h.11c-.12-.23-.17-.76.22-.76A1.88,1.88,0,0,1,7.87,5.88C7.43,6.53,5.74,7.11,5.74,8,5.48,8,5.52,8.24,5.52,8.44Z"/><path class="b18e6769-ac28-4efa-987b-03141970eecd" d="M15.5,8.87l-.17-.11c-.77.58-.28,1.06-.65,1.8-.3-.06-.31-.07-.44-.32-.27.13-.71.16-1,.27a4.3,4.3,0,0,1,.16-.87A3.94,3.94,0,0,1,11.19,9c.12-.18.33-.16.22-.38l.22-.06-.17,0c.12-.23.25-.07.44-.06a3.46,3.46,0,0,0,2.83-.6c1.9-1.42,3-4.1,5.4-4.9a2.16,2.16,0,0,0,.16.49c-1.16.58-3.7,3.06-3.7,4.36l-.06-.38C16.28,8,15.5,8.29,15.5,8.87Z"/><path class="f07ece19-9f12-40aa-9aef-d274c8ef5be2" d="M17.84,8.76a2.72,2.72,0,0,0,.33.93c-1.39.14-1.16,1.24-1.2,2.45a5.19,5.19,0,0,1,1.47.28v.1h.11c0,.35.87,1.2,1,1.75a15.82,15.82,0,0,1,.11,2.67h-.55c0-.58.23-1.69-.43-2a2.51,2.51,0,0,0-.44,1.26,2.53,2.53,0,0,1-.6-.11,6.67,6.67,0,0,0-.43-2.62c-1.12,0-1.22.68-1.48,1.69a4.39,4.39,0,0,1-.92-.22c0-2.22-1.13-1.75-1.53.06l-1-.06c0-.45-.34-1.52.49-1.52,0-.7,1.7-.85,2.13-.88,0,.71,1.36,1.11,1.52.28C16.87,10.58,15,10.17,17.84,8.76Z"/><path class="f5634876-333f-4c4b-b9b5-ea5bf271b766" d="M3.51,19.12c.07-.14,0-.11.16-.11.07-.27-.1-.41-.16-.71-.06.37-.11.23,0,.44H3.4a7.39,7.39,0,0,0-.16-1H3.13a11.16,11.16,0,0,0-.06-1.42l.11-.06c-.54-1.09.36-4.46,1.09-5.55l.11,0c-.15-.74.68-1.84,1.09-2.45A3,3,0,0,0,5.58,9c.26,1,.67-.16,1-.16,0-.71.24-2.2.87-2.62.32,1-.32,2.29,0,3.38-2.65.88-4.66,5.91-3.82,8.45.62,0,.13,1,.6,1.2A.44.44,0,0,1,3.51,19.12Z"/><path class="adf3b0b2-7935-4d59-8fff-123d0b9884d8" d="M9.56,13.83c-.85-1.68-1.27,1.85-1.31,2.35h.16c-.19.06-.42.27-.6.27,0-.62-.38-1.3-.38-1.85A11.72,11.72,0,0,1,8,11.93c.09-.37,1.1-2.13.87-2.13a5,5,0,0,0,1-2.07c.86,0,.18,4,1.25,2.4a3.6,3.6,0,0,0,.44-.82,6.7,6.7,0,0,0,1.74.33C13.37,10.92,10.5,12.41,9.56,13.83Z"/><path class="eb9c2854-e0f4-4e63-b85e-58722cbac1df" d="M6.94,13.34A7,7,0,0,0,7.7,11l-.16-.06v-.16c-2.66,0-3.3,3.81-3.38,5.67h.11c-.55.27-.49,1.05-.49,1.58H3.56c0-2.83.51-7.35,3.82-8.45.3,1.49.84.62,1.63.22,0,0,.06.07.06.11,0,.48-.79,1.31-1,1.8a11.72,11.72,0,0,0-.55,2.83H7.43A2.53,2.53,0,0,0,6.94,13.34Z"/><path class="f3578d95-0c11-4d76-b5ec-22e295c5859b" d="M26.12,9.85H26v-.1H25.9c0-.23-.09-.16.06-.39l-.11,0c.07-.15.07-.07,0-.22C26,9,26,9,26,8.82a30.46,30.46,0,0,1,2.89,8.61c.1.59.6,2.83-.22,2.83l.22.06a1,1,0,0,0-.16.27l.16.05v.11c-.63,0-1.27,0-1.91.06,0-.53.49-1.18.6-1.8a25.7,25.7,0,0,0,.28-4.74C27.87,12.48,26.63,11.37,26.12,9.85Z"/><path class="b41d17c8-bfd1-4dd3-a6aa-c16c1241f316" d="M21.65,12.69c-1.64,0-1.2,3.65-1.74,4.47V17h-.27a9.44,9.44,0,0,0-.17-3c-.13-.4-.92-1.14-.92-1.42h-.11v-.1c-.48,0-1-.19-1.53-.22.05-1.14-.13-2.45,1.26-2.45,0,1.28,1.37,3,2.23,1.25C20.65,11.37,21.26,12.53,21.65,12.69Z"/><path class="b4311709-69f2-485c-9dd4-0b69aa8c31ee" d="M9.88,15.41c0-.56-.27-1.11-.27-1.63,0-1.89,3.4-2.93,4.63-3.54,0,.25.22.25.44.32a1.43,1.43,0,0,1,.16-.27c.19.13.26.11.33.33h.11c-.1.2-.06.07-.06.43a4.65,4.65,0,0,0-4.68,4.2A2.2,2.2,0,0,0,9.88,15.41Z"/><path class="e9a87457-9a9a-401a-8b9e-853c50c8dada" d="M20,3.7c.14.28.24.59.38.87a3.49,3.49,0,0,0-2.56,1.52H18c0,.42-.43.1-.38.77a15.73,15.73,0,0,0,1.2,4h.11c0,1.35,1.38.1,1.58-.49a11.73,11.73,0,0,0,.27-4.09,12.64,12.64,0,0,1,.16,2.78c0,.77-.44,2.78-1.47,2.78-.72,0-1.19-2-1.36-2.51-.85-2.53-.93-2.75.92-4.74C19.29,4.29,19.57,3.85,20,3.7Z"/><path class="ba917196-18e2-4aa4-93f3-bc88b5c3c645" d="M5.14,18.46c.16-.1.32-.18.49-.27-.08,0-.54-5.5,1.42-4.85A7.28,7.28,0,0,0,7.7,11l-.16-.06v-.16c-2.66,0-3.3,3.81-3.38,5.67C5.08,16.58,5,17.7,5.14,18.46Z"/><path class="f851a443-517b-4179-b1a7-37854dcb92e6" d="M6.07,17.81c0,.15,0,.09.11.16,0-.86,2.31-1.86,3.05-2.23.08.16,0,.11.22.11-.22.11-.4.38-.66.38-.11.34-.4.53-.27.93H8.9v.11c.24-.12.09,0,.38-.39a.82.82,0,0,1,.11.28h.17c-.13.06-.21.15-.33.21.15.76-1.14.06-.82.71l-.11.11-.05-.11c-.25.13-.35.13-.27.44a2.41,2.41,0,0,1-.6,0c.2-.21.09-.14.32-.22l0-.16c-.5.25-4,2.59-4.36,1.47A17.83,17.83,0,0,0,6.07,17.81Z"/><path class="a909f7b3-874d-41e2-bd90-81867afed149" d="M22.91,16.67c-.25.12-.12,1.72-.22,2.23.64,0,.65.18.71.82-.28,0-.51-.24-.76-.33v-.16a6.34,6.34,0,0,1-2.73-1.47c-.25-.51.22-2,.33-2.57s.42-2.44,1.14-2.5c1-.09,1.21,1.21,1.31,2S22.8,16,22.91,16.67Z"/><path class="f64ed0d8-0dc9-45b8-8dab-f91d21ba47ab" d="M26.83,19.06a21.74,21.74,0,0,0,.55-5.23h-.11a3.64,3.64,0,0,0-.17-.92H27c-.25-.76-1-1.85-2-1.75a.15.15,0,0,0-.11.11,27.65,27.65,0,0,0,.28,3c0,.81-.44,1.58-.44,2.34,0,1,.35,2.41.38,3.43a1.46,1.46,0,0,1,.55.06C25.94,19.6,26,17.74,26.83,19.06Z"/><path class="a8777492-bf76-455e-a6bc-539bd2c74e56" d="M20.67,9h-.11c0-1.12.41-2.65-.49-3.54-.4.2-.35.52-.49.92h.11v.44h-.11V6.64c0,.27-.52,3.63.6,3.49.29,0,.07-.55.38-.66,0,.43-.35,2.3-1.14,2.07-.29-.08-.4-.65-.65-.65,0-1.14-.88-2.42-1.09-3.6-.16-.84.27-.76.27-1.2h-.11A3.14,3.14,0,0,1,20.4,4.62,8.25,8.25,0,0,1,20.67,9Z"/><path class="f741b70e-b4fa-4106-ba14-e9860b23fc36" d="M22.25,1.41,22,1.52l.1.32c-.41.21-.86.08-1.3.17V1.63c-.16.08-.13.31-.22.49-.07-.34,0-.2-.16-.44-.07.39-2.51,2.24-2.89,2s0-.87-.06-1.15l-.16.06V2.5h-.11C18.39,1.35,19.56-.35,21.49.81,21.72,1,22.18,1.17,22.25,1.41Z"/><path class="e4c9d30d-7d7a-44f3-9240-b942415144cd" d="M20.84,9.42c1.66.83,2,3.1,2.12,4.85h.11a4.28,4.28,0,0,1-.05.87h-.28C22.74,12.46,19.94,12.11,20.84,9.42Z"/><path class="fd59a103-158d-438e-9d57-fdf05f299058" d="M7.38,9.58A4.75,4.75,0,0,1,7.49,6.2c.59-1,2.5.73,2.5,1.47C10,8.73,8,11.85,7.38,9.58Z"/><path class="fa8ae8f2-8a6b-479d-bb98-36175f487ae1" d="M6.18,17.81l.05.11L6,18l.06-.16c-.17.17-.29.33-.55.33a16.83,16.83,0,0,1,.06-2.51,8.33,8.33,0,0,1,.22-1.31c.88-3.52,2.27,1.9,2,2.24S6.61,17.38,6.18,17.81Z"/><path class="a3b0e2b6-5c50-462b-9c94-b39ee244fe04" d="M12.17,13.94c0-.54-.4-.7-.87-.76l.16-.06c0-1.42,2.68-2.07,3.76-2.07a1.17,1.17,0,0,1-.21.82c.2.07.11.08.27,0,0,.82,0,.59-.27,1a2.66,2.66,0,0,1-.11-.39c-.64,0-1.88.13-2.13.88C12.53,13.4,12.25,13.72,12.17,13.94Z"/><path class="a670833e-db7d-467b-8584-9fdb626fe783" d="M22.69,17.48a9.6,9.6,0,0,1-2.56-.16c0-2.49,2.25-7.3,2.51-1.74C22.66,16.21,22.67,16.85,22.69,17.48Z"/><path class="a6e592c4-500b-4059-bac1-82ed4f2a14e2" d="M25.14,20a1.46,1.46,0,0,1,.55.06l-.06.49-1.52-.49V20c-2.41,0,.75-6.9,1-1.91C25.12,18.74,25.12,19.39,25.14,20Z"/><path class="bfa27fa7-7fb6-4a8b-b019-1aa5ca0ca459" d="M21.76,2.77c.15.15.34.25.44.44-1.51.5-.71,2.29-.27,3.59,1.06,0,.82-1.85,1.3-2.34,0,.46-.44,1.62-.27,2l-.11-.11c-.13.2-.14.11-.05.27l-.11.11,0,.11c-.14.08-.07.08-.21,0-.84.84-1.65-3-1.53-3.7C21,2.91,21.62,2.84,21.76,2.77Z"/><path class="aa5a49aa-f867-4130-9a48-5ba62165f83d" d="M9.88,15.52v-.11c1.45,0,2.62-.77,4.2-.38,0,.15,0,.09.11.16-.2.1.32.94.27,1.26,0,.15-.41.17-.49.16a20.09,20.09,0,0,0-4.25-.11c.27-.13.11,0,.11-.6a2.11,2.11,0,0,1-.55-.05C9.28,15.63,9.71,15.52,9.88,15.52Z"/><path class="aa7208a7-6726-407e-9e9a-88e012906068" d="M7.65,6.2c4.36-.29,0,6.32-.22,2.67,0-.54,0-1.09,0-1.63C7.38,6.9,7.31,6.23,7.65,6.2Z"/><path class="ae74df58-999f-446a-af0e-a1bf1043bffb" d="M3.51,19.88c.44-.22,1.12-.12,1.63-.33.93-.37,1.62-1,2.46-1.41l.1.11c-.29.29-.71.34-.6.81-.25-.06-.18,0-.27-.16-.2.4-.09.58-.65.65l.05.28a1.83,1.83,0,0,0-.49.05c.31-.06.23,0,.33-.16-.17.08-.07.05-.33.05v-.11c-.14.07-.11,0-.11.17C5,19.61,4.17,20.54,3.51,19.88Z"/><path class="a9db79f8-6e7a-49ec-b7fc-bc610dc33c02" d="M15.66,15.41h.16v.17c.81,0,1.57.79,2.29,1,.08-.15,0-.28.11-.43a2.53,2.53,0,0,1-.6-.11,6.67,6.67,0,0,0-.43-2.62c-.31,0-1.69.52-1.09.82.94-.95,1.17-.38,1.36.76a2.45,2.45,0,0,1-1.58.11c0-.3.25-.65.11-.93A4.06,4.06,0,0,0,15.66,15.41Z"/><path class="a154e038-2d82-4487-88c1-78d1ed9305a3" d="M23.23,4.46c-.45.46-.25,2.34-1.3,2.34,0-1-.79-2.17-.66-3.21s2.64.66,2.24,1.47C23.21,4.91,23.36,4.7,23.23,4.46Z"/><path class="b4379052-5ce4-4441-b0f8-45e39ec88788" d="M15.28,10.62c-.19,0-.2-.22-.44-.28.25-.49-.43-1.46.49-1.58.24,0,.22.46.22.5.17,1.15.93,2.05.93,3.32,0,.76-1.24.95-1.42.22.41-.14.42-.53.22-.93C14.94,12,15.2,10.77,15.28,10.62Z"/><path class="face0945-007f-4fcd-abf0-daf7cba0ea8d" d="M6.07,14.32c-.46.23-.23,1.82-.44,2.24,1,0,1.86-.25,1.86-1.42H7.38V14.7H7.27c0-.84-.49-1.41-1.15-.76.15.29,2.18,1.13-.11,1.42C6,14.94,6.07,14.68,6.07,14.32Z"/><path class="f8d3e076-9385-4ea6-b083-95dca436029c" d="M20.56,9.69V9.47h-.1c-.72,2.15-1-2.42-.93-2.78l0,.17h.11V6.42h-.11c0-.27.37-1.39.71-.71A6.71,6.71,0,0,1,20.56,9h.11C20.67,9.55,20.74,9.34,20.56,9.69Z"/><path class="ba4ef0e6-1aab-4e8c-9ad5-09ba20956ed2" d="M24.16,16.5c.91-.25.91,2.36.87,3,0,.24-1.42.35-1.52,0C23.3,18.79,23.39,16.71,24.16,16.5Z"/><path class="a43ec375-39de-43f0-98b3-13d52995a3b4" d="M19.91,17a4.52,4.52,0,0,1-.82,0c0-.58.23-1.69-.43-2-1.22,1.22,0,2.33,1.2,2.73v.11A1.81,1.81,0,0,0,19.91,17Z"/><path class="b50fe18f-d39c-44b1-b3d0-9ca7638cc458" d="M15.71,15.14a4.39,4.39,0,0,1-.92-.22c0-2-1.28-1.72-1.47.06a5.36,5.36,0,0,1,2.29.49C15.66,15.35,15.66,15.26,15.71,15.14Z"/><path class="f717a10e-82ca-4917-b279-1218669d98e3" d="M6.61,6.86a2.18,2.18,0,0,1,.44-.38,7.16,7.16,0,0,1-.49,2.34c-.34,0-.67,1.19-.93.16a1.39,1.39,0,0,1,0-.92c.09.38,0,.8.38,1a8.47,8.47,0,0,0,.82-2.23Z"/><path class="a8b7a77a-ee7e-4167-9b87-5b51d925849c" d="M17.35,6.48a7.5,7.5,0,0,0,.49,2.28,3.6,3.6,0,0,0-1.36.82A3.38,3.38,0,0,1,17.35,6.48Z"/><path class="ed2d6594-80ea-41fd-a602-fea5f4f9096a" d="M8.25,16.18c0-2.44,1.37-4,1.63-.66C9.31,15.52,8.84,16.18,8.25,16.18Z"/><path class="aef50ba4-5bbf-4ad7-9b96-1e596b11ee06" d="M3.84,18c0-2.52,1.47-1.14,1.3.54C5.07,19.27,3.84,19.49,3.84,18Z"/><path class="bf394d90-6ccf-4476-9ae3-6f6e90606a20" d="M21.82,13.67c.33.67,1.19,2.67.11,2.89v-.11h-.11a20.82,20.82,0,0,0-.49-2.13C21.58,14.2,21.44,13.8,21.82,13.67Z"/><path class="b5163622-79ae-4a29-9318-e48169b41ed6" d="M12.28,14.92a4.18,4.18,0,0,0-1.74.33C10.54,13.23,12.28,12.48,12.28,14.92Z"/><path class="a5f72094-a8d1-402e-bc32-146da6ee4ff8" d="M11.63,9.31c-.87,1.74-1.73,1.31-1.15-1C10.74,8.79,11.24,8.92,11.63,9.31Z"/><path class="b89de8fc-1581-4f0e-978b-83dd65d692f0" d="M25.69,20.59c0-2.61,1.15-2.5,1.3.16A4.07,4.07,0,0,1,25.69,20.59Z"/><path class="b00eca42-ae47-4655-84e2-a9d91f910ed2" d="M15.55,8.87c-.1-.6,1-1.44,1-1.41C16.6,8.93,16,11.83,15.55,8.87Z"/><path class="ba4ef0e6-1aab-4e8c-9ad5-09ba20956ed2" d="M6.78,6.86A5.27,5.27,0,0,1,6,9.09C5.11,8.67,6.11,6.86,6.78,6.86Z"/><path class="ac7e11b5-d1d0-4863-a04d-ed2d87f24efe" d="M10.27,6l-.22-.11L9.94,6a1.26,1.26,0,0,1-.17-.44l-.16,0c.26,1.31-2-.6-1.2-.6V4.84c1,0,1.16.79,1.91,1Z"/><path class="eda201d7-a1bc-4a1a-8574-b64b66cc9836" d="M15.71,5.06a6.26,6.26,0,0,0,.93-1.58l.06.16c.09-.18.29-.11.49-.11C17.62,4.84,16.62,5.06,15.71,5.06Z"/><path class="ab11b771-e837-4ab9-9370-c591591cd4d2" d="M9.07,13.83c1.14.21.34,2.25-.66,1.69C8,15.3,8.72,13.77,9.07,13.83Z"/><path class="aa7208a7-6726-407e-9e9a-88e012906068" d="M16,14.21l.11.06c.94-.95,1.17-.38,1.36.76a2.45,2.45,0,0,1-1.58.11C15.88,14.82,16,14.54,16,14.21Z"/><path class="f8c1ad04-7e1d-42c5-9afe-f9ef922219cc" d="M29.5,20.43c-.24-.08-.14,0-.27-.28.68-.34-.07-2,.22-2.61h-.11v-.38c.75.75.38,2.71.38,3.65h-.27A1,1,0,0,1,29.5,20.43Z"/><path class="a786f542-c624-4dde-b480-1a4e7a77b5d7" d="M18.28,2.39c0-.38.58-1.07.49-1.25C20.74.48,19.27,2.39,18.28,2.39Z"/><path class="fe21b86c-ba5a-427b-88eb-217e5d5732b2" d="M4.27,16.77c1.55-.13-.18,2.77-.27,1.64,0-.38-.06-.76-.06-1.14S4.06,16.79,4.27,16.77Z"/><path class="fe15d9dc-1107-4f61-813d-e2f4d3944cfd" d="M15,15.79c.32.05,1.36.27,1.36.66-.21,0-.14-.05-.22.11l.11.11c-.36.23-.91.08-1.31,0l.17-.11a.8.8,0,0,1-.39-.22l-.11.06c.09-.18.07-.07,0-.33C15,15.88,14.89,16,15,15.79Z"/><path class="a43317fb-0bd6-433c-9aaf-8a9ed102847f" d="M8.52,17.16c0-.33.22-.6.22-.88.4-.13.6-.54,1.09-.38A1.15,1.15,0,0,1,8.52,17.16Z"/><path class="f8d3e076-9385-4ea6-b083-95dca436029c" d="M7.92,6.69c.18.06.17.17.33.17a6,6,0,0,1,0,1.47C7.74,10.38,7.26,7.69,7.92,6.69Z"/><path class="b3bfc570-2f69-4633-bb16-7e3dd2343d13" d="M26.61,19c-.12.25.18,1.09.22,1.37C25.18,21.14,25.85,18.58,26.61,19Z"/><path class="bfc57ac1-b4c6-4bda-ba17-a592f3849506" d="M11.46,13.45c.29-.07.64.4.55.76C11.78,15.12,9.48,14,11.46,13.45Z"/><path class="a84d4294-24c2-4714-a7cf-86df2db35166" d="M6.12,14.32c.39-.58,1.25.21.88.71C6.47,15.73,5.54,15.19,6.12,14.32Z"/><path class="b0d420f1-1073-4460-a259-5f4400301203" d="M14.57,14.16c-.11.22,0,.42,0,.65-.42,0-1.87-.85-.71-1.14C14.39,13.54,14.26,14.16,14.57,14.16Z"/><path class="af18fc0c-5e09-4bb9-b99b-5be5764dc258" d="M16.31,8.38A2.8,2.8,0,0,1,16,10.07h-.16C15.88,9.25,15.48,8.8,16.31,8.38Z"/><path class="b130846c-b95d-42dd-8ffd-e00b96d8d534" d="M15.39,10.93l-.1-.16"/></g></g></g></svg>