<svg xmlns="http://www.w3.org/2000/svg" xmlns:xlink="http://www.w3.org/1999/xlink" viewBox="0 0 243.85 164.63"><defs><style>.f01ca7af-8ac2-403e-9526-70ffe0b7aa2b{fill:none;}.ecc53191-81c5-482e-8519-a90d454baad6{clip-path:url(#f03ddde1-b555-4cb2-97a3-e0dec801a53c);}.a1c409f4-e6a0-484f-9f31-b5031bb9b50c{fill:#fdfeff;stroke:#fdfeff;}.a1c409f4-e6a0-484f-9f31-b5031bb9b50c,.a1ea67ca-668a-4709-ae04-713827f6748e,.a78fc7bb-6530-4ded-9469-37f15e60d2c7,.a7f60255-089b-45cc-a55e-d1b590da41a4,.a7fba03a-322b-46e8-a84a-01f0af74e219,.a8f3aaac-0d7a-41c4-ad64-2d70538ef56d,.aa411e87-d406-461a-a939-bc71fae3ed4e,.ab79d690-7c4f-4a7e-b687-9ee26a5929d8,.aeae0a8b-d74e-4edd-bb37-a33eee47b1ad,.affff290-e17f-4161-920b-e671d0f07e66,.b40469b2-133c-427a-a5f6-2768fc75e054,.b56bb9c7-fb3d-4449-b1e0-324c64b897d9,.b8db89b2-30fa-45f6-a488-ff6fde8772ba,.bd1a407b-bfd9-46a5-9709-b505e97dc354,.bed4474d-450f-410b-89ab-8f6367744cc3,.e2e03b81-e7ac-4403-86bb-b063d46503d4,.e61ca0cc-a402-4b02-9d0a-a6a124c335dd,.f5dff468-f184-4d25-beda-1764662b8c2a,.f93d8368-81ac-4efa-abf2-12498bdab7f4{stroke-linecap:round;stroke-linejoin:round;stroke-width:0.29px;}.aeae0a8b-d74e-4edd-bb37-a33eee47b1ad{fill:#d8d6e1;stroke:#d8d6e1;}.bed4474d-450f-410b-89ab-8f6367744cc3{fill:#b1a9bb;stroke:#b1a9bb;}.ab79d690-7c4f-4a7e-b687-9ee26a5929d8{fill:#d6d5df;stroke:#d6d5df;}.b56bb9c7-fb3d-4449-b1e0-324c64b897d9{fill:#433e58;stroke:#433e58;}.a1ea67ca-668a-4709-ae04-713827f6748e{fill:#46415b;stroke:#46415b;}.f93d8368-81ac-4efa-abf2-12498bdab7f4{fill:#47425b;stroke:#47425b;}.a7f60255-089b-45cc-a55e-d1b590da41a4{fill:#413c55;stroke:#413c55;}.affff290-e17f-4161-920b-e671d0f07e66{fill:#f7f8f8;stroke:#f7f8f8;}.f5dff468-f184-4d25-beda-1764662b8c2a{fill:#2a2536;stroke:#2a2536;}.e61ca0cc-a402-4b02-9d0a-a6a124c335dd{fill:#fbfcfe;stroke:#fbfcfe;}.b40469b2-133c-427a-a5f6-2768fc75e054{fill:#d7d6d6;stroke:#d7d6d6;}.b8db89b2-30fa-45f6-a488-ff6fde8772ba{fill:#fcfcf8;stroke:#fcfcf8;}.a7fba03a-322b-46e8-a84a-01f0af74e219{fill:#d5d4d5;stroke:#d5d4d5;}.a8f3aaac-0d7a-41c4-ad64-2d70538ef56d{fill:#afa8ba;stroke:#afa8ba;}.a78fc7bb-6530-4ded-9469-37f15e60d2c7{fill:#b2aabc;stroke:#b2aabc;}.f8207295-df3d-4e20-be75-2e0c2239ddea{fill:#42ade2;}.aa411e87-d406-461a-a939-bc71fae3ed4e{fill:#443f58;stroke:#443f58;}.e2e03b81-e7ac-4403-86bb-b063d46503d4{fill:#fff;stroke:#fff;}.bd1a407b-bfd9-46a5-9709-b505e97dc354{fill:#454059;stroke:#454059;}</style><clipPath id="f03ddde1-b555-4cb2-97a3-e0dec801a53c" transform="translate(52.59)"><path class="f01ca7af-8ac2-403e-9526-70ffe0b7aa2b" d="M137.33,71.66H100.1C96.45,68,92.92,64,91.37,58.94c-.07-.2-.12-.39-.18-.59a25.15,25.15,0,1,0-28-.26c-.53,3.4-1.1,6.8-3.62,9.42q-1.91,2.17-4,4.17H17.69A17.62,17.62,0,0,0,0,89.21V213.58a17.63,17.63,0,0,0,17.69,17.55H59.9V231a8.33,8.33,0,0,1-.9-1.24l-.26-.4a.63.63,0,0,0-.1-.27c0-.09-.12-.12-.11-.08l.15.25A25.15,25.15,0,1,1,105,215.78a24.4,24.4,0,0,1-4.25,13.91v.08c-.31.49-.64,1-1,1.43H137.4A17.61,17.61,0,0,0,155,213.58V89.21A17.6,17.6,0,0,0,137.33,71.66Z"/></clipPath></defs><g id="f4b98d2e-5664-4627-9904-47f44fd27b43" data-name="Layer 2"><g id="e3167391-9649-4922-ad27-fcf360edad5f" data-name="Layer 1"><g class="ecc53191-81c5-482e-8519-a90d454baad6"><path class="a1c409f4-e6a0-484f-9f31-b5031bb9b50c" d="M-52.44,84.31c0,4.22,2.74,8.78,4.09,13,3,9.28,2.61,14.6,18.62,19.68-2.62.63-3.12,4.39-4.47,5.68,5.71-1.36,6.21-.38,6.71-4.44l.37,2.84C-3.69,115.44,4.74,99.28,7.51,88c.8-3.24.78-17,6-17q80.64-.09,161.26,0l-32.4.36c5.79,1.84,4.08,13.67,5.21,17.73,3.39,12.1,11.78,25.38,33.52,32.28.13-1.32-1.35-3.32,1.12-3.91.62,6.79,8.46,3.89,8.56,7.1q.38,11.43.38,22.87c0,2.46-6.24,2.48-9.69,2.48q-61.08,0-122.15-.17c-28.43-.05-56.86-.24-85.28-.18-2.94,0-10.33.25-10.43-2.48-.24-6.68-.25-13.36-.37-20" transform="translate(52.59)"/><path class="aeae0a8b-d74e-4edd-bb37-a33eee47b1ad" d="M67.09,71.21c-16.37.06-32.74.06-49.11.18-.66,0-1.05.77-1.48,1.24-1.68,1.84-.63,9.71-.93,12.41-1.14,10.38-3.53,21.3-10.19,29.8C4,116.66.85,121.22-2,121.22c0-14-.39-28.87-.19-43.09,0-3,3.71-6.72,6.86-6.74C25.46,71.27,46.27,71.27,67.09,71.21Z" transform="translate(52.59)"/><path class="bed4474d-450f-410b-89ab-8f6367744cc3" d="M130.07,98.14h.35c0,5.93,6.68,26.78-1.6,31.75-5.83,3.5-13.58,1.06-20.39,1.06q-12.41,0-24.82-.18c-2.31,0-5.29-3.44-5.32-5.67q-.18-11.7-.18-23.41c0-2.57,3.28-6.18,5.85-6.21,13-.11,26,0,39,0C124.87,95.49,129.25,95.69,130.07,98.14Z" transform="translate(52.59)"/><path class="ab79d690-7c4f-4a7e-b687-9ee26a5929d8" d="M44.35,164.47v-.36c-11.64,0-23.29.06-34.93,0a17.53,17.53,0,0,1-5.16-1.06c-6-2.63-9.12-5.43-11.24-9.76-.17-.34-1.64-3.71-.61-3.72,56.39-.29,112.78.08,169.17.18,0,17.52-31.24,14.23-52.54,14.54-8.7.13-17.41.22-26.12.18-12.65-.08-25.31-.18-38-.18A2.05,2.05,0,0,0,44.35,164.47Z" transform="translate(52.59)"/><path class="ab79d690-7c4f-4a7e-b687-9ee26a5929d8" d="M155.25,117.3c-1.32.44-.76,2.69-.89,4.08-9.37-9.37-13.09-15.8-15.43-29.8-.84-5.08.15-17.23-2.83-20.21,6.81-.1,18.54-2.49,18.79,7.62.11,4.44.18,8.87.18,13.3,0,8.34-.12,16.67-.18,25Z" transform="translate(52.59)"/><path class="b56bb9c7-fb3d-4449-b1e0-324c64b897d9" d="M85.73,103.47h26.43v5.85c-8.87,0-17.74,0-26.6-.18C85.65,106.3,85.65,106.3,85.73,103.47Z" transform="translate(52.59)"/><path class="a1ea67ca-668a-4709-ae04-713827f6748e" d="M119.07,102.58c3.49-.94,7.11,6.25,2.31,7.45S114.51,103.81,119.07,102.58Z" transform="translate(52.59)"/><path class="f93d8368-81ac-4efa-abf2-12498bdab7f4" d="M119.07,117.12c3.6-.94,6.86,6.31,2.31,7.45C116.37,125.82,114.64,118.28,119.07,117.12Z" transform="translate(52.59)"/></g><path class="a7f60255-089b-45cc-a55e-d1b590da41a4" d="M47.16,49.62C57.94,55,65,55.94,78,55.94c7.28,0,15.7-1.84,21.73-6.15,2.27-1.62,5.42-4.37,6.15-7.33.91-3.6,1.61-5.94,1.61-10,0-12.63-11.67-21.61-22.42-25.2,4.26-.7,8.49,3,12.22,4.22,0,.32.41.33.67.42v.17h.26c0,.33.48.43.76.5v.17h.25v.17c2.19.73,3.68,3.17,5.18,5a6.7,6.7,0,0,0,2,1.77l-.08.17.33.17-.08.16c.22.11.17,0,.17.26l.25.08c0,.3.34.42.34.76l.25.08-.08.17h.16c0,.23-.05.15.17.26l-.08.16c.31.16.09.37.5.51l-.08.17h.17l-.09.17c.31.15.27.63.68.84l-.09.17H109l-.08.17h.17l-.09.16h.17l-.08.17h.16l-.08.17h.17a.91.91,0,0,1-.09.17h.17l-.08.17h.17l-.09.17h.17l-.08.17h.17l-.09.16h.17c-.08.26-.09.59.25.59l-.08.17h.17c-.09.25-.15.42.17.42l-.09.17h.17c-.08.25-.15.42.17.42a.91.91,0,0,0,.34,1c-.13.25-.06.59.25.59-.11.33-.15.19.08.43-.12.24-.1.1,0,.42h.17c-.11.32-.15.19.09.42-.13.25-.11.11,0,.42h.16c0,2.26,1.35,4.71,1,7.08h.17a47.26,47.26,0,0,0,0,5.05l-.08-.17c-.08,1-.57,2.53-.34,3.46-.08,0-1.45,4.94-2.1,5.81A24.74,24.74,0,0,1,103,58.47a22.1,22.1,0,0,1-9.44,2.78q-8.42.07-16.85.08C66.68,61.33,51.12,61.49,47.16,49.62Z" transform="translate(52.59)"/><path class="affff290-e17f-4161-920b-e671d0f07e66" d="M112.71,42.29l.08.17c0-1.68.09-3.36,0-5.05h-.17c0-2.42-1-4.88-1-7.08h-.16c-.11-.3,0-.31,0-.59h-.17l.08-.25h-.17c-.1-.31,0-.31,0-.59H111a2.67,2.67,0,0,0,.09-.26h-.17c0-.28-.22-.31-.08-.59l-.17-.08.08-.25h-.17a2.67,2.67,0,0,1,.09-.26h-.17l.08-.16h-.17l.09-.26c-.32,0-.25-.17-.17-.42h-.17l.09-.17c-.32,0-.26-.17-.17-.42h-.17l.08-.17h-.17c0-.34-.21-.2-.08-.59h-.17l.09-.16h-.17l.08-.17h-.17l.09-.17h-.17l.08-.17h-.17a.91.91,0,0,0,.09-.17h-.17l.08-.17h-.16l.08-.17H109l.09-.16h-.17l.08-.17h-.17l.09-.17c-.24-.12-.13,0-.34-.25a.91.91,0,0,1,.09-.17h-.17l.08-.17h-.17c0-.23,0-.14-.17-.25l.09-.17h-.17c0-.23,0-.15-.17-.26l.09-.16h-.17c0-.23,0-.15-.17-.26l.08-.16a2.13,2.13,0,0,1-.84-1.27l-.25-.08c0-1.17-6.15-7-7.5-7.5v-.17H99v-.17c-.28-.09-.49-.24-.76-.34v-.16H98v-.17c-.31,0-.37-.15-.67-.26v-.16c-1,0-2.31-1.21-3.29-1.6a38.61,38.61,0,0,0-8.42-2.62c-11.35-1.74-22.64,1-30.84,9.19a32.37,32.37,0,0,0-8.93,18.45,36.19,36.19,0,0,0-.25,8.51c0,.21.46,2.13.17,2.19s-1.51-.59-1.94-.76-2.28-.59-2.61-1.09c-.48-.72-.4-3-.42-3.88,0-1.88-.09-3.76-.09-5.65a26.23,26.23,0,0,1,.93-6.15c3-11.88,11.72-20.78,22.75-25.19C76.64-2,95.16-.53,105,9.35c2.35,2.35,5.32,4.65,6.91,7.84.2.39,1.51,3.31,1.94,3.37.61.07,1.23.05,1.85.08v.17h-1.6c-.15.45,1.94,5.43,2.19,6.32,1.46,5.08,2.54,12.12.68,17.1-.31.81-3.92,1.45-4.72,1.85C111.93,45.36,112.6,43,112.71,42.29Z" transform="translate(52.59)"/><path class="f5dff468-f184-4d25-beda-1764662b8c2a" d="M45.9,45.41a74.34,74.34,0,0,1-.42-7.92c0-11.17,7.63-21.23,16.76-26.71,6.17-3.7,16-5.37,22.67-3.7,11.22,2.8,23.43,14.84,23.86,26.9C109.55,56.19,84,57,67,55.77c-4.48-.33-16.61-2.14-19.88-6.23A8.57,8.57,0,0,1,45.9,45.41Z" transform="translate(52.59)"/><path class="e61ca0cc-a402-4b02-9d0a-a6a124c335dd" d="M66.12,17.61c3.91,0,6.71,3.4,5.14,7.33C69,30.71,61.55,33.6,57.1,29.15l.09-.17c-.25-.12-.39-.24-.26-.5h-.16a12,12,0,0,0-.34-1.77c-2.8,2.79-4.34,7.75-5.39,11.45-.36,1.25-.2,3.76-2,3.46-1.19-.2-.23-3.36-.42-4.3.18-.09.85-6.12,1.52-7.24s.75-2.77,1.52-3.8c2.78-3.7,4.79-7.55,8.51-10.53,5-4,12.3-6,19-5.89,1.47,0,6.57-.06,6.57,2.19,0,.79-5.93.78-7.41,1C73.74,13.75,70.09,15.62,66.12,17.61Z" transform="translate(52.59)"/><path class="b40469b2-133c-427a-a5f6-2768fc75e054" d="M93.33,61.33c6,0,13.56-4.11,16.6-9.18,1.18-2,1.56-4.08,2.27-6.23l.09.16a37.3,37.3,0,0,1,4.55-1.68c.45,1.35-.9,4.12-1.35,5.48h4.38c-1.46,0-2.92,0-4.38.08-.06,0-.22.51-.25.59-.6,1.49-1.22,2.94-1.94,4.38-1.44,2.87-3.53,5.31-5.39,7.92-.56-.56-1.17-1.33-2.11-1.35C101.64,61.42,97.49,61.39,93.33,61.33Z" transform="translate(52.59)"/><path class="b8db89b2-30fa-45f6-a488-ff6fde8772ba" d="M106.05,68.41c-10.19.78-20.44,0-30.66-.08-7.81,0-15.62,0-23.43-.09-3.32,0-3.49-6.88.09-6.91q20.64-.13,41.28,0c4.16,0,8.31,0,12.47.09a2.4,2.4,0,0,1,1.1.42C109.29,63.64,109.25,68.17,106.05,68.41Z" transform="translate(52.59)"/><path class="a7fba03a-322b-46e8-a84a-01f0af74e219" d="M64.6,61.25c-4.16,0-8.31,0-12.47,0-.91,0-1.24.74-1.94,1.18-.15.1-.63-.54-.67-.59-.85-1.06-1.68-2.14-2.44-3.29-3-4.5-4.58-9.55-5.9-14.82,1.12,0,3.61,1.23,4.55,1.85l.17-.17a10.9,10.9,0,0,0,1.18,4C50.52,57.48,56.85,58.66,64.6,61.25Z" transform="translate(52.59)"/><path class="a8f3aaac-0d7a-41c4-ad64-2d70538ef56d" d="M115.49,49.88c0-2.6,1.59-5.59,1.85-8.26.72-7.13-.07-14.29-3.28-20.73l1.68-.08v-.17c4.32,0,11.4.65,11.46,6.74q.09,7.67.08,15.33C127.28,49.33,120.34,50,115.49,49.88Z" transform="translate(52.59)"/><path class="a78fc7bb-6530-4ded-9469-37f15e60d2c7" d="M44.55,20.47c-.79.4-2.3,5.47-2.61,6.57a38.6,38.6,0,0,0,.76,22.67c-4.32,0-10.73-1-10.79-6.83q-.07-7.53-.08-15.08C31.83,20.65,39.52,20.47,44.55,20.47Z" transform="translate(52.59)"/><path class="f8207295-df3d-4e20-be75-2e0c2239ddea" d="M62.43,71.77q-4.23,0-8.44-.07c-1.53,0-1.56-2.61-1.35-3.46q26.7,0,53.41.17c0,3.65,0,3.54-4.46,3.54-4.72,0-9.44-.06-14.16-.08-7.52,0-15.05-.05-22.58-.09H62.43" transform="translate(52.59)"/><path class="aa411e87-d406-461a-a939-bc71fae3ed4e" d="M120.71,24.26c3.21-.73,5.84,5.41,1.86,6.41C117.72,31.88,116.07,25.33,120.71,24.26Z" transform="translate(52.59)"/><path class="e2e03b81-e7ac-4403-86bb-b063d46503d4" d="M36.8,39.43c2.63-.58,4.57,4.25,1.35,5A2.62,2.62,0,1,1,36.8,39.43Z" transform="translate(52.59)"/><path class="a1c409f4-e6a0-484f-9f31-b5031bb9b50c" d="M37.05,25.61c2.64-.49,4.15,4.53,1.1,5.14A2.64,2.64,0,1,1,37.05,25.61Z" transform="translate(52.59)"/><path class="bd1a407b-bfd9-46a5-9709-b505e97dc354" d="M120.71,42.38c1.7-.32,3.27,2.63,1,3.2S118.47,42.79,120.71,42.38Z" transform="translate(52.59)"/></g></g></svg>