<svg xmlns="http://www.w3.org/2000/svg" xmlns:xlink="http://www.w3.org/1999/xlink" viewBox="0 0 59.91 53.63"><defs><style>.f78408ff-c77d-4269-b7b4-3167c27a7644{fill:url(#eec87029-20a6-4c36-8e4d-1e5c026caa60);}.e998ceec-7b76-406f-9947-898a39c86d0f{fill:#f0c8a4;}.e878bb99-c011-4b53-a9f8-45cea3d41676{fill:#f1f2f2;}.e4107c63-2c6e-45b5-9eac-9367582ec931{fill:#2b1b07;}.e3f4c086-3b40-4faf-a255-b6da133728ce{fill:#766964;}.efabd092-4160-42f1-94db-d158520bce0d{fill:#7c501c;}.b059d200-4070-4af0-9b73-3b8c36f21f13{fill:#986b2c;}.f89be763-8edb-43f3-803d-6d819e7b0398{fill:#d8bba9;}.ece73ee0-e4ca-401a-84d0-00eb38f9afb7{fill:url(#a8b356b1-e5b4-42fa-9b6c-7ba2d42138e4);}.a3923950-19ca-4d08-87d4-a08a0e2bffa1{fill:url(#b4eb26f2-d2fd-4d6a-a963-9c41d4d7c193);}.e4cfb0f5-feb0-44fb-bdcb-8e8eb9b7480a{fill:url(#a8acd90f-e298-4c9e-afaa-73e072d32ba5);}.a26e2a8e-56ea-423b-9129-0ad8a768361a{fill:url(#b9dcbb8e-46dc-40d1-8169-f7188122c8fd);}.b6885dda-4a57-4ad9-8fd9-8977a3a7ea13{fill:url(#b45a0041-9e81-48ac-bc2e-81cc3fcbd4e0);}.a5e3519f-8ecb-450e-bbb9-5a7a52327161{fill:#bb8165;}.a4a7d352-e254-40f9-98a5-f81d0ee5639b{fill:#ab7e3b;}.ff9f7f26-0dd4-4b81-8529-705ea4a166d8{fill:#a38574;}.eb1bfc96-e71f-4f15-b3a9-e5773d1ae68b{fill:url(#fc1d1b65-48af-4613-837e-f3a36dc98dfc);}.bce03125-392f-451c-8a7f-08d642a2e644{fill:url(#aae9020d-bdef-4b9a-8fb7-f830af1ca5c8);}.ad77f62a-c663-4a19-875a-ad6363ab889e{fill:url(#ea622af0-f8dc-487d-b9bd-d2b4ff74a613);}.edf03585-d822-477a-aaeb-b12697f95dc5{fill:url(#ece66bfa-cc9a-4dd6-a2c5-43dfd14d5d5a);}.a84b6b10-76c5-4698-99d6-6d054a6dd860{fill:url(#ac6889d2-429a-4e55-ac20-701079fe3a86);}.bdaac253-3c14-4d8f-b917-5ab52340d24c{fill:#77511f;}.aacdacb9-7d2d-4904-9740-9a3b02e72e8d{fill:#f2dbce;}.b3f9e858-c03a-45ca-9d2b-03eff3eb5b6b{fill:#c69771;}.e623b9e1-9e0d-43cd-a5a4-14930b07215b{fill:#89533e;}.ad038677-ea24-48f7-96b6-7e9862121db0{fill:#4c2e0f;}.ac0da8c3-820a-441c-bf3b-6f9cef88016b{fill:#664218;}.e1a7e1ff-22a8-4095-b215-fa6653504243{fill:#cea36a;}.a8a9c304-234e-448e-8785-43068de216d7{fill:#7e5b2f;}.be9d0343-a663-4800-89fd-24226256ab98{fill:#2d2d2d;}</style><linearGradient id="eec87029-20a6-4c36-8e4d-1e5c026caa60" x1="-946.52" y1="524.75" x2="-941.43" y2="524.75" gradientTransform="matrix(1.67, 0, 0, -1.67, 1603.24, 925.16)" gradientUnits="userSpaceOnUse"><stop offset="0" stop-color="#ffaf00"/><stop offset="1" stop-color="#feff00"/></linearGradient><radialGradient id="a8b356b1-e5b4-42fa-9b6c-7ba2d42138e4" cx="-943.97" cy="537.1" r="17.43" gradientTransform="matrix(1.67, 0, 0, -1.67, 1603.24, 925.16)" gradientUnits="userSpaceOnUse"><stop offset="0" stop-color="#443013"/><stop offset="1" stop-color="#3e1803"/></radialGradient><linearGradient id="b4eb26f2-d2fd-4d6a-a963-9c41d4d7c193" x1="-952.77" y1="526.62" x2="-949.92" y2="526.62" xlink:href="#eec87029-20a6-4c36-8e4d-1e5c026caa60"/><linearGradient id="a8acd90f-e298-4c9e-afaa-73e072d32ba5" x1="-938.03" y1="526.62" x2="-935.18" y2="526.62" xlink:href="#eec87029-20a6-4c36-8e4d-1e5c026caa60"/><linearGradient id="b9dcbb8e-46dc-40d1-8169-f7188122c8fd" x1="-949.59" y1="525.66" x2="-947.08" y2="525.66" xlink:href="#eec87029-20a6-4c36-8e4d-1e5c026caa60"/><linearGradient id="b45a0041-9e81-48ac-bc2e-81cc3fcbd4e0" x1="-940.87" y1="525.66" x2="-938.37" y2="525.66" xlink:href="#eec87029-20a6-4c36-8e4d-1e5c026caa60"/><linearGradient id="fc1d1b65-48af-4613-837e-f3a36dc98dfc" x1="-946.63" y1="525.36" x2="-941.31" y2="525.36" xlink:href="#eec87029-20a6-4c36-8e4d-1e5c026caa60"/><linearGradient id="aae9020d-bdef-4b9a-8fb7-f830af1ca5c8" x1="-941.07" y1="525.94" x2="-938.2" y2="525.94" xlink:href="#eec87029-20a6-4c36-8e4d-1e5c026caa60"/><linearGradient id="ea622af0-f8dc-487d-b9bd-d2b4ff74a613" x1="-949.75" y1="525.94" x2="-946.88" y2="525.94" xlink:href="#eec87029-20a6-4c36-8e4d-1e5c026caa60"/><linearGradient id="ece66bfa-cc9a-4dd6-a2c5-43dfd14d5d5a" x1="-938.16" y1="527.33" x2="-935.04" y2="527.33" xlink:href="#eec87029-20a6-4c36-8e4d-1e5c026caa60"/><linearGradient id="ac6889d2-429a-4e55-ac20-701079fe3a86" x1="-952.91" y1="527.33" x2="-949.79" y2="527.33" xlink:href="#eec87029-20a6-4c36-8e4d-1e5c026caa60"/></defs><g id="a84b4b46-53c2-4857-a9c4-745cd515f381" data-name="Layer 2"><g id="bcb1b42b-5530-4caa-9f11-c89dd346e8ff" data-name="Layer 1"><g id="fc3761bf-8ec2-40c4-b62a-0e87dc6e4b18" data-name="Untitled"><path class="f78408ff-c77d-4269-b7b4-3167c27a7644" d="M33.3,49.27a4,4,0,0,1-.16.68s0,0,0,0c0-.22,0-.44,0-.66a1.79,1.79,0,0,1,0-.4,9.1,9.1,0,0,1-.91,0,6.4,6.4,0,0,1,.28,2.6c0,.08-.14.12-.16,0-.18-.88-.33-1.78-.51-2.67l-.5-.1c.14.11.14.31.16.48a2.3,2.3,0,0,1,0,.74s-.07,0-.09,0c-.06-.23-.09-.47-.13-.71s-.11-.35,0-.5a0,0,0,0,1,0,0A7.5,7.5,0,0,1,30,48.24a7.5,7.5,0,0,1-1.31.45l0,0c.1.15,0,.33,0,.5s-.07.48-.14.71a0,0,0,0,1-.09,0,2.3,2.3,0,0,1,0-.74.73.73,0,0,1,.15-.48l-.49.1c-.18.89-.33,1.79-.51,2.67,0,.1-.15.06-.16,0a6.25,6.25,0,0,1,.28-2.6c-.3,0-.61,0-.91,0a1.27,1.27,0,0,1,0,.39c0,.22,0,.44,0,.66,0,0,0,0,0,0a5.2,5.2,0,0,1-.17-.68,1.2,1.2,0,0,1,0-.38c-.23,0-.45,0-.68,0l-.17,0c.23.65.47,1.3.74,1.94s.52,1.17.8,1.74a2.87,2.87,0,0,0,.2.39s.08-.1.1-.14a1.27,1.27,0,0,0,.13-.19l.24-.37a23,23,0,0,0,1.74-3.34.34.34,0,0,1,.57,0c.28.65.58,1.29.91,1.91s.62,1.1,1,1.63l.27.41.08.1v0l.09-.19.2-.4a31.07,31.07,0,0,0,1.44-3.48c-.29,0-.57.06-.86.07A1,1,0,0,1,33.3,49.27Z"/><path class="e998ceec-7b76-406f-9947-898a39c86d0f" d="M15.63,21l.15.35a.33.33,0,0,1-.2.48q-.87.21-1.74.48a29.63,29.63,0,0,0-3.4,1.28,15.66,15.66,0,0,0-2.6,1.44c.71.76,1.33,1.58,2,2.34a.33.33,0,0,1,.06.4c-.27.4-.53.81-.79,1.22s-.64,1-1,1.54A17,17,0,0,1,6.86,32.1h0l.13,0a.69.69,0,0,0,.25,0l.31,0a2.21,2.21,0,0,1,1.08.19.82.82,0,0,1,.37.45,1.46,1.46,0,0,1-.07.92l-1,3.3a4.87,4.87,0,0,1,3.92.23c.31.15.13.59-.17.61a1.81,1.81,0,0,0-1.08.41,1,1,0,0,0-.27.38l0,.13v0h0s0,0,0,0l0,.06,0,.06s0,0,0,0l.07.08a1.48,1.48,0,0,0,.29.22l.21.12.16.07a1.66,1.66,0,0,0,.42.12h.25l.09,0h0s0,0,0,0h0l0,0,.3-.41a4.32,4.32,0,0,1,1.08-1,4,4,0,0,1,1.51-.47,12.2,12.2,0,0,1,3.36,0A12.6,12.6,0,0,1,24.14,40a1.65,1.65,0,0,1,.22-.36,2.85,2.85,0,0,1,2.89-1,4.55,4.55,0,0,1,2.1,1.08c-.17-1.22-.35-2.43-.57-3.63a43.31,43.31,0,0,0-2-7.79,23.58,23.58,0,0,0-3.55-6.42c-.11.34-.23.68-.34,1a.33.33,0,0,1-.48.2c-.5-.25-1-.48-1.51-.69A20.75,20.75,0,0,0,15.63,21Zm-.52,3.11a10.76,10.76,0,0,1,3.82.51,9.67,9.67,0,0,1,2.23,1.05,8.73,8.73,0,0,1,1.61,1.36A12.75,12.75,0,0,1,25.28,31a8.15,8.15,0,0,1,.65,4.25.43.43,0,0,1,0,0h0s0,0,0,0v0a.3.3,0,0,1-.11.14,5.65,5.65,0,0,1-1,.66,7.44,7.44,0,0,1-2.42.77,15.31,15.31,0,0,1-2.62.17,11.85,11.85,0,0,1-4.33-.82,8.39,8.39,0,0,1-2.6-1.63,6.19,6.19,0,0,1-1.64-2.69,12.56,12.56,0,0,1-.5-4.68c0-.39.07-.78.12-1.17A1.3,1.3,0,0,1,11.4,25a4.86,4.86,0,0,1,1.17-.44,9.05,9.05,0,0,1,1.25-.29A11.05,11.05,0,0,1,15.11,24.15Z"/><path class="e878bb99-c011-4b53-a9f8-45cea3d41676" d="M8.34,33Z"/><path class="e4107c63-2c6e-45b5-9eac-9367582ec931" d="M32.23,42.35s-.11,0-.16,0a2.77,2.77,0,0,0-.89,1,9.23,9.23,0,0,0-.77,2.42l.66-.48s0,0,0,0c.35-.64.71-1.27,1-1.93a1.68,1.68,0,0,0,.22-.72A.46.46,0,0,0,32.23,42.35Z"/><path class="e3f4c086-3b40-4faf-a255-b6da133728ce" d="M34.52,42.67a1.94,1.94,0,0,0-1.73-3.41A4.9,4.9,0,0,0,30.18,41a.3.3,0,0,1-.23.1.28.28,0,0,1-.23-.1,4.51,4.51,0,0,0-3-1.78,2.05,2.05,0,0,0-2.06,1.19c-.35.93.32,1.88.93,2.53a12.77,12.77,0,0,0,2.07,1.66l-.05-.1c-.19-.35-.39-.7-.55-1.08a1.75,1.75,0,0,1-.14-1,.85.85,0,0,1,.66-.73,1.26,1.26,0,0,1,.93.43,3.91,3.91,0,0,1,.56.66A6.84,6.84,0,0,1,30,44.94c.07-.26.13-.51.21-.76a5.15,5.15,0,0,1,.77-1.58c.33-.44,1-1.2,1.62-.83a1.06,1.06,0,0,1,.43.9,2.43,2.43,0,0,1-.28,1l-.46.89.14-.1A10.23,10.23,0,0,0,34.52,42.67Z"/><path class="e4107c63-2c6e-45b5-9eac-9367582ec931" d="M28.21,42.72a2.43,2.43,0,0,0-.29-.26s-.16-.14-.22-.13-.11.15-.12.2a.81.81,0,0,0,0,.31,2.9,2.9,0,0,0,.31.75l.93,1.74s0,0,0,0c.23.15.45.31.66.47-.1-.41-.19-.82-.31-1.23a5.92,5.92,0,0,0-.56-1.35A3.49,3.49,0,0,0,28.21,42.72Z"/><path class="efabd092-4160-42f1-94db-d158520bce0d" d="M8.15,18.2A22.77,22.77,0,0,1,7.1,10.12a27.29,27.29,0,0,1,.33-4A8.23,8.23,0,0,1,8.54,2.7a6,6,0,0,0-.72-.35s0,0-.06,0l-.15.37A21.65,21.65,0,0,0,6.7,6.57a27,27,0,0,0-.32,4,27.92,27.92,0,0,0,1.14,8Z"/><path class="b059d200-4070-4af0-9b73-3b8c36f21f13" d="M10.58,3.53a14.8,14.8,0,0,1,1.69,2.32,22.61,22.61,0,0,1,1.47,2.8A13.69,13.69,0,0,1,14.89,13a7.83,7.83,0,0,0,.19-.94.34.34,0,0,1,.3-.33.26.26,0,0,1,.23,0,7.37,7.37,0,0,0,2.86.49c-.21-.54-.45-1.06-.7-1.58a.33.33,0,0,1,.37-.48,20.84,20.84,0,0,1,3.48.87c.57.21,1.14.44,1.7.69l.46.22-.1-.14a35.54,35.54,0,0,0-4.9-5.14A34.51,34.51,0,0,0,13,2.6,35.09,35.09,0,0,0,9.8,1C9.53.92,9.27.8,9,.7a.34.34,0,0,0-.31,0A.87.87,0,0,0,8.45,1,7.07,7.07,0,0,0,8,1.73,7,7,0,0,1,10.58,3.53Zm5.55,7.15a7.59,7.59,0,0,1-.41-1.16c-.17-.47-.36-.92-.57-1.38A13.46,13.46,0,0,0,13.8,5.78a.05.05,0,0,1,.08-.06A13.07,13.07,0,0,1,15.45,8.1a6.32,6.32,0,0,1,.82,2.54C16.27,10.71,16.16,10.75,16.13,10.68Zm-6.38-9a13.9,13.9,0,0,1,7.94,7.67s0,0,0,0A22.36,22.36,0,0,0,14.26,5,17.11,17.11,0,0,0,9.63,2C9.47,1.88,9.58,1.61,9.75,1.67Z"/><path class="efabd092-4160-42f1-94db-d158520bce0d" d="M11.45,5.78A9.32,9.32,0,0,0,8.77,2.84c-.14.61-.4,1.2-.55,1.81a16.14,16.14,0,0,0-.36,1.94,36.15,36.15,0,0,0-.25,3.76,23.17,23.17,0,0,0,.93,7.59l1.28-.83C8.31,13.5,9.21,8.88,11.45,5.78Z"/><path class="e878bb99-c011-4b53-a9f8-45cea3d41676" d="M12,39.62Z"/><path class="e998ceec-7b76-406f-9947-898a39c86d0f" d="M44.27,21c-.38,0-.75.11-1.12.18a20.62,20.62,0,0,0-5.63,1.88.33.33,0,0,1-.48-.2c-.11-.34-.23-.68-.35-1a22.38,22.38,0,0,0-2.12,3.25,31.86,31.86,0,0,0-2.73,7.45,68.89,68.89,0,0,0-1.29,7.14,4.4,4.4,0,0,1,2.55-1.15A2.73,2.73,0,0,1,35.72,40l0,.06a12.41,12.41,0,0,1,9.68-2.26,3.18,3.18,0,0,1,1.44.64,5.45,5.45,0,0,1,1,1.13l0,.07h0l0,0c-.07,0,0,0,0,0l.06,0h.24l.1,0,.23-.07.16-.06a3,3,0,0,0,.39-.22,1.21,1.21,0,0,0,.27-.25l0,0h0l0-.07a.21.21,0,0,0,0-.06V38.8a.72.72,0,0,0-.08-.22,1.12,1.12,0,0,0-.3-.35,2,2,0,0,0-1-.35c-.3,0-.47-.45-.16-.6A4.87,4.87,0,0,1,52,37.05c-.16-.53-.32-1-.47-1.57s-.42-1.31-.59-2a.93.93,0,0,1,.51-1.2,3,3,0,0,1,1.08-.13l.28,0h.07l.12,0,.08,0c-.25-.27-.49-.55-.72-.83A38.85,38.85,0,0,1,50,27.81a.35.35,0,0,1,.05-.4c.71-.76,1.33-1.58,2-2.34a13.74,13.74,0,0,0-1.22-.75,23.83,23.83,0,0,0-3.31-1.47,26.35,26.35,0,0,0-3.21-1,.33.33,0,0,1-.2-.48Zm.47,3.12a10.43,10.43,0,0,1,2.54.4,6.2,6.2,0,0,1,1.18.44A1.25,1.25,0,0,1,49,26.05a14.74,14.74,0,0,1,.16,2.3,10.72,10.72,0,0,1-1,4.64,7.52,7.52,0,0,1-4.69,3.58,13.3,13.3,0,0,1-4.78.48,7.76,7.76,0,0,1-4.68-1.57.28.28,0,0,1-.11-.13V35.3h0s0,0,0-.06a5.17,5.17,0,0,1-.07-1,9.63,9.63,0,0,1,1.21-4.35,12,12,0,0,1,2.76-3.57,9.5,9.5,0,0,1,4.29-2A11.15,11.15,0,0,1,44.74,24.15Z"/><path class="f89be763-8edb-43f3-803d-6d819e7b0398" d="M46.05,38.63a4.1,4.1,0,0,0-1.38-.33,11.42,11.42,0,0,0-3.09,0,11.8,11.8,0,0,0-5.64,2.37,3.32,3.32,0,0,1-.89,2.37c-1.33,1.62-3.34,2.43-4.87,3.82a.34.34,0,0,1-.46,0,26.86,26.86,0,0,0-2.82-2,9.37,9.37,0,0,1-2.31-2.13,3.26,3.26,0,0,1-.65-1.61,2.06,2.06,0,0,1,0-.43A11.44,11.44,0,0,0,21,39a11.91,11.91,0,0,0-6.08-.65,3.07,3.07,0,0,0-1.31.46,4,4,0,0,0-.9.94,3.52,3.52,0,0,0-.83,2.57,3.2,3.2,0,0,1,.62-.09c2.78-.22,5,1.72,7.14,3.21s4.48,2.77,7.11,2.8A6.93,6.93,0,0,0,28.57,48a5.78,5.78,0,0,0,.89-.29,1.56,1.56,0,0,1,.49-.19,1.52,1.52,0,0,1,.47.18,7.27,7.27,0,0,0,3.72.45c2.61-.32,4.89-1.81,7-3.32a17.29,17.29,0,0,1,3.43-2.11,6.21,6.21,0,0,1,3.53-.44,3.72,3.72,0,0,0-1-2.82A3.36,3.36,0,0,0,46.05,38.63Z"/><path class="ece73ee0-e4ca-401a-84d0-00eb38f9afb7" d="M57.46,31.31c-.23-.31-.44-.63-.67-.94a6.43,6.43,0,0,0-.89-1,.32.32,0,0,1,.07-.51,8.61,8.61,0,0,0,1.3-.78c-.4-.37-.8-.75-1.18-1.15a29.11,29.11,0,0,1-4.32-5.79.33.33,0,0,1,.19-.48,4.7,4.7,0,0,0,1.47-.58l-2.2-1.44a11.62,11.62,0,0,0-3.52-.4,10.34,10.34,0,0,0-3.36.6c-.28.11-.51-.25-.37-.48.26-.44.53-.87.8-1.31-.13,0-.26.08-.38.12q-.43.15-.84.33a16.88,16.88,0,0,0-1.55.73,19,19,0,0,0-2.92,2,.34.34,0,0,1-.56-.24c0-.71,0-1.43,0-2.14-.61.34-1.21.72-1.79,1.12a25.11,25.11,0,0,0-6.55,6.65.34.34,0,0,1-.57,0,23.82,23.82,0,0,0-1.6-2.14,25,25,0,0,0-6.74-5.63c0,.71,0,1.43,0,2.14a.33.33,0,0,1-.56.24,17.48,17.48,0,0,0-2.92-2c-.51-.27-1-.53-1.58-.75l-.8-.31-.39-.12.81,1.31c.14.23-.1.59-.37.49a10.18,10.18,0,0,0-3.36-.61,11.55,11.55,0,0,0-3.52.4l-2.2,1.44a4.75,4.75,0,0,0,1.46.58.33.33,0,0,1,.2.48c-.34.59-.69,1.16-1.06,1.72a28.8,28.8,0,0,1-4.44,5.22,7.72,7.72,0,0,0,1.3.78.33.33,0,0,1,.07.51,6.7,6.7,0,0,0-.91,1c-.22.3-.43.62-.65.92a4.58,4.58,0,0,1-.79.85,3.69,3.69,0,0,1-.75.46,11,11,0,0,1,.75.91c.49.67.88,1.4,1.3,2.1A10.32,10.32,0,0,0,4.6,37.75c.16.16.11.52-.14.55L3,38.5l1,.79,2.67,2.17a2.07,2.07,0,0,1,.71,1,.94.94,0,0,1,0,.47,3.7,3.7,0,0,0,.47,0,5,5,0,0,0,.55-.1L9,42.65c.41-.11.82-.23,1.24-.32a3.67,3.67,0,0,1,.94-.12,3.36,3.36,0,0,1,.17-1.37,4.35,4.35,0,0,1,.22-.54l-.16,0a2.72,2.72,0,0,1-1.06-.46A1.46,1.46,0,0,1,9.68,39a1.37,1.37,0,0,1,.57-1.23,3,3,0,0,1,.38-.24,4.19,4.19,0,0,0-3,.43.34.34,0,0,1-.49-.38l.66-2.17.57-1.91a1,1,0,0,0,.07-.41,0,0,0,0,0,0,0v0s0,0,0,0l0,0h0l-.06,0-.18-.05H7.63a4.71,4.71,0,0,1-.53,0,1.25,1.25,0,0,1-1-.52.35.35,0,0,1,0-.4c.33-.35.65-.7,1-1.07a13.7,13.7,0,0,0,1-1.43c.37-.57.72-1.15,1.09-1.72-.72-.79-1.35-1.65-2.11-2.4a.33.33,0,0,1,0-.47,12.3,12.3,0,0,1,1.56-1,24.29,24.29,0,0,1,3.42-1.53A28.6,28.6,0,0,1,15,21.32l-.21-.51c-.09-.2,0-.52.28-.49.59.06,1.17.14,1.76.24a21.2,21.2,0,0,1,5.48,1.79l.42-1.23a.34.34,0,0,1,.55-.15,22.37,22.37,0,0,1,2.55,3.78,32.47,32.47,0,0,1,2.82,7.64A69.76,69.76,0,0,1,30,39.29c.16-1.12.32-2.23.52-3.34A44.29,44.29,0,0,1,32.55,28a24.45,24.45,0,0,1,4-7,.34.34,0,0,1,.55.15l.42,1.22c.41-.2.83-.38,1.26-.55a21.3,21.3,0,0,1,6-1.47c.28,0,.37.29.28.49l-.22.52c.48.12,1,.25,1.43.4a29.82,29.82,0,0,1,3.51,1.34,14.37,14.37,0,0,1,3,1.73.33.33,0,0,1,0,.47c-.76.75-1.4,1.61-2.11,2.41.22.33.43.67.64,1,.32.51.64,1,1,1.52a17,17,0,0,0,1.43,1.68.35.35,0,0,1,0,.4,1.41,1.41,0,0,1-1.14.54l-.53,0-.25,0h-.08l-.1,0-.08,0,0,0,0,0,0,.05h0a.43.43,0,0,1,0,.05.68.68,0,0,0,0,.2c0,.14.08.28.13.43.38,1.28.77,2.56,1.15,3.84a.34.34,0,0,1-.48.38,4.19,4.19,0,0,0-3-.43,2.15,2.15,0,0,1,.5.35,1.25,1.25,0,0,1,.42,1.22,1.68,1.68,0,0,1-.74.82,2.89,2.89,0,0,1-1.1.41,3.78,3.78,0,0,1,.39,1.9,3.65,3.65,0,0,1,.93.12c.42.09.83.21,1.25.32l.63.15.55.1a2.34,2.34,0,0,0,.46,0,1,1,0,0,1,.08-.62,2.48,2.48,0,0,1,.82-1l1.33-1.08,2.13-1.74-1.48-.2c-.25,0-.3-.39-.14-.55a8.68,8.68,0,0,0,1.05-1.21c.48-.67.87-1.39,1.29-2.1A12.14,12.14,0,0,1,59,32.62a4,4,0,0,1-.76-.47A4.45,4.45,0,0,1,57.46,31.31Z"/><path class="a3923950-19ca-4d08-87d4-a08a0e2bffa1" d="M18.62,46.5a4.16,4.16,0,0,1-.57,1.25c0,.07-.13,0-.12,0a11.08,11.08,0,0,1,.33-1.29,2.47,2.47,0,0,1,.31-.9L17.84,45c-.13.67-.42,1.33-.56,2a21.63,21.63,0,0,0-.39,2.39,0,0,0,1,1-.07,0A9,9,0,0,1,16.87,47a6.38,6.38,0,0,1,.69-2.22c-.32-.22-.65-.44-1-.65-.13.73-.22,1.48-.37,2.21a0,0,0,0,1-.07,0A5.19,5.19,0,0,1,16.29,44c-.29-.17-.58-.33-.88-.47v0a12.25,12.25,0,0,0-.12,1.91,13.41,13.41,0,0,0,.42,3.34,13.07,13.07,0,0,0,.53,1.64c.1.26.21.51.33.76,0,.08.08.16.13.24a19.23,19.23,0,0,1,3-4.77.3.3,0,0,1,.28-.09l0,0c-.41-.27-.82-.55-1.22-.84A2.53,2.53,0,0,1,18.62,46.5Z"/><path class="e4cfb0f5-feb0-44fb-bdcb-8e8eb9b7480a" d="M44.48,43.49l-.42.21-.45.25a5.24,5.24,0,0,1,.15,2.39s0,0-.06,0c-.16-.73-.25-1.48-.38-2.21-.33.21-.66.42-1,.65a7.83,7.83,0,0,1,.74,4.6,0,0,0,0,1-.08,0A19.51,19.51,0,0,0,42.61,47c-.14-.67-.42-1.33-.56-2l-.72.52a2.29,2.29,0,0,1,.3.89A8.54,8.54,0,0,1,42,47.7c0,.07-.07.11-.12,0a4.42,4.42,0,0,1-.57-1.25,2.53,2.53,0,0,1-.2-.81l-.36.26c-.28.2-.57.39-.86.58l0,0a.31.31,0,0,1,.29.09,19.2,19.2,0,0,1,3,4.77,1.67,1.67,0,0,0,.18-.35c.13-.29.25-.57.36-.86s.22-.61.31-.92a13.68,13.68,0,0,0,.44-5.76Z"/><path class="a26e2a8e-56ea-423b-9129-0ad8a768361a" d="M23.68,48.83a2.57,2.57,0,0,1-.28.66s-.11,0-.11,0a5.32,5.32,0,0,1,.16-.69c0-.15.06-.31.09-.46-.21-.07-.43-.15-.64-.24,0,.33-.14.67-.2,1a3.2,3.2,0,0,1-.24,1.12.08.08,0,0,1-.14,0,2.36,2.36,0,0,1,.06-1A8.33,8.33,0,0,1,22.61,48l-.73-.35c0,.12,0,.24,0,.36s0,.49-.05.73a.05.05,0,0,1-.1,0c0-.21-.08-.42-.1-.64a2.41,2.41,0,0,1,0-.6c-.34-.18-.68-.37-1-.58.15.58.32,1.15.52,1.71s.41,1.06.64,1.58c.12.26.25.52.38.78a2.69,2.69,0,0,0,.16.29l0,0c.84-.81,1.65-1.66,2.43-2.53-.32-.08-.64-.16-1-.26C23.78,48.55,23.72,48.69,23.68,48.83Z"/><path class="b6885dda-4a57-4ad9-8fd9-8977a3a7ea13" d="M38.26,48.06c0,.22-.06.43-.09.64,0,.06-.1,0-.11,0,0-.25,0-.48,0-.73s0-.24,0-.36l-.68.33-.05,0a9.9,9.9,0,0,1,.22,1.21,2.32,2.32,0,0,1,.06,1,.07.07,0,0,1-.13,0,3.21,3.21,0,0,1-.25-1.12c-.06-.33-.14-.66-.2-1-.21.09-.42.17-.64.24,0,.15.06.31.09.46a4.06,4.06,0,0,1,.16.69.06.06,0,0,1-.11,0,2.55,2.55,0,0,1-.27-.66c0-.14-.1-.28-.14-.43-.32.1-.64.19-1,.26.43.49.87,1,1.33,1.43.2.22.41.43.63.65l.52.5c0-.05,0-.09.07-.14l.18-.36c.13-.26.26-.52.37-.78a20.32,20.32,0,0,0,1.07-3.07c-.33.2-.67.39-1,.57A1.72,1.72,0,0,1,38.26,48.06Z"/><path class="a5e3519f-8ecb-450e-bbb9-5a7a52327161" d="M11.13,16.26l-.92-.84a.32.32,0,0,1,.15-.54,6.6,6.6,0,0,1,1.83-.21,5.47,5.47,0,0,1,.9.08,4.29,4.29,0,0,0,.79.11.4.4,0,0,0,.34-.19A9.79,9.79,0,0,0,14,11.48,18.06,18.06,0,0,0,11.6,6,14.34,14.34,0,0,0,9.79,11.4a18.2,18.2,0,0,0,.34,5.51Z"/><path class="efabd092-4160-42f1-94db-d158520bce0d" d="M52.28,10.35A34.63,34.63,0,0,0,52,6.4a16.51,16.51,0,0,0-.36-1.86c-.15-.57-.39-1.12-.52-1.7a7.26,7.26,0,0,0-1.42,1.23,13.29,13.29,0,0,0-1.27,1.71c2.24,3.1,3.15,7.72,1.64,11.33l1.27.83A23.13,23.13,0,0,0,52.28,10.35Z"/><path class="a5e3519f-8ecb-450e-bbb9-5a7a52327161" d="M48.77,16.26l1,.65a17.89,17.89,0,0,0,.34-5.51A14.15,14.15,0,0,0,48.3,6l-.15.23A23.9,23.9,0,0,0,46.72,9a11.5,11.5,0,0,0-1,5.68.41.41,0,0,0,.34.19,4.18,4.18,0,0,0,.79-.11,5.59,5.59,0,0,1,.91-.08,6.64,6.64,0,0,1,1.83.21.32.32,0,0,1,.14.54Z"/><path class="efabd092-4160-42f1-94db-d158520bce0d" d="M52.48,6.19a28.66,28.66,0,0,1,.32,3.93,22.77,22.77,0,0,1-1,8.08l.62.41c.1-.31.18-.63.27-.94a27.86,27.86,0,0,0,.85-8.08,28.32,28.32,0,0,0-.46-4,17,17,0,0,0-.89-3.27l-.07,0a6,6,0,0,0-.72.35A8.26,8.26,0,0,1,52.48,6.19Z"/><path class="a4a7d352-e254-40f9-98a5-f81d0ee5639b" d="M18.62,10.87c.23.5.44,1,.63,1.52.08.22-.13.4-.32.42a7.79,7.79,0,0,1-3.25-.4,8.91,8.91,0,0,1-.33,1.33c-.08.24-.18.49-.28.73a3.61,3.61,0,0,1-.22.44.32.32,0,0,1-.15.22,1.26,1.26,0,0,1-1.24.35A8.7,8.7,0,0,0,12,15.32a6.11,6.11,0,0,0-.86.07l.74.68a.33.33,0,0,1-.06.51l-1.69,1.1a14.06,14.06,0,0,1,2-.08,11.76,11.76,0,0,1,2.7.35l-.67-1.09a.33.33,0,0,1,.2-.48,3.8,3.8,0,0,1,2,.44,14.74,14.74,0,0,1,1.71.79,18.6,18.6,0,0,1,2.61,1.66c0-.68,0-1.35,0-2a.33.33,0,0,1,.5-.28,26.16,26.16,0,0,1,2.32,1.42A25.83,25.83,0,0,1,30,24.84c.43-.62.88-1.21,1.35-1.78A25.5,25.5,0,0,1,38.75,17a.33.33,0,0,1,.49.28c0,.68,0,1.35,0,2a19.83,19.83,0,0,1,2.61-1.66,18.5,18.5,0,0,1,1.75-.81,3.77,3.77,0,0,1,1.92-.42.33.33,0,0,1,.2.48L45,18a11.76,11.76,0,0,1,2.7-.35,13.92,13.92,0,0,1,2,.08l-1.68-1.1a.33.33,0,0,1-.07-.51l.75-.68a6.34,6.34,0,0,0-1.07-.07c-.24,0-.49,0-.73.06s-.49.1-.73.13a1.15,1.15,0,0,1-1-.37.36.36,0,0,1-.16-.22,6.68,6.68,0,0,1-.57-1.38,8.8,8.8,0,0,1-.26-1.13,7.81,7.81,0,0,1-3.25.4.33.33,0,0,1-.32-.42c.19-.52.4-1,.63-1.53l-1,.22a21,21,0,0,0-2.81.92c-.44.19-.87.4-1.31.61a1.15,1.15,0,0,1-1.28,0,.34.34,0,0,1-.09-.32A3.12,3.12,0,0,0,35,11a15.58,15.58,0,0,0-2.77,2.43.29.29,0,0,1-.42,0c-.65-.39-1.27-.8-1.88-1.24-.61.44-1.23.85-1.87,1.24a.3.3,0,0,1-.43,0A15.58,15.58,0,0,0,24.88,11a3.12,3.12,0,0,0,.24,1.27.32.32,0,0,1-.09.32c-.46.36-1,.16-1.44-.07A19.38,19.38,0,0,0,18.62,10.87Zm22.63,4a6.06,6.06,0,0,1,2.11-1.05.12.12,0,0,1,.09.21,8.41,8.41,0,0,1-1.07.46c-.36.16-.71.34-1.05.53C41.24,15,41.15,14.89,41.25,14.83Zm2.41.26c.1,0,.14.1.07.16a15.71,15.71,0,0,1-1.6.91c-.53.31-1.05.65-1.56,1,0,0-.11,0-.07-.08A9.56,9.56,0,0,1,43.66,15.09Zm-5.4-1.75.62-.3a1.44,1.44,0,0,1,.52-.2c.07,0,.1.09.06.13a1.56,1.56,0,0,1-.5.29l-.58.27C38.25,13.59,38.13,13.41,38.26,13.34Zm-.37,2.19a9.46,9.46,0,0,1,2.59-1.59c.1,0,.16.12.07.18-.85.51-1.72,1-2.56,1.54C37.91,15.71,37.81,15.59,37.89,15.53Zm-1.52,1.13a7.09,7.09,0,0,1-1.56,1.11c-.55.39-1.08.8-1.59,1.24a22.93,22.93,0,0,0-2.7,2.87c-.05.05-.13,0-.1-.07a14.73,14.73,0,0,1,2.66-3.23,16.07,16.07,0,0,1,1.58-1.28,3.75,3.75,0,0,1,1.62-.86C36.4,16.42,36.43,16.58,36.37,16.66Zm-1.16-1.82A4.8,4.8,0,0,1,36.8,14c.1,0,.21.11.11.18a10.26,10.26,0,0,1-1.48.84,18.48,18.48,0,0,0-1.56,1A.06.06,0,0,1,33.8,16,11.83,11.83,0,0,1,35.21,14.84Zm-1.29-.66c.14-.06.2.15.09.22-.56.39-1.17.71-1.72,1.12A16.93,16.93,0,0,0,30.61,17c-.07.07-.18,0-.11-.1A9.63,9.63,0,0,1,33.92,14.18Zm-3.33.36A2.92,2.92,0,0,1,31,14s.11,0,.09.07-.17.39-.27.58a1.48,1.48,0,0,1-.29.52.1.1,0,0,1-.17-.08A1.15,1.15,0,0,1,30.59,14.54ZM30,18.93c.19-.27.41-.52.62-.77a3.19,3.19,0,0,1,.7-.72.13.13,0,0,1,.17.17,2.81,2.81,0,0,1-.61.72c-.24.24-.48.49-.74.71C30,19.1,29.91,19,30,18.93ZM20.5,12.84A1.51,1.51,0,0,1,21,13l.61.3c.13.07,0,.25-.11.19l-.58-.27a1.56,1.56,0,0,1-.5-.29S20.42,12.83,20.5,12.84Zm-4,.94a6.14,6.14,0,0,1,2.11,1.05c.09.06,0,.21-.09.15-.34-.19-.68-.37-1-.53A8.41,8.41,0,0,1,16.45,14,.12.12,0,0,1,16.54,13.78Zm2.79,3.35c-.52-.32-1-.66-1.56-1a14.71,14.71,0,0,1-1.6-.91c-.07-.06,0-.19.07-.16a9.42,9.42,0,0,1,3.15,2C19.44,17.09,19.38,17.17,19.33,17.13Zm2.58-1.47c-.85-.54-1.71-1-2.57-1.54-.09-.06,0-.22.08-.18A9.46,9.46,0,0,1,22,15.53C22.08,15.59,22,15.71,21.91,15.66Zm7.47,6.22A22.93,22.93,0,0,0,26.68,19,20.92,20.92,0,0,0,25,17.71a6.23,6.23,0,0,1-1.47-1.05c-.06-.08,0-.24.09-.22a4.16,4.16,0,0,1,1.7.92,16,16,0,0,1,1.5,1.22,14.69,14.69,0,0,1,2.65,3.23C29.51,21.86,29.42,21.93,29.38,21.88ZM29.79,19c-.26-.22-.5-.47-.74-.71a2.63,2.63,0,0,1-.61-.72c-.05-.1,0-.23.16-.17a2.82,2.82,0,0,1,.7.72c.22.25.43.5.63.77C30,19,29.86,19.1,29.79,19Zm-.9-5a2.87,2.87,0,0,1,.41.51,1.15,1.15,0,0,1,.22.58.1.1,0,0,1-.17.07,1.83,1.83,0,0,1-.29-.51c-.09-.19-.16-.39-.26-.59A.05.05,0,0,1,28.89,14ZM26,14.18a9.89,9.89,0,0,1,3.42,2.71c.06.08,0,.18-.11.11a16.93,16.93,0,0,0-1.68-1.48c-.55-.41-1.16-.73-1.73-1.12C25.77,14.33,25.84,14.12,26,14.18Zm-1.29.66A12.69,12.69,0,0,1,26.1,16s0,.13-.07.09a18.48,18.48,0,0,0-1.56-1A10.37,10.37,0,0,1,23,14.17c-.09-.07,0-.2.11-.18A4.75,4.75,0,0,1,24.69,14.84Z"/><path class="b059d200-4070-4af0-9b73-3b8c36f21f13" d="M38.28,11a18.86,18.86,0,0,1,3.48-.87.33.33,0,0,1,.37.48c-.26.52-.49,1-.7,1.58a7.32,7.32,0,0,0,2.85-.49.26.26,0,0,1,.23,0,.35.35,0,0,1,.31.32A7.42,7.42,0,0,0,45,13a11.83,11.83,0,0,1,.26-1.67,18.9,18.9,0,0,1,2.56-5.77,8.81,8.81,0,0,1,4-3.8A7.07,7.07,0,0,0,51.44,1a.89.89,0,0,0-.23-.28.31.31,0,0,0-.28,0,15.61,15.61,0,0,0-1.63.69c-1.08.5-2.13,1.05-3.16,1.65a35.09,35.09,0,0,0-5.68,4.16,34,34,0,0,0-4.34,4.71l.48-.23C37.15,11.42,37.71,11.19,38.28,11ZM46.1,5.78a13.51,13.51,0,0,0-1.36,2.36,16,16,0,0,0-.6,1.49,6.55,6.55,0,0,1-.37,1,.08.08,0,0,1-.14,0,6.17,6.17,0,0,1,.82-2.54A13.07,13.07,0,0,1,46,5.72S46.13,5.73,46.1,5.78Zm4-4.11c.16-.06.28.21.12.28a17.17,17.17,0,0,0-4.64,3,21.94,21.94,0,0,0-3.41,4.38s0,0,0,0A13.89,13.89,0,0,1,50.15,1.67Z"/><path class="ff9f7f26-0dd4-4b81-8529-705ea4a166d8" d="M30,48c.53.16,1,.38,1.58.52a7,7,0,0,0,4-.25,17.32,17.32,0,0,0,3.65-1.83c1.19-.73,2.36-1.49,3.51-2.29a9.09,9.09,0,0,1,2.88-1.53,4.28,4.28,0,0,1,2.67.23,9.39,9.39,0,0,0,.11-1.06,3.78,3.78,0,0,0-.21-1.16,4.55,4.55,0,0,0-.5-1.07c-.09-.12-.24-.41-.37-.48s-.17,0-.2,0,.15.64.18.74a3.46,3.46,0,0,1,.1,1.36s0,.09,0,.11-.17,0-.24-.09a1.54,1.54,0,0,0-1.16-.5,1.56,1.56,0,0,1,.45.4.36.36,0,0,1,.11.21.35.35,0,0,1-.23.36,1.19,1.19,0,0,1-.46.06,4.15,4.15,0,0,0-2.09.71,1,1,0,0,1-.44.2c-.16,0-.34-.14-.3-.29a.42.42,0,0,1,.11-.16,3.79,3.79,0,0,1,.66-.44,7.15,7.15,0,0,0-3.14,1.38c-.94.67-1.8,1.45-2.75,2.11a13.2,13.2,0,0,1-2.65,1.41,3.11,3.11,0,0,1-1.79.27c-.07,0-.15-.06-.14-.13s0-.06.05-.08l1.12-1.07c-.84,0-1.56.66-2.39.79a4.81,4.81,0,0,0,1.89-2.64,9.75,9.75,0,0,1-4,2.57,9.78,9.78,0,0,1-4-2.57,4.85,4.85,0,0,0,1.89,2.64c-.83-.13-1.55-.74-2.39-.79l1.12,1.07s.05,0,.05.08-.07.11-.14.13a3.1,3.1,0,0,1-1.79-.27,13.48,13.48,0,0,1-2.65-1.41c-.95-.66-1.81-1.44-2.75-2.11a7.15,7.15,0,0,0-3.14-1.38,3.79,3.79,0,0,1,.66.44.42.42,0,0,1,.11.16c0,.15-.14.3-.3.29a1,1,0,0,1-.44-.2,4.12,4.12,0,0,0-2.09-.71,1.12,1.12,0,0,1-.45-.06.35.35,0,0,1-.24-.36.43.43,0,0,1,.11-.21,1.56,1.56,0,0,1,.45-.4,1.55,1.55,0,0,0-1.16.5c-.07.07-.17.16-.24.09s0-.07-.05-.11a3.47,3.47,0,0,1,.1-1.36c0-.1.28-.61.18-.74s-.09,0-.2,0-.28.36-.36.48a4.21,4.21,0,0,0-.51,1.07,4.48,4.48,0,0,0-.21,1.16,9.39,9.39,0,0,0,.11,1.06,4.29,4.29,0,0,1,2.67-.23,9.09,9.09,0,0,1,2.88,1.53c1.15.8,2.32,1.56,3.51,2.29a17.81,17.81,0,0,0,3.65,1.83,7,7,0,0,0,4,.25C28.9,48.35,29.42,48.13,30,48Z"/><path d="M30,41.71c.88-.15,1.63-.86,2.53-1.07a1.3,1.3,0,0,1,1,.15,1.09,1.09,0,0,1,.38.9,2.09,2.09,0,0,1-.31,1,2.63,2.63,0,0,0,1.3-1.16,2.57,2.57,0,0,0,.26-1.72,1.2,1.2,0,0,1,.22.69c0,.34,0,.67,0,1a2.13,2.13,0,0,1-.09.72,2,2,0,0,1-.49.69,11.14,11.14,0,0,1-2.92,2.18c.14-.47.39-.89.55-1.35a1.62,1.62,0,0,0-.09-1.41A.54.54,0,0,0,31.8,42a.46.46,0,0,0-.21.13A5.94,5.94,0,0,0,30,45.23a6,6,0,0,0-1.65-3.07.46.46,0,0,0-.21-.13.55.55,0,0,0-.57.26,1.62,1.62,0,0,0-.09,1.41c.16.46.41.88.55,1.35a11.14,11.14,0,0,1-2.92-2.18,2,2,0,0,1-.49-.69,2.13,2.13,0,0,1-.09-.72c0-.34,0-.67,0-1a1.2,1.2,0,0,1,.22-.69A2.57,2.57,0,0,0,25,41.48a2.63,2.63,0,0,0,1.3,1.16,2.09,2.09,0,0,1-.31-1,1.09,1.09,0,0,1,.38-.9,1.26,1.26,0,0,1,1-.15C28.31,40.85,29.06,41.56,30,41.71Z"/><path class="eb1bfc96-e71f-4f15-b3a9-e5773d1ae68b" d="M30,49.11v0a11.47,11.47,0,0,1,.64,1.53c.08-.22,0-.48.1-.7s.36-.43.53-.27a.4.4,0,0,1,.12.21l.23.7a2.12,2.12,0,0,1,.27-.85c.28,0,.4.34.46.61s.12.56.17.84a6.87,6.87,0,0,0,.64-1.74,3.49,3.49,0,0,1,.31,1.31,3.65,3.65,0,0,0,.93-2,.38.38,0,0,0,0-.28.28.28,0,0,0-.2-.1,3.94,3.94,0,0,0-1,0,6.51,6.51,0,0,1-2.06-.25c-.31-.09-.86-.38-1.17-.22-.31-.16-.86.13-1.17.22a6.23,6.23,0,0,1-2.06.25,3.85,3.85,0,0,0-1,0,.28.28,0,0,0-.21.1.38.38,0,0,0,0,.28,3.65,3.65,0,0,0,.93,2,3.49,3.49,0,0,1,.31-1.31,6.87,6.87,0,0,0,.64,1.74c.06-.28.11-.56.17-.84s.18-.6.46-.61a2.13,2.13,0,0,1,.28.85l.22-.7a.4.4,0,0,1,.12-.21c.17-.16.46,0,.53.27s0,.47.1.7a13,13,0,0,1,.64-1.53A.06.06,0,0,1,30,49.11Z"/><path class="bce03125-392f-451c-8a7f-08d642a2e644" d="M36.77,49.08s.06-.1.11-.11.14.07.17.15c.13.29.26.59.37.89.06-.41.12-.83.17-1.24,0-.2.14-.46.34-.41s.17.17.19.29a.9.9,0,0,0,.05.37l.44-.78c0-.08.13-.17.21-.13a.21.21,0,0,1,.07.13c0,.12,0,.24.08.36a6.75,6.75,0,0,0,.6-2.07l-3.11,1.34a5.5,5.5,0,0,1-1.37.45c-.11,0-.24,0-.29.15a.31.31,0,0,0,0,.19,2.4,2.4,0,0,0,.66,1,4.61,4.61,0,0,0,1.22,1c-.11-.47-.73-1-.39-1.52.12.15.21.32.33.47A2,2,0,0,1,36.77,49.08Z"/><path class="ad77f62a-c663-4a19-875a-ad6363ab889e" d="M23.12,49.08A.15.15,0,0,0,23,49c-.08,0-.13.07-.17.15-.13.29-.25.59-.37.89,0-.41-.11-.83-.17-1.24,0-.2-.14-.46-.33-.41a.31.31,0,0,0-.19.29.9.9,0,0,1-.06.37l-.43-.78c-.05-.08-.13-.17-.22-.13a.2.2,0,0,0-.06.13c0,.12-.05.24-.08.36a6.49,6.49,0,0,1-.6-2.07l3.1,1.34a5.79,5.79,0,0,0,1.37.45c.12,0,.25,0,.3.15a.31.31,0,0,1,0,.19,2.48,2.48,0,0,1-.65,1,4.61,4.61,0,0,1-1.22,1c.11-.47.73-1,.39-1.52-.12.15-.21.32-.33.47A1.68,1.68,0,0,0,23.12,49.08Z"/><path class="edf03585-d822-477a-aaeb-b12697f95dc5" d="M41.41,46.8a4.27,4.27,0,0,0,.46.73,8.28,8.28,0,0,1,.18-1.2c0-.08.06-.18.14-.2a.23.23,0,0,1,.14,0,.91.91,0,0,1,.32.6,6.75,6.75,0,0,1,.17,1.11A2.61,2.61,0,0,0,43.06,49c0-.72.1-1.44.14-2.15a1.75,1.75,0,0,1,.32-1.06c.11,0,.14.17.16.28l.18,1.21c.06-.55.14-1.09.25-1.63,0-.16.16-.36.3-.29a.23.23,0,0,1,.11.11,2.39,2.39,0,0,1,.2.43,5.5,5.5,0,0,0-.13-2.79,40.86,40.86,0,0,0-4.75,3.06c-.11.08-.23.19-.2.32a.4.4,0,0,0,.15.19,4.14,4.14,0,0,1,1,1.16,6.73,6.73,0,0,0,1,1.62A3.47,3.47,0,0,1,41.41,46.8Z"/><path class="a84b6b10-76c5-4698-99d6-6d054a6dd860" d="M18.48,46.8a3.68,3.68,0,0,1-.45.73,7.13,7.13,0,0,0-.19-1.2c0-.08-.05-.18-.13-.2a.26.26,0,0,0-.15,0,1,1,0,0,0-.32.6,8,8,0,0,0-.17,1.11A2.47,2.47,0,0,1,16.83,49c0-.72-.09-1.44-.14-2.15a1.68,1.68,0,0,0-.31-1.06c-.11,0-.14.17-.16.28L16,47.27c-.06-.55-.15-1.09-.26-1.63,0-.16-.15-.36-.3-.29a.18.18,0,0,0-.1.11,3.42,3.42,0,0,0-.21.43,5.62,5.62,0,0,1,.14-2.79,41.72,41.72,0,0,1,4.75,3.06c.1.08.22.19.19.32a.35.35,0,0,1-.15.19,4.27,4.27,0,0,0-1,1.16,7.45,7.45,0,0,1-1,1.62A3.47,3.47,0,0,0,18.48,46.8Z"/><path class="bdaac253-3c14-4d8f-b917-5ab52340d24c" d="M49.71,39.38a1,1,0,0,1-.13,1c-.09.11-.21.22-.21.37s.15.27.28.35a5.2,5.2,0,0,0,1.87.68,2.66,2.66,0,0,0-.47-.68,1.57,1.57,0,0,0,1.24,0,3.59,3.59,0,0,0,.64-.4,17.16,17.16,0,0,1,2.51-1.5A4.41,4.41,0,0,0,54,38.77a3.8,3.8,0,0,0,.89-.26c-.46-.37-1.14-.12-1.72-.24a4.73,4.73,0,0,0,2-1.22A8.65,8.65,0,0,0,56,35.89a34.22,34.22,0,0,1,2.11-2.84,3.27,3.27,0,0,1-.63-.6.58.58,0,0,0,.4-.09,3.73,3.73,0,0,0-.7-.84,5.49,5.49,0,0,1-.86-1.6c-.09-.24-.19-.48-.29-.73.9.75,1.38,2,2.39,2.59a8.2,8.2,0,0,1,1.14.59,24.17,24.17,0,0,0-1.83,2.55,11.34,11.34,0,0,1-1.89,2.59c-.07.06-.15.14-.14.23a.27.27,0,0,0,.15.18,2.3,2.3,0,0,0,.69.21l.9.17a14.25,14.25,0,0,0-2.86,2.32c-.49.54-1,1-1.51,1.47a.66.66,0,0,0-.22.35,1.06,1.06,0,0,0,.12.42.33.33,0,0,1-.09.4.36.36,0,0,1-.23,0,40.22,40.22,0,0,1-4.19-.94,8,8,0,0,0-.32-2.28,1.56,1.56,0,0,0,1.19-.48C49.45,39.44,49.55,39.33,49.71,39.38Z"/><path class="bdaac253-3c14-4d8f-b917-5ab52340d24c" d="M10.18,39.38a1,1,0,0,0,.13,1c.09.11.22.22.22.37s-.15.27-.29.35a5.2,5.2,0,0,1-1.87.68,2.66,2.66,0,0,1,.47-.68,1.55,1.55,0,0,1-1.23,0,3.27,3.27,0,0,1-.64-.4,17.27,17.27,0,0,0-2.52-1.5,4.48,4.48,0,0,1,1.47-.41A4.11,4.11,0,0,1,5,38.51c.47-.37,1.15-.12,1.73-.24a4.73,4.73,0,0,1-2-1.22,7.84,7.84,0,0,1-.82-1.16c-.64-1-1.38-1.92-2.11-2.84a3.58,3.58,0,0,0,.63-.6.57.57,0,0,1-.4-.09,3.68,3.68,0,0,1,.69-.84,5.05,5.05,0,0,0,.86-1.6l.3-.73c-.9.75-1.38,2-2.39,2.59a7.21,7.21,0,0,0-1.14.59,25.7,25.7,0,0,1,1.83,2.55,11.34,11.34,0,0,0,1.89,2.59c.07.06.15.14.13.23s-.08.14-.15.18a2.24,2.24,0,0,1-.68.21l-.91.17a14.31,14.31,0,0,1,2.87,2.32c.48.54,1,1,1.51,1.47a.64.64,0,0,1,.21.35,1,1,0,0,1-.11.42c0,.14,0,.33.08.4a.39.39,0,0,0,.24,0,40.22,40.22,0,0,0,4.19-.94,7.66,7.66,0,0,1,.32-2.28,1.55,1.55,0,0,1-1.19-.48C10.44,39.44,10.35,39.33,10.18,39.38Z"/><path class="aacdacb9-7d2d-4904-9740-9a3b02e72e8d" d="M38.72,40.83a2.4,2.4,0,0,0-1.63-.06,9.79,9.79,0,0,1,3.52-1.43,14.69,14.69,0,0,1,3.22-.5,6.79,6.79,0,0,1,3.17.62,1.84,1.84,0,0,0-.86-1.06A3.9,3.9,0,0,0,44.81,38,13.07,13.07,0,0,0,36,40.24a.69.69,0,0,0-.27.24.86.86,0,0,0-.1.32,14,14,0,0,1-.42,1.54c.43,0,1.15-.56,1.55-.75s.67-.29,1-.42C37.94,41.1,38.56,40.76,38.72,40.83Z"/><path class="aacdacb9-7d2d-4904-9740-9a3b02e72e8d" d="M21.18,40.83a2.38,2.38,0,0,1,1.62-.06,9.82,9.82,0,0,0-3.51-1.43,14.69,14.69,0,0,0-3.22-.5,6.81,6.81,0,0,0-3.18.62,1.82,1.82,0,0,1,.87-1.06A3.77,3.77,0,0,1,15.09,38c3.05-.49,6.17.62,8.8,2.26a.77.77,0,0,1,.27.24.85.85,0,0,1,.09.32c.09.53.29,1,.42,1.54-.42,0-1.15-.56-1.55-.75s-.66-.29-1-.42C22,41.1,21.33,40.76,21.18,40.83Z"/><path class="b3f9e858-c03a-45ca-9d2b-03eff3eb5b6b" d="M31.83,31.94a17,17,0,0,1,4.52-6l-1.79.85a2.36,2.36,0,0,1,.86-1.12,12.64,12.64,0,0,1,8.29-2.88c-.34-.07-.66-.34-1-.4a5.11,5.11,0,0,1,3.23.33c1,.35,2,.72,3,1.1a5.32,5.32,0,0,0-.82-.89,3.24,3.24,0,0,0-.82-.61,8.52,8.52,0,0,0-1-.27,4.54,4.54,0,0,0-1.5-.41c-.06,0-.13,0-.16,0a.15.15,0,0,1,0-.13c0-.28.11-.57.16-.85,0-.09-.19-.05-.28,0a23.32,23.32,0,0,0-7,2.06,2.7,2.7,0,0,0-.67-1.05.37.37,0,0,0-.22-.12.42.42,0,0,0-.32.19c-2.31,2.68-3.5,6.14-4.63,9.5A6.33,6.33,0,0,0,31.24,33C31.41,32.71,31.7,32.26,31.83,31.94Z"/><path class="b3f9e858-c03a-45ca-9d2b-03eff3eb5b6b" d="M28.07,31.94a17,17,0,0,0-4.53-6l1.8.85a2.43,2.43,0,0,0-.86-1.12,12.64,12.64,0,0,0-8.29-2.88c.33-.07.66-.34,1-.4a5.11,5.11,0,0,0-3.23.33c-1,.35-2,.72-3,1.1a4.93,4.93,0,0,1,.82-.89,3.24,3.24,0,0,1,.82-.61,8,8,0,0,1,1-.27,4.48,4.48,0,0,1,1.49-.41c.06,0,.14,0,.17,0a.15.15,0,0,0,0-.13c-.06-.28-.11-.57-.17-.85,0-.09.19-.05.28,0a23.38,23.38,0,0,1,7,2.06,2.49,2.49,0,0,1,.67-1.05.38.38,0,0,1,.21-.12.41.41,0,0,1,.32.19c2.32,2.68,3.5,6.14,4.63,9.5A6,6,0,0,1,28.65,33C28.49,32.71,28.2,32.26,28.07,31.94Z"/><path class="e623b9e1-9e0d-43cd-a5a4-14930b07215b" d="M46.53,11.57a2.93,2.93,0,0,1,.71-1.2,4.42,4.42,0,0,0,.15,2.28,2.09,2.09,0,0,0,1,1.27.69.69,0,0,0,.54.06.66.66,0,0,0,.33-.45c.05-.19.07-.38.13-.56.07.5.13,1,.2,1.51A6.69,6.69,0,0,0,50.38,12a10.9,10.9,0,0,1-.47,5.28l-1.59-1a.16.16,0,0,1-.07-.07s0-.08.07-.11c.26-.21.53-.44.78-.68a.2.2,0,0,0,.08-.12c0-.1-.13-.15-.23-.17A11.46,11.46,0,0,0,46,15a.5.5,0,0,1-.45-.08.41.41,0,0,1-.11-.24,5.65,5.65,0,0,1-.08-1.42,10.45,10.45,0,0,1,.31-1.67,17.93,17.93,0,0,1,1.16-3.73A12.63,12.63,0,0,0,46.53,11.57Z"/><path class="e623b9e1-9e0d-43cd-a5a4-14930b07215b" d="M13.36,11.57a2.8,2.8,0,0,0-.7-1.2,4.42,4.42,0,0,1-.15,2.28,2.1,2.1,0,0,1-1,1.27A.69.69,0,0,1,11,14a.69.69,0,0,1-.33-.45c-.05-.19-.06-.38-.12-.56l-.21,1.51A6.49,6.49,0,0,1,9.52,12,10.9,10.9,0,0,0,10,17.3l1.59-1s.06,0,.06-.07,0-.08-.06-.11a10,10,0,0,1-.78-.68.16.16,0,0,1-.08-.12c0-.1.12-.15.23-.17A11.44,11.44,0,0,1,13.87,15a.5.5,0,0,0,.45-.08.4.4,0,0,0,.1-.24,5.66,5.66,0,0,0,.09-1.42,10.48,10.48,0,0,0-.32-1.67A18.52,18.52,0,0,0,13,7.89,12.63,12.63,0,0,1,13.36,11.57Z"/><path class="ad038677-ea24-48f7-96b6-7e9862121db0" d="M51.06,15.29a12.66,12.66,0,0,0,1.39-4.14,12.39,12.39,0,0,1,.51,4.1c.21-.61.43-1.22.65-1.84a37.39,37.39,0,0,1-1,5.85A22.25,22.25,0,0,1,49.85,17a13.53,13.53,0,0,0,.49-5.37,3.34,3.34,0,0,1,.53,1.59c.06.35.1.7.14,1.06S51.17,15.1,51.06,15.29Z"/><path class="ad038677-ea24-48f7-96b6-7e9862121db0" d="M8.83,15.29a12.66,12.66,0,0,1-1.39-4.14,12.65,12.65,0,0,0-.5,4.1c-.22-.61-.43-1.22-.65-1.84a36.25,36.25,0,0,0,1,5.85A22.9,22.9,0,0,0,10,17a13.72,13.72,0,0,1-.49-5.37A3.44,3.44,0,0,0,9,13.24c-.06.35-.11.7-.14,1.06S8.72,15.1,8.83,15.29Z"/><path class="ad038677-ea24-48f7-96b6-7e9862121db0" d="M49.45,5.87c0-.08.08-.18.16-.2a.28.28,0,0,1,.26.11,7.29,7.29,0,0,1,.75.82,4.41,4.41,0,0,1,.07-2.42A.53.53,0,0,1,51,3.84c.22,0,.41.14.53.32a6.57,6.57,0,0,1,.81,2.72,7.71,7.71,0,0,0-.2-2.57.9.9,0,0,1,.06-.67c.14-.19.53-.15.53.08A2.59,2.59,0,0,0,52.2,2.2.57.57,0,0,0,52,2a.62.62,0,0,0-.54.1A8.71,8.71,0,0,0,49.33,4L48.21,5.23a.57.57,0,0,0-.2.39.52.52,0,0,0,.14.3,13.22,13.22,0,0,1,1.69,3.25c-.17-.49-.23-1-.41-1.54A2.72,2.72,0,0,1,49.45,5.87Z"/><path class="ad038677-ea24-48f7-96b6-7e9862121db0" d="M10.44,5.87c0-.08-.07-.18-.16-.2s-.18,0-.25.11a6.45,6.45,0,0,0-.75.82A4.32,4.32,0,0,0,9.2,4.18a.5.5,0,0,0-.31-.34c-.21,0-.4.14-.52.32a6.42,6.42,0,0,0-.81,2.72,7.71,7.71,0,0,1,.19-2.57.81.81,0,0,0-.06-.67c-.14-.19-.52-.15-.52.08A2.65,2.65,0,0,1,7.69,2.2.6.6,0,0,1,7.91,2a.63.63,0,0,1,.54.1A8.9,8.9,0,0,1,10.57,4l1.12,1.23a.62.62,0,0,1,.2.39.69.69,0,0,1-.14.3,12.57,12.57,0,0,0-1.69,3.25c.17-.49.23-1,.41-1.54A2.72,2.72,0,0,0,10.44,5.87Z"/><path class="ac0da8c3-820a-441c-bf3b-6f9cef88016b" d="M40.75,10.07c-.09,0-.2-.08-.23-.17a.28.28,0,0,1,.06-.25,3.54,3.54,0,0,1,.89-1.07,6.57,6.57,0,0,1-1,.47.34.34,0,0,1-.22,0c-.18-.05-.17-.32-.1-.5a9.06,9.06,0,0,1,2.44-3.15,19.71,19.71,0,0,0-4.31,3.48A11,11,0,0,0,36,11.85c-.06.12-.11.28,0,.38a19.35,19.35,0,0,1,5.84-1.77C41.76,10.08,41,10.16,40.75,10.07Z"/><path class="ac0da8c3-820a-441c-bf3b-6f9cef88016b" d="M19.14,10.07a.32.32,0,0,0,.23-.17.31.31,0,0,0-.05-.25,3.57,3.57,0,0,0-.9-1.07,6.68,6.68,0,0,0,1,.47.32.32,0,0,0,.21,0c.19-.05.17-.32.11-.5a9.18,9.18,0,0,0-2.44-3.15,19.66,19.66,0,0,1,4.3,3.48,10.87,10.87,0,0,1,2.36,2.93c.05.12.1.28,0,.38a19.29,19.29,0,0,0-5.83-1.77C18.14,10.08,18.87,10.16,19.14,10.07Z"/><path class="e1a7e1ff-22a8-4095-b215-fa6653504243" d="M30,15.9c.07.24.13.48.2.71a3.23,3.23,0,0,1,1.05-.85q.8-.47,1.62-.87a6.06,6.06,0,0,0-1.51,1.86.28.28,0,0,0,0,.28c.07.12.26.06.39,0l3.09-1.73a16.88,16.88,0,0,0-1.7,1.45c-.13.12-.25.35-.1.45a.29.29,0,0,0,.16,0,2.12,2.12,0,0,0,.75-.27c1-.54,2-1.09,3-1.66a2.35,2.35,0,0,0-.5.67l.65-.35a4.47,4.47,0,0,1,2-.68,42.75,42.75,0,0,0-5.23,3.37,1.56,1.56,0,0,0-.62.75.39.39,0,0,0,0,.26c.08.14.27.15.42.14a4.09,4.09,0,0,0,2-.76,1.7,1.7,0,0,0-.56,1c-1,.82-2,1.62-3,2.51a6.32,6.32,0,0,0,.48-1.1.42.42,0,0,0,0-.22.14.14,0,0,0-.16-.12.23.23,0,0,0-.1.07c-.81.92-1.59,1.87-2.32,2.85-.74-1-1.52-1.93-2.33-2.85a.23.23,0,0,0-.1-.07.14.14,0,0,0-.16.12.42.42,0,0,0,0,.22,7.18,7.18,0,0,0,.48,1.1c-1-.89-1.93-1.69-3-2.51a1.81,1.81,0,0,0-.56-1,4,4,0,0,0,2,.76c.15,0,.34,0,.42-.14a.39.39,0,0,0,0-.26,1.56,1.56,0,0,0-.62-.75,42.75,42.75,0,0,0-5.23-3.37,4.47,4.47,0,0,1,2,.68l.65.35a2.18,2.18,0,0,0-.5-.67c1,.57,2,1.12,3,1.66a2.1,2.1,0,0,0,.76.27.27.27,0,0,0,.15,0c.15-.1,0-.33-.09-.45a18.19,18.19,0,0,0-1.71-1.45L28.22,17c.13.07.32.13.39,0a.28.28,0,0,0,0-.28,6.06,6.06,0,0,0-1.51-1.86q.83.4,1.62.87a3.23,3.23,0,0,1,1,.85Z"/><path class="a8a9c304-234e-448e-8785-43068de216d7" d="M8.79,0A1,1,0,0,0,8,.52a4.81,4.81,0,0,0-.49.82A15.19,15.19,0,0,0,6.27,5.25a29.55,29.55,0,0,0-.51,4.2,28.16,28.16,0,0,0,.86,8.33c.08.34.18.68.28,1A.28.28,0,0,0,7,19l-1.28.85a.33.33,0,0,0,0,.57,5.1,5.1,0,0,0,1.63.82,28.67,28.67,0,0,1-4,5.29c-.46.49-.95.95-1.45,1.41a.33.33,0,0,0,0,.46,8.57,8.57,0,0,0,1.33.89A15.69,15.69,0,0,0,2,30.87a3.57,3.57,0,0,1-.67.74,3.08,3.08,0,0,1-1,.58.33.33,0,0,0-.14.55,9.94,9.94,0,0,1,1.64,2.12c.43.71.82,1.44,1.3,2.1.21.27.42.54.65.79L2.11,38a.32.32,0,0,0-.15.54L5,41l.78.63a6.2,6.2,0,0,1,.62.53,1.11,1.11,0,0,1,.27.45s0,.1,0,.1,0,0,0,.06h0a.34.34,0,0,0-.08.61,2.68,2.68,0,0,0,1.81.07c.67-.14,1.32-.36,2-.5l.27-.06h.17a2.06,2.06,0,0,1,.43,0,.34.34,0,0,0,.37.15,5,5,0,0,1,3.17.21.16.16,0,0,0-.05.11,14.36,14.36,0,0,0,.86,7.31c.13.31.26.63.41.93a1.27,1.27,0,0,0,.7.65.33.33,0,0,0,.37-.16A18.75,18.75,0,0,1,20,47.3a21.06,21.06,0,0,0,1.16,3.2c.14.3.28.59.43.88s.29.61.65.6.58-.37.79-.57l.7-.7c.47-.49.93-1,1.39-1.49a34.92,34.92,0,0,0,1.55,3.68c.14.28.29.63.62.71s.61-.24.8-.51c.39-.58.75-1.18,1.08-1.79s.52-1,.75-1.48a22.05,22.05,0,0,0,1.68,3.05c.17.26.35.65.68.73a.72.72,0,0,0,.76-.47c.32-.64.62-1.29.9-1.94s.53-1.31.77-2q.59.66,1.2,1.29l.71.74.35.33a1.78,1.78,0,0,0,.35.32c.33.22.64,0,.8-.31s.3-.57.43-.86c.28-.58.53-1.18.75-1.78s.38-1.09.53-1.65a18.75,18.75,0,0,1,2.92,4.78.33.33,0,0,0,.37.16c.59-.19.8-.85,1-1.37a14.68,14.68,0,0,0,.59-1.73,13.89,13.89,0,0,0,.5-3.68,13.53,13.53,0,0,0-.15-2.11.21.21,0,0,0,0-.11A5.18,5.18,0,0,1,48.24,43a.34.34,0,0,0,.37-.15,2,2,0,0,1,.74,0c.33.06.65.15,1,.24a9.71,9.71,0,0,0,2,.4,1.83,1.83,0,0,0,1-.19c.28-.15.17-.49-.08-.6h0V42.7l0-.09a1.26,1.26,0,0,1,.28-.45,6.2,6.2,0,0,1,.62-.53L54.9,41,58,38.51A.33.33,0,0,0,57.8,38l-1.59-.21a11.5,11.5,0,0,0,1.26-1.7c.42-.71.81-1.44,1.29-2.11a9.21,9.21,0,0,1,1.05-1.2.34.34,0,0,0-.15-.55,3.4,3.4,0,0,1-1-.57,4,4,0,0,1-.68-.76,16.38,16.38,0,0,0-1.25-1.63A9.47,9.47,0,0,0,58,28.35a.34.34,0,0,0,0-.47,28,28,0,0,1-4.61-5.34c-.3-.44-.58-.89-.85-1.35a5.29,5.29,0,0,0,1.64-.83.33.33,0,0,0,0-.56L52.9,19a.26.26,0,0,0,.1-.16,27.89,27.89,0,0,0,1.17-8.32,28.39,28.39,0,0,0-.36-4.22,20.08,20.08,0,0,0-1-4A7.58,7.58,0,0,0,51.9.47,1,1,0,0,0,51.05,0a3,3,0,0,0-.92.31A34.82,34.82,0,0,0,46.81,1.9a35.49,35.49,0,0,0-6.06,4.18,34.81,34.81,0,0,0-5.06,5.31l0,0a3.83,3.83,0,0,0-.07-1.07.33.33,0,0,0-.48-.19A16.43,16.43,0,0,0,32,12.78c-.63-.39-1.25-.81-1.85-1.25a.32.32,0,0,0-.33,0c-.6.44-1.22.86-1.86,1.25a15.84,15.84,0,0,0-3.15-2.62.33.33,0,0,0-.48.19,3.85,3.85,0,0,0-.06,1.07,34.85,34.85,0,0,0-4.42-4.75,36,36,0,0,0-6-4.33A35.9,35.9,0,0,0,10.6.67L9.73.3A2.47,2.47,0,0,0,8.79,0Zm0,.66L9,.7c.28.1.54.22.81.33A35.09,35.09,0,0,1,13,2.6a34.92,34.92,0,0,1,5.78,4,35,35,0,0,1,4.9,5.14l.1.14-.46-.22c-.56-.26-1.13-.48-1.71-.69a19.8,19.8,0,0,0-3.47-.87.33.33,0,0,0-.37.48c.25.52.48,1,.7,1.58a7.16,7.16,0,0,1-2.86-.49.26.26,0,0,0-.23,0,.33.33,0,0,0-.3.32,7.45,7.45,0,0,1-.19.94,13.63,13.63,0,0,0-1.15-4.32,23.47,23.47,0,0,0-1.47-2.81,15.91,15.91,0,0,0-1.69-2.31A6.86,6.86,0,0,0,8,1.73,7.07,7.07,0,0,1,8.45,1,.75.75,0,0,1,8.68.7.21.21,0,0,1,8.83.66Zm42.24,0a.23.23,0,0,1,.14,0,.75.75,0,0,1,.23.27,7.15,7.15,0,0,1,.44.76,8.79,8.79,0,0,0-4.06,3.8,18.9,18.9,0,0,0-2.56,5.77A11.83,11.83,0,0,0,45,13a7.42,7.42,0,0,1-.18-.94.34.34,0,0,0-.3-.32.27.27,0,0,0-.23,0,7.37,7.37,0,0,1-2.86.49c.21-.54.44-1.06.7-1.58a.33.33,0,0,0-.37-.48,20.6,20.6,0,0,0-3.48.87c-.57.2-1.13.43-1.68.68l-.48.23a33.88,33.88,0,0,1,4.34-4.7A34.56,34.56,0,0,1,46.14,3c1-.6,2.08-1.15,3.17-1.65A15.45,15.45,0,0,1,50.93.69Zm-.92,1A13.89,13.89,0,0,0,42.2,9.34s0,0,0,0A21.94,21.94,0,0,1,45.63,5a17.17,17.17,0,0,1,4.64-3C50.43,1.88,50.31,1.61,50.15,1.67Zm-40.41,0c-.16-.06-.27.21-.11.28a17.11,17.11,0,0,1,4.63,3,22.36,22.36,0,0,1,3.42,4.38s0,0,0,0A13.89,13.89,0,0,0,9.74,1.67Zm42.4.65A16.83,16.83,0,0,1,53,5.59a26.93,26.93,0,0,1,.46,4,27.53,27.53,0,0,1-.86,8.08c-.08.31-.17.63-.26.94l-.62-.41a22.77,22.77,0,0,0,1-8.08,28.66,28.66,0,0,0-.32-3.93A8.26,8.26,0,0,0,51.35,2.7a6,6,0,0,1,.72-.35Zm-44.38,0,.06,0a4.43,4.43,0,0,1,.73.34A8.25,8.25,0,0,0,7.43,6.08a28.59,28.59,0,0,0-.33,4A22.77,22.77,0,0,0,8.15,18.2l-.63.41a27.92,27.92,0,0,1-1.14-8,27.12,27.12,0,0,1,.32-4,21.45,21.45,0,0,1,.91-3.88Zm1,.52a9.43,9.43,0,0,1,2.68,2.94C9.21,8.88,8.31,13.5,9.82,17.11l-1.28.83a23.17,23.17,0,0,1-.93-7.59c0-1.25.09-2.52.25-3.76a16.14,16.14,0,0,1,.36-1.94C8.37,4,8.63,3.45,8.77,2.84Zm42.36,0c.13.58.37,1.13.52,1.7A16.51,16.51,0,0,1,52,6.4a34.63,34.63,0,0,1,.27,3.95,23.23,23.23,0,0,1-.93,7.6l-1.27-.83c1.51-3.62.6-8.24-1.64-11.34a13.29,13.29,0,0,1,1.27-1.71A7.26,7.26,0,0,1,51.13,2.84ZM13.81,5.72a0,0,0,0,0,0,.06,13.51,13.51,0,0,1,1.36,2.36c.2.46.4.91.56,1.38a7.59,7.59,0,0,0,.41,1.16c0,.07.14,0,.14,0a6.32,6.32,0,0,0-.82-2.54,13.07,13.07,0,0,0-1.57-2.38A0,0,0,0,0,13.81,5.72Zm32.27,0a0,0,0,0,0-.06,0A13.07,13.07,0,0,0,44.45,8.1a6.29,6.29,0,0,0-.83,2.54.08.08,0,0,0,.15,0,6.55,6.55,0,0,0,.37-1,16,16,0,0,1,.6-1.49A13.51,13.51,0,0,1,46.1,5.78,0,0,0,0,0,46.08,5.72ZM11.6,6A18.17,18.17,0,0,1,14,11.48a9.77,9.77,0,0,1,.22,3.19.42.42,0,0,1-.34.19,5.36,5.36,0,0,1-.79-.11,6.86,6.86,0,0,0-.9-.09,7.13,7.13,0,0,0-1.84.22.32.32,0,0,0-.14.54l.92.83-1,.65a18.13,18.13,0,0,1-.34-5.5A14.34,14.34,0,0,1,11.6,6ZM48.3,6a14.15,14.15,0,0,1,1.8,5.39,17.91,17.91,0,0,1-.34,5.51l-1-.65.91-.84a.32.32,0,0,0-.14-.54,6.64,6.64,0,0,0-1.83-.21,5.59,5.59,0,0,0-.91.08,4.18,4.18,0,0,1-.79.11.43.43,0,0,1-.34-.18,11.63,11.63,0,0,1,1-5.69,23,23,0,0,1,1.43-2.74Zm-7,4.85c-.23.5-.45,1-.64,1.53a.34.34,0,0,0,.32.42,7.79,7.79,0,0,0,3.25-.4,10.92,10.92,0,0,0,.27,1.13A6.26,6.26,0,0,0,45,14.91a.35.35,0,0,0,.17.22,1.12,1.12,0,0,0,1,.38c.25,0,.49-.09.73-.12a6.17,6.17,0,0,1,.74-.07,5.55,5.55,0,0,1,1.07.07l-.75.68a.33.33,0,0,0,.07.51l1.68,1.1a14,14,0,0,0-2-.09A12.36,12.36,0,0,0,45,18c.23-.36.45-.72.67-1.09a.33.33,0,0,0-.2-.48,3.82,3.82,0,0,0-1.92.42q-.88.36-1.74.81a19.83,19.83,0,0,0-2.61,1.66c0-.67,0-1.35,0-2a.33.33,0,0,0-.5-.28,25.46,25.46,0,0,0-7.44,6.1c-.48.57-.93,1.16-1.36,1.78a25.79,25.79,0,0,0-6.47-6.46A25.28,25.28,0,0,0,21.15,17a.34.34,0,0,0-.5.28c0,.68,0,1.36,0,2a18.6,18.6,0,0,0-2.61-1.66,16.46,16.46,0,0,0-1.71-.79,3.86,3.86,0,0,0-2-.44.33.33,0,0,0-.19.48c.22.37.45.73.67,1.09a12.44,12.44,0,0,0-2.71-.36,13.93,13.93,0,0,0-2,.09l1.68-1.1a.33.33,0,0,0,.07-.51l-.75-.68a5.1,5.1,0,0,1,.87-.07,8.94,8.94,0,0,1,1.45.16,1.26,1.26,0,0,0,1.23-.35.33.33,0,0,0,.16-.22c.08-.14.15-.29.22-.44s.2-.49.28-.73a8.87,8.87,0,0,0,.32-1.33,7.84,7.84,0,0,0,3.26.4.33.33,0,0,0,.31-.42c-.19-.52-.4-1-.63-1.52a19.38,19.38,0,0,1,5,1.66c.48.23,1,.44,1.45.07a.32.32,0,0,0,.08-.32A3.29,3.29,0,0,1,24.87,11a15.69,15.69,0,0,1,2.78,2.43.28.28,0,0,0,.42,0c.65-.39,1.27-.8,1.88-1.24.61.44,1.23.85,1.87,1.24a.29.29,0,0,0,.43,0A15.62,15.62,0,0,1,35,11a3.12,3.12,0,0,1-.24,1.27.32.32,0,0,0,.08.32,1.16,1.16,0,0,0,1.29,0c.44-.21.86-.42,1.31-.61a21,21,0,0,1,2.81-.92Zm-20.78,2a.08.08,0,0,0-.06.13,1.56,1.56,0,0,0,.5.29l.58.27c.13.06.24-.12.11-.19L21,13A1.44,1.44,0,0,0,20.5,12.84Zm18.9,0a1.37,1.37,0,0,0-.52.2l-.62.3a.11.11,0,0,0,.11.19l.58-.27a1.69,1.69,0,0,0,.51-.29S39.47,12.83,39.4,12.84Zm-22.86.94a.12.12,0,0,0-.09.21,8.41,8.41,0,0,0,1.07.46c.36.16.7.34,1,.53.1.06.18-.09.09-.15A6.14,6.14,0,0,0,16.54,13.78Zm26.82,0a6,6,0,0,0-2.11,1.05c-.1.06,0,.21.08.15.34-.19.69-.37,1-.53A8,8,0,0,0,43.45,14,.12.12,0,0,0,43.36,13.78Zm-23.94.16c-.11,0-.17.12-.08.18.86.52,1.72,1,2.57,1.54.08.05.17-.07.1-.13A9.22,9.22,0,0,0,19.42,13.94Zm21.06,0a9.22,9.22,0,0,0-2.59,1.59c-.08.06,0,.18.1.13.84-.53,1.71-1,2.56-1.54C40.64,14.06,40.58,13.9,40.48,13.94ZM36.81,14a4.75,4.75,0,0,0-1.6.85A11.83,11.83,0,0,0,33.8,16s0,.13.07.09a18.48,18.48,0,0,1,1.56-1,9.75,9.75,0,0,0,1.48-.84C37,14.1,36.9,14,36.81,14ZM23.09,14c-.09,0-.2.11-.11.19a11.36,11.36,0,0,0,1.49.83,18.48,18.48,0,0,1,1.56,1s.12,0,.07-.09a12.69,12.69,0,0,0-1.41-1.13A4.75,4.75,0,0,0,23.09,14Zm8,0A.06.06,0,0,0,31,14a2.87,2.87,0,0,0-.41.51,1.17,1.17,0,0,0-.23.58.11.11,0,0,0,.18.07,1.67,1.67,0,0,0,.28-.51c.1-.19.17-.39.27-.58A.08.08,0,0,0,31.08,14Zm-2.26,0a.06.06,0,0,0,0,.07c.1.19.17.39.26.58a1.69,1.69,0,0,0,.29.51.1.1,0,0,0,.17-.07,1.15,1.15,0,0,0-.22-.58,2.87,2.87,0,0,0-.41-.51S28.84,14,28.82,14Zm-2.93.15a.14.14,0,0,0,0,.22c.57.39,1.17.71,1.73,1.12A16.88,16.88,0,0,1,29.29,17c.07.07.17,0,.11-.11A9.75,9.75,0,0,0,26,14.18Zm8,0A9.63,9.63,0,0,0,30.5,16.9c-.06.07,0,.18.1.11a17,17,0,0,1,1.69-1.49c.55-.41,1.16-.73,1.73-1.12C34.12,14.33,34.06,14.12,33.92,14.18Zm-17.69.91a.08.08,0,0,0-.06.15,13.28,13.28,0,0,0,1.6.92c.53.31,1,.65,1.56,1,.05,0,.11-.05.06-.09A9.36,9.36,0,0,0,16.23,15.09Zm27.43,0a9.36,9.36,0,0,0-3.16,2s0,.12.07.09c.51-.33,1-.67,1.56-1a15,15,0,0,0,1.6-.92A.08.08,0,0,0,43.66,15.09Zm-20,1.35c-.13,0-.16.14-.1.22A6.29,6.29,0,0,0,25,17.71,19.14,19.14,0,0,1,26.67,19a23,23,0,0,1,2.71,2.87c0,.06.13,0,.09-.07a15,15,0,0,0-2.65-3.23,16,16,0,0,0-1.5-1.22A4,4,0,0,0,23.62,16.44Zm12.66,0a3.75,3.75,0,0,0-1.62.86,16.07,16.07,0,0,0-1.58,1.28,14.91,14.91,0,0,0-2.66,3.22c0,.06,0,.13.1.08A22.93,22.93,0,0,1,33.22,19a19,19,0,0,1,1.6-1.24,7.27,7.27,0,0,0,1.55-1.11C36.43,16.58,36.4,16.42,36.28,16.44Zm8.5.62L44,18.37c-.14.23.1.59.38.48a10.34,10.34,0,0,1,3.36-.6,11.62,11.62,0,0,1,3.52.4l2.2,1.44a4.7,4.7,0,0,1-1.47.58.33.33,0,0,0-.19.48,28.72,28.72,0,0,0,4.32,5.79c.38.4.78.78,1.18,1.15a8.61,8.61,0,0,1-1.3.78.32.32,0,0,0-.07.51,6.43,6.43,0,0,1,.89,1c.23.31.44.64.67.94a4.75,4.75,0,0,0,.77.84,4.07,4.07,0,0,0,.77.47,10.92,10.92,0,0,0-1.36,1.82c-.43.7-.81,1.44-1.29,2.1a8.13,8.13,0,0,1-1.06,1.21c-.16.16-.1.52.15.55l1.48.2-2.13,1.74-1.33,1.08a2.56,2.56,0,0,0-.82,1,1,1,0,0,0-.08.62,3.49,3.49,0,0,1-.46,0l-.55-.1-.64-.15c-.41-.11-.82-.23-1.24-.32a3.65,3.65,0,0,0-.93-.12,3.8,3.8,0,0,0-.39-1.9,3,3,0,0,0,1.1-.41,1.68,1.68,0,0,0,.74-.82,1.24,1.24,0,0,0-.42-1.22,2.15,2.15,0,0,0-.5-.35,4.19,4.19,0,0,1,3,.43.33.33,0,0,0,.48-.37c-.38-1.29-.77-2.57-1.15-3.85,0-.14-.09-.29-.13-.43a.68.68,0,0,1,0-.2.43.43,0,0,0,0-.05h0l0-.05,0,0,0,0,.08,0,.1,0h.08l.25,0,.53,0a1.37,1.37,0,0,0,1.14-.54.34.34,0,0,0-.06-.4,18.32,18.32,0,0,1-1.42-1.68c-.36-.49-.68-1-1-1.53l-.64-1c.71-.79,1.35-1.65,2.11-2.4a.34.34,0,0,0,0-.47,14.37,14.37,0,0,0-3-1.73,29.82,29.82,0,0,0-3.51-1.34c-.47-.15-1-.29-1.43-.41.08-.17.15-.34.22-.51s0-.52-.28-.49a21.21,21.21,0,0,0-6,1.47c-.43.17-.85.35-1.26.55l-.42-1.22c-.08-.21-.38-.35-.55-.15a24.45,24.45,0,0,0-4,7.05A44.29,44.29,0,0,0,30.47,36c-.2,1.11-.37,2.22-.52,3.34-.33-2.32-.71-4.63-1.26-6.9a32.5,32.5,0,0,0-2.83-7.64A21.79,21.79,0,0,0,23.31,21a.33.33,0,0,0-.54.15l-.42,1.23a21.33,21.33,0,0,0-5.48-1.79c-.59-.1-1.17-.18-1.76-.24-.28,0-.37.29-.28.49l.21.51a30.32,30.32,0,0,0-2.94.92,25.55,25.55,0,0,0-3.42,1.54,12.3,12.3,0,0,0-1.56,1,.33.33,0,0,0,0,.47c.76.75,1.39,1.61,2.11,2.4-.37.57-.72,1.15-1.08,1.72a15.42,15.42,0,0,1-1,1.43c-.31.37-.62.72-1,1.07a.35.35,0,0,0,0,.4,1.27,1.27,0,0,0,1,.52,4.71,4.71,0,0,0,.53,0h.46l.18.05.06,0,0,0s0,0,0,0v0a1,1,0,0,1-.07.41l-.57,1.91L7.1,37.57a.34.34,0,0,0,.48.37,4.22,4.22,0,0,1,3.05-.43,3,3,0,0,0-.38.24A1.38,1.38,0,0,0,9.68,39a1.46,1.46,0,0,0,.65.84,2.72,2.72,0,0,0,1.06.46l.16,0a3.21,3.21,0,0,0-.22.54,3.36,3.36,0,0,0-.17,1.37,3.67,3.67,0,0,0-.94.12c-.42.09-.83.21-1.24.32l-.63.15-.55.1a2.46,2.46,0,0,1-.47,0,1,1,0,0,0,0-.46,2.14,2.14,0,0,0-.71-1L3.94,39.29,3,38.5l1.49-.2c.25,0,.3-.39.14-.55A10.32,10.32,0,0,1,3,35.63c-.42-.71-.81-1.43-1.3-2.1a11,11,0,0,0-.75-.91,3.69,3.69,0,0,0,.75-.46,4.58,4.58,0,0,0,.79-.85c.22-.3.42-.62.65-.92a6.7,6.7,0,0,1,.91-1,.33.33,0,0,0-.07-.51,8.23,8.23,0,0,1-1.31-.78,29.19,29.19,0,0,0,4.45-5.22c.37-.56.72-1.13,1.06-1.72a.33.33,0,0,0-.2-.48,4.9,4.9,0,0,1-1.47-.58l2.2-1.44a11.65,11.65,0,0,1,3.53-.4,10.18,10.18,0,0,1,3.36.61c.27.1.51-.26.37-.49l-.81-1.31.39.12.8.31c.54.23,1.07.48,1.58.75a18.56,18.56,0,0,1,2.92,2,.33.33,0,0,0,.56-.24c0-.71,0-1.43,0-2.14a25.14,25.14,0,0,1,6.74,5.63,25.89,25.89,0,0,1,1.6,2.14.34.34,0,0,0,.57,0,25,25,0,0,1,6.55-6.65c.58-.4,1.18-.77,1.79-1.12,0,.71,0,1.43,0,2.14a.33.33,0,0,0,.56.24,19,19,0,0,1,2.92-2c.5-.27,1-.52,1.54-.74l.85-.32A2.4,2.4,0,0,1,44.78,17.06Zm-16.18.39c-.11-.07-.21.06-.17.16a2.66,2.66,0,0,0,.62.72,9.88,9.88,0,0,0,.74.71c.07.06.2,0,.13-.11a9.08,9.08,0,0,0-.62-.77A2.63,2.63,0,0,0,28.6,17.45Zm2.69,0a3,3,0,0,0-.7.71c-.21.25-.43.5-.62.77-.06.09.07.17.14.11a9.88,9.88,0,0,0,.74-.71,2.81,2.81,0,0,0,.61-.72A.12.12,0,0,0,31.29,17.45Zm13,3.58-.15.36a.33.33,0,0,0,.2.48,27.58,27.58,0,0,1,3.21,1,24.55,24.55,0,0,1,3.31,1.48,11.74,11.74,0,0,1,1.22.75c-.71.75-1.33,1.58-2,2.34a.33.33,0,0,0-.05.39,39,39,0,0,0,2.34,3.47c.24.28.48.55.73.82l-.08,0-.13,0h-.34a3.62,3.62,0,0,0-1.09.13,1,1,0,0,0-.51,1.21c.18.66.39,1.31.59,2L52,37.05a4.87,4.87,0,0,0-3.92.22.33.33,0,0,0,.17.61,1.92,1.92,0,0,1,1,.35,1,1,0,0,1,.3.34.78.78,0,0,1,.08.23h0v0a0,0,0,0,1,0,0,.11.11,0,0,1,0,.05l0,.08h0l0,0a2,2,0,0,1-.28.25,2.46,2.46,0,0,1-.39.22l-.15.06-.23.07-.11,0h-.24l-.06,0s-.09,0,0,0l0,0h0a.35.35,0,0,0,0-.08,5.37,5.37,0,0,0-1-1.12,3.16,3.16,0,0,0-1.43-.65A12.57,12.57,0,0,0,35.75,40s0,0,0,0a2.74,2.74,0,0,0-2.63-1.4,4.43,4.43,0,0,0-2.55,1.15,69.6,69.6,0,0,1,1.3-7.15,31.34,31.34,0,0,1,2.73-7.44,21.09,21.09,0,0,1,2.12-3.25l.34,1a.33.33,0,0,0,.48.19,21.09,21.09,0,0,1,5.63-1.88C43.52,21.13,43.9,21.08,44.27,21ZM15.63,21a20.75,20.75,0,0,1,5.24,1.36c.51.2,1,.44,1.51.68a.33.33,0,0,0,.48-.19c.11-.34.23-.68.34-1a23.44,23.44,0,0,1,3.55,6.42,43.43,43.43,0,0,1,2,7.78c.22,1.21.4,2.42.57,3.64a4.55,4.55,0,0,0-2.1-1.08,2.85,2.85,0,0,0-2.89,1,2.16,2.16,0,0,0-.22.36,12.6,12.6,0,0,0-5.91-2.37,12.2,12.2,0,0,0-3.36,0,3.86,3.86,0,0,0-1.51.47,4.32,4.32,0,0,0-1.08,1l-.3.41,0,0h0s0,0,0,0h0l-.09,0h-.25l-.42-.12L11,39.46l-.21-.12a1.05,1.05,0,0,1-.29-.23L10.43,39s0,0,0,0l0-.06,0-.06v0h0v0l0-.13a.92.92,0,0,1,.27-.38,1.88,1.88,0,0,1,1.08-.42c.3,0,.48-.45.17-.6A4.87,4.87,0,0,0,8,37.05l1-3.3A1.39,1.39,0,0,0,9,32.83a.88.88,0,0,0-.37-.46,2.33,2.33,0,0,0-1.08-.18l-.31,0a1,1,0,0,1-.25,0l-.13,0h0a17,17,0,0,0,1.28-1.53c.36-.49.68-1,1-1.54s.52-.82.79-1.22a.33.33,0,0,0-.06-.4c-.7-.76-1.32-1.58-2-2.34a15.66,15.66,0,0,1,2.6-1.44,29.63,29.63,0,0,1,3.4-1.28q.87-.27,1.74-.48a.33.33,0,0,0,.2-.48Zm29.1,3.11a10.58,10.58,0,0,0-2.57.2,9.5,9.5,0,0,0-4.29,2,12,12,0,0,0-2.77,3.57,9.76,9.76,0,0,0-1.21,4.35,6.22,6.22,0,0,0,.08,1,.07.07,0,0,0,0,0h0v0s0,0,0,0a.3.3,0,0,0,.11.14,7.76,7.76,0,0,0,4.68,1.57,13.3,13.3,0,0,0,4.78-.48A7.52,7.52,0,0,0,48.25,33a10.72,10.72,0,0,0,1-4.64,14.74,14.74,0,0,0-.16-2.3A1.27,1.27,0,0,0,48.45,25a6.53,6.53,0,0,0-1.17-.43A10.51,10.51,0,0,0,44.73,24.15Zm-29.62,0a11.05,11.05,0,0,0-1.29.13,10.78,10.78,0,0,0-1.25.29A5.32,5.32,0,0,0,11.4,25a1.32,1.32,0,0,0-.55,1.08c0,.39-.1.78-.12,1.17a12.74,12.74,0,0,0,.49,4.68,6.24,6.24,0,0,0,1.65,2.7,8.55,8.55,0,0,0,2.6,1.62,12,12,0,0,0,4.33.83,16.49,16.49,0,0,0,2.62-.18,7.61,7.61,0,0,0,2.41-.76,6,6,0,0,0,1-.67.28.28,0,0,0,.1-.14v0h0v-.06A8.08,8.08,0,0,0,25.28,31a12.87,12.87,0,0,0-2.51-3.92,8.73,8.73,0,0,0-1.61-1.36,9.24,9.24,0,0,0-2.23-1A10.77,10.77,0,0,0,15.11,24.15Zm29.54.64a11.89,11.89,0,0,1,1.2.12,9.22,9.22,0,0,1,1.16.25,5.72,5.72,0,0,1,1.12.39c.28.15.26.55.3.83s.07.71.09,1.07A12,12,0,0,1,48,31.9a6.89,6.89,0,0,1-.86,1.66l0,0,0,.07-.17.19-.36.36-.22.19-.1.09-.06,0,0,0a6.3,6.3,0,0,1-.53.37,7.44,7.44,0,0,1-.66.38c-.24.13-.51.25-.72.34a11.64,11.64,0,0,1-4,.77,15,15,0,0,1-2.5-.15,7.09,7.09,0,0,1-2.21-.68A4.24,4.24,0,0,1,34.6,35a7.67,7.67,0,0,1,.65-3.88,12,12,0,0,1,2.33-3.61A8.19,8.19,0,0,1,39,26.3a8.85,8.85,0,0,1,2.06-1A10.5,10.5,0,0,1,44.65,24.79Zm-29.36,0a10.41,10.41,0,0,1,2.37.21,8.84,8.84,0,0,1,4,1.87,11.48,11.48,0,0,1,2.57,3.34,9,9,0,0,1,1.14,4,4.35,4.35,0,0,1-.05.81A7.13,7.13,0,0,1,21,36.41,12.78,12.78,0,0,1,16.53,36,9.39,9.39,0,0,1,15,35.31a5,5,0,0,1-.63-.37,2.9,2.9,0,0,1-.29-.19l-.12-.08-.06-.05-.06,0a7.11,7.11,0,0,1-.81-.74l-.15-.18-.06-.07a.05.05,0,0,1,0,0h0a7,7,0,0,1-.48-.77,9.79,9.79,0,0,1-.91-4.23,14.54,14.54,0,0,1,.11-2.19,3.85,3.85,0,0,1,.08-.49.41.41,0,0,1,.27-.34,6.16,6.16,0,0,1,1.12-.38A9.89,9.89,0,0,1,15.29,24.8ZM43.12,38.21a11.42,11.42,0,0,1,1.55.09,3.94,3.94,0,0,1,1.37.34,3.11,3.11,0,0,1,1,.85,3.74,3.74,0,0,1,1,2.83,6.12,6.12,0,0,0-3.53.43,17.36,17.36,0,0,0-3.44,2.11c-2.07,1.51-4.35,3-7,3.32a7.37,7.37,0,0,1-3.72-.44,1.55,1.55,0,0,0-.47-.19,1.56,1.56,0,0,0-.49.19,5.78,5.78,0,0,1-.89.29,7.36,7.36,0,0,1-1.87.22c-2.63,0-5-1.34-7.11-2.81S15.23,42,12.45,42.23l-.63.09a3.59,3.59,0,0,1,.84-2.57,4.23,4.23,0,0,1,.9-.94,3,3,0,0,1,1.31-.46,11.86,11.86,0,0,1,6.07.65,11.37,11.37,0,0,1,3,1.69,2,2,0,0,0,0,.42,3.33,3.33,0,0,0,.65,1.62,9.52,9.52,0,0,0,2.31,2.12,26.86,26.86,0,0,1,2.82,2,.34.34,0,0,0,.46,0c1.53-1.39,3.54-2.2,4.86-3.82a3.33,3.33,0,0,0,.9-2.37,11.9,11.9,0,0,1,5.64-2.37A11.28,11.28,0,0,1,43.12,38.21Zm-16.37,1a4.51,4.51,0,0,1,3,1.78.25.25,0,0,0,.23.09.26.26,0,0,0,.23-.09,4.94,4.94,0,0,1,2.61-1.74,1.93,1.93,0,0,1,1.73,3.41,10,10,0,0,1-2.14,1.8l-.14.1.46-.89a2.44,2.44,0,0,0,.29-1,1.1,1.1,0,0,0-.44-.9c-.61-.37-1.29.39-1.62.83a5.49,5.49,0,0,0-.76,1.58c-.08.25-.15.5-.22.75a6.88,6.88,0,0,0-.86-2.16,3.91,3.91,0,0,0-.56-.66,1.26,1.26,0,0,0-.93-.43.86.86,0,0,0-.66.73,1.8,1.8,0,0,0,.14,1c.16.37.36.71.55,1.07a.31.31,0,0,1,.05.1,12.24,12.24,0,0,1-2.06-1.67,2.58,2.58,0,0,1-.94-2.52A2,2,0,0,1,26.75,39.22Zm.95,3.11c.06,0,.17.09.22.12a3.71,3.71,0,0,1,.29.27,3.49,3.49,0,0,1,.41.54,5.57,5.57,0,0,1,.55,1.34c.12.41.22.83.32,1.24l-.66-.47a.43.43,0,0,1,0,0l-.58-1.08-.35-.65a2.59,2.59,0,0,1-.31-.75.81.81,0,0,1,0-.31C27.59,42.48,27.63,42.35,27.7,42.33Zm4.45,0a.1.1,0,0,1,.09,0,.5.5,0,0,1,.09.32,1.68,1.68,0,0,1-.22.72l-.44.85a1.63,1.63,0,0,1-.09.16l-.5.92v0c-.23.15-.45.32-.67.48a9.09,9.09,0,0,1,.79-2.41,2.61,2.61,0,0,1,.88-1ZM15.41,43.49c.3.14.59.3.88.47a5.19,5.19,0,0,0-.16,2.38,0,0,0,0,0,.07,0c.15-.73.24-1.47.37-2.21.34.21.67.43,1,.65A6.37,6.37,0,0,0,16.87,47a8.55,8.55,0,0,0-.05,2.37s.06,0,.07,0A21.46,21.46,0,0,1,17.28,47c.15-.68.43-1.34.56-2l.73.52a2.47,2.47,0,0,0-.31.9,11.08,11.08,0,0,0-.33,1.29c0,.08.08.12.12,0a4,4,0,0,0,.57-1.24,2.59,2.59,0,0,0,.2-.82c.4.29.81.57,1.22.84v0a.31.31,0,0,0-.29.09,19.23,19.23,0,0,0-3,4.77,1.83,1.83,0,0,1-.13-.24c-.12-.25-.23-.5-.33-.76a14.94,14.94,0,0,1-.53-1.64,13.41,13.41,0,0,1-.42-3.34,12.25,12.25,0,0,1,.12-1.91Zm29.08,0v0a13.66,13.66,0,0,1-.76,6.67,9.11,9.11,0,0,1-.35.86,2.34,2.34,0,0,1-.18.35,19.23,19.23,0,0,0-3-4.77.31.31,0,0,0-.29-.09h0c.3-.19.58-.39.87-.59.11-.09.24-.17.36-.26a2.53,2.53,0,0,0,.2.81,4.05,4.05,0,0,0,.57,1.25c0,.07.13,0,.12,0a11.78,11.78,0,0,0-.33-1.3,2.48,2.48,0,0,0-.31-.89l.73-.52c.13.67.41,1.33.56,2A24.08,24.08,0,0,1,43,49.38a0,0,0,1,0,.07,0,7.76,7.76,0,0,0-.74-4.6c.32-.23.65-.44,1-.65.14.73.22,1.48.38,2.21a0,0,0,0,0,.07,0A5.2,5.2,0,0,0,43.61,44l.45-.26Zm-23.9,3.39c.34.2.68.4,1,.58a2,2,0,0,0,0,.6c0,.21.07.43.1.64,0,.06.1,0,.1,0,0-.25.05-.49.05-.73s0-.25,0-.37a7,7,0,0,0,.73.35,8.72,8.72,0,0,0-.23,1.22,2.32,2.32,0,0,0-.06,1,.08.08,0,0,0,.14,0,3.25,3.25,0,0,0,.24-1.12c.06-.34.15-.67.2-1l.64.24c0,.15-.05.31-.09.46s-.13.45-.16.69c0,.06.09.07.11,0a2.64,2.64,0,0,0,.28-.67,4.17,4.17,0,0,0,.13-.42c.32.1.64.19,1,.26-.78.88-1.59,1.73-2.43,2.54l0,0L22.14,51c-.13-.26-.26-.52-.38-.78-.23-.52-.45-1.05-.64-1.58S20.75,47.46,20.59,46.88Zm18.71,0A21.06,21.06,0,0,1,38.23,50c-.12.26-.24.52-.37.78s-.12.24-.19.36l-.07.14-.52-.5-.63-.65c-.45-.47-.89-.94-1.33-1.43a9.65,9.65,0,0,0,1-.26c0,.15.09.29.14.43a2.55,2.55,0,0,0,.27.66s.12,0,.11,0a5.29,5.29,0,0,0-.15-.69c0-.15-.06-.31-.1-.46.22-.07.44-.15.65-.24,0,.34.13.67.19,1a3.45,3.45,0,0,0,.25,1.12.08.08,0,0,0,.14,0,2.53,2.53,0,0,0-.06-1A12.29,12.29,0,0,0,37.29,48l.05,0c.23-.1.46-.2.68-.32,0,.12,0,.24,0,.36s0,.49,0,.73a.05.05,0,0,0,.1,0c0-.21.08-.43.1-.64a2.33,2.33,0,0,0,0-.59C38.63,47.29,39,47.09,39.3,46.89ZM30,48.24a7.5,7.5,0,0,0,1.31.45,0,0,0,0,0,0,0c-.1.15,0,.33,0,.5s.07.48.13.71c0,0,.08,0,.09,0a2.29,2.29,0,0,0,0-.74c0-.17,0-.37-.15-.48l.49.1c.17.89.33,1.78.51,2.67,0,.1.15.07.16,0a6.25,6.25,0,0,0-.28-2.6,9.1,9.1,0,0,0,.91,0,1.79,1.79,0,0,0,0,.4c0,.22,0,.44,0,.66,0,0,0,0,0,0a5,5,0,0,0,.16-.67.87.87,0,0,0,0-.39,8.09,8.09,0,0,0,.86-.07,31.07,31.07,0,0,1-1.44,3.48l-.2.4-.09.19h0l-.08-.09-.27-.41c-.34-.53-.66-1.07-1-1.63a21,21,0,0,1-.92-1.91.34.34,0,0,0-.57,0,23,23,0,0,1-1.74,3.34l-.24.37-.13.2s-.07.08-.1.13a2.87,2.87,0,0,1-.2-.39c-.28-.57-.55-1.15-.8-1.74s-.51-1.29-.74-1.94l.17,0,.68,0a1.18,1.18,0,0,0,0,.37,5.2,5.2,0,0,0,.17.68s0,0,0,0c0-.21,0-.43,0-.65a1.7,1.7,0,0,0,0-.39c.3,0,.61,0,.91,0a6.25,6.25,0,0,0-.28,2.6c0,.08.14.12.16,0,.18-.88.33-1.78.51-2.67l.49-.1c-.13.11-.13.31-.15.48a2.29,2.29,0,0,0,0,.74s.08,0,.09,0c.07-.23.09-.47.14-.71s.11-.35,0-.5l0,0A7.5,7.5,0,0,0,30,48.24Z"/></g><g id="b49d3bd5-0a74-4e39-9a57-67cec40b45fe" data-name="Layer 1"><path class="e3f4c086-3b40-4faf-a255-b6da133728ce" d="M34.52,42.67a1.94,1.94,0,0,0-1.73-3.41A4.9,4.9,0,0,0,30.18,41a.3.3,0,0,1-.23.1.28.28,0,0,1-.23-.1,4.51,4.51,0,0,0-3-1.78,2.05,2.05,0,0,0-2.06,1.19c-.35.93.32,1.88.93,2.53a12.77,12.77,0,0,0,2.07,1.66l-.05-.1c-.19-.35-.39-.7-.55-1.08a1.75,1.75,0,0,1-.14-1,.85.85,0,0,1,.66-.73,1.26,1.26,0,0,1,.93.43,3.91,3.91,0,0,1,.56.66A6.84,6.84,0,0,1,30,44.94c.07-.26.13-.51.21-.76a5.15,5.15,0,0,1,.77-1.58c.33-.44,1-1.2,1.62-.83a1.06,1.06,0,0,1,.43.9,2.43,2.43,0,0,1-.28,1l-.46.89.14-.1A10.23,10.23,0,0,0,34.52,42.67Z"/><path class="e3f4c086-3b40-4faf-a255-b6da133728ce" d="M34.52,42.67a1.94,1.94,0,0,0-1.73-3.41A4.9,4.9,0,0,0,30.18,41a.3.3,0,0,1-.23.1.28.28,0,0,1-.23-.1,4.51,4.51,0,0,0-3-1.78,2.05,2.05,0,0,0-2.06,1.19c-.35.93.32,1.88.93,2.53a12.77,12.77,0,0,0,2.07,1.66l-.05-.1c-.19-.35-.39-.7-.55-1.08a1.75,1.75,0,0,1-.14-1,.85.85,0,0,1,.66-.73,1.26,1.26,0,0,1,.93.43,3.91,3.91,0,0,1,.56.66A6.84,6.84,0,0,1,30,44.94c.07-.26.13-.51.21-.76a5.15,5.15,0,0,1,.77-1.58c.33-.44,1-1.2,1.62-.83a1.06,1.06,0,0,1,.43.9,2.43,2.43,0,0,1-.28,1l-.46.89.14-.1A10.23,10.23,0,0,0,34.52,42.67Z"/><path class="be9d0343-a663-4800-89fd-24226256ab98" d="M34.45,44.15a1.93,1.93,0,0,0-1.73-3.4,4.81,4.81,0,0,0-2.62,1.74.34.34,0,0,1-.46,0,4.5,4.5,0,0,0-3-1.79,2.07,2.07,0,0,0-2.07,1.2c-.35.93.33,1.87.94,2.52a11.87,11.87,0,0,0,2.07,1.66l-.06-.1A10.72,10.72,0,0,1,27,44.91a1.79,1.79,0,0,1-.15-1,.85.85,0,0,1,.66-.72,1.21,1.21,0,0,1,.93.43,3.21,3.21,0,0,1,.56.66,6.65,6.65,0,0,1,.86,2.16c.07-.25.14-.51.22-.76a5.43,5.43,0,0,1,.76-1.57c.34-.44,1-1.21,1.63-.83a1.06,1.06,0,0,1,.43.9,2.36,2.36,0,0,1-.29,1c-.14.3-.3.6-.46.89L32.3,46A10.38,10.38,0,0,0,34.45,44.15Z"/><path d="M36.19,42.88c.79-.93,1.48-2.25.76-3.42a2.94,2.94,0,0,0-3.12-1.22,6.63,6.63,0,0,0-3.57,2.37.4.4,0,0,1-.31.13.42.42,0,0,1-.32-.13,6.13,6.13,0,0,0-4.05-2.43,2.79,2.79,0,0,0-2.81,1.63c-.48,1.27.43,2.56,1.27,3.44a15.8,15.8,0,0,0,2.82,2.26.83.83,0,0,1-.07-.13c-.26-.48-.54-1-.75-1.46a2.48,2.48,0,0,1-.2-1.39,1.17,1.17,0,0,1,.91-1,1.66,1.66,0,0,1,1.26.59,4.37,4.37,0,0,1,.76.9,14.38,14.38,0,0,1,1.12,3.78c.09-.34.24-1.53.35-1.87a7.45,7.45,0,0,1,1-2.14c.46-.61,1.38-1.65,2.22-1.13a1.4,1.4,0,0,1,.59,1.22,3.18,3.18,0,0,1-.39,1.37c-.2.41-.41.81-.63,1.22l.19-.13A14.17,14.17,0,0,0,36.19,42.88Z"/><path d="M36.22,42.1c.79-1,1.48-2.44.77-3.71a2.84,2.84,0,0,0-3.11-1.31,6.63,6.63,0,0,0-3.55,2.56.39.39,0,0,1-.31.14.4.4,0,0,1-.32-.14c-1-1.29-2.38-2.53-4-2.63a2.77,2.77,0,0,0-2.8,1.76c-.48,1.38.43,2.77,1.27,3.72a16.68,16.68,0,0,0,2.8,2.45l-.07-.15c-.26-.52-.53-1-.74-1.58a2.85,2.85,0,0,1-.2-1.5,1.21,1.21,0,0,1,.9-1.06,1.58,1.58,0,0,1,1.26.63,5.17,5.17,0,0,1,.76,1A16.66,16.66,0,0,1,30,46.34c.09-.37.25-1.65.36-2a8,8,0,0,1,1-2.32c.45-.65,1.37-1.78,2.2-1.22a1.59,1.59,0,0,1,.59,1.32,3.62,3.62,0,0,1-.39,1.48c-.2.45-.41.88-.63,1.32l.19-.14A14.13,14.13,0,0,0,36.22,42.1Z"/><path d="M36.22,42.1c.79-1,1.48-2.44.77-3.71a2.84,2.84,0,0,0-3.11-1.31,6.63,6.63,0,0,0-3.55,2.56.39.39,0,0,1-.31.14.4.4,0,0,1-.32-.14c-1-1.29-2.38-2.53-4-2.63a2.77,2.77,0,0,0-2.8,1.76c-.48,1.38.43,2.77,1.27,3.72a16.68,16.68,0,0,0,2.8,2.45l-.07-.15c-.26-.52-.53-1-.74-1.58a2.85,2.85,0,0,1-.2-1.5,1.21,1.21,0,0,1,.9-1.06,1.58,1.58,0,0,1,1.26.63,5.17,5.17,0,0,1,.76,1A16.66,16.66,0,0,1,30,46.34c.09-.37.25-1.65.36-2a8,8,0,0,1,1-2.32c.45-.65,1.37-1.78,2.2-1.22a1.59,1.59,0,0,1,.59,1.32,3.62,3.62,0,0,1-.39,1.48c-.2.45-.41.88-.63,1.32l.19-.14A14.13,14.13,0,0,0,36.22,42.1Z"/></g></g></g></svg>