<svg xmlns="http://www.w3.org/2000/svg" xmlns:xlink="http://www.w3.org/1999/xlink" viewBox="0 0 60.52 100.17"><defs><style>.add58c9b-97e4-4d14-a191-b453be86dfd1{fill:url(#fb57cb45-03ae-4c9f-993f-54cb831410fb);}.a0751438-7ed8-4937-9723-e724131d2a54,.a38a8f4c-a7bd-40ae-afc0-aa6479f7fa6b,.b02f2d80-c662-4626-9f16-b9723ead2a92,.f9332cf5-dc93-4bed-b4a7-71d8b9efda10,.fbf626fa-07c9-4d87-bb50-55362068b594,.fdce5bb2-64cc-4271-8f2a-53dc6ad94ba5{stroke:#000;}.a0751438-7ed8-4937-9723-e724131d2a54,.a38a8f4c-a7bd-40ae-afc0-aa6479f7fa6b,.a806d72e-d474-4538-9da3-7ff35c7b97d5,.ab55a911-0d0b-4d52-b3db-49be5b557a9d,.b02f2d80-c662-4626-9f16-b9723ead2a92,.b28b61c5-5dbb-4e61-ae29-8a3cfb2cd8d2,.ba4a5e99-7049-43dc-a98d-48b12482328f,.bbb78799-3f61-4e13-af28-bf69e2b709d7,.f2a9bf0c-695e-44c5-8e6a-633c5eec4db6,.f9332cf5-dc93-4bed-b4a7-71d8b9efda10,.fbf626fa-07c9-4d87-bb50-55362068b594,.fdce5bb2-64cc-4271-8f2a-53dc6ad94ba5{stroke-linecap:round;stroke-linejoin:round;}.a38a8f4c-a7bd-40ae-afc0-aa6479f7fa6b,.a806d72e-d474-4538-9da3-7ff35c7b97d5,.f9332cf5-dc93-4bed-b4a7-71d8b9efda10{stroke-width:18.76px;}.f9332cf5-dc93-4bed-b4a7-71d8b9efda10{fill:url(#a1639ca1-b058-4bfa-9fa9-7785d9896656);}.a38a8f4c-a7bd-40ae-afc0-aa6479f7fa6b,.a806d72e-d474-4538-9da3-7ff35c7b97d5,.b28b61c5-5dbb-4e61-ae29-8a3cfb2cd8d2,.fbf626fa-07c9-4d87-bb50-55362068b594,.fdce5bb2-64cc-4271-8f2a-53dc6ad94ba5{fill:#451a3e;}.a806d72e-d474-4538-9da3-7ff35c7b97d5,.b28b61c5-5dbb-4e61-ae29-8a3cfb2cd8d2{stroke:#451a3e;}.ab55a911-0d0b-4d52-b3db-49be5b557a9d,.b28b61c5-5dbb-4e61-ae29-8a3cfb2cd8d2,.ba4a5e99-7049-43dc-a98d-48b12482328f,.bbb78799-3f61-4e13-af28-bf69e2b709d7,.f2a9bf0c-695e-44c5-8e6a-633c5eec4db6,.fbf626fa-07c9-4d87-bb50-55362068b594{stroke-width:1.02px;}.a0751438-7ed8-4937-9723-e724131d2a54{stroke-width:4.43px;fill:url(#f0f1f1c3-b0de-4d0b-841f-cc85fb50bf44);}.b02f2d80-c662-4626-9f16-b9723ead2a92{stroke-width:8.09px;fill:url(#b34124af-bcd4-4ab8-b23b-7b98997d3980);}.fdce5bb2-64cc-4271-8f2a-53dc6ad94ba5{stroke-width:9.28px;}.ba4a5e99-7049-43dc-a98d-48b12482328f{fill:#5a2e43;stroke:#5a2e43;}.ab55a911-0d0b-4d52-b3db-49be5b557a9d{fill:#502343;stroke:#502343;}.bbb78799-3f61-4e13-af28-bf69e2b709d7{fill:#f1edde;stroke:#f1edde;}.f2a9bf0c-695e-44c5-8e6a-633c5eec4db6{fill:#f5efcf;stroke:#f5efcf;}.b094a004-d23f-4274-8b1d-3ab03d0d33e8{fill:url(#b0bac86a-af8e-4fad-b3a8-7142f9ca80ce);}.bec80565-f83b-4e69-a85a-01d61d77a4e3{fill:url(#aae66c95-fae4-4881-ae3b-239663f1b0e4);}.a38daf53-69bc-4391-b4f9-54d29e180d1b{fill:url(#b3bc579b-f4bf-4402-8980-d1e253e475aa);}.be9448df-b5ff-4cf5-9b47-8cba6c820249{fill:url(#b0c36e01-b261-49f3-8cee-559b4f85ccdd);}.a40f3d16-4d03-4797-8813-d4d0b49f9d6a{fill:url(#f5a79a23-22ad-4d36-93ab-4904985fe423);}.f64ff5a9-cd9f-4c72-8199-7ae10b657d91{fill:url(#f79fce30-f23a-4631-a009-bbcbe421d5f3);}.a55e949d-87a8-4e6d-9817-7346ebe8f449{fill:url(#b4159476-a893-404a-83a8-0d25a47e8558);}.b97a93ce-c9a6-46a5-9482-5da8864ec42d{fill:url(#a3d5530a-969f-4d71-a849-32115f611b1f);}.fadeb195-5a61-43ed-8fda-1c5d58f5136b{fill:url(#a828ac97-c1c9-407d-9ad7-f98bca19395a);}.b617018e-dda9-4335-bda2-917b2680b645{fill:url(#f5c55f8d-485c-4eee-b9bf-8e716477e85a);}.ad3a514a-42eb-43c4-a611-143b0d23660f{fill:url(#ad6c8834-c225-4c9e-95e8-d19f536b1aa6);}.ae706da0-da0f-43bc-a378-2e4d558857c0{fill:url(#ab0df99b-0aa8-4f3f-92f2-37d3dff39282);}.a04b262f-0d0c-47b9-8fe7-9ce89a2b8db7{fill:url(#a7b7b2bc-099c-4b34-b8d8-12ed7b9dd02e);}.e9074013-1236-4c48-88db-2cb8ab87ac3a{fill:url(#afa7942c-d092-4fb6-88cd-10094e55c660);}.bfb1fffb-146c-43d9-b827-727891ec89de{fill:url(#e5fcfc5b-7e05-4e48-94d3-0dfb1cc2b3f1);}.a8b5b26f-20b6-41c0-8f53-665cb89b1fd2{fill:url(#a6319bef-6f2a-4a4f-9de1-d50e369a365c);}.a67f9f44-ff5b-49b9-897d-7941e263c88e{fill:url(#b6b8334e-083a-4e8a-b709-fecfa9a2fce4);}.b4f06b1c-0a48-4b20-840a-c423887dea6c{fill:url(#a827f682-1721-4d42-ab05-3a7af6b869d8);}.ac79b63a-3480-46a6-a9ee-ac2c4afac9bc{fill:url(#a7cb13b0-2308-435a-903d-58eb3d632392);}.b9aec0cc-0ebc-48c9-931f-d7bf20962d00{fill:url(#e7d0a164-0043-4534-9dff-a7117e5fe025);}.e7a10c79-1721-4458-b4eb-43859077d94c{fill:url(#a8bed0c5-f591-4df2-9cde-9feaf2f7df8c);}.b9f24988-0ddb-427c-a354-923116816387{fill:url(#e916b401-c162-4d48-ac2c-d022c26d0567);}.b0bc5ff8-f6dd-4fc6-ae0b-2df2e0c211f2{fill:url(#fd67df98-b97b-4a83-805f-f0bae19287c8);}.bab37a23-278d-4e04-92ed-639c7715d59d{fill:url(#b8a16d6d-ebf5-42eb-9385-ba9f7d3d4fed);}.bd99e570-d7f1-4463-9e9e-0da010208e63{fill:url(#a2d28dc3-3aa6-4e64-aa19-34818882facd);}.be6737ac-50e2-4359-af32-6307264c9646{fill:url(#e23a1cc0-715a-4cd1-9361-b840e26b11db);}.b8b6a7fb-30dc-4627-bf24-e0f11026d5a0{fill:url(#a8ba6dec-537e-48c6-b032-4755a842fe1f);}.ee6aad6c-7212-48f2-a1c0-5bb62b1bf941{fill:url(#f075967d-24e8-44b3-aaa7-69ac3b82fe94);}.a76e2d18-8727-40d3-9b66-c2b56d5f4cd1{fill:url(#bbda70b1-cecf-4e3a-8f8b-aa5d003290e1);}.a988edde-4b1d-445c-9d98-30de7e83bedc{fill:url(#ff1314fb-1875-4465-b32b-a17fb169d503);}.a2eae447-b43d-4473-8514-afa5a7378301{fill:url(#abc239a0-0e09-43f6-ae0a-18e8ef76d944);}.bbece61f-53be-48b4-9d83-4134762e96c8{fill:url(#a8a7170f-15c6-4cde-970d-1c8d6cea4963);}.a974da4c-0ab5-4c8f-813e-41c49b231ae0{fill:url(#ec24f307-ca21-475f-86e4-ab37b53edc07);}.a7589d47-49df-4cbe-9eb6-cd2bbe9ebd52{fill:url(#a7da2364-5da3-4503-8912-ece60032cc94);}.a7db306e-8ade-4ef1-9d14-0d8cd601a1ca{fill:url(#b8004814-afff-4004-8bbe-81249a963e04);}.a46f2e88-1ad0-4ed9-9f79-5534d44a84df{fill:url(#b746fcd3-5d27-4f7b-a59b-b66b75f82e84);}.b447ffd5-dcc8-44ba-9b11-9842fc05950b{fill:url(#aca455c5-10af-4a46-8f56-8f0beb73e657);}.ff417925-8047-4973-b135-0e510939afc6{fill:url(#bdeea44d-fc6b-4b0d-9935-5405045e3c33);}.a3a965f4-3b59-4319-8d76-8f2bc28daa64{fill:url(#b38481de-2f23-46de-8b5d-b6d803991dcf);}.b0bd6137-be6d-459a-8b8a-8da903cc874a{fill:url(#e19352b0-62e5-44be-8c03-2bfe0b0d8a9b);}.bf02db32-914e-4f3c-8859-bb5d2271dad1{fill:url(#fe4828a0-d263-46b0-88b0-1cfd858e68a6);}.e15053cb-4d3b-4a99-b0ff-a6d8603e275b{fill:url(#f857f79b-53d6-4ba8-8b60-3a0f800d7bd3);}.ac75d83e-6e8e-4a16-ac81-227c0d9c341a{fill:url(#b30b58ee-17aa-4b63-88b2-eb232910e072);}.bc4e728a-8f11-421e-b106-e2493160abc7{fill:url(#af627dcc-f777-4780-bd4d-2560fd6540e3);}.b64ec7dc-a3cb-4be3-9331-d9d54110f621{fill:url(#bf8dafee-921f-454d-991c-99cc20a8ecc0);}.ba7d5d45-fa79-450c-b586-f87abcd8c0aa{fill:url(#adc0133b-8c7e-4ffd-bb65-79aa121a1c02);}.b208b3c5-7357-4543-b6e3-2c3eeb745b58{fill:url(#ea852462-426c-422c-a96b-be225e12e978);}.e425b999-34a2-4bf1-8540-86cfc9f3bfa7{fill:url(#aabb002a-b234-45b1-b428-0eacae1f982f);}.a8791256-cedd-47da-b6a0-8a4189594253{fill:url(#a2e1f92a-0645-44af-a1ff-fbd914660364);}.e7bcff9e-bf8a-4c2e-b6b3-882970b32099{fill:url(#f787150b-5be4-4d4b-9826-f4bce0bf7301);}.a8566068-2c2f-4aa1-b43b-b8fdb3c34d96{fill:url(#f4cd99b5-a73a-4be9-a77d-4a6651c01bd4);}.bd744e88-d92e-4554-ac7a-d5c2799c0029{fill:url(#ebbe8bd0-e8e4-4880-ae51-75ec698e0f7c);}.f2121480-878e-4144-ae35-e8ce393e83bf{fill:url(#a550a57b-0e5b-42a6-96ad-116a0cf5f0f7);}.ac5d856c-80ca-4b5d-84de-d128ffa230f0{fill:url(#ab2ef4cc-dca0-41aa-bf16-fdd379eba206);}.aac51387-1825-4cf3-8259-de394f0d2827{fill:url(#a1cd254e-0f80-4c32-aaf7-7c1a4f9b9d54);}.f085a4c7-a7cd-4008-a651-973fb212bacf{fill:url(#b1bc1985-cf8f-4d3a-ab9e-5cac9d6d459e);}.b37a9214-4051-4a4e-98d2-1f17726a5458{fill:url(#aa90a551-4d28-4b0d-81b6-0990102bcb8a);}.eb751a11-5829-4dbc-87b0-d852ac8277c7{fill:url(#bd3b8522-11b5-4e1d-ad74-af5d635f5b3f);}.a03edca8-c8ae-4521-a345-ae093f063d10{fill:url(#bc014def-cab7-4333-afe9-3bac536ee8b4);}.b8d0251f-cab9-42b9-b7d7-34eb9b7aaaf0{fill:url(#fc44c5d6-bd16-4215-b1c6-e62190267fa0);}.a03bf627-6c43-435e-be87-4ed70376e9de{fill:url(#bf80f613-4e78-43de-b391-4f6c6fec1896);}.a185fbaf-17c4-466d-8b01-ce9e9a5b8637{fill:url(#ac787ce6-62ae-4e72-bdf6-7167164ccf51);}.b7175cb3-a024-4fd1-8ef7-a8dd5659ca6b{fill:url(#e664bd5d-e640-4095-934b-8901ab6641e6);}.b22e4c0f-2eff-43ee-8509-1f9fe9ad7dde{fill:url(#aa187198-af44-45ad-8705-25f8ae2ce0e9);}.ab1640b2-f38c-4216-84a2-95e9774c9d2a{fill:url(#e2fe2703-a072-4c8d-81c8-dc8189b1406d);}.a7aeeb5d-8501-4b92-9ea1-45a232dedae7{fill:url(#ea1d0424-3dd5-4725-995f-53b8d6feae93);}.bc81f5cf-7137-4583-8a09-ac6b5d70cc8a{fill:url(#a0343276-36ca-4a06-91ab-c23ead3db8d2);}.e4b8fd30-c90b-45f4-b271-4ecc388a579c{fill:url(#a0601da5-8df7-4c3c-9e95-d68244e31c71);}.f8206d11-2c76-4fc7-a619-fd0de4beb133{fill:url(#fd361a0c-2bf1-47e9-9c10-69e064cf5928);}.e24663f4-ec62-471f-830f-b7468bc33bc2{fill:url(#fb522402-6e9d-4970-acc1-be476fcb2a74);}.a2cdb17a-5d1a-4a2b-b307-997f27351801{fill:url(#bb1236ba-4836-453a-af08-b2bdb811e24f);}.e4d2314f-d411-4c77-afb0-f6f8b4ba1501{fill:url(#b80b8e95-25e9-4e55-bc1f-e659e51cf601);}.bf9162e9-c47b-4f15-9643-d16b5fe35070{fill:url(#be1a7ae2-f603-4cfa-bce0-1dd5c70734f5);}.f04ff5fa-22da-4eba-9287-de8edd97a01a{fill:url(#bdd14c29-6e7e-44b2-8a32-a4dabff814d3);}.e54c6781-4f9f-404a-b6a0-06be111ff0c2{fill:url(#eeeb1865-e1e1-461f-907f-974fe963b641);}.f047bcc9-4783-4803-9d96-3b62e42b1e84{fill:url(#af940961-4a8f-4b3c-bb75-b61c36fc9b4b);}.ff1a2b78-05dc-4f6b-a055-0100933d954a{fill:url(#f364eaa9-e0aa-4f20-93fb-f091d7e10add);}.b73c3e0a-a692-4182-8f9d-76335108b900{fill:url(#ee82040c-565c-4e57-817b-70c9ea46274a);}.b25d9905-a383-42b2-a596-0ef2ad54cdf3{fill:url(#fbd49fd7-74c8-49ed-af81-4832f538f8ab);}.a8954d59-b68a-4c35-acf9-3e65314818cc{fill:url(#a7e2fd33-01ad-48e4-bd0b-74d8073f59f7);}.fc686f4a-814f-4149-8f07-7ff4c6c92882{fill:url(#a3258453-209f-4d66-bd7b-16a14b4fa1f0);}.a933eb5a-96c7-4f70-b3f4-82f3d76b3310{fill:url(#b13389f7-232d-4283-859c-2037b524ebcf);}.a8ea7496-8781-495f-9082-ac6a74a77310{fill:url(#b62e9c5b-c431-4763-9595-5a82ff756fcf);}.b68016ba-8ca2-470a-8e7a-37e0d96eafa6{fill:url(#a307f389-bc2f-4de8-8360-f332393618b6);}.ac715931-5052-4bdb-a2c6-1a2919d77d86{fill:url(#b86f87eb-2a23-4b91-81a7-51456e45d51a);}.a362f8b0-4af7-4279-a935-3da972121fd6{fill:url(#b72e92d8-b8e4-4742-b7cf-ce4ba8b360b8);}.f11d3546-e5c0-4df1-be02-380b5adbe7fb{fill:url(#a94d6884-e17a-4a41-a78d-624229880b55);}.a83de7f4-8828-482d-9ab9-29fb982742f8{fill:url(#f55aba88-f12d-4731-aeac-a16c6e9ca2a5);}.bb0e6c77-4345-4b22-97c2-97fe3c8a8f9b{fill:url(#b4ce0d0e-d3ec-497c-bfdf-58f86dc17aee);}.f3a070f4-affe-4f58-8453-6e129698c2e9{fill:url(#e47ee4bd-3fff-40bc-aed1-5f15b8f09cce);}.f8de6c38-567b-41c3-abd1-319a38dae1e2{fill:url(#b7c8d398-40a5-4df9-b034-bbb530a7b7bc);}.b9441308-85f9-4740-b1f7-5d438c875158{fill:url(#a0a55fc4-8502-4257-b49c-2900b0da019c);}.fe0395d7-71ab-4018-8322-d933123db382{fill:url(#fa19a2ed-6061-495e-b19b-c84e77b2c2ae);}.a63664f0-af14-4894-837f-1f64198a5b04{fill:url(#f4dc8081-beba-486a-b728-8e9a882b4be1);}</style><linearGradient id="fb57cb45-03ae-4c9f-993f-54cb831410fb" x1="-1153.07" y1="324.34" x2="-1133.39" y2="324.34" gradientTransform="matrix(1.02, 0, 0, -1.02, 1201.47, 343.28)" gradientUnits="userSpaceOnUse"><stop offset="0" stop-color="#fedf1a"/><stop offset="0.15" stop-color="#fba658"/><stop offset="0.23" stop-color="#f6789c"/><stop offset="0.29" stop-color="#c86bd5"/><stop offset="0.39" stop-color="#9c88db"/><stop offset="0.49" stop-color="#ae9ee2"/><stop offset="0.56" stop-color="#5caee4"/><stop offset="0.65" stop-color="#19d2e3"/><stop offset="0.75" stop-color="#18ddd4"/><stop offset="0.84" stop-color="#2de4ba"/><stop offset="0.89" stop-color="#80efd5"/><stop offset="0.95" stop-color="#62fc6c"/><stop offset="1" stop-color="#62fc6c"/></linearGradient><linearGradient id="a1639ca1-b058-4bfa-9fa9-7785d9896656" x1="-1149.35" y1="320.42" x2="-1135.93" y2="320.42" gradientTransform="matrix(1.02, 0, 0, -1.02, 1201.47, 343.28)" gradientUnits="userSpaceOnUse"><stop offset="0"/><stop offset="0.15" stop-color="#fba658"/><stop offset="0.23" stop-color="#f6789c"/><stop offset="0.29" stop-color="#c86bd5"/><stop offset="0.39" stop-color="#9c88db"/><stop offset="0.49" stop-color="#ae9ee2"/><stop offset="0.56" stop-color="#5caee4"/><stop offset="0.65" stop-color="#19d2e3"/><stop offset="0.75" stop-color="#18ddd4"/><stop offset="0.84" stop-color="#2de4ba"/><stop offset="0.89" stop-color="#80efd5"/><stop offset="0.95" stop-color="#62fc6c"/><stop offset="1" stop-color="#62fc6c"/></linearGradient><linearGradient id="f0f1f1c3-b0de-4d0b-841f-cc85fb50bf44" x1="-1141.14" y1="326.57" x2="-1133.56" y2="326.57" gradientTransform="matrix(1.02, 0, 0, -1.02, 1201.47, 343.28)" gradientUnits="userSpaceOnUse"><stop offset="0" stop-color="#fedf1a"/><stop offset="0.08" stop-color="#fba658"/><stop offset="0.17" stop-color="#f6789c"/><stop offset="0.26" stop-color="#c86bd5"/><stop offset="0.36" stop-color="#9c88db"/><stop offset="0.46" stop-color="#ae9ee2"/><stop offset="0.56" stop-color="#5caee4"/><stop offset="0.65" stop-color="#19d2e3"/><stop offset="0.75" stop-color="#18ddd4"/><stop offset="0.76" stop-color="#2de4ba"/><stop offset="0.89" stop-color="#80efd5"/><stop offset="0.92" stop-color="#62fc6c"/><stop offset="1" stop-color="#62fc6c"/></linearGradient><linearGradient id="b34124af-bcd4-4ab8-b23b-7b98997d3980" x1="-1153.81" y1="319.81" x2="-1148.47" y2="319.81" xlink:href="#fb57cb45-03ae-4c9f-993f-54cb831410fb"/><linearGradient id="b0bac86a-af8e-4fad-b3a8-7142f9ca80ce" x1="-1169.99" y1="283.27" x2="-1115.6" y2="283.27" xlink:href="#fb57cb45-03ae-4c9f-993f-54cb831410fb"/><linearGradient id="aae66c95-fae4-4881-ae3b-239663f1b0e4" x1="-1150.3" y1="275.65" x2="-1126" y2="275.65" xlink:href="#fb57cb45-03ae-4c9f-993f-54cb831410fb"/><linearGradient id="b3bc579b-f4bf-4402-8980-d1e253e475aa" x1="-1174.77" y1="283.52" x2="-1159.68" y2="283.52" xlink:href="#fb57cb45-03ae-4c9f-993f-54cb831410fb"/><linearGradient id="b0c36e01-b261-49f3-8cee-559b4f85ccdd" x1="-1158.29" y1="308.96" x2="-1149.53" y2="308.96" xlink:href="#fb57cb45-03ae-4c9f-993f-54cb831410fb"/><linearGradient id="f5a79a23-22ad-4d36-93ab-4904985fe423" x1="-1160.89" y1="240.27" x2="-1140.59" y2="240.27" xlink:href="#fb57cb45-03ae-4c9f-993f-54cb831410fb"/><linearGradient id="f79fce30-f23a-4631-a009-bbcbe421d5f3" x1="-1154.01" y1="274.37" x2="-1147.95" y2="274.37" xlink:href="#fb57cb45-03ae-4c9f-993f-54cb831410fb"/><linearGradient id="b4159476-a893-404a-83a8-0d25a47e8558" x1="-1127.74" y1="309.23" x2="-1120.53" y2="309.23" xlink:href="#fb57cb45-03ae-4c9f-993f-54cb831410fb"/><linearGradient id="a3d5530a-969f-4d71-a849-32115f611b1f" x1="-1153.26" y1="244.71" x2="-1140.4" y2="244.71" xlink:href="#fb57cb45-03ae-4c9f-993f-54cb831410fb"/><linearGradient id="a828ac97-c1c9-407d-9ad7-f98bca19395a" x1="-1142.22" y1="309.18" x2="-1133.23" y2="309.18" xlink:href="#fb57cb45-03ae-4c9f-993f-54cb831410fb"/><linearGradient id="f5c55f8d-485c-4eee-b9bf-8e716477e85a" x1="-1161.96" y1="281.23" x2="-1155.77" y2="281.23" xlink:href="#fb57cb45-03ae-4c9f-993f-54cb831410fb"/><linearGradient id="ad6c8834-c225-4c9e-95e8-d19f536b1aa6" x1="-1166.7" y1="260.62" x2="-1158.38" y2="260.62" xlink:href="#fb57cb45-03ae-4c9f-993f-54cb831410fb"/><linearGradient id="ab0df99b-0aa8-4f3f-92f2-37d3dff39282" x1="-1149.18" y1="302.86" x2="-1137.24" y2="302.86" xlink:href="#fb57cb45-03ae-4c9f-993f-54cb831410fb"/><linearGradient id="a7b7b2bc-099c-4b34-b8d8-12ed7b9dd02e" x1="-1142.17" y1="273.41" x2="-1132.58" y2="273.41" xlink:href="#fb57cb45-03ae-4c9f-993f-54cb831410fb"/><linearGradient id="afa7942c-d092-4fb6-88cd-10094e55c660" x1="-1133.55" y1="295.48" x2="-1128.95" y2="295.48" xlink:href="#fb57cb45-03ae-4c9f-993f-54cb831410fb"/><linearGradient id="e5fcfc5b-7e05-4e48-94d3-0dfb1cc2b3f1" x1="-1157.45" y1="263.98" x2="-1150" y2="263.98" xlink:href="#fb57cb45-03ae-4c9f-993f-54cb831410fb"/><linearGradient id="a6319bef-6f2a-4a4f-9de1-d50e369a365c" x1="-1140.03" y1="288.82" x2="-1134.91" y2="288.82" xlink:href="#fb57cb45-03ae-4c9f-993f-54cb831410fb"/><linearGradient id="b6b8334e-083a-4e8a-b709-fecfa9a2fce4" x1="-1159.5" y1="281.95" x2="-1154.83" y2="281.95" xlink:href="#fb57cb45-03ae-4c9f-993f-54cb831410fb"/><linearGradient id="a827f682-1721-4d42-ab05-3a7af6b869d8" x1="-1146.64" y1="286.04" x2="-1141.71" y2="286.04" xlink:href="#fb57cb45-03ae-4c9f-993f-54cb831410fb"/><linearGradient id="a7cb13b0-2308-435a-903d-58eb3d632392" x1="-1146.71" y1="269.88" x2="-1144.1" y2="269.88" xlink:href="#fb57cb45-03ae-4c9f-993f-54cb831410fb"/><linearGradient id="e7d0a164-0043-4534-9dff-a7117e5fe025" x1="-1136.78" y1="309" x2="-1132.49" y2="309" xlink:href="#fb57cb45-03ae-4c9f-993f-54cb831410fb"/><linearGradient id="a8bed0c5-f591-4df2-9cde-9feaf2f7df8c" x1="-1143.07" y1="274.52" x2="-1135.56" y2="274.52" xlink:href="#fb57cb45-03ae-4c9f-993f-54cb831410fb"/><linearGradient id="e916b401-c162-4d48-ac2c-d022c26d0567" x1="-1147.3" y1="282.13" x2="-1138.61" y2="282.13" xlink:href="#fb57cb45-03ae-4c9f-993f-54cb831410fb"/><linearGradient id="fd67df98-b97b-4a83-805f-f0bae19287c8" x1="-1150.09" y1="266.07" x2="-1145.06" y2="266.07" xlink:href="#fb57cb45-03ae-4c9f-993f-54cb831410fb"/><linearGradient id="b8a16d6d-ebf5-42eb-9385-ba9f7d3d4fed" x1="-1128.15" y1="300.1" x2="-1125.88" y2="300.1" xlink:href="#fb57cb45-03ae-4c9f-993f-54cb831410fb"/><linearGradient id="a2d28dc3-3aa6-4e64-aa19-34818882facd" x1="-1142.45" y1="287.02" x2="-1138.73" y2="287.02" xlink:href="#fb57cb45-03ae-4c9f-993f-54cb831410fb"/><linearGradient id="e23a1cc0-715a-4cd1-9361-b840e26b11db" x1="-1132.49" y1="307.23" x2="-1128.02" y2="307.23" xlink:href="#fb57cb45-03ae-4c9f-993f-54cb831410fb"/><linearGradient id="a8ba6dec-537e-48c6-b032-4755a842fe1f" x1="-1139.38" y1="305.14" x2="-1131.84" y2="305.14" xlink:href="#fb57cb45-03ae-4c9f-993f-54cb831410fb"/><linearGradient id="f075967d-24e8-44b3-aaa7-69ac3b82fe94" x1="-1133.88" y1="287.38" x2="-1125.56" y2="287.38" xlink:href="#fb57cb45-03ae-4c9f-993f-54cb831410fb"/><linearGradient id="bbda70b1-cecf-4e3a-8f8b-aa5d003290e1" x1="-1132.58" y1="292.88" x2="-1129.23" y2="292.88" xlink:href="#fb57cb45-03ae-4c9f-993f-54cb831410fb"/><linearGradient id="ff1314fb-1875-4465-b32b-a17fb169d503" x1="-1154.2" y1="275.12" x2="-1150.65" y2="275.12" xlink:href="#fb57cb45-03ae-4c9f-993f-54cb831410fb"/><linearGradient id="abc239a0-0e09-43f6-ae0a-18e8ef76d944" x1="-1136.96" y1="309.38" x2="-1133.7" y2="309.38" xlink:href="#fb57cb45-03ae-4c9f-993f-54cb831410fb"/><linearGradient id="a8a7170f-15c6-4cde-970d-1c8d6cea4963" x1="-1147.67" y1="263.18" x2="-1143.29" y2="263.18" xlink:href="#fb57cb45-03ae-4c9f-993f-54cb831410fb"/><linearGradient id="ec24f307-ca21-475f-86e4-ab37b53edc07" x1="-1129.72" y1="294.99" x2="-1128.09" y2="294.99" xlink:href="#fb57cb45-03ae-4c9f-993f-54cb831410fb"/><linearGradient id="a7da2364-5da3-4503-8912-ece60032cc94" x1="-1135.72" y1="285.55" x2="-1129.27" y2="285.55" xlink:href="#fb57cb45-03ae-4c9f-993f-54cb831410fb"/><linearGradient id="b8004814-afff-4004-8bbe-81249a963e04" x1="-1126.17" y1="298.25" x2="-1124.48" y2="298.25" xlink:href="#fb57cb45-03ae-4c9f-993f-54cb831410fb"/><linearGradient id="b746fcd3-5d27-4f7b-a59b-b66b75f82e84" x1="-1126.19" y1="296.43" x2="-1123.43" y2="296.43" xlink:href="#fb57cb45-03ae-4c9f-993f-54cb831410fb"/><linearGradient id="aca455c5-10af-4a46-8f56-8f0beb73e657" x1="-1147.85" y1="268.26" x2="-1145.71" y2="268.26" xlink:href="#fb57cb45-03ae-4c9f-993f-54cb831410fb"/><linearGradient id="bdeea44d-fc6b-4b0d-9935-5405045e3c33" x1="-1146.83" y1="309.68" x2="-1143.94" y2="309.68" xlink:href="#fb57cb45-03ae-4c9f-993f-54cb831410fb"/><linearGradient id="b38481de-2f23-46de-8b5d-b6d803991dcf" x1="-1147.95" y1="283.76" x2="-1146.09" y2="283.76" xlink:href="#fb57cb45-03ae-4c9f-993f-54cb831410fb"/><linearGradient id="e19352b0-62e5-44be-8c03-2bfe0b0d8a9b" x1="-1145.06" y1="260.67" x2="-1141.61" y2="260.67" xlink:href="#fb57cb45-03ae-4c9f-993f-54cb831410fb"/><linearGradient id="fe4828a0-d263-46b0-88b0-1cfd858e68a6" x1="-1131.01" y1="292.84" x2="-1128.95" y2="292.84" xlink:href="#fb57cb45-03ae-4c9f-993f-54cb831410fb"/><linearGradient id="f857f79b-53d6-4ba8-8b60-3a0f800d7bd3" x1="-1145.62" y1="283.07" x2="-1139.66" y2="283.07" xlink:href="#fb57cb45-03ae-4c9f-993f-54cb831410fb"/><linearGradient id="b30b58ee-17aa-4b63-88b2-eb232910e072" x1="-1136.96" y1="285" x2="-1133.34" y2="285" xlink:href="#fb57cb45-03ae-4c9f-993f-54cb831410fb"/><linearGradient id="af627dcc-f777-4780-bd4d-2560fd6540e3" x1="-1144.57" y1="265.08" x2="-1143.03" y2="265.08" xlink:href="#fb57cb45-03ae-4c9f-993f-54cb831410fb"/><linearGradient id="bf8dafee-921f-454d-991c-99cc20a8ecc0" x1="-1142.83" y1="258.08" x2="-1140.03" y2="258.08" xlink:href="#fb57cb45-03ae-4c9f-993f-54cb831410fb"/><linearGradient id="adc0133b-8c7e-4ffd-bb65-79aa121a1c02" x1="-1141.55" y1="260.77" x2="-1140.03" y2="260.77" xlink:href="#fb57cb45-03ae-4c9f-993f-54cb831410fb"/><linearGradient id="ea852462-426c-422c-a96b-be225e12e978" x1="-1153.75" y1="273.31" x2="-1150.65" y2="273.31" xlink:href="#fb57cb45-03ae-4c9f-993f-54cb831410fb"/><linearGradient id="aabb002a-b234-45b1-b428-0eacae1f982f" x1="-1133.75" y1="306.3" x2="-1131.92" y2="306.3" xlink:href="#fb57cb45-03ae-4c9f-993f-54cb831410fb"/><linearGradient id="a2e1f92a-0645-44af-a1ff-fbd914660364" x1="-1137.89" y1="305.69" x2="-1132.67" y2="305.69" xlink:href="#fb57cb45-03ae-4c9f-993f-54cb831410fb"/><linearGradient id="f787150b-5be4-4d4b-9826-f4bce0bf7301" x1="-1121.16" y1="293.36" x2="-1119.86" y2="293.36" xlink:href="#fb57cb45-03ae-4c9f-993f-54cb831410fb"/><linearGradient id="f4cd99b5-a73a-4be9-a77d-4a6651c01bd4" x1="-1152.33" y1="288.14" x2="-1149.72" y2="288.14" xlink:href="#fb57cb45-03ae-4c9f-993f-54cb831410fb"/><linearGradient id="ebbe8bd0-e8e4-4880-ae51-75ec698e0f7c" x1="-1122.76" y1="312.36" x2="-1120.97" y2="312.36" xlink:href="#fb57cb45-03ae-4c9f-993f-54cb831410fb"/><linearGradient id="a550a57b-0e5b-42a6-96ad-116a0cf5f0f7" x1="-1141.15" y1="255.3" x2="-1138.91" y2="255.3" xlink:href="#fb57cb45-03ae-4c9f-993f-54cb831410fb"/><linearGradient id="ab2ef4cc-dca0-41aa-bf16-fdd379eba206" x1="-1129.27" y1="293.73" x2="-1128.43" y2="293.73" xlink:href="#fb57cb45-03ae-4c9f-993f-54cb831410fb"/><linearGradient id="a1cd254e-0f80-4c32-aaf7-7c1a4f9b9d54" x1="-1137.52" y1="250.93" x2="-1136.21" y2="250.93" xlink:href="#fb57cb45-03ae-4c9f-993f-54cb831410fb"/><linearGradient id="b1bc1985-cf8f-4d3a-ab9e-5cac9d6d459e" x1="-1138.71" y1="256.24" x2="-1137.51" y2="256.24" xlink:href="#fb57cb45-03ae-4c9f-993f-54cb831410fb"/><linearGradient id="aa90a551-4d28-4b0d-81b6-0990102bcb8a" x1="-1150.56" y1="280.8" x2="-1149.12" y2="280.8" xlink:href="#fb57cb45-03ae-4c9f-993f-54cb831410fb"/><linearGradient id="bd3b8522-11b5-4e1d-ad74-af5d635f5b3f" x1="-1143.1" y1="263.12" x2="-1141.99" y2="263.12" xlink:href="#fb57cb45-03ae-4c9f-993f-54cb831410fb"/><linearGradient id="bc014def-cab7-4333-afe9-3bac536ee8b4" x1="-1140.03" y1="287.07" x2="-1138.54" y2="287.07" xlink:href="#fb57cb45-03ae-4c9f-993f-54cb831410fb"/><linearGradient id="fc44c5d6-bd16-4215-b1c6-e62190267fa0" x1="-1137.8" y1="253.73" x2="-1136.77" y2="253.73" xlink:href="#fb57cb45-03ae-4c9f-993f-54cb831410fb"/><linearGradient id="bf80f613-4e78-43de-b391-4f6c6fec1896" x1="-1140.07" y1="258.57" x2="-1139.01" y2="258.57" xlink:href="#fb57cb45-03ae-4c9f-993f-54cb831410fb"/><linearGradient id="ac787ce6-62ae-4e72-bdf6-7167164ccf51" x1="-1139.48" y1="250.47" x2="-1138.02" y2="250.47" xlink:href="#fb57cb45-03ae-4c9f-993f-54cb831410fb"/><linearGradient id="e664bd5d-e640-4095-934b-8901ab6641e6" x1="-1148.09" y1="303" x2="-1146.55" y2="303" xlink:href="#fb57cb45-03ae-4c9f-993f-54cb831410fb"/><linearGradient id="aa187198-af44-45ad-8705-25f8ae2ce0e9" x1="-1164.92" y1="263.16" x2="-1163.41" y2="263.16" xlink:href="#fb57cb45-03ae-4c9f-993f-54cb831410fb"/><linearGradient id="e2fe2703-a072-4c8d-81c8-dc8189b1406d" x1="-1148.35" y1="270.17" x2="-1146.76" y2="270.17" xlink:href="#fb57cb45-03ae-4c9f-993f-54cb831410fb"/><linearGradient id="ea1d0424-3dd5-4725-995f-53b8d6feae93" x1="-1149.36" y1="274.75" x2="-1147.78" y2="274.75" xlink:href="#fb57cb45-03ae-4c9f-993f-54cb831410fb"/><linearGradient id="a0343276-36ca-4a06-91ab-c23ead3db8d2" x1="-1139.47" y1="248.15" x2="-1138.28" y2="248.15" xlink:href="#fb57cb45-03ae-4c9f-993f-54cb831410fb"/><linearGradient id="a0601da5-8df7-4c3c-9e95-d68244e31c71" x1="-1150.68" y1="240.38" x2="-1149.07" y2="240.38" xlink:href="#fb57cb45-03ae-4c9f-993f-54cb831410fb"/><linearGradient id="fd361a0c-2bf1-47e9-9c10-69e064cf5928" x1="-1149.01" y1="272.28" x2="-1147.48" y2="272.28" xlink:href="#fb57cb45-03ae-4c9f-993f-54cb831410fb"/><linearGradient id="fb522402-6e9d-4970-acc1-be476fcb2a74" x1="-1141.65" y1="278.27" x2="-1140.31" y2="278.27" xlink:href="#fb57cb45-03ae-4c9f-993f-54cb831410fb"/><linearGradient id="bb1236ba-4836-453a-af08-b2bdb811e24f" x1="-1152.61" y1="271.89" x2="-1150.37" y2="271.89" xlink:href="#fb57cb45-03ae-4c9f-993f-54cb831410fb"/><linearGradient id="b80b8e95-25e9-4e55-bc1f-e659e51cf601" x1="-1155.79" y1="240.96" x2="-1154.37" y2="240.96" xlink:href="#fb57cb45-03ae-4c9f-993f-54cb831410fb"/><linearGradient id="be1a7ae2-f603-4cfa-bce0-1dd5c70734f5" x1="-1131.56" y1="302.18" x2="-1130.07" y2="302.18" xlink:href="#fb57cb45-03ae-4c9f-993f-54cb831410fb"/><linearGradient id="bdd14c29-6e7e-44b2-8a32-a4dabff814d3" x1="-1147.85" y1="303.41" x2="-1146.72" y2="303.41" xlink:href="#fb57cb45-03ae-4c9f-993f-54cb831410fb"/><linearGradient id="eeeb1865-e1e1-461f-907f-974fe963b641" x1="-1152.15" y1="270.92" x2="-1150.17" y2="270.92" xlink:href="#fb57cb45-03ae-4c9f-993f-54cb831410fb"/><linearGradient id="af940961-4a8f-4b3c-bb75-b61c36fc9b4b" x1="-1142" y1="284" x2="-1140.84" y2="284" xlink:href="#fb57cb45-03ae-4c9f-993f-54cb831410fb"/><linearGradient id="f364eaa9-e0aa-4f20-93fb-f091d7e10add" x1="-1142.81" y1="303.84" x2="-1141.71" y2="303.84" xlink:href="#fb57cb45-03ae-4c9f-993f-54cb831410fb"/><linearGradient id="ee82040c-565c-4e57-817b-70c9ea46274a" x1="-1149.21" y1="277.02" x2="-1148.11" y2="277.02" xlink:href="#fb57cb45-03ae-4c9f-993f-54cb831410fb"/><linearGradient id="fbd49fd7-74c8-49ed-af81-4832f538f8ab" x1="-1126.89" y1="292.46" x2="-1125.93" y2="292.46" xlink:href="#fb57cb45-03ae-4c9f-993f-54cb831410fb"/><linearGradient id="a7e2fd33-01ad-48e4-bd0b-74d8073f59f7" x1="-1143.87" y1="241.43" x2="-1142.83" y2="241.43" xlink:href="#fb57cb45-03ae-4c9f-993f-54cb831410fb"/><linearGradient id="a3258453-209f-4d66-bd7b-16a14b4fa1f0" x1="-1127.77" y1="291.26" x2="-1126.71" y2="291.26" xlink:href="#fb57cb45-03ae-4c9f-993f-54cb831410fb"/><linearGradient id="b13389f7-232d-4283-859c-2037b524ebcf" x1="-1159.25" y1="264.58" x2="-1158.32" y2="264.58" xlink:href="#fb57cb45-03ae-4c9f-993f-54cb831410fb"/><linearGradient id="b62e9c5b-c431-4763-9595-5a82ff756fcf" x1="-1148" y1="279.82" x2="-1147.05" y2="279.82" xlink:href="#fb57cb45-03ae-4c9f-993f-54cb831410fb"/><linearGradient id="a307f389-bc2f-4de8-8360-f332393618b6" x1="-1161.55" y1="243.72" x2="-1160.52" y2="243.72" xlink:href="#fb57cb45-03ae-4c9f-993f-54cb831410fb"/><linearGradient id="b86f87eb-2a23-4b91-81a7-51456e45d51a" x1="-1145.49" y1="240.9" x2="-1144.5" y2="240.9" xlink:href="#fb57cb45-03ae-4c9f-993f-54cb831410fb"/><linearGradient id="b72e92d8-b8e4-4742-b7cf-ce4ba8b360b8" x1="-1129.98" y1="299.87" x2="-1128.67" y2="299.87" xlink:href="#fb57cb45-03ae-4c9f-993f-54cb831410fb"/><linearGradient id="a94d6884-e17a-4a41-a78d-624229880b55" x1="-1151.98" y1="261.55" x2="-1151.11" y2="261.55" xlink:href="#fb57cb45-03ae-4c9f-993f-54cb831410fb"/><linearGradient id="f55aba88-f12d-4731-aeac-a16c6e9ca2a5" x1="-1151.22" y1="260.11" x2="-1150.28" y2="260.11" xlink:href="#fb57cb45-03ae-4c9f-993f-54cb831410fb"/><linearGradient id="b4ce0d0e-d3ec-497c-bfdf-58f86dc17aee" x1="-1140.98" y1="303.75" x2="-1140.12" y2="303.75" xlink:href="#fb57cb45-03ae-4c9f-993f-54cb831410fb"/><linearGradient id="e47ee4bd-3fff-40bc-aed1-5f15b8f09cce" x1="-1161.25" y1="264.27" x2="-1159.99" y2="264.27" xlink:href="#fb57cb45-03ae-4c9f-993f-54cb831410fb"/><linearGradient id="b7c8d398-40a5-4df9-b034-bbb530a7b7bc" x1="-1140.25" y1="284.51" x2="-1139.38" y2="284.51" xlink:href="#fb57cb45-03ae-4c9f-993f-54cb831410fb"/><linearGradient id="a0a55fc4-8502-4257-b49c-2900b0da019c" x1="-1126.9" y1="308.72" x2="-1125.97" y2="308.72" xlink:href="#fb57cb45-03ae-4c9f-993f-54cb831410fb"/><linearGradient id="fa19a2ed-6061-495e-b19b-c84e77b2c2ae" x1="-1148.6" y1="278.68" x2="-1147.76" y2="278.68" xlink:href="#fb57cb45-03ae-4c9f-993f-54cb831410fb"/><linearGradient id="f4dc8081-beba-486a-b728-8e9a882b4be1" x1="-1135.51" y1="287.59" x2="-1134.35" y2="287.59" xlink:href="#fb57cb45-03ae-4c9f-993f-54cb831410fb"/></defs><g id="ad86d613-2dd7-4e7a-8186-341fefdb85e6" data-name="Layer 2"><g id="b21c595c-408b-4914-bb70-7fb2f678f560" data-name="Layer 1"><g id="e344bd8b-2ce9-4bd4-af55-bb3ed2eaa783" data-name="Layer 1"><path class="add58c9b-97e4-4d14-a191-b453be86dfd1" d="M29.62,10c0,1.36-1.63,1.13-1.9,2.47-.22,1.11,1.25,3.8,1.9,4.67,1.11,1.48,5.65,1.86,5.91.95.58-2-1.15-6.09-3.71-6.09s-1.74,3.83-.1,4.38,2.32-1.17.86-1.91l-.29.86c-.67-.34-1.75-1.81-.47-2.19,1.5-.45,2.94,3,2.38,4-1.44,2.51-6.69-3.23-4-5.43.35-.28,1-1,1.52-.86,3.38.68,5.33,4.53,5.33,7.63,0,.42-1.13,1.13-1.33,1.52-.69,1.39-6-.29-7.43-.76,0-1.38.07-3.24-.76-4.48-.14.72.76,3.62,0,3.62-.12-.37-.1-.45-.48-.57.41-.4.52-.53.1-1,.2-.41.33-.69-.19-.86.4-.8-.61-2.64-1.24-2.76-.1-.76-.08-1.06-.86-.86-.13-.52,0-.32-.47-.57-.6.59-1.41.22-2.2.38,0-3.74,2-9.53,6.48-9.53,2.36,0,3.92,2.1,5.81,3.05-.32.21-.47.39-.28.76l-.29.29a3.48,3.48,0,0,1,.38,1.81c.32,0,.13,0,.57.09a1.37,1.37,0,0,1-.09.67h.57V10H36v.57l.57.09v.58c.47,0,.55,0,.66.47h.67c.09.47.86,1.14,1.43.86,0,.58.68.53,1,.29.81,1.21,2.13-1.12,1.9,1.14-4.45,0-3.53-1.58-6.66-3.15-.37.74,1.89,2.47,2.28,3l-.28.29C36.84,11.8,32.8,10,30.86,9.49A11.08,11.08,0,0,1,31.05,8c-.55,0-.66.52-.66,1H30.2c0-.85-1.49-.75-.67.48-.61-.16-1.31-.52-1.72.09A5.64,5.64,0,0,0,29.62,10Z"/><path class="f9332cf5-dc93-4bed-b4a7-71d8b9efda10" d="M26.77,19.59l.09.38c-.74,0-.47.1-.86-.1.92-.91.78-1.57.86-2.95.73.15.68.37.19.86.37.18.37.12.48.57h.19c0,.32,0,.13-.1.57,2.41,0,8.63,3.65,10-.28.92-2.65-3.43-8.89-6.29-8.48-5.08.72-2.12,9.47,3.43,7.62,1.93-.64-1.29-5.15-3-5.15-4.07,0,2.42,5.43.66,1.91.65,0,.79.72,1.05,1.24-1.39,1.39-3.62-.49-3.62-2.19,0-2.16,2.64-1.35,3.43-.76,1.9,1.42,2.08,2.64,2.29,5.14-4,1.35-7.91-1.11-7.91-5.53,0-.51,3.32-3.29,4.19-3A10.27,10.27,0,0,1,38,15.68l1,.1c-.83.28-1,.21-.85,1.14,1.35.11,1-.25,1.43.38-1,0-.59.09-1.15-.09-.28.56-.18.41-.09,1.33.47,0,1.08-.12,1.33.38a5.93,5.93,0,0,1-1.33-.19c-.17.34-.8.6-.57,1.05-.71,0-3.12,1.36-3,2a1.63,1.63,0,0,1-.19-.57C31.89,21.21,29.36,19.59,26.77,19.59Z"/><path class="b28b61c5-5dbb-4e61-ae29-8a3cfb2cd8d2" d="M41.72,12.63c-.76.06-2,.68-2.38-.09-.64.32-.71-.38-1.33-.38l-.1-.48h-.67v-.47c-.68.13-.66.15-.66-.58-.59-.09-.77-.09-.57-.66h-.67V9.3h-.57a1.52,1.52,0,0,1,.09-.67c-.66,0-.62-.16-.47-.76-.6,0-.43-.44-.19-.76-.55-.28.07-.63-.1-1.14l1.14-.1c-1.43.36-.75,2.2,0,3C37.13,10.71,38.74,12.42,41.72,12.63Z"/><path class="a0751438-7ed8-4937-9723-e724131d2a54" d="M41.72,12.63c-3,.3-4.7-2-6.57-3.9-.43-.43-1.28-2.55-.29-2.76C38.24,5.24,43.71,12.44,41.72,12.63Z"/><path class="b02f2d80-c662-4626-9f16-b9723ead2a92" d="M24.77,20.35c-1.57,0-6.13-8.29-.86-8.29C26.62,12.06,28.6,20.35,24.77,20.35Z"/><path class="b28b61c5-5dbb-4e61-ae29-8a3cfb2cd8d2" d="M55.63,11.49c0,1,1,1.11,1.71,1.24-2,2.61-1.14,6.14-2,9.14-.13.48-1.32-.41-1.33-.57-.12-1.77,0-3.55-.1-5.33a8.35,8.35,0,0,0-.47-3.43l.19-.19C54.82,13.54,55.16,12.19,55.63,11.49Z"/><path class="fdce5bb2-64cc-4271-8f2a-53dc6ad94ba5" d="M41.86,13.77c-3,1.52-4.58-2-6.67-3-.55,1.11,4.85,5.1,6,5.33C41.2,15.28,41.86,14.57,41.86,13.77Z"/><path class="ba4a5e99-7049-43dc-a98d-48b12482328f" d="M40.77,10.92c.45-1.8-3.33-4.2-4.76-4.38-.13.64,0,.88.57,1.24l.09-.19C37.75,7.8,38.17,10.49,40.77,10.92Z"/><path class="ab55a911-0d0b-4d52-b3db-49be5b557a9d" d="M25.24,16.35c-1.16.29.51,2.78-.76,2.57-1.07-.18-2.31-5.89-1.81-6.09.9-.37,1.11,1.67,1.81,1.9C22.89,15.05,24.46,16.19,25.24,16.35Z"/><path class="b28b61c5-5dbb-4e61-ae29-8a3cfb2cd8d2" d="M26.86,16.83c-.33-2-1.12-3.76-2.95-4.67,1-.5.56.19,1.62.19.2.91,2,2.45,1.43,3.62l.28.09C27.24,16.45,27.44,16.83,26.86,16.83Z"/><path class="a38a8f4c-a7bd-40ae-afc0-aa6479f7fa6b" d="M25.81,22c1.37-1.17,1.08-2.5,2.86-1.91a1.15,1.15,0,0,1-.76,1.05l.1.19C26.73,21.94,27.48,24.47,25.81,22Z"/><path class="fbf626fa-07c9-4d87-bb50-55362068b594" d="M26.2,20h.66l-.09-.38c.52-.13.26-.16.76.09-1,.48-1.2,3.5-2.57,1.43a.67.67,0,0,0,.28-.57c.47-.16.19-.11.86,0Z"/><path class="bbb78799-3f61-4e13-af28-bf69e2b709d7" d="M37.63,9.11c-.13,1.26-2.55-1.12-2.29-1.9.06-.18.35.15.48.28C36.84,8.51,37.82,7.05,37.63,9.11Z"/><path class="f2a9bf0c-695e-44c5-8e6a-633c5eec4db6" d="M24.29,13.59c.2.59.09.18.19,1.24-2.05,0,.64,2,.95,1.42S25.14,13.16,24.29,13.59Z"/><path class="b28b61c5-5dbb-4e61-ae29-8a3cfb2cd8d2" d="M28.29,19.21c0-1.38.07-3.24-.76-4.48-.27,1.36.45,2.75.09,4.19A1,1,0,0,1,28.29,19.21Z"/><path class="b28b61c5-5dbb-4e61-ae29-8a3cfb2cd8d2" d="M8.1,78.17,8.19,78c-.76,0-1.7-1.33-.66-1.43C8.74,76.44,9.08,78.17,8.1,78.17Z"/><path class="b28b61c5-5dbb-4e61-ae29-8a3cfb2cd8d2" d="M7.33,80.84,7.24,81h.19C7.43,84.16,4.15,78.72,7.33,80.84Z"/><path class="b28b61c5-5dbb-4e61-ae29-8a3cfb2cd8d2" d="M7.72,79.12h.19c0,1.23-2,.87-1.62-.28C6.53,78,8.05,78.46,7.72,79.12Z"/><path class="b28b61c5-5dbb-4e61-ae29-8a3cfb2cd8d2" d="M36.48,20.64c.72,0,1.13,1.23,1.24,1.81C36.77,22.26,36.77,21.48,36.48,20.64Z"/><path class="b28b61c5-5dbb-4e61-ae29-8a3cfb2cd8d2" d="M9.72,74.84v.28h.19l-.1.19H10C10,77.62,6.73,74.84,9.72,74.84Z"/><path class="a806d72e-d474-4538-9da3-7ff35c7b97d5" d="M35.05,21.21c0,.29,0,.47.29.47,0,.38.28.74.38,1.15l-.57.09C35.15,22.53,34.41,21.21,35.05,21.21Z"/><path class="b28b61c5-5dbb-4e61-ae29-8a3cfb2cd8d2" d="M39.15,20.83a1.8,1.8,0,0,1-1.52-1A1.22,1.22,0,0,1,39.15,20.83Z"/><path class="fbf626fa-07c9-4d87-bb50-55362068b594" d="M25.15,20.83a1.56,1.56,0,0,1-.57-.19,4,4,0,0,1,1.62-.77v.58c-.74.1-.47.19-.86,0Z"/><path class="b28b61c5-5dbb-4e61-ae29-8a3cfb2cd8d2" d="M29.62,10.54c-.32-1,.77-.95,1.43-.95A2.38,2.38,0,0,1,29.62,10.54Z"/><path class="fbf626fa-07c9-4d87-bb50-55362068b594" d="M42.39,12.54l.09.48c-.45-.16-.72.25-1.23,0-.31.3-.58.19-.86-.1C40.57,12.55,41.85,12.54,42.39,12.54Z"/><path class="b28b61c5-5dbb-4e61-ae29-8a3cfb2cd8d2" d="M9.91,53H9.14L9,52.36C9.67,51.88,9.8,52.4,9.91,53Z"/><path class="b094a004-d23f-4274-8b1d-3ab03d0d33e8" d="M28,21.3l-.1-.19c.49-.16.6-.48.76-.95,1.92,0,4,.94,6,1.05,0,.72.16,1.71,1,1.71.11-.55-.12-.71-.29-1.24h-.19c0-.29,0-.13-.1-.47h-.19a12.7,12.7,0,0,1,1.53-.67c.22.9.34,1.74,1.33,1.91a2.48,2.48,0,0,0-1.14-1.91,2.31,2.31,0,0,1,1.05-.76,2,2,0,0,0,1.52,1c0-.63-.57-.38-.57-.86a2.43,2.43,0,0,1-.76-.19c0-1.21,1.12-1,1.9-.86-.2-.4-1-.33-1.33-.38-.14-1.39-.1-1.39,1.24-1.24-.3-.59,0-.18-1.43-.38,0-.64.08-.4-.1-.76a2.77,2.77,0,0,1,.95-.19v-.19l-1-.1a7.85,7.85,0,0,1-.29-1.9c1.28.85,2.21,2,3.81,2.38,0,2.63-2.24,3.92-1,7.14,2.29,5.72,9.37,3.16,12.1-.47C54.4,20.52,53.85,15,53,12.35h-.19c0-1.39-2.61-3.54-2.19-4.38,1-2,2.83,5.17,4.29,3.71.77-.77-.37-4.54.28-4.67,2.7-.54-.83,4.28,1.53,5s2.13-3.52,3.62-3.15c1.2.31-2.85,4.65-3.43,5.62-1.53,2.54-.32,6.87-1.24,9.63A3.2,3.2,0,0,0,54,22c-2.9,2.9.38,2.05.38,3.33,0,3-5.24,3.53-6.19,5.43-.17.34,2.86,2.77,3.24,3.15,2.11,2.1,3.05,4.66,4.38,7.33-2.67,1.34.41,3.54-.1,5-.88,2.66-3.4,4.52-5.71,5.91-3,1.83-7,2.31-10.38,3.42-1.45.49-2.93,1.95-4.29,2.29-.56.14-1-.13-1.33.38s0,1.39.09,1.91c3.88,0,8.27.17,11.15,3,.84.84,5.41,5.84,6.19,5.9,1.82.15,4.94-.71,6.38-.19s-1.24,2.38-1.24.67a6.61,6.61,0,0,0-1.62.09c-6,.8,1.54,3.83,1.43,4.67S54.48,75,55,73.6c-4.22,0-3.26-3.63-4.86,2.76,1.35.67-.67,2.45-1.14.57,2.16-1.08.1-4.93.1-6.48h-.29v-.19c-.38-.12-.26-.28-.67-.28v-.19h-.28V69.6c-.39-.13-.26-.29-.67-.29v-.19h-.28v-.19c-.29-.09-.67-.15-.67-.48h-.29v-.19c-.28-.09-.66-.14-.66-.47H45V67.6c-.26,0-.38,0-.38-.29h-.29v-.19H44v-.19c-.26,0-.38,0-.38-.29h-.29v-.19h-.28v-.19c-.27,0-.39,0-.39-.28h-.28v-.19c-.28-.1-.67-.15-.67-.48h-.28v-.19c-.83-.27-2.82.82-3.81.86-1.4,0-2.8,0-4.2.09-1,.07-.47,2.09-.47,3.15,0,2.71,3,4.44,4.19,6.47a26.78,26.78,0,0,1,2.76,6.39c3.48,12.16-5.54,18.09-16.38,18.09-2.22,0-3.91-1-6-1.33v-.19c-.4,0-2.77-.82-2.77-1.33-.3,0-.66,0-.66-.38-.29,0-.48,0-.48-.29h-.28v-.19l-.58-.19v-.19h-.28v-.19h-.29V95.7c-.26,0-.38,0-.38-.29-1.17,0-4.13-3.43-4.48-4.48-.4,0-.67-.79-.76-1.14H6.38c0-.77-.71-1.38-.86-2.09H5.33c0-3.43-1.06-6.32.1-9.82,2.53-7.59,14.26-9.54,20-3.81,2.8,2.8,2.08,9.11-2.28,10.2a19.06,19.06,0,0,1-5.34.47v-.19c-.47,0-2.85-.33-2.85-1-.46,0-.33-.33-.77-.48,0-.28-.18-.26-.28-.57h-.19c0-1-.45-1.18-.38-2.57.08-1.85,4.41-3.16,5.23-1.52-.53.53-2.25.86-2.38,1.71-.32,2.29,5,1.71,6.1.57.65-.65,1.36-3.9.19-3.9,0-.55-.86-.58-.86-1h-.28V75.6c-2.32,0-4.39-1.26-7-.67-4.32,1-7.43,7.43-4.57,11.24,5,6.7,17.69,13.21,24.1,4.67,1.3-1.74.74-3.71,1.14-5.72h-.19a11,11,0,0,0-.48-2.19H34.1c0-.8-.61-1.35-.86-2.09h-.19c0-.29,0-.13-.09-.48h-.19v-.28h-.19v-.29h-.19V79.5H32.2c0-1.17-5.83-6.49-7-7.62-.5-.49-1.64-2.76-2.28-2.76,0-.26,0-.38-.29-.38,0-.26,0-.38-.28-.38v-.29h-.2c0-.26,0-.38-.28-.38v-.28h-.19v-.29h-.19c0-.28-.21-.45-.29-.76h-.19c0-.29,0-.13-.09-.48h-.19c0-.32-.22-1-.58-1,0-.55-.34-.88-.47-1.42h-.19c0-1.67-.51-2.56-2.1-3v-.19h-.38v-.19c-.29,0-.13,0-.48-.09v-.19h-.28V59.6a3.15,3.15,0,0,1-1.72-1.72h-.19V57.6h-.19c0-1.05-.77-2.28-.85-3.43.71,2.87,2.35,5.23,5.23,6.19v.19c.68,0,.4-.06.86.09v-1h-.19V59.5c-.35,0-1.62-.24-1.62-.67-.31-.07-.86-.09-.86-.47-.58-.2-1.52-.78-1.52-1.43h-.19c0-.29,0-.13-.09-.48h-.2c-.11-.34-.11-1.14-.57-1.14,0-1.46-1.71-5.62,1.53-4-.36.71.15,1.95-1.15,1.52a4.34,4.34,0,0,0-.09-.95l.95-.1v-.19c-3.29,0-.83,2.09-.09,1.81,1.38-.51.95-2.47-.19-2.85C16,50.4,21,52.25,21,53.21h.19c0-.93,1-1.83,1-2.66.51-.1,1.54-.67.48-.67.5-.5,1.21,0,1.81-.29s.64-1.17,1.14-1.43c-.2-.62,0-.57.67-.66l-.48-.1c3.68-1.83,9.5-1.19,12.86-3.71,2-1.49,1-7.62-.09-7.62A6,6,0,0,0,38,34.54h-.19v-.19c-3.62,0-7.21.55-10.86.1,0-.88-.93-2.38.66-2.38.37,0,.48.17.48.47-1,0-1.38,2.81,1.24.19-1.12-2.23-4.41-.47-2.76,2a1.67,1.67,0,0,1-.86-.95h-.19c0-.26,0-.38-.29-.38,0-.26,0-.38-.28-.38v-.29c-.41,0-1.05-1.32-1.15-1.71h-.19v-.29h-.19v-.28h-.19c0-.29,0-.13-.09-.48H23c-.09-.26-.2-.5-.29-.76h-.19c0-.29,0-.13-.09-.48h-.2c-.1-.31-.21-.95-.57-.95,0-.29.05-.48-.28-.48,0-.29,0-.47-.29-.47,0-.29,0-.13-.09-.48h-.19c0-.3-.05-.67-.39-.67,0-.26,0-.38-.28-.38v-.19c-.32,0-.57.08-.57-.28l-2.67-.67V24a2.11,2.11,0,0,1-.86-.19v-.19c-.32,0-1-.24-1-.57-.53,0-.69.28-1.34.28v-.19h-.19c0-.26,0-.38-.28-.38,0-2.35,5.73,2,4.57-1.52h-.19v-.29h-.19c0-.74-.9-.49-1.43-.66V20h-.19c0-1.42,1.91-1.26,1.52.29,1.9.95,3.69,1.91,2.86-1.43h-.19v-.19c-.56.11-.77.08-.95-.48h-.19c0-.47.26-.52.47-.95,2.16.27,1.4,6.26,3,7.81.59.59,4.77,5.71,5,5.71,1.87.06,3.74.1,5.62.1,2.35,0-.37-.24,1.81,0v-.19a9.74,9.74,0,0,1-3-2.38c-.36-.55.24-1.86-.19-2.58-.08-.13-.44-.28-.57-.38s-.14-.26-.48-.28c-.7-.06-1.4,0-2.09-.1C26.68,24.73,27.12,21.75,28,21.3Z"/><path class="bec80565-f83b-4e69-a85a-01d61d77a4e3" d="M36.48,80.74l-.09.19h.19c-.16.33-.06.38.28.38a4.14,4.14,0,0,0,.29,1.62h.19a26.37,26.37,0,0,1,.76,3.43l.19-.09a11.4,11.4,0,0,1-.38,3.14h.19a2.75,2.75,0,0,0-.76,1.14c-.43-1.28.1-3.74.1-5.14,0-2.25-1.89-4.12-2.58-6.19-.32,0-.28-.19-.28-.48h-.19v-.28H34.1l.1-.19c-1-.49-1.65-2.7-2.48-3.53-3.92-3.92-9.93-13.51-4.57-18.86l-.1-.19c1.18-.59,2.71-2.22,3.81-3,.52-.38,1.52-.19,2-.66,1.57.78,5.65-2.07,7.24-2.39.35-.07.76.18.76-.28,2.47-.82,7.72-3.64,8.1-6.86.24-2.07-1.33-3.37-1.33-5.05h-.19v-.28h-.19a4.34,4.34,0,0,0-1.81-2.58c0-.6-1.36-1.83-1.81-2.28.71-.72,4.45,4.51,4.76,5.43h.19c0,1.26,2.23,4,.86,5a2.89,2.89,0,0,1,.09,1c-.79.16-.63.58-.85,1.24-.53,0-.84.24-.58.76-1,.65-2.62,3-3.81,3l.29.1c-.16.31-2.48.95-3,1.23,1.43.15.64.06,2.38.29-1.28.64-2.78-.4-4.09.48.67.22,1.31.49,2,.66-.13.26,0,.16-.29.29h.19l-.09.19c-1.25-1.24-2.76-.91-4-.29-.33-.65-1.07-.12-.77.48-.41,0-.39-.23-.85,0v-.19c-.64,0-1,.14-.67.86h-.19c0-.75-1.55-.49-1.72.19-1.48-.75-4.49,2.19-5.33,3h.29c-.35.12-.33.23-.58.48l.29.09c-.53.09-1,.16-.67.76-.27.14-.15.25-.38.48.26,0,.14,0,.38.1-1.16.19-.44.7-.85,1.52l.28.1c-.91.18-1,2.09.19,2.09-1.38.23-1.05,1.33.1,1.52-1,.14-1,.48-.57,1.24-.91.91.36,1.17,1,1.24,0,.4-.26.27-.57.19-.27.4-.17.61.28.76-.52,1,.29,1.15,1.05,1.24-2,.28,3.86,6.48,3.91,6.48v.19h.19c.71,2.14,3.22,3.84,3.81,6.19C36.26,80.8,36.28,80.74,36.48,80.74Z"/><path class="a38daf53-69bc-4391-b4f9-54d29e180d1b" d="M13.34,55.21C13,54,11.22,54.06,10.1,54,7,53.76,6,54.63,3.71,56.55c-.37.32-.07,1.23-.76,1.33-1.46.21-1.21-2.23.38-1.43C7.41,52.38,0,54.66,0,53.12c0-1.32,4.22.84,4.86-.86.7-1.87-2.67-1.66-2.67-2.86s2.09-.64,1.52.48c1.14.57,2.29,2.19,3.53,2.19,2.86,0,5.23-2.7,8.19-1.71-.54.27-1.21.07-1.81.19C12.76,50.72,13.41,54.38,13.34,55.21Z"/><path class="be9448df-b5ff-4cf5-9b47-8cba6c820249" d="M20.38,21.78c.22.85.13,2.11.58,2.86,1.63,2.73,4.67,4.88,4.85,8.19-.54,0-1.92-2.6-2.28-3.14a31,31,0,0,0-3.24-4.77c-.76-.75-2.52-.72-3.43-1.33a6.58,6.58,0,0,0,1.91-1.53C19.52,22.57,19.82,22.34,20.38,21.78Z"/><path class="a40f3d16-4d03-4797-8813-d4d0b49f9d6a" d="M14.19,95.51c6.88,4.58,13.68,4.11,20.77.57-3,4.55-11.6,3.85-15.72,2.48C18.24,98.22,14.19,96.54,14.19,95.51Z"/><path class="f64ff5a9-cd9f-4c72-8199-7ae10b657d91" d="M23.81,57.21c0,.32,0,.77.38.77a13.14,13.14,0,0,0,1,3.43h.19a16.8,16.8,0,0,0,2.09,7.9c-2.71-1.81-2.87-6.82-4.95-9.43-.55-.69-1.71-2.12-1.05-3.05C22.86,54.84,22.83,57.21,23.81,57.21Z"/><path class="a55e949d-87a8-4e6d-9817-7346ebe8f449" d="M48.1,30.92c1.44-2.87,8.62-3.63,6.2-8.47-1.28.79-1.62,1.59-.1,2.09.31-.61.16-1-.48-1.24l.19-.28c2.12.7-.3,3-1,1.24s2.1-3.12,2.57-.77-4.76,7-6.1,8.29C49.18,31.93,48.29,31,48.1,30.92Z"/><path class="b97a93ce-c9a6-46a5-9482-5da8864ec42d" d="M35.15,90.46c0,5.08-10.6,5.85-13.15,4.57C27.51,94.24,31.5,95.32,35.15,90.46Z"/><path class="fadeb195-5a61-43ed-8fda-1c5d58f5136b" d="M42.48,30.64c-1.56-.31-7.88,0-9-1.72-.34-.51,0-.63.39-1,2.19-1.75,4.55.22,6.47.86V29h.29v.19H41c0-1.43-4.09-2.9-4.86-4.19-.87-1.46.94-1.82,1.91-1.24,1.45.87,1.33,3.94,3.52,4.67v.28h.38A7.23,7.23,0,0,0,42.48,30.64Z"/><path class="b617018e-dda9-4335-bda2-917b2680b645" d="M16,50.83c0,.57.43,2.77-.95,2.57-.2,0-.9-.1-1-.38-.41-2.17,1.33-1.83,1.33-1.24h-.86c-.29,2.61.87.08,1.15-.47-3,0-2.51,1-1.53,4h.19c0,.39.29.75.38,1.14H15c0,.29-.05.48.28.48,0,.63.93,1.28,1.52,1.43v.19c.3,0,.52.22.86.28V59a9.29,9.29,0,0,1,1.62.48v.19h.19v1a2.71,2.71,0,0,1-.86-.09v-.19C14.8,60.36,9.87,49.3,16,50.83Z"/><path class="ad3a514a-42eb-43c4-a611-143b0d23660f" d="M16.76,73.69v.19c-3.5,0-6.9,3-8.38,5.91C7.24,76.37,14.23,73.69,16.76,73.69Z"/><path class="ae706da0-da0f-43bc-a378-2e4d558857c0" d="M29.34,32.73c-1.58-3.15-5.45,1.8-1.33,2.19,1.41.14.64.09,2.38.19.57,0,1.14.08,1.71.1l2.76.1c1.18,0,2.35.09,3.53.09a3,3,0,0,1-.38-.86h-.19v-.19c-3.62,0-7.21.55-10.86.1,0-4,2-2,1.52-1.05C29.14,33.73,29,33.09,29.34,32.73Z"/><path class="a04b262f-0d0c-47b9-8fe7-9ce89a2b8db7" d="M39.25,63.12c.46-1.39,3.71-2.53,3.71-.48h.19c0,2.68-5,2.21-5.43,3.15a31.3,31.3,0,0,0-4.38,0c0-2.29,8,.63,9.14-2.77.5-1.49-2-.72-2.47-.28s1,1.21,1.33.19c-.6-.12-.32-.14-.86,0,.37-.73,2.65-.51-.47,1A2.73,2.73,0,0,0,39.25,63.12Z"/><path class="e9074013-1236-4c48-88db-2cb8ab87ac3a" d="M43.34,36.73v.19c.65,0,1.14.77,1.72,1,0,.26.52,1,.76,1,0,1.87,1,4.5,1,6.57h-.19C46.68,44.24,39.36,35.94,43.34,36.73Z"/><path class="bfb1fffb-146c-43d9-b827-727891ec89de" d="M25.34,76c-1.35-2.7-4.71-4.09-7.62-4.67C19,68.74,24.88,74.14,25.34,76Z"/><path class="a8b5b26f-20b6-41c0-8f53-665cb89b1fd2" d="M37.82,50.45l-.19-.09A16.25,16.25,0,0,1,40.77,47c-2.17-6.5-3.26,3-5.24,4A3.84,3.84,0,0,0,37.82,50.45Z"/><path class="a67f9f44-ff5b-49b9-897d-7941e263c88e" d="M17.81,51.5c1,3,3.67,0,2.1,4.76-.21.62-.11,1.63-.57,2.1C18,57.68,16,56.56,15.62,55l.38-.09c-.3-1.2,1.61-.79,1.15-1.72C17.59,52.77,17.53,52.07,17.81,51.5Z"/><path class="b4f06b1c-0a48-4b20-840a-c423887dea6c" d="M33.82,47.69c0,.37-.31,1.1-.19,1.33a12.6,12.6,0,0,0-2.29,3.24l.28.1c-.78.39-1.95,1.62-2.85,1.62C30,52.21,30,46.4,33.82,47.69Z"/><path class="ac79b63a-3480-46a6-a9ee-ac2c4afac9bc" d="M31.15,72.74v-.19H31c0-1.53-1.42-3.73-.1-5-.51-1,.7-4.06.48-5.14-.27-1.34-2,0-2.19.76C28.39,66.15,28.33,70.63,31.15,72.74Z"/><path class="b9aec0cc-0ebc-48c9-931f-d7bf20962d00" d="M43.25,30.54c0-1.07-.52-1.6-.29-2.76h-.19c0-2-1.94-3.53-3.91-3.81C38.59,24.53,42.87,30.35,43.25,30.54Z"/><path class="e7a10c79-1721-4458-b4eb-43859077d94c" d="M39.25,63.12c-.63-1.25-1,.53-1,.76.49.13.31,0,.57.38-.33.07-.67.24-.67-.19a15.7,15.7,0,0,1-2.28-.19,7.88,7.88,0,0,1-2.39-.57c-4.33-2.16,6.67-3.6,6.67-1.81,0,.55-.94.57-1.33,1h.28v.19C39.41,62.64,39.34,62.84,39.25,63.12Z"/><path class="b9f24988-0ddb-427c-a354-923116816387" d="M34.77,56.07c-2.15-.43-4.56.51-6.67-.19,1.31-1.3,9.35-4.52,8.86-.86C36.83,56,35.08,55.45,34.77,56.07Z"/><path class="b0bc5ff8-f6dd-4fc6-ae0b-2df2e0c211f2" d="M30.39,73.12c-1.94,0-4.39-2.21-5.15-3.71.32-.33.64-.2,1.05-.1v.19c.29,0,.13,0,.48.1v.19C28.14,69.79,29.54,72.28,30.39,73.12Z"/><path class="bab37a23-278d-4e04-92ed-639c7715d59d" d="M49.44,33.5l.09-.19h-.19c0-.56-1.56-.92-1.62-.39-.27,2.57.94,4.81,1.72,7.15C49.94,38.58,50.42,34.48,49.44,33.5Z"/><path class="bd99e570-d7f1-4463-9e9e-0da010208e63" d="M35.53,51l.38.1a24.85,24.85,0,0,1-2.86.86c.52-.78,2.59-4.48,3.81-4.48A5,5,0,0,1,35.53,51Z"/><path class="be6737ac-50e2-4359-af32-6307264c9646" d="M44,30.83c0-.58.22-.48.38-.95l.57.19c.68-1.36,2.2-1.44,2.86-2.77-1.38,0-4.88,0-4.29,2.39-.47.23-.18,0-.28,1A2.38,2.38,0,0,0,44,30.83Z"/><path class="b8b6a7fb-30dc-4627-bf24-e0f11026d5a0" d="M43.91,32.07c-1.8,0-7.2,1-7.71-1.62,1.23-.62,3.86-.08,5.24.38V31C42.26,31,43.67,31.11,43.91,32.07Z"/><path class="ee6aad6c-7212-48f2-a1c0-5bb62b1bf941" d="M43.91,50.26c-6.66-.33,4.68-1.81,5.62-1.81,1.52,0,.63,1.67-.57,1.72C47.28,50.22,45.59,50.34,43.91,50.26Z"/><path class="a76e2d18-8727-40d3-9b66-c2b56d5f4cd1" d="M46.58,45.78A9.38,9.38,0,0,1,43.15,42C44.49,40.64,46.58,44.68,46.58,45.78Z"/><path class="a988edde-4b1d-445c-9d98-30de7e83bedc" d="M24.67,63.69h-.28l.09-.19c-.39-.13-4.74-3-3.05-3.33s1.82,2.57,3,2.57C24.49,63.06,24.59,63.37,24.67,63.69Z"/><path class="a2eae447-b43d-4473-8514-afa5a7378301" d="M42,28.73h-.48v-.28c-1.06-.36-2.86-2.21-2.86-3.43C39.32,25.45,42,28.05,42,28.73Z"/><path class="bbece61f-53be-48b4-9d83-4134762e96c8" d="M32.2,75.41C31,75.41,28,74,27.72,72.84c.72-.08,3.62.78,3.62,1.71C31.73,74.68,32,75.06,32.2,75.41Z"/><path class="a974da4c-0ab5-4c8f-813e-41c49b231ae0" d="M47.63,39.4h-.19c-.08-.24-.95-1.78-1.24-1-.75,1.87,2.08,4.61,1,6.67C47.94,45,47.73,39.93,47.63,39.4Z"/><path class="a7589d47-49df-4cbe-9eb6-cd2bbe9ebd52" d="M41.82,51.5a4.54,4.54,0,0,1-1.72-.57c-1.34-.81,6-.61,6.38.19.21.48-.26.84-.66.86-.61,0-1.21.09-1.81.09A19.43,19.43,0,0,1,41.82,51.5Z"/><path class="a7db306e-8ade-4ef1-9d14-0d8cd601a1ca" d="M51.06,35.11a15.92,15.92,0,0,0,.38,2.58c-.27.13-.19.27-.29.57l.19.09c-.3.61-1.06,2.78-1.62,3C49.72,40.41,49.48,35.11,51.06,35.11Z"/><path class="a46f2e88-1ad0-4ed9-9f79-5534d44a84df" d="M49.82,41.4c.57-1.33,3.82-5.29,2.28-1.71C51.66,40.72,49.09,43.12,49.82,41.4Z"/><path class="b447ffd5-dcc8-44ba-9b11-9842fc05950b" d="M29.62,71.12A20.9,20.9,0,0,0,27.53,68c.53-1.06,1,.44,1-1.24.57,1.15.11,3.17,1.14,4.19Z"/><path class="ff417925-8047-4973-b135-0e510939afc6" d="M31.53,28.07c-.45,0-2.7-2.45-3-3C31.24,24.82,31.53,25.66,31.53,28.07Z"/><path class="a3a965f4-3b59-4319-8d76-8f2bc28daa64" d="M27.43,55.31c.54-1.07-.09-4.48,1.91-4.48A5.16,5.16,0,0,0,29.05,53h.19C29.24,53.73,28,55.05,27.43,55.31Z"/><path class="b0bd6137-be6d-459a-8b8a-8da903cc874a" d="M33.91,77.88c-.95,0-3.24-1.52-3.52-2.38C31.88,75.32,33.26,76.59,33.91,77.88Z"/><path class="bf02db32-914e-4f3c-8859-bb5d2271dad1" d="M44.77,41.88c.78.78,1.2,3.26,2.1,3.71l-.29.1C46.36,44.81,44.6,42.4,44.77,41.88Z"/><path class="e15053cb-4d3b-4a99-b0ff-a6d8603e275b" d="M35.91,53.59a34.15,34.15,0,0,0-6.1.77c1.31-1.31,3.11-1.26,4.58-1l-.1.19Z"/><path class="ac75d83e-6e8e-4a16-ac81-227c0d9c341a" d="M41.63,51.88c-.39-.21-3-1.63-3-.57C38.67,52.53,44.37,53.39,41.63,51.88Z"/><path class="bc4e728a-8f11-421e-b106-e2493160abc7" d="M32.1,74.17c.8.46,0-1.84,0-2.76C31.9,67.84,29.47,72.67,32.1,74.17Z"/><path class="b64ec7dc-a3cb-4be3-9331-d9d54110f621" d="M35.53,80.46c-1.07,0-2-1.48-2.86-1.91C33.47,77.36,35.2,79.79,35.53,80.46Z"/><path class="ba7d5d45-fa79-450c-b586-f87abcd8c0aa" d="M35.05,78.36c1.08.71,0-.27.1-1.81C35.5,71.94,32.4,76.62,35.05,78.36Z"/><path class="b208b3c5-7357-4543-b6e3-2c3eeb745b58" d="M22.86,62.93v.19a3.55,3.55,0,0,1,1.81,1.62C22.79,64.74,19.69,62.14,22.86,62.93Z"/><path class="e425b999-34a2-4bf1-8540-86cfc9f3bfa7" d="M42.1,28.45c.34,1,1.83,2.6,1.72,3.14C42.82,31.34,41.52,29.32,42.1,28.45Z"/><path class="a8791256-cedd-47da-b6a0-8a4189594253" d="M37.72,30.26a7.87,7.87,0,0,1,5.34.85A4.44,4.44,0,0,1,41.44,31v-.19A31.87,31.87,0,0,1,37.72,30.26Z"/><path class="e7bcff9e-bf8a-4c2e-b6b3-882970b32099" d="M55.82,41.21a9.16,9.16,0,0,1,.19,4.1C54.46,45.31,54.49,41.88,55.82,41.21Z"/><path class="a8566068-2c2f-4aa1-b43b-b8fdb3c34d96" d="M23,49.59a9.69,9.69,0,0,1,2.47-2l.19.57C24.19,48.88,25.35,49.59,23,49.59Z"/><path class="bd744e88-d92e-4554-ac7a-d5c2799c0029" d="M54.49,25.21c1-1.31.44-1.5-.19-2.76-1.28.79-1.62,1.59-.1,2.09.31-.61.16-1-.48-1.24l.19-.28C55.46,23.53,54,24.68,54.49,25.21Z"/><path class="f2121480-878e-4144-ae35-e8ce393e83bf" d="M36.67,83.22a4.78,4.78,0,0,1-2.28-1.81C35.36,80.43,36.67,82.28,36.67,83.22Z"/><path class="ac5d856c-80ca-4b5d-84de-d128ffa230f0" d="M46.68,40.35c.2,1,1.4,5,.19,5C46.87,44.89,46.27,41.17,46.68,40.35Z"/><path class="aac51387-1825-4cf3-8259-de394f0d2827" d="M38.1,88.27c.57-.29,1.34-2.57,1.34-3.24C38.14,85,38.1,87.41,38.1,88.27Z"/><path class="f085a4c7-a7cd-4008-a651-973fb212bacf" d="M37.34,79.5a4.24,4.24,0,0,0-.19,3.43C37.92,82.93,38.75,79.79,37.34,79.5Z"/><path class="b37a9214-4051-4a4e-98d2-1f17726a5458" d="M25.62,56.07a2.23,2.23,0,0,1-.85-1c1.45-1.45,2.13,2.29.57,2.48C24.43,57.61,24.73,56.22,25.62,56.07Z"/><path class="eb751a11-5829-4dbc-87b0-d852ac8277c7" d="M33.53,76c-.09-1.23,0-2.28,0-3.52C31.54,71.79,32.57,76,33.53,76Z"/><path class="a03edca8-c8ae-4521-a345-ae093f063d10" d="M35.53,51c.64-.64.76-2.28,1.52-2.66A3,3,0,0,1,35.53,51Z"/><path class="b8d0251f-cab9-42b9-b7d7-34eb9b7aaaf0" d="M38,85.41c-.26-.76-.51-3.24.85-3.24A6.64,6.64,0,0,1,38,85.41Z"/><path class="a03bf627-6c43-435e-be87-4ed70376e9de" d="M36.2,80.36c.64-.32.19-2.49.38-3C35.14,77.31,35.24,79.4,36.2,80.36Z"/><path class="a185fbaf-17c4-466d-8b01-ce9e9a5b8637" d="M37.53,88.17C37,88,36,87.05,36.1,86.36,36.36,85.07,37.91,88.31,37.53,88.17Z"/><path class="b7175cb3-a024-4fd1-8ef7-a8dd5659ca6b" d="M28.86,33.5c0,2.54-3.12-2-.57-.77-.61.13-.76.27-.76.86C28.34,33.69,28.24,33.5,28.86,33.5Z"/><path class="b22e4c0f-2eff-43ee-8509-1f9fe9ad7dde" d="M11.43,73.6l-.09.19h.19l-.1.19h.19C11.62,77.05,8.27,72,11.43,73.6Z"/><path class="ab1640b2-f38c-4216-84a2-95e9774c9d2a" d="M28.29,67.69a1.31,1.31,0,0,1-.76,0c-1.44-.29.64-2.52.95-1C28.65,67.58,28.81,67.47,28.29,67.69Z"/><path class="a7aeeb5d-8501-4b92-9ea1-45a232dedae7" d="M27.15,63c-.62,0-1.85-1.15-.67-1.42S27.9,63,27.15,63Z"/><path class="bc81f5cf-7137-4583-8a09-ac6b5d70cc8a" d="M37.24,90.46a2.77,2.77,0,0,1-1.14-1.91C37,88.37,37.51,89.67,37.24,90.46Z"/><path class="e4b8fd30-c90b-45f4-b271-4ecc388a579c" d="M25.15,96.75c.49-.17,1.68,1,.85,1.33C24.87,98.46,24.08,97.1,25.15,96.75Z"/><path class="f8206d11-2c76-4fc7-a619-fd0de4beb133" d="M27.53,65.5a1.51,1.51,0,0,1-.76,0c-1.15-.23.32-2.43.95-.86C27.92,65.15,28.1,65.31,27.53,65.5Z"/><path class="e24663f4-ec62-471f-830f-b7468bc33bc2" d="M34.1,59.5c-.61-1.22.12-1.62,1.14-1.62C34.83,58.35,34.5,59.1,34.1,59.5Z"/><path class="a2cdb17a-5d1a-4a2b-b307-997f27351801" d="M22.67,64.74a3.1,3.1,0,0,1,1.14.09V65a2.87,2.87,0,0,1,.77.19v.19c.35.11.24,0,.38.28C24.22,65.69,22.87,65.53,22.67,64.74Z"/><path class="e4d2314f-d411-4c77-afb0-f6f8b4ba1501" d="M20.77,96.46l-.1.19h.19c0,.77-.19.39-.19.86C18.63,97.32,19.37,95.53,20.77,96.46Z"/><path class="bf9162e9-c47b-4f15-9643-d16b5fe35070" d="M45.06,34.83l-.1-.19c-.45.11-.26.15-.57,0l.57-.1c-.34-.11-1-.77-.67-.85,1.17-.3.65.85,1.43.85C45.16,34.66,45.36,34.52,45.06,34.83Z"/><path class="f04ff5fa-22da-4eba-9287-de8edd97a01a" d="M28.1,32.35c1,0,.6,1.39-.57,1.24,0-.62.15-.73.76-.86C28.06,32.5,28.1,32.63,28.1,32.35Z"/><path class="e54c6781-4f9f-404a-b6a0-06be111ff0c2" d="M23.43,66c.3-.24.77,0,1.15,0C26.78,66.12,21.92,67.16,23.43,66Z"/><path class="f047bcc9-4783-4803-9d96-3b62e42b1e84" d="M34.67,52.55l-.19.09c.81.41-.81,1.11-.95.29S34.19,52.31,34.67,52.55Z"/><path class="ff1a2b78-05dc-4f6b-a055-0100933d954a" d="M33.63,32.45h.19c0,1.47-1.78-.18-.86-.38C33.55,31.94,33.51,32.11,33.63,32.45Z"/><path class="b73c3e0a-a692-4182-8f9d-76335108b900" d="M26.48,60.36c-.69-.35-.2-1,.48-.86C27.43,59.62,27.41,60.82,26.48,60.36Z"/><path class="b25d9905-a383-42b2-a596-0ef2ad54cdf3" d="M49.06,44.45c-.36-.92.56-1.11.85-.38A.47.47,0,0,1,49.06,44.45Z"/><path class="a8954d59-b68a-4c35-acf9-3e65314818cc" d="M32.67,96.46c-.24.12-.19,0-.19.29l-.47.09.28-.09C30.74,96.43,32.24,95.15,32.67,96.46Z"/><path class="fc686f4a-814f-4149-8f07-7ff4c6c92882" d="M49.06,45c0,.32,0,.13.09.57-.25.13-.19,0-.19.29C47.8,45.88,47.72,44.58,49.06,45Z"/><path class="a933eb5a-96c7-4f70-b3f4-82f3d76b3310" d="M16.76,72.17c0,.65.33.89-.47,1l.28-.1C15.61,72.74,15.61,72.17,16.76,72.17Z"/><path class="a8ea7496-8781-495f-9082-ac6a74a77310" d="M28.29,56.64c0,.64.31.8-.48,1l.29-.1C27.23,57.15,27,56.48,28.29,56.64Z"/><path class="b68016ba-8ca2-470a-8e7a-37e0d96eafa6" d="M14.57,94.17c-.24.13-.19,0-.19.29C12.57,94.2,14.12,92.82,14.57,94.17Z"/><path class="ac715931-5052-4bdb-a2c6-1a2919d77d86" d="M30.77,96.46v.19H31c-.17.34-.11.12,0,.67C30.11,97.6,29.28,96.46,30.77,96.46Z"/><path class="a362f8b0-4af7-4279-a935-3da972121fd6" d="M47.06,36.92c-2.2-.73-1.06-.86.09-.28Z"/><path class="f11d3546-e5c0-4df1-be02-380b5adbe7fb" d="M24.1,76.27h-.38l.28-.1C22.13,75.79,24.73,74.39,24.1,76.27Z"/><path class="a83de7f4-8828-482d-9ab9-29fb982742f8" d="M25.05,76.93c-.15.3.05.47-.09.76C23.72,77.52,23.86,76.53,25.05,76.93Z"/><path class="bb0e6c77-4345-4b22-97c2-97fe3c8a8f9b" d="M35.24,32.16v.19h.2C34.55,34.11,34.09,32.16,35.24,32.16Z"/><path class="f3a070f4-affe-4f58-8453-6e129698c2e9" d="M14.29,73.31l.09-.19C12.32,72.09,16.9,73.31,14.29,73.31Z"/><path class="f8de6c38-567b-41c3-abd1-319a38dae1e2" d="M35.34,52.74c0-.76-.26-.86.67-.86v.19h.19v.67Z"/><path class="b9441308-85f9-4740-b1f7-5d438c875158" d="M49.72,27.21v.19h.19C49.31,28.6,48.2,27.21,49.72,27.21Z"/><path class="fe0395d7-71ab-4018-8322-d933123db382" d="M26.86,58.64c-.38-1.13.52-.86.76,0Z"/><path class="a63664f0-af14-4894-837f-1f64198a5b04" d="M41.34,49.12c-.25.12-.12.09-.38.09C40.77,49.78,39,48.54,41.34,49.12Z"/></g></g></g></svg>