<svg xmlns="http://www.w3.org/2000/svg" viewBox="0 0 97.45 100.05"><defs><style>.eb4a8240-3740-41fc-9204-f8342fe42c0e{fill:#ffe000;}.e1feb31a-8456-474b-8e9b-004d75163b65{fill:#fff255;}.b16bf624-837e-4861-a7d5-c6ad0bafe122{fill:#aa350c;}.a01eafa0-c233-470d-a14b-893d64c10c39{fill:#8e0707;}.aab92c69-d1f0-495c-9ba2-f6520901d67b,.bcf2317e-1b87-4017-9cd1-e41d9dd287cc{isolation:isolate;}.aab92c69-d1f0-495c-9ba2-f6520901d67b{opacity:0.17;}.bcf2317e-1b87-4017-9cd1-e41d9dd287cc{fill:#fff;opacity:0.25;}</style></defs><g id="fee1398e-9ea5-40ad-a8fe-777763968f62" data-name="Layer 2"><g id="a57b171d-7190-4db2-a892-b638889a3f7c" data-name="Layer 1"><g id="adc9e809-198b-43be-9480-86ca24cc854a" data-name="e175d439-cb64-4dfc-a0d9-cca4b6390a26"><g id="ffa164da-8e2c-4a29-b87a-2fa06610ac5c" data-name="ad1a20b0-351e-4219-91d9-537db609e9a4"><g id="a2e4aeaa-0a1a-45a4-a6b2-fe89c65ac14c" data-name="ff1d6071-2d15-4263-99f2-89512a0f68ac"><path class="eb4a8240-3740-41fc-9204-f8342fe42c0e" d="M30.58,48.22c0,.1.08.2.11.3a5.13,5.13,0,0,1,0,2.37l-.09.38c0,.07,0,.15-.06.21a.3.3,0,0,1,0,.1,0,0,0,0,0,0,0l-.09.31a13.13,13.13,0,0,1-.57,1.47,2.11,2.11,0,0,1-.16.34c-.16.35-.32.69-.53,1.06a2,2,0,0,1-.35.51l-.13.1a6,6,0,0,1-2,.75c-.21.05-.44.1-.69.14h0c-.44.09-.9.17-1.41.25h-.05l-1.33.18h0l-1.1.11h0c-.74.07-1.51.12-2.32.17l-1,.05-.89,0c-.8,0-1.63,0-2.44,0-4.77,0-9.57-.57-12.07-2a4.86,4.86,0,0,1-.91-.65,3.07,3.07,0,0,1-.86-1.35,2.21,2.21,0,0,0-.05-.25v0a2,2,0,0,1,0-.59,2.45,2.45,0,0,1,.08-.29,1.34,1.34,0,0,1,.12-.3,1.62,1.62,0,0,1,.1-.18A3.11,3.11,0,0,1,2.16,51a4.29,4.29,0,0,1,.68-.53c.11-.08.23-.15.35-.22A18.1,18.1,0,0,1,6,49.06c.51-.19,1.06-.37,1.64-.54l.81-.24a2.13,2.13,0,0,1,.3-.09L9.58,48c.5-.13,1-.26,1.54-.38l.61-.15.1,0,.83-.18.12,0,1.41-.29a1,1,0,0,0,.24,0h0l.5-.08,1.45-.25.21,0a1.18,1.18,0,0,1,.25,0h.06l.51-.07,0,0,.58-.08.48,0,.28,0h0l.2,0c.27,0,.52-.07.78-.09h.14l.62-.06.76-.06,1.78-.09h1.22l.7,0h.28c.63.05,1.23.1,1.76.18h0l.21,0,.11,0,.39.08s0,0,.05,0l.32.08.34.1.33.12.22.09s0,0,.05,0h0l.05,0h0a2,2,0,0,1,.37.22.41.41,0,0,1,.13.1,1,1,0,0,1,.16.12l.15.16A3,3,0,0,1,30.58,48.22Z"/><path class="e1feb31a-8456-474b-8e9b-004d75163b65" d="M30.58,48.22c0,.1.08.2.11.3a5.13,5.13,0,0,1,0,2.37l-.09.38c0,.07,0,.15-.06.21a4,4,0,0,0-.74-3.89,1.36,1.36,0,0,0-.12-.12l-.14-.11a2.66,2.66,0,0,0-.53-.34l0,0a6.18,6.18,0,0,0-1-.36h0l-.72-.16a15.43,15.43,0,0,0-2.13-.24l-.15,0H24c-.33,0-.66,0-1,0-.9,0-1.84.09-2.82.17L19,46.52l-1.42.19h0l-.2,0c-1,.14-2,.31-3,.49-.76.14-1.51.29-2.24.45-.31.06-.63.14-.93.21a35.3,35.3,0,0,0-8.07,2.7,4.36,4.36,0,0,0-1.11.8,2.51,2.51,0,0,0-.51.82,1.11,1.11,0,0,1,.08-.3,1,1,0,0,1,.12-.29,1.62,1.62,0,0,1,.1-.18A2.45,2.45,0,0,1,2.19,51a3.84,3.84,0,0,1,.68-.54c.11-.08.23-.14.35-.22A16.81,16.81,0,0,1,6,49.05c.51-.19,1.06-.37,1.64-.54l.81-.24a2.13,2.13,0,0,1,.3-.09L9.61,48c.5-.13,1-.26,1.54-.38l.61-.14.1,0,.83-.19.12,0,1.41-.28.24,0h0l.5-.08c.48-.09,1-.17,1.45-.24a.78.78,0,0,1,.21,0l.25,0,.05,0h0l.52-.07h0l.58-.08.47-.06.29,0h0l.19,0,.78-.09h.15l.62-.06.76-.06,1.78-.09h2.2c.62,0,1.23.1,1.76.18h0a.76.76,0,0,0,.21,0,.19.19,0,0,1,.1,0l.4.08s0,0,0,0l.32.07a2.24,2.24,0,0,1,.34.11l.33.12.21.09s0,0,.06,0h0l.05,0h0a2.67,2.67,0,0,1,.36.22.71.71,0,0,1,.14.1l.16.13.15.15A3.05,3.05,0,0,1,30.58,48.22Z"/><path class="eb4a8240-3740-41fc-9204-f8342fe42c0e" d="M32.8,33.89a2.55,2.55,0,0,1,.18.53h0c0,.1,0,.19.06.28l.06.28c0,.05,0,.09,0,.13s0,.25,0,.37a5.81,5.81,0,0,1,0,.59,4.15,4.15,0,0,1,0,.49s0,.07,0,.12,0,0,0,0a4.46,4.46,0,0,1-.07.51s0,.08,0,.13a4.42,4.42,0,0,1-.14.52s0,0,0,0v0a8.9,8.9,0,0,1-.51,1.42,3.1,3.1,0,0,1-.3.57,7.56,7.56,0,0,1-.58.93,3,3,0,0,1-.22.28,3.07,3.07,0,0,1-.29.34l-.28.29a4.71,4.71,0,0,1-.41.35,1.64,1.64,0,0,1-.25.19l-.43.28-.39.2-.22.09-.47.17a2.8,2.8,0,0,1-.31.09l-.32.08-.35.06a6.88,6.88,0,0,1-1.11,0,3.07,3.07,0,0,1-.53,0l-.39-.06a.69.69,0,0,1-.24-.05,2.88,2.88,0,0,1-.4-.09,4.1,4.1,0,0,1-.59-.2h0s0,0,0,0a1.33,1.33,0,0,1-.28-.1h0l-.2-.08c-.46-.39-.93-.83-1.42-1.3s-1.22-1.16-1.84-1.81h0C20,39,19.45,38.48,18.92,37.9c-.33-.36-.67-.73-1-1.11-.21-.23-.42-.47-.62-.72-1.23-1.4-2.44-2.93-3.55-4.48h0a45.27,45.27,0,0,1-3.52-5.66c-.4-.78-.78-1.57-1.1-2.35A14.71,14.71,0,0,1,7.7,18.34v0a.11.11,0,0,1,0-.05,1.1,1.1,0,0,1,0-.25.11.11,0,0,1,0-.08c0-.09,0-.18,0-.26a0,0,0,0,1,0,0,2,2,0,0,1,.07-.26v0a1.76,1.76,0,0,1,.24-.42l.14-.15a1.33,1.33,0,0,1,.43-.28.79.79,0,0,1,.26-.08,1.5,1.5,0,0,1,.29-.06h.23a3.35,3.35,0,0,1,.63,0,7,7,0,0,1,1.43.39,32.58,32.58,0,0,1,6.86,4l.15.11h0c2.14,1.54,4.39,3.37,6.53,5.24l0,0h0c.83.72,1.64,1.44,2.43,2.17h0l.41.37h0l.39.37,1.59,1.56.29.27.82.82.4.41h0l.38.39h0l.42.43.4.44C32.67,33.61,32.74,33.75,32.8,33.89Z"/><path class="e1feb31a-8456-474b-8e9b-004d75163b65" d="M35.76,37.55a.7.7,0,0,1,.06.19h0a2.28,2.28,0,0,1,0,.69,1.59,1.59,0,0,0-.07-.38l-.09-.22h0a8.4,8.4,0,0,0-.81-1.2c0-.09-.13-.18-.19-.27L34,35.55c-.3-.35-.63-.73-1-1.13h0c-.42-.46-.88-1-1.37-1.46a.07.07,0,0,0,0,0l-.48-.49c-1-1-2.12-2.09-3.3-3.2s-2.19-2-3.35-3c-2.05-1.76-4.17-3.47-6.2-4.93a31.76,31.76,0,0,0-6.82-4A4.11,4.11,0,0,0,8.62,17a1.58,1.58,0,0,0-.91,1.32,0,0,0,0,1,0,0,2.11,2.11,0,0,1,0-.25V18c0-.09,0-.19,0-.27v0a2.68,2.68,0,0,1,.07-.27l0,0a1.75,1.75,0,0,1,.22-.43l.14-.15a.74.74,0,0,1,.2-.16,1,1,0,0,1,.23-.12.79.79,0,0,1,.26-.08,1.5,1.5,0,0,1,.29-.06h.53l.32,0a7.31,7.31,0,0,1,1.44.39,32.55,32.55,0,0,1,6.85,4l.15.12c2.14,1.54,4.39,3.37,6.53,5.23l0,.05h0c.82.72,1.63,1.44,2.42,2.17h0l.41.37c.79.75,1.56,1.48,2.27,2.19l.83.82.39.4h0l.38.39h0l.82.88c.72.77,1.33,1.47,1.82,2.09.14.16.26.31.37.45l.3.41A5.76,5.76,0,0,1,35.76,37.55Z"/><path class="eb4a8240-3740-41fc-9204-f8342fe42c0e" d="M41.17,25.75c.16.39.31.75.43,1.11a2.14,2.14,0,0,1,.09.27q.15.47.27.9c.07.29.14.57.18.83a4.8,4.8,0,0,1,.09.5h0l0,.24c-.06.13-.13.26-.2.39h0c0,.08-.09.18-.15.26h0l0,.07a12.24,12.24,0,0,1-1.5,2.07l-.11.11a10.68,10.68,0,0,1-1.47,1.38c-.2.16-.4.3-.59.44l-.07,0a8.23,8.23,0,0,1-1.24.67,6.52,6.52,0,0,1-1.79.44H35a3.9,3.9,0,0,1-.59,0H34a5.79,5.79,0,0,1-.83-.06A11,11,0,0,1,31,35l-.16-.05-.36-.13-.36-.15-.39-.78-.07-.17c-.35-.76-.72-1.59-1.09-2.47l0-.07c-.26-.62-.53-1.27-.76-2l-.17-.41c-.06-.14-.11-.26-.16-.41h0c-.43-1.15-.85-2.38-1.25-3.61-.22-.7-.45-1.39-.65-2.09a73.33,73.33,0,0,1-2.08-8.88c0-.1,0-.2,0-.29-.73-4.62-.55-8.3,1.26-9.23l.13,0A.7.7,0,0,1,25,4.15l.12,0a1.79,1.79,0,0,1,.4,0l.22,0,.29.07a5.12,5.12,0,0,1,.53.25,6.74,6.74,0,0,1,1.2.86c.1.09.22.18.32.28s.44.41.66.64.36.37.54.58l.14.14.62.71c.41.5.84,1,1.27,1.6l.6.8s0,0,0,.06c.32.43.65.89,1,1.35s.53.78.8,1.19l.48.71.31.47.62,1c.51.81,1,1.63,1.48,2.42.08.11.14.22.21.33s.25.42.36.63l.65,1.12.35.62c.69,1.23,1.32,2.39,1.81,3.35.09.16.17.32.24.46a2.72,2.72,0,0,0,.16.3h0c0,.1.09.19.13.28l.23.45c.07.15.09.22.13.31h0Z"/><path class="e1feb31a-8456-474b-8e9b-004d75163b65" d="M41.17,25.75c.16.39.31.75.43,1.11a2.14,2.14,0,0,1,.09.27q.15.47.27.9c.07.29.14.57.18.83a4.8,4.8,0,0,1,.09.5,2,2,0,0,1,0,.25,6.78,6.78,0,0,1,0,1.35,6.12,6.12,0,0,1-.57,2.22l0,.07a.09.09,0,0,1,0,0,6.84,6.84,0,0,1-1.73,2.06,1.22,1.22,0,0,1-.17.15,1.33,1.33,0,0,1-.19.14,4.86,4.86,0,0,1-.41.31,17.16,17.16,0,0,1-2.28,1.3l-.18.08-.89.4-.2.08-.26.11-.15.06.42-.17.19-.08.93-.46.15-.06a15.68,15.68,0,0,0,2.18-1.33l.39-.31.17-.14.18-.16a6.65,6.65,0,0,0,1.58-2.14c0-.07.05-.14.07-.2l.07-.17a6.57,6.57,0,0,0,.33-2.41.13.13,0,0,0,0-.06,1.48,1.48,0,0,0,0-.21c0-.33-.07-.67-.12-1l-.07-.28a8.67,8.67,0,0,0-.23-.91c0-.21-.12-.42-.19-.64h0l-.06-.14c-.12-.36-.27-.74-.44-1.14-.06-.16-.14-.34-.24-.55-.21-.46-.49-1-.84-1.72-.84-1.61-2-3.76-3.36-6A71.16,71.16,0,0,0,29,7.21c-1.74-1.94-3.31-3.12-4.42-2.85l.12-.08.13,0L25,4.17l.12,0a1.34,1.34,0,0,1,.4,0l.22,0a1.38,1.38,0,0,1,.29.08,5.05,5.05,0,0,1,.53.24,6.74,6.74,0,0,1,1.2.86l.33.28c.21.2.43.41.65.64l.54.57c0,.05.09.1.13.16.21.21.41.46.62.71.42.49.84,1,1.27,1.59l.6.8,0,.06c.33.44.65.89,1,1.35s.53.78.79,1.19c.17.23.32.47.48.71s.21.32.31.48l.62,1c.51.81,1,1.63,1.49,2.43a3.79,3.79,0,0,1,.2.34l.37.62.65,1.12.35.62c.69,1.23,1.32,2.39,1.81,3.35.09.16.17.32.24.47s.11.2.15.3h0c0,.1.1.18.14.27s.16.32.23.46.09.22.12.31h0C41,25.39,41.1,25.59,41.17,25.75Z"/><path class="eb4a8240-3740-41fc-9204-f8342fe42c0e" d="M42.83,34.75a6.41,6.41,0,0,1-1.34-2.07c-1.44-3.45-2.73-30,3.45-32.54,1.88-.78,3.69,2,4.46,3.82,1.75,4.2,7.71,28.69.54,31.67A7.14,7.14,0,0,1,42.83,34.75Z"/><path class="e1feb31a-8456-474b-8e9b-004d75163b65" d="M44.94.14a1.55,1.55,0,0,0-.22.12c1.77-.41,3.45,2.13,4.19,3.91,1.73,4.15,7.57,28.16.74,31.54l.3-.1c7.16-3,1.2-27.46-.54-31.66C48.63,2.1,46.82-.64,44.94.14Z"/><path class="eb4a8240-3740-41fc-9204-f8342fe42c0e" d="M29.06,43.85a2.17,2.17,0,0,1,.12.36l0,.08c0,.11.05.23.06.33a2.85,2.85,0,0,1,0,.41,0,0,0,0,1,0,0v.41a3.12,3.12,0,0,1,0,.44.37.37,0,0,1,0,.11s0,.08,0,.11a2.07,2.07,0,0,0,0,.23,2.86,2.86,0,0,1-.07.28h0a2.46,2.46,0,0,1-.09.34l-.09.27h0a7.35,7.35,0,0,1-1.29,2.34c-.12.14-.24.28-.38.42l-.18.17h0a2.66,2.66,0,0,1-.46.35,2.84,2.84,0,0,1-.61.35,5.35,5.35,0,0,1-1.58.37l-.3,0h0a9,9,0,0,1-.9,0c-.23,0-.46,0-.7,0A13.8,13.8,0,0,1,20.76,51l-.62-.15a25.55,25.55,0,0,1-3.32-1l-.47-.18-1-.4c-1.07-.46-2.15-1-3.22-1.55l-.45-.23h0A45,45,0,0,1,3.93,42.2,13.55,13.55,0,0,1,.25,37.78,2.75,2.75,0,0,1,0,36.42H0a2,2,0,0,1,0-.24,1.71,1.71,0,0,1,.54-.9.52.52,0,0,1,.11-.1,1.9,1.9,0,0,1,.44-.3,1.77,1.77,0,0,1,.31-.15A11.78,11.78,0,0,1,6.18,34a27.39,27.39,0,0,1,7.13,1.22,45.1,45.1,0,0,1,4.41,1.54l.2.08c1,.4,1.89.82,2.79,1.24,1.58.77,3,1.57,4.26,2.32h0c.74.46,1.4.9,2,1.31a11.09,11.09,0,0,1,1.6,1.38,2.89,2.89,0,0,1,.46.64A1,1,0,0,1,29.06,43.85Z"/><path class="e1feb31a-8456-474b-8e9b-004d75163b65" d="M29.06,43.85a2.17,2.17,0,0,1,.12.36l0,.08c0,.11.05.23.06.33a2.85,2.85,0,0,1,0,.41,0,0,0,0,1,0,0v.41a3.12,3.12,0,0,1,0,.44.37.37,0,0,1,0,.11.43.43,0,0,1,0,.11l0,.23a2.29,2.29,0,0,1-.07.28h0a2.46,2.46,0,0,1-.09.34l-.09.27A1.67,1.67,0,0,0,29,47a2.25,2.25,0,0,0,.06-.36h0c0-.19,0-.36.05-.55a4,4,0,0,0-.25-1.63l-.06-.14a4.09,4.09,0,0,0-.91-1.08,19.84,19.84,0,0,0-2.5-1.87h0c-.21-.14-.42-.29-.66-.43-1-.59-2.09-1.22-3.29-1.83h0c-.81-.4-1.64-.8-2.51-1.18l-.48-.21a47.86,47.86,0,0,0-5.11-1.85A28.49,28.49,0,0,0,6,34.56a12,12,0,0,0-4.68.78A2.37,2.37,0,0,0,0,36.42H0a2,2,0,0,1,0-.24,1.76,1.76,0,0,1,.53-.9l.12-.1a2.57,2.57,0,0,1,.44-.29,2.37,2.37,0,0,1,.32-.15A11.59,11.59,0,0,1,6.19,34a27.81,27.81,0,0,1,7.13,1.21,45.1,45.1,0,0,1,4.41,1.54l.19.08c1,.4,1.9.82,2.8,1.24,1.57.77,3,1.57,4.26,2.32h0c.74.46,1.39.9,2,1.31a12.46,12.46,0,0,1,1.6,1.39,2.64,2.64,0,0,1,.45.64A.61.61,0,0,1,29.06,43.85Z"/><path class="eb4a8240-3740-41fc-9204-f8342fe42c0e" d="M50.55,32.86a2.54,2.54,0,0,1-.31-.53C49.3,30.06,56.38,11.06,62.05,8.7a2.23,2.23,0,0,1,3.06.83,3.18,3.18,0,0,1,.16.32c1.56,3.76-3.38,24.85-8,26.76C55.49,37.36,53.29,36.47,50.55,32.86Z"/><path class="e1feb31a-8456-474b-8e9b-004d75163b65" d="M62.05,8.7a1.42,1.42,0,0,0-.25.12A2.19,2.19,0,0,1,64.68,10a.42.42,0,0,1,0,.1c1.54,3.7-3.25,24.28-7.8,26.66a2.06,2.06,0,0,0,.35-.12c4.61-1.92,9.54-23,8-26.76a2.24,2.24,0,0,0-2.88-1.31,2,2,0,0,0-.33.15Z"/><path class="eb4a8240-3740-41fc-9204-f8342fe42c0e" d="M62.13,39.07c1.66-1.66,18.45-4.41,29.4-1.34,4.63,1.3,6.24,2.68,5.86,4C96,46.67,68.32,51.21,64.08,50c-1.36-.39-3.95-5.59-2.94-9.19A3.91,3.91,0,0,1,62.13,39.07Z"/><path class="e1feb31a-8456-474b-8e9b-004d75163b65" d="M61.2,41.43a4,4,0,0,1,1-1.75c1.67-1.67,18.46-4.42,29.41-1.35,3.72,1.05,5.49,2.14,5.84,3.24.17-1.29-1.5-2.6-5.89-3.83-11-3.07-27.74-.33-29.42,1.34a4,4,0,0,0-1,1.76,7.71,7.71,0,0,0-.14,3A7.17,7.17,0,0,1,61.2,41.43Z"/><path class="eb4a8240-3740-41fc-9204-f8342fe42c0e" d="M97,62.07a1.33,1.33,0,0,1-.3.53,3,3,0,0,1-1.34.79c-2.17.76-6.17.76-10.4.43A116.11,116.11,0,0,1,71.75,62c-.75-.15-1.34-.29-1.76-.41l-.18,0-.48-.15h0A10.32,10.32,0,0,1,65,59a4.8,4.8,0,0,1-.74-.88,5.3,5.3,0,0,1-.42-.73,6.72,6.72,0,0,1-.62-3,12.81,12.81,0,0,1,.24-2.55.8.8,0,0,1,0-.15,2.29,2.29,0,0,1,.07-.36h0c.11-.48.21-.95.34-1.45l.09-.31,0-.16a6.53,6.53,0,0,1,.53-1.35,4.15,4.15,0,0,1,.52-.79l.07-.06A1.65,1.65,0,0,1,66,47l.4,0h0a13.19,13.19,0,0,1,2.35.24h0l.84.15.11,0h0c.51.09,1.07.22,1.65.36l2.07.54,1.45.43c.49.14,1,.3,1.5.47,8.26,2.67,18.29,7.27,20.33,11A2.48,2.48,0,0,1,97,62.07Z"/><path class="e1feb31a-8456-474b-8e9b-004d75163b65" d="M97,62.07a1.33,1.33,0,0,1-.3.53,3.2,3.2,0,0,1-1.34.79,1.87,1.87,0,0,0,1.08-1.09,2.25,2.25,0,0,0-.14-1.51c-1.61-3.88-12.21-8.74-20.76-11.47L74,48.84c-.37-.12-.74-.22-1.09-.32l-1.48-.39h0l-.15,0c-.62-.15-1.21-.29-1.77-.4-.31-.08-.61-.13-.9-.19a17.06,17.06,0,0,0-2.25-.27,4.45,4.45,0,0,0-1.21.05A1.61,1.61,0,0,1,66,47l.4,0h0a13.17,13.17,0,0,1,2.34.24h0l.85.15.1,0h0c.51.09,1.07.22,1.65.36s1.36.35,2.07.54l1.45.42,1.5.47c8.26,2.68,18.3,7.28,20.33,11.05A2.41,2.41,0,0,1,97,62.07Z"/><path class="eb4a8240-3740-41fc-9204-f8342fe42c0e" d="M87.78,80.38a1,1,0,0,1-.07.21l-.09.21a2.26,2.26,0,0,1-1.45,1A8.71,8.71,0,0,1,82,81.53c-.84-.26-1.68-.56-2.49-.9a88,88,0,0,1-13.61-7,1,1,0,0,1-.17-.1c-.48-.32-1-.63-1.43-1l-.57-.4h0c-.63-.45-1.23-.89-1.81-1.37l-.13-.1c-.45-.36-.88-.73-1.28-1.09a7,7,0,0,1-.62-.6h0l-.43-.41c-.23-.25-.46-.49-.66-.73a3.22,3.22,0,0,1-.24-.28s0,0,0-.06A9.07,9.07,0,0,1,57,64.82l-.08-.25a4.61,4.61,0,0,1-.15-.72,3.61,3.61,0,0,1,.1-1.5,7,7,0,0,1,.48-1.25A8.22,8.22,0,0,1,59,58.79a6.27,6.27,0,0,1,1.4-1c.17-.09.33-.16.49-.23a3.22,3.22,0,0,1,.92-.25h0a4.26,4.26,0,0,1,.61,0,7.33,7.33,0,0,1,1.24.11l.07,0a.48.48,0,0,1,.18,0,2.33,2.33,0,0,1,.36.08,6.85,6.85,0,0,1,1.15.49,43.22,43.22,0,0,1,3.92,2.35,2.2,2.2,0,0,0,.25.17h0c.65.44,1.35.92,2.06,1.43A93.39,93.39,0,0,1,80.5,69a34.85,34.85,0,0,1,6.3,7.3A5.54,5.54,0,0,1,87.78,80.38Z"/><path class="e1feb31a-8456-474b-8e9b-004d75163b65" d="M87.78,80.38a1,1,0,0,1-.07.21l-.09.21a2.26,2.26,0,0,1-1.45,1,1.83,1.83,0,0,0,.81-1,5.56,5.56,0,0,0-1-4.07,33.64,33.64,0,0,0-6-7,93.63,93.63,0,0,0-10.18-8.12l-.42-.28h0c-1.65-1.13-3.12-2-4.21-2.63-.36-.19-.67-.35-.94-.47a4.08,4.08,0,0,0-.69-.26,6.88,6.88,0,0,0-1.2-.23,5.31,5.31,0,0,0-1.26,0,2.78,2.78,0,0,0-.63.16,3.88,3.88,0,0,1,1.4-.48h0a4.3,4.3,0,0,1,.62,0,5.69,5.69,0,0,1,1.23.11l.07,0a.48.48,0,0,1,.18.05,2.09,2.09,0,0,1,.36.08,6.85,6.85,0,0,1,1.15.49,43.22,43.22,0,0,1,3.92,2.35l.26.17h0c.64.44,1.34.92,2,1.43a93.39,93.39,0,0,1,8.78,7.08,34.22,34.22,0,0,1,6.28,7.3A5.46,5.46,0,0,1,87.78,80.38Z"/><path class="eb4a8240-3740-41fc-9204-f8342fe42c0e" d="M63.43,40.89c3.14.72,21.6-7.18,24.1-16.08a2.07,2.07,0,0,0-1.13-2.68,2,2,0,0,0-.53-.14C80,20.34,61.42,27.61,59.6,34.1c-.63,2.25,1.27,6.08,3.69,6.76Z"/><path class="e1feb31a-8456-474b-8e9b-004d75163b65" d="M85.87,22c-2.88-.81-8.79.53-14.3,2.86,5.27-2.13,10.78-3.3,13.52-2.53a2.05,2.05,0,0,1,1.79,2.29,1.82,1.82,0,0,1-.14.52c-1.65,5.92-10.36,11.39-16.93,14.18,6.64-2.68,16-8.35,17.72-14.5a2.06,2.06,0,0,0-1.13-2.68,1.91,1.91,0,0,0-.52-.14Z"/><path class="eb4a8240-3740-41fc-9204-f8342fe42c0e" d="M70.64,87a5.42,5.42,0,0,1-.17,1.55,3.13,3.13,0,0,1-.36.84,2,2,0,0,1-.56.63,2.08,2.08,0,0,1-2,.33,10.6,10.6,0,0,1-3.46-2.47,54.19,54.19,0,0,1-5-5.51l-.36-.44c-.18-.23-.38-.48-.56-.73-.77-1-1.51-2-2.21-3.05-.41-.59-.8-1.18-1.18-1.79s-.7-1.14-1-1.7-.68-1.22-1-1.78l-.34-.7c-.12-.23-.18-.43-.27-.64a11.32,11.32,0,0,1-.49-1.38.88.88,0,0,1-.07-.23,6.49,6.49,0,0,1-.19-.76l0-.18a3.36,3.36,0,0,1-.06-.63,2.68,2.68,0,0,1,.1-.85,3.09,3.09,0,0,1,1.2-1.72,2.67,2.67,0,0,1,.65-.39l.11,0,.12,0a5.37,5.37,0,0,1,.85-.3,7.43,7.43,0,0,1,.78-.19,4.83,4.83,0,0,1,.59-.1,2.36,2.36,0,0,1,.28,0l.31,0h0l.46,0a16.84,16.84,0,0,1,1.74,0,2,2,0,0,1,.42,0l.19,0a7.59,7.59,0,0,1,2.49,2.52c.09.14.19.26.29.4a.14.14,0,0,0,0,.06c.3.39.6.82.91,1.27l0,.07c.11.17.23.34.33.52.8,1.21,1.63,2.59,2.43,4a1.09,1.09,0,0,1,.08.15C68.36,78.23,70.61,83.56,70.64,87Z"/><path class="e1feb31a-8456-474b-8e9b-004d75163b65" d="M70.64,87a5.42,5.42,0,0,1-.17,1.55,3.13,3.13,0,0,1-.36.84,2.59,2.59,0,0,1-.56.63,2.16,2.16,0,0,1-.81.38,2.77,2.77,0,0,0,1-1.56,5.59,5.59,0,0,0,.16-1.73c-.11-3.38-2.27-8.52-4.72-13-.29-.53-.58-1-.88-1.55-.53-.92-1.07-1.8-1.58-2.61s-1-1.42-1.4-2.05c-.16-.2-.29-.4-.43-.58-.29-.37-.56-.71-.82-1s-.28-.33-.41-.47a3.34,3.34,0,0,0-1.17-.91,2.16,2.16,0,0,0-.62-.09c-.32,0-.65,0-.95,0l-.68,0a11,11,0,0,0-2.72.46l-.2.06.12,0,.11,0a6.72,6.72,0,0,1,.85-.32l.78-.19.58-.1a2.58,2.58,0,0,1,.29,0,3,3,0,0,1,.31,0s0,0,0,0,.29,0,.45-.05a16.84,16.84,0,0,1,1.74,0,2.15,2.15,0,0,1,.43,0l.18,0a7.56,7.56,0,0,1,2.49,2.51c.1.13.2.26.29.4s0,0,0,.06c.29.39.6.82.9,1.27a.12.12,0,0,1,0,.07c.11.17.23.34.33.51.81,1.21,1.63,2.6,2.44,4.06l.08.15C68.36,78.23,70.61,83.56,70.64,87Z"/><path class="eb4a8240-3740-41fc-9204-f8342fe42c0e" d="M50.18,69.23l.11.26a2.08,2.08,0,0,1,.07.5h0a8.28,8.28,0,0,1-.16,1.57c-.08.42-.18.88-.3,1.39-.18.76-.42,1.63-.7,2.56h0c-.12.35-.23.71-.36,1.09h0c-.36,1.08-.78,2.24-1.26,3.45h0c-.09.24-.18.47-.28.71s-.2.48-.31.73l-.53,1.26a59.13,59.13,0,0,1-5.36,9.74,33.93,33.93,0,0,1-3,3.79c-3.27,3.55-5.22,4.36-6.26,3.4a1.14,1.14,0,0,1-.15-.16,1.43,1.43,0,0,1-.14-.2c-1-1.5-.76-5.14,0-9.49a102.26,102.26,0,0,1,2.67-10.61c.16-.53.33-1,.5-1.58.51-1.59,1-3.12,1.57-4.51s1-2.56,1.45-3.59a14,14,0,0,1,1.84-3.29l.16-.13a4.14,4.14,0,0,1,1.95-.48,12.5,12.5,0,0,1,4.21.49,7.13,7.13,0,0,1,.78.26,8.5,8.5,0,0,1,1.19.54,6.46,6.46,0,0,1,.84.56,4.16,4.16,0,0,1,.39.32,1,1,0,0,1,.17.18l.24.26a3.19,3.19,0,0,1,.3.42,1,1,0,0,1,.12.19A2.53,2.53,0,0,1,50.18,69.23Z"/><path class="e1feb31a-8456-474b-8e9b-004d75163b65" d="M50.18,69.23l.11.26a2.08,2.08,0,0,1,.07.5h0a8.28,8.28,0,0,1-.16,1.57c-.08.42-.18.88-.3,1.39-.18.76-.42,1.63-.7,2.56h0c-.12.35-.23.71-.36,1.09h0c-.36,1.08-.78,2.24-1.26,3.45h0c-.09.24-.18.47-.28.71s-.2.48-.31.73l-.53,1.26a59.13,59.13,0,0,1-5.36,9.74,33.93,33.93,0,0,1-3,3.79c-3.27,3.55-5.22,4.36-6.26,3.4a1.14,1.14,0,0,1-.15-.16,1.43,1.43,0,0,1-.14-.2c1,.86,3,0,6.18-3.44a33.71,33.71,0,0,0,2.79-3.5A60.78,60.78,0,0,0,46.42,81.6l.07-.16c.57-1.37,1.09-2.68,1.53-3.93h0c.25-.67.46-1.32.67-2h0l0-.1h0c.31-1,.57-1.89.77-2.71.08-.32.15-.61.21-.9h0a9.82,9.82,0,0,0,.22-1.32h0a3.35,3.35,0,0,0,0-1.41,2.75,2.75,0,0,0-.15-.36,4.16,4.16,0,0,0-.44-.73l.24.26a3,3,0,0,1,.31.42l.12.19Z"/><path class="eb4a8240-3740-41fc-9204-f8342fe42c0e" d="M41.6,68.35a.58.58,0,0,1,0,.29,5.54,5.54,0,0,1-1.19,2.49l-.05.07c-.23.34-.5.7-.79,1.07-.41.52-.87,1.09-1.39,1.68h0c-.41.47-.84,1-1.3,1.45-.32.35-.67.71-1,1.09h0l-.2.2h0c-.3.32-.61.63-.91.94L33.4,79A82.25,82.25,0,0,1,24,86.82c-4.42,3.09-8.39,4.85-10.07,3.31-1.18-1.09-.09-4.29,1.9-8a82.81,82.81,0,0,1,4.77-7.79c1.84-2.72,3.65-5.16,4.9-6.72.47-.57.85-1,1.13-1.33l.63-.67a13.85,13.85,0,0,1,2.14-1.75l.44-.26a6,6,0,0,1,1.77-.74A4.8,4.8,0,0,1,33,62.68a5.45,5.45,0,0,1,1.5.18,12.86,12.86,0,0,1,5.08,3.06l.23.21.36.33a6.5,6.5,0,0,1,1,1.07l.09.12A4.68,4.68,0,0,1,41.6,68.35Z"/><path class="eb4a8240-3740-41fc-9204-f8342fe42c0e" d="M33.75,57.61a.38.38,0,0,1,0,.16,6.93,6.93,0,0,1,.3,1.92,4.28,4.28,0,0,1-.24,1.42A6.32,6.32,0,0,1,33,62.68a5.85,5.85,0,0,1-.45.54,12.05,12.05,0,0,1-1.93,1.48l-1.12.69h0c-.49.31-1,.62-1.61,1s-1.25.7-1.93,1a4,4,0,0,1-.41.22c-2.53,1.33-5.49,2.73-8.46,3.93a52.54,52.54,0,0,1-8.55,2.74c-3.14.62-5.7.58-7-.6a1.67,1.67,0,0,1-.42-.59l0,0A1.75,1.75,0,0,1,1,72.49,7.1,7.1,0,0,1,3.15,68,29.06,29.06,0,0,1,5.38,66a92.64,92.64,0,0,1,9.81-7.25c.88-.56,1.78-1.11,2.66-1.62l1-.55c.84-.46,1.67-.88,2.5-1.27h0c.48-.22,1-.44,1.43-.64.26-.1.53-.22.8-.31a17.34,17.34,0,0,1,3-.87q.32-.08.63-.12a8.72,8.72,0,0,1,1.44-.1,5.76,5.76,0,0,1,1.24.15,3.87,3.87,0,0,1,1.8.92,6.1,6.1,0,0,1,.55.59c.09.1.17.21.25.31s0,0,0,0,.18.26.28.4A8,8,0,0,1,33.75,57.61Z"/><path class="e1feb31a-8456-474b-8e9b-004d75163b65" d="M33.72,57.59a1.72,1.72,0,0,1,.07.21l-.09-.22a7.79,7.79,0,0,0-1.9-2.89,3.94,3.94,0,0,0-2.07-1,5.46,5.46,0,0,0-1.07-.1,8.47,8.47,0,0,0-1.13.07,8,8,0,0,0-1.09.19A19.44,19.44,0,0,0,22.86,55h0c-1,.41-2,.9-3,1.44h0c-.36.18-.7.37-1.06.57-1.21.67-2.43,1.39-3.61,2.15a93.3,93.3,0,0,0-9.63,7.14,29.33,29.33,0,0,0-2.24,2.08C2.18,69.61.86,71.63,1.13,73.1l0-.06A1.69,1.69,0,0,1,1,72.49,7.21,7.21,0,0,1,3.15,68,29.2,29.2,0,0,1,5.39,66a92.51,92.51,0,0,1,9.8-7.25c.89-.56,1.79-1.1,2.67-1.61.33-.2.65-.38,1-.55.85-.47,1.68-.89,2.51-1.28h0c.47-.22.95-.44,1.42-.63.26-.11.54-.23.8-.32a17.45,17.45,0,0,1,3-.87q.32-.08.63-.12a9.77,9.77,0,0,1,1.44-.1,5.85,5.85,0,0,1,1.24.16,3.87,3.87,0,0,1,1.8.92,5,5,0,0,1,.54.59c.09.09.17.2.26.31h0l.27.4A8.1,8.1,0,0,1,33.72,57.59Z"/><path class="eb4a8240-3740-41fc-9204-f8342fe42c0e" d="M57.69,72.61v0a3.53,3.53,0,0,1,.15.46h0a29.7,29.7,0,0,1,.93,8.81,5.42,5.42,0,0,1,0,.57,45,45,0,0,1-1.64,10.89,13.36,13.36,0,0,1-2.41,5,2.06,2.06,0,0,1-2.86.54,2.23,2.23,0,0,1-.4-.35A12.31,12.31,0,0,1,48.53,94a35.19,35.19,0,0,1-2.08-11.22c0-.39,0-.78,0-1.16a1,1,0,0,1,0-.17c0-1,0-1.9,0-2.79,0-1.07.11-2.1.21-3,0-.21,0-.42.06-.62a24.79,24.79,0,0,1,.65-3.54c.06-.21.13-.4.2-.58a3.47,3.47,0,0,1,.51-1l.1-.1a3.83,3.83,0,0,1,1.59-1l.12,0a3.77,3.77,0,0,1,.75-.2c.25,0,.51-.09.77-.12a6.55,6.55,0,0,1,4,.83h0a3.25,3.25,0,0,1,.42.31A5.47,5.47,0,0,1,57,71.06h0A8.71,8.71,0,0,1,57.69,72.61Z"/><path class="e1feb31a-8456-474b-8e9b-004d75163b65" d="M57.69,72.61v0a3.53,3.53,0,0,1,.15.46h0a29.7,29.7,0,0,1,.93,8.81,5.42,5.42,0,0,1,0,.57,45,45,0,0,1-1.64,10.89,13.36,13.36,0,0,1-2.41,5,2.06,2.06,0,0,1-2.86.54,2.23,2.23,0,0,1-.4-.35l-.12-.13A2,2,0,0,0,54.12,98l0,0a10.7,10.7,0,0,0,2-3.75,41.69,41.69,0,0,0,2-11.66c0-.45,0-.89,0-1.33a30.89,30.89,0,0,0-.76-7.9h0a9,9,0,0,0-2-4.09c.14.1.28.2.41.31A5.29,5.29,0,0,1,57,71.08v0A9.17,9.17,0,0,1,57.69,72.61Z"/><path class="b16bf624-837e-4861-a7d5-c6ad0bafe122" d="M70.05,42.5q.12.3.21.6a24.26,24.26,0,1,1-.21-.6Z"/><path class="a01eafa0-c233-470d-a14b-893d64c10c39" d="M50.31,64.31a.67.67,0,0,0,.14.19,1.7,1.7,0,0,0,.29.31,1.61,1.61,0,0,0,.32.25.64.64,0,0,0,.18.1,1.82,1.82,0,0,0,.75.2ZM31.8,54.69a3.94,3.94,0,0,0-2.07-1,5.46,5.46,0,0,0-1.07-.1v.26c0,.28,0,.57,0,.86a1.48,1.48,0,0,0,0,.21c0,.15,0,.29,0,.43a5.05,5.05,0,0,0,.08.68l.52-1.36,4.37,2.87A7.51,7.51,0,0,0,31.8,54.69ZM25,46.24a5.51,5.51,0,0,1-.06.57l.22-.57-.15,0Zm13.8-12.32c-.2.16-.4.3-.59.43l.84.49a1.88,1.88,0,0,1-.26-.92Zm12.6,0-.18.41c.08-.11.16-.23.23-.35s0,0-.06-.05ZM31.8,54.69a3.94,3.94,0,0,0-2.06-1,5.57,5.57,0,0,0-1.08-.1c0,.08,0,.17,0,.26,0,.28,0,.58,0,.86a1.49,1.49,0,0,0,0,.21,3,3,0,0,0,0,.43,5.05,5.05,0,0,0,.08.68l.52-1.35,4.37,2.86a7.75,7.75,0,0,0-1.9-2.88Zm19.59-20.8-.18.41c.08-.11.16-.23.23-.35s0,0-.06-.05Zm-12.6,0c-.2.16-.4.3-.59.43l.84.49a1.88,1.88,0,0,1-.26-.92ZM25,46.24a5.51,5.51,0,0,1-.06.57l.22-.57-.15,0ZM50.31,64.32a1.33,1.33,0,0,0,.14.19,2.06,2.06,0,0,0,.29.3,1.54,1.54,0,0,0,.32.25.81.81,0,0,0,.18.1,2,2,0,0,0,.75.21l-1.68-1.05ZM31.8,54.69a3.87,3.87,0,0,0-2.06-1,5.64,5.64,0,0,0-1.08-.1,2.25,2.25,0,0,1,0,.26c0,.28,0,.57,0,.86a1.48,1.48,0,0,0,0,.21c0,.15,0,.29,0,.43a3.84,3.84,0,0,0,.09.68l.51-1.36,4.37,2.87a7.51,7.51,0,0,0-1.9-2.88Zm19.59-20.8-.18.41c.08-.11.16-.23.23-.35l-.06-.05Zm-12.61,0a7.21,7.21,0,0,1-.58.43l.84.49A1.88,1.88,0,0,1,38.78,33.92ZM25,46.24c0,.18,0,.38-.06.57.07-.19.15-.37.22-.56ZM50.31,64.31a1.43,1.43,0,0,0,.14.2,2.72,2.72,0,0,0,.29.3,2,2,0,0,0,.32.25.64.64,0,0,0,.18.1,1.82,1.82,0,0,0,.75.2l-1.68-1Zm9.37,1.52-.18.39h0a.74.74,0,0,1,.44,0,.16.16,0,0,1,.12,0c-.14-.18-.28-.33-.41-.48Zm-.2,2.73c-.24-.24-.46-.48-.67-.73a1.8,1.8,0,0,0-.08.21,7.13,7.13,0,0,0-.29.69,1.36,1.36,0,0,1,.35,0l.37,0a5.26,5.26,0,0,1,.75.21,4.15,4.15,0,0,1-.43-.4ZM49.07,72.47a.1.1,0,0,0,0,0l-1.17-.7a3.43,3.43,0,0,1,.09.44c0,.12,0,.23,0,.35v.09a9.19,9.19,0,0,1,0,1c0,.14,0,.27,0,.41l0,.16c0,.19,0,.38-.09.58s-.1.49-.16.73l.07,0h.42a.9.9,0,0,0,.23,0h0a.41.41,0,0,0,.11,0h.15l0-.1h0c.31-1,.57-1.9.77-2.71l-.4-.24ZM51.38,33.9c-.05.14-.11.28-.17.41a3.37,3.37,0,0,0,.22-.35s0,0,0-.05Zm-12.6,0c-.2.15-.39.3-.58.43l.83.49A1.87,1.87,0,0,1,38.78,33.93ZM25,46.25c0,.18,0,.38-.07.57l.23-.58H25ZM59.68,65.83l-.18.39h0a.74.74,0,0,1,.44,0,.24.24,0,0,1,.12,0l-.41-.47ZM49.07,72.47l0,0-1.17-.7a3.43,3.43,0,0,1,.09.44c0,.12,0,.23,0,.34a.38.38,0,0,1,0,.1,9.19,9.19,0,0,1,0,1c0,.14,0,.27,0,.41l0,.16a5.62,5.62,0,0,1-.09.57c-.05.25-.1.5-.16.74l.07,0h.42l.23,0h.25m0,0a1,1,0,0,1,0-.1h0c.31-1,.57-1.9.77-2.72a2.65,2.65,0,0,1-.4-.24ZM51.38,33.9c-.06.14-.11.27-.17.4.08-.11.15-.23.22-.35a.12.12,0,0,1,0-.05Zm-12.6,0c-.2.16-.4.3-.59.44.28.16.57.32.84.49a1.88,1.88,0,0,1-.25-.93ZM25,46.25c0,.18,0,.37-.07.56.08-.19.15-.36.22-.55Zm44.49-5.17a0,0,0,0,0,0,0l-1.66-1c0-.1.1-.21.14-.31a.05.05,0,0,0,0-.05l.39-.82h0a4,4,0,0,0-.23-.39A5.74,5.74,0,0,0,67.8,38c-.11-.16-.22-.35-.35-.54h0l-.12-.17a1.07,1.07,0,0,0-.15-.22c-.17-.25-.34-.49-.52-.73L66,37.74l-.34.69h0c0,.1-.08.18-.13.28a1.75,1.75,0,0,1-.29-.18l-.45-.26-.28-.17h0l-.4-.22c-.6-.36-1.21-.71-1.83-1.06h0a.3.3,0,0,0-.11-.06c-.56-.34-1.14-.66-1.71-1l.21-.43c.57-1.14,1.17-2.28,1.77-3.4l-.06,0-.47-.37-.4-.3h0a1.46,1.46,0,0,0-.24-.17,2.71,2.71,0,0,0-.35-.24,1.81,1.81,0,0,0-.29-.19l-.22-.15h0c-.41.75-.8,1.47-1.2,2.22s-.63,1.22-.94,1.83l-2.06-1.16c-.46-.26-.92-.53-1.37-.77l0-.06.23-.51.27-.59c.1-.21.2-.44.32-.64h0c.35-.76.73-1.48,1.12-2.21-.26-.11-.53-.23-.8-.33s-.64-.24-1-.36-.43-.14-.64-.19c-.15.28-.29.55-.43.84-.27.56-.53,1.13-.81,1.68h0c-.07.13-.13.25-.18.37l-.36.76a.61.61,0,0,0-.14-.07l0,0h0l-1.23-.68-.78-.42-.93-.52h0c-.16-.08-.3-.18-.46-.26h0l-.37-.2c.45-.81.91-1.62,1.38-2.42a.29.29,0,0,0-.16,0,5,5,0,0,0-.54-.06c-.47,0-.94-.07-1.4-.08a5.4,5.4,0,0,0-.7,0c-.25.48-.51.95-.75,1.42l-.81-.44-1.48-.8a1.86,1.86,0,0,0-.33,0c-.6.08-1.21.18-1.81.32l-.2,0-.09,0-.32.07-.14,0,0,0-.54,0-.06,0-.89.27h0c-.34.1-.67.22-1,.34-.51,1-1,1.93-1.48,2.91l-2.28-1.18-1.23.75c-.21.14-.42.28-.62.43a3.75,3.75,0,0,0-.36.24h0l3.39,2c-.07.14-.14.27-.2.41-.31.65-.61,1.3-.91,2-.07.16-.16.33-.22.5a2.21,2.21,0,0,0-.16.35c-.1.2-.19.41-.29.62a2.55,2.55,0,0,1-.13.29l-.15-.08-1-.51L31,35.54l-.15-.08-.55-.28.21-.37c.08-.17.18-.34.28-.51h0l.79-1.37a1.75,1.75,0,0,1,.18-.29s0,0,0,0h0l.78-1.31-.09.06h0a.18.18,0,0,0-.07,0,11.6,11.6,0,0,0-1,.79,3.61,3.61,0,0,0-.3.25c-.24.2-.48.4-.71.62l-.7.67a25.22,25.22,0,0,0-1.94,2.2c-.34.42-.66.86-1,1.3s-.61.94-.9,1.43-.56,1-.81,1.5a1.51,1.51,0,0,0-.11.22c-.09.18-.18.37-.25.55l-.07.13c0,.1-.09.2-.12.29a1.42,1.42,0,0,0-.08.18c-.1.23-.19.47-.28.71a1.75,1.75,0,0,0-.12.32l-.09.22h0l-.13.36a12.33,12.33,0,0,0-.36,1.18c-.06.18-.11.38-.16.56a1.89,1.89,0,0,0-.09.34l-.05.18c0,.05,0,.1,0,.16s0,0,0,.07a2,2,0,0,0-.05.24h0c0,.12,0,.24-.07.35s0,.17,0,.25a1.43,1.43,0,0,1,0,.22c0,.07,0,.24-.06.36a.52.52,0,0,0,0,.11l-.06.39,0,.3c0,.26-.07.52-.09.78a.56.56,0,0,1,0,.13.29.29,0,0,0,0,.09h0c0,.18,0,.37-.05.55v.1c0,.17,0,.33,0,.51,0,.41,0,.83,0,1.25,0,.17,0,.34,0,.52s0,.07,0,.11c0,.22,0,.43,0,.63s0,.41.05.61c.19-.6.4-1.21.61-1.81a4.36,4.36,0,0,1,.17-.51l.74.49h0l.32.21h0c.37.26.76.5,1.13.74l1.07.7c.18.1.35.22.53.34s.24.17.37.24,0,.09,0,.13c-.16.43-.32.86-.47,1.31l-.39,1.13c-.06.17-.11.35-.17.51-.11.35-.23.67-.34,1l-1.48-1h0a.78.78,0,0,1-.15-.1l-.09-.06-.56-.37h0c-.3-.2-.58-.4-.89-.59a.1.1,0,0,0-.05,0,.05.05,0,0,0,0,0s0,.05,0,.07a.08.08,0,0,0,0,.05v0a5.05,5.05,0,0,0,.12.56.59.59,0,0,0,0,.13l0,0v0c0,.11,0,.21.07.32a2,2,0,0,1,.07.26c0,.08,0,.18.07.27s.1.34.14.51c.1.36.21.71.32,1s.14.44.23.66.14.35.2.52l1,.8c-.09.3-.17.62-.26.92.15.31.3.61.46.9l0,0c.16.31.34.6.51.91.21-.51.41-1,.62-1.54,0-.06.05-.12.07-.17.4.29.79.6,1.2.88l.51.38,1.1.79,1.18.82c.33.24.66.48,1,.69l-.09.34c-.06.27-.13.52-.19.78-.11.47-.22.93-.32,1.4s-.2,1-.31,1.47h0l.08.06.09.08.23.2.09.08.09.07c.25.22.52.43.78.63.14-.4.25-.81.4-1.23s.35-1.13.54-1.7c.1-.35.21-.67.32-1h0l1.71,1.16c.41.26.81.55,1.24.8s1,.68,1.55,1l.35.23.25.15c-.08.3-.18.6-.27.91h0c-.11.44-.23.89-.35,1.34a2.44,2.44,0,0,0-.06.26c-.1.4-.19.79-.26,1.18.19.1.4.17.59.25a1.06,1.06,0,0,0,.19.06h0c.24.1.5.2.77.29h0c.13-.41.27-.81.37-1.2s.16-.52.25-.77.21-.67.32-1l.11-.3c.1.06.19.13.29.18l.07,0c1.23.79,2.49,1.55,3.75,2.31-.15.61-.3,1.24-.44,1.87.29,0,.57.08.87.1l.78.07.16,0,.26-1.11.73.43.2.11c.31.19.65.37,1,.56l.08,0h.41a.89.89,0,0,1,.23,0h.27l0,0,.46,0h0c.33,0,.66-.06,1-.11s.61-.08.9-.14.45-.08.67-.12c.43-.09.87-.19,1.3-.3l-.81-.47c.2-.5.39-1,.59-1.51.13-.32.25-.64.39-1,.2-.51.41-1,.61-1.5l2,1.17L57,72.2h0c-.17.4-.34.8-.5,1.21l-.12.3.17-.07.5-.21h0a.35.35,0,0,0,.14-.06l.11,0a.75.75,0,0,0,.18-.08,2.33,2.33,0,0,0,.39-.19.21.21,0,0,0,.1,0l.16-.06.74-.39a1,1,0,0,0,.2-.11,6.05,6.05,0,0,0,.55-.32l.09,0,.47-.29h0c.21-.12.41-.26.6-.39a.18.18,0,0,0,.07,0l.44-.32h0l.11-.08-1.23-.7.33-.68a1.63,1.63,0,0,1,.11-.23c.13-.29.28-.59.41-.87s.19-.4.28-.59.24-.51.37-.76a.36.36,0,0,1,0-.09l.31-.65.55.31c.74.44,1.48.85,2.23,1.28l.56-.61.54-.62c.23-.27.45-.54.66-.83L67,65.4h0c-.66-.37-1.31-.73-2-1.11l-1.27-.75-.26-.16h0c.24-.5.49-1,.74-1.49.38-.79.77-1.57,1.14-2.35a3.13,3.13,0,0,0,.34.21l3.34,2.19c.08-.18.17-.38.26-.56h0a.35.35,0,0,0,.06-.14h0a.44.44,0,0,0,.08-.15,4.06,4.06,0,0,0,.22-.52h0a.08.08,0,0,0,0,0h0a7.87,7.87,0,0,0,.29-.76l.28-.74c-.42-.28-.84-.56-1.28-.83l-2.15-1.38-.07,0q1.05-2.09,2.13-4.14l2.48,1.49h0l.06-.59c0-.2,0-.37,0-.56a0,0,0,0,1,0,0v-.07s0,0,0-.08a4.53,4.53,0,0,0,0-.52c0-.17,0-.39,0-.59a.13.13,0,0,0,0-.06c0-.17,0-.34,0-.52h0v-.57s0-.07,0-.09a3.85,3.85,0,0,0-.4-.24L70.82,50l-.43-.26c.08-.15.17-.31.25-.48l.09-.15.51-1a1.67,1.67,0,0,1,.12-.23l0-.11c0-.12,0-.23,0-.35s0-.23-.05-.34h0l0,0-.06-.35,0-.24v0a.86.86,0,0,0,0-.17L71,46c0-.16-.07-.32-.1-.48s-.06-.27-.1-.42c-.08-.31-.16-.61-.25-.9l0-.11s0,0,0,0l0-.07c0-.18-.11-.36-.16-.54s-.21-.59-.32-.88-.26-.68-.4-1h0a2.83,2.83,0,0,0-.17-.4Zm-.38,3.31.88.54-.06.12c-.39.71-.77,1.43-1.15,2.17h0a.41.41,0,0,0,0,.09,1.24,1.24,0,0,0-.1.2c-.15.26-.29.53-.44.81l-1.82-1.09L66,47a1.48,1.48,0,0,0-.27-.16q-.32-.21-.63-.39l-.23-.13.42-.89,1-2,.26-.55c.75.45,1.5.89,2.25,1.35.12.08.23.13.33.21Zm-9,6L59.34,52l-1-.6-.49-.31c-.48-.3-1-.6-1.44-.88l-2-1.27c.55-1.36,1.12-2.69,1.7-4l5.06,3-.22.49,0,0c-.26.66-.55,1.29-.84,1.92ZM58,54.91c-.61,1.37-1.23,2.73-1.84,4.1-.79-.49-1.59-1-2.38-1.47h0l-2.2-1.36h0c.54-1.44,1.07-2.84,1.63-4.24,1.36.84,2.73,1.68,4.07,2.53.26.16.52.31.76.47ZM53.56,65.28h0a.08.08,0,0,0,0,0c-.11.26-.21.54-.32.8l-.54-.34L52,65.36h0l-1.68-1h0c-.29-.19-.56-.34-.85-.52L49,63.51c.18-.54.35-1.06.54-1.59h0c.28-.85.58-1.71.88-2.56l4.45,2.74c-.36.84-.7,1.68-1,2.53-.1.22-.19.43-.27.66Zm-19.2-2.05.12-.37c.25-.86.54-1.72.83-2.57.14-.45.3-.9.45-1.35l.14.09,4.84,3.16-.2.64c-.27.82-.53,1.65-.79,2.48l-.2.61c0,.19-.11.39-.17.59q-2.52-1.62-5-3.28ZM24.3,48.41c.18-.48.37-1,.58-1.45a.5.5,0,0,1,0-.13h0c.07-.19.15-.36.22-.55s.1-.24.15-.37L26,44.17l.29.18.79.49.79.49,1.25.78.11.07h0c.3.2.6.38.92.57l-.22.54-.12.32c-.42,1.08-.85,2.14-1.25,3.21l-.26-.15-.1-.06h0l-.93-.52-.89-.5a1.1,1.1,0,0,0-.21-.14c-.28-.17-.58-.33-.87-.48h0l-.92-.5a.24.24,0,0,0-.08-.06Zm6.15,3.51a0,0,0,0,0,0,0c0-.09.07-.19.12-.29a0,0,0,0,1,0,0l0-.09c.49-1.21,1-2.4,1.46-3.59l.93.57,3.27,2c-.13.35-.25.71-.37,1.06-.06.16-.11.31-.16.47s-.14.36-.2.53-.17.51-.26.77c-.13.41-.28.84-.42,1.26-1.45-.91-2.92-1.79-4.39-2.67Zm2.79-6.84c.59-1.38,1.18-2.76,1.8-4.13l.5.3,3.54,2.06c-.58,1.39-1.13,2.8-1.68,4.2-1.2-.71-2.4-1.42-3.61-2.11a6.05,6.05,0,0,0-.55-.32ZM40,35.37c.15.09.3.18.46.26h0l1.66,1c-.36.75-.74,1.52-1.09,2.27-.26.58-.51,1.18-.76,1.76l-3.64-2-.36-.2c.15-.35.32-.69.48-1,0,0,0,0,0-.06a3.26,3.26,0,0,1,.18-.38l1.2-2.51h0l0-.06,0,0,.84.49.77.43.14.09Zm5.46,0c.36-.73.71-1.45,1.07-2.17s.61-1.22.93-1.83l2.17,1.31,1.51.9.36.22-.06.13-.18.4-.32.74c-.38.91-.77,1.79-1.15,2.69l-2.81-1.56-1.52-.85Zm11.11,1.48.37.22c-.59,1.22-1.17,2.46-1.74,3.7l-3.22-1.82c.45-1.06.92-2.11,1.39-3.16l.3-.68,2.9,1.73Zm6.67,4h0c.32.21.64.4,1,.6l-.83,1.79L62.54,45l-.38-.22L61,44.06l0,0-.78-.44c-.92-.52-1.86-1-2.78-1.57.55-1.23,1.11-2.43,1.7-3.65l2.43,1.46.19.11h0l.11.08,1.32.78ZM37.56,53.88,38,52.8l.17-.45c.06-.18.15-.37.21-.54l.92.57a1.75,1.75,0,0,1,.25.16l.61.37,3.07,1.93c-.48,1.38-1,2.74-1.4,4.12-1.63-1-3.28-2.09-4.93-3.11.22-.67.45-1.32.68-2Zm2-5.1c.24-.59.47-1.17.72-1.77h0c.27-.67.54-1.33.82-2h0l.15-.37.16.1c.65.38,1.31.77,2,1.17l.66.4,1.83,1.12-.18.5c-.47,1.26-.93,2.51-1.39,3.78l-4.35-2.64-.41-.27Zm6.81,4.14c.06-.12.09-.25.15-.38.47-1.29,1-2.58,1.47-3.86l3,1.87,0,0a.56.56,0,0,0,0,.12h0c-.14.39-.29.76-.45,1.16-.36,1-.74,2-1.08,3-1-.64-2.06-1.3-3.1-1.93Zm5.84-5.29L51,46.92,49.1,45.79c.21-.53.42-1.08.65-1.62.32-.81.65-1.63,1-2.43.62.37,1.22.74,1.85,1.1v0c.32.2.63.37.95.56a2.9,2.9,0,0,1,.29.19.37.37,0,0,1,0,.11c-.57,1.28-1.09,2.6-1.62,3.9Zm-8-9.76L47,39.52l1.57.94c-.56,1.36-1.1,2.73-1.63,4.09-1.53-.89-3-1.79-4.58-2.66.59-1.36,1.21-2.69,1.82-4Zm-3,29.76-.11-.06s0,0,0,0,.1-.32.15-.49l.46-1.4c.26-.77.54-1.53.8-2.29l3.55,2.28-.14.49-.09.32c-.21.78-.41,1.56-.6,2.35L45,70c-.81-.51-1.65-1-2.45-1.53-.43-.24-.86-.51-1.29-.78Zm2.46-7.51c.48-1.35,1-2.72,1.48-4.07l3.22,2c-.46,1.39-.9,2.8-1.31,4.21l-3.39-2.15Zm-2.89-31h0L41.32,28a.64.64,0,0,0,.08-.14.91.91,0,0,0,.07-.14l.47.28v0h0c1.11.67,2.22,1.35,3.33,2l-.53,1-.68,1.33c-.3.58-.59,1.16-.87,1.73l-1.4-.76-.11-.06,0,0-.28-.16c-.38-.2-.75-.41-1.13-.6a.51.51,0,0,0-.16-.09h0l-.14-.08L39.28,32c.52-1,1-2,1.51-2.94ZM27.68,40.37c.46-1,.95-2,1.46-2.95l1.08.66c.71.44,1.43.87,2.15,1.29l.7.42c-.6,1.38-1.2,2.76-1.79,4.16-.69-.39-1.37-.78-2.06-1.14l-2.13-1.13c.2-.43.39-.87.6-1.31Zm.1,18.39c.07-.17.13-.34.19-.52l.46-1.2c.12-.33.25-.65.37-1l.52-1.35,4.38,2.86v0l0,0,.08,0,0,.11v0h0c-.17.49-.34,1-.48,1.5-.22.69-.44,1.37-.64,2.07-.06.19-.11.39-.16.59-1-.69-2.07-1.37-3.09-2.07l-.95-.65h0l-.67-.48ZM50.67,73.43l-.12-.07-.66-.4-.4-.24-.41-.25-.06,0-1.16-.69c-.16-.1-.32-.21-.48-.3L46.73,71,47,70c.13-.53.28-1.06.44-1.59l0-.12c.14-.46.29-.92.43-1.39a.84.84,0,0,1,0-.12c.28.19.57.37.86.55l1.81,1.12.83.52.17.11.41.24-.14.39s0,.1,0,.15-.07.19-.1.28c-.13.41-.28.82-.41,1.24a3.86,3.86,0,0,0-.16.48c-.19.52-.35,1-.52,1.56Zm7.61-4.31-.46-.26-.1-.07-2.53-1.48c.35-.82.72-1.64,1.08-2.45,0-.08.09-.17.12-.25h0l.35-.75.22-.51L59,64.59l1,.56c-.11.22-.21.46-.3.68l-.18.4c-.19.44-.39.88-.57,1.34,0,.08-.07.17-.12.27a1.19,1.19,0,0,0-.08.2c-.11.23-.2.46-.29.69s-.12.26-.17.4Zm.59-8.49h0l-.52-.3c.24-.51.49-1,.71-1.51.39-.84.79-1.68,1.17-2.53l1.65,1.05.49.31.87.55c-.51,1-1,2.09-1.5,3.14l-.39.78c-.81-.5-1.66-1-2.49-1.49Zm7.5-8.8c-.59,1.16-1.17,2.34-1.75,3.52l-.23-.14-.92-.59-.26-.16-1.65-1.05c.14-.32.29-.63.44-.95s.34-.75.52-1.13.29-.65.45-.95.27-.59.4-.89l.09-.18.52.3.89.54h0c.14.09.28.17.41.27l1.06.62.3.18c0,.09-.09.18-.13.27l-.17.32ZM25,46.24c0,.18,0,.38-.06.57.07-.19.15-.37.21-.56A.41.41,0,0,1,25,46.24ZM38.78,33.92c-.2.16-.39.3-.58.43l.83.49a2,2,0,0,1-.25-.93Zm12.6,0c-.05.14-.11.28-.17.41.08-.12.16-.23.23-.35A.17.17,0,0,1,51.38,33.89ZM49.07,72.46l0,0c-.4-.23-.77-.47-1.17-.69a3.29,3.29,0,0,1,.09.43,2.21,2.21,0,0,1,0,.35s0,.06,0,.1a7.36,7.36,0,0,1,0,1l0,.4,0,.16c0,.19,0,.38-.09.58s-.1.49-.16.73l.08,0,.41,0h.49s0-.06,0-.09h0c.32-1,.57-1.9.77-2.72l-.38-.22Zm10.41-3.9c-.23-.25-.46-.49-.67-.73l-.08.2c-.11.23-.2.45-.29.69a1,1,0,0,1,.35,0,1.55,1.55,0,0,1,.37,0,3.51,3.51,0,0,1,.75.21,5.51,5.51,0,0,1-.43-.41Zm.2-2.74c-.06.13-.12.26-.17.4h0a.78.78,0,0,1,.45,0,.21.21,0,0,1,.11,0,4.62,4.62,0,0,0-.41-.46Zm-9.37-1.51a.8.8,0,0,0,.13.19,2.76,2.76,0,0,0,.29.3,1.85,1.85,0,0,0,.32.25.69.69,0,0,0,.19.1,2,2,0,0,0,.75.21l-1.68-1ZM25,46.23a5.54,5.54,0,0,1-.07.57c.07-.19.15-.37.22-.56,0,0-.08,0-.15,0ZM38.78,33.91c-.2.16-.4.3-.58.43.27.17.55.33.83.49a1.87,1.87,0,0,1-.25-.92Zm12.6,0c-.05.13-.11.27-.17.4l.22-.35A.12.12,0,0,1,51.38,33.89ZM50.31,64.31a1.27,1.27,0,0,0,.13.19,2.76,2.76,0,0,0,.29.3,1.59,1.59,0,0,0,.33.25.52.52,0,0,0,.18.1,2,2,0,0,0,.75.21l-1.68-1ZM25,46.23a5.54,5.54,0,0,1-.07.57c.07-.19.15-.37.22-.55l-.15,0ZM38.78,33.91c-.2.16-.4.3-.58.43.27.17.56.33.83.49a1.87,1.87,0,0,1-.25-.92Zm12.6,0c-.05.13-.11.27-.17.4a2.56,2.56,0,0,0,.22-.35.12.12,0,0,1,0,0ZM31.8,54.69a3.94,3.94,0,0,0-2.07-1,5.46,5.46,0,0,0-1.07-.1v.26c0,.28,0,.57,0,.86a1.48,1.48,0,0,0,0,.21c0,.15,0,.29,0,.43a5.05,5.05,0,0,0,.08.68l.52-1.36,4.37,2.87a7.51,7.51,0,0,0-1.9-2.88Zm18.51,9.63a.85.85,0,0,0,.14.19,2.06,2.06,0,0,0,.29.3,1.54,1.54,0,0,0,.32.25.81.81,0,0,0,.18.1,2,2,0,0,0,.75.21l-1.68-1.06ZM25,46.24c0,.19,0,.38-.06.57.07-.19.15-.37.22-.56Zm13.8-12.32c-.2.16-.4.3-.59.43l.84.49a1.89,1.89,0,0,1-.26-.93Zm12.59,0c-.05.13-.11.27-.17.4.08-.11.16-.23.23-.35a.09.09,0,0,1-.06-.06ZM31.8,54.69a4,4,0,0,0-2.06-1,5.64,5.64,0,0,0-1.08-.1c0,.08,0,.17,0,.26,0,.28,0,.58,0,.86a1.48,1.48,0,0,0,0,.21c0,.15,0,.29,0,.43a3.83,3.83,0,0,0,.08.68l.52-1.35,4.37,2.86A7.77,7.77,0,0,0,31.8,54.69Z"/><path class="aab92c69-d1f0-495c-9ba2-f6520901d67b" d="M34.26,54.58a.82.82,0,0,0-1.14.17h0l-.06.07a.78.78,0,0,0,.15,1.08.81.81,0,0,0,.37.15h.08a.81.81,0,0,0,.92-.69.83.83,0,0,0-.33-.77Z"/><path class="aab92c69-d1f0-495c-9ba2-f6520901d67b" d="M37.25,43.77a1.35,1.35,0,0,0-.82-.47,1.25,1.25,0,0,0-1.36.82h0a1.23,1.23,0,0,0-.08.63,1.41,1.41,0,0,0,.48.83,1.34,1.34,0,0,0,.58.23,1.25,1.25,0,0,0,.66-.09h0a1.87,1.87,0,0,0,.31-.17,1.27,1.27,0,0,0,.22-1.77Z"/><path class="aab92c69-d1f0-495c-9ba2-f6520901d67b" d="M27.86,44.2,27.69,44l-.21-.12-.23-.06H27a.7.7,0,0,0-.35.12.49.49,0,0,0-.19.15.63.63,0,0,0-.21.3l0,0a1,1,0,0,0,0,.68l.12.2a.86.86,0,0,0,.36.27l.06,0,.23.06h.24a.7.7,0,0,0,.35-.12.92.92,0,0,0,.34-.34.83.83,0,0,0,.11-.46.74.74,0,0,0-.06-.36Z"/><path class="aab92c69-d1f0-495c-9ba2-f6520901d67b" d="M29.85,39.27a.89.89,0,0,0-.48,1.18A.9.9,0,1,0,31,39.76h0A.92.92,0,0,0,29.85,39.27Z"/><path class="aab92c69-d1f0-495c-9ba2-f6520901d67b" d="M39.74,32.56a1.59,1.59,0,1,0,2,1,.76.76,0,0,0,0-.11A1.58,1.58,0,0,0,39.74,32.56Z"/><path class="aab92c69-d1f0-495c-9ba2-f6520901d67b" d="M50.75,36.45A1,1,0,1,0,52.1,37h0A1,1,0,0,0,50.75,36.45Z"/><path class="aab92c69-d1f0-495c-9ba2-f6520901d67b" d="M56.92,42a.91.91,0,0,0-.36-.29.5.5,0,0,0-.28-.12.86.86,0,0,0-.45,0l-.31.08-.28.16a.82.82,0,0,0-.29.35,1,1,0,0,0-.16.43v0h0v.28a.82.82,0,0,0,.15.42.49.49,0,0,0,.18.22l.1.11h0l.15.09a.83.83,0,0,0,.43.15h.3l.31-.09a.79.79,0,0,0,.38-.27.58.58,0,0,0,.2-.24,1,1,0,0,0,.16-.43v-.3l-.08-.31Z"/><path class="aab92c69-d1f0-495c-9ba2-f6520901d67b" d="M62,50.34a1.15,1.15,0,1,0,1.49.66v0A1.14,1.14,0,0,0,62,50.34Z"/><path class="aab92c69-d1f0-495c-9ba2-f6520901d67b" d="M66.38,43.51a1.13,1.13,0,0,0-.48-.36l-.29-.08a1.16,1.16,0,0,0-.61.08,1.29,1.29,0,0,0-.64.64A1.18,1.18,0,0,0,64.52,45l.06.06.22.22a.85.85,0,0,0,.38.19.7.7,0,0,0,.29,0,1,1,0,0,0,.44-.08l.27-.16.21-.21a.74.74,0,0,0,.18-.39.83.83,0,0,0,.05-.44V44.1A1.13,1.13,0,0,0,66.38,43.51Z"/><path class="aab92c69-d1f0-495c-9ba2-f6520901d67b" d="M64.05,36.52a1.14,1.14,0,0,0-.44-.34l-.06,0,0,0a1.19,1.19,0,0,0-.56-.07.85.85,0,0,0-.4.15.76.76,0,0,0-.32.27l-.13.23a1,1,0,0,0-.08.55,1.3,1.3,0,0,0,.28.62,1.1,1.1,0,0,0,1,.41l.29-.08a1.05,1.05,0,0,0,.46-.35,1.2,1.2,0,0,0,.21-.8A1,1,0,0,0,64.05,36.52Z"/><path class="aab92c69-d1f0-495c-9ba2-f6520901d67b" d="M55.93,32.89a1.15,1.15,0,0,0-1-.43h0l-.27.07-.26.15h0a.56.56,0,0,0-.21.22l-.15.25a1.28,1.28,0,0,0-.08.58.81.81,0,0,0,.16.43,1,1,0,0,0,.29.35,1.21,1.21,0,0,0,.54.22h.31a1.07,1.07,0,0,0,.56-.23,1.26,1.26,0,0,0,.44-.76,1.13,1.13,0,0,0-.08-.6Z"/><path class="aab92c69-d1f0-495c-9ba2-f6520901d67b" d="M49.69,30a1.82,1.82,0,0,0-.15-.27v0a1.23,1.23,0,0,0-.69-.39h-.28a.84.84,0,0,0-.4.14.55.55,0,0,0-.23.17.89.89,0,0,0-.23.34l-.07.26a1,1,0,0,0,0,.3.54.54,0,0,0,0,.18l.07.27a1,1,0,0,0,.35.46,1.23,1.23,0,0,0,.79.22.85.85,0,0,0,.41-.15.81.81,0,0,0,.33-.28,1.15,1.15,0,0,0,.21-.51,1.82,1.82,0,0,0,0-.33v0c0-.09,0-.2-.08-.3S49.7,30,49.69,30Z"/><path class="aab92c69-d1f0-495c-9ba2-f6520901d67b" d="M37.12,66.58a1.28,1.28,0,0,0-.49-.37l-.3-.08a1.2,1.2,0,0,0-.62.08,1,1,0,0,0-.39.28,1.07,1.07,0,0,0-.34.83,1.09,1.09,0,0,0,.08.47l.17.28a1.17,1.17,0,0,0,.48.37l.3.08a1.15,1.15,0,0,0,.63-.09,1.18,1.18,0,0,0,.73-1.1,1,1,0,0,0-.09-.47Z"/><path class="aab92c69-d1f0-495c-9ba2-f6520901d67b" d="M31.22,61.91l-.06-.06a1,1,0,0,0-1.46.2,1,1,0,0,0-.2.49v.09a1.07,1.07,0,0,0,.92,1.21,1.05,1.05,0,0,0,1-.42,1.12,1.12,0,0,0,.21-.5A1.1,1.1,0,0,0,31.22,61.91Z"/><path class="aab92c69-d1f0-495c-9ba2-f6520901d67b" d="M48.59,66.41a1.1,1.1,0,0,0-.47-.36L47.83,66a1.15,1.15,0,0,0-.61.08l0,0-.14.08a.55.55,0,0,0-.24.18l-.11.11a1.21,1.21,0,0,0-.22.55,1.16,1.16,0,0,0,1,1.31h.3l.31-.08,0,0a1.13,1.13,0,0,0,.72-1.07,1,1,0,0,0-.08-.46Z"/><path class="aab92c69-d1f0-495c-9ba2-f6520901d67b" d="M52.88,70.17a.71.71,0,0,0-.35-.24l-.28-.08a1.11,1.11,0,0,0-.57.07,1.83,1.83,0,0,0-.36.26l-.1.11h0l0,0-.05,0A1.18,1.18,0,0,0,51,71.52l.16.27a1.1,1.1,0,0,0,.47.36,1.3,1.3,0,0,0,.91,0,1.18,1.18,0,0,0,.71-.92V71.1h0v-.3a1.37,1.37,0,0,0-.07-.29A.88.88,0,0,0,52.88,70.17Z"/><path class="aab92c69-d1f0-495c-9ba2-f6520901d67b" d="M60.68,66.73l-.22-.22h0l-.06-.05a1.11,1.11,0,0,0-1.29-.08.88.88,0,0,0-.34.29l-.15.26a1.09,1.09,0,0,0-.08.59l.08.3a1.17,1.17,0,0,0,.37.48l.07.06h0a.81.81,0,0,0,.4.18.24.24,0,0,0,.15,0h.33l.29-.08a.84.84,0,0,0,.36-.25.55.55,0,0,0,.18-.22,1.12,1.12,0,0,0,.14-.4v0h0v-.3a.66.66,0,0,0,0-.15A1,1,0,0,0,60.68,66.73Z"/><path class="aab92c69-d1f0-495c-9ba2-f6520901d67b" d="M63.15,65.22a.87.87,0,1,0,1.13.47h0a.87.87,0,0,0-1.13-.47Z"/><path class="bcf2317e-1b87-4017-9cd1-e41d9dd287cc" d="M37.9,43l-.81-.41c-.53-.26-1.07-.51-1.61-.75-.17-.07-.32.18-.16.28.49.33,1,.64,1.5.94.26.16.53.3.8.44l.39.21a.52.52,0,0,0,.47.08.23.23,0,0,0,.13-.22C38.55,43.24,38.13,43.11,37.9,43Z"/><path class="bcf2317e-1b87-4017-9cd1-e41d9dd287cc" d="M41,36.43l-.38-.21-.76-.44c-.26-.15-.51-.26-.77-.39s-.45-.25-.68-.14a.08.08,0,0,0-.06.08.09.09,0,0,0,0,.09c.17.14.37.25.55.38s.46.32.7.46l.7.42.34.22a.93.93,0,0,0,.43.19c.15,0,.36-.15.25-.34A.8.8,0,0,0,41,36.43Z"/><path class="bcf2317e-1b87-4017-9cd1-e41d9dd287cc" d="M44.67,30.37a3.76,3.76,0,0,0-.67-.52q-.34-.24-.72-.45a6.32,6.32,0,0,0-1.51-.65c-.15,0-.25.21-.11.29.44.27.91.5,1.34.79.21.15.43.29.64.45s.41.36.63.51a.31.31,0,0,0,.47-.32l-.06-.1Z"/><path class="bcf2317e-1b87-4017-9cd1-e41d9dd287cc" d="M35.25,33.41a3.36,3.36,0,0,0-.51-.32l-.49-.28a8.25,8.25,0,0,0-1-.55.13.13,0,0,0-.19.05h0a.16.16,0,0,0,.06.2,8.77,8.77,0,0,0,.93.67,6.87,6.87,0,0,0,1,.64C35.27,34,35.46,33.58,35.25,33.41Z"/><path class="bcf2317e-1b87-4017-9cd1-e41d9dd287cc" d="M32.09,40l-.41-.24-.8-.49L30,38.75l-.41-.24a1.3,1.3,0,0,1-.31-.21.18.18,0,0,0-.3.17,1.46,1.46,0,0,0,.63.55l.84.56.83.52.41.26a1,1,0,0,0,.48.23c.18,0,.36-.14.26-.32A.8.8,0,0,0,32.09,40Z"/><path class="bcf2317e-1b87-4017-9cd1-e41d9dd287cc" d="M28.81,46.48c-.29-.18-.58-.34-.88-.49a11.75,11.75,0,0,0-1.84-.73.12.12,0,0,0-.16.06.13.13,0,0,0,.07.16c.57.29,1.12.63,1.67,1,.27.16.53.32.79.5l.39.27a1.13,1.13,0,0,0,.48.26.29.29,0,0,0,.24-.11.27.27,0,0,0,0-.26A2,2,0,0,0,28.81,46.48Z"/><path class="bcf2317e-1b87-4017-9cd1-e41d9dd287cc" d="M34.27,50.12a15.17,15.17,0,0,1-1.93-1.35c-.07-.06-.19,0-.15.11a4.93,4.93,0,0,0,1.66,1.55,8.58,8.58,0,0,1,1.74,1.5c.16.18.51,0,.39-.23A4.4,4.4,0,0,0,34.27,50.12Z"/><path class="bcf2317e-1b87-4017-9cd1-e41d9dd287cc" d="M42.39,55a5.84,5.84,0,0,0-1-.52l-1-.5a11.83,11.83,0,0,0-2-.91,0,0,0,0,0-.06,0,0,0,0,0,0,0,.06,9.25,9.25,0,0,0,1.78,1.26l.93.54a5.49,5.49,0,0,0,1,.5C42.4,55.48,42.63,55.14,42.39,55Z"/><path class="bcf2317e-1b87-4017-9cd1-e41d9dd287cc" d="M44.65,47.35l-.94-.52c-.63-.34-1.25-.68-1.87-1-.18-.11-.38.16-.19.27.61.38,1.21.77,1.81,1.17.29.2.58.4.88.59a3.4,3.4,0,0,0,1,.51.24.24,0,0,0,.26-.22.22.22,0,0,0,0-.16A3.07,3.07,0,0,0,44.65,47.35Z"/><path class="bcf2317e-1b87-4017-9cd1-e41d9dd287cc" d="M48.06,40.68a6.79,6.79,0,0,0-.94-.55c-.32-.17-.65-.34-1-.5a16.2,16.2,0,0,0-2-.86.22.22,0,0,0-.26.11.21.21,0,0,0,.11.26c.62.34,1.29.65,1.92,1l.93.49a10.2,10.2,0,0,0,1,.5.26.26,0,0,0,.32-.11A.28.28,0,0,0,48.06,40.68Z"/><path class="bcf2317e-1b87-4017-9cd1-e41d9dd287cc" d="M50.47,33.63a6.24,6.24,0,0,0-1.21-.78,10.15,10.15,0,0,0-1.3-.59c-.16-.06-.32.19-.15.28l1.2.71c.4.23.8.53,1.23.76a.23.23,0,0,0,.28-.1A.23.23,0,0,0,50.47,33.63Z"/><path class="bcf2317e-1b87-4017-9cd1-e41d9dd287cc" d="M50.11,50.5l-1-.51c-.35-.17-.69-.33-1-.53s-.45.26-.23.4A11.79,11.79,0,0,0,49.91,51a.27.27,0,0,0,.34-.14.26.26,0,0,0-.14-.34Z"/><path class="bcf2317e-1b87-4017-9cd1-e41d9dd287cc" d="M53.42,43.2a1,1,0,0,0-.17-.1A2.52,2.52,0,0,0,53,43l-.59-.24a5.31,5.31,0,0,0-.56-.2,1.5,1.5,0,0,1-.46-.22.12.12,0,0,0-.14,0,.12.12,0,0,0,0,.14,1,1,0,0,0,.37.4,5.23,5.23,0,0,0,.58.29l.61.27.3.13.19.05a.53.53,0,0,0,.18,0,.17.17,0,0,0,.15-.19l0-.08Z"/><path class="bcf2317e-1b87-4017-9cd1-e41d9dd287cc" d="M56.39,36.81a10.92,10.92,0,0,0-1.17-.62l-1.16-.6a.2.2,0,0,0-.26.11.19.19,0,0,0,.11.25h0l1.13.62a10.54,10.54,0,0,0,1.16.59C56.4,37.23,56.59,36.94,56.39,36.81Z"/><path class="bcf2317e-1b87-4017-9cd1-e41d9dd287cc" d="M58.92,30.05a3.68,3.68,0,0,0-.59-.45,5.05,5.05,0,0,0-.71-.33.24.24,0,0,0-.31.12.24.24,0,0,0,.13.3l.34.14.16.09L58,30l0,0s0,0,0,0c.21.12.42.25.62.39a.2.2,0,0,0,.3,0A.23.23,0,0,0,58.92,30.05Z"/><path class="bcf2317e-1b87-4017-9cd1-e41d9dd287cc" d="M63.36,42a7.65,7.65,0,0,0-.9-.69l-.94-.64c-.62-.42-1.26-.84-1.88-1.27a.24.24,0,0,0-.29.39l1.87,1.34.93.66a6.73,6.73,0,0,0,1,.62C63.39,42.51,63.53,42.15,63.36,42Z"/><path class="bcf2317e-1b87-4017-9cd1-e41d9dd287cc" d="M59.39,48.35c-.33-.23-.68-.45-1-.66a14.81,14.81,0,0,0-2.14-1.17.19.19,0,0,0-.17.32c.65.47,1.33.9,2,1.32.34.22.66.44,1,.65a6,6,0,0,0,1,.59c.16.06.33-.14.21-.28A5.29,5.29,0,0,0,59.39,48.35Z"/><path class="bcf2317e-1b87-4017-9cd1-e41d9dd287cc" d="M65.61,51.26a1.07,1.07,0,0,0-.19-.13L65,50.87a7,7,0,0,0-.9-.35.24.24,0,0,0-.3.13.24.24,0,0,0,.13.3h0c.29.13.56.27.84.42l.2.11h0l0,0,.1.06.24.14a.88.88,0,0,0,.23.07.21.21,0,0,0,.25-.06.21.21,0,0,0,0-.26A1.16,1.16,0,0,0,65.61,51.26Z"/><path class="bcf2317e-1b87-4017-9cd1-e41d9dd287cc" d="M69.29,44.67A2,2,0,0,0,69,44.5l-.64-.36-1.27-.68c-.2-.11-.38.21-.2.34.4.28.8.54,1.21.78l.64.37a2.17,2.17,0,0,0,.68.3c.17,0,.32-.21.19-.34A1,1,0,0,0,69.29,44.67Z"/><path class="bcf2317e-1b87-4017-9cd1-e41d9dd287cc" d="M65.5,35.29c-.26-.29-.54-.57-.82-.83a7.09,7.09,0,0,0-1.89-1.26c-.23-.11-.37.25-.15.36a7.16,7.16,0,0,1,1.72,1.32c.25.26.49.51.72.78a3.7,3.7,0,0,0,.79.79.21.21,0,0,0,.25,0,.2.2,0,0,0,.06-.23A2.79,2.79,0,0,0,65.5,35.29Z"/><path class="bcf2317e-1b87-4017-9cd1-e41d9dd287cc" d="M70.05,42.5q.12.3.21.6a45.83,45.83,0,0,1-10,5.71c-12.3,5.11-26.85,6.09-37.5-.94A24.53,24.53,0,0,1,70.05,42.5Z"/></g></g></g></g></g></svg>