<svg xmlns="http://www.w3.org/2000/svg" xmlns:xlink="http://www.w3.org/1999/xlink" viewBox="0 0 275.44 179.98"><defs><style>.ace1cda6-1141-41fa-853c-32562d05c676{fill:#1a6bb4;stroke:#1a6bb4;}.a0708e35-4c85-448e-b598-13a21997aaa8,.a0928fd1-a63e-4fbc-8b3b-3ffd5dd4fe92,.a2ff02f7-fcb2-4884-ab5c-b9e00ddc4f9d,.a439205c-dd16-4289-8f6a-440029ab035f,.a443af55-d7f6-4d49-b284-867749c9e9e6,.a551eed8-fa43-4fa9-8a78-1898a54f31f1,.a77755bb-7812-4da1-99bf-ed53221489c4,.a8e45e5d-d468-44be-af74-5f41adeba9c3,.a900fd3a-6edc-4121-9874-18a4b0e296e3,.ace1cda6-1141-41fa-853c-32562d05c676,.b0217c23-2fff-4aa2-b8c4-fc392515e05b,.b1a849f1-167e-494e-902e-6feebf4f296e,.b6d43ee2-e733-43ce-a5eb-ed6a21d2dada,.b7e9f874-4f24-4d2f-bf2e-201381f56b5b,.bafe2bf2-5152-4bc5-85ac-554337186faa,.bbd47e2a-ee27-479a-acbd-5b5d1207c040,.bc1748f1-184e-4d7a-8485-d225f46dffa3,.bcb8a9fb-84e6-49ce-a710-93a0660f9eff,.e11cf4a0-a63d-493c-b626-aca8b98ccdcf,.e194f38b-6f71-4f04-b80c-702a343f5200,.e3e6f75e-6943-4aa8-8a7e-ef8d0a897b2d,.e786c5f1-178d-49e3-b7f0-236c91fbc8a4,.e82d2b36-7814-432d-b287-66d6b51aaf36,.ead3c44b-bff2-471b-88cc-01ad3045e137,.edfa2713-0cf9-4dc5-a02a-745432628eb8,.ef597c60-c6e0-41c4-844a-a31f721dee82,.efd807a9-cdd3-489e-ba83-9fadd59d8de7,.f1d0ffa1-d42e-48db-b9f7-d9705f530adc,.f1eaf89e-cedb-4419-9b40-ea2b0be40d21,.f32ec3b5-18b0-4b5d-bece-99b6cd7a91bf,.f39787fc-e4e3-449e-b22f-0d815c04bea9,.f3fe5010-97ae-4c30-bf42-9973f2708d2a,.f4030eab-bf61-4530-b940-65e1f2e97935,.f46187ec-f504-432c-b2dc-d2614180ff68,.f47126a8-4555-427a-8616-4a4f8f3b5fac,.f62a0b6e-87b6-457e-aaaa-01df29654641,.f6d5c936-cbe8-4667-904e-3618660b0eb0,.f9f59cc1-ab92-46e0-a06c-cb9aedc772b4,.fb1c00ed-3e41-417a-b549-4e71f0c49feb{stroke-linecap:round;stroke-linejoin:round;stroke-width:0.74px;}.a77755bb-7812-4da1-99bf-ed53221489c4{fill:#3e5c90;stroke:#3e5c90;}.b6d43ee2-e733-43ce-a5eb-ed6a21d2dada{fill:#cd6996;stroke:#cd6996;}.f1d0ffa1-d42e-48db-b9f7-d9705f530adc,.f47126a8-4555-427a-8616-4a4f8f3b5fac{stroke:#2c6fb7;}.f1d0ffa1-d42e-48db-b9f7-d9705f530adc{fill:url(#ac10fae9-49e3-476e-9236-ce3e3dd7228d);}.a0708e35-4c85-448e-b598-13a21997aaa8{fill:#196db7;stroke:#196db7;}.e82d2b36-7814-432d-b287-66d6b51aaf36{stroke:#341231;}.a8e45e5d-d468-44be-af74-5f41adeba9c3,.ef597c60-c6e0-41c4-844a-a31f721dee82{stroke:#1d69af;}.a8e45e5d-d468-44be-af74-5f41adeba9c3{fill:url(#a411b1db-ca82-420f-85bc-09a2ba63a85d);}.a900fd3a-6edc-4121-9874-18a4b0e296e3,.bbd47e2a-ee27-479a-acbd-5b5d1207c040{stroke:#adacb4;}.a900fd3a-6edc-4121-9874-18a4b0e296e3{fill:url(#a8eb0290-3fbf-414b-b35c-f1cc51f2103e);}.f6d5c936-cbe8-4667-904e-3618660b0eb0{fill:#34102f;stroke:#34102f;}.bafe2bf2-5152-4bc5-85ac-554337186faa{fill:#411b3d;stroke:#411b3d;}.e786c5f1-178d-49e3-b7f0-236c91fbc8a4{fill:#ad5580;stroke:#ad5580;}.ead3c44b-bff2-471b-88cc-01ad3045e137,.f3fe5010-97ae-4c30-bf42-9973f2708d2a{stroke:#1c71bc;}.f3fe5010-97ae-4c30-bf42-9973f2708d2a{fill:url(#fbe1604d-5a46-45a2-9872-e87c4e09bb14);}.f9f59cc1-ab92-46e0-a06c-cb9aedc772b4{fill:#d776a8;stroke:#d776a8;}.a439205c-dd16-4289-8f6a-440029ab035f,.a443af55-d7f6-4d49-b284-867749c9e9e6{stroke:#c9a41e;}.a439205c-dd16-4289-8f6a-440029ab035f{fill:url(#b1b183cb-9cd1-426f-a5b4-b2fa1325b1b1);}.f62a0b6e-87b6-457e-aaaa-01df29654641{fill:#e978a7;stroke:#e978a7;}.f46187ec-f504-432c-b2dc-d2614180ff68{fill:#d26c9a;stroke:#d26c9a;}.a2ff02f7-fcb2-4884-ab5c-b9e00ddc4f9d,.e3e6f75e-6943-4aa8-8a7e-ef8d0a897b2d{stroke:#1a6ab3;}.a2ff02f7-fcb2-4884-ab5c-b9e00ddc4f9d{fill:url(#b806c1a0-6472-4685-b270-a53c7f0bf855);}.b0217c23-2fff-4aa2-b8c4-fc392515e05b,.f32ec3b5-18b0-4b5d-bece-99b6cd7a91bf{stroke:#1c64a9;}.f32ec3b5-18b0-4b5d-bece-99b6cd7a91bf{fill:url(#b0be90ee-d226-4b63-ae57-ede6e38c478e);}.efd807a9-cdd3-489e-ba83-9fadd59d8de7,.fb1c00ed-3e41-417a-b549-4e71f0c49feb{stroke:#286fb8;}.efd807a9-cdd3-489e-ba83-9fadd59d8de7{fill:url(#f1a856c3-4dfd-4963-af94-aa40f9dfbe42);}.a551eed8-fa43-4fa9-8a78-1898a54f31f1,.b1a849f1-167e-494e-902e-6feebf4f296e{stroke:#226bb3;}.a551eed8-fa43-4fa9-8a78-1898a54f31f1{fill:url(#e67501de-721b-4ce6-95d3-aa78c753f5e8);}.bcb8a9fb-84e6-49ce-a710-93a0660f9eff{fill:#c475a1;stroke:#c475a1;}.e11cf4a0-a63d-493c-b626-aca8b98ccdcf,.f39787fc-e4e3-449e-b22f-0d815c04bea9{stroke:#4d4a7b;}.e11cf4a0-a63d-493c-b626-aca8b98ccdcf{fill:url(#b5eea9ea-b1ff-4289-b42d-33ea7d88d7ca);}.f4030eab-bf61-4530-b940-65e1f2e97935{fill:#293564;stroke:#293564;}.b7e9f874-4f24-4d2f-bf2e-201381f56b5b,.edfa2713-0cf9-4dc5-a02a-745432628eb8{stroke:#395e9c;}.b7e9f874-4f24-4d2f-bf2e-201381f56b5b{fill:url(#ba6dbd3c-78f1-4f4e-9cb5-1c6fef969653);}.bc1748f1-184e-4d7a-8485-d225f46dffa3,.e194f38b-6f71-4f04-b80c-702a343f5200{stroke:#4d75bb;}.bc1748f1-184e-4d7a-8485-d225f46dffa3{fill:url(#b9947015-a63d-47e6-8140-cdbe66013552);}.a0928fd1-a63e-4fbc-8b3b-3ffd5dd4fe92,.f1eaf89e-cedb-4419-9b40-ea2b0be40d21{stroke:#1e5c9d;}.a0928fd1-a63e-4fbc-8b3b-3ffd5dd4fe92{fill:url(#b6c2ca43-811f-4c95-abd0-d67ee1f23c7a);}.f47126a8-4555-427a-8616-4a4f8f3b5fac{fill:url(#b6d15067-a5ec-4199-9626-7a30e331c7ee);}.ef597c60-c6e0-41c4-844a-a31f721dee82{fill:url(#e62ff019-98a8-44c4-8c56-b3c8b6d70827);}.bbd47e2a-ee27-479a-acbd-5b5d1207c040{fill:url(#a41c2cc9-6794-440f-9113-6718cb4a536f);}.ead3c44b-bff2-471b-88cc-01ad3045e137{fill:url(#ef9a2562-321a-42b9-b5c8-d7a3c132c622);}.a443af55-d7f6-4d49-b284-867749c9e9e6{fill:url(#a836f15c-a31f-440a-9fe3-4de7115bf3f6);}.e3e6f75e-6943-4aa8-8a7e-ef8d0a897b2d{fill:url(#b67ba117-c105-41b3-bde6-84b1a91a217e);}.b0217c23-2fff-4aa2-b8c4-fc392515e05b{fill:url(#aea84f6d-e343-4c18-acc2-9085d54e787b);}.fb1c00ed-3e41-417a-b549-4e71f0c49feb{fill:url(#aa30ddf3-7cbf-4724-8641-3869867fd567);}.b1a849f1-167e-494e-902e-6feebf4f296e{fill:url(#b5bf7d7d-6090-4493-8bd1-4e1de2eec58a);}.f39787fc-e4e3-449e-b22f-0d815c04bea9{fill:url(#b29faa30-d78a-4930-9d8c-e3a9d51ed646);}.edfa2713-0cf9-4dc5-a02a-745432628eb8{fill:url(#ec3e53cf-ee37-49bb-9ef5-8ba3f621c299);}.e194f38b-6f71-4f04-b80c-702a343f5200{fill:url(#a18fd5be-9483-4a49-9a1f-9834d1cf1dec);}.f1eaf89e-cedb-4419-9b40-ea2b0be40d21{fill:url(#ab7f0ce2-b502-41a8-8760-ab3c61c1a13d);}</style><linearGradient id="ac10fae9-49e3-476e-9236-ce3e3dd7228d" x1="-904.98" y1="223.47" x2="-898.27" y2="223.47" gradientTransform="matrix(0.7, 0.23, 0.23, -0.7, 624.73, 519.19)" gradientUnits="userSpaceOnUse"><stop offset="0" stop-color="#fedf1a"/><stop offset="0.08" stop-color="#fba658"/><stop offset="0.17" stop-color="#f6789c"/><stop offset="0.26" stop-color="#c86bd5"/><stop offset="0.36" stop-color="#9c88db"/><stop offset="0.46" stop-color="#ae9ee2"/><stop offset="0.56" stop-color="#5caee4"/><stop offset="0.65" stop-color="#19d2e3"/><stop offset="0.75" stop-color="#18ddd4"/><stop offset="0.76" stop-color="#2de4ba"/><stop offset="0.89" stop-color="#80efd5"/><stop offset="0.92" stop-color="#62fc6c"/><stop offset="1" stop-color="#62fc6c"/></linearGradient><linearGradient id="a411b1db-ca82-420f-85bc-09a2ba63a85d" x1="-986.89" y1="342.49" x2="-917.45" y2="342.49" xlink:href="#ac10fae9-49e3-476e-9236-ce3e3dd7228d"/><linearGradient id="a8eb0290-3fbf-414b-b35c-f1cc51f2103e" x1="-966.02" y1="284.87" x2="-872.44" y2="284.87" gradientTransform="matrix(0.7, 0.23, 0.23, -0.7, 624.73, 519.19)" gradientUnits="userSpaceOnUse"><stop offset="0"/><stop offset="1" stop-color="#fff"/></linearGradient><linearGradient id="fbe1604d-5a46-45a2-9872-e87c4e09bb14" x1="-987.74" y1="298.77" x2="-927.51" y2="298.77" xlink:href="#ac10fae9-49e3-476e-9236-ce3e3dd7228d"/><linearGradient id="b1b183cb-9cd1-426f-a5b4-b2fa1325b1b1" x1="-917.08" y1="260.24" x2="-891.33" y2="260.24" gradientTransform="matrix(0.7, 0.23, 0.23, -0.7, 624.73, 519.19)" gradientUnits="userSpaceOnUse"><stop offset="0" stop-color="#ffaf00"/><stop offset="1" stop-color="#feff00"/></linearGradient><linearGradient id="b806c1a0-6472-4685-b270-a53c7f0bf855" x1="-942.69" y1="271.08" x2="-918.32" y2="271.08" gradientTransform="matrix(0.7, 0.23, 0.23, -0.7, 624.73, 519.19)" gradientUnits="userSpaceOnUse"><stop offset="0" stop-color="#fedf1a"/><stop offset="0.15" stop-color="#fba658"/><stop offset="0.23" stop-color="#f6789c"/><stop offset="0.29" stop-color="#c86bd5"/><stop offset="0.39" stop-color="#9c88db"/><stop offset="0.49" stop-color="#ae9ee2"/><stop offset="0.56" stop-color="#5caee4"/><stop offset="0.65" stop-color="#19d2e3"/><stop offset="0.75" stop-color="#18ddd4"/><stop offset="0.84" stop-color="#2de4ba"/><stop offset="0.89" stop-color="#80efd5"/><stop offset="0.95" stop-color="#62fc6c"/><stop offset="1" stop-color="#62fc6c"/></linearGradient><linearGradient id="b0be90ee-d226-4b63-ae57-ede6e38c478e" x1="-970.4" y1="279.65" x2="-947.63" y2="279.65" xlink:href="#ac10fae9-49e3-476e-9236-ce3e3dd7228d"/><linearGradient id="f1a856c3-4dfd-4963-af94-aa40f9dfbe42" x1="-932.49" y1="247.44" x2="-912.96" y2="247.44" xlink:href="#ac10fae9-49e3-476e-9236-ce3e3dd7228d"/><linearGradient id="e67501de-721b-4ce6-95d3-aa78c753f5e8" x1="-949.36" y1="259.19" x2="-927.35" y2="259.19" xlink:href="#ac10fae9-49e3-476e-9236-ce3e3dd7228d"/><linearGradient id="b5eea9ea-b1ff-4289-b42d-33ea7d88d7ca" x1="-929.2" y1="262.26" x2="-907.43" y2="262.26" xlink:href="#b806c1a0-6472-4685-b270-a53c7f0bf855"/><linearGradient id="ba6dbd3c-78f1-4f4e-9cb5-1c6fef969653" x1="-928.73" y1="259.44" x2="-912.53" y2="259.44" xlink:href="#b806c1a0-6472-4685-b270-a53c7f0bf855"/><linearGradient id="b9947015-a63d-47e6-8140-cdbe66013552" x1="-895.72" y1="235.92" x2="-893.16" y2="235.92" xlink:href="#ac10fae9-49e3-476e-9236-ce3e3dd7228d"/><linearGradient id="b6c2ca43-811f-4c95-abd0-d67ee1f23c7a" x1="-913.17" y1="227.37" x2="-908.3" y2="227.37" xlink:href="#ac10fae9-49e3-476e-9236-ce3e3dd7228d"/><linearGradient id="b6d15067-a5ec-4199-9626-7a30e331c7ee" x1="-898.62" y1="226.43" x2="-891.9" y2="226.43" gradientTransform="matrix(-0.66, 0.33, -0.33, -0.66, -272.35, 599.63)" xlink:href="#ac10fae9-49e3-476e-9236-ce3e3dd7228d"/><linearGradient id="e62ff019-98a8-44c4-8c56-b3c8b6d70827" x1="-980.53" y1="345.45" x2="-911.08" y2="345.45" gradientTransform="matrix(-0.66, 0.33, -0.33, -0.66, -272.35, 599.63)" xlink:href="#ac10fae9-49e3-476e-9236-ce3e3dd7228d"/><linearGradient id="a41c2cc9-6794-440f-9113-6718cb4a536f" x1="-959.65" y1="287.83" x2="-866.08" y2="287.83" gradientTransform="matrix(-0.66, 0.33, -0.33, -0.66, -272.35, 599.63)" xlink:href="#a8eb0290-3fbf-414b-b35c-f1cc51f2103e"/><linearGradient id="ef9a2562-321a-42b9-b5c8-d7a3c132c622" x1="-981.38" y1="301.73" x2="-921.14" y2="301.73" gradientTransform="matrix(-0.66, 0.33, -0.33, -0.66, -272.35, 599.63)" xlink:href="#ac10fae9-49e3-476e-9236-ce3e3dd7228d"/><linearGradient id="a836f15c-a31f-440a-9fe3-4de7115bf3f6" x1="-910.71" y1="263.2" x2="-884.96" y2="263.2" gradientTransform="matrix(-0.66, 0.33, -0.33, -0.66, -272.35, 599.63)" xlink:href="#b1b183cb-9cd1-426f-a5b4-b2fa1325b1b1"/><linearGradient id="b67ba117-c105-41b3-bde6-84b1a91a217e" x1="-936.33" y1="274.04" x2="-911.95" y2="274.04" gradientTransform="matrix(-0.66, 0.33, -0.33, -0.66, -272.35, 599.63)" xlink:href="#b806c1a0-6472-4685-b270-a53c7f0bf855"/><linearGradient id="aea84f6d-e343-4c18-acc2-9085d54e787b" x1="-964.03" y1="282.61" x2="-941.26" y2="282.61" gradientTransform="matrix(-0.66, 0.33, -0.33, -0.66, -272.35, 599.63)" xlink:href="#ac10fae9-49e3-476e-9236-ce3e3dd7228d"/><linearGradient id="aa30ddf3-7cbf-4724-8641-3869867fd567" x1="-926.12" y1="250.4" x2="-906.59" y2="250.4" gradientTransform="matrix(-0.66, 0.33, -0.33, -0.66, -272.35, 599.63)" xlink:href="#ac10fae9-49e3-476e-9236-ce3e3dd7228d"/><linearGradient id="b5bf7d7d-6090-4493-8bd1-4e1de2eec58a" x1="-942.99" y1="262.15" x2="-920.98" y2="262.15" gradientTransform="matrix(-0.66, 0.33, -0.33, -0.66, -272.35, 599.63)" xlink:href="#ac10fae9-49e3-476e-9236-ce3e3dd7228d"/><linearGradient id="b29faa30-d78a-4930-9d8c-e3a9d51ed646" x1="-922.84" y1="265.22" x2="-901.07" y2="265.22" gradientTransform="matrix(-0.66, 0.33, -0.33, -0.66, -272.35, 599.63)" xlink:href="#b806c1a0-6472-4685-b270-a53c7f0bf855"/><linearGradient id="ec3e53cf-ee37-49bb-9ef5-8ba3f621c299" x1="-922.36" y1="262.4" x2="-906.17" y2="262.4" gradientTransform="matrix(-0.66, 0.33, -0.33, -0.66, -272.35, 599.63)" xlink:href="#b806c1a0-6472-4685-b270-a53c7f0bf855"/><linearGradient id="a18fd5be-9483-4a49-9a1f-9834d1cf1dec" x1="-889.36" y1="238.88" x2="-886.79" y2="238.88" gradientTransform="matrix(-0.66, 0.33, -0.33, -0.66, -272.35, 599.63)" xlink:href="#ac10fae9-49e3-476e-9236-ce3e3dd7228d"/><linearGradient id="ab7f0ce2-b502-41a8-8760-ab3c61c1a13d" x1="-906.8" y1="230.33" x2="-901.94" y2="230.33" gradientTransform="matrix(-0.66, 0.33, -0.33, -0.66, -272.35, 599.63)" xlink:href="#ac10fae9-49e3-476e-9236-ce3e3dd7228d"/></defs><g id="b532eeb8-a514-45c8-b42f-513e007e71fc" data-name="Layer 2"><g id="f1ef4ac1-158f-4b71-a4e2-ee53434a74b8" data-name="Layer 1"><path class="ace1cda6-1141-41fa-853c-32562d05c676" d="M51,152.24c.77,3-3.22,18.46-6.14,18.49-2.74,0-1.26-9.89,0-11.35C47,161.82,50,152.47,51,152.24Z"/><path class="a77755bb-7812-4da1-99bf-ed53221489c4" d="M55.78,138.66c7.34-2.09-.57,23.46-1.58,31.42-.22,1.72-.86,8.71-3.24,8.2s-1.73-7.84-1.59-9.93C50.05,158.47,46.21,141.38,55.78,138.66Z"/><path class="b6d43ee2-e733-43ce-a5eb-ed6a21d2dada" d="M51.15,136.88c1.24,1.91-2.44,10.76-3.2,13,3.31-.86,3.64-7.59,6.5-9.44-1.17,3.36-6,16.72-8.87,16.41-2.42-.26-.75-6.68-.25-7.88C47.07,144.68,48.16,140.62,51.15,136.88Z"/><path class="f1d0ffa1-d42e-48db-b9f7-d9705f530adc" d="M39.38,162C36.54,155.21,42,148,47,143.73l.28.32C44.89,148.05,44.59,161.54,39.38,162Z"/><path class="a0708e35-4c85-448e-b598-13a21997aaa8" d="M43.19,133.77c1-.48-11.29,14.77-14.13,7.65C27.72,138,41.21,134.7,43.19,133.77Z"/><path class="e82d2b36-7814-432d-b287-66d6b51aaf36" d="M46.86,121.89c-5.68,1.47-15.94-6-21.2-6.63a17.68,17.68,0,0,0-6.91.2c-3.42.89-1.57,5.56,1,6.11-.39-1.49.31-1.48,1.71-1.84,1.74,2.68,18.42,7.34,21,5.09,1,4,8.6.7,10.41.28-4.33,3.78-9.52,5.39-15.06,7.09.45-2.11,5.05-2.14,6.13-4-2.32-.15-4.1-1.69-6.87-1.2a26.17,26.17,0,0,0-6.34,1.65c-1.55.61-9.42,4.86-4.09,6.43,3.74,1.1,18.32-2.51,20.36-4.29,1.12,4.32,5.24-.35,6.89-1.79-.78,3.67-7.45,12.27-10.9,13.17.88-4.16,5.09-5.49,3.51-9.46-3.09.8-12.64,15.72-12.54,17.57.13,2.36,4,.19,4.71-1-1.58-1.81-1.41-2.95-.7-5,2.47,9.51,12-7.16,12.76-8.29.18-.26.4-.5.6-.75.57,2.18-2.55,5.41-3.25,6.61-4,6.76-11.33,10.76-8.93,20C43,162,43.61,157,44.25,154c.53.6.13,2.75,1.33,2.83,3.08.21,7.74-12.84,8.91-16.23-1.45-.31-1.85,1-2.45,2a3.38,3.38,0,0,0-.25-1.72c-1.78,2.23-2.68,5.59-3.61,8.29-.82-.93,2.62-10.75,3.4-11.42,2.6,3,4.72-3.2,5.09-4.9,2.08,8-.44,23.23-.65,32-.07,2.76,1,9.08-.41,11.44-4.17,7.09-8.54.85-8.13-5.25-7.07,6.17-5.16-2.85-5.2-7.8-6.65,5.8-4.73-6.8-4.75-9.89-10.1,2.61-3-5.47-3.72-8.19-10.23,2.66-5.21-2.47-6.22-6.34-.28-1.09-3.94-2.16-4.78-3.13-3.89-4.44,4-6.58,6.74-7.71-8.89-1.89-26.38-10.32-9.06-16.54C17.18,109.49.78,96.18,3.15,92.87c1.87-2.62,8,1.5,10.18.94-3.86-8-8.36-16.1-10.95-24.6-.71-2.33-3.13-7-1.4-10,1.87-3.19,12.61,8.42,13.91,9.91.79-11.73-.8-23.86-.51-35.66.21-8.6,2.25-18.12,8-3.66,1.52-1.33,2.33-5.46,3.06-7.36A140.12,140.12,0,0,1,35.15,1.66a2.43,2.43,0,0,1,.92-1c2.39-1.16.64,10.25.52,11.19-1.54,12.11-7,23.21-7.81,35-1.34,19.83,5.13,39.51,13.12,57.44a48.18,48.18,0,0,0,4.93,9.06c1.21,1.63,3.78,2.3,4.33,4.44-7.69-6.87-11.14-17-14.65-26.62C31,76.13,26,58.84,28,42.47c1.48-11.59,8.74-23,5.62-35-1.71.44-3.4,5.21-3.77,6.94-.76,3.57-7.85,24.5-5.73,26.93l-.32.29.28.32c-1,1.66.51,4.23-.33,5.65.15.16.15.16.29.33C22.94,49.8,24.4,56,24.91,58c2.65,10.18,4,21,8.4,30.82-7.12-14.69-9-29.72-11.23-45.59-.6-4.35-.45-12.89-4.81-15.46-2.11,3.59.07,9-1.8,12.2l.28.32c-.33.56-.49.89,0,1.41l-.27.46.28.33c-.92.8-.38,9.38.23,10.08-2.94,5,5,22,8.23,27.88l.37-.09c.14.51.13.24,0,.79l.37-.1c-.06.88-.14.43.34,1.31l.37-.1c-.06.87-.13.43.34,1.31l.37-.1c-.05.86,1.52,3.75,2.42,3.94l-.09.43.42.08c0,.22,0,.22-.09.43l.42.09c0,.21,0,.21-.09.42l.42.09-.09.42.43.09-.05.6c-1.58-.93-3.35-4.38-4.53-6-3.9-5.3-8.82-9.71-13.15-14.68-1.36-1.55-5-6.24-7.43-5.62-3,.78,1.2,9.55,2.07,11.79A88,88,0,0,0,18.24,95.12c1.56,2.11,5.81,5.5,6.42,7.87C23.1,101.21,10,94.51,7.84,95.63,5,97.09,14.05,103,16.91,102.22,20.31,115.34,37.15,116.17,46.86,121.89Z"/><path class="a8e45e5d-d468-44be-af74-5f41adeba9c3" d="M44.28,109.63C42.82,104,39.23,98.46,37.18,93c-4.93-13.13-8.93-26.82-9.42-40.9-.53-15,9.51-30.75,5.9-44.67-1.71.44-3.4,5.21-3.77,6.94-.76,3.57-7.85,24.5-5.73,26.93l-.32.29.28.32c-1,1.66.51,4.23-.33,5.65.15.16.15.16.29.33C22.94,49.8,24.4,56,24.91,58c2.65,10.18,4,21,8.4,30.82-7.12-14.69-9-29.72-11.23-45.59-.6-4.35-.45-12.89-4.81-15.46-2.11,3.59.07,9-1.8,12.2l.28.32c-.33.56-.49.89,0,1.41l-.27.46.28.33c-.92.8-.38,9.38.23,10.08-2.94,5,5,22,8.23,27.88l.37-.09c.14.51.13.24,0,.79l.37-.1c-.06.88-.14.43.34,1.31l.37-.1c-.06.87-.13.43.34,1.31l.37-.1c-.05.86,1.52,3.75,2.42,3.94l-.09.43.42.08c0,.22,0,.22-.09.43l.42.09c0,.21,0,.21-.09.42l.42.09-.09.42c.21,0,9.87,13.58,10.83,14.88.29.41.63.73.52,1.26,1.34.79,2,2.82,2.89,4.22Z"/><path class="a900fd3a-6edc-4121-9874-18a4b0e296e3" d="M50.85,119.66a5.35,5.35,0,0,0,3.42.9C39.11,111.65,29.65,71.87,28.6,57.64c-.2-2.65.22-22.53,3.48-23.37a57.62,57.62,0,0,0-1.2,12.24l-.28-.33c-1.67,24.58,7.53,52.87,24,71.72l.33-.29a19.65,19.65,0,0,0-1.56-2.18c8.26-4.49,16.48,18.61,6.29,15.07,1.87,7.19-2.12,23.12-2.05,31.95l.56-.15c-.83,3.89,2.9,12.37-2.58,13.79,1-14.86,2.7-32.06,1.4-46.69C56.28,121.68,51.78,123.22,50.85,119.66Z"/><path class="f6d5c936-cbe8-4667-904e-3618660b0eb0" d="M57.58,162.45c-1.7-6.57.53-16.33,1.39-23,.32-2.57,2.15-6.95.48-8.87,11.26-.1,2.1-17.25-6.11-15.12A12.37,12.37,0,0,0,55,117.8c-3.05-1.06-7.77-10.69-9.51-13.64-10-17-16.33-37.9-15-57.74,1.2,2.21.4,6.48.55,9,.44,7.84,2.31,15.81,4.26,23.35,2.78,10.68,9,27.28,17.36,35.46,1.39,1.37,5.6.93,7.48,2,2.35,1.38,5.18,7.69,5.93,10.59.64,2.46-3,3.35-4.3,4.1-1.49.85-1.77,7.65-2,9.26C59.37,143.34,58.57,162.19,57.58,162.45Z"/><path class="bafe2bf2-5152-4bc5-85ac-554337186faa" d="M25.65,109.1c1,1.12,14.73,7.71,15.66,7.47-5.54-1.18-10.13-6.36-15.81-8a1.23,1.23,0,0,1-.84-1c-.15-1.6,4.64.52,5.18.84,3.55,2.08,9.52,4.1,12.2,7.17.52-.45.45-.87,1.07-1.27-10.29-6-18.36-16.86-25.63-26.75C16.05,85.63,9,73.88,14.42,75c-1.79,5.17,11.9,23.57,16.82,27.25,1.18.88,4.85,6.5,6.17,6.15.51.8,1.23,1.34,1.74,2.14l.37-.1c.08.28.08.28.15.56l.37-.1c.75,1.15,2,1.75,2.73,2.87l.38-.1c.13.52,0,.28.38.7-2.27,3.86,6.22,7.25,8.66,8.09-1.29,1.12-3.78-.36-5.14-.65l.46-.52C44.34,120.22,26.35,111.79,25.65,109.1Z"/><path class="e786c5f1-178d-49e3-b7f0-236c91fbc8a4" d="M30.19,89.83c1.28,2,10.86,15.52,10.83,15.68,1.34.79,2,2.82,2.89,4.22l.37-.1c.59,2.3,2.36,3.89,3.83,5.57-2.84-.6-6.53-1.44-8.07-4.27l-.37.1c-.07-.28-.07-.28-.15-.56l-.37.1c-.51-.8-1.23-1.34-1.74-2.14l-.38.1c-.54-2.09-4.32-4.42-5.75-6.06-4.36-5-10.4-10.82-13.31-16.83-.63-1.29-1.43-3-2.14-4.41-.35-.73-3.05-9.58.93-6.4C22,79,25.46,85.06,29.87,90.11Z"/><path class="f3fe5010-97ae-4c30-bf42-9973f2708d2a" d="M36.48,109.47C29.25,103,21.55,94.64,16.48,86c-3.48-5.92-7.15-9.68.18-11.58-1.25-1.93-10.9-13.38-12.32-9.92S6.39,74.31,8,77.7C12.71,88,19.51,99.81,29.07,105.43,30.6,106.33,34.73,109.93,36.48,109.47Z"/><path class="f9f59cc1-ab92-46e0-a06c-cb9aedc772b4" d="M43.06,114.13c-.31.52-.71.93-1,1.45-2.73-3.13-8.81-5.18-12.43-7.31-.58-.34-5-2.16-4.95-.7,0,4,19.3,11.82,22.9,13.94-5.09,1.32-21.23-8.48-25.5-11.68-1.6-1.2-7.3-7.45-4.09-8.88C23,98.72,38,113.05,43.06,114.13Z"/><path class="a439205c-dd16-4289-8f6a-440029ab035f" d="M52.37,122.44c-.79-.27-13.13-5.44-8.84-8,3.37-2,8.43,4.1,10.74,6.16-1,.62-2.35-.68-3.55-.67,3.17,3.64,4.83,3.31,6.38,9.28.76,2.94-1.77,11-5.71,8.64.53-2.49,2.32-6.32,2.49-8.8-6,6.72-9.05,1.52-1-3.72-2.19.5-4.37,1-6.57,1.5-1.94.4-5.83-2.19-2.83-3.24C47.12,122.29,49.18,123.27,52.37,122.44Z"/><path class="f62a0b6e-87b6-457e-aaaa-01df29654641" d="M42.73,124.35c-4-.85-10,.24-13-3.2,2-3.38,13,.93,16.3.74-6.29-1.34-12.39-3-18.89-3.84-1-.13-6.22-.86-6,.75C21.93,123.47,41.9,126.74,42.73,124.35Z"/><path class="f46187ec-f504-432c-b2dc-d2614180ff68" d="M46.49,132.72c.35,1.36.25,1.33.95,2.14-1.37,2.33-3.93,4.44-4.51,7.13,4-.22,6.41-7.93,9.71-10.07-.59,2.8-2.84,5.85-4.26,8.06C36.78,158,35.22,135.64,46.49,132.72Z"/><path class="a2ff02f7-fcb2-4884-ab5c-b9e00ddc4f9d" d="M25,108.26c6.15,1.32,10.44,7.07,16.27,8.31C40.2,116.85,25.28,109.2,25,108.26Z"/><path class="f32ec3b5-18b0-4b5d-bece-99b6cd7a91bf" d="M23,101.84c-3.42-1.8-10.62-8.52-15.13-6.21-2.16,1.1,4.83,6.15,5.71,6.67l.7.41c2.1,1.24,2.49-1.77,4.46-1.95C20.23,100.62,24.35,102.57,23,101.84Z"/><path class="efd807a9-cdd3-489e-ba83-9fadd59d8de7" d="M31.75,134.16c-.05,1.45-7.37,2.33-6.87-1.2S35.1,127.32,37,126.83c.63-.17,4.76,0,4.9.51C42.11,128.08,31.88,130.41,31.75,134.16Z"/><path class="a551eed8-fa43-4fa9-8a78-1898a54f31f1" d="M33.53,118.78c-2.11.55-13.13-3.09-12.08,1-1.4.36-2.1.35-1.71,1.84-2-.44-4.41-4.41-1.69-5.73C22.17,113.85,30.5,115.31,33.53,118.78Z"/><path class="bcb8a9fb-84e6-49ce-a710-93a0660f9eff" d="M43.74,128.26c-.4,1.87-5.44,1.62-5.94,3.93a47.52,47.52,0,0,0,10.75-3.78c-.6,2.83-4.1,3.74-6.4,4.44s-4.67,1.41-7,2C27,137,38.21,125,43.74,128.26Z"/><path class="e11cf4a0-a63d-493c-b626-aca8b98ccdcf" d="M47.94,122.2c-3.93,2.55-12.15-.56-16.49-1.48C35,119.29,44.29,120.94,47.94,122.2Z"/><path class="f4030eab-bf61-4530-b940-65e1f2e97935" d="M29.77,121.15c.63-1.08.1-.42,2.33-1l-.65.57c4,.85,8.25,1.49,12.34,2.36C41.9,124.11,31,122.58,29.77,121.15Z"/><path class="b7e9f874-4f24-4d2f-bf2e-201381f56b5b" d="M31.28,122.35c2.1-1.14,10.08-.06,12.23,1.2C41.05,125.7,34.07,123.32,31.28,122.35Z"/><path class="bc1748f1-184e-4d7a-8485-d225f46dffa3" d="M51.79,140.89c1.28,2.34-1.81,8.42-3.84,9A50.6,50.6,0,0,1,51.79,140.89Z"/><path class="a0928fd1-a63e-4fbc-8b3b-3ffd5dd4fe92" d="M38,144.28c-1.56,3.8,3,6.05-2.93,7.12C31.72,152,39.21,141.21,38,144.28Z"/><path class="ace1cda6-1141-41fa-853c-32562d05c676" d="M236.12,152.56c-.32,3.06,5.89,17.8,8.79,17.39,2.71-.38-.21-10-1.71-11.21C241.46,161.46,237.06,152.66,236.12,152.56Z"/><path class="a77755bb-7812-4da1-99bf-ed53221489c4" d="M229.35,139.84c-7.56-1,4,23.13,6.19,30.85.47,1.67,2.12,8.49,4.41,7.63s.55-8,.11-10C237.94,158.6,239.22,141.13,229.35,139.84Z"/><path class="b6d43ee2-e733-43ce-a5eb-ed6a21d2dada" d="M233.68,137.4c-1,2.07,4,10.29,5.07,12.35-3.4-.37-4.71-7-7.82-8.39,1.66,3.16,8.36,15.67,11.18,14.94,2.36-.61-.24-6.72-.9-7.84C238.86,144.52,237.18,140.66,233.68,137.4Z"/><path class="f47126a8-4555-427a-8616-4a4f8f3b5fac" d="M249,160.52c1.81-7.13-4.67-13.42-10.18-17l-.23.36C241.51,147.53,243.79,160.83,249,160.52Z"/><path class="a0708e35-4c85-448e-b598-13a21997aaa8" d="M241.1,133.16c-1.09-.32,13.34,13,15.09,5.49C257,135.11,243.2,133.79,241.1,133.16Z"/><path class="e82d2b36-7814-432d-b287-66d6b51aaf36" d="M235.72,121.94c5.83.62,14.89-8.23,20-9.67a17.67,17.67,0,0,1,6.86-.81c3.51.37,2.37,5.27-.08,6.18.16-1.52-.53-1.41-2-1.56-1.33,2.9-17.14,10-20,8.11-.44,4.09-8.4,2-10.26,1.81,4.85,3.11,10.21,3.94,15.94,4.8-.75-2-5.31-1.38-6.64-3,2.27-.5,3.81-2.28,6.62-2.2a26,26,0,0,1,6.51.7c1.62.38,10,3.42,5,5.76-3.54,1.64-18.49.2-20.77-1.25-.47,4.43-5.23.42-7.08-.76,1.32,3.51,9.17,11,12.72,11.42-1.49-4-5.84-4.68-4.86-8.84,3.17.34,14.81,13.69,15,15.54.21,2.35-3.92.78-4.8-.32,1.29-2,.95-3.13-.05-5-1,9.77-12.95-5.32-13.84-6.32-.21-.24-.47-.43-.7-.65-.24,2.23,3.31,5,4.19,6.06,4.92,6.1,12.78,9,11.77,18.48-3.77.65-5.14-4.15-6.22-7-.43.67.28,2.74-.9,3-3,.66-9.53-11.56-11.2-14.75,1.39-.51,2,.73,2.73,1.65a3.41,3.41,0,0,1,0-1.74c2.1,1.95,3.47,5.14,4.8,7.67.66-1-4.18-10.24-5-10.79-2.14,3.33-5.15-2.47-5.76-4.1-.88,8.25,3.84,22.91,5.34,31.53.47,2.72.37,9.13,2.09,11.26,5.16,6.4,8.56-.42,7.26-6.39,7.9,5.07,4.68-3.58,4-8.47,7.43,4.76,3.68-7.42,3.25-10.49,10.37,1.11,2.18-5.85,2.47-8.64,10.52,1.12,4.8-3.21,5.22-7.18.12-1.13,3.59-2.72,4.28-3.8,3.19-5-4.89-5.93-7.81-6.64,8.52-3.18,24.59-14.09,6.54-17.69,3-2.41,17.26-18,14.43-20.91-2.24-2.31-7.69,2.66-9.94,2.42,2.65-8.45,5.91-17.15,7.23-25.93.36-2.41,2.05-7.42-.09-10.08-2.32-2.87-11.23,10.19-12.3,11.85-2.51-11.49-2.71-23.72-4.73-35.34-1.47-8.48-4.89-17.6-8.45-2.46-1.7-1.09-3.11-5.05-4.11-6.82A139.25,139.25,0,0,0,229.65,1.3a2.46,2.46,0,0,0-1.06-.89c-2.53-.79.87,10.24,1.13,11.15,3.3,11.75,10.33,21.93,12.86,33.51,4.25,19.41.73,39.83-4.53,58.73a49.54,49.54,0,0,1-3.55,9.69c-1,1.79-3.4,2.83-3.64,5,6.6-7.92,8.54-18.41,10.59-28.48,3.21-15.68,5.69-33.54,1.22-49.42-3.16-11.25-12-21.49-10.7-33.85,1.75.19,4.13,4.66,4.74,6.32,1.28,3.41,11.37,23.08,9.63,25.8l.36.23-.23.36c1.21,1.5.11,4.26,1.15,5.54l-.23.37c1.4,1.74.87,8.11.66,10.13-1.12,10.47-.88,21.32-3.78,31.72,4.89-15.58,4.59-30.72,4.42-46.75-.05-4.38-1.46-12.81,2.48-16,2.61,3.24,1.26,8.93,3.58,11.8l-.24.37c.41.5.62.8.24,1.38l.35.42-.24.36c1,.66,1.76,9.22,1.26,10,3.64,4.51-1.73,22.46-4.05,28.79l-.38,0c-.06.52-.09.26.11.78l-.39,0c.19.85.2.41-.14,1.34l-.38,0c.18.85.2.4-.14,1.34l-.39,0c.19.84-1,3.93-1.81,4.26l.15.4-.4.15c.07.2.07.2.15.4l-.4.15.15.41-.41.15.15.4-.4.15.13.6c1.43-1.16,2.68-4.83,3.61-6.59,3.08-5.81,7.3-10.9,10.85-16.45,1.12-1.73,4.08-6.92,6.52-6.66,3.11.34.22,9.64-.31,12a87.87,87.87,0,0,1-8.24,21c-1.23,2.31-4.94,6.3-5.2,8.73,1.29-2,13.22-10.54,15.56-9.75,3,1-5.06,8.17-8,7.85C261,111.57,244.49,114.86,235.72,121.94Z"/><path class="ef597c60-c6e0-41c4-844a-a31f721dee82" d="M236.48,109.44c.61-5.76,3.35-11.8,4.58-17.51C244,78.23,246,64.1,244.37,50.1c-1.68-14.93-13.93-29-12.4-43.33,1.75.19,4.13,4.66,4.74,6.32,1.28,3.41,11.37,23.08,9.63,25.8l.36.23-.23.36c1.21,1.5.11,4.26,1.15,5.54l-.23.37c1.4,1.74.87,8.11.66,10.13-1.12,10.47-.88,21.32-3.78,31.72,4.89-15.58,4.59-30.72,4.42-46.75-.05-4.38-1.46-12.81,2.48-16,2.61,3.24,1.26,8.93,3.58,11.8l-.24.37c.41.5.62.8.24,1.38l.35.42-.24.36c1,.66,1.76,9.22,1.26,10,3.64,4.51-1.73,22.46-4.05,28.79l-.38,0c-.06.52-.09.26.11.78l-.39,0c.19.85.2.41-.14,1.34l-.38,0c.18.85.2.4-.14,1.34l-.39,0c.19.84-1,3.93-1.81,4.26l.15.4-.4.15c.07.2.07.2.15.4l-.4.15.15.41-.41.15.15.4c-.19.07-7.76,14.88-8.51,16.31-.24.45-.53.82-.34,1.32-1.21,1-1.54,3.09-2.23,4.6Z"/><path class="bbd47e2a-ee27-479a-acbd-5b5d1207c040" d="M231.44,120.32a5.33,5.33,0,0,1-3.24,1.4c13.68-11,17.2-51.78,16.15-66-.19-2.66-3.53-22.25-6.87-22.61a58.54,58.54,0,0,1,3,11.93l.23-.36c5.26,24.06.32,53.4-13.18,74.46l-.37-.24a18.49,18.49,0,0,1,1.23-2.38c-8.83-3.24-13.57,20.82-4,15.83-.79,7.38,5.5,22.56,6.72,31.3l-.58-.07c1.39,3.73-1,12.67,4.59,13.27-3.19-14.56-7.39-31.32-8.25-46C226.38,123.12,231.05,124,231.44,120.32Z"/><path class="f6d5c936-cbe8-4667-904e-3618660b0eb0" d="M231.07,163.64c.72-6.75-2.92-16.07-4.75-22.58-.7-2.49-3.15-6.56-1.78-8.7-11.15,1.55-4.61-16.75,3.83-15.85a13.07,13.07,0,0,1-1.25,2.58c2.86-1.5,6.11-11.72,7.4-14.89,7.39-18.26,10.59-39.89,6.34-59.32-.86,2.37.55,6.48.78,9,.72,7.82,0,16-.79,23.72-1.17,11-4.93,28.31-12,37.62-1.18,1.56-5.41,1.74-7.1,3.11-2.12,1.71-4,8.37-4.31,11.35-.27,2.52,3.45,2.87,4.86,3.42,1.59.62,2.86,7.3,3.3,8.87C226.5,145,230.05,163.53,231.07,163.64Z"/><path class="bafe2bf2-5152-4bc5-85ac-554337186faa" d="M254.82,106.18c-.8,1.24-13.44,9.79-14.39,9.68,5.3-2,9.09-7.77,14.45-10.26a1.21,1.21,0,0,0,.7-1.08c-.09-1.6-4.52,1.19-5,1.59-3.2,2.58-8.81,5.45-11,8.89-.58-.37-.58-.8-1.24-1.1,9.29-7.5,15.68-19.38,21.43-30.23,1.12-2.12,6.34-14.77,1.18-12.84,2.53,4.85-8.31,25.06-12.63,29.42-1,1-3.85,7.14-5.2,7-.39.86-1,1.5-1.42,2.36l-.38,0-.06.57-.38,0c-.57,1.25-1.73,2-2.29,3.24l-.38,0c-.05.53,0,.28-.27.75,2.81,3.48-5.1,8.08-7.38,9.27,1.44.92,3.68-.91,5-1.4l-.53-.44C238,119.92,254.53,108.94,254.82,106.18Z"/><path class="e786c5f1-178d-49e3-b7f0-236c91fbc8a4" d="M247.5,87.78c-1,2.14-8.46,17-8.41,17.1-1.21,1-1.54,3.09-2.23,4.6l-.38,0c-.26,2.36-1.77,4.19-3,6.07,2.73-1,6.25-2.38,7.36-5.41l.38,0,.06-.57.38,0c.4-.86,1-1.5,1.42-2.36l.38,0c.23-2.15,3.62-5,4.8-6.84,3.58-5.59,8.7-12.23,10.69-18.6.43-1.38,1-3.14,1.47-4.68.24-.78,1.62-9.93-1.85-6.2-4.58,4.91-7.11,11.4-10.73,17Z"/><path class="ead3c44b-bff2-471b-88cc-01ad3045e137" d="M244.16,108.13c6.21-7.44,12.59-16.86,16.34-26.12,2.58-6.36,5.66-10.62-1.87-11.42.95-2.1,8.81-14.84,10.73-11.63s-.59,10-1.65,13.57c-3.19,10.84-8.18,23.56-16.81,30.52C249.52,104.16,246,108.33,244.16,108.13Z"/><path class="f9f59cc1-ab92-46e0-a06c-cb9aedc772b4" d="M238.34,113.71c.38.47.84.82,1.22,1.29,2.25-3.51,8-6.42,11.22-9.06.53-.42,4.6-2.87,4.8-1.42.56,4-17.36,14.53-20.6,17.15,5.23.56,19.74-11.51,23.5-15.29,1.41-1.43,6.13-8.44,2.74-9.39C255.93,95.52,243.16,111.91,238.34,113.71Z"/><path class="a443af55-d7f6-4d49-b284-867749c9e9e6" d="M230.35,123.3c.75-.39,12.19-7.31,7.57-9.25-3.63-1.53-7.75,5.29-9.72,7.67,1,.47,2.22-1,3.41-1.19-2.6,4.07-4.29,4-5,10.12-.32,3,3.36,10.58,6.92,7.71-.89-2.39-3.23-5.91-3.76-8.34,6.93,5.77,9.18.17.41-3.83,2.24.18,4.48.4,6.72.53,2,.11,5.45-3,2.32-3.63C235.52,122.37,233.63,123.65,230.35,123.3Z"/><path class="f62a0b6e-87b6-457e-aaaa-01df29654641" d="M240.17,123.77c3.82-1.42,9.88-1.23,12.35-5.07-2.47-3-12.72,2.83-16,3.13,6-2.25,11.81-4.8,18.12-6.58.93-.26,6-1.76,6-.13C260.61,119.85,241.34,126,240.17,123.77Z"/><path class="f46187ec-f504-432c-b2dc-d2614180ff68" d="M237.68,132.6c-.15,1.4-.05,1.35-.63,2.26,1.7,2.1,4.54,3.81,5.51,6.39-4,.36-7.5-6.9-11.09-8.54,1,2.68,3.67,5.37,5.41,7.35C251,156.14,249.25,133.84,237.68,132.6Z"/><path class="e3e6f75e-6943-4aa8-8a7e-ef8d0a897b2d" d="M255.31,105.26c-5.9,2.2-9.29,8.52-14.88,10.6C241.57,116,255.21,106.22,255.31,105.26Z"/><path class="b0217c23-2fff-4aa2-b8c4-fc392515e05b" d="M256.41,98.61c3.11-2.29,9.25-10,14-8.37,2.3.77-3.87,6.79-4.66,7.43l-.64.52c-1.89,1.53-2.72-1.4-4.7-1.28C258.94,97,255.15,99.53,256.41,98.61Z"/><path class="fb1c00ed-3e41-417a-b549-4e71f0c49feb" d="M252.46,131.86c.27,1.43,7.64,1.22,6.63-2.2s-10.94-4.07-12.9-4.28c-.65-.07-4.72.67-4.78,1.23C241.33,127.37,251.79,128.18,252.46,131.86Z"/><path class="b1a849f1-167e-494e-902e-6feebf4f296e" d="M248.45,116.92c2.17.23,12.53-5,12.09-.84,1.43.15,2.12,0,2,1.56,1.95-.73,3.71-5,.83-5.91C259,110.36,250.94,113,248.45,116.92Z"/><path class="bcb8a9fb-84e6-49ce-a710-93a0660f9eff" d="M239.74,127.79c.67,1.79,5.63.8,6.45,3A47.44,47.44,0,0,1,235,128.64c1,2.71,4.61,3.1,7,3.45s4.83.71,7.25,1C257.55,134,244.74,123.76,239.74,127.79Z"/><path class="f39787fc-e4e3-449e-b22f-0d815c04bea9" d="M234.7,122.41c4.26,2,11.93-2.34,16.09-3.89C247,117.64,238.13,120.62,234.7,122.41Z"/><path class="f4030eab-bf61-4530-b940-65e1f2e97935" d="M252.52,118.7c-.79-1-.16-.4-2.45-.64l.72.46c-3.85,1.44-7.94,2.69-11.86,4.15C241,123.41,251.49,120.3,252.52,118.7Z"/><path class="edfa2713-0cf9-4dc5-a02a-745432628eb8" d="M251.2,120.11c-2.24-.82-10,1.42-11.93,3C242,124.86,248.58,121.48,251.2,120.11Z"/><path class="e194f38b-6f71-4f04-b80c-702a343f5200" d="M233.63,141.46c-.92,2.51,3,8.06,5.12,8.29A50.38,50.38,0,0,0,233.63,141.46Z"/><path class="f1eaf89e-cedb-4419-9b40-ea2b0be40d21" d="M247.81,142.78c2.1,3.54-2.13,6.43,3.94,6.62C255.12,149.49,246.12,139.93,247.81,142.78Z"/></g></g></svg>