<svg xmlns="http://www.w3.org/2000/svg" xmlns:xlink="http://www.w3.org/1999/xlink" viewBox="0 0 54.84 53.68"><defs><style>.e8330408-d737-4100-a0d8-c72cde65f005{fill:#fff;}.f584c4e9-52d2-4e04-a3bc-dccce9d264dd{fill:url(#ba858376-24fc-4bd9-9d09-ac6782cc35ef);}.a0fb5d87-5f37-49e7-be6c-cc16a56981a7{fill:url(#bb34dd21-2ce3-49c3-b80b-b5bf1d54b7f7);}.a861db5d-9fc9-4ba7-b0dc-f6512e189faf{fill:url(#e8fedc13-6988-4c60-b5fc-a85a6e48a39d);}.bf005bd9-096d-4d2c-a7d6-a0e68b507e92{fill:url(#a5a51a0d-9e18-48bc-ac45-5eb81415446c);}.e4a9cb0b-33ac-4c31-8527-9e39fffd9dab{fill:url(#ee0d3a9d-8f7b-4b25-81e6-8e7577ff7b78);}.b99b08c7-17c3-4421-87b0-e44abda7a0e9{fill:#30261c;}.b528c0f9-0cfb-4e7d-8d33-8304ee4c1f25{fill:url(#ac16b20f-b3e9-4644-b514-486e826ec85c);}</style><linearGradient id="ba858376-24fc-4bd9-9d09-ac6782cc35ef" x1="-948.16" y1="523.98" x2="-944.2" y2="523.98" gradientTransform="matrix(1.67, 0, 0, -1.67, 1604.4, 922.03)" gradientUnits="userSpaceOnUse"><stop offset="0" stop-color="#ffaf00"/><stop offset="1" stop-color="#feff00"/></linearGradient><linearGradient id="bb34dd21-2ce3-49c3-b80b-b5bf1d54b7f7" x1="-954.74" y1="524.75" x2="-952.05" y2="524.75" xlink:href="#ba858376-24fc-4bd9-9d09-ac6782cc35ef"/><linearGradient id="e8fedc13-6988-4c60-b5fc-a85a6e48a39d" x1="-951.62" y1="524.47" x2="-948.59" y2="524.47" xlink:href="#ba858376-24fc-4bd9-9d09-ac6782cc35ef"/><linearGradient id="a5a51a0d-9e18-48bc-ac45-5eb81415446c" x1="-943.77" y1="524.47" x2="-940.74" y2="524.47" xlink:href="#ba858376-24fc-4bd9-9d09-ac6782cc35ef"/><linearGradient id="ee0d3a9d-8f7b-4b25-81e6-8e7577ff7b78" x1="-940.31" y1="524.75" x2="-937.62" y2="524.75" xlink:href="#ba858376-24fc-4bd9-9d09-ac6782cc35ef"/><linearGradient id="ac16b20f-b3e9-4644-b514-486e826ec85c" x1="-1025.82" y1="528.04" x2="-930.41" y2="541.49" gradientTransform="matrix(1.67, 0, 0, -1.67, 1604.4, 922.03)" gradientUnits="userSpaceOnUse"><stop offset="0"/><stop offset="1" stop-color="#fff"/></linearGradient></defs><g id="fe9f35c4-c778-4847-b753-a83a0c7331c7" data-name="Layer 2"><g id="fbb618a6-67f8-49c4-b8c6-677615a71f57" data-name="Layer 1"><g id="fe4a7d28-16c6-4fce-9dcb-32ea9b5430cc" data-name="Untitled"><path class="e8330408-d737-4100-a0d8-c72cde65f005" d="M50.74,15.8a2.17,2.17,0,0,0-1,.54,1.45,1.45,0,0,1-1.23.37,1.42,1.42,0,0,1-.48-.19v0a3.9,3.9,0,0,0-.11,1.07,3.37,3.37,0,0,0,1,1.48c.23.27.45.54.69.79a.21.21,0,0,0,.29.06,2.08,2.08,0,0,0,.38-.22A5.65,5.65,0,0,1,52,18.79a2,2,0,0,1,1.22.07,26.54,26.54,0,0,0-1-3.14.28.28,0,0,1-.21.08A4.43,4.43,0,0,0,50.74,15.8Z"/><path class="e8330408-d737-4100-a0d8-c72cde65f005" d="M38.83,5.84a2,2,0,0,1-.51.79c-.18.19-.38.36-.55.56l-.06.07,0,0-.07.13,0,.07v0h0c.06.3.43.48.68.6a6.6,6.6,0,0,0,1,.35,3.76,3.76,0,0,1,1.89,1,.78.78,0,0,1,.2.71.9.9,0,0,1-.4.5c-.16.11-.33.2-.5.3a13.51,13.51,0,0,1,.85,1.48c.39.54,1.16.44,1.75.51a9.17,9.17,0,0,1,2,.45,7.2,7.2,0,0,1,1.75.83,3,3,0,0,1,1.09,1.24,1.54,1.54,0,0,0,.94.47c.32,0,.57-.33.81-.51a3.18,3.18,0,0,1,2.3-.43,24.19,24.19,0,0,0-2.08-4,21.89,21.89,0,0,0-4.32-4.89,20.1,20.1,0,0,0-5.89-3.38l-1.12-.38v0a1.89,1.89,0,0,0,0,2.22A1.38,1.38,0,0,1,38.83,5.84Z"/><path class="f584c4e9-52d2-4e04-a3bc-dccce9d264dd" d="M27.62,44.49a5.72,5.72,0,0,1,.06,1.37,5,5,0,0,1-.14,1.4.07.07,0,0,1-.11,0,.07.07,0,0,1-.11,0,5,5,0,0,1-.14-1.4,6.29,6.29,0,0,1,.06-1.37,5.45,5.45,0,0,0-3.1,1.09,20.19,20.19,0,0,0,.43,4.11,9.35,9.35,0,0,0,.66,1.86,2.48,2.48,0,0,0,1,1.14,2.42,2.42,0,0,0,2.64-.2,3.25,3.25,0,0,0,.94-1.39,10.34,10.34,0,0,0,.56-1.92,24,24,0,0,0,.33-3.6,5,5,0,0,0-1.29-.72A5.47,5.47,0,0,0,27.62,44.49Zm-2.59,4c-.27-.27-.22-.72-.22-1.08A5.53,5.53,0,0,1,24.94,46a.11.11,0,0,1,.22,0c0,.46,0,.92.07,1.38s.16.74,0,1.06A.11.11,0,0,1,25,48.47Zm1.66,4c-1.09-.39-1.45-2-1.48-3,0,0,.05-.05.06,0,.26.51.46,1.05.71,1.56s.61.82.87,1.27C26.9,52.32,26.81,52.47,26.69,52.42Zm1.48,0c-.12,0-.21-.1-.15-.2.25-.44.63-.8.86-1.27s.46-1,.71-1.55c0,0,.06,0,.06,0C29.62,50.43,29.27,52,28.17,52.42Zm1.46-5c0-.46,0-.92.07-1.38,0-.12.19-.16.22,0a5.53,5.53,0,0,1,.13,1.41c0,.36.06.81-.21,1.08a.12.12,0,0,1-.18,0C29.47,48.13,29.6,47.74,29.63,47.39Z"/><path class="a0fb5d87-5f37-49e7-be6c-cc16a56981a7" d="M15.32,44.17a4.28,4.28,0,0,1-.07.72,8.59,8.59,0,0,0-.08,1c0,.05-.08.06-.1,0A3.4,3.4,0,0,1,15,44.12a1.82,1.82,0,0,0-1.79.63,13.08,13.08,0,0,0,.16,1.77A5.92,5.92,0,0,0,13.66,48a7.89,7.89,0,0,0,.78,1.35c.3.42.61.85,1,1.24a.57.57,0,0,0,.83.1,1,1,0,0,0,.22-.4l.21-.7c.16-.52.3-1,.44-1.55a19.73,19.73,0,0,0,.56-2.73,4.56,4.56,0,0,0-2.2-1.08Zm-1.39,2s0,0-.07,0a2.65,2.65,0,0,1-.19-1.37c0-.11.16-.1.17,0A4.8,4.8,0,0,1,13.93,46.13ZM15,49.48A3.74,3.74,0,0,1,14,47s.06-.05.07,0c.19.4.29.83.48,1.24s.5.76.67,1.16A.12.12,0,0,1,15,49.48Zm1.62-3.43c.05-.24.1-.48.17-.72,0-.06.13-.07.14,0a2.22,2.22,0,0,1,0,.77.72.72,0,0,1-.2.55.11.11,0,0,1-.15,0A.83.83,0,0,1,16.62,46.05Zm-.48,2.79a8.48,8.48,0,0,0,.25-1.11c0-.13.22-.08.2.06-.05.37-.11.75-.19,1.12a1.42,1.42,0,0,1-.33.84.08.08,0,0,1-.14,0A2.1,2.1,0,0,1,16.14,48.84Z"/><path class="a861db5d-9fc9-4ba7-b0dc-f6512e189faf" d="M20.76,44.07a17.84,17.84,0,0,1-.08,2.43.11.11,0,0,1-.2,0,5.33,5.33,0,0,1,.12-2.44,2.62,2.62,0,0,0-1.17.25,2.92,2.92,0,0,0-1.06,1.09,16.55,16.55,0,0,0,.3,4,4.17,4.17,0,0,0,.81,1.51,3,3,0,0,0,.55.62,1.19,1.19,0,0,0,.47.22.66.66,0,0,0,.25,0,.57.57,0,0,0,.13,0H21a1.13,1.13,0,0,0,.51-.19,1.48,1.48,0,0,0,.59-.94c.31-1.07.6-2.15.88-3.23L23.27,46c0-.17.07-.34.1-.51a2.07,2.07,0,0,0,0-.22,4.1,4.1,0,0,0-2.5-1.22Zm-1.53,4.49c0,.06-.09.09-.12,0a3.44,3.44,0,0,1-.31-1.53,4,4,0,0,1,.12-1.76,0,0,0,0,1,.09,0c0,.54,0,1.08,0,1.63A15.16,15.16,0,0,1,19.23,48.56ZM20,50.69c-.19,0-.31-.23-.42-.38a.55.55,0,0,1-.12-.27.92.92,0,0,0-.09-.28c0-.07.05-.12.1-.06a.67.67,0,0,0,.25.22,1,1,0,0,1,.17.19c.11.14.27.28.27.47A.12.12,0,0,1,20,50.69Zm2.23-4c.06-.42.17-.82.22-1.23,0-.07.11,0,.12,0a5.81,5.81,0,0,1,.11.71,5.51,5.51,0,0,1-.06.7,1.65,1.65,0,0,1-.31.94c0,.05-.13,0-.15,0A2.73,2.73,0,0,1,22.19,46.66ZM21,51c.16-.32.41-.59.56-.92a3.76,3.76,0,0,0,.33-1.13.09.09,0,0,1,.18,0,2.78,2.78,0,0,1-.9,2.19C21.1,51.22,21,51.08,21,51Z"/><path class="e8330408-d737-4100-a0d8-c72cde65f005" d="M33.12,3.24a2.82,2.82,0,0,0,1.49-.12,4.55,4.55,0,0,1,2.88.41,2.69,2.69,0,0,1,.38-1.29,36.47,36.47,0,0,0-5.07-1c-.41-.06-.81-.11-1.22-.15a5,5,0,0,0,.61,1.31A2.08,2.08,0,0,0,33.12,3.24Z"/><path class="bf005bd9-096d-4d2c-a7d6-a0e68b507e92" d="M35.43,44.31a2.49,2.49,0,0,0-1.17-.25,5.19,5.19,0,0,1,.12,2.44.1.1,0,0,1-.19,0,16.36,16.36,0,0,1-.09-2.43H34a4,4,0,0,0-2.5,1.22v0c0,.08,0,.16.05.24s.08.41.13.61c.12.54.26,1.08.4,1.61s.28,1.09.43,1.64c.08.26.15.53.23.8s.13.52.22.76a1.23,1.23,0,0,0,.71.69,1.26,1.26,0,0,0,1,0,1.53,1.53,0,0,0,.46-.38,7.25,7.25,0,0,0,.6-.77,4.19,4.19,0,0,0,.64-1.61,21.32,21.32,0,0,0,.19-3.49A3,3,0,0,0,35.43,44.31ZM32.59,47.8a1.65,1.65,0,0,1-.31-.94,5.51,5.51,0,0,1-.06-.7,5.81,5.81,0,0,1,.11-.71c0-.06.11-.09.12,0,0,.41.16.81.22,1.23a2.73,2.73,0,0,1,.07,1.1A.09.09,0,0,1,32.59,47.8Zm1.06,3.35a2.83,2.83,0,0,1-.9-2.19c0-.11.16-.13.18,0a4.07,4.07,0,0,0,.33,1.13c.16.33.4.6.56.92C33.86,51.08,33.76,51.22,33.65,51.15Zm1.88-1.39a.8.8,0,0,0-.09.3.72.72,0,0,1-.12.25c-.11.15-.23.36-.42.38a.11.11,0,0,1-.15-.11c0-.19.15-.33.26-.47a.73.73,0,0,1,.19-.2.7.7,0,0,0,.24-.21A.05.05,0,1,1,35.53,49.76Zm.41-4.46a4,4,0,0,1,.12,1.76,3.44,3.44,0,0,1-.31,1.53c0,.06-.11,0-.12,0A13,13,0,0,1,35.85,47c0-.55,0-1.09,0-1.63A0,0,0,0,1,35.94,45.3Z"/><path class="e4a9cb0b-33ac-4c31-8527-9e39fffd9dab" d="M39.91,44.12a3.4,3.4,0,0,1-.12,1.79c0,.05-.1,0-.1,0a8.59,8.59,0,0,0-.08-1,4.28,4.28,0,0,1-.07-.72l-.13,0a4.53,4.53,0,0,0-2.19,1.08,21.39,21.39,0,0,0,.66,3.14c.14.5.29,1,.44,1.5a2.65,2.65,0,0,0,.21.6.53.53,0,0,0,.35.25.48.48,0,0,0,.39,0,1.68,1.68,0,0,0,.43-.45,12.67,12.67,0,0,0,1-1.34,5,5,0,0,0,.65-1.29,9.2,9.2,0,0,0,.28-1.48,13.36,13.36,0,0,0,.1-1.41A1.82,1.82,0,0,0,39.91,44.12Zm-1.79,2.53a.69.69,0,0,1-.21-.55,2.49,2.49,0,0,1,0-.77.07.07,0,0,1,.14,0,6.25,6.25,0,0,1,.17.72.83.83,0,0,1,0,.56A.1.1,0,0,1,38.12,46.65Zm.81,3.06a.08.08,0,0,1-.14,0,1.48,1.48,0,0,1-.33-.84c-.08-.37-.14-.75-.19-1.12,0-.14.18-.19.2-.06a8.48,8.48,0,0,0,.25,1.11A2,2,0,0,1,38.93,49.71Zm.93-.23a.12.12,0,0,1-.18-.14c.17-.4.48-.76.67-1.16s.29-.83.47-1.24c0,0,.07,0,.08,0A3.74,3.74,0,0,1,39.86,49.48ZM41,46.14a0,0,0,0,1-.07,0A4.8,4.8,0,0,1,41,44.77a.09.09,0,0,1,.17,0A2.65,2.65,0,0,1,41,46.14Z"/><path class="e8330408-d737-4100-a0d8-c72cde65f005" d="M24.05,38.05a5,5,0,0,1,1.09-2.38L25,35.8a7.21,7.21,0,0,0-1.79,2.35,1.87,1.87,0,0,0-.06,1.55,1.25,1.25,0,0,0,1.13.73,1.35,1.35,0,0,0,.41-.07A1.75,1.75,0,0,1,24,38.81,4.34,4.34,0,0,1,24.05,38.05Z"/><path class="e8330408-d737-4100-a0d8-c72cde65f005" d="M30.17,40.35a1.13,1.13,0,0,0,.75,0,1.28,1.28,0,0,0,.85-.83,3.14,3.14,0,0,0-.14-1.42,10.54,10.54,0,0,0-.88-1.4,8,8,0,0,0-1-1.06,4.88,4.88,0,0,1,1.11,2.38C30.94,38.75,30.88,40,30.17,40.35Z"/><path class="b99b08c7-17c3-4421-87b0-e44abda7a0e9" d="M24.77,37.37c-.28.72-.62,2.32.19,2.84a3.11,3.11,0,0,0,.86-1.64,12.26,12.26,0,0,0,.37-1.7,3.34,3.34,0,0,0-.05-1.3A4.25,4.25,0,0,0,24.77,37.37Z"/><path class="b99b08c7-17c3-4421-87b0-e44abda7a0e9" d="M29.16,39a2.77,2.77,0,0,0,.57,1.12l.17.14c.81-.52.47-2.13.2-2.84a4.36,4.36,0,0,0-1.38-1.8,2.27,2.27,0,0,0-.06.25,4.69,4.69,0,0,0,.08,1.49A13.6,13.6,0,0,0,29.16,39Z"/><path class="b528c0f9-0cfb-4e7d-8d33-8304ee4c1f25" d="M27.52.69a15.06,15.06,0,0,0-1.78.12c-4.68.37-9.5,1.1-13.63,3.45A21.76,21.76,0,0,0,3.36,14,27.71,27.71,0,0,0,1.2,21,42.8,42.8,0,0,0,.71,28.7c0,2.15,0,4.33.13,6.48a10.2,10.2,0,0,0,1.92,5.6,6.77,6.77,0,0,0,2.54,2,6.88,6.88,0,0,0,2.54.5,14.82,14.82,0,0,0,2.66-.13,4.64,4.64,0,0,0,2.13-.73h0a.36.36,0,0,1,.23-.09.37.37,0,0,1,.33.23.28.28,0,0,1,0,.25h0a2.08,2.08,0,0,1,1-.41.09.09,0,0,1,0,.16,4,4,0,0,0-1.08.83l0,0c0,.14,0,.28,0,.42a3.33,3.33,0,0,1,2.31-.31A5.1,5.1,0,0,1,18,44.68a3.31,3.31,0,0,1,.88-.87,3.59,3.59,0,0,1,2.78-.3A4.85,4.85,0,0,1,24,44.86a5.75,5.75,0,0,1,1.2-.64,6.2,6.2,0,0,1,5.74.64,4.58,4.58,0,0,1,1.15-.9,4.52,4.52,0,0,1,2.79-.55,2.81,2.81,0,0,1,1.28.51,3.41,3.41,0,0,1,.71.76,5.13,5.13,0,0,1,2.56-1.19,3.34,3.34,0,0,1,2.31.31c0-.14,0-.28,0-.42l0,0a4,4,0,0,0-1.08-.83c-.07,0,0-.17,0-.16a2.08,2.08,0,0,1,1,.41h0a.28.28,0,0,1,0-.25A.36.36,0,0,1,42,42.3a.29.29,0,0,1,.22.09h0a4.35,4.35,0,0,0,2.06.71,13.66,13.66,0,0,0,2.63.15,7.27,7.27,0,0,0,2.57-.47,7.29,7.29,0,0,0,3.95-4.56,19.83,19.83,0,0,0,.68-6.09c0-2.43.1-4.86,0-7.28a31.78,31.78,0,0,0-.69-5.13.31.31,0,0,1-.25-.09c-.44-.42-1.14-.19-1.59.08s-.61.41-.91.62a1.38,1.38,0,0,1-1.09.32c-.33-.09-.54-.41-.76-.65l-.72-.83a2.66,2.66,0,0,1-.84-1.71c0-.61.3-1.19,0-1.76A2.89,2.89,0,0,0,46,14.65a8.34,8.34,0,0,0-1.88-.7,7.73,7.73,0,0,0-1-.18c-.33,0-.67,0-1-.09a2.25,2.25,0,0,1-.92-.25,1.73,1.73,0,0,1-.63-.63,6.16,6.16,0,0,0-.75-1.32.1.1,0,0,1,0-.05,10.51,10.51,0,0,0-1.9,1.62,3.87,3.87,0,0,0-.74,1,1.52,1.52,0,0,0,0,1A9.83,9.83,0,0,1,38,17.4a3,3,0,0,1-.14,1.07,2,2,0,0,1,1.08-.15.27.27,0,0,1,.12.44,3.11,3.11,0,0,1-1,.49,8.26,8.26,0,0,0-1.15.58,9.68,9.68,0,0,0-2,1.52,11.24,11.24,0,0,0-1.6,2,18.08,18.08,0,0,0-1.16,2.17.07.07,0,0,1-.13,0,5.17,5.17,0,0,1,.22-1.4A10.09,10.09,0,0,1,32.72,23a8.85,8.85,0,0,1,1.6-2.15,10.54,10.54,0,0,1,2.12-1.64l.28-.16a2.19,2.19,0,0,0,.43-2.14c-.1-.31-.24-.62-.37-.92h0a2.38,2.38,0,0,0-1.83.31,3.59,3.59,0,0,0-.59.7c-.2.29-.41.57-.64.85a4.37,4.37,0,0,1-3.13,1.79,3.08,3.08,0,0,1-.91-.13,5.62,5.62,0,0,0-.88-.28.46.46,0,0,0-.52.24c-.15.25-.24.54-.38.8a3.22,3.22,0,0,1-2.78,2,2.41,2.41,0,0,1-.92-.24,1.92,1.92,0,0,0-.8-.25,3,3,0,0,0-1.59.63c.12.19.24.38.34.58a8.34,8.34,0,0,1,.56,1.26,5.75,5.75,0,0,1,.19,1.31.07.07,0,0,1-.13,0,20.35,20.35,0,0,0-1.21-2.25,11.23,11.23,0,0,0-1.55-2A9.79,9.79,0,0,0,18,19.78a7.83,7.83,0,0,0-1.17-.56,2.79,2.79,0,0,1-.93-.46.26.26,0,0,1,.11-.44,4.29,4.29,0,0,1,2.46.86,10.5,10.5,0,0,1,2.12,1.63,10.39,10.39,0,0,1,.87,1,3.6,3.6,0,0,1,2-.75c.69,0,1.23.55,1.93.48a2.25,2.25,0,0,0,1.4-.82,6.69,6.69,0,0,0,.86-1.52,1.25,1.25,0,0,1,.67-.65,1.57,1.57,0,0,1,.91,0c.3.09.58.23.88.29a2.21,2.21,0,0,0,.85,0,4.56,4.56,0,0,0,2.74-2.13,3.71,3.71,0,0,1,1.24-1.28,3.06,3.06,0,0,1,1.61-.22,2.24,2.24,0,0,1-.09-1A2.36,2.36,0,0,1,37,13.1a11.62,11.62,0,0,1,.88-1A11.19,11.19,0,0,1,40,10.53l.56-.32c.09-.06.17-.08.1-.19a1.88,1.88,0,0,0-.78-.55c-.67-.3-1.4-.41-2-.76a1.76,1.76,0,0,1-.86-.86A1,1,0,0,1,37,7.06a2.57,2.57,0,0,1,.51-.63l.29-.29A1.51,1.51,0,0,0,38,5.89a1,1,0,0,0,.1-.17h0v0s0,0,0-.06V5.5l0-.14a5.69,5.69,0,0,0-.33-.52,2.7,2.7,0,0,1-.22-.53.25.25,0,0,1,0-.07.33.33,0,0,1-.27,0,3.78,3.78,0,0,0-1.68-.47,7.05,7.05,0,0,0-1.58.2,2.06,2.06,0,0,1-1.57-.27A4.69,4.69,0,0,1,30.85,1s0,0,0,0C30.32.91,29.79.86,29.26.82S28.1.71,27.52.69ZM11.8,17.53a4.7,4.7,0,0,1,1.28.14.11.11,0,0,1,0,.2,9.09,9.09,0,0,0-4.68,1.7A10.78,10.78,0,0,0,5.58,23C3.83,26.41,4.09,30.26,5,33.82a.18.18,0,0,1-.33.14,11,11,0,0,1-1.11-6.41,12.31,12.31,0,0,1,1.41-5C6.27,20.17,8.87,17.58,11.8,17.53Zm31.26,0c2.93,0,5.53,2.64,6.85,5.06a12.64,12.64,0,0,1,1.41,5A11.05,11.05,0,0,1,50.2,34a.18.18,0,0,1-.33-.14c.9-3.56,1.16-7.42-.59-10.78a10.82,10.82,0,0,0-2.82-3.48,9.15,9.15,0,0,0-4.68-1.7c-.1,0-.09-.17,0-.19A4.7,4.7,0,0,1,43.06,17.53Zm-1.4,1.74a7.23,7.23,0,0,1,2.43.51A7.9,7.9,0,0,1,47.78,23a12.68,12.68,0,0,1,1.74,5.55,12.28,12.28,0,0,1-.1,3.09,5.89,5.89,0,0,1-1.1,2.49,9.48,9.48,0,0,1-4.28,3,13.78,13.78,0,0,1-1.54.49,7.91,7.91,0,0,1-6-.57,7.75,7.75,0,0,1-3.24-4,10.2,10.2,0,0,1-.14-6,14.34,14.34,0,0,1,1.17-3,11.85,11.85,0,0,1,1.58-2.4,7.39,7.39,0,0,1,3.83-2.25,8,8,0,0,1,1.09-.16A7.67,7.67,0,0,1,41.66,19.27ZM14,19.29a7.28,7.28,0,0,1,2.15.48,7.49,7.49,0,0,1,3.54,2.89A14.48,14.48,0,0,1,22,28.58a9.21,9.21,0,0,1-1,5.72,7.27,7.27,0,0,1-3.87,3.33,9.43,9.43,0,0,1-6.32-.46c-.42-.16-.83-.33-1.23-.53a7.89,7.89,0,0,1-3.7-3.54,7.41,7.41,0,0,1-.59-3.05,14.28,14.28,0,0,1,.24-2.92A11.57,11.57,0,0,1,7.9,21.89a7.19,7.19,0,0,1,3.9-2.43A7.07,7.07,0,0,1,14,19.29Zm9.52,9.39a.2.2,0,0,1,.23.11,4.51,4.51,0,0,1,.05,2.79,8.07,8.07,0,0,1-1.16,3,.11.11,0,0,1-.2-.08c.16-1,.53-1.85.7-2.8s0-1.89.18-2.82A.2.2,0,0,1,23.52,28.68Zm7.82,0a.2.2,0,0,1,.2.16c.16.93,0,1.88.18,2.82s.54,1.85.7,2.8a.11.11,0,0,1-.2.08,7.84,7.84,0,0,1-1.15-2.95,4.54,4.54,0,0,1,0-2.8A.22.22,0,0,1,31.34,28.68Zm-7.27,5.17s.06,0,0,0A26.21,26.21,0,0,0,22,36.83a5.1,5.1,0,0,0-.57,2,15.35,15.35,0,0,1,.06,1.65c0,.11-.16.12-.23.06-.87-.79-.33-2.67.08-3.57A7.45,7.45,0,0,1,24.07,33.85Zm6.72,0A7.48,7.48,0,0,1,33.52,37c.4.9.94,2.78.07,3.57a.15.15,0,0,1-.23-.06,15.35,15.35,0,0,1,.06-1.65,5.27,5.27,0,0,0-.57-2,26.21,26.21,0,0,0-2.1-2.94S30.77,33.83,30.79,33.85ZM26,34.58a1,1,0,0,1,.29.09,1.28,1.28,0,0,1,.58,1,5.58,5.58,0,0,1-.1,1.91,11.93,11.93,0,0,1-.5,1.84,2.85,2.85,0,0,1-.93,1.36A1.86,1.86,0,0,1,23.6,41a2,2,0,0,1-1.17-1.24,2.63,2.63,0,0,1,.15-1.85l0,0s0,0,0,0a6.18,6.18,0,0,1,1.13-1.72,6.64,6.64,0,0,1,1.4-1.3A1.32,1.32,0,0,1,26,34.58Zm3.16,0a2,2,0,0,1,.9.46,9.07,9.07,0,0,1,1.23,1.25,6.25,6.25,0,0,1,1,1.53s0,0,0,0a.05.05,0,0,1,0,0,2.56,2.56,0,0,1,0,2.1,1.94,1.94,0,0,1-1.53,1.1,1.84,1.84,0,0,1-1.58-.59A3.82,3.82,0,0,1,28.46,39a12.11,12.11,0,0,1-.46-2,4,4,0,0,1,.06-1.69.94.94,0,0,1,1.1-.77ZM2,35.82a.08.08,0,0,1,.1.07,7.33,7.33,0,0,0,2.86,4.54C6.61,41.6,8.66,41.77,10.65,42c.08,0,.1.13,0,.15-3.81,1.2-9.3-1.76-8.8-6.19A.12.12,0,0,1,2,35.82Zm50.94,0a.14.14,0,0,1,.09.09c.5,4.43-5,7.39-8.8,6.19-.08,0-.06-.14,0-.15,2-.18,4-.35,5.74-1.52a7.29,7.29,0,0,0,2.85-4.54A.08.08,0,0,1,52.9,35.82ZM35.09,38a.05.05,0,0,1,.08,0,7.52,7.52,0,0,0,4.66,1.79,8.3,8.3,0,0,0,2.62-.37c.8-.25,1.52-.73,2.31-1a.3.3,0,0,1,.29.49,6,6,0,0,1-2.53,1.18,8.19,8.19,0,0,1-2.91.3,6.34,6.34,0,0,1-4.53-2.34A.06.06,0,0,1,35.09,38Zm-15.4,0c.06,0,.14,0,.09.08a6.38,6.38,0,0,1-4.53,2.34,8.13,8.13,0,0,1-2.9-.3,6,6,0,0,1-2.53-1.18.29.29,0,0,1,.28-.48c.83.25,1.58.75,2.43,1a7.86,7.86,0,0,0,2.5.34A7.44,7.44,0,0,0,19.69,38Zm7,1.92s.08,0,.07,0a2.58,2.58,0,0,1-3.69,1.89c-.22-.12-.06-.41.16-.38a3.33,3.33,0,0,0,2.16-.16A3.3,3.3,0,0,0,26.7,39.92Zm1.47,0a3.28,3.28,0,0,0,1.29,1.37,3.33,3.33,0,0,0,2.16.16c.22,0,.38.26.17.38a2.59,2.59,0,0,1-3.7-1.89S28.15,39.89,28.17,39.92Zm-6.84,2.27a4.71,4.71,0,0,1,2.14,1.16c.09.07,0,.2-.11.15A9.29,9.29,0,0,0,22,42.84a12.78,12.78,0,0,0-1.36-.21.15.15,0,0,1,0-.28A1.25,1.25,0,0,1,21.33,42.19Zm12.2,0a1.25,1.25,0,0,1,.75.16.15.15,0,0,1,0,.28,10.39,10.39,0,0,0-1.36.21,8.74,8.74,0,0,0-1.38.66c-.1,0-.21-.08-.12-.15A4.57,4.57,0,0,1,33.53,42.19Zm-18.27.07a2.75,2.75,0,0,1,2,1,0,0,0,0,1-.06.07,5.07,5.07,0,0,0-1.11-.51c-.36-.11-.74-.08-1.1-.19a.16.16,0,0,1,0-.31A1.54,1.54,0,0,1,15.26,42.26Zm24.34,0a1.54,1.54,0,0,1,.3,0,.16.16,0,0,1,0,.31c-.36.11-.74.08-1.1.19a4.86,4.86,0,0,0-1.11.51,0,0,0,0,1-.06-.07A2.73,2.73,0,0,1,39.6,42.26Zm-20.28.17c.07,0,.15.08.08.13s-.14.15-.23.22l-.23.16c-.14.12-.26.32-.45.36a.16.16,0,0,1-.2-.2c0-.21.27-.33.43-.44A1.47,1.47,0,0,1,19.32,42.43Zm16.22,0a1.94,1.94,0,0,1,.33.07l.27.16c.16.11.39.23.44.44a.17.17,0,0,1-.21.2c-.19,0-.31-.23-.46-.35s-.16-.12-.24-.19l-.21-.2C35.39,42.51,35.47,42.42,35.54,42.43Zm-9.38.46a0,0,0,0,1,0,.09c-.3.23-.63.41-.93.63s-.51.55-.84.6a.14.14,0,0,1-.17-.17c.06-.36.52-.61.8-.78A2.48,2.48,0,0,1,26.16,42.89Zm2.53,0a2.35,2.35,0,0,1,1.12.36c.29.18.75.42.8.78a.15.15,0,0,1-.17.18c-.32-.06-.58-.42-.84-.61s-.63-.4-.93-.62C28.64,43,28.64,42.89,28.69,42.9Z"/><path d="M27.43,44.15a15.6,15.6,0,0,1,2.36.45,4.1,4.1,0,0,0,.74.64.38.38,0,0,0,.25.09.44.44,0,0,0,.18-.12,7.19,7.19,0,0,1,2.16-1.45,1.5,1.5,0,0,1,.76,0,5.49,5.49,0,0,1,1.4.19,1.76,1.76,0,0,1,1.09.85c.06.11.12.1.2.21s.06.09.1.09.08,0,.12,0A8.21,8.21,0,0,1,38.68,44a3.82,3.82,0,0,1,2.14-.2s.1.07.13.09a5.66,5.66,0,0,1,.88.55,11.74,11.74,0,0,1,.2-1.27c.17-.35.65-.18.93-.08a10,10,0,0,0,4.43.51,7.78,7.78,0,0,0,4.07-1.76A9.15,9.15,0,0,0,53.54,39a10.6,10.6,0,0,0,.86-4.72c.06-1.8.08-3.61.07-5.42a48.9,48.9,0,0,0-.25-6.52A22.29,22.29,0,0,0,53,17a30.41,30.41,0,0,0-1.52-3.8c.18,1.29.71,2.5,1,3.77a11.38,11.38,0,0,1-.32,6.46s0,.14-.05.19a4.69,4.69,0,0,0,.47-.42,6.51,6.51,0,0,1-.11,4.56c-.22-.51-.44-1-.65-1.55a5.37,5.37,0,0,1-.73,1.33s-.05.07-.09.07-.07-.05,0-.07a22.21,22.21,0,0,0-1.38-5.25,3.9,3.9,0,0,0-.48-.93c-.31-.4-.74-.68-1-1.09a6.68,6.68,0,0,0-6-2.5,6.06,6.06,0,0,1,3.33,2,12.3,12.3,0,0,0-2.64-.32,9.57,9.57,0,0,1,4.68,3.38c1.58,2.15,1.93,5,1.9,7.71s-2,4.7-4.23,5.83a11.63,11.63,0,0,1-2.37.81,12.39,12.39,0,0,1-3.32.37,4.92,4.92,0,0,1-3.33-1.31A9.84,9.84,0,0,1,33.65,33,8.66,8.66,0,0,1,34,26.14,10.06,10.06,0,0,1,35,23.47a13.56,13.56,0,0,0,1-1.59,3.88,3.88,0,0,0-1.3.61,12.72,12.72,0,0,1,4-3.73,2.88,2.88,0,0,0-1.41.44,12.77,12.77,0,0,0-3.5,2.73,9.29,9.29,0,0,0-.93,1.66,9.11,9.11,0,0,0-1.07,3.08,5.14,5.14,0,0,1,1.41-1.56,17.83,17.83,0,0,0-.93,4.68l-.48-1.1a.19.19,0,0,0-.1-.13c-.1,0-.17.09-.19.18a3.63,3.63,0,0,0-.14.8,9,9,0,0,0,1.32,5.62.31.31,0,0,1,0-.44c.15-.12.36,0,.5.15l2.12,2a1.09,1.09,0,0,1,.3.41.37.37,0,0,1-.18.43,1.07,1.07,0,0,1-.31,0c-.1,0-.22.06-.22.17A.22.22,0,0,0,35,38a1.85,1.85,0,0,0,.65.53,21.36,21.36,0,0,0,3,1.34,4.83,4.83,0,0,0,1.49.27A5.28,5.28,0,0,0,41.38,40c.5-.12,1-.23,1.49-.39a10,10,0,0,0,3-1.59c-.31,0-.5-.41-.36-.69a.77.77,0,0,1,.8-.33,3.35,3.35,0,0,0,.44.07,1.3,1.3,0,0,0,.54-.16,10.69,10.69,0,0,0,2.83-2.07c-.16.1-.38-.08-.38-.27a.84.84,0,0,1,.22-.5.82.82,0,0,0,.21-.5c-.12-1.66.89-3.14,1-4.79.11.4.21.8.31,1.2a3.7,3.7,0,0,0,.71-1.48c.36.09.57.47.72.82a6.1,6.1,0,0,1,.39,4.41A4.1,4.1,0,0,1,51.19,36l1.44-.46a.15.15,0,0,1,.13,0c.05,0,.06.09.07.14.36,2.49-1.3,4.36-3.47,5.29-.4.17-.59.27-1,.46a8.42,8.42,0,0,1-2.68.6,8,8,0,0,1-2.19,0A2.75,2.75,0,0,1,41.67,41,7.13,7.13,0,0,0,42,42.09a.87.87,0,0,1-.91-.18,1.92,1.92,0,0,1,.16.81,2.8,2.8,0,0,0-2.55-.06c-.31.16-.59.37-.9.53a.5.5,0,0,1-.37.07c-.12,0-.21-.19-.14-.29a.53.53,0,0,1-.47.35.56.56,0,0,1-.52-.3c-.18-.38-.54-.4-.92-.6a.58.58,0,0,1-.68.26,1.92,1.92,0,0,1-.29-.14,1.86,1.86,0,0,0-1.58,0,3.83,3.83,0,0,0-1.06.68,2.26,2.26,0,0,1-1.17.44,1.35,1.35,0,0,1-.45,0c-.36-.06-.61-.39-.92-.59a3,3,0,0,0-1.49-.36l-.3,0-.31,0a3,3,0,0,0-1.49.36c-.31.2-.56.52-.92.59a1.35,1.35,0,0,1-.45,0,2.26,2.26,0,0,1-1.17-.44A3.69,3.69,0,0,0,22,42.54a1.86,1.86,0,0,0-1.58,0,1.92,1.92,0,0,1-.29.14.58.58,0,0,1-.68-.26c-.38.2-.74.22-.92.6a.56.56,0,0,1-.52.3.53.53,0,0,1-.47-.35c.08.1,0,.26-.14.29a.5.5,0,0,1-.37-.07c-.31-.16-.59-.37-.9-.53a2.8,2.8,0,0,0-2.55.06,1.92,1.92,0,0,1,.16-.81.87.87,0,0,1-.91.18A7.13,7.13,0,0,0,13.18,41a2.75,2.75,0,0,1-1.84,1.07,8,8,0,0,1-2.19,0,8.42,8.42,0,0,1-2.68-.6c-.39-.19-.58-.29-1-.46C3.32,40,1.66,38.17,2,35.68c0,0,0-.12.07-.14a.15.15,0,0,1,.13,0L3.66,36a4.1,4.1,0,0,1-2.15-2.29,6.1,6.1,0,0,1,.39-4.41c.15-.35.36-.73.72-.82A3.7,3.7,0,0,0,3.33,30c.1-.4.2-.8.31-1.2.12,1.66,1.13,3.13,1,4.79a.82.82,0,0,0,.21.5.84.84,0,0,1,.22.5c0,.19-.22.37-.38.27A10.69,10.69,0,0,0,7.53,36.9a1.3,1.3,0,0,0,.54.16A3.35,3.35,0,0,0,8.51,37a.77.77,0,0,1,.8.33c.14.28-.05.7-.36.69a10,10,0,0,0,3,1.59c.49.16,1,.27,1.49.39a5.28,5.28,0,0,0,1.19.19,4.83,4.83,0,0,0,1.49-.27,21.36,21.36,0,0,0,3-1.34,1.75,1.75,0,0,0,.65-.53.22.22,0,0,0,.06-.13c0-.11-.12-.17-.22-.17a1.07,1.07,0,0,1-.31,0,.37.37,0,0,1-.18-.43,1,1,0,0,1,.31-.41l2.11-2c.14-.13.35-.27.5-.15a.31.31,0,0,1,.05.44,9,9,0,0,0,1.32-5.62,3.63,3.63,0,0,0-.14-.8c0-.09-.09-.21-.19-.18a.19.19,0,0,0-.1.13l-.48,1.1a17.83,17.83,0,0,0-.93-4.68A5.14,5.14,0,0,1,23,26.67,9.11,9.11,0,0,0,22,23.59,9.29,9.29,0,0,0,21,21.93a12.77,12.77,0,0,0-3.5-2.73,2.88,2.88,0,0,0-1.41-.44,12.72,12.72,0,0,1,4,3.73,3.88,3.88,0,0,0-1.3-.61,13.56,13.56,0,0,0,1,1.59,10.06,10.06,0,0,1,1.06,2.67A8.7,8.7,0,0,1,21.21,33a10,10,0,0,1-2.42,3.23,4.92,4.92,0,0,1-3.33,1.31,12.39,12.39,0,0,1-3.32-.37,11.63,11.63,0,0,1-2.37-.81c-2.27-1.13-4.2-3.29-4.23-5.83s.32-5.56,1.9-7.71a9.57,9.57,0,0,1,4.68-3.38,12.3,12.3,0,0,0-2.64.32,6.06,6.06,0,0,1,3.33-2,6.68,6.68,0,0,0-6,2.5c-.28.41-.71.69-1,1.09a3.9,3.9,0,0,0-.48.93,22.21,22.21,0,0,0-1.38,5.25s0,.07,0,.07-.07,0-.09-.07a5.37,5.37,0,0,1-.73-1.33c-.21.52-.43,1-.65,1.55a6.51,6.51,0,0,1-.11-4.56,4.69,4.69,0,0,0,.47.42c0-.05,0-.15,0-.19A11.38,11.38,0,0,1,2.4,17c.3-1.27.83-2.48,1-3.77A32,32,0,0,0,1.89,17,22.29,22.29,0,0,0,.63,22.33a50.63,50.63,0,0,0-.25,6.52c0,1.8,0,3.62.07,5.42A10.6,10.6,0,0,0,1.31,39a9.27,9.27,0,0,0,2.08,2.83,7.78,7.78,0,0,0,4.07,1.76,10,10,0,0,0,4.43-.51c.29-.1.76-.26.93.08a11.74,11.74,0,0,1,.2,1.27,6.17,6.17,0,0,1,.88-.55s.13-.13.13-.09a3.82,3.82,0,0,1,2.14.2,8.21,8.21,0,0,1,1.89,1.07s.08.05.12,0,.08-.05.1-.09.14-.1.2-.21a1.76,1.76,0,0,1,1.09-.85,5.49,5.49,0,0,1,1.4-.19,1.5,1.5,0,0,1,.76,0,7.19,7.19,0,0,1,2.16,1.45.44.44,0,0,0,.18.12.38.38,0,0,0,.25-.09,4.1,4.1,0,0,0,.74-.64A16,16,0,0,1,27.43,44.15Z"/><path d="M27.43,35.6l.09.31a2.27,2.27,0,0,0,.6,1.17c.22.67.35,1.4.57,2.08a4,4,0,0,0,.49,1.15,1.5,1.5,0,0,0,1,.7,2.1,2.1,0,0,0,1.45-.51,1.76,1.76,0,0,0,.65-.65,1.44,1.44,0,0,0,.1-.74,6.39,6.39,0,0,0-1.47-3,2.59,2.59,0,0,1,1.62,1.48,1.72,1.72,0,0,0-.08-.78,6.27,6.27,0,0,0-1.53-2.7,6.34,6.34,0,0,1,2.69,5.54,2,2,0,0,1-.52,1.4L33,40a3,3,0,0,1-.48,1,2.48,2.48,0,0,1-2.5.83A3.23,3.23,0,0,1,28,40.09c-.09-.16-.19-.35-.37-.37a.36.36,0,0,0-.17,0,.47.47,0,0,0-.17,0c-.18,0-.28.21-.36.37a3.27,3.27,0,0,1-2.08,1.72A2.5,2.5,0,0,1,22.31,41a2.93,2.93,0,0,1-.47-1l-.06,1a2,2,0,0,1-.53-1.4A6.32,6.32,0,0,1,24,34.06a6.29,6.29,0,0,0-1.54,2.7,1.88,1.88,0,0,0-.08.78A2.6,2.6,0,0,1,24,36.06a6.21,6.21,0,0,0-1.47,3,1.43,1.43,0,0,0,.09.74,1.92,1.92,0,0,0,.65.65,2.1,2.1,0,0,0,1.45.51,1.54,1.54,0,0,0,1-.7,4.69,4.69,0,0,0,.49-1.15c.21-.68.34-1.41.56-2.08a2.27,2.27,0,0,0,.6-1.17Z"/><path d="M27.43,53.14l.52-.07a2.48,2.48,0,0,0,.61-.15,2.89,2.89,0,0,0,.84-.68,8.19,8.19,0,0,0,.72-.84,5.25,5.25,0,0,0,.77-2.56c.07-.9,0-1.81.08-2.71a1.33,1.33,0,0,0-.18-1,1.09,1.09,0,0,0-.39-.27,8.51,8.51,0,0,0-3-.8,8.62,8.62,0,0,0-3,.8,1.3,1.3,0,0,0-.39.27,1.33,1.33,0,0,0-.17,1c.07.9,0,1.81.08,2.71a5.21,5.21,0,0,0,.77,2.56,8.19,8.19,0,0,0,.72.84,2.89,2.89,0,0,0,.84.68,2.48,2.48,0,0,0,.61.15Zm0-8.76a3,3,0,0,1,.05.4,6.39,6.39,0,0,1,0,1,.75.75,0,0,1,.87-.08,1.45,1.45,0,0,1,.59.72,5,5,0,0,1,.15,2.53,3.64,3.64,0,0,0,.78-1.12c-.09.55-.19,1.09-.29,1.64a5.39,5.39,0,0,1-1,2.51,4,4,0,0,1-1.16.88A3.72,3.72,0,0,1,26.27,52a5.29,5.29,0,0,1-1-2.51c-.11-.55-.21-1.09-.29-1.64a3.61,3.61,0,0,0,.77,1.12,5,5,0,0,1,.16-2.53,1.43,1.43,0,0,1,.58-.72.77.77,0,0,1,.88.08,5.33,5.33,0,0,1,0-1C27.38,44.72,27.4,44.54,27.43,44.38Z"/><path d="M33.25,43.92a6.54,6.54,0,0,0-1.85.92.42.42,0,0,0-.11.15.32.32,0,0,0,0,.14c.14,1.17.46,2.31.63,3.48a10,10,0,0,0,.3,1.54,3.65,3.65,0,0,0,1,1.51,1.52,1.52,0,0,0,.43.28A1.3,1.3,0,0,0,34,52a2.27,2.27,0,0,0,1.43-.42,2.91,2.91,0,0,0,.92-1.52,11.91,11.91,0,0,0,.23-4.76q-.07.83-.21,1.65c-.08-.45-.17-.9-.25-1.36a.51.51,0,0,0-.17-.34,3.14,3.14,0,0,1,0,1.26c0,.44-.11.87-.16,1.3a4,4,0,0,1-.33,1.28A2,2,0,0,1,34,50.16l.52.16c-.26.18-.59.38-.88.23a.86.86,0,0,1-.32-.42,8.65,8.65,0,0,1-.65-3,4.68,4.68,0,0,1,.21-1.9,2.21,2.21,0,0,1,.77-1l.31-.21a.69.69,0,0,0,.13-.11.22.22,0,0,0,.05-.11C34.11,43.58,33.35,43.88,33.25,43.92Z"/><path d="M21.61,43.92a6.54,6.54,0,0,1,1.85.92.42.42,0,0,1,.11.15.32.32,0,0,1,0,.14c-.14,1.17-.45,2.31-.63,3.48a10,10,0,0,1-.3,1.54,3.65,3.65,0,0,1-1,1.51,1.52,1.52,0,0,1-.43.28,1.3,1.3,0,0,1-.44.06,2.29,2.29,0,0,1-1.43-.42,2.91,2.91,0,0,1-.92-1.52,11.91,11.91,0,0,1-.23-4.76q.07.83.21,1.65c.08-.45.17-.9.25-1.36a.51.51,0,0,1,.17-.34,3.14,3.14,0,0,0-.05,1.26c.05.44.11.87.17,1.3a3.77,3.77,0,0,0,.32,1.28,2,2,0,0,0,1.59,1.07l-.52.16c.26.18.59.38.88.23a.86.86,0,0,0,.32-.42,8.65,8.65,0,0,0,.65-3,4.68,4.68,0,0,0-.21-1.9,2.21,2.21,0,0,0-.77-1L20.94,44a.43.43,0,0,1-.12-.11.17.17,0,0,1-.06-.11C20.75,43.58,21.51,43.88,21.61,43.92Z"/><path d="M38.36,45.36a2.67,2.67,0,0,0,0,.8A10,10,0,0,0,38.79,49a.32.32,0,0,0,.09.16.33.33,0,0,0,.32,0,1.24,1.24,0,0,1,.33-.09l-.4-.09a3.39,3.39,0,0,0,1.59-1.86,7.6,7.6,0,0,0,.41-2.46,1.44,1.44,0,0,1,.34.27A1.88,1.88,0,0,0,41,44a1.17,1.17,0,0,1,.73.43,1.22,1.22,0,0,1,.19.62,5,5,0,0,1-.11,1.28c-.13.71-.32,1.41-.51,2.11a3.82,3.82,0,0,1-.33.95,3.92,3.92,0,0,1-.57.72,3.25,3.25,0,0,1-.68.6,1.45,1.45,0,0,1-.86.25.5.5,0,0,1-.24-.06.6.6,0,0,1-.23-.33,20.6,20.6,0,0,1-1.34-5.31.34.34,0,0,1,0-.2.32.32,0,0,1,.13-.15,4.42,4.42,0,0,1,3-1.09A2.68,2.68,0,0,0,38.36,45.36Z"/><path d="M16.5,45.36a2.67,2.67,0,0,1,0,.8A10.32,10.32,0,0,1,16.08,49a.44.44,0,0,1-.1.16.33.33,0,0,1-.32,0,1.24,1.24,0,0,0-.33-.09l.4-.09a3.39,3.39,0,0,1-1.59-1.86,7.6,7.6,0,0,1-.41-2.46,1.44,1.44,0,0,0-.34.27,1.88,1.88,0,0,1,.47-1,1.19,1.19,0,0,0-.73.43,1.22,1.22,0,0,0-.19.62,5,5,0,0,0,.11,1.28c.13.71.32,1.41.51,2.11a3,3,0,0,0,.9,1.67,3.53,3.53,0,0,0,.68.6,1.45,1.45,0,0,0,.86.25.5.5,0,0,0,.24-.06.6.6,0,0,0,.23-.33,20.6,20.6,0,0,0,1.34-5.31.34.34,0,0,0,0-.2.32.32,0,0,0-.13-.15,4.42,4.42,0,0,0-3-1.09A2.68,2.68,0,0,1,16.5,45.36Z"/><path d="M33.36,48.8a.81.81,0,0,0,1.46.56.4.4,0,0,1-.37-.11,1.1,1.1,0,0,1-.2-.35A3.1,3.1,0,0,1,34,47.15a.79.79,0,0,1-.17.31A4.08,4.08,0,0,1,34,45.09a.26.26,0,0,1,.07-.1c.09,0,.17.07.2.16s.1-.22.06-.33a.36.36,0,0,0-.33-.25c-.3,0-.43.17-.47.42a12.61,12.61,0,0,0-.31,2.37A7.71,7.71,0,0,0,33.36,48.8Z"/><path d="M21.5,48.8a1,1,0,0,1-.47.83,1,1,0,0,1-1-.27.4.4,0,0,0,.37-.11,1.1,1.1,0,0,0,.2-.35,3.2,3.2,0,0,0,.25-1.75.66.66,0,0,0,.16.31,4.08,4.08,0,0,0-.17-2.37s0-.08-.07-.1-.17.07-.2.16-.1-.22-.06-.33a.36.36,0,0,1,.33-.25c.3,0,.43.17.48.42a13.48,13.48,0,0,1,.3,2.37A7.71,7.71,0,0,1,21.5,48.8Z"/><path d="M35.05,47.62c.07,0,.13-.06.16-.13a3.49,3.49,0,0,0,.32-1.93,1.55,1.55,0,0,0-.79-1.29,1.87,1.87,0,0,1,.37,1.21c0-.14-.08-.44-.25-.44A6.06,6.06,0,0,0,35,46.3Q35.05,47,35.05,47.62Z"/><path d="M19.81,47.62c-.07,0-.13-.06-.16-.13a3.49,3.49,0,0,1-.32-1.93,1.55,1.55,0,0,1,.79-1.29,1.87,1.87,0,0,0-.37,1.21c0-.14.09-.44.25-.44a6.06,6.06,0,0,1-.13,1.26C19.83,46.74,19.82,47.18,19.81,47.62Z"/><path d="M38.9,48.08c0,.11.07.25.18.29a.33.33,0,0,0,.27-.06,1.93,1.93,0,0,0,.57-.46.33.33,0,0,1-.46,0,.86.86,0,0,1-.21-.45,3.63,3.63,0,0,1,0-1.09,2.6,2.6,0,0,1,.21.65,3.85,3.85,0,0,0,0-2.55A4.78,4.78,0,0,0,38.9,48.08Z"/><path d="M16,48.08c0,.11-.08.25-.19.29a.33.33,0,0,1-.27-.06,1.93,1.93,0,0,1-.57-.46.33.33,0,0,0,.46,0,.79.79,0,0,0,.21-.45,3.33,3.33,0,0,0,0-1.09,2.6,2.6,0,0,0-.21.65,3.85,3.85,0,0,1,0-2.55A4.83,4.83,0,0,1,16,48.08Z"/><path d="M26.35,49.37a3,3,0,0,0,.34,1.29,1.25,1.25,0,0,0,1.1.66,9.48,9.48,0,0,1-.85-3.55,1.84,1.84,0,0,1,.21-1.11.36.36,0,0,1,.38-.2c.11,0,.18.15.23.25a7,7,0,0,1,.4,1.17,1.61,1.61,0,0,0-.08-1.55c-.36-.51-1.31-.62-1.53.06A8.07,8.07,0,0,0,26.35,49.37Z"/><path d="M27.34,0c-.6,0-1.2.09-1.79.14-1.23.1-2.45.23-3.67.39A32.88,32.88,0,0,0,14.7,2.28a21,21,0,0,0-6,3.56A22.45,22.45,0,0,0,4.25,11,29.08,29.08,0,0,0,.06,25.4c-.11,2.46,0,4.94,0,7.4A17.19,17.19,0,0,0,1,39.05a7.71,7.71,0,0,0,4.53,4.53A8.06,8.06,0,0,0,8.14,44,14,14,0,0,0,11,43.75a5.87,5.87,0,0,0,1.53-.46,16.13,16.13,0,0,0,.12,3.18A7.76,7.76,0,0,0,13,48.06a7.84,7.84,0,0,0,.81,1.48c.34.5.71,1,1.09,1.44a1.28,1.28,0,0,0,1.34.45,1.19,1.19,0,0,0,.59-.37,1.79,1.79,0,0,0,.34-.69c.17-.53.32-1.06.47-1.59.06-.2.11-.4.17-.61a8,8,0,0,0,.16,1.09,4.81,4.81,0,0,0,.8,1.77A3.4,3.4,0,0,0,20,52.27a2,2,0,0,0,2.5-.74,2.82,2.82,0,0,0,.28-.75c.09-.29.17-.58.25-.87.16-.59.33-1.18.48-1.77l.11-.41a15.82,15.82,0,0,0,.27,1.83,9.81,9.81,0,0,0,.66,2,3.61,3.61,0,0,0,1.13,1.51,3.15,3.15,0,0,0,3.24.22,3,3,0,0,0,1.25-1.24,9.29,9.29,0,0,0,.79-2,15.42,15.42,0,0,0,.38-2.34c.15.58.31,1.16.47,1.75s.28,1.14.48,1.68a2,2,0,0,0,2.3,1.24,2.31,2.31,0,0,0,1.27-.94,5,5,0,0,0,1-1.72,6.94,6.94,0,0,0,.3-1.56c0,.06,0,.12,0,.17.15.56.3,1.11.47,1.65a2,2,0,0,0,.72,1.28,1.26,1.26,0,0,0,1.38,0,2.25,2.25,0,0,0,.55-.6c.2-.24.38-.48.56-.73a8.51,8.51,0,0,0,.9-1.47,5.88,5.88,0,0,0,.45-1.55,16.79,16.79,0,0,0,.19-3.61,6.23,6.23,0,0,0,1.63.48,14,14,0,0,0,2.82.19,8.19,8.19,0,0,0,2.69-.43,7.35,7.35,0,0,0,2.76-1.87c3-3.28,2.51-8.16,2.56-12.26a47.31,47.31,0,0,0-.42-8.07A29,29,0,0,0,52.26,14a22.46,22.46,0,0,0-9-10.26C39,1.29,34.06.52,29.22.13A17,17,0,0,0,27.34,0Zm.18.7c.58,0,1.17.08,1.74.12L30.84,1a.06.06,0,0,1,0,0,4.71,4.71,0,0,0,1.62,2.67A2.06,2.06,0,0,0,34,4a7.69,7.69,0,0,1,1.58-.21,3.92,3.92,0,0,1,1.68.47.33.33,0,0,0,.27,0,.14.14,0,0,0,0,.07,2.27,2.27,0,0,0,.22.53,5.84,5.84,0,0,1,.33.53,1,1,0,0,1,0,.14v.07a.2.2,0,0,1,0,0s0,0,0,.06v0a0,0,0,0,0,0,0L38,5.9a2.06,2.06,0,0,1-.22.25l-.29.29a2.52,2.52,0,0,0-.51.62,1,1,0,0,0-.09.8,1.74,1.74,0,0,0,.86.85c.64.35,1.37.47,2,.77a1.8,1.8,0,0,1,.78.55c.07.1,0,.13-.1.18s-.38.21-.56.32a11.58,11.58,0,0,0-2.09,1.6,10.13,10.13,0,0,0-.88,1,2.39,2.39,0,0,0-.56,1.15,2.18,2.18,0,0,0,.09,1,3.28,3.28,0,0,0-1.61.22,3.57,3.57,0,0,0-1.24,1.29,4.54,4.54,0,0,1-2.74,2.12,2,2,0,0,1-.85,0c-.3-.07-.58-.2-.88-.29a1.49,1.49,0,0,0-.91,0,1.2,1.2,0,0,0-.67.64,6.76,6.76,0,0,1-.86,1.53,2.19,2.19,0,0,1-1.4.81c-.7.08-1.24-.45-1.93-.47a3.52,3.52,0,0,0-2,.75,9.31,9.31,0,0,0-.87-1,10.54,10.54,0,0,0-2.12-1.64A4.21,4.21,0,0,0,16,18.33a.25.25,0,0,0-.11.43,2.46,2.46,0,0,0,.93.46,9,9,0,0,1,1.17.57A9.46,9.46,0,0,1,20,21.36a10.87,10.87,0,0,1,1.55,2,18.7,18.7,0,0,1,1.21,2.25c0,.06.13,0,.13,0a5.84,5.84,0,0,0-.19-1.31A8.23,8.23,0,0,0,22.14,23c-.1-.2-.22-.4-.34-.59a3,3,0,0,1,1.59-.63,2.26,2.26,0,0,1,.8.25,2.24,2.24,0,0,0,.92.24,3.23,3.23,0,0,0,2.78-2c.14-.27.23-.55.38-.8a.47.47,0,0,1,.52-.25,6.92,6.92,0,0,1,.88.28,2.79,2.79,0,0,0,.91.13,4.32,4.32,0,0,0,3.13-1.78c.23-.28.44-.57.64-.86a3.59,3.59,0,0,1,.59-.7,2.38,2.38,0,0,1,1.83-.3h0c.13.3.27.6.37.91A2.21,2.21,0,0,1,36.72,19l-.28.16a10.5,10.5,0,0,0-2.12,1.63A9.1,9.1,0,0,0,32.72,23a9.37,9.37,0,0,0-.53,1.16,5.11,5.11,0,0,0-.22,1.4.07.07,0,0,0,.13,0,18.08,18.08,0,0,1,1.16-2.17,10.91,10.91,0,0,1,1.6-2,9.73,9.73,0,0,1,2-1.53A9.46,9.46,0,0,1,38,19.26a3,3,0,0,0,1-.5.26.26,0,0,0-.12-.43,2,2,0,0,0-1.08.15A3.06,3.06,0,0,0,38,17.4a10,10,0,0,0-.78-2.29,1.52,1.52,0,0,1,0-1,3.82,3.82,0,0,1,.74-1,11,11,0,0,1,1.9-1.63l0,.06a5.92,5.92,0,0,1,.75,1.32,1.7,1.7,0,0,0,.63.62,2.25,2.25,0,0,0,.92.25c.34,0,.68.05,1,.1a7.73,7.73,0,0,1,1,.18,8.34,8.34,0,0,1,1.88.7,2.93,2.93,0,0,1,1.21,1.05c.32.58,0,1.16,0,1.77a2.64,2.64,0,0,0,.84,1.7l.72.84c.22.24.43.56.76.65a1.38,1.38,0,0,0,1.09-.33c.3-.2.59-.43.91-.61s1.15-.51,1.59-.09a.34.34,0,0,0,.25.1,31.78,31.78,0,0,1,.69,5.13c.13,2.42,0,4.85,0,7.27a19.83,19.83,0,0,1-.68,6.09,7.24,7.24,0,0,1-3.95,4.56,7.06,7.06,0,0,1-2.57.48,14.51,14.51,0,0,1-2.63-.15,4.42,4.42,0,0,1-2.06-.71h0a.29.29,0,0,0-.22-.09.36.36,0,0,0-.33.23.26.26,0,0,0,0,.24h0a2.19,2.19,0,0,0-1-.42c-.09,0-.11.13,0,.17a4,4,0,0,1,1.08.82l0,0c0,.13,0,.27,0,.41a3.45,3.45,0,0,0-2.31-.31,5.23,5.23,0,0,0-2.56,1.2,3.41,3.41,0,0,0-.71-.76,2.61,2.61,0,0,0-1.28-.51,4.45,4.45,0,0,0-2.79.55,4.58,4.58,0,0,0-1.15.9,6.21,6.21,0,0,0-5.74-.65,5.78,5.78,0,0,0-1.2.65,4.85,4.85,0,0,0-2.28-1.35,3.54,3.54,0,0,0-2.78.3,3.17,3.17,0,0,0-.88.87,5.2,5.2,0,0,0-2.55-1.2,3.39,3.39,0,0,0-2.31.31c0-.14,0-.28,0-.41l0,0a4,4,0,0,1,1.08-.82c.07,0,0-.18,0-.17a2.1,2.1,0,0,0-1,.42h0a.25.25,0,0,0,0-.24.37.37,0,0,0-.33-.24.33.33,0,0,0-.23.1h0a4.62,4.62,0,0,1-2.13.72,13.18,13.18,0,0,1-2.66.13,6.69,6.69,0,0,1-2.54-.5,6.57,6.57,0,0,1-2.54-2,10.2,10.2,0,0,1-1.92-5.6C.65,33,.73,30.86.71,28.71A42.74,42.74,0,0,1,1.2,21a27.66,27.66,0,0,1,2.16-7,21.81,21.81,0,0,1,8.75-9.77c4.13-2.35,9-3.07,13.63-3.44A15.06,15.06,0,0,1,27.52.7Zm4.06.35c.41.05.81.09,1.21.15a36.63,36.63,0,0,1,5.08,1.05,2.76,2.76,0,0,0-.38,1.28,4.64,4.64,0,0,0-2.89-.41,2.81,2.81,0,0,1-1.49.12,2.11,2.11,0,0,1-.92-.88A5,5,0,0,1,31.58,1.05Zm7,1.4,1.11.38a20,20,0,0,1,5.9,3.38,21.89,21.89,0,0,1,4.32,4.89,24.59,24.59,0,0,1,2.08,4,3.19,3.19,0,0,0-2.3.43c-.24.18-.49.48-.81.51a1.54,1.54,0,0,1-.94-.47,2.9,2.9,0,0,0-1.09-1.24,7.2,7.2,0,0,0-1.75-.83,9.05,9.05,0,0,0-2-.45c-.58-.07-1.36,0-1.75-.51a13.51,13.51,0,0,0-.85-1.48c.17-.1.34-.19.5-.3a.9.9,0,0,0,.4-.5.8.8,0,0,0-.19-.71,3.83,3.83,0,0,0-1.9-1,7,7,0,0,1-1-.35c-.24-.12-.62-.31-.68-.6h0v0l0-.07.07-.13,0,0,.06-.07c.17-.2.37-.37.55-.56a2,2,0,0,0,.51-.78,1.36,1.36,0,0,0-.29-1.16,1.89,1.89,0,0,1,0-2.22ZM52.21,15.72a29.23,29.23,0,0,1,1,3.14A2,2,0,0,0,52,18.79a5.69,5.69,0,0,0-1.66.94,2.14,2.14,0,0,1-.38.23.21.21,0,0,1-.29-.06c-.24-.25-.46-.53-.69-.79a3.37,3.37,0,0,1-1-1.48,3.9,3.9,0,0,1,.11-1.07v0a1.66,1.66,0,0,0,.48.19,1.46,1.46,0,0,0,1.23-.37,2.17,2.17,0,0,1,1-.54,4.43,4.43,0,0,1,1.26,0A.32.32,0,0,0,52.21,15.72ZM11.8,17.53c-2.93,0-5.53,2.63-6.84,5.06a12.27,12.27,0,0,0-1.41,4.95A11.08,11.08,0,0,0,4.66,34,.18.18,0,0,0,5,33.82c-.9-3.56-1.16-7.42.59-10.78A10.82,10.82,0,0,1,8.4,19.56a9.18,9.18,0,0,1,4.68-1.7c.1,0,.09-.17,0-.19A4.7,4.7,0,0,0,11.8,17.53Zm31.26,0a4.7,4.7,0,0,0-1.28.14.11.11,0,0,0,0,.2,9.06,9.06,0,0,1,4.68,1.7A10.78,10.78,0,0,1,49.28,23c1.75,3.37,1.49,7.22.59,10.78a.18.18,0,0,0,.33.14,11.05,11.05,0,0,0,1.12-6.41,12.64,12.64,0,0,0-1.41-5C48.59,20.17,46,17.58,43.06,17.53ZM14,19.29a7.07,7.07,0,0,0-2.2.17,7.19,7.19,0,0,0-3.9,2.43,11.57,11.57,0,0,0-2.36,5.24,14.28,14.28,0,0,0-.24,2.92,7.41,7.41,0,0,0,.59,3.05,7.89,7.89,0,0,0,3.7,3.54c.4.2.81.37,1.23.53a9.43,9.43,0,0,0,6.32.46A7.27,7.27,0,0,0,21,34.3a9.21,9.21,0,0,0,1-5.72,14.48,14.48,0,0,0-2.3-5.92,7.44,7.44,0,0,0-3.54-2.89A7.28,7.28,0,0,0,14,19.29Zm27.94,0a7.34,7.34,0,0,0-6,2.41,11.58,11.58,0,0,0-1.58,2.4,14.25,14.25,0,0,0-1.17,3,10.12,10.12,0,0,0,.14,6,7.79,7.79,0,0,0,3.24,4,7.86,7.86,0,0,0,6,.56A14.4,14.4,0,0,0,44,37.17a9.48,9.48,0,0,0,4.28-3,5.75,5.75,0,0,0,1.09-2.49,11.91,11.91,0,0,0,.11-3.1A12.64,12.64,0,0,0,47.78,23a7.9,7.9,0,0,0-3.69-3.26A7,7,0,0,0,41.94,19.29ZM13.77,20a6.77,6.77,0,0,1,4.71,2.24,11.49,11.49,0,0,1,1.44,2.21A14,14,0,0,1,21,27.19a9.44,9.44,0,0,1-.11,5.69A7,7,0,0,1,18,36.49a7.19,7.19,0,0,1-5.48.48A15,15,0,0,1,11,36.5a8.59,8.59,0,0,1-3.94-2.76,5.43,5.43,0,0,1-1-2.34A11.49,11.49,0,0,1,6,28.53c.28-3.19,1.81-6.85,5-8.1A6.31,6.31,0,0,1,13,20,6.43,6.43,0,0,1,13.77,20Zm27.12,0a6.48,6.48,0,0,1,5.54,2.35,10.73,10.73,0,0,1,2.21,4.93,13.62,13.62,0,0,1,.23,2.7,6.8,6.8,0,0,1-.5,2.79A7.19,7.19,0,0,1,45,36a10.9,10.9,0,0,1-1.1.5,8.88,8.88,0,0,1-6,.45,6.56,6.56,0,0,1-3.48-3.06,8.51,8.51,0,0,1-.86-5.32A14,14,0,0,1,35.75,23,6.68,6.68,0,0,1,40.89,20Zm-17.37,8.7c-.1,0-.19.06-.2.16-.16.93,0,1.88-.18,2.82s-.54,1.85-.7,2.8a.11.11,0,0,0,.2.08,8.28,8.28,0,0,0,1.16-2.95,4.54,4.54,0,0,0-.05-2.8A.2.2,0,0,0,23.52,28.68Zm7.82,0a.22.22,0,0,0-.24.11,4.54,4.54,0,0,0,0,2.8,7.84,7.84,0,0,0,1.15,2.95.11.11,0,0,0,.2-.08c-.16-1-.53-1.85-.7-2.8s0-1.89-.18-2.82A.2.2,0,0,0,31.34,28.68Zm-7.27,5.17A7.45,7.45,0,0,0,21.35,37c-.41.9-1,2.78-.08,3.57a.14.14,0,0,0,.23-.06,15.35,15.35,0,0,0-.06-1.65,5.1,5.1,0,0,1,.57-2,26.21,26.21,0,0,1,2.1-2.94S24.09,33.83,24.07,33.85Zm6.72,0s-.05,0,0,0a25,25,0,0,1,2.1,2.94,5.27,5.27,0,0,1,.57,2,15.35,15.35,0,0,0-.06,1.65.14.14,0,0,0,.23.06c.87-.79.33-2.67-.07-3.57A7.55,7.55,0,0,0,30.79,33.85ZM26,34.58a1.32,1.32,0,0,0-.86.23,6.64,6.64,0,0,0-1.4,1.3,6.33,6.33,0,0,0-1.13,1.72s0,0,0,0l0,0a2.63,2.63,0,0,0-.15,1.85A2,2,0,0,0,23.6,41a1.86,1.86,0,0,0,1.74-.21,2.85,2.85,0,0,0,.93-1.36,11.63,11.63,0,0,0,.5-1.84,5.58,5.58,0,0,0,.1-1.91,1.28,1.28,0,0,0-.58-1A1,1,0,0,0,26,34.58Zm3.16,0a.94.94,0,0,0-1.1.77,3.86,3.86,0,0,0,0,1.69,12.09,12.09,0,0,0,.45,2,3.82,3.82,0,0,0,.75,1.49,1.84,1.84,0,0,0,1.58.59A2,2,0,0,0,32.33,40a2.56,2.56,0,0,0,0-2.1s0,0,0,0,0,0,0,0a6.25,6.25,0,0,0-1-1.53,9.07,9.07,0,0,0-1.23-1.25A2,2,0,0,0,29.16,34.59Zm-.44,1a4.25,4.25,0,0,1,1.37,1.8c.28.71.62,2.32-.19,2.84l-.17-.14A2.9,2.9,0,0,1,29.16,39a13.6,13.6,0,0,1-.42-1.64,4.68,4.68,0,0,1-.08-1.49A2.27,2.27,0,0,1,28.72,35.57Zm-2.58,0a3.34,3.34,0,0,1,.05,1.3,10.73,10.73,0,0,1-.38,1.7A3.09,3.09,0,0,1,25,40.21c-.81-.52-.47-2.12-.2-2.84A4.34,4.34,0,0,1,26.14,35.57Zm3.57.1a9.46,9.46,0,0,1,1,1.06,5.51,5.51,0,0,1,.88,1.4,2.05,2.05,0,0,1,.14,1.42,1.32,1.32,0,0,1-.85.84,1.27,1.27,0,0,1-.75,0c.71-.35.77-1.6.64-2.31A4.81,4.81,0,0,0,29.71,35.67Zm-4.56,0a4.87,4.87,0,0,0-1.1,2.37c-.13.71-.07,2,.65,2.31a1.1,1.1,0,0,1-.41.07,1.25,1.25,0,0,1-1.13-.73,1.87,1.87,0,0,1,.06-1.55A7.21,7.21,0,0,1,25,35.8ZM2,35.82a.12.12,0,0,0-.1.09c-.5,4.43,5,7.39,8.8,6.19.08,0,.06-.14,0-.15-2-.18-4-.35-5.73-1.52a7.33,7.33,0,0,1-2.86-4.54C2.05,35.83,2,35.81,2,35.82Zm50.93,0a.08.08,0,0,0-.1.07,7.26,7.26,0,0,1-2.86,4.54c-1.7,1.17-3.73,1.34-5.73,1.52-.08,0-.1.13,0,.15,3.81,1.2,9.3-1.76,8.79-6.19A.11.11,0,0,0,52.9,35.82ZM19.69,38A7.5,7.5,0,0,1,15,39.79a8.16,8.16,0,0,1-2.5-.34c-.85-.24-1.6-.75-2.43-1a.29.29,0,0,0-.28.49,6,6,0,0,0,2.53,1.18,8.13,8.13,0,0,0,2.9.3,6.34,6.34,0,0,0,4.53-2.34A.06.06,0,1,0,19.69,38Zm15.4,0a.06.06,0,0,0,0,.08,6.38,6.38,0,0,0,4.53,2.34,8.42,8.42,0,0,0,2.91-.3,6,6,0,0,0,2.53-1.18.3.3,0,0,0-.29-.49c-.79.24-1.51.72-2.31,1a8.3,8.3,0,0,1-2.62.37A7.5,7.5,0,0,1,35.17,38,.05.05,0,0,0,35.09,38ZM26.7,39.92a3.3,3.3,0,0,1-1.3,1.37,3.34,3.34,0,0,1-2.16.16c-.22,0-.38.26-.16.38a2.58,2.58,0,0,0,3.69-1.89S26.71,39.89,26.7,39.92Zm1.47,0s-.08,0-.08,0a2.59,2.59,0,0,0,3.7,1.9c.21-.13.05-.42-.17-.38a3.33,3.33,0,0,1-2.16-.17A3.28,3.28,0,0,1,28.17,39.92Zm-6.84,2.27a1.25,1.25,0,0,0-.75.16.15.15,0,0,0,0,.28,10.51,10.51,0,0,1,1.35.21,9.29,9.29,0,0,1,1.39.66c.09,0,.19-.08.11-.15A4.57,4.57,0,0,0,21.33,42.19Zm12.2,0a4.61,4.61,0,0,0-2.14,1.16c-.08.07,0,.2.12.15a8.74,8.74,0,0,1,1.38-.66,10.39,10.39,0,0,1,1.36-.21.15.15,0,0,0,0-.28A1.24,1.24,0,0,0,33.53,42.19Zm-18.27.07a1.54,1.54,0,0,0-.3,0,.16.16,0,0,0,0,.31c.35.11.74.08,1.1.19a5.07,5.07,0,0,1,1.11.51,0,0,0,0,0,.06-.07A2.75,2.75,0,0,0,15.26,42.26Zm24.34,0a2.73,2.73,0,0,0-2,1,0,0,0,0,0,.06.07,4.86,4.86,0,0,1,1.11-.51c.36-.11.74-.08,1.1-.19a.16.16,0,0,0,0-.31A1.54,1.54,0,0,0,39.6,42.26Zm-20.28.17a1.47,1.47,0,0,0-.6.23c-.16.11-.39.24-.43.44a.16.16,0,0,0,.2.2c.19,0,.31-.23.46-.35l.22-.17a2.39,2.39,0,0,0,.23-.22C19.47,42.5,19.39,42.42,19.32,42.43Zm16.22,0c-.07,0-.15.08-.08.13l.21.21a2.15,2.15,0,0,1,.24.18c.15.12.27.31.46.35a.16.16,0,0,0,.2-.2c0-.2-.27-.33-.43-.44a1.82,1.82,0,0,0-.27-.15A1.32,1.32,0,0,0,35.54,42.43Zm-9.38.46a2.48,2.48,0,0,0-1.11.37c-.29.17-.74.42-.8.78a.14.14,0,0,0,.17.17c.33-.05.58-.41.84-.6s.63-.4.93-.63A0,0,0,0,0,26.16,42.89Zm2.53,0c-.05,0-.05.07,0,.09.3.23.63.41.93.63s.52.55.84.6a.14.14,0,0,0,.17-.17c-.05-.36-.51-.61-.8-.78A2.48,2.48,0,0,0,28.69,42.89Zm-8.1,1.17a5.31,5.31,0,0,0-.11,2.44.11.11,0,0,0,.2,0,18,18,0,0,0,.08-2.44h.15a4.11,4.11,0,0,1,2.51,1.23c0,.07,0,.14-.05.21s-.07.34-.1.51l-.33,1.37c-.28,1.08-.57,2.15-.88,3.23a1.48,1.48,0,0,1-.59.94,1.26,1.26,0,0,1-.51.19h-.21a1,1,0,0,1-.25,0,1.19,1.19,0,0,1-.47-.22,3.59,3.59,0,0,1-.55-.62,4.3,4.3,0,0,1-.81-1.52,17,17,0,0,1-.31-4,3,3,0,0,1,1.07-1.09A2.45,2.45,0,0,1,20.59,44.06Zm13.67,0a2.62,2.62,0,0,1,1.17.25,3,3,0,0,1,1.06,1.09,21.5,21.5,0,0,1-.18,3.5,4.5,4.5,0,0,1-.64,1.61,8.7,8.7,0,0,1-.6.76,1.4,1.4,0,0,1-.46.38,1.26,1.26,0,0,1-1,0,1.28,1.28,0,0,1-.71-.68,7.42,7.42,0,0,1-.22-.77l-.23-.8c-.15-.54-.29-1.09-.44-1.64s-.27-1.07-.39-1.61c-.05-.2-.09-.4-.13-.61a2,2,0,0,1-.05-.24v0A4,4,0,0,1,34,44.08h.15a17.84,17.84,0,0,0,.08,2.43c0,.1.17.09.2,0A5.33,5.33,0,0,0,34.26,44.06Zm-19.82,0a4.34,4.34,0,0,1,.51,0,3.31,3.31,0,0,0,.12,1.79c0,.05.1.05.1,0a8.59,8.59,0,0,1,.08-1,4.28,4.28,0,0,0,.07-.72l.13,0a4.6,4.6,0,0,1,2.2,1.08A19.73,19.73,0,0,1,17.09,48c-.14.52-.28,1-.44,1.54-.07.24-.14.48-.22.71a.78.78,0,0,1-.22.4.56.56,0,0,1-.82-.1,14.51,14.51,0,0,1-1-1.24A7.89,7.89,0,0,1,13.66,48a5.82,5.82,0,0,1-.34-1.44,11.65,11.65,0,0,1-.16-1.77A1.49,1.49,0,0,1,14.44,44.11Zm26,0a1.5,1.5,0,0,1,1.28.64c0,.47-.05.94-.1,1.41a10.72,10.72,0,0,1-.28,1.48,5.58,5.58,0,0,1-.65,1.29,14.27,14.27,0,0,1-1,1.34,1.85,1.85,0,0,1-.43.45.53.53,0,0,1-.39,0,.56.56,0,0,1-.35-.25,2.83,2.83,0,0,1-.21-.6c-.15-.5-.3-1-.44-1.5a22.8,22.8,0,0,1-.67-3.14,4.56,4.56,0,0,1,2.2-1.08l.13,0a3.45,3.45,0,0,0,.07.72,8.59,8.59,0,0,1,.08,1c0,.06.08.06.1,0a3.41,3.41,0,0,0,.12-1.79A4.3,4.3,0,0,1,40.42,44.11Zm-13.17.39a6.24,6.24,0,0,0-.07,1.37,5,5,0,0,0,.14,1.39.07.07,0,0,0,.11,0,.07.07,0,0,0,.11,0,5,5,0,0,0,.14-1.39,5.68,5.68,0,0,0-.06-1.37,5.46,5.46,0,0,1,1.82.36,4.9,4.9,0,0,1,1.28.72,22.72,22.72,0,0,1-.32,3.6,9.66,9.66,0,0,1-.57,1.92,3.14,3.14,0,0,1-.93,1.39,2.42,2.42,0,0,1-2.64.2,2.48,2.48,0,0,1-1-1.14,9.35,9.35,0,0,1-.66-1.86,20.93,20.93,0,0,1-.44-4.11A5.42,5.42,0,0,1,27.25,44.5Zm-13.5.19a.07.07,0,0,0-.08.08,2.65,2.65,0,0,0,.19,1.37s.07,0,.07,0a4.8,4.8,0,0,0-.09-1.36A.09.09,0,0,0,13.75,44.69Zm27.36,0a.09.09,0,0,0-.09.08,4.8,4.8,0,0,0-.09,1.36s.06,0,.07,0a2.65,2.65,0,0,0,.19-1.37A.07.07,0,0,0,41.11,44.69ZM19,45.27s0,0,0,0a3.89,3.89,0,0,0-.13,1.76,3.44,3.44,0,0,0,.31,1.53c0,.06.11,0,.12,0A15.16,15.16,0,0,0,19,47c0-.55,0-1.09,0-1.63C19,45.29,19,45.28,19,45.27Zm16.92,0a.08.08,0,0,0,0,0c0,.54,0,1.08,0,1.63a13,13,0,0,0-.22,1.61c0,.07.09.09.12,0a3.44,3.44,0,0,0,.31-1.53,4,4,0,0,0-.12-1.76A.05.05,0,0,0,35.89,45.27Zm-19,0a.08.08,0,0,0-.07,0c-.07.24-.11.48-.17.73a.8.8,0,0,0,0,.55.09.09,0,0,0,.14,0A.68.68,0,0,0,17,46.1a2.22,2.22,0,0,0,0-.77A.08.08,0,0,0,16.86,45.28Zm21.14,0a.08.08,0,0,0-.07,0,2.84,2.84,0,0,0,0,.77.72.72,0,0,0,.2.55.1.1,0,0,0,.15,0,.8.8,0,0,0,0-.55,6,6,0,0,0-.17-.73A.08.08,0,0,0,38,45.28Zm-15.53.11s0,0-.06,0c-.05.41-.16.81-.22,1.23a2.89,2.89,0,0,0-.07,1.09.1.1,0,0,0,.16,0,1.64,1.64,0,0,0,.3-.94,5.51,5.51,0,0,0,.06-.7,5.52,5.52,0,0,0-.11-.71S22.5,45.4,22.47,45.39Zm9.92,0a.09.09,0,0,0-.06.06,5.52,5.52,0,0,0-.11.71,5.51,5.51,0,0,0,.06.7,1.63,1.63,0,0,0,.31.94c0,.05.13,0,.15,0a2.7,2.7,0,0,0-.07-1.09c-.06-.42-.17-.82-.22-1.23C32.44,45.39,32.42,45.38,32.39,45.39Zm-7.33.51a.12.12,0,0,0-.12.08,5.57,5.57,0,0,0-.13,1.41c0,.36-.06.81.21,1.08a.12.12,0,0,0,.18,0c.19-.32.06-.71,0-1.06s0-.93-.07-1.38A.13.13,0,0,0,25.06,45.9Zm4.74,0a.14.14,0,0,0-.1.11c0,.45,0,.92-.07,1.38s-.16.74,0,1.06a.11.11,0,0,0,.17,0c.27-.27.22-.72.22-1.08A5.15,5.15,0,0,0,29.92,46,.12.12,0,0,0,29.8,45.9ZM14,46.94s-.06,0-.06,0a3.69,3.69,0,0,0,1,2.52.12.12,0,0,0,.18-.14c-.17-.4-.47-.76-.67-1.16S14.22,47.35,14,46.94Zm26.8,0c-.18.41-.28.84-.48,1.24s-.5.76-.67,1.16a.12.12,0,0,0,.18.14,3.74,3.74,0,0,0,1-2.52S40.84,46.91,40.83,46.94ZM16.65,48.06s-.11.07-.11.07-.14.74-.25,1.11a1.92,1.92,0,0,0-.21.87c0,.07.1.08.14,0a1.48,1.48,0,0,0,.33-.84c.08-.37.14-.75.19-1.12A.11.11,0,0,0,16.65,48.06Zm21.71-.4a.11.11,0,0,0-.09.13c0,.38.11.75.19,1.12a1.46,1.46,0,0,0,.33.84.08.08,0,0,0,.14,0,2.06,2.06,0,0,0-.21-.87,8.13,8.13,0,0,1-.25-1.11A.08.08,0,0,0,38.36,47.66ZM22,48.87a.08.08,0,0,0-.1.06,4.07,4.07,0,0,1-.33,1.13c-.16.33-.4.6-.56.92,0,.1.06.24.17.17a2.83,2.83,0,0,0,.9-2.19A.1.1,0,0,0,22,48.87Zm10.8,0a.1.1,0,0,0-.08.09,2.83,2.83,0,0,0,.9,2.19c.11.07.22-.07.17-.17-.16-.33-.41-.59-.56-.92a4.07,4.07,0,0,1-.33-1.13A.08.08,0,0,0,32.83,48.87Zm-7.56.53s-.06,0-.06,0c0,1,.39,2.61,1.48,3a.14.14,0,0,0,.16-.2c-.26-.44-.63-.79-.87-1.26S25.53,49.91,25.27,49.4Zm4.32,0c-.25.51-.46,1.05-.71,1.56s-.61.82-.87,1.27c-.05.09,0,.24.16.2,1.1-.4,1.45-2,1.48-3C29.65,49.39,29.6,49.37,29.59,49.4Zm-10.24.28a.07.07,0,0,0,0,.08.73.73,0,0,1,.1.28.66.66,0,0,0,.12.27c.11.14.23.36.42.38s.15,0,.15-.11-.15-.33-.26-.47a.77.77,0,0,0-.17-.19.68.68,0,0,1-.26-.22A.05.05,0,0,0,19.35,49.68Zm16.17,0a.05.05,0,0,0-.08,0,.77.77,0,0,1-.23.21.76.76,0,0,0-.2.2c-.11.14-.27.28-.26.47a.12.12,0,0,0,.15.12c.2,0,.32-.24.42-.39a.72.72,0,0,0,.12-.25.8.8,0,0,1,.09-.3A0,0,0,0,0,35.52,49.69Z"/></g></g></g></svg>