<svg xmlns="http://www.w3.org/2000/svg" xmlns:xlink="http://www.w3.org/1999/xlink" viewBox="0 0 52.33 57.31"><defs><style>.a1c24bde-03a1-4e4f-8ecc-3e5c4776f8bf{fill:url(#e095ce53-8bf7-4c2d-bbc7-a29dbe2d9c0f);}.a8c15272-ef7d-4eb9-96c9-af6866259793{fill:url(#bcbaa83f-091f-4be5-974a-997e7ba0652a);}.abab1637-9226-4354-a64e-2d900a8e2d1f{fill:url(#f052f947-6ece-4417-8213-877401ba2cac);}.a771a4b8-6383-4402-815d-248c81afc1bd{fill:url(#be339789-1042-4ff7-bf5b-00af7527bacd);}.aa55430e-286b-464c-8a1b-bddd4835c7f0{fill:url(#b5174538-8fa2-4756-96f4-38511c7d6d73);}.aa7b0919-a8dc-44bb-adef-883cec071b8f{fill:url(#e2a34b58-d9b5-4478-b94a-fcbdade524e6);}.a340929a-955c-4872-b9ae-883c619aa2e6{fill:url(#ae9e6e2f-a788-4e9b-aa00-87df2dec1a46);}.b8666d2a-fdb6-47b9-99d1-b92c6406c879{fill:url(#b5833325-a981-4172-9d50-694afefd09f7);}.e5f8a164-3f05-4f79-97c5-5c629169ef86{fill:url(#e68dc046-7287-48ce-9806-917a3e03c92e);}.b1201238-77d2-47b6-8956-ca8c04ae6277{fill:url(#f71b1ec7-e92a-4f53-bd14-4d8dff8fdf34);}.b2736d77-6bd8-41cf-9a2e-d7761a5a501b{fill:url(#e03fabc4-81f4-4f4b-893b-a86d846f6083);}.bb21f939-c497-411f-9ecc-432f7715dbed{fill:url(#b042dc73-70b1-46ed-9cf1-87111e0f01d3);}.a5518bfc-a75b-40c3-b91e-ffb97a11182a{fill:url(#fa4058f7-3c13-40ec-a840-2136cc7fdb92);}.e0c6a26d-8a01-465e-b998-ce794c81b203{fill:url(#a588f2f2-a1bb-4cbb-a150-7ee68d8b1be0);}.bed8b407-a770-4a65-b65d-847c6ee5c7f8{fill:#77b043;}.ac92a799-938b-4374-be08-bcfaef1f558b{fill:#f1f2f2;}.a95ebbe5-83f1-4888-b0c5-262c2f585f1b{fill:url(#ec40ff52-012c-4bf1-90f0-c5a2ec9b26e4);}.b5e38dad-2bce-42b1-993b-7da6d5ec4d42{fill:url(#b2305ff9-5ca9-48de-adf3-cd115f40b130);}.e4359ac9-144c-40bb-a71f-b6bd8745f8dc{fill:url(#ad01aec3-8853-4762-b0a4-b1bc38c3b23f);}.be2edd77-7827-431a-a2da-df236fd18878{fill:url(#af0e4f3c-fd33-4647-baef-e63714cbf2b4);}.a56df28b-33f0-4d65-9542-fc7b36a25cf5{fill:#301b02;}</style><linearGradient id="e095ce53-8bf7-4c2d-bbc7-a29dbe2d9c0f" x1="-957.23" y1="534.95" x2="-952.1" y2="534.95" gradientTransform="matrix(1.67, 0, 0, -1.67, 1605.27, 937.71)" gradientUnits="userSpaceOnUse"><stop offset="0.04" stop-color="#ff4b2b"/><stop offset="1" stop-color="#ff8300"/></linearGradient><linearGradient id="bcbaa83f-091f-4be5-974a-997e7ba0652a" x1="-956.5" y1="542.85" x2="-954.6" y2="542.85" xlink:href="#e095ce53-8bf7-4c2d-bbc7-a29dbe2d9c0f"/><linearGradient id="f052f947-6ece-4417-8213-877401ba2cac" x1="-947.37" y1="540.56" x2="-943.08" y2="540.56" xlink:href="#e095ce53-8bf7-4c2d-bbc7-a29dbe2d9c0f"/><linearGradient id="be339789-1042-4ff7-bf5b-00af7527bacd" x1="-941.82" y1="541.31" x2="-932.14" y2="541.31" xlink:href="#e095ce53-8bf7-4c2d-bbc7-a29dbe2d9c0f"/><linearGradient id="b5174538-8fa2-4756-96f4-38511c7d6d73" x1="-943.84" y1="532.04" x2="-937.8" y2="532.04" xlink:href="#e095ce53-8bf7-4c2d-bbc7-a29dbe2d9c0f"/><linearGradient id="e2a34b58-d9b5-4478-b94a-fcbdade524e6" x1="-962.79" y1="541.31" x2="-953.11" y2="541.31" xlink:href="#e095ce53-8bf7-4c2d-bbc7-a29dbe2d9c0f"/><linearGradient id="ae9e6e2f-a788-4e9b-aa00-87df2dec1a46" x1="-957.13" y1="532.04" x2="-951.09" y2="532.04" xlink:href="#e095ce53-8bf7-4c2d-bbc7-a29dbe2d9c0f"/><linearGradient id="b5833325-a981-4172-9d50-694afefd09f7" x1="-951.9" y1="540.53" x2="-950.17" y2="540.53" xlink:href="#e095ce53-8bf7-4c2d-bbc7-a29dbe2d9c0f"/><linearGradient id="e68dc046-7287-48ce-9806-917a3e03c92e" x1="-956.24" y1="547.64" x2="-949.1" y2="547.64" xlink:href="#e095ce53-8bf7-4c2d-bbc7-a29dbe2d9c0f"/><linearGradient id="f71b1ec7-e92a-4f53-bd14-4d8dff8fdf34" x1="-946.04" y1="533.22" x2="-946.04" y2="533.22" xlink:href="#e095ce53-8bf7-4c2d-bbc7-a29dbe2d9c0f"/><linearGradient id="e03fabc4-81f4-4f4b-893b-a86d846f6083" x1="-948.98" y1="533.26" x2="-948.95" y2="533.26" xlink:href="#e095ce53-8bf7-4c2d-bbc7-a29dbe2d9c0f"/><linearGradient id="b042dc73-70b1-46ed-9cf1-87111e0f01d3" x1="-951.86" y1="540.56" x2="-947.56" y2="540.56" xlink:href="#e095ce53-8bf7-4c2d-bbc7-a29dbe2d9c0f"/><linearGradient id="fa4058f7-3c13-40ec-a840-2136cc7fdb92" x1="-954.45" y1="541.88" x2="-952.19" y2="541.88" xlink:href="#e095ce53-8bf7-4c2d-bbc7-a29dbe2d9c0f"/><linearGradient id="a588f2f2-a1bb-4cbb-a150-7ee68d8b1be0" x1="-944.76" y1="540.53" x2="-943.03" y2="540.53" xlink:href="#e095ce53-8bf7-4c2d-bbc7-a29dbe2d9c0f"/><linearGradient id="ec40ff52-012c-4bf1-90f0-c5a2ec9b26e4" x1="-942.74" y1="541.88" x2="-940.48" y2="541.88" xlink:href="#e095ce53-8bf7-4c2d-bbc7-a29dbe2d9c0f"/><linearGradient id="b2305ff9-5ca9-48de-adf3-cd115f40b130" x1="-940.34" y1="542.85" x2="-938.43" y2="542.85" xlink:href="#e095ce53-8bf7-4c2d-bbc7-a29dbe2d9c0f"/><linearGradient id="ad01aec3-8853-4762-b0a4-b1bc38c3b23f" x1="-945.83" y1="547.64" x2="-938.69" y2="547.64" xlink:href="#e095ce53-8bf7-4c2d-bbc7-a29dbe2d9c0f"/><linearGradient id="af0e4f3c-fd33-4647-baef-e63714cbf2b4" x1="-942.83" y1="534.95" x2="-937.71" y2="534.95" xlink:href="#e095ce53-8bf7-4c2d-bbc7-a29dbe2d9c0f"/></defs><g id="b64da0e3-2673-4fe4-9228-20317f80ea9b" data-name="Layer 2"><g id="bb022464-1ecd-4876-8c4e-8051aa1f9521" data-name="Layer 1"><g id="e1b3a890-b9de-4df8-a1b8-5d3251da81e0" data-name="Untitled"><path class="a1c24bde-03a1-4e4f-8ecc-3e5c4776f8bf" d="M12.81,46.22a9.8,9.8,0,0,1-2.92-.74c0,.48,0,1,.09,1.43.22.09.45.18.68.25a8.79,8.79,0,0,0,3.53.36,9.49,9.49,0,0,0,4.25-1.61c-.05-.41-.1-.82-.14-1.23l-.05,0A9.09,9.09,0,0,1,12.81,46.22Z"/><path class="a8c15272-ef7d-4eb9-96c9-af6866259793" d="M11.38,31.54c-.1.55-.19,1.11-.28,1.66,1,.35,2,.74,3,1.17a5.85,5.85,0,0,1,.14-1.71A24.81,24.81,0,0,0,11.38,31.54Z"/><path class="abab1637-9226-4354-a64e-2d900a8e2d1f" d="M31.85,44.4c-.05-.07.06-.15.11-.09a11.46,11.46,0,0,0,1.38,1.22c0-.36.07-.73.1-1.09a.81.81,0,0,1,0-.11l0,0a14.07,14.07,0,0,1-4.23-4.39.3.3,0,0,1,0-.34h0l.08-.08,1.09-.79a4.94,4.94,0,0,1-.19-1.23l-.68.44a.12.12,0,0,1-.15-.19c.27-.3.55-.58.84-.85a11.52,11.52,0,0,1,.18-1.38s.06,0,.07,0c0,.34.07.69.12,1,.73-.63,1.51-1.2,2.3-1.76l.48-.32A59,59,0,0,0,28.75,17a.11.11,0,0,1,0-.13l-1.08.24A9.5,9.5,0,0,1,28.36,19a8.31,8.31,0,0,1,.46,2.19c0,.11-.18.18-.23.06a14,14,0,0,1-.53-2.05c-.18-.67-.42-1.34-.55-2l-1.19.28c.32,3.94.18,8,.18,11.9s0,8.06,0,12.08a22.89,22.89,0,0,1,2.13,1.93,24.21,24.21,0,0,1,1.7,1.95,7.94,7.94,0,0,1,1.37,2.24c.12.35.32,1-.1,1.19a1.15,1.15,0,0,1-.71,0,2.39,2.39,0,0,1-.51-.13,4.3,4.3,0,0,1-1.27-.79l.06.55c0,.42.13,1-.42,1.16a.74.74,0,0,1-.59-.23A3.81,3.81,0,0,1,27.7,49c-.17-.18-.34-.37-.5-.57v0c-.1.26-.18.51-.27.77s-.17.5-.27.75a1.78,1.78,0,0,1-.21.44c0,2.08,0,4.17-.08,6.24a1.45,1.45,0,0,0,.25-.09,4,4,0,0,0,.53-.22c.3-.15.59-.32.88-.5a10,10,0,0,1,1.33-.71,3.4,3.4,0,0,1,0-1.42c.07-.69.17-1.38.26-2.06,0-.08.12,0,.13,0a17.52,17.52,0,0,1,.07,2.29,4.67,4.67,0,0,1-.06,1,8.89,8.89,0,0,1,.88-.26c.29-.07.59-.1.87-.19l.06,0a.09.09,0,0,1,0-.05,53.36,53.36,0,0,0,1.65-8.31A7.83,7.83,0,0,1,31.85,44.4ZM29.12,23.94c.28,1.52.56,3,.71,4.56.09.81.15,1.61.19,2.41a6.3,6.3,0,0,1,0,2.21.12.12,0,0,1-.23,0,7.38,7.38,0,0,1-.15-2.21c0-.72-.06-1.44-.11-2.16-.11-1.59-.22-3.21-.45-4.78C29,23.92,29.11,23.9,29.12,23.94ZM29,50.83a1.65,1.65,0,0,1-.93.12c-.39-.05-.91-.48-1.11.14,0,.07-.15.08-.16,0a.67.67,0,0,1,.66-.84c.48,0,.84.31,1.32,0s.41-.6.71-.86a.21.21,0,0,1,.34.09C30.07,50.05,29.47,50.63,29,50.83Zm3.27-1.45a1.64,1.64,0,0,1-2.28.15c-.07-.05,0-.19.08-.18a2.63,2.63,0,0,0,1.42,0,1.56,1.56,0,0,0,.76-1.12c.21-1.11-.71-2.2-1.34-3s-1.28-1.54-2-2.28c-.33-.36-.65-.71-1-1.06a4.52,4.52,0,0,1-.88-1c0-.06,0-.17.1-.14a4.63,4.63,0,0,1,1.31,1.07c.5.49,1,1,1.43,1.51s.67.75,1,1.15l0-.38a10.28,10.28,0,0,1,.13-1.35c0-.07.13-.07.15,0a6.88,6.88,0,0,1,.14,1.35,2.39,2.39,0,0,1-.06.85,9,9,0,0,1,1,1.5A2.77,2.77,0,0,1,32.3,49.38Z"/><path class="a771a4b8-6383-4402-815d-248c81afc1bd" d="M48.27,23.75a26.82,26.82,0,0,0-2-3.34c-.39-.55-.79-1.07-1.22-1.58a13.52,13.52,0,0,0-1.3-1.42,2.37,2.37,0,0,0-.84-.42A25.9,25.9,0,0,1,45,19.59a23,23,0,0,1,2.27,3.78,26.41,26.41,0,0,1,1.57,3.95,14.06,14.06,0,0,1,1,4.22c0,.07-.09.08-.12,0a17.49,17.49,0,0,1-.53-2.19c-.17-.66-.35-1.32-.58-2a30.81,30.81,0,0,0-1.74-4,38.61,38.61,0,0,0-2.17-3.6c-.71-1.08-1.6-2-2.39-3l-.59-.2c-.41-.12-.83-.22-1.25-.31a13.36,13.36,0,0,1,3.38,3.87,37,37,0,0,1,2.89,5.41A34.87,34.87,0,0,1,49.6,37.29a.21.21,0,0,1,0,.08.19.19,0,0,1-.13.19.88.88,0,0,0-.42.31.19.19,0,0,1-.15.08.15.15,0,0,1-.11,0,.18.18,0,0,1,0-.26,1.42,1.42,0,0,1,.36-.33v0a35,35,0,0,0-2.67-11.38,38.87,38.87,0,0,0-2.65-5.23,13.73,13.73,0,0,0-3.58-4.48l-.6-.11a19.39,19.39,0,0,0-4-.19,31.87,31.87,0,0,1,4.08,8.22,47,47,0,0,1,1.76,6.45,13.47,13.47,0,0,1,2-.44,3.81,3.81,0,0,1,2.12.13.31.31,0,0,1-.07.55c-.8.12-1.6,0-2.41.18-.5.1-1,.23-1.47.37.1.54.19,1.09.28,1.64a44.94,44.94,0,0,1,4.52-1.2.33.33,0,0,1,.39.22c.09.31.18.62.26.92a18.83,18.83,0,0,1,.64,3.33,11.73,11.73,0,0,1-.13,3.45,8.05,8.05,0,0,1-3.23,4.71,8.75,8.75,0,0,1-1.28.78c0,.48,0,1-.07,1.44l.59-.32a4.48,4.48,0,0,1,1.37-.75c.12,0,.28.08.23.22a3.88,3.88,0,0,1-2.26,1.69c0,.6-.12,1.19-.2,1.79a27.62,27.62,0,0,1-.56,3.23l.12-.12a6.83,6.83,0,0,1,.79-.73,1.19,1.19,0,0,1,.91-.22,1.18,1.18,0,0,1,.33.12,21.49,21.49,0,0,0,1.14-4.1c0-.11.18-.12.18,0a10.55,10.55,0,0,1-.89,4.39l0,0a7,7,0,0,1,1,.92,32,32,0,0,0,3.55-13.28.24.24,0,0,1,0-.08.17.17,0,0,1,0-.14.2.2,0,0,1,.24-.13.75.75,0,0,0,.26,0h0a.78.78,0,0,0,.26,0,.18.18,0,0,1,.23.12.18.18,0,0,1-.12.24,1.09,1.09,0,0,1-.36.06,33.64,33.64,0,0,1-3.69,13.65c.32.4.62.83.92,1.25.31-.6.67-1.17,1-1.77a19.49,19.49,0,0,0,1-2.46c0-.06.13-.06.12,0a10.56,10.56,0,0,1-1.82,4.62c.08.1.18.21.25.31l.11-.1a9.73,9.73,0,0,0,.69-.75,9.34,9.34,0,0,0,1.05-1.64,16,16,0,0,0,1.4-4.09,44.61,44.61,0,0,0,.66-4.45,47.32,47.32,0,0,0,.29-4.76,37.74,37.74,0,0,0-.86-8.28A31.44,31.44,0,0,0,48.27,23.75Zm-5,1.57A14.13,14.13,0,0,1,42.23,23c-.36-.76-.75-1.52-1.14-2.27-.78-1.51-1.63-3-2.41-4.48,0-.05,0-.11.08-.07a24.68,24.68,0,0,1,2.79,4.41c.41.79.77,1.6,1.12,2.42a8.33,8.33,0,0,1,.82,2.23C43.51,25.38,43.35,25.39,43.29,25.32Zm1.81,4a.09.09,0,0,1-.12,0c-.33-.24-.35-.73-.46-1.1-.17-.54-.36-1.07-.52-1.61,0-.07.07-.1.11,0A7.12,7.12,0,0,1,44.84,28C45,28.42,45.28,28.88,45.1,29.29Zm3.28,12.05A5.36,5.36,0,0,1,46,45a.18.18,0,0,1-.25-.24c.72-1.21,1.81-2.07,2.23-3.47A.19.19,0,0,1,48.38,41.34Z"/><path class="aa55430e-286b-464c-8a1b-bddd4835c7f0" d="M42.27,47.7l-.23.08a10.09,10.09,0,0,1-1.23.32c0,.11,0,.22,0,.33a7.18,7.18,0,0,1,0,1,.06.06,0,1,1-.11,0c0-.32,0-.65-.06-1,0-.12,0-.24-.05-.35A9.24,9.24,0,0,1,38,48.2a9.05,9.05,0,0,1-2-.47,5.42,5.42,0,0,1-.29,1c-.15.48-.38.93-.53,1.41,0,0-.08,0-.07,0,.13-.48.16-1,.27-1.48a5.11,5.11,0,0,1,.27-1,8.17,8.17,0,0,1-1.87-1.05,52.36,52.36,0,0,1-1.59,7.62,6.4,6.4,0,0,0,.85-.69l.69-.65a3.94,3.94,0,0,1,.62-.53.68.68,0,0,1,.85.09c.32.24.62.51.93.76l1.35,1.13a24.49,24.49,0,0,0,.9-4.54,0,0,0,1,1,0,0,16.89,16.89,0,0,1-.55,4.85h0l.08.06.55.46a1.88,1.88,0,0,0,.36.27c.3.14.61-.29.8-.48l1.67-1.65h0a22.22,22.22,0,0,0,.77-4.14C42.18,48.63,42.23,48.17,42.27,47.7Z"/><path class="aa7b0919-a8dc-44bb-adef-883cec071b8f" d="M9.46,47.49A3.88,3.88,0,0,1,7.2,45.8c0-.14.1-.25.22-.23a5.17,5.17,0,0,1,1.47.81l.5.27c0-.48-.06-1-.07-1.44A9.67,9.67,0,0,1,7.46,44a7.75,7.75,0,0,1-2.77-5.06A17.61,17.61,0,0,1,5.58,32,.32.32,0,0,1,6,31.8c1.35.28,2.68.62,4,1l.52.17c.09-.55.18-1.1.28-1.65-.52-.15-1-.28-1.58-.38-.77-.15-1.53,0-2.29-.17a.3.3,0,0,1-.08-.55,3.81,3.81,0,0,1,2.12-.12,13.47,13.47,0,0,1,2,.44,46.6,46.6,0,0,1,1.76-6.45,31.93,31.93,0,0,1,4.08-8.23,19.48,19.48,0,0,0-3.89.18c-.25,0-.5.08-.74.13a13.8,13.8,0,0,0-3.58,4.47A40.1,40.1,0,0,0,5.9,25.9,35,35,0,0,0,3.23,37.29v0a1.42,1.42,0,0,1,.36.33.19.19,0,0,1,0,.26.19.19,0,0,1-.11,0,.21.21,0,0,1-.16-.08.88.88,0,0,0-.42-.31.18.18,0,0,1-.12-.19.19.19,0,0,1,0-.08A35.05,35.05,0,0,1,5.59,25.54a37,37,0,0,1,2.89-5.41,13.53,13.53,0,0,1,3.38-3.88c-.36.08-.72.17-1.07.27s-.52.16-.77.25c-.79,1-1.67,1.94-2.39,3a38.61,38.61,0,0,0-2.17,3.6,32.24,32.24,0,0,0-1.74,4,21.28,21.28,0,0,0-.6,2.07,16.75,16.75,0,0,1-.51,2.09.06.06,0,0,1-.12,0,14,14,0,0,1,1-4.21A26.41,26.41,0,0,1,5,23.37a23,23,0,0,1,2.27-3.78A26,26,0,0,1,9.41,17a4.05,4.05,0,0,0-.7.32A4.39,4.39,0,0,0,8,18c-.21.23-.41.45-.61.69-.43.5-.84,1-1.23,1.57A30.81,30.81,0,0,0,.86,34.81,41.26,41.26,0,0,0,.89,44c.32,2.91.66,5.93,2,8.58a11.79,11.79,0,0,0,1,1.66,9.49,9.49,0,0,0,.73.82l.15.14,0,0L5,55l0-.07a10.73,10.73,0,0,1-1.82-4.62c0-.07.1-.08.13,0a18.18,18.18,0,0,0,1,2.47c.31.6.67,1.17,1,1.77.29-.43.59-.85.91-1.26A33.59,33.59,0,0,1,2.58,39.58a1.15,1.15,0,0,1-.37-.06.19.19,0,0,1,.12-.36.84.84,0,0,0,.52,0,.18.18,0,0,1,.23.12.61.61,0,0,0,0,.23A32.16,32.16,0,0,0,6.63,52.79,6.67,6.67,0,0,1,7.48,52l.16-.12a10.32,10.32,0,0,1-.89-4.38c0-.12.16-.11.18,0a20.88,20.88,0,0,0,1.14,4.11,1.14,1.14,0,0,1,1.13,0,4.44,4.44,0,0,1,.83.73l.18.18a29.44,29.44,0,0,1-.55-3.23C9.58,48.68,9.51,48.09,9.46,47.49ZM9.65,23c.35-.82.71-1.63,1.11-2.42a24.85,24.85,0,0,1,2.8-4.4c0-.05.1,0,.08.06-.78,1.5-1.63,3-2.41,4.48-.39.75-.78,1.51-1.14,2.27A13.38,13.38,0,0,1,9,25.32c0,.07-.21.06-.19-.05A8.27,8.27,0,0,1,9.65,23ZM7.48,28a7.12,7.12,0,0,1,.73-1.46c0-.06.13,0,.11,0-.16.54-.35,1.07-.52,1.6-.11.38-.13.87-.46,1.11a.09.09,0,0,1-.12,0C7,28.88,7.32,28.42,7.48,28ZM6.29,45a5.41,5.41,0,0,1-2.35-3.62.19.19,0,0,1,.37-.1c.42,1.4,1.51,2.26,2.22,3.47A.18.18,0,0,1,6.29,45Z"/><path class="a340929a-955c-4872-b9ae-883c619aa2e6" d="M16.65,47.59a5,5,0,0,1,.27,1c.11.5.14,1,.27,1.49,0,0-.06.07-.07,0-.15-.48-.38-.93-.53-1.41a5.42,5.42,0,0,1-.29-1,9.05,9.05,0,0,1-2,.47,8.86,8.86,0,0,1-2.52-.06c0,.12,0,.24,0,.36,0,.32-.05.65-.06,1a.06.06,0,1,1-.11,0,7.18,7.18,0,0,1-.05-1c0-.11,0-.22,0-.33a10.09,10.09,0,0,1-1.23-.32l-.23-.08c0,.47.09.93.15,1.4A22.53,22.53,0,0,0,11,53.24h0l1.56,1.54c.19.19.53.67.84.62a1,1,0,0,0,.35-.24l.48-.39a2.11,2.11,0,0,1,.23-.19h0a17,17,0,0,1-.55-4.86s0,0,0,0a24.17,24.17,0,0,0,.9,4.54l1.23-1,1-.82a.77.77,0,0,1,.77-.21,2.38,2.38,0,0,1,.71.56l.69.64a8.13,8.13,0,0,0,.9.75,55,55,0,0,1-1.59-7.63A8.21,8.21,0,0,1,16.65,47.59Z"/><path class="b8666d2a-fdb6-47b9-99d1-b92c6406c879" d="M18.88,35.23c0,.48-.08,1-.11,1.45.94.55,1.86,1.12,2.75,1.74,0-.42.07-.84.13-1.27-.83-.57-1.64-1.17-2.47-1.73Z"/><path class="e5f8a164-3f05-4f79-97c5-5c629169ef86" d="M23.43,16.88l-1.67-.34-1.44-.26a52.79,52.79,0,0,0-2.58,5.62C17,23.81,16.55,25.79,16,27.74c0,.07-.15.06-.14,0a24.71,24.71,0,0,1,1.5-6,29.62,29.62,0,0,1,2.6-5.45A28.15,28.15,0,0,0,17,15.91s0,0,0,.06a49.83,49.83,0,0,0-3.87,8.51,53.52,53.52,0,0,0-1.61,6.28,26.26,26.26,0,0,1,2.94,1.14c.13-.46.29-.9.44-1.31,0-.05.1,0,.09,0A13,13,0,0,0,14.72,32l.77.37a29.37,29.37,0,0,1,2.87,1.67,48.32,48.32,0,0,1,5-17.13A.12.12,0,0,1,23.43,16.88Z"/><path class="b1201238-77d2-47b6-8956-ca8c04ae6277" d="M28.54,49h0Z"/><path class="b2736d77-6bd8-41cf-9a2e-d7761a5a501b" d="M23.64,49l0,0S23.64,48.93,23.64,49Z"/><path class="bb21f939-c497-411f-9ecc-432f7715dbed" d="M25.66,50c-.09-.25-.18-.49-.26-.74s-.18-.52-.28-.78h0c-.17.19-.34.39-.52.58a2.71,2.71,0,0,1-.41.35.74.74,0,0,1-.59.23c-.56-.11-.45-.76-.42-1.18l.06-.52a3.91,3.91,0,0,1-1.55.87c-.34.09-.93.2-1.14-.19a1.17,1.17,0,0,1,0-.74,3.49,3.49,0,0,1,.2-.57,9.89,9.89,0,0,1,1.46-2.18,23,23,0,0,1,3.62-3.62c0-4,0-8.05,0-12.08s-.14-8,.18-11.9l-1.19-.28c-.13.69-.37,1.36-.55,2a14,14,0,0,1-.53,2.05c-.05.12-.23.05-.23-.06A8.22,8.22,0,0,1,24,19a10.45,10.45,0,0,1,.65-1.88l-1.08-.24a.1.1,0,0,1,0,.13A59.3,59.3,0,0,0,19,34.45l.48.32c.79.56,1.57,1.13,2.3,1.76q.07-.53.12-1.05s.06,0,.07,0a9.82,9.82,0,0,1,.17,1.38c.3.27.58.55.85.84a.13.13,0,0,1-.15.2l-.69-.44a4.57,4.57,0,0,1-.18,1.23l1.09.79.09.09a.29.29,0,0,1,0,.27l0,.06c-.12.2-.25.4-.38.6a14.28,14.28,0,0,1-3.89,3.82l0,.11c0,.37.06.73.1,1.1a12.3,12.3,0,0,0,1.37-1.22c.06-.06.17,0,.12.09A7.82,7.82,0,0,1,19,46.1a52.47,52.47,0,0,0,1.66,8.31.09.09,0,0,1,0,.05c.27.09.56.12.84.19a7.11,7.11,0,0,1,.93.27h0a4.67,4.67,0,0,1-.06-1,17.52,17.52,0,0,1,.07-2.29c0-.06.11-.09.12,0,.1.69.2,1.38.27,2.07a3.4,3.4,0,0,1,0,1.42,7.82,7.82,0,0,1,1.18.62c.31.19.62.39,1,.55a3.14,3.14,0,0,0,.53.23l.33.13c-.1-2.08-.07-4.17-.08-6.25A1.88,1.88,0,0,1,25.66,50ZM22.82,28.74c-.05.77-.09,1.53-.12,2.29a7.27,7.27,0,0,1-.14,2.09.12.12,0,0,1-.23,0,6.51,6.51,0,0,1,0-2.33c0-.76.1-1.52.18-2.29.15-1.54.43-3,.71-4.56,0,0,.08,0,.07,0C23,25.54,22.93,27.16,22.82,28.74ZM22.3,49.53a1.63,1.63,0,0,1-2.3-.18,2.82,2.82,0,0,1,0-3,9,9,0,0,1,1-1.49,2.2,2.2,0,0,1-.06-.85,6.13,6.13,0,0,1,.14-1.35c0-.07.13-.07.15,0a10.28,10.28,0,0,1,.13,1.35c0,.12,0,.25,0,.37.35-.42.71-.82,1.06-1.22s.94-1,1.44-1.5a4.11,4.11,0,0,1,1.24-1c.08,0,.13.08.1.14a4.33,4.33,0,0,1-.89,1l-1,1.06c-.68.74-1.35,1.49-2,2.28s-1.55,1.9-1.34,3a1.55,1.55,0,0,0,.75,1.12,2.67,2.67,0,0,0,1.43,0C22.31,49.34,22.37,49.48,22.3,49.53Zm3.19,1.56c0,.08-.14.07-.16,0-.2-.62-.72-.19-1.12-.14a1.62,1.62,0,0,1-.92-.12c-.44-.2-1-.78-.83-1.31a.21.21,0,0,1,.34-.09c.3.26.33.65.71.86s.82,0,1.32,0A.67.67,0,0,1,25.49,51.09Z"/><path class="a5518bfc-a75b-40c3-b91e-ffb97a11182a" d="M18.29,34.85c-.92-.58-1.85-1.12-2.81-1.61-.29-.15-.57-.29-.86-.42h0c-.06.57,0,1.15-.11,1.71.77.34,1.53.69,2.27,1.07.47.24.93.49,1.39.75Q18.21,35.6,18.29,34.85Z"/><path class="e0c6a26d-8a01-465e-b998-ce794c81b203" d="M33.55,36.68c0-.48-.07-1-.11-1.45l-.39.25c-.8.54-1.58,1.12-2.38,1.67.06.43.11.85.13,1.27.63-.44,1.28-.86,1.94-1.26Z"/><path class="bed8b407-a770-4a65-b65d-847c6ee5c7f8" d="M17.06,15.28a54,54,0,0,1,9.1,1.58c1.44-.34,2.87-.67,4.32-.94a27.21,27.21,0,0,1,9-.47l.35.06c-.56-.52-1.06-1.09-1.64-1.59a3.13,3.13,0,0,0-1.36-.77,9.08,9.08,0,0,0-1.88,0,7.7,7.7,0,0,1-2.07-.37,5.88,5.88,0,0,1-2.09-1.19,4.1,4.1,0,0,1-1.26-2.24,1.87,1.87,0,0,1,.11-1.19,2.25,2.25,0,0,1,.64-.7,1.61,1.61,0,0,1,1.24-.3,1.83,1.83,0,0,1,1.1.71,13.85,13.85,0,0,1,1.13,2,3.61,3.61,0,0,0,.65.86,2.38,2.38,0,0,0,1,.52,3.74,3.74,0,0,0,1.88,0c.47-.11.93-.28,1.39-.42a7.53,7.53,0,0,1,1.49-.36,2,2,0,0,1,1.25.22,1.63,1.63,0,0,1,.65,1.27A5.07,5.07,0,0,1,41.74,14a1.76,1.76,0,0,0,.65-.4,4.16,4.16,0,0,0,1.31-2.54,3.38,3.38,0,0,0-.14-1.3,1.88,1.88,0,0,0-.15-.38,1.28,1.28,0,0,0-.11-.2l0-.07h0v0L43.1,9,43,8.9h0l-.14-.08-.07,0h0l-.17-.06-.12,0h-.33l-.19,0h-.12l-.4.09c-.27.07-.55.16-.82.26-.57.21-1.13.44-1.71.63a5,5,0,0,1-1.68.33,2.72,2.72,0,0,1-2-1,8,8,0,0,1-1.56-2.7c-.33-.89-.51-1.82-.76-2.74a4.93,4.93,0,0,0-1.1-2.2A3.07,3.07,0,0,0,29.25.68a5.78,5.78,0,0,0-4.32,3.14A15.13,15.13,0,0,0,24,6.6a10.7,10.7,0,0,1-2.47,4.84,5.37,5.37,0,0,1-2.16,1.33,8,8,0,0,1-1.67.34c-.57.05-1.13,0-1.69,0a3.59,3.59,0,0,0-2.45,1.33c-.36.36-.72.74-1.1,1.09l.15,0A21.42,21.42,0,0,1,17.06,15.28Z"/><path class="ac92a799-938b-4374-be08-bcfaef1f558b" d="M42.81,8.76Z"/><path class="a95ebbe5-83f1-4888-b0c5-262c2f585f1b" d="M37.7,32.82h0c-.29.13-.58.27-.86.42-1,.49-1.9,1-2.81,1.61,0,.5.09,1,.12,1.49,1.19-.66,2.41-1.26,3.65-1.81C37.73,34,37.76,33.39,37.7,32.82Z"/><path class="b5e38dad-2bce-42b1-993b-7da6d5ec4d42" d="M40.88,31.56A22.22,22.22,0,0,0,38,32.66a5.85,5.85,0,0,1,.14,1.71l1.15-.47c.62-.25,1.25-.48,1.89-.7-.09-.55-.18-1.11-.28-1.66Z"/><path class="e4359ac9-144c-40bb-a71f-b6bd8745f8dc" d="M35.31,16s0,0,0-.06h-.08c-.94.06-1.87.16-2.8.3A29.71,29.71,0,0,1,35,21.67a24.71,24.71,0,0,1,1.5,6c0,.08-.12.09-.14,0-.61-1.94-1.06-3.92-1.79-5.83A52.79,52.79,0,0,0,32,16.28c-1.05.16-2.09.37-3.12.6,0,0,0,0,.06.05a48.11,48.11,0,0,1,5,17.12,31.61,31.61,0,0,1,2.88-1.66L37.6,32a12.84,12.84,0,0,0-.28-1.4c0-.06.07-.08.09,0,.15.41.3.85.44,1.31a23.22,23.22,0,0,1,2.94-1.14,54.19,54.19,0,0,0-1.61-6.29A50.44,50.44,0,0,0,35.31,16Z"/><path class="be2edd77-7827-431a-a2da-df236fd18878" d="M34,44.68c0,.41-.09.82-.14,1.23a9.45,9.45,0,0,0,4.25,1.61,8.7,8.7,0,0,0,3.62-.39l.59-.22c0-.48.07-.95.08-1.43a9.3,9.3,0,0,1-3.59.77A9.35,9.35,0,0,1,34,44.68Z"/><path d="M26.14,54l.11-.15a1.33,1.33,0,0,0,.76-.1,5.53,5.53,0,0,0,2.75-2.18,2.44,2.44,0,0,0,.28.69.85.85,0,0,0,.59.42,1.15,1.15,0,0,0,.9-.48,5.43,5.43,0,0,0,1.38-3A4.19,4.19,0,0,0,33.54,51a.66.66,0,0,0,.49.28.69.69,0,0,0,.43-.24,3,3,0,0,0,.63-1,6.6,6.6,0,0,0,.28-1,6.77,6.77,0,0,0,.11,1.35,2.84,2.84,0,0,0,.65,1.48,1,1,0,0,0,.53.3.78.78,0,0,0,.53-.16,2.07,2.07,0,0,0,.73-1.15,5.2,5.2,0,0,1,.52-1.29,6.44,6.44,0,0,0,.47,1.77c.19.43.49.89,1,1a1.17,1.17,0,0,0,.84-.24A3.72,3.72,0,0,0,42,50,12.33,12.33,0,0,0,42.41,48a5.62,5.62,0,0,0,.46,1.92,1.2,1.2,0,0,0,.59.71.86.86,0,0,0,.88-.25,2.25,2.25,0,0,0,.47-.84,16.5,16.5,0,0,0,.59-1.93c.09.92-.15,1.93.33,2.72a.49.49,0,0,0,.41.29.5.5,0,0,0,.31-.21,5.36,5.36,0,0,0,1.35-2.71c0,.51.06,1.14,0,1.65,0,.29,0,.68.34.7a.52.52,0,0,0,.4-.21A10.51,10.51,0,0,0,51,44.94c.31-1.19.58-2.4.79-3.61a25.34,25.34,0,0,1-.59,6.31c-.57,2.94-1.44,6-3.6,8.09-.52-.2-.78-.76-1.06-1.25a12.3,12.3,0,0,0-1.33-1.8,3,3,0,0,0-1-.89,1.07,1.07,0,0,0-1.23.15c-1,1.1-1.9,2.11-3,3.16a1.34,1.34,0,0,1-1.1.54,1.31,1.31,0,0,1-.54-.3c-.91-.71-1.82-1.42-2.67-2.2a1.49,1.49,0,0,0-.93-.52,1.43,1.43,0,0,0-.94.57A9.27,9.27,0,0,1,30,55.28c-.46.16-.92.29-1.37.49a13.62,13.62,0,0,1-2.37,1.08.14.14,0,0,1-.09,0,.17.17,0,0,1-.1,0,13.62,13.62,0,0,1-2.37-1.08c-.44-.2-.91-.33-1.37-.49a9.27,9.27,0,0,1-3.85-2.09,1.39,1.39,0,0,0-.93-.57,1.49,1.49,0,0,0-.94.52c-.84.78-1.76,1.49-2.67,2.2a1.25,1.25,0,0,1-.54.3c-.41.08-.79-.24-1.1-.54-1-1.05-1.95-2.06-2.95-3.16a1.07,1.07,0,0,0-1.23-.15,3.16,3.16,0,0,0-1,.89,13.07,13.07,0,0,0-1.33,1.8c-.27.49-.54,1.05-1.06,1.25-2.16-2.08-3-5.15-3.6-8.09a25.34,25.34,0,0,1-.59-6.31c.22,1.21.48,2.42.8,3.61A10.49,10.49,0,0,0,3.71,49.8a.53.53,0,0,0,.4.21c.29,0,.36-.41.35-.7,0-.51.06-1.14,0-1.65a5.45,5.45,0,0,0,1.35,2.71.52.52,0,0,0,.32.21c.17,0,.31-.14.4-.29.48-.79.25-1.8.34-2.72a14.74,14.74,0,0,0,.58,1.93,2.4,2.4,0,0,0,.47.84.87.87,0,0,0,.88.25,1.17,1.17,0,0,0,.59-.71A5.41,5.41,0,0,0,9.89,48,11.42,11.42,0,0,0,10.34,50a3.69,3.69,0,0,0,1.26,2,1.15,1.15,0,0,0,.83.24c.47-.07.77-.53,1-1a6.1,6.1,0,0,0,.47-1.77,4.54,4.54,0,0,1,.52,1.29A2.12,2.12,0,0,0,15.1,52a.82.82,0,0,0,.54.16,1,1,0,0,0,.53-.3,2.83,2.83,0,0,0,.64-1.48,6.11,6.11,0,0,0,.12-1.35,5.6,5.6,0,0,0,.28,1,2.87,2.87,0,0,0,.63,1,.53.53,0,0,0,.91,0,4.35,4.35,0,0,0,.64-1.72,5.49,5.49,0,0,0,1.37,3,1.15,1.15,0,0,0,.9.48.89.89,0,0,0,.6-.42,2.42,2.42,0,0,0,.27-.69,5.53,5.53,0,0,0,2.75,2.18,1.34,1.34,0,0,0,.76.1A.65.65,0,0,1,26.14,54Z"/><path d="M29.35,39.73A15.63,15.63,0,0,0,33.3,44.8a11.28,11.28,0,0,1-1.5-.68A10,10,0,0,0,35.46,47a10.49,10.49,0,0,0,3.35.87,7.85,7.85,0,0,0,2.37,0,9,9,0,0,0,3.72-2.1c-.11,0-.24-.18-.24-.29a.47.47,0,0,1,.06-.19,2.07,2.07,0,0,1,.68-.79c.12-.09.33-.13.37,0s0,.11,0,.16.23.05.32,0a6.88,6.88,0,0,0,1.68-2.37,4.29,4.29,0,0,0,.69-2.81l-.79,1.73a8.93,8.93,0,0,0-.3-3.25,9.85,9.85,0,0,1-.85,3.35A7.58,7.58,0,0,1,45.28,43,9.75,9.75,0,0,1,42,45.35a12,12,0,0,1-2,.57,2.76,2.76,0,0,1-1,.13c-.29,0-.58-.16-.87-.2a11.61,11.61,0,0,1-1.18,0,2.45,2.45,0,0,1-.8-.38l-1.86-1.21a19.67,19.67,0,0,1-2.71-2,6.48,6.48,0,0,1-1.86-2.77C29.56,39.48,29.39,39.63,29.35,39.73Z"/><path d="M22.94,39.73a15.63,15.63,0,0,1-4,5.07,11.89,11.89,0,0,0,1.5-.68A10,10,0,0,1,16.82,47a10.43,10.43,0,0,1-3.34.87,7.91,7.91,0,0,1-2.38,0,9,9,0,0,1-3.71-2.1c.11,0,.23-.18.24-.29a.47.47,0,0,0-.06-.19,2.16,2.16,0,0,0-.68-.79c-.12-.09-.33-.13-.37,0s0,.11,0,.16-.22.05-.32,0A7,7,0,0,1,4.5,42.27a4.29,4.29,0,0,1-.69-2.81l.79,1.73a9.15,9.15,0,0,1,.29-3.25,9.86,9.86,0,0,0,.86,3.35A7.58,7.58,0,0,0,7,43a9.75,9.75,0,0,0,3.33,2.4,12.2,12.2,0,0,0,2,.57,2.81,2.81,0,0,0,1,.13c.3,0,.58-.16.88-.2a11.61,11.61,0,0,0,1.18,0,2.45,2.45,0,0,0,.8-.38l1.86-1.21a19.67,19.67,0,0,0,2.71-2,6.57,6.57,0,0,0,1.86-2.77C22.73,39.48,22.89,39.63,22.94,39.73Z"/><path d="M46.76,30.74l-2,.57a4.17,4.17,0,0,1,2.88.6c-5.7,1-10.93,3.71-16,6.41a7.86,7.86,0,0,0-2.86,2.15,3.05,3.05,0,0,1,.83-1.89,2.9,2.9,0,0,0-.95.75,9.21,9.21,0,0,1,2.06-2.55c3.08-2.84,7-4.57,11-5.92a8.17,8.17,0,0,1,2.71-.58A11.41,11.41,0,0,1,46.76,30.74Z"/><path d="M5.53,30.74l2,.57a4.19,4.19,0,0,0-2.88.6c5.71,1,10.93,3.71,16,6.41a7.86,7.86,0,0,1,2.86,2.15,3.11,3.11,0,0,0-.83-1.89,2.76,2.76,0,0,1,.94.75,9,9,0,0,0-2.05-2.55c-3.08-2.84-7-4.57-11-5.92A8.17,8.17,0,0,0,8,30.28,11.3,11.3,0,0,0,5.53,30.74Z"/><path d="M31.57,46.43a1.16,1.16,0,0,0-.83-.4,5.5,5.5,0,0,1,.9,2,.48.48,0,0,1,0,.39.41.41,0,0,1-.29.13c-.87.09-1.6-.61-2.43-.87,0,.34.07.68.11,1A.47.47,0,0,1,29,49a.32.32,0,0,1-.19.15c-.3.09-.59-.13-.83-.33l-.74-.62a7.05,7.05,0,0,0-.89,1.67,2.79,2.79,0,0,0,0,1.87,3.22,3.22,0,0,1,.58-.94,1.11,1.11,0,0,1,1-.33,3.69,3.69,0,0,0,.56.19.93.93,0,0,0,.78-.42,2.54,2.54,0,0,1,.67-.64c.47-.22,1,0,1.55-.06a1.42,1.42,0,0,0,1-1.06,2.3,2.3,0,0,0-.2-1.52,4.56,4.56,0,0,0-.49-.82l-.28-.38c-.07-.09-.13-.27-.27-.26s0,.18,0,.24l.15.33A1.62,1.62,0,0,0,31.57,46.43Z"/><path d="M20.71,46.43a1.18,1.18,0,0,1,.84-.4,5.34,5.34,0,0,0-.9,2,.44.44,0,0,0,0,.39.39.39,0,0,0,.29.13c.87.09,1.6-.61,2.43-.87,0,.34-.07.68-.11,1a.54.54,0,0,0,0,.31.34.34,0,0,0,.2.15c.3.09.59-.13.83-.33l.74-.62A7.05,7.05,0,0,1,26,49.9a2.79,2.79,0,0,1,0,1.87,3.05,3.05,0,0,0-.59-.94,1.08,1.08,0,0,0-1-.33,3.69,3.69,0,0,1-.56.19,1,1,0,0,1-.79-.42,2.36,2.36,0,0,0-.66-.64c-.48-.22-1,0-1.56-.06a1.42,1.42,0,0,1-1-1.06A2.3,2.3,0,0,1,20,47a4.56,4.56,0,0,1,.49-.82l.28-.38c.07-.09.13-.27.27-.26s0,.18,0,.24-.09.22-.14.33A1.22,1.22,0,0,1,20.71,46.43Z"/><path d="M30,32.84A28.68,28.68,0,0,0,30.72,25,20.39,20.39,0,0,1,33,29.71a12.4,12.4,0,0,0-.89-4.28Q31.15,22.7,30,20.05q0,1.27.12,2.52A9.4,9.4,0,0,0,28,18.43a33.57,33.57,0,0,1,1.21,6.68c.18,1.29.34,2.57.49,3.86l.21,2A7.06,7.06,0,0,1,30,32.84Z"/><path d="M22.25,32.84A27.93,27.93,0,0,1,21.57,25a20,20,0,0,0-2.26,4.76,12.18,12.18,0,0,1,.89-4.28q.94-2.73,2.09-5.38,0,1.27-.12,2.52a9.3,9.3,0,0,1,2.17-4.14,33.57,33.57,0,0,0-1.21,6.68c-.18,1.29-.34,2.57-.49,3.86-.07.67-.15,1.33-.21,2A7.06,7.06,0,0,0,22.25,32.84Z"/><path d="M35.74,25.33a16.3,16.3,0,0,0,.67,1.93,20.78,20.78,0,0,0-.11-5.57c.54,1.81,1.08,3.61,1.61,5.42a28.24,28.24,0,0,0-.74-6.55,84.16,84.16,0,0,1,2.32,8.58A17.89,17.89,0,0,0,36,17.1l.06,3.38a14,14,0,0,0-3.22-3c.43.29.63,1.34.88,1.79a7.75,7.75,0,0,1,.65,1.57C34.85,22.31,35.3,23.82,35.74,25.33Z"/><path d="M16.55,25.33a16.3,16.3,0,0,1-.67,1.93A20.78,20.78,0,0,1,16,21.69l-1.62,5.42a28.8,28.8,0,0,1,.75-6.55,84.21,84.21,0,0,0-2.33,8.58,18,18,0,0,1,3.47-12l-.06,3.38a13.84,13.84,0,0,1,3.22-3c-.43.29-.63,1.34-.88,1.79a7.75,7.75,0,0,0-.65,1.57C17.44,22.31,17,23.82,16.55,25.33Z"/><path d="M32.83,33.41a21.13,21.13,0,0,1,9-3.79,13,13,0,0,0-4.66-.15,9.47,9.47,0,0,0-1.95.5,7.4,7.4,0,0,0-3.55,2.94c-.17.26-1.08,1.71-.75,1.91S32.55,33.62,32.83,33.41Z"/><path d="M19.45,33.41a21.09,21.09,0,0,0-9-3.79,13,13,0,0,1,4.66-.15,9.22,9.22,0,0,1,1.94.5,7.38,7.38,0,0,1,3.56,2.94c.17.26,1.07,1.71.75,1.91S19.74,33.62,19.45,33.41Z"/><path d="M43.26,24.73c-.1-1.08-.21-2.15-.31-3.23l2.67,5.84a33.71,33.71,0,0,0-1.25-5.87A27.3,27.3,0,0,1,48,29.77c.16.49.31,1,.46,1.46a4.45,4.45,0,0,0-.24-2.54c-.49-1.59-1-3.16-1.66-4.71a20.41,20.41,0,0,0-1.78-3.71,8,8,0,0,0-2.92-2.84,10.75,10.75,0,0,1,1.75,4.32c-.09-.52-1.4-1.47-1.78-1.84q-1-.91-2-1.77A42.79,42.79,0,0,1,43.26,24.73Z"/><path d="M9,24.73c.11-1.08.21-2.15.32-3.23L6.67,27.34a33.68,33.68,0,0,1,1.24-5.87,27.8,27.8,0,0,0-3.63,8.3l-.45,1.46a4.37,4.37,0,0,1,.24-2.54c.48-1.59,1-3.16,1.66-4.71A21,21,0,0,1,7.5,20.27a8.13,8.13,0,0,1,2.93-2.84,10.75,10.75,0,0,0-1.75,4.32c.08-.52,1.39-1.47,1.78-1.84q1-.91,2-1.77A42.84,42.84,0,0,0,9,24.73Z"/><path d="M50.11,36.34A3.19,3.19,0,0,0,50.66,35a3.93,3.93,0,0,1,.48,1.69,15.54,15.54,0,0,1-.61,6.43,9.34,9.34,0,0,0,1.38-3.59,9.62,9.62,0,0,0,0-1.2l0-2.34c0-.5,0-1,0-1.52a24,24,0,0,0-1.77-6.66,33.49,33.49,0,0,1,.25,5.2,15,15,0,0,0-1-4.16,32,32,0,0,1,.42,3.66c0,.57.1,1.14.15,1.71,0,.35.07.7.1,1.05C50,35.48,50.21,36.2,50.11,36.34Z"/><path d="M2.17,36.34A3.17,3.17,0,0,1,1.63,35a4.09,4.09,0,0,0-.49,1.69,15.72,15.72,0,0,0,.62,6.43A9.34,9.34,0,0,1,.38,39.54a9.62,9.62,0,0,1,0-1.2c0-.78,0-1.56,0-2.34,0-.5,0-1,0-1.52A24.33,24.33,0,0,1,2.2,27.82,33.49,33.49,0,0,0,2,33a15,15,0,0,1,1-4.16,32,32,0,0,0-.42,3.66c0,.57-.1,1.14-.15,1.71,0,.35-.07.7-.1,1.05C2.26,35.48,2.07,36.2,2.17,36.34Z"/><path d="M27.8,52.61a2,2,0,0,0,1-.74c.05-.07.1-.17.06-.24a.25.25,0,0,0-.16-.1c-.47-.16-1.26-.28-1.62.2S27.23,52.8,27.8,52.61Z"/><path d="M24.48,52.61a2,2,0,0,1-1-.74c0-.07-.1-.17-.06-.24a.25.25,0,0,1,.16-.1c.47-.16,1.26-.28,1.62.2S25.06,52.8,24.48,52.61Z"/><path d="M30.57,51.22c0,.06.05.14.11.16s.17-.05.23-.13a1.3,1.3,0,0,1,.44-.49,2,2,0,0,1,.34-.12.87.87,0,0,0,.5-.54.14.14,0,0,0-.2-.19c-.26.13-.44.44-.72.41C30.59,50.25,30.38,50.47,30.57,51.22Z"/><path d="M21.72,51.22c0,.06,0,.14-.11.16s-.17-.05-.23-.13a1.39,1.39,0,0,0-.44-.49,2.3,2.3,0,0,0-.34-.12.82.82,0,0,1-.5-.54.2.2,0,0,1,0-.2.2.2,0,0,1,.17,0c.25.13.44.44.72.41C21.7,50.25,21.91,50.47,21.72,51.22Z"/><path d="M33.9,48.16a5,5,0,0,0-.07,1.45c0,.12.06.28.18.28s.11,0,.16-.09A2.3,2.3,0,0,0,34.83,48l-.36.44a3.26,3.26,0,0,0,.07-.7.3.3,0,0,0,0-.19.22.22,0,0,0-.32,0A1.63,1.63,0,0,0,33.9,48.16Z"/><path d="M18.39,48.16a5,5,0,0,1,.07,1.45c0,.12-.07.28-.19.28a.24.24,0,0,1-.15-.09A2.3,2.3,0,0,1,17.46,48l.36.44a3.26,3.26,0,0,1-.07-.7.3.3,0,0,1,.05-.19.21.21,0,0,1,.31,0A1.65,1.65,0,0,1,18.39,48.16Z"/><path d="M36.33,50.33a.25.25,0,0,0,.1.17c.13.07.26-.11.32-.24A2.19,2.19,0,0,1,38,49a.45.45,0,0,1,.28,0,.51.51,0,0,1,.29.3,6.76,6.76,0,0,0,1,1.65.54.54,0,0,0,.26.16c.28,0,.48-.27.61-.52a4.64,4.64,0,0,1,1.09-1.4.87.87,0,0,0-.83.34,1.32,1.32,0,0,0-.28-.73c-.08.31-.25.68-.56.66a.77.77,0,0,1-.42-.27,2.52,2.52,0,0,0-.79-.59,1.14,1.14,0,0,0-1,0c-.17.1-.31.25-.48.35A.33.33,0,0,1,37,49c-.12,0-.18-.15-.21-.27-.13-.55-.36-.29-.45.07A3,3,0,0,0,36.33,50.33Z"/><path d="M16,50.33a.3.3,0,0,1-.1.17c-.14.07-.26-.11-.32-.24A2.22,2.22,0,0,0,14.34,49a.45.45,0,0,0-.28,0,.55.55,0,0,0-.3.3,6.73,6.73,0,0,1-1,1.65.6.6,0,0,1-.26.16c-.28,0-.48-.27-.61-.52a4.64,4.64,0,0,0-1.09-1.4.89.89,0,0,1,.83.34,1.32,1.32,0,0,1,.28-.73c.07.31.24.68.56.66a.77.77,0,0,0,.42-.27,2.52,2.52,0,0,1,.79-.59,1.14,1.14,0,0,1,1,0c.17.1.31.25.48.35a.32.32,0,0,0,.16,0c.13,0,.19-.15.22-.27.13-.55.36-.29.44.07A3,3,0,0,1,16,50.33Z"/><path d="M43.46,48.85a.47.47,0,0,0,.16.31.37.37,0,0,0,.45-.12,1.31,1.31,0,0,0,.17-.48A3.47,3.47,0,0,1,45,47.09a.6.6,0,0,1,.38-.24c.22,0,.4.2.48.41.21.55.07,1.21.34,1.73a5.62,5.62,0,0,0,1-4.1l-.8,1.42a.26.26,0,0,1-.09.09c-.12.06-.2-.14-.27-.25a.45.45,0,0,0-.55-.12,1.46,1.46,0,0,0-.45.41c-.3.37-.61.74-.91,1.12-.06-.19-.12-.37-.17-.56s-.49.61-.51.68A2.43,2.43,0,0,0,43.46,48.85Z"/><path d="M8.83,48.85a.47.47,0,0,1-.16.31A.36.36,0,0,1,8.22,49a1.31,1.31,0,0,1-.17-.48,3.59,3.59,0,0,0-.77-1.47.63.63,0,0,0-.38-.24c-.23,0-.4.2-.48.41-.21.55-.07,1.21-.34,1.73a5.62,5.62,0,0,1-1-4.1l.8,1.42a.2.2,0,0,0,.09.09c.12.06.19-.14.27-.25A.45.45,0,0,1,6.74,46a1.46,1.46,0,0,1,.45.41c.3.37.61.74.91,1.12L8.27,47c.05-.14.49.61.51.68A2.56,2.56,0,0,1,8.83,48.85Z"/><path d="M48.91,47.05a1.18,1.18,0,0,0-.07.64.16.16,0,0,0,.07.11c.1.06.2,0,.26-.15a5.65,5.65,0,0,0,1.08-3.06,2.06,2.06,0,0,0-.49.8,3.85,3.85,0,0,0,0-2.51c-.09.68-.13,1.39-.24,2.06A17.59,17.59,0,0,1,48.91,47.05Z"/><path d="M3.38,47.05a1.18,1.18,0,0,1,.07.64.16.16,0,0,1-.07.11c-.1.06-.21,0-.26-.15A5.65,5.65,0,0,1,2,44.59a2.06,2.06,0,0,1,.49.8,3.79,3.79,0,0,1,0-2.51c.09.68.13,1.39.24,2.06A17.59,17.59,0,0,0,3.38,47.05Z"/><path d="M27.05,38.57a.75.75,0,0,0,0,.21.71.71,0,0,0,.16.28l.65.9A5.35,5.35,0,0,1,29,36.84c-.14-.14-.39.17-.53,0s0-.14,0-.22a5.43,5.43,0,0,1,1.29-2.32c-.1.11-.43.17-.57.24a3.24,3.24,0,0,0-.57.4,6.82,6.82,0,0,0-.78.74A4.59,4.59,0,0,0,27.05,38.57Z"/><path d="M25.24,38.57a.75.75,0,0,1,0,.21.85.85,0,0,1-.16.28l-.66.9a5.34,5.34,0,0,0-1.14-3.12c.13-.14.39.17.53,0a.24.24,0,0,0,0-.22,5.56,5.56,0,0,0-1.3-2.32c.1.11.43.17.58.24a3.66,3.66,0,0,1,.57.4,6.82,6.82,0,0,1,.78.74A4.66,4.66,0,0,1,25.24,38.57Z"/><path d="M29.69,9.62a4.19,4.19,0,0,0,1.13,2.93,4.15,4.15,0,0,0,2.87,1.26,1.82,1.82,0,0,1-1.89.58,5.38,5.38,0,0,1-1.83-1,8.27,8.27,0,0,1,.89,1.49l-1.48,0a2.31,2.31,0,0,0-1.05.13.63.63,0,0,1-.41.12c-.2-.06-.25-.3-.27-.5a19.5,19.5,0,0,1,.41-6c-1.33,1.64-1.15,3.95-2.14,5.81-.1.2-.28.42-.5.35s-.22-.2-.3-.34-.23-.26-.37-.2-.21.49-.42.44a.25.25,0,0,1-.14-.16,4.17,4.17,0,0,1,.16-3,4.53,4.53,0,0,1-1.87,2.39,1.74,1.74,0,0,1-.94.32.76.76,0,0,1-.74-.56,1.19,1.19,0,0,1,.22-.74,15.79,15.79,0,0,0,2.17-4.27,10.85,10.85,0,0,1-2,2.7,4.92,4.92,0,0,1-3,1.4c-.73.05-1.47-.11-2.19,0a4.45,4.45,0,0,0-2.34,1.14,13.22,13.22,0,0,0-1.73,2,7,7,0,0,0,2.45-.19A15.58,15.58,0,0,1,21.3,16a18.28,18.28,0,0,0,2.66.47c.78.09,1.33.58,2.16.54a7.37,7.37,0,0,0,1.38-.23,19.32,19.32,0,0,1,4-.83,12.61,12.61,0,0,0,1.84-.19,14.49,14.49,0,0,1,1.86-.2c.71,0,1.41.05,2.11,0,.39,0,.78,0,1.17,0a9.89,9.89,0,0,1,2,.36,1.88,1.88,0,0,0-.53-.73l-1.61-1.61a3,3,0,0,0-.6-.51,2.38,2.38,0,0,0-.63-.23,5.35,5.35,0,0,0-1.49-.15,9,9,0,0,1-1.55.07,5,5,0,0,1-1.31-.42,8.54,8.54,0,0,1-1.17-.59,5.83,5.83,0,0,1-1.41-1.35,1.53,1.53,0,0,1-.31-.52,1.66,1.66,0,0,1,0-.91A1,1,0,0,0,29.69,9.62Z"/><path d="M43.15,11a3.85,3.85,0,0,0-.72-1.48,5.11,5.11,0,0,1,.27,2,2.27,2.27,0,0,0-2.23-1.85c.22.24.44.49.67.73a1.25,1.25,0,0,0-1-.33,6,6,0,0,0-1.09.26,6.44,6.44,0,0,1-3.29,0,2.32,2.32,0,0,1-1.08-.55,5.81,5.81,0,0,1-.65-1,2.79,2.79,0,0,0-1.91-1.21c1.12,1,1.23,2.93,2.52,3.72a3.18,3.18,0,0,0,2.35.25c.79-.17,1.54-.48,2.33-.64a3.78,3.78,0,0,1,1.64,0,1.33,1.33,0,0,1,.56.27,1.45,1.45,0,0,1,.35,1,5.85,5.85,0,0,1-.39,2.48A4.29,4.29,0,0,0,43.77,12a4.11,4.11,0,0,0-.42-3.42A9.86,9.86,0,0,1,43.15,11Z"/><path d="M25.71,3.77a5,5,0,0,1,3.71-2.44,5.46,5.46,0,0,0-2.09,1.93,4.54,4.54,0,0,1,3.76-1,8.45,8.45,0,0,0-4.21,3.41A12.6,12.6,0,0,0,25,10.8a13,13,0,0,1,.72-5.36c-1.11,2-1.21,4.65-2.84,6.32C24.14,9.2,24.17,6.2,25.71,3.77Z"/><path d="M29.75,5.27A2.43,2.43,0,0,1,31,4.76c-.17.47-.35.93-.55,1.39a3,3,0,0,1,.79-.46,2.15,2.15,0,0,1,1.55.37,3.1,3.1,0,0,1-.7-1.75,3,3,0,0,0-.75-1.74l.27,2.3c-.1-.57-.68-.9-1.15-1.13.38.24.1.52-.11.75A7.14,7.14,0,0,1,29.75,5.27Z"/><path class="a56df28b-33f0-4d65-9542-fc7b36a25cf5" d="M29.7,0a5.52,5.52,0,0,0-1.52.28,6.41,6.41,0,0,0-2.51,1.48,6.66,6.66,0,0,0-1.62,2.52c-.36.94-.57,1.93-.86,2.9A10.78,10.78,0,0,1,22,9.79a5.77,5.77,0,0,1-1.6,1.77,5.85,5.85,0,0,1-2.77.92c-.59,0-1.17,0-1.75,0a3.18,3.18,0,0,0-1.5.46,14,14,0,0,0-2.22,2,6.06,6.06,0,0,1-1.06.83L11,15.8l-.59.16a11.58,11.58,0,0,0-2,.79,3.67,3.67,0,0,0-.73.69L7,18.19c-.43.5-.85,1-1.24,1.56a26.63,26.63,0,0,0-2.11,3.42A31.39,31.39,0,0,0,.93,30.7,38.78,38.78,0,0,0,0,39.08,41.89,41.89,0,0,0,.27,44c.17,1.53.34,3.07.65,4.58a17.63,17.63,0,0,0,1.39,4.25,11,11,0,0,0,1.07,1.73c.19.24.38.47.59.7s.51.62.81.68.48-.22.64-.44L6,54.59A13.47,13.47,0,0,1,7.28,53,6.48,6.48,0,0,1,8,52.35c.25-.2.53-.41.86-.24a3.67,3.67,0,0,1,.81.72l.87.86,1.74,1.72a2.06,2.06,0,0,0,.79.58,1,1,0,0,0,.89-.21c.64-.49,1.25-1,1.87-1.55l.94-.78.48-.4c.08-.06.15-.13.24-.19s.11-.08.21,0c.94.76,1.71,1.83,2.91,2.21a8.77,8.77,0,0,0,.86.18,7.21,7.21,0,0,1,1,.31,10.52,10.52,0,0,1,1.75.94,6,6,0,0,0,.91.47,2.49,2.49,0,0,0,1.12.32,3.58,3.58,0,0,0,1-.34,7.09,7.09,0,0,0,1-.55,10.33,10.33,0,0,1,1.75-.9,9.1,9.1,0,0,1,.93-.27,7.21,7.21,0,0,0,.92-.21,5.22,5.22,0,0,0,1.53-1l.7-.66.33-.31c.06,0,.24-.26.31-.26s.35.26.43.33l.47.39.95.79,1,.78a12,12,0,0,0,1,.79c.69.44,1.23-.15,1.7-.61l1.74-1.72.8-.78c.24-.24.53-.63.87-.71s.58.18.79.35a6,6,0,0,1,.77.74,14.44,14.44,0,0,1,1.22,1.58l.57.8c.18.25.4.51.73.33a3.42,3.42,0,0,0,.73-.69,9.46,9.46,0,0,0,.64-.78,11,11,0,0,0,1-1.75c1.33-2.77,1.67-5.85,2-8.87A40.57,40.57,0,0,0,52,34.48a31.15,31.15,0,0,0-5.58-14.86c-.39-.53-.81-1.05-1.25-1.55-.2-.23-.4-.46-.61-.68a2.84,2.84,0,0,0-.84-.71,14.59,14.59,0,0,0-2.48-.87l-.07-.06a13.63,13.63,0,0,1-2.27-2,4.89,4.89,0,0,0-1.33-1,3.78,3.78,0,0,0-1.76-.28,7.61,7.61,0,0,1-1.35,0l-.45-.07-.52-.12a5.56,5.56,0,0,1-2-.92,3.64,3.64,0,0,1-1.37-2.19,2.18,2.18,0,0,1,0-.51.63.63,0,0,1,.1-.25.7.7,0,0,1,.16-.2,2.37,2.37,0,0,1,.28-.27,1,1,0,0,1,.86-.16,1.44,1.44,0,0,1,.76.64c.4.6.65,1.28,1,1.9A3.34,3.34,0,0,0,35,11.77a4.18,4.18,0,0,0,2.19.14,7.61,7.61,0,0,0,1.24-.35c.45-.14.9-.3,1.37-.4l.3-.06a1.14,1.14,0,0,1,.28,0h.4l.11,0,.14,0h0l.06,0,.09.06a.3.3,0,0,1,.08.08l0,0,0,0a.61.61,0,0,1,.07.14h0v0s0,.06,0,.09,0,.12,0,.18A5.22,5.22,0,0,1,41,14.3a.32.32,0,0,0,.3.4,2.9,2.9,0,0,0,2.36-1.64A4.21,4.21,0,0,0,44.26,10a2.59,2.59,0,0,0-.9-1.65,2,2,0,0,0-1.45-.29,22.82,22.82,0,0,0-3.49,1.11,3.25,3.25,0,0,1-.42.11l-.19,0-.1,0h-.06a2.55,2.55,0,0,1-.39,0h-.33l-.16,0-.08,0h-.06a2.73,2.73,0,0,1-.6-.4,4.87,4.87,0,0,1-1-1.2,10,10,0,0,1-1.15-2.93,16.82,16.82,0,0,0-.79-2.59,3.5,3.5,0,0,0-1.9-1.9A3.73,3.73,0,0,0,29.7,0ZM30,.64a2.75,2.75,0,0,1,1.91.75A4.88,4.88,0,0,1,33,3.59c.26.91.44,1.85.77,2.74A8,8,0,0,0,35.29,9a2.7,2.7,0,0,0,2,1,5.12,5.12,0,0,0,1.68-.33c.58-.19,1.14-.43,1.71-.63a7.81,7.81,0,0,1,.82-.26l.4-.09h.31a1.82,1.82,0,0,1,.33,0l.12,0,.17.05h0l.07,0,.14.09h0l.06,0,.12.14,0,0h0l0,.07.11.19a2.89,2.89,0,0,1,.15.39,3.56,3.56,0,0,1,.14,1.3,4.18,4.18,0,0,1-1.31,2.54,1.89,1.89,0,0,1-.66.4,5.08,5.08,0,0,0,.35-2.07,1.64,1.64,0,0,0-.66-1.28,1.93,1.93,0,0,0-1.25-.21,8.18,8.18,0,0,0-1.48.35c-.46.15-.92.31-1.39.43a3.63,3.63,0,0,1-1.88,0,2.2,2.2,0,0,1-1-.52,3.22,3.22,0,0,1-.64-.86,14.38,14.38,0,0,0-1.13-2,1.86,1.86,0,0,0-1.11-.7,1.6,1.6,0,0,0-1.23.3,2.25,2.25,0,0,0-.64.7,1.8,1.8,0,0,0-.11,1.19,4.14,4.14,0,0,0,1.26,2.24,5.56,5.56,0,0,0,2.09,1.18,7.27,7.27,0,0,0,2.07.37,9.09,9.09,0,0,1,1.88,0,3.28,3.28,0,0,1,1.36.76c.57.5,1.08,1.08,1.64,1.6-.12,0-.23,0-.35-.06a27.48,27.48,0,0,0-9,.46c-1.45.28-2.89.61-4.32.95a54.16,54.16,0,0,0-9.1-1.58,20.69,20.69,0,0,0-4.45.2l-.16,0c.39-.35.75-.73,1.11-1.09A3.55,3.55,0,0,1,16,13.09c.57,0,1.13.06,1.69,0a7.37,7.37,0,0,0,1.68-.34,5.4,5.4,0,0,0,2.16-1.33A10.82,10.82,0,0,0,24,6.6a15.1,15.1,0,0,1,.92-2.78,5.76,5.76,0,0,1,1.8-2.12,5.67,5.67,0,0,1,2.53-1A3.29,3.29,0,0,1,30,.64ZM14.81,15.89q1,0,2,0a32.75,32.75,0,0,0-4.08,8.23,47,47,0,0,0-1.76,6.45,13.47,13.47,0,0,0-2-.44,3.69,3.69,0,0,0-2.11.12.31.31,0,0,0,.07.56c.76.12,1.52,0,2.29.16.54.1,1.06.23,1.58.38-.1.55-.19,1.1-.28,1.65L10,32.83c-1.32-.41-2.65-.75-4-1a.32.32,0,0,0-.39.22,17.82,17.82,0,0,0-.89,6.91,7.79,7.79,0,0,0,2.77,5,10,10,0,0,0,1.86,1.23c0,.48,0,1,.07,1.44l-.5-.27a5.12,5.12,0,0,0-1.46-.81c-.12,0-.28.09-.22.23a3.86,3.86,0,0,0,2.25,1.69c.06.6.13,1.19.2,1.79a27.62,27.62,0,0,0,.56,3.23L10,52.32a4.71,4.71,0,0,0-.82-.73,1.16,1.16,0,0,0-1.14,0,21.59,21.59,0,0,1-1.14-4.11c0-.11-.18-.12-.18,0a10.47,10.47,0,0,0,.89,4.38L7.48,52a6,6,0,0,0-.85.82A32,32,0,0,1,3.09,39.51a.24.24,0,0,0,0-.08.22.22,0,0,0,0-.14.18.18,0,0,0-.24-.12.84.84,0,0,1-.52,0,.19.19,0,0,0-.24.12.2.2,0,0,0,.12.24,1.15,1.15,0,0,0,.37.06A33.49,33.49,0,0,0,6.27,53.23c-.32.4-.62.82-.92,1.25-.31-.6-.67-1.17-1-1.77a18.23,18.23,0,0,1-1-2.47c0-.06-.13-.05-.12,0a10.56,10.56,0,0,0,1.82,4.62L5,55l-.2.25,0,0L4.64,55a8,8,0,0,1-.72-.82,10.19,10.19,0,0,1-1-1.66C1.55,49.9,1.22,46.88.89,44a41.26,41.26,0,0,1,0-9.16A31,31,0,0,1,6.15,20.27c.39-.54.8-1.06,1.24-1.57L8,18a4,4,0,0,1,.71-.71A3.83,3.83,0,0,1,9.42,17,24.69,24.69,0,0,0,7.3,19.59,22.33,22.33,0,0,0,5,23.37a26.41,26.41,0,0,0-1.57,3.95,14,14,0,0,0-1,4.21.06.06,0,0,0,.12,0,16.33,16.33,0,0,0,.51-2.09,21.34,21.34,0,0,1,.61-2.07,29.5,29.5,0,0,1,1.74-4,38.61,38.61,0,0,1,2.17-3.6c.71-1.08,1.6-2,2.38-3,.26-.09.51-.18.77-.25s.72-.19,1.08-.27a13.53,13.53,0,0,0-3.38,3.88A36,36,0,0,0,5.6,25.54,35.12,35.12,0,0,0,2.72,37.29s0,.06,0,.08a.18.18,0,0,0,.13.19.9.9,0,0,1,.41.31.21.21,0,0,0,.16.08.17.17,0,0,0,.11,0,.19.19,0,0,0,0-.26,1.37,1.37,0,0,0-.35-.33v0A35.53,35.53,0,0,1,5.9,25.9a40.1,40.1,0,0,1,2.65-5.23,13.93,13.93,0,0,1,3.58-4.47l.74-.13A16.09,16.09,0,0,1,14.81,15.89Zm22.78,0a19.07,19.07,0,0,1,2,.2l.61.11a14.06,14.06,0,0,1,3.58,4.47,41.38,41.38,0,0,1,2.65,5.23A35.53,35.53,0,0,1,49.1,37.29v0a1.37,1.37,0,0,0-.35.33.19.19,0,0,0,0,.26.15.15,0,0,0,.11,0,.19.19,0,0,0,.15-.08.93.93,0,0,1,.42-.31.18.18,0,0,0,.13-.19.19.19,0,0,0,0-.08,35.12,35.12,0,0,0-2.88-11.75,36.89,36.89,0,0,0-2.88-5.41,13.51,13.51,0,0,0-3.38-3.87c.42.09.83.19,1.24.31l.6.2c.78,1,1.67,1.94,2.38,3a38.61,38.61,0,0,1,2.17,3.6,30.81,30.81,0,0,1,1.74,4,20.1,20.1,0,0,1,.58,2,17.92,17.92,0,0,0,.53,2.19c0,.07.12.06.12,0a13.76,13.76,0,0,0-1-4.22,27.48,27.48,0,0,0-1.56-3.95A23.43,23.43,0,0,0,45,19.59,25.75,25.75,0,0,0,42.91,17a2.57,2.57,0,0,1,.84.43,14.59,14.59,0,0,1,1.3,1.42c.43.51.84,1,1.22,1.58a26.82,26.82,0,0,1,2,3.34,31,31,0,0,1,2.58,7.37,38.41,38.41,0,0,1,.85,8.28,44.55,44.55,0,0,1-.29,4.76,44.61,44.61,0,0,1-.66,4.45,15.93,15.93,0,0,1-1.39,4.09,9.38,9.38,0,0,1-1.06,1.64,9.59,9.59,0,0,1-.68.75l-.12.1a2.34,2.34,0,0,0-.24-.31,10.68,10.68,0,0,0,1.82-4.62c0-.07-.1-.07-.13,0a18.06,18.06,0,0,1-1,2.46c-.31.6-.68,1.17-1,1.77-.3-.42-.6-.85-.92-1.25a33.49,33.49,0,0,0,3.69-13.65,1.15,1.15,0,0,0,.37-.06.19.19,0,0,0,.12-.24.18.18,0,0,0-.24-.11,1.09,1.09,0,0,1-.26,0h0a1.09,1.09,0,0,1-.26,0,.17.17,0,0,0-.23.12.14.14,0,0,0,0,.14.22.22,0,0,0,0,.08,32.16,32.16,0,0,1-3.55,13.28,7.12,7.12,0,0,0-1-.92l0,0a10.39,10.39,0,0,0,.89-4.39c0-.12-.17-.11-.18,0a20.78,20.78,0,0,1-1.14,4.1,1.18,1.18,0,0,0-.33-.12,1.16,1.16,0,0,0-.9.22,6.93,6.93,0,0,0-.8.73l-.12.12a27.62,27.62,0,0,0,.56-3.23c.08-.6.15-1.19.2-1.79a3.85,3.85,0,0,0,2.26-1.69c.06-.14-.1-.25-.22-.22a4.89,4.89,0,0,0-1.38.75l-.59.32c0-.48.06-1,.07-1.44a9.41,9.41,0,0,0,1.29-.78,8,8,0,0,0,3.22-4.71,11.4,11.4,0,0,0,.13-3.45A19.76,19.76,0,0,0,47,32.94L46.74,32a.32.32,0,0,0-.38-.22A44.42,44.42,0,0,0,41.83,33c-.08-.55-.18-1.1-.28-1.64.49-.14,1-.27,1.47-.37.81-.16,1.61-.06,2.41-.18a.31.31,0,0,0,.07-.56,3.78,3.78,0,0,0-2.11-.12,15,15,0,0,0-2,.44,45.57,45.57,0,0,0-1.75-6.45,32.52,32.52,0,0,0-4.08-8.22C36.24,15.87,36.91,15.86,37.59,15.89ZM17,15.91a28.15,28.15,0,0,1,2.88.31,29.93,29.93,0,0,0-2.6,5.45,24.82,24.82,0,0,0-1.5,6,.07.07,0,0,0,.14,0c.61-1.95,1.06-3.93,1.79-5.84a54.85,54.85,0,0,1,2.58-5.62l1.45.26,1.66.34a.07.07,0,0,0,0,.05,48.13,48.13,0,0,0-5,17.13,29.37,29.37,0,0,0-2.87-1.67L14.72,32a13.33,13.33,0,0,1,.28-1.4c0-.05-.07-.07-.09,0-.15.41-.31.85-.44,1.31a26.26,26.26,0,0,0-2.94-1.14,54,54,0,0,1,1.61-6.28A50.18,50.18,0,0,1,17,16S17,15.93,17,15.91Zm18.18,0h.08s0,0,0,.06a50.18,50.18,0,0,1,3.87,8.51,54,54,0,0,1,1.61,6.28,25.53,25.53,0,0,0-2.94,1.14c-.13-.45-.29-.9-.44-1.31,0-.05-.1,0-.09,0A13,13,0,0,1,37.6,32l-.76.37A27.33,27.33,0,0,0,34,34.06a48.32,48.32,0,0,0-5-17.13.13.13,0,0,0-.06-.05c1-.23,2.07-.43,3.12-.6a52.79,52.79,0,0,1,2.58,5.62c.73,1.91,1.19,3.89,1.79,5.84,0,.07.15.06.14,0a24.28,24.28,0,0,0-1.51-6,28.94,28.94,0,0,0-2.59-5.45C33.34,16.08,34.27,16,35.21,15.91Zm-21.59.29s0,0-.06,0a24.13,24.13,0,0,0-2.79,4.41c-.41.79-.77,1.6-1.12,2.41a8.75,8.75,0,0,0-.82,2.24c0,.12.14.13.2.06A14.13,14.13,0,0,0,10.09,23c.36-.77.75-1.52,1.14-2.27.78-1.51,1.63-3,2.41-4.49A0,0,0,0,0,13.62,16.2Zm25.08,0a.06.06,0,0,0,0,.07c.78,1.51,1.63,3,2.41,4.48.39.75.78,1.51,1.14,2.27a14.13,14.13,0,0,0,1.06,2.3c.06.07.22.06.2-.05A8.75,8.75,0,0,0,42.67,23c-.35-.82-.71-1.63-1.12-2.42a24.25,24.25,0,0,0-2.79-4.4S38.72,16.18,38.7,16.2Zm-9.91.7a.11.11,0,0,0,0,.13,59.3,59.3,0,0,1,4.61,17.42l-.48.33a27.86,27.86,0,0,0-2.3,1.75q-.07-.53-.12-1.05a0,0,0,0,0-.07,0,11.52,11.52,0,0,0-.18,1.38c-.29.27-.57.55-.84.85a.12.12,0,0,0,.15.19l.69-.44a4.59,4.59,0,0,0,.18,1.24q-.55.38-1.08.78l-.09.08h0a.28.28,0,0,0,0,.33,14,14,0,0,0,4.24,4.4l0,0a.36.36,0,0,0,0,.11c0,.36-.06.73-.1,1.09A12.29,12.29,0,0,1,32,44.31c-.05-.06-.16,0-.11.09a7.59,7.59,0,0,0,1.43,1.7,52.25,52.25,0,0,1-1.66,8.31.11.11,0,0,0,0,.05l-.06,0c-.28.09-.58.12-.86.19a9.07,9.07,0,0,0-.89.26,4.09,4.09,0,0,0,.06-1,17.52,17.52,0,0,0-.07-2.29c0-.06-.12-.09-.13,0-.09.68-.19,1.37-.26,2.06a3.21,3.21,0,0,0,0,1.41,11.38,11.38,0,0,0-1.33.72c-.29.18-.58.35-.88.5a4,4,0,0,1-.53.22,1.45,1.45,0,0,1-.25.09c.1-2.07.07-4.16.08-6.24a1.78,1.78,0,0,0,.21-.44q.15-.37.27-.75l.27-.77v0c.17.19.33.39.5.57a3.81,3.81,0,0,0,.43.37.78.78,0,0,0,.59.23c.55-.11.45-.74.42-1.16,0-.18,0-.37-.06-.55a4.51,4.51,0,0,0,1.27.79,2.39,2.39,0,0,0,.51.13,1.15,1.15,0,0,0,.71,0c.42-.22.22-.84.11-1.19a8,8,0,0,0-1.38-2.24,24.36,24.36,0,0,0-1.7-2,24.28,24.28,0,0,0-2.13-1.92q0-6,0-12.08c0-3.95.14-8-.18-11.9l1.19-.28c.13.69.37,1.36.55,2a14.34,14.34,0,0,0,.53,2.05c.06.12.23.05.23-.06A7.85,7.85,0,0,0,28.36,19a9.5,9.5,0,0,0-.65-1.88Zm-5.26,0,1.08.25A9.41,9.41,0,0,0,24,19a8.39,8.39,0,0,0-.46,2.19c0,.11.18.18.23.06a13.88,13.88,0,0,0,.53-2c.18-.68.42-1.35.55-2l1.19.28c-.32,3.94-.18,8-.18,11.9s0,8.06,0,12.09a23,23,0,0,0-3.63,3.62,9.91,9.91,0,0,0-1.45,2.17,3.85,3.85,0,0,0-.2.57,1.2,1.2,0,0,0,0,.75c.21.38.8.27,1.14.18a3.91,3.91,0,0,0,1.55-.87c0,.17,0,.34-.06.52,0,.42-.14,1.08.42,1.19a.81.81,0,0,0,.59-.23A2.86,2.86,0,0,0,24.6,49c.18-.19.35-.38.52-.58v0c.1.25.19.51.28.77s.16.5.26.74a1.88,1.88,0,0,0,.22.45c0,2.09,0,4.18.08,6.26l-.34-.13a4.9,4.9,0,0,1-.52-.24c-.33-.16-.64-.36-1-.55A10.18,10.18,0,0,0,23,55.12a3.41,3.41,0,0,0,0-1.42c-.07-.69-.17-1.38-.27-2.06,0-.08-.11,0-.12,0a17.52,17.52,0,0,0-.07,2.29,4.63,4.63,0,0,0,.05,1h0a7.11,7.11,0,0,0-.93-.27,7.83,7.83,0,0,1-.84-.18s0,0,0-.06A52.25,52.25,0,0,1,19,46.1a7.59,7.59,0,0,0,1.43-1.7c.05-.07-.06-.15-.12-.09A11.37,11.37,0,0,1,19,45.53c0-.37-.07-.73-.1-1.1a.3.3,0,0,0,0-.1,14.36,14.36,0,0,0,3.9-3.83c.13-.19.26-.39.38-.6,0,0,0,0,0,0a.26.26,0,0,0,0-.27.32.32,0,0,0-.1-.1c-.35-.27-.72-.53-1.08-.78a4.59,4.59,0,0,0,.18-1.24l.69.44c.12.08.24-.09.15-.19-.27-.3-.55-.58-.84-.85a11.52,11.52,0,0,0-.18-1.38s-.06,0-.07,0c0,.34-.07.69-.12,1a27.86,27.86,0,0,0-2.3-1.75c-.16-.12-.32-.22-.48-.33A58.93,58.93,0,0,1,23.56,17,.12.12,0,0,0,23.53,16.9Zm-.29,7s0,0,0,0c-.28,1.52-.56,3-.72,4.57-.08.76-.14,1.52-.17,2.28a6.51,6.51,0,0,0,0,2.33.12.12,0,0,0,.23,0A7.27,7.27,0,0,0,22.7,31c0-.76.07-1.52.12-2.29.11-1.58.22-3.2.45-4.78C23.27,23.94,23.26,23.92,23.24,23.92Zm5.84,0s0,0,0,0c.23,1.58.34,3.2.45,4.78.05.73.09,1.45.12,2.17a7.75,7.75,0,0,0,.14,2.21.12.12,0,0,0,.23,0,6.3,6.3,0,0,0,0-2.21c0-.8-.1-1.61-.18-2.41-.16-1.54-.44-3-.72-4.56C29.12,23.92,29.1,23.91,29.08,23.92ZM8.29,26.54a.07.07,0,0,0-.08,0A7.12,7.12,0,0,0,7.48,28c-.16.39-.44.85-.26,1.26a.08.08,0,0,0,.12,0c.33-.24.35-.73.46-1.1.17-.54.36-1.07.52-1.6A.05.05,0,0,0,8.29,26.54Zm35.74,0a.05.05,0,0,0,0,.07c.16.54.35,1.06.51,1.6.12.38.14.87.47,1.11a.08.08,0,0,0,.12,0c.18-.41-.1-.88-.26-1.27a7.88,7.88,0,0,0-.73-1.45A.07.07,0,0,0,44,26.54Zm-32.65,5a24.81,24.81,0,0,1,2.9,1.12,5.85,5.85,0,0,0-.14,1.71c-1-.43-2-.82-3-1.17C11.19,32.65,11.28,32.09,11.38,31.54Zm29.56,0c.1.55.19,1.11.28,1.66-.64.22-1.27.45-1.89.7l-1.15.47A6.21,6.21,0,0,0,38,32.66a22.22,22.22,0,0,1,2.84-1.1ZM6.1,32.47a42.72,42.72,0,0,1,6.67,2,42.56,42.56,0,0,1,6.52,3.24c1.08.65,2.13,1.36,3.14,2.11a13.41,13.41,0,0,1-3.84,3.92,9.34,9.34,0,0,1-5.07,1.87,8.85,8.85,0,0,1-5.13-1.71,7.38,7.38,0,0,1-3-4.4,8.7,8.7,0,0,1-.16-1.61,15.35,15.35,0,0,1,.06-1.66,19.33,19.33,0,0,1,.62-3.19C6,32.86,6.05,32.66,6.1,32.47Zm40.12,0a22.69,22.69,0,0,1,.7,3,13.84,13.84,0,0,1,.1,3.28,7.19,7.19,0,0,1-2.58,4.73,9,9,0,0,1-5,2.07,6.52,6.52,0,0,1-2.56-.27,11.08,11.08,0,0,1-2.57-1.18,14,14,0,0,1-4.25-4c-.07-.11-.14-.21-.2-.32a42.86,42.86,0,0,1,5.92-3.66,41.94,41.94,0,0,1,6.74-2.74C43.76,33.05,45,32.73,46.22,32.47Zm-31.6.35c.29.13.57.28.86.42,1,.5,1.9,1,2.81,1.61-.05.5-.09,1-.12,1.49-.46-.25-.92-.5-1.39-.74-.74-.38-1.5-.73-2.27-1.07.08-.56.05-1.14.11-1.71Zm23.08,0h0c.06.57,0,1.15.11,1.71-1.25.55-2.47,1.16-3.66,1.82q0-.75-.12-1.5c.92-.58,1.85-1.11,2.81-1.61C37.12,33.1,37.41,33,37.7,32.82ZM18.88,35.23l.3.19c.83.56,1.64,1.16,2.47,1.73-.06.43-.11.85-.13,1.26-.9-.61-1.81-1.18-2.75-1.72C18.8,36.2,18.84,35.71,18.88,35.23Zm14.56,0c0,.48.08,1,.11,1.45l-.81.48c-.66.4-1.31.82-1.94,1.26,0-.42-.07-.85-.13-1.27.8-.55,1.58-1.13,2.38-1.67Zm5.44.12-.66.28,0,0,.06,0,.64-.28ZM27.21,40.71c-.08,0-.13.07-.1.14a5,5,0,0,0,.88,1q.51.52,1,1.05c.69.74,1.35,1.5,2,2.29s1.55,1.9,1.34,3a1.55,1.55,0,0,1-.75,1.13,2.67,2.67,0,0,1-1.43,0,.11.11,0,0,0-.08.19,1.64,1.64,0,0,0,2.28-.15,2.81,2.81,0,0,0,0-3,10.21,10.21,0,0,0-1-1.49,2.2,2.2,0,0,0,.06-.85,6.72,6.72,0,0,0-.14-1.35c0-.07-.14-.07-.15,0A10.28,10.28,0,0,0,31,44.06c0,.12,0,.25,0,.37-.33-.39-.67-.77-1-1.14s-.93-1-1.43-1.52A4.6,4.6,0,0,0,27.21,40.71Zm-2.1,0a4.23,4.23,0,0,0-1.23,1q-.75.72-1.44,1.5c-.35.4-.72.8-1.07,1.22l0-.37a10.28,10.28,0,0,0-.13-1.35c0-.07-.13-.07-.15,0a6.07,6.07,0,0,0-.14,1.35,2.13,2.13,0,0,0,.06.84,10.3,10.3,0,0,0-1,1.5,2.82,2.82,0,0,0,0,3,1.64,1.64,0,0,0,2.29.18.11.11,0,0,0-.08-.19,2.63,2.63,0,0,1-1.42,0A1.56,1.56,0,0,1,20,48.22c-.21-1.11.71-2.2,1.34-3s1.28-1.55,2-2.28l1-1.06a4.11,4.11,0,0,0,.89-1C25.25,40.79,25.19,40.68,25.11,40.71Zm-21,.4a.2.2,0,0,0-.14.23A5.41,5.41,0,0,0,6.29,45a.19.19,0,0,0,.25-.25c-.72-1.21-1.81-2.07-2.23-3.47A.18.18,0,0,0,4.08,41.11Zm44.16,0a.18.18,0,0,0-.23.13c-.42,1.4-1.51,2.26-2.22,3.47A.18.18,0,0,0,46,45a5.41,5.41,0,0,0,2.35-3.62A.2.2,0,0,0,48.24,41.11ZM26.16,42a22.87,22.87,0,0,1,3.18,3.12A14,14,0,0,1,30.71,47a3.5,3.5,0,0,1,.43,1,1.55,1.55,0,0,1,0,.21,1.77,1.77,0,0,1-.46-.08,4.83,4.83,0,0,1-1.9-1.33.31.31,0,0,0-.52.3,8.74,8.74,0,0,1,.19,1.12c0,.19,0,.38,0,.57v.09a8.75,8.75,0,0,1-1.19-1.24.31.31,0,0,0-.44,0,1.66,1.66,0,0,0-.27.53l-.27.75c-.06.2-.13.39-.2.58-.07-.19-.14-.38-.2-.58s-.17-.5-.27-.74a2,2,0,0,0-.27-.54.33.33,0,0,0-.45,0,7.7,7.7,0,0,1-1.18,1.24s0,0,0-.06c0-.19,0-.38,0-.56a9.07,9.07,0,0,1,.2-1.16.32.32,0,0,0-.53-.3A5.46,5.46,0,0,1,21.84,48a1.9,1.9,0,0,1-.48.14l-.2,0h0a2.79,2.79,0,0,1,.33-1,12.35,12.35,0,0,1,1.34-1.88,21.62,21.62,0,0,1,1.57-1.74A20.73,20.73,0,0,1,26.16,42ZM18.3,44.68c0,.41.09.82.14,1.23a9.49,9.49,0,0,1-4.25,1.61,8.61,8.61,0,0,1-3.53-.36c-.23-.07-.46-.16-.68-.25,0-.48-.07-.95-.09-1.43a9.22,9.22,0,0,0,2.92.73,9,9,0,0,0,5.44-1.5Zm15.72,0a9.35,9.35,0,0,0,4.8,1.57,9.39,9.39,0,0,0,3.61-.77c0,.48,0,1-.09,1.43l-.59.22a8.7,8.7,0,0,1-3.62.39,9.49,9.49,0,0,1-4.25-1.61C33.93,45.5,34,45.09,34,44.68ZM18.51,46.54a55.15,55.15,0,0,0,1.59,7.62,9.07,9.07,0,0,1-.9-.74l-.68-.65a2.2,2.2,0,0,0-.71-.55.76.76,0,0,0-.77.2c-.34.27-.66.55-1,.82l-1.24,1a25.25,25.25,0,0,1-.89-4.55s-.05,0-.05,0a17.77,17.77,0,0,0,.55,4.87h0l-.23.19-.47.39a1,1,0,0,1-.36.24c-.3.05-.65-.43-.83-.62L11,53.25h0a21.45,21.45,0,0,1-.78-4.14L10,47.7l.24.08a10.09,10.09,0,0,0,1.23.32c0,.11,0,.22,0,.33a9,9,0,0,0,0,1,.06.06,0,1,0,.12,0c0-.32,0-.65.06-1,0-.12,0-.24,0-.35a9.25,9.25,0,0,0,4.53-.42,5.39,5.39,0,0,0,.28,1c.16.48.39.93.53,1.42,0,0,.09,0,.08,0-.13-.49-.16-1-.27-1.49a5.89,5.89,0,0,0-.27-1A8.1,8.1,0,0,0,18.51,46.54Zm15.29,0a8.17,8.17,0,0,0,1.87,1.05,5.89,5.89,0,0,0-.27,1c-.11.49-.14,1-.27,1.48a0,0,0,0,0,.08,0c.14-.48.37-.93.53-1.41a5.74,5.74,0,0,0,.28-1,8.62,8.62,0,0,0,2,.48,8.8,8.8,0,0,0,2.51-.06c0,.12,0,.24.05.36,0,.32.06.64.06,1a.06.06,0,1,0,.11,0,7.25,7.25,0,0,0,0-1c0-.11,0-.23,0-.33A10.09,10.09,0,0,0,42,47.78l.24-.08-.15,1.39a23.19,23.19,0,0,1-.78,4.15h0L39.68,54.9c-.19.19-.49.62-.8.48a1.88,1.88,0,0,1-.36-.27L38,54.65l-.07-.06h0a17.7,17.7,0,0,0,.55-4.86s0,0-.05,0a24.43,24.43,0,0,1-.9,4.55l-1.35-1.13c-.31-.25-.61-.52-.93-.76a.68.68,0,0,0-.85-.09,3.94,3.94,0,0,0-.62.53l-.69.65a6.4,6.4,0,0,1-.85.69A52.36,52.36,0,0,0,33.8,46.54ZM22.6,49.38a.24.24,0,0,0-.14.14c-.22.53.39,1.11.83,1.31a1.71,1.71,0,0,0,.92.13c.4-.06.92-.49,1.12.13a.09.09,0,0,0,.16,0,.67.67,0,0,0-.66-.84c-.5,0-.81.32-1.32,0s-.42-.6-.71-.86A.25.25,0,0,0,22.6,49.38Zm7.11,0a.23.23,0,0,0-.19,0c-.3.26-.33.65-.71.86s-.84,0-1.32,0a.68.68,0,0,0-.67.84c0,.08.15.07.17,0,.2-.63.72-.19,1.11-.13a1.7,1.7,0,0,0,.92-.13c.45-.2,1.05-.78.84-1.31A.26.26,0,0,0,29.71,49.38Z"/></g></g></g></svg>