<svg xmlns="http://www.w3.org/2000/svg" viewBox="0 0 13.57 51.94"><defs><style>.b0942a11-7a50-4293-9abb-da78a3dc7251{fill:#2cc8ff;}.b8c41ef6-dfbd-4043-b430-1f806ecbbf63{fill:#cc0;}.f8d55147-55ad-498f-8785-c27973fce269{fill:#f9df21;}.fec99587-237d-47f2-ad19-3f965971fcf4{fill:#ffae0b;}.f8703470-133b-443f-8c9d-5e835bb2feca{fill:#ef2669;}.f948d29b-9f89-4ef7-84e1-fe60b40a14fc{fill:none;}.b69eacd3-024b-439c-9d76-2f71e044af5b,.eb143410-5b46-49c8-9937-aa6639058de0{fill:#fff;}.b69eacd3-024b-439c-9d76-2f71e044af5b{isolation:isolate;opacity:0.25;}</style></defs><g id="f991d8f6-8f7c-458f-93ab-11dea3e8d795" data-name="Layer 2"><g id="a4883fd6-0e36-4bdb-a051-d0ef944c6f6d" data-name="Layer 1"><g id="bb2232d7-869f-4f15-ac38-767553f00462" data-name="ab0c3781-5f05-446d-97e2-4b4d9ec9caf9"><g id="eead03ce-3fd2-447d-b0e8-5ec6c3094b84" data-name="b3c607bb-aad9-4d16-b444-07c23aff7dbf"><g id="ba957fa3-ada5-429e-b87e-8556cfb90542" data-name="e7e73446-89bc-4506-ade1-5f0dec552529"><path class="b0942a11-7a50-4293-9abb-da78a3dc7251" d="M6.8,0,5.9,10.59,4.32,29.18,3,45.13l-.51,6C1,50.5,0,49.5,0,48.14l1.53-10.8,1.7-12L5.72,7.66Z"/><path class="b8c41ef6-dfbd-4043-b430-1f806ecbbf63" d="M6.8,0,6.4,14.18,5.86,33,5.38,49.77l-.06,2.06a10.07,10.07,0,0,1-2.86-.7l.51-6,1.36-16L5.9,10.59Z"/><path class="f8d55147-55ad-498f-8785-c27973fce269" d="M8.24,51.84l-.67.06a14.1,14.1,0,0,1-2.25-.06l.06-2.06L5.86,33,6.4,14.18,6.8,0l.49,17.6.52,18.75Z"/><path class="fec99587-237d-47f2-ad19-3f965971fcf4" d="M11.11,51.13a10.5,10.5,0,0,1-2.87.71L7.81,36.35,7.29,17.6,6.8,0,8.52,20.41l1.55,18.44Z"/><path class="f8703470-133b-443f-8c9d-5e835bb2feca" d="M13.57,48.15c0,1.36-1,2.36-2.46,3l-1-12.28L8.52,20.41,6.8,0,10,22.57l2.5,17.77Z"/><path class="f948d29b-9f89-4ef7-84e1-fe60b40a14fc" d="M2.46,51.13v0"/><path class="f948d29b-9f89-4ef7-84e1-fe60b40a14fc" d="M5.32,51.84v.1"/><path class="f948d29b-9f89-4ef7-84e1-fe60b40a14fc" d="M8.25,51.94v-.11"/><path class="f948d29b-9f89-4ef7-84e1-fe60b40a14fc" d="M11.11,51.17v0"/><path class="b69eacd3-024b-439c-9d76-2f71e044af5b" d="M3.05,48.62v0a.19.19,0,0,0,0-.07.09.09,0,0,0,0-.06.2.2,0,0,0-.14-.06H2.8a.14.14,0,0,0-.08,0l0,0a.19.19,0,0,0,0,.1v.07a.19.19,0,0,0,0,.1h0a.18.18,0,0,0,.12.09.22.22,0,0,0,.14,0L3,48.75H3a.17.17,0,0,0,0-.1Z"/><path class="b69eacd3-024b-439c-9d76-2f71e044af5b" d="M4,42.82a.43.43,0,0,0,0-.12l0-.05a.24.24,0,0,0-.08-.09.1.1,0,0,0-.07,0,.28.28,0,0,0-.13,0H3.57l-.08,0a.34.34,0,0,0-.13.16h0a.14.14,0,0,0,0,.08.21.21,0,0,0,0,.15.17.17,0,0,0,0,.1.36.36,0,0,0,0,.09l.06.08h0l0,0a.32.32,0,0,0,.23.09h.08a.28.28,0,0,0,.15-.08l0,0h0l0,0A.24.24,0,0,0,4,43a.18.18,0,0,0,0-.1A.44.44,0,0,1,4,42.82Z"/><path class="b69eacd3-024b-439c-9d76-2f71e044af5b" d="M7.7,44.86a.27.27,0,0,0-.3,0l0,0h0a.24.24,0,0,0-.1.1h0a.28.28,0,0,0,0,.25h0a.28.28,0,0,0,.1.09h0l0,0a.3.3,0,0,0,.41-.12.29.29,0,0,0-.11-.39Z"/><path class="b69eacd3-024b-439c-9d76-2f71e044af5b" d="M6.51,48a.24.24,0,0,0-.23,0l-.06,0a.18.18,0,0,0,0,.3l.06,0a.24.24,0,0,0,.23,0,.23.23,0,0,0,.08-.31A.3.3,0,0,0,6.51,48Z"/><path class="b69eacd3-024b-439c-9d76-2f71e044af5b" d="M3.83,38.9a.21.21,0,0,0-.28-.08.21.21,0,0,0-.08.28l0,.07a.15.15,0,0,0,.18.08.16.16,0,0,0,.1-.08l0-.07a.23.23,0,0,0,0-.2Z"/><path class="b69eacd3-024b-439c-9d76-2f71e044af5b" d="M8.87,40.62a.27.27,0,0,0-.19-.19H8.52l-.07,0a.22.22,0,0,0-.09.1s0,0,0,.07h0a.17.17,0,0,0,0,.1.15.15,0,0,0,0,.09.16.16,0,0,0,0,.07l0,0,.12,0a.2.2,0,0,0,.11,0h0l0,0a.24.24,0,0,0,.1-.1l0-.06v0A.33.33,0,0,0,8.87,40.62Z"/><path class="b69eacd3-024b-439c-9d76-2f71e044af5b" d="M4.72,34.76a.26.26,0,0,0-.26.25A.25.25,0,0,0,5,35H5A.26.26,0,0,0,4.72,34.76Z"/><path class="b69eacd3-024b-439c-9d76-2f71e044af5b" d="M7.65,31.22a.25.25,0,0,1,0-.07l0-.06L7.52,31l-.07,0a.2.2,0,0,0-.11,0l-.07,0a.21.21,0,0,0-.1.06l0,0a.24.24,0,0,0,0,.34l0,0,0,0,.06.05.07,0h.12a.29.29,0,0,0,.18-.1.25.25,0,0,0,0-.07.14.14,0,0,0,0-.11A.17.17,0,0,0,7.65,31.22Z"/><path class="b69eacd3-024b-439c-9d76-2f71e044af5b" d="M5.25,27.16a.32.32,0,1,0,.32.33h0A.32.32,0,0,0,5.25,27.16Z"/><path class="b69eacd3-024b-439c-9d76-2f71e044af5b" d="M8.33,25.85a.62.62,0,0,0,0-.13l0-.07a.18.18,0,0,0,0-.07h0l0,0a.3.3,0,0,0-.2-.08H7.93a.33.33,0,0,0-.13.07l0,0h0l0,0a.24.24,0,0,0-.06.11v.17a.31.31,0,0,0,.21.3.15.15,0,0,0,.13,0H8.1a.29.29,0,0,0,.14-.08l.06-.07a.33.33,0,0,0,0-.17Z"/><path class="b69eacd3-024b-439c-9d76-2f71e044af5b" d="M6.58,21.3a.34.34,0,0,0,0,.67.34.34,0,0,0,.35-.33h0A.34.34,0,0,0,6.58,21.3Z"/><path class="b69eacd3-024b-439c-9d76-2f71e044af5b" d="M7.21,16.32a.35.35,0,1,0,.33.36h0A.35.35,0,0,0,7.21,16.32Z"/><path class="b69eacd3-024b-439c-9d76-2f71e044af5b" d="M7.3,12.54a.32.32,0,1,0,.3.33h0A.32.32,0,0,0,7.3,12.54Z"/><path class="b69eacd3-024b-439c-9d76-2f71e044af5b" d="M9.59,26.83a.21.21,0,0,0,0,.42.21.21,0,0,0,0-.42Z"/><path class="b69eacd3-024b-439c-9d76-2f71e044af5b" d="M11.12,36.71a.22.22,0,0,0-.08-.13.18.18,0,0,0-.09-.06.27.27,0,0,0-.12,0,.26.26,0,0,0-.15,0,.29.29,0,0,0-.11.11l0,0h0a.05.05,0,0,0,0,0s0,0,0,0h0v.05a.24.24,0,0,0,.17.31.17.17,0,0,0,.14,0h.07l.07,0h0l0,0a.35.35,0,0,0,.11-.1.29.29,0,0,0,0-.16Z"/><path class="b69eacd3-024b-439c-9d76-2f71e044af5b" d="M8.71,42.18a.34.34,0,0,0-.1-.16L8.54,42a.34.34,0,0,0-.19-.05.4.4,0,0,0-.27.11.32.32,0,0,0-.09.16.34.34,0,0,0,0,.2,1.18,1.18,0,0,0,.07.2l0,.05a.39.39,0,0,0,.08.1l.08.05a.17.17,0,0,0,.1,0h.06a.35.35,0,0,0,.12-.07v0h0l0-.06s0,0,0-.06,0-.13.08-.2A.34.34,0,0,0,8.71,42.18Z"/><path class="b69eacd3-024b-439c-9d76-2f71e044af5b" d="M11.58,46.67l-.09-.09-.11-.06-.05,0-.1,0a.17.17,0,0,0-.21.12.14.14,0,0,0,0,.09.36.36,0,0,0,0,.09l0,.06.06.11a.25.25,0,0,0,.22.12h.07a.41.41,0,0,0,.11-.07.22.22,0,0,0,.05-.08.12.12,0,0,0,0-.1A.31.31,0,0,0,11.58,46.67Z"/><path class="b69eacd3-024b-439c-9d76-2f71e044af5b" d="M11.16,41.21a.22.22,0,0,0-.05-.08l-.06,0-.05,0a.27.27,0,0,0-.2,0l-.08,0h0a.2.2,0,0,0-.08.08l0,0,0,0a.64.64,0,0,0,0,.07h0v.05a.15.15,0,0,0,0,.13.24.24,0,0,0,.3.17h0l.1,0,0,0h0a.18.18,0,0,0,.09-.08s0,0,0,0l0,0,0-.06,0-.06a.34.34,0,0,0,0-.1A.19.19,0,0,0,11.16,41.21Z"/><path class="eb143410-5b46-49c8-9937-aa6639058de0" d="M8,41.16a.15.15,0,0,0-.08-.08l-.06,0a.17.17,0,0,0-.16.16v.12a.16.16,0,0,0,0,.11l0,0,0,0h0a.14.14,0,0,0,.09,0l0,0,0-.06a.43.43,0,0,1,0,0v-.12A.13.13,0,0,0,8,41.16Z"/><path class="eb143410-5b46-49c8-9937-aa6639058de0" d="M6.33,37.74a.22.22,0,0,0-.39.22h0L6,38a.09.09,0,0,0,.06.06.11.11,0,0,0,.08,0,.15.15,0,0,0,.09,0L6.28,38l0-.06a.22.22,0,0,0,0-.22Z"/><path class="eb143410-5b46-49c8-9937-aa6639058de0" d="M8.7,43.74a.22.22,0,0,0-.22.23.22.22,0,0,0,.22.22.23.23,0,1,0,0-.45Z"/><path class="eb143410-5b46-49c8-9937-aa6639058de0" d="M5.16,46.89a.18.18,0,0,0-.18.18.18.18,0,0,0,.18.17.18.18,0,0,0,.17-.17A.18.18,0,0,0,5.16,46.89Z"/><path class="eb143410-5b46-49c8-9937-aa6639058de0" d="M3.91,49.05a.15.15,0,0,0-.16.13.16.16,0,0,0,.14.16.15.15,0,0,0,.16-.13v0A.14.14,0,0,0,3.91,49.05Z"/><path class="eb143410-5b46-49c8-9937-aa6639058de0" d="M1.26,47.28a.14.14,0,1,0,0,.28.14.14,0,0,0,.14-.14h0A.14.14,0,0,0,1.26,47.28Z"/><path class="eb143410-5b46-49c8-9937-aa6639058de0" d="M9.5,46.61a.19.19,0,0,0-.19.19A.18.18,0,0,0,9.5,47a.19.19,0,0,0,.19-.19h0A.2.2,0,0,0,9.5,46.61Z"/><path class="eb143410-5b46-49c8-9937-aa6639058de0" d="M4,38.08s0,0,0,0l0,0,0,0H3.88l0,0,0,0h0a.17.17,0,0,0-.12,0,.08.08,0,0,0,0,0,.05.05,0,0,0,0,0v0a.19.19,0,0,0,0,.08l0,0a.1.1,0,0,0,.07,0h.16l.06,0,.05,0a.21.21,0,0,0,0-.06.21.21,0,0,0,0-.12Z"/><path class="eb143410-5b46-49c8-9937-aa6639058de0" d="M6.93,32.83v0a.17.17,0,0,0,0-.12l-.06,0H6.71l-.08,0,0,0a.16.16,0,0,0,0,.09v.07a.14.14,0,0,0,0,.06h0a.12.12,0,0,0,.06.06.11.11,0,0,0,.08,0A.14.14,0,0,0,6.89,33v0h0a.19.19,0,0,0,0-.07v0Z"/><path class="eb143410-5b46-49c8-9937-aa6639058de0" d="M10.1,38.6v0a.12.12,0,0,0-.05,0s0,0,0,0l-.07,0h0l0,0a.18.18,0,0,0-.08.09s0,.06,0,.09a.2.2,0,0,0,.05.19l0,0,.09,0a.2.2,0,0,0,.14-.06.22.22,0,0,0,.05-.08.21.21,0,0,0,0-.11Z"/><path class="eb143410-5b46-49c8-9937-aa6639058de0" d="M8.83,28.63l-.05-.07a.21.21,0,0,0-.1-.06.24.24,0,0,0-.12,0h0l-.06,0-.06.06,0,.05a.29.29,0,0,0,0,.09v.05l0,.06a.3.3,0,0,0,.14.1h0a.23.23,0,0,0,.22-.06l0-.05a.21.21,0,0,0,0-.12A.29.29,0,0,0,8.83,28.63Z"/><path class="eb143410-5b46-49c8-9937-aa6639058de0" d="M6.41,25.26s0,0,0-.06v0a.13.13,0,0,0-.07-.06.11.11,0,0,0-.08,0,.16.16,0,0,0-.09,0,.17.17,0,0,0-.06.06v0h0l0,.05h0v0a.21.21,0,0,0,0,.11.41.41,0,0,0,0,.09l0,0a.19.19,0,0,0,.1,0,.25.25,0,0,0,.15-.06.41.41,0,0,0,0-.09.21.21,0,0,0,0-.11S6.42,25.27,6.41,25.26Z"/><path class="eb143410-5b46-49c8-9937-aa6639058de0" d="M5.36,20.12A.14.14,0,0,0,5.31,20,.14.14,0,0,0,5.17,20,.18.18,0,0,0,5,20a.12.12,0,0,0,0,.08s0,0,0,0a.21.21,0,0,0,0,.2l0,0a.2.2,0,0,0,.11,0,.2.2,0,0,0,.14-.06.19.19,0,0,0,.06-.2Z"/><path class="eb143410-5b46-49c8-9937-aa6639058de0" d="M8.15,20.39a.75.75,0,0,0-.07-.12L8,20.21l0,0-.05,0h0l-.05,0a.1.1,0,0,0,0,0,.15.15,0,0,0,0,.11l0,.1a.14.14,0,0,0,0,.06v0l0,.05.05.05,0,0a.22.22,0,0,0,.14,0l0,0a.25.25,0,0,0,0-.07v-.05A.16.16,0,0,0,8.15,20.39Z"/><path class="eb143410-5b46-49c8-9937-aa6639058de0" d="M7,13.39a.18.18,0,0,0-.18.18.18.18,0,0,0,.36,0h0A.18.18,0,0,0,7,13.39Z"/></g></g></g></g></g></svg>