<svg xmlns="http://www.w3.org/2000/svg" viewBox="0 0 62.67 57.56"><defs><style>.e5d1017e-82f4-4d8c-a68d-807205a14275{fill:#ec2840;}.b3b3acfa-ec10-43cc-b2d3-a819a56cfaf9{fill:red;}.e95a58f6-5378-4439-8080-a7eb6133d652{fill:#2d0209;}.a6bf528a-a118-4750-955e-e266e6d758d9{fill:#f1f2f2;}.ed2164e1-89b1-4b3d-885e-d269287b9865{fill:#cf1924;}.bd3da68a-0430-45c3-9ec8-3242e92b2773{fill:#aa112b;}.b27c7083-87ae-46f0-83e7-626e61d443a9{fill:#990d1a;}.e094ebd1-d6ba-4c01-87c9-e4830e5349aa{fill:#fc5471;}.e8a7e3c4-84e9-45bf-abda-0e34cb6f7b2b{fill:#e03f4f;}.af0f926f-4d1c-4af4-b762-10f94538459c{fill:#ff002a;}</style></defs><g id="aa286e66-9a76-4b83-88de-5cc47768e2c3" data-name="Layer 2"><g id="bc4a5e52-96d9-4ce9-bfc6-1a0158b27570" data-name="Layer 1"><g id="f6f8d1d5-e1de-4d14-ab48-cbeaa63007c4" data-name="Untitled"><path class="e5d1017e-82f4-4d8c-a68d-807205a14275" d="M2.53,30.63c.22.64.44,1.29.63,1.94a8.79,8.79,0,0,1,.4,1.83,8.31,8.31,0,0,1-.68,3.13,15.68,15.68,0,0,0-.46,1.52,3.54,3.54,0,0,0-.08,1.33,3.61,3.61,0,0,0,.79,1.43,15.39,15.39,0,0,0,1.36,1.55,5.17,5.17,0,0,0,.7.62,2.84,2.84,0,0,0,.88.37A2.25,2.25,0,0,0,8,44.05a.22.22,0,0,1,.16,0v-.14a9.69,9.69,0,0,1,.41-2.78c.15-.47.35-.92.5-1.39a12.82,12.82,0,0,0,.37-1.63,17.1,17.1,0,0,0,.15-3.35,11,11,0,0,0-.61-3.11.07.07,0,0,1,0-.05c-.23-.49-.45-1-.68-1.48s-.45-1-.67-1.46h0c-.15-.29-.3-.58-.47-.87a19.74,19.74,0,0,0-5-5.93c-.23-.18-.48-.36-.73-.53l-.21-.15-.09-.06H1v0s0,.1-.05.14a7.5,7.5,0,0,0-.34,1.88,11.61,11.61,0,0,0,.55,3.74C1.58,28.12,2.08,29.37,2.53,30.63Zm-.89-8.08a.22.22,0,0,1,.4-.11,20,20,0,0,0,3.11,4A14.89,14.89,0,0,1,7.76,30.3a15.84,15.84,0,0,1,1.1,4.33,7.85,7.85,0,0,1-.28,3.88c-.32.86-1,2.07-2,2.13a3.07,3.07,0,0,1-2.39-1.49A3.08,3.08,0,0,1,4,35.85a2,2,0,0,1,2.57-.92,1.93,1.93,0,0,1,.89,2.56A1.51,1.51,0,0,1,5.13,38c-.21-.16.06-.49.28-.36,1.5.91,2.28-1.86.59-2.18-1.27-.25-1.94,1.33-1.73,2.36a3,3,0,0,0,1.63,2c1,.47,1.67-.56,2-1.37a6.38,6.38,0,0,0,.44-2.83,17,17,0,0,0-.45-3.24A13.09,13.09,0,0,0,5,27.07,24.82,24.82,0,0,1,2.06,23.4a8.33,8.33,0,0,0,.28,2.37,26.63,26.63,0,0,0,1.24,2.92c.73,1.7,1.57,3.5,1.13,5.39,0,.16-.27.09-.25-.07a6.61,6.61,0,0,0-.66-3.35c-.36-.95-.79-1.85-1.19-2.78a10.75,10.75,0,0,1-.9-2.51A16.59,16.59,0,0,1,1.64,22.55Z"/><path class="b3b3acfa-ec10-43cc-b2d3-a819a56cfaf9" d="M9.53,31.31a.36.36,0,0,1,0,.11h0c.1.28.19.57.27.86a11.74,11.74,0,0,1,.38,3.07A16.35,16.35,0,0,1,10,38.71a11.15,11.15,0,0,1-.44,1.6c-.16.43-.33.85-.45,1.3a9.45,9.45,0,0,0-.28,2.65,7.81,7.81,0,0,0,1.84,4.87,7,7,0,0,0,5.54,2.24c1.21-.07,2.38-.43,3.57-.59a31,31,0,0,1,3.61-.31s0,0,0-.07a1.8,1.8,0,0,1,1.45-2A12.26,12.26,0,0,1,26.37,48a3.44,3.44,0,0,0,1.34-.37c.09-.06.17.07.11.14a4.17,4.17,0,0,1-2,1.08c-.91.29-2,.68-1.41,1.88s2.15,1.34,3.18,1.82c.24.11.47.22.7.35A6.21,6.21,0,0,1,28,52.1a4.41,4.41,0,0,1,.45-3.28,0,0,0,0,1,.08,0,6.13,6.13,0,0,0,.19,3.26,11.36,11.36,0,0,0,.59,1.39l0,0h0a10.36,10.36,0,0,1,1.14,1.78,8.85,8.85,0,0,0,.84,1.39,8.91,8.91,0,0,0,.85-1.39,10.3,10.3,0,0,1,1.13-1.78h0l.07-.13a11.24,11.24,0,0,0,.55-1.3,6.13,6.13,0,0,0,.19-3.26s0-.08.07,0a4.4,4.4,0,0,1,.46,3.27c0,.22-.12.51-.22.81a7.94,7.94,0,0,1,.77-.39c1-.45,2.54-.69,3.09-1.77.63-1.23-.56-1.62-1.49-1.91a4,4,0,0,1-2-1c-.06-.07,0-.2.11-.14a3.8,3.8,0,0,0,1.42.39,10.69,10.69,0,0,1,1.58.38,1.79,1.79,0,0,1,1.38,2s0,.05,0,.07l.79,0a27.18,27.18,0,0,1,3.71.42,14.57,14.57,0,0,0,3.48.45,6.93,6.93,0,0,0,5.13-2.72,8.29,8.29,0,0,0,1.45-5.07,8.9,8.9,0,0,0-.47-2.6c-.17-.49-.37-1-.51-1.46a11.59,11.59,0,0,1-.32-1.66,18,18,0,0,1-.12-3.28,11.23,11.23,0,0,1,.63-3.15h0a.56.56,0,0,1,0-.12c0-.12.11-.25.17-.37l1.17-2.55c-.06-.9-.13-1.79-.25-2.67a22,22,0,0,0-2.58-8,9.11,9.11,0,0,1-.92,1.48.21.21,0,0,1-.11.14.2.2,0,0,1-.11.06,7.87,7.87,0,0,1-3,.79,7.46,7.46,0,0,1-5.15-1.69,8.52,8.52,0,0,1-2.73-4.46h0a.43.43,0,0,0,0-.05v0a.27.27,0,0,1,.1-.19.17.17,0,0,1,.06-.06,35,35,0,0,0,3-2.59l.6-.6a26.75,26.75,0,0,0-4.87-1.46,45.18,45.18,0,0,0-4.9-.71l-1.26-.11A8.85,8.85,0,0,0,31,8.19c-.83.07-1.66.14-2.48.23a32.08,32.08,0,0,0-9.18,2.1,35,35,0,0,0,3.58,3.19.26.26,0,0,1,.09.09.24.24,0,0,1,.06.11h0a.06.06,0,0,0,0,0V14a.11.11,0,0,1,0,.05v0a8.45,8.45,0,0,1-1.2,2.71A7.46,7.46,0,0,1,17.68,20a7.92,7.92,0,0,1-5.52-.52.24.24,0,0,1-.11-.06.23.23,0,0,1-.11-.13A9.2,9.2,0,0,1,11,17.75a18.39,18.39,0,0,0-.86,1.72,22.3,22.3,0,0,0-1.38,4.26,29.12,29.12,0,0,0-.58,4.65l.12.27C8.72,29.54,9.13,30.42,9.53,31.31Zm43.63-7.22a8.46,8.46,0,0,1,.59,2.39,6.45,6.45,0,0,1,.14,2.27c0,.12-.2.11-.23,0a16.52,16.52,0,0,1-.23-2.23c-.1-.8-.32-1.6-.35-2.41A0,0,0,0,1,53.16,24.09ZM35.36,39.77c-.09-.11.08-.21.17-.14a11.78,11.78,0,0,0,5.55,2.75,11.16,11.16,0,0,0,6.58-1.23.18.18,0,0,1,.18.32C44.23,44.19,38.09,43.39,35.36,39.77Zm-.3-1.8v0h0a7,7,0,0,1,.53-.69c.36-.43.74-.84,1.13-1.23A19.5,19.5,0,0,1,41,32.84a24.71,24.71,0,0,1,4.76-2c1.41-.44,2.84-.8,4.28-1.1.63-.13,1.26-.26,1.89-.35.2,0,.45.08.43.32v0a7,7,0,0,1-.13.8,12,12,0,0,1-.41,1.48,14.54,14.54,0,0,1-2.34,4.33,15.39,15.39,0,0,1-5.25,4.26A7.33,7.33,0,0,1,38,40.26a12.18,12.18,0,0,1-2.9-1.87h0a.25.25,0,0,1-.09-.2A.23.23,0,0,1,35.06,38Zm-.4-.77s-.11,0-.08-.05c1.61-2.81,4.71-4.71,7.56-6a29.77,29.77,0,0,1,5-1.81,24.45,24.45,0,0,1,2.65-.55,7.32,7.32,0,0,1,2.28-.17c.16,0,.14.26,0,.3a22,22,0,0,1-2.44.29,24,24,0,0,0-2.38.51,28.38,28.38,0,0,0-4.9,1.77A20.14,20.14,0,0,0,34.66,37.2Zm17.09-.87a5.16,5.16,0,0,1-1.07,2.55,5.77,5.77,0,0,1-2,1.89.05.05,0,0,1-.06-.09,22.5,22.5,0,0,0,1.8-2.09c.49-.73.8-1.54,1.24-2.29C51.65,36.24,51.76,36.26,51.75,36.33ZM51,48.76a4.64,4.64,0,0,1-3.07,1.17A11.69,11.69,0,0,1,46,49.69a12.24,12.24,0,0,0-2.18-.09.2.2,0,0,1-.1-.37,4.76,4.76,0,0,1,3-.1A4.52,4.52,0,0,0,50,48.61c2.15-1.38,2.38-4,1.72-6.29,0-.13.16-.21.23-.09A5.33,5.33,0,0,1,51,48.76ZM38.89,24.56a25.72,25.72,0,0,1,4.16-1c.71-.12,1.42-.25,2.12-.42a14,14,0,0,1,1.92-.43c.16,0,.19.21.08.28a9.76,9.76,0,0,1-3.65,1.07,34.72,34.72,0,0,0-3.77.83,9.67,9.67,0,0,0-3.59,1.95,13,13,0,0,0-2.32,2.95s-.05,0,0,0C34.29,27.23,36.57,25.41,38.89,24.56Zm-5.17,2.78a3.25,3.25,0,0,1,2-2.48.15.15,0,0,1,.15.25c-.37.35-.82.58-1.17.95a5,5,0,0,0-.91,1.33C33.8,27.45,33.7,27.41,33.72,27.34Zm-1,.33a.06.06,0,0,1,.12,0,21.68,21.68,0,0,0-.24,4.41,5.21,5.21,0,0,0,.31,1.09l.1.2a15,15,0,0,1,2.24-3.64,12.92,12.92,0,0,1,3.31-2.85,15.68,15.68,0,0,1,4.55-1.68,31.38,31.38,0,0,0,5-1.4c1.36-.57,2.85-1.59,3-3.19a.33.33,0,0,1,.32-.32.34.34,0,0,1,.17.05.32.32,0,0,1,.21.14A3.78,3.78,0,0,1,51,25.1a10.94,10.94,0,0,1-4.4,2.2c-1.78.58-3.59,1.06-5.35,1.7a27.21,27.21,0,0,0-4.78,2.28,11.62,11.62,0,0,0-1.69,1.18,10.86,10.86,0,0,0-1.31,1.4l-.15.39a.4.4,0,0,1-.1.15c0,2.2.83,4.34,1.41,6.43a11.64,11.64,0,0,1,.53,3.09c0,1.19-.53,2.3-.6,3.49,0,.07-.12.09-.14,0-.35-1.22.23-2.28.19-3.51A14.27,14.27,0,0,0,34,40.64c-.33-1.15-.81-2.42-1.08-3.7a6.88,6.88,0,0,1-.33-1.87,2.13,2.13,0,0,1,.15-1,.51.51,0,0,1,0-.13,3,3,0,0,1-.79-1.78A7.52,7.52,0,0,1,32.7,27.67ZM18.81,49.6a11.72,11.72,0,0,0-2.29.11,10.5,10.5,0,0,1-1.85.22,4.62,4.62,0,0,1-3-1.17,5.3,5.3,0,0,1-1-6.53.12.12,0,0,1,.22.09c-.66,2.26-.42,4.91,1.73,6.29a4.49,4.49,0,0,0,3.23.52,4.79,4.79,0,0,1,3,.1A.2.2,0,0,1,18.81,49.6Zm-8-20.17h0c.77.12,1.53.28,2.29.45a40.77,40.77,0,0,1,4.46,1.2,22.8,22.8,0,0,1,4.81,2.15,19.87,19.87,0,0,1,3.88,3.13A13.5,13.5,0,0,1,27.59,38h0v0a.33.33,0,0,1,0,.22.34.34,0,0,1-.09.19h0l0,0A13,13,0,0,1,24,40.56a8.22,8.22,0,0,1-3,.62A6.24,6.24,0,0,1,19.33,41a7.42,7.42,0,0,1-1.65-.75,15.34,15.34,0,0,1-4.89-4.42,14.55,14.55,0,0,1-2-4.15,9.37,9.37,0,0,1-.41-1.89C10.33,29.51,10.59,29.4,10.78,29.43Zm-.17-.87a7.54,7.54,0,0,1,2.36.19c.87.14,1.72.32,2.56.54a29.14,29.14,0,0,1,5,1.81c2.86,1.34,5.95,3.24,7.57,6,0,.05-.05.09-.09.05a20.1,20.1,0,0,0-7.67-5.76,28.68,28.68,0,0,0-4.9-1.77A23.05,23.05,0,0,0,13,29.15a22.84,22.84,0,0,1-2.35-.28C10.47,28.83,10.45,28.59,10.61,28.56ZM14,40.77a5.86,5.86,0,0,1-2-1.89,5.35,5.35,0,0,1-1.07-2.55.08.08,0,0,1,.14,0c.44.75.75,1.56,1.24,2.29a22.5,22.5,0,0,0,1.8,2.09A.06.06,0,0,1,14,40.77Zm13.29-1c-2.74,3.62-8.87,4.42-12.48,1.7a.18.18,0,0,1,.18-.32,11.15,11.15,0,0,0,6.58,1.23,11.78,11.78,0,0,0,5.55-2.75C27.22,39.56,27.39,39.66,27.31,39.77ZM26.9,24.86a3.21,3.21,0,0,1,2,2.48c0,.07-.08.11-.11.05a5,5,0,0,0-.9-1.33c-.35-.37-.8-.6-1.17-.95A.15.15,0,0,1,26.9,24.86ZM15.57,22.71a15.68,15.68,0,0,1,2,.46c.71.16,1.41.29,2.12.41a24.51,24.51,0,0,1,4.06,1c2.31.85,4.59,2.67,5.09,5.21,0,0,0,.05-.05,0a12.74,12.74,0,0,0-2.39-3,9.78,9.78,0,0,0-3.51-1.88A36.76,36.76,0,0,0,19,24,9.67,9.67,0,0,1,15.49,23C15.39,22.92,15.41,22.7,15.57,22.71Zm-4.78-2.2a.32.32,0,0,1,.21-.14.34.34,0,0,1,.17-.05.33.33,0,0,1,.32.33c.23,1.83,2.09,2.86,3.65,3.42s3.36.88,5.05,1.31a14.25,14.25,0,0,1,4.38,1.81,14.12,14.12,0,0,1,5.11,6.22c0-.09.08-.17.11-.26a4.75,4.75,0,0,0,.3-1,22.42,22.42,0,0,0-.24-4.41.06.06,0,0,1,.11,0,7.47,7.47,0,0,1,.81,4.48,2.94,2.94,0,0,1-.8,1.78.25.25,0,0,1,0,.12,2.31,2.31,0,0,1,.15,1,6.88,6.88,0,0,1-.33,1.86c-.27,1.28-.75,2.55-1.08,3.71A13.28,13.28,0,0,0,28,44c0,1.2.53,2.23.19,3.43a.07.07,0,0,1-.14,0c-.08-1.21-.61-2.34-.6-3.56a12,12,0,0,1,.52-3c.58-2.09,1.43-4.22,1.42-6.43a.31.31,0,0,1-.1-.15l-.16-.4a9.75,9.75,0,0,0-1.52-1.56A14.85,14.85,0,0,0,25.7,31a28.7,28.7,0,0,0-5-2.23c-1.77-.6-3.58-1.08-5.35-1.68a8.56,8.56,0,0,1-4.13-2.4A3.69,3.69,0,0,1,10.79,20.51Zm-1.88,6a8.47,8.47,0,0,1,.6-2.39,0,0,0,0,1,.08,0c0,.81-.26,1.61-.35,2.41A16.52,16.52,0,0,1,9,28.75c0,.11-.22.12-.24,0A7,7,0,0,1,8.91,26.48Z"/><path class="e95a58f6-5378-4439-8080-a7eb6133d652" d="M12.41,24.92a7.34,7.34,0,0,0,2,1.12c.8.33,1.63.59,2.45.84,1.75.54,3.51,1,5.22,1.69a27.49,27.49,0,0,1,4.62,2.27,12.16,12.16,0,0,1,1.44,1,13.49,13.49,0,0,0-1.3-1.8,12.09,12.09,0,0,0-3.33-2.75,17.2,17.2,0,0,0-4.64-1.58,24.47,24.47,0,0,1-5-1.5,5.3,5.3,0,0,1-2.79-2.72,3,3,0,0,0,0,1.48A3.93,3.93,0,0,0,12.41,24.92Z"/><path class="a6bf528a-a118-4750-955e-e266e6d758d9" d="M51.62,29.86h0v0Z"/><path class="e95a58f6-5378-4439-8080-a7eb6133d652" d="M41.22,28.33c1.72-.62,3.49-1.09,5.23-1.65a9.92,9.92,0,0,0,4.19-2.12,3.37,3.37,0,0,0,1-3,4.43,4.43,0,0,1-1,1.51,7.3,7.3,0,0,1-2.36,1.46c-3.1,1.27-6.63,1.28-9.53,3.07a13,13,0,0,0-4.21,4.31,13.43,13.43,0,0,1,1.87-1.28A28.43,28.43,0,0,1,41.22,28.33Z"/><path class="ed2164e1-89b1-4b3d-885e-d269287b9865" d="M41.3,16.4a6.76,6.76,0,0,0,3.83,2.91,7.19,7.19,0,0,0,5.08-.45A8.68,8.68,0,0,0,51.3,17s0,0,0-.06A12.53,12.53,0,0,0,51.94,15a21.47,21.47,0,0,0,.26-7.5,31.05,31.05,0,0,0-.64-3.57q-.21-.83-.45-1.65a7.58,7.58,0,0,0-.5-1.3c-.45,1-1,2-1.49,2.91a35.16,35.16,0,0,1-3.91,5.53c-.36.41-.72.8-1.09,1.19l0,0a35.92,35.92,0,0,1-3.83,3.46A7.91,7.91,0,0,0,41.3,16.4ZM50.92,3.31A18.89,18.89,0,0,1,51.59,6a5.44,5.44,0,0,1,.14,2.4.17.17,0,0,1-.33,0,9.59,9.59,0,0,1-.24-2.34,18.66,18.66,0,0,0-.46-2.69A.11.11,0,0,1,50.92,3.31Zm-.19,10.44c.3-1.32.39-2.73.77-4,0-.1.16-.07.18,0A13.22,13.22,0,0,1,51.3,14a16.8,16.8,0,0,1-1.48,4c-.16.32-.65,0-.48-.27A15.45,15.45,0,0,0,50.73,13.75Zm-.84-9c0-.07.18,0,.15.06-.17.44-.28,1-.69,1.31a.12.12,0,0,1-.17-.1C49.19,5.52,49.61,5.11,49.89,4.74Zm-2.4,4A6,6,0,0,1,47.78,8c.1-.21.22-.52.44-.62a.2.2,0,0,1,.3.17,1.4,1.4,0,0,1-.31.65c-.13.22-.27.44-.4.68A.18.18,0,0,1,47.49,8.7Zm-1.4,2.6a4.13,4.13,0,0,1,.85-1.54.18.18,0,0,1,.3.12,3.86,3.86,0,0,1-.55,1.48c-.24.52-.48,1-.71,1.56a26.2,26.2,0,0,1-1.54,3.31,0,0,0,0,1-.09,0,16,16,0,0,1,1.13-3.49C45.68,12.24,45.88,11.77,46.09,11.3ZM42,13.71c.52-.6,1.16-1.1,1.73-1.66s1.09-1.16,1.63-1.75c0,0,.08,0,.06,0a8.69,8.69,0,0,1-3.35,3.45A.06.06,0,0,1,42,13.71Zm-.77.67a8.65,8.65,0,0,0,3,2.88,8.49,8.49,0,0,0,2,.88,4.38,4.38,0,0,0,1.35.15,2.23,2.23,0,0,1,1,0,.11.11,0,0,1,.05.19,2.8,2.8,0,0,1-2.38.33,8.48,8.48,0,0,1-2.32-1,5.87,5.87,0,0,1-2.87-3.43A.07.07,0,0,1,41.23,14.38Z"/><path class="e5d1017e-82f4-4d8c-a68d-807205a14275" d="M53.73,31.6q-.15.43-.27.87a11.22,11.22,0,0,0-.36,3.05,14.65,14.65,0,0,0,.32,3.37c.22,1,.67,1.87.89,2.85A10.08,10.08,0,0,1,54.54,44a.26.26,0,0,1,.17,0,2,2,0,0,0,.85.36,2.77,2.77,0,0,0,1.9-.42,7.61,7.61,0,0,0,1.38-1.34A10,10,0,0,0,60.09,41a2.12,2.12,0,0,0,.26-1.26,12.62,12.62,0,0,0-.82-3,8.69,8.69,0,0,1-.39-1.6,4.59,4.59,0,0,1,.1-1.61c.61-2.62,1.85-5,2.46-7.64a9.34,9.34,0,0,0,.22-3.72,7.58,7.58,0,0,0-.23-.94,1.72,1.72,0,0,0-.07-.21l-.3.19a16.41,16.41,0,0,0-1.48,1.16,20.36,20.36,0,0,0-4.75,6.19h0l0,.07c-.44,1-.88,1.91-1.31,2.87A.11.11,0,0,0,53.73,31.6Zm1.67-2.29c1.41-2.55,3.87-4.29,5.23-6.87a.21.21,0,0,1,.39.11,14.32,14.32,0,0,1-.08,2.93,11.92,11.92,0,0,1-.89,2.4c-.41,1-.86,1.91-1.23,2.89A6.5,6.5,0,0,0,58.2,34c0,.16-.21.24-.25.07-.44-1.89.4-3.69,1.14-5.39a27.73,27.73,0,0,0,1.23-2.92,8.7,8.7,0,0,0,.29-2.37,33.59,33.59,0,0,1-3.4,4.24,11.88,11.88,0,0,0-2.6,5.61c-.29,1.93-.66,4.11.47,5.86.27.41.66.91,1.2.89a2.08,2.08,0,0,0,1.15-.6,2.64,2.64,0,0,0,1-2.5c-.2-1-1.34-2-2.29-1.15s-.07,2.66,1.17,1.91c.22-.13.48.2.27.36a1.53,1.53,0,0,1-2.44-.94,1.9,1.9,0,0,1,1.7-2.32A2.29,2.29,0,0,1,59,36.62a3.26,3.26,0,0,1-.93,3.06c-.63.65-1.64,1.28-2.55.79a4.26,4.26,0,0,1-1.69-2.86A11.65,11.65,0,0,1,54,33.45,12.25,12.25,0,0,1,55.4,29.31Z"/><path class="ed2164e1-89b1-4b3d-885e-d269287b9865" d="M11.37,17a8.85,8.85,0,0,0,1.08,1.86,7.33,7.33,0,0,0,2.79.71A6.7,6.7,0,0,0,20,18a7.77,7.77,0,0,0,2.45-3.91,37.35,37.35,0,0,1-2.86-2.48l-1-1,0,0a34.73,34.73,0,0,1-3.43-4.22A34.33,34.33,0,0,1,12.06,1a7,7,0,0,0-.57,1.52c-.18.61-.34,1.23-.48,1.85a27.78,27.78,0,0,0-.72,7.49,15.29,15.29,0,0,0,1,5A.38.38,0,0,1,11.37,17Zm5.94-6.7c.54.59,1.06,1.19,1.63,1.75s1.2,1,1.72,1.66a.06.06,0,0,1-.06.09,8.62,8.62,0,0,1-3.35-3.45S17.28,10.27,17.31,10.3Zm-1.59-.54a4.07,4.07,0,0,1,.85,1.54c.21.47.42.94.61,1.41a16.19,16.19,0,0,1,1.14,3.49c0,.05-.06.08-.09,0a28.35,28.35,0,0,1-1.55-3.3c-.23-.53-.46-1-.7-1.57a3.7,3.7,0,0,1-.55-1.48A.17.17,0,0,1,15.72,9.76ZM14.45,7.34c.21.1.34.41.44.62a5.94,5.94,0,0,1,.28.74.18.18,0,0,1-.32.14,7.58,7.58,0,0,0-.4-.68c-.11-.2-.31-.42-.3-.65A.2.2,0,0,1,14.45,7.34Zm-.41,11a2.83,2.83,0,0,1,1.16,0,4.23,4.23,0,0,0,1.33-.18,8.45,8.45,0,0,0,1.92-.85,8.56,8.56,0,0,0,3-2.88.08.08,0,0,1,.14.06,5.93,5.93,0,0,1-2.87,3.43,8.61,8.61,0,0,1-2.32,1A2.82,2.82,0,0,1,14,18.52.11.11,0,0,1,14,18.33ZM12.78,4.74c.27.37.7.78.7,1.27,0,.08-.09.15-.16.1-.41-.28-.53-.87-.69-1.31C12.59,4.71,12.73,4.67,12.78,4.74ZM11.07,6a20.37,20.37,0,0,1,.68-2.69.11.11,0,0,1,.21.06,21.9,21.9,0,0,0-.46,2.69,9.63,9.63,0,0,1-.23,2.34.18.18,0,0,1-.33,0A5.43,5.43,0,0,1,11.07,6ZM11,9.74a.09.09,0,0,1,.17,0c.39,1.3.48,2.71.78,4a15,15,0,0,0,1.39,4c.17.31-.32.59-.48.27a16.83,16.83,0,0,1-1.49-4A13.5,13.5,0,0,1,11,9.74Z"/><path class="bd3da68a-0430-45c3-9ec8-3242e92b2773" d="M60.79,22.55c.06.78-.9,1.41-1.37,1.93s-.73.78-1.08,1.19a18.77,18.77,0,0,0-3.6,5.82,11.42,11.42,0,0,0-.47,6.76A3,3,0,0,0,55,39.72a2.06,2.06,0,0,0,2.4.16,2.91,2.91,0,0,0,1.28-2.15,2.59,2.59,0,0,0-.57-2,1.66,1.66,0,0,0-2-.39,6.42,6.42,0,0,1,.9-2.1,3.21,3.21,0,0,0,1.17,1.53,6.31,6.31,0,0,1,.48-4.52,37.43,37.43,0,0,0,1.87-4.26A8.25,8.25,0,0,0,60.79,22.55Z"/><path class="bd3da68a-0430-45c3-9ec8-3242e92b2773" d="M4.46,34.72a3.17,3.17,0,0,0,1.17-1.53,6.42,6.42,0,0,1,.9,2.1,1.66,1.66,0,0,0-2,.39,2.63,2.63,0,0,0-.57,2,2.89,2.89,0,0,0,1.28,2.15,2.06,2.06,0,0,0,2.4-.16,3,3,0,0,0,.75-1.46,11.37,11.37,0,0,0-.47-6.77,18.77,18.77,0,0,0-3.6-5.82c-.35-.4-.71-.8-1.08-1.19s-1.43-1.15-1.37-1.93a8.25,8.25,0,0,0,.23,3.39A37.43,37.43,0,0,0,4,30.2,6.26,6.26,0,0,1,4.46,34.72Z"/><path class="bd3da68a-0430-45c3-9ec8-3242e92b2773" d="M59.91,37a4.27,4.27,0,0,1-.2,3.58l-.12-1.22a9.9,9.9,0,0,1-.75,2.59,3.31,3.31,0,0,1-2,1.75,1.66,1.66,0,0,1-1.53-.25,1.89,1.89,0,0,1-.57-1.16c-.07-.44-.05-.89-.09-1.33a5.21,5.21,0,0,0-1.18-2.64c-.31-.42-.34-1-.64-1.4a3,3,0,0,0,.1,1.86c.2.77.51,1.5.72,2.27,0,.1.05.2.07.31l-.06-.2A5.8,5.8,0,0,1,53.53,43c-.11.41-.13.94-.5,1.14a5.09,5.09,0,0,0-.37-1,2,2,0,0,0-.8-.94c0,.16.13.23.14.38,0,.47.16.92.22,1.38a5,5,0,0,1-1.44,4.49,5.09,5.09,0,0,1-3.68,1.11,12.29,12.29,0,0,0-3.36-.14,2.45,2.45,0,0,1-.59.11.53.53,0,0,1-.48-.3c-.07-.21,0-.45,0-.66a.48.48,0,0,0-.47-.27,1.29,1.29,0,0,0-.54.15c0,.23.33.46.17.63a.26.26,0,0,1-.15.07A1.52,1.52,0,0,1,40.31,49a.82.82,0,0,1,0-1.24A7.28,7.28,0,0,0,37.74,47a3.86,3.86,0,0,1-1.86-.43A3,3,0,0,1,35,44.39a7.75,7.75,0,0,0-.57,2.37A1,1,0,0,0,35,47.9a7.71,7.71,0,0,0,1.74.63,3.44,3.44,0,0,1,1.05.31.94.94,0,0,1,.51.9,1,1,0,0,1-.3.5,3.19,3.19,0,0,1-2.49.63,1,1,0,0,1-.71-.24.93.93,0,0,1-.18-.39c-.16-.53-.29-1.15-.45-1.68a8.18,8.18,0,0,1-1,3.27,3.53,3.53,0,0,1-1.81,1.45,3.51,3.51,0,0,1-1.8-1.45,7.93,7.93,0,0,1-1-3.27c-.16.53-.29,1.15-.45,1.68a1.27,1.27,0,0,1-.18.39,1,1,0,0,1-.71.24,3.19,3.19,0,0,1-2.49-.63.89.89,0,0,1-.3-.5.92.92,0,0,1,.51-.9,3.36,3.36,0,0,1,1.05-.31,7.46,7.46,0,0,0,1.73-.63,1.23,1.23,0,0,0,.46-.35,1.26,1.26,0,0,0,.13-.79,7.47,7.47,0,0,0-.57-2.37,3,3,0,0,1-.91,2.15,3.71,3.71,0,0,1-1.85.43,7.22,7.22,0,0,0-2.57.77.84.84,0,0,1,0,1.24,1.56,1.56,0,0,1-1.35.16.29.29,0,0,1-.16-.07c-.15-.17.17-.4.18-.63a1.33,1.33,0,0,0-.55-.15.48.48,0,0,0-.46.27c-.08.21.05.45,0,.66a.52.52,0,0,1-.48.3,2,2,0,0,1-.59-.11,12.26,12.26,0,0,0-3.36.14,5.11,5.11,0,0,1-3.69-1.11A5.06,5.06,0,0,1,10.44,44c.07-.46.18-.91.22-1.38,0-.15.15-.22.14-.38a2,2,0,0,0-.8.94,4.5,4.5,0,0,0-.36,1c-.38-.2-.4-.73-.5-1.14A5.8,5.8,0,0,1,9,41.14l-.06.2c0-.11,0-.21.08-.31.21-.77.52-1.5.72-2.27a3.12,3.12,0,0,0,.1-1.86c-.31.38-.33,1-.65,1.4A5.19,5.19,0,0,0,8,40.94c-.05.44,0,.89-.1,1.33a1.84,1.84,0,0,1-.57,1.16,1.65,1.65,0,0,1-1.52.25,3.31,3.31,0,0,1-2-1.75,9.55,9.55,0,0,1-.76-2.59c0,.41-.07.82-.11,1.22A4.27,4.27,0,0,1,2.75,37a7.22,7.22,0,0,0-.61,2.5,4.24,4.24,0,0,0,.63,2.46,7.58,7.58,0,0,0,1,1.09l.91.91a3.41,3.41,0,0,0,.92.73,3,3,0,0,0,2.36-.15.8.8,0,0,0,.39-.25.81.81,0,0,0,.12-.37c0-.19.07-.38.11-.57a8.36,8.36,0,0,0,2,6.06A6.41,6.41,0,0,0,13,51.21a10.58,10.58,0,0,0,5.16.17l4.6-.61a1.75,1.75,0,0,1,.79,0,2,2,0,0,1,.73.54,6.35,6.35,0,0,0,2.33,1.38,8.94,8.94,0,0,1,2.2.76c1.17.76,1.54,2.27,2.34,3.4a.46.46,0,0,0,.18.16.46.46,0,0,0,.18-.16c.8-1.13,1.17-2.64,2.33-3.4a9.24,9.24,0,0,1,2.2-.76,6.19,6.19,0,0,0,2.33-1.38,2.14,2.14,0,0,1,.74-.54,1.9,1.9,0,0,1,.79,0l4.6.61a10.58,10.58,0,0,0,5.16-.17,6.41,6.41,0,0,0,2.52-1.82,8.35,8.35,0,0,0,2-6.06c0,.19.07.38.1.57a.91.91,0,0,0,.13.37.82.82,0,0,0,.38.25,3,3,0,0,0,2.37.15,3.41,3.41,0,0,0,.92-.73l.91-.91a6.52,6.52,0,0,0,.94-1.09,4.16,4.16,0,0,0,.63-2.46A6.79,6.79,0,0,0,59.91,37Z"/><path class="bd3da68a-0430-45c3-9ec8-3242e92b2773" d="M35.63,39.6a.13.13,0,0,0-.05.12l.24.14Z"/><path class="bd3da68a-0430-45c3-9ec8-3242e92b2773" d="M52.18,29.45a29.71,29.71,0,0,1-3.37,7.11,10.16,10.16,0,0,1-4,3.26,7,7,0,0,1-3.23.94.88.88,0,0,1-.42-.08c-.11-.06-.21-.17-.34-.18a.82.82,0,0,0-.26.06A1.13,1.13,0,0,1,40,40.5,15.35,15.35,0,0,1,35,37.86a11.56,11.56,0,0,0,2.37,2.42,2.05,2.05,0,0,1-1.81-.54.56.56,0,0,0,.07.16A4.87,4.87,0,0,0,38,41.47a19.15,19.15,0,0,0,3.83,1.21,6.88,6.88,0,0,0,3.94-.36,18.06,18.06,0,0,0,2.38-1.16,8.24,8.24,0,0,0,3.58-5.48,18.26,18.26,0,0,1-3.37,3.14,14.62,14.62,0,0,0,3.1-4.23A8.39,8.39,0,0,0,52.18,29.45Z"/><path class="bd3da68a-0430-45c3-9ec8-3242e92b2773" d="M35.55,39.71l0,0h0Z"/><path class="bd3da68a-0430-45c3-9ec8-3242e92b2773" d="M27.09,39.72v0l0,0Z"/><path class="bd3da68a-0430-45c3-9ec8-3242e92b2773" d="M27.65,37.86a15.35,15.35,0,0,1-4.93,2.64,1.13,1.13,0,0,1-.63.06.82.82,0,0,0-.26-.06c-.13,0-.23.12-.34.18a.83.83,0,0,1-.42.08,7,7,0,0,1-3.23-.94,10.2,10.2,0,0,1-4-3.26,29.74,29.74,0,0,1-3.38-7.11,8.39,8.39,0,0,0,.7,5.14,15,15,0,0,0,3.1,4.23,18.58,18.58,0,0,1-3.37-3.14,8.27,8.27,0,0,0,3.58,5.48,15.87,15.87,0,0,0,2.38,1.16,6.91,6.91,0,0,0,3.95.36,18.44,18.44,0,0,0,3.82-1.21A4.82,4.82,0,0,0,27,39.9a.56.56,0,0,0,.07-.16,2.05,2.05,0,0,1-1.81.54A11.32,11.32,0,0,0,27.65,37.86Z"/><path class="bd3da68a-0430-45c3-9ec8-3242e92b2773" d="M27,39.6l-.19.26.24-.14A.11.11,0,0,0,27,39.6Z"/><path class="bd3da68a-0430-45c3-9ec8-3242e92b2773" d="M33.69,33a3.56,3.56,0,0,0-.92,2.58,5.12,5.12,0,0,0,.4,1.37,12.79,12.79,0,0,0,.51,1.29c.21-.22.19-.73.28-1a6,6,0,0,1,.51-1.13,6.65,6.65,0,0,1,1.47-2l-1.49,1a.76.76,0,0,1,.27-.53,14.8,14.8,0,0,1,4.44-3.37c2.8-1.38,6-1.85,8.78-3.19,1.51-.71,3-1.83,3.33-3.47-1.05,1.4-2.86,1.95-4.54,2.45A48,48,0,0,0,35.9,31.28,8.48,8.48,0,0,0,33.69,33Z"/><path class="bd3da68a-0430-45c3-9ec8-3242e92b2773" d="M11.4,24.44c.31,1.64,1.82,2.76,3.33,3.47,2.81,1.34,6,1.81,8.78,3.19A14.93,14.93,0,0,1,28,34.47a.71.71,0,0,1,.26.53l-1.48-1a6.65,6.65,0,0,1,1.47,2,6,6,0,0,1,.5,1.13c.1.31.08.82.29,1A11.92,11.92,0,0,0,29.5,37a5.52,5.52,0,0,0,.4-1.37A3.56,3.56,0,0,0,29,33a8.48,8.48,0,0,0-2.21-1.72,48.14,48.14,0,0,0-10.83-4.39C14.26,26.39,12.45,25.84,11.4,24.44Z"/><path class="bd3da68a-0430-45c3-9ec8-3242e92b2773" d="M44.85,19.89a6.14,6.14,0,0,0,5.63.69A3,3,0,0,1,50,21.72a5.52,5.52,0,0,0,1.59-2.11,6.13,6.13,0,0,1,1.1,2.45,50.33,50.33,0,0,1,.93,5.19,10.1,10.1,0,0,1,.14,2.85l.6-.8a1.77,1.77,0,0,0,.37-.67,1.72,1.72,0,0,0,0-.64c-.11-.81-.22-1.62-.35-2.43a28.64,28.64,0,0,0-1.1-5,15.62,15.62,0,0,0-1.71-3.48,2.32,2.32,0,0,0-.46.77,3.14,3.14,0,0,1-1.73,1.65,6,6,0,0,1-1.93.32,12,12,0,0,1-2.61,0s0,0-.07,0S44.86,19.92,44.85,19.89Z"/><path class="bd3da68a-0430-45c3-9ec8-3242e92b2773" d="M8.31,29.3l.6.8a10.1,10.1,0,0,1,.14-2.85A50.33,50.33,0,0,1,10,22.06a6.13,6.13,0,0,1,1.1-2.45,5.44,5.44,0,0,0,1.6,2.11,3,3,0,0,1-.49-1.14,6.13,6.13,0,0,0,5.63-.68s.1-.08.09-.1-.05,0-.07,0a12.64,12.64,0,0,1-2.61,0,6.55,6.55,0,0,1-1.92-.32,3.21,3.21,0,0,1-1.74-1.66,2.43,2.43,0,0,0-.46-.77A15.62,15.62,0,0,0,9.4,20.54a28.84,28.84,0,0,0-1.1,5c-.12.81-.24,1.62-.35,2.43a1.72,1.72,0,0,0,0,.64A1.92,1.92,0,0,0,8.31,29.3Z"/><path class="bd3da68a-0430-45c3-9ec8-3242e92b2773" d="M28.87,31a6.1,6.1,0,0,1-1.27-.93,16.11,16.11,0,0,1,2,3.76.67.67,0,0,0,.25.41c.26.16.57-.1.8-.31a2.08,2.08,0,0,1,.71-.5,2.14,2.14,0,0,1,.7.5c.23.21.54.47.8.31a.67.67,0,0,0,.25-.41,16.11,16.11,0,0,1,2-3.76A5.76,5.76,0,0,1,33.8,31c-.1.06-.24.11-.32,0s0-.21,0-.32c.43-1.07,1-2.11,1.49-3.14a12.48,12.48,0,0,1-1.14,1.16c-.15.13-.39.25-.5.1a.36.36,0,0,1,0-.36,13.43,13.43,0,0,1,1.52-2.72,4.24,4.24,0,0,0-1.62,2,3.34,3.34,0,0,1-.84,1.6c0-.22.37-1.16.13-1.29s-.45.69-.55.84a1.19,1.19,0,0,1-.64.39,1.27,1.27,0,0,1-.63-.39c-.1-.15-.42-.91-.55-.84s.08,1.07.13,1.29a3.34,3.34,0,0,1-.84-1.6,4.24,4.24,0,0,0-1.62-2,13.43,13.43,0,0,1,1.52,2.72.36.36,0,0,1,0,.36c-.12.15-.36,0-.5-.1a11.34,11.34,0,0,1-1.14-1.16c.53,1,1.06,2.07,1.49,3.14,0,.11.07.24,0,.32S29,31,28.87,31Z"/><path class="b27c7083-87ae-46f0-83e7-626e61d443a9" d="M42.6,11.71A6,6,0,0,0,41.8,13a.27.27,0,0,0,0,.15.19.19,0,0,0,.22.15.7.7,0,0,0,.28-.12,17,17,0,0,0,1.55-1.26A3.91,3.91,0,0,0,42.94,14c0,.33.15.72.47.77a.85.85,0,0,0,.68-.37,14.55,14.55,0,0,0,1.82-2.52c-.08.68-.06,1.21-.14,1.9a5.44,5.44,0,0,0-.05,1.56,2,2,0,0,0,.72,1.34,2,2,0,0,0,2.33-.18,4.72,4.72,0,0,0,1.36-2.07,17.82,17.82,0,0,0,1-9.53,5.79,5.79,0,0,0-.53-1.79,14,14,0,0,1,2,7.12,19.3,19.3,0,0,1-1.35,7.31,4.1,4.1,0,0,1-.63,1.21,3.45,3.45,0,0,1-1.32.93,4.86,4.86,0,0,1-2.15.48,7.25,7.25,0,0,1-1.65-.35,7,7,0,0,1-2.39-1,5.46,5.46,0,0,1-1-1.08,14.34,14.34,0,0,1-1.9-3.34,1.23,1.23,0,0,1-.1-.46,1,1,0,0,1,.29-.52,16.84,16.84,0,0,1,2.73-2.47A7.39,7.39,0,0,0,42.6,11.71Z"/><path class="b27c7083-87ae-46f0-83e7-626e61d443a9" d="M20.07,11.71a6,6,0,0,1,.8,1.31.27.27,0,0,1,0,.15.19.19,0,0,1-.22.15.7.7,0,0,1-.28-.12,17,17,0,0,1-1.55-1.26A3.91,3.91,0,0,1,19.73,14c0,.33-.15.72-.47.77s-.49-.17-.68-.37a14.55,14.55,0,0,1-1.82-2.52c.08.68.06,1.21.15,1.9a5.83,5.83,0,0,1,0,1.56,2,2,0,0,1-.72,1.34,2,2,0,0,1-2.33-.18,4.72,4.72,0,0,1-1.36-2.07,17.82,17.82,0,0,1-1-9.53A5.79,5.79,0,0,1,12,3.11a14.06,14.06,0,0,0-2,7.12,19.3,19.3,0,0,0,1.35,7.31A4.1,4.1,0,0,0,12,18.75a3.45,3.45,0,0,0,1.32.93,4.86,4.86,0,0,0,2.15.48,7.25,7.25,0,0,0,1.65-.35,7,7,0,0,0,2.39-1,5.46,5.46,0,0,0,1-1.08,14.34,14.34,0,0,0,1.9-3.34,1.06,1.06,0,0,0,.1-.46,1,1,0,0,0-.29-.52,16.84,16.84,0,0,0-2.73-2.47A7.39,7.39,0,0,1,20.07,11.71Z"/><path class="e094ebd1-d6ba-4c01-87c9-e4830e5349aa" d="M44.66,44.64a13.8,13.8,0,0,0,3.54-1.39,2.11,2.11,0,0,1,1.37-.4,3,3,0,0,1-1.18,1.41,4.31,4.31,0,0,0,2.83-1.68,3.38,3.38,0,0,1-.4,1.52A4.27,4.27,0,0,1,48.53,46a7.91,7.91,0,0,1-3,.4A9.59,9.59,0,0,1,39,43.81a3.81,3.81,0,0,0,1.42.54c.32.11.62.25.95.34A7.18,7.18,0,0,0,44.66,44.64Z"/><path class="e094ebd1-d6ba-4c01-87c9-e4830e5349aa" d="M18,44.64a13.73,13.73,0,0,1-3.55-1.39,2.11,2.11,0,0,0-1.37-.4,3,3,0,0,0,1.18,1.41,4.31,4.31,0,0,1-2.83-1.68,3.38,3.38,0,0,0,.4,1.52A4.3,4.3,0,0,0,14.14,46a7.91,7.91,0,0,0,3,.4,9.61,9.61,0,0,0,6.52-2.59,3.93,3.93,0,0,1-1.43.54c-.32.11-.62.25-.95.34A7.14,7.14,0,0,1,18,44.64Z"/><path class="e094ebd1-d6ba-4c01-87c9-e4830e5349aa" d="M40.71,21.84a6.54,6.54,0,0,1,5.31.25l-1.54.52,1.19.08a5.45,5.45,0,0,1-2.35.46,14.63,14.63,0,0,0-7.6,2.78c-.22.15-.71.73-1,.51s.1-.76.21-1a5.09,5.09,0,0,1,1.88-1.56A16.7,16.7,0,0,1,40.71,21.84Z"/><path class="e094ebd1-d6ba-4c01-87c9-e4830e5349aa" d="M22,21.84a6.56,6.56,0,0,0-5.32.25l1.54.52L17,22.69a5.45,5.45,0,0,0,2.35.46A14.63,14.63,0,0,1,27,25.93c.22.15.71.73,1,.51s-.1-.76-.21-1a5.09,5.09,0,0,0-1.88-1.56A16.83,16.83,0,0,0,22,21.84Z"/><path class="e094ebd1-d6ba-4c01-87c9-e4830e5349aa" d="M50.39,27.45l.87-.35A.84.84,0,0,1,51.7,27a.83.83,0,0,1,.51.46L53,28.76l-.63-4.9A6.88,6.88,0,0,1,50.39,27.45Z"/><path class="e094ebd1-d6ba-4c01-87c9-e4830e5349aa" d="M12.28,27.45l-.87-.35A.84.84,0,0,0,11,27a.83.83,0,0,0-.51.46l-.78,1.28.63-4.9A6.88,6.88,0,0,0,12.28,27.45Z"/><path class="e8a7e3c4-84e9-45bf-abda-0e34cb6f7b2b" d="M46.88,13.66l.84-.6a9,9,0,0,0,0,1.3c0,.46-.18.9-.25,1.36.39,0,.86-.46,1.07-.75a4.62,4.62,0,0,0,.62-1.21,19.15,19.15,0,0,0,1.3-5.25,13.73,13.73,0,0,0,0-2.72c0-.11,0-.43-.13-.46s-.27.24-.32.33c-.2.4-.34.83-.52,1.25-.06.14-.12.29-.19.43A21.65,21.65,0,0,0,46.88,13.66Z"/><path class="e8a7e3c4-84e9-45bf-abda-0e34cb6f7b2b" d="M15.79,13.66l-.84-.6a9,9,0,0,1,0,1.3c0,.46.18.9.25,1.36-.39,0-.86-.46-1.07-.75a4.62,4.62,0,0,1-.62-1.21,19.15,19.15,0,0,1-1.3-5.25,13.73,13.73,0,0,1,0-2.72c0-.11,0-.43.13-.46s.27.24.32.33c.2.4.34.83.52,1.25.06.14.12.29.19.43A21.37,21.37,0,0,1,15.79,13.66Z"/><path class="b27c7083-87ae-46f0-83e7-626e61d443a9" d="M40.32,10.18c.26.16.55.36.6.67a7.88,7.88,0,0,0-1.34.31c.35.16.82.06,1.08.34s.07.79-.14,1.15l-.71,1.19a26,26,0,0,0,3.66-3.14.46.46,0,0,0,.15-.27c0-.12-.1-.2-.19-.27a5.11,5.11,0,0,0-1.82-.7L39.52,9c-.35-.08-.7-.14-1.05-.23s-.85-.07-.36.29S39.63,9.77,40.32,10.18Z"/><path class="b27c7083-87ae-46f0-83e7-626e61d443a9" d="M22.35,10.18c-.26.16-.55.36-.6.67a7.88,7.88,0,0,1,1.34.31c-.35.16-.82.06-1.08.34s-.07.79.14,1.15l.72,1.19A25.57,25.57,0,0,1,19.2,10.7a.46.46,0,0,1-.15-.27.4.4,0,0,1,.19-.27,5.11,5.11,0,0,1,1.82-.7L23.15,9c.35-.08.7-.14,1.05-.23s.85-.07.36.29S23,9.77,22.35,10.18Z"/><path class="e094ebd1-d6ba-4c01-87c9-e4830e5349aa" d="M35.12,12.53a7.61,7.61,0,0,0,3,0,.32.32,0,0,0,.24-.18.29.29,0,0,0-.09-.26c-.5-.6-1.48-.53-2-1.08.66-.3,1.32-.59,2-.87a.83.83,0,0,0-.58-.36,18.72,18.72,0,0,0-5.5-.89,10,10,0,0,0-5.3,1.5c.2.25.58.24.91.23a3.06,3.06,0,0,1,1.76.35.25.25,0,0,1,.14.19c0,.12-.15.18-.27.2a17.68,17.68,0,0,0-2.39.46,6.32,6.32,0,0,0-2.5,1.65c-.71.74-.15.93.6.75a55.46,55.46,0,0,1,6.25-1.57A18.08,18.08,0,0,1,35.12,12.53Z"/><path class="e094ebd1-d6ba-4c01-87c9-e4830e5349aa" d="M30.63,37.62a45,45,0,0,0-1.46,6,6.82,6.82,0,0,0,1.74,5.73,22.09,22.09,0,0,1-.08-7.21,1.35,1.35,0,0,1-.49.86,19,19,0,0,1,1-4.37c.34-1.36.55-3.08-.27-4.32C31,35.43,30.63,36.56,30.63,37.62Z"/><path class="af0f926f-4d1c-4af4-b762-10f94538459c" d="M12.17,0a.32.32,0,0,0-.28.1A5.08,5.08,0,0,0,11,2c-.17.56-.33,1.12-.47,1.68a32.72,32.72,0,0,0-.68,3.79,22.23,22.23,0,0,0,.29,7.8A13.52,13.52,0,0,0,10.68,17,22,22,0,0,0,8,24.59c-.12.71-.22,1.43-.28,2.14,0,.19,0,.37,0,.56a20.46,20.46,0,0,0-4.53-5.52,17.35,17.35,0,0,0-1.61-1.21.81.81,0,0,0-.54-.19.58.58,0,0,0-.42.29,3.11,3.11,0,0,0-.32,1,9.33,9.33,0,0,0,0,4c.57,2.74,1.9,5.27,2.54,8a4,4,0,0,1,.08,1.57,12.47,12.47,0,0,1-.44,1.62,8.87,8.87,0,0,0-.76,3.19,2.7,2.7,0,0,0,.49,1.48A15,15,0,0,0,3.6,43.37,6,6,0,0,0,5.12,44.7,3.49,3.49,0,0,0,7.34,45a2.44,2.44,0,0,0,.82-.33,8.41,8.41,0,0,0,1.6,4.4A7.6,7.6,0,0,0,15.22,52a13.32,13.32,0,0,0,3.61-.44,27.34,27.34,0,0,1,3.72-.43c.31,0,.62,0,.94,0h.07a3.77,3.77,0,0,0,2.19,1.66,14.8,14.8,0,0,1,2.14.88,11.93,11.93,0,0,1,1.53,1.11,15.34,15.34,0,0,0,1.68,2.71.35.35,0,0,0,.47,0,14.78,14.78,0,0,0,1.68-2.71,12.41,12.41,0,0,1,1.44-1.06,12.44,12.44,0,0,1,2.13-.89,4,4,0,0,0,2.3-1.7h.06a29.48,29.48,0,0,1,3.75.31c1.23.17,2.44.55,3.7.6a7.62,7.62,0,0,0,5.81-2.37,8.36,8.36,0,0,0,2.07-5,2.87,2.87,0,0,0,2,.34,3.64,3.64,0,0,0,1.91-1,15.42,15.42,0,0,0,1.44-1.58,5.46,5.46,0,0,0,1-1.66,5.16,5.16,0,0,0-.37-3.14,9.36,9.36,0,0,1-.76-3.19,7.86,7.86,0,0,1,.4-1.84c.2-.68.44-1.35.68-2,.47-1.32,1-2.62,1.35-4a10.86,10.86,0,0,0,.44-4,8.85,8.85,0,0,0-.17-1,3.12,3.12,0,0,0-.31-.95.65.65,0,0,0-.38-.29.76.76,0,0,0-.59.18c-.28.19-.55.38-.82.59a20.33,20.33,0,0,0-5.31,6.14c-.06-.73-.14-1.46-.25-2.18a23.09,23.09,0,0,0-1-4A20.44,20.44,0,0,0,52,17a15.28,15.28,0,0,0,1-5.13,28.29,28.29,0,0,0-.75-7.78c-.15-.64-.31-1.28-.51-1.92a5.58,5.58,0,0,0-1-2.09.33.33,0,0,0-.52.06A34.19,34.19,0,0,1,47,6a33.9,33.9,0,0,1-3.25,4,33.07,33.07,0,0,0-9.62-2.25c-.84-.09-1.67-.16-2.51-.23a8.85,8.85,0,0,0-1.26,0l-1.29.12a47.39,47.39,0,0,0-5,.72A26.65,26.65,0,0,0,18.89,10c-.34-.35-.67-.71-1-1.08a34.3,34.3,0,0,1-3.83-5.43A33.79,33.79,0,0,1,12.4.16.28.28,0,0,0,12.17,0Zm-.11,1a35.14,35.14,0,0,0,3.06,5.41,35.62,35.62,0,0,0,3.43,4.23l0,0,1,1a33.78,33.78,0,0,0,2.87,2.48A7.9,7.9,0,0,1,20,18a6.79,6.79,0,0,1-4.72,1.55,7.23,7.23,0,0,1-2.78-.71A8.89,8.89,0,0,1,11.37,17a.27.27,0,0,0-.06-.12,15.4,15.4,0,0,1-1-5A27.78,27.78,0,0,1,11,4.35c.14-.62.3-1.24.48-1.85A7.53,7.53,0,0,1,12.06,1ZM50.6,1a6.88,6.88,0,0,1,.51,1.3c.16.55.31,1.1.44,1.65a28.88,28.88,0,0,1,.65,3.58A21.66,21.66,0,0,1,51.94,15a12.53,12.53,0,0,1-.62,1.91s0,0,0,.06a8.68,8.68,0,0,1-1.09,1.89,7.19,7.19,0,0,1-5.08.45A6.8,6.8,0,0,1,41.3,16.4a7.66,7.66,0,0,1-1-2.29,34.88,34.88,0,0,0,3.83-3.46l0,0q.56-.58,1.08-1.2a35,35,0,0,0,3.92-5.53A31.8,31.8,0,0,0,50.6,1Zm.18,2.25a.11.11,0,0,0-.08.13,19,19,0,0,1,.46,2.7,9.51,9.51,0,0,0,.24,2.33.17.17,0,0,0,.33,0A5.55,5.55,0,0,0,51.59,6a19.4,19.4,0,0,0-.68-2.7A.11.11,0,0,0,50.78,3.23Zm-38.89,0a.1.1,0,0,0-.14.06A20.91,20.91,0,0,0,11.07,6a5.39,5.39,0,0,0-.13,2.39.17.17,0,0,0,.33,0,9.45,9.45,0,0,0,.23-2.33A22.23,22.23,0,0,1,12,3.37.1.1,0,0,0,11.89,3.24Zm.78,1.47a.07.07,0,0,0,0,.09c.16.44.28,1,.69,1.31A.11.11,0,0,0,13.49,6c0-.5-.44-.9-.71-1.28A.11.11,0,0,0,12.67,4.71ZM50,4.71a.1.1,0,0,0-.1,0c-.28.38-.71.78-.71,1.28a.11.11,0,0,0,.17.09c.41-.28.52-.87.69-1.31A.08.08,0,0,0,50,4.71ZM14.25,7.34a.18.18,0,0,0-.1.17c0,.23.19.45.3.65a7.58,7.58,0,0,1,.4.68c.1.17.39.05.32-.14A6.77,6.77,0,0,0,14.89,8c-.1-.2-.23-.52-.44-.61A.23.23,0,0,0,14.25,7.34Zm34,0c-.22.09-.34.41-.44.61a6.83,6.83,0,0,0-.29.75.18.18,0,0,0,.32.14c.12-.24.27-.46.4-.68a1.4,1.4,0,0,0,.31-.65A.2.2,0,0,0,48.22,7.34ZM31,8.19a7.55,7.55,0,0,1,1.26.06l1.26.11a47.76,47.76,0,0,1,4.9.7,26,26,0,0,1,4.87,1.47l-.6.59a33.18,33.18,0,0,1-3,2.59l-.07.07a.24.24,0,0,0-.09.18,0,0,0,0,0,0,0v.08s0,0,0,0a8.55,8.55,0,0,0,2.74,4.45,7.37,7.37,0,0,0,5.14,1.69,7.75,7.75,0,0,0,3.06-.79l.11-.05a.36.36,0,0,0,.11-.14,9.9,9.9,0,0,0,.91-1.49,22,22,0,0,1,2.59,8c.12.89.19,1.78.24,2.67L53.3,30.93c-.06.12-.11.25-.17.38a.2.2,0,0,0,0,.11h0a11.36,11.36,0,0,0-.62,3.15,18.08,18.08,0,0,0,.11,3.29,11.45,11.45,0,0,0,.32,1.65c.14.5.34,1,.51,1.46a8.59,8.59,0,0,1,.47,2.61,8.13,8.13,0,0,1-1.45,5.06,6.86,6.86,0,0,1-5.12,2.72,14.71,14.71,0,0,1-3.49-.45,28.7,28.7,0,0,0-3.7-.42l-.79,0s0,0,0-.06a1.79,1.79,0,0,0-1.38-2A10.69,10.69,0,0,0,36.38,48,3.8,3.8,0,0,1,35,47.64c-.09-.06-.18.07-.11.15a4,4,0,0,0,2,1.05c.93.29,2.12.67,1.49,1.9-.55,1.08-2.08,1.32-3.09,1.77-.26.12-.52.25-.77.39.1-.3.17-.58.22-.8a4.41,4.41,0,0,0-.46-3.28s-.08,0-.08,0a6,6,0,0,1-.18,3.26,10.55,10.55,0,0,1-.55,1.3l-.07.13h0a9.48,9.48,0,0,0-1.13,1.79,9.3,9.3,0,0,1-.85,1.38,9.24,9.24,0,0,1-.84-1.38,10.07,10.07,0,0,0-1.14-1.79,0,0,0,0,0,0,0s0,0,0,0a13.23,13.23,0,0,1-.6-1.39,6.23,6.23,0,0,1-.18-3.26,0,0,0,0,0-.08,0A4.41,4.41,0,0,0,28,52.1a6.21,6.21,0,0,0,.24.81c-.23-.13-.46-.24-.7-.35-1-.48-2.62-.72-3.19-1.82s.5-1.59,1.42-1.88a4.2,4.2,0,0,0,2-1.07c.06-.08,0-.21-.11-.15a3.44,3.44,0,0,1-1.35.37,12.12,12.12,0,0,0-1.58.38,1.81,1.81,0,0,0-1.46,2s0,0,0,.06a31.38,31.38,0,0,0-3.62.31c-1.19.16-2.35.52-3.56.59a7,7,0,0,1-5.54-2.24,7.76,7.76,0,0,1-1.84-4.87,9.09,9.09,0,0,1,.28-2.65c.12-.45.29-.87.45-1.3a11.15,11.15,0,0,0,.44-1.6,16.35,16.35,0,0,0,.27-3.35,12.1,12.1,0,0,0-.38-3.06c-.08-.29-.17-.59-.27-.87h0a.2.2,0,0,0,0-.11c-.4-.89-.81-1.77-1.22-2.66l-.12-.27a29,29,0,0,1,.59-4.64,22.85,22.85,0,0,1,1.37-4.27c.26-.58.55-1.16.86-1.72a10,10,0,0,0,.92,1.49.36.36,0,0,0,.11.14l.11.05a7.81,7.81,0,0,0,5.52.52,7.51,7.51,0,0,0,4.22-3.15,8.57,8.57,0,0,0,1.19-2.72V14h0V14a.08.08,0,0,0,0,0h0a.31.31,0,0,0,0-.1l-.1-.1a34.66,34.66,0,0,1-3.57-3.18,32.45,32.45,0,0,1,9.17-2.11C29.36,8.33,30.18,8.26,31,8.19ZM11.07,9.66a.08.08,0,0,0-.08.08A13.5,13.5,0,0,0,11.36,14a16.41,16.41,0,0,0,1.49,4c.16.32.65,0,.47-.28a15.13,15.13,0,0,1-1.39-4c-.3-1.32-.38-2.73-.77-4A.07.07,0,0,0,11.07,9.66Zm40.53,0a.08.08,0,0,0-.1.06c-.38,1.3-.47,2.71-.77,4a15.13,15.13,0,0,1-1.39,4c-.18.32.32.6.48.28a16.8,16.8,0,0,0,1.48-4,13.5,13.5,0,0,0,.38-4.29S51.63,9.66,51.6,9.66Zm-36.07.07a.15.15,0,0,0-.11.15A3.88,3.88,0,0,0,16,11.36c.24.52.47,1,.7,1.57a28.35,28.35,0,0,0,1.55,3.3c0,.05.09,0,.09,0a16,16,0,0,0-1.14-3.49c-.19-.47-.4-.94-.61-1.41a4.07,4.07,0,0,0-.85-1.54A.19.19,0,0,0,15.53,9.73Zm31.6,0a.19.19,0,0,0-.19,0,4.21,4.21,0,0,0-.85,1.54c-.21.47-.41.94-.61,1.41a16,16,0,0,0-1.13,3.49,0,0,0,0,0,.09,0A28.28,28.28,0,0,0,46,12.93c.23-.53.47-1,.71-1.57a3.86,3.86,0,0,0,.55-1.48A.14.14,0,0,0,47.13,9.73Zm-1.72.57s0,0,0,0c-.54.59-1.07,1.19-1.63,1.75s-1.21,1-1.73,1.66a.06.06,0,0,0,.07.09,8.69,8.69,0,0,0,3.35-3.45A0,0,0,0,0,45.41,10.3Zm-28.15,0s0,0,0,0A8.69,8.69,0,0,0,20.6,13.8s.1,0,.06-.09c-.52-.6-1.16-1.1-1.72-1.66s-1.09-1.16-1.63-1.75A0,0,0,0,0,17.26,10.3Zm4.26,4a.08.08,0,0,0-.09,0,8.68,8.68,0,0,1-3,2.89,8.88,8.88,0,0,1-1.92.84,4.23,4.23,0,0,1-1.33.18,2.83,2.83,0,0,0-1.16,0,.11.11,0,0,0,0,.19,2.82,2.82,0,0,0,2.39.33,8.61,8.61,0,0,0,2.32-1,5.85,5.85,0,0,0,2.86-3.43A.08.08,0,0,0,21.52,14.35Zm19.62,0a.08.08,0,0,0,0,.09A5.9,5.9,0,0,0,44,17.87a8.48,8.48,0,0,0,2.32,1,2.83,2.83,0,0,0,2.39-.33c.07-.06,0-.16-.06-.19a2.23,2.23,0,0,0-1,0,4.38,4.38,0,0,1-1.35-.15,8.22,8.22,0,0,1-2-.87,8.5,8.5,0,0,1-3-2.89A.1.1,0,0,0,41.14,14.35Zm-30,6a.34.34,0,0,0-.17.05.32.32,0,0,0-.21.14,3.69,3.69,0,0,0,.47,4.18,8.56,8.56,0,0,0,4.13,2.4c1.77.6,3.58,1.08,5.35,1.68a28,28,0,0,1,5,2.24,13,13,0,0,1,1.94,1.28,9.75,9.75,0,0,1,1.52,1.56l.16.4a.4.4,0,0,0,.1.15c0,2.21-.83,4.34-1.41,6.43a11.61,11.61,0,0,0-.53,3c0,1.21.52,2.34.6,3.55,0,.08.12.1.14,0C28.56,46.24,28,45.2,28,44a13.73,13.73,0,0,1,.67-3.35c.33-1.16.81-2.43,1.08-3.71a6.88,6.88,0,0,0,.33-1.86,2.15,2.15,0,0,0-.15-1,.5.5,0,0,0,0-.12,2.9,2.9,0,0,0,.79-1.79,7.52,7.52,0,0,0-.8-4.47.06.06,0,0,0-.12,0,21.75,21.75,0,0,1,.23,4.41,4.19,4.19,0,0,1-.29,1l-.11.26a14.2,14.2,0,0,0-5.11-6.23,14.18,14.18,0,0,0-4.39-1.8c-1.68-.43-3.4-.72-5-1.31s-3.42-1.59-3.65-3.42A.33.33,0,0,0,11.17,20.32Zm40.33,0a.33.33,0,0,0-.33.33c-.2,1.59-1.68,2.61-3,3.19a31.34,31.34,0,0,1-5,1.39,16.14,16.14,0,0,0-4.56,1.68,13.27,13.27,0,0,0-3.31,2.85A15,15,0,0,0,33,33.41l-.1-.21a4.23,4.23,0,0,1-.31-1.09,22.42,22.42,0,0,1,.23-4.41.06.06,0,0,0-.11,0,7.55,7.55,0,0,0-.81,4.48,2.94,2.94,0,0,0,.8,1.78.49.49,0,0,0,0,.12,2.31,2.31,0,0,0-.15,1,6.88,6.88,0,0,0,.33,1.86c.27,1.28.75,2.55,1.08,3.71a14.18,14.18,0,0,1,.67,3.27c0,1.23-.53,2.3-.18,3.51a.07.07,0,0,0,.13,0c.08-1.18.6-2.3.6-3.49a11.3,11.3,0,0,0-.52-3.09c-.58-2.09-1.42-4.22-1.41-6.43a.56.56,0,0,0,.1-.15c0-.13.1-.26.15-.39a10.13,10.13,0,0,1,1.31-1.39,11.6,11.6,0,0,1,1.68-1.19A27.55,27.55,0,0,1,41.27,29c1.76-.64,3.57-1.12,5.35-1.69A10.94,10.94,0,0,0,51,25.1a3.76,3.76,0,0,0,.84-4.59.31.31,0,0,0-.2-.14A.37.37,0,0,0,51.5,20.32Zm-50.45.74h0l.08.05.22.15c.25.17.49.35.73.54a19.76,19.76,0,0,1,5,5.93c.16.29.32.57.46.87h0c.21.49.44,1,.67,1.46l.67,1.47s0,0,0,.06a11,11,0,0,1,.62,3.1,17.07,17.07,0,0,1-.16,3.35A10.49,10.49,0,0,1,9,39.7c-.14.47-.35.91-.5,1.38a9.75,9.75,0,0,0-.41,2.78s0,.1,0,.14a.26.26,0,0,0-.17,0,2.22,2.22,0,0,1-1.89.3A2.84,2.84,0,0,1,5.19,44a4.5,4.5,0,0,1-.7-.61,16.69,16.69,0,0,1-1.36-1.56,3.47,3.47,0,0,1-.78-1.43,3.28,3.28,0,0,1,.07-1.32,13.52,13.52,0,0,1,.47-1.53,8.49,8.49,0,0,0,.67-3.13,8.79,8.79,0,0,0-.4-1.83c-.19-.65-.41-1.3-.63-1.94-.45-1.26-.95-2.51-1.32-3.8a11.31,11.31,0,0,1-.55-3.74A7,7,0,0,1,1,21.22a.83.83,0,0,1,0-.15Zm60.57,0a1.18,1.18,0,0,1,.07.2,7.73,7.73,0,0,1,.23.95,9.3,9.3,0,0,1-.22,3.71c-.62,2.61-1.85,5-2.45,7.64a4.37,4.37,0,0,0-.11,1.61,8.69,8.69,0,0,0,.39,1.6,12.68,12.68,0,0,1,.82,3A2.21,2.21,0,0,1,60.09,41a10.53,10.53,0,0,1-1.25,1.65A7.9,7.9,0,0,1,57.46,44a2.77,2.77,0,0,1-1.9.42,1.85,1.85,0,0,1-.85-.36.26.26,0,0,0-.17,0,10.08,10.08,0,0,0-.23-2.26c-.22-1-.67-1.87-.89-2.85a15.14,15.14,0,0,1-.33-3.36,12.09,12.09,0,0,1,.36-3.06c.08-.29.17-.58.27-.86a.13.13,0,0,0,0-.06l1.32-2.87,0-.06h0a20.28,20.28,0,0,1,4.75-6.2,18.42,18.42,0,0,1,1.48-1.16Zm-50.56.45a5.3,5.3,0,0,0,2.79,2.72,24.47,24.47,0,0,0,5,1.5,17.65,17.65,0,0,1,4.64,1.57,12.45,12.45,0,0,1,3.33,2.76,14.44,14.44,0,0,1,1.3,1.8,12.16,12.16,0,0,0-1.44-1,28.32,28.32,0,0,0-4.62-2.28c-1.71-.65-3.47-1.14-5.22-1.68-.83-.25-1.65-.51-2.45-.83a7.65,7.65,0,0,1-2-1.13A3.93,3.93,0,0,1,11.1,23,2.86,2.86,0,0,1,11.06,21.52Zm40.54,0a3.34,3.34,0,0,1-1,3,9.92,9.92,0,0,1-4.19,2.12c-1.74.56-3.51,1-5.23,1.65a28.89,28.89,0,0,0-4.85,2.26,15.85,15.85,0,0,0-1.87,1.28,13.17,13.17,0,0,1,4.22-4.31c2.9-1.79,6.42-1.8,9.52-3.07A7.26,7.26,0,0,0,50.61,23,4.13,4.13,0,0,0,51.6,21.52Zm-49.8.83a.23.23,0,0,0-.16.2,16.7,16.7,0,0,0,.07,2.83,10.92,10.92,0,0,0,.9,2.51c.4.92.83,1.83,1.19,2.77A6.63,6.63,0,0,1,4.46,34c0,.16.21.24.25.07.44-1.88-.4-3.69-1.13-5.39a31,31,0,0,1-1.24-2.91,8.4,8.4,0,0,1-.28-2.38A24.31,24.31,0,0,0,5,27.07,13.09,13.09,0,0,1,7.9,32.41a17,17,0,0,1,.45,3.24,6.5,6.5,0,0,1-.44,2.83c-.34.82-1,1.84-2,1.38a3.09,3.09,0,0,1-1.64-2c-.21-1,.46-2.61,1.73-2.37,1.69.32.92,3.09-.59,2.18-.22-.13-.49.2-.28.37a1.52,1.52,0,0,0,2.31-.53,1.92,1.92,0,0,0-.89-2.56A2,2,0,0,0,4,35.85a3.1,3.1,0,0,0,.17,3.3,3.11,3.11,0,0,0,2.39,1.5c1-.07,1.72-1.28,2-2.14a7.94,7.94,0,0,0,.29-3.87A16.2,16.2,0,0,0,7.76,30.3a15.06,15.06,0,0,0-2.61-3.87,20,20,0,0,1-3.11-4A.2.2,0,0,0,1.8,22.35Zm58.93,0a.18.18,0,0,0-.1.09c-1.36,2.58-3.82,4.32-5.23,6.87A12.47,12.47,0,0,0,54,33.45a11.65,11.65,0,0,0-.16,4.16,4.22,4.22,0,0,0,1.69,2.86c.91.5,1.92-.14,2.55-.79a3.25,3.25,0,0,0,.93-3,2.29,2.29,0,0,0-2.21-1.87,1.9,1.9,0,0,0-1.7,2.32,1.53,1.53,0,0,0,2.45,1c.21-.16-.06-.49-.28-.36-1.24.74-2.13-1.08-1.17-1.92s2.1.17,2.3,1.15a2.64,2.64,0,0,1-1,2.5,2,2,0,0,1-1.15.6c-.53,0-.93-.47-1.19-.88-1.13-1.75-.77-3.94-.48-5.87a11.84,11.84,0,0,1,2.6-5.6,34.42,34.42,0,0,0,3.4-4.25,8.78,8.78,0,0,1-.28,2.38,31,31,0,0,1-1.24,2.91c-.73,1.71-1.57,3.5-1.13,5.39,0,.17.26.1.24-.06a6.55,6.55,0,0,1,.63-3.25c.36-1,.81-1.93,1.22-2.89a11.35,11.35,0,0,0,.89-2.4A14.34,14.34,0,0,0,61,22.55.22.22,0,0,0,60.73,22.35Zm-45.15.36c-.17,0-.19.21-.08.28A9.56,9.56,0,0,0,19,24a36.76,36.76,0,0,1,3.88.85,9.78,9.78,0,0,1,3.51,1.88,13,13,0,0,1,2.4,3s.05,0,0,0c-.5-2.54-2.77-4.37-5.09-5.21a24.64,24.64,0,0,0-4.05-1c-.71-.12-1.42-.25-2.13-.41A15.54,15.54,0,0,0,15.58,22.71Zm31.51,0a14,14,0,0,0-1.92.43c-.7.17-1.41.3-2.12.42a24.71,24.71,0,0,0-4.16,1c-2.32.84-4.6,2.67-5.1,5.21,0,0,0,.05.05,0a13.24,13.24,0,0,1,2.32-3,9.72,9.72,0,0,1,3.59-1.94,34.21,34.21,0,0,1,3.77-.83A10,10,0,0,0,47.17,23C47.28,22.91,47.25,22.7,47.09,22.71ZM9.51,24.09a8.47,8.47,0,0,0-.6,2.39,7,7,0,0,0-.14,2.27c0,.12.21.11.24,0a16.52,16.52,0,0,0,.23-2.23c.09-.8.32-1.6.35-2.41C9.59,24.07,9.53,24.06,9.51,24.09Zm43.65,0s-.08,0-.08,0c0,.81.25,1.61.35,2.41a15,15,0,0,0,.23,2.23c0,.11.21.12.23,0a6.69,6.69,0,0,0-.14-2.27A8.54,8.54,0,0,0,53.16,24.09Zm-26.26.77a.15.15,0,0,0-.14.25c.37.34.82.58,1.17.95a5,5,0,0,1,.9,1.33c0,.06.13,0,.11-.05A3.21,3.21,0,0,0,26.9,24.86Zm8.86,0a3.25,3.25,0,0,0-2,2.48c0,.07.08.11.11.05a4.84,4.84,0,0,1,.91-1.33c.35-.37.8-.61,1.17-.95A.15.15,0,0,0,35.76,24.86ZM11.19,28.52a3.6,3.6,0,0,0-.58,0,.16.16,0,0,0,0,.31,22.84,22.84,0,0,0,2.35.28c.83.13,1.66.31,2.47.52a28.68,28.68,0,0,1,4.9,1.77A20.1,20.1,0,0,1,28,37.2s.12,0,.08-.05c-1.61-2.81-4.7-4.71-7.56-6a29.45,29.45,0,0,0-5-1.81c-.84-.22-1.7-.4-2.56-.54A12.73,12.73,0,0,0,11.19,28.52Zm40.31,0a12.07,12.07,0,0,0-1.72.22,24.45,24.45,0,0,0-2.65.55,29.77,29.77,0,0,0-5,1.81c-2.85,1.34-5.94,3.24-7.56,6,0,.05.05.1.08.05a20.14,20.14,0,0,1,7.68-5.76,29.23,29.23,0,0,1,4.9-1.77,24,24,0,0,1,2.38-.51c.79-.12,1.67-.09,2.44-.29.14,0,.16-.28,0-.31A3.43,3.43,0,0,0,51.5,28.52Zm-40.72.91c-.19,0-.45.08-.42.32a8.93,8.93,0,0,0,.4,1.9,14.63,14.63,0,0,0,2,4.14,15.26,15.26,0,0,0,4.89,4.43,6.78,6.78,0,0,0,1.65.74,5.84,5.84,0,0,0,1.61.22,8.13,8.13,0,0,0,3-.62,12.65,12.65,0,0,0,3.56-2.14l0,0h0a.34.34,0,0,0,.09-.19.33.33,0,0,0,0-.22v0h0a14.26,14.26,0,0,0-1.33-1.58,19.51,19.51,0,0,0-3.88-3.13,22.84,22.84,0,0,0-4.81-2.16,45.83,45.83,0,0,0-4.46-1.2c-.76-.16-1.52-.32-2.29-.44Zm41.1,0c-.63.1-1.26.22-1.89.35-1.44.3-2.87.67-4.28,1.1a24.71,24.71,0,0,0-4.76,2A19.5,19.5,0,0,0,36.74,36c-.39.4-.77.81-1.13,1.23a8.45,8.45,0,0,0-.53.69h0v0a.28.28,0,0,0-.05.22.34.34,0,0,0,.09.19h0A12.52,12.52,0,0,0,38,40.26a7.29,7.29,0,0,0,6.15.39,14.09,14.09,0,0,0,3.07-2,14.45,14.45,0,0,0,4.93-8.07,7,7,0,0,0,.13-.8v0A.34.34,0,0,0,51.88,29.43Zm-40.78.73q.68.12,1.35.27c1.42.29,2.84.65,4.23,1.08a23.82,23.82,0,0,1,4.62,1.88,18.48,18.48,0,0,1,4.11,3.08c.4.4.79.81,1.15,1.24l.18.23.08.09,0,0,0,0-.1.08,0,0,0,0-.33.24a12.27,12.27,0,0,1-2,1.19,6.54,6.54,0,0,1-5.64.35,14.34,14.34,0,0,1-5-4.1,14.08,14.08,0,0,1-1.38-2.18c-.09-.17-.17-.34-.25-.51L12,33l-.05-.11v0a.26.26,0,0,0,0-.05c-.12-.31-.24-.61-.35-.93a13.06,13.06,0,0,1-.39-1.43A2,2,0,0,0,11.1,30.16Zm40.47,0a10.53,10.53,0,0,1-.31,1.26c-.09.3-.18.58-.29.87s-.13.31-.19.47v0l0,.05s0,.07,0,.11l-.12.26a13.94,13.94,0,0,1-1.24,2.15,14.49,14.49,0,0,1-4.6,4.21,6.94,6.94,0,0,1-1.51.71,5.07,5.07,0,0,1-1.49.22,7.58,7.58,0,0,1-2.85-.6,12.45,12.45,0,0,1-2.19-1.16L36,38.21h0l-.06-.05-.09-.07v0l0,0a.86.86,0,0,0,.07-.1c.31-.38.64-.75,1-1.1a18.52,18.52,0,0,1,3.82-3.07,22.15,22.15,0,0,1,4.67-2.07,44.91,44.91,0,0,1,4.38-1.17c.51-.11,1-.22,1.53-.31ZM11,36.27a.07.07,0,0,0-.06.07A5.22,5.22,0,0,0,12,38.88a5.86,5.86,0,0,0,2,1.89.06.06,0,0,0,.07-.09,21.09,21.09,0,0,1-1.8-2.09c-.49-.73-.8-1.54-1.24-2.29A.07.07,0,0,0,11,36.27Zm40.73,0a.06.06,0,0,0-.08,0c-.44.75-.75,1.56-1.24,2.29a22.5,22.5,0,0,1-1.8,2.09.05.05,0,0,0,.06.09,5.89,5.89,0,0,0,2-1.89,5.21,5.21,0,0,0,1.06-2.54S51.73,36.27,51.7,36.27ZM27.29,39.63a.14.14,0,0,0-.15,0,11.77,11.77,0,0,1-5.56,2.75A11.13,11.13,0,0,1,15,41.15a.19.19,0,0,0-.19.32c3.62,2.73,9.75,1.92,12.49-1.7A.1.1,0,0,0,27.29,39.63Zm8.09,0a.1.1,0,0,0,0,.14c2.73,3.62,8.87,4.43,12.48,1.7a.19.19,0,0,0-.19-.32,11.12,11.12,0,0,1-6.57,1.23,11.69,11.69,0,0,1-5.55-2.75A.16.16,0,0,0,35.38,39.63ZM10.79,42.17a.13.13,0,0,0-.07.06,5.3,5.3,0,0,0,1,6.53,4.62,4.62,0,0,0,3,1.17,10.5,10.5,0,0,0,1.85-.22,11.72,11.72,0,0,1,2.29-.11.2.2,0,0,0,.11-.37,4.79,4.79,0,0,0-3-.1,4.49,4.49,0,0,1-3.23-.52c-2.15-1.38-2.39-4-1.73-6.29A.12.12,0,0,0,10.79,42.17Zm41.09,0c-.08,0-.19,0-.16.15.66,2.26.43,4.91-1.72,6.29a4.52,4.52,0,0,1-3.24.52,4.83,4.83,0,0,0-3,.1.2.2,0,0,0,.1.37,11.34,11.34,0,0,1,2.18.09,13,13,0,0,0,1.86.24A4.66,4.66,0,0,0,51,48.76a5.33,5.33,0,0,0,1-6.53A.19.19,0,0,0,51.88,42.17Z"/></g></g></g></svg>