<svg xmlns="http://www.w3.org/2000/svg" viewBox="0 0 845.72 608.58"><defs><style>.ac857180-872f-4a1a-9bee-ae1cdc0dbd3f{fill:#231f20;}.f1b637b3-deeb-4660-9e57-361b39dab6bd,.f8b70abd-1e77-4039-9eaa-2e363cad00d6{fill:#fff;}.a9191648-a9a2-4af9-bdbf-a02afe022a5f{fill:#010101;}.a6698104-92f5-4105-ae0f-252dc09e9b10{fill:#414042;}.b6d77268-754c-464c-be88-e276c15bfb87{fill:none;stroke:#111010;stroke-linecap:round;stroke-linejoin:round;stroke-width:3.42px;}.a9835d9a-eabb-428b-997e-c668a1821ac2{fill:#1b110b;}.f1b637b3-deeb-4660-9e57-361b39dab6bd{opacity:0.17;}</style></defs><g id="ab566067-4a76-45a6-842f-20df35548798" data-name="Layer 2"><g id="a09a4033-15e2-42c2-a180-2098e43d2372" data-name="Layer 1"><circle class="ac857180-872f-4a1a-9bee-ae1cdc0dbd3f" cx="755.87" cy="89.85" r="89.85" transform="translate(157.85 560.8) rotate(-45)"/><circle class="ac857180-872f-4a1a-9bee-ae1cdc0dbd3f" cx="755.87" cy="89.85" r="59.9" transform="translate(223.31 633.72) rotate(-52.38)"/><circle class="ac857180-872f-4a1a-9bee-ae1cdc0dbd3f" cx="89.85" cy="89.85" r="89.85" transform="translate(-37.22 89.85) rotate(-45)"/><circle class="ac857180-872f-4a1a-9bee-ae1cdc0dbd3f" cx="89.85" cy="89.85" r="59.9" transform="translate(-21.82 150.49) rotate(-73.5)"/><path class="f8b70abd-1e77-4039-9eaa-2e363cad00d6" d="M122.87,4.63H731.63a0,0,0,0,1,0,0V590.52A16.61,16.61,0,0,1,715,607.13H139.47a16.61,16.61,0,0,1-16.61-16.61V4.63a0,0,0,0,1,0,0Z" transform="translate(-1.54 2.17) rotate(-0.29)"/><circle class="f8b70abd-1e77-4039-9eaa-2e363cad00d6" cx="563.81" cy="246.68" r="44.82" transform="translate(-9.29 470.93) rotate(-45)"/><circle class="a9191648-a9a2-4af9-bdbf-a02afe022a5f" cx="563.81" cy="246.68" r="36.15" transform="translate(97.77 648.61) rotate(-64.41)"/><path class="f8b70abd-1e77-4039-9eaa-2e363cad00d6" d="M595.25,229.73A12.84,12.84,0,1,1,582.34,217,12.84,12.84,0,0,1,595.25,229.73Z"/><path class="f8b70abd-1e77-4039-9eaa-2e363cad00d6" d="M557.83,256.64a6.81,6.81,0,1,1-6.84-6.78A6.81,6.81,0,0,1,557.83,256.64Z"/><circle class="f8b70abd-1e77-4039-9eaa-2e363cad00d6" cx="287.5" cy="248.08" r="44.82" transform="matrix(0.28, -0.96, 0.96, 0.28, -30.35, 455.86)"/><circle class="a9191648-a9a2-4af9-bdbf-a02afe022a5f" cx="287.5" cy="248.08" r="36.15" transform="translate(11.33 508.72) rotate(-84.13)"/><path class="f8b70abd-1e77-4039-9eaa-2e363cad00d6" d="M318.93,231.13A12.84,12.84,0,1,1,306,218.36,12.83,12.83,0,0,1,318.93,231.13Z"/><path class="f8b70abd-1e77-4039-9eaa-2e363cad00d6" d="M281.51,258a6.81,6.81,0,1,1-6.84-6.78A6.81,6.81,0,0,1,281.51,258Z"/><path class="a6698104-92f5-4105-ae0f-252dc09e9b10" d="M591.32,443.68c.34,68.22-69.24,93.34-155.22,93.78s-155.82-24-156.17-92.21S349,321.38,435,320.94,591,375.46,591.32,443.68Z"/><path class="b6d77268-754c-464c-be88-e276c15bfb87" d="M436,390.51c-7.84,87.31,68.93,117.68,109.25,60.36"/><path class="b6d77268-754c-464c-be88-e276c15bfb87" d="M433.32,390.53C442,477.75,365.58,508.9,324.68,452"/><path class="a9835d9a-eabb-428b-997e-c668a1821ac2" d="M494.41,349.11c.22,15.83-26.74,53.7-60.25,54.15s-60.89-36.66-61.11-52.49,7.19-36,60.41-36.54S494.2,333.28,494.41,349.11Z"/><path class="f1b637b3-deeb-4660-9e57-361b39dab6bd" d="M446.09,345.71c0,8.1-12.65,14.74-28.35,14.82S389.28,354.1,389.23,346s12.66-14.74,28.36-14.81S446.05,337.61,446.09,345.71Z"/><circle class="ac857180-872f-4a1a-9bee-ae1cdc0dbd3f" cx="656" cy="367.97" r="31.96" transform="translate(-70.89 561.25) rotate(-44.18)"/><circle class="ac857180-872f-4a1a-9bee-ae1cdc0dbd3f" cx="196.33" cy="370.3" r="31.96" transform="matrix(0.53, -0.85, 0.85, 0.53, -221.8, 341.51)"/></g></g></svg>