<svg xmlns="http://www.w3.org/2000/svg" viewBox="0 0 48.5 30.94"><defs><style>.a77e8b89-fd61-4d9b-9ed9-946a3b534506{fill:#f9e9eb;stroke:#f9e9eb;}.a055c3a4-d837-4550-b17c-368b44cabdab,.a1429b52-5d0b-435f-a4b6-4d89c4db0371,.a1c269b0-4d3a-41ca-badc-92cc1485201d,.a396860c-005d-408a-87ab-442cd09bbfe1,.a3b3b5c3-8a85-44b5-8dd6-4ecb2df0d11c,.a3cb3402-bbac-4a52-bcc3-62adec4c569d,.a3ef03ba-64a5-4bda-987b-b713e9fd7a6e,.a54880ce-4f53-4d4d-9056-4013f8d6a533,.a62296c0-256b-4a16-8c58-1929ba582866,.a62837cd-e8f6-4739-b2c8-29a7e61f10a4,.a77e8b89-fd61-4d9b-9ed9-946a3b534506,.a835a2d3-afa2-4f05-980e-824e730a3ee3,.a8936aaf-a040-4987-a5e0-0de8af5b91cb,.a97a27bf-f741-4cf8-b0cc-cbcc6d7af027,.a9c40961-cfe2-489d-a5e5-a833b85c49ac,.ab9d050a-c772-476e-9031-137c2d975c30,.ac0af364-2211-4e67-8a3e-82d787025d0d,.ac58d79b-9fd0-4430-bd74-a53d20926e74,.ac616691-d374-4e4c-97b2-10dd9ad850bb,.acbee1a6-ee8d-43ef-8dea-384c7047e6c4,.ad074da3-b939-4c42-bb57-aad1d3da854c,.afbee64b-6422-460a-9a0c-7f52cd58b918,.b0d48e4b-4671-49cf-9ac9-21ac3fe06d7b,.b0d8ed85-1147-4994-b350-1f1f56fc846e,.b1b83edd-9776-4cfa-82c2-b96ab212f797,.b2951114-3330-4638-a5c9-a77bc488e990,.b30aecea-d719-40c4-a901-12d6ae3c8c4d,.b4f41f0c-b605-43d8-8ec9-6b50d2c60ca4,.b51c9854-304b-4ad1-aad9-241d6467933c,.b7ce0771-53ce-4ec0-a001-79992e3f9854,.b7fee803-ebaf-4349-8003-8691f19841ec,.b8045fd5-b71a-4c5b-bcca-85dd8beed40d,.b8fc3246-dc23-4a58-9b03-73727e1e40c3,.b9da8c30-a422-431a-a1a2-cbc705fb3214,.ba505720-9dd7-45b3-b2c6-6b0284b32909,.bb71deec-7584-4623-bb8c-5aed14defa5c,.bbffa174-d813-4a16-bf32-19627d576bd1,.bee5792f-88ad-471e-8fe0-7f47fd8509e6,.bf287f9a-7eaa-4afa-9e37-5ec757c3b7b8,.e1a3fbde-3ac8-4dc7-b65b-10c2366b49ec,.e1a7f822-976d-48f0-b70d-3d9f24a1f7fe,.e7028867-9574-4e63-8df2-55a0634ce5b5,.ea482524-40b5-4b6f-b415-39d2f1c07194,.ee2b3b30-2563-405b-871b-937a3a52fcbf,.ee446d91-d084-4760-a871-b1ec9dd01a52,.f0a04175-8ba2-4b1c-a5e8-df1373855396,.f191058b-b66a-4b71-bcd3-b153b6bdd2b2,.f36c87c5-fb52-408a-914e-ad0f0c4e11de,.f3f28ea6-94c2-4042-ac12-1e2f510277a9,.f4813c62-233c-405b-8ccc-52d149f62649,.f57665f6-2156-4020-8cbf-5fe5864c4810,.f7ab35a7-2d62-4486-976d-ff62e2bc989c,.fab13a57-f05f-4a1c-b689-c38762097e62,.fc6516cc-3c82-4c91-a5ac-691165862e3d,.fcbfdf06-e0d7-445d-9629-50e54588c763,.fd4b2981-422f-4d2d-8c15-0cff0140e490{stroke-linecap:round;stroke-linejoin:round;stroke-width:0.58px;}.ad074da3-b939-4c42-bb57-aad1d3da854c{fill:#d54d3e;stroke:#d54d3e;}.b0d48e4b-4671-49cf-9ac9-21ac3fe06d7b{fill:#f9e9e9;stroke:#f9e9e9;}.b51c9854-304b-4ad1-aad9-241d6467933c{fill:#dc4d2f;stroke:#dc4d2f;}.ac616691-d374-4e4c-97b2-10dd9ad850bb{fill:#e06451;stroke:#e06451;}.ab9d050a-c772-476e-9031-137c2d975c30{fill:#dd7a6c;stroke:#dd7a6c;}.afbee64b-6422-460a-9a0c-7f52cd58b918{fill:#fcf5f8;stroke:#fcf5f8;}.a3ef03ba-64a5-4bda-987b-b713e9fd7a6e{fill:#ca604e;stroke:#ca604e;}.e7028867-9574-4e63-8df2-55a0634ce5b5{fill:#e06b57;stroke:#e06b57;}.a1429b52-5d0b-435f-a4b6-4d89c4db0371{fill:#c23335;stroke:#c23335;}.fc6516cc-3c82-4c91-a5ac-691165862e3d{fill:#edbebc;stroke:#edbebc;}.b9da8c30-a422-431a-a1a2-cbc705fb3214{fill:#b63037;stroke:#b63037;}.f0a04175-8ba2-4b1c-a5e8-df1373855396{fill:#e56b5d;stroke:#e56b5d;}.f7ab35a7-2d62-4486-976d-ff62e2bc989c{fill:#de5c48;stroke:#de5c48;}.fcbfdf06-e0d7-445d-9629-50e54588c763{fill:#cd342c;stroke:#cd342c;}.ac0af364-2211-4e67-8a3e-82d787025d0d{fill:#d36457;stroke:#d36457;}.fd4b2981-422f-4d2d-8c15-0cff0140e490{fill:#dd8d85;stroke:#dd8d85;}.a62837cd-e8f6-4739-b2c8-29a7e61f10a4{fill:#d95444;stroke:#d95444;}.a54880ce-4f53-4d4d-9056-4013f8d6a533{fill:#ea7f6f;stroke:#ea7f6f;}.f3f28ea6-94c2-4042-ac12-1e2f510277a9{fill:#d93827;stroke:#d93827;}.acbee1a6-ee8d-43ef-8dea-384c7047e6c4{fill:#e78c83;stroke:#e78c83;}.a1c269b0-4d3a-41ca-badc-92cc1485201d{fill:#d85644;stroke:#d85644;}.a8936aaf-a040-4987-a5e0-0de8af5b91cb{fill:#e28e60;stroke:#e28e60;}.e1a3fbde-3ac8-4dc7-b65b-10c2366b49ec{fill:#dd6a57;stroke:#dd6a57;}.b7ce0771-53ce-4ec0-a001-79992e3f9854{fill:#db5144;stroke:#db5144;}.f36c87c5-fb52-408a-914e-ad0f0c4e11de{fill:#dd5f51;stroke:#dd5f51;}.a055c3a4-d837-4550-b17c-368b44cabdab{fill:#bd4648;stroke:#bd4648;}.ac58d79b-9fd0-4430-bd74-a53d20926e74{fill:#cd6b57;stroke:#cd6b57;}.bbffa174-d813-4a16-bf32-19627d576bd1{fill:#f5e6ec;stroke:#f5e6ec;}.f57665f6-2156-4020-8cbf-5fe5864c4810{fill:#94423e;stroke:#94423e;}.a97a27bf-f741-4cf8-b0cc-cbcc6d7af027{fill:#eb7e6b;stroke:#eb7e6b;}.b1b83edd-9776-4cfa-82c2-b96ab212f797{fill:#d33532;stroke:#d33532;}.fab13a57-f05f-4a1c-b689-c38762097e62{fill:#e06c5c;stroke:#e06c5c;}.a3cb3402-bbac-4a52-bcc3-62adec4c569d{fill:#b33433;stroke:#b33433;}.a396860c-005d-408a-87ab-442cd09bbfe1{fill:#ec8776;stroke:#ec8776;}.ee2b3b30-2563-405b-871b-937a3a52fcbf{fill:#efcccf;stroke:#efcccf;}.a835a2d3-afa2-4f05-980e-824e730a3ee3{fill:#c7624d;stroke:#c7624d;}.a9c40961-cfe2-489d-a5e5-a833b85c49ac{fill:#e57d68;stroke:#e57d68;}.b8045fd5-b71a-4c5b-bcca-85dd8beed40d{fill:#e99991;stroke:#e99991;}.b4f41f0c-b605-43d8-8ec9-6b50d2c60ca4{fill:#dd6e48;stroke:#dd6e48;}.a3b3b5c3-8a85-44b5-8dd6-4ecb2df0d11c{fill:#de8372;stroke:#de8372;}.ea482524-40b5-4b6f-b415-39d2f1c07194{fill:#9d5041;stroke:#9d5041;}.f191058b-b66a-4b71-bcd3-b153b6bdd2b2{fill:#b13f42;stroke:#b13f42;}.b8fc3246-dc23-4a58-9b03-73727e1e40c3{fill:#f9f0f3;stroke:#f9f0f3;}.bb71deec-7584-4623-bb8c-5aed14defa5c{fill:#e1695a;stroke:#e1695a;}.ee446d91-d084-4760-a871-b1ec9dd01a52{fill:#d2593f;stroke:#d2593f;}.ba505720-9dd7-45b3-b2c6-6b0284b32909{fill:#af3536;stroke:#af3536;}.b7fee803-ebaf-4349-8003-8691f19841ec{fill:#f7d7da;stroke:#f7d7da;}.f4813c62-233c-405b-8ccc-52d149f62649{fill:#923d37;stroke:#923d37;}.bee5792f-88ad-471e-8fe0-7f47fd8509e6{fill:#e6775a;stroke:#e6775a;}.b0d8ed85-1147-4994-b350-1f1f56fc846e{fill:#be292d;stroke:#be292d;}.b2951114-3330-4638-a5c9-a77bc488e990{fill:#c8614c;stroke:#c8614c;}.bf287f9a-7eaa-4afa-9e37-5ec757c3b7b8{fill:#c7654f;stroke:#c7654f;}.b30aecea-d719-40c4-a901-12d6ae3c8c4d{fill:#e2835b;stroke:#e2835b;}.e1a7f822-976d-48f0-b70d-3d9f24a1f7fe{fill:#e57362;stroke:#e57362;}.a62296c0-256b-4a16-8c58-1929ba582866{fill:#d65345;stroke:#d65345;}</style></defs><g id="f1e535de-26f2-425d-a43d-51b8e041cf15" data-name="Layer 2"><g id="b545c7bd-2c9c-4296-9f23-2fa68cd8419c" data-name="Layer 1"><g id="b25b41a2-bca1-4384-9b8b-f63732853080" data-name="Layer 1"><path class="a77e8b89-fd61-4d9b-9ed9-946a3b534506" d="M2.94,21.32H2.8c0-.94,1-.6,1.53-.84v.14c.11-.32,0-.2.42-.28v.14h.48c-.2-.1-.13,0-.13-.28H4.82L4.75,20l.14-.07c-.12-.23,0-.27.21-.35v-.13l-.35.07a1,1,0,0,0,.14-.42H4.75c.23-.12.12-.21.41-.21v-.21a1.27,1.27,0,0,1-.48-.07c.11-.22.07-.09.07-.42l.48-.07V17.9l.63-.07c-.1-.31.08-.59,0-1H5.72v-.14H5.58c0-.26,0-.42.28-.42V16H5.72v-.27H5.58c.1-.21,0-.14.28-.14a1,1,0,0,1,.84-.84c0-.47-.07-.29.07-.56l.14.14A6.66,6.66,0,0,1,8.44,12.4c.2.21.07.13.41.21v-.14l.49-.07v-.13H9.2V11.5a1.48,1.48,0,0,0,.77-.28v.14c.57-.29-.43-.35-.49-.35.18-.09.14-.21.35-.21v-.14l.07.21c.37,0,.37-.41.42-.69.17.17.08.11.27.21l-.06-.28.41-.07c-.09.18-.07.09-.07.28a1.06,1.06,0,0,0,1-.49,1,1,0,0,1-.42-.14c.2-.4.78-.08,1.11,0V9.41a.65.65,0,0,1-.41-.07c.1-.21.22-.17.41-.07l.07-.21c-.21,0-.3-.09-.48,0,.18-.36-.1-.55.41-.55,0-.41.17-.31.42-.56l.42.21V8h-.14c.1-.21.21-.24.42-.14V7A8,8,0,0,0,14.77,7c0-.33.26-.37.56-.27A1,1,0,0,0,15,6.56c.24-.48,1.37-.79,1.67-1.4L16.51,5c.09-.19.07-.09.07-.28a11.57,11.57,0,0,0,1.53-.28V4.19c-.33,0-.19,0-.41-.07.38-.26.12-.15.83-.07,0-.48.41-.42.84-.42V3.49h-.14v-.2c.4-.08.24-.13.48,0,.1-.19,0-.12.21-.21L19.78,3c1.66-.56,2.18-.29,3.62.07,0,.47-.12.35.14.48,0-.29-.06-.17.21-.34a1.16,1.16,0,0,0,.07.55h-.56l.14-.14a2.59,2.59,0,0,0-1.95.14l.56.07c-.75.11-.64.08-.56.91-.47-.16-.13-.08-1,0-.08.33-.14.37-.42.55l.07.14a6.22,6.22,0,0,1-1.25,1l.28.07L19,6.63c.18.09.14,0,.14.21a.63.63,0,0,0-.42-.07C18.67,7.57,17,8,17,9.06h-.14V8.92a3.3,3.3,0,0,0-.42.84c-.19,0-.1,0-.28-.07L16,9.83c-.2-.1-.13,0-.13-.28l.27-.07V9.27l.28-.07c0-.39.2-.55.28-1a1.9,1.9,0,0,0-.63-.14c-.11.24-.2.12-.2.42H16c0,.27-.27.39-.27.69-.19-.09-.6-.07-.7.14h.14l-.07.14a1.33,1.33,0,0,1-.63-.28c-.19.1-.11.16-.21.35l.14-.07c.15.28,1.16.92.35,1.32v-.21c-.28,0-.56.65-.56.84-.33,0-.19,0-.41.07v-.14c-.3,0-.28.16-.28.42h.14v.35c-.12-.25,0-.14-.42-.14v-.21c-.26.13-.14,0-.14.49h.35v.13c-.25,0-.33,0-.21.28H13v-.14c-1.37,0-.41-.07-1,.21a1.81,1.81,0,0,1,.69.07c0,.23-.09.44,0,.63-.32.11-.15.28-.41.42.33,0,.19,0,.41-.07,0,.62-.78,0-1,.55h.14v.42c.19,0,.12,0,.21-.14.09.18,0,.14.21.14-.26.39-.13.13-.21.84L12,15.47c-.18.09-.14,0-.14.21h-.21c-.2,1-.21-.42-.21,1.46a2.5,2.5,0,0,1-.77-.14l-.07.28h.14a1.13,1.13,0,0,1-.41.14l.07.14-.14.14h.21c0,.46.12.35-.14.48l.27.07c.13-.24,0-.14.42-.14a3.22,3.22,0,0,0-.28,1.05,1,1,0,0,1-.41.21c.18.45,0,.53,0,1.11h.14c0,.84-.56,1.16-.56,2.09H9.69L9.62,23c-1.46,0-2.92,0-4.39,0-.52,0-.74-.34-1.25-.42v-.14A1.84,1.84,0,0,1,2.94,21.32Z"/><path class="ad074da3-b939-4c42-bb57-aad1d3da854c" d="M15.12,11.71l.14.07c0-.41.18-.29.63-.35v-.28h-.28V10.8l.28-.07v-.34l1.39-.07L17,10.25v-.14l.42-.07A1.08,1.08,0,0,0,17,9.9V9.76h-.14c0-.22.14-.26.14-.56.18.1.09.1.28,0v.21a.84.84,0,0,0,.42-.14v.14c.15,0,.83-.28.83-.49h-.28c.09-.18,0-.14.21-.14V8.65h-.35V8.37H18c.18-.09.14,0,.14-.21l.56-.07a3.69,3.69,0,0,0-.14-.77c.21-.1.12,0,.21-.28l.49.07c.12-.24,0-.14.41-.14-.26-.13-.13,0-.13-.48a3.92,3.92,0,0,1,1.25-.35L20.41,6c.25-.16.21-.06.21-.28h-.21c.2-.1.14,0,.14-.28h-.21V5.23l.28-.07V4.82h-.14c.84-.16.52-.22,1-.07,0-.8-.18-.84.56-.84l-.49-.14a4.24,4.24,0,0,1,1.88-.14l-.14.07.56.07a1.15,1.15,0,0,0-.07-.55c-.27.17-.21,0-.21.34-.26-.13-.14,0-.14-.48h-.55V2.94c.32,0,.31-.14.69-.14v.14h.14V2.59l1.39-.07c0,.25-.17.83.21.83-.09.19-.07.09-.07.28h-.34l-.07.28c-.33,0-.24-.08-.35.14h.35c-.35.09-.25,0-.35.28.54.13.35.5.35.9A5.33,5.33,0,0,0,24,5.3V5.16l-.07.21c-.33,0-.24-.08-.35.14a3.53,3.53,0,0,1,.7.07c0,.26-.34.52-.56.63a2.1,2.1,0,0,1,.14.7l-.07-.21L23.68,7c-.48,0-.84-.26-1,.28.2.1.34.18.55.07v.14c-.35.09-.18.1-.48,0-.12.25-.23,0-.35.28A1.78,1.78,0,0,0,23,7.67c0,.26,0,.15.07.35-.52.08-.42.07-.56.49h.21v.27a1.18,1.18,0,0,1-.56-.13v.13l.21.07c0,.43,0,.24.07.56l-.14.07.28.07c0,.3-.29.42-.49.63L21.87,10c-.08.26,0,.17-.21.28v-.14c-.22,0-.37.09-.55,0l-.07.14c.32,0,.53.06.41.41h-.2v.21l.48.07v.14h.14c0,.22-.26.26-.42.42l.07.14c-.21,0-.09,0-.34-.07-.15.42-.28.74-.28.07-.47,0-.25.14-.56.14v-.14h-.21v-.14l-.07.42c.21-.11.22,0,.42-.07v1.67c-.15-.37-.45-.71-.7-.21h.35v.21c-.19,0-.12,0-.21.14h.14l.07.41L20.2,14l.07.13.14-.06c.11.31.11.15-.14.48.19.1.13.46.21.7h.14l-.07.21-.14-.14c-.07.36-.21.32-.21.62h.14c0,.4-.05.25.07.49-.26-.08-.14-.1-.35,0,.09.42.11.24,0,.56h-.35l-.07.28h.14v.14H19.3l-.07.21h.14c0,.56-.14.29-.14.69h.14a1,1,0,0,0-.14.35c.2.1.08.07.34.07V19c-.42,0-.22.42-.48.55.38.19.13.56-.14.7l.21.07c0,.77.07,1.54.07,2.37H19c.17.17.07.14.28.14V23h.14c0,.38-.06.32-.42.41,0,0,0-.45-.21-.27-.84.83-6.16.67-7.38.06l.84-.06v-.21H12a1.69,1.69,0,0,0,.14-.35c-.25-.12-.09-.06-.49-.14v-.14h-.35v-.14c-.33,0-.19,0-.42-.07-.12.24,0,.14-.41.14v-.14l-.07.21L10.32,22H10v-.14h.28c0-.58.32-.39.76-.28,0,.19,0,.1-.07.28l.42-.07-.21-.07v-.14l.21-.07v.14h.21l.07.21c.53,0,.56-.28,1.25-.28v-.14c.37-.06.56,0,.56-.34h-.21c.09-.18,0-.14.21-.14v-.35h-.21l-.14.49L13,21l-.07.14L12.82,21c.14-.29.46-.95-.28-.7v-.28H12.4c.21-.1.14-.2.14-.42l.35-.07-.35-.06v-.28H12.4v-.14l.28-.07v-.14a15.49,15.49,0,0,0,2.44-.56v.14h.14c0,.28.05.16-.14.35,1.12,0,.28-.28.77-.77-.1-.18-.1-.09,0-.28.14.3.36-.66-.42-1,.19-.29.21-.4.55-.49V16c-.26.14-.08.07-.55.07l-.07.35h-.14a1,1,0,0,1,.42-.9c-.19-.37-.29-.5-.49-.91-.22.11-.09.07-.42.07v-.21a1.17,1.17,0,0,0-.56.07A17.88,17.88,0,0,1,15,12l-.14-.07C15.1,11.83,15,11.91,15.12,11.71Z"/><path class="b0d48e4b-4671-49cf-9ac9-21ac3fe06d7b" d="M42.34,14.49c0,.19,0,.12-.14.21.26.13.14,0,.14.49h.14v.49c.3,0,.35.13.14.34.19.2.12.08.21.35-.23.12-.13,0-.21.35h.14v.14h.14a2.59,2.59,0,0,0,.13.56h.28c0,.2,0,.1-.14.28.28.55.19,0,.28,1.11h.14v.56h.14a7.32,7.32,0,0,0,.14,1.11H44v.28h.14v.56h.14v.13h.14v1.12l.48.07-.07-.28c.32-.08.53,0,.84-.14,0,.4-.5.6-.84.77h.28v.14h-.21l-.07.27c-.24,0-.27,0-.27-.27a1.47,1.47,0,0,0-.49.27h.21c0,.31-.14.16-.14.42h-.42v-.28c-.31.31-.83.12-.83.63-.35-.17-1.09.21-1.54.21l.14.28a6.14,6.14,0,0,1-2.5.14v-.14h-.63c0-.32.69-1.4.07-1.4v-.13h-.21a55.09,55.09,0,0,0-.76-6c-.53,0-.36-.25-.42-.84h-.14c0-.59-.31-3.76-.91-3.76,0-1.15-.62-1.47-.76-2.57H35c0-.21,0-.1-.07-.35-.18,0-.64-.76-.7-1h-.14c.05-.1.1-.19.14-.28h-.14c0-.47.14-.1.14-.84h-.34v.28l-.21-.07V7.53h-.28V7h-.49c-.12-.35-.37-.47-.49-.83h-.14V6h-.14V5.58H32V5.44H31.9c0-.23.14-.11.14-.34L32.73,5v.13h.77V5.3h1.6v.21h.21c-.15.43,0,.35.48.35v.28h.14v.14h.14v.14h.14V6.7l.63.07c0,.36.35.23.35.55.29,0,.15,0,.41.14l-.13.21H37.4l-.07.42h.14v.14l.13-.07v.21h.28v.28h.21v.13h.28c0,.2,0,.1-.07.28.29,0,.24-.28.49-.28-.19.39.36,1.05.49,1.54h.41c0,.26,0,.12.35.27l-.21.14H40c.09.28,0,.19.28.28v.14c.21.07.35.18.56.07,0,.39.14.48.14,1h.14c.1.4.16.39.55.55a.26.26,0,0,0,.14.49v.14l.21-.07c.14.29.14.26.07.63h.21a1.7,1.7,0,0,1-.07.55Z"/><path class="b51c9854-304b-4ad1-aad9-241d6467933c" d="M45.26,24.24c0-.19,0-.1.07-.28h-.21v-.14h-.28v-.63l.28-.06V23h-.28c.53-.27.82-.72,1.47-.56a2.07,2.07,0,0,0,.27-.56l.14.14c.09-.18.07-.09.07-.28h-.21a8.73,8.73,0,0,0,.49-2.5h-.14v-.7h-.14c0-.5-.1-1-.14-1.53h-.13v-.42h-.14v-.42h-.14v-.27H46.1v-.42H46a3.53,3.53,0,0,1-.14-1h-.35a3.15,3.15,0,0,0-.07-.76h-.14v-.49H45V13h-.14v-.42h-.13v-.27h-.28v-.42h-.14v-.14h-.14v-.28H44V11c-.18.09-.09.07-.28.07a3.21,3.21,0,0,0,0-.76l-.28.14a1.27,1.27,0,0,1-.14-.42l-.14.14a.67.67,0,0,1-.27-.63h-.14V9.41h-.14V8.92a1.83,1.83,0,0,1-1-1.11H41.5V7.53h-.28V7.25h-.13V7.11c-.31-.1-.7-.21-.7-.55-.4,0-.61-.51-.7-.84h-.41V5.3a1.93,1.93,0,0,1-.77-.14V5c-.21,0-.35,0-.35-.21H38V4.68c-.65,0-1.09-.72-1.6-1,.64-.21.67-.48,1.46-.48v.13h.28v.28h.42v.28H39v.14h.14v.14h.14v.14h.34v.14h.21c-.11.22-.08.09,0,.42h.28V5h.42v.13h.14v.28h.14v.14h.28c0,.39,0,.33.41.42v.28h.28v.28h.14V6.7h.28a1.16,1.16,0,0,0,.07.55c.37,0,.51.36.63.7H43v.14h.14v.28h.14v.14c.25,0,.28,0,.28.27h.14c.1.29.19.54.28.84h.21c.07.22.21.21.21.42h.14v.28h.27c0,.37-.1.55.28.55v.28h.14c.08.56-.08.44.28.56V12h.14v.28H46c.07.83,0,.52.14,1h.28v.28h.14v.42h.13v.14h.14v.41h.28a22.62,22.62,0,0,0,.7,3.07h.14V18h.14v.14h.14c.11,1.56-.26,3.12,0,4.67A1.69,1.69,0,0,0,46.79,24C46.28,24,45.88,24.24,45.26,24.24Z"/><path class="ac616691-d374-4e4c-97b2-10dd9ad850bb" d="M39,24.66v.14h.48c-.2.1-2,.42-2,0h-.28v-.35l.28-.07V24h-.28v-.28h-.63l-.07.28h-.56v-.21c-.2,0-.21.14-.41.14v-.35h-.14c0-.33-.09-.23.14-.35l-.28-.13c.26-.26.19-.35.28-.7a1.79,1.79,0,0,1-1.19.35V22.5h-.14c.29-.29-.21-.66.28-.91l-.21-.07c0-.21-.14-.22-.21-.48a1.59,1.59,0,0,1-.34.14V21c-.35,0-.33.18-.77.07-.11.21-.18.21-.42.21v-.14c-.4.08-.24.12-.48,0-.18.17-.14.07-.14.27-.59,0-.53.3-1.26.21l-.07.21h.49l-.35.14.07.28c-.26,0-.18-.06-.28.14h.14v.14c-.53-.14-.7,0-.83.56l.42.06v.14H30l-.07.56c-.19,0-.12,0-.21.14H30v.21h-.14l-.07.28H30v.14c-.41.13-.14.07-.84,0V24H29a1.89,1.89,0,0,1,0-.63h-.14l.07-.27.21.13v-.2c-.74,0-.28-.91-.28-1.61H29v.14h.14c.15-.45.08-.13,0-1l.21-.07v.14h.14c-.09-.19-.09-.09,0-.28l.21.07v.14a2.78,2.78,0,0,0,.69-.28l-.06.21.13.07c.23-.22.08-.14.49-.14-.21-.21-.07-.12-.42-.21,0-.29-.05-.17.21-.35-.18-.37-.17-.3-.55-.21.18.09.14,0,.14.21H30v-.14c-.22,0-.1,0-.35.07l.14-.14-.56-.07v-.41h-.14c0-.33,0-.42.35-.42a3.66,3.66,0,0,1,0-1.32h-.14v-.14c-.18.09-.14,0-.14.21H29a8.55,8.55,0,0,0,.56-1c-.21-.1-.09-.08-.35,0,0-.21,0-.35-.21-.35.09-.18,0-.14.21-.14V16l.21-.06v-.14h-.14a1.06,1.06,0,0,1,.14-.7h-.28v-.21H28.9c.16-.31.31,0,.42-.49H29c0-.64,0-.37.28-.69l-.07.14a1.37,1.37,0,0,0,.49-.21c-.18-.09-.14,0-.14-.21h-.14v-.14h-.14c0-.23.14-.11.14-.35h-.14c.12-.24.56-.65.56-.83h-.28c0-.19,0-.1.07-.28.16.31.24,0,.49,0v-.14a3.37,3.37,0,0,1-.84-.07c.14-.28.12-.59-.21-.7.23-.46-.5-.82-.07-1.25l-.07-.14.35-.07c0-.38.14-.2.14-.49h-.14l.28-.07-.07-.27.21-.07-.28-.07V8.3h-.14c.1-.4.09-.19,0-.63l.35-.07V7.46h-.21V7.32h-.14V7.18l.28-.07V7h-.28l.07-.2-.21-.07c.19-.37.56-.06.7-.49H29.6V6.07h-.14V5.93l-.28.21-.07-.28c-.23,0-.09,0-.42.07V5.72l.49-.07L29,5.58V5.44c-.22.12-.09.06-.42.14a3.41,3.41,0,0,1-.62-1.67l.07.28h1.25v.14c.35,0,.16-.14.56-.14v.28H30c.08.4,0,.83.48.83v.14h.21v.21c-.61,0,.28.37.35.42-.18.09-.11,0-.21.21h.7c0-.4-.11-.3.14-.42V6a.76.76,0,0,1,.69,0v.14c.29,0,.3.43.56.56-.57.19-1.78.08-2,.55h.28v.14c-.25,0-.33,0-.21.28a.41.41,0,0,0-.21.56L30,8.3c.09.37.08.55.48.55V9h-.34l-.07.28c-.58-.28.09.43.34.56V9.69H30.3l.27-.07c0,.41.17.35-.34.56.1.2,0,.14.27.14,0,.34-.14.34-.14.69.42,0,.65-.09.84.28.08-.33.11-.19,0-.42.17-.17.07-.14.28-.14,0,.5.15.4-.07.84l-.07-.14c-.44.22,0,.54.14.77-.2.1-.31,0-.42.2.23,0,.42-.05.42.21a1.79,1.79,0,0,0-.63-.07l.07.21-.14-.07c-.14.29-.26.18-.14.56.2,0,.25-.05.35.14h-.14v.21l.42.07v.21a3.47,3.47,0,0,0-.91,0c0-.41-.19-.21-.48-.21l-.07.42c.22,0,.25,0,.42-.14,0,.32.1.41.41.41v.14h.56v-.21l.21-.07a3.33,3.33,0,0,0,.07.84c-.2.1-.09.07-.35.07l.35.07v.42c-.35,0-.28,0-.42.28h.14c0,.74.58.61.84,1.11l-.7.14c.2.1.09.07.35.07l-.14.07c.21.1.11.22.21.42h-.28c0-.23-.1-.23-.28-.14.18.17.08.11.28.2-.08.4-.12.25,0,.49l-.21.14a1,1,0,0,1,.49.07v.28h-.28l.14.28c-.25.16-.13.14-.35.14.74.24.25.22.49.69l.41-.07v.14c.2,0,.12,0,.21-.14v.14c.29,0,.11-.14.49-.14v-.21a1.7,1.7,0,0,0-.76.07L32,19.51c.26-.09,1,.07,1-.21h-.14v-.14c.24-.05.49,0,.49-.28h-.14v-.21c-.09.18,0,.14-.21.14v-.14a2.61,2.61,0,0,1-1,.21v-.14h-.14c.24-.12.09-.06.48-.14,0-.19,0-.12.14-.21l-.07-.14.21-.14c0,.35-.06.56.35.42v-.14h-.28c.11-.22,0-.14.35-.14v-.14c.33-.08.19,0,.42-.14.23.24.69.27.69-.14-.27.1-.14.1-.41,0,.23-.11.36-.41.62-.41v-.14a3.87,3.87,0,0,1-.83-.21c-.1.2,0,.14-.28.14,0-.19,0-.28-.21-.28.36-.36.38-.34.91-.21l-.14-.07c.11-.23.81-.32,1-.21V16c.4-.06.52-.34.84-.34v-.28h.27v.14l.21.07c-.31.15-.09.53-.41.69.1.21,0,.13.27.21v.28h.21c0,.4.11.3-.14.42a2.3,2.3,0,0,1,0,.83h.14v.42h.21l-.21.14.14.14-.14.07.14.14-.14.07h.14v.28h.14v.55h.21c0,.24-.28.39-.49.49.21,0,.2.14.42.21v.35c.26,0,.15,0,.35-.07,0,.21,0,.09.07.35-.22.1.13,1.32.14,1.46h.41v.28h.14a2,2,0,0,1,.14.55C39.88,23.4,37.19,24.66,39,24.66Z"/><path class="ab9d050a-c772-476e-9031-137c2d975c30" d="M3.49,20.2h.28v.14c-.32,0-1,.69-1,1h.14a.68.68,0,0,0,.55.69c0,.21,0,.11.14.28-.68.23-1.53-1-1.67-1.53H1.82v-.14H1.68a2.13,2.13,0,0,0-.14-.7H1.41v-.14H1.27c-.14-.94.25-1.21.62-2V18c.12,0,.51-1,.63-1.25.21-.42,1-.84,1-1.39a1.59,1.59,0,0,0,.91-1.12l.28-.07v-.48c.82-.09,1.31-1.33,2-1.33,0-.29.23-.58.27-1h.28c0-.26-.06-.18.14-.28v.14c.19,0,.12,0,.21-.14.25.13.46-.16.7-.28l-.21-.07.07-.27c.18.09.28.08.28-.14l.48-.07v-.14H8.78c0-.28.6-.79.84-.91-.2-.1-.14,0-.14-.28.24,0,.71-.3.91-.21,0-.2,0-.1-.14-.27a8.56,8.56,0,0,1,3.41-2.3v.21l.28.07c-.19.37-1,.75-1,1.11-.79,0-1.49,1.9-2.43,2.09l.13.14c-.21.21-.14.26-.07.56-.2-.11-.12,0-.2-.28-.08.52-.08.56-.49.76v-.28l-.07.21c-.21,0-.17.12-.35.21H10c0,.19,0,.1.07.28l-.14.07v-.14c-.35.18-.19.21-.7.21l-.07.84h.14v.13c-.39.06-.6.21-.9,0a1.79,1.79,0,0,0,.34-.55c-.26-.14-.08-.06-.55-.14l-.07.14c-.2-.1-.28,0-.49.07l.14.21a.77.77,0,0,0-.42.07l.14.07c-.26.3-.64,1-1,1-.12.34-.45,1.24-.84,1.11-.3.61-1.18.61-1.18,1.19l-.14-.07c-.13.25-.14.39-.42.48v.14a.5.5,0,0,0-.42.42c.51,0,.36.22.42.77-.23-.08-.33-.11-.21-.35l-.41.07.06.14c-.18.09-.08.07-.27.07v-.14c-.26.17-.18.06-.28.28h.14a1.41,1.41,0,0,0-.21.48H2.59v-.14c-.22.11-.27.27-.35.49.18.09.09.07.28.07,0,.2.09.23,0,.42h.14v.14c.22,0,.1,0,.35.14-.28.14-.32.23-.14.49H2.66v-.14l-.21.07c.23.46.41.29,1,.34Z"/><path class="afbee64b-6422-460a-9a0c-7f52cd58b918" d="M20.13,23.19l.28-.06c-.17-.51-.07-.46-.07-1H20.2a8.4,8.4,0,0,1,.14-1H20.2c0-.36-.1-.71.28-.84V20.2h-.14a.51.51,0,0,1,.28-.56c-.18-.36.14-.51.14-.76.26-.09.17,0,.28-.21l.14.07v-.56l.27-.07v-1.6l.28-.07a2.89,2.89,0,0,0,0-.83c.23-.08.22-.21.42-.21,0-.64-.15-.46.21-.7l-.07-.21h-.21c.15-.3-.24-.9.21-.9,0-.4.13-.3.21-.77l.07.14v-.35l.28-.07a1.39,1.39,0,0,1,0-.9H23l.07-.21.07.28h.13c0-.26-.06-.18.14-.28v.42h.14c0-.47.14-.25.14-.56H23.4c0-.22.1-.23.28-.14v-.42c-.18.1-.11,0-.21.21l-.07-.28c.26-.08.25-.34.49-.34,0-.21,0-.11-.14-.28.1-.19,0-.25.21-.35v.14c.18-.09.09-.07.28-.07,0-.6.14-.22.14-1l-.07.14V8.58l.07.14V8.3l.07.42a18.06,18.06,0,0,0,.35-2c.13-.83,1.25-.21,1.25-1.19-.26,0-.18-.06-.28.14-.09-.18,0-.14-.21-.14.09-.18,0-.14.21-.14V4.89h-.14c0-.25.19-.23.42-.28-.09-.52-.13-.29.07-.7l.07.14c0-.32.42-.69.42,0h.13v.14h-.2l-.07.42h.27v.14h.14V5.1c.26.08.15.1.35,0v.13h.14l.07.35h.14c0,.5-.14.18-.14.84h.14v.14h.28V6.7c.37,0,.14.27-.07.34l.07.21H28c0,.19,0,.12-.14.21.2.1.09.07.35.07-.18.35-.07.09-.07.84h.28c0,1.49.24,3.28.27,4.94,0,.1.1.19.14.28l-.14.14.14.28c-.74.37-.23,3.55-.14,4.59h.14a6.33,6.33,0,0,1,0,1.74l.14-.07c0,.47,0,.29-.28.63.19,0,.28,0,.28.21-.41-.11-.42-.1-.42.34h.28V23c.25,0,.28,0,.28.27L29,23.19l-.14.21H29A1.89,1.89,0,0,0,29,24h.14v.63a3.53,3.53,0,0,1-.83-.07v-.14a40.27,40.27,0,0,1-5-.63v-.14A16.71,16.71,0,0,1,20.13,23.19Z"/><path class="a3ef03ba-64a5-4bda-987b-b713e9fd7a6e" d="M13.38,29l.07-.21h-.28l.14-.21v.14c.15-.3,0-.13.63-.21v.14c.23,0,.25-.2.55-.2v.13l-.21.07c.42.11.37.42.7.42a2.06,2.06,0,0,0,.14-.56c.09.19.22.24.35.42-.14-.41.07-.22.21-.48.09.27,0,.18.27.27v.14l.28-.14V29c.37,0,.07-.34.28-.55.18.09.21.35.28.55.33,0,.2,0,.42-.07-.23.9.36.15.62.28,0-.25,0-.28-.27-.28,0-.61.6-.49,1-.35v.14h.14c-.09-.34,0-.33.14-.62v.14c.18-.09.09-.07.28-.07,0-.82.91-.56,1.25-.21.41-.21.55.07,1,.07l.07-.21c.19.12.24.25.42.35l.07-.14c.15.14.28.14.28.35a2.73,2.73,0,0,0,.63-.14v.28h.28v.13a4.7,4.7,0,0,0,1.39-.27v.14c.19,0,.1,0,.28-.07,0,.19,0,.09-.07.27l.14.14c.28-.42.48-.46,1-.28v.14c.15-.07.27-.06.42-.14v.21c.22-.11.12,0,.21-.34l.14.07c.09-.19.06-.09.06-.28.27,0,.15,0,.35-.07l.07.28c.26-.27.18-.12.28-.42.36,0,.44-.23.77-.07.2-.21.07-.14.41-.14l-.13.07c.67.15.41.14.76.14.11-.32,0-.2.42-.28v.14c.31.08.33,0,.63,0,0,.27-.05.16.13.35.2-.29.06-.21.42-.21,0,.46.84.2.63-.21.27-.18.71-.38.9,0-.24.16-.21.05-.21.28.51.16.7-.28,1.19-.28l.07-.21c.7,0,1.11-1.11,1.81-1.11,0-.28,0-.24.28-.35-.22-.11-.17-.22-.07-.42l-.56-.07v-.14c-.38,0-.7.42-.91.42-1.29,0-2.59,0-3.89,0-.6,0-1.06-.32-1.6-.14v-.14A12.86,12.86,0,0,1,26,25.35v-.14c-2.8.24-5.38-.62-8.15-.83-1.59-.12-1.45.35-2.29.35v-.35a20,20,0,0,1-2.44-.28c-.13.26,0,.14-.49.14,0-.19,0-.1.07-.28-.93,0-1.85,0-2.78.07v-.14c-1.13,0-2.19.05-3.34.14l.14.14c-.42-.21-1.17,0-1.67.14v-.14c-.19.09-.09.07-.28.07V24.1c-.27-.09-.16-.12-.35.07l.21.07c0,.19,0,.12-.14.21l.28.07c0,.32,0,.38-.28.48l.14-.27-.21-.07c-.09.18,0,.14-.21.14v.55c.54,0,.41-.14.56.14.13-.26.37-.14.62-.14l.07-.21.28.07v.14h.21c0,.76-.58.47-.35,1.39h.28v.14c-.54,0-.41-.14-.56.14h.21l-.07.21.14.07H5.44v.14h.42v.14h.7l-.14-.14c.18-.09.14,0,.14-.21H6.35v-.14H6.14L6.42,27l-.07-.21a2.6,2.6,0,0,1,1,0c0,.2,0,.12-.14.21.23.12.09.09.42,0v.14c.39,0,.23-.16.7-.07-.08-.64-.23-.45.14-.69l-.14-.21c.18-.09.09-.09.28,0,.12-.25.21-.14.41,0l-.14.07a1.19,1.19,0,0,1,.56.07v.35h.21c-.66.33.05.57.35.69.11-.44.35-.38.69-.21l-.07.14c.28.09.19,0,.28.28.11-.22,0-.14.35-.14v.14h.21c-.1-.2,0-.39.07-.63l.14.07-.07.21a1.29,1.29,0,0,0,.56-.07l.07.14.13-.07c0,.19,0,.1.07.28l-.2.07.07-.21-.21.28L12,27.58l-.07.14h.14v.21c.2-.1.09-.09.34,0C11.82,28.22,12.92,29,13.38,29Z"/><path class="e7028867-9574-4e63-8df2-55a0634ce5b5" d="M37.19,7.18v.14c.26,0,.14,0,.35.07-.15-.29.54-.5.83-.69,0,.26-.06.17.14.27-.09.19-.07.09-.07.28h.28v.14c-.26,0-.18-.06-.28.14.32,0,.61-.09.84.14-.12.22,0,.38-.07.63h-.28l-.07.21c.21,0,.09,0,.35-.07,0,.19,0,.09.07.28.13-.28.32-.11.2.13l.49.07V8.78l.21-.06v.13h.21V9h.14v.14h.14c0,.2-.7.35-.84.63.31.15.66.12,1,.28l-.07.14H41c0,.23-.14.11-.14.35h-.14l-.07.34c.4,0,.43-.21.83-.21,0,.21.12.17.21.35l-.14.07a.93.93,0,0,1,.42.21l-.14.07h.14v.14h.14v.14c-.2,0-.11,0-.28.14h.28c-.49,1-.17-.83.14.69l-.21.07c0,.38-.21.38-.21.84l.21-.07c.14.29.14.26.07.63h.21a1.7,1.7,0,0,1-.07.55h.14c0-.59,1-.09,1.39-.07v.21h.42v.14c.39-.19.31-.3.76-.21.13-.25,0-.43-.07-.69.24,0,.1,0,.42.07,0,.19,0,.09.07.27l.07-.48h-.14v-.49H45V13h-.14v-.42h-.13v-.27h-.28v-.42h-.14v-.14h-.14v-.28H44V11c-.18.09-.09.07-.28.07a3.21,3.21,0,0,0,0-.76l-.28.14a1.27,1.27,0,0,1-.14-.42l-.14.14a.67.67,0,0,1-.27-.63h-.14V9.41h-.14V8.92a1.83,1.83,0,0,1-1-1.11H41.5V7.53h-.28V7.25h-.13V7.11c-.31-.1-.7-.21-.7-.55-.4,0-.61-.51-.7-.84h-.41V5.3a1.93,1.93,0,0,1-.77-.14V5c-.21,0-.35,0-.35-.21a7.5,7.5,0,0,1-1-.07V4.61a2.36,2.36,0,0,1-.84-.14V4.26c-.18.09-.14,0-.14.21h-.28v-.7c-.39,0-.46-.06-.76.14l.07-.14c-.25-.12-.09-.06-.49-.14l-.07.14h.14v.14c-.26,0-.18-.06-.28.14a1.08,1.08,0,0,0,.42.14L35,4.05l.07.21L35,4.33c.31,0,.35,0,.49.28-.49,0-.8.19-.63.69h.28v.21c.35-.17.09-.07.83-.07v.21c.35-.08.54-.15.91-.21l.07.14L37,5.44c.2.4-.31.28-.56.28l-.07.21c.21,0,.11,0,.28-.14.15.31,0,.14.63.14v.49l-.14-.07-.07.28h.14c0,.21.14.22.21.48Z"/><path class="a1429b52-5d0b-435f-a4b6-4d89c4db0371" d="M14.77,4.19c.31,0,.09-.14.56-.14,0-.43.07-.35.56-.42V3.42c.38-.09.76-.48,1.11-.48V2.73l.28-.07V2.52c.2,0,.69-.11.69-.42h.56c0-.85,1.45-.69,1.95-.69V1.27h-.14c0-.21.11-.2.28-.28v.14c.55,0,.26-.5.76-.42s1.14.37,1.4-.14c.11.23.6,0,.9,0V1c1,0,1.68-.42,2.79-.14V1c1.3,0,.88-.19,1.39.07l-.21.14.77.14c-2.24.06-4.38,0-6.62-.07-.1.3-.17.27-.48.34l.13.14c-.66,0-3.29.57-3.13,1.4-.41-.09-.26-.16-.49.07-.52-.26-1.32.9-1.74,1.11V4.12c-.19.1-.1,0-.27.21l.07.14c-.24,0-.36.18-.56.28h.14c-.08.15-4.05,2.78-4.11,2.78.08-.58-.09-.45.35-.56v-.2c.45-.12.34-.63.83-.63V5.86c.5,0,.62-.47,1.12-.56,0-.42.75-.83,1.11-.83Z"/><path class="fc6516cc-3c82-4c91-a5ac-691165862e3d" d="M14.77,12.54h-.35V12.4c-.15.31-.32.34-.41.7L13.8,13c-.55.55-.71,1.69-1.05,2.37L12.68,15c-.28.29-.14.07-.14.77h.21v.14c-.71,0-.33.68-.76.9a6.21,6.21,0,0,1,.21.77,7.26,7.26,0,0,0-.91,1.67h.14c0,.24-.14.21-.35.21-.12.35-.34,1.18-.62,1.18v-.14h-.14c0-.63.14-.59.14-1.11h-.14a1,1,0,0,0,.41-.21L10.59,19c.44-.29.22-.5.42-.91-.5,0-.25.14-.69.14.13-.26.06-.09.14-.55h-.21c.16-.25.14-.13.14-.35.2.1.09.08.34,0-.2-.1-.14,0-.14-.28a1.07,1.07,0,0,1,.84.07c0-1.46.14-.66.14-1.39l.28-.07v-.14H12c.15-.62,0-.42.28-.7-.19-.09-.14,0-.14-.21l-.28.14v-.42h-.14v-.14c.85-.07.79.14,1-.41-.22.11-.08.07-.41.07.2-.1.13,0,.13-.28l.21-.07c0-.27.07-.41.07-.7a1.63,1.63,0,0,1-.69-.07c.56-.28-.4-.21,1-.21v.14h.28c-.12-.23,0-.28.21-.28v-.13H13.1c0-.47-.12-.36.14-.49V12h.35v.14l.07-.35h-.14c0-.26,0-.42.28-.42v.14c.22-.11.08-.07.41-.07,0-.19.28-.84.56-.84v.21c.85-.42-.28-1-.28-1.32l-.21.07c.26-.51.3-.2.84-.07l.07-.14h-.14c.1-.21.51-.23.7-.14,0-.3.27-.42.27-.69h-.13c0-.3.09-.18.2-.42a6.07,6.07,0,0,1,.63.14c-.08.46-.28.56-.28,1h-.21l-.07.28H16c0,.3-.06.44-.06.7h-.14V10c-.21.1-.14,0-.14.28H15.4c-.1.59-.48.88-.35,1.53l-.21.07L15,12C14.81,12.32,14.77,12,14.77,12.54Z"/><path class="b9da8c30-a422-431a-a1a2-cbc705fb3214" d="M31.48,25.07v.28h.83v.14h.84v.14h.42v.14h.28v.14c-1.79,0-3.67-.7-5.36-.14v-.14A12.86,12.86,0,0,1,26,25.35v-.14c-2.8.24-5.38-.62-8.15-.83-1.59-.12-1.45.35-2.29.35v-.35a20,20,0,0,1-2.44-.28c-.13.26,0,.14-.49.14,0-.19,0-.1.07-.28-.93,0-1.85,0-2.78.07v-.14c-.8,0-5,.65-5-.35H4.75V23.4H5.86v.14H6.7v-.21c.4-.1.66-.06,1.11-.2.14.27,4.48.08,5.29.13,1.62.11,3.34.14,4.87.14a3.52,3.52,0,0,1,2.23.84c.12.08,2.73.13,2.93.14v.14H24v.14h.14v.14c1,0,2,.36,2.92-.07V25h.28v-.13a3,3,0,0,0,.7-.07V25c.22,0,.11,0,.28-.2v.14h.27v.13Z"/><path class="f0a04175-8ba2-4b1c-a5e8-df1373855396" d="M26.47,3.22h-.28c-.15.59-.36,1.08-.56,1.67h.14v.55c-.19,0-.12,0-.21.14.19,0,.12,0,.21.14.1-.2,0-.14.28-.14,0,1.13.08-.21-.14.35s-.89.28-1.11.84c-.54,1.34-.84,3-1.67,4.1l-.21-.07c0-.21,0-.09.07-.34h-.14v-.28c-.19.09-.32.08-.42.28.26.08.17,0,.28.2l-.28.14h.21c-.28.1-.19,0-.28.28l.21-.07-.07.21c-.39,0-.27.22-.14.49-.33,0-.68.2-.56.56-.19,0-.12,0-.21.13h.14v.28h-.14v-.14l-.07.14.42.07a.77.77,0,0,0-.07.42c-.33.08-.19.11-.42,0a1.28,1.28,0,0,0-.13.35.48.48,0,0,1,.13.76c-.21-.1-.25,0-.41.14-.18-.17-.14-.07-.14-.28a.81.81,0,0,0-.63,0V14l-.14.13-.07-.41h-.14c.09-.18,0-.14.21-.14v-.21h-.35c.26-.51.5-.17.63.21a2.27,2.27,0,0,0,.07-1.67c-.2.1-.21,0-.42.07l.07-.42c.25.16.21,0,.21.28.31,0,.09-.14.56-.14,0,.61.41.41.21,0,.33-.08.19-.11.41,0-.16-.33.23-.31.35-.56h-.14V11c-.54-.07-.41.08-.55-.21l.27-.07v-.34c-.33,0-.19,0-.41-.07l.07-.14c.18.09.33,0,.55,0v.14c.18-.09.14,0,.14-.21L22,10l.07.14c.2-.2.49-.34.49-.63h-.28c.15-.3.26-.63-.14-.77.2-.2.32-.11.56,0V8.51H22.5c0-.6.7-.19.49-.84-.43,0-.24,0-.56.07a.62.62,0,0,1,.76-.21l.07-.21c-.2.11-.34,0-.55-.07,0-.49.62-.33,1-.28v-.2l.07.14a1.38,1.38,0,0,0-.07-.7,1.28,1.28,0,0,0,.56-.63c-.61,0-.39.09-.7-.07.11-.22,0-.14.35-.14L24,5.16c.7.16.42.21.84.07,0-.4.19-.77-.35-.9V4.19l.35-.07-.35-.07c.11-.22,0-.14.35-.14V3.7l.41-.07c0-.19,0-.09.07-.28h-.14a2.84,2.84,0,0,0-.07-.69h.35c0,.19,0,.12-.14.21.09.18,0,.14.21.14C25.49,2.47,26.37,2.93,26.47,3.22Z"/><path class="f7ab35a7-2d62-4486-976d-ff62e2bc989c" d="M35.66,15.61c-.27,0-.45.21-.77.28l-.07.55c-.24-.12-.91-.07-1,.21h.14c-.47.12-.46,0-.91.21.16.08.27.65.49.21a3.87,3.87,0,0,0,.83.21v.14c-.29,0-.39.3-.62.41.25.09.14.11.34,0l.07.14c-.34.23-.66.07-1,.07l-.07.21c-.33,0-.24-.08-.35.14h.28v.14h-.35v-.42l-.21.14.07.14c-.18.09-.14,0-.14.21-.36,0-.2-.05-.48.14.26.26.94.28,1.11-.07.1.2.18.2.28,0v.21h.14c0,.26-.19.21-.42.21l-.07.21H33c0,.34-.73.12-1,.21.14.28.57.1.83.06v.21c-.38,0-.2.14-.49.14v-.14c-.09.18,0,.14-.21.14v-.14h-.55c.1-.29.07-.13.07-.48l-.49-.07c.35-.12.35-.22.35-.56l.21.07v-.28c-.35,0-.19,0-.49-.07.19-.19.15-.33.21-.63-.21-.1-.12,0-.21-.27l.21.07v.14h.28c0-.22,0-.1-.07-.35h-.21l.21-.07a1.49,1.49,0,0,1-.35-.14c.72-.08.58.13.7-.35-.28.09-.14.09-.42,0,0-.29-.28-.23-.28-.49h-.21l.07-.41h-.14c.14-.27.07-.28.42-.28v-.42h-.42a1.08,1.08,0,0,0,.42-.14c-.08-.32,0-.51-.07-.84h-.14l-.07.28h-.56v-.14h-.28c0-.2-.05-.41-.27-.41v.2l-.28-.06v-.35c.29-.08.55-.29.55.14a3.47,3.47,0,0,1,.91,0v-.21c-.47-.08-.35.05-.49-.21l.21-.07c-.11-.22,0-.14-.35-.14,0-.26,0-.15-.07-.35.19-.09.12,0,.21-.21l.14.07.07-.21h-.14a2,2,0,0,1,.63.07v-.14c-.24,0-.1,0-.42-.07.11-.21.22-.1.42-.2-.12-.24-.61-.53-.14-.77v.14c.17-.09.21-.21.35-.35-.13-.06-.68-1-.42.07-.27-.27-.51-.23-.91-.28,0-.35.14-.35.14-.69-.26,0-.17.06-.27-.14.28-.07.51-.23.34-.56l-.27.07.13.14a1.1,1.1,0,0,1-.62-.56c.18-.09.09-.09.28,0V9.06L30.5,9V8.85c-.32,0-.48-.21-.48-.55l.69-.07a.41.41,0,0,1,.21-.56c-.12-.24,0-.28.21-.28V7.25h-.28c.12-.24,0-.14.42-.14v.28c.19,0,.28,0,.28.21h.28v.14H32v.14c.58,0,.67-.08.83.42H33a1.27,1.27,0,0,1-.07.48l.21.07c-.26.09-.18,0-.28.21.21,0,.1,0,.35-.07v.14h.14v.14h-.21V9.13a.81.81,0,0,1-.42.14V9.06c0,.14-.09.28-.14.42.19,0,.1,0,.28-.07l.07.14L33,9.41v.14h.14c-.1.29-.11.15.07.42H33l.35.07v.14h.28v.14H33.5l.21.14c-.32.23-.28.09-.28.34h.14V11l.28-.07c.1.2.07.09.07.35h.13c-.1.22-.22.17-.41.07l-.07.28h.14l-.07.14h.14l-.14.07.14.07-.07.14h.34c-.17.25-.41.38-.41.69.33,0,.71-.29.9.28-.22.11,0,.17-.28.28h.28v.35a3.23,3.23,0,0,0,.56.14c0,.23.1.49,0,.69h.21c-.11.22,0,.42-.14.63C35.58,15.2,35.66,15.19,35.66,15.61Z"/><path class="fcbfdf06-e0d7-445d-9629-50e54588c763" d="M.85,19.51H.71v-.14H.57v-.14H.29c.1-.2,0-.14.28-.14L.43,19,.57,19c-.5-.25-.14-.73.28-.84V17.9l.28-.07v-.2l.28-.07v-.49L1.68,17v-.21a1.3,1.3,0,0,0,.84-1.25l.28-.07c0-.5,1.3-1.75,1.67-1.81v-.21a2.93,2.93,0,0,0,1.18-1c.09.19,0,.14.21.14-.05-.22-.1-.55.21-.55.13-.39,0-.2.63-.28,0-.4-.11-.3.14-.42v.14H7c0,.66-.15.46-.27,1-.64,0-1.06,1.15-1.88,1.26l-.07.55H4.54a6.66,6.66,0,0,1-1.95,2.44c-.31.25-.4,1.39-.7,1.39v-.21a3.07,3.07,0,0,0-.62,2.23h.14v.84C.83,20.9.9,19.94.85,19.51Z"/><path class="ac0af364-2211-4e67-8a3e-82d787025d0d" d="M18.39,23.54c.09-.18,0-.14.21-.14.09-.27,0-.18.28-.27,0,.55.4.2.49-.14h-.14v-.14h-.14v-.14h.21s.24-2.37-.35-2.37c.24-.24.21-.32.28-.7h-.14c.12-.24.15-.62.48-.62v-.28c-.26,0-.14,0-.34-.07a1,1,0,0,1,.14-.35h-.14c0-.4.14-.13.14-.69h-.14v-.14l.55-.07v-.14h-.14v-.21l.42-.07a2.86,2.86,0,0,1,.07-.63l.28.07c-.09.26-.1.15,0,.35-.18.18-.18.27-.07.49l-.14.07h.14v.28c-.4.08-.29,0-.42.2h.14c0,.2,0,.1.07.28-.26,0-.18-.06-.28.14.36,0,.19,0,.49-.07-.1.32-.14.58.21.7V19h-.14l-.07.21a.58.58,0,0,0-.49.83c-.19,0-.12,0-.21.14h.28v.14h-.21l-.07.7h.14c0,.36.24,1.73,0,2.09a29.61,29.61,0,0,0,3.48.55v.14c.85,0,1.66.28,2.51.35-1.82,0-3.61-.14-5.43-.21v-.21A6,6,0,0,1,18.39,23.54Z"/><path class="fd4b2981-422f-4d2d-8c15-0cff0140e490" d="M13.66,6.42V6.21h-.21c.31-.62,1.8-1,2-1.39l-.14-.07c.26-.13.1,0,.42-.35l.14.07c0-.2,0-.26.2-.35v.21c.49-.24,1.22-1.38,1.74-1.11.23-.23.08-.16.49-.07l.07-.35h-.14c.73-.37,2.47-1.41,3.2-1V1.61h-.13c.79-.19,1.62,0,2.36-.2v.13h-.21c0,.35-.3.59-.14.91-.19,0-.09,0-.27-.07-.08.15-.44.32-.63.42-.56-.56-2-.1-2.65.21l.14.07c-.33.16-.17.25-.62.14l-.07.27h.14v.14c-.43,0-.84-.06-.84.42-.71-.08-.45-.19-.83.07.22.11.08.07.41.07v.28C16.57,4.47,14.77,6.7,13.66,6.42Z"/><path class="a62837cd-e8f6-4739-b2c8-29a7e61f10a4" d="M14.08,13c0-.32.21-.36.34-.63v.14h.35a9.31,9.31,0,0,1-.56,2c.2-.1.31,0,.56-.07v.21c.33,0,.2,0,.42-.07a2,2,0,0,0,.14.63h.21c0,.2,0,.11.14.28a1,1,0,0,0-.42.9h.14v-.28c.54-.07.34,0,.62-.14v.28a.7.7,0,0,0-.55.42l.35.07c0,.21.82,1.11.13,1.11v-.14l-.13.14.07.14c-.49.49.35.77-.77.77.19-.19.14-.07.14-.35h-.14v-.14c-.84,0-1.65.49-2.37.49l-.07.21h-.21l-.07.21h.14v.28h.35c-.56.22-.1.36-.49.55h.14v.28c.74,0,.49.28.28.7l.14.14L13,21l.14.07c.09-.52-.07-.39.35-.49V21c-.19,0-.12,0-.21.14h.21c0,.35-.15.27-.49.27l-.07.21c-.69,0-.72.28-1.25.28v-.28l-.28.07v-.14h-.14l-.07.21.14.07-.35.07c.09-.18.07-.09.07-.28l-.21-.07c.5-.25-.15-.91.35-1.25l.07.14c.81-.4-.51-1,.84-1.18,0-1-.27-.77.14-1v.14h.27v-.28H12.4a1.15,1.15,0,0,0,.28-.41H12.4c.18-.36-.14-.91.14-1.19s.63-.35.84-.76H13l.21-.07a2.46,2.46,0,0,1,.42-.84V15h.14v-.21h-.14v-.49c.38-.12.3-.87.55-1.25Z"/><path class="a54880ce-4f53-4d4d-9056-4013f8d6a533" d="M30.92,7.11l.14-.2c.57.28,1.28-.07,1.88-.07V7h.49v.56h.28l.07.21h.14l-.07-.14.41-.07c0,.74-.14.37-.14.84h.14c0,.19,0,.12-.14.21a2.29,2.29,0,0,1,.7,1H35c0,.28,0,.35.28.35A23,23,0,0,0,36,12.54h.14c0,.9.56,2,.56,2.93-.24-.12-.17-.42-.21-.7H36l-.07.56c-.48,0-.29-.12-.76-.21.1-.21,0-.41.14-.63H35.1c.27-.55-.09-.72-.56-.83v-.35h-.28c.23-.11.06-.17.28-.28-.17-.34-.32-.32-.69-.42-.09.18,0,.14-.21.14a3.81,3.81,0,0,1,.41-.69l-.34.07.07-.14-.21-.07.21-.07-.14-.07.07-.14h-.14v-.21c.28-.09.14-.09.41,0l.07-.14h-.13c0-.26,0-.15-.07-.35l-.28.07V10.8h-.14c0-.25,0-.11.28-.34l-.28-.07.21-.07v-.14h-.28V10h-.42l.28-.07V9.76h-.14l.07-.21H33V9.41l-.07.14-.07-.14c-.18.09-.09.07-.28.07,0-.21,0-.09.07-.35.13.26.28.11.49,0v.14h.21V9.13h-.14V9c-.21,0-.1,0-.35.07.11-.22,0-.12.35-.21l-.28-.07c0-.35,0-.19.07-.48-.23,0-.21-.15-.28-.35A2.84,2.84,0,0,1,32,7.88V7.74h-.21V7.6h-.28V7.46c-.29,0-.28,0-.28-.35Z"/><path class="f3f28ea6-94c2-4042-ac12-1e2f510277a9" d="M35.86,3.42l.07-.34h-.27V2.94h-.84V2.8h-.14V2.66c-.23,0-.42.06-.42-.21a1.88,1.88,0,0,1-.76-.07l.14-.07-1-.07V2.1c-.65-.05-1.3-.1-2-.21.18-.09.14,0,.14-.21a17.86,17.86,0,0,1-3.06-.48l.14-.07c-.51-.26-.09-.07-1.39-.14V.85c-1,0-1.87.14-2.79.14V.57c-.86,0-.41.14-.83.14V.43A44,44,0,0,1,27.3.29V.43c.75,0,7.52.71,7.52,1.25.37,0,1,.38,1.39.42v.14h.14v.14h.28v.14h.14V2.8a4.34,4.34,0,0,1,.7.14v.14h.2A2.11,2.11,0,0,1,35.86,3.42Z"/><path class="acbee1a6-ee8d-43ef-8dea-384c7047e6c4" d="M20.34,16H20.2a.86.86,0,0,1,.28-.62l.07.14.07-.14c-.54-.27-.08-.81-.21-1.19.3-.09.14-.08.49,0,0,.21,0,.11.14.28.1-.2.21-.24.41-.14,0-1-.28-.73.49-1.11-.08-.33-.11-.19,0-.42h-.49l.14-.21.14.14V12.4h-.14c.09-.18,0-.13.21-.13-.11-.34.27-.56.56-.56,0-.29-.33-.49.14-.49l.07-.21-.21.07v-.14l.28-.07-.21-.07.28-.14c-.11-.2,0-.12-.28-.2.12-.25.23,0,.35-.28l.07.28H23c0,.21,0,.09-.07.34l.14.07c-.16.47-.48,1.27-.21,1.67h-.21l-.07.42-.07-.14c-.08.47-.21.37-.21.77-.45,0-.06.6-.21.9h.21l.07.21c-.36.24-.21.06-.21.7-.23,0-.11.14-.35.14-.07.36,0,.54-.07.9h-.21l-.07,1.67h-.2l-.07.63c-.52-.26-.48.73-.7.83l.14.07c-.28.19-.2.23-.28.56h.14v.14h-.14c-.1.51-.05.23-.14.84h.14a3.45,3.45,0,0,1-.14,1h.14a5.39,5.39,0,0,0,.07,1h-.56A6.1,6.1,0,0,0,19.78,21h-.14v-.63l.28-.07V20.2h-.28c.09-.18,0-.14.21-.14,0-.37,0-.83.49-.83v-.14l.21-.07v-.14h-.28c0-.49,0-.29.07-.63-.24-.12-.09-.08-.49,0,.1-.2,0-.14.28-.14,0-.19,0-.28-.21-.28.13-.24,0-.12.42-.2v-.28H20.2c.3-.15,0-.32.21-.56C20.31,16.59,20.39,16.2,20.34,16Z"/><path class="a1c269b0-4d3a-41ca-badc-92cc1485201d" d="M35.45,25.84v-.21h-.56a1.78,1.78,0,0,0-.07-.56h-.14v-.13c-1.44,0-4.54-.58-5.85-.14v-.14c1,0,.64-.14,1.05.07l.07-.21h-.14v-.21l.21-.07V24h-.28c.09-.18,0-.14.21-.14V23.4l.28-.07v-.14h-.49c.13-.51.35-.76.9-.62v-.14H30.5c.1-.2,0-.14.28-.14L30.71,22l.35-.07-.49-.07.07-.21c.73.09.67-.21,1.26-.21,0-.36,1.27-.36,1.53-.27.1-.21,0-.14.28-.14v.14c.26,0,.17.06.27-.14.1.19.28.3.28.48l.21.07a.42.42,0,0,0-.14.7l-.14.14c.2.1.14,0,.14.28.3,0,1,0,1.12-.35.11.33,0,.45-.21.7.2,0,.1,0,.28.13-.23.12-.14,0-.14.35h.14v.35c.2,0,.21-.14.41-.14V24h.56v-.21l.7-.07V24h.28v.42h-.21l-.07.42h.28v.14h.13c-.69,0-1.54-.07-1.67.69h-.14v-.14C35.66,25.63,35.53,25.67,35.45,25.84Z"/><path class="a8936aaf-a040-4987-a5e0-0de8af5b91cb" d="M34.12,5.3H33.5V5.16h-.77V5h-.62c-.08.22-.21.21-.21.41H32v.14h.13l-.06.35c-.14-.27-.38-.44-.49-.77h-.14V5h-.14c0-.33-.71-.74-.84-1.12H29.25V3.7c-.21,0-.09,0-.35-.07.11-.22,0-.14.35-.14V3.08h-.14V2.94H29c0-.27-.28-.27-.28,0h-.41c.11-.23,0-.14.34-.14V2.66h-.13V2.52l.27-.07v.14L29,2.45c-.08-.33-.21-.29-.35-.56.14,0,.22-.2.35-.21.6,0,1.21,0,1.81,0,0,.2,0,.12-.14.21.66,0,1.29.16,2,.21v.14l1,.07-.14.07a2.27,2.27,0,0,1,.76.07v.14c.24,0,.1,0,.42.07V2.8h.14v.14h.84v.14h.27c0,.53,1.53,1.46,2.09,1.6l-.83.07V4.61a2.36,2.36,0,0,1-.84-.14V4.26c-.18.09-.14,0-.14.21h-.28v-.7c-.39,0-.46-.06-.76.14l.07-.14c-.25-.12-.09-.06-.49-.14l-.07.14h.14v.14c-.26,0-.18-.06-.28.14h.14a2.38,2.38,0,0,0-.76.21V4.05c-.27,0-.15,0-.35-.07l.07-.21c-.56,0-.38.12-.63-.14-.27.14-.46.09-.63.35l.21.07v.14h.14v.14h.14c0,.31.39.23.63.35l-.07.14C33.65,4.93,33.81,5.15,34.12,5.3Z"/><path class="e1a3fbde-3ac8-4dc7-b65b-10c2366b49ec" d="M42.34,14.49c0-.59,1-.09,1.39-.07v.21h.42v.14c.39-.19.31-.3.76-.21.13-.25,0-.43-.07-.69.24,0,.1,0,.42.07,0,.2.15.33.21.55h.35a5.67,5.67,0,0,0,.14,1h.14v.42h.14v.27h.14v.42h.14V17h.13a5.25,5.25,0,0,0,.14,1.53h.14v.7h.14c0,.39-.16,2.34-.49,2.5h.21c0,.19,0,.28-.21.28v-.14c-.16.5-.37.6-.9.49v-.14a1.08,1.08,0,0,1-.77.07c-.08.25-.07.14-.07.35l-.41-.07V21.45h-.14v-.13h-.14c0-.61-.17-.48.14-.63l.07.35c.23-.46.64.1.48-.7h-.41c0-.23,0-.09-.07-.42-.09.18,0,.14-.21.14v-.14l-.07.14L44,19.78l.14-.07-.28-.07c0-.35,0-.19.07-.48h-.21c0-.42.08-.27-.14-.49l.21-.07c-.09-.27-.12-.16.07-.35l.14.07v-.21h-.14c.05-.09.09-.18.14-.28h-.14c-.08-.32-.11-.19,0-.41l.14.07v-.28c-.3.15-.52-.13-.84-.21l.07-.42H43.1c.18-.17.08-.14.28-.14,0-.26,0-.42.28-.42v-.13h-.14v-.35h-.76l.41-.07c0-.33-.1-.42-.41-.42.46-.23,0-.37-.28-.42v-.21Z"/><path class="b7ce0771-53ce-4ec0-a001-79992e3f9854" d="M15.89,9.76l.13.07c.18-.17.21-.18.42-.07,0-.48.24-.47.42-.84v.14H17c0-1.12,1.37-1.39,1.67-2.29.23,0,.09,0,.42.07V6.7H19l.14-.14-.28-.07c.52-.26,1.81-2.12,1.81-1.33h-.21l-.07.28h.21c0,.26.06.18-.14.28h.21v.14h-.21V6l.35.07c-.46.07-.79.35-1.19.35l-.06.49h.13c-.39.07-.29,0-.41.2L18.74,7c-.09.26,0,.18-.21.28a2.13,2.13,0,0,1,.14.77h-.49c-.08.26,0,.17-.21.28h.14v.28h.35v.13c-.19,0-.12,0-.21.14h.28c0,.21-.68.49-.83.49V9.27a.84.84,0,0,1-.42.14V9.2c-.19.1-.1.1-.28,0-.09.26-.1.15,0,.35-.18.09-.14,0-.14.21H17V9.9c.33,0,.19,0,.42.07-.42.08-.31,0-.42.28h.28L16,10.32l-.06.41h-.21l-.07.42h.28v.28c-.56,0-.49-.08-.63.35-.54-.27,0-1.37.35-1.46,0-.26-.07-.18.14-.28v.14h.14Z"/><path class="f36c87c5-fb52-408a-914e-ad0f0c4e11de" d="M9.9,21.87c.2-.4.56-.81.56-1.25.49,0,.18-.25.27-.77.06-.33.7-.31.7-.62h-.14c0-.88,1.11-1.21.7-2.44.43-.22,0-.9.76-.9v-.14h-.21c0-.7-.14-.48.14-.77l.07.35c.33-.66.47-1.79,1.05-2.37.18.09.22.17.41.07a1.42,1.42,0,0,0-.27,1.11c-.39.13-.2,0-.28.63h.14V15h-.14v-.14a4.11,4.11,0,0,0-.42.84H13.1l.28.07c0,.5-.88.58-.91,1-.06,1,.35.7-.07.91l.28.07c0,.2-.1.25-.28.34.23.11.14,0,.14.35h-.27v-.14c-.41.21-.14,0-.14,1h-.49c-.09.34,0,.21-.21.41.15.31.08.09,0,.7-.23,0-.09,0-.42.07v1c-.54,0-.69-.1-.69.42Z"/><path class="a055c3a4-d837-4550-b17c-368b44cabdab" d="M4.47,23.4c-.08-.33-.11-.19,0-.41H3.63v-.14H3.08v-.14H2.8v-.14c-.46-.05-.94-.56-1.12-.56v-.28c-.38,0-.27-.13-.27-.55H1.27V20.9h.14v-.84H1.27v-.28h.14v.14h.13a2.42,2.42,0,0,0,.14.7h.14v.14H2c.36,1.08,1,1.34,2,1.67v.14a7.45,7.45,0,0,0,1.25.35c1.47,0,2.93,0,4.39.07v.14l.84.06c-1.25.63-2.08-.06-3.07-.06v.2c-.26-.08-.37,0-.62-.07l-.07.28H5.86V23.4Z"/><path class="ac58d79b-9fd0-4430-bd74-a53d20926e74" d="M17.42,29.39c.1-.2.19-.32.41-.21,0-.25,0-.28-.27-.28,0-.61.6-.49,1-.35v.14h.14c-.09-.34,0-.33.14-.62v.14c.18-.09.09-.07.28-.07,0-.82.91-.56,1.25-.21.41-.21.55.07,1,.07l.07-.21c.19.12.24.25.42.35l.07-.14c.15.14.28.14.28.35a2.73,2.73,0,0,0,.63-.14v.28h.28v.13a4.7,4.7,0,0,0,1.39-.27v.14c.19,0,.1,0,.28-.07,0,.19,0,.09-.07.27l.14.14c.28-.42.48-.46,1-.28v.14c.15-.07.27-.06.42-.14v.21c.22-.11.12,0,.21-.34l.14.07c.09-.19.06-.09.06-.28.27,0,.15,0,.35-.07l.07.28c.26-.27.18-.12.28-.42.36,0,.44-.23.77-.07.2-.21.07-.14.41-.14l-.13.07c.67.15.41.14.76.14.11-.32,0-.2.42-.28v.14c.31.08.33,0,.63,0,0,.27-.05.16.13.35.2-.29.06-.21.42-.21,0,.46.84.2.63-.21.27-.18.71-.38.9,0-.24.16-.21.05-.21.28h.21v.14a15.06,15.06,0,0,0-3.76,1l.35.07v.14h.14v.14h.14v.28H29c0-.5-1.48-.14-1.74-.14v-.14c-3.43,0-6.85.42-10.3-.07C17.18,29.37,17.22,29.29,17.42,29.39Z"/><path class="bbffa174-d813-4a16-bf32-19627d576bd1" d="M16.51,4.75c.09.18.09.09,0,.28l.14.13c-.3.6-1.43.92-1.67,1.4.26,0,.15,0,.35.07-.37.12-.44-.14-.56.34a6,6,0,0,1-1,0l-.07.84c-.21-.1-.32-.07-.42.14h.14v.21c-.21,0-.27-.06-.42-.21-.25.25-.42.15-.42.56-.6,0-.1.24-.41.55.2-.1.26-.07.48,0V9.2c-.27.1-.14.1-.41,0l-.07.14a.65.65,0,0,1,.41.07v.28c-.37,0-.71-.25-1-.14,0,.39.47.77-.63.77,0-.19,0-.1.07-.28h-.41c.16-.25.13-.13.13-.35h-.13C11.46,9.5,12.2,7.6,13,7.6,13,6.58,15.82,5.44,16.51,4.75Z"/><path class="f57665f6-2156-4020-8cbf-5fe5864c4810" d="M4.19,24.8v-.28c-.41.2-.56,1.66-.56,2.09h.14c0,.22,0,.55.28.55v.14h.21c0,.51.33.28.9.28v.14h.21l-.07.14c.32,0,.42-.05.42.28h.56v.14h.28v.14l.28.07-.14.06H7v.14h.42v.14h.14V29H7.11v-.14c-.28,0-1.39-.15-1.39-.55-.4,0-.56-.21-1-.28v-.14H4.61v-.14a1.1,1.1,0,0,1-1-1H3.49v-.41H3.35V24.45l.28-.07c0-.34.28-.37.28-.84H3.63V23.4c-.43-.06-1.11-.35-1.11-.83H2.8v.14h.28v.14h.55V23h.84c-.11.22-.08.08,0,.41h.28v.14h.14l-.07.21A8.45,8.45,0,0,0,6.7,24v.14c-.42-.21-1.17,0-1.67.14v-.14c-.19.09-.09.07-.28.07V24.1c-.27-.09-.16-.12-.35.07l.21.07c0,.19,0,.12-.14.21l.28.07c0,.32,0,.38-.28.48l.14-.27-.21-.07C4.31,24.84,4.38,24.8,4.19,24.8Z"/><path class="a97a27bf-f741-4cf8-b0cc-cbcc6d7af027" d="M41.78,13.24c0-.36-.08-.23.21-.42l-.07-.21.28-.14-.07-.34c-.64,0-.83-.37-.14-.14l.07-.14-.28-.07c.17-.17.08-.14.28-.14V11.5h-.14v-.14h-.14l.14-.07-.42-.14c.16-.31-.07-.22-.07-.49a2.82,2.82,0,0,0-.83.21v-.28l.21-.06c0-.24.14-.12.14-.35h-.21l.07-.14a3.34,3.34,0,0,1-1-.28c.14-.28.84-.43.84-.63h-.14V9h-.14V8.85h-.21V8.72H40l-.07.2h-.49c.08-.24,0-.54-.2-.2l-.14-.07.07-.21c-.22,0-.1,0-.35.07V8.37l.35-.07a1.22,1.22,0,0,1,.07-.63h-.14V7.53c-.42.11-.19.09-.7,0,.1-.2,0-.14.28-.14V7.25h-.28c0-.2,0-.1.14-.28l-.21-.06V6.7h-.21c0,.4-.55.26-.69.55.17.18.11.08.2.28l-.2.14H37.4l-.07.42h.14v.14l.13-.07v.21h.28v.28h.21v.13h.28c0,.2,0,.1-.07.28.29,0,.24-.28.49-.28-.19.39.36,1.05.49,1.54h.41c0,.26,0,.12.35.27l-.21.14H40c.09.28,0,.19.28.28v.14c.21.07.35.18.56.07,0,.39.14.48.14,1h.14c.1.4.16.39.55.55A.26.26,0,0,0,41.78,13.24Z"/><path class="b1b83edd-9776-4cfa-82c2-b96ab212f797" d="M7,11.43V10.8c.46,0,.4-.67,1-.76,0-.33.14-.16.14-.49l.28-.07V9.27c.28-.07.36-.09.48-.35.12.23,0,.14.35.14V8.92H9.06c0-.43.17-.83.7-.83,0-.41,1-1.12,1.39-1.12V6.63c.41-.1.28-.35.7-.49,0-.41.36-.28.69-.28v.28c-.27,0-.77.58-.83.83H11.5c-.15.61-.23.39-.07.7-.39.33-1.29.61-1,1.11-.21-.1-.55.14-.84.14l-.07.28.14.07c-.18.09-.14.21-.35.21-.1.31-.38.39-.49.7h.14v.14H8.51c-.08.23-.11.32-.35.21l-.07.27H8.3c-.12.24-.44.48-.7.35-.09.18,0,.14-.21.14v-.14c-.2.1-.14,0-.14.28Z"/><path class="fab13a57-f05f-4a1c-b689-c38762097e62" d="M28.55,21.45c0-.44,0-.45.42-.34V21c-.19,0-.1,0-.28-.07a.88.88,0,0,0,.28-.63l-.14.07A6.49,6.49,0,0,1,29,19l-.21-.07.07-.28h-.14c-.1-1.05-.68-4.18.14-4.59a14,14,0,0,1-.14-4c.3.19.59.53.28.83l.28.07c0,.23.09.44,0,.63a3.37,3.37,0,0,0,.84.07v.14c-.21,0-.22.14-.42.14v-.14l-.14.14c.38.19,0,.75-.28.9.32.16,0,.2,0,.42h.14v.14h.14c0,.19,0,.12.14.21a1.37,1.37,0,0,1-.49.21l.07-.14c-.32.32-.28.05-.28.69h.35c0,.39-.27.19-.42.49h.21v.21h.28c0,.29-.14.39-.14.7h.14v.14h-.14l-.07.2c-.19,0-.12,0-.21.14h.14c0,.22,0,.1.07.35.21,0,.1,0,.35-.07-.11.22-.35.21-.21.49-.22.11-.17.31-.35.49l.21.07c0-.2,0-.12.14-.21v.14h.14a4.48,4.48,0,0,0,0,1.32c-.34,0-.35.09-.35.42h.14v.41l.56.07-.14.07c.2.11.09.09.35,0v.14h.28v-.14h-.21a2.51,2.51,0,0,0,.48-.14c.09.28,0,.34-.07.63.35.09.21,0,.42.21a1,1,0,0,0-.62.14c.09-.18.06-.09.06-.28-.22.11-.47.17-.69.28v-.14h-.28l.07.21h-.14v-.14h-.14c0,.45.19.84-.21,1v-.14Z"/><path class="a3cb3402-bbac-4a52-bcc3-62adec4c569d" d="M6.42,27.65v.14a3.49,3.49,0,0,1,.83.21v.14c1.12,0,2.23.32,3.34.41-.27.1-.18,0-.27.28-.26,0-.18-.06-.28.14h.21c0,.19,0,.1.07.28H8.09V29H7.53v-.14H7.39v-.14H7v-.14H6.7l.14-.06-.28-.07v-.14H6.28v-.14H5.72v-.21c-.23,0-.09,0-.42-.07l.07-.14H5.16v-.14H4.33c0-.25,0-.28-.28-.28v-.14H3.91a2.22,2.22,0,0,0-.14-.55H3.63a1.68,1.68,0,0,1,.28-1.12,10.19,10.19,0,0,1,.42,1.12h.14v.13h.14l.14.42h.41v.14h.28v.14h.42v.14A1.76,1.76,0,0,0,6.42,27.65Z"/><path class="a396860c-005d-408a-87ab-442cd09bbfe1" d="M36.49,14.77H36l-.07.7.21.07c-.31.15-.09.53-.41.69.1.21,0,.13.27.21v.28h.21c0,.4.11.3-.14.42a2.3,2.3,0,0,1,0,.83h.14v.42h.21l-.21.14.14.14-.14.07.14.14-.14.07h.14v.28h.14v.55h.21c0,.24-.28.39-.49.49.21,0,.2.14.42.21v.35c.26,0,.15,0,.35-.07,0,.21,0,.09.07.35-.22.1.13,1.32.14,1.46h.41v.28h.14a2,2,0,0,1,.14.55h.7v-.14h-.14v-.13h-.21a55.09,55.09,0,0,0-.76-6c-.53,0-.36-.25-.42-.84h-.14C36.91,15.62,36.59,15.44,36.49,14.77Z"/><path class="ee2b3b30-2563-405b-871b-937a3a52fcbf" d="M28.83,10h-.14c0-.42.2-.88-.27-1.12.1-.32.08-.13,0-.55h-.28c0-.76-.17-.54.14-.84-.28-.09-.14-.09-.42,0L28,7.25h-.14L27.79,7c.21-.07.44-.34.07-.34V6.56h-.28V6.42h-.14c0-.66.14-.34.14-.84h-.14V5.16l-.21.07V5.1c-.2.1-.09.08-.35,0V4.75h-.14V4.61h-.27V4.26l.27-.07V4.05h-.13c0-.69-.42-.32-.42,0l-.07-.14c-.2.41-.16.18-.07.7-.26,0-.15,0-.35.07a5.85,5.85,0,0,1,.42-1.39c.75,0,.32.34.9.34.08.56-.08.44.28.56v.28h.14v.28h.14a3.25,3.25,0,0,0,.14.69h.14v.42H28v.28h.14c0,.23-.06.42.21.42a2.8,2.8,0,0,0,.2.9l-.13.07c.24.13.25,1,.27,1.25h.14c0,.77-.16.54.14.84C28.77,9.82,28.83,9.69,28.83,10Z"/><path class="a835a2d3-afa2-4f05-980e-824e730a3ee3" d="M7.25,28.14V28a2.36,2.36,0,0,1-.83-.21c0-.19,0-.12.14-.21l-.14-.14c.18-.09.14,0,.14-.21H6.35v-.14H6.14L6.42,27l-.07-.21a2.6,2.6,0,0,1,1,0c0,.2,0,.12-.14.21.23.12.09.09.42,0v.14c.39,0,.23-.16.7-.07-.08-.64-.23-.45.14-.69l-.14-.21c.18-.09.09-.09.28,0,.12-.25.21-.14.41,0l-.14.07a1.19,1.19,0,0,1,.56.07v.35h.21c-.66.33.05.57.35.69.11-.44.35-.38.69-.21l-.07.14c.28.09.19,0,.28.28.11-.22,0-.14.35-.14v.14h.21c-.1-.2,0-.39.07-.63l.14.07-.07.21a1.29,1.29,0,0,0,.56-.07l.07.14.13-.07c0,.19,0,.1.07.28l-.2.07.07-.21-.21.28L12,27.58l-.07.14h.14v.21c.2-.1.09-.09.34,0-.3.15.06.6.21.83A21.11,21.11,0,0,1,7.25,28.14Z"/><path class="a9c40961-cfe2-489d-a5e5-a833b85c49ac" d="M44,20.76v-.28h-.14a5,5,0,0,0-.14-1.11h-.14v-.56h-.14c-.07-.91.2-.75-.28-.91a.9.9,0,0,1,.14-.48c-.43,0-.34-.12-.41-.56h-.14v-.14h-.14a2.31,2.31,0,0,1,.14-1c-.39,0-.28-.14-.28-.56h-.14v-.42H42.2c.09-.17.1-.26.28-.35v.21c.29,0,.74.19.28.42.34,0,.28,0,.41.28l-.34.14.69.07v.35h.14V16c-.33,0-.28.21-.28.49H43.1c.22.11.36,1,.91.7v.28l-.14-.07v.41H44c0,.2,0,.12-.14.21.2.1.14,0,.14.28h-.35l.14.28-.21.07c.12.24.06.09.14.49h.21a1.27,1.27,0,0,1-.07.48l.28.07-.14.07.07.28.07-.14v.14c.19,0,.12,0,.21-.14,0,.46,0,.42.48.42.16.8-.25.24-.48.7l-.07-.35C44.11,20.78,44.2,20.76,44,20.76Z"/><path class="b8045fd5-b71a-4c5b-bcca-85dd8beed40d" d="M5.16,15a1.12,1.12,0,0,0,.49-.56l.14.07a3.55,3.55,0,0,0,.7-1.18c.3.1.78-.71,1-1l-.14-.07c.21-.21.08-.14.42-.14L7.74,12c.16-.16.21-.25.42-.14l.07-.14c.47.08.29,0,.55.14-.39.6-1.57,1.35-1.39,2.09a1,1,0,0,0-.48.41l-.07-.21c-.15.29-.07.09-.14.63a1,1,0,0,0-.84.84H5.65c-.08.63,0,.57-.49.69.27-.26.18-.11.28-.41-.22-.12-.09-.06-.41-.14C5.41,15.49,5.25,15.4,5.16,15Z"/><path class="b4f41f0c-b605-43d8-8ec9-6b50d2c60ca4" d="M28,4.19,27.93,4c-.09.44-.13.3-.35.63h.14v.21l.14-.07V5.3h-.14c0-.22,0-.55-.28-.55V4.47H27.3V4.19c-.36-.12-.2,0-.28-.56h-.28c-.13-.52-.33-.55-.76-.69.15-.31.07-.09.07-.7h-.14c.24-.71.73-1,1.67-.56V1.54h-.21V1.41a7.58,7.58,0,0,1,2.86.2c-1.26.07-.94.21-1.54.21,0,.34.48.43.14.77-.1-.2,0-.14-.28-.14l-.06.21h.13V2.8c-.33,0-.23-.09-.34.14h.41c0-.27.28-.27.28,0h.14v.14h.14v.41c-.33,0-.24-.08-.35.14.22,0,.35,0,.35.21.19,0,.12,0,.21-.14l.07.28c-.1.05-.16.2-.28.21C28.84,4.23,28.42,4.19,28,4.19Z"/><path class="a3b3b5c3-8a85-44b5-8dd6-4ecb2df0d11c" d="M3.49,19.78c-1.11-.09-.6.09-1-.34l.21-.07v.14h.21c-.15-.31-.1-.34.21-.49-.23-.06-.42,0-.42-.28H2.52c.18-.36,0-.36-.28-.49a3.43,3.43,0,0,1,.28-.49c.09.19,0,.14.21.14a1.41,1.41,0,0,1,.21-.48H2.8c.1-.2,0-.11.21-.28.1.2.16.16.34.07l-.06-.14L3.7,17c-.12.24,0,.27.21.35a2.13,2.13,0,0,0-.14-.77H3.49a.5.5,0,0,1,.42-.42c0-.28.38-.55.63-.55l-.07-.35c.39-.16.23-.2.49-.07l.2-.21c.1.4.24.52-.13.77.32.08.19,0,.41.14-.18.56-.83.79-.83,1.46h.14c-.2.6-.47.29-.56,1H4c0,.52-.47,1.19-.35,1.67C3.46,19.89,3.49,20,3.49,19.78Z"/><path class="ea482524-40b5-4b6f-b415-39d2f1c07194" d="M16.16,30.36V30h3.62v.14h1.67v.14c.34,0,1.12.26,1.12-.21L24,30v-.14c1.15,0,2.21-.18,3.34-.28v.14a7.2,7.2,0,0,1,2.79.21c-.46.06-.44.21-.77.21l-.07.27c-1.17,0-2.06.28-3.06.28V30.5C21.87,30.5,20.56,30.42,16.16,30.36Z"/><path class="f191058b-b66a-4b71-bcd3-b153b6bdd2b2" d="M28.83,24.66v.41h-.28v-.13h-.27V24.8c-.18.17-.08.11-.28.2v-.2c-.24.12-.35.05-.63,0l-.07.2H27v-.27c-.87.43-1.95.07-2.92.07v-.14H24v-.14h-.83v-.14c-1-.06-2.11-.14-2.93-.14,0-.21,0-.11-.14-.28.1-.2,0-.12.28-.21V24a78.15,78.15,0,0,1,7.94.49v.14Z"/><path class="b8fc3246-dc23-4a58-9b03-73727e1e40c3" d="M5.58,15.75h.14V16h.14v.28c-.29,0-.28.16-.28.42h.14v.14h.14a3.93,3.93,0,0,0,0,1H5.3l-.07.28H4.82c-.08.4,0,.25-.14.49.34,0,.48-.07.48.28-.29,0-.18.09-.41.21h.14a1,1,0,0,1-.14.42l.35-.07c-.19.18-.33.24-.21.48L4.75,20l.07.21H5.1v.21h.13l-.48.07v-.14H4.47l-.07.28-.07-.14a.4.4,0,0,1-.56-.07c-.18.09-.08.07-.28.07.1-.2,0-.14.28-.14V20.2H3.49v-.28l.07.14c0-.6.3-1,.35-1.6l.28-.07V17.9c.28-.09.23-.34.49-.34l.07-.21H4.61C4.61,16.49,5.46,16.48,5.58,15.75Z"/><path class="bb71deec-7584-4623-bb8c-5aed14defa5c" d="M27.72,5.3h.14V4.75l-.14.07V4.61h-.14l.28-.28c.44.29.2.06.28,1,.27.07.57.53.76.14.1.2,0,.14.28.14-.51.09-.38-.06-.49.35a.67.67,0,0,0,.42-.07v.28l.28-.21c.09.18,0,.14.21.14v.14h.21v.14c-.27.09-.56.08-.7.35.2.1.14,0,.14.27h.28v.14h-.21l-.07.21h.14v.14h.21V7.6h-.28c-.08.46-.23.84.35.84l-.21.14.07.27-.28.07.14.14c-.22.11-.14,0-.14.35-.33,0-.19,0-.42.07v-.7h-.14a3.82,3.82,0,0,0-.14-1.18h-.13a1.56,1.56,0,0,0-.07-1h-.14c0-.24,0-.1-.07-.42H28V5.86h-.14V5.44h-.14Z"/><path class="ee446d91-d084-4760-a871-b1ec9dd01a52" d="M27.37,1.41c-.75,0-5.57-.15-5.64,0a8,8,0,0,0,1.95,0v.13h-.21c0,.35-.3.59-.14.91-.19,0-.09,0-.27-.07-.4.79-.55.42.48.42v.14h.14V2.59l1.39-.07v.14h.35c0,.19,0,.12-.14.21.09.18,0,.14.21.14,0-.73.56.47.56-.77h-.14c.24-.71.73-1,1.67-.56V1.54h-.21Z"/><path class="ba505720-9dd7-45b3-b2c6-6b0284b32909" d="M24.8,29.74H24L24,30H22.64c-.15.57-.67.33-1.19.28v-.14H19.78V30H16.16v-.14c-1.44,0-1,.21-1.53-.07.22-.11.14,0,.14-.35C18.12,29.39,21.45,29.74,24.8,29.74Z"/><path class="b7fee803-ebaf-4349-8003-8691f19841ec" d="M24.73,7.11c0,.74-.21,1.07-.21,1.61l-.07-.49-.07.49-.07-.14v.34l.07-.14c0,.76-.14.38-.14,1-.19,0-.1,0-.28.07V9.69c-.22.11-.17.42-.07.63-.28,0-.14.27-.42.27l-.07.35c.19-.09.12,0,.21-.21l.07.42c-.18-.09-.28-.08-.28.14h.28c0,.31-.14.09-.14.56H23.4v-.42c-.2.1-.14,0-.14.28h-.13l-.07-.21c-.09.18,0,.14-.21.14C22.85,10.56,24.15,8.26,24.73,7.11Z"/><path class="f4813c62-233c-405b-8ccc-52d149f62649" d="M14.77,29.39c0,.33.08.24-.14.35.61,0,.09,0,1.53.07V30H14.08v-.14H12.27l.13-.07c-.47,0-.86-.12-1.32-.21l.07-.14H9.55v-.14h.77c0-.25,0-.28-.28-.28.1-.2,0-.14.28-.14v-.14a14.47,14.47,0,0,1,3.62.49v.14A2.17,2.17,0,0,1,14.77,29.39Z"/><path class="bee5792f-88ad-471e-8fe0-7f47fd8509e6" d="M29.53,3.7c.58,0,1.81.51,1.81,1.26h.14v.2c.28,0,.5.6.42.84-.19-.09-.1-.09-.28,0V5.86c-.25.12-.14,0-.14.42h-.7c.1-.21,0-.12.28-.21-.15,0-1-.42-.42-.42V5.44h-.21V5.3c-.5,0-.4-.41-.48-.83h-.14V4.19c-.4,0-.21.14-.56.14C29.25,4,29.53,4.09,29.53,3.7Z"/><path class="b0d8ed85-1147-4994-b350-1f1f56fc846e" d="M28.83,25.07V24.8c2,0,3.87.28,5.85.14v.13h.14c0,.55-.1.56-.63.56-.08.24-.1.28-.34.28v-.14h-.28v-.14h-.42v-.14h-.84v-.14h-.83v-.28Z"/><path class="b2951114-3330-4638-a5c9-a77bc488e990" d="M4.19,24.52v.83c.54,0,.41-.14.56.14.13-.26.37-.14.62-.14l.07-.21.28.07v.14h.21c0,.76-.58.47-.35,1.39h.28v.14c-.54,0-.41-.14-.56.14h.21l-.07.21.14.07H5.16v-.14c-.51,0-.44,0-.55-.42H4.47v-.13H4.33C4.18,26,3.48,24.87,4.19,24.52Z"/><path class="bf287f9a-7eaa-4afa-9e37-5ec757c3b7b8" d="M17.28,29.18h-.14l.07-.28c-.22.11-.09.07-.42.07a.52.52,0,0,0-.28-.55c-.21.21.09.55-.28.55v-.21L16,28.9v-.14c-.27-.09-.18,0-.27-.27-.09.18,0,.13-.21.13V29c-.09-.17-.2-.17-.28-.35-.25.34-.21.17-.21.49h-.21c0-.32-.18-.26-.42-.42.18-.09.14,0,.14-.2-.3,0-.32.2-.55.2v-.14h-.49l-.07.21-.07-.14-.14.14.28.07-.07.21a2.55,2.55,0,0,0,.56.14v.14a31.25,31.25,0,0,1,3.48.21L17,29.46C17.17,29.37,17.28,29.39,17.28,29.18Z"/><path class="b30aecea-d719-40c4-a901-12d6ae3c8c4d" d="M33.57,4.89h-.14l.07-.14a3.91,3.91,0,0,0-.63-.28V4.33h-.14V4.19h-.14c0-.19,0-.12-.14-.21l.07-.21a5.23,5.23,0,0,1,1.12,0L33.57,4c.2.1.08.07.35.07v.21c.38,0,.6-.22,1-.07L35,4.05l.07.21L35,4.33c.31,0,.35,0,.49.28-.49,0-.8.19-.63.69C34.6,5.3,33.57,5.35,33.57,4.89Z"/><path class="e1a7f822-976d-48f0-b70d-3d9f24a1f7fe" d="M37.4,7.11c-.07-.26-.21-.27-.21-.48h-.14V6.42h.21l.07-.56-.63.07V5.79c-.25.17-.13.14-.35.14V5.79l.42-.14.07.14c.18-.09.21-.15.21-.35-.19.19-.75.09-1.12.21V5.44l-.76.07.14.07c-.19.38.17.28.48.28v.28h.14v.14h.14v.14h.14V6.7l.63.07C36.84,7.12,37.08,7.22,37.4,7.11Z"/><path class="a62296c0-256b-4a16-8c58-1929ba582866" d="M9.62,23.13v-.49l.28-.07v-.7H10V22h.28v.28l.14-.21.34.14c.12-.24.24-.13.49-.07v.14h.35v.14a3.7,3.7,0,0,1,.49.14c0,.26.06.18-.14.28l.21.07v.21Z"/></g></g></g></svg>