<svg xmlns="http://www.w3.org/2000/svg" xmlns:xlink="http://www.w3.org/1999/xlink" viewBox="0 0 193.83 191.16"><defs><style>.b22cf712-d1b2-4704-898a-d8ee4703368b{fill:none;}.eb98adfa-dbc7-4d72-b8e2-560eb80ab91c{fill:#be1e2d;}.beb6de48-9694-4955-94b1-569371778b97{fill:#1c222e;}.b154e3a9-1fc4-40c3-bac6-3b3d178674cd{clip-path:url(#b9eadd7b-a238-40db-8c12-64ac69321973);}.a474bcbb-7271-4b41-b465-1dfbd9d06de1{fill:#231f20;}.a6ddc52f-3f5a-4a37-992f-0ebc5cff7028{fill:#fff;}.ee58b621-7ec3-4916-9ca3-243546a2372b{fill:#77838b;}.bb58a112-bd6f-4caa-b49c-b6aa0cbb2342{fill:#ed1c24;}.e3c8e701-5715-4e48-b079-35865ce7626c{fill:#f69168;}</style><clipPath id="b9eadd7b-a238-40db-8c12-64ac69321973" transform="translate(15.67 -11.85)"><path class="b22cf712-d1b2-4704-898a-d8ee4703368b" d="M145.11,59.46H107.88c-3.65-3.69-7.17-7.68-8.73-12.73-.07-.2-.12-.39-.18-.59a25.15,25.15,0,1,0-28-.25c-.53,3.39-1.1,6.79-3.62,9.41q-1.91,2.17-4,4.17H25.47A17.62,17.62,0,0,0,7.78,77V201.38a17.62,17.62,0,0,0,17.69,17.55H67.68v-.11a7.85,7.85,0,0,1-.9-1.24c-.09-.13-.17-.27-.25-.4a.9.9,0,0,0-.11-.27c0-.09-.12-.12-.11-.08l.15.25a25.15,25.15,0,1,1,46.32-13.5,24.4,24.4,0,0,1-4.25,13.91v.08c-.31.49-.64,1-1,1.43h37.65a17.6,17.6,0,0,0,17.6-17.62V77A17.6,17.6,0,0,0,145.11,59.46Z"/></clipPath></defs><g id="bfdcf249-ceda-4cbc-ab71-687e019a89c8" data-name="Layer 2"><g id="bfff05ca-1318-4b02-b344-a3a807437059" data-name="Layer 1"><polygon class="eb98adfa-dbc7-4d72-b8e2-560eb80ab91c" points="184.7 165.13 15.67 165.13 15.67 3.3 106.26 66.13 184.7 3.3 184.7 165.13 184.7 165.13"/><path class="beb6de48-9694-4955-94b1-569371778b97" d="M0,11.85l91.06,97.8,78.85-97.8s-14,56.55-30,79.74S91.62,119.9,64,109,7.18,46.64,0,11.85Z" transform="translate(15.67 -11.85)"/><g class="b154e3a9-1fc4-40c3-bac6-3b3d178674cd"><path class="a474bcbb-7271-4b41-b465-1dfbd9d06de1" d="M178.16,58.77h0v140.7H-15.67V58.77" transform="translate(15.67 -11.85)"/><polygon class="a474bcbb-7271-4b41-b465-1dfbd9d06de1" points="27.41 191.16 178.45 191.16 178.45 171.97 23.46 171.97 23.47 191.16 27.41 191.16"/><path class="a6ddc52f-3f5a-4a37-992f-0ebc5cff7028" d="M115.8,59h0V165.69h-61V59.08" transform="translate(15.67 -11.85)"/><polygon class="a6ddc52f-3f5a-4a37-992f-0ebc5cff7028" points="131.48 66.77 103.89 101.19 70.43 66.77 70.43 158.63 131.48 158.63 131.48 66.77 131.48 66.77"/><path class="a474bcbb-7271-4b41-b465-1dfbd9d06de1" d="M88.57,137.6c0,1.63-1.95,3-4.36,3s-4.37-1.32-4.37-3,2-2.94,4.37-2.94,4.36,1.32,4.36,2.94Z" transform="translate(15.67 -11.85)"/><path class="a474bcbb-7271-4b41-b465-1dfbd9d06de1" d="M89.65,159.4c0,1.63-2,2.95-4.37,2.95s-4.36-1.32-4.36-2.95,2-2.94,4.36-2.94,4.37,1.32,4.37,2.94Z" transform="translate(15.67 -11.85)"/><polygon class="ee58b621-7ec3-4916-9ca3-243546a2372b" points="100.95 62.01 89.78 54.46 100.95 46.91 112.13 54.46 100.95 62.01 100.95 62.01"/><polygon class="ee58b621-7ec3-4916-9ca3-243546a2372b" points="100.95 52.26 87.83 77.89 114.08 77.89 100.95 52.26 100.95 52.26"/><polygon class="bb58a112-bd6f-4caa-b49c-b6aa0cbb2342" points="100.95 46.91 116.89 59.34 125.99 51.28 100.95 46.91 100.95 46.91"/><polygon class="bb58a112-bd6f-4caa-b49c-b6aa0cbb2342" points="100.95 46.91 85.02 59.34 75.92 51.28 100.95 46.91 100.95 46.91"/><polygon class="e3c8e701-5715-4e48-b079-35865ce7626c" points="76.3 191.16 103.75 191.16 128.21 191.16 76.3 191.16 76.3 191.16"/></g></g></g></svg>