<svg xmlns="http://www.w3.org/2000/svg" xmlns:xlink="http://www.w3.org/1999/xlink" viewBox="0 0 110.56 114.83"><defs><style>.f91dcdec-b80f-4673-abeb-64122d801565{fill:none;}.fb7380ce-e7c4-4b74-b7e1-b1d1043830f3{clip-path:url(#f54eeb8f-5837-449c-8c9d-8181eebf0ef7);}.b1b3190c-f970-4305-b024-7817438995b9{fill:#f52e31;}.a03034e8-0eff-43be-a9bf-a6255809fa7d,.a0c667f0-44a8-46c4-93ff-a876de491bce,.a73422df-dbe1-4252-b95f-1cb2207b7f69,.a9c0e15b-1f0b-446c-b556-13aacc2e00b9,.ab29f17c-05f2-4e10-8820-a559fd700731,.adf05499-cfc2-41aa-b706-cf5c21314a18,.b1b3190c-f970-4305-b024-7817438995b9,.ba5bbb15-daf9-4331-bf8f-db39c1e3d9fc,.e2a80fec-6734-403c-928e-f15a22dc3f40,.e38fbff4-95da-42bf-9b45-51b71164cf20,.eeb4823d-e686-42f4-a73c-fc3828bb9955,.f028fe6d-354a-46f0-98a1-c80072153d56,.fbef4979-6f4e-4c6f-b546-72277f4b0393,.fdd49ff2-8b03-4918-a2ba-ab8e12af6c8a{stroke:#242020;stroke-miterlimit:10;}.f028fe6d-354a-46f0-98a1-c80072153d56{fill:#228e33;}.e2a80fec-6734-403c-928e-f15a22dc3f40{fill:#af1c0e;}.ba5bbb15-daf9-4331-bf8f-db39c1e3d9fc{fill:#ad240c;}.a73422df-dbe1-4252-b95f-1cb2207b7f69{fill:#95190f;}.a0c667f0-44a8-46c4-93ff-a876de491bce{fill:#ab1e0a;}.a03034e8-0eff-43be-a9bf-a6255809fa7d{fill:#a11b07;}.a9c0e15b-1f0b-446c-b556-13aacc2e00b9{fill:#091c1c;}.eeb4823d-e686-42f4-a73c-fc3828bb9955{fill:#082326;}.adf05499-cfc2-41aa-b706-cf5c21314a18{fill:#fff;}.ab29f17c-05f2-4e10-8820-a559fd700731{fill:#e4ebeb;}.fbef4979-6f4e-4c6f-b546-72277f4b0393{fill:#148d34;}.fdd49ff2-8b03-4918-a2ba-ab8e12af6c8a{fill:#55c056;}.e38fbff4-95da-42bf-9b45-51b71164cf20{fill:#59c043;}</style><clipPath id="f54eeb8f-5837-449c-8c9d-8181eebf0ef7" transform="translate(0.5 -41.23)"><path class="f91dcdec-b80f-4673-abeb-64122d801565" d="M97.07,42H70.76c-2.58-2.61-5.07-5.43-6.17-9,0-.14-.09-.28-.13-.42a17.77,17.77,0,1,0-19.82-.18c-.38,2.4-.78,4.81-2.56,6.66-.91,1-1.87,2-2.87,2.94H12.5A12.46,12.46,0,0,0,0,54.44v87.91a12.45,12.45,0,0,0,12.5,12.4H42.34v-.07a5.43,5.43,0,0,1-.63-.88c-.07-.1-.13-.21-.19-.31s-.05-.11-.07-.16-.05-.07-.07-.06a17.77,17.77,0,1,1,32.84-9.37,17.26,17.26,0,0,1-3,9.84v0a12.16,12.16,0,0,1-.71,1H97.12a12.44,12.44,0,0,0,12.44-12.45V54.44A12.44,12.44,0,0,0,97.07,42Z"/></clipPath></defs><g id="f1f6b5a2-f981-4c2c-bed3-e5abf71e3efb" data-name="Layer 2"><g id="e6cdc3f1-1376-4d7f-b432-27488079347a" data-name="Layer 1"><g class="fb7380ce-e7c4-4b74-b7e1-b1d1043830f3"><path class="b1b3190c-f970-4305-b024-7817438995b9" d="M108.91,85.73l-3-4.79a8.26,8.26,0,0,1-1.32-4.43V44.18c0-1.35-1.37-2.45-3.08-2.45H8.06c-1.7,0-3.08,1.1-3.08,2.45V78.85L.65,85.73A4.08,4.08,0,0,0,0,87.92v65.19c0,1.35,1.38,2.45,3.08,2.45h103.4c1.71,0,3.08-1.1,3.08-2.45V87.92a4.09,4.09,0,0,0-.66-2.19Z" transform="translate(0.5 -41.23)"/><path class="f028fe6d-354a-46f0-98a1-c80072153d56" d="M61,138.77H54.78a1.89,1.89,0,1,1,0-3.68H61a1.89,1.89,0,1,1,0,3.68Z" transform="translate(0.5 -41.23)"/><path class="f028fe6d-354a-46f0-98a1-c80072153d56" d="M61,122.93H54.78a1.88,1.88,0,1,1,0-3.67H61a1.88,1.88,0,1,1,0,3.67Z" transform="translate(0.5 -41.23)"/><path class="f028fe6d-354a-46f0-98a1-c80072153d56" d="M61,107.09H54.78a1.88,1.88,0,1,1,0-3.67H61a1.88,1.88,0,1,1,0,3.67Z" transform="translate(0.5 -41.23)"/><path class="f028fe6d-354a-46f0-98a1-c80072153d56" d="M61,91.26H54.78a1.89,1.89,0,1,1,0-3.68H61a1.89,1.89,0,1,1,0,3.68Z" transform="translate(0.5 -41.23)"/><path class="f028fe6d-354a-46f0-98a1-c80072153d56" d="M61,75.42H54.78a1.88,1.88,0,1,1,0-3.67H61a1.88,1.88,0,1,1,0,3.67Z" transform="translate(0.5 -41.23)"/><path class="e2a80fec-6734-403c-928e-f15a22dc3f40" d="M105.9,80.94a8.26,8.26,0,0,1-1.32-4.43V44.18c0-1.35-1.37-2.45-3.08-2.45H94.62V89.56A8.23,8.23,0,0,0,95.94,94l2.35,3.74a8.34,8.34,0,0,1,1.31,4.43v53.41h6.88c1.71,0,3.08-1.1,3.08-2.45V87.92a4.08,4.08,0,0,0-.65-2.19Z" transform="translate(0.5 -41.23)"/><path class="ba5bbb15-daf9-4331-bf8f-db39c1e3d9fc" d="M0,147.64v5.47c0,1.35,1.38,2.45,3.08,2.45h103.4c1.71,0,3.08-1.1,3.08-2.45v-5.47Z" transform="translate(0.5 -41.23)"/><path class="a73422df-dbe1-4252-b95f-1cb2207b7f69" d="M99.6,147.64v7.92h6.88c1.71,0,3.08-1.1,3.08-2.45v-5.47Z" transform="translate(0.5 -41.23)"/><path class="a0c667f0-44a8-46c4-93ff-a876de491bce" d="M94.62,41.73V76.05a16.57,16.57,0,0,0,2.63,8.85l3.41,5.41c1.68,2.68,5.13,4.38,8.91,4.38V87.92a4.09,4.09,0,0,0-.66-2.19l-3-4.79a8.34,8.34,0,0,1-1.31-4.43V44.18c0-1.35-1.38-2.45-3.09-2.45Z" transform="translate(0.5 -41.23)"/><path class="a03034e8-0eff-43be-a9bf-a6255809fa7d" d="M14.94,41.73V76.05a16.57,16.57,0,0,1-2.63,8.85l-3.4,5.41C7.22,93,3.77,94.69,0,94.69V87.92a4.08,4.08,0,0,1,.65-2.19l3-4.79A8.34,8.34,0,0,0,5,76.51V44.18c0-1.35,1.38-2.45,3.08-2.45Z" transform="translate(0.5 -41.23)"/><path class="a9c0e15b-1f0b-446c-b556-13aacc2e00b9" d="M52.47,147.64V54a2.37,2.37,0,0,1,4.62,0v93.6Z" transform="translate(0.5 -41.23)"/><path class="eeb4823d-e686-42f4-a73c-fc3828bb9955" d="M52.47,147.64v7.92h4.62v-7.92Z" transform="translate(0.5 -41.23)"/><path class="adf05499-cfc2-41aa-b706-cf5c21314a18" d="M98.73,135a2.67,2.67,0,0,1-1.24-.3l-6.62-3.51c-5.84-3.09-9.32-8.26-9.32-13.84v-7.89a2.31,2.31,0,0,1,4.49,0v7.89c0,4.38,2.73,8.44,7.31,10.87l6.63,3.51a1.58,1.58,0,0,1,.62,2.48,2.45,2.45,0,0,1-1.87.79Z" transform="translate(0.5 -41.23)"/><path class="ab29f17c-05f2-4e10-8820-a559fd700731" d="M10,136.06a2.48,2.48,0,0,1-1.87-.79,1.59,1.59,0,0,1,.63-2.48l6.62-3.51c4.58-2.43,7.32-6.49,7.32-10.87v-7.89a2.05,2.05,0,0,1,2.24-1.78,2.05,2.05,0,0,1,2.24,1.78v7.89c0,5.58-3.48,10.75-9.31,13.84l-6.63,3.51A2.67,2.67,0,0,1,10,136.06Z" transform="translate(0.5 -41.23)"/><path class="fbef4979-6f4e-4c6f-b546-72277f4b0393" d="M74.21,42.12,54.78,57.45,35.35,42.12a9.72,9.72,0,0,1,2.75-.39H71.46A9.72,9.72,0,0,1,74.21,42.12Z" transform="translate(0.5 -41.23)"/><path class="fdd49ff2-8b03-4918-a2ba-ab8e12af6c8a" d="M54.78,57.45l-6.23-1.12a9.39,9.39,0,0,0-6.38,1l-11,7c-1.14.73-3.2.25-3.2-.74V48.75a2.73,2.73,0,0,1,1.08-2.06L33,43.31a6.06,6.06,0,0,1,2.32-1.19Z" transform="translate(0.5 -41.23)"/><path class="e38fbff4-95da-42bf-9b45-51b71164cf20" d="M81.55,48.75V63.6c0,1-2.06,1.47-3.2.74l-11-7a9.37,9.37,0,0,0-6.38-1l-6.23,1.12L74.21,42.12a6.05,6.05,0,0,1,2.32,1.19l3.94,3.38a2.77,2.77,0,0,1,1.08,2.06Z" transform="translate(0.5 -41.23)"/></g></g></g></svg>