<svg xmlns="http://www.w3.org/2000/svg" viewBox="0 0 612.52 678.34"><defs><style>.f145a8e4-9471-4cd5-9dd9-6dbc4dc5675b{fill:#6d6e71;}.ef1a3301-e428-4a6f-a41b-2c79092047c7{fill:#231f20;}.a747ee40-59b1-4baa-beed-d6c5d1ed3bfe{fill:#414042;}.bc3fd4a4-4423-4ac5-a2ee-d5e2b7b0ad01{fill:#fff;}.b01b2e7e-3d7a-4d3c-a389-dca48ee5ad1b{fill:#58595b;}.e56fe699-7069-4a7c-af82-690f73be1e73{fill:#1a150b;}.b3b182eb-2867-4645-9675-9e91bacba452{fill:#171b0e;}</style></defs><g id="f327f419-f6a5-4c7c-811d-3d8cf99c2072" data-name="Layer 2"><g id="ec1faccf-f424-4792-98e7-68644ef86735" data-name="Layer 1"><circle class="f145a8e4-9471-4cd5-9dd9-6dbc4dc5675b" cx="545.87" cy="69.69" r="66.65" transform="translate(380.52 594.56) rotate(-79.79)"/><circle cx="545.87" cy="69.69" r="47.13" transform="translate(270.18 545.95) rotate(-67.21)"/><circle class="f145a8e4-9471-4cd5-9dd9-6dbc4dc5675b" cx="70.23" cy="66.65" r="66.65" transform="translate(-26.56 69.18) rotate(-45)"/><circle cx="70.23" cy="66.65" r="47.13" transform="translate(-23.3 91.68) rotate(-58.48)"/><path class="f145a8e4-9471-4cd5-9dd9-6dbc4dc5675b" d="M612.31,76.16l-3.54,554.25a48.34,48.34,0,0,1-48.55,47.93L47.94,675.07A48.28,48.28,0,0,1,0,626.52L3.54,72.27Z"/><circle class="ef1a3301-e428-4a6f-a41b-2c79092047c7" cx="447.73" cy="255.52" r="44.82" transform="translate(-37.21 80.64) rotate(-9.88)"/><path class="ef1a3301-e428-4a6f-a41b-2c79092047c7" d="M121,253.43A44.83,44.83,0,1,0,166.1,208.9,44.83,44.83,0,0,0,121,253.43Z"/><path class="a747ee40-59b1-4baa-beed-d6c5d1ed3bfe" d="M502.11,511.49c-.46,71.76-102.47,58.65-210.64,58S110,580.75,110.41,509s88.51-129.37,196.68-128.68S502.57,439.73,502.11,511.49Z"/><path class="bc3fd4a4-4423-4ac5-a2ee-d5e2b7b0ad01" d="M359,530.09h61.32a0,0,0,0,1,0,0v54.6a6.72,6.72,0,0,1-6.72,6.72H365.76a6.72,6.72,0,0,1-6.72-6.72v-54.6A0,0,0,0,1,359,530.09Z" transform="translate(3.59 -2.48) rotate(0.37)"/><path class="bc3fd4a4-4423-4ac5-a2ee-d5e2b7b0ad01" d="M191.52,529h61.32a0,0,0,0,1,0,0v54.6a6.72,6.72,0,0,1-6.72,6.72H198.24a6.72,6.72,0,0,1-6.72-6.72V529A0,0,0,0,1,191.52,529Z" transform="translate(3.58 -1.41) rotate(0.37)"/><path class="a747ee40-59b1-4baa-beed-d6c5d1ed3bfe" d="M481.2,509.15c-.41,64.09-91.52,52.39-188.13,51.77s-162.13,10.09-161.72-54S210.41,391.37,307,392,481.61,445.06,481.2,509.15Z"/><path class="a747ee40-59b1-4baa-beed-d6c5d1ed3bfe" d="M292.46,553.79c-71.24-.46-126.27,4.69-152.39-14.71,20.87,27.79,77.4,21.36,152.93,21.84,78.71.5,153.76,8.36,179.09-23.41C440.23,560.94,368,554.27,292.46,553.79Z"/><ellipse class="b01b2e7e-3d7a-4d3c-a389-dca48ee5ad1b" cx="376.9" cy="408.26" rx="56.32" ry="34.46" transform="translate(-165.89 527.07) rotate(-59.63)"/><path class="e56fe699-7069-4a7c-af82-690f73be1e73" d="M400,408.41c-9.15,15.61-24.3,23.72-33.85,18.13s-9.88-22.79-.74-38.39,24.3-23.73,33.85-18.13S409.18,392.8,400,408.41Z"/><ellipse class="b01b2e7e-3d7a-4d3c-a389-dca48ee5ad1b" cx="217.47" cy="413.75" rx="34.46" ry="56.32" transform="translate(-176.14 161.65) rotate(-29.63)"/><ellipse class="b3b182eb-2867-4645-9675-9e91bacba452" cx="211.75" cy="403.69" rx="20.04" ry="32.76" transform="translate(-171.91 157.51) rotate(-29.63)"/></g></g></svg>