<svg xmlns="http://www.w3.org/2000/svg" viewBox="0 0 117.04 158.54"><defs><style>.a64da73d-a02b-40fa-a23c-d471d323946a{fill:#636363;}.a64da73d-a02b-40fa-a23c-d471d323946a,.a692b608-149f-4816-a823-c2b6e942fccb,.ab8bb639-a6de-405e-8377-c758df0ee54e,.b4e0d559-f8fc-417a-94cf-fb6eb18bbb2f,.b8978387-a7a4-4d9d-bfd8-1b152a78beed{stroke:#161412;stroke-miterlimit:10;}.ab8bb639-a6de-405e-8377-c758df0ee54e{fill:#303030;}.b4e0d559-f8fc-417a-94cf-fb6eb18bbb2f{fill:#363738;}.a692b608-149f-4816-a823-c2b6e942fccb{fill:#fff;}</style></defs><g id="ea1afe96-3d5b-4d72-8a5c-f6a9e2a71c98" data-name="Layer 2"><g id="a25dbd59-59e6-490a-85f5-9d7969822eaf" data-name="Layer 1"><path class="a64da73d-a02b-40fa-a23c-d471d323946a" d="M88.19,99.12H26l-10,56.67A1.92,1.92,0,0,0,18,158h78.3a1.92,1.92,0,0,0,1.89-2.25Z"/><path class="ab8bb639-a6de-405e-8377-c758df0ee54e" d="M57.11,99.12H26l-10,56.67A1.92,1.92,0,0,0,18,158h1.3a139.31,139.31,0,0,0,28.11-27,132.92,132.92,0,0,0,9.74-14.3A132.92,132.92,0,0,0,66.85,131,139.31,139.31,0,0,0,95,158h1.3a1.92,1.92,0,0,0,1.89-2.25l-10-56.67Z"/><path class="b8978387-a7a4-4d9d-bfd8-1b152a78beed" d="M111.89,57.69H46.75s0,59.14,57.69,97.5c1.51,1,12.62-.08,12.08-1.81Z"/><path class="b4e0d559-f8fc-417a-94cf-fb6eb18bbb2f" d="M67,96.31c8.19-21.4,8.28-37.93,8.28-38.62H46.75s0,23.81,14.74,51c2-4,3.85-8.16,5.47-12.39Z"/><path class="b8978387-a7a4-4d9d-bfd8-1b152a78beed" d="M2.33,57.69H67.47s0,59.14-57.69,97.5c-1.51,1-9.79-1.57-9.26-3.31Z"/><path class="b8978387-a7a4-4d9d-bfd8-1b152a78beed" d="M75.05,1.09a67.85,67.85,0,0,0-17.35,24,.64.64,0,0,1-1.18,0,67.85,67.85,0,0,0-17.35-24"/><path class="b8978387-a7a4-4d9d-bfd8-1b152a78beed" d="M5,.28c-.88,1.28,16.65,21.94,17.74,23l4.16,4.15a25.94,25.94,0,0,1,6.25,10.13l3.25,9.74H77.83l3.25-9.74a25.94,25.94,0,0,1,6.25-10.13l4.16-4.15c1.09-1.09,14.56-21.75,13.69-23"/><path class="a692b608-149f-4816-a823-c2b6e942fccb" d="M2.33,47.33H111.89V57.69H2.33Z"/></g></g></svg>