<svg xmlns="http://www.w3.org/2000/svg" viewBox="0 0 723.26 695.4"><defs><style>.ad76ac43-9140-4ead-95da-7ffb3cd7e1f1{fill:#de1d3b;}.f54c28ee-9c66-424a-9d99-f0a8d9d64150{fill:#fff;}.b7a93cff-2b91-4196-92b6-8fab4a9fea52{fill:#010101;}.b6d457e8-37eb-40b0-9e2e-c0e5f69f3008{fill:#f9bfc3;}.a4118e18-d062-4e1a-a7c2-37ce39d5122f,.ac9870ea-f3b4-42ba-aaed-e34ee8fc4724,.b6d457e8-37eb-40b0-9e2e-c0e5f69f3008,.fb669555-2e93-4e73-8975-cee9b584c980{stroke:#231f20;stroke-miterlimit:10;}.ac9870ea-f3b4-42ba-aaed-e34ee8fc4724,.b6d457e8-37eb-40b0-9e2e-c0e5f69f3008{stroke-width:7px;}.ac9870ea-f3b4-42ba-aaed-e34ee8fc4724{fill:#be4c56;}.a4118e18-d062-4e1a-a7c2-37ce39d5122f,.fb669555-2e93-4e73-8975-cee9b584c980{fill:#f9bec5;}.a4118e18-d062-4e1a-a7c2-37ce39d5122f{stroke-width:8px;}.fb669555-2e93-4e73-8975-cee9b584c980{stroke-width:9px;}</style></defs><g id="e0b39d9a-dc38-42c7-b130-e1c08bcb6032" data-name="Layer 2"><g id="ed1ce7f3-2d4c-49b4-88b8-14f29a420663" data-name="Layer 1"><path class="ad76ac43-9140-4ead-95da-7ffb3cd7e1f1" d="M663.63,91.79l1.09,554.27a48.26,48.26,0,0,1-48.15,48.34l-512.29,1A48.23,48.23,0,0,1,56,647.25L54.88,93Z"/><circle class="f54c28ee-9c66-424a-9d99-f0a8d9d64150" cx="496.59" cy="334.87" r="44.82" transform="translate(-66.88 537.95) rotate(-53.81)"/><path class="b7a93cff-2b91-4196-92b6-8fab4a9fea52" d="M532.74,334.8a36.15,36.15,0,1,1-36.22-36.08A36.16,36.16,0,0,1,532.74,334.8Z"/><circle class="f54c28ee-9c66-424a-9d99-f0a8d9d64150" cx="220.27" cy="335.41" r="44.82" transform="translate(-175.86 399.43) rotate(-65.89)"/><path class="b7a93cff-2b91-4196-92b6-8fab4a9fea52" d="M256.42,335.34a36.15,36.15,0,1,1-36.22-36.08A36.15,36.15,0,0,1,256.42,335.34Z"/><path class="b6d457e8-37eb-40b0-9e2e-c0e5f69f3008" d="M482.44,480.38c.08,37.36-51.4,84.2-115,84.33s-115.27-46.52-115.34-83.88,51.43-67.74,115-67.87S482.37,443,482.44,480.38Z"/><path class="ac9870ea-f3b4-42ba-aaed-e34ee8fc4724" d="M442.66,470a22.86,22.86,0,1,1-22.9-22.81A22.86,22.86,0,0,1,442.66,470Z"/><path class="ac9870ea-f3b4-42ba-aaed-e34ee8fc4724" d="M337.53,470.15a22.86,22.86,0,1,1-22.9-22.81A22.85,22.85,0,0,1,337.53,470.15Z"/><path class="a4118e18-d062-4e1a-a7c2-37ce39d5122f" d="M702,86.18c55,9.54-34.53,71.86-88.49,88.74-80.57,25.21-136.71-27.56-143.41-70s32-86.83,73.67-92.08C611.46,4.3,649.55,77.09,702,86.18Z"/><path class="fb669555-2e93-4e73-8975-cee9b584c980" d="M22.4,71C-33,77.7,53.19,144.54,106.21,164.17c79.17,29.31,138-20.5,146.82-62.56s-27.5-88.37-68.84-95.75C117-6.12,75.26,64.62,22.4,71Z"/></g></g></svg>