<svg xmlns="http://www.w3.org/2000/svg" viewBox="0 0 42.7 27.58"><defs><style>.b40f10f0-359d-4348-b1b4-a0a2e04159db{fill-rule:evenodd;}</style></defs><g id="a2b64aa7-5c31-4c24-8c75-9d44d462bafc" data-name="Layer 2"><g id="ab93c340-c950-4054-92eb-3610dbb7a388" data-name="Layer 1"><g id="e13d36c1-170a-4f1b-8468-ea6cb4b40ada" data-name="e75d56fb-c9e2-4e17-b333-975c60930f10"><g id="f225f8e7-9947-48a9-b7b4-e2ac29570cfa" data-name="aadeac89-e509-48ba-b14f-f45f75ca1f99"><g id="feef6dd2-da01-4ee3-924e-71f0ab933c28" data-name="bf1a0fd5-8a9a-475d-a0a1-9b48535fa225"><path class="b40f10f0-359d-4348-b1b4-a0a2e04159db" d="M17.05,26.32c-.05-.19,0-4.68,0-5l2.53.14a7.36,7.36,0,0,1,0,.94c0,.39,0,4.21,0,4.25A11.06,11.06,0,0,1,17.05,26.32Zm5.87-4.88c.26-.05,2.19-.14,2.57-.15l0,4.83a12.19,12.19,0,0,1-2.57.43Zm-6.25,4.79A9.72,9.72,0,0,1,15,25.74a7.17,7.17,0,0,1-.82-.27s0-4.29,0-4.58c.23,0,2.39.3,2.46.33s.06.35.06.42Zm9.16-4.89c.06-.07.14-.05.32-.08l.32-.05.64-.1c.39-.06.91-.16,1.29-.2v4.26l-.59.26a14.31,14.31,0,0,1-2,.61ZM20,26.63c-.06-.82,0-1.76,0-2.59s0-1.73,0-2.59c.16-.05,2.18,0,2.52,0,0,.57,0,4.6-.11,5.12A11.32,11.32,0,0,1,20,26.63Zm-8.84-6.26c.33,0,1.77.32,2.32.42.16,0,.22,0,.22.14l0,4.43A9.39,9.39,0,0,1,12,24.44l-.85-.68Zm17.63.47c.1,0,2.28-.43,2.54-.45l0,3.19-1.22.74a8.73,8.73,0,0,1-1.29.66C28.76,24.83,28.77,21,28.81,20.84Zm-8.79-8c0-.18,0-.17.12-.26l.14-.09.12-.08a8.32,8.32,0,0,1,.78-.5l.72.49c.2.14.62.41.62.56l0,8.1H20a11.41,11.41,0,0,1,0-1.66V14Zm-2.95,6.31c0-1.38,0-2.76,0-4.13v-.53c0-.21,0-.35.09-.44l2-1a2.35,2.35,0,0,1,.43-.19l0,8.05a19.59,19.59,0,0,1-2.53-.07Zm11.76-3.76,2.5.77,0,3.7V20l-2.53.52Zm-17.64.76c0-.05,0-.05.15-.07l1.08-.29a9.72,9.72,0,0,1,1.26-.32l0,5c-.27-.05-2.28-.61-2.51-.7Zm23.1,3.33a8.46,8.46,0,0,1-.89,2.2,5.68,5.68,0,0,1-1.68,1.6v-3Zm-23.52,4c-.08,0-.07-.05-.13-.11l-.34-.3c-.15-.15-.29-.26-.44-.41a4.83,4.83,0,0,1-1.2-2.07,7.38,7.38,0,0,1-.38-1.21l2.5.83Zm21-7.14a25.79,25.79,0,0,1,2.53.66l0,2c0,.05-.06.05-.15.07l-2.44.76ZM8.28,17s.06,0,.15-.07c.62-.15,2-.55,2.36-.62v3.4l-2.5-.77ZM22.94,13l2.55,1c0,1.13,0,2.27,0,3.41,0,.88,0,2.59,0,3.38-.21.05-2.22.19-2.51.18Zm2.91,1.26c.38.11.94.36,1.3.51s1.12.46,1.27.54l-.1,5.24c-.18.05-2.18.25-2.45.24Zm-11.72,1c.45-.2,2.17-1,2.53-1.09l-.05,6.47c-.36,0-2.25-.11-2.52-.18Zm6.8-13.51c3.52-.17,5.85,1.51,3.23,2.54a7.27,7.27,0,0,1-2.34.44c-3.69.16-5.88-1.53-3.25-2.55a7.68,7.68,0,0,1,2.36-.44Zm-6.29,1.5c.48-.11,1-.5,1.62-.6a5.21,5.21,0,0,1-.39.45A4.17,4.17,0,0,0,15,4.8a2.3,2.3,0,0,1-.4-.26c-.12-.1-.23-.17-.37-.27A9.69,9.69,0,0,0,11.58,3C8.1,1.87,4.69,3.07,1.81,4.56A13.27,13.27,0,0,0,.15,5.5a.52.52,0,0,0,.1.82c.16,0,.71-.32.86-.4s.54-.31.83-.46c.56-.3,1.1-.55,1.72-.83,3.12-1.41,6.51-1.74,9.51,0a9.76,9.76,0,0,1,1.65,1.15,5.36,5.36,0,0,1,0,.81c-.25,0-.55-.1-.83-.14-2.78-.36-5.22,1-7.23,2.27-.19.12-.39.24-.57.37L4.85,10l-.12.1c-.5.33-1,.61-.82,1.15a.3.3,0,0,0,.24.21c.14,0,.23-.08.31-.14.23-.19.8-.57,1.08-.78.71-.52,1.43-1,2.23-1.5a10.25,10.25,0,0,1,6-1.75A9.28,9.28,0,0,1,15,7.53c.2,0,.16.07.22.22a4.49,4.49,0,0,0,.69,1.09,6.62,6.62,0,0,0,2.77,1.88c.23.09.16,0,.25.21s.13.14,0,.28a3.58,3.58,0,0,1-.71.64,9.9,9.9,0,0,1-.81.59c-.1.06-.17.12-.27.19l-.89.53c-.21.12-.41.22-.63.32-.43.2-.84.39-1.31.58s-.92.35-1.42.51a20.11,20.11,0,0,1-6.78,1.14c-.67,0-1.34-.05-2-.05a5.69,5.69,0,0,0-1.81.22C2.29,17.19,3.4,17,4.78,17a3,3,0,0,1,.88.08l.7,1.77a14.38,14.38,0,0,0,3.07,4.55l.69.63.24.19c.17.14.31.27.48.4A10.67,10.67,0,0,0,15.77,27a16.67,16.67,0,0,0,3.2.57,22.38,22.38,0,0,0,7-.58A17.88,17.88,0,0,0,31,24.75l2.05-1.48a14.92,14.92,0,0,0,1.7-1.77,12,12,0,0,0,2.28-4.4c.85-.06,3.3,0,3.28-.88a.48.48,0,0,0-.08-.27c-.06-.13-.06-.14-.23-.18-.92-.21-3.71,0-5.08-.07a20.12,20.12,0,0,1-5.57-1.2,17.62,17.62,0,0,1-4.34-2.17c-.37-.27-.82-.54-1.18-.82-.56-.43-.25-.13-.54-.63A6.23,6.23,0,0,0,26.94,8.4c.14-.19.31-.62.41-.74s.33-.12.47-.15a4.56,4.56,0,0,1,.53-.13,8.54,8.54,0,0,1,5.26,1,26.09,26.09,0,0,1,3.07,1.86l1.41,1c.21.15.55.51.7,0a.66.66,0,0,0,0-.48,8.11,8.11,0,0,0-1.2-.92l-.17-.12c-.33-.21-.74-.53-1.09-.76A20.28,20.28,0,0,0,34,7.56,9.26,9.26,0,0,0,28.8,6.41c-.4,0-.76.16-1.14.21,0-.19,0-.37,0-.56s.08-.26.24-.37A11.86,11.86,0,0,1,30.33,4.2c2.82-1.32,6.17-.76,8.86.49.89.41,1.75.86,2.59,1.33.24.14.67.5.85.14a.66.66,0,0,0,0-.46c0-.19-.16-.23-.31-.32l-.83-.47C38.4,3.18,34.82,1.76,30.92,3a10.25,10.25,0,0,0-2.6,1.33l-.75.53a3.68,3.68,0,0,1-.26-.69A6.89,6.89,0,0,0,26,2.48a5.76,5.76,0,0,1,1.06.37c.33.14.63.3,1,.42-.06-.17-.3-.31-.44-.42s-.51-.5-.8-.72l-.33-.27a7.24,7.24,0,0,0-1.13-.73,7.64,7.64,0,0,0-4-1.13A8,8,0,0,0,17,1.4l-.73.52c-.36.26-.67.52-1,.8a3.94,3.94,0,0,0-.62.6Z"/></g></g></g></g></g></svg>