<svg xmlns="http://www.w3.org/2000/svg" viewBox="0 0 38.43 27.51"><defs><style>.b8a9a962-653a-42a1-98e1-fdd271d43632{fill:#232627;stroke:#232627;}.a1bd32f7-7bd3-4e2a-b3b9-500a87ea39d4,.a329666d-2e63-4f3f-969a-d920998a6bf1,.a4791160-e623-4a29-b0d0-3117d45bc366,.a4d84964-2616-4b9c-a093-296c8bf58ad5,.a9ffbf66-005c-4bdb-aa47-a0182a7f46c0,.ad58b8bc-9658-4923-baf7-c788b9c65b3f,.af56b9e7-9f99-41dc-97af-8880cbef68bb,.afeb256e-258c-49d3-815c-17be85651f06,.b8a9a962-653a-42a1-98e1-fdd271d43632,.ba742dac-9137-49d2-b241-83a58379dc4e,.bae1db8d-b0a4-4126-9157-2a7f805676f5,.bec3212b-41b4-40ad-ad64-a0e306e5db9d,.e0db9695-72a5-4e25-bf97-66056cd85bbc,.e89d10cc-3691-4c35-8f13-aee135d01a00,.e8c38f34-906e-41a8-8ef5-4fb15e8ec577,.ebe9d225-53cb-4435-a447-c04c3c64ea3d,.f57e654f-2ca9-456c-8578-1dda82f76cea,.fb2dc56e-312d-4efb-8b0e-3cd3c0cbf6c2,.fea131bb-7365-4c55-9a72-3031aa339efc{stroke-linecap:round;stroke-linejoin:round;stroke-width:0.21px;}.ba742dac-9137-49d2-b241-83a58379dc4e{fill-opacity:0.33;stroke:#108280;}.e0db9695-72a5-4e25-bf97-66056cd85bbc{fill:#242426;stroke:#242426;}.afeb256e-258c-49d3-815c-17be85651f06{fill:#242526;stroke:#242526;}.e89d10cc-3691-4c35-8f13-aee135d01a00{fill-opacity:0.36;stroke:#0e7874;}.f67fd13e-dd75-4e2a-ba26-fb22765e337f{fill-opacity:0.48;}.f9012979-79a8-4076-8da2-0a2ed6a1f4e2{fill-opacity:0.5;}.ad58b8bc-9658-4923-baf7-c788b9c65b3f{fill:#dfe4e4;fill-opacity:0.3;stroke:#dfe4e4;}.a4d84964-2616-4b9c-a093-296c8bf58ad5,.f57e654f-2ca9-456c-8578-1dda82f76cea,.fb2dc56e-312d-4efb-8b0e-3cd3c0cbf6c2,.fea131bb-7365-4c55-9a72-3031aa339efc{fill:#fff;}.a4d84964-2616-4b9c-a093-296c8bf58ad5{stroke:#eaeaea;}.a9ffbf66-005c-4bdb-aa47-a0182a7f46c0,.f57e654f-2ca9-456c-8578-1dda82f76cea{stroke:#f2f2f2;}.fea131bb-7365-4c55-9a72-3031aa339efc{stroke:#eee;}.bec3212b-41b4-40ad-ad64-a0e306e5db9d{fill-opacity:0.46;stroke:#097773;}.a329666d-2e63-4f3f-969a-d920998a6bf1{fill:#f5f5f5;stroke:#f5f5f5;}.e8c38f34-906e-41a8-8ef5-4fb15e8ec577{fill:#1d3132;stroke:#1d3132;}.af56b9e7-9f99-41dc-97af-8880cbef68bb{fill-opacity:0.49;stroke:#0a7470;}.aa0fb79a-8727-4e30-9e40-824a62e7d4b4{fill-opacity:0.49;}.ebe9d225-53cb-4435-a447-c04c3c64ea3d{stroke:#0a7a78;}.bae1db8d-b0a4-4126-9157-2a7f805676f5{fill:#1f2d2e;stroke:#1f2d2e;}.a4791160-e623-4a29-b0d0-3117d45bc366{fill:#4e5152;stroke:#4e5152;}.fb2dc56e-312d-4efb-8b0e-3cd3c0cbf6c2{stroke:#dfdfdf;}.a9ffbf66-005c-4bdb-aa47-a0182a7f46c0{fill:#f2f2f2;}.a1bd32f7-7bd3-4e2a-b3b9-500a87ea39d4{fill:#e2f7f8;stroke:#e2f7f8;}</style></defs><g id="a8d7753f-3fc3-4a89-9183-0f72003fb83d" data-name="Layer 2"><g id="ae206526-24d6-43c4-aa57-851e4ac1f99a" data-name="Layer 1"><g id="f3e1407f-9685-4adb-b2a5-e303012ee1d5" data-name="Layer 1"><path class="b8a9a962-653a-42a1-98e1-fdd271d43632" d="M.11,19.71l.23-.06v.12c.43,0,.81.61,1.21.75v.11h.17v.12H1.9v.12a12,12,0,0,1,2,.75v.11h.41v.12h.52c0-1,1.17-3.39,2.08-3.76.2-.08,2.26-.33,2.26.46a2.6,2.6,0,0,1,.63.35l-.06.17a3.93,3.93,0,0,0,.52.23c0,.16,0,.1-.11.18a4.69,4.69,0,0,0,1,1.1l-.06.11h.12v.12c.21.07.51.41.4.63.19.1.09,0,.29.23l-.06.12a82.61,82.61,0,0,0,8.85-.29,5.9,5.9,0,0,0,2.14-.29c.23-.14.37-.91.46-1.15.81-2,1.41-3.53,3.82-3.65l-.06.12c.55,0,.82.52,1.22.52v.11c1.19.4,1.7,2.49,2.95,2.49,1.68,0,4.29-1.52,5.43-2.66.5-.5.29-1.56.75-1.91.75-.56.62.46.93.46,0,2.3-2.71,3.45-2,5.67-.39.2-.39,1.34-1,1.62-2,.84-2.35-1.16-3.93-1.27-2-.14-7.71.32-9.14,1.91A13.4,13.4,0,0,0,21,26h.17c-.41.14-.71.73-1.09,1l.11,0c-2,1.34-4.51-.93-5.78-2.19-.23-.23-.76-1.27-1-1.33-1.74-.38-4.69,0-6.13,0A8.1,8.1,0,0,1,.11,19.71Z"/><path class="ba742dac-9137-49d2-b241-83a58379dc4e" d="M15.55,5.66l-.06.17.23.06-.06.17c.2.1.11,0,.17.35H16a4.61,4.61,0,0,1-.12,2c-.15.4-.86,1-.86,1.28-.36,0-1,.82-1.39,1a20.63,20.63,0,0,1-3.07,1.21C6.6,13.47,4.81,10,4.27,7c-.15-.81-.43-1.92.06-2.66.5,1,.09,2.75,1,3.65-1,2.05,4.49,3,5.38,3a6.45,6.45,0,0,0,2.19-.57,3.88,3.88,0,0,0,2.61-3.7C15.49,6.23,15.08,6.13,15.55,5.66Z"/><path class="e0db9695-72a5-4e25-bf97-66056cd85bbc" d="M7.45,5.19l.06-.11H7L7,5a1,1,0,0,1-.52-.06V4.79H6.29V4.67c-.71,0-1.25-.78-1.85-1V3.57l-.17,0c0-.34-.61-.47-.87-.47.3.59,1.27,1.33,1.39,1.85.17.75-.07,1.5.11,2.26.7,2.76,3.17,3.24,5.73,3.24a6.76,6.76,0,0,0,3.47-1c.28-.22.64-.81,1-.64,0-.66.41-1.25.41-2,0-.25-.3-.56-.23-.81.13-.54.62-.16.46-1S13.21,4.88,12.6,5A16.48,16.48,0,0,1,7.45,5.19Z"/><path class="afeb256e-258c-49d3-815c-17be85651f06" d="M28.85,9.88a5.54,5.54,0,0,0,1.79-3.47c0-.46-.19-1-.06-1.39s1-1.11,1.27-1.39l-.06-.11c.22-.15.36-.32.24-.58-3.35,1.67-2.57,2.37-7.12,2.37-.64,0-1.32-.17-2-.23V5c-.88,0-1.66-.4-2.55-.4s-.25,3.67.64,4.57c1.3,1.3,4.69,1.27,6.13,1.27C27.66,10.4,28.45,9.68,28.85,9.88Z"/><path class="e89d10cc-3691-4c35-8f13-aee135d01a00" d="M31.22,4.38l-.06.12h.23v.17h.12c0,1,.41,2.1,0,3.07a18.5,18.5,0,0,0-1.05,1.79h-.11c-.76,2.29-7.87,2.19-9.66.41a4.29,4.29,0,0,1-1.33-3.13c0-.47.58-.77.58-1.15.67.67-.27,1.84.35,2.66,2,2.69,6.64,3.53,9.25.92C30.86,7.92,30.09,5.51,31.22,4.38Z"/><path class="f67fd13e-dd75-4e2a-ba26-fb22765e337f" d="M15.78,26.07c-1.65.23-3.19-.83-4.8-.87s-2.93,0-4.4-.06c-1.89,0-5.49-1.82-5.49-4,.41.82,1.86,1.39,2.72,1.67,0,.16,0,.08-.06.23,1,0,2.28.76,3.35.87C8.47,24,14.59,23.7,15.78,26.07Z"/><path class="f9012979-79a8-4076-8da2-0a2ed6a1f4e2" d="M21,26c2-3.91,2.73-3.24,7.06-4.1,1.69-.34,3.5-.78,4.8.52-.5.12-1.75.69-2.2.46-.23.46-2.68.42-3.07.46-1.69.17-5.12.82-5.95,2.49l-.12-.06C21.34,26,21.26,26,21,26Z"/><path class="ad58b8bc-9658-4923-baf7-c788b9c65b3f" d="M14.85,25.2c-.91,0-2-1-3-1.1-2.77-.34-5.53.18-8.09-1.1.16-.32,3.09.4,3.47.41C9.77,23.48,13.51,22.52,14.85,25.2Z"/><path class="a4d84964-2616-4b9c-a093-296c8bf58ad5" d="M29.37,20c-1.35.9-4.21.9-5.79,1.1.68-1,1.24-2.9,2.37-3.47S29,19.23,29.37,20Z"/><path class="f57e654f-2ca9-456c-8578-1dda82f76cea" d="M10.51,22.2a36.93,36.93,0,0,1-5.26-.12c.41-.81,1.24-2.62,2-3.07C8.3,18.43,10.32,21.43,10.51,22.2Z"/><path class="fea131bb-7365-4c55-9a72-3031aa339efc" d="M20.52,22.83c0,4.49-4.1,2.38-6,.52A38.37,38.37,0,0,1,20.52,22.83Z"/><path class="bec3212b-41b4-40ad-ad64-a0e306e5db9d" d="M10.57,1.49c-.34,1.73,4.11,1.79,4.11.81.81,0,.77-1.6,1-2-.15-.08-.1,0-.17-.17l-.12.05C15.92,1.79,11.3,3,10.57,1.49Z"/><path class="a329666d-2e63-4f3f-969a-d920998a6bf1" d="M11.27,5.83c1.58-.3,3,2.54.92,3.06S9.13,6.23,11.27,5.83Z"/><path class="e8c38f34-906e-41a8-8ef5-4fb15e8ec577" d="M10.57,1.49c-.22-.65,2.42-.2,2.78-.29A4.67,4.67,0,0,0,15,.51c.09-.07.46-.56.46-.17C15.43,2,11.06,3,10.57,1.49Z"/><path class="af56b9e7-9f99-41dc-97af-8880cbef68bb" d="M24.68,1.38l.12.05C23,2.32,20.64,3.08,20.06.16c.87,1.32,3.61,1.83,4.74.7C24.8,1.27,24.86,1.11,24.68,1.38Z"/><path class="aa0fb79a-8727-4e30-9e40-824a62e7d4b4" d="M36.31,21c0-.45-.06-1.8.23-2.14.78-.91,1.49-1.18,1.73-2.37,0,.33.25,1.25-.11,1.62C38.5,18.77,36.77,21,36.31,21Z"/><path class="ebe9d225-53cb-4435-a447-c04c3c64ea3d" d="M19.42,10.51c.28-.14.46.12.52.35.65,0-.17,1.22-.35,1.39-.74.74-3.78.69-3.35-1C17.23,12.69,21.34,11.79,19.42,10.51Z"/><path class="bae1db8d-b0a4-4126-9157-2a7f805676f5" d="M24.8,1.2V.86c-.93.92-4.28.86-4.69-.75a3.57,3.57,0,0,1,.7.17l-.06.11c.84,0,3.39-.45,4.22-.17A3.94,3.94,0,0,1,24.8,1.2Z"/><path class="a4791160-e623-4a29-b0d0-3117d45bc366" d="M19.19,10.28l-.06.12c1.43,0,.49,1.62-1.27,1.62C15.32,12,16.45,9.89,19.19,10.28Z"/><path class="fb2dc56e-312d-4efb-8b0e-3cd3c0cbf6c2" d="M35,19.71c.3,0,.18,1.74-.4,1.91-.4.11-2.07-.88-1.74-1.1A4.7,4.7,0,0,1,35,19.71Z"/><path class="a9ffbf66-005c-4bdb-aa47-a0182a7f46c0" d="M25,6.88c1.37-.26,2.3,2.45.77,2.58C24.06,9.6,23.12,7.24,25,6.88Z"/><path class="a1bd32f7-7bd3-4e2a-b3b9-500a87ea39d4" d="M33,9.53c.19,0,.46,0,.58.12,1.07,1.43-1.82,1.21-1,.17A.62.62,0,0,1,33,9.53Z"/></g></g></g></svg>