<svg xmlns="http://www.w3.org/2000/svg" viewBox="0 0 30.26 21.18"><defs><style>.f4aa2b22-e138-4f28-af14-a7820db99ada{fill:#0a0606;stroke:#0a0606;}.a017208d-59e2-4953-8fb6-87aec0cfe288,.a16c6ee1-80cc-4032-aeff-9ce25b77574e,.a1bff714-d700-496d-a6ee-d33c364e327d,.a29765c9-34e2-42e0-87fc-cd080961463b,.b1f542a3-3105-42b2-bdb8-4545b95997bc,.b2cae6b5-7c0c-4912-a9a7-d5685b07e200,.baba9c44-6faf-4ba4-b4a2-04eeb27b1d05,.bddf7a7b-27be-4092-85ef-e2bc067044b4,.bf8ac8ce-de4a-478b-9446-45d490a148dc,.f4aa2b22-e138-4f28-af14-a7820db99ada,.f4f528f1-2bea-433c-bbe8-5c752317565d,.fc1a59c9-16b4-4c54-96e2-8ce08d594926{stroke-linecap:round;stroke-linejoin:round;stroke-width:0.53px;}.bf8ac8ce-de4a-478b-9446-45d490a148dc{fill:#040404;stroke:#040404;}.b1f542a3-3105-42b2-bdb8-4545b95997bc{fill:#8a0e1b;stroke:#8a0e1b;}.a017208d-59e2-4953-8fb6-87aec0cfe288{fill:#020202;stroke:#020202;}.f4f528f1-2bea-433c-bbe8-5c752317565d{fill:#080808;stroke:#080808;}.b2cae6b5-7c0c-4912-a9a7-d5685b07e200{fill:#e7a2a8;stroke:#e7a2a8;}.a1bff714-d700-496d-a6ee-d33c364e327d{fill:#050505;stroke:#050505;}.bddf7a7b-27be-4092-85ef-e2bc067044b4{fill:#070707;stroke:#070707;}.baba9c44-6faf-4ba4-b4a2-04eeb27b1d05{fill:#060606;stroke:#060606;}.a29765c9-34e2-42e0-87fc-cd080961463b{fill:#f5f5f5;stroke:#f5f5f5;}.a16c6ee1-80cc-4032-aeff-9ce25b77574e{fill:#090909;stroke:#090909;}.fc1a59c9-16b4-4c54-96e2-8ce08d594926{fill:#0c0c0c;stroke:#0c0c0c;}</style></defs><g id="fe152b5d-dc72-4d1f-94bb-2b1534687a1f" data-name="Layer 2"><g id="fd0f149e-d04b-43dc-991a-1ea43d1fdbae" data-name="Layer 1"><g id="b7fc0485-3f2f-45fd-bcd0-58bba6828877" data-name="Layer 1"><path class="f4aa2b22-e138-4f28-af14-a7820db99ada" d="M21.75,5.47c.29.28.5.68.82,1,.85.86,1.82,1.65,2.7,2.53.21.21,1.14,1,1.14,1.26h.05c0,.06.06.08.06.14h0v0h0a.13.13,0,0,0,.05.09v0h0s0,0,0,0l0,0h0v0c.08,0,.07.23.16.27v0h0l0,0h0v0h0l0,0,0,0s0,.07,0,.07v0l0,0,0,0h0v0l0,0s0,0,0,.06h0v0l0,0,0,0c.21.1-.1,1,0,1.13h0c0,.05,0,.05,0,.1l0,0c0,.05,0,.05,0,.1s-.08.36-.21.49a5.32,5.32,0,0,0-1.11-2.64c-.09-.12-.39-.66-.53-.61,0,.12-.07.24,0,.36s0,0,0,.07a1.6,1.6,0,0,0-.13.6s-.07.12-.05.16a.09.09,0,0,0,0,.12,1.09,1.09,0,0,0-.16.5A14.16,14.16,0,0,0,24,13.28a6.92,6.92,0,0,1-2,2.17,6.31,6.31,0,0,1-1.93.8c-.19,0-1.1.09-1,.28l0,0c0,.07-.06.08,0,.15l0,0c.1.21-.79,1.2-.91,1.31a5.87,5.87,0,0,1-4.66,1.26,4.75,4.75,0,0,1-2.75-1.51,4,4,0,0,1-.62-1c0-.05-.13-.37-.17-.37A8.8,8.8,0,0,1,7.57,16c-2.37-1-3.75-3.46-4.06-6a7.63,7.63,0,0,0-1.07,1.53c-.1.1-.11.29-.21.39l0,0,0,0v0l0,.05c0,.08-.14.23-.09.32a.19.19,0,0,0-.06.2.16.16,0,0,0,0,.16H2l0,0a.48.48,0,0,0-.06.31s0,.13,0,.18a4.39,4.39,0,0,1-.34-1.45C1.52,10,4,8.34,5.18,7.28a15.82,15.82,0,0,1,1.7-1.75,2.69,2.69,0,0,0,0,.49l0,0,0,0h0v0a.21.21,0,0,0-.06.18l0,0c.07.15-.37.71-.46.82a10.53,10.53,0,0,1-1.4,1.51c-.22.2-.64.49-.74.78h0a.2.2,0,0,1,0,.07h0c0,.05,0,0,0,.08h0a.2.2,0,0,1,0,.07h0s0,0,0,.07h0a1.86,1.86,0,0,0,0,.33h0s0,0,0,.06h0s0,0,0,.06h0s0,0,0,.06h0s0,0,0,.06h0s0,0,0,.06h0s0,0,0,.06h0s0,.05,0,.1h0s0,.06,0,.1h0s0,.06,0,.11h0v0h0l0,0s0,0,0,.08h0l0,0h0v0l0,0,0,0h0v.05h0l0,0h0c0,.05,0,.06,0,.09v0h0l0,0,0,0v0h0l0,0,0,0v0h0l0,0h0v0h0a.24.24,0,0,0,.08.21l0,0h0v0h0l0,0h0v0h0l0,0h0v0h0l0,0,0,0v0h0l0,0h0v0h0l0,0H5v0H5l0,0H5v0H5l0,0H5v0H5l0,0H5v0h0l0,0h0v0h0l0,0h0v0h0l0,0h0v0h0l0,0h0v0h0l0,0h0v0h0s0,0,0,0v0h0l0,0h0v0h0s0,0,0,0l0,0h0s0,0,0,.05v0h0s0,0,0,0l0,0c.06,0,0,.07.09.09v0s0,0,0,.05h0v0s0,0,0,0l0,0c0,.05.06.07.06.13l0,0A5,5,0,0,0,7,14.64v0c.11,0,.31.21.45.26v0c.28,0,.72.33,1,.41a7.77,7.77,0,0,0,2.21.25c1.35,0,2.51-.86,3.83-.86a6.08,6.08,0,0,1,1.69.55,7.93,7.93,0,0,0,2.51.31c2.69,0,4.48-2.2,5.26-4.52a6.24,6.24,0,0,0,.49-1.65c0-.23-.54-.57-.68-.72a18.73,18.73,0,0,1-1.84-2.18C21.73,6.29,21.56,5.74,21.75,5.47Z"/><path class="bf8ac8ce-de4a-478b-9446-45d490a148dc" d="M17.07,4.65v0c.12,0,.26.12.37.16s.07.06.12.08V5c.06,0,0,0,.1,0V5c.12,0,.45.35.45.46l0,0v0h0l0,0c.07,0,.06.16.14.2l0,0h0v0h0l0,0h0v0h0c0,.06,0,0,0,.08V6h0a2.05,2.05,0,0,0,0,.78c-.05,0,0,0,0,.09a.18.18,0,0,0,0,.2l0,0v0a1.19,1.19,0,0,0-.15.45l0,0v0l0,0s0,.1-.06.13a5.58,5.58,0,0,1-.59,1.09c-.67.84-1.57,2.07-2.81,2.12a4.53,4.53,0,0,1-4.13-3.18c-.23-.7-.69-1.56-.16-2.25a4.22,4.22,0,0,1,3.55-1.39A13.68,13.68,0,0,1,17.07,4.65Z"/><path class="b1f542a3-3105-42b2-bdb8-4545b95997bc" d="M18.73,16.43c-.15.2-.38.64-.65.66-.06,0-.15,0-.15,0s-.07,0-.07,0-.11,0-.11-.06c-.34,0-.7-.22-1.07-.23a5.69,5.69,0,0,0-1.17,0,3.84,3.84,0,0,1-.85.23,18.7,18.7,0,0,0-1.87-.26,3.89,3.89,0,0,0-1.38.3c-.16.07-.41.27-.58.27v0c-.09,0-.35-.26-.35-.36h-.05v-.05h0a.13.13,0,0,0-.06-.09l0,0h0v0s-.05,0,0-.06h0l0,0h0v0h0c0-.25.83-.17,1.1-.2a4.22,4.22,0,0,0,2.26-.77h0v0c.19-.07.46-.33.68-.29.61.12,1.1.63,1.71.8A7.94,7.94,0,0,0,18.73,16.43Z"/><path class="a017208d-59e2-4953-8fb6-87aec0cfe288" d="M25.12,1.07c0,.15.53.34.53.57h.05s0,0,0,0l0,0c.06,0,0,.07.09.09v0h0l0,0h0s0,0,0,0V2h0l0,0h0V2h0l0,0h0v0h0s0,.07,0,.07l0,0h0v0h0l0,0h0v0h0l0,0h0v0l0,0s0,0,0,.07h0l0,0,0,0v0h0s0,0,0,.06h0l0,0h0c0,.05,0,0,0,.07l0,0h0v0s0,0,0,.07h0v0s0,0,0,.08h0a.85.85,0,0,0,0,.16h0c0,.07,0,0,0,.1h0a4.27,4.27,0,0,0,0,.88s0,.06,0,.11a.18.18,0,0,0,0,.16c-.07,0-.14.4-.2.52a1.5,1.5,0,0,1-1,.73C22.77,5.71,22.09.06,25.12,1.07Z"/><path class="a017208d-59e2-4953-8fb6-87aec0cfe288" d="M2.77,1.83c0,.11.31.15.31.3h0a.13.13,0,0,0,.06.09l0,0h0v0h0v0h0l0,0h0v0h0l0,0h0v0h0s0,0,0,.06h0a2.51,2.51,0,0,0,0,.73s0,.07,0,.13l0,0c0,.09,0,0,0,.11s0,.11,0,.15,0,0,0,.07h0v0l0,0,0,0,0,0v0h0c0,.09-.14.26-.09.36l-.05,0c.05.1-.2.46-.27.57-.27.46-1.25,2-1.94,1.26a3.14,3.14,0,0,1,0-3.59c.21-.28.41-.7.78-.79A1.8,1.8,0,0,1,2.77,1.83Z"/><path class="f4f528f1-2bea-433c-bbe8-5c752317565d" d="M18.1,3V3h0c-1.41.14-2.86-.15-4.28,0a13.29,13.29,0,0,0-2,.28,8.24,8.24,0,0,1-1.53.41c0-.64,1.25-1,1.77-1.12a8.86,8.86,0,0,1,4.6-.12C17.21,2.55,17.62,2.81,18.1,3Z"/><path class="b2cae6b5-7c0c-4912-a9a7-d5685b07e200" d="M17.55,17.47c0,.18-1.33.73-1.55.8a5.6,5.6,0,0,1-3.87-.08c-.35-.14-.6-.43-.93-.59l0-.06a8.79,8.79,0,0,0,1-.15,8.12,8.12,0,0,1,2.09.05,2.88,2.88,0,0,1,1.22.43s.07.07.12,0,0,0-.06-.07l0,0a3.33,3.33,0,0,1-.38-.48C15.91,16.89,16.86,17.24,17.55,17.47Z"/><path class="a1bff714-d700-496d-a6ee-d33c364e327d" d="M30,3.28l0,0c0,.05,0,.06,0,.12l0,0v0c-.12.11-.12.35-.22.5a3,3,0,0,1-.77.85c-2,1.29-2.12-1.57-1.12-2.57.45-.45,1.21-.26,1.73-.09v0c.05,0,.25.17.25.24h0s0,0,0,0v0h0l0,0h0v0h0l0,0h0s0,0,0,.07l0,0h0a.17.17,0,0,0,0,.12h0C30,3,29.91,3.15,30,3.28Z"/><path class="bddf7a7b-27be-4092-85ef-e2bc067044b4" d="M6.27,1l.05,0s0,0,0,0l0,0c.08,0,.07.21.15.25-.12.37.15.57-.32.85-.71.42-2.31.14-2.31-.86S5.13,0,5.77.46C5.9.55,6.27.78,6.27,1Z"/><path class="baba9c44-6faf-4ba4-b4a2-04eeb27b1d05" d="M27.72,6.16l0,0s0,0,0,0v0h0s0,0,0,0l0,0h0v0h0l0,0h0c0,.05,0,.06,0,.09v0h0l0,0h0v0l0,0,0,0h0s0,0,0,0h0c0,.12-.08.39,0,.49l0,0v0c-.3.3-.33.91-.9.95a1.17,1.17,0,0,1-1-1.82c.31-.42,1-.93,1.48-.43C27.58,6,27.72,6.06,27.72,6.16Z"/><path class="a29765c9-34e2-42e0-87fc-cd080961463b" d="M13.12,5c.85-.06,1.09.5.48,1.12a2.61,2.61,0,0,1-1.47.59c-.69,0-1.61-.23-.82-1A3,3,0,0,1,13.12,5Z"/><path class="a16c6ee1-80cc-4032-aeff-9ce25b77574e" d="M16.86,20c0,.38-.89.65-1.21.74-1.73.49-2.34,0-3.64-.68,0-.08.75.09.84.1a11.89,11.89,0,0,0,1.46.07,10.53,10.53,0,0,0,1.26-.07C16,20.09,16.47,19.85,16.86,20Z"/><path class="a16c6ee1-80cc-4032-aeff-9ce25b77574e" d="M5.59,3v0h0l0,0h0v0l0,0,0,0h0v0h0c0,.05,0,0,0,.08h0c0,.07,0,.07,0,.13h0a.28.28,0,0,0,0,.18c-.06,0,0,.09,0,.15h0l0,0,0,0c.15.3-.95,1.15-1.4.7S4.35,2.8,5,2.73C5.39,2.7,5.36,2.9,5.59,3Z"/><path class="fc1a59c9-16b4-4c54-96e2-8ce08d594926" d="M13.79.82A4.35,4.35,0,0,1,15.54,1l.55.17c.08,0,.32.07.24.09a3.57,3.57,0,0,1-1,0H13.82C12.61,1.25,13.1.9,13.79.82Z"/></g></g></g></svg>