<svg xmlns="http://www.w3.org/2000/svg" viewBox="0 0 202.2 152.52"><defs><style>.bd5e818b-4b09-4a91-aeee-02b55bc03cb4{fill:#bcd86c;}.b183b4b5-bb58-4038-97d0-f270428b71c6{fill:#ca8b57;}.a7261ca2-846e-4b58-b9f1-25f70a2b832e{fill:#b9894c;}.b6ee4983-0455-4216-ad72-5cdfd4e6c6fa{fill:#8b5959;}.a0369078-0a81-46f8-8ec5-98c4dec2713e{fill:#ed593f;}.b82306ef-c43d-4471-adf5-d49f3ae66d2b{fill:#f5eb00;}.f704e907-fa87-4262-813d-3e856d4faf8f{fill:#fab766;}.f6deedba-5446-49f0-a468-e6a5edefd8e1{fill:#ffcf60;}</style></defs><g id="fb06e51e-cfaa-41e5-8cf3-fb4ea73b2e24" data-name="Layer 2"><g id="a65b30ce-5dff-4471-b199-5f20b97bc388" data-name="Layer 1"><rect class="bd5e818b-4b09-4a91-aeee-02b55bc03cb4" x="10.83" y="67.76" width="179.85" height="12.54" rx="6.27"/><path class="b183b4b5-bb58-4038-97d0-f270428b71c6" d="M57.26,0h87a57.26,57.26,0,0,1,57.26,57.26v0A10.5,10.5,0,0,1,191,67.76H10.5A10.5,10.5,0,0,1,0,57.26v0A57.26,57.26,0,0,1,57.26,0Z"/><rect class="a7261ca2-846e-4b58-b9f1-25f70a2b832e" x="0.69" y="119.66" width="201.51" height="32.85" rx="16.43"/><rect class="b6ee4983-0455-4216-ad72-5cdfd4e6c6fa" x="0.3" y="80.3" width="201.51" height="27.81" rx="13.9"/><rect class="a0369078-0a81-46f8-8ec5-98c4dec2713e" x="12.67" y="108.1" width="173.02" height="11.56" rx="5.78"/><polygon class="b82306ef-c43d-4471-adf5-d49f3ae66d2b" points="29.77 67.76 98.51 94.83 163.07 67.76 29.77 67.76"/><path class="f704e907-fa87-4262-813d-3e856d4faf8f" d="M60,4.79h74.69a49.15,49.15,0,0,1,49.15,49.15v0a9,9,0,0,1-9,9h-155a9,9,0,0,1-9-9v0A49.15,49.15,0,0,1,60,4.79Z"/><polygon class="f6deedba-5446-49f0-a468-e6a5edefd8e1" points="39.17 67.76 96.09 90.18 149.57 67.76 39.17 67.76"/><rect class="f704e907-fa87-4262-813d-3e856d4faf8f" x="12.67" y="123.24" width="178.01" height="29.02" rx="12.31"/></g></g></svg>