<svg xmlns="http://www.w3.org/2000/svg" xmlns:xlink="http://www.w3.org/1999/xlink" viewBox="0 0 159.28 252.54"><defs><style>.f74a212a-f35b-4678-b18b-7a4ffbc0e5b2{fill:none;}.fc6766f4-6c8e-4683-8741-1e03ce1bee5d{clip-path:url(#e4d123db-8818-43f9-9fe1-7c22f7749672);}.bf8241dc-378b-4b3b-a08c-2c256ddb167c{fill:#9a6262;}.f6720d3e-b725-49db-98c4-a93872ea2a53{fill:#53424b;}.bced585e-4f03-41e4-85fc-69a347a9a7f1{fill:#231f20;}.e2b2ba61-c93c-4bff-bca4-e0e4713fff8c{fill:#e0baac;}</style><clipPath id="e4d123db-8818-43f9-9fe1-7c22f7749672" transform="translate(3.61)"><path class="f74a212a-f35b-4678-b18b-7a4ffbc0e5b2" d="M137.33,93H100.1c-3.65-3.69-7.18-7.68-8.73-12.73-.07-.2-.12-.39-.18-.59a25.15,25.15,0,1,0-28-.26c-.53,3.4-1.1,6.8-3.62,9.42Q57.63,91,55.52,93H17.69A17.62,17.62,0,0,0,0,110.55V234.92a17.62,17.62,0,0,0,17.69,17.55H59.9v-.11a8.33,8.33,0,0,1-.9-1.24l-.26-.4a.63.63,0,0,0-.1-.27c0-.09-.12-.12-.11-.08l.15.25A25.15,25.15,0,1,1,105,237.12,24.4,24.4,0,0,1,100.75,251v.08c-.31.49-.64,1-1,1.43H137.4A17.61,17.61,0,0,0,155,234.92V110.55A17.6,17.6,0,0,0,137.33,93Z"/></clipPath></defs><g id="b7fafdd9-1ee6-41fd-beff-63368683c1a4" data-name="Layer 2"><g id="b922cb8b-ea61-4951-aee6-3b4b9a48f1df" data-name="Layer 1"><g class="fc6766f4-6c8e-4683-8741-1e03ce1bee5d"><rect class="bf8241dc-378b-4b3b-a08c-2c256ddb167c" x="3.61" y="180.74" width="155" height="71.79"/><path class="f6720d3e-b725-49db-98c4-a93872ea2a53" d="M125.74,189.44H155v35S130.77,222.79,125.74,189.44Z" transform="translate(3.61)"/><polygon class="bf8241dc-378b-4b3b-a08c-2c256ddb167c" points="143.98 218.31 148.35 197.55 152.44 215.25 156.52 210.66 159.28 224.46 143.98 218.31"/><polyline class="bced585e-4f03-41e4-85fc-69a347a9a7f1" points="159.28 93.02 159.15 102.63 158.43 150.78 158.28 160.39 157.97 189.44 0 189.44 0.3 160.39 0.46 150.78 1.18 102.63 1.31 93.02"/><path class="e2b2ba61-c93c-4bff-bca4-e0e4713fff8c" d="M99.29,93.55,78.07,158,55.52,93" transform="translate(3.61)"/><polygon class="bf8241dc-378b-4b3b-a08c-2c256ddb167c" points="59.06 93.02 54.07 121.41 68.44 119.95 59.06 93.02"/><polygon class="bf8241dc-378b-4b3b-a08c-2c256ddb167c" points="102.91 93.54 94.86 117.95 106.77 124.53 102.91 93.54"/></g><rect class="f6720d3e-b725-49db-98c4-a93872ea2a53" x="57.09" y="34.14" width="46.23" height="1.76"/><rect class="bced585e-4f03-41e4-85fc-69a347a9a7f1" x="64.74" width="32.07" height="34.14"/><rect class="bf8241dc-378b-4b3b-a08c-2c256ddb167c" x="64.74" y="27.7" width="32.07" height="6.44"/></g></g></svg>