<svg xmlns="http://www.w3.org/2000/svg" xmlns:xlink="http://www.w3.org/1999/xlink" viewBox="0 0 43.1 43.53"><defs><style>.f307df3a-d8ce-4af9-a6de-59c7f0b8ed4a{fill:#f3f4e7;}.a7306c95-af1b-479c-acad-5b7905fdd4c9{fill:url(#a8a8c25e-cda6-4177-9423-87aa45f3a1d5);}.f504cec9-bb29-400e-8ab5-9815c3c93635{fill:#19191b;}.b777f43e-9d13-47b8-818f-93036967ffa0{fill:#fff;}</style><radialGradient id="a8a8c25e-cda6-4177-9423-87aa45f3a1d5" cx="-647.06" cy="385.47" r="16.7" gradientTransform="matrix(0.84, 0, 0, -0.84, 567.71, 347.03)" gradientUnits="userSpaceOnUse"><stop offset="0" stop-color="#ff1717"/><stop offset="1" stop-color="#fff"/></radialGradient></defs><g id="a370d646-b8ae-4f54-a683-71cf67250d75" data-name="Layer 2"><g id="a6be3f8c-253d-469e-acab-9e771dde1189" data-name="Layer 1"><path d="M19.85.15C27.52-.82,36.54,3,40.21,10.29,47,23.82,41.8,40.51,25.59,43.22a21.86,21.86,0,0,1-24-29.71C5,5.08,11.71,1.18,19.85.15Z"/><path class="f307df3a-d8ce-4af9-a6de-59c7f0b8ed4a" d="M20.48,2.43a19.36,19.36,0,0,1,18.23,9.82c6.81,11.34-1.18,28.4-14.85,28.92-7.35.29-12.25-2-17-6.83-7.9-7.9-4.93-23.25,4.4-28.85A19.37,19.37,0,0,1,20.48,2.43Z"/><path class="a7306c95-af1b-479c-acad-5b7905fdd4c9" d="M20.56,7.77A14,14,0,0,1,34.08,15c4.92,8.21-1,20.36-10.77,20.83C9.62,36.48,2.24,21.45,12.39,11.31A12.65,12.65,0,0,1,20.56,7.77Z"/><path class="f504cec9-bb29-400e-8ab5-9815c3c93635" d="M29.75,20c0,2.24.38,4.35-1,6.21-1,1.3-2.21,3-3.93,3.3-1.88.38-3.72.88-5.65.24C9.43,26.46,14,10.63,23.63,13.82c0,1-1,2.31-1,3.62C22.6,21.12,27.57,21.26,29.75,20Z"/><path class="b777f43e-9d13-47b8-818f-93036967ffa0" d="M29.68,19.88c-1.81,4.13-7.95-.78-6.92-4.41C23.9,11.48,30.71,17.51,29.68,19.88Z"/></g></g></svg>