<svg xmlns="http://www.w3.org/2000/svg" viewBox="0 0 69.16 59.03"><defs><style>.f5d4f226-db85-4192-97da-9ec9b47578c0,.fb7c9496-d092-40ec-9dff-1c9997455e2f{stroke:#000;stroke-linecap:round;stroke-linejoin:round;}.fb7c9496-d092-40ec-9dff-1c9997455e2f{stroke-width:5.03px;}.f5d4f226-db85-4192-97da-9ec9b47578c0{stroke-width:0.52px;}</style></defs><g id="e299423d-8eb6-4f02-a79d-7b945917230c" data-name="Layer 2"><g id="f488eed3-da30-463f-b7db-560498151eb9" data-name="Layer 1"><g id="a9c31675-73ab-478f-8bab-63661d480b00" data-name="Layer 1"><path class="fb7c9496-d092-40ec-9dff-1c9997455e2f" d="M9.07,47.2c-.15,0-.3,0-.3.16.29,0,.32-.11.46-.33.11,0,.07,0,.07.17h.13v.1c-.09,0,0,0-.1.06.16,0,.07,0,.27,0-.18.06-.13.1-.1.3-.12,0-.13,0-.13-.14l0,.14a1,1,0,0,1-.3,0v-.1c-.14.07-.73.13-.73-.1H8.13v-.1H8.06v-.13h-.6v-.1a1.15,1.15,0,0,1-.37,0V47c-.14,0-.15.13-.33.13v-.1H6.69v-.13H6.56c0-.1,0-.17-.1-.17l0,.1A2.16,2.16,0,0,0,6,47c0-.13,0-.09-.13-.13-.08.12-.12.16-.27.16v-.06c-.2,0-.39.1-.6,0v-.07c-.19,0-.3,0-.3-.2l-.34-.06c.05-.26,0-.25.27-.2v-.07l-.17,0v-.07c-.22,0-.17-.06-.23.07h.1v.06c-.11,0-.05,0-.13.1a1.51,1.51,0,0,0-.57-.43v-.13H3.55c0-.3-.27-.46-.27-.81H3.22a.75.75,0,0,0,0-.33c.11,0,.07-.09,0-.2H3.15c0-.38-.11-.76.34-.84-.09,0-.14,0-.14-.13H3.18c0-.26.16-.33.41-.33v-.11H3.52v-.06H3.45l.07,0c0-.12,0-.06,0-.16a.31.31,0,0,0,.13.1c-.11-.23-.06-.2-.27-.3.21-.4.43-1.74,1-1.74,0-.13,0-.07,0-.17a2.59,2.59,0,0,0,.47-.53c.06.11.13.07.24,0,0-.12,0-.08-.1-.13s0-.06.13-.1v.1c.34,0,0-.64.6-.5v-.1H5.62v-.07H5.56c.09-.1.06-.2.1-.34H5.59c0-.47-1.38-1.8-1.84-1.8V37.3a1.94,1.94,0,0,1-1.2-2c.08-.26.53-.55.53-.8a3.49,3.49,0,0,0,.61-.34H3.62c.11-.1.16-.1.2-.26.14,0,.73-.3.73-.44l0,.07a6.63,6.63,0,0,0,.8-.4c.09.09.06,0,.1.17s-.06,0-.1.06c.24,0,.61-.18.17-.26l.16,0V33h-.1a4.79,4.79,0,0,1,.81-.34c0-.23,1.24-1.08,1.33-1A9.43,9.43,0,0,1,8.93,30c0-.22,0-.31.17-.36v-.1l.13,0v-.1l.14,0c0-.2-.08-.13-.3-.13A6.77,6.77,0,0,0,9,27.91l.06,0-.1,0A7.22,7.22,0,0,0,7.6,24.74c0,.28.08,1.61-.2,1.7a12.39,12.39,0,0,0,0-2.27H7.36a4.48,4.48,0,0,1-.2-.74H7.09c-.37-3,2-4.76,4.45-6l0,.07c-.82.41-3.33,2-3.21,2.74a5.54,5.54,0,0,1,2-.8c.34-.05.83.1,1.07-.14v.1a3,3,0,0,0,.6,0c0-.18.13-.16.13-.3-1.05,0,1.58-.42,1.71-.43-.08-.17-.25-.28-.3-.44,0,0-1.48-1-1.84-1.1-.12,0-.1-.07-.13-.17l.06,0V17h.1V17c.32-.08,1.22.21,1.34.57.36,0,1.4.9,1.4,1.3.37,0,.64.46,1,.57,0,.8.57,1.82.64,2.67h.16a8.2,8.2,0,0,0-.23.81h.07c0,.1,0,0,0,.16a.21.21,0,0,0-.2.3c-.27,0-.5.73-.4.94-.11,0-.15,0-.23.07v-.17a2,2,0,0,0-.37.4c.09.05.06,0,.06.13s0,0-.13-.06c-.48.45-.87.66-.87,1.17-.12,0,0,0-.23,0,0,.13,0,.07,0,.17-.52,0-.48,1.11-.77,1.3l.13.07c-.27.09-.12.2,0,.37h-.17a4.28,4.28,0,0,0-.1.73H13c-.15.05-.13.09-.17.24h.07c0,.21-.07.05-.07.36a.51.51,0,0,1,.27,0c0,.22-.11,0,0,.33h-.24l0,.27h.07c0,.31-.22.67.16.67,0,.09,0,.05,0,.13s-.12,0-.17.1H13c-.39.13.19.56.24.7-.15-.06-.22,0-.34-.06,0,.12-.08.1-.13.2l.07,0,0-.07a1.83,1.83,0,0,1-.2.84l.13.07,0-.07a1.13,1.13,0,0,1,.6,1.07c-.12,0-.14,0-.14-.13-.15,0-.11,0-.16.06l.06,0-.06.06c-.21-.2-.38-.54-.64-.67a14.62,14.62,0,0,0-.77,2.71c0,.45.22,1-.1,1.34l.1,0c0,.9.16,1.46,1.07,1.51v.16c.09,0,.05,0,.14,0s0-.06.06-.1l-.06,0c.1-.2.37-.08.53,0a.48.48,0,0,1,.07-.16h-.1c0-.48.13-.23.23-.54h-.1v-.1l.13,0v.06a.7.7,0,0,1,.31,0c0,.26.07.2-.07.26.14.07.07,0,.07.27.21,0,.35,0,.53,0V38h-.07c0-.13.3-.26.37-.4l.13.07-.06,0c.16,0,.1,0,.2-.07-.07-.14-.56-2.24-.3-2.24,0,.61.73,1.14.73,1.74,0,.39-.33.72-.33,1h-.07c0,.12-.09.2-.23.2l0,.1c-1.35,0-.38,1.46-.66,1.6h.1v.1h.1v.07c-.12,0-.17,0-.17.13s.12,0,.17-.1c.24.13.5,1.21.63,1.47-.11-.05-.42-.18-.27.14h-.13c0-.2.1-.26.13-.44-.17-.09-.43-.53-.53-.13-.08-.33-.39-.73-.3-1.07-.17-.08-.13-.28-.2-.43l.07,0a.59.59,0,0,1-.07-.16l-.07,0c0-.82-.52-.76-1.27-.64,0,0,0,.07,0,.1h.07c0,.1,0,0,0,.14l-.07,0h.1v.07l-.1,0c.1,0,0,0,.17,0v.13c-.13,0-.08-.06-.17,0l.1,0v.06c.31.07.61.75.7,1-.16,0-.1-.07-.2,0l.07.1c-.13.09-.06.07-.2.07a1.63,1.63,0,0,0-.07-.3h-.06v-.07h-.07c0-.16-.18-.31-.23-.47s.06,0,.1-.16c-.28-.06-.48-.6-.57-.87-.13,0-.3.06-.3-.1h-.07l0-.14-.07,0c.08.28.12.17,0,.33-.09-.13-.24-.15-.24,0-.16,0-.11,0-.17-.06l-.06.06c0-.1,0-.2-.1-.3.1-.1.19,0,.33,0l0-.16H11.1c.05-.09,0-.07.11-.07s0-.07.06-.13c.92-.74.07.07.34-.74l-.07,0c0-.39-.3-.81-.2-1.2h-.07c.1-.1,0-.07.2-.07l0-.06c-.11.05,0,0-.2,0a1.52,1.52,0,0,0-.07-.67c.1,0,0,0,.17,0-.09-.09-.08,0,0-.17h-.14c0-.22-.11-.71.17-.8,0-.33,0-1.14.43-1.14a1.1,1.1,0,0,1,.14-.93l.13,0,0-.07h-.2c0-.18.1-.6.3-.6-.31-.93-1.81-.11-2.44.14l0,.36,0-.1-.23,0v-.07c-.1,0,0,0-.17,0v-.1c-.26,0-.39.24-.63.24v-.07c-.17,0-.35.38-.3.47-.18.18-.14.54-.1.77l-.07,0a4.65,4.65,0,0,1,.54,1.24h.06c0,.4.57,1.13.74,1.47l-.07,0a.54.54,0,0,1,.2.27.62.62,0,0,1-.23-.07l0,.07H9.5V37h.07l-.07.07c-.82-.82-1.2-2.33-1.7-3.34.1-.06.07-.1,0-.2H7.76c0-.73.56-1.69,1.41-1.41V32H9.1c.16-.25.88-.32,1.17-.37v.14c.28-.15.72-.28,1.1-.47-.28-.86-1.29-1.72-.43-2.58-.24-.11.18-.74.23-.93-.16-.06-.25-.17-.17-.34-.32,0-.67-.83-.8-1.1a19.41,19.41,0,0,0-2.37-3.21c0-.08,0,0,0-.13h-.1c0-.2-.13-.29-.3-.37l0,.07c.23.11.19.43.23.67.1-.05,0,0,.17,0,0,1.23,1,2.16,1.2,3.38H9.1c0,.23.18.45.23.67-.11,0-.16,0-.16.13h.2c0,.16.07.28.1.44L9.4,28l.1,0a1.82,1.82,0,0,0,0,.44l-.06,0c.19.19.26,1.53-.17,1.64.18.09-.63,1.5-.9,1.37C8,32.77,6.55,33.2,5.62,33.89c-.26.2-1.1.45-1.1.81-.12,0-.07,0-.17,0s-.3.22-.3.34H4c0,.44-.46.39-.2,1s1.2.89,1.33,1.54H5a.46.46,0,0,1-.16.27c.42,0,.63-.44.86.27.2,0,.22.09.31.26h.06a5.85,5.85,0,0,1,.44,1.34l.16,0c-.09.1-.1.11-.23.07-.14.2-.13.18-.4.13a.59.59,0,0,1-.2.37l.06.1c-.11.11-.21.18-.33.3-.12-.06-.26.09-.33-.07-.16.16.08.23.06.41s-.38.46-.46.7c-.08-.08-.11,0-.21-.1l0,.06c-.14,0-.27-.08-.27.1H4.29l0,.14h.2c0,.09,0,.06-.06.1.2,0,.11.05.26,0a1.07,1.07,0,0,1-.06.47l0-.2-.06,0A10.37,10.37,0,0,1,4.42,44H4.25c0,.22,0,.31.27.23,0,.17.16.35,0,.47l-.06,0c0,.1,0,0,0,.17.11-.06,0,0,.23,0v.1H4.65V45l.24,0c0,.19-.16.15-.3.1l0,.14h.1v.06c.2,0,.15,0,.21-.06s.56.14.56.36c.28,0,.41.18.64.24V46c.3,0,1.44.14,1.5.4.11-.21.84.15.9.27C9,46.51,9,46.53,9.07,47.2Z"/><path class="fb7c9496-d092-40ec-9dff-1c9997455e2f" d="M57.32,49l.17,0v.4c.16.06.21.35.27.47.1-.1.07,0,0-.2.29-.14.91-1.35,1-1.3l0-.17c0,.14.12.12.24.2-.05-.16-.09-.12-.14-.27a7.29,7.29,0,0,0,1.47-.76v.06a.53.53,0,0,0,.24,0V47.2h-.14c.06-.11.12-.11.24-.14l-.1,0c.16-.33,0-2.47-.51-2.47,0-.11,0-.27-.16-.27s-.08-.22-.24-.27c0-.08-.26-1.33-.26-1.4l.1,0c0-.17,0-.09,0-.23h-.1c0-.17,0-.85.2-.94A7.35,7.35,0,0,1,60,39.48c.52-1.41,1.2-4.33.83-5.79.13,0,.27-.15.4-.2.51.77,2.39,1.7,2.54,2.31h.07v.1a1.39,1.39,0,0,1,.5.3c.3.35-.27.61-.23.94a10.49,10.49,0,0,1,.1,2.3c0,.34-.61.7-.44,1h-.1c-.11.34-.64,1.49-.2,1.64v.1h.14s1.21,1.29,1.23,1.3a4.4,4.4,0,0,0,.1.77H65a4,4,0,0,1-.94,2.54c-.25-.13-.18.26-.33.33l.17,0v.1c-.12,0-.15,0-.27,0v-.1h-.2c0,.12.12.1.17.23l-.2,0V47.4a.68.68,0,0,0-.61.26c-.11-.06-.27.06-.4.1,0-1.45,1.61-1.23,2.28-2.34.16-.26.33-1.4-.07-1.4,0-.25-.78-.68-1-.57v-.06c-.25,0-.34-.11-.34.13h-.16c1,.12,2,1.19,1,2.07-.57.52-1.36.7-1.9,1.24-.25.24-.18.8-.2,1.1H62c-.4.2-1.12.15-1.41.43.2.39,1,.32,1.31.34v.1H62c0-.2.08-.17.27-.17v.1c.08,0,.62-.32.67-.47h-.07c.05-.09.08,0,.17-.1v.1c.11,0,.18,0,.23-.1h-.1c0-.07.75-.1.4-.33.1-.19.22,0,.34,0s.43-.31.53-.4a3.21,3.21,0,0,0,1.34-2.54h-.07l0,.1h-.1c0-.1,0-.05.07-.13l-.1,0c.06-.12,0-.06.23-.06v-.27h-.1v-.1a.28.28,0,0,0-.17,0v-.13c.2,0,.12,0,.27,0a4.8,4.8,0,0,0,0-.5c-.09,0-.07.1-.17.1v-.2l.1,0c0-.53-.89-1.81-1.51-1.81,0,.13,0,0,0,.24h-.27c0-.18.07,0,.07-.34,1.21-.15,2,1.08,2.1,2.11.68,0,.59,2.2.4,2.57a4.71,4.71,0,0,1-1,1.14c-.22.22-.3.73-.6,1s-1,.28-1,.67c0,.89,1.38,1.74.9,2.71l-.27,0c0-.24,0-.53-.23-.66l0-.07h-.06l0-.07c-.1-.1-.1-.2-.24-.27l0-.06c-.09-.09,0-.05-.14-.1l0-.07c-.88-.87-.62,1.5-1.47,1.74a7,7,0,0,1-2,.13c-.5,0-.27.37-1.41.34a.33.33,0,0,1-.13,0c-.63-.21-.86-.89-1.41-1.17.1-.19-.23-.23-.36-.26-.23.46-1.11,1.93-1.47,2s-.67-.11-.57-.4c-.15-.07-.12-.37-.14-.5a20,20,0,0,0-.6,2.54l0-.13a.25.25,0,0,0-.23.13h.16c0,.13,0,.18,0,.3h-.16l0-.1a.5.5,0,0,0-.2.37.89.89,0,0,1,0-.7H54c0-.38-.29-2.12.3-2.24-.23-.46,0-.74.13-1.3h-.23v-.07l-.13,0v-.07l-.34-.13c-.08.66,0,1.07-.5,1.57-.17.17-.8.23-.8,0h-.07c0-.17-.22-.25-.33-.37,0-.09,0-.13,0-.23h-.1c0-.13,0-.08-.06-.17l.06,0c0-.19-.2-.3-.2-.5-.83-.05-1,.7-1.9.7,0-.15.1-.1.1-.23.23,0,.22-.27.43-.27,0-.34.5-.53.5-.87a3.53,3.53,0,0,0-.46,0c-.12,0-.76,1.89-1.14,1.07-.27-.58.52-1.69.4-1.94.23-.22-.07-.9.2-1l0-.1a4.55,4.55,0,0,0,.4-.77l.07,0v-.07h-.07c.29-.58.4-.48.3-1.13,0-.12,0-.1.07-.17l0-.07.1,0a1.69,1.69,0,0,1,.57-.8v.06c.18,0,.32.19.5.24v.13h.07a3.52,3.52,0,0,0,.27.74c.08-.09.05,0,.1-.14v.1c.16,0,.09,0,.2,0l0,.1h.07c0,.2-.18.36-.37.17-.12.12-.11.63-.13.8s0,0,.13,0v.07h.07c0,.16,0,.11-.07.17h.07l0,.06-.13-.06c-.24.7,0,1.21.67,1.3.16-.33,1.18-.67.2-.83a13.81,13.81,0,0,1,.07-1.71h-.07c.57-.29-.52-1.44-.8-1.54,0-.08,0,0,0-.13-.17.06-.3-.11-.47-.17,0-.21.3-.26.2-.57-1.67,0-1-.35-1-1.33l0,.1h.1c0-.17,0-.5.26-.5l-.1,0c.15-.15.33-.44.51-.53v.2h.1l0-.17h-.1a6,6,0,0,0,1-1.33c0-.1-.63-.92-.71-1.07l-.06,0c0-.17-.19-.79,0-.9l0-.07a.35.35,0,0,0,.16-.2l.1,0,0-.1h-.1c.18-.18,0-.19.06-.46a3.54,3.54,0,0,1,1-1.11c0,.09,0,.07.1.07s0,.13.1.23l.1-.06a2.07,2.07,0,0,0,1.44,1.33,2.62,2.62,0,0,1-.3,1h.06v.13a7,7,0,0,0-1.1,2.57h-.13c0,.16,0,.12-.1.17l0,.07c-.13.08-.1,0-.1.16.23,0,.14,0,.27,0-.27.13-.26.05-.34.36h.07c.09.26.27.12.27.44l.1,0v.07c-.16,0-.12,0-.17.07a5.94,5.94,0,0,0,.67.33v.07h.2l0,.06c.22,0,.46.31.66.2v.1c.31,0,.64.61.64.84-.16,0-.67.23-.67.4-.32,0-1.06.64-1,1l.07,0c0,.08,0,.06.1.06v.1c-.11,0-.17,0-.17-.1h-.1l0,.14c.12.06,0,0,.24.06v.17h-.13c0-.12,0-.07,0-.17s-.07,0-.07.14a.48.48,0,0,1-.26,0c-.25,1,1.32.95,1.67,1.64l.07,0c-.06.2.07.22.13.4.11,0,0,0,.2,0,0,.19,0,.11,0,.23h-.06l.06.07.07-.07c.1.2,0,.13.37.13a.59.59,0,0,0,0-.3l.14,0c0,.18.22.2.37.2-.16-.08-.11-.17,0-.27l0,.1h.07v.07h.13v.07a.47.47,0,0,1,.23,0c-.06.12-.13.09-.13.23C57.39,49.35,57.32,49.48,57.32,49Z"/><path class="fb7c9496-d092-40ec-9dff-1c9997455e2f" d="M14.28,17c.22.22.42.61.7.71l-.1.06c.09.17.61,1,.74,1,0,.48.54,1.2.66,1.7a10.36,10.36,0,0,1,.07,2.88h.1v.06c-.27,0-.82,1-.87,1.27l0-.1,0,.14,0-.1c-1.86,2-2.69,3.16-2,6.25a15,15,0,0,0,.73,2.24c.07.17.4.21.4.36a.68.68,0,0,1-.2-.06c-.12.35.32.58.4.83l-.06,0c-.06.16.12.67.3.67,0,.89.81,2,1.07,2.74h-.07a.72.72,0,0,0,.07.43l0-.1H16c0-.87-1.34-3.08-1.77-3.94-.12-.24-.34-1-.47-1,0-.36-.42-.7-.33-1.07-.21-.1-.21-.5-.3-.7l.13,0v.06l.07,0c-.1-.19,0-.18-.27-.23a1.2,1.2,0,0,0-.1-.37l.13,0-.13,0c.05-.1.37-.23,0-.23a3,3,0,0,1,0-.67h-.07v-.23l.27,0a.42.42,0,0,1,0-.33.51.51,0,0,1-.27,0c0-.31.07-.15.07-.36h-.07c0-.16,0-.16.17-.2l-.14,0c0-.3-.06-.68.27-.73,0-.13-.32-.34,0-.34L13,27.28c.17-.27.34-1.34.77-1.34,0-.09,0-.05,0-.13.23,0,.14-.07.27,0,0-.15,0-.09-.1-.2.28-.28.72-1.1,1.1-.91,0-.12,0-.08-.06-.13.11-.14.24-.26.33-.4l.07.17,0-.07c.1.05,0,0,.17,0s.08-.94.4-.94c0-.2-.06-.25.2-.3,0-.1,0-.16-.1-.16a1.6,1.6,0,0,1,.23-.81h-.16c0-1.11-1-4.33-2.17-4.74v-.07h-.07c0-.34-.4-.24-.47-.63h-.07a.32.32,0,0,1,.24-.14v-.1h-.24c-.18-.55-1.77-.55-1.77,0l0-.16c-1.06,0-1.76.84-2.47,1.5l.06.07a.7.7,0,0,1-.26.1c.09-.19.21-.36.3-.54l-.07,0c-.65.65-1.37,1.17-2,1.84-1.9,1.9-1.78,4-2.27,6.51a2.64,2.64,0,0,1-.07-1.3H4.65a9,9,0,0,1,.17-2.21c.06.12,0,.07.2.1V22.2H5c0-.62,1.16-3.61,2-3.44,0-.1,0-.06-.07-.11a5.81,5.81,0,0,1,3.74-2.43v-.1h-.1A.74.74,0,0,1,11,16V16c.32-.11.87-.32,1.17-.17.13-.26.74-.16.94,0,0-.93-1.53-1.36-1.77-2.1h-.07c0-.11-.22-.26-.34-.3s-.43-.38-.5-.57c.15-.08.23,0,.34-.13A17.07,17.07,0,0,0,13,15c.22.22.37.84.63,1a.72.72,0,0,0,.5,0v-.1a1.15,1.15,0,0,1,.37,0c.19-.56,3-1.66,3.61-1.7.27,0,.9-.17,1,.23h.16c0,.22-.32,1.13-.16,1.21a8.63,8.63,0,0,1-2.91,1.07C15.5,16.7,14.8,16.46,14.28,17Z"/><path class="fb7c9496-d092-40ec-9dff-1c9997455e2f" d="M49.87,43.15l0,.1a.37.37,0,0,1,.24,0v.13c.17,0,.2-.12.13-.27l-.13.07v-.07a.28.28,0,0,0-.17,0c.05-.09.11-.08.17-.2H50c.09-.25.47-.49.6-.76v.16c0-.13.27-.21.27-.33-.09,0,0,0-.13,0,.29-.39.94-.88.83-1.44l.2,0v-.07c-.27,0-.19,0-.3-.13.09,0,.07,0,.07-.1-1.1,0-1-1.41-.57-2.07,0,.1,0,.17.1.17,0-.32.11-.32.24-.57a.12.12,0,0,0,.23,0c-.17,0-.09,0-.23,0,.13-.13.87-1.11,1-.93a.54.54,0,0,0,.07-.17h-.1l0-.1c.06.11,0,.07.17.07a.43.43,0,0,1,.13-.34l.07.07,0-.07c.13.05.06.05.2,0-.11,0,0-.16-.17-.16.13-.07,0-.2.23-.14l0-.16h-.07l.1,0c0-.19,0-.1.13-.23.06.11.12.1.24.07s0-.08.1-.17c-.14,0-.07,0-.2,0,0-.14,0-.4.2-.4,0-.11.1-.4.23-.4,0-.27.11-.5.37-.54,0-.1-.06-.17.07-.17,0-.3,0-.18.06-.36-.42.21-.56-.23-.43-.6h-.1V33l-.24,0,.07-.14c-.24,0-.56-.47-.37-.67a6.54,6.54,0,0,1-.3-.77l.1,0v-.07h-.1a5,5,0,0,0,.07-1.4,4.15,4.15,0,0,0,1.24-2.31h-.07c0-.31.07-.15.07-.33h-.07c0-.32.42-.49.7-.43l0-.1h-.16a3.42,3.42,0,0,1,0-.71c-.11,0,0,0-.2,0,.08-.15-.49-.5-.63-.63s-.33-.93-.5-1.27l.16,0c0,.45.74.56.81,1h.2c0,.1.23.23.3.34-.17,0-.1,0-.2.06.1.06,0,.08.13.14.1-.1,0-.07.2-.07v.1c.14.05.17.13.1.27.17,0,.23.14.3.3-.11,0-.15,0-.2.1.5,0,.76-.66,1.2-.57l0-.1h-.07c0-.13.35-.47.47-.47,0-.3.3-.47.5-.6l0-.1h-.07c.11-.22.27-.26.37-.47-.09.05,0,0-.14,0a9.49,9.49,0,0,0,0-1.41c.13-.07.06,0,.06-.27-.22,0-.25-.23-.33-.4.08-.08.07,0,.07-.13H57c0-.51-.67-.83-.67-1.37h-.13v-.07l-.14.07,0-.07-.13.07c0-.11,0,0,0-.2-.09,0-.07,0-.07.1-.48-.24-.7-1-1.17-1.2,0-.09,0,0,0-.14-.12.08-.1,0-.1.14h-.1c0-.09,0,0,0-.14-.12.08-.1,0-.1.14a3,3,0,0,0-.67,0V19c-.23.24-.44,0-.37.5-.09-.09,0-.07-.16,0a.55.55,0,0,1-.2.37,12.27,12.27,0,0,1-.2,1.6c.17.06.08.18.26.27,0-.13,0-.09.07-.13,0,.13,0,.08.13.13v.07h.24c0,.09,0,0,0,.13a.91.91,0,0,0-.33,0v-.1l-.1,0a.36.36,0,0,0,0,.2h.17v.1c-.09,0-.06,0-.1-.07-.08.15-.23.12-.37.17v-.1c-.13.13-.07,0-.07.33l0-.67-.07.07-.1-.07c-.11.11-.14,0-.23.17-.07-.21-.24-.55,0-.67v.1h.1v-.23h-.14a5.28,5.28,0,0,1,.31-1.44,4.15,4.15,0,0,0-.47.47h.06c0,.15-.16.21-.16.33,0-.73-.09-1.12.67-1.5.15-.08.36-.19.43,0,.26-.52,1.79-2.49,2.71-2l0-.06c.11,0,.06,0,.13.16a6.69,6.69,0,0,0-.76.3v-.13c-.29.15-.71.8-1.07.8-.07.26-.44.38-.44.64.48,0,1.89-.21,2,.4-.14.07-.29-.05-.37.1l.17.07v.06c.22,0,.4.28.63,0a10.09,10.09,0,0,0,1.41.16v.07a3,3,0,0,1,.77.2.88.88,0,0,0,.06.27c-.11.05-.07.21-.13.33a4.4,4.4,0,0,0-2.14-.63c.34.11.64.33,1,.4v.13c.1,0,.05,0,.13-.06.29.58,1.24.27.77,1.2h.2v.07c-.42,0-.2.2-.3.5l-.06,0c0,.17-.09.31-.14.47h.1c0,.09,0,.06-.06.1l0-.07A6.58,6.58,0,0,0,57.72,24l.17,0v.06c-.35,0,.08.85.24,1-.05.09-.08.11,0,.21-.12,0-.08,0-.13.06H58c0,.38-1.29,1.24-1.14,1.54-.14,0-.09,0-.2-.1,0,.09,0,.07-.1.07l0,.1c.09,0,0,0,.1-.07v.2h.06c-.1.16-.23.43.07.43,0,.11,0,.05,0,.17.29,0,.39.31.7.37V28h-.17a4,4,0,0,1,1-1.94c-.08-.14.1-.3.2-.4.33.67-.45,1-.64,1.61H58c0,.37-.52.69-.44,1.1,0,.17,1.51,2.24.57,2.24l0,.1h.07c0,.33-.33.59-.47.87a17,17,0,0,0,2.27.9v.13c.44.08.66.72.74.61,0,.16.14.3.1.46h.06a15.71,15.71,0,0,1,0,1.94c-.19,1.36-.78,2.71-.87,4,0,.28-.43,1.65-.27,1.73-.16.08-.2.67-.2.84,0-.17,0-.12-.13-.17l0,.1a.35.35,0,0,1-.26-.1,13.72,13.72,0,0,0,.36-1.47H59.4c0-1.62.73-3.44,1-4.94a9.5,9.5,0,0,0-.13-2.11h-.07c0-.1-.07-.18-.1-.3A.34.34,0,0,0,60.3,33a.25.25,0,0,1-.24.1V33c-.09,0-.06,0-.06.13-.24-.12-.13-.23-.34-.34l-.06.11c-.69-.35-2-1.31-2.54-.64-.09.12.24.81.26,1h.07a10.25,10.25,0,0,0,.23,1c-.09,0,0,0-.13.1h.2c.15.45.6,2.67.34,2.8.24.12,0,1,0,1.31H58a5,5,0,0,0,0,.93c.14,0,.13,0,.13.17.28,0,.51.64.6.83-.14,0-.26,0-.26.14h.33l0,.1c-.12,0-.08,0-.13.1.26,0,.18.08.23.3-.14.07-.11.18,0,.23a4.07,4.07,0,0,0,0,.47h-.13a.6.6,0,0,0,0,.24h.07c0,.21-.14.36-.14.5s-.14.09-.1.23h-.1c0,.12-.05.07,0,.17-.21.21-.28.37-.56.37l.06.06c-.11.06,0,0-.23,0-.09.42-.84.6-1.14.9a.92.92,0,0,1,.37.47c-.15.07-.17.08-.17.26H57c0,.09,0,.06-.07.1H57c-.07.2.14.33,0,.54.1.1.5.24.5.37.91,0,1.09,1.35,1.27,1.9a1.43,1.43,0,0,0,.3,0V48H59c0,.16.07.14.07.3a.48.48,0,0,1-.2-.2l0,.17c-.1,0,0,0-.17,0a1.87,1.87,0,0,1-.87,1.3c.05.14.05.07,0,.2-.42-.28-.28-1.6.37-1.6v.06h.06c0-.07-.06-.15-.1-.23l-.1.07c-.1-.21.12-.39,0-.57.15-.16,0-.1.33-.1,0-.19.07-.1.07-.27-.16,0-.25.17-.44.17,0-.2,0-.12,0-.27-.31-.15-.45-.66-.87-.8v-.07a3.55,3.55,0,0,1-.54-.3l.1,0a.4.4,0,0,0,0-.2c-.09,0-.07,0-.07.1h-.16c-.06.2-.09.12-.24.2v-.14c-.15.12-.13,0-.13.17-.23,0-.48.21-.7.14-.11.3-.71.29-.64.76s.67.47.74.94l.13,0c.18.27,1.82.74,1.6,1.17h.1c0,.5.08.38-.43.46,0-.12,0-.14.13-.2l-.23-.06V49.1h-.13V49h-.07v-.1l-.13.1a.56.56,0,0,0,.06.17c-.2,0-.1-.07-.3-.07,0-.12,0-.13-.13-.13-.05.22-.05.11,0,.33h-.3c0-.09,0,0,0-.13-.1.1,0,.07-.2,0l.1,0a.56.56,0,0,0,0-.23c-.16,0-.09,0-.2,0a.73.73,0,0,1-.13-.4c-.26,0-2.72-1.88-1.48-1.57,0-.13,0-.09.07-.14,0,.11,0,0,0,.17h.13v-.17a1.4,1.4,0,0,1-.24-.06v-.1l.14,0v.07c.1,0,0,0,.17,0v-.1h-.07v-.06l-.07,0c0-.22,0-.14-.06-.27.35-.17.64-.7,1-.7,0-.23.49-.34.67-.4,0-.36-.64-.7-.64-.94-.19.1-.46-.13-.66-.2l0-.06h-.2V44c-.25,0-.44-.26-.67-.33.05-.11,0-.07.17-.07v-.07c-.19-.06-.18-.47-.44-.47,0-.3.08-.24.34-.33-.13-.06,0,0-.27-.07,0-.14,0-.08.1-.16l0-.07c.09-.05.06,0,.06-.13l.17,0a6.72,6.72,0,0,1,1.1-2.57v-.13h-.06a4.36,4.36,0,0,0,.3-1c-.61,0-1.19-.8-1.44-1.3l-.07.07c0-.1-.1-.17-.13-.27s-.06,0-.1-.07c-.12.08-.06.07-.17.07-.1.41-.75.62-.87,1s.11.21-.06.46h.1v.07c-.46,0-.39.9-.3,1.17l.06,0c.2.39.52.69.71,1.07-.41.4-.62.85-1,1.3l.1,0v.14l-.13,0v-.2a2.15,2.15,0,0,0-.51.53h.1a.42.42,0,0,0-.26.54h-.1v-.14c-.35,1-.26,1.26.93,1.37,0,.25-.2.4-.2.57.16,0,.29.24.44.17,0,.09,0,0,0,.13.12,0,.14.06.26.1s.13.15.17.27h.1c0,.1.07.14.1.24h.07c0,.24.42.77.1.93h.07c0,.57-.05,1.14-.07,1.71,1.09,0-.67,1.62-.87.3-.1-.64-.11-.44,0-.77l.17.06c0-.14,0-.06,0-.23H52v-.07c-.29,0-.1-.72,0-.87.18.27.32.1.37-.13h-.07v-.13c-.12.06,0,0-.23.06v-.1c0,.1,0,.05-.1.14-.07-.28-.21-.51-.27-.74h-.07V46c-.19-.05-.31-.17-.5-.24v-.06c-.18,0-.25-.19-.4-.27C49.76,44.83,49.27,44.35,49.87,43.15Z"/><path class="fb7c9496-d092-40ec-9dff-1c9997455e2f" d="M20,17.62l0-.1a13.41,13.41,0,0,0-2.07.37A4.35,4.35,0,0,0,17,18a2.55,2.55,0,0,0,0,.87c0,.38-.08.25.07.4-.1.1-.07,0-.07.2h.13c-.17.06-.09,0-.13.27l0-.14h-.07c0-.37-.46-.58-.53-.9a5.09,5.09,0,0,0-.34-1.17l0,.1c-.15-.29-.24-.64-.4-1,.59,0,.79.18,1.33.2,2.87.13,7-2.2,9.39-3.64.65-.39,3.05-1.77,3.05-2.37h-.07a.42.42,0,0,0-.07-.27c.1,0,.07,0,.07-.13.17-.06.16-.09.2-.27a13.72,13.72,0,0,1-4.41,3c.08.09,0,.06.13.1a16.61,16.61,0,0,0-3.61,1.64l0,.07a5.44,5.44,0,0,0-1.78.57l0,.1c-.5,0-1,.23-1.47.23A34.05,34.05,0,0,1,22.53,14v-.2l.1,0v.13c.47,0,1.29-.68,1.68-.93,1.75-1.17,3.63-2.3,5.38-3.55.4-.28,1.4-1.33,1.83-1.33l0-.2c-1.15-.13-2.21,1.8-3.11,1.8V9.67c-1.93,1-3.62,2.23-5.54,3a10.19,10.19,0,0,1-1.51.7c-.79.16-1.63,1.15-2.44.74a14.89,14.89,0,0,1,3-1.7c1.94-1,3.77-2.31,5.71-3.28,1-.51,2.17-.82,3.21-1.34l0-.2a4.78,4.78,0,0,0,.56-.06v-.1c-.33,0-2.3,0-2.47.53a.78.78,0,0,0-.57.17l0,.06c-.1.1-3.25,1-3.25,1.44-.34,0-2.06.91-2,1.27h-.2v-.1c-.94,0-3.4,2.3-4.28,2.74.1.05.12,0,.2,0a2.25,2.25,0,0,1-.6.5h.44l-.74,0c.38-.38,3.34-3.22,4-2.9A24.27,24.27,0,0,1,24,9.8c2.37-1.43,4.79-3.33,7.68-3v-.1c.26,0,.43.14.71.17,0-.13-.16-.47-.3-.47,0-.4-.64-.74-.87-.9l0-.1h-.07v-.1a.46.46,0,0,1-.26,0V5.19a3.06,3.06,0,0,1-.51-.1V5c-.58,0-1.14-.17-1.73-.2a13.18,13.18,0,0,0-4.28.2c-.43.14-1.81.17-1.81.8h-.06V5.65c-.31,0-.12.18-.2.34h.06l-.1,0c0-.35-.43-.14-.43.14-.51,0-.85.43-1.3.43l.06-.13-.06-.07c0-.09,0-.06.1-.1l-.07-.13c-.09,0-.06,0-.1.1-.17-.11-.06-.08-.34,0V6.16h-.13c0-.14,0-.07,0-.2-.19-.1-.59.31-.76.4,0-.1,0-.07-.14-.07v-.1h-.13c.05-.1,0-.13,0-.23H19a.37.37,0,0,0,0-.24c-.22,0-.83.75-1,.9h.1v.14c-.18,0-1.14.75-1.14,1.07-.2,0-.66.61-.6.8-.47,0-1.25,1.95-1.54,1.8-.07.36-1,2.29-1.27,2.14a5.93,5.93,0,0,1,1-1.87v.07h.07a1,1,0,0,1,.33-.74l.07,0V10h-.07c.22-.45,1.77-2.36,1.77-2.64l.1,0,0-.06a2,2,0,0,1,.33-.37v.06h.07c-.1-.38,1.38-1.83,1.67-1.83,0-1,3.35-1.82,4.05-2.08a16.53,16.53,0,0,1,5-.46c2.15,0,3.2,1.36,4.48,2.64a6.24,6.24,0,0,1,1.47,2c-.41.27-.71,1.26-.94,1.71.17.08.12,0,.17.16-.2,0-.23-.06-.33.14h.06v.06c-.09,0,0,0-.13.07l.13,0c-.3.07-.53.53-.66.81h.1v.06c-.36,0-1.45,1.75-1.94,2.08h.06v.06c-.26,0-.68.52-.93.7.2.08.15,0,.2.17a1.12,1.12,0,0,0-.27,0v-.06a8.24,8.24,0,0,0-1.84,1.27,4.63,4.63,0,0,0-1.6.7h.3c-.65.05-1.06.5-1.67.7l.07.07-.14,0v-.07a19.67,19.67,0,0,1-4.07,1.44l.16,0v.11C20.32,17.45,20,17.32,20,17.62Z"/><path class="fb7c9496-d092-40ec-9dff-1c9997455e2f" d="M43.45,16.08V16c-.26,0-1.83-.69-1.83-.93-.11,0-.34-.07-.34-.2-.91,0-3.33-1.9-4-2.54-.17-.17-.84-.64-.84-.87H36.4a4.71,4.71,0,0,0-1-1.34c-.62-.61-.73-1.69-1.34-2.3.08-.17-.15-.58-.23-.74.38-.38,2.05-2.49,2.5-2.34a.28.28,0,0,1,0,.17h.07V5A1.3,1.3,0,0,0,36.67,5c0,.12,0,0,0,.2-.18.12-.36.2-.56.34.32,0,.56-.21.9-.27v.07h.07c-.33.08-.33.14-.51.4,0-.16-.05-.09,0-.2a2.24,2.24,0,0,0-1.43,1.4c.28,0,.43-.21.67-.17v.1c.8,0,1.6-.11,2.4,0-.15,0-.09,0-.13.2H38a10.86,10.86,0,0,0,1.3.5v.07a1.2,1.2,0,0,1,.37.1v.07a1.07,1.07,0,0,1,.4.1v.06c.22,0,.46.2.67.27v.07c.11,0,.24,0,.24.13.27,0,.52.3.8.37V8.8c.1,0,.16,0,.16.1l.31.1v.06c.13,0,.2.1.33.14v.06c.24,0,.46.31.7.37V9.7c.19.06,1.3.59,1.3.77a3.52,3.52,0,0,1,1.17.63c.75.5,1.89.73,2.44,1.47A6.64,6.64,0,0,0,50,14.31l0,.07c-.79-.2-1.33-1.06-2.11-1.37-.08,0-.13,0-.13-.14a7.59,7.59,0,0,1-2.71-1.43l.07,0-.14,0v-.1l0,.1a.73.73,0,0,1-.7-.64c-.25.25-2.14-.7-2.14-1-.21.1-.29,0-.5-.1V9.53c-.72-.24-1.39-.66-2.11-.9V8.56a4.88,4.88,0,0,1-.87-.23l0,.1h.1c.06.23.16.2.37.27v.06c.8,0,3,1.62,3.77,2,.19.09,1.17.52,1.17.7a1.69,1.69,0,0,1,.6.27c-.08,0,0,0-.1.1a19.62,19.62,0,0,1,3.28,1.74l.23.06v.07c.59.19,1.5.67,1.64,1.24l-.07,0a1.28,1.28,0,0,0,.14.74c-.65,0-1.28-.51-1.91-.67v-.07a5.71,5.71,0,0,1-1.33-.47c0-.08,0-.06.1-.06v-.07a7.41,7.41,0,0,1-1.51-.77l0-.07c-1.2,0-2.47-1.64-3.55-2V11.4c-1-.32-1.77-1.59-2.8-1.73.19-.39-1.51-.95-1.51-1.27l-.16,0,.06,0c-.1-.1,0-.06-.2-.1V8.16c-.16,0-.95-.43-1-.17,0,.11.77.56.9.64.85.51,1.64,1.59,2.57,1.9v.07c.32,0,.77.48,1,.64a23.36,23.36,0,0,0,3.45,2.1c0-.1,0-.07.13-.07v.2c.14,0,.26.13.4.17v.07c.66,0,1.32.8,2,.87.07.28.81.51,1.1.57v.06c.38,0,.77.3,1.14.37v.07c1.18,0,2.41.59,3.64.63,0,.11,0,.3.17.3.06.19.19.24.3.4a3.29,3.29,0,0,0-.57.81h.07v.1h.06l0,.06-.1,0v-.07c-.28.19-.37.69-.47,1-.48,0-.1-1.25,0-1.54a13.42,13.42,0,0,0-.47,1.44c-.11.32-.57.6-.57.94l0-.9.1,0v-.07h-.1a5.11,5.11,0,0,1,.07-.66c-.51,0-1.85-.48-2.28-.27v-.07h-.16v-.06a5.76,5.76,0,0,1-1-.17v-.07c-.39-.06-.75-.19-1.13-.27V17A9.63,9.63,0,0,1,43.45,16.08Z"/><path class="fb7c9496-d092-40ec-9dff-1c9997455e2f" d="M13.81,50.8l.3,0,0,.07h.17a5.42,5.42,0,0,1,.16-.64h-.1c.1-.18.22,0,.34,0v-.07h-.07c-.05-.14-.19-.22-.1-.4a.4.4,0,0,0-.43.27c0-.1,0-.17-.14-.17v-.13c-.17.08-.19.17-.4.13,0-.21-.18-.82.17-.94,0-.09,0,0,0-.13.12-.12.43-.6.61-.6v-.1c-.27,0-.16,0-.34,0,0-.48,0-.6.37-.8v.1c.13,0,.47,0,.47-.1a4.29,4.29,0,0,1-.5-.07,1.43,1.43,0,0,1,.63-.73v.06c.13,0,.09,0,.13-.06h-.1a2,2,0,0,0,.47-.57l.3.07c0-.11,0-.07-.16-.1,0-.37-.14-.68-.14-1-.47,0-1.34-.9-1.7-.54l0,.07c-.17.17-.47.4-.47.67-.11,0-.05.07-.16.07v-.07c-.41,0,.12.61.16.84h-.1l.14,0a.49.49,0,0,0,0,.23l-.07,0h.1c0,.35.27.71.34,1.07.19,0,.17.75,0,.83.1.2-.12.61-.3.7l0-.06c-.29,0-.19-.08-.33,0a1.3,1.3,0,0,1,.2-.61c-.09.05,0,0-.14,0a6.46,6.46,0,0,0-.4-1.44c-.12.12-.18.16-.3.3-.2-.1.14-.34.14-.5-.35-.12-1.05-.38-1-.77a2.19,2.19,0,0,1-1.71-2c0-.25-.22-1,.07-1.13a4.23,4.23,0,0,1,.5-1.81v-.06h-.13c0-.46-.13-.37.06-.47a5.06,5.06,0,0,1-.4-2H9.9a1.78,1.78,0,0,0-.3-.87l.17,0-.2,0c0-.1,0,0-.07-.13s0-.07.1-.07V37.1H9.53l0-.06c-.11-.06-.07,0-.07-.17H9.43c.24-.48,1.41,2.81,1.07,3l.1,0c0,.66,0,1.36,0,2,0,.26-.29.51-.34.77s.08.75,0,1h.07a2.6,2.6,0,0,0,.53,1.27c-.09,0-.06,0-.1.07a.72.72,0,0,1,.6.53h.07v.07c.09,0,.05,0,.13,0l0,.1.06-.06a3.56,3.56,0,0,0,1,.83c0-.37.06-.87.06-1.13h-.1a1.53,1.53,0,0,1,.67-1.14c0,.09,0,.07.1.07l0-.1h-.06c.07-.08.15-.08.2-.17l.06,0v-.1l-.23,0a.39.39,0,0,0,.07-.23h-.17v-.07c-.46,0-.21-.68-.27-.77s-.53-.3-.7-.47c-1-1-1.83-1.7-1.4-3.41a1.59,1.59,0,0,1,.06.3c.07-.13.14,0,.27,0,0-.19.1-.13.2,0l.1-.07c0,.3-.16.28-.16.54h.1c0,.12,0,.13-.14.13v-.13a2.72,2.72,0,0,0,0,.9c.08.36,1.61,2.14,2,2,.6-.23-.22-1.34-.4-1.61.09-.06.17-.06.17-.16.17,0,.09,0,.23,0,.23.68,1.19,1.48.3,2.07.26.25,1.49.36,1.37-.2s-.55-.74-.66-1.17.29-.31.23-.14c.1,0,.14.07.23.1a1.56,1.56,0,0,1-.13.44h.13a.28.28,0,0,0,0-.17.57.57,0,0,1,.2-.07c0,.09,0,.06.1.1a3.88,3.88,0,0,0-.63-1.47c0,.09-.07.1-.17.1s.05-.13.17-.13v-.07h-.1V40h-.1c.32-.16-.68-1.6.66-1.6v-.07c.12,0,.24-.06.24-.2l.1,0a7,7,0,0,1,.3-1h.07c.05.23.23.83.46.83v.1l.07-.07,0,.11h.14v.23h.2v.1h.07c0,.64.47,1.28.36,1.94,0,.11-.2.15-.2.26h.1c-.14,0-.15.17-.26.17v-.06c-.27.26-.55.71-.1.93.08-.13,0-.1.16-.1a.4.4,0,0,1,0,.2h.07c0-.09,0-.06.06-.1v.2l-.16,0c.41.21.63.78,1.1.87v-.06c.13,0,.21.09.33.13V43l-.13,0c0-.16,0-.12-.1-.17a2.62,2.62,0,0,0,.37.87c-.33.32-.74.46-1.07.8l0,.07c-.36,0-.31.65-.23.87H17c0,.12,0,.08.1.13l0,.1-.1-.07c-.23.46.64.45.13.71,0,.11.1.15.13.26-.15.08,0,.33,0,.47a.59.59,0,0,0,.24-.2l0,.07c-.16.08-.1.25-.07.4h.1c0-.22,0-.27.17-.27v.17h.1V47c0,.34.07.6-.23.8.66.23.76,0,1.13-.36.65,1-1.5.51-1.5,1.1.49,0,1.07.2,1.54,0,.13.25.76.51.8.73s-1.23-.16-1.37-.07c-.61.41,0,1.48-1.14,1.64V50.7c-.49,0-.41-1-.36-1.27-.13.25-.41.37-.54.61s.16.86.17,1.07c0,.46,0,.93,0,1.4s-.56,3.64-1.07,3.64c0-.48.33-1,.37-1.44,0-.31-.17-.83.13-.93,0-.17,0-.09,0-.24h-.07a15.08,15.08,0,0,1-.13-2.1l-.07,0c-.16,1.26-.81,1.94-1.3.46h-.07C14.11,51.54,13.81,51.2,13.81,50.8Z"/><path class="fb7c9496-d092-40ec-9dff-1c9997455e2f" d="M45.76,6.06c.05.15,0,.09.2.13v.07c.41.13.71.33,1.07.13.13-.07,0-.3.2-.3l0-.1c.55.55,1.49,1,1.74,1.7h.07c0,.91,2.4,2.13,2.67,2.94h.07a.41.41,0,0,0,.27.27V11h.06c-.28-.58-.9-1.07-1.1-1.67-.14,0-.45-.56-.5-.7l.1,0v.07h.07v-.7c.35,0,.71,1,1,.87,0,.09,0,0-.07.13a24.66,24.66,0,0,1,1.74,2.61c.09.11.34.83.5.77s-.49-1.3-.6-1.44c-1-1.33-1.78-2.88-2.84-4.21-2.38-3-7.75-4.77-11.46-3.95a6.65,6.65,0,0,0-2.91,2,1.09,1.09,0,0,1,.23.06.28.28,0,0,1,0,.17h.07V5A1.3,1.3,0,0,0,36.67,5c0,.12,0,0,0,.2-.18.12-.36.2-.56.34.32,0,.56-.21.9-.27v.07a1.08,1.08,0,0,0,.47-.07c.05.24.23.17.43.13,0-.4,1.05-.51,1.34-.36V4.92a12.31,12.31,0,0,1,3.27.1v.07a7.15,7.15,0,0,1,2,.56l-.13.11c.14,0,.2-.08.33,0v.14C45,5.86,45.46,6.21,45.76,6.06Z"/><path class="fb7c9496-d092-40ec-9dff-1c9997455e2f" d="M38.48,5.52V5.39c-.45,0-1.39.78-2,.47l0,.06h.1a.28.28,0,0,1-.3.27,1.46,1.46,0,0,1-1.07.7c0-.39.95-1.4,1.43-1.4-.05.11,0,0,0,.2.06-.46.52-.3.87-.47.05.24.23.17.43.13,0-.4,1.05-.51,1.34-.36V4.92a12.31,12.31,0,0,1,3.27.1v.07a7.15,7.15,0,0,1,2,.56l-.13.11c.14,0,.2-.08.33,0v.14c.44,0,1.25.35,1.38.8.27,0,.68,0,.8.36.16,0,.09,0,.2,0a.54.54,0,0,0-.07.17.6.6,0,0,0,.2.06c0-.09,0,0,.07-.1a59.57,59.57,0,0,1,4.58,4.68,6.36,6.36,0,0,1,1.1,1.5c-.56-.27-.93-1-1.47-1.33,0-.09,0,0,0-.14-.27-.05-.36-.36-.57-.36v-.07c-.3,0-1.72-1.93-2.13-2.14l0-.13-.07.06c-.24-.24-.9-.62-.9-1A24.61,24.61,0,0,1,45,6.16c-.45.22-.85-.19-1.34-.27a.15.15,0,0,0,0-.2l0,.1h-.14v-.1h-.06V5.62c-.16,0-.26.07-.47,0v-.1c-.44.22-2.55-.15-3.11-.13,0-.09,0,0,0-.14s-.05,0-.13.14l.13,0C39.35,5.45,38.91,5.52,38.48,5.52Z"/><path class="fb7c9496-d092-40ec-9dff-1c9997455e2f" d="M14.38,15.78l.07,0-.07,0c.08-.15,0-.3.07-.46.15-.34.93-.39.93-.77.29.85,1.43-.8,1.84-1-.09,0,0,0-.13,0v-.2H17v-.1l.2,0v.06c.22,0,.28-.29.47-.2,0-.36,2-1.61,2.43-1.9.05.1,0,.07.14.07V11h-.07c.17-.09.3-.17.2-.37l.17,0v.1c.17,0,.18-.21.3-.33v.13c.13,0,.16-.06.27-.13v.07h.1c0-.13,0-.07,0-.17.11,0,.51-.31.51-.1h.1v-.13H21.7a4.86,4.86,0,0,1,1.17-.84V9.3c.44,0,2.29-1.07,2.24-1.44h.06a1.46,1.46,0,0,0,.07.3l.3-.17-.06-.06c.8-.81,4.06-1.17,5.14-1.21-2,.15-3.49,1.37-5.25,2.24-.63.32-1.55,1.34-2.27,1.34-.12.37-1.2.46-1.2.84-.72-.36-3.47,2.62-4,2.87l.84,0a7.68,7.68,0,0,0-3.34,1.14c-.18.09-.91.41-.91.6Z"/><path class="fb7c9496-d092-40ec-9dff-1c9997455e2f" d="M16.72,11.27l0,.1h.06c-.18.22-.64.87-.9.73l0,.07h.06a2.72,2.72,0,0,1-1,.9,15.07,15.07,0,0,1,2.48-3c0-.69.92-1,1.4-1.51s1.88-2,2.34-2c0-.33.56-.38.77-.43,0-.29.32-.47.43-.14h.1l-.06,0c.08-.16-.11-.34.2-.34v.17h.06c0-.49,1.84-1,2.21-.83.42-.43,1.82-.1,2.11-.1a12.66,12.66,0,0,1,4,.46v.07c.42,0,1.17.5,1.17,1,.15,0,.26.33.3.47-.55-.07-.66-.42-1-.74a4.42,4.42,0,0,0-1.77-.5V5.55c-1.75,0-3.69-.59-5.38,0l.1,0v.17h-.07V5.59l0,.13a.57.57,0,0,0-.2-.07l0,.07c0-.09,0,0,0-.13-.12,0-.12.06-.23.06V5.52c-.09,0-.07,0-.07.1h-.06a2.31,2.31,0,0,1-1.37.6l0,.07h.07c0,.14-.32.37-.47.37V6.59c-.28.14-.58.8-1,.8V7.33c-.29.14-.44.9-1,.9-.11.33-.74,1-1.07,1A11.73,11.73,0,0,1,16.72,11.27Z"/><path class="fb7c9496-d092-40ec-9dff-1c9997455e2f" d="M53,14.34h-.07a4.92,4.92,0,0,0-1.77-2.1c0-.11-.32-.3-.43-.34v-.06c-.23,0-.35-.24-.67-.24l0-.1h.07c0-.09-.13-.09-.13-.2-.68,0-1.53-1.34-2.21-1.57,0-.22-1.27-1-1.5-1V8.63c-.21,0-.12,0-.27,0l.07-.13A3.93,3.93,0,0,0,45,8c0-.27-.6-.2-.6-.43a2.16,2.16,0,0,1-.67-.24V7.23h-.13V7.16c-.59,0-1.29-.52-1.88-.67l0-.2a.77.77,0,0,1,.36.07v-.1c.14,0,.21-.06.14-.2a5.54,5.54,0,0,1,1.13.3v.06c.69,0,1.33.68,2,.81v.06c.12,0,.53.18.53.3s.2,0,.2.14c.95,0,1.75,1.37,2.64,1.67,0,.16.38.28.5.3-.16-.16-.15-.26-.36-.37l0-.13-.07.06c-.24-.24-.9-.62-.9-1-.44,0-1.53-1.14-2.27-1.27V7c-.17,0-.26-.11-.44-.14V6.76H45V6.69a3.25,3.25,0,0,1-.73-.23c0-.12.05-.2,0-.3l.06-.07c-.24,0-.45-.16-.7-.2a.15.15,0,0,0,0-.2l0,.1h-.14v-.1h-.06V5.62c-.16,0-.26.07-.47,0v-.1c-.44.22-2.55-.15-3.11-.13,0-.09,0,0,0-.14s-.05,0-.13.14l.13,0-1.14.07.44,0a1.43,1.43,0,0,1-.6.1c.33,0,.15,0,.53.07v.07c-.37,0-.43.47-.37.76.4,0,.28.09.44-.06-.38-.19.66-.06.77,0s0,0,.06-.1.06,0,.1.17h.1v.07a2.83,2.83,0,0,1,.5.13v.07c.79,0,1.57.83,2.28,1.07-.16,0-.17,0-.17.2.13,0,.17,0,.17.13s.16-.14.26-.17c.43-.08,1,.67,1.27.67a.28.28,0,0,1,0,.17h.17c-.07-.21,1.79.86,2.14,1.07.77.46,3.86,2.3,4,3,.44,0,1.49,1.59,2.14,1.8,0-.14,0-.07.06-.2.1.05.05,0,.14.1l0-.1H53l0-.1H53Z"/><path class="fb7c9496-d092-40ec-9dff-1c9997455e2f" d="M19.33,10.94l0,.1c.07-.14,0-.07.27-.07-.05-.14,0-.09-.14-.14.16-.15.41-.37.64-.3.25-.5,1.62-1.41,2.1-1.17V9.3h-.06V9.23H22.1A8.72,8.72,0,0,1,24.57,8v-.1c.18-.06.35-.23.54-.23v.06c.21,0,.31-.24.6-.3V7.33a7.57,7.57,0,0,0,.87-.24l0,.07.1,0c.47-.94,4.41-.72,5.08-.5v.1c-.69,0-1.37-.07-2.07-.07a9.39,9.39,0,0,0-3,.71c-.26.08-.86.58-1.16.43,0,.09,0,.06.06.1a.46.46,0,0,1-.3.2.48.48,0,0,1-.07-.3c-.06.43-1.83,1.44-2.3,1.44V9.23c-.32.16-.75.59-1.17.8.11.06.07,0,.07.17h-.1c0-.19-.34.07-.47.07s-.05.06,0,.2h-.1V10.4a.32.32,0,0,1-.27.13V10.4c-.12.12-.13.33-.3.33v-.1H20.4c-.08.22,0,.28-.24.41h.07v.1h-.1v-.07a27.82,27.82,0,0,0-2.51,1.84l0,.06c-.19-.09-.25.2-.47.2v-.06H17l0,.13h.1l0,.2h.17c-.08.17-.57.41-.67.5l-.47.54c-1.06,1.21-.39-1.25.34-1v-.06h-.07a19.27,19.27,0,0,1,2.41-2.11c0,.09,0,.07.1.07C18.93,11.14,19.12,11,19.33,10.94Z"/><path class="fb7c9496-d092-40ec-9dff-1c9997455e2f" d="M51.21,14.14v-.06c-.14,0-.3-.33-.4-.44-.61-.6-1.4-1.09-2-1.7.18-.09.14,0,.14-.2h-.07v-.07l-.17.1,0,.07c-.19,0-.24-.1-.27-.27l-.14.07c-.09-.09,0-.06-.16-.1,0-.09,0,0,0-.14a4.33,4.33,0,0,1-1.8-1.07c.09-.1,0-.14,0-.26h-.07l0,.16c-.17-.05-.31-.07-.31-.26-.22.11-1.06-.43-1.13-.64-.17.09-.38-.15-.54-.2V9.06c-.31-.06-1.12-.32-1-.66a10.61,10.61,0,0,1-2.74-.94V7.39A6.32,6.32,0,0,1,39,7a8.23,8.23,0,0,0-3.2-.14v-.1c.37,0,.72-.18,1.1-.2l1.44,0c.37,0,3.64.86,3.64,1.1.16,0,.37,0,.37.17.16-.08.33,0,.5.07-.16,0-.17,0-.17.2.13,0,.17,0,.17.13s.16-.14.26-.17c.43-.08,1,.67,1.27.67a.28.28,0,0,1,0,.17h.17c-.07-.21,1.79.86,2.14,1.07.77.46,3.86,2.3,4,3,.56,0,.9,1.07,1.37,1.3A2.17,2.17,0,0,1,51.21,14.14Z"/><path class="fb7c9496-d092-40ec-9dff-1c9997455e2f" d="M31.52,9.56l0,.11.1,0c0,.09,0,.07.1.07,0,.63-3.12,3.24-3.91,3.64,0,.1,0,0,0,.17l0-.1c-.64,0-2.42,1.71-3.31,1.94-2.51.62-4.9,2-7.62,2.37a1.21,1.21,0,0,0-.07-.37c3.72-1.24,7.67-1.92,10.86-4.48a35.33,35.33,0,0,0,2.74-2.24C30.74,10.27,31,9.56,31.52,9.56Z"/><path class="fb7c9496-d092-40ec-9dff-1c9997455e2f" d="M50.14,16a6.25,6.25,0,0,1-1.47-.33v-.07c-.18,0-1.14-.25-1.14-.43-.28,0-1-.3-1.1-.57-.28,0-2-.62-2-.94-.16,0-.25-.11-.4-.17v-.2a3.3,3.3,0,0,1-1.47-.7A40.81,40.81,0,0,1,37.77,9.3a13.63,13.63,0,0,0-1.7-1.14A.22.22,0,0,1,36,8c.05-.26.85.13,1,.17v.07c.14,0,.07,0,.2.1l-.06,0,.16,0c0,.3,1.69.9,1.51,1.27,1,.14,1.84,1.41,2.8,1.73a22.65,22.65,0,0,0,3.55,2.07c0,.21,1.26.8,1.47.84v.07c-.1,0-.06,0-.1.06.52,0,.87.32,1.33.47V15A4.87,4.87,0,0,1,50.14,16Z"/><path class="fb7c9496-d092-40ec-9dff-1c9997455e2f" d="M17.45,45.82h.07a.5.5,0,0,0-.07.27c.16,0,.1,0,.21,0a2.65,2.65,0,0,0,.13.67l-.07,0h.1v.47h-.1v-.17c-.2,0-.17,0-.13.24l-.14,0c0-.19.07-.34.07-.47a2.34,2.34,0,0,1-.27.2.9.9,0,0,0-.06-.43l.06,0c0-.11-.09-.15-.13-.26.25-.13-.1-.77,0-.64l0-.07c-.09-.09-.06,0-.1-.16h-.13c0-.23-.18-.87.23-.87-.14-.27.82-.63,1-.8s-.22-.69-.33-.91h.1l0,.14H18l0-.17-.26-.13c-.24.23-.93-.68-1.17-.81l.16,0v-.2c-.08,0-.06,0-.06.1h-.07a.35.35,0,0,1,0-.2c-.57,0-.38-.44-.06-.83v.06c.15,0,.06-.13.26-.13l-.1,0c0-.61.3.73.17-.9,0-.47-.44-.77-.33-1.3h-.07v-.1h-.2v-.23c-.22,0-.24-.25-.3-.44l.1,0c-.16-.77-1-1.8-1-2.68,0-.09-.07-.06-.13-.06,0-.24-.2-.43-.2-.67l.06,0c-.07-.21-.31-.55-.43-.8.16-.05.07-.05.27,0-.05-.15-.22-.16-.37-.2a2.57,2.57,0,0,0-.3-.87c.1-.05,0,0,.17,0-.79-1.57.8-1.81.63-2.64-.11-.54-1-1-1-1.5-.67,0-.22-1.2-.07-1.5.21.1.37.26.57.36l0,.07a2.58,2.58,0,0,1,1.5,2.21c-.09,0,0,0-.13,0v.07l.1,0a6.74,6.74,0,0,0,0,1.27h-.07v-.1h-.1v-.1l0,.07-.13,0-.07.13c.13.13.33.11.5.17,0,.17,0,.82-.07.87.21.1-.08,1.12-.1,1.33h-.06V33l-.14.07,0,.13c-.16,0-.18-.23-.37-.16a.47.47,0,0,1,.1.2.46.46,0,0,1,.23.06l0,.1-.1-.06c-.08.24,0,.33-.27.46.16.08,0,.32,0,.44.14.07.14.22.17.37h.06c0,.15.08.2,0,.36h.1v.1h.06a4.39,4.39,0,0,0,1.14,2c0,1.18,2.33,2.11,1.3,3.48-.09.12-.23.3-.4.3v-.1h-.07c-.05.3-.27.39-.33.7a3.41,3.41,0,0,1,1.1,1.24l-.1,0,0,.1a.84.84,0,0,1,.73.61c.45,1.12-.58.9-1.16,1.57C17.47,45.17,17.57,45.59,17.45,45.82Z"/><path class="fb7c9496-d092-40ec-9dff-1c9997455e2f" d="M51,11.47v.07h.14c.08.23.2.29.43.36,0,.1,0,0,0,.14.56.28.91,1.15,1.47,1.33C51.7,10.82,49.2,9.1,47.3,7.19c-.09,0-.07,0-.07.1a.6.6,0,0,1-.2-.06l.07-.14c-.33-.16-.57-.58-1-.43-.06-.34-.42-.43-.71-.57.14,0,.25,0,.37,0,.05.15,0,.09.2.13v.07c.41.13.71.33,1.07.13.13-.07,0-.3.2-.3l0-.1c.55.55,1.49,1,1.74,1.7h.07c0,.91,2.4,2.13,2.67,2.94h.07a.41.41,0,0,0,.27.27V11h.06c-.28-.58-.9-1.07-1.1-1.67-.14,0-.45-.56-.5-.7l.1,0v.07h.07v-.7c.35,0,.71,1,1,.87,0,.09,0,0-.07.13.37.37,2.15,3.38,2.24,3.38s-.11.19-.17.3c.12.05.07,0,.07.2l-.13,0c-.16.24-.5,1.57-.74,1.57a4.92,4.92,0,0,0-1.77-2.1c0-.11-.32-.3-.43-.34v-.06c-.23,0-.35-.24-.67-.24l0-.1h.07c0-.09-.13-.09-.13-.2-.68,0-1.53-1.34-2.21-1.57,0-.22-1.27-1-1.5-1V8.63c-.21,0-.12,0-.27,0l.07-.13A3.93,3.93,0,0,0,45,8c0-.27-.6-.2-.6-.43a2.16,2.16,0,0,1-.67-.24V7.23h-.13V7.16c-.59,0-1.29-.52-1.88-.67l0-.2a.77.77,0,0,1,.36.07v-.1c.14,0,.21-.06.14-.2a5.54,5.54,0,0,1,1.13.3v.06c.69,0,1.33.68,2,.81v.06c.12,0,.53.18.53.3s.2,0,.2.14c.95,0,1.75,1.37,2.64,1.67,0,.12.93.73,1.1.9S50.7,11.47,51,11.47Z"/><path class="fb7c9496-d092-40ec-9dff-1c9997455e2f" d="M48.23,12.64c0-.52-3.61-2-3.61-2.24-.44,0-.87-.59-1.3-.7V9.63c-.14,0-.7-.28-.7-.43s-.33-.07-.33-.2-.17-.07-.31-.1V8.83c-.1,0,0,0-.16,0V8.73c-.29-.1-.52-.27-.8-.37V8.29c-.11,0-.24,0-.24-.13-.21,0-.45-.19-.67-.27V7.83a2,2,0,0,1-.4-.1V7.66a1.27,1.27,0,0,1-.37-.1V7.49c-.46-.11-.87-.35-1.33-.47l.1,0V6.86a10.34,10.34,0,0,1,2.44.53v.07c.85,0,1.71.79,2.54,1,.06-.11,0-.06.2-.06,0,.13,0,.06,0,.2.37,0,.72.4,1.07.46,0,.11.44.32.54.27.06.2.92.74,1.13.64v.13c.1,0,.2.1.31.13V10.1l.1,0c.05.1,0,0,.06.2H46.4a6.88,6.88,0,0,0,1.8,1.13c0,.09,0,0,0,.14l.23.1,0-.07c.1.19.11.2.31.27l0-.07c.13,0,.09,0,.14-.1,0,.09,0,.07.1.07v.13H48.8c0,.09.16.18.24.23.28.22,2.12,2,2.17,2v.06h.23c-.38,0-1-.19-1.13.17h-.07v-.07C49.66,14.53,48.79,12.82,48.23,12.64Z"/><path class="fb7c9496-d092-40ec-9dff-1c9997455e2f" d="M19.13,15.18c.62,0,1.38-1,2-.77A24.26,24.26,0,0,1,23.47,13,26,26,0,0,0,28.55,9.7c.7-.6,2-1.88,2.94-1.77l0,.2c-.45,0-1.45,1.13-1.9,1.4C27.84,10.6,26,11.86,24.31,13c-.41.27-1.18.93-1.68.93v-.13h-.06l0,.23c-.76,0-2.83,1.81-3.57,1.44C19,15.37,19.08,15.3,19.13,15.18Z"/><path class="fb7c9496-d092-40ec-9dff-1c9997455e2f" d="M9,46.66c.13-.06.07-.28.07-.4l.07,0,0-.2H9a.56.56,0,0,0,0-.23H8.93c0-.24,0-.14,0-.3H8.83c-.11-.47-.68-.63-1.1-.74v-.06a7.67,7.67,0,0,1-1.17-.17v.23c-.15,0-.18.06-.13.2a9.84,9.84,0,0,1,1.7.34c0,.13.13.2.07.33h.13c0,.32,0,.73.34.8-.09,0-.07,0-.07.1l-.14,0c-.06-.14,0-.07-.26-.1,0-.23-.43-.18-.6-.24l0,.07,0-.13c-.41,0-1.11-.39-1.47-.27v-.1c-.21,0-.39-.19-.64-.24,0-.22-.37-.34-.56-.36s0,.06-.21.06v-.06h-.1v-.1c.16,0,.34.07.34-.14l-.24,0c.1-.09.07,0,.07-.17-.19,0-.12,0-.23,0,0-.13,0-.07,0-.17l.06,0c.12-.11,0-.32,0-.47-.23,0-.24,0-.3-.2l.2,0c0-.51-.36-1.31.1-1.54l0-.13.06,0v.2c.11-.11.08-.32.1-.47a.73.73,0,0,0-.26,0L4.45,42h-.2v-.1l.1,0c0-.19.12-.13.27-.1.07-.14.17,0,.2.07a2.86,2.86,0,0,1,.5-.73c-.06-.13-.17-.27-.1-.41.27.27.49-.09.7-.23-.07-.15.06-.26.11-.43a.69.69,0,0,1,.33,0l.1-.2c.13,0,.14,0,.23-.07l-.16,0a2.49,2.49,0,0,0-.44-1.34l-.2,0,.14,0c-.06-.17-.11-.26-.31-.26-.13-.65-.47-.37-.86-.27A.31.31,0,0,0,5,37.6l.13,0a16.08,16.08,0,0,0-.67-2.07C4.38,35.28,4,35.3,4,35l.1,0a.37.37,0,0,1,.47-.3c0-.36.61-.46.84-.64.83-.66,1.74-1.19,2.64-1.9.15-.13.27.06.4.06-.32.64-.58.49-.64,1.31h.07c0,.12,0,.07,0,.16-.13.07,0,.19,0,.3C8,34.4,9.24,37,9.6,37.1v.07c-.22,0,0,.2.17.2l-.17.07c.1.29.2.57.3.87H10c0,1.4.36,2.9-.1,4.27l.07,0c-.7.35.33,2.16.53,2.57-.12,0-.17,0-.3,0v-.13a1.58,1.58,0,0,1-.53-.4l0,.17c-.12,0-.18,0-.3,0,.05-.11.05-.12,0-.2-.1.09-.06.15-.2.2-.09-.18-.4-.2-.4-.34-.16,0-.06.22-.3.27C9,45.11,10.34,47,9,46.66Z"/><path class="fb7c9496-d092-40ec-9dff-1c9997455e2f" d="M16.32,16.62c.83,0,3-1.26,3.61-1l0-.1c.49-.12,1.31-.69,1.78-.57l0-.07c1.05-.7,2.39-1,3.44-1.7.06.11,0,.06.2.06l-.1,0v-.07h-.06c1.62-.54,3-2,4.41-3,0,.16,0,.23-.17.23-.06.24-.1.17,0,.44h.07c0,.73-1.61,1.47-2.21,1.87a23.6,23.6,0,0,1-7.55,3.58C19,16.46,16.64,17.26,16.32,16.62Z"/><path class="fb7c9496-d092-40ec-9dff-1c9997455e2f" d="M19.53,13.31c-.05-.1,0-.06-.14-.14.78-.39,3.36-2.2,4-2.2V10.9c-.12,0-.08,0-.13-.07l.27-.06,0,.1a.41.41,0,0,0,.4-.4H24l0,.1c.5,0,2.38-1.3,3.07-1.57.11-.05.12-.14.07-.24l.07,0c0,.22,3.15-1,3.54-1.14,0,.26-2.5,1.11-2.94,1.44-1.5,1.13-3.44,1.74-5.05,2.81a7.16,7.16,0,0,1-1.77,1c-1.12.28-1.59,1.26-2.81,1.17.19-.18.42-.32.6-.5a.43.43,0,0,1-.2.07C18.77,13.28,19.31,13.31,19.53,13.31Z"/><path class="fb7c9496-d092-40ec-9dff-1c9997455e2f" d="M63.51,34.26a2,2,0,0,1-.34.07c0-.14,0-.07,0-.2a4.85,4.85,0,0,0-.54-.3v-.07c-.69,0-.66-1-1.44-.23.51.5,2.44,1.87,2.54,2.27h.07v.1c1,.26.7,1.67.94,2.37h.16v.14h-.23v-.14c-.16.32-.27.68-.43,1l0-.1c0,.36-.61,1-.47,1.31h-.1c-.11.34-.64,1.49-.2,1.64v.1h.14s1.21,1.29,1.23,1.3a4.4,4.4,0,0,0,.1.77H65a4,4,0,0,1-.94,2.54c-.25-.13-.18.26-.33.33l.17,0v.1c-.12,0-.15,0-.27,0v-.1h-.2c0,.12.12.1.17.23l-.2,0V47.4a.68.68,0,0,0-.61.26l-.06,0c-.39,0-.93.45-1.34.53a2.29,2.29,0,0,0-.7.14l-.07.06c.2.39,1,.32,1.31.34v.1H62c0-.2.08-.17.27-.17v.1c.08,0,.62-.32.67-.47h-.07c.05-.09.08,0,.17-.1v.1c.11,0,.18,0,.23-.1h-.1c0-.07.75-.1.4-.33.1-.19.22,0,.34,0s.43-.31.53-.4a3.21,3.21,0,0,0,1.34-2.54h-.07l0,.1h-.1c0-.1,0-.05.07-.13l-.1,0c.06-.12,0-.06.23-.06v-.27h-.1v-.1a.28.28,0,0,0-.17,0v-.13c.2,0,.12,0,.27,0a4.8,4.8,0,0,0,0-.5c-.09,0-.07.1-.17.1v-.2l.1,0c0-.53-.89-1.81-1.51-1.81,0,.13,0,0,0,.24h-.27c0-.18.07,0,.07-.34l.2,0c-.54-.27.88-2.33,1.07-2.71.89-1.78-.07-2.28-.4-3.61-.41,0-.32-.48-.87-.3V35h-.07a.31.31,0,0,1,.1-.13l0,.1h.21c-.06-.11,0,0-.07-.2C64,34.8,63.62,34.43,63.51,34.26Z"/><path class="fb7c9496-d092-40ec-9dff-1c9997455e2f" d="M18.86,13.41a17,17,0,0,1,4-2.61v.1h.2c0-.16,0-.09,0-.2.57-.28,1.37-1.07,2-1.07,0-.25,2.7-1.35,3.05-1.47.07.14.47-.25.73-.2V7.89a8.13,8.13,0,0,1,2.47-.46v.1c-1.38,0-2.86,1.33-4,1.33,0-.09,0,0,0-.13s-.07.09,0,.2A20.54,20.54,0,0,1,24,10.57c0-.13,0-.09-.1-.14-.06.24-.18.44-.44.44l0-.1-.27.06c.05.1,0,.07.13.07V11c-.6,0-3.25,1.82-4,2.2.11.06.06,0,.14.14-.2,0-.1,0-.24-.1-.11.11-.26.13-.37.23Z"/><path class="f5d4f226-db85-4192-97da-9ec9b47578c0" d="M3.62,34.19h.07c-.1.2-.35.28-.54.37s-.4-.93-.4-.93.07,0,.07-.14H2.75v-.23H2.68c0-.65.73-1,1-1.47l.24,0c0-.08,0,0,0-.13l-.1,0A2.3,2.3,0,0,1,5,31.05V31h-.1l.27-.07-.13,0a7.45,7.45,0,0,1,1.87-1.37c0-.28-.31-.86-.07-1.11l-.1,0c0-.67.19-1.16.13-1.77H6.83a8.26,8.26,0,0,1,.26-3.21c.1.05.23.61.27.77h.07c0,.17,0,.09,0,.23-.27.14-.1,1.73-.06,2h.06c.08-.58.07-1.15.14-1.74C7.87,25.12,9,27.86,9,27.88c-.4.2,0,.89,0,1.34h.26c0,.09,0,0,0,.13h-.1l0,.13h-.1l0,.14H9a1,1,0,0,0-.07.36,7.07,7.07,0,0,0-1.17,1.68c-.09,0,0,0-.13,0-.16.16-1.2.85-1.2,1.07-.31,0-.5.3-.77.3.08,0,.06,0,.06.1H5.59c.41.21,0,.28-.2.3,0-.08,0-.06.1-.06s0-.08-.1-.17a6.21,6.21,0,0,1-.77.4.53.53,0,0,1-.13-.27H4.42a2.3,2.3,0,0,0-.2-.8C3.56,32.93,4.11,33.87,3.62,34.19Z"/><path class="fb7c9496-d092-40ec-9dff-1c9997455e2f" d="M49.67,14.68a4.57,4.57,0,0,0-1.64-1v-.07a1.09,1.09,0,0,0-.23-.06v-.07c-1.09,0-2.14-1.55-3.28-1.67,0-.09,0-.07.1-.07a4.2,4.2,0,0,0-.6-.3V11.4c-.65,0-3-1.68-3.81-2.07-.17-.09-1.13-.5-1.13-.63a.34.34,0,0,1-.37-.27h-.1V8.36c.33,0,.58.14.9.2v.07c.74,0,1.43.73,2.11.9V9.6a2.26,2.26,0,0,1,.43.17l0-.07,0,.13c.37,0,1.89,1.34,2.1.9.07.41.39.46.74.64V11.3c0,.11,0,.07.17.07l-.1.07c.93.31,1.77,1.24,2.74,1.43v.07c.79,0,1.49,1.1,2.17,1.44A2.43,2.43,0,0,1,49.67,14.68Z"/><path class="fb7c9496-d092-40ec-9dff-1c9997455e2f" d="M52.31,16.28c0,.11,0,.3.17.3.06.19.19.24.3.4a3.29,3.29,0,0,0-.57.81h.07v.1h.06l0,.06-.1,0v-.07c-.36.25-.5,1-.57,1.41h.07v.06h-.07c-.23.92-.26,1.17.4,1.34,0-.86,0-2.47.91-2.94-.19-.38.7-1,.7-1.47.9,0,2.47.57,3.17.43,0-.12,0-.26.17-.26l-.9-.27v-.07a13.07,13.07,0,0,1-2-.23c.39-.2.75-1,1.17-1-.08-.24.42-.93.5-1.23.29-1.18-.38-3.34-1.67-1.68a4.52,4.52,0,0,0-.41.71c.12.05.07,0,.07.2l-.13,0a15.45,15.45,0,0,0-.7,1.67h.1c0,.14,0,.07,0,.2-.1,0,0,0-.14-.1-.08.13-.06.06-.06.2a3.94,3.94,0,0,0-2.38-.56c-.15,0-.13,0-.16.13h-.07v-.07c-.26.14-.66.33-.57.71l-.07,0C49.45,16.31,51.38,16.25,52.31,16.28Z"/><path class="f5d4f226-db85-4192-97da-9ec9b47578c0" d="M6.39,49.3H6.33c-.06-.27-.09-.38-.37-.43,0-.1,0,0,0-.14-.24,0-.11,0-.3-.1v-.1c-.32,0-.21,0-.37,0v-.14a2.85,2.85,0,0,0-.6-.07l0-.06-.67-.1v-.1h-.3l.06,0L3.52,48c0,.08,0,.06-.1.06-.07-.2-.3-.08-.3-.3-.26,0-1.07-.35-1.07-.63-.41,0-.73-1.44-.34-1.57a1.45,1.45,0,0,1-.13-.4l.07,0v.1a.73.73,0,0,1,.1-.46v.16h.13c0-.34.33-1.9.94-1.9a3.84,3.84,0,0,1,2-3c.21-.15.58-.47.83-.47v.07h.07v.1c-.53-.14-.3.5-.6.5v-.1c-.11,0-.06,0-.13.1.09,0,0,0,.1.13-.12,0,0,0-.2,0v-.06c-.19.18-.57.4-.47.7-.59,0-.79,1.31-1,1.74.11,0,.05,0,.17,0s.07.17.1.27c-.09-.05,0,0-.1-.1-.09.09-.07,0,0,.16l-.07,0h.07v.06h.07v.11c-.19,0-.18.06-.34.06a1.31,1.31,0,0,0-.07.27h.17c0,.1,0,.09.14.13-.4.07-.41.48-.34.84h.07c0,.12,0,.07,0,.17-.14.06-.06.24,0,.36h.06c0,.2,0,.13-.06.24.17.08.23.57.4.57v.13c.22,0,.44.3.57.43.08-.12,0-.1.13-.1v-.06h-.1c.06-.13,0-.07.23-.07v.07l.17,0c-.37.07-.25.28.07.33v.14a1.07,1.07,0,0,1,.3.06V47a2.39,2.39,0,0,0,.6,0V47c.15,0,.19,0,.27-.16.13,0,.09,0,.13.13a1.34,1.34,0,0,0,.44-.1v-.07l.1,0a.28.28,0,0,0,0,.17h.13v.13h.07v.1c.18,0,.19-.13.33-.13v.1a1.52,1.52,0,0,0,.37,0v.1c.26,0,.34-.09.6,0v.13h.07v.1H8.3v.07H8v-.07c-.47,0-.29,0-.53,0l0,.07h.06c0,.15.23.22.34.33s-.16.58.1.7l-.07.07-.07,0,0,.13c-.12-.06-.28,0-.2.13h-.1v-.1c-.21,0-.24,0-.3.17a1.37,1.37,0,0,1,0-.47l.1,0v-.1H7.13V48c-.11,0-.06,0-.1.16-.26-.08-.2.13-.17.31-.16,0-.11,0-.17.06l.14,0c-.34.11-.13.33.13.36,0,.09,0,0,0,.14a.83.83,0,0,1-.56,0Z"/><path class="fb7c9496-d092-40ec-9dff-1c9997455e2f" d="M12.64,50.37h-.16V50.3a.62.62,0,0,1-.31,0V50.2c-.31,0-.25-.1-.5-.1V50h-.1V50h-.16v-.13h-.07c0-.14,0-.14-.17-.14-.07-.21-.13-.09-.13-.37l-.07,0v-.14c-.22.18-.38.38-.67.3l0,.07c.09,0,.06,0,.1.07-.23.08-.18.17-.2.4-.07.73-.94,1.31-.94,2h.14c0,.1-.11.08-.2,0-.14.14-.08.06-.17.24.16.1.09,0,.13.27-.15-.06-.08,0-.16-.2-.49.24-1,1.32-1.37,1.77h.1v.06a.25.25,0,0,0-.3.1.76.76,0,0,0,.3.1c-.2,0-.37,0-.57,0,0-.45.06-.27,0-.54H6.89a4.43,4.43,0,0,1,.87-2.37l.14,0-.1-.1a2.61,2.61,0,0,1,.2-.3c.11.16.05.11.16.17.08-.14.14-.3-.06-.3,0-.21.29-.45.36-.67H8.3l0-.07c-.33,0-.27,0-.27-.36H8a5.61,5.61,0,0,0,.16-1l.17.06c-.14-.54.31-.8.2-1.37.46,0,.37.1.47-.1l0,.1c.24,0,.14,0,.3,0v-.1c0,.08.36.6.47.6,0,.21.1.1.1.33.22,0,.4-.23.5-.43l.17,0V48h-.1c.41-.41.77-.9,1.17-1.3-.06-.13-.15-.12-.1-.27-1-.13-1-1-1.44.4a1.57,1.57,0,0,1-.57-.07c0,.09,0,.07-.1.07v-.1H9.37c.16-.33.3-1.19-.14-1.34v-.06c-.33-.11-.48-.41-.8-.57.27-.07,0-.19.27-.27v.07c.23,0,.31.27.47.27l.06-.2c.12,0,.15.1.1.2.12,0,.19,0,.3,0l0-.17c.15.16.53.33.53.53.18,0,.34,0,.5,0a.88.88,0,0,0,.57.56c.08-.15,0-.06.34,0-.07.33.62.68,1,.77,0,.48-2.82,2.46-3.21,3.24a.31.31,0,0,1,.13.1l0-.1H9.47c.46-.23.82-1,1.33-1,0-.12.07-.06.07-.17H10.8c.11-.05.13-.21.27-.13,0-.13,0,0,.1-.21l.07,0c0-.16.42-.5.53-.6V48c.23,0,.82-1,.94-1.2.12.49.35.94.43,1.44.1,0,0,0,.14,0a2,2,0,0,0-.2.61c.14-.08,0,0,.33,0-.05.15,0,.18-.13.3.28.14.15.54.13.81-.25,0-.33,0-.33.26-.13-.06-.24-.05-.24.1h-.16Z"/><path class="fb7c9496-d092-40ec-9dff-1c9997455e2f" d="M17.59,11.44c-.89,0-2.28,2.44-2.74,2.44.1-.2.33-.46.33-.67-.19.15-.67.39-.67.63-.1,0,0,0-.16,0,0-.37-.43-.64-.54-1-.48,0,1-2.07.94-2.37.12,0,.07-.05.16,0A19,19,0,0,1,16.22,8.6l.1,0c-.06-.16.42-.8.6-.8,0-.32.8-.84.94-1.11l.2,0V6.62H18c.16-.16.71-.9,1-.9a.5.5,0,0,0,.17.4l0,.07h.13v.1h.1c0,.25-1.3,1.24-1.47,1.24-.09.58-1.56,1.59-1.37,2.17-.17,0-.39.25-.33.43-.27.09-.51.58-.64.84A16.94,16.94,0,0,1,17.32,9.3c0-.26.93-1.16,1.14-1.44l0,.1h.23c0-.19-.06-.13-.26-.13C19,7.27,19.51,6.63,20,6.06l0,.1h.13v.06a.91.91,0,0,0,.44-.06c0,.12,0,.12,0,.23l.06.07-.06.1c.29.09.68-.58,1-.37-.14.09-.47.24-.47.4-.45,0-2.86,2.46-3.24,2.84-.16.16-.5.41-.5.64a15.6,15.6,0,0,0-2.48,3c.24,0,.89-.72,1-.9h-.06c0-.09.07-.08.16,0,.26-.26.5-.5.77-.74-.08,0-.06,0-.06-.1s.06-.05.16,0c.43-.42,2-2.17,2.51-2v.07c.19,0,.22-.1.43-.13,0,.1,0,.05-.06.13l.16,0c0,.18,0,.09,0,.27C19.7,9.73,17.59,11.39,17.59,11.44Z"/><path class="fb7c9496-d092-40ec-9dff-1c9997455e2f" d="M19.93,9.63a3.21,3.21,0,0,1,1.33-.9l0,.13c.18,0,.16-.13.27-.23-.05-.09,0-.07-.11-.07a3.73,3.73,0,0,1,1.71-1c0-.45,3.46-1.54,4-1.57.38,0,1-.24,1.14.1-.77.51-2.24.32-2.68,1.21a6.48,6.48,0,0,0,.94-.24l0,.07.1,0c.46-.91,4.61-.84,5.35-.47v-.1c-.33-.06-.37-.3-.6-.5a4.42,4.42,0,0,0-1.77-.5V5.55c-1.75,0-3.69-.59-5.38,0l.1,0v.17h-.07V5.59l0,.13a.57.57,0,0,0-.2-.07l0,.07c0-.09,0,0,0-.13-.12,0-.12.06-.23.06V5.52c-.09,0-.07,0-.07.1h-.06a2.31,2.31,0,0,1-1.37.6l0,.07h.07c0,.14-.32.37-.47.37V6.59c-.28.14-.58.8-1,.8V7.33c-.29.14-.44.9-1,.9-.11.33-.74,1-1.07,1-.06.23-.34.42-.5.6.41,0,.62-.68,1.07-.57v.07c.19,0,.22-.1.43-.13,0,.1,0,.05-.06.13l.16,0C19.85,9.55,19.84,9.46,19.93,9.63Z"/><path class="fb7c9496-d092-40ec-9dff-1c9997455e2f" d="M19.13,14.31A7.59,7.59,0,0,0,22,13c.94-.56,2-.91,3-1.4,1.16-.58,2.16-1.37,3.37-2,0,.09,0,.05.07.1-1.86,1.24-3.69,2.45-5.61,3.6-.31.19-1.74.72-1.74,1-.68,0-1.28.63-2,.77a1,1,0,0,0,.1-.7c.09-.05.06,0,.06-.14Z"/><path class="fb7c9496-d092-40ec-9dff-1c9997455e2f" d="M21.26,8.73l0,.13c.18,0,.16-.13.27-.23-.05-.09,0-.07-.11-.07a3.73,3.73,0,0,1,1.71-1c0-.45,3.46-1.54,4-1.57.38,0,1-.24,1.14.1-.77.51-2.24.32-2.68,1.21h.07v.06c-.34,0-.34.3-.6.3V7.63a.73.73,0,0,0-.54.33A9,9,0,0,0,22.1,9.23h.07V9.3h.06v.06c-.66-.22-2.07,1.24-2.27,1.14a2.49,2.49,0,0,1-.47.33c.14.05.09,0,.14.14-.26,0-.2-.07-.27.07l0-.1c-.1,0,0,0-.17,0-.06-.29-.18-.18-.24-.47-.09.05,0,0-.16,0A16.88,16.88,0,0,1,21.26,8.73Z"/><path class="fb7c9496-d092-40ec-9dff-1c9997455e2f" d="M7.19,21.5c0-.62-.21-1.6.31-2.11v.07l.06,0c0-.13,1.15-2.1,1.61-2.1-.09.18-.21.35-.3.53l.06,0c.08-.08.11-.06.2-.1l-.06,0a4,4,0,0,1,2.47-1.53v.16c.23-.91,1.6,0,2,0v.1a.32.32,0,0,0-.24.14h.07c0,.16.43.63.54.63v.07c.6,0,1.26,1.6,1.5,2.07a5,5,0,0,1-.94-.63l-.13,0c0-.34-.94-1.31-1.27-1.2-.13-.39-1-.49-1.3-.6l0,.1h-.1V17l-.06,0a6.06,6.06,0,0,0,1.43.77c0,.17.7.73.84.94-.21,0-2-.05-2,.4a1.84,1.84,0,0,1,.33,0c0,.14-.13.12-.13.3a4,4,0,0,1-.6,0v-.1c-.18.18-.49.06-.74.07a5.16,5.16,0,0,0-2.3.87c-.12-.69,2.33-2.46,3.17-2.74l0-.07A7.7,7.7,0,0,0,7.19,21.5Z"/><path class="fb7c9496-d092-40ec-9dff-1c9997455e2f" d="M56.09,16.15v-.07a13.07,13.07,0,0,1-2-.23,4.4,4.4,0,0,0,1.2-1.11,12.28,12.28,0,0,1,3.34,2.08c.47.47.47,1.34.9,1.77a4,4,0,0,1,1.07,3l0-.1h-.07c0-.13-.06-.15-.1-.27s-.78-1.35-1-1.57c-.52-.53-.52-1-.8-1.71A3.33,3.33,0,0,0,56.09,16.15Z"/><path class="fb7c9496-d092-40ec-9dff-1c9997455e2f" d="M58.09,43.35l-.1,0c.22,0,.71-.26.57-.54l.13,0c0-.12,0-.07,0-.17.24-.12.24-.31.27-.56h-.07a.53.53,0,0,1,0-.24H59c0-.31.11-.47-.17-.47,0-.23.14-.24.07-.5-.11,0,0,0-.2,0,0-.09,0-.07.1-.07l0-.17-.36,0c0-.17.12-.14.26-.14,0-.39-.6-.64-.6-1-.36,0-.3-.88,0-1a6,6,0,0,0,0-1.27H58c.13-.27,0-2.81-.54-2.81.26-.38,0-.75-.1-1.17h-.07a2.55,2.55,0,0,0-.26-1l.43-.43c.6.4,1.6.56,2.11,1.07.18-.27.23.14.4.23,0-.13,0-.09.06-.13v.06c.12,0,.15,0,.2-.1.05.1,0,.23-.13.27s0,.3.17.3c0,.34.2.87.2,1.3,0,1.81-.74,3.91-1.1,5.75h.06a6.44,6.44,0,0,1-.36,1.47c.14.07.12,0,.16.24H59.1v-.07a3.86,3.86,0,0,0,.06,1.4h.34c0,.19-.24,0-.24.17s.48.65.57.94c-.68-.35-1.25-.9-1.94-1.24C58,43.47,58,43.4,58.09,43.35Z"/><path class="fb7c9496-d092-40ec-9dff-1c9997455e2f" d="M11.27,38.87l0-.16H11.1c.05-.09,0-.07.11-.07s0-.07.06-.13c.92-.74.07.07.34-.74l-.07,0c0-.39-.3-.81-.2-1.2h-.07c.1-.1,0-.07.2-.07l0-.06c-.11.05,0,0-.2,0a1.52,1.52,0,0,0-.07-.67c.1,0,0,0,.17,0-.09-.09-.08,0,0-.17h-.14c0-.22-.11-.71.17-.8,0-.33,0-1.14.43-1.14a1.1,1.1,0,0,1,.14-.93l.13,0,0-.07h-.2c0-.18.1-.6.3-.6-.31-.93-1.81-.11-2.44.14l0,.36,0-.1-.23,0v-.07c-.1,0,0,0-.17,0v-.1c-.26,0-.39.24-.63.24v-.07c-.17,0-.35.38-.3.47-.18.18-.14.54-.1.77l-.07,0a4.65,4.65,0,0,1,.54,1.24h.06c0,.4.57,1.13.74,1.47l-.07,0c.4.27,1.23,3.13,1,3.24l.1,0a12.36,12.36,0,0,1-.23,2.64c.33,0,.51-.57.9-.44l0-.06a3.3,3.3,0,0,1,.53-.27C11,41.36,10.14,38.59,11.27,38.87Z"/><path class="f5d4f226-db85-4192-97da-9ec9b47578c0" d="M7.29,54.45c-.32,0-.12-.12-.36-.2L7,54.18c-.51-.26-.51-2.07-.53-2.34s-.28-.38-.33-.67l-.07,0,0-.14a13.19,13.19,0,0,0-1.74,2.61c-.12.19-.2.83-.4.87a1.17,1.17,0,0,1-.37,0C3.33,53,5,51.59,5.76,50.37c.13-.22,0-.57.16-.7v.4A3.15,3.15,0,0,1,6,49.13c-.9,0-2.54.23-2.54-1.1.25,0,.13-.06.36,0l-.06,0h.3v.1a5.43,5.43,0,0,1,.67.1l0,.06a4.52,4.52,0,0,1,.6.07v.14c.16-.08,0,0,.37,0v.1c.19.06.06.1.3.1,0,.09,0,0,0,.14.28.07.32.15.37.43h.06v.2h.1v.4c.86,0,1-.66,1.31-1.37l0,.07c.26-.26-.14-1.1-.43-1.1.07-.16.47,0,.56,0v.07a4.36,4.36,0,0,1,.81.07l-.21,0c-.07.45-.34.95-.23,1.4H8.16V49a4.91,4.91,0,0,1-.16,1h.06v.33a1.12,1.12,0,0,1,.27,0l0,.07h.16c0,.28-.36.39-.36.67h.1c0,.18,0,.47-.17.1a1.09,1.09,0,0,0-.23.33l.06.07-.1.07v-.07a5.8,5.8,0,0,0-.87,2.37h.24a2.57,2.57,0,0,0,0,.5Z"/><path class="fb7c9496-d092-40ec-9dff-1c9997455e2f" d="M9.17,32.12V32H9.1c.16-.25.88-.32,1.17-.37v.14c.28-.15.72-.28,1.1-.47-.28-.86-1.29-1.72-.43-2.58-.24-.11.18-.74.23-.93-.16-.06-.25-.17-.17-.34-.32,0-.67-.83-.8-1.1a19.41,19.41,0,0,0-2.37-3.21c0-.08,0,0,0-.13h-.1c0-.2-.13-.29-.3-.37l0,.07c.23.11.19.43.23.67.1-.05,0,0,.17,0,0,1.23,1,2.16,1.2,3.38H9.1c0,.23.18.45.23.67-.11,0-.16,0-.16.13h.2c0,.16.07.28.1.44L9.4,28l.1,0a1.82,1.82,0,0,0,0,.44l-.06,0c.19.19.26,1.53-.17,1.64.18.09-.63,1.5-.9,1.37a2.69,2.69,0,0,1-.4.67A3.51,3.51,0,0,1,9.17,32.12Z"/><path class="fb7c9496-d092-40ec-9dff-1c9997455e2f" d="M52.81,22.63h.07c0,.41.24.69.3,1.07h.07v.1h.06c.14.54.83.71.91,1.17h.2c0,.1.23.23.3.34-.17,0-.1,0-.2.06.1.06,0,.08.13.14.1-.1,0-.07.2-.07v.1c.14.05.17.13.1.27.17,0,.23.14.3.3-.11,0-.15,0-.2.1.5,0,.76-.66,1.2-.57l0-.1h-.07c0-.13.35-.47.47-.47,0-.3.3-.47.5-.6l0-.1h-.07c.11-.22.27-.26.37-.47-.09.05,0,0-.14,0a9.49,9.49,0,0,0,0-1.41c.13-.07.06,0,.06-.27-.22,0-.25-.23-.33-.4.08-.08.07,0,.07-.13H57c0-.51-.67-.83-.67-1.37h-.13v-.07l-.14.07,0-.07-.13.07c0-.11,0,0,0-.2-.09,0-.07,0-.07.1-.48-.24-.7-1-1.17-1.2,0-.09,0,0,0-.14-.12.08-.1,0-.1.14h-.1c0-.09,0,0,0-.14-.12.08-.1,0-.1.14a3,3,0,0,0-.67,0V19c-.23.24-.44,0-.37.5-.09-.09,0-.07-.16,0a.55.55,0,0,1-.2.37,1.48,1.48,0,0,1,0,.47,5.1,5.1,0,0,1,1.37,1.5c.06.27-.19.63-.07.87-.16.08-.07,0-.07.33h.2v.07c-.33,0-.11.22-.3.4-.07-.11-.17-.43-.3-.43a.73.73,0,0,0-.07-.24c-.13,0-.49-.65-.56-.8-.08.15-.23.12-.37.17v-.1C52.75,22.23,52.81,22.45,52.81,22.63Z"/><path class="fb7c9496-d092-40ec-9dff-1c9997455e2f" d="M7.4,54.35c.08-.13.15-.19.3-.14v-.06H7.6c.42-.43.86-1.52,1.37-1.77,0,.18,0,.11.16.2,0-.19-.18-.6.2-.47l0-.07H9.23c0-.61.8-1.5.94-2.2,0-.11.11-.14.2-.17s0-.07-.1-.07.56-.28.67-.37l0,.14.07,0c0,.2,0,.37.27.37,0,.09,0,.14.1.14V50h.16V50h.1v.06c.25,0,.19.07.5.1v.07a.88.88,0,0,1,.31,0v.07a.69.69,0,0,1,.33,0l0,.07a1,1,0,0,0,.36.07c0,.09,0,0,0,.13.15-.07,0,0,.34,0v.1c.32,0-1.4,2.46-1.57,2.67-.34.41-.91,1.23-1.41,1.27a4.09,4.09,0,0,1-.7,0c-.1,0-.16-.33-.33-.27s-.28.33-.47.34C8.34,54.79,8,54.45,7.4,54.35Z"/><path class="fb7c9496-d092-40ec-9dff-1c9997455e2f" d="M13,19l0,.1c1.76,0,1.75,1,1.84,2.67H15v.1h-.07a5.89,5.89,0,0,1-.33,1.67h.06c.05.13,0,.07,0,.2h-.1c0-.12,0-.07,0-.17-.2.1-.3.56-.47.77s-.67.5-.67.74c-.37,0-.5.72-.67,1a1.79,1.79,0,0,0-.47-.1v-.07l.1,0c0-.17-.49-.47-.66-.47.08-.16-.93-1.3-1.14-1.37.14-.29-.17-1-.17-1.37,0-1.06,1.2-2.1,1.84-2.74l.13.06,0-.1h-.17a.43.43,0,0,0,.27-.4C12.74,19.35,12.81,19,13,19Z"/><path class="fb7c9496-d092-40ec-9dff-1c9997455e2f" d="M11.44,19.72c-.09.19-.54.11-.54.37-.72-.18-1.92,1.12-2.1,1.67h.1c0,.23-.07.12-.07.3h-.1c0,.26,0,.17-.06.3s.05,0,.1.1H8.7c0,.24,0,.12,0,.37.11,0,0,0,.2,0v.07H8.8c-.19.55.38,1.35.93,1.17,0,.1,0,0,0,.16h-.1l0,.14c.49.24.32.85,1.07,1v.07a.46.46,0,0,1-.26-.07c0,.22.23.31.4.37v-.14a.78.78,0,0,1,.2.24c-.12,0,0,0-.2.06.23.12.27.4.53.5l-.06.07a1.69,1.69,0,0,1,.5.67c-.1.1-.07,0-.07.2-.13,0-.23.11-.17.23a1.08,1.08,0,0,0-.26.14A4.4,4.4,0,0,0,10,26l.07-.06.13.06c-.62-1.25-2.06-2.19-2.3-3.64H7.83c0-1.37,1.25-2,2.44-2.37v-.07A6,6,0,0,1,11.44,19.72Z"/><path class="fb7c9496-d092-40ec-9dff-1c9997455e2f" d="M53.58,27.78a.42.42,0,0,0,.23,0v-.11c-.47,0-.32-.85-.23-1.2h-.07a2.16,2.16,0,0,0-.16-.7l.1,0c-.09-.05-.07,0-.07-.1h-.07c0-.82-1.22-2-1-2.78h-.13v-.06a.41.41,0,0,0,.37-.27,30.28,30.28,0,0,1,1.47,4.71h.07c0,.18-.07,0-.07.33h.07c0,1.11-2.1,2.84-1.84,3.61h-.07v-.26a11.29,11.29,0,0,0-.6,2.47h-.2a7.3,7.3,0,0,1,.17-2.14c.07-.27.46-.69.46-.87H52c.07-.15,0-.06.3-.1,0-.15-.11-.08-.2,0,.11-.15.38-.74.57-.74v.17h.13a.47.47,0,0,0,0-.23h-.1c.07-.16.25-.44.43-.44-.09-.18.36-.71.43-.93l.14.06V28h-.14A.68.68,0,0,1,53.58,27.78Z"/><path class="fb7c9496-d092-40ec-9dff-1c9997455e2f" d="M61.1,33.33l-.23.26c-.12-.05-.17-.24-.2-.36-.09.08,0,.05-.14.1a.65.65,0,0,0-.6-.71c0-.39-1.87-.8-2.27-1,.14-.28.47-.57.47-.9h-.07v-.07c.34-.11.17-.81.13-1.07,0-.44-.7-.89-.7-1.27s.37-.73.47-1h-.07v-.07c.48-.1.51-1,.87-1.27.17.33.73.56.84.87-.1.05-.08.12-.1.23h.16v.07c-.46,0-.44,1.49-.46,1.84C59.15,29.79,60.16,33,61.1,33.33Z"/><path class="fb7c9496-d092-40ec-9dff-1c9997455e2f" d="M59.36,24.6l-.16,0c0-.23.3-.41.3-.67l.16,0V23.8H59.6c0-.69.49-1.22.43-2s-1.55-.75-1.17-1.7c0-.1.64.32.74.37v-.07c-.34,0-.71-1-.71-1.24a6.69,6.69,0,0,1,1.64,2.38h.07a8.1,8.1,0,0,1,.4,2.17,8,8,0,0,0,.43,1.07,7.86,7.86,0,0,1,.21,2.94h-.07a1,1,0,0,0-.5-.64l.06,0c-.39-.4-.25-1.45-.33-1.94-.32.16-.51,1.34-.64,1.71-.79-.4.34-2.93.21-3.88-.12.06-.21.4-.21.53H60.1c-.09.61-.8,1.15-.8,1.64,0,.29.21.79.23,1.1C59.21,25.85,58.3,24.6,59.36,24.6Z"/><path class="fb7c9496-d092-40ec-9dff-1c9997455e2f" d="M58.33,24.47l-.07-.07c-.15.08-.28,0-.43,0s-.15-.3.06-.3V24l-.17,0a4,4,0,0,1,.07-1.54l0,.07c.08,0,.06,0,.06-.1h-.1a1.59,1.59,0,0,1,.14-.47L58,22c0-.32-.05-.5.3-.5v-.07h-.2a2.73,2.73,0,0,0,.34-1.64l.2,0v-.07c-.19,0-.19-.06-.14-.23h-.06c0-1.93-.69-1.69-1.74-2.74l.13,0c0-.76,1.32.55,1.51.74.52.52.58,2.94,1.27,2.94v.07c-.25-.13-.46-.28-.71-.4-.07.62-.46,1.32-.46,1.93l.1,0v.1c-.11-.06-.05,0-.2,0a7.82,7.82,0,0,0-.1,2.17h.06v.07h.1C58.39,24.46,58.42,24.42,58.33,24.47Z"/><path class="fb7c9496-d092-40ec-9dff-1c9997455e2f" d="M18.46,7.83h.23c0,.09,0,0,0,.13h-.23v-.1c-.47.35-.75,1-1.2,1.37l0,.07A17.27,17.27,0,0,0,15.48,11c.17-.25.36-.75.64-.84-.06-.17.17-.43.33-.43-.19-.59,1.34-1.51,1.34-2.14,0,0,3.63-2.89,1.64-.9-.16.15-.29.33-.44.5Z"/><path class="fb7c9496-d092-40ec-9dff-1c9997455e2f" d="M53,17.72c-.19-.38.7-1,.7-1.47,2.36-.11,4.61.61,4.78,3.21h.06c0,.11,0,0,0,.2a.28.28,0,0,1,.17,0v.07a5.33,5.33,0,0,1-1-.17v-.07a7,7,0,0,0-1.37-.1v-.06c-.39.25-.55-.07-.84-.17.08-.15.23,0,.37-.1-.15-.61-1.58-.37-2-.4,0-.25.4-.32.4-.6.43-.11.75-.66,1.11-.84v.13a6.21,6.21,0,0,1,.73-.26c0-.18,0-.11-.1-.2-.05.11-1,.24-1.17.36A4.34,4.34,0,0,0,53.18,19l0-.1a.81.81,0,0,1-.3,0c0-.11-.18-.44-.27-.44C52.54,18.06,52.61,17.89,53,17.72Z"/><path class="fb7c9496-d092-40ec-9dff-1c9997455e2f" d="M14.11,15.81c0-.22-.11-.72.14-.8a.49.49,0,0,1,0-.23h-.13c0-1.56-1-2.12-2.24-2.74-.31-.15-1.57-.44-1.64-.2-.14.48.31.57.43.93-.35.05-.4.08-.4-.23-.5-.08-.53-.73-.13-1s1.34,0,1.8.17c1.46.49,3.28,2.31,2.41,4l.07,0A.52.52,0,0,1,14.11,15.81Z"/><path class="fb7c9496-d092-40ec-9dff-1c9997455e2f" d="M14.51,14.74a2.93,2.93,0,0,0-.16-.93c.12,0,.07,0,.16,0,0-.26.44-.48.64-.63.08.15-.22.51-.3.67.54,0,1.78-2.44,2.74-2.44,0-.27,1-.93,1.27-.87l0-.07a1.33,1.33,0,0,1,.1.23h.1a.67.67,0,0,0,.1.31l-.33.23,0,.07-.1,0V11.3a28.1,28.1,0,0,0-2.44,2.07c.09.05.07,0,.07.1C16,13.33,14.9,14.55,14.51,14.74Z"/><path class="fb7c9496-d092-40ec-9dff-1c9997455e2f" d="M53,24.67a5.18,5.18,0,0,1-2.51-3c0-.21-.25-1.47.17-1.57l-.1,0c.13-.52.57-.83.7-1.31a6.7,6.7,0,0,1,.44-1.4c.08.16-.11.49-.14.6-.16.57.18.85.1,1.34h.07v.06h-.07a1.75,1.75,0,0,0,0,1.17c-.13-.06-.09-.21-.13-.33h-.07v-.34h-.07c0-.19,0,0-.06-.43-.77.38-.5,2.75.36,2.87v.07h-.16C51.16,23.29,52.68,24.07,53,24.67Z"/><path class="fb7c9496-d092-40ec-9dff-1c9997455e2f" d="M62.3,32.49a3.3,3.3,0,0,1,1-1c-.18-.35,0-.76-.17-1.14a6.85,6.85,0,0,0-2.47-2.57c.34-.69,2.53,1.92,2.74,2.27.91,1.52-.49,2.09-1.37,3,.19.09.3.34.4.53-.24,0-.41-.4-.6-.4-.39,0-.67.53-1.07.53C61,33.36,61.86,32.49,62.3,32.49Z"/><path class="fb7c9496-d092-40ec-9dff-1c9997455e2f" d="M55.75,39.07l.07-.1c0,.05.72.63.84.41l.1,0v.07c-.1,0-.06,0-.1.06.18.09.23,0,.23.27H57V40a.55.55,0,0,0-.53.67c-.1,0-.05,0-.14,0-.12.12-.23.2-.23.37a.2.2,0,0,0-.17.2c-.3,0-.62.75-.73,1h.23a.25.25,0,0,1-.23.14v-.07c-.9.9,1.16,1.55.4,2-.39.24-.5-.39-.77-.3,0-.16-.71-.55-.87-.6v-.14a.37.37,0,0,1-.2.07c0-.11,0,0,0-.2.13,0,.14-.1.24-.1,0-.45.39-.75.5-1.21l.07,0c0-.09,0-.05,0-.14s.07,0,.07-.16h-.07c.05-.21.4-.42.4-.7h-.1a10.07,10.07,0,0,0,.61-1.27h-.07v-.07h.1C55.46,39.35,55.55,38.77,55.75,39.07Z"/><path class="fb7c9496-d092-40ec-9dff-1c9997455e2f" d="M56.52,32.86a3.43,3.43,0,0,0,.14.5c0-.13,0-.08.1-.17,0,.18.12.64.33.7,0,.16-.17.37.13.27v.3c.1,0,.06,0,.1-.06,0,.14-.21.56,0,.56a1,1,0,0,1,0,.3c.19,0,.06-.1.2-.16v.13h.06v.1c-.13.05-.06.05-.2,0a9,9,0,0,0,.17,1.37,8.21,8.21,0,0,0-.1,1.81h-.07a3.1,3.1,0,0,1-.13.4c-.14,0-.2-.08-.33,0-.06-.16-.4-.42-.4-.1-.15-.07-.07-.21-.24-.26s0,.06-.1.06v-.13a1,1,0,0,1-.43-.17l0,.07-.1,0c.05-.1,0-.05,0-.17h-.07c0-.09,0-.06.1-.1v.17a4.44,4.44,0,0,1,.07-1h-.07v-.07h-.07c.05-.09,0,0,0-.13h-.07c.18-.37,0-.89-.07-1.27-.15,0-.23-.14-.06-.14a1.65,1.65,0,0,0-.34-.83l-.07.06c0-.14,0-.21,0-.33a.47.47,0,0,1-.24,0v-.1c.13,0,.09,0,.14.06.21-.1.13-.33.27-.4v.07h.06a.88.88,0,0,0,0-.3c.09,0,.07-.1.17-.1l0,.1a.71.71,0,0,0,.63-.74l.2,0C56.35,32.87,56.31,32.94,56.52,32.86Z"/><path class="fb7c9496-d092-40ec-9dff-1c9997455e2f" d="M58.76,47.93a1.88,1.88,0,0,0-1.17-1.84V46l-.13,0,0-.1c-.13,0-.35-.19-.47-.27,0-.16.07-.48-.1-.57.09,0,.07,0,.07-.1h-.07c0-.29.29-.47-.16-.7.15-.38,1.07-.5,1.07-.9l.2,0c-.08.12,0,.08-.14.13,1.72.86,2.06,1.24,2.51,3a.33.33,0,0,0-.17.23c0,.36-1.07.59-1.07,1C59,47.76,58.92,47.85,58.76,47.93Z"/><path class="fb7c9496-d092-40ec-9dff-1c9997455e2f" d="M55.45,27c.13.07.29.34.4.34v.06h.07v.07c-.34,0-.24.25-.37.5h.1v.07h-.1c0,.26,0,.13-.06.37h.06v.1h-.06a5.63,5.63,0,0,0,.9,3.31h-.1a.36.36,0,0,0,0,.2h.07c0,.19-.24.32-.37.43.18.06.16.23,0,.23,0-.08,0,0,0-.13-.23.18-.41.4-.64.57-.17-.26-.13-.16-.13-.4h-.07a1.68,1.68,0,0,0,0-.4c-.09,0-.07,0-.07.1-.13-.46.14-1.15-.4-1.51.06-.16-.17-.41-.33-.46v-.07h-.07c0-.32-.42-.35-.47-.67s.58-.82.7-1.07v.07c.26,0,.25-.11.54,0v-.1H55c0-.2,0-.11,0-.26h-.14c0-.19.15-.3.24-.47V28h.1v-.1h-.07a2.44,2.44,0,0,1,.2-.7h-.06C55.23,27.11,55.36,27.14,55.45,27Z"/><path class="fb7c9496-d092-40ec-9dff-1c9997455e2f" d="M63.31,31.49c-.27,0-.37.39-.57.57s-1.35-.38-1.57-.4v-.07c-.32,0-.25.07-.4.3a4.2,4.2,0,0,1-.71-1.14c.23-.05.09,0,.41,0,0-.7.46-1.41.43-2.24,0-.36-1-1.12-.87-1.27.47.24,1.77,1.24,1.77,1.77,0,.69-.57,1.29-.57,1.91.21,0,.39,0,.61.07v.06C62.14,31.1,63.13,31.14,63.31,31.49Z"/><path class="fb7c9496-d092-40ec-9dff-1c9997455e2f" d="M59.73,28a11.54,11.54,0,0,1-.07,1.67,5.46,5.46,0,0,0,1.94,3.21c-.61.92-.94-.12-1.3-.67a5.51,5.51,0,0,1-1.1-3.84c0-.35.07-1.2.46-1.27V27H59.5a.35.35,0,0,1,0-.2c.18,0,.4.27.53.4C59.84,27.4,60,27.88,59.73,28Z"/><path class="fb7c9496-d092-40ec-9dff-1c9997455e2f" d="M10.57,43.79c-.13,0-.17-.19-.2-.3l0,.13h-.07c.16-.33.05-1.86,1-1.54l0-.06c.31-.21.67-.31.87.1-1.95,1-.84,1.28.4,2.1.07-.21.11-1,.57-.83.09,0,.23.09.23.2h.17a.39.39,0,0,1-.07.23c.26,0,.2,0,.27.1a.42.42,0,0,0-.3.17h.06v.06l-.1,0v-.07a1.56,1.56,0,0,0-.7,1.14h.1c0,.28-.2.72-.06,1.13-.78-.39.16-.8-.41-1.37C11.88,44.63,10.76,44.36,10.57,43.79Z"/><path class="fb7c9496-d092-40ec-9dff-1c9997455e2f" d="M52.88,29.85a4.3,4.3,0,0,1-.07,1.4h.1v.07h-.06c-.1.37.14.56.26.8-.17.18.11.76.37.67,0,.1,0,.05-.07.14l.24,0V33h.1c0,.31-.06.82.4.6.15.3-.18.3-.1.53-.25,0-.37.29-.37.54-.13,0-.23.29-.23.4-.19,0-.2.26-.2.4s0,0,.2,0c0,.11-.1.11-.1.21-.19,0-.37-.1-.37.16l-.1,0,0,.16c-.19-.06-.1.07-.23.14h.07c0,.09,0,.13.1.13-.11.06-.18,0-.27.1v-.07a.34.34,0,0,0-.17.34h-.13c0-.5-.2-1-.2-1.47H52A6.78,6.78,0,0,1,52,33.83h-.1c0-.33-.17-1.21.37-1.21v-.06h-.23A5.34,5.34,0,0,1,52.88,29.85Z"/><path class="fb7c9496-d092-40ec-9dff-1c9997455e2f" d="M13.44,49.3c0-.25,0-.18-.16-.23a2.21,2.21,0,0,0,.46-1.64c.09,0,.07,0,.07-.1-.18,0-.38-.86-.47-1.1h-.1c.12-.06.07-.16,0-.27h-.17l.13,0c0-.31-.23-.51-.36-.77.1-.06,0,0,.2-.07v.07c.11,0,.05-.07.16-.07,0-.22.31-.55.47-.67-.1-.19.17-.13.27-.2a2.55,2.55,0,0,0,1.4.67l0,.17c.36.18.17.61.17.87.15,0,.11,0,.16.1l-.3-.07a1.35,1.35,0,0,1-.47.57H15c0,.09,0,.06-.13.06v-.06a1.51,1.51,0,0,0-.63.73,2.27,2.27,0,0,0,.5.07c0,.2-.34.06-.47.1v-.1a.6.6,0,0,0-.37.8,1.93,1.93,0,0,0,.34,0v.1c-.19,0-.67.54-.57.73C13.53,48.93,13.51,49.19,13.44,49.3Z"/><path class="fb7c9496-d092-40ec-9dff-1c9997455e2f" d="M13.48,38.11h.1c-.05.08,0,0,0,.13-.18.06-.46-.17-.56,0l.06,0c-.08,0-.06,0-.06.1-.16,0-.14,0-.14-.2l-.73,0c-.1-.49-.25-1-.34-1.47h-.1c.25-.37.06-.89.07-1.34a13,13,0,0,1,.77-2.7c.26,0,.85.78.93,1,.61,0,.47,1.17.54,1.37h-.07A6,6,0,0,0,13.48,38.11Z"/><path class="fb7c9496-d092-40ec-9dff-1c9997455e2f" d="M57.49,49.17v-.24a.51.51,0,0,0-.27,0c.16-.32-1.34-1-1.6-1.11V47.8l-.13,0c-.05-.26-1.44-1.57-.17-1.57,0-.12.71-.27.87-.44l0,.14c.12-.06.2,0,.2-.17l.2,0c0-.09,0-.06.07-.1,0,.16,0,.09,0,.2l-.1,0a2.19,2.19,0,0,0,.54.3c0,.12.6.56.73.6,0,.3.16.21.1.54.19,0,.28-.17.44-.17,0,.17-.07.08-.07.27-.47,0-.28.3-.4.67l.1-.07c0,.09.1.13.13.23h-.06V48.2C57.71,48.2,57.54,48.81,57.49,49.17Z"/><path class="fb7c9496-d092-40ec-9dff-1c9997455e2f" d="M62,47.93c0-1.76,1.43-1.37,2.27-2.54.72-1-.27-1.74-1.17-1.84l.2,0c0-.24.09-.17.34-.13v.06c.46-.23.81.57,1.07.57,0,.91.27,1.37-.57,2-.27.19-1.64.67-1.67,1S62.56,47.93,62,47.93Z"/><path class="fb7c9496-d092-40ec-9dff-1c9997455e2f" d="M58.83,47.9c.14-.08.15-.14.33-.14,0-.23.89-.74,1.07-.83.72-.36-.55-2.69-1-3.11.07-.13.24,0,.24-.17h-.34a2.77,2.77,0,0,1-.06-1.4l.16.07v-.1c.12,0,.06,0,.14-.14l.1,0c0,.16,0,.09,0,.23h.1a.82.82,0,0,1,0,.23h-.07c0,.05.26,1.4.23,1.44.16,0,.19.12.24.27h.06c0,.1.08.16.1.27.52,0,.66,2.15.51,2.47h.1c-.11,0-.16,0-.2.13l.1,0v.13a.53.53,0,0,0-.24,0V47.3c-.43.21-.88.5-1.33.73l0-.13Z"/><path class="fb7c9496-d092-40ec-9dff-1c9997455e2f" d="M61.1,27.68c-.39,0-.31-.11-.4.07-.36-.19-2.33-2-2.24-2.31h-.13a4.67,4.67,0,0,0-.5-1c.13,0,.34,0,.43-.07C58.78,25.92,60.29,26.46,61.1,27.68Z"/><path class="fb7c9496-d092-40ec-9dff-1c9997455e2f" d="M14,40.21c-.17-.08-.13-.28-.2-.43l.07,0a.59.59,0,0,1-.07-.16l-.07,0c0-.82-.52-.76-1.27-.64,0,0,0,.07,0,.1h.07c0,.1,0,0,0,.14l-.07,0h.1v.07l-.1,0c.1,0,0,0,.17,0v.13c-.13,0-.08-.06-.17,0l.1,0v.06c.31.07.61.75.7,1-.16,0-.1-.07-.2,0a.33.33,0,0,0,.3,0c.23.68,1.19,1.48.3,2.07.26.25,1.49.36,1.37-.2C14.87,41.88,13.77,41.06,14,40.21Z"/><path class="fb7c9496-d092-40ec-9dff-1c9997455e2f" d="M57.36,40l0,.1,0-.07c.14.07.22.17.37.17l0,.1c.17.11.06.06.33.13v.1H58a2.72,2.72,0,0,0,.2.61h.06c-.11.23,0,.51,0,.76h.07V42h-.07c-.13.53-.52.71-.8,1.14l.06,0c-.13,0-.43,0-.43.24-.38,0-.74.42-1,.56,0-.15.07,0,.07-.26-.63,0-.35-1.24-.3-1.57.18,0,.33-.26.4-.41-.09,0-.07,0-.07-.1l.1,0c0-.14,0-.22.14-.27v.14c.25,0,.57-.68.7-.87l0,.1A2.31,2.31,0,0,1,57.36,40Z"/><path class="fb7c9496-d092-40ec-9dff-1c9997455e2f" d="M52.75,29.42c0,.16,0,.09,0,.23h-.13v-.17c-.21,0-.25.44-.44.44,0-.62-.1-1.35-.1-1.91H52c0-.36-.15-1.83.27-2V26h-.07l0-1.87a2.08,2.08,0,0,1,1,1.34c0,.1,0,.17.13.17v.06h.07c-.16.08,0,.54.06.7l-.06-.26h-.17V26c0,.16,0,.11-.1.17h.07c-.38.18-.36,1.43-.27,1.7-.51,0-.44,1.3-.4,1.47C52.68,29.38,52.62,29.38,52.75,29.42Z"/><path class="fb7c9496-d092-40ec-9dff-1c9997455e2f" d="M11.77,48V47.7c-.19.19-.36.35-.56.53l0,.07c-.12,0-.05,0-.2.1l0,.07c-.13-.07-.16.06-.27.13l.07.07c-.09,0-.07,0-.07.1-.5,0-.87.8-1.33,1h.06l0,.1-.13-.06a10.05,10.05,0,0,1,3-2.91C12.41,47.07,12,48,11.77,48Z"/><path class="fb7c9496-d092-40ec-9dff-1c9997455e2f" d="M17,19.62h-.07c0-.37-.46-.58-.53-.9a5.09,5.09,0,0,0-.34-1.17c0,.21.12,1.79-.37,1.31l-.06,0a6.8,6.8,0,0,1,.56,1.3c.06-.3.1-.6.17-.9a5.86,5.86,0,0,1,.1,3.68c.18,0,.45-.54.5-.71l.1.07v-.07H17c0-.1,0,0,.06-.16l.07.06V22h-.07A3.45,3.45,0,0,0,17,19.62Z"/><path class="fb7c9496-d092-40ec-9dff-1c9997455e2f" d="M13.41,12.91c.09-.44-.69-.5-1.1-.71a4.37,4.37,0,0,0-.94-.33c-.52-.12-1.13-.37-1.13.27,0,.44,1.12,1.12,1.4,1.4a9.23,9.23,0,0,0,.94.94A2.8,2.8,0,0,0,13.41,12.91Z"/><path class="fb7c9496-d092-40ec-9dff-1c9997455e2f" d="M14.61,35.4a.56.56,0,0,0-.06-.17A13.7,13.7,0,0,0,14,36.94h.1a6.59,6.59,0,0,1,0,.83l0-.23a.62.62,0,0,1-.31,0v-.06h-.1l0,.13h.1v.07c-.23,0-.18,0-.23.13,0-.34,0-2.53.5-2.71a.36.36,0,0,0,0-.2c.45-.22-.37-1-.44-1.17-.14,0-.23-.29-.37-.36,0-.09,0-.06.1-.1l-.06,0c.05-.1,0-.06.16-.06v.1c.1,0,.05,0,.14,0,0-.29,0-.16.06-.4.06.12.13.1.27.13s0,0,0,.14l-.07,0a17.62,17.62,0,0,0,1,2.2Z"/><path class="fb7c9496-d092-40ec-9dff-1c9997455e2f" d="M12.84,40.58h-.06v-.07h-.07c0-.16-.18-.31-.23-.47s.06,0,.1-.16c-.28-.06-.48-.6-.57-.87-.13,0-.3.06-.3-.1h-.07l0-.14-.07,0c.06.39-.13.49-.13.8h.1c0,.12,0,.13-.14.13v-.13A2.72,2.72,0,0,0,12.48,42c.16.16.95.9,1.06.33S13,41.13,12.84,40.58Z"/><path class="fb7c9496-d092-40ec-9dff-1c9997455e2f" d="M63,32.29a7.35,7.35,0,0,1,.56-.67c.15-.09.6.5.67.57a3.51,3.51,0,0,1,.64,3.24c-.41,0-.32-.48-.87-.3V35h-.07a.31.31,0,0,1,.1-.13l0,.1h.21c-.19-.36,0-.78-.14-1.17a10.23,10.23,0,0,0-.43-.94h-.07l0-.07C63.46,32.82,63.3,32.29,63,32.29Z"/><path class="fb7c9496-d092-40ec-9dff-1c9997455e2f" d="M58.83,20.63a2,2,0,0,1,1.2,2c0,.35-.43.79-.43,1.13h.06v.07h-.13c-.08.24-.33.48-.33.7l.13,0c-.33,0-.49.41-.54.71-.07-.16-.3-.32-.3-.51,0-.43.74-1.25.74-2.1C59.23,22.05,58.31,21.14,58.83,20.63Z"/><path class="fb7c9496-d092-40ec-9dff-1c9997455e2f" d="M14,32.42c-.47-1.39-1.05-3.13-.57-4.57.07.14.25.43.4.43l0,.1a3.32,3.32,0,0,1,1,1.5c0,.3-.62.68-.67,1s-.14.89-.16,1.4c.17,0,.1,0,.2.13C14,32.38,14.08,32.37,14,32.42Z"/><path class="fb7c9496-d092-40ec-9dff-1c9997455e2f" d="M9.23,16.65c.58-.57,3.85-3,3.85-.84-.23-.11-2-.24-2.11.2a.73.73,0,0,0-.43.07c.09.05.06,0,.06.14C10.08,16.22,9.7,16.65,9.23,16.65Z"/><path class="fb7c9496-d092-40ec-9dff-1c9997455e2f" d="M51.41,22.23c0-.22-.06-.17.07-.23-.07-.13-.26-1.27.1-1.27,0,.32.37,2.1.76,2.1a4.1,4.1,0,0,0,.57,1.67c-.79,0-1.2-1.59-1.47-2.14l.2,0v-.07Z"/><path class="fb7c9496-d092-40ec-9dff-1c9997455e2f" d="M42.72,7.76c-.11,0-.24,0-.33,0v-.1A2.2,2.2,0,0,1,42,7.59V7.53c-1,0-2.24-.8-3.28-1,.3,0,.21,0,.34-.1-.38-.19.66-.06.77,0s0,0,.06-.1.06,0,.1.17h.1v.07a2.83,2.83,0,0,1,.5.13v.07A5.27,5.27,0,0,1,42.72,7.76Z"/><path class="f5d4f226-db85-4192-97da-9ec9b47578c0" d="M9.1,46.63v-.37l.07,0,0-.2H9a.56.56,0,0,0,0-.23H8.93c0-.24,0-.14,0-.3H8.83c-.11-.47-.68-.63-1.1-.74v-.06a7.67,7.67,0,0,1-1.17-.17v.23c-.15,0-.18.06-.13.2a9.84,9.84,0,0,1,1.7.34c0,.13.13.2.07.33h.13C8.33,46.26,8.49,46.63,9.1,46.63Z"/><path class="fb7c9496-d092-40ec-9dff-1c9997455e2f" d="M18.79,15c-.15,0-.64.49-.57.63h-.13v-.07c-.6.3-2.73,1-3,.4C15.59,15.41,18.79,14,18.79,15Z"/><path class="fb7c9496-d092-40ec-9dff-1c9997455e2f" d="M18.66,47.36c.11-.06.1-.1.1-.23a.69.69,0,0,0-.47,0c0-.28,0-.2.13-.4-.17,0-.17.13-.36.13l0-.1c.13-.08.1,0,.1-.17l-.1,0,0-.27a.69.69,0,0,1-.13.43l-.14,0c.19-.09,0-.54-.06-.7-.11,0-.05,0-.21,0a.5.5,0,0,1,.07-.27h-.07c.15-.29,0-.86.41-1.06s1.3,1.9,1.5,2.2c-.12,0-.12.17-.23.17l0,.17c-.05-.1,0-.06-.13-.1a2,2,0,0,1-.07.5A.63.63,0,0,0,18.66,47.36Z"/><path class="fb7c9496-d092-40ec-9dff-1c9997455e2f" d="M58.33,26.07a4.52,4.52,0,0,0-1,1.94h.17v.07a.66.66,0,0,1-.54-.4c-.09.05,0,0-.16,0s0,0,0-.17h-.13a.39.39,0,0,1,.06-.4c-.12-.06-.06,0-.06-.23,0,.09,0,.07-.1.07v-.07c.12,0,.08,0,.13-.1.11.06.06.1.2.1s0-.05,0-.13,0-.05.13,0c.22-.34,1-1.06,1-1.41H58c0-.09,0-.06.13-.06,0-.09,0,0,0-.14.18.09.17.27.37.27C58.46,25.61,58.27,26,58.33,26.07Z"/><path class="fb7c9496-d092-40ec-9dff-1c9997455e2f" d="M53.35,22c-.21,0-.2,0-.2-.2l.1,0v.1a.91.91,0,0,1,.33,0c0-.19-.06-.13-.27-.13v-.07c-.13-.05-.09,0-.13-.13-.1,0-.07,0-.07.13-.47-.16-.33-1.07-.13-1.47.27.54,1.05.91,1.4,1.5.19.31-.17.66,0,.94-.16.08-.07,0-.07.33h.2v.07c-.33,0-.11.22-.3.4-.07-.11-.17-.43-.3-.43a.73.73,0,0,0-.07-.24C53.65,22.83,53.31,22.15,53.35,22Z"/><path class="fb7c9496-d092-40ec-9dff-1c9997455e2f" d="M54.92,14.14c.13.31-1.41,2-1.81,1.41-.21-.32.46-1.38.6-1.67,0-.09.43-1.19.54-1.14C54.53,12.88,54.77,13.8,54.92,14.14Z"/><path class="fb7c9496-d092-40ec-9dff-1c9997455e2f" d="M12.24,46c0-.29.3-.29.24-.67-.15-.82-1.66-.83-1.91-1.57-.13,0-.17-.19-.2-.3a2.17,2.17,0,0,0,.5,1.4c-.09,0-.06,0-.1.07a.72.72,0,0,1,.6.53h.07v.07c.09,0,.05,0,.13,0l0,.1.06-.06C11.77,45.76,12.07,45.86,12.24,46Z"/><path class="fb7c9496-d092-40ec-9dff-1c9997455e2f" d="M9.53,47.7c.44,0,1.79-.53.74-.74l0,.1c-.14,0-.17,0-.17-.13H9.83c.47-.07.31-.85.57-.9s.81.36,1.14.4c-.07.14,0,.18.1.3-.38.37-.79.88-1.17,1.3h.1v.1c-.37-.07-.35.4-.67.4,0-.23-.05-.12-.1-.33C9.61,48.2,9.53,47.86,9.53,47.7Z"/><path class="fb7c9496-d092-40ec-9dff-1c9997455e2f" d="M50.17,41.11v.07h.14v-.1h-.1c.12-.13,0-.12.2-.07V41h-.1c.68-.69.62-.45,1.2-.64,0,.09,0,.06-.07.1.08.15,0,.06.3.13v.07h-.16c0,.23,0,.33-.17.47.07.22-.51.77-.7,1,.09,0,0,0,.13,0,0,.15-.23.15-.23.33l0-.16C49.77,43.83,49.76,41.94,50.17,41.11Z"/><path class="fb7c9496-d092-40ec-9dff-1c9997455e2f" d="M35.67,6.72c.17-.34.78-.45.87-.8h-.1s1.21-.19,1.4-.23.64-.53.64-.17h.6a1.43,1.43,0,0,1-.6.1c.33,0,.15,0,.53.07v.07c-.37,0-.43.47-.37.76C37.62,6.52,36.65,6.72,35.67,6.72Z"/><path class="fb7c9496-d092-40ec-9dff-1c9997455e2f" d="M61.84,28.81c.43.87,1.73,1.27,1.4,2.58-.1,0-.05,0-.13-.07S61.57,30.25,61.57,30A4.84,4.84,0,0,1,61.84,28.81Z"/><path class="fb7c9496-d092-40ec-9dff-1c9997455e2f" d="M13.38,12.91c.59.3.73,1.3.77,1.87h.13a.49.49,0,0,1,0,.23h-.07l0,.47,0-.23a2.29,2.29,0,0,1-1.53-.71A5.84,5.84,0,0,1,13.38,12.91Z"/><path class="fb7c9496-d092-40ec-9dff-1c9997455e2f" d="M12.17,27.64a3.35,3.35,0,0,1,.41,1.64h.06v.07h.1v.3h-.06a5.46,5.46,0,0,1-.41,1.74c-.13-.07-.13-.11-.2-.24.38-.38.25-2.46-.5-2.57.12-.08.07-.08.17,0,0-.31.2-.48.2-.77a.63.63,0,0,1-.27,0C11.78,27.53,12,27.73,12.17,27.64Z"/><path class="fb7c9496-d092-40ec-9dff-1c9997455e2f" d="M13,43.35c-.44,0-.5.59-.5.9-.48-.48-2.07-.9-1.3-1.67.24-.24.64-.27.87-.5a3.07,3.07,0,0,0,.93.67C13,43,12.91,43.08,13,43.35Z"/><path class="fb7c9496-d092-40ec-9dff-1c9997455e2f" d="M54.72,35.2a10.2,10.2,0,0,0,.3,1.87c.13,0,.16,0,.3,0v.07a.6.6,0,0,0-.24,0l0,.23h.07a4,4,0,0,1-.1.5c-.42,0-.88-.56-1-.93h-.17a5,5,0,0,0,.37-1.24H54a.24.24,0,0,1,.33-.13.4.4,0,0,1,0-.2h-.16c.05-.12,0-.07.2-.07,0-.16,0-.17-.17-.17,0-.08,0-.06.1-.06C54.35,34.8,54.68,35,54.72,35.2Z"/><path class="fb7c9496-d092-40ec-9dff-1c9997455e2f" d="M18.09,42.78l0-.1.1,0c-.2-.41-1.77-1.58-.7-1.94.05.19,2.2,1.83,1.17,2.24C18.61,43.05,18.19,42.8,18.09,42.78Z"/><path class="fb7c9496-d092-40ec-9dff-1c9997455e2f" d="M60,30.75A5.23,5.23,0,0,1,60,27.41c.1.3.66.43.81.77a3.57,3.57,0,0,1-.3,2.57A1.3,1.3,0,0,0,60,30.75Z"/><path class="fb7c9496-d092-40ec-9dff-1c9997455e2f" d="M14.88,17.75c0-.09,0-.05.1-.1-.27,0-.49-.45-.7-.67,0,0,.22-.3.23-.3.37,0,.74,0,1.11,0,0,.14,0,0,.06.14.27.44.56,3-.13,2A6.81,6.81,0,0,0,14.88,17.75Z"/><path class="fb7c9496-d092-40ec-9dff-1c9997455e2f" d="M51.58,20.73c-.31,0-.16,1.16-.1,1.27-.13.06-.07,0-.07.23-.44-.88-.95-2.06-.13-2.87,0,.1-.07.46.13.46v.34h.07c0,.37.31.44.6.5,0,.19-.06.3.13.3,0,.3,0,.18,0,.37-.09-.18-.09,0-.14-.3h-.13V21h-.1c0-.1,0,0,0-.17h-.1c0-.16,0-.12-.13-.16Z"/><path class="fb7c9496-d092-40ec-9dff-1c9997455e2f" d="M58.36,22.06c.1,0,0,0,.17,0V22c-.25-.09,0-.59.1-.77.27.81.83,1.32.53,2.37-.13.47-.51.78-.67,1.24-.15-.15-.1-.32-.1-.5h-.1v-.07h-.06c0-.18,0-.09-.07-.27l.1,0a1,1,0,0,1,.23-.64l.07,0v-.1h-.07A5.22,5.22,0,0,0,58.36,22.06Z"/><path class="fb7c9496-d092-40ec-9dff-1c9997455e2f" d="M56.39,27.91c0,.11.19.07.3.1l0,.1h-.1c.13.14.11.16.33.2,0,.75-.19,1.43-.23,2.24h.06c0,.36-.06.7.37.77,0,.14-.06.11-.1.27-.1,0-.1.07-.2.07,0-.25-.27-1-.5-1,.12-.24-.07-.74-.14-1h-.1c.05-.09,0-.07.1-.07a2.72,2.72,0,0,0,0-.5h-.07C56.13,28.73,56.08,28.11,56.39,27.91Z"/><path class="fb7c9496-d092-40ec-9dff-1c9997455e2f" d="M31.26,5.49l0-.1h-.07v-.1a.46.46,0,0,1-.26,0V5.19a3.06,3.06,0,0,1-.51-.1V5c-1.61,0-3.22-.23-4.87-.2A18.75,18.75,0,0,1,31,5.35v.07C31.09,5.42,31.14,5.49,31.26,5.49Z"/><path class="fb7c9496-d092-40ec-9dff-1c9997455e2f" d="M59.76,26.41c-.2-.81.76-2.4.61-3.51-.12.06-.21.4-.21.53H60.1c-.09.61-.8,1.15-.8,1.64,0,.29.21.81.23,1.14C59.69,26.21,59.67,26.31,59.76,26.41Z"/><path class="fb7c9496-d092-40ec-9dff-1c9997455e2f" d="M46.8,7.53c-.39,0-.78-.44-1.17-.51V7c-.17,0-.26-.11-.44-.14V6.76H45V6.69a3.25,3.25,0,0,1-.73-.23c0-.12.05-.2,0-.3.2,0,.34.07.53.13.08-.12,0-.08.14-.13C45.12,6.74,46.3,7.15,46.8,7.53Z"/><path class="fb7c9496-d092-40ec-9dff-1c9997455e2f" d="M19,47.2l.1,0v.07c0-.13.17-.31.3-.31,0,1.37-.15,1.45-1.54,1.54-.2,0-.51.15-.6,0s1-.36,1.07-.37C18.78,48.05,18.88,47.64,19,47.2Z"/><path class="fb7c9496-d092-40ec-9dff-1c9997455e2f" d="M14.11,36.94H14a9.47,9.47,0,0,1,.54-1.71c0,.7.4,1.51.4,2.24.17,0,.11,0,.2.13-.1.1,0,.07-.2.07l.06,0-.13-.07s-.37.33-.37.4h.07V38a1.21,1.21,0,0,0-.53,0v-.23H14C14.16,37.66,14.09,37.19,14.11,36.94Z"/><path class="fb7c9496-d092-40ec-9dff-1c9997455e2f" d="M52.14,16c-.71.1-2.13,0-2.13-1,0-.13.27-.3.4-.33.72-.18,1,.48,1.37,1C51.88,15.74,52.45,15.91,52.14,16Z"/><path class="fb7c9496-d092-40ec-9dff-1c9997455e2f" d="M63.17,34.33c0-.14,0-.07,0-.2a4.85,4.85,0,0,0-.54-.3v-.07c-.12,0-.16-.08-.27-.13.14-.27-.33-.4-.33-.6s.29-.25.37-.31c.79-.56.58-.29,1.17.1,0,0,0,0,.06,0l0,.07h.07C63.45,33.41,63.94,34.2,63.17,34.33Z"/><path class="fb7c9496-d092-40ec-9dff-1c9997455e2f" d="M13.74,26.78c.24-.35.48-.69.71-1a.56.56,0,0,1,.06.17h.07c0,.15.12.28.17.43h.06a11.06,11.06,0,0,0,.37,1.51c-.33-.17-.51-.54-.9-.61l0-.1C14.11,27,14,26.85,13.74,26.78Z"/><path class="fb7c9496-d092-40ec-9dff-1c9997455e2f" d="M12.64,50.37v-.13l.2,0c0-.15.11-.16.24-.1,0-.26.08-.26.33-.26v-.41c.09.56.14.49.5.31v.13H14c0,.1,0,.05.07.13a.43.43,0,0,1,.43-.23c-.1.21,0,.24.1.4h.07v.07c-.12,0-.24-.22-.34,0h.1a2.15,2.15,0,0,0,0,.44c-.07,0-.16.12-.16.2h-.17l0-.07h-.26l0,.13,0-.16c-.1,0-.1.06-.2.06v-.06h-.1v-.1c-.29,0-.19,0-.34,0,0-.09,0,0,0-.13a1.9,1.9,0,0,1-.36-.07l0-.07Z"/><path class="fb7c9496-d092-40ec-9dff-1c9997455e2f" d="M60.2,26.54a1.39,1.39,0,0,1,.7.34l0-.14a1.89,1.89,0,0,0,.2.27l-.06,0a.91.91,0,0,1,.5.64h.1a4.22,4.22,0,0,0,.13.57C61.38,28,60.11,27,60.2,26.54Z"/><path class="fb7c9496-d092-40ec-9dff-1c9997455e2f" d="M15.15,30.79c.1.05.2.05.2.16h-.1a1.88,1.88,0,0,0,0,.71c.14,0,.12,0,.17.16h-.14a2.92,2.92,0,0,1-.4,1.31l.07.1c-.15.14,0,.06-.4.1v-.1l.23,0a3.21,3.21,0,0,0-.07-.43c-.12.06-.17,0-.23-.1l.17,0v-.33c-.16.1-.06.07-.3.07,0-.22.1-.23.3-.27,0-.23-.26-.43.06-.43A1.8,1.8,0,0,1,15.15,30.79Z"/><path class="fb7c9496-d092-40ec-9dff-1c9997455e2f" d="M55.35,13.31v.06h.07v-.1h-.07a3.54,3.54,0,0,0,0-.86c-.29-1.06-1.1-.26-1.1.33a3.07,3.07,0,0,0,.4.84c0,.06.24.63.33.56C55.2,14,55.15,13.41,55.35,13.31Z"/><path class="fb7c9496-d092-40ec-9dff-1c9997455e2f" d="M14.45,15.25v-.74l0,.23c.57-.28,1-.93,1.6-1.13A4,4,0,0,1,14.45,15.25Z"/><path class="f5d4f226-db85-4192-97da-9ec9b47578c0" d="M6.39,49.13c.21,0,1.09-.2.27-.2.08-.24-.09-.25.2-.36l-.17,0c.06-.1,0-.06.17-.06,0-.23,0-.15,0-.27.13-.09.06-.08.2,0,0-.12,0-.08.06-.13l0,.27h.06v.1l-.1,0a1.5,1.5,0,0,1,0,.47c.09-.18.07-.17.3-.17v.1h.1c-.08-.16.08-.13.2-.16,0,.56-1.24,2-1.24.83h-.1Z"/><path class="f5d4f226-db85-4192-97da-9ec9b47578c0" d="M4.89,37.17c-.47.12-1.76-1.5-1-2C4.28,35,5.21,37.09,4.89,37.17Z"/><path class="fb7c9496-d092-40ec-9dff-1c9997455e2f" d="M63.07,31.32a10.83,10.83,0,0,1-1.23-.27V31a1.83,1.83,0,0,1-.61-.07,3.14,3.14,0,0,1,.34-.94C61.85,30.56,62.87,30.71,63.07,31.32Z"/><path class="fb7c9496-d092-40ec-9dff-1c9997455e2f" d="M58.26,20.83c-.37-.19-.66-.54-1.07-.54v-.13a2.39,2.39,0,0,1-.94-.4c.65-.32,1.92.45,2.14.9C58.3,20.71,58.34,20.75,58.26,20.83Z"/><path class="fb7c9496-d092-40ec-9dff-1c9997455e2f" d="M62.64,32.06a9.4,9.4,0,0,0-1.47-.4v-.07c-.79,0,0,1,.33,1.23s.48-.33.8-.33C62.37,32.3,62.52,32.22,62.64,32.06Z"/><path class="fb7c9496-d092-40ec-9dff-1c9997455e2f" d="M64.41,36.5c.41.61.16,1.15.37,1.77h.16v.14h-.23v-.14c-.16.32-.27.68-.43,1A4.58,4.58,0,0,1,64.41,36.5Z"/><path class="fb7c9496-d092-40ec-9dff-1c9997455e2f" d="M52.14,16l.14-.07c-.58-.19-.92-.82-1.24-1.3C52.73,14.5,53.18,16.05,52.14,16Z"/><path class="fb7c9496-d092-40ec-9dff-1c9997455e2f" d="M15.18,19.69v.07h.07v.06h-.07c0,.33.43.92.5,1.31h.07a3.58,3.58,0,0,1-.47,2l.2,0c-.2,0-.25,0-.33.17-.13-.4.35-.85,0-1.2.09-.09,0-.08.17,0A13.23,13.23,0,0,1,15.18,19.69Z"/><path class="fb7c9496-d092-40ec-9dff-1c9997455e2f" d="M53.45,30.69c.51.12.5,1,.93,1.1a8.6,8.6,0,0,1-.16,1.2c-.16-.24-.46-.55-.57-.77h.06c.06-.17-.09-.44-.13-.63-.09,0,0,0-.13,0,.17-.08,0-.65,0-.8h-.07Z"/><path class="fb7c9496-d092-40ec-9dff-1c9997455e2f" d="M53.55,27.34a1.87,1.87,0,0,1,0,.67h.14v.1h-.14v-.06c-.07.23-.53.72-.43.93-.26,0-.3.4-.5.4,0-.17-.14-1.47.4-1.47C53,27.69,53.38,27.48,53.55,27.34Z"/><path class="fb7c9496-d092-40ec-9dff-1c9997455e2f" d="M53.25,24c-.21-.62-.87-1.47-.87-2.11,0-.11.28-.21.33-.1l0-.07a3.8,3.8,0,0,0,.06.87h.07c0,.41.24.69.3,1.07h.07v.1h.06C53.36,24,53.38,23.9,53.25,24Z"/><path class="fb7c9496-d092-40ec-9dff-1c9997455e2f" d="M57.26,29c.53.53.68,1.88-.1,2.27a1.59,1.59,0,0,0-.14-.4h-.26c0-.09.09-.07.2-.1a6.52,6.52,0,0,1,.1-1.17H57Z"/><path class="fb7c9496-d092-40ec-9dff-1c9997455e2f" d="M11.51,28.61c.05.17.13.48.3.54-.15.14.21,1.14.26,1.3-.12.06-.05.36-.2.44s-.21-.2-.26-.27a2.15,2.15,0,0,1-.37-1.54h-.07c0-.22-.06-.17.07-.23V29h.07A.49.49,0,0,1,11.51,28.61Z"/><path class="fb7c9496-d092-40ec-9dff-1c9997455e2f" d="M52,21h-.13V21h-.1c0-.1,0,0,0-.17h-.1c0-.16,0-.12-.13-.16a4.19,4.19,0,0,0,.57,2.14C52.94,22.38,52.15,21.68,52,21Z"/><path class="f5d4f226-db85-4192-97da-9ec9b47578c0" d="M10.07,21.19l0,.07c-.7.71-.16,1.89-.16,2.71C9.42,22.94,9,22.09,10.07,21.19Z"/><path class="fb7c9496-d092-40ec-9dff-1c9997455e2f" d="M10.07,46.93V47c.1,0,0,0,.17,0V47c1.13-.18-.11.64-.74.71,0-.18-.09-.27.1-.27l-.17,0v-.07l-.1,0c.05-.08,0-.06.1-.06v-.1H9.3c0-.16,0-.12-.07-.17-.1.16,0,.29-.26.23-.06.12,0,.06-.2.1,0-.12,0-.15.13-.1s0-.06.17-.06l0-.51a1.13,1.13,0,0,1,.4.07v.1A4.27,4.27,0,0,1,10.07,46.93Z"/><path class="fb7c9496-d092-40ec-9dff-1c9997455e2f" d="M54.05,27a16.21,16.21,0,0,1-.34-1.77c.11.2.77.52.67.7.33,0,.2.46.24.74h.16v.06A4.93,4.93,0,0,0,54.05,27Z"/><path class="fb7c9496-d092-40ec-9dff-1c9997455e2f" d="M12.88,32.19l0,.07-.13-.07a4.12,4.12,0,0,0,.23-.84l-.13.07c.28-.57.71,1.19.9,1.57C13.34,32.8,13.22,32.31,12.88,32.19Z"/><path class="fb7c9496-d092-40ec-9dff-1c9997455e2f" d="M18,46.39l.06.2h.1c0,.14,0,.09-.1.17l0,.1c.19,0,.19-.13.36-.13,0,.19-.13.11-.13.4a1.48,1.48,0,0,1,.47,0c0,.13,0,.17-.1.23l.06,0a1,1,0,0,1-1.13.4A2.7,2.7,0,0,0,18,46.39Z"/><path class="fb7c9496-d092-40ec-9dff-1c9997455e2f" d="M53,27.81c-.08-.24-.11-1.44.27-1.57l-.07,0c.11-.06.06,0,.1-.17.21.08.12.4.3.4,0,.43-.27,1,.23,1.2v.11a.56.56,0,0,0-.23,0,1.82,1.82,0,0,0,0-.44A5.08,5.08,0,0,1,53,27.81Z"/><path class="fb7c9496-d092-40ec-9dff-1c9997455e2f" d="M61,26.84a11.7,11.7,0,0,0-.2-1.77c-.39.19-.25,1.09-.57,1.41.22.14.45.25.67.4l0-.14Z"/><path class="fb7c9496-d092-40ec-9dff-1c9997455e2f" d="M16.35,19.32a9,9,0,0,0,.17,2.78C17,22.1,16.87,19.84,16.35,19.32Z"/><path class="fb7c9496-d092-40ec-9dff-1c9997455e2f" d="M19.09,48.36c.15-.44.2-.3.37-.76.06-.17.16.31.23.46a1.92,1.92,0,0,1,.27.87C19.86,49.39,19,48.58,19.09,48.36Z"/><path class="f5d4f226-db85-4192-97da-9ec9b47578c0" d="M6.06,36.43c.84.42.66.83.6,1.84C6.56,37.89,5.9,36.74,6.06,36.43Z"/><path class="fb7c9496-d092-40ec-9dff-1c9997455e2f" d="M14.11,15.25a4.67,4.67,0,0,1-1.17-.37,1.21,1.21,0,0,0,1.17,1Z"/><path class="fb7c9496-d092-40ec-9dff-1c9997455e2f" d="M10.2,41.51c-.12-.63-.46-1.74-.06-2.34a4.2,4.2,0,0,0,.26,1.11c-.19.1-.06,0-.06.47h.13v.06C10.29,40.81,10.27,41.34,10.2,41.51Z"/><path class="fb7c9496-d092-40ec-9dff-1c9997455e2f" d="M63.71,32.93a2.54,2.54,0,0,1,.43,1.87C63.42,34.08,63.54,34.14,63.71,32.93Z"/><path class="fb7c9496-d092-40ec-9dff-1c9997455e2f" d="M52.24,20.16h-.06a5.19,5.19,0,0,1,.47-.47,13.82,13.82,0,0,1-.31,1.44h.14v.23h-.1v-.1c-.2.1-.07,0-.07.47a2,2,0,0,1-.1-.77h-.1C52.11,20.62,52.24,20.43,52.24,20.16Z"/><path class="fb7c9496-d092-40ec-9dff-1c9997455e2f" d="M52.08,19.52a2.83,2.83,0,0,1,.43-1.33l.07.26h.07a.85.85,0,0,0,.23.44A9.62,9.62,0,0,1,52.08,19.52Z"/><path class="fb7c9496-d092-40ec-9dff-1c9997455e2f" d="M54.25,55.28v.07l.13,0a1,1,0,0,1,0-.3h-.16a.25.25,0,0,1,.23-.13,5.21,5.21,0,0,0,.27,1.57.34.34,0,0,1-.2,0v-.07h-.07C54.45,56.13,53.68,55.57,54.25,55.28Z"/><path class="f5d4f226-db85-4192-97da-9ec9b47578c0" d="M3.82,33.93a1.84,1.84,0,0,1,.37-1.44,6.73,6.73,0,0,1,.23.8h.07a.82.82,0,0,0,.06.27C4.33,33.67,4.08,33.93,3.82,33.93Z"/><path class="fb7c9496-d092-40ec-9dff-1c9997455e2f" d="M12.61,51.51v.1h.2v.1c-.18,0-.27-.06-.4,0l.07,0c-.36,0-.58.34-1,.34-.07-.21-.14-.42-.2-.64A5,5,0,0,1,12.61,51.51Z"/><path class="f5d4f226-db85-4192-97da-9ec9b47578c0" d="M9,43.15v.14h.07c0,.1.1.1.1.2,0-.17,0-.09,0-.24.13,0,.08.1.23.1l0-.13c.1.1,0,.07.2.07-.11.05-.29.5-.4.3l0,.06-.13,0c-.08.11-.09.12,0,.23H9v-.13l0,.1c-.12,0-.3-.06-.3.1C8.29,43.92,8.8,43.15,9,43.15Z"/><path class="fb7c9496-d092-40ec-9dff-1c9997455e2f" d="M63.14,38.47c0,.27.24,2-.13,2.14C63,39.41,62.58,39.6,63.14,38.47Z"/><path class="fb7c9496-d092-40ec-9dff-1c9997455e2f" d="M58.16,24a6.65,6.65,0,0,1,.17-1.87,1.72,1.72,0,0,1,.16,1.17h.07v.1c-.21,0-.27.42-.3.6Z"/></g></g></g></svg>