<svg xmlns="http://www.w3.org/2000/svg" viewBox="0 0 34.79 37.8"><defs><style>.ffcc943d-bddd-4218-9515-19ea3e6beceb{fill:#272323;stroke:#272323;}.a21c4996-b924-4e15-bb58-ab6f8ece0bd5,.a26de5bf-aef6-4436-b6f0-7c850abc8cd6,.a2905dc1-6d50-4705-84fb-97069ecdf26b,.a3fd7016-f795-40a4-8fcf-ba99ed9e17f2,.ab7c610b-bd32-44d4-98b6-54bfc9ffb56c,.ad68072b-5402-4d69-b14b-36abf8c94aa2,.adab8c0a-5c76-435c-8a79-0131af75b424,.ae44185e-36bd-4187-8ada-c8094cdfed60,.b07659fe-4893-43cd-8a04-9dfe4819c9dd,.b4835db6-0cb2-4665-9b84-1cdba18d24c8,.b96354bf-5d77-4de7-acc1-acf5fc030e79,.bd24a319-021d-420f-a591-af9d2855285e,.e64c8670-f6f1-4100-b537-ab937f2ad3d3,.f36cbc2d-a17d-4357-97ca-f4f14fec58d6,.f460d0ae-b95c-45a6-abe0-96f884df8045,.f7b8960e-9e24-4c5b-8604-37244e347257,.f7e71800-68f5-41f3-9957-1f41bd32d24d,.f93f3a3b-036d-40c8-9d56-127f079491c3,.ffcc943d-bddd-4218-9515-19ea3e6beceb{stroke-linecap:round;stroke-linejoin:round;stroke-width:0.21px;}.ab7c610b-bd32-44d4-98b6-54bfc9ffb56c{fill:#272424;stroke:#272424;}.a2905dc1-6d50-4705-84fb-97069ecdf26b{fill:#a61a03;stroke:#a61a03;}.a21c4996-b924-4e15-bb58-ab6f8ece0bd5{fill:#232020;stroke:#232020;}.a3fd7016-f795-40a4-8fcf-ba99ed9e17f2{fill:#6c1d15;stroke:#6c1d15;}.b07659fe-4893-43cd-8a04-9dfe4819c9dd{fill:#d7d7d7;stroke:#d7d7d7;}.e64c8670-f6f1-4100-b537-ab937f2ad3d3{fill:#d3cbc4;stroke:#d3cbc4;}.f460d0ae-b95c-45a6-abe0-96f884df8045{fill:#747374;stroke:#747374;}.bd24a319-021d-420f-a591-af9d2855285e{fill:#eaeaea;stroke:#eaeaea;}.ad68072b-5402-4d69-b14b-36abf8c94aa2{fill:#7e7e7e;stroke:#7e7e7e;}.b4835db6-0cb2-4665-9b84-1cdba18d24c8{fill:#6c6b6b;stroke:#6c6b6b;}.f36cbc2d-a17d-4357-97ca-f4f14fec58d6{fill:#e9e9e9;stroke:#e9e9e9;}.ae44185e-36bd-4187-8ada-c8094cdfed60{fill:#f1f1f1;stroke:#f1f1f1;}.adab8c0a-5c76-435c-8a79-0131af75b424{fill:#4b4543;stroke:#4b4543;}.b96354bf-5d77-4de7-acc1-acf5fc030e79{fill:#4d3d2c;stroke:#4d3d2c;}.f7e71800-68f5-41f3-9957-1f41bd32d24d{fill:#eed8d4;stroke:#eed8d4;}.f7b8960e-9e24-4c5b-8604-37244e347257{fill:#302824;stroke:#302824;}.a26de5bf-aef6-4436-b6f0-7c850abc8cd6{fill:#fdf8f0;stroke:#fdf8f0;}.f93f3a3b-036d-40c8-9d56-127f079491c3{fill:#858585;stroke:#858585;}</style></defs><g id="f2da0be7-a919-4e38-b728-36a4d17af0b7" data-name="Layer 2"><g id="a168d056-d10f-45be-a655-8ce0ed966396" data-name="Layer 1"><g id="e5d80ddc-b8d5-4ae1-b3e2-1fd7a0853bc2" data-name="ace1f301-f7cd-46fd-a683-628e412c5ecf"><g id="ab432fde-c776-4805-934b-79b6d05f8b6a" data-name="aa6f313f-e931-45be-ae3d-ea555996f14c"><g id="a2df580d-96e8-4503-bae5-5efcef737826" data-name="b2785e40-e8bb-4fd2-b059-601b29ea3c39"><path class="ffcc943d-bddd-4218-9515-19ea3e6beceb" d="M34.62,14.62c.49-2-2-2.09-1.61-1.39-3.32,1.66-7,4.25-10.9,4.31-2.78.05-5.56.07-8.34.08-1.49,0-3-.45-4.54-.59l.08-.14a13.49,13.49,0,0,1-1.76-.3l.08-.14a10.17,10.17,0,0,1-1.39-.3V16c-.76,0-1.68-.77-2.42-1v-.15c-.39,0-.75-.41-1.09-.58.22-.45.93.11,1-.59.15-1.19-1.84-1.12-2.56-.58-1.07.8-1,1.32-1.09,2.63a1.46,1.46,0,0,1,.52.07c0-.29.23-.4.36-.66,1.93,3.85,4,7.55,6.14,11.18,1.83,3.05,3.25,6.32,5.71,8.78,2.8,2.81,8,2.59,10.38-.51,3.55-4.73,4.64-11.52,8.85-15.72C32.78,18.14,33.85,14.62,34.62,14.62Z"/><path class="ab7c610b-bd32-44d4-98b6-54bfc9ffb56c" d="M25.4.87a.69.69,0,0,1-.07.15c1.52,0,2.44.86,3.8,1.32v.22c2.34.58,6.67,6,3.59,8.11-1.9,1.26-4.14.15-6.22.15-1.54,0-3,.73-4.61.73-2.25,0-2.92-5-2.92-6.44C19,1.73,22.91.87,25.4.87Z"/><path class="a2905dc1-6d50-4705-84fb-97069ecdf26b" d="M18.53,27.93c-1,0-2-1.36-3-1.76A6.69,6.69,0,0,0,9,27.34c.16.32.26.64.59.81-.17.32.42,1.16.73,1.31-.11.33.07.51.36.66-.2.41.59.87.59,1.24l.22.08-.08.14c.24.24.67.62.67,1h.14c.14.4.53.62.66,1h.22c0,.54,1.41,1.38,1.9,1.47a.91.91,0,0,1-.07.14c1.17,0,1.76.76,3.14.37,2-.57,7.8-6.1,6.66-8.78C24.19,25.63,18.53,25.43,18.53,27.93Z"/><path class="a21c4996-b924-4e15-bb58-ab6f8ece0bd5" d="M12,.87V1a5.56,5.56,0,0,1,1.39.51c0,.83,2.45,1.5,2,2.93h.14c0,.74-.38,2.46-.07,3.07l-.15.07.08.15c-.18.18-.34.42-.22.65-.32.16-.11.47-.22.74-.86,2-1.72,2.41-4,2.41-.82,0-1.6-.53-2.42-.59-1.36-.08-4.87.92-6,.08C-1.33,8.15,3.44,2.56,7,1.68A18.15,18.15,0,0,1,12,.87Z"/><path class="a3fd7016-f795-40a4-8fcf-ba99ed9e17f2" d="M16.63,35.75c2.85-.26,9.37-5.88,8-9-.68-1.6-4.94-.61-6.14.58-.25-.37-.55-1-1-1.24.87-1.74,6.74-1.47,8,.58.28.47-.87,2.66-1.09,3.22C23,33.48,20.83,36.31,16.63,35.75Z"/><path class="b07659fe-4893-43cd-8a04-9dfe4819c9dd" d="M13,18.71c-1.27-2.33-5.14-.84-7.6-1.82A10.36,10.36,0,0,1,2,14.84c-.13-.13-.11-.35-.37-.22-.09,0,1.5,2.63,1.68,2.92C4.58,19.65,14.38,21.31,13,18.71Z"/><path class="e64c8670-f6f1-4100-b537-ab937f2ad3d3" d="M20.5,36.7c-.24.49-1.28.67-1.75.8-3.41,1-6.24-1.9-7.9-4.38l.15-.07c2.43,2.43,3.94,4,7.9,4C19.46,37.07,20,36.7,20.5,36.7Z"/><path class="f460d0ae-b95c-45a6-abe0-96f884df8045" d="M24.31,18.27c1.37,2.75,8.12-3.62,8.77-3.94,0,3.6-6.95,4.92-9.21,4.17C24,18.29,24.08,18.35,24.31,18.27Z"/><path class="bd24a319-021d-420f-a591-af9d2855285e" d="M24.31,18.27c2.82,0,5.78-2.37,8.19-3.58a.69.69,0,0,0,.07.15C31.81,15.6,25.45,20.56,24.31,18.27Z"/><path class="ad68072b-5402-4d69-b14b-36abf8c94aa2" d="M13,18.71h.88c0,4.1-9.2,2-10-.44C6.2,18.27,11.54,23,13,18.71Z"/><path class="b4835db6-0cb2-4665-9b84-1cdba18d24c8" d="M20.43,18.86l.59-.15c.67,2.71-3.42,3.77-5.42,2.27-.37-.28-1.52-1.76-.8-2.12C14.8,22,21.14,21,20.43,18.86Z"/><path class="f36cbc2d-a17d-4357-97ca-f4f14fec58d6" d="M24.09,3.65c2.05-.54,3.76,3.36,1.09,4A2.08,2.08,0,1,1,24.09,3.65Z"/><path class="f36cbc2d-a17d-4357-97ca-f4f14fec58d6" d="M9.46,3.65c2-.39,3.4,3.41.95,4A2.07,2.07,0,1,1,9.46,3.65Z"/><path class="ae44185e-36bd-4187-8ada-c8094cdfed60" d="M20.43,18.86c0,2.56-4.94,2.74-5.63,0Z"/><path class="adab8c0a-5c76-435c-8a79-0131af75b424" d="M17,11.84c2.11-.52,3.08,2.36,1.1,2.93C15.5,15.51,14.63,12.43,17,11.84Z"/><path class="b96354bf-5d77-4de7-acc1-acf5fc030e79" d="M19.41.22C19.75.09,20.5,0,20.5.36s-1,.88-1.09,1c-.37.36-.27,1.3-.73,1.53C17.48,3.44,18.12.69,19.41.22Z"/><path class="f7e71800-68f5-41f3-9957-1f41bd32d24d" d="M13.27,26.9a14.06,14.06,0,0,1-3.29,1C10.4,27,13,24.77,13.27,26.9Z"/><path class="f7b8960e-9e24-4c5b-8604-37244e347257" d="M16.19,1l.22.07-.07.15h.14a2.76,2.76,0,0,0,.08,1.46C16.1,3,14.88.81,14.14.44,14.63.19,16.19.14,16.19,1Z"/><path class="a26de5bf-aef6-4436-b6f0-7c850abc8cd6" d="M18.16,15.13c1.27.06,1.29,1.33.15,1.39-1.37.07-4.35-.85-.88-1.24A5,5,0,0,1,18.16,15.13Z"/><path class="f93f3a3b-036d-40c8-9d56-127f079491c3" d="M22,18.64c.62,0,1.55,2.05,2.34.88C25.31,20,22,21.17,22,18.64Z"/><path class="a21c4996-b924-4e15-bb58-ab6f8ece0bd5" d="M8.86,5.56a.86.86,0,0,1,.86-.85.85.85,0,0,1,0,1.7A.86.86,0,0,1,8.86,5.56Z"/><path class="a21c4996-b924-4e15-bb58-ab6f8ece0bd5" d="M24.09,5.62a.79.79,0,0,1,.76-.82.79.79,0,1,1,.06,1.58h0A.77.77,0,0,1,24.09,5.62Z"/></g></g></g></g></g></svg>