<svg xmlns="http://www.w3.org/2000/svg" xmlns:xlink="http://www.w3.org/1999/xlink" viewBox="0 0 182.25 164"><defs><style>.b52eedf8-5b54-462e-ad0d-df447fa43452{fill:none;}.b056d122-4df8-49ce-80b4-bc12f09184fa{clip-path:url(#a476eb7b-fbf8-44ba-818a-385e991df6c0);}.fe990b32-5755-4b8d-a6fe-1c0816ef6224{fill:#6e441a;}.aa8a8193-4e6e-401d-8467-6ac2cdcaf45f,.b79d50fc-266e-493f-8b10-9f51864c8592,.b8f88ae1-7404-4f22-afd8-fe0b2a892840,.bba6120b-05bf-4b1f-8870-3dba9f92573b,.eba3873f-cd09-4e44-8c79-bb89a09b0b2c,.f410dba6-7268-447b-9aa2-1ef036693c94,.fe990b32-5755-4b8d-a6fe-1c0816ef6224{stroke:#10100f;stroke-miterlimit:10;}.aa8a8193-4e6e-401d-8467-6ac2cdcaf45f{fill:#b3601c;}.b79d50fc-266e-493f-8b10-9f51864c8592{fill:#f3fafc;}.eba3873f-cd09-4e44-8c79-bb89a09b0b2c{fill:#cfedf1;}.f410dba6-7268-447b-9aa2-1ef036693c94{fill:#151322;}.bba6120b-05bf-4b1f-8870-3dba9f92573b{fill:#100f0f;}</style><clipPath id="a476eb7b-fbf8-44ba-818a-385e991df6c0" transform="translate(36.25 -36.45)"><path class="b52eedf8-5b54-462e-ad0d-df447fa43452" d="M97.07,42H70.76c-2.58-2.61-5.07-5.43-6.17-9,0-.14-.09-.28-.13-.42a17.77,17.77,0,1,0-19.82-.18c-.38,2.4-.78,4.81-2.56,6.66-.91,1-1.87,2-2.87,2.94H12.5A12.46,12.46,0,0,0,0,54.44v87.91a12.45,12.45,0,0,0,12.5,12.4H42.34v-.07a5.43,5.43,0,0,1-.63-.88c-.07-.1-.13-.21-.19-.31s-.05-.11-.07-.16-.05-.07-.07-.06a17.77,17.77,0,1,1,32.84-9.37,17.26,17.26,0,0,1-3,9.84v0a12.16,12.16,0,0,1-.71,1H97.12a12.44,12.44,0,0,0,12.44-12.45V54.44A12.44,12.44,0,0,0,97.07,42Z"/></clipPath></defs><g id="eb7a4ae2-98a2-4f15-ad0c-d4e247afbdb0" data-name="Layer 2"><g id="b195d730-0dfc-4bc7-bf8a-a7761a4bb9e1" data-name="Layer 1"><g class="b056d122-4df8-49ce-80b4-bc12f09184fa"><path class="fe990b32-5755-4b8d-a6fe-1c0816ef6224" d="M140.46,70.69v83.54L121,158l-5.83-5-5.83,7.26v4.73l-6.35,5.6,6.35,5.58v23.84H84.51l-5.88-5.4-5.77,5.4H59.65l-5.23-7-6.43,7H34.78l-4.32-7-7.34,7H-1.74V176.1l5.87-5.39-5.87-5.79v-4.73l-5-5.8L-13.4,158l-19.43-3.72V70.69c0-6.82-6.57-31,0-33.61.42-.15,27.34,12.46,63.84,0L33,42.34H74.68l1.95-5.26,53.75,8.6c7.17,2.91,10.08,18.55,10.08,25Z" transform="translate(36.25 -36.45)"/><path class="aa8a8193-4e6e-401d-8467-6ac2cdcaf45f" d="M145.5,70.69v83.54L125,158l-6.17-5-6.17,7.26v4.73l-6.71,5.6,6.71,5.58v23.84H86.3l-6.23-5.4-6.1,5.4H60l-5.53-7c-.92.94-.64,17.49-.64-150.63H75.89L78,37.08l58.68,7.79C144.22,47.79,145.5,64.23,145.5,70.69Z" transform="translate(36.25 -36.45)"/><path class="b79d50fc-266e-493f-8b10-9f51864c8592" d="M120.36,93.67c-.55,2.57-.33.28-1,12.09l-15.86,5.06-18.47-5.9-15.72,6-15.54-6-15.54,6-15.73-6-18.46,5.9-15.81-5,.22-9.88-1.22-2.22L4.09,99l18.83-6,15.36,5.89,15.54-6,15.54,6L84.72,93l18.83,6Z" transform="translate(36.25 -36.45)"/><path class="eba3873f-cd09-4e44-8c79-bb89a09b0b2c" d="M120.36,93.67c-.55,2.57-.33.28-1,12.09l-15.86,5.06-18.47-5.9-15.72,6-15.54-6V93l15.54,6L84.72,93l18.83,6Z" transform="translate(36.25 -36.45)"/><path class="b79d50fc-266e-493f-8b10-9f51864c8592" d="M119.65,122.38l.4,10-16.5,5.27-18.47-5.9-15.72,6-15.54-6-15.54,6-15.73-6-18.46,5.9-15.81-5.05.42-8.84-1.42-3.26,16.81,5.37,18.83-6,15.36,5.89,15.54-6,15.54,6,15.36-5.89,18.83,6,16.81-5.37Z" transform="translate(36.25 -36.45)"/><path class="eba3873f-cd09-4e44-8c79-bb89a09b0b2c" d="M119.65,122.38l.4,10-16.5,5.27-18.47-5.9-15.72,6-15.54-6v-12l15.54,6,15.36-5.89,18.83,6,16.81-5.37Z" transform="translate(36.25 -36.45)"/><path class="f410dba6-7268-447b-9aa2-1ef036693c94" d="M-1.74,70.05v82.08L-13.4,149.9V70.05Z" transform="translate(36.25 -36.45)"/><path class="bba6120b-05bf-4b1f-8870-3dba9f92573b" d="M109.38,156.86V168H84.51v23.85H72.86V168H59.65v23.85H48V168H34.78v23.85H23.12V168H-1.74V156.86Z" transform="translate(36.25 -36.45)"/><path class="b8f88ae1-7404-4f22-afd8-fe0b2a892840" d="M109.38,156.86V168H84.51v23.85H72.86V168H59.65v23.85H53.82v-35Z" transform="translate(36.25 -36.45)"/></g></g></g></svg>