<svg xmlns="http://www.w3.org/2000/svg" viewBox="0 0 180.8 261.07"><defs><style>.e62691e4-03d2-482d-988f-da473b377351{fill:#7a8c99;}.e0580091-2506-442a-9199-e477cab58648{fill:#f4f5fb;}.a6e3d774-6361-4e8f-a5fd-0031d0143cd1{fill:#f4f6fb;}.b3112408-581b-46f4-b457-20d9382b52a9{fill:#394e5c;}</style></defs><g id="ad6d82fd-ac10-4ef6-bed7-9459ef396968" data-name="Layer 2"><g id="b1229c16-013e-43f9-9b51-c2a1825100da" data-name="Layer 1"><path class="e62691e4-03d2-482d-988f-da473b377351" d="M149.63,246.19c-7.19-4.15-16.51-3.1-22.52,5.88,4.41,3.6,9.8,6.25,27.7-3.73A22.91,22.91,0,0,1,149.63,246.19Z"/><path class="e62691e4-03d2-482d-988f-da473b377351" d="M73.15,251c8.35,2.88,18.69,4.77,33.23-.8a48.85,48.85,0,0,1-4.73-3.72C97.92,243,83.56,239,73.15,251Z"/><path class="e62691e4-03d2-482d-988f-da473b377351" d="M26,246.34h0s11.15,8.29,25.88.9c-5-3.14-9.66-6.22-13.42-6.83C32.83,239.49,30.44,243.65,26,246.34Z"/><path class="e0580091-2506-442a-9199-e477cab58648" d="M177.87,85l-.77,52.49L177,148.24l-.78,53.81L176,212.79l-.33,32.46H3.85l.33-32.46.17-10.74.78-53.81.15-10.74L6,85a86.56,86.56,0,0,1,45.9-74.92A85.47,85.47,0,0,1,92.3,0h1.82a83.49,83.49,0,0,1,83.75,85Z"/><path class="a6e3d774-6361-4e8f-a5fd-0031d0143cd1" d="M.39,242.4A6.53,6.53,0,0,0,5.23,251c6.61,1.35,10.73.09,13.9-1.85,4.95-3,7.61-7.66,13.85-6.63,4.18.69,9.4,4.13,14.91,7.64,9.72,6.18,20.31,12.56,27.61,4.36l0,0c11.86-13.28,28.22-8.81,32.46-5a57.63,57.63,0,0,0,5.4,4.12c7.65,5.23,20.28,11.68,25.58,3.77a24.82,24.82,0,0,1,1.77-2.32c7.09-8.26,17.76-9,25.87-4.94a29.23,29.23,0,0,0,5.86,2.14l.22.06a6.54,6.54,0,0,0,7.35-9.39"/><path class="b3112408-581b-46f4-b457-20d9382b52a9" d="M78.17,71.24c-7.21,0-13.06,10.3-13.06,20a11.82,11.82,0,0,0,.56,3.55c3.78,12.13,17.35,11.92,21.14-.21A11.82,11.82,0,0,0,87.37,91C87.37,81.33,85.39,71.24,78.17,71.24Z"/><path class="b3112408-581b-46f4-b457-20d9382b52a9" d="M110.3,71.24c-7.22,0-9.2,10.09-9.2,19.8a11.82,11.82,0,0,0,.56,3.55c3.78,12.13,17.35,12.34,21.14.21a11.82,11.82,0,0,0,.56-3.55C123.36,81.54,117.51,71.24,110.3,71.24Z"/></g></g></svg>