<svg xmlns="http://www.w3.org/2000/svg" viewBox="0 0 51.42 21.22"><defs><style>.b5e43aa0-0f35-464e-aa4e-73bee693e02f{fill:#080808;stroke:#080808;stroke-linecap:round;stroke-linejoin:round;stroke-width:0.56px;}</style></defs><g id="a41b86b6-1d81-465a-ae9c-c190c28635d8" data-name="Layer 2"><g id="f20d4a0d-473b-48c7-8e0f-5c24a2c49f61" data-name="Layer 1"><g id="e9eb27a0-30ae-4bca-9062-113b395a5905" data-name="edea71a9-37fe-4752-8277-00be880e958d"><g id="fb783b66-1f10-4ff3-8851-ef48d64b3c0e" data-name="af2553f5-df07-48ab-877d-21f241ec03f8"><path class="b5e43aa0-0f35-464e-aa4e-73bee693e02f" d="M13,.28h-.38C7.72.47,4.05,4.6,3.15,9.1A11.54,11.54,0,0,0,1,9.18c-1.07.27-.75,1.71-.12,2.18s1.5.12,2.25.12c.67,5.36,5,9.82,10.71,9.42a10.4,10.4,0,0,0,4.79-1.33A14.62,14.62,0,0,0,22,16.47c.42-.52.73-2.1,1.21-2.34a.57.57,0,0,1,.16-.48s.41-2.55.44-2.82h3.95c.92,5.55,4,10.11,10.22,10.11a17.26,17.26,0,0,0,4.51-1c1.75-.43,3.4-2.38,4.39-3.86.29-.44.45-1.18.81-1.53l0-.08.13-.12c-.06-.12,0-.15.08-.2l0-.08.08,0,0-.08.08-.05,0-.08.08,0a9.92,9.92,0,0,1,.44-2.13c0-.07-.07-.2,0-.2.78-.05,1.69.27,2.33-.16s.71-2-.08-2V9.22a2.17,2.17,0,0,0-.36-.12l-2,0c0-.28-.08-.51-.08-.8h-.08A1.45,1.45,0,0,1,48,7.53h-.08a.68.68,0,0,1-.08-.48h-.08c0-.15-.1-.17,0-.32-.15,0-.13-.08-.09-.2h-.08l0-.08h-.08l0-.08c-.12,0-.13-.06-.08-.16-.19-.1-.16-.41-.32-.49l0-.08h-.08l0-.08H47l0-.08H47l0-.08c-.2-.07-.09-.17-.24-.24l0-.08c-.1,0-.08,0-.08-.12h-.08l0-.08-.12,0c0-.15-.08-.07-.08-.24l-.12,0a5.67,5.67,0,0,0-2.46-2.41V2.06h-.12V2h-.12V1.9h-.12V1.82c-.15-.05-.08,0-.2,0V1.7a.74.74,0,0,0-.28-.08V1.54c-3.28-1.1-6.59-2-9.86-.09a11.18,11.18,0,0,0-2.54,1.94,10.25,10.25,0,0,1-1.13,1.33c-2.57,0-5.15-.06-7.72-.09V4.55l-.13,0c0-.53-1.12-.93-1.12-1.41a10.14,10.14,0,0,1-1.74-1.32c-.34-.12-.72-.53-1.08-.53V1.17A22.06,22.06,0,0,0,13,.28Zm.86,2.34c8.64-.12,10.64,14.57.61,15.82C12,18.75,11,17.9,9,17.23v-.08c-.16,0-.11-.12-.28-.12V17C8.32,16.81,7,15.57,7,15.14l-.13,0a.56.56,0,0,0-.24-.36l0-.08H6.57l0-.08a.36.36,0,0,1-.16-.12l0-.08H6.41l0-.08H6.37l0-.08H6.33c0-.11,0-.17-.08-.17l0-.08c-.12,0-.13-.05-.08-.16-.13,0-.13-.05-.08-.16-.13-.06-.13-.1-.08-.24H6l0-.08H5.93c0-.15-.06-.08,0-.2C5.71,13,5.61,12,5.61,11.76H5.53A9.34,9.34,0,0,1,6.42,7,8,8,0,0,1,9.11,4a8.51,8.51,0,0,1,3.38-1.24,7.38,7.38,0,0,1,1.32-.13Zm24.47.06a6.87,6.87,0,0,1,2.51.47c5.78,2.31,7.15,10.78,1.37,14.25a8,8,0,0,1-6.16.88c-.74-.24-1.43-.69-2.13-.92v-.08h-.13v-.09h-.12v-.08H33.5V17c-.45-.15-1.85-1.37-1.85-1.85l-.12,0c0-.12-.14-.26-.24-.36l0-.08a.36.36,0,0,1-.16-.12l0-.08c-.14,0-.12-.08-.12-.2H31l0-.08H31l0-.08h-.08l0-.09h-.08l0-.08h-.08l0-.08h-.08c0-.15-.06-.08,0-.2h-.08l0-.08h-.08l0-.08a.3.3,0,0,1-.12-.36h-.08c0-.49-.4-1-.28-1.49h-.09c0-.57-.31-1.82.08-2.21,0-.12,0-.38.08-.45-.36-.73.93-2.24,1.25-2.89C32.69,3.9,35.61,2.65,38.28,2.68ZM24.47,7.12h3.8A5.06,5.06,0,0,1,28,8.38c-1.47,0-2.95,0-4.43,0a9,9,0,0,0-.24-.89s-.18-.32-.08-.32Z"/></g></g></g></g></svg>