<svg xmlns="http://www.w3.org/2000/svg" xmlns:xlink="http://www.w3.org/1999/xlink" viewBox="0 0 620.95 720.57"><defs><style>.b4939d79-6c87-44d0-8fcb-1fbc7e85ccec,.b7af873f-d924-4f5a-a1e9-d57b8bd27c40{fill:#231f20;}.b7af873f-d924-4f5a-a1e9-d57b8bd27c40{stroke:#fff;}.a555aaf8-9655-4c0e-a2bf-971c189dfc35,.b7af873f-d924-4f5a-a1e9-d57b8bd27c40,.f5d0b7fb-1d48-48b6-983e-ec841fff2af7{stroke-miterlimit:10;}.a555aaf8-9655-4c0e-a2bf-971c189dfc35{fill:#fff;stroke-width:6px;}.a555aaf8-9655-4c0e-a2bf-971c189dfc35,.f5d0b7fb-1d48-48b6-983e-ec841fff2af7{stroke:#231f20;}.a907914e-7883-4c7a-8e05-51aaf9197148{fill:#27aae1;}.e275fee1-6f60-49ff-8905-5fe51f13f14f{fill:#010101;}.b27776fa-09b0-42b2-90c1-4899376a0b7a{fill:#ed1c24;}.f5d0b7fb-1d48-48b6-983e-ec841fff2af7{stroke-width:7px;fill:url(#abbb2ff2-a5cc-4de3-bd83-48d73c79c7e6);}.b629eb0b-56c3-41a9-8dfb-064aa77cf765{fill:#808285;}.a2022ee6-9875-42dd-b2b5-3f55fda91686{fill:url(#bf1901ab-87e3-4f92-83a4-e0e096390488);}.f8684b8a-54a5-4f87-8b13-52fd258fa0c3{fill:#ef4136;}</style><radialGradient id="abbb2ff2-a5cc-4de3-bd83-48d73c79c7e6" cx="318.6" cy="612.87" r="183.9" gradientUnits="userSpaceOnUse"><stop offset="0" stop-color="#c02026"/><stop offset="0.19" stop-color="#fff200"/><stop offset="0.32" stop-color="#00a94f"/><stop offset="0.48" stop-color="#00aeef"/><stop offset="0.65" stop-color="#ec008c"/><stop offset="1" stop-color="#00aeef"/></radialGradient><linearGradient id="bf1901ab-87e3-4f92-83a4-e0e096390488" x1="318.81" y1="110.82" x2="318.98" y2="264.13" gradientUnits="userSpaceOnUse"><stop offset="0" stop-color="#f26a6b"/><stop offset="0" stop-color="#f16b6c"/><stop offset="0.49" stop-color="#6fccdd"/><stop offset="0.77" stop-color="#c5e05d"/><stop offset="0.94" stop-color="#f7ec13"/></linearGradient></defs><g id="a3e838b7-4619-49be-bd6f-f6034d48660c" data-name="Layer 2"><g id="a5bf618f-39d3-44a9-b468-1070b2af88a5" data-name="Layer 1"><circle class="b7af873f-d924-4f5a-a1e9-d57b8bd27c40" cx="106.33" cy="98.13" r="97.63" transform="translate(-38.24 103.92) rotate(-45)"/><circle class="b7af873f-d924-4f5a-a1e9-d57b8bd27c40" cx="106.33" cy="98.13" r="62.03" transform="translate(-38.24 103.92) rotate(-45)"/><circle class="b7af873f-d924-4f5a-a1e9-d57b8bd27c40" cx="521.05" cy="102.76" r="97.63" transform="translate(79.95 398.54) rotate(-45)"/><circle class="b7af873f-d924-4f5a-a1e9-d57b8bd27c40" cx="521.05" cy="102.76" r="62.03" transform="translate(148.13 480.9) rotate(-56.55)"/><path class="a555aaf8-9655-4c0e-a2bf-971c189dfc35" d="M617.91,115.63l-6.19,554.23a48.27,48.27,0,0,1-48.78,47.71L50.68,711.84A48.24,48.24,0,0,1,3,663.06L9.2,108.83Z"/><circle class="a907914e-7883-4c7a-8e05-51aaf9197148" cx="445.9" cy="414.55" r="44.82" transform="translate(-155.67 508.34) rotate(-51.78)"/><circle class="e275fee1-6f60-49ff-8905-5fe51f13f14f" cx="445.9" cy="414.55" r="36.15" transform="translate(-99.26 685.63) rotate(-69.35)"/><circle class="b27776fa-09b0-42b2-90c1-4899376a0b7a" cx="169.6" cy="411.47" r="44.82" transform="translate(-262.24 303.83) rotate(-53.6)"/><circle class="e275fee1-6f60-49ff-8905-5fe51f13f14f" cx="169.6" cy="411.47" r="36.15" transform="translate(-154.72 106.69) rotate(-24.38)"/><path class="f5d0b7fb-1d48-48b6-983e-ec841fff2af7" d="M483.39,620.85c-.3,46.88-74.32,84.41-165.33,83.83s-164.55-39-164.25-85.92,74.3-98.28,165.31-97.7S483.69,574,483.39,620.85Z"/><path class="b629eb0b-56c3-41a9-8dfb-064aa77cf765" d="M386.16,475.17c-29.37,33.6-98.39,21.76-133.3-.85.28-44.31,34.21-147.69,67.69-147.48S386.45,430.85,386.16,475.17Z"/><path class="b4939d79-6c87-44d0-8fcb-1fbc7e85ccec" d="M384,460.75c8.68,12.65-18.95,43.88-65.35,43.68-46.4-.39-73.63-32-64.79-44.51,8.38-13.09,36.58-22.65,65.22-23.11C347.71,437.64,375.77,447.55,384,460.75Z"/><path class="a2022ee6-9875-42dd-b2b5-3f55fda91686" d="M344.46,112.58,343,242.35a24.85,24.85,0,1,1-49.7-.56L294.76,112Z"/><path class="b27776fa-09b0-42b2-90c1-4899376a0b7a" d="M616,289.15l-.55,49.69-64.25-.72a24.85,24.85,0,0,1,.56-49.69Z"/><path class="f8684b8a-54a5-4f87-8b13-52fd258fa0c3" d="M108.17,308.34a24.84,24.84,0,0,1-25.11,24.55L6.7,332l.56-49.7,76.36.86A24.84,24.84,0,0,1,108.17,308.34Z"/></g></g></svg>