<svg xmlns="http://www.w3.org/2000/svg" viewBox="0 0 52.09 29.93"><defs><style>.a515bf27-e75c-4303-8c59-8331ca626d0e{fill:#080808;stroke:#080808;stroke-linecap:round;stroke-linejoin:round;stroke-width:0.56px;}</style></defs><g id="f5ff2761-953b-4ecc-9482-41ef8c4d09cf" data-name="Layer 2"><g id="b33f356d-6fa9-40fa-b18e-de9887d4af3c" data-name="Layer 1"><g id="a168eb2e-773c-4f43-9129-3a0ff4fee207" data-name="be130616-bef6-49f7-b914-0a67c327cca7"><g id="a075baf5-67fa-4252-973d-926d97d43ce3" data-name="f420c347-3045-41fa-b767-14f8b308c452"><g id="ef446f8a-775d-4603-aa91-c96c92e28f61" data-name="e6f619ee-c5d2-42b3-b227-0288493920cd"><path class="a515bf27-e75c-4303-8c59-8331ca626d0e" d="M25.76.28h-.54c-6.9.26-12.12,6.14-13.4,12.54-.27,0-9.61.2-10.53.42-1.53.39-1.09,2.25-.2,2.91s9.6.05,10.67.05c1,7.63,7.17,14,15.24,13.4a14.8,14.8,0,0,0,6.81-1.89,20.26,20.26,0,0,0,4.76-4.41c.59-.74,1-3,1.71-3.32a.82.82,0,0,1,.23-.69c0-.05.59-3.62.63-4L51.59,15c.13-.35-.2-.65.1-.88s0,0-.1-.45.28-1.36-.21-1.9c-.31,0-7.91.06-8.22,0a3.25,3.25,0,0,1-1.55,0H40.8c-.09-.36-.18-.71-.28-1.06a5.8,5.8,0,0,1-.44-1.13l0-.06a3.09,3.09,0,0,0-.14-.43,18.11,18.11,0,0,0-1-1.92l0,0-.37-.62H38.4V6.36l-.17-.06c0-.76-1.61-1.32-1.61-2a14.43,14.43,0,0,1-2.46-1.89c-.49-.16-1-.75-1.55-.75V1.55C30.12,1.05,28.41.28,25.76.28ZM27,3.6c12.28-.16,15.12,20.74.87,22.52-3.47.43-4.85-.78-7.68-1.72v-.11c-.23-.08-.16-.18-.4-.18V24c-.61-.21-2.52-2-2.52-2.58l-.17-.05a.82.82,0,0,0-.35-.52l.06-.11h-.11l0-.12c-.16-.08-.08,0-.23-.17l.06-.12h-.11l.06-.11H16.4l.06-.11h-.11c.07-.15.07-.23-.12-.23l.06-.12c-.18,0-.19-.08-.12-.23-.18,0-.19-.08-.11-.23-.19-.09-.18-.14-.12-.34h-.11l.06-.11h-.12c-.07-.22-.08-.12,0-.29-.32-.16-.45-1.62-.45-1.95H15.2c0-2.69.09-4.47,1.26-6.81A11.36,11.36,0,0,1,20.3,5.56a11.84,11.84,0,0,1,4.81-1.77A10.8,10.8,0,0,1,27,3.6Z"/></g></g></g></g></g></svg>