<svg xmlns="http://www.w3.org/2000/svg" xmlns:xlink="http://www.w3.org/1999/xlink" viewBox="0 0 615.9 722.52"><defs><style>.a1c3ba81-9b66-44ed-a453-bc14faa8fdb1,.a4193a6e-01e2-4b86-bdd9-3e708c18eb21,.b5f23546-f429-44c4-8179-907088fdcafd,.b8beaeeb-6b82-4791-9b79-1d282cbaad1b{stroke:#fff;stroke-miterlimit:10;stroke-width:0.25px;}.b5f23546-f429-44c4-8179-907088fdcafd{fill:url(#b09f9b2f-bc46-4daa-bc9f-9c978dec3082);}.f21e0dd0-cd5c-453b-9607-fbc7f56bda2a{fill:#fff;}.a4193a6e-01e2-4b86-bdd9-3e708c18eb21{fill:url(#a2854f21-4b51-4305-91ef-050f741a7a12);}.ba9ea064-402b-455e-b8b9-7c31aa77fb84{fill:#010101;}.a1c3ba81-9b66-44ed-a453-bc14faa8fdb1{fill:url(#ba120bbb-ba44-4c6e-a094-782c642d5030);}.a6886884-d897-49a5-9aa6-d532262fc220,.b8beaeeb-6b82-4791-9b79-1d282cbaad1b{fill:#231f20;}</style><linearGradient id="b09f9b2f-bc46-4daa-bc9f-9c978dec3082" x1="0.13" y1="417.67" x2="615.77" y2="417.67" gradientUnits="userSpaceOnUse"><stop offset="0.01" stop-color="#e8f3dd"/><stop offset="0.45" stop-color="#4db74c"/><stop offset="1" stop-color="#cce4b8"/></linearGradient><linearGradient id="a2854f21-4b51-4305-91ef-050f741a7a12" x1="369.77" y1="119.7" x2="608.92" y2="119.7" gradientUnits="userSpaceOnUse"><stop offset="0.01" stop-color="#e8f3dd"/><stop offset="0.45" stop-color="#d5e8bf"/><stop offset="1" stop-color="#d1e397"/></linearGradient><linearGradient id="ba120bbb-ba44-4c6e-a094-782c642d5030" x1="0.18" y1="124.27" x2="239.33" y2="124.27" xlink:href="#a2854f21-4b51-4305-91ef-050f741a7a12"/></defs><g id="e6a110e1-d84f-4a32-87e6-6f09d32ada57" data-name="Layer 2"><g id="a591d7bd-ee33-4ca4-a8c3-4f8883352acc" data-name="Layer 1"><path class="b5f23546-f429-44c4-8179-907088fdcafd" d="M573.72,715.92,50.15,722.39a42.58,42.58,0,0,1-43.1-42L.13,120.47l608.71-7.53,6.93,559.88a42.58,42.58,0,0,1-42,43.1Z"/><path class="f21e0dd0-cd5c-453b-9607-fbc7f56bda2a" d="M479.09,135.4a10.44,10.44,0,1,1-10.57-10.31,10.43,10.43,0,0,1,10.57,10.31Z"/><path class="a4193a6e-01e2-4b86-bdd9-3e708c18eb21" d="M608.9,117.19A119.58,119.58,0,1,1,486.84.15a119.58,119.58,0,0,1,122.06,117Z"/><path class="ba9ea064-402b-455e-b8b9-7c31aa77fb84" d="M543.62,119.38a55.46,55.46,0,1,1-56.14-54.77,55.47,55.47,0,0,1,56.14,54.77Z"/><path class="f21e0dd0-cd5c-453b-9607-fbc7f56bda2a" d="M509,119.46A19.7,19.7,0,1,1,489.1,100,19.7,19.7,0,0,1,509,119.46Z"/><path class="a1c3ba81-9b66-44ed-a453-bc14faa8fdb1" d="M239.31,121.76a119.58,119.58,0,1,1-122.06-117,119.59,119.59,0,0,1,122.06,117Z"/><path class="f21e0dd0-cd5c-453b-9607-fbc7f56bda2a" d="M173.74,121.23A55.46,55.46,0,1,1,117.6,66.46a55.46,55.46,0,0,1,56.14,54.77Z"/><path class="a6886884-d897-49a5-9aa6-d532262fc220" d="M139.45,119.82a19.7,19.7,0,1,1-19.94-19.45,19.69,19.69,0,0,1,19.94,19.45Z"/><path class="b8beaeeb-6b82-4791-9b79-1d282cbaad1b" d="M369.77,382.79c.08,6.1-10.88,11.17-24.47,11.34s-24.66-4.64-24.74-10.73,10.88-11.16,24.47-11.33,24.67,4.63,24.74,10.72Z"/><path class="b8beaeeb-6b82-4791-9b79-1d282cbaad1b" d="M332.55,382.79c.08,6.09-10.88,11.17-24.46,11.34s-24.67-4.64-24.74-10.73,10.88-11.16,24.46-11.33,24.67,4.63,24.74,10.72Z"/></g></g></svg>