<svg xmlns="http://www.w3.org/2000/svg" viewBox="0 0 41.57 20.11"><defs><style>.a8ae86da-5cff-4742-a1e0-e178ed95d4cc,.aa39cd3e-54a5-4bc0-92c5-47407908e8a9,.b6c91856-4332-4d45-9bdd-6fd2326812a8,.fcfbc91d-7c9c-416f-94b9-654546b57a8c{fill-rule:evenodd;}.aa39cd3e-54a5-4bc0-92c5-47407908e8a9{fill:#f9c;}.b6c91856-4332-4d45-9bdd-6fd2326812a8{fill:#e6e6e6;}.fcfbc91d-7c9c-416f-94b9-654546b57a8c{fill:#fff;}</style></defs><g id="fcb8bb6f-0032-4da3-91b9-432d049e5ef9" data-name="Layer 2"><g id="a962258d-e71f-4a4e-ade4-ef17e38bd21f" data-name="Layer 1"><g id="ae90a16b-a50a-498e-bf62-632d7fa1d3dd" data-name="b3af3ac4-6a24-46c8-9a53-dcf2ddcc5d31"><g id="b17b2ae6-daba-43ce-a041-2d1cd1d816b8" data-name="ae68b018-66d7-4299-ba76-a0173b20c049"><g id="ad727719-15e5-4663-aa6a-7b9fb9003e60" data-name="fb2c99cc-95ce-422a-9daf-d2ca67f44cc2"><path class="a8ae86da-5cff-4742-a1e0-e178ed95d4cc" d="M28.92,8.4l.27-.1c.38-.14,3.6-1.36,3.72-1.39,0,.55-.06,1.11-.1,1.65s-.05,1.1-.09,1.65c0,.32-.17,3-.22,3.28-.12-.09-.84-1.06-1-1.25L30.57,11l-.95-1.24c-.16-.21-.33-.41-.48-.62a4.59,4.59,0,0,0-.48-.62ZM7.82,8.1a9.65,9.65,0,0,1,1,.26c.22.05,2.6.74,2.73.8a3.53,3.53,0,0,1-.37.55c-.13.18-.24.39-.36.57l-.72,1.11L8.61,13.62a9.54,9.54,0,0,1-.2-1.37C8.35,12.05,8,9.64,8,9.48c0-.41-.16-1-.21-1.38ZM41.57,3.46c0-.42-1.48-1.58-2-2A15.91,15.91,0,0,0,38,.48L37.62.3A4.3,4.3,0,0,0,36.81,0a1,1,0,0,0-.54,0c-.23.14.13.31.26.39l.17.09,1.68,1c.3.23-.49.83-1.38,1.38a39.42,39.42,0,0,1-9.08,3.8c-.67.18-1.39.36-2.1.51A36,36,0,0,1,16,7.94c-.73-.05-1.45-.14-2.16-.21s-1.35-.21-2-.31l-.95-.2c-2.12-.43-6.1-1.35-7.55-2.78L2.88,4l.58-.48c.38-.34.81-.63,1.22-1,.09-.07.21-.2.07-.3s-.38,0-.51.06a5,5,0,0,0-1.43.84c-.21.15-.4.34-.58.49L2,3.89c-.59.56-1.94,2-2,2.51a.56.56,0,0,0,.33-.15L1.83,5a12.88,12.88,0,0,1,2,2.41c.2.28,1.72,2.45,1.84,2.5s-.33-2.31-.38-2.58l.39.13c.21.09.46.08.48.25l.09.5c.06.47.13.93.2,1.4.26,1.84.49,3.7.77,5.54a10.61,10.61,0,0,0,.24,1.37,8.88,8.88,0,0,0,.34,1.29h0c.09-.08.65-1,.7-1.06l.69-1.06c.46-.71.91-1.42,1.38-2.13.2-.3,2.55-4,2.78-4.25.13,0,1.22.14,1.46.16a36,36,0,0,0,8.49-.16c.28-.05.57-.07.86-.12l2.32-.44c.14.21.33.42.48.63s.32.41.47.61l2.8,3.68c.94,1.22,1.86,2.46,2.82,3.68a13.84,13.84,0,0,0,1,1.19c.19-2.25.33-4.5.47-6.74l.15-2.55c0-.27.06-.56.07-.83l.19-2.53a4.49,4.49,0,0,1,.88-.43.41.41,0,0,0,0,.1l-.08.77c0,.56-.23,2.34-.19,2.74l.09-.11.06-.1c0-.07.09-.14.13-.22l.74-1.25c.51-.85,1-1.7,1.39-2.57l1.58-2.47a.57.57,0,0,1,.27.14,12.33,12.33,0,0,0,1.23.8A1.32,1.32,0,0,0,41.57,3.46Z"/><path class="a8ae86da-5cff-4742-a1e0-e178ed95d4cc" d="M18.18,15.44a4.26,4.26,0,0,0,.49-.23c.43-.2,1.2-.49,1.67-.66a13.71,13.71,0,0,1,5.82-.72,11.81,11.81,0,0,1,2.22.48l.13.06a1.87,1.87,0,0,1-.3.26l-1.08.73c-.68.35-.68.43-1.66.87a13.88,13.88,0,0,1-4.61,1.14,12.67,12.67,0,0,1-4.62-.51,4.5,4.5,0,0,1-.44-.16l-1.24-.53c-.37-.2-.73-.41-1.08-.64a1.91,1.91,0,0,1-.34-.24,6.7,6.7,0,0,1,1-.6,10.93,10.93,0,0,1,6.11-1.17l.52.06h0c-.16.11-.56.28-.78.39A3.64,3.64,0,0,0,18.18,15.44ZM11.25,13.9c-.16.21-.49.82-.73,1.13-.1.14-.15.15,0,.28l.78.69a23.26,23.26,0,0,0,2.28,1.7l.63.4c.23.14.36.19.5.27s.56.29.84.44l.35.18c.39.18,1.09.41,1.54.58l.4.12a10.92,10.92,0,0,0,7.26-.44,13.67,13.67,0,0,0,1.71-.86l.51-.31c.12-.07.21-.15.32-.22a15.17,15.17,0,0,0,1.36-1,.88.88,0,0,0,.15-.12c.18-.15.38-.31.55-.47l.52-.5c.41-.39.39-.31.21-.52l-.81-1.05c-.17.06-.22.28-.43.36a2.11,2.11,0,0,0-.63-.5,3.27,3.27,0,0,0-.57-.32,8,8,0,0,0-2.21-.59c-.17,0-.4-.08-.56-.09a11.78,11.78,0,0,0-3.4.24c-.21,0-.45.13-.6.06a8.41,8.41,0,0,0-5.36-.12,7.74,7.74,0,0,0-1,.37c-.16.07-.35.14-.48.21A4.48,4.48,0,0,0,14,14a7.81,7.81,0,0,0-.73.5c-.22.16-.57.47-.65.53l-.68-.58-.33-.29L11.44,14C11.3,13.88,11.36,13.9,11.25,13.9Z"/><path class="aa39cd3e-54a5-4bc0-92c5-47407908e8a9" d="M19.8,15.63c-.21-.25.57-.57.9-.71a10.8,10.8,0,0,1,1.56-.45,11.39,11.39,0,0,1,3.79-.27.94.94,0,0,1,.3.11c.25.29-.53.3-1.06.37-1.23.17-2.53.38-3.74.61C21.26,15.35,20,15.64,19.8,15.63ZM17,14c.29-.05.77-.1.9,0,.31.35-1,.35-2.23.76-.16.05-.67.31-.71.07s1.37-.77,2-.87Zm1.17,1.46A3.64,3.64,0,0,1,20,14a8.07,8.07,0,0,0,.78-.4h0l-.52-.06a11,11,0,0,0-6.12,1.17,7.15,7.15,0,0,0-.95.6,2.08,2.08,0,0,0,.34.24c.35.23.71.44,1.08.64l1.24.53.44.15a12.47,12.47,0,0,0,4.62.52,13.88,13.88,0,0,0,4.61-1.14c1-.44,1-.52,1.66-.87l1.08-.73a1.52,1.52,0,0,0,.3-.26l-.13-.06a11.81,11.81,0,0,0-2.22-.48,13.71,13.71,0,0,0-5.82.72c-.47.17-1.24.46-1.67.66a4.26,4.26,0,0,1-.49.23Z"/><path class="b6c91856-4332-4d45-9bdd-6fd2326812a8" d="M28.66,8.51a4.59,4.59,0,0,1,.48.62c.15.21.32.41.48.62L30.57,11c.32.41.64.83.95,1.25.14.19.86,1.16,1,1.25.06-.23.2-3,.22-3.28,0-.55.06-1.1.09-1.65s.09-1.1.11-1.65c-.12,0-3.35,1.25-3.73,1.39l-.27.1Z"/><path class="b6c91856-4332-4d45-9bdd-6fd2326812a8" d="M8.61,13.62l1.44-2.23.73-1.11c.12-.18.23-.39.36-.57a3.53,3.53,0,0,0,.37-.55c-.14-.06-2.52-.75-2.73-.8a9.65,9.65,0,0,0-1-.26c0,.43.17,1,.21,1.38,0,.16.32,2.57.38,2.77A9.54,9.54,0,0,0,8.61,13.62Z"/><path class="fcfbc91d-7c9c-416f-94b9-654546b57a8c" d="M19.8,15.63c.16,0,1.46-.28,1.75-.34,1.21-.23,2.51-.44,3.74-.61.53-.08,1.31-.08,1.06-.37a.94.94,0,0,0-.3-.11,11.39,11.39,0,0,0-3.79.27,10.8,10.8,0,0,0-1.56.45C20.37,15.06,19.59,15.38,19.8,15.63Z"/><path class="fcfbc91d-7c9c-416f-94b9-654546b57a8c" d="M17,14c-.67.1-2.09.51-2,.87s.55,0,.71-.07c1.26-.41,2.54-.41,2.23-.76C17.78,13.88,17.29,13.93,17,14Z"/></g></g></g></g></g></svg>