<svg xmlns="http://www.w3.org/2000/svg" viewBox="0 0 190.2 259.97"><defs><style>.baf2ac83-b350-44aa-b341-db01610c5258{fill:#010101;}.b795d55c-b323-4ca0-8cd7-e18b38ad864f{fill:#f3e52c;stroke:#f3e52c;}.a11ba8f4-89cb-4a5e-8685-0488cd75a313,.a5cea14a-0227-41f3-b379-58435350574f,.a8b0cc29-b5ea-4a62-b3d6-784dd5591401,.b795d55c-b323-4ca0-8cd7-e18b38ad864f{stroke-linecap:round;}.a11ba8f4-89cb-4a5e-8685-0488cd75a313,.a5cea14a-0227-41f3-b379-58435350574f,.a8b0cc29-b5ea-4a62-b3d6-784dd5591401,.b795d55c-b323-4ca0-8cd7-e18b38ad864f,.ba572449-46c9-458f-8e7a-8d36c7756cf4,.ed1ae365-e4d5-4a2d-a4f7-4508095f4232{stroke-linejoin:round;}.a11ba8f4-89cb-4a5e-8685-0488cd75a313,.a5cea14a-0227-41f3-b379-58435350574f,.b0f11ac5-3294-46cf-8428-9d8607c5cb17,.b795d55c-b323-4ca0-8cd7-e18b38ad864f{stroke-width:3px;}.a11ba8f4-89cb-4a5e-8685-0488cd75a313,.b0f11ac5-3294-46cf-8428-9d8607c5cb17{fill:#3c64af;stroke:#3c64af;}.b0f11ac5-3294-46cf-8428-9d8607c5cb17{stroke-miterlimit:10;}.a5cea14a-0227-41f3-b379-58435350574f{fill:#fff;stroke:#fff;}.a8b0cc29-b5ea-4a62-b3d6-784dd5591401{fill:none;stroke:#afafae;stroke-width:6px;}.ba572449-46c9-458f-8e7a-8d36c7756cf4{fill:#090d12;stroke:#5c1310;isolation:isolate;opacity:0.83;}.ba572449-46c9-458f-8e7a-8d36c7756cf4,.ed1ae365-e4d5-4a2d-a4f7-4508095f4232{stroke-width:5px;}.ed1ae365-e4d5-4a2d-a4f7-4508095f4232{fill:#233559;stroke:#b3c5df;stroke-dasharray:12 12 12 12 12 12;}</style></defs><g id="a4b56c14-a29c-48e5-a8a6-540349f2656d" data-name="Layer 2"><g id="a107ffab-43e0-4c41-869d-4530ddc0a16d" data-name="Layer 1"><path class="baf2ac83-b350-44aa-b341-db01610c5258" d="M165.54,71.27H121.7c-4.3-4.33-8.44-9-10.27-14.94-.09-.22-.15-.45-.22-.68a29.61,29.61,0,1,0-33-.31c-.61,4-1.29,8-4.25,11.05-1.5,1.7-3.08,3.33-4.72,4.89l-44.55,0A20.7,20.7,0,0,0,3.85,91.86V237.8a20.7,20.7,0,0,0,20.82,20.59h49.7a.28.28,0,0,0,0-.13,9.46,9.46,0,0,1-1.06-1.45l-.3-.47a1.24,1.24,0,0,0-.12-.32c0-.1-.14-.14-.13-.09l.18.29a29.58,29.58,0,1,1,54.53-15.84,28.46,28.46,0,0,1-5,16.32v.1a17.92,17.92,0,0,1-1.18,1.67h44.33a20.69,20.69,0,0,0,20.72-20.67V91.86A20.69,20.69,0,0,0,165.54,71.27Z"/><g id="bc357d1c-ce16-4a36-b7ed-c21355f80ebd" data-name="Layer 3"><path class="b795d55c-b323-4ca0-8cd7-e18b38ad864f" d="M68.45,70.93a19.11,19.11,0,0,0,9.17-10.25,6.22,6.22,0,0,0,.39-4c-.49-1.56-1.92-2.65-3.18-3.73-9.46-8.17-12.71-22.37-7.69-33.62S85.07.57,97.72,1.59,121.81,12.06,124.83,24s-2.62,25.38-13.36,31.92a32.8,32.8,0,0,0,11.29,15.69s44.4.14,44.39,0c4.92.91,9.84,2.31,13.94,5.09s7.28,7.12,7.6,11.94l-.06,47.32-187,.19s-.42-49.29.05-49.9A19,19,0,0,1,8.78,75.7a20.09,20.09,0,0,1,12.28-3.9Z"/><path class="b0f11ac5-3294-46cf-8428-9d8607c5cb17" d="M1.33,135.4c62.46-.51,125.38.61,187.53.45Z"/><path class="a11ba8f4-89cb-4a5e-8685-0488cd75a313" d="M1.68,135.41s-.11,108.24-.05,108.34a21.13,21.13,0,0,0,16.82,14.66s54.69.13,54.89-.24a29.33,29.33,0,0,1-2.51-30.9C76,217.59,87,211.12,98.28,211.19s22.22,6.68,27.23,16.42a29.34,29.34,0,0,1-2.92,30.86s49.44-.31,49.37-.56a19.77,19.77,0,0,0,11.29-5.35,18.48,18.48,0,0,0,5.45-10.94l-.37-105.82"/><rect class="b0f11ac5-3294-46cf-8428-9d8607c5cb17" x="36.64" y="71.57" width="5.48" height="71.33"/><rect class="b0f11ac5-3294-46cf-8428-9d8607c5cb17" x="150.96" y="71.37" width="5.17" height="74.67"/><path class="a5cea14a-0227-41f3-b379-58435350574f" d="M112.59,32s-34.07.67-34.14.64c-.85,3.16,3.21,9.6,5.68,11.78a17.47,17.47,0,0,0,11.69,4,20.31,20.31,0,0,0,10.94-4.26C109.21,42,112,36,112.59,32Z"/></g><g id="b2852125-a63d-4947-ae7b-e5be2b2ee527" data-name="Layer 4"><ellipse class="a8b0cc29-b5ea-4a62-b3d6-784dd5591401" cx="95.27" cy="32.04" rx="17.32" ry="16.44"/><path class="ba572449-46c9-458f-8e7a-8d36c7756cf4" d="M101.48,32.7c.19,2.47.41,5.52-1.94,7.39-2.17,1.74-6.93,1.3-8.84-.4s-2-4.46-2.25-6.7C92.1,32.78,95.76,32.75,101.48,32.7Z"/><path class="ed1ae365-e4d5-4a2d-a4f7-4508095f4232" d="M119.72,149c.19,11.83.37,26.44-8.67,35.05-8.38,8-25.86,5.18-32.53-3.2-6.52-8.2-6.42-21.65-6.91-32.41C85.12,148,98.64,148.41,119.72,149Z"/></g></g></g></svg>