<svg xmlns="http://www.w3.org/2000/svg" xmlns:xlink="http://www.w3.org/1999/xlink" viewBox="0 0 102.95 73.46"><defs><style>.b9ae1a11-dd58-4176-b226-a66a0dfce7cd{fill:none;}.b3d6492a-605a-4c41-a0a6-dbe5181610c9{clip-path:url(#fbb3971e-9555-4403-8889-0d6f3679d6c7);}.f6e062ac-fba8-4d73-888f-97df7d517d48{fill:#fd597b;}.afc2d40a-6465-417b-8791-0162259a10fe,.b906fccc-3997-4d1c-b453-5218c4b9bdc5,.f6e062ac-fba8-4d73-888f-97df7d517d48{stroke:#10100f;stroke-miterlimit:10;}.afc2d40a-6465-417b-8791-0162259a10fe{fill:#1a0f1d;}.b906fccc-3997-4d1c-b453-5218c4b9bdc5{fill:#1c151c;}</style><clipPath id="fbb3971e-9555-4403-8889-0d6f3679d6c7" transform="translate(-3.31 -41.11)"><path class="b9ae1a11-dd58-4176-b226-a66a0dfce7cd" d="M97.07,42H70.76c-2.58-2.61-5.07-5.43-6.17-9,0-.14-.09-.28-.13-.42a17.77,17.77,0,1,0-19.82-.18c-.38,2.4-.78,4.81-2.56,6.66-.91,1-1.87,2-2.87,2.94H12.5A12.46,12.46,0,0,0,0,54.44v87.91a12.45,12.45,0,0,0,12.5,12.4H42.34v-.07a5.43,5.43,0,0,1-.63-.88c-.07-.1-.13-.21-.19-.31s-.05-.11-.07-.16-.05-.07-.07-.06a17.77,17.77,0,1,1,32.84-9.37,17.26,17.26,0,0,1-3,9.84v0a12.16,12.16,0,0,1-.71,1H97.12a12.44,12.44,0,0,0,12.44-12.45V54.44A12.44,12.44,0,0,0,97.07,42Z"/></clipPath></defs><g id="b14dc368-0dd9-47fd-96d2-74b4fe1889c1" data-name="Layer 2"><g id="a4cd655f-dafd-4d7f-b132-1a0f12d12055" data-name="Layer 1"><g class="b3d6492a-605a-4c41-a0a6-dbe5181610c9"><path class="f6e062ac-fba8-4d73-888f-97df7d517d48" d="M102.06,63.86a12.16,12.16,0,0,1-2.7-7.55V41.61H74.17v2.53c0,9-8.69,16.34-19.39,16.34S35.39,53.15,35.39,44.14V41.61H10.2v14.7a12.11,12.11,0,0,1-2.7,7.56C2,70.49,2.69,79.61,9.26,85.58A17.93,17.93,0,0,1,15,98.4v15.67H94.57c0-16.81-.32-17.44,1-21.23a18.67,18.67,0,0,1,4.76-7.28c6.58-6,7.22-15.11,1.74-21.7ZM88.57,109H21v-8.26H88.57Z" transform="translate(-3.31 -41.11)"/><path class="afc2d40a-6465-417b-8791-0162259a10fe" d="M91.9,100.42l.61,10.67L61,112.31l-6.19,1.76H15V98.23H54.78l3.44,1.23Z" transform="translate(-3.31 -41.11)"/><path class="b906fccc-3997-4d1c-b453-5218c4b9bdc5" d="M54.78,98.23H94.57v15.84H54.78Z" transform="translate(-3.31 -41.11)"/></g></g></g></svg>