<svg xmlns="http://www.w3.org/2000/svg" viewBox="0 0 70.54 52.81"><defs><style>.b7012e35-83d9-4770-b4ef-7af91e772c2e{fill:#d1d3d4;}.f0429c76-5f08-49f4-bb55-a9967d86dca8{fill:#bcbec0;}.fdd90c63-c465-4d2b-941a-04be747ae1f8{fill:#939598;}.bb747546-f72f-47f6-a72f-391aa879785a{fill:#acc363;}.e70cdabc-663e-47a4-a67c-3125733e5d37{fill:#a8c15a;}.ad94e6a6-18eb-42af-9d3c-1bba13ffc42c{fill:#5b0483;}.f08f6ea6-98ae-41b1-b8de-e07f5f0ef9a3{fill:#1d2103;}.a7657d95-437b-4a7a-bc55-b13ea3b717f6{fill:#79812f;}.a5540f76-4377-4331-b2cb-49d0fbc46c7c{fill:#78812e;}.b8380a4d-cb2c-4d97-a649-148c424662a1{fill:#838c30;}.e46bf21b-4d83-4151-8c69-eb5974f7fcd1{fill:#696d46;}.b0b10001-c603-41c6-88b7-5704779c909b{fill:#6a7036;}.a2a165a4-a148-4e19-8bd6-f2b4679a5502{fill:#778024;}.b5496d34-1240-410b-aa46-450d241e13bf{fill:#40163f;}</style></defs><g id="a94e348c-92a0-416d-add6-4d12f0ffb075" data-name="Layer 2"><g id="b737a0db-6c72-42d6-8add-78b0a2372553" data-name="Layer 1"><g id="e8975070-88e9-45c0-bdad-8d951a23c1d9" data-name="Untitled"><path class="b7012e35-83d9-4770-b4ef-7af91e772c2e" d="M69.63,27.66c0-.58,0-1.48-.62-1.78v6.78a1.72,1.72,0,0,0,.7-1.35c0-.6,0-1.22,0-1.82S69.65,28.27,69.63,27.66Z"/><path class="f0429c76-5f08-49f4-bb55-a9967d86dca8" d="M67,23.76H64.37a7.18,7.18,0,0,1,.18,1.59c.09,1.19.14,2.37.19,3.56a36.1,36.1,0,0,1,0,4c0,.57-.09,1.15-.12,1.72a5.15,5.15,0,0,1-.09,1h.91c0-.75.17-1.54.23-2.28s.07.75,0-.13a1.26,1.26,0,0,1,.36-.27c.09.92-.14-.39-.16.52a8.72,8.72,0,0,1-.18,2.16H66.9a11.2,11.2,0,0,1,.23-1.81,16.74,16.74,0,0,0,.1-2c0-1.33.23,2.32.15,1,0,0,0-1.59,0-1.56.37,1.35.24-.69.24.69,0,.75-.06,1.5-.1,2.25a5.09,5.09,0,0,1-.2,1.4,1.36,1.36,0,0,0,.8-.5A1.69,1.69,0,0,0,68.33,34V25.34a1.54,1.54,0,0,0-.3-1.09A1.45,1.45,0,0,0,67,23.76Z"/><path class="f0429c76-5f08-49f4-bb55-a9967d86dca8" d="M64.19,32.78c0-1.29,0-2.58,0-3.87,0-1.71,0-3.45-.11-5.15a2.61,2.61,0,0,0-1.28.15A1.37,1.37,0,0,0,62,25.2v8.63a3.23,3.23,0,0,0,0,.76,1.35,1.35,0,0,0,.61.85,9.72,9.72,0,0,1-.13-2.52c0-1-.17,1.13,0,.13,0,0,.23-.2.23-.15,0,1,0-1,.07,0a18.43,18.43,0,0,1,.18,2.67,1.67,1.67,0,0,0,.39,0,11.68,11.68,0,0,1,.09-2.21c0-.07.11-.07.11,0a20.57,20.57,0,0,1,.05,2.22h.53a8.22,8.22,0,0,1,0-1.11C64.25,33.94,64.2,33.37,64.19,32.78Z"/><path class="fdd90c63-c465-4d2b-941a-04be747ae1f8" d="M59.59,26.81a3.21,3.21,0,0,1,.62,0A1.19,1.19,0,0,1,61,27a.08.08,0,0,1,0,.11,1.19,1.19,0,0,1-.77.19,3,3,0,0,1-.67,0l0,.4v0c0,.49,0,1-.06,1.48h0v.4a2.39,2.39,0,0,1,1.3,0,.1.1,0,0,1,0,.2,2.3,2.3,0,0,1-1.3,0q0,.59,0,1.17a1.62,1.62,0,0,1,0,.22c0,.1,0,.2,0,.31s0,.12,0,.18h0a3.51,3.51,0,0,1,.56,0A1.73,1.73,0,0,1,61,32a.08.08,0,0,1,0,.14,1.84,1.84,0,0,1-.87.18,3.49,3.49,0,0,1-.56,0h0c0,.36.07.72.12,1.08h1.68V28.7a1.69,1.69,0,0,1-.51,0l-.37,0c-.14,0-.25-.1-.39-.13a.05.05,0,0,1,0-.1c.14,0,.25-.1.39-.13s.25,0,.37,0a1.69,1.69,0,0,1,.51,0V26H59.67C59.64,26.29,59.61,26.55,59.59,26.81Z"/><path class="f0429c76-5f08-49f4-bb55-a9967d86dca8" d="M3.59,23.76A1.36,1.36,0,0,0,2.2,25.08V34.3a1.33,1.33,0,0,0,1,1.29,5.64,5.64,0,0,1-.2-1.53c0-.7-.09-1.41-.09-2.12,0-1.38.29,4.11.66,2.76,0,0-.13-3.84-.13-3.8-.08,1.32-.2-.41-.19.92a19.15,19.15,0,0,0,.11,2,11.2,11.2,0,0,1,.23,1.81H4.76a8.76,8.76,0,0,1-.18-2.16c0-.92.53.79.62-.12a2.12,2.12,0,0,0-.26-.43c0,.88-.18-.45-.12.43s.24,1.53.23,2.28H6a5.15,5.15,0,0,1-.08-1c0-.57-.09-1.15-.13-1.72a38.67,38.67,0,0,1,0-4c0-1.19.11-2.37.19-3.56a7.76,7.76,0,0,1,.19-1.59C5.31,23.76,4.45,23.75,3.59,23.76Z"/><path class="f0429c76-5f08-49f4-bb55-a9967d86dca8" d="M7.8,23.93A1.66,1.66,0,0,0,7,23.76H6.48c-.12,1.7-.11,3.44-.11,5.14,0,1.32,0,2.64,0,4,0,.58-.07,1.15-.06,1.74a5.92,5.92,0,0,1,0,1h.54a20.38,20.38,0,0,1,0-2.21.06.06,0,0,1,.12,0,11.68,11.68,0,0,1,.09,2.21,1.31,1.31,0,0,0,.39-.05c-.11-.84.59-.93.37-.14a1.38,1.38,0,0,0,.65-1.21V25.64c0-.23,0-.46,0-.69A1.32,1.32,0,0,0,7.8,23.93Z"/><path class="b7012e35-83d9-4770-b4ef-7af91e772c2e" d="M.9,27.66c0,.61,0,1.22,0,1.83s-.07,1.22,0,1.82a1.69,1.69,0,0,0,.69,1.35V25.88C.89,26.18.91,27.08.9,27.66Z"/><path class="fdd90c63-c465-4d2b-941a-04be747ae1f8" d="M10.91,32.92l0-.15c0-.13,0-.27,0-.4v-.08h0a3.37,3.37,0,0,1-.55,0,1.84,1.84,0,0,1-.87-.18.08.08,0,0,1,0-.14,1.63,1.63,0,0,1,.87-.18,2.53,2.53,0,0,1,.55,0H11v-.1l0-.42v-.11c0-.41,0-.83,0-1.24a2.43,2.43,0,0,1-1.31,0,.1.1,0,0,1,0-.2,2.34,2.34,0,0,1,1.31,0c0-.11,0-.23,0-.34v-.12c0-.13,0-.27,0-.41v-.15l0-.67c0-.07,0-.15,0-.23a2.64,2.64,0,0,0,0-.28.41.41,0,0,0,0-.11,3.64,3.64,0,0,1-.66,0,1.16,1.16,0,0,1-.78-.2.07.07,0,0,1,0-.1,1.29,1.29,0,0,1,.78-.2,4.26,4.26,0,0,1,.62,0c0-.12,0-.25,0-.37l0-.19,0-.22H9.18v2.32a1.62,1.62,0,0,1,.5,0l.38,0c.14,0,.25.09.39.12a.05.05,0,0,1,0,.1c-.14,0-.25.1-.39.13a2.42,2.42,0,0,1-.38,0,1.65,1.65,0,0,1-.5,0v4.66h1.68C10.88,33.22,10.9,33.07,10.91,32.92Z"/><path class="bb747546-f72f-47f6-a72f-391aa879785a" d="M59,33.69h0s0-.08,0-.11,0-.25,0-.38l-.06-.51c0-.07,0-.14,0-.21l0-.4c0-.06,0-.12,0-.18l0-.46v-.12c0-.41,0-.83,0-1.24h0v-.65c0-.57,0-1.14.07-1.7a55.75,55.75,0,0,1-.67-9.12,3,3,0,0,1-1.71-1.24,4.05,4.05,0,0,1-.63-2,1.79,1.79,0,0,1-.77.29,2.83,2.83,0,0,1-1.73-.35,9.74,9.74,0,0,1-2.14-1.86l0,.64a2.11,2.11,0,0,1-.1,1.17c-.26.43-.75.28-1.13.12s-.73-.34-1.09-.54a11.62,11.62,0,0,1-3.18-2.65c-.29.72-.81,1.44-1.66,1.38a2.78,2.78,0,0,1-1.6-1,6.23,6.23,0,0,1-1-1.21,21.38,21.38,0,0,1-6.12,1.68.34.34,0,0,1-.34-.32,2.27,2.27,0,0,1,.05-.78l-2,.6-2.31.7a5.11,5.11,0,0,1-2.12.34,1.61,1.61,0,0,1-1.31-1,1.37,1.37,0,0,1-.12-.44L24.85,13.4l-2.77,1.32a22.43,22.43,0,0,1-2.68,1.09,8.39,8.39,0,0,1-1.34.29,2.49,2.49,0,0,1-1.3-.06,1.14,1.14,0,0,1-.6-1.37,5.72,5.72,0,0,0-2,1,2.33,2.33,0,0,0-.7.95,5.89,5.89,0,0,0-.25,1.5c-.12,1.08-.28,2.14-.45,3.21-.36,2.17-.79,4.33-1,6.52a.58.58,0,0,1,0,.14,1.21,1.21,0,0,0,0,.19v0A29.69,29.69,0,0,1,10.87,37a23.37,23.37,0,0,0-1.1,5,6.1,6.1,0,0,0,1.29,3.92,12.69,12.69,0,0,0,3.07,2.77q.91.61,1.86,1.17a12,12,0,0,0,2.23,1.07,6.9,6.9,0,0,0,2.55.34,18.77,18.77,0,0,0,2.68-.37c1.61-.3,3.22-.56,4.85-.75a2.72,2.72,0,0,1-.5-1.45,3.62,3.62,0,0,1,1.07-2.59,8.72,8.72,0,0,0,1.72-2,12.87,12.87,0,0,0,1-2.93c.48-2.1.58-4.25.85-6.38a9.84,9.84,0,0,1,.74-3,3.92,3.92,0,0,1,1.91-1.94h0l.11,0h0a.33.33,0,0,1,.17,0h0a3.73,3.73,0,0,1,1.1.78,5.29,5.29,0,0,1,1.29,2.6,27.9,27.9,0,0,1,.43,3.16,29.11,29.11,0,0,0,1.09,6.27,10.85,10.85,0,0,0,.58,1.42,4.23,4.23,0,0,0,.77,1.06,7.48,7.48,0,0,1,1.76,2.13,2.91,2.91,0,0,1-.09,2.66l-.13.2.7.09c.91.11,1.82.25,2.72.41s1.82.34,2.73.48a9.5,9.5,0,0,0,2.66.1,7.61,7.61,0,0,0,2.34-.74c.72-.36,1.41-.77,2.09-1.19s1.18-.76,1.74-1.19a10.58,10.58,0,0,0,2.79-3,5.89,5.89,0,0,0,.68-1.85,7.46,7.46,0,0,0,0-2.45c-.29-1.69-.9-3.32-1.25-5C59.25,35.11,59.13,34.4,59,33.69Zm-47,10.68a2.89,2.89,0,0,1-1-1.82,4.29,4.29,0,0,1,0-2.25s.12-.06.12,0a13.82,13.82,0,0,0,.42,2.11,10.12,10.12,0,0,1,.67,1.86A.12.12,0,0,1,12.07,44.37Zm9.55,5.36a9.11,9.11,0,0,1-5.24-1,11.09,11.09,0,0,1-2.17-1.48c-.48-.4-1.53-1.12-1.45-1.8a.12.12,0,0,1,.16-.12c.37.07.53.35.77.61a9.86,9.86,0,0,0,.86.85,10.21,10.21,0,0,0,2.16,1.39,15.39,15.39,0,0,0,4.94,1.41C21.77,49.55,21.72,49.72,21.62,49.73Zm4.07-.36a3.55,3.55,0,0,1-1,.25,1.29,1.29,0,0,1-.91,0,.15.15,0,0,1-.06-.21c.18-.27.5-.3.82-.34a2.54,2.54,0,0,1,1.13.07A.15.15,0,0,1,25.69,49.37Zm5.17-13.06A10.17,10.17,0,0,1,30.25,39a6.27,6.27,0,0,1-1.76,2.59A5.92,5.92,0,0,1,25,42.89a10.57,10.57,0,0,1-2.57-.19A12,12,0,0,1,20,42.05a7.71,7.71,0,0,1-3.17-2.16,7,7,0,0,1-1.43-2.81,9.57,9.57,0,0,1-.24-2.77,12,12,0,0,1,.32-2.15,7.88,7.88,0,0,1,.24-.83.36.36,0,0,1,.42-.23h0c.59.11,1.18.26,1.77.4l3.61.82,4.18,1,3.46.79,1.45.33a.28.28,0,0,1,.24.26s0,0,0,0v.07A11,11,0,0,1,30.86,36.31ZM32,32.79a.3.3,0,0,1-.38.16l-1-.31a64.65,64.65,0,0,0-8-1.83c-1.35-.22-2.71-.4-4.07-.53l-2.06-.16a7.48,7.48,0,0,1-1.95-.22,1.59,1.59,0,0,1-1.15-1.23,1.62,1.62,0,0,1,.88-1.43,4.53,4.53,0,0,1,1.64-.62,9.6,9.6,0,0,1,2-.18,19.87,19.87,0,0,1,7.63,2,25.35,25.35,0,0,1,6.42,3.92A.27.27,0,0,1,32,32.79Zm6.24-7.44a.15.15,0,0,1-.28,0,5.34,5.34,0,0,1-.16-2H35.63a8.45,8.45,0,0,1-.15,2.19.26.26,0,0,1-.42,0,8,8,0,0,1-.15-2.19H32.76a5.56,5.56,0,0,1-.17,2,.15.15,0,0,1-.28,0,5.34,5.34,0,0,1-.16-2H30.09A7.2,7.2,0,0,1,30,25.56a.12.12,0,0,1-.22,0,6.9,6.9,0,0,1-.13-2.18H27.69a10,10,0,0,1-.1,1.54c0,.09-.19.09-.2,0a10.06,10.06,0,0,1-.11-1.54H25.74A10.43,10.43,0,0,1,25.6,25c0,.08-.17.08-.18,0a10.45,10.45,0,0,1-.15-1.66h-2a10.21,10.21,0,0,1-.12,1.14.15.15,0,0,1-.29,0,10.21,10.21,0,0,1-.12-1.14H21.06c0,.35-.08.7-.13,1,0,.06-.12.06-.13,0-.05-.33-.1-.67-.13-1l-1.75,0a2.45,2.45,0,0,1-.15.93.1.1,0,0,1-.18,0,2.5,2.5,0,0,1-.14-.94l-1.65-.05a2.76,2.76,0,0,1-.11.8.11.11,0,0,1-.22,0,3.76,3.76,0,0,1-.11-.82l-1.21,0a4.08,4.08,0,0,1-.08.85.11.11,0,0,1-.2,0,4.11,4.11,0,0,1-.08-.86l-.73,0a.13.13,0,1,1,0-.26l.73,0a1.85,1.85,0,0,1,.15-1s.05,0,.07,0a1.91,1.91,0,0,1,.14,1l1.22,0v-.16c0-.32-.05-.75.2-1h0c.24.26.17.68.19,1v.15l1.67,0a6.26,6.26,0,0,1,.16-1.37c0-.06.1-.06.12,0a6.81,6.81,0,0,1,.15,1.35l1.72,0a6.72,6.72,0,0,1,.19-2.07.06.06,0,0,1,.11,0,6.1,6.1,0,0,1,.19,2.06l1.59,0A8.55,8.55,0,0,1,22.9,21c0-.06.12-.06.13,0a8.55,8.55,0,0,1,.2,1.63h2a5.48,5.48,0,0,1,.18-2.14c0-.05.09-.05.11,0a5.68,5.68,0,0,1,.19,2.14H27.3a8.67,8.67,0,0,1,.11-1.84c0-.07.14-.07.15,0a9.44,9.44,0,0,1,.12,1.84h1.94a9.66,9.66,0,0,1,.2-2.34s.05,0,.05,0a9.19,9.19,0,0,1,.21,2.34h2.09a8.84,8.84,0,0,1,.23-2.51s.09,0,.1,0a8.5,8.5,0,0,1,.24,2.51h2.18a5.63,5.63,0,0,1,.21-2.39.26.26,0,0,1,.28,0,5.47,5.47,0,0,1,.21,2.39H37.8A8.53,8.53,0,0,1,38,20.15s.08,0,.1,0a8.87,8.87,0,0,1,.23,2.52h2.09a9.35,9.35,0,0,1,.21-2.36s0,0,0,0a9.83,9.83,0,0,1,.21,2.36h1.93A9.44,9.44,0,0,1,43,20.83a.08.08,0,0,1,.15,0,9.49,9.49,0,0,1,.12,1.85H44.8A5.53,5.53,0,0,1,45,20.53c0-.05.09-.05.11,0a5.58,5.58,0,0,1,.19,2.16h2a8.87,8.87,0,0,1,.2-1.66c0-.06.12-.06.13,0a8.12,8.12,0,0,1,.21,1.67h1.58a7,7,0,0,1,.19-2.1c0-.05.1-.05.11,0a6.46,6.46,0,0,1,.19,2.12l1.72,0a6.51,6.51,0,0,1,.16-1.39.06.06,0,0,1,.12,0,6.7,6.7,0,0,1,.16,1.41l1.66.06a1.34,1.34,0,0,1,0-.2c0-.33-.06-.75.19-1h0c.24.26.18.68.19,1v.21l1.21.05v-.05a2,2,0,0,1,.15-1,0,0,0,0,1,.07,0,2,2,0,0,1,.15,1v.06l.73,0a.07.07,0,0,1,0,.14l-.73,0a4.7,4.7,0,0,1-.08.92.1.1,0,0,1-.2,0,4,4,0,0,1-.08-.91l-1.22,0a3.39,3.39,0,0,1-.11.89.12.12,0,0,1-.22,0,3.24,3.24,0,0,1-.11-.87l-1.65,0a2.43,2.43,0,0,1-.14,1,.09.09,0,0,1-.18,0,2.34,2.34,0,0,1-.14-1l-1.74.05q-.06.55-.15,1.08a.06.06,0,0,1-.12,0c0-.34-.11-.7-.14-1.07l-1.63,0a11.22,11.22,0,0,1-.12,1.18.16.16,0,0,1-.3,0,8.76,8.76,0,0,1-.11-1.17h-2A9.52,9.52,0,0,1,45.13,25c0,.09-.17.09-.18,0a10.49,10.49,0,0,1-.15-1.68H43.26a9,9,0,0,1-.1,1.55c0,.1-.19.1-.2,0a10,10,0,0,1-.11-1.55H40.94a7.25,7.25,0,0,1-.13,2.19.12.12,0,0,1-.22,0,7.25,7.25,0,0,1-.14-2.19H38.4A5.62,5.62,0,0,1,38.22,25.35Zm.71,7.6a.31.31,0,0,1-.38-.16.27.27,0,0,1,.05-.38l.72-.6a27.18,27.18,0,0,1,6.55-3.68,16.71,16.71,0,0,1,7.77-1.65,4.46,4.46,0,0,1,3.3,1.38,1.21,1.21,0,0,1-.16,1.58,2.59,2.59,0,0,1-1.72.63c-1.36.1-2.72.17-4.08.32s-2.72.35-4.06.59A62.53,62.53,0,0,0,38.93,33Zm1.13,5.36a11.36,11.36,0,0,1-.43-2.52,9.53,9.53,0,0,1,0-1.07s0,0,0,0a.28.28,0,0,1,.24-.26h0c.58-.16,1.18-.27,1.76-.4l3.61-.83,4.18-1,3.47-.79,1.44-.33a.36.36,0,0,1,.42.23s0,0,0,.05a10.07,10.07,0,0,1,.31,1.2,10.9,10.9,0,0,1,.24,2.35,8.22,8.22,0,0,1-.46,2.82,6.64,6.64,0,0,1-1.78,2.72,8.85,8.85,0,0,1-3.7,1.94,14,14,0,0,1-2.65.47,7.73,7.73,0,0,1-2.25-.13,5.39,5.39,0,0,1-3-1.72A7.1,7.1,0,0,1,40.06,38.31Zm6.72,11.27a1.24,1.24,0,0,1-.91,0,3.39,3.39,0,0,1-1-.25.15.15,0,0,1,0-.27A2.44,2.44,0,0,1,46,49a1,1,0,0,1,.82.34A.15.15,0,0,1,46.78,49.58Zm.5-2.44c0,.15-.29.2-.36,0a2.46,2.46,0,0,1-.2-1,11.47,11.47,0,0,1-1.31,0l-.66,0a7.55,7.55,0,0,1-.12.94c-.06.27-.45.17-.48-.07a4.33,4.33,0,0,1,0-.95,3.74,3.74,0,0,1-2.48-1.28c0-.06,0-.14.1-.1a7.4,7.4,0,0,0,2.5.75,11.22,11.22,0,0,1,.37-1.24c0-.1.21-.09.2,0,0,.41,0,.84-.07,1.27a12.15,12.15,0,0,0,2,0c.07-.41.18-.81.27-1.15a.06.06,0,0,1,.11,0c0,.36.06.73.08,1.09a15.74,15.74,0,0,0,2.31-.46,6.39,6.39,0,0,1-.07-1.08.15.15,0,0,1,.3,0c.09.32.16.65.23,1l.17,0a16,16,0,0,0,2.15-.85,4.68,4.68,0,0,1-.25-1.06c0-.12.19-.17.24-.06.14.3.3.59.46.89.4-.21.8-.44,1.18-.69s.68-.46,1-.7c-.09-.24-.19-.47-.29-.71s.17-.21.24-.1l.39.55c.14-.11.28-.22.41-.34a7.51,7.51,0,0,1,1.48-1.22c.14-.07.33,0,.28.21a4.28,4.28,0,0,1-1.36,1.67l-.37.31a6,6,0,0,1,.48.85.3.3,0,0,1-.53.29,5.57,5.57,0,0,1-.41-.76q-.43.33-.9.63c-.38.25-.78.48-1.19.7a1.26,1.26,0,0,1,.34.8.2.2,0,0,1-.25.18,1.14,1.14,0,0,1-.64-.71,16.18,16.18,0,0,1-2.43.92,1.33,1.33,0,0,1,.1.87.18.18,0,0,1-.28.07,1.22,1.22,0,0,1-.36-.79,16,16,0,0,1-2.38.41A2.79,2.79,0,0,1,47.28,47.14Zm9,.06a11.09,11.09,0,0,1-2.17,1.48,9.12,9.12,0,0,1-5.25,1c-.1,0-.15-.18,0-.19a15.64,15.64,0,0,0,4.94-1.4,10.53,10.53,0,0,0,2.24-1.46,11.5,11.5,0,0,0,.85-.86c.22-.25.36-.47.69-.54a.14.14,0,0,1,.17.12C57.85,46.08,56.81,46.79,56.33,47.2Zm3.16-6.9a4.1,4.1,0,0,1,0,2.25,2.88,2.88,0,0,1-1,1.82.12.12,0,0,1-.19-.1A10.91,10.91,0,0,1,59,42.41a12.71,12.71,0,0,0,.42-2.11C59.38,40.24,59.48,40.25,59.49,40.3Z"/><path class="e70cdabc-663e-47a4-a67c-3125733e5d37" d="M40.84,46.2a12.6,12.6,0,0,1-.89-.9,4.86,4.86,0,0,1-.74-1.16,14.73,14.73,0,0,1-1-2.88c-.45-2-.57-4.13-.82-6.2-.2-1.64-.49-3.7-2.17-4.57a3.19,3.19,0,0,0-.81.61,4.82,4.82,0,0,0-1.13,2.44c-.2,1-.29,2-.39,3a30.13,30.13,0,0,1-1,6.12,7.41,7.41,0,0,1-1.27,2.6,16.79,16.79,0,0,0-1.72,1.87,2.42,2.42,0,0,0-.22,2.35,2.11,2.11,0,0,0,.48.63l0,0,.22.16a1.15,1.15,0,0,0,.25.12,1.79,1.79,0,0,1,0-1,1.26,1.26,0,0,1,1.12-.87,1.52,1.52,0,0,1,.7.12,3.31,3.31,0,0,1-.18-1.3,3.77,3.77,0,0,1,1.39-2.74c.09-.07.19,0,.17.12-.21.92-.87,1.65-.93,2.62a3.84,3.84,0,0,0,.38,1.94,8.49,8.49,0,0,1,.82,1.17,12.75,12.75,0,0,1,.72,1.43,4.78,4.78,0,0,0,.67.22,3.38,3.38,0,0,0,.71.1,2.83,2.83,0,0,0,.65-.09,4.16,4.16,0,0,0,.73-.24,12.78,12.78,0,0,1,.83-1.6,7.62,7.62,0,0,1,.71-1,3.84,3.84,0,0,0,.38-1.94c-.06-1-.72-1.7-.93-2.62,0-.08.08-.19.17-.12a3.77,3.77,0,0,1,1.39,2.74,3.31,3.31,0,0,1-.18,1.3,1.44,1.44,0,0,1,.93-.09,1.3,1.3,0,0,1,.94,1,1.91,1.91,0,0,1,0,.89l.22-.1a1.88,1.88,0,0,0,.23-.16l0,0a2.08,2.08,0,0,0,.69-1.72A3.52,3.52,0,0,0,40.84,46.2Z"/><path class="ad94e6a6-18eb-42af-9d3c-1bba13ffc42c" d="M11.43,25.2c.06-.4.13-.8.2-1.21.19-1.15.4-2.29.58-3.44s.27-2.2.42-3.3a3.27,3.27,0,0,1,.5-1.42,3.7,3.7,0,0,1,.94-.91,9.14,9.14,0,0,1,2.49-1.05c.24-.07.51.17.42.4a1.4,1.4,0,0,0-.14,1c.15.34.69.26,1,.22a16.23,16.23,0,0,0,4.86-1.78q2.49-1.17,5-2.39c.33-.16.71.26.41.51s-.1.85.25,1.05c.63.38,1.54,0,2.18-.16l5.06-1.52a.33.33,0,0,1,.39.47,1.62,1.62,0,0,0-.24.76,20.13,20.13,0,0,0,5.76-1.7.36.36,0,0,1,.46.12,5.72,5.72,0,0,0,.9,1.23,5.57,5.57,0,0,0,.57.52A1.43,1.43,0,0,0,44,13c.76.13,1.12-1,1.25-1.5a.35.35,0,0,1,.62-.08,10.65,10.65,0,0,0,3,2.71,9.84,9.84,0,0,0,.9.5,4.54,4.54,0,0,0,.45.21l.24.11.11,0a1,1,0,0,0,0-.42l0-.57c0-.41,0-.82-.05-1.22s.37-.39.58-.23c.83.62,1.41,1.51,2.28,2.09s1.93.79,2.51-.13a.35.35,0,0,1,.64.16A4.22,4.22,0,0,0,57,16.91,2.24,2.24,0,0,0,58.51,18c.18,0,.35.13.34.32a51.44,51.44,0,0,0,.3,6.56c.12-.78.23-1.56.36-2.33.16-1,.31-2,.55-2.95a.3.3,0,0,1,.31-.23.29.29,0,0,1,.31.15l.06.1c.07-.29.14-.57.19-.86a13.17,13.17,0,0,0,0-4.34,27.23,27.23,0,0,0-1.12-4.35c-.1-.36-.25-.69-.36-1a.33.33,0,0,1,.33-.41c.32,0,.64,0,1,0L59.27,6.06c-.24-.44-.71-1-.3-1.49l.15-.13a3.65,3.65,0,0,0-.87.12,3.06,3.06,0,0,1-.74.17.74.74,0,0,1-.63-.34,2.27,2.27,0,0,1-.19-.61c0-.22-.11-.43-.16-.64a5.75,5.75,0,0,0-.79-1.75,16,16,0,0,0-.37,2.07.35.35,0,0,1-.21.29.33.33,0,0,1-.37-.07A9.7,9.7,0,0,0,51.46.84a22.09,22.09,0,0,0,.82,2.09.28.28,0,0,1,0,.15.3.3,0,0,1-.15.3l0,0h0a.37.37,0,0,1-.21,0c-.44-.11-.89-.21-1.34-.29a45.39,45.39,0,0,0-11.47-.21l-3,.21-.76,0c-.23,0-.46,0-.68,0L33.23,3c-2-.14-3.93-.29-5.9-.36A29,29,0,0,0,16.8,4a17.43,17.43,0,0,0-2.34,1,7.68,7.68,0,0,0-2,1.39,5.52,5.52,0,0,0-1.15,2c-.28.8-.54,1.6-.8,2.41a21.37,21.37,0,0,0-1,5.24,11.78,11.78,0,0,0,.12,2.65c.05.31.13.62.2.93a.41.41,0,0,1,.07-.11.31.31,0,0,1,.31-.16.3.3,0,0,1,.31.23c0,.18.08.36.11.53.22,1.08.39,2.16.56,3.24C11.25,24,11.35,24.59,11.43,25.2Z"/><path class="f08f6ea6-98ae-41b1-b8de-e07f5f0ef9a3" d="M39,49.34a4.26,4.26,0,0,0-1,1.23c-.14.22-.27.45-.39.68a4.49,4.49,0,0,1,.69-.44,3.42,3.42,0,0,1,1.49-.25h.24a1.2,1.2,0,0,0,0-1.15A.73.73,0,0,0,39,49.34Z"/><path class="f08f6ea6-98ae-41b1-b8de-e07f5f0ef9a3" d="M31.5,49.34c-.34-.24-.85-.33-1.09.07a1.21,1.21,0,0,0,0,1.14h.18a3.5,3.5,0,0,1,1.51.23,5,5,0,0,1,.74.45c-.12-.22-.25-.45-.39-.67A4.43,4.43,0,0,0,31.5,49.34Z"/><path class="f08f6ea6-98ae-41b1-b8de-e07f5f0ef9a3" d="M51.3,29.71c.65-.07,1.31-.12,2-.17s1.28-.07,1.92-.13a1.44,1.44,0,0,0,1.27-.65c.2-.45-.3-.85-.67-1.06a4.64,4.64,0,0,0-1.55-.51,9.18,9.18,0,0,0-1.89-.1,14.59,14.59,0,0,0-3.71.71,32.91,32.91,0,0,0-3.46,1.33,26.25,26.25,0,0,0-4.79,2.71,64.42,64.42,0,0,1,7-1.59C48.68,30,50,29.85,51.3,29.71Z"/><path class="f08f6ea6-98ae-41b1-b8de-e07f5f0ef9a3" d="M17.27,27.09a7.61,7.61,0,0,0-1.78.29,2.67,2.67,0,0,0-1.3.78.58.58,0,0,0-.11.6,1.06,1.06,0,0,0,.44.45,4.36,4.36,0,0,0,1.76.26,66.65,66.65,0,0,1,7.86,1q3,.57,6,1.42a27.32,27.32,0,0,0-5.62-3.07A17.1,17.1,0,0,0,17.27,27.09Z"/><path class="a7657d95-437b-4a7a-bc55-b13ea3b717f6" d="M58.9,43a10,10,0,0,1-5.12,5.6,11.8,11.8,0,0,1-7.81.78,3.63,3.63,0,0,1-1.77-.86,17.73,17.73,0,0,1-1.14-1.88,7.08,7.08,0,0,0-2-1.51,3.17,3.17,0,0,1-1.59-1.84,2.7,2.7,0,0,0,1,2A9.38,9.38,0,0,1,42,47a2.81,2.81,0,0,1-.2,3.06,3,3,0,0,0,1.71.64c1.51.24,3,.47,4.55.68a12.45,12.45,0,0,0,2.72.18c2.15-.17,4-1.39,5.78-2.56a10.75,10.75,0,0,0,2.73-2.12,10.43,10.43,0,0,0,1.51-2.78,8,8,0,0,0,.08-3.81,10.38,10.38,0,0,0-1.23-3.69c-.22.31-.1.88-.09,1.24,0,.59,0,1.19,0,1.78A12,12,0,0,1,58.9,43Z"/><path class="a5540f76-4377-4331-b2cb-49d0fbc46c7c" d="M11.64,43a10,10,0,0,0,5.13,5.6,11.77,11.77,0,0,0,7.8.78,3.59,3.59,0,0,0,1.77-.86,16.21,16.21,0,0,0,1.14-1.88,7.08,7.08,0,0,1,2-1.51,3.14,3.14,0,0,0,1.59-1.84,2.72,2.72,0,0,1-.95,2A9.09,9.09,0,0,0,28.56,47a2.81,2.81,0,0,0,.21,3.06,3.09,3.09,0,0,1-1.72.64c-1.51.24-3,.47-4.55.68a12.41,12.41,0,0,1-2.72.18c-2.14-.17-4-1.39-5.78-2.56a10.75,10.75,0,0,1-2.73-2.12,10.4,10.4,0,0,1-1.5-2.78,8,8,0,0,1-.09-3.81,10.6,10.6,0,0,1,1.24-3.69c.21.31.09.88.09,1.24,0,.59,0,1.19,0,1.78A12,12,0,0,0,11.64,43Z"/><path class="a7657d95-437b-4a7a-bc55-b13ea3b717f6" d="M55.36,35A19.76,19.76,0,0,1,55,38.12,6.3,6.3,0,0,1,53.54,41,10.13,10.13,0,0,1,49,43.29a10.35,10.35,0,0,1-4.54.62,6,6,0,0,1-1.76-.74,6.7,6.7,0,0,1-1.81-1.29,6.26,6.26,0,0,1-1.25-3,7.8,7.8,0,0,1-.07-4.23c0-.1.29-.09.39,0a13.19,13.19,0,0,0,.62,4.29,5.28,5.28,0,0,0,1.81,2.4c.39.28.84.46,1.25.7a4.25,4.25,0,0,0,2,.52,18.76,18.76,0,0,0,4-.51,8.35,8.35,0,0,0,2.59-1.36,6.2,6.2,0,0,0,1.88-2.19,8.8,8.8,0,0,0,1.12-4.18A1.87,1.87,0,0,1,55.36,35Z"/><path class="a7657d95-437b-4a7a-bc55-b13ea3b717f6" d="M15.19,35a17.71,17.71,0,0,0,.38,3.16A6.2,6.2,0,0,0,17,41a10,10,0,0,0,4.58,2.33,10.37,10.37,0,0,0,4.54.62,5.82,5.82,0,0,0,1.76-.74,6.75,6.75,0,0,0,1.82-1.29,6.15,6.15,0,0,0,1.24-3A7.71,7.71,0,0,0,31,34.69c0-.1-.28-.09-.38,0A13.2,13.2,0,0,1,30,38.93a5.26,5.26,0,0,1-1.8,2.4c-.39.28-.84.46-1.25.7a4.32,4.32,0,0,1-2,.52A18.93,18.93,0,0,1,21,42a8.58,8.58,0,0,1-2.59-1.36,6.3,6.3,0,0,1-1.88-2.19,8.79,8.79,0,0,1-1.11-4.18A1.87,1.87,0,0,0,15.19,35Z"/><path d="M60,27.75a.57.57,0,0,0,.46.75.73.73,0,0,0-.37.75.76.76,0,0,0,.6.59,1.76,1.76,0,0,0-.56,1,1,1,0,0,0,.38,1,.83.83,0,0,0,1.06-.09,9.05,9.05,0,0,1,.17,2,4,4,0,0,1-1.91-.1.68.68,0,0,1-.33-.16.76.76,0,0,1-.17-.4,13.61,13.61,0,0,1-.15-2.71c0-.92,0-1.85,0-2.77a2.42,2.42,0,0,1,.22-1.22,1,1,0,0,1,1.09-.49,1.09,1.09,0,0,0-.32.65c0,.27.39.39.37.56S60,27.51,60,27.75Z"/><path d="M10.58,27.75a.57.57,0,0,1-.46.75.72.72,0,0,1-.23,1.34,1.82,1.82,0,0,1,.56,1,1.06,1.06,0,0,1-.39,1A.83.83,0,0,1,9,31.71a10.43,10.43,0,0,0-.17,2,4,4,0,0,0,1.92-.1.69.69,0,0,0,.32-.16.63.63,0,0,0,.17-.4,12.9,12.9,0,0,0,.15-2.71l0-2.77a2.53,2.53,0,0,0-.23-1.22.94.94,0,0,0-1.08-.49,1.13,1.13,0,0,1,.31.65c0,.27-.38.39-.36.56S10.5,27.51,10.58,27.75Z"/><path d="M61.68,34.1c0-.71,0-1.43,0-2.14a3.42,3.42,0,0,0,0-.45.6.6,0,0,1-.05-.26c.05-.17.36-.29.45-.11s0,.39.28.48A6.67,6.67,0,0,0,62.75,30a4.94,4.94,0,0,0,.33,2.19.58.58,0,0,0,.36.34.43.43,0,0,0,.41-.18,1.16,1.16,0,0,0,.18-.43l.33-1.27a4.35,4.35,0,0,0,.48,1.56c.1.18.27.38.47.33s.26-.23.29-.39a4.13,4.13,0,0,0,.1-1.21A3.23,3.23,0,0,0,66,32.14a.45.45,0,0,0,.2.23.4.4,0,0,0,.44-.17,1.44,1.44,0,0,0,.21-.71c.11-1.08.18-2.16.19-3.25.33,1.18.67,2.35,1,3.52.26,0,.38-.3.43-.54a8.2,8.2,0,0,0,.15-1.2,1.31,1.31,0,0,0,.2.54.52.52,0,0,0,.52.21c.32-.09.36-.52.59-.76a4.52,4.52,0,0,1,.12,1.55,1.56,1.56,0,0,1-.92,1.22.7.7,0,0,0-.35.19.48.48,0,0,0-.07.35,4.44,4.44,0,0,1-.08,1.26A1.77,1.77,0,0,1,68,35.64,3.45,3.45,0,0,1,66,36a19.62,19.62,0,0,1-2,0,3.09,3.09,0,0,1-1.84-.74,1.25,1.25,0,0,1-.36-.52A2,2,0,0,1,61.68,34.1Z"/><path d="M8.86,34.1c0-.71,0-1.43,0-2.14a2.27,2.27,0,0,1,0-.45c0-.08.08-.18.05-.26s-.35-.29-.45-.11,0,.39-.27.48A6.67,6.67,0,0,1,7.8,30a4.81,4.81,0,0,1-.34,2.19.53.53,0,0,1-.36.34.43.43,0,0,1-.41-.18,1.33,1.33,0,0,1-.17-.43l-.33-1.27A4.37,4.37,0,0,1,5.7,32.2c-.09.18-.26.38-.47.33s-.25-.23-.29-.39a4.5,4.5,0,0,1-.1-1.21,3.05,3.05,0,0,1-.34,1.21.43.43,0,0,1-.19.23.4.4,0,0,1-.44-.17,1.35,1.35,0,0,1-.22-.71c-.11-1.08-.17-2.16-.18-3.25l-1,3.52c-.25,0-.38-.3-.42-.54A9.87,9.87,0,0,1,1.87,30a1.45,1.45,0,0,1-.19.54.53.53,0,0,1-.52.21C.83,30.68.79,30.25.57,30a4.08,4.08,0,0,0-.12,1.55,1.55,1.55,0,0,0,.91,1.22.7.7,0,0,1,.35.19.48.48,0,0,1,.07.35,4.83,4.83,0,0,0,.08,1.26,1.79,1.79,0,0,0,.68,1.06,3.41,3.41,0,0,0,2,.34,19.83,19.83,0,0,0,2,0,3.11,3.11,0,0,0,1.84-.74,1.23,1.23,0,0,0,.35-.52A1.76,1.76,0,0,0,8.86,34.1Z"/><path class="a7657d95-437b-4a7a-bc55-b13ea3b717f6" d="M35.27,52.47a8.78,8.78,0,0,0,1-.09.9.9,0,0,0,.39-.13.76.76,0,0,0,.18-.22c.28-.47.44-1,.71-1.47s.85-1.16,1.17-1.79A2.26,2.26,0,0,0,39,47.38c-.15-.77-.4-.36-.68.06A5.21,5.21,0,0,1,36.1,49.3a5.11,5.11,0,0,1-.83.29,4.7,4.7,0,0,1-.82-.29,5.15,5.15,0,0,1-2.21-1.86c-.28-.42-.54-.83-.68-.06a2.25,2.25,0,0,0,.24,1.39c.32.63.83,1.17,1.18,1.79s.43,1,.71,1.47a.72.72,0,0,0,.17.22.9.9,0,0,0,.4.13A8.42,8.42,0,0,0,35.27,52.47Z"/><path class="a7657d95-437b-4a7a-bc55-b13ea3b717f6" d="M40.89,48.11a2.28,2.28,0,0,0,.26.46.45.45,0,0,0,.49.16.54.54,0,0,0,.21-.15,1.28,1.28,0,0,0,.28-.94,2.2,2.2,0,0,1,.09,1.86,2.39,2.39,0,0,1-1.38,1.32.19.19,0,0,1-.18,0,.12.12,0,0,1,0-.1c0-.4.13-.81,0-1.2a1.18,1.18,0,0,0-.79-.76,2.4,2.4,0,0,0-1.16,0,5,5,0,0,0,.14-1.22c0-.4.06-.52.51-.45A2.17,2.17,0,0,1,40.89,48.11Z"/><path class="a7657d95-437b-4a7a-bc55-b13ea3b717f6" d="M29.65,48.11a1.89,1.89,0,0,1-.26.46.45.45,0,0,1-.49.16.5.5,0,0,1-.2-.15,1.24,1.24,0,0,1-.28-.94,2.2,2.2,0,0,0-.1,1.86,2.38,2.38,0,0,0,1.39,1.32.17.17,0,0,0,.17,0,.12.12,0,0,0,0-.1c0-.4-.13-.81,0-1.2a1.16,1.16,0,0,1,.79-.76,2.36,2.36,0,0,1,1.15,0,5,5,0,0,1-.14-1.22c0-.4-.05-.52-.5-.45A2.16,2.16,0,0,0,29.65,48.11Z"/><path d="M62.28,25.34a1.4,1.4,0,0,1,.86-.56,1.1,1.1,0,0,1,1.06.65,3,3,0,0,1,.2,1.26,2.46,2.46,0,0,1,1.7-2,2.24,2.24,0,0,1,2.49.89,3,3,0,0,0-.44-1.34,1.25,1.25,0,0,0-.34-.45,1.21,1.21,0,0,0-.46-.17,10.13,10.13,0,0,0-4.71.12,1.2,1.2,0,0,0-.45.19,1.14,1.14,0,0,0-.34.54c-.12.33-.5,1.26-.09,1.49A4.4,4.4,0,0,0,62.28,25.34Z"/><path d="M8.27,25.34a1.45,1.45,0,0,0-.86-.56,1.09,1.09,0,0,0-1.06.65,3,3,0,0,0-.21,1.26,2.45,2.45,0,0,0-1.7-2A2.24,2.24,0,0,0,2,25.57a3.05,3.05,0,0,1,.45-1.34,1.22,1.22,0,0,1,.33-.45,1.2,1.2,0,0,1,.47-.17,10.14,10.14,0,0,1,4.71.12,1.23,1.23,0,0,1,.44.19,1.07,1.07,0,0,1,.34.54c.12.33.5,1.26.09,1.49A4.34,4.34,0,0,1,8.27,25.34Z"/><path class="b8380a4d-cb2c-4d97-a649-148c424662a1" d="M33.92,34.74a49.45,49.45,0,0,1-1.32,8,10.69,10.69,0,0,0,1.76-4.5c.28-1.59.35-3.2.51-4.81a2.76,2.76,0,0,1,.26-1.06,1.07,1.07,0,0,1,.91-.58s-.33-.29-.43-.32a1.15,1.15,0,0,0-.61,0,.76.76,0,0,0-.6.49A7.87,7.87,0,0,0,33.92,34.74Z"/><path class="e46bf21b-4d83-4151-8c69-eb5974f7fcd1" d="M22.31,46.86a1.11,1.11,0,0,0,1.47.08,1.66,1.66,0,0,0,.45-.78,1.11,1.11,0,0,0,0-.65.92.92,0,0,0-.7-.51C22.38,44.74,21.43,45.92,22.31,46.86Z"/><path class="b0b10001-c603-41c6-88b7-5704779c909b" d="M17.88,47.33a1,1,0,0,0,.86.43,1.25,1.25,0,0,0,.89-.42,1.17,1.17,0,0,0-.07-1.58C18.45,44.74,17.16,46.26,17.88,47.33Z"/><path class="a2a165a4-a148-4e19-8bd6-f2b4679a5502" d="M15.52,43.31a2.6,2.6,0,0,0-.63-.69,1.11,1.11,0,0,0-.9-.19.22.22,0,0,0-.2.25,4.35,4.35,0,0,0,.45,1.86A2.8,2.8,0,0,0,15,45.71a1.14,1.14,0,0,0,1.32.18C17.27,45.27,15.93,43.93,15.52,43.31Z"/><path class="b5496d34-1240-410b-aa46-450d241e13bf" d="M54.32,9c-.26-.21-.52-.61-.26-.82a.67.67,0,0,1,.28-.1,6.27,6.27,0,0,1,1.43.11l1.75.21L55.83,7a1.15,1.15,0,0,1-.36-.43c-.16-.42.21-1-.08-1.32l-1,1.14a3.28,3.28,0,0,0-1.53-2.13,4.58,4.58,0,0,1,.32,1.5C48.11,3.51,42.32,3.59,36.78,4c-7.64.52-15.43,1.57-22.22,4.93A46.31,46.31,0,0,0,22,8.24c-1.2,1.77-3.55,3-5.47,4a89.47,89.47,0,0,0,9.83-2.9c1.24-.44,2.13-1,3.35-1.46-.76,1.19-1.21,2.21-2,3.41a6.17,6.17,0,0,0,1.84-.43q4.16-1.43,8.19-3.16a17.52,17.52,0,0,0-1.42,1.7,1.33,1.33,0,0,0,1.1-.06L44.71,6.8a11.16,11.16,0,0,0-1.83,2.66c-.06.12-.1.29,0,.38a.38.38,0,0,0,.36,0A12.23,12.23,0,0,0,46.17,8.3a10,10,0,0,0,1.5,3.26l1.2-3c.22.54.94.85,1.33,1.29l2.34,2.69c.09.11.26.24.38.14s.07-.14.07-.23l0-2a31,31,0,0,0,4.36,1.13Z"/><path d="M25.65,49.1A2.4,2.4,0,0,0,24.52,49a1,1,0,0,0-.82.34.14.14,0,0,0,.06.2,1.24,1.24,0,0,0,.91,0,3.56,3.56,0,0,0,1-.26C25.82,49.3,25.77,49.14,25.65,49.1Zm-4,.44a15.64,15.64,0,0,1-4.94-1.4,10.39,10.39,0,0,1-2.16-1.4,8.63,8.63,0,0,1-.86-.85c-.24-.26-.4-.54-.77-.61a.14.14,0,0,0-.17.12c-.07.68,1,1.4,1.46,1.8a11.33,11.33,0,0,0,2.16,1.48,9.14,9.14,0,0,0,5.25,1C21.72,49.72,21.77,49.55,21.65,49.54ZM11.21,40c0-.07-.1-.06-.12,0a4.29,4.29,0,0,0,0,2.25,2.92,2.92,0,0,0,1,1.82c.07,0,.19,0,.18-.1a10.21,10.21,0,0,0-.67-1.87A13.7,13.7,0,0,1,11.21,40Zm46.4,5.29c-.33.06-.47.29-.69.54a9.64,9.64,0,0,1-3.1,2.31,15.25,15.25,0,0,1-4.94,1.41c-.12,0-.07.18,0,.19a9.29,9.29,0,0,0,5.25-1,12,12,0,0,0,2.17-1.48c.48-.41,1.52-1.12,1.45-1.8A.14.14,0,0,0,57.61,45.28ZM70.46,29.37a10.72,10.72,0,0,0-.29-2.94A1.22,1.22,0,0,0,69,25.54c0-.15,0-.31,0-.47a2,2,0,0,0-2-1.95c-1.16,0-2.32,0-3.48,0a2.39,2.39,0,0,0-1,.19,2,2,0,0,0-1.08,1.16,2.86,2.86,0,0,0-.1.92h-1.6c.08-.57.17-1.14.27-1.78.15-1,.31-2,.51-3l0,.06a.35.35,0,0,0,.62-.08c.13-.51.27-1,.37-1.55a11.51,11.51,0,0,0,.2-2.11,18.45,18.45,0,0,0-.6-4.55c-.21-.83-.46-1.66-.74-2.47a6,6,0,0,0-.2-.6c.35,0,.71,0,1.07,0s.39-.29.29-.48c-.54-1-1.09-2-1.63-3l-.4-.74A.35.35,0,0,1,59.49,5a.1.1,0,0,0,0,0s0,0,.07-.06c.32-.19.67-.28.8-.66a.31.31,0,0,0-.23-.39,4.79,4.79,0,0,0-2,0l-.46.14c-.05,0-.17.07-.22,0s-.08-.23-.1-.3l-.09-.38A5.81,5.81,0,0,0,55.81.47a.35.35,0,0,0-.56.14,16.42,16.42,0,0,0-.46,2.08A7.84,7.84,0,0,0,51,0a.34.34,0,0,0-.42.4c.24.76.52,1.5.83,2.23a40.67,40.67,0,0,0-11-.46l-3,.22-1.48.09a6,6,0,0,1-.73,0l-.76,0c-2-.13-4-.3-6-.4a32.79,32.79,0,0,0-10.95,1A19.47,19.47,0,0,0,15,4a12.5,12.5,0,0,0-2.22,1.27,5.3,5.3,0,0,0-1.61,1.88,16.27,16.27,0,0,0-.85,2.27,29.85,29.85,0,0,0-1.35,5.32,13.3,13.3,0,0,0,.18,4.91c.08.31.16.63.23.94a.37.37,0,0,0,.67,0c.14.72.25,1.44.37,2.16.09.56.18,1.12.26,1.69,0,.24.07.47.11.71a.77.77,0,0,0,0,.15s0,.05,0,.08H9.18v-.26A2,2,0,0,0,8,23.29a4.62,4.62,0,0,0-1.78-.17H4c-.16,0-.33,0-.5,0A2.13,2.13,0,0,0,2,23.81a2,2,0,0,0-.49,1.26v.47a1.22,1.22,0,0,0-1.15.89,10.28,10.28,0,0,0-.29,2.94,6.1,6.1,0,0,0,.19,2.91,1.86,1.86,0,0,0,1.25,1.13v.91a2,2,0,0,0,.57,1.35,2.15,2.15,0,0,0,1.49.61H7a2.42,2.42,0,0,0,1-.21,2,2,0,0,0,1.05-1.19A2.59,2.59,0,0,0,9.17,34h1.6c-.1.69-.23,1.38-.38,2.06-.38,1.7-1,3.35-1.23,5.08a7.17,7.17,0,0,0,.09,2.53A6.44,6.44,0,0,0,10,45.59a11,11,0,0,0,2.9,3c.59.44,1.2.85,1.82,1.24a21.16,21.16,0,0,0,2.13,1.2,8.19,8.19,0,0,0,2.46.77,10,10,0,0,0,2.78-.07c.92-.13,1.82-.32,2.73-.48s1.84-.3,2.76-.42l1.25-.16a1.43,1.43,0,0,0,.22.15,2.74,2.74,0,0,0,1.37.35,3.18,3.18,0,0,1,1.44.2c.43.22.78.54,1.2.78a4.79,4.79,0,0,0,1.42.54,3.39,3.39,0,0,0,.78.09,4,4,0,0,0,.77-.1,4.79,4.79,0,0,0,1.39-.54c.42-.24.77-.56,1.2-.78a3.22,3.22,0,0,1,1.45-.19,2.79,2.79,0,0,0,1.36-.36l.2-.14c1.82.21,3.63.51,5.43.84a10.74,10.74,0,0,0,5.4,0,12.85,12.85,0,0,0,2.28-1.08c.65-.37,1.28-.76,1.9-1.18a14.4,14.4,0,0,0,3.25-2.87,6.74,6.74,0,0,0,1.52-4,18,18,0,0,0-1-5.06A29.09,29.09,0,0,1,59.77,34h1.59v.26a2,2,0,0,0,1.18,1.83,4.47,4.47,0,0,0,1.79.19H67a2,2,0,0,0,2.06-2v-.91a1.87,1.87,0,0,0,1.25-1.14A6.23,6.23,0,0,0,70.46,29.37ZM1.52,32.66a1.69,1.69,0,0,1-.69-1.35c0-.6,0-1.22,0-1.82s0-1.22,0-1.83,0-1.48.62-1.78ZM6,25.35c-.08,1.19-.14,2.37-.19,3.56a38.67,38.67,0,0,0,0,4c0,.57.09,1.15.13,1.72a5.15,5.15,0,0,0,.08,1,25.77,25.77,0,0,1-3-.19c-.61-.15-.74-.52-.74-1.14V25.08a1.36,1.36,0,0,1,1.39-1.32c.86,0,1.72,0,2.58,0A7.76,7.76,0,0,0,6,25.35Zm2.52.29v8.59c0,.49-2.2,1.41-2.2,1.41a6,6,0,0,0,0-1c0-.58,0-1.16.06-1.74.05-1.32,0-2.64,0-3.95,0-1.71,0-3.44.11-5.15H7a1.66,1.66,0,0,1,.79.17,1.32,1.32,0,0,1,.69,1C8.51,25.18,8.5,25.42,8.5,25.64Zm2.1-5.5c0-.18-.07-.36-.12-.53a.29.29,0,0,0-.3-.23.3.3,0,0,0-.32.15l-.06.11c-.08-.31-.15-.62-.2-.93a11.75,11.75,0,0,1-.12-2.65,21.47,21.47,0,0,1,1-5.24c.25-.8.52-1.61.8-2.4a5.44,5.44,0,0,1,1.15-2,7.48,7.48,0,0,1,2-1.4A17.43,17.43,0,0,1,16.8,4,29,29,0,0,1,27.32,2.68c2,.07,3.94.23,5.91.36l1.44.1c.23,0,.46,0,.68,0l.77,0,3-.2a45.77,45.77,0,0,1,11.46.2c.46.09.9.18,1.35.29a.34.34,0,0,0,.2,0h0l0,0a.29.29,0,0,0,.16-.3.28.28,0,0,0,0-.15C52,2.25,51.7,1.55,51.45.84a9.54,9.54,0,0,1,3.33,2.85.36.36,0,0,0,.37.06.31.31,0,0,0,.21-.29,15.59,15.59,0,0,1,.38-2.06,5.35,5.35,0,0,1,.78,1.74c.06.22.12.43.17.64a1.81,1.81,0,0,0,.19.61.72.72,0,0,0,.63.34,3.06,3.06,0,0,0,.74-.17,4.15,4.15,0,0,1,.87-.12.93.93,0,0,0-.15.13c-.41.47.06,1.06.3,1.49L60.7,8.69c-.32,0-.64,0-1,0a.32.32,0,0,0-.32.41c.1.35.26.69.35,1a26.21,26.21,0,0,1,1.12,4.35,12.91,12.91,0,0,1,0,4.34c-.06.29-.12.58-.19.86l-.06-.1a.33.33,0,0,0-.32-.15.3.3,0,0,0-.3.23c-.24,1-.39,2-.55,2.95-.13.78-.25,1.55-.36,2.33a51.36,51.36,0,0,1-.3-6.56.34.34,0,0,0-.34-.32A2.24,2.24,0,0,1,57,16.91a4.14,4.14,0,0,1-.49-2.29.34.34,0,0,0-.63-.16c-.58.92-1.73.65-2.51.13s-1.45-1.46-2.28-2.09c-.21-.16-.59-.08-.58.23s0,.81.05,1.22c0,.19,0,.38,0,.57a.85.85,0,0,1,0,.42l-.11,0-.25-.1-.44-.21c-.31-.16-.61-.32-.9-.5a10.55,10.55,0,0,1-3-2.72.35.35,0,0,0-.62.08c-.13.51-.49,1.63-1.25,1.5a1.45,1.45,0,0,1-.62-.34,7.15,7.15,0,0,1-.57-.53,5.4,5.4,0,0,1-.9-1.23.35.35,0,0,0-.46-.11,20.54,20.54,0,0,1-5.76,1.69,1.6,1.6,0,0,1,.23-.76.33.33,0,0,0-.38-.47l-5.07,1.52c-.63.19-1.54.54-2.17.16-.35-.2-.62-.75-.25-1.05s-.09-.66-.42-.5c-1.64.8-3.29,1.6-4.95,2.38a16.23,16.23,0,0,1-4.86,1.78c-.31,0-.85.12-1-.22a1.41,1.41,0,0,1,.15-1c.09-.23-.18-.47-.42-.4a8.92,8.92,0,0,0-2.5,1.06,3.47,3.47,0,0,0-.93.9,3.19,3.19,0,0,0-.5,1.42c-.16,1.1-.25,2.2-.42,3.3s-.39,2.3-.59,3.45c-.06.4-.13.8-.19,1.21-.09-.61-.18-1.22-.28-1.83C11,22.29,10.82,21.21,10.6,20.14ZM9.17,33.36V28.7a1.72,1.72,0,0,0,.51,0,2.42,2.42,0,0,0,.38,0c.14,0,.25-.09.39-.12a.06.06,0,0,0,0-.11c-.14,0-.25-.1-.39-.12a2.42,2.42,0,0,0-.38,0,1.72,1.72,0,0,0-.51,0V26h1.69l0,.23,0,.18c0,.13,0,.25,0,.38a3.21,3.21,0,0,0-.62,0,1.2,1.2,0,0,0-.78.19.08.08,0,0,0,0,.11,1.29,1.29,0,0,0,.78.2,3.64,3.64,0,0,0,.66,0s0,.07,0,.11,0,.19,0,.29a1.62,1.62,0,0,1,0,.22c0,.23,0,.45,0,.68v.15c0,.13,0,.27,0,.41v.12c0,.11,0,.22,0,.33a2.43,2.43,0,0,0-1.31,0,.1.1,0,0,0,0,.2,2.3,2.3,0,0,0,1.3,0c0,.42,0,.83,0,1.25v.11l0,.42a.34.34,0,0,1,0,.1h0a3.37,3.37,0,0,0-.55,0,1.81,1.81,0,0,0-.87.18.08.08,0,0,0,0,.14,1.7,1.7,0,0,0,.87.18,3.37,3.37,0,0,0,.55,0h0v.08c0,.14,0,.27,0,.41l0,.15c0,.14,0,.29-.05.44H9.17ZM32.12,50.79a3.5,3.5,0,0,0-1.51-.23h-.18a1.21,1.21,0,0,1,0-1.14c.24-.4.75-.31,1.09-.07a4.43,4.43,0,0,1,1,1.23c.14.22.27.45.39.68A4.35,4.35,0,0,0,32.12,50.79Zm8-.24h-.24a3.28,3.28,0,0,0-1.49.25,5.34,5.34,0,0,0-.69.43c.12-.23.25-.45.39-.67a4.13,4.13,0,0,1,1-1.23.73.73,0,0,1,1.08.06A1.2,1.2,0,0,1,40.1,50.55Zm1.26-.44,0,0a1.43,1.43,0,0,1-.24.16l-.21.1a2.05,2.05,0,0,0,0-.89,1.31,1.31,0,0,0-1-1,1.46,1.46,0,0,0-.93.09,3.14,3.14,0,0,0,.19-1.3,3.84,3.84,0,0,0-1.39-2.74c-.09-.07-.19,0-.17.12.21.92.87,1.65.93,2.62a4,4,0,0,1-.38,1.94,7.35,7.35,0,0,0-.71,1,12.78,12.78,0,0,0-.83,1.6,4.46,4.46,0,0,1-.73.24,2.91,2.91,0,0,1-.65.09,3.38,3.38,0,0,1-.71-.1,5.39,5.39,0,0,1-.68-.22,10.07,10.07,0,0,0-.72-1.43,8.42,8.42,0,0,0-.81-1.17A3.85,3.85,0,0,1,32,47.31c.07-1,.73-1.7.94-2.62,0-.08-.09-.19-.17-.12a3.77,3.77,0,0,0-1.39,2.74,3.31,3.31,0,0,0,.18,1.3,3.14,3.14,0,0,0-.71-.12s-.94.39-1.11.87a1.71,1.71,0,0,0,0,1,1.51,1.51,0,0,1-.26-.12l-.21-.16,0,0a2.14,2.14,0,0,1-.49-.63,2.42,2.42,0,0,1,.22-2.35,19,19,0,0,1,1.72-1.87,7.27,7.27,0,0,0,1.28-2.6,30.11,30.11,0,0,0,1-6.12c.11-1,.19-2,.4-3a4.82,4.82,0,0,1,1.13-2.44,2.88,2.88,0,0,1,.81-.61c1.68.87,2,2.93,2.17,4.57a61.5,61.5,0,0,0,.82,6.2,14.73,14.73,0,0,0,1,2.88,4.83,4.83,0,0,0,.73,1.16c.28.32.6.61.9.9a3.52,3.52,0,0,1,1.22,2.19A2.06,2.06,0,0,1,41.36,50.11ZM60.64,40.8a7,7,0,0,1,0,2.45A5.64,5.64,0,0,1,60,45.1a10.35,10.35,0,0,1-2.8,3,19.07,19.07,0,0,1-1.74,1.19,22.38,22.38,0,0,1-2.08,1.19,7.7,7.7,0,0,1-2.34.74,9.49,9.49,0,0,1-2.66-.1c-.92-.14-1.82-.33-2.73-.48s-1.81-.29-2.73-.41l-.7-.09a1.43,1.43,0,0,0,.14-.2,2.87,2.87,0,0,0,.08-2.66,7.4,7.4,0,0,0-1.75-2.12,4.1,4.1,0,0,1-.77-1.06,13.47,13.47,0,0,1-.59-1.43,29,29,0,0,1-1.08-6.27,27.9,27.9,0,0,0-.43-3.16,5.29,5.29,0,0,0-1.29-2.6,3.73,3.73,0,0,0-1.1-.78h0a.26.26,0,0,0-.17,0h0a.2.2,0,0,0-.11,0h0a4,4,0,0,0-1.91,1.94,9.89,9.89,0,0,0-.73,3c-.27,2.12-.37,4.27-.85,6.37a12.87,12.87,0,0,1-1,2.93,9.24,9.24,0,0,1-1.72,2,3.62,3.62,0,0,0-1.07,2.59,2.72,2.72,0,0,0,.5,1.45q-2.44.3-4.86.75a18.44,18.44,0,0,1-2.67.37,6.87,6.87,0,0,1-2.55-.34A12,12,0,0,1,16,49.84c-.63-.37-1.26-.76-1.86-1.17a12.69,12.69,0,0,1-3.07-2.77A6,6,0,0,1,9.77,42a23.5,23.5,0,0,1,1.1-5,30.38,30.38,0,0,0,.86-8.75.09.09,0,0,0,0,0V28a.58.58,0,0,0,0-.14c.21-2.19.64-4.35,1-6.52.18-1.07.34-2.13.45-3.21a6.37,6.37,0,0,1,.26-1.5,2.33,2.33,0,0,1,.7-.95,5.72,5.72,0,0,1,2-1,1.13,1.13,0,0,0,.6,1.37,2.49,2.49,0,0,0,1.3.07,10,10,0,0,0,1.34-.3,20.88,20.88,0,0,0,2.68-1.09c.93-.44,1.85-.87,2.77-1.32l2.37-1.14a1.36,1.36,0,0,0,.11.44,1.62,1.62,0,0,0,1.32,1,5.09,5.09,0,0,0,2.11-.34l2.31-.69,2-.61a2.54,2.54,0,0,0,0,.78.34.34,0,0,0,.34.32,21.23,21.23,0,0,0,6.12-1.68,6.22,6.22,0,0,0,1,1.22,2.76,2.76,0,0,0,1.6.95c.85.06,1.37-.66,1.66-1.38a11.47,11.47,0,0,0,3.18,2.65,11,11,0,0,0,1.09.54c.38.16.87.31,1.13-.11a2.15,2.15,0,0,0,.1-1.18l0-.64a9.74,9.74,0,0,0,2.14,1.86,2.83,2.83,0,0,0,1.73.35,1.89,1.89,0,0,0,.77-.29,4.15,4.15,0,0,0,.62,2,3,3,0,0,0,1.72,1.24,56.87,56.87,0,0,0,.66,9.12c0,.56-.06,1.13-.06,1.7v.65h0c0,.41,0,.83,0,1.24a.49.49,0,0,1,0,.12l0,.46c0,.06,0,.12,0,.18s0,.27,0,.4a1.49,1.49,0,0,0,0,.21c0,.17,0,.34,0,.51s0,.25.05.38,0,.08,0,.11h0c.09.71.21,1.42.36,2.12C59.75,37.49,60.35,39.11,60.64,40.8Zm.72-12.45a1.7,1.7,0,0,0-.51,0,2.3,2.3,0,0,0-.37,0c-.14,0-.25.09-.39.12a.06.06,0,0,0,0,.11c.14,0,.25.1.39.12a2.3,2.3,0,0,0,.37,0,1.7,1.7,0,0,0,.51,0v4.66H59.68c0-.36-.08-.72-.12-1.07h0a3.51,3.51,0,0,0,.56,0A1.84,1.84,0,0,0,61,32.1.08.08,0,0,0,61,32a1.63,1.63,0,0,0-.87-.18,2.63,2.63,0,0,0-.56,0h0c0-.06,0-.12,0-.18s0-.2,0-.3,0-.15,0-.22q0-.59,0-1.17a2.39,2.39,0,0,0,1.3,0,.1.1,0,0,0,0-.2,2.3,2.3,0,0,0-1.3,0v-.4h0q0-.74.06-1.47v0l0-.4a3.74,3.74,0,0,0,.67,0,1.14,1.14,0,0,0,.77-.2.07.07,0,0,0,0-.1,1.25,1.25,0,0,0-.77-.2,4.26,4.26,0,0,0-.62,0c0-.26,0-.52.08-.78h1.69v2.32Zm2.87,7.28s-2-.06-2.06-.41A13.06,13.06,0,0,1,62,33.83V25.2a1.36,1.36,0,0,1,.74-1.29,2.61,2.61,0,0,1,1.28-.15c.12,1.7.11,3.44.11,5.14,0,1.29,0,2.59,0,3.88,0,.58.07,1.16.06,1.75A8.08,8.08,0,0,0,64.23,35.63ZM68.34,34a1.7,1.7,0,0,1-.26,1.07,18.55,18.55,0,0,1-3.51.54,5.15,5.15,0,0,0,.09-1c0-.57.09-1.15.12-1.72a36.1,36.1,0,0,0,0-4c0-1.19-.1-2.37-.19-3.56a7.18,7.18,0,0,0-.18-1.59H67a1.47,1.47,0,0,1,1.09.49,1.59,1.59,0,0,1,.3,1.09V34Zm1.37-2.71a1.72,1.72,0,0,1-.7,1.35V25.88c.64.3.61,1.2.62,1.78s0,1.22,0,1.83S69.75,30.71,69.71,31.31Zm-10.34,9A12.71,12.71,0,0,1,59,42.41a10.91,10.91,0,0,0-.67,1.86.12.12,0,0,0,.18.1,2.85,2.85,0,0,0,1-1.82,4.19,4.19,0,0,0,0-2.25S59.38,40.24,59.37,40.3ZM50,46.48a.17.17,0,0,0,.28-.07,1.33,1.33,0,0,0-.1-.87,15.78,15.78,0,0,0,2.43-.92,1.14,1.14,0,0,0,.64.71.19.19,0,0,0,.25-.18,1.29,1.29,0,0,0-.34-.8c.41-.22.81-.45,1.2-.7s.6-.41.89-.63a6.35,6.35,0,0,0,.41.77.31.31,0,0,0,.54-.3,6.36,6.36,0,0,0-.49-.84l.37-.32a4.2,4.2,0,0,0,1.36-1.67c.05-.16-.14-.28-.28-.21a7.18,7.18,0,0,0-1.47,1.22l-.42.34-.39-.54c-.07-.12-.3,0-.24.09l.29.71c-.32.25-.66.48-1,.7s-.78.48-1.18.69c-.16-.29-.31-.59-.46-.89,0-.11-.26-.06-.24.06a5.28,5.28,0,0,0,.25,1.06,14.79,14.79,0,0,1-2.15.85l-.17,0c-.07-.33-.14-.66-.23-1a.15.15,0,0,0-.3,0,6.53,6.53,0,0,0,.07,1.08,17.32,17.32,0,0,1-2.3.45l-.09-1.09a.06.06,0,0,0-.11,0c-.09.34-.2.74-.27,1.15a12.15,12.15,0,0,1-2,0c0-.43,0-.85.07-1.27,0-.12-.17-.13-.2,0a11.4,11.4,0,0,0-.37,1.25,7.72,7.72,0,0,1-2.5-.76c-.06,0-.15,0-.1.1A3.74,3.74,0,0,0,44.17,46a4.34,4.34,0,0,0,0,.95c0,.24.43.34.48.07a7.32,7.32,0,0,0,.12-.94l.66,0a11.43,11.43,0,0,0,1.31,0,2.43,2.43,0,0,0,.2,1c.07.15.32.1.36,0a2.6,2.6,0,0,0,0-1,15.78,15.78,0,0,0,2.38-.41A1.22,1.22,0,0,0,50,46.48Zm-5.53-3.73a7.71,7.71,0,0,0,2.25.13,14,14,0,0,0,2.65-.47,8.85,8.85,0,0,0,3.7-1.94,6.64,6.64,0,0,0,1.78-2.72,8.46,8.46,0,0,0,.46-2.82,11.57,11.57,0,0,0-.24-2.35,10.07,10.07,0,0,0-.31-1.2.17.17,0,0,1,0-.05.36.36,0,0,0-.42-.23l-1.44.33-3.47.79-4.18,1L41.66,34c-.58.13-1.19.24-1.76.4h0a.27.27,0,0,0-.24.26s0,0,0,0a9.53,9.53,0,0,0,0,1.07,10.81,10.81,0,0,0,.43,2.52A7.22,7.22,0,0,0,41.5,41,5.45,5.45,0,0,0,44.51,42.75Zm-3-2.79a5.79,5.79,0,0,1-.36-.64,1,1,0,0,1-.07-.15l0-.06,0-.06c0-.11-.09-.22-.13-.34a8.77,8.77,0,0,1-.38-1.33c-.05-.21-.09-.41-.12-.62,0,0,0,0,0-.07h0c0-.06,0-.11,0-.16l0-.28A10.87,10.87,0,0,1,40.3,35l1.2-.27L45,33.91l4.17-1,3.61-.82,1.2-.27.28-.06.13.49q.11.45.18.9l0,.12a.2.2,0,0,0,0,.07h0l0,.28c0,.19,0,.38.06.58,0,.42,0,.85,0,1.28l0,.33c0,.06,0,.11,0,.17s0,0,0,.08v0c0,.23-.07.45-.12.68s-.12.45-.2.68-.08.23-.13.34l-.06.16,0,0h0a1,1,0,0,0,0,.1,6.15,6.15,0,0,1-.37.66,3.53,3.53,0,0,1-.21.32l-.12.16-.06.07,0,0h0a6.32,6.32,0,0,1-.56.6l-.32.28-.17.14-.09.06h0l0,0a8.39,8.39,0,0,1-.81.5,7.06,7.06,0,0,1-.89.42,11.55,11.55,0,0,1-2.3.64,10.45,10.45,0,0,1-2.43.19,5.05,5.05,0,0,1-1-.13,4.89,4.89,0,0,1-.85-.25l-.08,0-.08,0-.21-.1a3.9,3.9,0,0,1-.35-.19l-.17-.11-.08,0-.07-.05-.05,0-.08-.06-.15-.13a4.76,4.76,0,0,1-.55-.55l0-.06,0,0-.12-.16ZM46,49a2.44,2.44,0,0,0-1.14.07.15.15,0,0,0,0,.27,3.25,3.25,0,0,0,1,.25,1.24,1.24,0,0,0,.91,0,.15.15,0,0,0,.06-.21A1,1,0,0,0,46,49ZM25.52,28.49a19.87,19.87,0,0,0-7.63-2,9.6,9.6,0,0,0-2,.18,4.53,4.53,0,0,0-1.64.62,1.62,1.62,0,0,0-.88,1.43,1.59,1.59,0,0,0,1.15,1.23,7.48,7.48,0,0,0,1.95.22l2.06.16c1.36.13,2.72.31,4.07.53a64.65,64.65,0,0,1,8,1.83l1,.31a.31.31,0,0,0,.38-.16.27.27,0,0,0-.05-.38A25.12,25.12,0,0,0,25.52,28.49Zm-1.38,1.93a66.65,66.65,0,0,0-7.86-1,4.28,4.28,0,0,1-1.75-.26,1,1,0,0,1-.44-.45.56.56,0,0,1,.1-.6,2.67,2.67,0,0,1,1.3-.78,7.61,7.61,0,0,1,1.78-.29,17.1,17.1,0,0,1,7.27,1.68,27.32,27.32,0,0,1,5.62,3.07Q27.19,31,24.14,30.42Zm6.77,4.3v0a.29.29,0,0,0-.25-.26l-1.44-.33-3.47-.79-4.17-1L18,31.51c-.59-.13-1.18-.28-1.77-.4h0a.35.35,0,0,0-.41.23,7.88,7.88,0,0,0-.24.83,12,12,0,0,0-.32,2.15,9.23,9.23,0,0,0,.24,2.77,7,7,0,0,0,1.42,2.81A7.8,7.8,0,0,0,20,42.05a12,12,0,0,0,2.37.65,10.57,10.57,0,0,0,2.57.19,5.92,5.92,0,0,0,3.51-1.33A6.37,6.37,0,0,0,30.25,39a10.49,10.49,0,0,0,.61-2.66,9.62,9.62,0,0,0,.05-1.52A.09.09,0,0,0,30.91,34.72Zm-.68,1c0,.17,0,.34,0,.52l0,.28a.59.59,0,0,0,0,.14h0l0,.09a9,9,0,0,1-.27,1.27c-.07.23-.14.46-.22.68l-.14.33,0,0,0,.06a1.3,1.3,0,0,1-.08.17A5.07,5.07,0,0,1,29,40a3.37,3.37,0,0,1-.21.31l-.1.14,0,0h0l-.07.08a6.88,6.88,0,0,1-.54.54l-.14.12-.08.06-.05,0-.33.22-.37.2-.18.08-.1.05h-.06a5.54,5.54,0,0,1-.88.26,6,6,0,0,1-.94.12,8.83,8.83,0,0,1-1.15,0,14,14,0,0,1-2.51-.45,9.54,9.54,0,0,1-2-.78,6.74,6.74,0,0,1-1.44-1l-.29-.3-.13-.15-.07-.07,0,0,0,0,0-.06-.05-.07-.13-.17-.2-.31a6.29,6.29,0,0,1-.37-.67l0-.08h0a0,0,0,0,0,0,0s-.05-.11-.07-.17-.09-.23-.13-.35-.14-.45-.19-.68-.05-.23-.07-.35l0-.17s0-.05,0-.08v-.05a9.36,9.36,0,0,1-.09-1.3,9.83,9.83,0,0,1,.08-1.21l0-.25s0-.07,0-.09a.59.59,0,0,0,0-.13l.09-.47c.06-.31.15-.61.23-.91l1.12.26,3.47.79,4.17.95,3.61.83,1.56.35C30.25,35.24,30.24,35.5,30.23,35.75ZM51,30.39c1.36-.15,2.72-.22,4.08-.32a2.59,2.59,0,0,0,1.72-.63,1.21,1.21,0,0,0,.16-1.58,4.44,4.44,0,0,0-3.3-1.38,16.71,16.71,0,0,0-7.77,1.65,26.93,26.93,0,0,0-6.54,3.68c-.25.2-.49.39-.73.6a.27.27,0,0,0-.05.38.31.31,0,0,0,.38.16,62.68,62.68,0,0,1,8-2C48.27,30.74,49.62,30.54,51,30.39Zm-5.81-1.26a30.12,30.12,0,0,1,3.46-1.33,14.16,14.16,0,0,1,3.71-.71,9.22,9.22,0,0,1,1.89.1,4.42,4.42,0,0,1,1.55.51c.36.21.87.61.67,1.06a1.44,1.44,0,0,1-1.27.65c-.64.06-1.28.08-1.92.12s-1.31.11-2,.18c-1.31.14-2.62.32-3.92.54a63.89,63.89,0,0,0-7,1.59A26.25,26.25,0,0,1,45.17,29.13Zm-4.72-5.76a6.94,6.94,0,0,0,.13,2.19.12.12,0,0,0,.22,0,7.25,7.25,0,0,0,.13-2.19h1.92a9,9,0,0,0,.1,1.55c0,.09.19.09.2,0a10.1,10.1,0,0,0,.11-1.55H44.8A10.68,10.68,0,0,0,44.94,25c0,.08.17.08.18,0a10.72,10.72,0,0,0,.15-1.69h2a8.74,8.74,0,0,0,.12,1.17.15.15,0,0,0,.29,0,10.7,10.7,0,0,0,.12-1.18l1.63,0c0,.37.09.73.14,1.07,0,.06.12.06.13,0,0-.34.1-.71.14-1.08l1.74-.05a2.57,2.57,0,0,0,.15,1,.09.09,0,0,0,.17,0,2.44,2.44,0,0,0,.15-1l1.64-.06a3.7,3.7,0,0,0,.11.87.13.13,0,0,0,.23,0,3.79,3.79,0,0,0,.11-.88l1.21,0a4.77,4.77,0,0,0,.08.92.11.11,0,0,0,.2,0,4.87,4.87,0,0,0,.08-.93l.73,0a.07.07,0,1,0,0-.14l-.73,0v-.05a2,2,0,0,0-.15-1s-.05,0-.07,0a2,2,0,0,0-.14,1v0l-1.22,0a1.7,1.7,0,0,0,0-.22c0-.33.06-.75-.19-1h0c-.24.26-.17.69-.19,1,0,.07,0,.14,0,.2l-1.66-.06a6.7,6.7,0,0,0-.16-1.41c0-.06-.1-.06-.12,0a7.23,7.23,0,0,0-.15,1.4l-1.72-.05a7,7,0,0,0-.19-2.11c0-.05-.1-.05-.11,0a6.34,6.34,0,0,0-.19,2.1l-1,0h-.58a8.67,8.67,0,0,0-.2-1.66c0-.06-.12-.06-.13,0a7.92,7.92,0,0,0-.21,1.65h-2a5.41,5.41,0,0,0-.19-2.16.05.05,0,0,0-.1,0,5.41,5.41,0,0,0-.19,2.16H43.24a9.39,9.39,0,0,0-.12-1.84c0-.07-.13-.07-.15,0a10.22,10.22,0,0,0-.11,1.84H40.92a9.23,9.23,0,0,0-.21-2.35s0,0-.05,0a10.23,10.23,0,0,0-.21,2.35H38.36a8.21,8.21,0,0,0-.23-2.52s-.09,0-.1,0a8.21,8.21,0,0,0-.23,2.52H35.61a5.67,5.67,0,0,0-.2-2.4.12.12,0,0,0-.15,0,.11.11,0,0,0-.14,0,5.67,5.67,0,0,0-.2,2.4H32.73a8.77,8.77,0,0,0-.23-2.51.05.05,0,0,0-.1,0,8.43,8.43,0,0,0-.24,2.51H30.07a9.7,9.7,0,0,0-.2-2.35s-.05,0-.05,0a9.23,9.23,0,0,0-.21,2.35H27.67a10.11,10.11,0,0,0-.11-1.83.09.09,0,0,0-.16,0,10.11,10.11,0,0,0-.11,1.83H25.74a5.24,5.24,0,0,0-.19-2.13c0-.06-.08-.06-.1,0a5.24,5.24,0,0,0-.19,2.13h-2A8.44,8.44,0,0,0,23,21.05c0-.06-.11-.06-.13,0a8.55,8.55,0,0,0-.2,1.63l-1.58,0a6.43,6.43,0,0,0-.2-2.07.05.05,0,0,0-.1,0,6.46,6.46,0,0,0-.2,2.08l-1.72,0a6.91,6.91,0,0,0-.15-1.36c0-.05-.11-.05-.12,0a7,7,0,0,0-.15,1.37l-1.67,0s0-.1,0-.14c0-.33.05-.76-.19-1a0,0,0,0,0,0,0c-.25.25-.18.68-.19,1a.76.76,0,0,0,0,.15l-1.22,0a1.87,1.87,0,0,0-.14-1s-.06,0-.07,0a1.9,1.9,0,0,0-.15,1l-.73,0a.14.14,0,1,0,0,.27l.73,0a4.91,4.91,0,0,0,.08.86.1.1,0,0,0,.2,0,4.08,4.08,0,0,0,.08-.85l1.22,0a2.82,2.82,0,0,0,.11.81.11.11,0,0,0,.22,0,3.59,3.59,0,0,0,.11-.8l1.64.05a2.51,2.51,0,0,0,.15.94.1.1,0,0,0,.18,0,2.42,2.42,0,0,0,.14-.93l1.75.05c0,.35.08.7.14,1,0,.05.11.05.12,0,0-.33.1-.68.14-1l1.05,0h.59a8.31,8.31,0,0,0,.11,1.14.16.16,0,0,0,.3,0,8.31,8.31,0,0,0,.11-1.14h2.05A10.43,10.43,0,0,0,25.41,25a.1.1,0,0,0,.18,0,10.33,10.33,0,0,0,.14-1.66h1.54a9.88,9.88,0,0,0,.11,1.54c0,.09.18.09.2,0a10,10,0,0,0,.11-1.54H29.6a7.16,7.16,0,0,0,.13,2.18.12.12,0,0,0,.22,0,6.86,6.86,0,0,0,.13-2.18h2.06a5.41,5.41,0,0,0,.17,2,.15.15,0,0,0,.28,0,5.42,5.42,0,0,0,.16-2H34.9a8,8,0,0,0,.16,2.19.16.16,0,0,0,.2.11.17.17,0,0,0,.21-.11,8,8,0,0,0,.15-2.19h2.15a5.64,5.64,0,0,0,.17,2,.15.15,0,0,0,.28,0,5.4,5.4,0,0,0,.16-2Z"/></g></g></g></svg>