<svg xmlns="http://www.w3.org/2000/svg" viewBox="0 0 67.31 83.97"><defs><style>.f18671af-2d15-43f8-86df-4d386ab96429{fill:#391332;stroke:#391332;}.a0c43898-aa9d-43d4-807e-5efcf1c1409e,.a1d05f7e-7917-411a-8476-9790d93244ed,.a1ed544b-ed44-4c15-9955-a29b14ae79c7,.a2124ee6-ea00-4253-af7e-a158e4a105df,.a2e2f95a-2444-469f-b0e3-61d1df1a5861,.a4e39c54-bde4-407a-bb0e-33fbbaaee87f,.a4e44ea4-5a03-4b3d-b11d-6cd5b85d9fd5,.a58c4169-59f9-4c4a-abda-4901cc559637,.a7e05abd-eb86-4284-b139-e0d0a131057d,.aa8eefa3-b9a9-4b61-8810-d64ca778a285,.aaadc95e-311a-4dcd-ba9b-1893293a2482,.ae6ae9d2-d190-4428-9ae7-ccdcfbb16b19,.aebba4e5-26a9-4df5-918b-dc387c8b276a,.b01287d6-470b-466a-af27-ce2a52a5082c,.b101f4cd-1bed-4a16-8de4-bac7d311932e,.b190bee5-7bb3-4d1f-adfa-db21794e21bf,.b1c9c365-5916-4366-bbda-cb092a20955d,.b297da22-b27f-4f40-aac9-21679e11855b,.b4cf2773-5f90-42b6-9450-99bf07262b29,.b56f6bf2-dfc1-4536-bee9-eabbb3842515,.b575c5b2-e837-42fb-904a-f904e2c3235c,.b5edcdc1-3c9f-45e9-aeb8-6cf65e15ed76,.b8c49e58-e1bd-43eb-b9db-59494be288f5,.b980f207-6b97-4f60-9483-c7ca2c6fa60c,.b9c7bad5-6cce-4da0-b94e-66b5b5247e24,.ba26fbd3-f9f6-4cb1-9577-5dc2bee333bd,.baccbb62-e2aa-4727-9740-764da2fb92eb,.bae2d9a1-29d2-4aaa-ac4d-1e9cfe6e19aa,.bd1a7792-b949-40fe-af1e-ff2a8cf44e9f,.bf7804be-eb71-446f-8e06-4533bf3b1ab8,.bf7f0a23-8e34-42f4-b7e1-05dddb8a18d1,.bf913adf-87c5-4833-a784-a380581a28eb,.e27010f2-e4bd-4331-809b-1353cf3921e7,.e27d198e-9a88-4209-a28a-94e47ac3c7bf,.e3ca4a44-b25f-4073-b337-24b67d63dd83,.e4524f2a-3a6f-4d07-91b0-ee4f0ca4db2e,.e454a85c-0ed4-4c9a-b77e-5f26cd83ed54,.e459e036-a8cd-4c0f-8b42-78977c648cf5,.e4681577-5585-4ba9-beec-2b6ca3ea30ff,.e5a2d7c1-1bf7-4554-8617-272d128f9e71,.e5f211fe-d0ae-4157-b1b9-5128c9c80f7f,.e9ab102f-9bc4-48ba-8566-881694466967,.ee1c33ab-040c-44ef-8980-dca066a0e502,.f04088ed-91a4-4da3-bfe4-4f331487b2ae,.f18671af-2d15-43f8-86df-4d386ab96429,.f1c8c6bc-83e5-40cd-b38c-9fe65d8b58a3,.f2fc31d9-c13d-48db-8046-24916a9fc177,.fb391a3e-e856-4dec-9c7e-83e11235e878,.fb8c5941-5c4d-49a2-83ed-f962559c65f7,.fb8c65ab-4ba3-413e-be41-3b5343e84ec9,.fd307257-a88d-4b1f-be44-e4043dc4b0be,.fdce02eb-2b40-4131-b7e7-5174ade84478{stroke-linecap:round;stroke-linejoin:round;stroke-width:0.98px;}.bae2d9a1-29d2-4aaa-ac4d-1e9cfe6e19aa{fill:#351231;stroke:#351231;}.a1ed544b-ed44-4c15-9955-a29b14ae79c7{fill:#cf3844;stroke:#cf3844;}.bf7804be-eb71-446f-8e06-4533bf3b1ab8{fill:#37112f;stroke:#37112f;}.e454a85c-0ed4-4c9a-b77e-5f26cd83ed54{fill:#351030;stroke:#351030;}.a2124ee6-ea00-4253-af7e-a158e4a105df{fill:#4d1a49;stroke:#4d1a49;}.e4681577-5585-4ba9-beec-2b6ca3ea30ff{fill:#4b1947;stroke:#4b1947;}.b9c7bad5-6cce-4da0-b94e-66b5b5247e24{fill:#4b1946;stroke:#4b1946;}.e3ca4a44-b25f-4073-b337-24b67d63dd83{fill:#361031;stroke:#361031;}.ee1c33ab-040c-44ef-8980-dca066a0e502{fill:#521c4e;stroke:#521c4e;}.b56f6bf2-dfc1-4536-bee9-eabbb3842515{fill:#f75aad;stroke:#f75aad;}.b101f4cd-1bed-4a16-8de4-bac7d311932e{fill:#351031;stroke:#351031;}.ae6ae9d2-d190-4428-9ae7-ccdcfbb16b19{fill:#4c1a48;stroke:#4c1a48;}.f1c8c6bc-83e5-40cd-b38c-9fe65d8b58a3{fill:#f759a7;stroke:#f759a7;}.e27d198e-9a88-4209-a28a-94e47ac3c7bf{fill:#f95aae;stroke:#f95aae;}.b1c9c365-5916-4366-bbda-cb092a20955d{fill:#491845;stroke:#491845;}.b980f207-6b97-4f60-9483-c7ca2c6fa60c{fill:#d63b89;stroke:#d63b89;}.b4cf2773-5f90-42b6-9450-99bf07262b29{fill:#d63b81;stroke:#d63b81;}.b297da22-b27f-4f40-aac9-21679e11855b{fill:#f5579f;stroke:#f5579f;}.f04088ed-91a4-4da3-bfe4-4f331487b2ae{fill:#471843;stroke:#471843;}.bf913adf-87c5-4833-a784-a380581a28eb{fill:#f25391;stroke:#f25391;}.a4e44ea4-5a03-4b3d-b11d-6cd5b85d9fd5{fill:#d63b85;stroke:#d63b85;}.fd307257-a88d-4b1f-be44-e4043dc4b0be{fill:#d63b87;stroke:#d63b87;}.b01287d6-470b-466a-af27-ce2a52a5082c{fill:#fa5cb4;stroke:#fa5cb4;}.aaadc95e-311a-4dcd-ba9b-1893293a2482{fill:#4f1b49;stroke:#4f1b49;}.ba26fbd3-f9f6-4cb1-9577-5dc2bee333bd{fill:#d63a76;stroke:#d63a76;}.aa8eefa3-b9a9-4b61-8810-d64ca778a285{fill:#f5569d;stroke:#f5569d;}.e9ab102f-9bc4-48ba-8566-881694466967{fill:#f758a4;stroke:#f758a4;}.e27010f2-e4bd-4331-809b-1353cf3921e7{fill:#d63a7d;stroke:#d63a7d;}.bf7f0a23-8e34-42f4-b7e1-05dddb8a18d1{fill:#f5569e;stroke:#f5569e;}.fdce02eb-2b40-4131-b7e7-5174ade84478{fill:#f85aab;stroke:#f85aab;}.e4524f2a-3a6f-4d07-91b0-ee4f0ca4db2e{fill:#4f1b4b;stroke:#4f1b4b;}.fb8c65ab-4ba3-413e-be41-3b5343e84ec9{fill:#4e1b4a;stroke:#4e1b4a;}.a1d05f7e-7917-411a-8476-9790d93244ed{fill:#501b4c;stroke:#501b4c;}.a0c43898-aa9d-43d4-807e-5efcf1c1409e{fill:#4a1946;stroke:#4a1946;}.b575c5b2-e837-42fb-904a-f904e2c3235c{fill:#d63b8a;stroke:#d63b8a;}.f2fc31d9-c13d-48db-8046-24916a9fc177{fill:#f5569c;stroke:#f5569c;}.fb8c5941-5c4d-49a2-83ed-f962559c65f7{fill:#d63b86;stroke:#d63b86;}.e459e036-a8cd-4c0f-8b42-78977c648cf5{fill:#d63a70;stroke:#d63a70;}.a7e05abd-eb86-4284-b139-e0d0a131057d{fill:#d63b82;stroke:#d63b82;}.b190bee5-7bb3-4d1f-adfa-db21794e21bf{fill:#d63b8b;stroke:#d63b8b;}.a4e39c54-bde4-407a-bb0e-33fbbaaee87f{fill:#d63b8c;stroke:#d63b8c;}.e5a2d7c1-1bf7-4554-8617-272d128f9e71{fill:#d63a7f;stroke:#d63a7f;}.a2e2f95a-2444-469f-b0e3-61d1df1a5861{fill:#d63a7b;stroke:#d63a7b;}.baccbb62-e2aa-4727-9740-764da2fb92eb{fill:#441640;stroke:#441640;}.bd1a7792-b949-40fe-af1e-ff2a8cf44e9f{fill:#d63b83;stroke:#d63b83;}.e5f211fe-d0ae-4157-b1b9-5128c9c80f7f{fill:#d43977;stroke:#d43977;}.b8c49e58-e1bd-43eb-b9db-59494be288f5{fill:#d63c97;stroke:#d63c97;}.aebba4e5-26a9-4df5-918b-dc387c8b276a{fill:#40153c;stroke:#40153c;}.fb391a3e-e856-4dec-9c7e-83e11235e878{fill:#d63a74;stroke:#d63a74;}.a58c4169-59f9-4c4a-abda-4901cc559637{fill:#f4569a;stroke:#f4569a;}.b5edcdc1-3c9f-45e9-aeb8-6cf65e15ed76{fill:#f25392;stroke:#f25392;}</style></defs><g id="ec5920ed-0aca-4dc6-aa8b-b9597e4a4c33" data-name="Layer 2"><g id="b06fcff8-2608-49a3-8f96-9abc10e02d77" data-name="Layer 1"><g id="ab5078bd-6d1c-4088-9f3d-a5b86261612e" data-name="Layer 1"><path class="f18671af-2d15-43f8-86df-4d386ab96429" d="M32.49,31.35h.28a11.08,11.08,0,0,0-2.65,1.83c.39.2.11.21-.37.09-.46.93-1.58.79,0,1.74a2,2,0,0,1-1.19-.82,4.25,4.25,0,0,0-1.64,1.28c.41.2-3.66,3.56-3.66,5.58,0,.27,0,.45.27.45,0,.42,1.13,1.45,1.46,1.56,0,.25,0,.15.19.27-.13.25,0,.55.27.55-.35,1.07.3,2.46-1.37,3,1.69-1.69-2.16-3.81-3-4.67-1.46-1.46-.11-3.18.83-4.39-.88-.43-4.3,2-5.13,2.38s-2.33.61-3,1.47C10.67,45.53,10.2,56,10.91,60.25h.19c0,.35-.1.45,0,.82h.18v.28h.18a2.2,2.2,0,0,1-.18.64l.18.09-.09.27.18.09-.09.28.18.09-.09.18.19.09A.85.85,0,0,0,12,64l-.09.18.18.09-.09.19.18.09c-.13.27,0,.45.09.73h.19l-.09.18c.23.24.16.42.27.73h.18l-.09.19h.18c-.19.58.43.34.19.82h.18l-.09.18h.18l-.09.18h.18c-.12.26,0,.55.28.55l-.09.19c.88,0-1.57.7-1.92.82C10.37,69.57,8.37,70.43,8,72c-1,4.18,4.55,10.16-2.29,11.53C9,82.39,7.39,78.68,6,76.8,2.38,72,3.91,66.64,10.09,65.1c0-.72-2.28-2.47-2.84-3a25,25,0,0,1-5.12-8C-2.6,42.2,3.52,31.8,12.47,24.13c.32.64-.31,1.61,0,2.38.38.94,1.73.72,2.37,1.37s.57,1.66,1.19,2.28c-.77.52-2.1.52-3,.83a10,10,0,0,0,3.65-.19c1.39,2.77,6.42-1.24,8.14-1.73.49-.14,2.84.08,2.84.73-2,0-4.79,1.72-6.77,2.28-3.61,1-8.5,1.37-11.8,3C15.9,35.4,21.88,32.43,28,30,28.82,29.66,32.49,30.56,32.49,31.35Z"/><path class="bae2d9a1-29d2-4aaa-ac4d-1e9cfe6e19aa" d="M55.81,49.46C55.32,47,54.35,42,52.25,40.31c-1.49-1.18-4.61-1.66-6.41-2.56-1.14-.57-3.27-2.47-4.48-2.47-.65,0-1.23,1.1-2,1.1a17.09,17.09,0,0,1,1.92-1.19A18,18,0,0,0,39.35,34c-.29.29-1,1-1.37,1,.41-.41.87-.78,1.28-1.19a19.37,19.37,0,0,1-3-2.1c.4-.8,1.49-.72,2.2-1C39,31.87,41,32.85,42,33.64c6.61,5,14.74,6,22.86,6.13-8.21-1-19.66-3-25.87-9.24,1.84-1.23,4.12.9,6.21,1.74a53,53,0,0,0,16.74,3.47C56.82,34.46,51.79,33.67,46.76,32c1-.33,2,.43,3.11,0s1.33-1.49,1.92-2.38c.27-.4,1,0,1.46,0,1,0,.18-.91,2.56-.91l-1.55-.09c1-2,1.36-5.4-1-6.59.13-.25.13-.52.37-.64,3.69,3.69,7.32,7.08,10.15,11.8,5.81,9.68,3.08,24-6.13,30.91,3.37.84,7.1,4.17,6.13,8-1,4.08-6.18,6.25-2,10.42-5.76-.82-1.92-7.74-1.92-11.34,0-2.16-4.12-3.21-5.67-3.47.5-1.52,1-3,1.37-4.57C54.15,64.1,56.36,52.22,55.81,49.46Z"/><path class="a1ed544b-ed44-4c15-9955-a29b14ae79c7" d="M12.74,26.69h-.18c0-2,2-9.12,4.2-9.51,1.68-.3,1.46.73,2.66.73,1.78,0,3.19-1,5.21,0,2.08-2.08,3.5-2,6.4-2.65.53-.12,1.44-1,1.92-1.28,3.11-1.56,5,.13,5.4,3a4.28,4.28,0,0,1,3.56,2.19c.19-.1.91-1.49,1.19-1.74.95-.84,9.42.55,10.15,1.65.59.88-.24,2.37.09,2.92,1.34,2.23,2.34,3.75.92,6.59h1.55a10.86,10.86,0,0,0-2.56,1c-.49,0-1.19-.4-1.46,0-1,1.44-1.32,2.57-3.39,2.57C47,32.18,45.09,32.06,44,31c-.78-.78-1.83-3.3-3.11-3.3,0,3.86-6,4.25-8.42,3.66,0-.25.06-.15-.18-.27a50.18,50.18,0,0,0-6.86-2.29c-2.49,0-5.38,4.29-7.95,2.74-1.45-.86-1.51-2.89-2.66-3.65C14.17,27.43,13.05,27.63,12.74,26.69Z"/><path class="bf7804be-eb71-446f-8e06-4533bf3b1ab8" d="M38.35,17a4.28,4.28,0,0,1,3.56,2.19C45.36,17.47,47,6.92,44.2,4.1c2.73,1.37,2,10.58.82,12.9,1.48.73,4.75.95,6.13.91,2-.06,3-9.55,3-10.06a2.72,2.72,0,0,0-.1-.46c1.89,3.77-.16,7.82-2.46,10.7a2.11,2.11,0,0,1,1.55,1c2.84-2.59,3.66-5.22,3.66-9,0-.93-.64-1.78-.64-2.66,1.61,3.23,1.82,10.55-2.75,12.07a4.87,4.87,0,0,1,.19,1.19c6.91,0,8-10.33,4-14.26C51.82.57,42.84.05,34.78.72l.37.09c0,1.33,1.3,3.17,1.55,4.57.52,2.85.22,5.72.46,8.6C37.22,14.71,38.21,16,38.35,17Z"/><path class="e454a85c-0ed4-4c9a-b77e-5f26cd83ed54" d="M33,14c-.65-3.91-1.6-7.78-2.56-11.62-.31,4,.53,8.47,1.19,12.44-1.75.88-4.23,1.38-6.13,2.2-.41.17-1.8-3.94-1.92-4.3a22,22,0,0,1-.91-9.06,21.86,21.86,0,0,0,.27,9.42c.3,1.06,2.05,3.74,1.92,4.67-.06.45-.68,0-.82-.09-1.87-.75-2.87-.6-3.66-2.57A18.62,18.62,0,0,1,19,7.67c0-1.31.91-2.54.91-3.75A64.41,64.41,0,0,1,35.15.81c0,1.66,1,3.53,1.18,5.21a61.1,61.1,0,0,1,.28,7.77C35.34,13.16,34.17,13.67,33,14Z"/><path class="a2124ee6-ea00-4253-af7e-a158e4a105df" d="M30.76,30.62c-1.09,1.62-4,2.84-5.67,3.84-6.81,4.08-14,6.81-22,7C13.21,39.47,21.66,35.17,30.76,30.62Z"/><path class="e4681577-5585-4ba9-beec-2b6ca3ea30ff" d="M38.44,30.71a1.12,1.12,0,0,0,.55-.18c5.78,5.79,18.24,8.19,25.87,9.14C57.48,39.79,43.24,37.92,38.44,30.71Z"/><path class="b9c7bad5-6cce-4da0-b94e-66b5b5247e24" d="M40.91,27.69a4.25,4.25,0,0,1-.83,2,53.89,53.89,0,0,0,21.86,6c-3.13-.78-6.39-1-9.51-1.92-1.75-.5-3.93-1.71-5.67-1.92-.53-.06-1.3.14-1.83-.18C43.63,30.94,42.5,27.69,40.91,27.69Z"/><path class="e3ca4a44-b25f-4073-b337-24b67d63dd83" d="M14.57,19.74c-1.1-2.19-4-3.7-4.21-6.68-.4-5.88,4.79-7.57,9.51-9.14A12.72,12.72,0,0,0,18.69,13c.15.53,2,4.28,2,4.3-1.69,1.13-2.54-.88-4.3,0a12.51,12.51,0,0,1-1.19-9,9.5,9.5,0,0,0-.73,6.22,33.55,33.55,0,0,1,1.37,3.11A20.35,20.35,0,0,1,14.57,19.74Z"/><path class="ee1c33ab-040c-44ef-8980-dca066a0e502" d="M28.56,29.8c-1.89,0-5,2-6.77,2.74A38.44,38.44,0,0,1,9,35.19c2-1,4.81-1,7-1.64,4-1.13,7.81-2.45,11.71-3.75v-.19C28.08,29.61,27.77,29.6,28.56,29.8Z"/><path class="b56f6bf2-dfc1-4536-bee9-eabbb3842515" d="M36.06,30.35c1.92-1.92,3-3.52,1.74-6.68-.85-2.11-4.37-4-5.76-1.19-.92-2.76,4.18-2.42,5.3-2.1C42,21.72,41.05,33.67,36.06,30.35Z"/><path class="b101f4cd-1bed-4a16-8de4-bac7d311932e" d="M10.73,8.86c0,1.46-.82,3-.82,4.57,0,2.14,2.67,6.13,4.57,6.77,0,2.71-3.74-2.12-4.39-3.2C8.18,13.81,9.31,11.7,10.73,8.86Z"/><path class="ae6ae9d2-d190-4428-9ae7-ccdcfbb16b19" d="M11.19,66.19c-5.41,2.71-5,4.35-5,9.51-2.09-3.12-1.62-6.21,1.73-8.23C8.51,67.1,10.57,65.89,11.19,66.19Z"/><path class="f1c8c6bc-83e5-40cd-b38c-9fe65d8b58a3" d="M31.4,28.43c2.38-.6,6.39-1.05,5.12-4.85-.46-1.36-3.39-1.36-3.39,0,0,.78,1.56.78,1.56-.46h-.18c.29-.29.09-.2.64-.09.28,2.59-2.93,2-2.93-.09,0-2.4,4-1.43,4.75-.09C40.25,28.31,34.62,33.27,31.4,28.43Z"/><path class="e27d198e-9a88-4209-a28a-94e47ac3c7bf" d="M37.71,19c-.43,0-1.55-1.9-2-2.29-2.33-1.94-5.22.76-5.76,2.93-3.22-1.61,7.17-10.5,8-3A7,7,0,0,1,37.71,19Z"/><path class="b1c9c365-5916-4366-bbda-cb092a20955d" d="M14.48,20.2c-3.48-1.75-5.65-7.37-3.84-11,.41.82-.53,3.72.18,5.49C11.41,16.17,14.72,19,14.48,20.2Z"/><path class="b980f207-6b97-4f60-9483-c7ca2c6fa60c" d="M46.67,31.08c5.5-.92,3.92-10-.19-7.32,1.38-1.55,5.23-.92,5.49,1.47C52.32,28.33,50.85,33.87,46.67,31.08Z"/><path class="b1c9c365-5916-4366-bbda-cb092a20955d" d="M53.43,19.46c4.33-2.16,4.62-8.31,2.75-12.07-.28.82.64,5.09.64,5.49,0,2.31-2.24,4.72-3.57,6.31Z"/><path class="b4cf2773-5f90-42b6-9450-99bf07262b29" d="M44,27.69c.73,1.48,4.78,1.07,5.21-.64,1-4.07-3.5-1.9-1.65-1.37.76.22.38-.42.82-.64.78.78-.54,1.26-1.18,1.19-1.54-.17-.78-2.69,1-2.56,3.32.24,1.44,5.33,0,6.77C46.47,32.19,44,29.23,44,27.69Z"/><path class="b297da22-b27f-4f40-aac9-21679e11855b" d="M29.93,21.2c0,.65.55,1.19.83,1.74-2.67,2.67,2,4.17,3.65,4.3C31.1,31.66,25.38,21.2,29.93,21.2Z"/><path class="e4681577-5585-4ba9-beec-2b6ca3ea30ff" d="M24.81,17.54a22,22,0,0,1-2.28-13.8c.5,3.51-.34,10.09,2.74,13.16Z"/><path class="f04088ed-91a4-4da3-bfe4-4f331487b2ae" d="M56.73,65.37c4,0,6.41,5,4.29,8.14,0-1,.37-1.94.37-3C61.39,67.2,57.54,67,56.73,65.37Z"/><path class="bf913adf-87c5-4833-a784-a380581a28eb" d="M38.44,20.56c-4.19-2.09-6.5-.48-7,3.57-.67-2,0-5.24,2.65-5.49C35,18.55,38.44,19,38.44,20.56Z"/><path class="ae6ae9d2-d190-4428-9ae7-ccdcfbb16b19" d="M19.87,3.92c.2.4-.44,1.54-.54,2A20.62,20.62,0,0,0,19,10.59c0,2.34,1.38,4.5,2.38,6.5-.93.46-2-2.67-2.29-3.39C17.72,10.37,18.34,7,19.87,3.92Z"/><path class="a4e44ea4-5a03-4b3d-b11d-6cd5b85d9fd5" d="M20.15,19.56c-2.87,0-4.48-.09-4.48,3.38a1.91,1.91,0,0,0,.55,1.19l-.19.18C11.87,22.23,17.16,13.59,20.15,19.56Z"/><path class="fd307257-a88d-4b1f-be44-e4043dc4b0be" d="M51.79,23.3c0-3.13-3.53-5.72-5.76-2.37-.79-3.14,5.54-3.52,6.95-1.65C53.59,20.1,53.09,23.3,51.79,23.3Z"/><path class="b01287d6-470b-466a-af27-ce2a52a5082c" d="M38.35,17.36c3.5,0,6.52,7.56,2.46,8.14C40.81,22.25,37.49,20.34,38.35,17.36Z"/><path class="ae6ae9d2-d190-4428-9ae7-ccdcfbb16b19" d="M51,18c2.76-1.38,3.52-8.51,3.1-10.61C54.68,8.6,54.44,18.58,51,18Z"/><path class="b297da22-b27f-4f40-aac9-21679e11855b" d="M36.88,18.73c-4.51,0-4.13-.78-6.22,3.39C29.14,17.55,34.63,14.24,36.88,18.73Z"/><path class="aaadc95e-311a-4dcd-ba9b-1893293a2482" d="M31.58,14.71c0-4-.95-8.23-1.28-12.25A62.47,62.47,0,0,1,33,14C33,14.22,31.82,14.71,31.58,14.71Z"/><path class="ba26fbd3-f9f6-4cb1-9577-5dc2bee333bd" d="M24.54,27.6c-.61.61-1.7.5-2.47.55.69-1.38,1.71-2.18,1.55-4.11a1.66,1.66,0,1,0-3.29.45c.86.18,1.33-.62.37-1,.16-.32,0-.14.45-.46.57.57.79,1.34.1,1.92-1.7,1.41-3.06-2.77,0-3.11C25.4,21.38,23.52,25.58,24.54,27.6Z"/><path class="aa8eefa3-b9a9-4b61-8810-d64ca778a285" d="M30.39,15.62c0,1.58-2.07,1.37-2.93,2-1.52,1.14-1.46,2.11-1.46,4C24.07,17.8,26,15.62,30.39,15.62Z"/><path class="e9ab102f-9bc4-48ba-8566-881694466967" d="M25.73,21.93c1.37-.3,1.14,4,1.19,4.67a4.06,4.06,0,0,0,.64,1.92c.19.26.86.5.64.73C26.17,31.27,22.18,22.71,25.73,21.93Z"/><path class="b1c9c365-5916-4366-bbda-cb092a20955d" d="M45.2,17.18l-.27-.09C46.64,13.66,47.31,7,44.29,4c0,1.12.87,2.4,1,3.57.34,2.91.2,6.82-1.19,9.6Z"/><path class="e27010f2-e4bd-4331-809b-1353cf3921e7" d="M24.63,23.12c-2-2-5.67-2-5.67,1.47C15.83,18.32,28.07,19.68,24.63,23.12Z"/><path class="bf7f0a23-8e34-42f4-b7e1-05dddb8a18d1" d="M29.2,17.45a14.65,14.65,0,0,0,.64,3.39c-3.42,0-1.19,3.44-1.19,5C27.62,23.79,23.7,17.45,29.2,17.45Z"/><path class="fdce02eb-2b40-4131-b7e7-5174ade84478" d="M27.28,24.77c1.61,1.6,4.37,3.33,5.4,5.39C28.72,30.16,27.28,28.77,27.28,24.77Z"/><path class="e4524f2a-3a6f-4d07-91b0-ee4f0ca4db2e" d="M56.36,46.71c1.14,2.27,7.37,2.57,9.24,2.84C64.17,50.26,56.36,49.77,56.36,46.71Z"/><path class="e4524f2a-3a6f-4d07-91b0-ee4f0ca4db2e" d="M11,47.35c0,3.19-8.19,3.31-9.32,2.93A18.66,18.66,0,0,0,11,47.35Z"/><path class="fb8c65ab-4ba3-413e-be41-3b5343e84ec9" d="M11.74,42.78c0,3.26-8.21,3.21-9.33,2.93A18.63,18.63,0,0,0,11.74,42.78Z"/><path class="a1d05f7e-7917-411a-8476-9790d93244ed" d="M55.63,42.14C56.76,44.41,63,44.71,64.86,45,63.69,45.37,55.63,45.39,55.63,42.14Z"/><path class="a0c43898-aa9d-43d4-807e-5efcf1c1409e" d="M35.24,1.18A21.1,21.1,0,0,1,37,14c-1.19-.8-.25-2.87-.27-4.3A28,28,0,0,0,35.24,1.18Z"/><path class="b575c5b2-e837-42fb-904a-f904e2c3235c" d="M14.75,23.49c.42.83,1.44,1,2.2,1.37-1.5,2,.64,2.65,2.1,3.38C17.21,28.4,11.05,25.34,14.75,23.49Z"/><path class="f2fc31d9-c13d-48db-8046-24916a9fc177" d="M35.69,22.94a4,4,0,0,1,.74,2.47c0,3.72-8,.62-5.58-1.83,0,.47.46,1.28.91,1.28,0,1,1.51,1.34,2.2.82.53-.4,1.37-.94,1.55-1.64C35.61,23.63,35.24,23.17,35.69,22.94Z"/><path class="fb8c5941-5c4d-49a2-83ed-f962559c65f7" d="M44.47,21.75c2.17-.58-.09,3-.09,4.39,0,.61.9,1.27,1.37,1.46.31.13,1.13.43.83.55C43.36,29.44,41.67,22.5,44.47,21.75Z"/><path class="e459e036-a8cd-4c0f-8b42-78977c648cf5" d="M21.43,19.83c-2.15,1.07-5,4.21-1.74,5.85C17.54,26.4,16,19.29,21.43,19.83Z"/><path class="a7e05abd-eb86-4284-b139-e0d0a131057d" d="M15.3,27.79c1.5-.92,2.21,1.25,3.48,2,.5.3,2.21.62,1.92.91C18.62,32.79,13.84,28.68,15.3,27.79Z"/><path class="fd307257-a88d-4b1f-be44-e4043dc4b0be" d="M17.13,25.13c1.18-.78,1.33,1,2.2,1.65a2.45,2.45,0,0,0,2.46.18c.47-.35,1.07-1.73,1.28-1.19C24.71,29.85,13.79,27.36,17.13,25.13Z"/><path class="ba26fbd3-f9f6-4cb1-9577-5dc2bee333bd" d="M52,24.68c-1.56-3.12-5-2.54-6.4.18C44.89,20.8,52,20.66,52,24.68Z"/><path class="b190bee5-7bb3-4d1f-adfa-db21794e21bf" d="M53.16,22.3a3.39,3.39,0,0,1,1.37,2c.42,1.47,0,5.47-2.38,5a.27.27,0,0,1-.18-.18c-.31-1.08.55-2.4.55-3.48,0-.49-.6-1.68-.46-2.1S52.81,22.07,53.16,22.3Z"/><path class="fd307257-a88d-4b1f-be44-e4043dc4b0be" d="M19.51,19.65c0,1.69-4.13,1.26-1.37,5.39C16,25.75,14.14,18.57,19.51,19.65Z"/><path class="e4681577-5585-4ba9-beec-2b6ca3ea30ff" d="M15.85,17.64c-1.44-2.88-2.25-6.2-.73-9.24.61,1.23-.37,2.74-.37,4.11,0,1.87,1.24,3.21,1.65,4.85Z"/><path class="a4e39c54-bde4-407a-bb0e-33fbbaaee87f" d="M21.25,17.36c2.57-.11,2.75.33,3.29,2.47.05.2.52.84.36,1,0,0-.5-.26-.55-.28-1.13-.56-4.75-.86-4.75-2.28C19.6,17.75,20.9,17.38,21.25,17.36Z"/><path class="e5a2d7c1-1bf7-4554-8617-272d128f9e71" d="M19,26c1.74-.58,3,1.09,3-1.92a1.18,1.18,0,0,0-.83-1.19c.35-.68,2,.63,2.11,1.19C23.72,26.35,20.32,28,19,26Z"/><path class="a4e39c54-bde4-407a-bb0e-33fbbaaee87f" d="M51.42,22.76c-1.39-2.79-4.14-.63-5.76.18C45.66,19.1,51.42,18.54,51.42,22.76Z"/><path class="fb8c5941-5c4d-49a2-83ed-f962559c65f7" d="M45.2,24c.16.46,0,.89.1,1.37h.18c0,2.16,3.16,1.45,3.56-.18C50.89,28.91,42.26,28.45,45.2,24Z"/><path class="a2e2f95a-2444-469f-b0e3-61d1df1a5861" d="M47.76,18.09c-.82,1.66-5-.69-5,2.38h-.19C41.47,17.24,45.66,16.69,47.76,18.09Z"/><path class="baccbb62-e2aa-4727-9740-764da2fb92eb" d="M22.16,4.1c0,1.31-.85,2.73-.91,4.12-.12,2.65.64,4.73.64,7.13C20.94,11.56,19.78,7.68,22.16,4.1Z"/><path class="bd1a7792-b949-40fe-af1e-ff2a8cf44e9f" d="M46.3,19.19a3.77,3.77,0,0,0-.64,2.47c-1.52,0-1.83-.08-2.56,1.37C42.29,20.6,45.06,16.7,46.3,19.19Z"/><path class="e5f211fe-d0ae-4157-b1b9-5128c9c80f7f" d="M14.3,21.84a2,2,0,0,0,.27,1.28c-1.17,1.56-.94,3.51.82,4.39C11.46,28.82,13.09,23.35,14.3,21.84Z"/><path class="b8c49e58-e1bd-43eb-b9db-59494be288f5" d="M42.55,25c.59,1.19.75,3.41,1.65,4.3-.35.35-.87-.11-1.19-.37-1-.82-1.77-1.46-1.65-3C41.38,25.71,42.38,25.3,42.55,25Z"/><path class="aebba4e5-26a9-4df5-918b-dc387c8b276a" d="M23.53,37.2c-1.22,1.53-2,2-2,4,0,.47.55.69.55,1.19C21,40.3,20.93,38.51,23.53,37.2Z"/><path class="fb8c5941-5c4d-49a2-83ed-f962559c65f7" d="M23.71,28.33c0,2.37-5.67,2.37-5.67.28A26.53,26.53,0,0,0,23.71,28.33Z"/><path class="fb391a3e-e856-4dec-9c7e-83e11235e878" d="M43.92,29.8c.41-.42,1.77.67,2.2,1.09.11.12.73.72.55.74C46.08,31.67,43,30.8,43.92,29.8Z"/><path class="a58c4169-59f9-4c4a-abda-4901cc559637" d="M36.52,30.8c0,1.9-3.61,0-4.21-.18C33.65,30.09,35.16,30.53,36.52,30.8Z"/><path class="b5edcdc1-3c9f-45e9-aeb8-6cf65e15ed76" d="M31.94,23.21c0,1.06,1.11,1.74,2,1.92C32.7,27,31.94,24,31.94,23.21Z"/><path class="b190bee5-7bb3-4d1f-adfa-db21794e21bf" d="M46.12,24.4c0,.69.05,1.67.82,1.92v.19C45.7,26.51,45.46,25.39,46.12,24.4Z"/><path class="a2124ee6-ea00-4253-af7e-a158e4a105df" d="M16.58,30.8c-.78.4-3,.24-3.66.28C14,30.71,15.73,30,16.58,30.8Z"/><path class="e27010f2-e4bd-4331-809b-1353cf3921e7" d="M21.61,25c0,1.55-1.41.53-2.1.19C20.21,25,20.91,25.51,21.61,25Z"/></g></g></g></svg>