<svg xmlns="http://www.w3.org/2000/svg" viewBox="0 0 822.33 636.59"><defs><style>.e89f4c85-0f59-4ae1-a6c2-7d5cd0967d2a{fill:#ececec;}.ab7e8b1a-d633-424b-ab67-3774cf61be8f{fill:#eaeaea;}.bf80f2fc-20b6-4db8-8c25-314c71b7944e{fill:#f9f7f7;}.a68d9af1-c248-4c13-89cb-a91cb328572b{fill:#e8e8e8;}.a6c41055-0fcc-41c2-9043-71a6713f4c6e{fill:#fff;}.b087fb6b-06e6-45ef-bc48-fe88bfa87681{fill:#c6c6c6;}.e5e4c099-b1d2-476a-8103-6844bdf89545{fill:#e2e2e2;}.f76025a2-9047-482d-a350-09c0966d8afe{fill:#2d2d2d;}</style></defs><g id="f25db2c1-9f04-48f3-a373-4479fea18d82" data-name="Layer 2"><g id="aab96d65-91b6-4b2d-adfd-586a5ea23afd" data-name="Layer 1"><g id="acd102a9-244b-4019-826e-65b3c3cf7bd0" data-name="Untitled"><path class="e89f4c85-0f59-4ae1-a6c2-7d5cd0967d2a" d="M207.41,348.59s116.73,1.75,132.53,6.14-43,203.62-9.66,242.24c0,0-95.66,11.41-122,3.51S207.41,348.59,207.41,348.59Z"/><path class="e89f4c85-0f59-4ae1-a6c2-7d5cd0967d2a" d="M456.39,331.14s116.74,1.75,132.54,6.14-43,203.62-9.66,242.24c0,0-95.67,11.41-122,3.51S456.39,331.14,456.39,331.14Z"/><path class="e89f4c85-0f59-4ae1-a6c2-7d5cd0967d2a" d="M97,133.73S108.08,17.51,113.73,2.12,313.24,61.34,354.41,31.19c0,0,3.69,96.28-6.3,121.89S97,133.73,97,133.73Z"/><path class="e89f4c85-0f59-4ae1-a6c2-7d5cd0967d2a" d="M539.88,385.77S551,269.55,556.65,254.16s199.51,59.22,240.68,29.08c0,0,3.69,96.27-6.3,121.88S539.88,385.77,539.88,385.77Z"/><path class="ab7e8b1a-d633-424b-ab67-3774cf61be8f" d="M193.39,309.85h-125c-59.43,0-60.57,25.8-60.57,25.8C19.92,388.3,70.59,401.79,119.62,401c3.75.06,7.5,0,11.25-.12,3.75.12,7.51.18,11.25.12,49,.77,99.7-12.72,111.84-65.37C254,335.65,252.82,309.85,193.39,309.85Z"/><path class="ab7e8b1a-d633-424b-ab67-3774cf61be8f" d="M442.37,292.4h-125c-59.44,0-60.57,25.8-60.57,25.8,12.13,52.65,62.81,66.14,111.84,65.37,3.75.06,7.5,0,11.25-.12,3.75.12,7.5.18,11.25.12,49,.77,99.7-12.72,111.84-65.37C503,318.2,501.81,292.4,442.37,292.4Z"/><path class="ab7e8b1a-d633-424b-ab67-3774cf61be8f" d="M57.23,144.59l-4.66,57.85-.72,8.94-4.66,57.84C42.42,328.46,68,331.67,68,331.67c53.45-7.87,71-57.3,74.14-106.23.36-3.73.6-7.48.78-11.22.42-3.73.79-7.47,1-11.21,4.7-48.8-4.67-100.4-56.18-116.73C87.81,86.28,62,85.35,57.23,144.59Z"/><path class="ab7e8b1a-d633-424b-ab67-3774cf61be8f" d="M500.15,396.63l-4.66,57.85-.72,8.94-4.66,57.84C485.34,580.51,511,583.72,511,583.72c53.46-7.87,71-57.3,74.15-106.23.36-3.74.6-7.48.78-11.23.42-3.73.78-7.46,1-11.2,4.7-48.81-4.68-100.41-56.19-116.73C530.72,338.33,504.92,337.39,500.15,396.63Z"/><path class="bf80f2fc-20b6-4db8-8c25-314c71b7944e" d="M254,335.65c.91,5.33-31.28,17.86-34.61,19.09-46.27,17.19-104.18,17.87-151.84,7C62.24,360.55,6,346,7.78,335.65-8,428.46,5.14,604.21,5.14,604.21c40.08,26.45,85.68,33.37,125.73,32.27,40,1.1,85.65-5.82,125.72-32.27C256.59,604.21,269.76,428.46,254,335.65Z"/><path class="bf80f2fc-20b6-4db8-8c25-314c71b7944e" d="M503,318.2c.91,5.33-31.29,17.86-34.61,19.09-46.27,17.18-104.18,17.87-151.85,7-5.26-1.2-61.49-15.77-59.73-26.1C241,411,254.13,586.76,254.13,586.76c40.08,26.45,85.68,33.37,125.73,32.27,40,1.1,85.64-5.82,125.72-32.27C505.58,586.76,518.75,411,503,318.2Z"/><path class="bf80f2fc-20b6-4db8-8c25-314c71b7944e" d="M87.81,86.28c5.39-.47,15.29,32.62,16.25,36,13.41,47.51,9.44,105.29-5.21,151.92-1.62,5.15-20.65,60-30.81,57.44,91.24,23.2,267.47,24.2,267.47,24.2,29.59-37.83,40.15-82.73,42.27-122.73,4.31-39.83,1.08-85.84-22.07-127.91C355.71,105.23,181.59,78,87.81,86.28Z"/><path class="bf80f2fc-20b6-4db8-8c25-314c71b7944e" d="M530.73,338.33c5.38-.48,15.29,32.61,16.25,36,13.41,47.5,9.44,105.28-5.21,151.92-1.62,5.14-20.65,60-30.82,57.44,91.24,23.2,267.48,24.19,267.48,24.19,29.59-37.82,40.15-82.72,42.27-122.73,4.31-39.83,1.07-85.84-22.07-127.91C798.63,357.27,624.51,330,530.73,338.33Z"/><path class="a68d9af1-c248-4c13-89cb-a91cb328572b" d="M237.75,553.89c8.67-30,4.44-61.91,3.92-92.6-.57-33.15-.88-66.29-2.9-99.4-.31-5-.65-9.94-1.05-14.91-8.19,3.85-16.74,7.16-18.37,7.76-46.27,17.19-104.18,17.87-151.84,7C62.25,360.55,6,346,7.78,335.65-5,410.66,1.16,539.83,4,586.62c34.83,17.1,72.27,21.82,105.82,20.89C153.61,606.31,222.45,606.75,237.75,553.89Z"/><path class="a68d9af1-c248-4c13-89cb-a91cb328572b" d="M486.73,536.44c8.67-30,4.45-61.91,3.93-92.6-.57-33.15-.89-66.29-2.91-99.4q-.45-7.45-1-14.91c-8.2,3.85-16.74,7.16-18.37,7.76-46.27,17.18-104.18,17.87-151.84,7-5.27-1.2-61.5-15.77-59.73-26.1-12.77,75-6.62,204.18-3.8,251,34.83,17.1,72.28,21.82,105.82,20.9C402.59,588.86,471.44,589.3,486.73,536.44Z"/><path class="a68d9af1-c248-4c13-89cb-a91cb328572b" d="M304,120c-29.18-11-61.35-9.4-92-11.34-33.1-2.1-66.15-4.45-99.31-5.09q-7.47-.15-15-.16c3.17,8.48,5.79,17.26,6.26,18.93,13.41,47.51,9.44,105.29-5.21,151.92-1.62,5.15-20.65,60-30.81,57.44,73.74,18.75,203,23,249.85,23.93,19.85-33.34,27.55-70.28,29.33-103.8C349.54,208.05,355.51,139.46,304,120Z"/><path class="a68d9af1-c248-4c13-89cb-a91cb328572b" d="M747,372c-29.18-11.05-61.36-9.4-92-11.34-33.1-2.1-66.15-4.45-99.31-5.09q-7.49-.15-15-.16c3.18,8.48,5.8,17.26,6.27,18.94,13.41,47.5,9.44,105.28-5.21,151.91-1.62,5.15-20.65,60-30.82,57.45,73.75,18.75,203,23,249.86,23.93,19.84-33.35,27.55-70.29,29.33-103.8C792.45,460.09,798.42,391.5,747,372Z"/><path class="a6c41055-0fcc-41c2-9043-71a6713f4c6e" d="M46.52,363.82l2.61.35c.4-2.95.63-4.53.63-4.54l-2.6-.38S46.92,360.84,46.52,363.82Z"/><path class="a6c41055-0fcc-41c2-9043-71a6713f4c6e" d="M38.84,542.31l-2.63.06q.12,4.71.28,9.43l2.63-.1Q39,547,38.84,542.31Z"/><path class="a6c41055-0fcc-41c2-9043-71a6713f4c6e" d="M43.93,410.88l-2.63-.24q-.42,4.55-.83,9.38l2.62.23C43.37,417,43.65,413.9,43.93,410.88Z"/><path class="a6c41055-0fcc-41c2-9043-71a6713f4c6e" d="M44.21,382.52l2.61.3c.4-3.45.77-6.58,1.12-9.33l-2.62-.33C45,375.92,44.61,379.05,44.21,382.52Z"/><path class="a6c41055-0fcc-41c2-9043-71a6713f4c6e" d="M39.52,561.09l-2.63.12q.22,4.71.51,9.42l2.63-.17C39.84,567.34,39.67,564.21,39.52,561.09Z"/><path class="a6c41055-0fcc-41c2-9043-71a6713f4c6e" d="M42.36,598.54l-2.62.28c.34,3.14.7,6.27,1.09,9.37l2.62-.32Q42.87,603.23,42.36,598.54Z"/><path class="a6c41055-0fcc-41c2-9043-71a6713f4c6e" d="M40.67,579.84,38,580q.36,4.72.78,9.4l2.62-.23C41.16,586.09,40.9,583,40.67,579.84Z"/><path class="a6c41055-0fcc-41c2-9043-71a6713f4c6e" d="M42.2,401.26l2.62.26q.49-4.92,1-9.35l-2.62-.28C42.85,394.85,42.53,398,42.2,401.26Z"/><path class="a6c41055-0fcc-41c2-9043-71a6713f4c6e" d="M38.59,523.52H36c0,3.13,0,6.28.08,9.43l2.63,0Q38.6,528.21,38.59,523.52Z"/><path class="a6c41055-0fcc-41c2-9043-71a6713f4c6e" d="M39.93,467.15,37.3,467q-.22,4.65-.42,9.41l2.63.11Q39.71,471.8,39.93,467.15Z"/><path class="a6c41055-0fcc-41c2-9043-71a6713f4c6e" d="M41,448.38l-2.63-.17c-.19,3.08-.38,6.22-.56,9.4l2.63.15C40.61,454.59,40.79,451.46,41,448.38Z"/><path class="a6c41055-0fcc-41c2-9043-71a6713f4c6e" d="M42.33,429.62l-2.63-.21c-.24,3.07-.48,6.2-.7,9.4l2.63.19C41.85,435.8,42.08,432.68,42.33,429.62Z"/><path class="a6c41055-0fcc-41c2-9043-71a6713f4c6e" d="M38.7,504.73l-2.63,0c0,3.12-.08,6.27-.1,9.43H38.6C38.62,511,38.66,507.85,38.7,504.73Z"/><path class="a6c41055-0fcc-41c2-9043-71a6713f4c6e" d="M39.16,485.94l-2.63-.09q-.15,4.68-.27,9.42l2.63.07Q39,490.6,39.16,485.94Z"/><path class="a6c41055-0fcc-41c2-9043-71a6713f4c6e" d="M42.08,617.5l.69,4.57,2.6-.41c-.23-1.5-.46-3-.68-4.53Z"/><path class="a6c41055-0fcc-41c2-9043-71a6713f4c6e" d="M208.48,360.72l-.12,4.6,2.63.07.12-4.6Z"/><path class="a6c41055-0fcc-41c2-9043-71a6713f4c6e" d="M207.09,431l2.63,0h0l-.14,9.39h0l-2.63,0h0l.14-9.39Z"/><path class="a6c41055-0fcc-41c2-9043-71a6713f4c6e" d="M210,412.28l-2.63,0q-.09,4.54-.16,9.39l2.63,0C209.9,418.43,210,415.3,210,412.28Z"/><path class="a6c41055-0fcc-41c2-9043-71a6713f4c6e" d="M209,506.08H206.4q0,4.67,0,9.38H209C209,512.31,209,509.18,209,506.08Z"/><path class="a6c41055-0fcc-41c2-9043-71a6713f4c6e" d="M206.83,449.75l2.63,0h0l-.12,9.38h0l-2.63,0h0l.12-9.38Z"/><path class="a6c41055-0fcc-41c2-9043-71a6713f4c6e" d="M209.26,468.55l-2.63,0q0,4.64-.08,9.38l2.63,0C209.21,474.77,209.23,471.65,209.26,468.55Z"/><path class="a6c41055-0fcc-41c2-9043-71a6713f4c6e" d="M206.5,487.3l2.63,0h0l-.06,9.38h-2.63l.06-9.39Z"/><path class="a6c41055-0fcc-41c2-9043-71a6713f4c6e" d="M209.72,599.85l-2.63,0q.09,4.73.2,9.39l2.63-.06Q209.82,604.57,209.72,599.85Z"/><path class="a6c41055-0fcc-41c2-9043-71a6713f4c6e" d="M209,524.83h-2.63q0,4.68,0,9.38H209C209,531.07,209,528,209,524.83Z"/><path class="a6c41055-0fcc-41c2-9043-71a6713f4c6e" d="M210.19,402.91l-2.63-.05h0l.17-9.38h0l2.63,0h0l-.17,9.38Z"/><path class="a6c41055-0fcc-41c2-9043-71a6713f4c6e" d="M207.92,384.08l2.64.06c.07-3.48.14-6.62.2-9.38l-2.63-.06C208.07,377.46,208,380.6,207.92,384.08Z"/><path class="a6c41055-0fcc-41c2-9043-71a6713f4c6e" d="M209.4,581.09l-2.63,0q.06,4.71.14,9.38l2.64,0C209.49,587.35,209.45,584.23,209.4,581.09Z"/><path class="a6c41055-0fcc-41c2-9043-71a6713f4c6e" d="M209.06,543.58h-2.64l.06,9.38h2.64C209.09,549.83,209.07,546.71,209.06,543.58Z"/><path class="a6c41055-0fcc-41c2-9043-71a6713f4c6e" d="M209.19,562.34l-2.64,0c0,3.13.07,6.26.1,9.38l2.63,0C209.25,568.59,209.21,565.47,209.19,562.34Z"/><path class="a6c41055-0fcc-41c2-9043-71a6713f4c6e" d="M207.52,618.62l.13,4.6,2.64-.08-.13-4.59Z"/><path class="a6c41055-0fcc-41c2-9043-71a6713f4c6e" d="M295.51,346.37l2.61.35c.4-3,.63-4.53.63-4.54l-2.61-.38S295.91,343.39,295.51,346.37Z"/><path class="a6c41055-0fcc-41c2-9043-71a6713f4c6e" d="M287.83,524.86l-2.63.06c.07,3.14.17,6.28.28,9.43l2.63-.1Q287.95,529.56,287.83,524.86Z"/><path class="a6c41055-0fcc-41c2-9043-71a6713f4c6e" d="M292.91,393.43l-2.62-.24q-.42,4.55-.84,9.38l2.63.23C292.35,399.58,292.64,396.45,292.91,393.43Z"/><path class="a6c41055-0fcc-41c2-9043-71a6713f4c6e" d="M293.2,365.07l2.61.3c.4-3.45.77-6.58,1.11-9.33l-2.61-.33C294,358.47,293.6,361.6,293.2,365.07Z"/><path class="a6c41055-0fcc-41c2-9043-71a6713f4c6e" d="M288.51,543.64l-2.64.12q.24,4.71.52,9.42L289,553Q288.74,548.33,288.51,543.64Z"/><path class="a6c41055-0fcc-41c2-9043-71a6713f4c6e" d="M291.35,581.09l-2.62.28c.34,3.14.7,6.27,1.09,9.37l2.61-.32Q291.86,585.79,291.35,581.09Z"/><path class="a6c41055-0fcc-41c2-9043-71a6713f4c6e" d="M289.66,562.39l-2.63.19c.24,3.15.49,6.28.78,9.4l2.62-.23C290.15,568.64,289.89,565.51,289.66,562.39Z"/><path class="a6c41055-0fcc-41c2-9043-71a6713f4c6e" d="M291.19,383.81l2.62.26c.32-3.28.65-6.4,1-9.35l-2.62-.28C291.84,377.4,291.52,380.53,291.19,383.81Z"/><path class="a6c41055-0fcc-41c2-9043-71a6713f4c6e" d="M287.58,506.07h-2.64c0,3.13,0,6.28.08,9.43l2.63,0C287.61,512.33,287.58,509.2,287.58,506.07Z"/><path class="a6c41055-0fcc-41c2-9043-71a6713f4c6e" d="M288.92,449.7l-2.63-.13c-.15,3.11-.3,6.24-.43,9.41l2.63.11Q288.7,454.35,288.92,449.7Z"/><path class="a6c41055-0fcc-41c2-9043-71a6713f4c6e" d="M290,430.93l-2.63-.17c-.2,3.08-.39,6.22-.57,9.4l2.63.15Q289.68,435.55,290,430.93Z"/><path class="a6c41055-0fcc-41c2-9043-71a6713f4c6e" d="M291.31,412.17l-2.62-.21c-.24,3.07-.48,6.2-.7,9.4l2.62.19C290.84,418.35,291.07,415.23,291.31,412.17Z"/><path class="a6c41055-0fcc-41c2-9043-71a6713f4c6e" d="M287.69,487.28l-2.63,0q-.07,4.69-.11,9.43h2.64Q287.62,492,287.69,487.28Z"/><path class="a6c41055-0fcc-41c2-9043-71a6713f4c6e" d="M288.15,468.49l-2.63-.09q-.16,4.68-.27,9.42l2.63.07Q288,473.15,288.15,468.49Z"/><path class="a6c41055-0fcc-41c2-9043-71a6713f4c6e" d="M291.07,600.05c.23,1.53.45,3.05.69,4.57l2.6-.41c-.23-1.5-.46-3-.68-4.53Z"/><path class="a6c41055-0fcc-41c2-9043-71a6713f4c6e" d="M457.47,343.27l-.13,4.6,2.63.07.13-4.6Z"/><path class="a6c41055-0fcc-41c2-9043-71a6713f4c6e" d="M456.07,413.54l2.63,0h0l-.13,9.39h0l-2.63,0h0l.13-9.39Z"/><path class="a6c41055-0fcc-41c2-9043-71a6713f4c6e" d="M459,394.83l-2.63-.05q-.09,4.55-.16,9.39l2.63,0C458.89,401,459,397.85,459,394.83Z"/><path class="a6c41055-0fcc-41c2-9043-71a6713f4c6e" d="M458,488.63h-2.63q0,4.67,0,9.38H458C458,494.86,458,491.74,458,488.63Z"/><path class="a6c41055-0fcc-41c2-9043-71a6713f4c6e" d="M455.81,432.3l2.64,0h0l-.12,9.38h0l-2.63,0h0l.11-9.38Z"/><path class="a6c41055-0fcc-41c2-9043-71a6713f4c6e" d="M458.25,451.11l-2.63,0q0,4.64-.08,9.38l2.63,0Q458.2,455.74,458.25,451.11Z"/><path class="a6c41055-0fcc-41c2-9043-71a6713f4c6e" d="M455.48,469.86h2.64l-.06,9.38h-2.64l.06-9.38Z"/><path class="a6c41055-0fcc-41c2-9043-71a6713f4c6e" d="M458.71,582.4l-2.64.05q.1,4.72.21,9.39l2.63-.06Q458.8,587.12,458.71,582.4Z"/><path class="a6c41055-0fcc-41c2-9043-71a6713f4c6e" d="M458,507.38h-2.63q0,4.68,0,9.38H458C458,513.62,458,510.5,458,507.38Z"/><path class="a6c41055-0fcc-41c2-9043-71a6713f4c6e" d="M459.18,385.46l-2.63,0h0l.17-9.38h0l2.63.05h0l-.17,9.38Z"/><path class="a6c41055-0fcc-41c2-9043-71a6713f4c6e" d="M456.91,366.63l2.63.06c.08-3.48.15-6.62.21-9.38l-2.63-.06C457.06,360,457,363.15,456.91,366.63Z"/><path class="a6c41055-0fcc-41c2-9043-71a6713f4c6e" d="M458.39,563.64l-2.64,0q.08,4.71.15,9.38l2.63,0Q458.46,568.36,458.39,563.64Z"/><path class="a6c41055-0fcc-41c2-9043-71a6713f4c6e" d="M458.05,526.13h-2.64q0,4.7,0,9.39l2.64,0C458.08,532.38,458.06,529.26,458.05,526.13Z"/><path class="a6c41055-0fcc-41c2-9043-71a6713f4c6e" d="M458.17,544.89l-2.63,0q0,4.7.1,9.38l2.63,0Q458.21,549.58,458.17,544.89Z"/><path class="a6c41055-0fcc-41c2-9043-71a6713f4c6e" d="M456.51,601.17l.13,4.6,2.64-.08-.13-4.59Z"/><path class="a6c41055-0fcc-41c2-9043-71a6713f4c6e" d="M99.23,295.32l.56-2.58c-2.91-.63-4.47-1-4.48-1l-.59,2.57S96.29,294.68,99.23,295.32Z"/><path class="a6c41055-0fcc-41c2-9043-71a6713f4c6e" d="M276.53,317.3l-.15,2.63q4.69.27,9.41.48l.12-2.63Q281.21,317.57,276.53,317.3Z"/><path class="a6c41055-0fcc-41c2-9043-71a6713f4c6e" d="M145.93,301.68l-.45,2.6c3,.52,6.09,1.05,9.28,1.58l.44-2.59Z"/><path class="a6c41055-0fcc-41c2-9043-71a6713f4c6e" d="M117.69,299.12l.51-2.58c-3.42-.67-6.51-1.3-9.22-1.86l-.53,2.58C111.17,297.82,114.26,298.45,117.69,299.12Z"/><path class="a6c41055-0fcc-41c2-9043-71a6713f4c6e" d="M295.29,318.13l-.08,2.64q4.71.15,9.42.24l.05-2.63Q300,318.29,295.29,318.13Z"/><path class="a6c41055-0fcc-41c2-9043-71a6713f4c6e" d="M332.86,318.31l.07,2.63q4.74-.12,9.42-.33l-.11-2.63Q337.58,318.19,332.86,318.31Z"/><path class="a6c41055-0fcc-41c2-9043-71a6713f4c6e" d="M314.08,318.5l0,2.63c3.16,0,6.3,0,9.43,0l0-2.63C320.35,318.51,317.21,318.51,314.08,318.5Z"/><path class="a6c41055-0fcc-41c2-9043-71a6713f4c6e" d="M136.2,302.63l.48-2.59c-3.25-.59-6.34-1.16-9.25-1.72l-.49,2.59C129.86,301.46,133,302,136.2,302.63Z"/><path class="a6c41055-0fcc-41c2-9043-71a6713f4c6e" d="M257.78,316.05l-.2,2.63c3.12.23,6.25.46,9.4.67l.17-2.62C264,316.52,260.89,316.29,257.78,316.05Z"/><path class="a6c41055-0fcc-41c2-9043-71a6713f4c6e" d="M201.69,310.18l-.33,2.61c3.08.41,6.19.8,9.35,1.18l.31-2.61Q206.31,310.78,201.69,310.18Z"/><path class="a6c41055-0fcc-41c2-9043-71a6713f4c6e" d="M183.07,307.62l-.38,2.6q4.59.67,9.33,1.33l.36-2.61Z"/><path class="a6c41055-0fcc-41c2-9043-71a6713f4c6e" d="M164.48,304.78l-.42,2.6q4.56.74,9.31,1.46l.4-2.61C170.6,305.75,167.51,305.27,164.48,304.78Z"/><path class="a6c41055-0fcc-41c2-9043-71a6713f4c6e" d="M239.06,314.42l-.25,2.63c3.11.3,6.24.58,9.38.86l.23-2.63Q243.71,314.88,239.06,314.42Z"/><path class="a6c41055-0fcc-41c2-9043-71a6713f4c6e" d="M220.36,312.46l-.3,2.62c3.1.35,6.23.69,9.37,1l.28-2.62C226.56,313.15,223.45,312.81,220.36,312.46Z"/><path class="a6c41055-0fcc-41c2-9043-71a6713f4c6e" d="M351.73,320.11c1.55-.1,3.08-.2,4.61-.32l-.19-2.62-4.58.31Z"/><path class="a6c41055-0fcc-41c2-9043-71a6713f4c6e" d="M109.14,133.63l4.58.49.28-2.61-4.57-.49Z"/><path class="a6c41055-0fcc-41c2-9043-71a6713f4c6e" d="M179.08,140.66l.25-2.61h0l9.34.89h0l-.25,2.61h0l-9.34-.89Z"/><path class="a6c41055-0fcc-41c2-9043-71a6713f4c6e" d="M160.66,136.24l-.26,2.63,9.34.9.25-2.61Z"/><path class="a6c41055-0fcc-41c2-9043-71a6713f4c6e" d="M254.08,144.75l-.22,2.63,9.35.77.22-2.63Z"/><path class="a6c41055-0fcc-41c2-9043-71a6713f4c6e" d="M197.75,142.43l.25-2.62h0l9.34.87h0l-.24,2.62h0l-9.35-.87Z"/><path class="a6c41055-0fcc-41c2-9043-71a6713f4c6e" d="M216.69,141.51l-.23,2.63,9.35.83.23-2.63Z"/><path class="a6c41055-0fcc-41c2-9043-71a6713f4c6e" d="M235.16,145.78l.23-2.63h0l9.35.81h0l-.23,2.63h0l-9.35-.81Z"/><path class="a6c41055-0fcc-41c2-9043-71a6713f4c6e" d="M347.6,151.6l-.16,2.63,9.37.55.15-2.63Z"/><path class="a6c41055-0fcc-41c2-9043-71a6713f4c6e" d="M272.77,146.28l-.21,2.62,9.35.74.2-2.62Z"/><path class="a6c41055-0fcc-41c2-9043-71a6713f4c6e" d="M151.34,135.31l-.26,2.62h0l-9.34-.92h0l.26-2.62h0l9.34.92Z"/><path class="a6c41055-0fcc-41c2-9043-71a6713f4c6e" d="M132.39,136.06l.26-2.62-9.33-1-.27,2.62Z"/><path class="a6c41055-0fcc-41c2-9043-71a6713f4c6e" d="M328.88,150.41,328.7,153l9.37.61.17-2.63Z"/><path class="a6c41055-0fcc-41c2-9043-71a6713f4c6e" d="M291.46,147.74l-.2,2.63,9.36.7.19-2.63Z"/><path class="a6c41055-0fcc-41c2-9043-71a6713f4c6e" d="M310.17,149.12l-.19,2.63,9.36.65.18-2.63Z"/><path class="a6c41055-0fcc-41c2-9043-71a6713f4c6e" d="M366.13,155.29l4.6.24.14-2.63-4.6-.24Z"/><path class="a6c41055-0fcc-41c2-9043-71a6713f4c6e" d="M542.15,547.36l.56-2.57-4.48-1-.59,2.57S539.21,546.72,542.15,547.36Z"/><path class="a6c41055-0fcc-41c2-9043-71a6713f4c6e" d="M719.45,569.35,719.3,572q4.69.25,9.41.47l.12-2.63Q724.14,569.61,719.45,569.35Z"/><path class="a6c41055-0fcc-41c2-9043-71a6713f4c6e" d="M588.85,553.73l-.45,2.59,9.28,1.59.44-2.6Q593.33,554.52,588.85,553.73Z"/><path class="a6c41055-0fcc-41c2-9043-71a6713f4c6e" d="M560.61,551.17l.5-2.59c-3.41-.67-6.5-1.29-9.21-1.85l-.54,2.58C554.09,549.87,557.18,550.49,560.61,551.17Z"/><path class="a6c41055-0fcc-41c2-9043-71a6713f4c6e" d="M738.21,570.18l-.08,2.63q4.71.16,9.42.25l.05-2.64C744.47,570.36,741.35,570.28,738.21,570.18Z"/><path class="a6c41055-0fcc-41c2-9043-71a6713f4c6e" d="M775.77,570.35l.07,2.63c3.16-.08,6.31-.19,9.43-.32l-.11-2.64Q780.49,570.23,775.77,570.35Z"/><path class="a6c41055-0fcc-41c2-9043-71a6713f4c6e" d="M757,570.54l0,2.63c3.15,0,6.3,0,9.43,0l0-2.63C763.27,570.55,760.13,570.56,757,570.54Z"/><path class="a6c41055-0fcc-41c2-9043-71a6713f4c6e" d="M579.12,554.67l.47-2.59c-3.24-.59-6.33-1.16-9.24-1.71l-.49,2.58C572.78,553.51,575.88,554.08,579.12,554.67Z"/><path class="a6c41055-0fcc-41c2-9043-71a6713f4c6e" d="M700.7,568.09l-.21,2.63c3.13.24,6.26.47,9.41.68l.17-2.63Q705.36,568.45,700.7,568.09Z"/><path class="a6c41055-0fcc-41c2-9043-71a6713f4c6e" d="M644.61,562.23l-.34,2.61c3.09.4,6.2.79,9.35,1.18l.32-2.62Q649.23,562.83,644.61,562.23Z"/><path class="a6c41055-0fcc-41c2-9043-71a6713f4c6e" d="M626,559.66l-.38,2.61,9.33,1.32.36-2.61C632.15,560.55,629,560.11,626,559.66Z"/><path class="a6c41055-0fcc-41c2-9043-71a6713f4c6e" d="M607.4,556.83l-.42,2.59c3,.49,6.14,1,9.31,1.46l.4-2.61C613.52,557.8,610.42,557.31,607.4,556.83Z"/><path class="a6c41055-0fcc-41c2-9043-71a6713f4c6e" d="M682,566.47l-.25,2.62c3.1.3,6.24.59,9.38.86l.23-2.63Q686.63,566.92,682,566.47Z"/><path class="a6c41055-0fcc-41c2-9043-71a6713f4c6e" d="M663.28,564.5l-.3,2.62q4.65.52,9.37,1l.28-2.62C669.48,565.2,666.37,564.85,663.28,564.5Z"/><path class="a6c41055-0fcc-41c2-9043-71a6713f4c6e" d="M794.65,572.15l4.61-.31-.2-2.63c-1.51.11-3,.22-4.57.31Z"/><path class="a6c41055-0fcc-41c2-9043-71a6713f4c6e" d="M552.06,385.68l4.58.49.28-2.62-4.58-.49Z"/><path class="a6c41055-0fcc-41c2-9043-71a6713f4c6e" d="M622,392.71l.25-2.62h0l9.34.89h0l-.25,2.62h0l-9.34-.89Z"/><path class="a6c41055-0fcc-41c2-9043-71a6713f4c6e" d="M603.58,388.29l-.26,2.62,9.34.91.25-2.62Z"/><path class="a6c41055-0fcc-41c2-9043-71a6713f4c6e" d="M697,396.8l-.22,2.62,9.35.77.21-2.62Z"/><path class="a6c41055-0fcc-41c2-9043-71a6713f4c6e" d="M640.67,394.47l.25-2.62h0l9.34.87h0l-.24,2.62h0l-9.35-.87Z"/><path class="a6c41055-0fcc-41c2-9043-71a6713f4c6e" d="M659.61,393.56l-.23,2.62,9.34.83.23-2.62Z"/><path class="a6c41055-0fcc-41c2-9043-71a6713f4c6e" d="M678.08,397.82l.23-2.63h0l9.35.81h0l-.23,2.63h0l-9.35-.81Z"/><path class="a6c41055-0fcc-41c2-9043-71a6713f4c6e" d="M790.52,403.64l-.16,2.63,9.37.55.15-2.63Z"/><path class="a6c41055-0fcc-41c2-9043-71a6713f4c6e" d="M715.69,398.32l-.21,2.63,9.35.74.2-2.63Z"/><path class="a6c41055-0fcc-41c2-9043-71a6713f4c6e" d="M594.25,387.36,594,390h0l-9.33-.93h0l.26-2.62h0l9.33.93Z"/><path class="a6c41055-0fcc-41c2-9043-71a6713f4c6e" d="M575.31,388.1l.26-2.61-9.33-1-.27,2.62Z"/><path class="a6c41055-0fcc-41c2-9043-71a6713f4c6e" d="M771.8,402.45l-.18,2.63,9.37.61.17-2.63Z"/><path class="a6c41055-0fcc-41c2-9043-71a6713f4c6e" d="M734.38,399.78l-.2,2.63,9.36.7.19-2.63Z"/><path class="a6c41055-0fcc-41c2-9043-71a6713f4c6e" d="M753.08,401.16l-.18,2.63,9.36.65.18-2.62Z"/><path class="a6c41055-0fcc-41c2-9043-71a6713f4c6e" d="M809.05,407.34l4.6.24.14-2.63-4.6-.24Z"/><path class="b087fb6b-06e6-45ef-bc48-fe88bfa87681" d="M251.7,337.46c-.75.56-1.6,1.35-2.74,2.11l-3.89,2.6c-1.48.94-3.2,1.85-5,2.91s-3.93,2-6.11,3.07c-4.45,2-9.53,4.11-15.2,6-1.4.51-2.85,1-4.36,1.45s-3,1-4.57,1.36l-9.67,2.64c-6.69,1.54-13.76,3.16-21.16,4.31-1.86.3-3.71.66-5.59.92l-5.71.69-5.77.69c-1.94.24-3.9.33-5.86.49-7.83.73-15.83.94-23.81,1-4-.08-8-.06-12-.22l-11.85-.75L96.8,365.45c-1.92-.16-3.8-.53-5.68-.82l-5.59-.9c-3.72-.5-7.29-1.42-10.83-2.13l-5.24-1.1c-1.71-.41-3.38-.9-5-1.34l-4.91-1.32c-1.61-.44-3.2-.84-4.73-1.38l-8.9-2.92c-1.43-.43-2.79-1-4.13-1.53l-3.91-1.55L34.11,349l-1.79-.69c-.57-.25-1.13-.53-1.68-.79l-6.19-2.9c-1.9-.92-3.71-1.66-5.22-2.58-3.06-1.73-5.51-3-7.16-4L9.54,336.7,12,338.28c1.59,1,3.9,2.54,6.88,4.42,1.46,1,3.23,1.84,5.09,2.87L30,348.84c.54.29,1.09.6,1.66.89l1.76.8,3.67,1.67L41,354c1.32.59,2.68,1.21,4.11,1.71L54,359c1.52.61,3.13,1,4.74,1.55L63.63,362c1.67.49,3.35,1,5.07,1.5L74,364.77c3.55.83,7.17,1.79,10.92,2.37l5.66,1c1.9.33,3.8.73,5.75.93,3.88.49,7.8,1,11.77,1.43l12,.83c4,.19,8.08.19,12.13.3,8.1-.07,16.21-.34,24.15-1.11,2-.18,4-.28,5.93-.54l5.84-.8,5.77-.8c1.91-.3,3.78-.7,5.65-1,7.49-1.25,14.6-3.12,21.33-4.88l9.69-3c1.57-.46,3.1-1.06,4.56-1.57s2.93-1.05,4.35-1.63a141.71,141.71,0,0,0,15.1-6.85c2.14-1.23,4.19-2.29,6-3.43s3.47-2.18,4.9-3.22l3.75-2.86c1.09-.84,1.89-1.71,2.6-2.33l2.12-2Z"/><path class="b087fb6b-06e6-45ef-bc48-fe88bfa87681" d="M500.69,320c-.75.57-1.61,1.35-2.74,2.11l-3.9,2.6c-1.47.94-3.2,1.85-5,2.91s-3.93,2-6.1,3.07c-4.45,2-9.54,4.11-15.2,6-1.4.51-2.86,1-4.37,1.45s-3,1-4.56,1.37l-9.67,2.63c-6.7,1.54-13.76,3.16-21.17,4.31-1.85.3-3.7.66-5.59.92l-5.7.69-5.78.69c-1.93.24-3.89.33-5.85.5-7.84.72-15.83.93-23.81,1-4-.08-8-.06-12-.22l-11.85-.75L345.79,348c-1.92-.16-3.8-.53-5.68-.82l-5.59-.9c-3.72-.5-7.29-1.42-10.83-2.12l-5.24-1.1c-1.71-.42-3.38-.91-5-1.34l-4.91-1.33c-1.61-.44-3.21-.84-4.73-1.38l-8.9-2.92c-1.43-.43-2.8-1-4.13-1.53L286.83,333l-3.73-1.46-1.79-.69c-.58-.25-1.13-.53-1.68-.79l-6.19-2.9c-1.9-.92-3.71-1.66-5.22-2.58-3.07-1.73-5.51-3-7.16-3.95l-2.54-1.39,2.43,1.58c1.59,1,3.9,2.54,6.88,4.42,1.45,1,3.23,1.84,5.09,2.87l6.07,3.27c.55.29,1.1.6,1.67.89l1.76.8,3.67,1.67L290,336.5c1.32.59,2.67,1.21,4.11,1.71l8.87,3.31c1.52.61,3.12,1.05,4.74,1.55l4.93,1.48c1.67.49,3.35,1,5.07,1.5l5.27,1.27c3.56.83,7.17,1.79,10.93,2.37l5.66,1c1.9.33,3.8.73,5.75.93,3.87.49,7.8,1,11.76,1.43l12,.83c4,.2,8.09.19,12.14.3,8.1-.07,16.2-.34,24.15-1.11,2-.18,4-.28,5.93-.54l5.84-.8,5.77-.8c1.9-.3,3.78-.7,5.64-1,7.5-1.25,14.61-3.12,21.34-4.88l9.69-3c1.57-.46,3.09-1.06,4.56-1.57s2.93-1.05,4.35-1.63A141.49,141.49,0,0,0,483.58,332c2.15-1.23,4.2-2.29,6-3.43s3.46-2.18,4.9-3.22l3.75-2.86c1.08-.84,1.89-1.71,2.6-2.33l2.12-2Z"/><path class="b087fb6b-06e6-45ef-bc48-fe88bfa87681" d="M89.43,88.68c.5.8,1.22,1.71,1.89,2.9s1.42,2.56,2.27,4.09,1.59,3.34,2.5,5.24,1.65,4.08,2.56,6.33c1.62,4.6,3.34,9.84,4.79,15.64.4,1.43.76,2.92,1.09,4.46s.74,3.07,1,4.67c.6,3.18,1.21,6.46,1.85,9.84,1,6.8,2.05,14,2.59,21.45.15,1.87.36,3.75.48,5.64s.15,3.82.22,5.75.15,3.86.23,5.81,0,3.91,0,5.87c.09,7.87-.34,15.86-1,23.82-.4,4-.7,8-1.18,11.91s-1.14,7.86-1.7,11.75q-1.11,5.79-2.2,11.48c-.32,1.9-.84,3.75-1.28,5.6s-.9,3.68-1.34,5.5c-.8,3.67-2,7.15-3,10.62l-1.51,5.13c-.55,1.68-1.17,3.3-1.74,4.92s-1.15,3.22-1.72,4.79-1.09,3.13-1.75,4.6c-1.25,3-2.46,5.87-3.63,8.64-.55,1.39-1.21,2.71-1.85,4l-1.87,3.78c-.59,1.23-1.18,2.43-1.75,3.59l-.83,1.73c-.3.56-.62,1.09-.92,1.62l-3.39,5.93c-1.07,1.83-2,3.57-3,5-2,2.92-3.47,5.25-4.51,6.82L69.23,330,71,327.71c1.15-1.5,2.85-3.68,5-6.5,1.11-1.37,2.1-3.07,3.27-4.84L83,310.58c.34-.53.69-1.05,1-1.59l.94-1.69c.64-1.14,1.29-2.32,2-3.53l2-3.72c.7-1.27,1.43-2.57,2-4,1.28-2.75,2.62-5.62,4-8.58.73-1.47,1.3-3,1.92-4.6s1.24-3.18,1.88-4.8,1.29-3.25,1.9-4.93l1.69-5.15c1.12-3.48,2.36-7,3.24-10.71.49-1.83,1-3.68,1.46-5.55s1-3.73,1.39-5.66c.8-3.82,1.62-7.69,2.37-11.61q.89-5.92,1.8-11.92c.51-4,.83-8,1.27-12.07.58-8.08,1-16.18.83-24.16,0-2,0-4-.06-5.95s-.22-3.94-.34-5.89-.22-3.89-.32-5.82-.4-3.82-.59-5.71c-.64-7.56-1.94-14.8-3.15-21.65-.74-3.4-1.47-6.71-2.17-9.9-.33-1.6-.81-3.17-1.2-4.67s-.82-3-1.27-4.47A142.36,142.36,0,0,0,100,106.7c-1-2.24-1.94-4.37-2.94-6.26s-1.9-3.63-2.82-5.14l-2.54-4c-.76-1.15-1.55-2-2.12-2.77l-1.79-2.28S88.37,87.12,89.43,88.68Z"/><path class="b087fb6b-06e6-45ef-bc48-fe88bfa87681" d="M532.35,340.72c.5.8,1.22,1.71,1.88,2.9s1.43,2.56,2.28,4.1,1.59,3.33,2.5,5.23,1.65,4.08,2.56,6.33c1.62,4.6,3.34,9.84,4.79,15.64.39,1.44.76,2.93,1.09,4.47s.74,3.06,1,4.66c.59,3.18,1.21,6.47,1.85,9.85,1,6.79,2.05,14,2.59,21.44.15,1.87.36,3.75.47,5.65s.15,3.81.23,5.74.15,3.86.23,5.81,0,3.91,0,5.87c.09,7.87-.34,15.86-1,23.82-.41,4-.7,8-1.18,11.91s-1.14,7.86-1.7,11.75q-1.11,5.81-2.2,11.48c-.32,1.9-.84,3.75-1.28,5.6s-.9,3.68-1.34,5.5c-.8,3.67-2,7.15-3,10.62-.51,1.73-1,3.45-1.51,5.13s-1.17,3.31-1.75,4.92-1.14,3.22-1.71,4.79-1.09,3.13-1.75,4.61q-1.87,4.47-3.63,8.63c-.55,1.4-1.21,2.71-1.85,4s-1.26,2.54-1.87,3.77-1.18,2.43-1.75,3.6l-.84,1.73c-.29.55-.61,1.08-.91,1.61l-3.39,5.94c-1.08,1.82-2,3.56-3,5-2,2.92-3.47,5.25-4.51,6.82l-1.59,2.42,1.76-2.29c1.14-1.51,2.85-3.69,5-6.51,1.11-1.37,2.09-3.06,3.27-4.84l3.75-5.79c.34-.52.69-1,1-1.59l.94-1.69,2-3.52,2.05-3.73c.7-1.27,1.43-2.57,2-4q1.92-4.12,4-8.58c.73-1.46,1.3-3,1.92-4.6s1.24-3.17,1.88-4.79,1.29-3.26,1.9-4.94l1.69-5.15c1.12-3.48,2.36-7,3.24-10.7.49-1.84,1-3.69,1.46-5.56s1-3.73,1.39-5.65c.79-3.83,1.62-7.7,2.37-11.62q.88-5.93,1.79-11.91c.52-4,.84-8.05,1.28-12.07.58-8.08,1-16.19.83-24.17,0-2,0-4-.06-5.95s-.23-3.94-.34-5.89-.22-3.89-.33-5.81-.39-3.83-.58-5.71c-.65-7.57-1.94-14.81-3.15-21.66q-1.11-5.1-2.17-9.9c-.33-1.6-.81-3.17-1.2-4.67s-.82-3-1.28-4.46a139.87,139.87,0,0,0-5.61-15.6c-1.06-2.23-2-4.36-2.94-6.25s-1.9-3.63-2.82-5.15l-2.55-4c-.75-1.14-1.55-2-2.11-2.77l-1.79-2.27Z"/><path class="e5e4c099-b1d2-476a-8103-6844bdf89545" d="M22.83,338.49l.07.17c5.84,9.56,51.48,20.76,51.94,20.86a261.33,261.33,0,0,0,57.26,6.31c27.46,0,53.56-4.3,75.47-12.43.27-.11,27.11-10.24,30.24-15.87l.06-.16c.1-.36.19-.73.27-1.1l0-.09v-.08c0-1-1.61-23.11-53.46-23.11h-109c-51.85,0-53.42,22.16-53.46,23.11v.09l0,.09C22.45,337,22.63,337.76,22.83,338.49Zm7.59-13.2c6.07-5,18.85-11,45.3-11h109c48.93,0,52,20.35,52.14,21.78-.07.3-.15.58-.22.87-2.57,4.33-22.64,12.63-29.51,15.21-21.76,8.08-47.7,12.35-75,12.35a260.58,260.58,0,0,1-57-6.27c-5.88-1.34-45.86-12-51.06-20.19-.17-.65-.33-1.31-.48-2C23.65,335.38,24.36,330.31,30.42,325.29Z"/><path class="e5e4c099-b1d2-476a-8103-6844bdf89545" d="M271.81,321l.07.17c5.85,9.56,51.49,20.76,51.94,20.87a262.07,262.07,0,0,0,57.26,6.3c27.47,0,53.57-4.3,75.48-12.43.27-.11,27.1-10.24,30.24-15.87l.06-.16c.1-.36.19-.72.27-1.1l0-.09v-.08c0-.95-1.62-23.11-53.46-23.11h-109c-51.85,0-53.42,22.16-53.46,23.11v.09l0,.09C271.44,319.57,271.61,320.31,271.81,321Z"/><path d="M72.08,316.9l.17-.06c10-5,24.83-49.65,25-50.09a261.17,261.17,0,0,0,10.88-56.57c2.21-27.38,0-53.74-6.33-76.23-.08-.28-8-27.84-13.39-31.42l-.15-.07c-.35-.13-.71-.25-1.07-.36l-.09,0H87c-.95,0-23.17-.25-27.33,51.43L50.91,262.13c-4.17,51.68,17.8,55,18.74,55.14h.18C70.58,317.15,71.33,317,72.08,316.9Z"/><path class="e5e4c099-b1d2-476a-8103-6844bdf89545" d="M515,568.94l.17-.05c10-5.06,24.83-49.66,25-50.1A261.77,261.77,0,0,0,551,462.22c2.21-27.38,0-53.73-6.33-76.23-.08-.28-8-27.84-13.39-31.41l-.15-.08-1.08-.35-.08,0h-.08c-.95,0-23.17-.24-27.33,51.43l-8.76,108.63c-4.16,51.68,17.81,55,18.75,55.15h.18C513.5,569.2,514.25,569.08,515,568.94Zm-12.55-8.63c-4.5-6.45-9.44-19.67-7.31-46l8.75-108.63c3.93-48.78,24.46-50.18,25.89-50.22l.85.28c4.11,2.91,10.77,23.59,12.79,30.64,6.31,22.34,8.48,48.54,6.29,75.76a260.4,260.4,0,0,1-10.83,56.29c-1.8,5.75-15.68,44.74-24.22,49.27-.66.12-1.34.22-2,.32C512,567.87,507,566.76,502.45,560.31Z"/><path class="e5e4c099-b1d2-476a-8103-6844bdf89545" d="M517.06,554.65l.18-.07c8-4.45,19.94-43.12,20-43.51a247,247,0,0,0,8.93-49c1.91-23.69.34-46.46-4.53-65.88-.06-.24-6.17-24-10.41-27.13l-.16-.08-.85-.31-.09,0h-.09c-.75,0-18.41-.08-22,44.71l-7.57,94c-3.61,44.79,13.83,47.56,14.57,47.66h.2C515.87,554.88,516.47,554.78,517.06,554.65Z"/><path class="f76025a2-9047-482d-a350-09c0966d8afe" d="M519.11,531.82l.18-.07c6-3.37,15.07-32.52,15.15-32.81a185.59,185.59,0,0,0,6.72-36.85c1.44-17.82.26-35-3.41-49.58-.18-.74-4.65-18.13-7.88-20.49l-.16-.08-.65-.23-.09,0h-.09c-.57,0-14-.07-16.72,33.76l-5.69,70.63c-2.73,33.83,10.53,35.93,11.09,36h.1l.1,0Z"/></g></g></g></svg>