<svg xmlns="http://www.w3.org/2000/svg" viewBox="0 0 27.05 43.07"><defs><style>.a07eff7c-79f2-4c56-a711-bd43f6849b62,.a2b93802-c100-4bc8-a145-b0dd2bbec3a3,.a417dac8-1aa6-497a-a31c-9b2b041d86d1,.a6e35983-abb8-4c87-b9b0-8ced94524161,.a95f7755-ecc6-4d97-ae20-f72f07fce906,.a9d89c39-5a09-405d-8963-c9eea8720678,.ab64650f-d406-4d25-83eb-7419ed16d068,.ae3d60dd-7379-4f7d-aa15-71a256e7a05e,.b0418fd5-165c-4d1a-85e6-2c6358fe80be,.b864163f-3de8-42e6-ba05-844e6d7b6b2e,.bb0c602a-76f7-4857-a020-fb4067a03931,.bfa94268-e66e-4205-a667-591f7341c101,.e290b1c3-7330-4425-b042-810c7ad22a9e,.e398743c-7627-41f2-8ce5-e6e8c28f1071,.f12558e0-2303-459e-b3a8-9f7516beef2b,.f3a23621-9242-43ef-96bc-010f56454d6e,.f58d67b6-088e-4567-9c64-54b653e16267,.f9dc7a4b-e3ad-4586-80d9-f1e6f008e19e{stroke:#fff;stroke-miterlimit:10;stroke-width:0.5px;}.ae3d60dd-7379-4f7d-aa15-71a256e7a05e{fill:#de6518;}.e290b1c3-7330-4425-b042-810c7ad22a9e{fill:#e6b621;}.a07eff7c-79f2-4c56-a711-bd43f6849b62{fill:#d83b2a;}.a6e35983-abb8-4c87-b9b0-8ced94524161{fill:#d53a15;}.f58d67b6-088e-4567-9c64-54b653e16267{fill:#efd4b3;}.bfa94268-e66e-4205-a667-591f7341c101{fill:#d73525;}.b0418fd5-165c-4d1a-85e6-2c6358fe80be{fill:#cc3914;}.a95f7755-ecc6-4d97-ae20-f72f07fce906{fill:#d33614;}.b864163f-3de8-42e6-ba05-844e6d7b6b2e{fill:#dc3941;}.e398743c-7627-41f2-8ce5-e6e8c28f1071{fill:#de4347;}.ab64650f-d406-4d25-83eb-7419ed16d068{fill:#c03113;}.bb0c602a-76f7-4857-a020-fb4067a03931{fill:#eacba4;}.a417dac8-1aa6-497a-a31c-9b2b041d86d1{fill:#edd4c1;}.f9dc7a4b-e3ad-4586-80d9-f1e6f008e19e{fill:#f3f0db;}.a2b93802-c100-4bc8-a145-b0dd2bbec3a3{fill:#da3837;}.f3a23621-9242-43ef-96bc-010f56454d6e{fill:#d93736;}.f12558e0-2303-459e-b3a8-9f7516beef2b{fill:#d7362f;}</style></defs><g id="f0af53bf-a589-48da-a9bf-845bf023503f" data-name="Layer 2"><g id="b9936961-6ba6-4d3f-ba00-7f4168a58cf0" data-name="Layer 1"><g id="bffa2398-c278-437d-adc8-788cdcce4a11" data-name="Layer 1"><path class="a9d89c39-5a09-405d-8963-c9eea8720678" d="M14.8,21.61a12.73,12.73,0,0,0-.92,2.94c.55,0,1-2,1.34-2.43,1.31-1.75,2.09-4.11,4.36-4.87-1.14,1.53-2.18,2.18-2.76,3.94.45,0,4.88-5.59,6.2-4.27a4.43,4.43,0,0,0-1.85,1.34c1.82.45,2.84-1.66,4.28.5-.6,0-3-.75-3,1,1,0,2.19-.67,3.27-.76a4.14,4.14,0,0,0,.59,1.34c-.68,0-3.1-.94-3.1,1,.92,0,2.25-.7,3.18-.84,1.47,7.35-2.52,13.11-7.46,18.28-1.34,1.4-2.3,3.6-4.19,4-.5.11-2.86-1.93-3.35-2.26-2.44-1.63-5.17-3-7.46-4.78-.58-.46-1.05-1.36-1.68-1.68l.08-.17a.78.78,0,0,1-.5-.75c-.29,0-.95-1.53-.84-1.76H.8c-.1-.31-.12-.17,0-.42-.59-.3-.71-4-.33-4.19-.8-4,7-8.15,9.39-4.11A10.17,10.17,0,0,1,11,26.47,10.81,10.81,0,0,1,11,29.58C9.9,36.35.61,28.86,6.92,28.07c-.88,1.77,1.35,1.67,1.35.33,0-2-3.78-.84-4.11.5-.6,2.38,4.68,5.88,6.7,4.36s1-6.45,2.18-6.45L13,26.56h-.17A9.29,9.29,0,0,1,14.8,21.61Z"/><path class="ae3d60dd-7379-4f7d-aa15-71a256e7a05e" d="M24.11,8.79c1.07,2.14,1.45,7.88-2.35,7.88.48-.48,1.51-1,1.51-1.76a3.84,3.84,0,0,1-.67.25A4.74,4.74,0,0,0,24,11.8c-.21.21-.15.43-.33.68s-.27.34-.42.5-5,4.45-4,1.42c-.87.58-1.42,2.43-2.6,2.43,0-.73.82-1.21,1-1.92a8,8,0,0,0-.16-4.61,17,17,0,0,1-1.18,4.19h-.17a6.7,6.7,0,0,0-.08-4.11C15.57,9.15,13.37,8,13.88,6.44c-1.48,1.48,1.38,3.1,1.51,4.61a12.51,12.51,0,0,1-2.77,8.55c-.71-.36,0-2.76.26-3.44C12,16.75,11.4,19,10.7,19.94c-1-.34-.12-2.87,0-3.69-.75.75-1.78,3-2.85,3a8.25,8.25,0,0,1,.58-2.69c-.68.46-1.18,1.52-1.76,2.1-1.82,1.82.59-3.33.59-3.94-1,.89-4.1,5.87-1,5.87C4,21,2.59,17.6,4.07,15.74c2.32-2.9,4.56-3.32,7.46-4.77,0,.12-3.47,3.92-2.43,4.44,1.63.81,4.84-1.44,5.37-2.77,1-2.47-2.68-3-2.68-5.28,0-2.62,7.06-5.79,9.38-7,0,1.19-4.41,2.83-4,5.54.15,1,2,1.34,2.6.67s.45-1.78.59-2.6C21.6,4,22.58,6.93,22.52,8c-.05.69-1.45,1.53-1.85,1.93s-1.49,1.43-1.59,2c-.49,2.92,3.42.16,4-.84C23.57,10.28,23.6,9.55,24.11,8.79Z"/><path class="e290b1c3-7330-4425-b042-810c7ad22a9e" d="M13.71,23c0-2.18,1.43-4.29,1.43-6.45-.25.25-3.77,11.78-3.77,5,0-.54.16-1.05.16-1.59-.5.5-.58,1.68-.92,2.34C9.06,20.73,9,20.62,9.77,18.43c-.6.45-1.26,2-1.92,2.18-4.91,1.29-2.07-4.25-.67-5.87.14.44-2.48,6.14.25,3.18a10.26,10.26,0,0,0,.92-1.34c.22.45-.45,2.17-.5,2.69,1.05,0,2.23-2.2,2.85-3a23.56,23.56,0,0,1-.34,2.34c-.36,3.58,1.93-1.92,2.43-2.43.38.77-1.17,2.94-.17,3.44,2-2,2.85-5.91,2.85-8.55,0-1.85-3-2.57-1.59-4.61,0,3.19,3.91,3.94,2.26,8.05.94-.93,1.16-2.88,1.26-4.11,1.76,3.51-.75,4.19-.75,6.45,1,0,2-1.68,2.51-2.43.27.54-.17-.41.09,1,.12.65,2-.63,2.18-.76,1.2-.8,1.73-2,2.59-2.85a4.55,4.55,0,0,1-1.42,3.36,1,1,0,0,0,.67-.25,2.89,2.89,0,0,1-2.51,1.84,8.72,8.72,0,0,0,1.08-1.42l-.16-.09a42,42,0,0,1-6.29,5.2,12.93,12.93,0,0,1,.5-2.94c-1,.48-1.27,4-1.92,4.95l.16.08C14,22.76,14,23,13.71,23Z"/><path class="a07eff7c-79f2-4c56-a711-bd43f6849b62" d="M13.88,23.2a26.38,26.38,0,0,0-1.09,3.36H13l.08.25h-.33c-.71,2.12.11,4.58-1.59,6.29C9.24,35,2.54,30.61,4.24,28.74,4.9,28,7.15,26.38,8,27.82c1.56,2.58-3,1.3-1.09.33-5.29-.76.61,7.82,3.69,2.68A4.46,4.46,0,0,0,11,29.07a9.37,9.37,0,0,0,0-2.6,11.81,11.81,0,0,0-.67-2.85c-2-4.92-7.71-1.92-9.47,1.6C-.53,22.38,6.41,20.61,8,20.61c2.94,0,3.45,4,4.11,5.95C13,26.13,12.93,23.84,13.88,23.2Z"/><path class="a6e35983-abb8-4c87-b9b0-8ced94524161" d="M4.58,21c-5.09-5.09,3-9.34,7.54-10.48-.45.91-2.16,2.52-1.93,3.69.08.36.71.22.93.16a4.47,4.47,0,0,0,3-3.85c1.32,2.62-2.45,5.72-5,4.86,0-2,1.57-2.72,2.43-4.44-3.31,1.66-7.88,2.57-7.88,7.46,0,.92,1,1.68,1.26,2.51C4.68,20.94,4.79,20.92,4.58,21Z"/><path class="f58d67b6-088e-4567-9c64-54b653e16267" d="M13.88,23h-.17c0-2.18,1.43-4.29,1.43-6.45-.25.25-3.77,11.78-3.77,5,0-.54.16-1.05.16-1.59-1.57,1.57,0,4.85.59,6.62C12.66,26.29,13.53,23.65,13.88,23Z"/><path class="bfa94268-e66e-4205-a667-591f7341c101" d="M25.53,28.32c0,1.25-4.56,7.79-5.11,7.79,1.09-1.3,2.75-3.13,3.19-4.86A8.42,8.42,0,0,1,24.19,29,1.55,1.55,0,0,1,25.53,28.32Z"/><path class="b0418fd5-165c-4d1a-85e6-2c6358fe80be" d="M23.52,9.88C24,11.4,20.67,14,19.16,12.81s5.63-4.27,2.6-7.29l.17-.17c1.09,2.18,1.3,3.06-.59,5-.22.22-1,1-1,1.42C20.34,13.66,23.28,10.28,23.52,9.88Z"/><path class="a95f7755-ecc6-4d97-ae20-f72f07fce906" d="M20.08,5.35C20.35,6.43,19.32,7,18.32,7,15.1,7,19,2.49,19.41,2.08S20.8.49,21.51.49c-.77.83-4.06,3.57-3.52,5.2C18.27,6.54,19.87,6,20.08,5.35Z"/><path class="b864163f-3de8-42e6-ba05-844e6d7b6b2e" d="M22.52,16.67c-1.95.39-5,4.52-5.7,4.52C16.82,18.36,20.2,16.82,22.52,16.67Z"/><path class="e398743c-7627-41f2-8ce5-e6e8c28f1071" d="M17.82,18.34c-.76.86-3.41,5.94-3.94,6.21C13.88,22.83,16,18.34,17.82,18.34Z"/><path class="ab64650f-d406-4d25-83eb-7419ed16d068" d="M22.35,16.67c1.93-1.94,2.47-2.66,2.76-5.28C25.51,13.75,25.1,16.67,22.35,16.67Z"/><path class="bb0c602a-76f7-4857-a020-fb4067a03931" d="M14,22.45c.5-1,1-4.46,1.92-4.95C15.89,18.37,15.29,22.45,14,22.45Z"/><path class="a417dac8-1aa6-497a-a31c-9b2b041d86d1" d="M19.33,17.25c.35-.53,1.86-2,2.51-2C21.24,16.15,20.5,17.25,19.33,17.25Z"/><path class="f9dc7a4b-e3ad-4586-80d9-f1e6f008e19e" d="M8.94,20.86c.27-.82.56-1.62.83-2.43a14.34,14.34,0,0,0-1.92,2.18A4.65,4.65,0,0,1,8.94,20.86Z"/><path class="a2b93802-c100-4bc8-a145-b0dd2bbec3a3" d="M25.62,19a11.89,11.89,0,0,0-3.19.76C22.43,18.55,25,17.84,25.62,19Z"/><path class="f3a23621-9242-43ef-96bc-010f56454d6e" d="M26.37,20.52a12.64,12.64,0,0,0-3.18.84C23.19,19.63,25.57,19.92,26.37,20.52Z"/><path class="f12558e0-2303-459e-b3a8-9f7516beef2b" d="M24.28,17.5c-1.12.14-2,.63-3.11.84C21.78,17.13,23.28,16.51,24.28,17.5Z"/></g></g></g></svg>