<svg xmlns="http://www.w3.org/2000/svg" viewBox="0 0 68.55 46.48"><defs><style>.b1a3ebe1-0011-40a5-ba96-56ce9ef35b8b{fill:#ebf7f8;stroke:#000;stroke-miterlimit:10;}</style></defs><g id="f332e208-f6fc-4245-886c-587a50575abe" data-name="Layer 2"><g id="b3512d53-3cd9-4a10-965b-d7d249ef1495" data-name="Layer 1"><path class="b1a3ebe1-0011-40a5-ba96-56ce9ef35b8b" d="M.55,20A11.58,11.58,0,0,1,11,7.38c.5,0,1,0,1.5,0A11.58,11.58,0,0,1,32.26,5a11.58,11.58,0,0,1,17,13.63l17.07,9A3.16,3.16,0,0,1,65,33.61L52.54,34a10.17,10.17,0,0,0-8.82,5.6,11.58,11.58,0,0,1-19.66,1.75A11.5,11.5,0,0,1,17.35,44,11.58,11.58,0,0,1,5.74,28.6,11.54,11.54,0,0,1,.55,20Z"/></g></g></svg>