<svg xmlns="http://www.w3.org/2000/svg" viewBox="0 0 140 133.06"><defs><style>.ecf176fd-1ecd-49e7-8e9a-e9139bcb1508{fill:#f98826;stroke-miterlimit:10;}.a5e50014-1702-4d9b-800c-61aef2aad8ff,.b6ba4eb4-22d9-4d0f-883e-3efc23135248,.ecf176fd-1ecd-49e7-8e9a-e9139bcb1508{stroke:#000;}.aa18294a-c80d-40fe-8369-ad88d3a6a2bd{fill:#f7b238;}.b6ba4eb4-22d9-4d0f-883e-3efc23135248{fill:#f5e926;}.a5e50014-1702-4d9b-800c-61aef2aad8ff,.b6ba4eb4-22d9-4d0f-883e-3efc23135248{stroke-linecap:round;stroke-linejoin:round;}.a5e50014-1702-4d9b-800c-61aef2aad8ff{fill:#f3e62d;}.b014c756-026c-4be1-9733-bc03f683cf2d{fill:#d08715;}</style></defs><g id="abc962d0-9842-410a-8063-fb116229b904" data-name="Layer 2"><g id="b2c3b29b-f22f-46a8-bee2-6efbbd82887b" data-name="Layer 1"><g id="a318b17d-954b-4163-b724-e0e611c30531" data-name="Layer 3"><path class="ecf176fd-1ecd-49e7-8e9a-e9139bcb1508" d="M89.91,32.23A18.84,18.84,0,0,0,73.05,25,13,13,0,0,1,75.81,15a31,31,0,0,1,7.9-7.16C80.42,5.11,77.13,2.39,73.33.57A30.05,30.05,0,0,0,60.09,25.93,16.3,16.3,0,0,0,48.26,32c-4-5.23-11.1-7.75-17.75-7.1s-12.8,4.21-17.3,9A44.85,44.85,0,0,0,3.73,51a67.56,67.56,0,0,0-.2,40.66,69.27,69.27,0,0,0,23.39,33.68c3.78,3,8,5.59,12.82,6.33s10.19-.79,12.9-4.81a27.08,27.08,0,0,0,16.75,5.07A27.75,27.75,0,0,0,86,125.49c1.25,4.86,7.06,7.56,12.17,7s9.57-3.58,13.49-6.81c14.37-11.83,25.08-28.42,27.39-46.61S134.49,41.29,119.69,30a22.67,22.67,0,0,0-9.45-4.66C102.79,24,95.64,28.3,89.91,32.23Z"/><path class="aa18294a-c80d-40fe-8369-ad88d3a6a2bd" d="M89.84,32.69C94.53,50,94.25,62,94.3,81.63c0,7.68.2,15.37,0,23.05,0,.27,0-.53,0-.83A64.27,64.27,0,0,1,92.15,120a39.74,39.74,0,0,1-3.4,8.4c-.71,1.08.81-.66,1.08-1,9.32-11.33,9.79-26.93,10.32-40.95C100.35,68.12,98.23,49.22,89.84,32.69Z"/><path class="aa18294a-c80d-40fe-8369-ad88d3a6a2bd" d="M46.21,117.18a45,45,0,0,1-3.28-12.67c-1-8.63-.31-12,.38-23.41C44.53,65,45.42,48.56,48.69,32.87,42,48.35,39.09,65.35,38.1,82.1c-.54,9.44-.05,19,3,28,1.73,4.6,3.8,9.36,7.55,12.68a28.31,28.31,0,0,0,3,2.11A23,23,0,0,1,46.21,117.18Z"/><path class="b6ba4eb4-22d9-4d0f-883e-3efc23135248" d="M70.8,54.42a28.58,28.58,0,0,1,8.25,9.36,18.75,18.75,0,0,1,4.67-3.68,2.38,2.38,0,0,1,1.75-.41c.91.25,1.21,1.39,1.08,2.3-.44,3.15-4,5.86-2.9,8.87a6.58,6.58,0,0,0,1.77,2.34l9,8.76a68.16,68.16,0,0,0-.81-23.87c-.64-3-1.67-6.22-4.29-7.91-2.87-1.86-6.73-1.27-9.92,0S73.24,53.32,70.8,54.42Z"/><path class="a5e50014-1702-4d9b-800c-61aef2aad8ff" d="M58.23,54.3a30.88,30.88,0,0,1-2.74,11.28,16.16,16.16,0,0,0-4.42-5.31c-.57-.44-1.39-.85-2-.44A1.46,1.46,0,0,0,48.6,61c-.05,2.83,2.74,5,3.06,7.86A9.49,9.49,0,0,1,50.88,73L47.4,82.88a90.93,90.93,0,0,1-5-16.51c-.85-4.16-1.31-8.83,1.15-12.34a9.21,9.21,0,0,1,7.82-3.8C54.35,50.37,58.34,51.93,58.23,54.3Z"/><path class="b6ba4eb4-22d9-4d0f-883e-3efc23135248" d="M68,72a40.1,40.1,0,0,0-7.68,11.89,101,101,0,0,0,17.12.67A50.37,50.37,0,0,0,68,72Z"/><path class="b6ba4eb4-22d9-4d0f-883e-3efc23135248" d="M35.68,86.78a76.15,76.15,0,0,0,62.67-.63A23.6,23.6,0,0,1,91.7,101c-4,3.89-10,6-15.48,4.82-2.57-.56-5.13-1.79-7.71-1.29-2.85.56-4.88,3.11-7.64,4-3.76,1.21-7.73-.89-11-3.08-2.32-1.56-4.58-3.21-6.76-4.94a23.91,23.91,0,0,1-5.87-6A11,11,0,0,1,35.68,86.78Z"/><path class="b014c756-026c-4be1-9733-bc03f683cf2d" d="M57.29,53c-1.39-.78-2.64-2.06-6.16-2.25a8.22,8.22,0,0,0-5.67,1.87c-7.77,5.37.26,23.35,1.81,28.67.52-2.7-4.1-21.31-1.08-25.26,1.6-2,2.34-2.37,5-2.86C51.69,53,57.68,53.68,57.29,53Z"/><path class="b014c756-026c-4be1-9733-bc03f683cf2d" d="M85.49,100.86c-5.73,2.67-15.65-2-20.34.94-2.05,1.15-3.13,2.25-5.23,2.59a3.42,3.42,0,0,1-1.5,0c-6.65-2-11-5.83-17-9.69a22.41,22.41,0,0,1-2.73-1.92,15.68,15.68,0,0,1-2.7-5.3c-.68,1.73.5,4.66,1.57,6.71a23.43,23.43,0,0,0,3,3.5c5.32,4.69,10.72,9.87,17.78,10.71,4.55-.07,7.22-4.14,11-4.53,2-.74,9.91,5.53,20.32-1.74,3.09-2,7.14-7.39,8.48-15.34C97.26,86.31,91.08,98.86,85.49,100.86Z"/><path class="b014c756-026c-4be1-9733-bc03f683cf2d" d="M88.27,50.12C83,48,75.92,52,71.78,54.5c3.72-1,13.49-3.21,16-.89,1.55.84,1.64,1.42,2.41,3.18,2.21,5.52,2.22,14.42,3.66,24,0,.42.08.08.13.49C94.79,76.88,95.78,53.28,88.27,50.12Z"/><path class="b014c756-026c-4be1-9733-bc03f683cf2d" d="M76.1,83.78A26.26,26.26,0,0,0,61,83.31a134,134,0,0,0,13.39.87C75,84,77.75,84,76.1,83.78Z"/></g></g></g></svg>