<svg xmlns="http://www.w3.org/2000/svg" xmlns:xlink="http://www.w3.org/1999/xlink" viewBox="0 0 482.91 601.74"><defs><style>.a334a9e3-90c7-47fd-81dc-118a3e1a6c80{fill:#aba071;}.a334a9e3-90c7-47fd-81dc-118a3e1a6c80,.a861702f-d860-49ce-adf4-02a8209dcef2,.ab48b636-9d75-4671-aaad-4439f4a7ed2f,.ac2c5079-7181-4e9c-b2c4-386485903bb3,.f2f8a457-82b0-4027-a2d8-dd4826f528bd{stroke:#231f20;stroke-miterlimit:10;}.a334a9e3-90c7-47fd-81dc-118a3e1a6c80,.ab48b636-9d75-4671-aaad-4439f4a7ed2f{stroke-width:4px;}.a5acdcdc-f52f-46d4-9e11-b4d293988217,.a861702f-d860-49ce-adf4-02a8209dcef2,.ab48b636-9d75-4671-aaad-4439f4a7ed2f{fill:#f7941d;}.ebec60c4-6ee6-4739-9636-debf36cb43bd{fill:#bb373a;}.a97a4085-6875-4b88-86db-4f719cdf4628{fill:#1c222e;}.e2c7867e-b7e5-473d-b1bf-66257ed6c7d4{fill:#fff;}.b4ab45bb-4ad3-4eba-a1d1-e74c94b77361{fill:#20120e;}.a861702f-d860-49ce-adf4-02a8209dcef2{stroke-width:7px;}.b8b08709-6dd7-40de-bcc6-11bcd47cd69b{fill:#b44e49;}.ae84af17-f195-43f0-b733-795e2b59f0cd{fill:#fff200;}.ac2c5079-7181-4e9c-b2c4-386485903bb3,.f2f8a457-82b0-4027-a2d8-dd4826f528bd{fill:none;}.f2f8a457-82b0-4027-a2d8-dd4826f528bd{stroke-width:10px;}.ac330049-215d-4009-94de-f270dd803187{fill:url(#a7435f9c-7e62-4711-a27f-d09e09dde010);}.ac2c5079-7181-4e9c-b2c4-386485903bb3{stroke-width:12px;}.e5c7e877-2e26-4624-8b6d-f5f97d96266b{fill:url(#bc890033-ab79-46ee-901a-e355658f7511);}</style><radialGradient id="a7435f9c-7e62-4711-a27f-d09e09dde010" cx="307.38" cy="322.55" r="35.52" gradientUnits="userSpaceOnUse"><stop offset="0.01" stop-color="#fff200"/><stop offset="0.45" stop-color="#fff200"/><stop offset="1" stop-color="#f7941d"/></radialGradient><radialGradient id="bc890033-ab79-46ee-901a-e355658f7511" cx="175.12" cy="322.55" r="35.52" xlink:href="#a7435f9c-7e62-4711-a27f-d09e09dde010"/></defs><g id="b8824bd3-348e-4417-aa97-e2aa5b3c1f85" data-name="Layer 2"><g id="e14a1b80-5326-4d9e-bb5b-eb5ecfdf8953" data-name="Layer 1"><polygon class="a334a9e3-90c7-47fd-81dc-118a3e1a6c80" points="215.81 12.24 209.73 24.75 190.01 8.64 194.57 2.49 215.81 12.24 215.81 12.24"/><path class="ab48b636-9d75-4671-aaad-4439f4a7ed2f" d="M272.63,40.11A37.86,37.86,0,1,1,234,3a37.87,37.87,0,0,1,38.61,37.09Z"/><path class="ebec60c4-6ee6-4739-9636-debf36cb43bd" d="M347.05,244.67l4.62,229.83-248.33,5L98.72,249.66a124.19,124.19,0,1,1,248.33-5Z"/><polygon class="a97a4085-6875-4b88-86db-4f719cdf4628" points="350.96 439.27 351.67 474.5 103.34 479.5 102.64 444.26 350.96 439.27 350.96 439.27"/><polygon class="e2c7867e-b7e5-473d-b1bf-66257ed6c7d4" points="268.32 440.94 216.44 441.98 217.15 477.2 269.03 476.16 268.32 440.94 268.32 440.94"/><path class="b4ab45bb-4ad3-4eba-a1d1-e74c94b77361" d="M234.44,122.7h0a108.79,108.79,0,0,0-106.58,111L134.7,574.4,352.23,570l-6.84-340.75A108.79,108.79,0,0,0,234.44,122.7Z"/><path class="a861702f-d860-49ce-adf4-02a8209dcef2" d="M479.36,368.45c1.1,54.78-14.66,101.74-42.22,138.68a211.24,211.24,0,0,1-17,20h-.05c-34.18,35.43-80.84,58.86-133.88,67.4-1.48.27-2.92.5-4.4.73L272,596.46c-.68.12-1.4.18-2.08.24-7.89.81-15.87,1.32-24,1.48a277.16,277.16,0,0,1-28.2-.83c-3.23-.23-6.47-.51-9.66-.9a262,262,0,0,1-39.85-7.51c-3.12-.83-6.24-1.77-9.28-2.7-43.87-13.6-81.73-38.63-109.12-73.12q-5.94-7.5-11.19-15.6C17.24,464.55,4.48,424.29,3.55,378A259.76,259.76,0,0,1,29.14,259.58c2.89-6.08,6-12,9.42-17.76,27.4-46.94,69.12-83.67,118.87-103.33q5.19-2.06,10.51-3.8A224.19,224.19,0,0,1,228,123c1.78-.14,3.53-.22,5.31-.26,1-.07,2.08-.09,3.1-.11,6-.12,11.86,0,17.73.34h0A208.76,208.76,0,0,1,276,125.35h0C330.78,133.81,379.62,162,415.72,203a241.33,241.33,0,0,1,19,24.51.21.21,0,0,1,0,.15,258.25,258.25,0,0,1,44.57,140.81Z"/><path class="b8b08709-6dd7-40de-bcc6-11bcd47cd69b" d="M323.52,479.5c-12.08,46.13-66.75,92.66-95.29,117-1.48.28-2.92.51-4.4.74l-9.75,1.19-2.17.29c.05,0,.05-.05.09-.05,28.48-23,91.13-73.46,103.09-119.14,9.54-36.68-88.1-92.22-89.91-146-1.27-37.75-43-74.31-63.32-123-16.57-39.49,68.66-66.94,39-81.82,7.37.39,10-2.57,17.15-1.42h0c23.77,17.64-63.7,42.4-49.77,75.67,21.12,50.35,65.69,90.36,67,129.06,1.83,54.92,98.09,102.79,88.27,140.52Z"/><path class="b8b08709-6dd7-40de-bcc6-11bcd47cd69b" d="M49.86,513.1q-6-7.49-11.2-15.6-.69-3.19-1.4-6.39c-7.8-37.18-11.68-80-12.31-134.6-.32-26.32,0-61.27,4.17-96.95,2.9-6.08,6.05-12,9.42-17.76-6.52,41.4-7,84-6.66,114.67.62,54,4.48,96.18,12.14,132.71q2.61,12.42,5.84,23.92Z"/><path class="b8b08709-6dd7-40de-bcc6-11bcd47cd69b" d="M442.21,490c-1.54,5.85-3.2,11.56-5.09,17.12a211.24,211.24,0,0,1-17,20,258.09,258.09,0,0,0,14-40.1c9.59-36.63,13.2-78.77,11.4-132.49-1.23-37.8-5.28-93.67-25.63-142.34-1.3-3.16-2.68-6.22-4.15-9.23a242.45,242.45,0,0,1,19,24.51.21.21,0,0,1,0,.15c14.81,45.1,18.1,92.86,19.21,126.59,1.82,54.87-1.9,98.05-11.77,135.78Z"/><path class="b8b08709-6dd7-40de-bcc6-11bcd47cd69b" d="M349,485.49c-12.08,46.14-34.3,84.71-62.83,109-1.49.28-2.93.5-4.41.73L272,596.44l-2.16.3s0,0,.08,0c28.48-23,59-68.44,70.94-114.12,9.54-36.68,13.21-78.77,11.39-132.54C351,312.28,347,256.41,326.64,207.74c-16.57-39.49-40.4-65.83-70.06-80.72,7.36.4,12.2-2.84,19.36-1.69h0c23.77,17.64,44.33,44.81,58.27,78.08,21.11,50.34,25.23,107.6,26.52,146.3,1.82,54.92-1.94,98.05-11.76,135.78Z"/><path class="b8b08709-6dd7-40de-bcc6-11bcd47cd69b" d="M142.26,506.34c6.21,32,15.15,60.17,26,82.6-3.12-.83-6.24-1.77-9.28-2.7-9.74-21.9-17.8-48.37-23.49-77.83-7.87-40.5-11.86-87.11-12.55-146.58-.5-41.95.2-104.14,12.44-159.29,5.45-24.6,13.05-46.35,22-64q5.19-2.06,10.51-3.8c-10.73,18.18-19.68,42.31-25.87,70.36-12,54-12.69,115.33-12.19,156.69.71,58.82,4.65,104.78,12.38,144.6Z"/><path class="ae84af17-f195-43f0-b733-795e2b59f0cd" d="M366.31,382.31c1.17,58.39-51.55,106.8-117.74,108.13s-120.82-44.92-122-103.31l239.73-4.82Z"/><polygon class="a5acdcdc-f52f-46d4-9e11-b4d293988217" points="222.12 417.11 176.01 418.04 175.12 373.77 221.23 372.84 222.12 417.11 222.12 417.11"/><polygon class="a5acdcdc-f52f-46d4-9e11-b4d293988217" points="304.42 489.32 268.72 490.04 268.03 455.76 303.74 455.04 304.42 489.32 304.42 489.32"/><path class="ae84af17-f195-43f0-b733-795e2b59f0cd" d="M342.9,321.84A35.52,35.52,0,1,1,306.67,287a35.52,35.52,0,0,1,36.23,34.8Z"/><path class="f2f8a457-82b0-4027-a2d8-dd4826f528bd" d="M342.9,321.84A35.52,35.52,0,1,1,306.67,287a35.52,35.52,0,0,1,36.23,34.8Z"/><path class="ac330049-215d-4009-94de-f270dd803187" d="M342.9,321.84A35.52,35.52,0,1,1,306.67,287a35.52,35.52,0,0,1,36.23,34.8Z"/><path class="ae84af17-f195-43f0-b733-795e2b59f0cd" d="M210.64,321.84A35.52,35.52,0,1,1,174.41,287a35.52,35.52,0,0,1,36.23,34.8Z"/><path class="ac2c5079-7181-4e9c-b2c4-386485903bb3" d="M210.64,321.84A35.52,35.52,0,1,1,174.41,287a35.52,35.52,0,0,1,36.23,34.8Z"/><path class="e5c7e877-2e26-4624-8b6d-f5f97d96266b" d="M210.64,321.84A35.52,35.52,0,1,1,174.41,287a35.52,35.52,0,0,1,36.23,34.8Z"/></g></g></svg>