<svg xmlns="http://www.w3.org/2000/svg" viewBox="0 0 32.74 26.07"><defs><style>.a4510927-bd99-4429-a42a-453d6afafe06,.aa9938cc-4e37-430c-9425-6649a9bc17ef{fill:#84c3dd;}.b00d40d9-67b9-41ad-b224-a83ebb1914c2,.b218158f-b809-40eb-aba9-50bdbdb7f716{fill:#56add1;}.b43a5662-e0b9-4089-b780-407569676e88{fill:#4a8fb8;stroke:#4a8fb8;}.a02af17e-79f2-4078-b7ea-b7dea3826f27,.a07c248d-8d8f-4051-bc9d-3e184973b024,.a1754e9e-08d8-4458-ade7-b2335e7d3f43,.a3889621-2141-43f7-944b-a6424cfd2e5f,.a4510927-bd99-4429-a42a-453d6afafe06,.a568ab92-c0fd-49d0-aa02-61f158f68183,.a6463b5c-6d1e-456b-9c42-d274d9e23970,.a6678879-bffc-4afc-b4bf-2a9dca1ca056,.a67443ba-f0bb-45c3-a886-b9f13844c50d,.a70a73b7-476e-4cde-9b7e-ed8af900f242,.a75c14d2-841f-4a92-bbcf-460306e8fae1,.a79a7b8d-5bb5-43cc-af4e-ce40efcbdf72,.a831209a-4630-4e48-a9cc-f611c4918dfc,.a882dc02-bdfc-466c-813f-0a470850a6ed,.aa9f3685-c074-4bd4-8b05-2ef3ba5b5f52,.ab01187a-54ef-452a-863c-c86e97fe3f53,.ada8e42f-c9ce-4f9e-87c1-996e2b19304d,.adccbbf5-5f95-4ed9-bb65-7fc723f7b5e3,.aea9a9e3-c2da-41a9-b27c-c0cebbd07c42,.af673603-1eac-41fe-afa6-0175cd09da5b,.b00d40d9-67b9-41ad-b224-a83ebb1914c2,.b1ee54da-2cf4-4e79-970d-f1a0fb3c37e2,.b2d0cb76-f82a-45e1-850a-863c7ff6bc4b,.b2e27a81-2a1f-475a-a07c-c0721339b09b,.b3d5470f-5488-4141-98b9-74801daff65e,.b43a5662-e0b9-4089-b780-407569676e88,.b5d260a6-4310-4dc8-b84a-c6f37239b552,.b5fc28dc-5b8f-44dd-86fb-299be01d5179,.b6487071-7c56-4d0d-a220-89b4996bfcac,.b670fd15-8c90-41c7-9c1d-122c8c55faa8,.b6dde46b-25f1-43d8-a3f6-a607be324cfa,.bad1f094-a5dd-4688-83ff-47e0160d330e,.bb7ec048-78b5-4b05-8d6a-ad68d8b11ba4,.bbef2b3a-fcee-405a-82c6-9d2daae8dc13,.be1995da-d178-49bc-a55a-262c6a6eada0,.be6bbe83-7e94-43a3-a24d-eb478831cf02,.be9d439a-1bc1-4027-8b63-96c58555e6e6,.bf497275-41af-4bab-8fad-92263504dea2,.bf75cc91-eda6-4095-a5bc-0b4a965aeefc,.bfb6951e-8bfb-4643-ab89-f9cde7b79705,.e315990f-b385-4e07-b73e-f6033e145121,.e47948ba-baa1-4d5f-9d89-2a50b9ba58c2,.e4abf0aa-b116-414e-ae7f-02d62bdebae7,.e7e00f77-247a-4d0b-bf22-89e37fb4e51d,.e8884b34-2bfb-4a36-98a2-9e022c1e05ee,.ed169543-3c47-4155-b213-8cf8470c8e4c,.edc3d647-a52e-463d-94d7-1b09b8eacd8f,.edfe286f-a0be-4a6b-85a2-5fb3c68097bc,.f154b35b-949d-49ec-9b27-959688e700a6,.f1d9194a-a8ab-43aa-861c-3e2cd20091e9,.f1dc2021-8cdb-4b23-82f2-96ebb9a0c5f6,.f4dbf6be-afdc-4762-929f-c4f32b09a9bf,.f6386027-ddd6-4d25-8e72-ea5fe13c21fa,.f70e7929-d415-4999-a98b-8fa0a6b40d55,.f99ab3c2-5faf-41fb-9f37-4b42770017d0,.fc2035e9-02b6-42e2-a7b2-3ba5b32c34e3,.fc8004c4-c47c-4074-8222-0371c8cddd21,.fe3bd52d-3e0e-4342-ba97-0ae4c156f964,.fee94bbd-e908-423a-a732-dcde7b348358{stroke-linecap:round;stroke-linejoin:round;stroke-width:0.84px;}.fe3bd52d-3e0e-4342-ba97-0ae4c156f964{fill:#39507e;stroke:#39507e;}.e47948ba-baa1-4d5f-9d89-2a50b9ba58c2{fill:#397aa5;stroke:#397aa5;}.b6dde46b-25f1-43d8-a3f6-a607be324cfa{fill:#e2e2e2;stroke:#e2e2e2;}.b00d40d9-67b9-41ad-b224-a83ebb1914c2{stroke:#56add1;}.f4dbf6be-afdc-4762-929f-c4f32b09a9bf{fill:#c11f2c;stroke:#c11f2c;}.f1d9194a-a8ab-43aa-861c-3e2cd20091e9{fill:#346e9d;stroke:#346e9d;}.a568ab92-c0fd-49d0-aa02-61f158f68183{fill:#0f1838;stroke:#0f1838;}.b6487071-7c56-4d0d-a220-89b4996bfcac{fill:#f04856;stroke:#f04856;}.bbef2b3a-fcee-405a-82c6-9d2daae8dc13{fill:#150a1b;stroke:#150a1b;}.aa9f3685-c074-4bd4-8b05-2ef3ba5b5f52{fill:#da545e;stroke:#da545e;}.a3889621-2141-43f7-944b-a6424cfd2e5f{fill:#50a5cc;stroke:#50a5cc;}.bf75cc91-eda6-4095-a5bc-0b4a965aeefc{fill:#1b2441;stroke:#1b2441;}.aea9a9e3-c2da-41a9-b27c-c0cebbd07c42{fill:#f3f3f4;stroke:#f3f3f4;}.b3d5470f-5488-4141-98b9-74801daff65e{fill:#181633;stroke:#181633;}.edfe286f-a0be-4a6b-85a2-5fb3c68097bc{fill:#becdd7;stroke:#becdd7;}.b670fd15-8c90-41c7-9c1d-122c8c55faa8{fill:#519cc3;stroke:#519cc3;}.af673603-1eac-41fe-afa6-0175cd09da5b{fill:#fdf7f7;stroke:#fdf7f7;}.fee94bbd-e908-423a-a732-dcde7b348358{fill:#eceeef;stroke:#eceeef;}.ada8e42f-c9ce-4f9e-87c1-996e2b19304d{fill:#d3d2d5;stroke:#d3d2d5;}.b2e27a81-2a1f-475a-a07c-c0721339b09b{fill:#eae2e6;stroke:#eae2e6;}.e7e00f77-247a-4d0b-bf22-89e37fb4e51d{fill:#f1f2f3;stroke:#f1f2f3;}.bb7ec048-78b5-4b05-8d6a-ad68d8b11ba4{fill:#f7f7f8;stroke:#f7f7f8;}.a70a73b7-476e-4cde-9b7e-ed8af900f242{fill:#f36569;stroke:#f36569;}.a75c14d2-841f-4a92-bbcf-460306e8fae1{fill:#b8bbc3;stroke:#b8bbc3;}.a4510927-bd99-4429-a42a-453d6afafe06{stroke:#84c3dd;}.e315990f-b385-4e07-b73e-f6033e145121{fill:#f2f3f4;stroke:#f2f3f4;}.e8884b34-2bfb-4a36-98a2-9e022c1e05ee{fill:#061030;stroke:#061030;}.b5fc28dc-5b8f-44dd-86fb-299be01d5179{fill:#4d9ec6;stroke:#4d9ec6;}.adccbbf5-5f95-4ed9-bb65-7fc723f7b5e3{fill:#f8eeee;stroke:#f8eeee;}.f1dc2021-8cdb-4b23-82f2-96ebb9a0c5f6{fill:#fcfdfc;stroke:#fcfdfc;}.bfb6951e-8bfb-4643-ab89-f9cde7b79705{fill:#e3e7e8;stroke:#e3e7e8;}.a882dc02-bdfc-466c-813f-0a470850a6ed{fill:#f34649;stroke:#f34649;}.be9d439a-1bc1-4027-8b63-96c58555e6e6{fill:#f1f1f3;stroke:#f1f1f3;}.a831209a-4630-4e48-a9cc-f611c4918dfc{fill:#d73133;stroke:#d73133;}.bf497275-41af-4bab-8fad-92263504dea2{fill:#d65357;stroke:#d65357;}.bad1f094-a5dd-4688-83ff-47e0160d330e{fill:#d5292b;stroke:#d5292b;}.be6bbe83-7e94-43a3-a24d-eb478831cf02{fill:#d7313d;stroke:#d7313d;}.a6678879-bffc-4afc-b4bf-2a9dca1ca056{fill:#3d8cb8;stroke:#3d8cb8;}.a6463b5c-6d1e-456b-9c42-d274d9e23970{fill:#040e2e;stroke:#040e2e;}.b5d260a6-4310-4dc8-b84a-c6f37239b552{fill:#5db1d4;stroke:#5db1d4;}.b1ee54da-2cf4-4e79-970d-f1a0fb3c37e2{fill:#67c1e0;stroke:#67c1e0;}.e4abf0aa-b116-414e-ae7f-02d62bdebae7{fill:#d5d9dc;stroke:#d5d9dc;}.f154b35b-949d-49ec-9b27-959688e700a6{fill:#f74d4f;stroke:#f74d4f;}.a79a7b8d-5bb5-43cc-af4e-ce40efcbdf72{fill:#55acd1;stroke:#55acd1;}.f99ab3c2-5faf-41fb-9f37-4b42770017d0{fill:#d13a3c;stroke:#d13a3c;}.a07c248d-8d8f-4051-bc9d-3e184973b024{fill:#d3dce1;stroke:#d3dce1;}.ab01187a-54ef-452a-863c-c86e97fe3f53{fill:#dedddf;stroke:#dedddf;}.f70e7929-d415-4999-a98b-8fa0a6b40d55{fill:#d7d8dd;stroke:#d7d8dd;}.b2d0cb76-f82a-45e1-850a-863c7ff6bc4b{fill:#5fb7da;stroke:#5fb7da;}.a67443ba-f0bb-45c3-a886-b9f13844c50d{fill:#fafafa;stroke:#fafafa;}.f6386027-ddd6-4d25-8e72-ea5fe13c21fa{fill:#dae6ed;stroke:#dae6ed;}.a02af17e-79f2-4078-b7ea-b7dea3826f27{fill:#d7d7d7;stroke:#d7d7d7;}.a1754e9e-08d8-4458-ade7-b2335e7d3f43{fill:#d8d9de;stroke:#d8d9de;}.fc2035e9-02b6-42e2-a7b2-3ba5b32c34e3{fill:#e6e7ea;stroke:#e6e7ea;}.edc3d647-a52e-463d-94d7-1b09b8eacd8f{fill:#7ed7ee;stroke:#7ed7ee;}.fc8004c4-c47c-4074-8222-0371c8cddd21{fill:#f25260;stroke:#f25260;}.be1995da-d178-49bc-a55a-262c6a6eada0{fill:#fd6675;stroke:#fd6675;}.ed169543-3c47-4155-b213-8cf8470c8e4c{fill:#c6c7c8;stroke:#c6c7c8;}</style></defs><g id="ff7789c7-cdf2-4c01-8fde-d0a317adab5a" data-name="Layer 2"><g id="bf8b3d4e-1878-433f-8b17-ee8796379221" data-name="Layer 1"><g id="eea0e2b1-b896-408b-8a55-7c30ca97d454" data-name="Layer 1"><path class="aa9938cc-4e37-430c-9425-6649a9bc17ef" d="M31.6,23.22c-.14.44-.54.67-.86.93a8.21,8.21,0,0,1-2.66,1.33,10,10,0,0,1-1.08.16c-3.28.76-6.3-1.25-9.19-2.76a16,16,0,0,0-2.13-1c-.92-.33-1.88-.51-2.81-.78-.41-.12,5.63,2.35,5.22,2.26s-5.37-1.85-5.92-1.89c-1.18-.11-4.59-1.1-5.76-.76a1.37,1.37,0,0,0-.5.21,2.17,2.17,0,0,1-.37.31c-.16.08-.32.19-.48.26s-.31.06-.45.13-.27.26-.44.31a9.48,9.48,0,0,1-1.39.27c-.1,0-.19.08-.3.09l-.43-.05c-.15,0-.29.05-.43.05-.42,0-.67-.35-.88-.7a3.82,3.82,0,0,1-.34-.74c0-.06,0-.39,0-.42A1.85,1.85,0,0,1,.52,19a2.58,2.58,0,0,1,.25-.42"/><path class="b218158f-b809-40eb-aba9-50bdbdb7f716" d="M.79,18.5s0,0-.05,0a2.46,2.46,0,0,0-.22.39,1.83,1.83,0,0,0-.27.75,3.84,3.84,0,0,0,.07.76c0,.14,0,.28,0,.42a.68.68,0,0,0,.07.2,3.85,3.85,0,0,0,.24.5c.17.29.39.66.73.76a.89.89,0,0,0,.28,0,2.21,2.21,0,0,1,.35,0,1.65,1.65,0,0,1,.32,0h.13c.1,0,.18-.07.27-.09s.25,0,.37-.06A7.4,7.4,0,0,0,4,22l.23-.07c.18-.06.28-.22.45-.3A1.45,1.45,0,0,1,5,21.53l.24-.11.24-.14a1.48,1.48,0,0,0,.21-.13A3.74,3.74,0,0,1,6,20.88a1.11,1.11,0,0,1,.3-.12,2.42,2.42,0,0,1,.45-.1,6.66,6.66,0,0,1,1.34.08c.68.09,1.36.23,2,.37l1.39.28.45.07.2,0,.28.07.29.08.47.14,1,.33,2.13.72.78.27.41.13.24.08.15,0,.06,0s.1,0,.12,0a0,0,0,0,0,0,0,.18.18,0,0,0-.07,0l-.06,0-.12-.08-.07,0-1-.45L14,21.54l-.75-.32h0l.34.09,1.17.3A9.29,9.29,0,0,1,16,22c.46.19.9.42,1.33.65l.8.43c1.19.63,2.37,1.31,3.61,1.84a10.56,10.56,0,0,0,3,.85,6.67,6.67,0,0,0,1.61,0l.41-.07c.13,0,.25-.06.38-.07s.49,0,.73-.09a2.8,2.8,0,0,0,.41-.13l.47-.17a7.22,7.22,0,0,0,1.45-.71,5.13,5.13,0,0,0,.6-.44,2.06,2.06,0,0,0,.8-.88s0,0,0,0a0,0,0,0,0-.05,0,1.94,1.94,0,0,1-.77.86,5.9,5.9,0,0,1-.7.5,9,9,0,0,1-1.57.73l-.35.12a2.46,2.46,0,0,1-.29.09c-.23.05-.48,0-.72.08l-.38.08-.41.06a7,7,0,0,1-1.59,0,12.31,12.31,0,0,1-4.12-1.38c-.62-.31-1.23-.64-1.84-1l-1.88-1a10.41,10.41,0,0,0-1.07-.5,18.64,18.64,0,0,0-2.06-.6l-.71-.18-.23-.06h0s0,0,0,0,0,.05.06.06h0l.19.08,1,.44,2.7,1.14.88.39a.05.05,0,0,1,0,0l-.4-.13-1.05-.35L14.16,22l-.93-.3c-.16-.05-.31-.11-.47-.15l-.36-.09-.22-.06-.2,0-.45-.07L10.07,21c-.65-.13-1.31-.26-2-.35a6.22,6.22,0,0,0-1.36-.08,3.1,3.1,0,0,0-.51.11,1.23,1.23,0,0,0-.26.12,2.69,2.69,0,0,0-.32.27l-.21.13-.24.14a.88.88,0,0,1-.22.1,2.85,2.85,0,0,0-.39.11c-.16.08-.26.24-.43.31a5.18,5.18,0,0,1-1,.21c-.12,0-.25,0-.37.06s-.18.07-.27.08a.37.37,0,0,1-.15,0l-.28,0c-.21,0-.41.09-.62,0s-.57-.5-.72-.78A3.42,3.42,0,0,1,.5,21a1.52,1.52,0,0,1-.06-.2c0-.13,0-.27,0-.41a3.71,3.71,0,0,1-.07-.74,1.73,1.73,0,0,1,.26-.73,2.88,2.88,0,0,1,.22-.38S.81,18.51.79,18.5Z"/><path class="aa9938cc-4e37-430c-9425-6649a9bc17ef" d="M24.43,3c.12.28.4.44.56.7.05.07.06.17.11.24s.17.13.23.21.12.31.22.44c.23.33.5.63.73,1a5.06,5.06,0,0,1,.24.46c.14.27.33.52.49.78s.28.53.45.77.29.35.42.52.2.32.33.46"/><path class="b218158f-b809-40eb-aba9-50bdbdb7f716" d="M24.42,2.93a0,0,0,0,0,0,0,3.29,3.29,0,0,0,.48.58l.08.12c.05.07.06.16.11.24s.19.14.25.24.11.28.2.41c.22.33.5.63.73.95.08.12.13.25.2.38a2.49,2.49,0,0,0,.15.28c.15.24.31.46.45.7s.25.48.41.7.27.31.4.47.2.32.32.46a0,0,0,0,0,.05,0s0,0,0,0S28,8.16,27.91,8s-.27-.31-.39-.47a6.85,6.85,0,0,1-.4-.69c-.14-.25-.31-.47-.45-.71-.06-.09-.11-.18-.16-.27a2.87,2.87,0,0,0-.2-.39c-.24-.32-.51-.62-.74-1-.08-.12-.11-.27-.19-.4a.58.58,0,0,0-.1-.12.93.93,0,0,1-.15-.13c-.05-.07-.06-.17-.11-.24l-.19-.24A1.78,1.78,0,0,1,24.46,3,0,0,0,0,0,24.42,2.93Z"/><path class="aa9938cc-4e37-430c-9425-6649a9bc17ef" d="M24.77,3.65c.12.18.24.37.37.54a6.44,6.44,0,0,1,.48.56,9.41,9.41,0,0,0,.58,1c.16.21.4.34.55.55.32.45.53,1,.85,1.44.11.15.25.26.36.4a9.22,9.22,0,0,1,.77,1.69,1,1,0,0,0,.3.39l.1.07s.1.12.07.1a.23.23,0,0,1-.08-.11s-.05-.15-.05-.11c0,.21.18.32.28.46a2.45,2.45,0,0,1,.24.58c.11.27.2.55.31.81a2.89,2.89,0,0,0,.35.73c.07.09.18.16.25.26a3,3,0,0,1,.4.8,11.42,11.42,0,0,1,.46,1.51,2.5,2.5,0,0,0,.13.54,3.14,3.14,0,0,1,.25.44c.17.62.16,1.26.28,1.89.06.26.18.5.23.78a6.24,6.24,0,0,1,0,1.83c0,.16-.09.3-.12.46s0,.26-.08.38-.17.22-.24.35-.3.53-.48.79"/><path class="b218158f-b809-40eb-aba9-50bdbdb7f716" d="M24.75,3.63a0,0,0,0,0,0,0,6.58,6.58,0,0,0,.38.54c.15.19.33.35.47.56s.35.66.58,1,.39.34.55.55a3.61,3.61,0,0,1,.33.53c.17.31.33.62.52.91.09.12.21.22.31.34a1.18,1.18,0,0,1,.19.25,14.82,14.82,0,0,1,.59,1.43,1.41,1.41,0,0,0,.34.46l.05,0a.93.93,0,0,0,.22.3,1.28,1.28,0,0,1,.15.25c0,.13.09.26.14.4l.33.86a3.57,3.57,0,0,0,.19.45,1,1,0,0,0,.16.26c.06.06.14.12.2.19a1,1,0,0,1,.19.29c.08.15.15.31.22.48a12.31,12.31,0,0,1,.47,1.57c0,.12.05.25.08.37a.82.82,0,0,0,.1.26,2.46,2.46,0,0,1,.17.27.75.75,0,0,1,0,.16,9.18,9.18,0,0,1,.18,1.17,4.85,4.85,0,0,0,.08.55c.05.32.2.62.25.94a5.52,5.52,0,0,1,0,1.22c0,.19,0,.38-.06.56s-.07.23-.1.34,0,.31-.09.46a1.72,1.72,0,0,1-.24.34l-.15.27-.33.52a0,0,0,0,0,0,.05s0,0,.05,0c.12-.17.22-.35.33-.52l.15-.27a1.78,1.78,0,0,0,.25-.36c0-.15,0-.31.09-.46s.07-.23.1-.34a5.51,5.51,0,0,0,.06-.57,5.7,5.7,0,0,0,0-1.24c0-.33-.2-.62-.25-.94S32,17.7,32,17.51a9.62,9.62,0,0,0-.18-1.18.77.77,0,0,0-.1-.25c0-.08-.11-.15-.15-.24a.7.7,0,0,1-.08-.2c0-.12,0-.24-.07-.37a11.45,11.45,0,0,0-.48-1.58,5.27,5.27,0,0,0-.22-.49,2,2,0,0,0-.2-.3c-.06-.07-.14-.12-.2-.19a1.2,1.2,0,0,1-.15-.24c-.08-.16-.14-.33-.21-.5l-.31-.81a3.17,3.17,0,0,0-.14-.4,1,1,0,0,0-.16-.26l-.1-.12h0s0-.08,0-.1l0,0,0-.07s0-.08-.05-.09h0s0,0,0,0h0l0,0L28.93,10a2,2,0,0,1-.33-.61,5.51,5.51,0,0,0-.51-1.22,5.08,5.08,0,0,0-.38-.43,2.44,2.44,0,0,1-.23-.33c-.18-.3-.34-.62-.51-.92-.07-.1-.13-.2-.2-.29A1.63,1.63,0,0,0,26.6,6a2.5,2.5,0,0,1-.38-.35c-.23-.3-.37-.65-.58-1a6.33,6.33,0,0,0-.47-.56c-.14-.17-.25-.36-.38-.53A0,0,0,0,0,24.75,3.63Z"/><path class="aa9938cc-4e37-430c-9425-6649a9bc17ef" d="M17.18,1.11c.29-.13.61-.18.9-.3L18.3.68A4.16,4.16,0,0,1,19.47.55a6.34,6.34,0,0,1,2.79.5c.19.09.39.13.58.24a4.64,4.64,0,0,1,.61.46c.24.18.44.4.67.6a2.34,2.34,0,0,1,.28.27c0,.06,0,.14.06.2a4.15,4.15,0,0,1,.33.89"/><path class="b218158f-b809-40eb-aba9-50bdbdb7f716" d="M19.94.52c-.19,0-.38,0-.57,0a5.25,5.25,0,0,0-.79.06,1.37,1.37,0,0,0-.29.07,1.86,1.86,0,0,0-.19.11l-.18.07c-.25.09-.51.14-.75.25,0,0,0,0,0,0a0,0,0,0,0,.05,0c.26-.12.54-.17.82-.28l.11,0,.15-.09a1.4,1.4,0,0,1,.31-.09,6.84,6.84,0,0,1,.79-.05h.56a6.66,6.66,0,0,1,1.41.2c.23.06.46.13.68.21l.26.12a5,5,0,0,1,.54.21,3.66,3.66,0,0,1,.5.38l.38.32c.13.12.25.25.39.36a1.28,1.28,0,0,1,.26.26.28.28,0,0,1,0,.12l.05.15a5.44,5.44,0,0,1,.22.5,2.8,2.8,0,0,1,.09.31s0,0,0,0,0,0,0,0a2.8,2.8,0,0,0-.09-.31c-.06-.17-.15-.34-.22-.51l0-.1a1.21,1.21,0,0,0-.05-.18,1.54,1.54,0,0,0-.29-.28l-.44-.4c-.13-.13-.28-.24-.42-.36a2.47,2.47,0,0,0-.42-.3A3.6,3.6,0,0,0,22.32,1L22.05.93a5.39,5.39,0,0,0-.68-.22A6.31,6.31,0,0,0,19.94.52Z"/><path class="aa9938cc-4e37-430c-9425-6649a9bc17ef" d="M.53,19.07a5.58,5.58,0,0,1,.36-1.85A4.56,4.56,0,0,1,1,16.58c.08-.22.2-.41.26-.64a5,5,0,0,1,.26-.83c.2-.42.46-.82.63-1.27s.27-.63.4-.95.14-.48.25-.72a8.7,8.7,0,0,0,.5-.83A7.58,7.58,0,0,1,3.92,10c.24-.4.57-.74.83-1.13A12.54,12.54,0,0,1,6.81,6.34a3.24,3.24,0,0,1,.43-.4c.23-.16,2.31-1.18,2.53-1.35s1.28,1.07,1.63.89c.16-.08,1-.38,1.14-.47s.55-.41.84-.55.23-.5.57-.68-.41-.6.08-.49c6.07,1.39,7.06,3.94,7.19,5.05.3,2.46-9.8,2.46-9.55,2.33s5,.77,5.18.69c.38-.16,7.75-5.49,8.14-5.6.79-.24-5.71-4.33-5-4.69"/><path class="b218158f-b809-40eb-aba9-50bdbdb7f716" d="M20,1c-.16.09,0,.28,0,.38a5.13,5.13,0,0,0,.86.82c1,.89,2.18,1.67,3.24,2.54a5.8,5.8,0,0,1,.73.67.63.63,0,0,1,.12.18.07.07,0,0,1,0,.06.05.05,0,0,1-.05,0l-.08.06-.43.27c-.45.27-.87.58-1.3.88L21.24,8.27a2,2,0,0,0,0-.24,3.46,3.46,0,0,0-.39-1A5.66,5.66,0,0,0,19,5.24,12.43,12.43,0,0,0,15.69,3.7c-.45-.14-.91-.27-1.38-.38L14,3.25a.19.19,0,0,0-.13,0c-.06,0,0,.09,0,.12s.18.17.16.28-.06.08-.11.11l-.14.11,0,.06c-.09.13-.13.31-.25.42a.86.86,0,0,1-.2.13,1.53,1.53,0,0,0-.21.14l-.48.33a3.93,3.93,0,0,1-.52.23l-.52.2-.14.06,0,0h-.21l-.06-.05-.08,0a1.7,1.7,0,0,0-.14-.1c-.23-.17-.44-.38-.68-.55a.84.84,0,0,0-.34-.17.31.31,0,0,0-.2.07l-.12.07-.4.22c-.41.22-.82.42-1.24.63-.22.12-.45.23-.67.36a2.37,2.37,0,0,0-.34.29,3.83,3.83,0,0,1-.29.28A11.66,11.66,0,0,0,5.26,8.06c-.14.18-.26.37-.39.56L4.59,9a10.16,10.16,0,0,0-.82,1.16,6.07,6.07,0,0,0-.34.79,4,4,0,0,1-.2.48c-.14.28-.36.51-.48.81s-.11.36-.18.53-.19.47-.29.7-.2.51-.33.75-.36.64-.49,1-.13.46-.2.69-.23.49-.3.75a2.41,2.41,0,0,0-.07.37,2.82,2.82,0,0,1-.07.31,7.78,7.78,0,0,0-.3,1.15,2.1,2.1,0,0,0,0,.56s0,0,0,0,0,0,0,0a2.51,2.51,0,0,1,0-.55,11.24,11.24,0,0,1,.3-1.14A3,3,0,0,0,1,17.06c0-.12,0-.24.06-.36s.23-.49.3-.75.12-.46.2-.69.33-.65.49-1,.22-.5.33-.76.21-.46.29-.69.14-.44.24-.65.3-.45.42-.69a4.42,4.42,0,0,0,.24-.6c.11-.26.22-.53.35-.77.25-.45.61-.82.89-1.24s.41-.61.62-.9A12.2,12.2,0,0,1,6.68,6.5l.22-.21c.12-.11.23-.23.36-.33l.16-.09.24-.13.65-.33,1.12-.58.3-.17s.07-.06.11-.06a.29.29,0,0,1,.18.05,1.81,1.81,0,0,1,.29.19l.4.33a2.23,2.23,0,0,0,.24.19l.14.09.08,0h.23l0,0,.14,0L12,5.28A4.71,4.71,0,0,0,12.63,5c.19-.11.37-.26.55-.38a1.33,1.33,0,0,0,.41-.29c.09-.11.12-.25.21-.37a.1.1,0,0,1,0,0c.08-.08.23-.12.27-.24A.33.33,0,0,0,14,3.39l-.07-.08h0l.15,0,.64.16c.57.15,1.13.32,1.68.52a11.12,11.12,0,0,1,2.9,1.51,5.29,5.29,0,0,1,1.42,1.56,3.55,3.55,0,0,1,.31.69,2.13,2.13,0,0,1,.1.42s0,.08,0,.12l-2.46,1.73a17.23,17.23,0,0,1-1.88.34c-.95.13-1.91.21-2.88.25-.52,0-1,0-1.56,0h-.25l-.28,0h-.06s-.19,0-.18,0,.14.05.18.05h.43c.37,0,.73.1,1.09.15l2,.31.75.11.57.06.21,0s.14-.08.17-.1l.42-.28,1.1-.76.19-.13c.29-.08.58-.15.87-.25a5.33,5.33,0,0,0,.85-.37,2.43,2.43,0,0,0,.46-.33,1.16,1.16,0,0,0,.32-.5.93.93,0,0,0,0-.33L23.2,7c.46-.32.91-.65,1.38-.94l.34-.21.09,0s.06,0,.08-.07-.09-.24-.15-.31a5.21,5.21,0,0,0-.73-.68c-.69-.57-1.4-1.1-2.11-1.64-.35-.28-.71-.55-1.06-.85a6.32,6.32,0,0,1-.89-.82l-.06-.08c-.05-.06-.14-.18,0-.24a0,0,0,0,0,0-.05A0,0,0,0,0,20,1ZM21.19,8.4a1.41,1.41,0,0,1,0,.2,1.21,1.21,0,0,1-.52.7,4.78,4.78,0,0,1-1.58.66l-.18,0Zm-2.65,1.77,0,0c-.41.29-.81.57-1.23.85l-.32.22-.1.05h0l-.41,0L16,11.23l-.78-.11-2.4-.37h-.07c.7,0,1.4,0,2.1-.08s1.67-.14,2.5-.26C17.72,10.34,18.13,10.26,18.54,10.17Z"/><path class="b43a5662-e0b9-4089-b780-407569676e88" d="M16,20.83c-.19.1-.13,0-.13.27L15.83,21c-.7.7,5.44,3,5.63,1.67h-.13c0-.18,0-.09-.07-.27,1.67-.23,3.54.5,5.29.34v.13c-.81,0-1.58.14-2.41.14-3.24,0,2.16,2.23,4.69.33.41-.31,2.74-1.79,1.81-2.41.14-.41.59-.78.8-1.21-.29-.14.08-.94,0-1.34-.16-.86-.53-1.44-.67-2.27-.45,0-.67-1.95-1-2.28.22-.44-.2-.81-.34-1.21H29.3c0-1.53-2.3-2.89-2.75-4.22-.8,0-1.47-1.6-1.67-2.21h-.2A3.81,3.81,0,0,0,22.8,4.35V4.22c-.86,0-1.65-.4-2.61-.4-2.64,0-7.49.81-9.79,2.34l.34.13C9.19,7.07,7.7,8,6.18,8.77c0-.64,1.5-1.49-.2-1.07l.14-.13-.07-.14a.59.59,0,0,0,.33-.33l.14.07a1.23,1.23,0,0,1,.53-.74c.06.16-.25.56-.06.67.62.35,2.4-.78,3.08-1,3.06-1,6.21-2.35,9.51-2.54.18,0,4.69.12,4.69,1.2a1.11,1.11,0,0,1,.54.07c0-.45.06-.87-.27-1.21l.27-.26c.24.48.74.83.74,1.4l-.34-.06c-.09,1.36.68,3.17,2,3.61,0-.33,0-.18-.06-.46.81,0,.54,1,1.54,1-.3.6-.12,1.07.47,1.07-.08.81-.23,1.07.6,1.07-.12.81-.24.93.4,1.14a3.85,3.85,0,0,0,.13,1.08c.37-.12.28,0,.41.26-.19.1-.1,0-.27.2h.27v.41l-.07-.14c-.21.11-.18.34.07.34l-.07.13c.18.09.23.15.13.34l.2.06c-.24.25.05.73.34.87-.08.33-.13.21.07.41-.18.35.43,1.58.53,2h.14c-.08.24-.08.93.26.93a17.71,17.71,0,0,0-.26,2.28c-.25.16-.17.06-.27.27h.13c0,1.75-3.3,2.88-4.69,2.88-5.18,0-9-2-13.93-3.21.57-.08,1.25.31,1.74.06a.79.79,0,0,0-.6-.67A2.41,2.41,0,0,1,16,20.83Z"/><path class="fe3bd52d-3e0e-4342-ba97-0ae4c156f964" d="M6.18,10.18a2.85,2.85,0,0,1-.67.27v.2c-.63-.21-.53.5-.53.87l-.2-.13c-.08.15-.26.25-.41.4h.14c-.2.39-.52.63-.74,1.07-.42-.42.52-1.23.67-1.67,1-2.87,3.89-3.69,6.3-4.9l-.27-.13C12.09,4.54,21.21,3.69,22.8,4.22c0,.52,2.73,1.75,2.08,2.41.19.1.12,0,.2.27.23,0,.74.88.74,1.14.51.12,1.09,1.27,1.47,1.27a16.3,16.3,0,0,0,2.14,3.28,8.5,8.5,0,0,0,.94,2.68c-.21-.1-.63-.75-.53-.94H29.7l.14-.06c-.18-.09-.14,0-.14-.2-.39,0-1-1.57-1.14-2h-.13c0-1-1.94-2-1.94-3h-.14c0-.67-1.58-1.58-1.81-2.28h-.13V6.7h-.14a.48.48,0,0,0-.4-.41v-.2a2.76,2.76,0,0,1-1.07-.93c-.2,0-.33,0-.33-.21-.91,0-1.83-.46-3-.46-2.08,0-4,1.1-5.9,1.47.18-.09.14,0,.14-.2a41.12,41.12,0,0,1-5,1.81V7.43C8,7.89,7.4,7.94,7,8.77l-.14-.06c-.48.48-.93.76-.93,1.4Z"/><path class="e47948ba-baa1-4d5f-9d89-2a50b9ba58c2" d="M12.62,21A12.58,12.58,0,0,1,11,20.7v-.13c-2,0-4.09-.65-6,.13l.2.13c-.11.22-.58.36-.81.47l.14.07a.53.53,0,0,1-.47.27L4,21.44a2.91,2.91,0,0,1-1.34.47c-2.82.28-2.58-3.62-1.27-4.49-.14-.28-.09-.44.2-.54v-.13l-.13.06c0-.36.35-1.51.67-1.67-.09-.27-.09-.14,0-.4h.2c-.37-1.11,1.36-3.54,1.87-4.56.19.18.08.11.34.2v.14h.13C4,11.81.73,19.07,1.69,20s2.05-.25,2.68.07A.48.48,0,0,1,5,20l.07-.2H5a7.39,7.39,0,0,1,4.29-.4l-.07.13a3,3,0,0,0-.94,0l.07.13c-1.37-.05-1.44-.31-2.21.21a21.12,21.12,0,0,1,6.5.93Z"/><path class="b6dde46b-25f1-43d8-a3f6-a607be324cfa" d="M7.46,13.26c-.56-.55-.18-1.56-.2-2.34a3.94,3.94,0,0,0-2.62,1.61c-.17-.09-.13,0-.13-.21l-.14.07-.13-.13c.1-.16.19-.31.27-.47H4.37c.15-.15.33-.25.41-.4.18.09.09.09.26,0-.18-.48,0-.48.27-.87l.2.13v-.2a17.31,17.31,0,0,0,3-.74c.08.25.1.14,0,.34.47.07.27.11.6,0,0-.35,1-.92,1.34-.74.78-.78,3.4-.66,4.16-.54v.41H15.9V9c.46-.11,1.09-.42,1.54-.27.54-1.07,3.63-.35,4.69-.2v.14a3.18,3.18,0,0,1,1,.2v.2h.13c-.2.1-.12,0-.2.27a4.86,4.86,0,0,1,1.2.2c0,1.06,1.46,2.41,1.08,3.55-.25,0-.37-.08-.61,0V13c-.24.17-.13.17-.33.07.59-1.19-.77-2.18-1.81-1.14a1.9,1.9,0,0,0-.27-.53c-.25.25.05.57-.27.73.23,0,.2.13.2.34-.75-.75-1.42,2.12-2.34,1.81a12.4,12.4,0,0,0,.87-2.75l.07.13V9.91a5.17,5.17,0,0,0-4.29.27,2.7,2.7,0,0,0,.6,1.07c-.13.14-.2.27-.33.4-.1-.19,0-.11-.27-.2,0-1.62-3,.3-3.28.61s-.45,2.39-.94,2.14l-.07.27c-.08-1.58.13-2.64.07-4.29-.81,0-2.54.31-2.95,1.14-.17.34.7,1,.13,1.27S7.46,12.11,7.46,13.26Z"/><path class="b00d40d9-67b9-41ad-b224-a83ebb1914c2" d="M8.26,5.56c0,.3-.12.39-.4.53.21,0,1.47-.47.94-.73.35-.72,1.8-1.08,2.48-1.41l1.1-.57C15.23,1.87,18.6-.06,21.86.53c1.36.25,1.81,1.54,2.68,2.41l-.06.14c.19.09.09,0,.26.2-.28.46,0,1,.07,1.54a1.12,1.12,0,0,1-.54-.07V4.62c-.69,0-1.55-.84-2.27-1a12.51,12.51,0,0,0-4.83.27,51,51,0,0,0-7,2.15C9.07,6.38,8.09,7.1,7,7.1,6.77,6.44,7.74,5.82,8.26,5.56Z"/><path class="f4dbf6be-afdc-4762-929f-c4f32b09a9bf" d="M24.81,8.44v-.2h.47V8.1a8.48,8.48,0,0,1-1.21-.2l.07-.13c-.35,0-.45-.28-1-.34.16-.17.07-.1.26-.2C22.57,6,19.2,5.24,18,5.62c0,.3.14.16.14.41-.28,0-.4.15-.67.06.1-.21.06-.08.06-.4a14.05,14.05,0,0,0-3.35.81c-.56.33-1,1.34-2,1.34,0-.23.14-.37.14-.61a3.2,3.2,0,0,0-2.15.34,4.22,4.22,0,0,0,1.34.13c0,.79-1.61.51-2.07.6a8,8,0,0,0-3,1.68h.13c-.31.16-.08.06-.73.13,0-.66.44-.91.93-1.4L7,8.77C7.61,8.15,8.08,8,8.66,7.43v.14a30.71,30.71,0,0,0,5-1.81c0,.18,0,.11-.14.2,3-.49,5.71-2.08,8.92-1v.14c.63,0,.86.82,1.4,1v.2a.48.48,0,0,1,.4.41h.14v.13C25,6.83,25.5,8.38,26,8.64,25.24,8.9,25.25,8.44,24.81,8.44Z"/><path class="f1d9194a-a8ab-43aa-861c-3e2cd20091e9" d="M13.82,21.91v-.14c-1.11,0-8-2.58-7.64-.67C5.66,21,5.5,21.1,5,21l.27-.13c-.16-.24-.06-.2-.27-.2a14.59,14.59,0,0,1,6-.13v.13c4.34,0,8.55,3.11,12.86,3.68,1.17.16,3.41-.48,4.16.27C23.07,25.64,18.44,23.45,13.82,21.91Z"/><path class="a568ab92-c0fd-49d0-aa02-61f158f68183" d="M26.28,19.9c-.45-.91-1.27-1.61-1.67-2.42-.42.22-.23,1.11-.6,1.48-.29-.43-1.75-1.45-1.75-1.68h-.13a4.3,4.3,0,0,0-.2-2H21.8c0-.28-.11-1.2-.47-1.2-.27-.8,0-1.12.53-1.81a1.65,1.65,0,0,1,.47.2c-.06-.2,0-.34-.27-.34.3-.15.08-.51.27-.8.24,1,.67,1.88.87,2.88.54,0,.9-.73,1.21-1.14.2.1.09.1.33-.07v.14c.24,0,.37-.08.61,0l.06-.2a7.81,7.81,0,0,1,.34,2.28h1.14l-.14-.07c.25-.08.14-.1.34,0-.16-.33-.08-.4.2-.6v.2c.34,0,.21-.16.33-.41h-.26l.2-.2v.14c.18-.09.11,0,.2-.2v.13c.25-.08.14-.1.33,0,.09-.17.07-.08.07-.27L28,14c0-.22.13-.31.13-.54l.4.07v.13c.46,0,.4-.28.27-.67.3.1.63.76.74,1.08h.13c0,.18,0,.11.14.2l-.14.06h.14l-.07.14a5,5,0,0,1,.87,1.61h.13A10.4,10.4,0,0,0,31.51,19c-.24.12-.12,0-.2.41-.23-.12-.12-1.08-.13-1.21l-.14.13c-.24-.73-1-1.13-1.34-1.74-.52.26-.38,2.68-1.07,2.68,0-.63-.87-1.21-1.14-1.74C27.08,17.76,26.52,19.42,26.28,19.9Z"/><path class="b6487071-7c56-4d0d-a220-89b4996bfcac" d="M22.06,8.1,21.86,8c.51-.76,1.93.42,2.28-.27-.35,0-.45-.28-1-.34.16-.17.07-.1.26-.2-.71-1.07-5-2.08-5.22-1.4.25,0,.09,0,.47.13a7.41,7.41,0,0,1-3.29.74c-.95.07-2.18,1.14-3.15,1.14,0-.23.14-.37.14-.61a3.2,3.2,0,0,0-2.15.34,4.22,4.22,0,0,0,1.34.13c0,.24-3.19,1-4.08,1.48.47.93,3-.43,3.68-.61a17.13,17.13,0,0,1,4.29-.06c1.13,0,2.28-.53,3.42-.61S21,8.1,22.06,8.1Z"/><path class="bbef2b3a-fcee-405a-82c6-9d2daae8dc13" d="M10.87,16.88c0-.69.34-1.44.34-2,.49,0,.58.53,1,.67a11.57,11.57,0,0,1,1.55-3.82,16.1,16.1,0,0,0,1.87,2.55c.24.32.34.61.95.61,0,.1-.75.49-.75.59,2.52,0,1.54-1.66,1.54-3.75.43,1.28,1,2.53,1.41,3.82.76,0,1.75-1.44,2.21-2a.94.94,0,0,1,.34.54l1.3.13c0,.38-1.47,2-.83,1.07s.86-.17.93-.17c0,.63-.65,1.51-.53,2.12l-.14.06v-.13H21.8V17a9.29,9.29,0,0,0-6-.4v-.13A14.29,14.29,0,0,0,10.87,16.88Z"/><path class="aa9f3685-c074-4bd4-8b05-2ef3ba5b5f52" d="M24.21,9.58a4.87,4.87,0,0,1-1.14-.2V9.24l.2-.06c-.19-.1-.13,0-.13-.27a3.42,3.42,0,0,1-1-.2V8.57c-.62,0-5.9-.39-6.23.61H14.63V8.77c-.5,0-3.69-.39-4.16.54-.42-.21-1.26.35-1.34.74a2.35,2.35,0,0,0-.6.06c.09-.26.09-.13,0-.4a7,7,0,0,1-2,.27c.25-.25.8-.52.94-.8.46.93,3.59-.66,4.35-.74a31.07,31.07,0,0,1,3.62.07c1.66,0,3.32-.67,5-.67,1.56,0,2.66.79,4.28.46a1.5,1.5,0,0,0,.47.47c-.23.47-1-.19-1.27.34C24.16,9.33,24.05,9.18,24.21,9.58Z"/><path class="a3889621-2141-43f7-944b-a6424cfd2e5f" d="M31.24,19.49l.2.14a13.17,13.17,0,0,0-.8,1.27l.2.07c0,2.64-4.58,3.28-6.43,3.28-1.5,0-2.82-1.47,1.07-1.27-4.81.69.54.6,2.14.33v.14a1.24,1.24,0,0,0,1.21-1.08c-.84,0-1.66.56-2.55.34C28.15,22.4,30.59,21.44,31.24,19.49Z"/><path class="bf75cc91-eda6-4095-a5bc-0b4a965aeefc" d="M8.06,14.67c-.48.48-.06,2.16-.54,2.48A13,13,0,0,0,5,19c-.17.18.07.14-.2.14a6.45,6.45,0,0,0-.47-1.81l.14-.07-.14-.13c-.64.43-.36.4-.73.4,0-.79.81-4.21.2-4.82a1.77,1.77,0,0,1,.4-.54,6,6,0,0,0,2.48,3c.23-.47.18-1.84.67-2.08A14.82,14.82,0,0,0,8.06,14.67Z"/><path class="aea9a9e3-c2da-41a9-b27c-c0cebbd07c42" d="M20.25,14.33c-.2,0-.09,0-.33-.06a12.4,12.4,0,0,0,.87-2.75l.07.13V9.91a5.17,5.17,0,0,0-4.29.27c.6,1.8,1.6,3.52,2.21,5.36C19.26,15.54,20,14.58,20.25,14.33Z"/><path class="b3d5470f-5488-4141-98b9-74801daff65e" d="M8.06,14.67c-.1-.2-.08-.09,0-.34.33,0,.51.39.8.54,0-.88.74-1.73.74-2.55.29,0,1.56,2.12,1.74,2.48-.35.18.34.34.32.87,0,.34-.72,1.07-.79,1.28A35.28,35.28,0,0,1,7.79,19C7.79,17.83,7.05,15.68,8.06,14.67Z"/><path class="edfe286f-a0be-4a6b-85a2-5fb3c68097bc" d="M30.64,23.45c.17.08.13,0,.13.2-.91,0-1.85,1.54-2.74,1.67-2.14.31-4.33.69-6.37-.33C24.22,24.67,28.46,25.62,30.64,23.45Z"/><path class="b670fd15-8c90-41c7-9c1d-122c8c55faa8" d="M13.69,20.43V20.3a16.09,16.09,0,0,1-2.55-.47c-.08.16-.1.25-.27.33.69,0,3.89,1.35,4.09.74l.07.4c-1.41.71-4.4-1.2-6-1.27C8,20,7.08,20,6.12,20c.46-.69,1.53-.29,2.21-.27l-.07-.13a1.76,1.76,0,0,1,.94,0l.07-.13a6.58,6.58,0,0,1-1.41-.14A14.77,14.77,0,0,1,15,20.57C14.64,20.76,14.09,20.51,13.69,20.43Z"/><path class="af673603-1eac-41fe-afa6-0175cd09da5b" d="M20.66,22.11l.26-.07A21.42,21.42,0,0,1,21,18l-.27.14c.23-.92.1-1.32,1.08-1.08v.14h.26v.13h.2v.14h.14c0,.2-.16.22-.34.33.33.33.55.81.94,1.07l-.07.14c.23.22.41,1.14.74,1.14-.17.34.16.5.2.87C24,22,21,22.21,20.66,22.11Z"/><path class="fee94bbd-e908-423a-a732-dcde7b348358" d="M2.9,20.3c0-1.52-.13-2,1.41-3.22l.2.2c-.37.19.22,1.53.33,1.88.83,0,1.59-2,2.68-2,0,.55,0,1.67.47,2a8.15,8.15,0,0,0-3,.67L5,20c-.3-.1-.41-.19-.67.07C4.05,19.94,3.29,20.3,2.9,20.3Z"/><path class="ada8e42f-c9ce-4f9e-87c1-996e2b19304d" d="M24.14,22.78A2.63,2.63,0,0,0,23.87,21c.74,0,1.85-.22,2.21-.94a2.64,2.64,0,0,1,.07,1.67c.66,0,3-.42,3-1.34.11.33.18.67.27,1h.26C29,22.73,25.08,22.74,24.14,22.78Z"/><path class="b2e27a81-2a1f-475a-a07c-c0721339b09b" d="M16,20.77a12,12,0,0,1-4.22-1.08,17.65,17.65,0,0,1,2.48-2.61c0,.21,0,.09-.07.34.34-.09.18-.1.47,0C14.69,18.57,16,19.78,16,20.77Z"/><path class="e7e00f77-247a-4d0b-bf22-89e37fb4e51d" d="M12.35,14.2l-.07.27c-.08-1.58.13-2.64.07-4.29-4.54,0-2.46,3.81-.14,5.36C12.29,15.24,12.68,14.37,12.35,14.2Z"/><path class="bb7ec048-78b5-4b05-8d6a-ad68d8b11ba4" d="M24.61,10.31c.78-.39,1.57.33,2.21,0L26.75,10c1.57,0,.27,3.82-.2,4.76h.14a1.11,1.11,0,0,1-.94.47A11.76,11.76,0,0,0,24.61,10.31Z"/><path class="a70a73b7-476e-4cde-9b7e-ed8af900f242" d="M14.29,17.08c0,.21,0,.09-.07.34.32-.08.19-.11.41,0,.7-.71,5.48-1,6.36-.74a7.39,7.39,0,0,0-5.22-.07v-.13c-.95,0-4.43-.85-4.43.74h.14v.13C12.61,17.35,13.37,18,14.29,17.08Z"/><path class="a75c14d2-841f-4a92-bbcf-460306e8fae1" d="M26,15.21c.24-.13.42-.29.67-.41l-.14-.06c.42-.83.48-3.61,1-4,.26.26.69,1.34,1,1.34a11.91,11.91,0,0,0,.34,1.48c-.2.09-.09.06-.34.06v-.13l-.4-.07c0,.23-.13.32-.13.54l.13-.07c0,.19,0,.1-.07.27-.19-.1-.08-.08-.33,0v-.13c-.09.18,0,.11-.2.2v-.14l-.2.2h.26c-.08.18-.08.09,0,.27a1.3,1.3,0,0,1-.33.14v-.2c-.23.3-.09.26-.34.26a1.2,1.2,0,0,1,.14.34h-.34l.14.07A2.54,2.54,0,0,1,26,15.21Z"/><path class="a4510927-bd99-4429-a42a-453d6afafe06" d="M28.09,8.84a1.91,1.91,0,0,0-.87-1.07c-.09.36-.09.18,0,.53-.31,0-.39-.17-.67-.26,0-.79-1.32-2.18-1.4-3.29.45,0,.28.06.53-.06C26,5.26,26.33,6,27,6.23c0,.48.14.47.61.47v1c.51.15.32.21.6.07A3.89,3.89,0,0,1,28.09,8.84Z"/><path class="e315990f-b385-4e07-b73e-f6033e145121" d="M7.26,10.92a3.94,3.94,0,0,0-2.62,1.61c-.17-.09-.13,0-.13-.21C4,12.59,6.24,15,6.72,15.21A9.38,9.38,0,0,0,7.26,10.92Z"/><path class="e8884b34-2bfb-4a36-98a2-9e022c1e05ee" d="M3.84,12.73c1,1.93-.36,4.73-1.21,6.43C1.74,16.49,2.71,15,3.84,12.73Z"/><path class="b5fc28dc-5b8f-44dd-86fb-299be01d5179" d="M19.18,21.7c-.69.14-2.32-.76-2.81-.26.47.94,3.8,1.09,4.76,1.4.1-.21,0-.12.33-.2,0,1.2-6.2-.65-5.69-1.67l.06.13C16,20.53,18.68,21.45,19.18,21.7Z"/><path class="adccbbf5-5f95-4ed9-bb65-7fc723f7b5e3" d="M16.3,20.9c.19-.38,1.21-2.88,1.54-2.75,1.13.45.95,2.3,2.21,2.55,0,.27-.16.16-.06.47h-.14V20.9c-.08.17,0,.13-.2.13l-.07-.2A2.94,2.94,0,0,1,16.3,20.9Z"/><path class="f1dc2021-8cdb-4b23-82f2-96ebb9a0c5f6" d="M27.49,17.55c1.21,2.42,2.94,3.68-1.34,4.15,0-.54.25-1.17,0-1.67C26.71,19.47,26.84,17.88,27.49,17.55Z"/><path class="bfb6951e-8bfb-4643-ab89-f9cde7b79705" d="M19.92,20.7c.31-.62.37-1.84.8-2.28-.1-.2-.08-.09,0-.33.19,0,.12,0,.2-.14a13,13,0,0,1,0,4.09,8,8,0,0,1-2.54-.54,3.86,3.86,0,0,0,1.2-.73l.07.26c.19,0,.12,0,.2-.13v.27H20c0-.19.06-.29.06-.47Z"/><path class="a882dc02-bdfc-466c-813f-0a470850a6ed" d="M15,18.35c-.72-2.15,3-1.31,4.69-1.4.61,0,.8-.41,1.41-.2-.1.19-.19,1.19-.41,1.2C18.76,18.1,17,17.87,15,18.35Z"/><path class="be9d439a-1bc1-4027-8b63-96c58555e6e6" d="M13.76,11.72c.91-1.1,1.67-.78,2.81-.4,0,.14-.2,3-1.07,2.88S14.28,12.25,13.76,11.72Z"/><path class="a831209a-4630-4e48-a9cc-f611c4918dfc" d="M20.72,18a17.44,17.44,0,0,0-3.15,0c1,.68,1.27,2.39,2.35,2.75.31-.62.37-1.84.8-2.28C20.63,18.24,20.72,18.15,20.72,18Z"/><path class="bf497275-41af-4bab-8fad-92263504dea2" d="M8,19.09c.48-.57,1.09-1.47,1.88-1.47l-.07.13a6.82,6.82,0,0,0,2.68.74c-.09.18-.09.09,0,.27C11.14,20.1,9.93,19.33,8,19.09Z"/><path class="bad1f094-a5dd-4688-83ff-47e0160d330e" d="M16,20.77l.07-.14c-.15-.15-.19-.4-.4-.4,0-.59-.63-1.18-.74-1.74a7.35,7.35,0,0,1,2.82-.4C17.23,18.36,16.68,21.19,16,20.77Z"/><path class="be6bbe83-7e94-43a3-a24d-eb478831cf02" d="M13.89,7.23c.5-1,2.43-1.29,3.68-1.61.08.32.11.19,0,.41l.14.13A2.52,2.52,0,0,1,18.18,6c0-.2-.12-.16-.2-.34l.2-.07v.21c.25,0,.09,0,.47.13A16.15,16.15,0,0,1,13.89,7.23Z"/><path class="a6678879-bffc-4afc-b4bf-2a9dca1ca056" d="M6.05,7.43l.07.14L6,7.7a3.43,3.43,0,0,0,.81-.2c0,.75-1.51,3-2.28,3v-.14C3.75,10.13,5.84,7.85,6.05,7.43Z"/><path class="a6463b5c-6d1e-456b-9c42-d274d9e23970" d="M17.37,11.65c-.28.57.83,2.37.81,3.34,0,.82-1,.92-2.35.48v-.2h-.2C15.63,14.59,16.7,11,17.37,11.65Z"/><path class="b5d260a6-4310-4dc8-b84a-c6f37239b552" d="M21.39,22.31c-.19.09-.15.15-.06.33-.67.34-4.53-.33-5-1.2C16.88,20.92,20.74,21.87,21.39,22.31Z"/><path class="b1ee54da-2cf4-4e79-970d-f1a0fb3c37e2" d="M28.83,22.37a1.22,1.22,0,0,1-1.21,1.08v-.14c-1.29,0-2.77.73-3.95.34C23.67,22.79,27.47,22.83,28.83,22.37Z"/><path class="e4abf0aa-b116-414e-ae7f-02d62bdebae7" d="M29,20.1c-.73-2.19,1.38-.17,1.94-1.88l.07.13.14-.13a4.83,4.83,0,0,1,0,1.14h.13A3.33,3.33,0,0,1,30.1,21c.22-.43.33-.86.54-1.28A14.66,14.66,0,0,0,29,20.1Z"/><path class="f154b35b-949d-49ec-9b27-959688e700a6" d="M11.34,16.75v.47h.14v.13c.42,0,1.66.17,1.81.47-.19.18-.61.8-.88.8l.07-.13a7.08,7.08,0,0,1-2.68-.74c0-.18,0-.09-.07-.27C10.29,17.21,10.81,17,11.34,16.75Z"/><path class="f1dc2021-8cdb-4b23-82f2-96ebb9a0c5f6" d="M3.17,20.3c-2.37.2-1.76-2-1.14-3.55C2.24,17.36,2.39,20.3,3.17,20.3Z"/><path class="a79a7b8d-5bb5-43cc-af4e-ce40efcbdf72" d="M1.23,19c0,1.29.45,1.56,1.67,1.74C2.9,22.37-.7,20.89,1.23,19Z"/><path class="f99ab3c2-5faf-41fb-9f37-4b42770017d0" d="M23.54,20.1c0-.41-.69-1-.54-1.28a3.35,3.35,0,0,1-.94-1.07,2.27,2.27,0,0,1,.54-.27,1,1,0,0,0,.74.47C23.34,18.46,24.82,19.67,23.54,20.1Z"/><path class="a07c248d-8d8f-4051-bc9d-3e184973b024" d="M21.19,22.24c.57-.07,2.62-.46,2.62-1.27C25,23.33,22.78,22.77,21.19,22.24Z"/><path class="ab01187a-54ef-452a-863c-c86e97fe3f53" d="M26.35,9.11h.14c0,.36.48.64.6,1-.1-.19,0-.11-.27-.2,0,1-1.48,0-2.21.4C24.53,10.15,23.85,9,24,9,24.39,8.89,26.35,8.5,26.35,9.11Z"/><path class="f70e7929-d415-4999-a98b-8fa0a6b40d55" d="M24.41,13.06c.82-1.25-1.3-2.16-1.81-1.14C22.31,12.5,23,15.27,24.41,13.06Z"/><path class="b2d0cb76-f82a-45e1-850a-863c7ff6bc4b" d="M10.87,20.16c.9-.45,1.71-.05,2.82.14v.13c.26,0,1.66.62,1.07.74C13.75,21.37,11.89,20.42,10.87,20.16Z"/><path class="a67443ba-f0bb-45c3-a886-b9f13844c50d" d="M26,19.16a20.93,20.93,0,0,1-1.34-1.68c-.38.19-.62,1.81-.74,2.28C25.05,19.76,25.09,20,26,19.16Z"/><path class="f6386027-ddd6-4d25-8e72-ea5fe13c21fa" d="M3,12.46c-.07-.4-.14-.26.07-.47L3,11.92c0-.07.13-1.61.53-.8.15-.43-.12-.69.14-1.07H3.5a.78.78,0,0,1,.41-.14c-.09.18-.09.09,0,.27.19-.29,0-.56.26-.8.2.09.09.08.34,0,0,.36-.5.74-.34,1.07C3.58,10.84,3.33,11.88,3,12.46Z"/><path class="a02af17e-79f2-4078-b7ea-b7dea3826f27" d="M23.81,21c-.13-.62-.22-.77.06-1.34.71.71,1.53.08,2.08-.4a1.68,1.68,0,0,0,.33.67C25.88,20.71,24.63,20.83,23.81,21Z"/><path class="a1754e9e-08d8-4458-ade7-b2335e7d3f43" d="M28.9,18.89c-.44-.09.33-2,.67-2.21.17-.12.47.22.53.33C30.89,18.58,31.06,19.33,28.9,18.89Z"/><path class="fc2035e9-02b6-42e2-a7b2-3ba5b32c34e3" d="M9.47,12.59a8.47,8.47,0,0,1-.61,2.28C7.33,14.1,7.1,11.8,9.47,12.59Z"/><path class="edc3d647-a52e-463d-94d7-1b09b8eacd8f" d="M21.8,1.34c0,.3.13.27.2.67a6.78,6.78,0,0,1-2.42,0V1.87l-.26-.06C19.71,1,21.08,1.16,21.8,1.34Z"/><path class="fc8004c4-c47c-4074-8222-0371c8cddd21" d="M21.93,8.1h.13L21.86,8c.26-.39,3.42-.45,3.42.2C24.13,8.24,23,8.81,21.93,8.1Z"/><path class="be1995da-d178-49bc-a55a-262c6a6eada0" d="M17,7.77V8c-.84,0-1.74.27-2.61.27-1.1,0-.47-.64.2-.74A16.48,16.48,0,0,1,17,7.77Z"/><path class="ed169543-3c47-4155-b213-8cf8470c8e4c" d="M30.17,21c-.13-.26.33-1.06.47-1.34-1.33,0-1.59.41-1.27,1.68C29.77,21.37,29.8,21.28,30.17,21Z"/></g></g></g></svg>