<svg xmlns="http://www.w3.org/2000/svg" viewBox="0 0 45.66 30.48"><defs><style>.e60dae9c-4816-4a0b-b7bb-f5a207c72e9f{stroke:#000;}.a33a13ea-e7bb-4123-b5cd-ac25809d8049,.a6f34b85-8088-4a66-8a33-78d53285cc15,.ae4b4179-20a8-4c0f-b2fd-51d879194159,.ae5234fd-b9c6-4bc8-a716-7017b91f3d16,.aed7d4a4-1282-4c86-88f5-c8c243a2a082,.b413b440-bf39-4931-bafb-f15520986724,.b71a17d5-ec13-413e-9ba3-c545e60d6b03,.b84bd77f-4265-48c6-a4cc-ac3cc6985a9e,.b86cca13-933c-40b3-8716-db53768dfe68,.baded57f-7d16-4599-842d-6920cc1794b2,.bb73df17-3c0b-478c-9e83-80c357a47bd8,.bf663d0d-1b1d-4a76-a8d7-de45fb2b5c76,.e60dae9c-4816-4a0b-b7bb-f5a207c72e9f,.f2db4d1e-9782-473b-bbe5-a47e09f6039d,.f930768f-91bd-4c43-9579-497af9ce62c1,.fc353f95-edcb-49df-81e1-ed59a3ae7176{stroke-linecap:round;stroke-linejoin:round;stroke-width:0.55px;}.b86cca13-933c-40b3-8716-db53768dfe68{fill:#070707;stroke:#070707;}.ae5234fd-b9c6-4bc8-a716-7017b91f3d16{fill:#fbfafa;stroke:#fbfafa;}.a6f34b85-8088-4a66-8a33-78d53285cc15{fill:#cb4b40;stroke:#cb4b40;}.bf663d0d-1b1d-4a76-a8d7-de45fb2b5c76{fill:#f7f7f7;stroke:#f7f7f7;}.bb73df17-3c0b-478c-9e83-80c357a47bd8{fill:#f4f4f4;stroke:#f4f4f4;}.b84bd77f-4265-48c6-a4cc-ac3cc6985a9e{fill:#faf6f6;stroke:#faf6f6;}.b71a17d5-ec13-413e-9ba3-c545e60d6b03{fill:#f9f8f7;stroke:#f9f8f7;}.ae4b4179-20a8-4c0f-b2fd-51d879194159{fill:#fdfefe;stroke:#fdfefe;}.b413b440-bf39-4931-bafb-f15520986724{fill:#050506;stroke:#050506;}.a33a13ea-e7bb-4123-b5cd-ac25809d8049{fill:#090a0b;stroke:#090a0b;}.baded57f-7d16-4599-842d-6920cc1794b2{fill:#f3f3f3;stroke:#f3f3f3;}.f930768f-91bd-4c43-9579-497af9ce62c1{fill:#d6d6d6;stroke:#d6d6d6;}.f2db4d1e-9782-473b-bbe5-a47e09f6039d{fill:#f2f2f2;stroke:#f2f2f2;}.aed7d4a4-1282-4c86-88f5-c8c243a2a082{fill:#f6f6f6;stroke:#f6f6f6;}.fc353f95-edcb-49df-81e1-ed59a3ae7176{fill:#ebebeb;stroke:#ebebeb;}</style></defs><g id="a8ed73af-ffa9-477d-847d-7eab32a3e77a" data-name="Layer 2"><g id="bc6528a4-2820-4156-b384-826c320e210e" data-name="Layer 1"><g id="b11dd333-3767-4e78-a80f-defeccbe8856" data-name="a9fe0d45-8dc1-4f6b-acf2-20901227bc03"><g id="b67d13b0-d3a1-4eae-af1e-8b5c80db73ab" data-name="a95fffe7-c89b-4882-a831-4febfbb73647"><g id="b083525f-b5b4-41c0-99a6-e097a80fcd8e" data-name="b7a47b4f-6559-492e-a42c-5ff0395b53d2"><path class="e60dae9c-4816-4a0b-b7bb-f5a207c72e9f" d="M30.34,5c.13,0,1.73,1.95,2,2.21s.44.71.66.61c0-.07,0,0,0-.12h0l0,0c-.05-.08,0-.07-.09-.07l0-.07h0l0,0h0l0,0H32.8l0-.05,0,0,0,0h0l0,0h-.05l0,0h0l0-.05c-.08,0-.08,0,0-.09h0l0,0h0l0,0h0l0,0h0l0,0h-.05l0-.05h0l0,0-.09-.07,0,0h0c0-.07,0,0,0-.12h-.07c0-.06,0,0,0-.07l0,0A.75.75,0,0,1,32.05,6L32,6c0-.27-.68-.6-.64-.85a.19.19,0,0,1,.12-.07c.4,0,1,.45,1.43.57A8.23,8.23,0,0,0,36,5.94c2.9-.27,7.1-3.39,8.73.68,1.85,4.64-.56,9.66-3.4,13.3-5.07,6.52-11.49,10.81-19.92,10.23A22.57,22.57,0,0,1,15.79,29v-.05a1.31,1.31,0,0,1-.38-.09v-.05c-.17,0-1.05-.32-1.05-.47s-1-.36-1-.51c-.14,0-.22-.12-.35-.17v0c-.07,0-.11,0-.11-.07s-.12,0-.12-.07-.28-.17-.42-.21V27.2H12.3v-.05c-.11,0-.16-.08-.26-.12v0H12v0H11.9v-.05h-.07v0h-.07V26.8h-.07v-.05h-.07v0c-.13,0-.1-.1-.21-.1v0h-.08v-.05c-.1,0-.14-.12-.23-.12v0c-.12,0-.21-.18-.33-.18v-.05a3.88,3.88,0,0,1-1-.73,32.66,32.66,0,0,1-2.65-2.25A8.33,8.33,0,0,0,6.1,22.06l0,0c-.74-.24-1.32-1.9-2-2.22l0-.08-.07,0c0-.08-.07-.06-.07-.14l-.07,0c0-.08-.07-.09-.07-.17l-.07,0c0-.08-.05-.08-.05-.16s-.12-.06-.12-.14l-.07,0c0-.08,0-.08,0-.16H3.48c0-.13-.14-.16-.14-.28l-.07,0,0,0c-.17-.09-.2-.36-.33-.43l0,0c-.08,0-.1-.17-.18-.21l0-.05h0c0-.07,0,0,0-.07l0-.05c-.07,0,0,0-.09-.07l0,0a.17.17,0,0,1-.12-.18H2.51l0-.05h0l0-.05c-.07,0,0,0-.1-.07l0,0H2.4c0-.07,0,0,0-.08l0,0-.07,0,0-.05H2.3l0,0H2.28l0,0-.09-.07,0,0h0c0-.06,0-.1,0-.1l0,0h0c0-.07,0,0-.05-.07l0-.1H2l0,0H2l0-.05H2l0-.05H2l0,0h0l0-.05H1.9l0,0H1.88l0,0h0l0-.05h0l0,0H1.81l0-.05h0l0,0H1.76l0,0H1.74l0-.05h0l0,0H1.69c0-.07,0-.12,0-.12l0,0h0l0,0h0l0-.05h0c0-.08-.07-.09,0-.16h0l0-.05H1.48l0-.05H1.46l0,0,0,0,0-.05H1.41l.05,0c-.09,0-.11-.06-.07-.14h0c0-.07,0-.12-.05-.12l0-.07H1.27l0,0c-.06-.07,0,0,0-.12H1.2l0-.12H1.15l0,0-.05,0,0-.07h0l0-.05h0l0,0-.05,0,0,0c-.07,0,0-.09,0-.17H1L1,14c-.1,0,0-.07,0-.14h0l0-.07h0l0-.07H.87l0-.05-.05,0,0-.05,0,0c0-.06,0,0,0-.1h0l0,0,0,0,0,0,0,0c0-.11-.07-.16,0-.25h0l0-.07,0,0c0-.06,0,0,0-.09h0c0-.06,0,0,0-.1H.61c0-.1,0-.17,0-.28h0c0-.07,0,0,0-.11h0A1.45,1.45,0,0,1,.5,12h0a1.78,1.78,0,0,1,0-.4H.38v-.49H.31c0-.43-.13-2.69.12-2.81C.4,8.28.43,8,.5,8l0-.07.05,0,0-.07,0,0c0-.12.1-.22,0-.32l.05,0,0-.05c.15-.15.2-.53.29-.75A3.78,3.78,0,0,1,2.42,4.87a3.79,3.79,0,0,1,2.63-.24C7.21,5.11,9,6,11.24,6l-.09,0c1.18-.1,2.09-.68,3.19-.87,0,.27-1,1.8-1.25,2.3s-.18,1.49.17.45h0l0,0a12.75,12.75,0,0,0,1.36-2,14.6,14.6,0,0,1,1.95-2.06c.19-.2.91-1.06,1.19-1.06,0-.37,2.22-1.49,2.7-1.78,2.76-1.65,6.15.4,8.09,2.35C29,3.62,30.18,4.51,30.34,5Z"/><path class="b86cca13-933c-40b3-8716-db53768dfe68" d="M8.82,7.8a1.4,1.4,0,0,1-.49.77l0,0S7.28,9.76,7.23,9.82s.17.11.26.14v0c.22,0,.5.28.72.35v.05a1.11,1.11,0,0,1,.29.1v0c.12,0,.18.08.3.12v.05h.09v0c.12,0,.27.11.38.14v0a1.39,1.39,0,0,1,.31.1v0c.43,0,.92.48,1.36.57v0a2.49,2.49,0,0,1,.44.14v.05a2,2,0,0,1,.31.07l0,.05a1.94,1.94,0,0,1,.33.07v0h.12v0a3.23,3.23,0,0,1,.51.14v0h.12v.05a16.4,16.4,0,0,1,1.95.56l0,0a15.08,15.08,0,0,1,2.61.58,26.43,26.43,0,0,0,4.43.47l-.09,0c1.31,0,2.51,0,3.8-.08a27.84,27.84,0,0,0,10.18-2.79c.5-.24,2.63-1.11,2.84-1.52-.55,0-1.24-.94-1.39-1.39.28-.2.56.35.8.43v0c.12,0,.17.12.31.17V9h.07V9c.14,0,.34.17.49.21V9.3a6.67,6.67,0,0,1,1.1.35,10.35,10.35,0,0,0,2.09.14,3.36,3.36,0,0,1,.84,0l0,.05h.05c0,.46-2.71.5-2.79.49s-.43-.12-.64-.12-.66.57-.54.82l0,0c0,.08,0,.14,0,.24s0,0,0,.09c0,.36-.48,1.26-.33,1.57l-.05.05c.05.1-.07.12,0,.21l-.05,0c.06.17-.18.38-.11.51l0,0,0,0c0,.06-.08.09,0,.17l0,0c.06.13-.18.32-.12.45a1.43,1.43,0,0,0-.26.7l-.07.07c0,.07-.06.23-.11.28h0c0,.09-.1.08-.07.19s-.07.19-.18.3c.05.11-.23.61-.33.71h0a.33.33,0,0,0-.14.3l-.07,0a.59.59,0,0,1-.18.35l0,0c-.25.25-.32.68-.56.92l0,.05-.07,0a3.58,3.58,0,0,1-1,1.43l0,.05c-.18,0-.6.76-.75.91A24.55,24.55,0,0,1,32,23.12,19.2,19.2,0,0,1,29,25c-.18.1-.82.2-.89.43a21.76,21.76,0,0,0-2.49.68,13.94,13.94,0,0,1-5.23.11c-5.67-1-9-5.81-11.68-10.32a24.72,24.72,0,0,1-1.59-3.61,10.44,10.44,0,0,0-.66-1.88,4.62,4.62,0,0,1-1.08.38c-.27.06-1.57.41-1.57,0,0-.24,1.24-.49,1.47-.58A9.62,9.62,0,0,0,7.58,8.74C7.91,8.47,8.41,7.8,8.82,7.8Z"/><path class="ae5234fd-b9c6-4bc8-a716-7017b91f3d16" d="M24.45,25.44a5.17,5.17,0,0,1,1-.19,15,15,0,0,0,2.25-.7,16.32,16.32,0,0,0,7.2-6.26c.38-.58,1.83-2.64,1.83-3.29-1.23,0-2.63.06-2.63,1.55,0,.51.12,1,.12,1.5,0,.07.14.62.12.63-.26.11-1-.22-1.32-.28C31.12,18,30.17,18,30.17,20c0,.45,0,.82,0,1.24a4.69,4.69,0,0,0,.28,1.58c-.26,0-.83-.56-1.13-.68a7.44,7.44,0,0,0-2.93-.92c-.23,0-.52.66-.63.85A16.57,16.57,0,0,0,24.45,25.44Z"/><path class="a6f34b85-8088-4a66-8a33-78d53285cc15" d="M30.5,22.83c-.26,0-.83-.55-1.13-.68a7.43,7.43,0,0,0-2.93-.91c-.23,0-.52.66-.63.84a16.89,16.89,0,0,0-1.36,3.36,8.65,8.65,0,0,0-.89.09c-.13-.39-.5-.69-.68-1.05a10.39,10.39,0,0,0-1.69-2.4c-.22-.21-.62-.86-1-.86-.58,0-2.44,1.9-2.7,2.2s-.33.51-.52.61c-.44.22-1-2.09-.89-2.18.91-1.37,3.31-2,4.79-2,.22,0,1.08,0,1.24.23s-.9.89-.66,1.13.51-.26.61-.33a10.82,10.82,0,0,1,1.9-1c1.81-.72,4.39-.92,6.05.33C30.3,20.42,30.23,22.29,30.5,22.83Z"/><path class="bf663d0d-1b1d-4a76-a8d7-de45fb2b5c76" d="M29.63,14.62s-.87,2.12-1.05,2.42c-.08.13-.17.25-.26.38s-.66.74-.66.44a3,3,0,0,1-1.29-1.31c-.14,0-.67-.81-.73-1-.18.09-.33.54-.44.72-.43.72-1.57,2.6-2.35,2.54-.27,0-.73-.5-.91-.68s-.53-.35-.61-.59c-.14,0-.28-.3-.42-.38l0,0a5.71,5.71,0,0,1-1.67-2.3,19.17,19.17,0,0,1,3.45.19,27.37,27.37,0,0,0,5.19-.38c1.17-.19,2.27-.51,3.4-.8a5.86,5.86,0,0,0,1.5-.49s.14-.13.16,0A6.73,6.73,0,0,1,33,14.81c0,.21-.16,1.34-.51,1.39C31.68,16.3,30.2,15.19,29.63,14.62Z"/><path class="bb73df17-3c0b-478c-9e83-80c357a47bd8" d="M19,14.74c0,.79-1.21,2.1-1.67,2.58-.16.17-.6.68-.89.64-.47-.07-1.12-2.81-1.19-3.22-.91.45-2.41,2.06-2.49-.19,0-.36,0-.73,0-1.1a1.91,1.91,0,0,1,0-.21c0-.08.92.27,1,.3l.38.12A37.57,37.57,0,0,0,19,14.74Z"/><path class="b84bd77f-4265-48c6-a4cc-ac3cc6985a9e" d="M23.56,25.53c.23-.34-.5-.69-.68-1.05a10.39,10.39,0,0,0-1.69-2.4c-.22-.21-.62-.86-1-.86-.52,0-1.39.91-1.72,1.24A17.15,17.15,0,0,0,17,24c0,.15.86.48,1,.54a12,12,0,0,0,4.18,1C22.65,25.57,23.3,25.91,23.56,25.53Z"/><path class="b71a17d5-ec13-413e-9ba3-c545e60d6b03" d="M16.57,23.77c-.11,0-.18-.13-.31-.16v-.05c-.58,0-2.56-2.13-3-2.58-.15-.14-.75-.63-.75-.84a4.15,4.15,0,0,1,2.2-1c.67.26,1.09,1.72,1.27,2.36S16.37,23,16.57,23.77Z"/><path class="ae4b4179-20a8-4c0f-b2fd-51d879194159" d="M22.36.69c1-.07,1,.83.28,1.38A4.64,4.64,0,0,1,19.9,3c-.91,0-.65-.77-.21-1.2A4.46,4.46,0,0,1,22.36.69Z"/><path class="b413b440-bf39-4931-bafb-f15520986724" d="M18.89,5.36c-.19.09-.23.74-.45,1h0c-.27.18-.43.59-.7.77-.67.45-1.66.1-1.46-.82a3,3,0,0,1,1.48-1.66c.18-.11,1-.55,1.1-.35C19.18,4.62,18.78,5,18.89,5.36Z"/><path class="a33a13ea-e7bb-4123-b5cd-ac25809d8049" d="M27.87,4.75v0a.39.39,0,0,1,.17,0v0c.15,0,.26.18.39.18v0c.14,0,.5.31.5.47l.07,0,0,0H29c0,.09.1.06.05.16l0,0,0,0h.05c0,.07,0,0,0,.1h.05c0,2.2-2.21.68-2.67-.47-.1-.25-.41-1-.1-1.1S27.5,4.67,27.87,4.75Z"/><path class="baded57f-7d16-4599-842d-6920cc1794b2" d="M36,12.12c.08.49.43,1.33.09,1.75-.55.69-2.24-.22-2.81-.61A19.41,19.41,0,0,1,36,12.12Z"/><path class="f930768f-91bd-4c43-9579-497af9ce62c1" d="M11.17,16.22c.16,0,.45-.11.49.05a5.32,5.32,0,0,1-.14,2.62s-.54-.68-.58-.75c-.21-.3-1-1.12-1-1.48C10,16.5,11,16.23,11.17,16.22Z"/><path class="f2db4d1e-9782-473b-bbe5-a47e09f6039d" d="M10.49,12.33a7.62,7.62,0,0,1,1.9.77c.25.38-1.36,1-1.67,1-.15,0-.22-.8-.23-.89S10.36,12.32,10.49,12.33Z"/><path class="aed7d4a4-1282-4c86-88f5-c8c243a2a082" d="M9.36,15.47a14.21,14.21,0,0,1-1-1.88C9.71,12.89,9.51,14.58,9.36,15.47Z"/><path class="fc353f95-edcb-49df-81e1-ed59a3ae7176" d="M37.72,12.56a5.27,5.27,0,0,1-.65,1.69C37.07,13.62,36.68,12.56,37.72,12.56Z"/></g></g></g></g></g></svg>