<svg xmlns="http://www.w3.org/2000/svg" xmlns:xlink="http://www.w3.org/1999/xlink" viewBox="0 0 159.28 252.54"><defs><style>.a99f326b-079b-44ec-9c2d-971bb45e692e{fill:none;}.a31b1466-bf8e-4cc5-bc48-dc3e0763af95{clip-path:url(#b52e735b-526b-44b8-8f0b-e690a17d8aa8);}.b7c02828-75eb-423a-af78-2c695f3ec504{fill:url(#ad525a63-7e11-4ad8-a0de-3e9ef91cfaa9);}.b946f600-1900-4a71-b93f-3b8f5a468b49{fill:url(#bfc4933d-e81f-466b-9086-175e78c2d768);}.b81b0e65-bc18-4b85-bd7e-6576c222bde3{fill:#231f20;}.b4fa1911-017f-4054-9559-4f9192cac14d{fill:url(#a8596599-24e2-41ea-84fa-4224468325de);}</style><clipPath id="b52e735b-526b-44b8-8f0b-e690a17d8aa8" transform="translate(3.61)"><path class="a99f326b-079b-44ec-9c2d-971bb45e692e" d="M137.33,93H100.1c-3.65-3.69-7.18-7.68-8.73-12.73-.07-.2-.12-.39-.18-.59a25.15,25.15,0,1,0-28-.26c-.53,3.4-1.1,6.8-3.62,9.42Q57.63,91,55.52,93H17.69A17.62,17.62,0,0,0,0,110.55V234.92a17.62,17.62,0,0,0,17.69,17.55H59.9v-.11a8.33,8.33,0,0,1-.9-1.24l-.26-.4a.63.63,0,0,0-.1-.27c0-.09-.12-.12-.11-.08l.15.25A25.15,25.15,0,1,1,105,237.12,24.4,24.4,0,0,1,100.75,251v.08c-.31.49-.64,1-1,1.43H137.4A17.61,17.61,0,0,0,155,234.92V110.55A17.6,17.6,0,0,0,137.33,93Z"/></clipPath><linearGradient id="ad525a63-7e11-4ad8-a0de-3e9ef91cfaa9" x1="80.51" y1="94.65" x2="81.28" y2="249.65" gradientUnits="userSpaceOnUse"><stop offset="0.58" stop-color="#fff200"/><stop offset="1" stop-color="#f7941d"/></linearGradient><linearGradient id="bfc4933d-e81f-466b-9086-175e78c2d768" y1="141.23" x2="159.28" y2="141.23" gradientUnits="userSpaceOnUse"><stop offset="0" stop-color="#fff200"/><stop offset="1" stop-color="#f7941d"/></linearGradient><linearGradient id="a8596599-24e2-41ea-84fa-4224468325de" x1="64.74" y1="17.07" x2="96.82" y2="17.07" xlink:href="#bfc4933d-e81f-466b-9086-175e78c2d768"/></defs><g id="ffcaf7d0-6f4a-4804-bce0-6d24e8429f32" data-name="Layer 2"><g id="bcd8d5e1-1b46-4a81-b274-008d836539a1" data-name="Layer 1"><g class="a31b1466-bf8e-4cc5-bc48-dc3e0763af95"><rect class="b7c02828-75eb-423a-af78-2c695f3ec504" x="3.61" y="180.74" width="155" height="71.79"/><polyline class="b946f600-1900-4a71-b93f-3b8f5a468b49" points="159.28 93.02 159.15 102.63 158.43 150.78 158.28 160.39 157.97 189.44 0 189.44 0.3 160.39 0.46 150.78 1.18 102.63 1.31 93.02"/><path class="b81b0e65-bc18-4b85-bd7e-6576c222bde3" d="M99.29,93.55,78.07,158,55.52,93" transform="translate(3.61)"/></g><rect class="b81b0e65-bc18-4b85-bd7e-6576c222bde3" x="57.09" y="34.14" width="46.23" height="1.76"/><rect class="b4fa1911-017f-4054-9559-4f9192cac14d" x="64.74" width="32.07" height="34.14"/><rect class="b81b0e65-bc18-4b85-bd7e-6576c222bde3" x="64.74" y="27.7" width="32.07" height="6.44"/></g></g></svg>