<svg xmlns="http://www.w3.org/2000/svg" xmlns:xlink="http://www.w3.org/1999/xlink" viewBox="0 0 63.69 49.61"><defs><style>.f450d461-529c-4bf7-9fa7-e7ff731bebf0{fill:none;stroke:#fff;stroke-linecap:round;stroke-linejoin:round;stroke-width:5px;}.a901e490-99fa-4cca-b382-b652c5cfedf8{fill:#122826;}.a1cefa77-b47d-49ea-9dda-55c19058c84e{fill:#ff666d;}.e16684ba-a829-434b-bbe3-bc7190d9b592{fill:url(#a5be5ab1-fc1f-494f-a62d-e59232d7ee77);}.b245b6f8-e482-4a98-a82b-a63dcf340f79{fill:#33726e;}.fc9461a1-34bb-4a8e-a6a4-9e3ff9fed762{fill:url(#aa86ea28-3cde-4dc9-8c12-3d1c6706bdd0);}.a2a61faf-0c25-46f9-b383-08ed0d839fbd{fill:#ff7d73;}.ae98dcba-80ef-4d7f-9570-6c2eaf43883a{fill:#f5bd6d;}.a1a3c660-f063-4a30-a001-b6bf7cd704a9{fill:#f1f2f2;}.bf98bee9-fbe0-4d53-bc0a-9d6d8c6b106d{fill:url(#bdb0f9ed-4c42-4261-80bc-3ba37a4db03b);}.bfea3b5f-2a18-4e74-9d75-306d2ada1a64{fill:#b58340;}.e19425e5-d579-402b-affc-9a65f4281e10{fill:#f9dbb4;}.bb664869-0cc5-4ea3-9128-f43732a3fb69{fill:#c2f2ee;}.ed96c18a-4141-420a-9981-6750a8cf1d40{fill:#8e1b29;}.b45b8f11-46dc-4e6f-a322-2403f07b55a1{fill:#467a76;}.bc369f87-8587-4409-89ea-fbc95c16e9e1{fill:#f9a5ab;}.a7a00f40-d5c3-4295-8b35-8e8a2f0141c1{fill:#bf4640;}.bd29416d-de27-4eb7-86b1-74d810eaa4b3{fill:#ffbebb;}.a73fc115-fb68-478d-9b11-5496ad0f7174{fill:url(#b8dd11a0-e585-4dc8-934a-fa937f9c1023);}</style><linearGradient id="a5be5ab1-fc1f-494f-a62d-e59232d7ee77" x1="-960.33" y1="524.9" x2="-944.51" y2="525.38" gradientTransform="matrix(1.67, 0, 0, -1.67, 1601.3, 908.89)" gradientUnits="userSpaceOnUse"><stop offset="0" stop-color="#fedf1a"/><stop offset="0.08" stop-color="#fba658"/><stop offset="0.17" stop-color="#f6789c"/><stop offset="0.26" stop-color="#c86bd5"/><stop offset="0.36" stop-color="#9c88db"/><stop offset="0.46" stop-color="#ae9ee2"/><stop offset="0.56" stop-color="#5caee4"/><stop offset="0.65" stop-color="#19d2e3"/><stop offset="0.75" stop-color="#18ddd4"/><stop offset="0.76" stop-color="#2de4ba"/><stop offset="0.89" stop-color="#80efd5"/><stop offset="0.92" stop-color="#62fc6c"/><stop offset="1" stop-color="#62fc6c"/></linearGradient><linearGradient id="aa86ea28-3cde-4dc9-8c12-3d1c6706bdd0" x1="-956.94" y1="530.21" x2="-927.12" y2="530.21" xlink:href="#a5be5ab1-fc1f-494f-a62d-e59232d7ee77"/><linearGradient id="bdb0f9ed-4c42-4261-80bc-3ba37a4db03b" x1="-934.29" y1="525.81" x2="-922.93" y2="525" gradientTransform="matrix(1.67, 0, 0, -1.67, 1601.3, 908.89)" gradientUnits="userSpaceOnUse"><stop offset="0" stop-color="#fedf1a"/><stop offset="0.15" stop-color="#fba658"/><stop offset="0.23" stop-color="#f6789c"/><stop offset="0.29" stop-color="#c86bd5"/><stop offset="0.39" stop-color="#9c88db"/><stop offset="0.49" stop-color="#ae9ee2"/><stop offset="0.56" stop-color="#5caee4"/><stop offset="0.65" stop-color="#19d2e3"/><stop offset="0.75" stop-color="#18ddd4"/><stop offset="0.84" stop-color="#2de4ba"/><stop offset="0.89" stop-color="#80efd5"/><stop offset="0.95" stop-color="#62fc6c"/><stop offset="1" stop-color="#62fc6c"/></linearGradient><linearGradient id="b8dd11a0-e585-4dc8-934a-fa937f9c1023" x1="-960.78" y1="529.5" x2="-922.56" y2="529.5" gradientTransform="matrix(1.67, 0, 0, -1.67, 1601.3, 908.89)" gradientUnits="userSpaceOnUse"><stop offset="0"/><stop offset="0.15" stop-color="#fba658"/><stop offset="0.23" stop-color="#f6789c"/><stop offset="0.29" stop-color="#c86bd5"/><stop offset="0.39" stop-color="#9c88db"/><stop offset="0.49" stop-color="#ae9ee2"/><stop offset="0.56" stop-color="#5caee4"/><stop offset="0.65" stop-color="#19d2e3"/><stop offset="0.75" stop-color="#18ddd4"/><stop offset="0.84" stop-color="#2de4ba"/><stop offset="0.89" stop-color="#80efd5"/><stop offset="0.95" stop-color="#62fc6c"/><stop offset="1" stop-color="#62fc6c"/></linearGradient></defs><g id="fd5f4c14-7476-4356-9dbf-788b3f96b6ca" data-name="Layer 2"><g id="a81d00ce-0f78-4f0c-b280-d75c1ace2fec" data-name="Layer 1"><g id="aca5cbe3-83dc-4bed-8b76-8a628da01f8b" data-name="Untitled"><path class="f450d461-529c-4bf7-9fa7-e7ff731bebf0" d="M31.63,2.5h0Z"/><path class="a901e490-99fa-4cca-b382-b652c5cfedf8" d="M54.55,19.44a3.2,3.2,0,0,1,0,.82v0c0,.16,0,.33,0,.49v.05s0,.07,0,.1a1.23,1.23,0,0,1,0,.16l.14-.07.58-.31c0-.32,0-.64-.08-.95a3,3,0,0,1,0-.42c0-.16,0-.13,0-.18s-.58,0-.78,0h0a1,1,0,0,1,.13.29Z"/><path class="a1cefa77-b47d-49ea-9dda-55c19058c84e" d="M46.13,40.12a4.69,4.69,0,0,1-1.71-.06,6,6,0,0,1-1.75.13l.52.14a11.08,11.08,0,0,0,2.22.3,4.21,4.21,0,0,0,1-.1l.43-.1a6.66,6.66,0,0,0,1.2-.44l.3-.15c-.32,0-.64,0-1,0S46.55,40,46.13,40.12Z"/><path class="e16684ba-a829-434b-bbe3-bc7190d9b592" d="M2.4,34.51a11.54,11.54,0,0,1,.35,1.75c.08.63.11,1.27.15,1.91s.1,1.27.2,1.9a4.2,4.2,0,0,0,.41,1.43,2.05,2.05,0,0,0,2.13,1.22A2.52,2.52,0,0,0,7.39,41,.41.41,0,0,1,7.44,41a7.43,7.43,0,0,1-.35-.76,5,5,0,0,1,.06-2.87,16.68,16.68,0,0,0,.63-3.19,9.54,9.54,0,0,0-.41-3c-.28-.95-.66-1.88-1-2.81a8,8,0,0,1-.49-1.43c0-.08,0-.17,0-.26s0,0,0,0l0-.07,0-.05a1.3,1.3,0,0,0-.08-.17A1.75,1.75,0,0,0,5.49,26a1.43,1.43,0,0,0-.19-.24l-.24-.26a3.81,3.81,0,0,0-.5-.4l-.06,0-1.09.49L5,27.88l0,0a8.06,8.06,0,0,1,2,5.3,7,7,0,0,1-.69,2.57,3.9,3.9,0,0,0-.41,1.84c0,.59.25,1.16.35,1.75s.21,1.54-.48,1.84A1.55,1.55,0,0,1,4,40.45c-.35-.57-.52-1.53.09-2a.87.87,0,0,1,1.35.44c.06.19-.21.38-.35.21s-.5-.47-.79-.1a.93.93,0,0,0-.08.5,1.56,1.56,0,0,0,.5,1c.44.39,1.1.24,1.12-.41A4.37,4.37,0,0,0,5.63,39a4.75,4.75,0,0,1,.15-3.26,6.51,6.51,0,0,0,.59-4,7.67,7.67,0,0,0-1.15-2.69,5.12,5.12,0,0,0-.49-.44l-.05-.06a4.68,4.68,0,0,0-.74.91,2,2,0,0,0-.18.32c0,.09,0,.16.09.24l.48.73a.3.3,0,0,1-.18.44A1.8,1.8,0,0,1,2.75,31l-.07,0c0,.1-.08.25-.09.27-.06.25-.14.5-.21.75a.31.31,0,0,1-.51.13,6.25,6.25,0,0,1-.82-1.29l-.31.2a16.2,16.2,0,0,1,.92,1.55A11.87,11.87,0,0,1,2.4,34.51Z"/><path class="b245b6f8-e482-4a98-a82b-a63dcf340f79" d="M34,38.61a.52.52,0,0,0-.39,0c.64.72,1.77,1.46,1.61,2.57a1,1,0,0,1-.67.8.87.87,0,0,0,.71-.26,1.24,1.24,0,0,0,.22-1.24s0-.06,0,0a1.25,1.25,0,0,1-.08,1.4,1.16,1.16,0,0,1-.68.36H35c1.13,0,1.28-1.3.81-2.09A5.52,5.52,0,0,0,34,38.61Z"/><path class="a1cefa77-b47d-49ea-9dda-55c19058c84e" d="M48.92,36.94l0,0c-.15.22-.3.42-.46.62s-.18.22-.28.32h.09a5.24,5.24,0,0,1,1.12,0c.07,0,.07.11,0,.11a10.27,10.27,0,0,0-1.09.17c-.16,0-.33.09-.49.11A7,7,0,0,1,45,39.92a4.17,4.17,0,0,0,.5,0,5.79,5.79,0,0,0,1.16-.22,4.45,4.45,0,0,1,2.08-.1l0,0a6.77,6.77,0,0,0,1.3-1,5.89,5.89,0,0,0,.74-.91,3.12,3.12,0,0,1-.75,0,.06.06,0,0,1,0-.11,2.54,2.54,0,0,1,.87,0,6.32,6.32,0,0,0,.33-.56A8.12,8.12,0,0,1,48.92,36.94Zm.86,1.9a7.72,7.72,0,0,1-2.14.34.09.09,0,0,1,0-.17,12,12,0,0,1,2.13-.35C49.86,38.65,49.87,38.81,49.78,38.84Z"/><path class="a901e490-99fa-4cca-b382-b652c5cfedf8" d="M34.85,40.79a2.35,2.35,0,0,0-.41-.91c-.27-.42-.7-.72-.93-1.15a.58.58,0,0,0-.13.22,2.93,2.93,0,0,0,0,1.1,4.56,4.56,0,0,0,.33,1.46C34.35,41.87,34.94,41.62,34.85,40.79Z"/><path class="fc9461a1-34bb-4a8e-a6a4-9e3ff9fed762" d="M31.06,3.78l-2,0A35.64,35.64,0,0,0,18.93,5a15.87,15.87,0,0,0-2.56,1.06,1.5,1.5,0,0,1,1.47.69c.32.63-.13,1.53-.39,2.19a7.83,7.83,0,0,1,1.22.35.66.66,0,0,1,.39.36c.12.29-.07.64-.16.92-.15.45-.32.9-.49,1.35s-.32.79-.49,1.18a4.75,4.75,0,0,1-.51,1.12c-.34.41-1.13,0-1.62-.18A5.49,5.49,0,0,1,14.31,16a.24.24,0,0,1-.38-.1,1.08,1.08,0,0,0-1.61-.51,1.16,1.16,0,0,1-.9.2c-.65-.22-.38-1-.13-1.54a1.19,1.19,0,0,1-1,0,.9.9,0,0,1-.41-.52A30.74,30.74,0,0,0,7,22.16c-.2,1.05-.35,2.11-.49,3.16a4.2,4.2,0,0,0,0,1.5A11.32,11.32,0,0,0,7,28.2a15.75,15.75,0,0,1,1.43,5.62,12.71,12.71,0,0,1-.51,3.12,5.61,5.61,0,0,0-.26,2.92A6.48,6.48,0,0,0,8.15,41a8.38,8.38,0,0,0,.73,1.13,5.38,5.38,0,0,0,1.95,1.48,5.24,5.24,0,0,0,2.44.43c1.07-.07,2.14-.26,3.22-.34A20,20,0,0,1,23,44.2c2,.54,3.84,1.48,5.81,2a7.74,7.74,0,0,0,3.05.37,13.28,13.28,0,0,0,2.9-.74,38.24,38.24,0,0,1,6-2,23.85,23.85,0,0,1,6.59-.1,12.57,12.57,0,0,0,2.87.19,5.23,5.23,0,0,0,2.3-.88,5.48,5.48,0,0,0,1.67-1.88A4.29,4.29,0,0,0,55,38.86a19.27,19.27,0,0,0-.68-3.19,9,9,0,0,1-.13-3A29.27,29.27,0,0,1,56,27.05a6.49,6.49,0,0,0-.09-2.84c-.13-.95-.28-1.89-.47-2.82l-.53.26a.67.67,0,0,1-.3.08H54.5a.48.48,0,0,1-.3-.15.59.59,0,0,1-.11-.19s0,0,0,0,0,0,0,0a2.46,2.46,0,0,1-.08-.59h0a3.85,3.85,0,0,1,0-.48v-.42a1.36,1.36,0,0,0-.09-.36.1.1,0,0,0,0-.05h0l-.06,0,0,0-.07.06a1.85,1.85,0,0,0-.14.14c-.18.19-.33.41-.5.62,0,.05-.09.11-.15.16h0a.31.31,0,0,1-.26.08.34.34,0,0,1-.22-.15h0c-.68-1.23-1.41-2.43-2.2-3.6l-.38.4a2.57,2.57,0,0,0-.21.24,1.84,1.84,0,0,1-.44.4.44.44,0,0,1-.49,0,.46.46,0,0,1-.18-.13,2.76,2.76,0,0,1-.4-.71c0-.09-.08-.18-.13-.27L46.66,14c-.26.17-.52.36-.77.56h0l-.3.25-.06.06-.25.22-.09.09-.21.2-.1.12-.18.18-.12.14a1.15,1.15,0,0,0-.14.17c-.06.06-.11.13-.17.2a3.25,3.25,0,0,1-.23.29h0a.71.71,0,0,1-.61.31.59.59,0,0,1-.37-.15s0,0,0,0l0,0a1.12,1.12,0,0,1-.25-.6s0-.06,0-.09v0c0-.47,0-1-.08-1.42a3.85,3.85,0,0,0-.16-.69v0h0c-.08-.22-.2-.25-.4-.13l-.09.05-.07.05-.34.24c-.22.17-.46.34-.69.5l-.2.15a3,3,0,0,1-.82.53h0a.58.58,0,0,1-.37,0,.69.69,0,0,1-.32-.21h0l-.05-.06h0a3.42,3.42,0,0,1-.39-.91l-.47-1.25A18.82,18.82,0,0,0,34.87,15h0a.36.36,0,0,1-.3,0,.27.27,0,0,1-.2-.28.71.71,0,0,0,0-.14c0-.64.07-1.28.11-1.93,0-.24,0-.48,0-.72,0-.08,0-.16,0-.25s0-.23,0-.34,0-.12,0-.17,0-.13,0-.2,0-.15,0-.19-.3,0-.39,0l-.31.06h0l-.54.11h0l-.4.09a2.46,2.46,0,0,1-1.11.09h0a.77.77,0,0,1-.25-.1L31.49,11h0a1,1,0,0,1-.3-.49h0a.5.5,0,0,1,0-.12s0,0,0-.08v0a.76.76,0,0,1,0-.15h0V10h0V9.77a7.46,7.46,0,0,1,.1-.81h0l0-.16a.09.09,0,0,0,0,0l0-.12a.29.29,0,0,1,0-.09.24.24,0,0,1,0-.08.3.3,0,0,1,0-.1v0h0s0-.06,0-.09l0-.09s0-.08,0-.12a.24.24,0,0,0,0-.08l0-.07c.12-.33.26-.66.38-1l0-.1h0s0,0,0-.06h0c.1-.34.15-.85-.24-1l-.22-.07a1.71,1.71,0,0,1-.27-.09.57.57,0,0,1-.13-.08s0,0,0,0h0v0s0,0-.05-.05h0a.76.76,0,0,1-.17-.48V4.72A3.56,3.56,0,0,1,31.06,3.78Zm-.88.57a.1.1,0,0,1,0,.13c-.31.5-.11.9.23,1.31a1.44,1.44,0,0,1,.29.45,2.14,2.14,0,0,1,0,1.15,12.06,12.06,0,0,0-.27,2A8.33,8.33,0,0,1,30.39,11a.08.08,0,0,1-.14,0c-.5-1.09-.09-2.57.13-3.69a1.46,1.46,0,0,0-.32-1.41,1.53,1.53,0,0,1-.28-.46,1,1,0,0,1,.27-1.06A.09.09,0,0,1,30.18,4.35Zm-12,1.36s.07,0,.11,0a1.88,1.88,0,0,1,.52,1.14c0,.28.06.89-.3,1a.09.09,0,0,1-.08,0c-.15-.22,0-.56,0-.81a2.55,2.55,0,0,0-.3-1.18A.08.08,0,0,1,18.2,5.71ZM19,8.42c1.12.13,1.32,1.47,1.17,2.38A7.33,7.33,0,0,1,19.35,13a5.65,5.65,0,0,1-1.2,1.73c-.07.06-.22,0-.17-.11.38-.94,1-1.76,1.41-2.72S20.3,9.09,19,8.59C18.9,8.56,18.9,8.41,19,8.42Zm14.08,3.47c.08,0,.17.08.11.15a1.72,1.72,0,0,1-2.08.32c-.07,0,0-.14.06-.13a3,3,0,0,0,1.07,0C32.54,12.13,32.8,12,33.09,11.89Zm.34,1.22a.07.07,0,0,1,.07.08c0,.51.07,1,.12,1.53.06.66.09,1.33,1,1.23a4.54,4.54,0,0,0,2.09-1.17c.15-.11.32.1.24.25a2.86,2.86,0,0,1-2.76,1.29,1,1,0,0,1-.76-.81,8.2,8.2,0,0,1,0-2.32A.09.09,0,0,1,33.43,13.11ZM9.89,15a.09.09,0,0,1,.07.06c.1.31.06.6.29.85a1.06,1.06,0,0,0,1.22.17c.35-.13.69-.4,1.09-.28s.52.77,1.1.87,1.3-.51,1.67-.89c.11-.11.32,0,.22.17a2.68,2.68,0,0,1-1.72,1,1.07,1.07,0,0,1-.76-.13c-.13-.08-.15-.18-.26-.27a1,1,0,0,0-1-.21,1.62,1.62,0,0,1-1.71,0c-.38-.27-.78-1-.32-1.38A.1.1,0,0,1,9.89,15Zm6,0c.23,0,.39.19.59.28a2.09,2.09,0,0,0,.78.16.1.1,0,0,1,.05.19,1.07,1.07,0,0,1-1,.07c-.27-.09-.62-.3-.57-.62A.12.12,0,0,1,15.92,15Zm22,.08s.07,0,.08,0c.33.57.82,1.26,1.58,1,.45-.14.74-.56,1.23-.57a.09.09,0,0,1,.08.13,1.83,1.83,0,0,1-1.79.86,1.61,1.61,0,0,1-1.23-1.41S37.91,15.08,37.94,15.07Zm8.31.54a.08.08,0,0,1,.06.08c-.05.32-.33.47-.57.65s-.63.4-.94.62c-.07.05-.15-.07-.09-.13.27-.26.51-.54.79-.8S45.93,15.6,46.25,15.61Zm.42.5a.1.1,0,0,1,.12.06,3.86,3.86,0,0,0,.52.87,3.41,3.41,0,0,1,.52.63.11.11,0,0,1-.12.16A1.4,1.4,0,0,1,47,17.2a2.92,2.92,0,0,1-.41-1A.08.08,0,0,1,46.67,16.11Zm-27.3,1.45q.61,0,1.23,0A9.56,9.56,0,0,1,24.91,19,8.85,8.85,0,0,1,28,22c.09.15-.1.28-.23.18h0a9.38,9.38,0,0,1-2-.68l-2.26-.88a15.16,15.16,0,0,0-2.09-.72,4.42,4.42,0,0,0-2.19.22,7.57,7.57,0,0,1-1.94.32,4.8,4.8,0,0,0-2.21.43c-1,.58-1.73,1.6-2.79,2.16a.24.24,0,0,1-.36-.2,3.22,3.22,0,0,1,.89-2.25,6.49,6.49,0,0,1,2.9-2.25A10.56,10.56,0,0,1,19.37,17.56Zm23.77,0a10.38,10.38,0,0,1,3.66.78,6.33,6.33,0,0,1,2.8,2.21,3.27,3.27,0,0,1,.9,2.25.24.24,0,0,1-.36.2c-1.06-.56-1.76-1.59-2.8-2.16A5.06,5.06,0,0,0,45,20.41a7.47,7.47,0,0,1-1.83-.32,4.3,4.3,0,0,0-2.3-.19,15,15,0,0,0-2,.69l-2.26.88a9.46,9.46,0,0,1-2,.68h0c-.13.1-.32,0-.24-.18a9,9,0,0,1,3.22-3.07,9.58,9.58,0,0,1,4.23-1.32A10.38,10.38,0,0,1,43.14,17.56ZM50,18.2c.3,0,.47.52.59.73l1,1.73c.33.54.91,1.39,1.5.63a.13.13,0,0,1,.22.06.56.56,0,0,1,0,.32.13.13,0,0,1,.09.1c0,.39,0,.48.33.73s.28.18.6.12c.1,0,.25,0,.26.15.1.69.37,1.31.5,2,0,.09-.11.2-.19.11a4.2,4.2,0,0,1-.69-1.8c-.33.06-.59.13-.87-.17a1.2,1.2,0,0,1-.19-1,.68.68,0,0,1-.27.13,1,1,0,0,1-1-.36,9.84,9.84,0,0,1-1.07-1.83,6.39,6.39,0,0,0-.58-1c-.19-.22-.16-.25-.49-.08l-.26.17a.08.08,0,0,1-.1-.13C49.48,18.57,49.77,18.18,50,18.2ZM9.8,18.64a.12.12,0,0,1,.12.16,6.12,6.12,0,0,1-.6,1.36c-.05.06-.17.05-.17-.05a2.79,2.79,0,0,1,.59-1.42S9.78,18.65,9.8,18.64Zm20.62,1.1a.14.14,0,0,1,.12.09,4.25,4.25,0,0,1,.1,1.88,1.82,1.82,0,0,1-.36,1,1.12,1.12,0,0,1-1.85-.41,0,0,0,0,1,.05,0,1.63,1.63,0,0,0,1.09.32.87.87,0,0,0,.59-.83,13.59,13.59,0,0,1,.14-1.93A.11.11,0,0,1,30.42,19.74Zm1.65,0a.11.11,0,0,1,.11.09,15.23,15.23,0,0,1,.15,1.93c.06.41.23.82.72.84a1.88,1.88,0,0,0,1-.33,0,0,0,0,1,.05,0,1.12,1.12,0,0,1-1.85.41,1.91,1.91,0,0,1-.37-1.09,4.2,4.2,0,0,1,.1-1.8A.17.17,0,0,1,32.07,19.74ZM19.83,21.48c2.27,0,5.1,1.15,6.16,3.31,0,.05,0,.11-.09.07a12.81,12.81,0,0,0-2.73-2.08A7.37,7.37,0,0,0,19.83,22a7.52,7.52,0,0,0-3.45.82,31.66,31.66,0,0,0-2.58,1.84s0,0,0,0a5.08,5.08,0,0,1,2.56-2.29A8,8,0,0,1,19.83,21.48Zm22.83,0a8,8,0,0,1,3.5.82,5.12,5.12,0,0,1,2.56,2.29s0,0,0,0A26,26,0,0,0,46,22.73a7.3,7.3,0,0,0-6.78.09,12.77,12.77,0,0,0-2.65,2,.05.05,0,0,1-.09-.06C37.56,22.63,40.39,21.49,42.66,21.48Zm-34.09.69a.11.11,0,0,1,.14.13,20.65,20.65,0,0,0-.51,2.46c-.06.46-.11.94-.14,1.41a4.59,4.59,0,0,0,0,1.17.1.1,0,0,1-.14.11c-.65-.28-.31-1.78-.24-2.31a10.64,10.64,0,0,1,.85-2.92S8.55,22.17,8.57,22.17Zm10.54.77a6.75,6.75,0,0,1,3.41.77,8,8,0,0,1,3.29,3.41,9.74,9.74,0,0,1,1,5.12A9.3,9.3,0,0,1,25.19,37a5.56,5.56,0,0,1-.42.54,9.58,9.58,0,0,1-1.28,1.7A10.33,10.33,0,0,1,21.31,41a6.53,6.53,0,0,1-2.45,1,.19.19,0,0,1-.1-.35,21.42,21.42,0,0,0,2.41-1,9.58,9.58,0,0,0,1.88-1.48,6.32,6.32,0,0,1-1.59.77,6.54,6.54,0,0,1-4.61-.21,7.64,7.64,0,0,1-3.48-3.1,9.65,9.65,0,0,1-1.38-5,9.5,9.5,0,0,1,.09-1.31,9.3,9.3,0,0,1,2-4.66,7.22,7.22,0,0,1,3.88-2.49A6.74,6.74,0,0,1,19.11,22.94Zm24.24,0a6.76,6.76,0,0,1,2.29.53,7.7,7.7,0,0,1,3.48,3.1,9.16,9.16,0,0,1,1,2.34,7.21,7.21,0,0,1,2.13,6.25A6.54,6.54,0,0,1,50.47,39a6.85,6.85,0,0,1-2.27,1.57,5.38,5.38,0,0,1-1.53.48,7.2,7.2,0,0,1-3.19-.2,10,10,0,0,1-3.87-1.64l-.16-.1a10.06,10.06,0,0,0,1.86,1.46,22.39,22.39,0,0,0,2.42,1,.19.19,0,0,1-.1.35,6.73,6.73,0,0,1-2.53-1A10,10,0,0,1,39,39.28a9.17,9.17,0,0,1-1.28-1.69,8.15,8.15,0,0,1-1-1.56,9.87,9.87,0,0,1-1-5.12A9.44,9.44,0,0,1,37.3,26.1,7.47,7.47,0,0,1,41,23.26,6.55,6.55,0,0,1,43.35,22.94Zm-12.69.13a.07.07,0,0,1,.08.07,1.56,1.56,0,0,1-.56,1.49,1.31,1.31,0,0,1-1.51.22.09.09,0,0,1,0-.16,3.36,3.36,0,0,0,1.21-.34,1.85,1.85,0,0,0,.69-1.21A.07.07,0,0,1,30.66,23.07Zm1.17,0a.07.07,0,0,1,.08.07,1.89,1.89,0,0,0,.69,1.22,3.35,3.35,0,0,0,1.2.33.09.09,0,0,1,0,.16,1.31,1.31,0,0,1-1.51-.22,1.57,1.57,0,0,1-.57-1.49A.09.09,0,0,1,31.83,23.07ZM11.89,24.76a0,0,0,0,1,0,.06A12.28,12.28,0,0,0,10.75,28a7.55,7.55,0,0,0-.17,1.64,5.28,5.28,0,0,1-.09,1.54.14.14,0,0,1-.28,0,10,10,0,0,1,.14-3.36,10.39,10.39,0,0,1,1.48-3.05A0,0,0,0,1,11.89,24.76Zm38.71,0a0,0,0,0,1,.06,0,10.12,10.12,0,0,1,1.47,3.05,10,10,0,0,1,.15,3.36.15.15,0,0,1-.29,0,5.65,5.65,0,0,1-.08-1.54A7.55,7.55,0,0,0,51.74,28a12.28,12.28,0,0,0-1.16-3.22A0,0,0,0,1,50.6,24.76ZM29.05,26a.09.09,0,0,1,.1,0,11.26,11.26,0,0,1-.31,8.71,11.7,11.7,0,0,1-2.59,3.68c-1.1,1.07-2.71,2.77-1.11,4.17.14.13,0,.4-.18.32-1.23-.49-1.15-2.17-.59-3.14A9.13,9.13,0,0,1,26,38a10.74,10.74,0,0,0,1.63-2A12.32,12.32,0,0,0,29,26.12.07.07,0,0,1,29.05,26Zm4.38,0a.06.06,0,0,1,0,.09A12.37,12.37,0,0,0,34.83,36a10.69,10.69,0,0,0,1.62,2,8.26,8.26,0,0,1,1.71,1.93c.53,1,.56,2.59-.63,3.06-.18.08-.33-.19-.19-.32,1.61-1.4,0-3.1-1.11-4.17a11.67,11.67,0,0,1-2.58-3.68,11.26,11.26,0,0,1-.31-8.71A.08.08,0,0,1,33.43,26ZM10.3,33.72a.07.07,0,0,1,.07.08,7.56,7.56,0,0,0,2.08,4.8A6.73,6.73,0,0,0,14.52,40a6.58,6.58,0,0,0,1.2.42,2.43,2.43,0,0,1,.93.35c.05,0,.07.13,0,.16-.71.35-1.74-.09-2.4-.38A6.81,6.81,0,0,1,12,39a6.56,6.56,0,0,1-1.8-5.22A.09.09,0,0,1,10.3,33.72Zm19,3.05a1.28,1.28,0,0,1,.86.39,2.07,2.07,0,0,1,.48,1.75s-.06,0-.06,0A3.05,3.05,0,0,0,30,37.49c-.46-.54-1-.23-1.56-.22a.12.12,0,0,1-.06-.23A1.36,1.36,0,0,1,29.32,36.77Zm3.84,0a1.36,1.36,0,0,1,.91.27.12.12,0,0,1-.06.23c-.58,0-1.09-.32-1.55.22a3,3,0,0,0-.57,1.42,0,0,0,0,1-.06,0,2.07,2.07,0,0,1,.48-1.75A1.25,1.25,0,0,1,33.16,36.77ZM28.73,38a.7.7,0,0,1,.41.06c.47.23.48.81.47,1.26,0,1.31-.07,3-1.6,3.41a1.7,1.7,0,0,1-2.09-1.91,3.18,3.18,0,0,1,1.64-2.15A2.09,2.09,0,0,1,28.73,38Zm5.09,0a2.06,2.06,0,0,1,1.1.66,3.13,3.13,0,0,1,1.64,2.15,1.69,1.69,0,0,1-2.08,1.91c-1.54-.38-1.6-2.1-1.61-3.41,0-.47,0-1.11.56-1.29A.73.73,0,0,1,33.82,38.05Zm-25,1.58a.11.11,0,0,1,.11,0c.36.44.47,1,.83,1.49a4.12,4.12,0,0,0,1.46,1.19c1.44.71,3,.26,4.47,0a13.91,13.91,0,0,1,8.07,1.17,0,0,0,0,1,0,.09,17.39,17.39,0,0,0-4.83-1,26.61,26.61,0,0,0-5,.45,4.77,4.77,0,0,1-3.6-.78c-.69-.51-1.77-1.65-1.59-2.6A.11.11,0,0,1,8.86,39.63Zm44.77,0a.11.11,0,0,1,.07.08c.19.95-.9,2.09-1.59,2.6a4.75,4.75,0,0,1-3.59.78,26.61,26.61,0,0,0-5-.45,17.46,17.46,0,0,0-4.84,1s-.08-.06,0-.09a13.83,13.83,0,0,1,8.07-1.17c1.54.22,3.08.67,4.55-.08A4.18,4.18,0,0,0,52.78,41c.3-.43.41-1,.74-1.37A.11.11,0,0,1,53.63,39.63ZM30.48,40.8s.05,0,.05,0c.08.61,0,1.79-.79,1.92a.07.07,0,0,1-.07-.12,2.89,2.89,0,0,0,.55-.7,3.77,3.77,0,0,0,.22-1.1A0,0,0,0,1,30.48,40.8Zm1.52,0a0,0,0,0,1,0,0,3.79,3.79,0,0,0,.23,1.1,2.89,2.89,0,0,0,.55.7c0,.06,0,.13-.08.12-.81-.13-.86-1.31-.78-1.92A0,0,0,0,1,32,40.8Zm3.73,2.79c.09,0,.19.1.1.17a2.72,2.72,0,0,1-3.28.13.09.09,0,0,1,.1-.16C33.69,44.2,34.69,43.78,35.73,43.59Zm-9,0c1,.19,2.05.61,3.09.14a.09.09,0,0,1,.09.16,2.7,2.7,0,0,1-3.27-.13C26.57,43.69,26.66,43.58,26.75,43.59Z"/><path class="a1cefa77-b47d-49ea-9dda-55c19058c84e" d="M13.22,12.18c.1,0,.09.17,0,.19-.51.1-1,.09-1.56.19s-.91.23-1.37.35a.18.18,0,0,1,0,.19c.14.49.37.67.71.53a1.59,1.59,0,0,0,.55-.2c.16-.07.39.05.32.25l-.09.24a4.21,4.21,0,0,1,2.47-.73c.12,0,.16.18,0,.22-.42.15-.88.16-1.31.3s-.81.23-1.23.33l-.15.41c0,.13-.09.26-.13.39.25.24.49.27.7.09a2.08,2.08,0,0,1,.85-.2,1.56,1.56,0,0,1,1.17.72,5.22,5.22,0,0,0,.91-1.19,3.64,3.64,0,0,1-.66,0c-.36,0-.72.09-1.08.13a0,0,0,0,1,0-.06A3.5,3.5,0,0,1,14.43,14a1.44,1.44,0,0,1,.82,0c.06-.12.12-.25.17-.37a.25.25,0,0,1,.31-.18l.85.29c.35.12.39.23.58-.1.1-.18.19-.37.28-.56l-.43,0a6.16,6.16,0,0,0-1,0c-.11,0-.1-.16,0-.17a8.78,8.78,0,0,1,1-.09,1.64,1.64,0,0,1,.5,0c.06-.13.11-.27.16-.4a15.44,15.44,0,0,0-1.54-.15,17.54,17.54,0,0,0-1.78.12c-.05,0-.06-.07,0-.09a9,9,0,0,1,2-.29,2.42,2.42,0,0,1,1.41.2c0-.1.07-.2.11-.3l.08-.18a2.11,2.11,0,0,1-.5-.1c-.25,0-.51,0-.76-.1a0,0,0,0,1,0,0,1.92,1.92,0,0,1,.79-.08,1.23,1.23,0,0,1,.57.1q.09-.2.18-.42c-.63,0-1.26-.13-1.89-.11a10.62,10.62,0,0,0-2.1.29,0,0,0,0,1,0,0,6.38,6.38,0,0,1,2.11-.5,4.11,4.11,0,0,1,1.94.21,2.64,2.64,0,0,0,.19-.69.31.31,0,0,0,0-.1c-.22,0-.44-.09-.67-.11a5.21,5.21,0,0,0-.79,0s0-.06,0-.07a2,2,0,0,1,1.47,0,.52.52,0,0,0-.18-.22L18,9.55l-.88-.24a.24.24,0,0,1-.17-.2h0a8.35,8.35,0,0,0-2.33.23s0,0,0-.06a4.39,4.39,0,0,1,2.37-.35l0,0,.16-.46c-.61.12-1.27.07-1.89.19a12.07,12.07,0,0,0-2,.53,0,0,0,0,1,0,0,6.87,6.87,0,0,1,2-.77,4.67,4.67,0,0,1,1.93-.12l.14-.41c-.13,0-.27,0-.4,0h-.79a0,0,0,0,1,0-.09,2.67,2.67,0,0,1,.75-.12,1.67,1.67,0,0,1,.5,0,.83.83,0,0,0,0-.15c.24-1-.67-.94-1.35-1.14a.19.19,0,0,1-.1-.1c-.29.17-.58.35-.86.55a3.25,3.25,0,0,1,.76,0s0,0,0,.06c-.29.07-.58.15-.86.24a4.5,4.5,0,0,1-.48.16c-.22.19-.44.38-.65.58a5.6,5.6,0,0,1,3.19-.73c.12,0,.17.2,0,.22-.63.11-1.27.12-1.9.29a10.6,10.6,0,0,0-1.67.57A17.68,17.68,0,0,0,12,10.08a2.23,2.23,0,0,1,1.34-.29c.07,0,.06.11,0,.13-.3.1-.64.14-1,.22a3.06,3.06,0,0,1-.51.1l-.44.63a8.51,8.51,0,0,1,2.08-.65,6.4,6.4,0,0,1,2.46-.16c.07,0,.07.13,0,.14-.82.16-1.67.11-2.5.27s-1.47.42-2.2.64l-.07.11c-.14.21-.28.43-.41.65a3.94,3.94,0,0,1,.68-.25,3.63,3.63,0,0,1,1.26-.22.07.07,0,0,1,0,.14c-.37.12-.77.16-1.15.26s-.62.22-.94.29l-.36.62A5.61,5.61,0,0,1,13.22,12.18Z"/><path class="a2a61faf-0c25-46f9-b383-08ed0d839fbd" d="M32.43,5.56a.36.36,0,0,1,0,.09l0,0a.88.88,0,0,1,0,.15s0,0,0,0a1,1,0,0,1,0,.17h0a1,1,0,0,1,0,.17h0a.85.85,0,0,1,0,.16v0s0,.1,0,.15a0,0,0,0,1,0,0,.89.89,0,0,1,0,.14v0l0,.13,0,0s0,.08,0,.12l0,0a1.12,1.12,0,0,0,0,.13v0l-.17.42a1.39,1.39,0,0,1,.45.14,1.47,1.47,0,0,1,.5-.43,1.14,1.14,0,0,1,.8-.17.08.08,0,0,1,0,.14,5.65,5.65,0,0,0-.67.29,2,2,0,0,0-.36.35l.1.08a1.85,1.85,0,0,1,.41.47,1.2,1.2,0,0,1,.15.59c0,.06-.08.07-.11,0a2.36,2.36,0,0,0-.68-.76,2.19,2.19,0,0,0-.75-.3L32,8.4a.06.06,0,0,1,0,0c0,.1-.05.19-.07.29l0,.12h0a7,7,0,0,0-.11.78,2,2,0,0,0,0,.6v0h0c.05.25.21.31.45.29l.31-.05.22,0,.24-.05h0l.62-.13c.2,0,.4-.09.61-.12l.27,0h.23l0,0h0A2.14,2.14,0,0,1,36,9.09l-.09-.15a3.54,3.54,0,0,0-1.17-1c-.06,0,0-.1,0-.09a2.18,2.18,0,0,1,1.13.57,2.91,2.91,0,0,1,.52.59h0c.63-.11,1.66,0,2,.58a.14.14,0,0,1-.12.21c-.6-.09-1.06-.43-1.71-.34a2.93,2.93,0,0,0-1.66,1l0,0a1.2,1.2,0,0,1,.11.77c-.06,1-.11,1.92-.16,2.88a18.7,18.7,0,0,1,3.23-2h0a.33.33,0,0,1,.24,0,.34.34,0,0,1,.19.2c.18.49.36,1,.55,1.46,0,.09.06.18.1.27v0a1.46,1.46,0,0,0,.26.58h.07l0,0a3.07,3.07,0,0,0,.35-.24l.09-.07h0l1.34-1a1.27,1.27,0,0,1,.91-.33,2,2,0,0,0-.52-.92,2.61,2.61,0,0,0-2-.53c-.06,0-.08-.08,0-.11a2.09,2.09,0,0,1,2.22.27,2.15,2.15,0,0,1,.44.42,3.2,3.2,0,0,1,1.23-1c.39-.17,1-.33,1.36,0a.12.12,0,0,1,0,.19c-.37.16-.79,0-1.18.17a4.66,4.66,0,0,0-1.22.84,1.49,1.49,0,0,1,.3,1.12,3.2,3.2,0,0,1,.25.94v.05a2,2,0,0,1,0,.24.77.77,0,0,0,0,.15c0,.07,0,.14,0,.21a.76.76,0,0,1,0,.15.09.09,0,0,1,0,0v.65a1.21,1.21,0,0,0,.09.34,0,0,0,0,0,0,0l.1-.08,0,0c.27-.31.51-.63.79-.93l.08-.09,0,0h0l.13-.13a.94.94,0,0,1,.1-.1l.14-.14.12-.1a.52.52,0,0,1,.11-.1l.15-.14.06-.05.33-.27a7.1,7.1,0,0,0-.69-.28,2.88,2.88,0,0,0-1.24,0,.08.08,0,0,1-.06-.14,1.85,1.85,0,0,1,1.31-.31l.3.06a2,2,0,0,0-.09-.26,2.83,2.83,0,0,0-.33-.62c0-.05,0-.09.06-.07a1.37,1.37,0,0,1,.65.51,1,1,0,0,1,.2.63.76.76,0,0,1,.2.2,7.92,7.92,0,0,1,.71-.47h0a.3.3,0,0,1,.23,0,.3.3,0,0,1,.17.12v0c.44.92.89,1.84,1.34,2.76v0a.47.47,0,0,1,.05.1l.07.13.21.45h0a.8.8,0,0,1,.08.16s.08.13.11.2h0a2.54,2.54,0,0,1,.28-.29l.27-.29c.18-.19.37-.38.55-.58a.31.31,0,0,1,.48.07l0,0c.78,1.14,1.51,2.31,2.18,3.51.32-.41.7-.95,1.18-.91A2,2,0,0,0,53.75,17a1.22,1.22,0,0,1-.49.68.15.15,0,0,1-.23-.13c0-.47.32-.85.27-1.34a2.48,2.48,0,0,0-.7-1.31,1.25,1.25,0,0,1-.57.52.2.2,0,0,1-.13,0v0a.83.83,0,0,1,.41.64.16.16,0,0,1-.24.13c-.18-.08-.23-.23-.37-.37a1.67,1.67,0,0,0-.44-.31,2.49,2.49,0,0,0-1.17-.21,0,0,0,0,1,0-.08,1.42,1.42,0,0,1,1.34-.08l.09,0c0-.16,0-.34-.07-.49a6.5,6.5,0,0,0-.25-.86c0-.06.07-.11.11-.06a2.75,2.75,0,0,1,.49.82l.12.35a2.63,2.63,0,0,0,.3-2,2.82,2.82,0,0,0-1.79-1.63,1.88,1.88,0,0,1-.94,1.39,1.55,1.55,0,0,1,.66,1.58.19.19,0,0,1-.34,0c-.3-.46-.16-1-.75-1.34a3,3,0,0,0-1.74-.22c-.06,0-.08-.06,0-.1a1.57,1.57,0,0,1,1.59-.25c-.12-.27-.17-.56-.3-.84a4,4,0,0,0-.73-1.11.05.05,0,0,1,.06-.08c.61.41,1.4,1.26,1.31,2.06A4.14,4.14,0,0,0,49.86,11a3.1,3.1,0,0,0-.41-1.81A2.32,2.32,0,0,0,48,8c-.38-.12-.8-.13-1.18-.23a1.46,1.46,0,0,1-.06.51,2.19,2.19,0,0,1,.9.72c.14.15.24.16.16.35a.2.2,0,0,1-.28.07c-.47-.3-.64-.75-1.27-.87a2.91,2.91,0,0,0-1.56.27s-.07-.05,0-.07a2,2,0,0,1,1.64-.59A10.41,10.41,0,0,0,46,6.88,3.32,3.32,0,0,0,44.89,5.6,2.45,2.45,0,0,0,43,5.22c-.58.1-1.11.38-1.69.46h0a1.59,1.59,0,0,1-.17,1.61.12.12,0,0,1-.19,0c-.19-.57-.07-1.16-.37-1.73a2.44,2.44,0,0,0-1.48-1.19,3.2,3.2,0,0,0-2,0A6,6,0,0,0,35.87,5a1.68,1.68,0,0,1,.59.85l.22,0A1.37,1.37,0,0,1,38,4.8c.07,0,.12.11,0,.15a2.4,2.4,0,0,0-.77.49,2,2,0,0,0-.26.38v0a2.22,2.22,0,0,1,.74.15.24.24,0,0,1,.16.21c0,.37-.48.12-.66.08a2.51,2.51,0,0,0-2,.63.08.08,0,0,1-.11-.09,1.52,1.52,0,0,1,1-.86,4.5,4.5,0,0,0-1.5-.83A3.24,3.24,0,0,0,32.43,5.56Zm7.85,3a2.16,2.16,0,0,1,1.48.1l.18.08a1.4,1.4,0,0,1,.69-.89A1.57,1.57,0,0,1,44,7.7a.12.12,0,0,1,0,.21c-.35.17-.75.11-1.11.26a1.51,1.51,0,0,0-.75.66,1.3,1.3,0,0,1,.73.8.14.14,0,0,1-.21.16c-.36-.17-.6-.57-1-.76a3.63,3.63,0,0,0-1.4-.36A.07.07,0,0,1,40.28,8.54Z"/><path class="a2a61faf-0c25-46f9-b383-08ed0d839fbd" d="M31.58,5l.1,0,.11,0a1.06,1.06,0,0,1,.35.18h0l.08.06a2.92,2.92,0,0,1,2.5-.74,1.75,1.75,0,0,0-1.27-.8,3.89,3.89,0,0,0-1.86.41.93.93,0,0,0,0,.13,1.27,1.27,0,0,0-.06.18C31.42,4.68,31.32,4.93,31.58,5Z"/><path class="a1cefa77-b47d-49ea-9dda-55c19058c84e" d="M51.38,34.79a8.53,8.53,0,0,1-1.43,0c-.09.26-.19.5-.29.74a3.24,3.24,0,0,1,2.11.1c.07-.22.13-.45.18-.68s-.06-.66-.1-1l-.35,0-1-.05c-.08,0-.09-.14,0-.14.3,0,.59,0,.89,0,.13,0,.26,0,.38,0A9.55,9.55,0,0,0,51.47,32a5.62,5.62,0,0,0-.19-.53c-.21,0-.44-.11-.65-.11,0,0-.05-.07,0-.08a3.31,3.31,0,0,1,.55-.08,13.87,13.87,0,0,0-.89-1.71,10.31,10.31,0,0,1,.21,2.07c0,.25,0,.49,0,.74a.09.09,0,0,1,.11-.06l.32,0a.65.65,0,0,1,.28.08.07.07,0,0,1,0,.13.61.61,0,0,1-.3,0l-.35-.05a.1.1,0,0,1-.06,0c0,.16,0,.33-.05.49s0,.07,0,.1a2.88,2.88,0,0,1,.42,0,4.34,4.34,0,0,1,.62.06s0,.06,0,.06a3.85,3.85,0,0,1-.66.13,2.15,2.15,0,0,1-.43,0,8.49,8.49,0,0,1-.3,1.23,10.1,10.1,0,0,1,1.35.11A.08.08,0,0,1,51.38,34.79Z"/><path class="a1cefa77-b47d-49ea-9dda-55c19058c84e" d="M49.58,35.72A9.62,9.62,0,0,1,49,36.8c.39,0,.79,0,1.18,0a6.93,6.93,0,0,1,1.2-.05,8,8,0,0,0,.36-.87c-.36-.05-.71-.15-1.08-.17A7.38,7.38,0,0,0,49.58,35.72Zm1.38.55a2.34,2.34,0,0,1-.74-.08s0-.06,0-.07a2.3,2.3,0,0,1,.74,0A.07.07,0,0,1,51,36.27Z"/><path class="a901e490-99fa-4cca-b382-b652c5cfedf8" d="M12.51,22.35a19.63,19.63,0,0,1,2.63-2A4.79,4.79,0,0,1,17,20a8.87,8.87,0,0,0,2.35-.37,4.6,4.6,0,0,1,2-.23,9.47,9.47,0,0,1,2.13.69l2.25.9c.4.16.84.3,1.27.47a15.41,15.41,0,0,0-2.36-2,8.76,8.76,0,0,0-4-1.27,10.55,10.55,0,0,0-4.45.65,6.13,6.13,0,0,0-2,1.2c-.32.3-.63.61-.93.92A4.54,4.54,0,0,0,12.51,22.35Z"/><path class="a901e490-99fa-4cca-b382-b652c5cfedf8" d="M39.13,20a9,9,0,0,1,2-.65,4.41,4.41,0,0,1,2,.24,9.35,9.35,0,0,0,2.35.36,4.71,4.71,0,0,1,2,.4,23,23,0,0,1,2.55,2A4.9,4.9,0,0,0,49.3,21c-.33-.33-.66-.68-1-1a6.26,6.26,0,0,0-2.06-1.16,10.51,10.51,0,0,0-4.34-.62,8.68,8.68,0,0,0-4.11,1.32,14.58,14.58,0,0,0-2.28,1.92c.42-.17.87-.31,1.27-.47Z"/><path class="ae98dcba-80ef-4d7f-9570-6c2eaf43883a" d="M47,44.44a.13.13,0,0,1,0-.06l-1-.07c0,.37-.11.74-.15,1.11s0,.76-.07,1.14c0,.08-.14.11-.15,0a5.89,5.89,0,0,1,.09-2.29c-.4,0-.8,0-1.2,0a1.51,1.51,0,0,1-.06.41c0,.25-.11.5-.17.74,0,.08-.15.07-.14,0,0-.26,0-.51.06-.77a1.5,1.5,0,0,1,.05-.37c-.46,0-.92,0-1.38,0,0,.13-.08.27-.11.4-.09.31-.16.63-.22.95,0,.14-.23.07-.21-.06,0-.32.1-.64.17-1l.06-.31-.82.08c0,.45,0,.9,0,1.35,0,.13,0,.26.11.33a2.13,2.13,0,0,0,.62.12l.6.1a1,1,0,0,0,.39,0c.13,0,.17-.23.26-.33a.58.58,0,0,1,.46-.2c.42,0,.63.42.71.78a.6.6,0,0,0,.24.41,3.4,3.4,0,0,0,.45.28,1,1,0,0,0,.89.12,1.09,1.09,0,0,0,.47-.6A9.13,9.13,0,0,0,47,44.44Zm-4.13.3s0,0,0,0S42.84,44.74,42.83,44.74Z"/><path class="a1a3c660-f063-4a30-a001-b6bf7cd704a9" d="M44.12,46.34h0Z"/><path class="b245b6f8-e482-4a98-a82b-a63dcf340f79" d="M27,41.87a1.24,1.24,0,0,1-.08-1.39,0,0,0,0,1,.06,0,1.26,1.26,0,0,0,.21,1.24.94.94,0,0,0,.72.27,1,1,0,0,1-.68-.81c-.14-1.05.85-1.76,1.49-2.43a.8.8,0,0,0-.32-.12,5.12,5.12,0,0,0-1.69,1.51c-.47.79-.32,2,.81,2.08h.16A1.22,1.22,0,0,1,27,41.87Z"/><path class="ae98dcba-80ef-4d7f-9570-6c2eaf43883a" d="M38.63,45.09l-.13,0a3.44,3.44,0,0,1-.24,1.22c0,.06-.11,0-.11,0a4.34,4.34,0,0,1,0-1.08l-.28.1-.49.18A7.84,7.84,0,0,1,37.23,47a.06.06,0,0,1-.11,0,7.3,7.3,0,0,0,0-.81,3.13,3.13,0,0,1,0-.53l-1.19.46a7.19,7.19,0,0,1,0,2.12s-.06,0-.06,0a8.63,8.63,0,0,1-.12-2l-1.25.44a5.77,5.77,0,0,1,0,.83,3.24,3.24,0,0,1-.06.88c0,.06-.09,0-.11,0a3.13,3.13,0,0,1-.14-.81,7,7,0,0,1-.06-.79l-.59.16a.22.22,0,0,1,0,.08,5.17,5.17,0,0,0,.13,1.3,4.18,4.18,0,0,0,.19.6.53.53,0,0,0,.06.1h0a1.63,1.63,0,0,0,.31,0l1.27-.05h.37a.32.32,0,0,0,.14,0l0,0a0,0,0,0,1,0,0,1.09,1.09,0,0,0,.08-.15c.12-.28.25-.55.56-.63s.65.18,1,.2a1,1,0,0,0,.76-.25,1.35,1.35,0,0,0,.37-.81,5.56,5.56,0,0,0,0-1.08A9.21,9.21,0,0,0,38.63,45.09Z"/><path class="a901e490-99fa-4cca-b382-b652c5cfedf8" d="M26.74,41.43c-.21,1.85,1.11,2.43,2.43,1.62a10.16,10.16,0,0,0,.73-3.26c.05-.52.09-1,.11-1.54,0-.73.12-.83-.44-1.14-.53.83-1.38,1.46-1.92,2.29A5.23,5.23,0,0,0,26.74,41.43Z"/><path class="ae98dcba-80ef-4d7f-9570-6c2eaf43883a" d="M20.72,44.38c-.27,0-.54-.06-.82-.08,0,.1,0,.2.06.3q.11.48.18,1c0,.14-.19.2-.21.06-.07-.32-.14-.64-.22-.95,0-.13-.09-.26-.12-.4h-.14c-.41,0-.82,0-1.24,0a1.19,1.19,0,0,1,.06.37c0,.26.05.51.06.77a.07.07,0,0,1-.14,0c-.07-.25-.12-.5-.17-.75a1.45,1.45,0,0,1-.06-.41l-1.2,0a6.09,6.09,0,0,1,.09,2.29c0,.09-.15.06-.15,0,0-.38,0-.76-.07-1.14s-.14-.74-.15-1.11l-.38,0-.58.06s0,0,0,0a11.56,11.56,0,0,1-.06,1.44,1.9,1.9,0,0,0,.18,1,.83.83,0,0,0,.53.47,1.36,1.36,0,0,0,1-.31c.13-.08.32-.17.39-.32s.07-.31.13-.46c.13-.35.52-.68.91-.49.19.09.24.25.36.4a.32.32,0,0,0,.26.09,6.26,6.26,0,0,0,1.14-.16c.11,0,.32,0,.39-.13a.82.82,0,0,0,0-.44C20.75,45.16,20.74,44.77,20.72,44.38Z"/><path class="ae98dcba-80ef-4d7f-9570-6c2eaf43883a" d="M28.39,46.77a6.65,6.65,0,0,1-.06.77,3.71,3.71,0,0,1-.14.81s-.1.06-.11,0a3.24,3.24,0,0,1-.06-.88,5.49,5.49,0,0,1,0-.81c-.42-.14-.84-.3-1.25-.46a8.51,8.51,0,0,1-.12,2,0,0,0,0,1-.06,0,7.11,7.11,0,0,1-.05-2.11l-.73-.28-.46-.18a3.13,3.13,0,0,1,0,.53,7.24,7.24,0,0,0,0,.81c0,.07-.11.06-.11,0a7.84,7.84,0,0,1-.15-1.45l-.77-.28a4.87,4.87,0,0,1,0,1.08c0,.07-.1.08-.11,0A3.46,3.46,0,0,1,24,45.13l-.12,0a6.84,6.84,0,0,0-.18,1.19,3.83,3.83,0,0,0,0,1.17,1.09,1.09,0,0,0,.47.69,1,1,0,0,0,.79.1,5.22,5.22,0,0,1,.56-.18.7.7,0,0,1,.52.15c.2.17.24.43.38.64a.08.08,0,0,1,0,0h0l0,0a.68.68,0,0,0,.2,0l.61,0,1.25,0h0l0,0s0,0,0,0,.05-.14.08-.21.11-.37.16-.56A5.14,5.14,0,0,0,29,47v0Z"/><path class="a1a3c660-f063-4a30-a001-b6bf7cd704a9" d="M18.34,46.35s0-.06,0,0Z"/><path class="bf98bee9-fbe0-4d53-bc0a-9d6d8c6b106d" d="M54.76,32.87A9,9,0,0,0,55,36.05a11.16,11.16,0,0,1,.58,3.13A4.35,4.35,0,0,1,55.05,41l0,.09a4.25,4.25,0,0,0,.29.56,2.12,2.12,0,0,0,2,1.14,2.31,2.31,0,0,0,1.81-1.62,7,7,0,0,0,.31-1.56c.07-.63.12-1.27.16-1.9s.07-1.19.16-1.77a11.88,11.88,0,0,1,.4-1.69,12.59,12.59,0,0,1,1.5-3,7.83,7.83,0,0,0,1.37-2.81,3.49,3.49,0,0,0-2.45-3.89,3.38,3.38,0,0,0-2.31.42,3.45,3.45,0,0,0-1.61,1.7.05.05,0,0,1,0,0,2.85,2.85,0,0,1-.12.58c-.33.93-.7,1.83-1,2.76A12.76,12.76,0,0,0,54.76,32.87ZM56,30.59c.65-1.81,2-3.91,4-4.41a1.67,1.67,0,0,1,2.1.94,3,3,0,0,1-.52,2.66,0,0,0,0,1-.09,0c.27-.86.69-2.29-.27-2.91s-2.13.26-2.78.85l-.18.17a2.06,2.06,0,0,1,1.66-.17c1.16.5,1,2,.58,2.93,0,0-.06,0-.05,0,.07-.9.27-2.42-1-2.6a3,3,0,0,0-2.25,1.09A7.5,7.5,0,0,0,56,32.45,5.58,5.58,0,0,0,56.41,35a6.37,6.37,0,0,1,.72,2.38c0,.93-.47,1.8-.45,2.72s1.07.62,1.4.06a1.52,1.52,0,0,0,.22-.69c0-.48-.44-1-.83-.44-.13.18-.48.07-.39-.17a.88.88,0,0,1,1.66,0,1.92,1.92,0,0,1-.93,2.23,1,1,0,0,1-1.59-.72c-.19-1.19.61-2.31.37-3.52s-.86-2-1-3.09A6.71,6.71,0,0,1,56,30.59Z"/><path class="bfea3b5f-2a18-4e74-9d75-306d2ada1a64" d="M34.15,47.3a.56.56,0,0,1,.19.37,1.83,1.83,0,0,1,.7-1,.47.47,0,0,1,.2-.06c.22,0,.34.24.41.44a6.61,6.61,0,0,1,.22,1,4,4,0,0,1,.52-1.39.49.49,0,0,1,.37-.26.38.38,0,0,1,.32.24,1.14,1.14,0,0,1,.07.41,2.23,2.23,0,0,1,.22-.61.71.71,0,0,1,.52-.36.32.32,0,0,1,.25.07.41.41,0,0,1,.08.25l.06.73a1.91,1.91,0,0,1,.19-.52.35.35,0,0,1,.11-.13.24.24,0,0,1,.3.08.84.84,0,0,1,.12.31,3,3,0,0,0-.27-2.08.13.13,0,0,0,0-.07s-.12,0-.17,0q-2.44,1-5,1.87a.5.5,0,0,0-.31.19c-.11.2-.14.84.17.77S33.82,47.06,34.15,47.3Z"/><path class="bfea3b5f-2a18-4e74-9d75-306d2ada1a64" d="M28.11,47.3a.56.56,0,0,0-.19.37,1.83,1.83,0,0,0-.7-1,.47.47,0,0,0-.2-.06c-.22,0-.34.24-.41.44a6.61,6.61,0,0,0-.22,1,4,4,0,0,0-.52-1.39.49.49,0,0,0-.37-.26.38.38,0,0,0-.32.24,1.14,1.14,0,0,0-.07.41,2.23,2.23,0,0,0-.22-.61.71.71,0,0,0-.52-.36.31.31,0,0,0-.25.07.41.41,0,0,0-.08.25l-.06.73a1.91,1.91,0,0,0-.19-.52.35.35,0,0,0-.11-.13.24.24,0,0,0-.3.08.84.84,0,0,0-.12.31,3,3,0,0,1,.27-2.08.13.13,0,0,1,0-.07c.05,0,.12,0,.17,0q2.45,1,5,1.87a.5.5,0,0,1,.31.19c.11.2.14.84-.17.77S28.44,47.06,28.11,47.3Z"/><path class="bfea3b5f-2a18-4e74-9d75-306d2ada1a64" d="M42.05,44.69a.35.35,0,0,1,.17-.06.3.3,0,0,1,.24.3,2.77,2.77,0,0,0,0,.41,2.2,2.2,0,0,1,.65-.74.62.62,0,0,1,.29-.12.58.58,0,0,1,.5.31,1.91,1.91,0,0,1,.29.59c.18-.17.3-.41.5-.57a.51.51,0,0,1,.68,0,.6.6,0,0,1,.13.35c.05.3.11.6.16.9a2.39,2.39,0,0,1,.5-.68.78.78,0,0,1,.22-.15.46.46,0,0,1,.52.23,1.38,1.38,0,0,1,.16.6,5.84,5.84,0,0,0,.16-1.61.48.48,0,0,0-.11-.35A.54.54,0,0,0,46.9,44a11.26,11.26,0,0,0-2.66-.15c-.39,0-.79,0-1.18,0-.55,0-1.09.11-1.63.18,0,0,0,1,0,1S41.89,44.78,42.05,44.69Z"/><path class="bfea3b5f-2a18-4e74-9d75-306d2ada1a64" d="M20.21,44.69a.35.35,0,0,0-.17-.06.3.3,0,0,0-.24.3,2.77,2.77,0,0,1,0,.41,2.2,2.2,0,0,0-.65-.74.62.62,0,0,0-.29-.12.61.61,0,0,0-.51.31,2.13,2.13,0,0,0-.28.59c-.18-.17-.3-.41-.5-.57a.51.51,0,0,0-.68,0,.6.6,0,0,0-.13.35c-.05.3-.11.6-.16.9a2.6,2.6,0,0,0-.5-.68.7.7,0,0,0-.23-.15.46.46,0,0,0-.51.23,1.38,1.38,0,0,0-.16.6A5.84,5.84,0,0,1,15,44.42a.48.48,0,0,1,.11-.35.54.54,0,0,1,.22-.09A11.26,11.26,0,0,1,18,43.83c.39,0,.79,0,1.18,0,.55,0,1.09.11,1.63.18,0,0,0,1,0,1S20.37,44.78,20.21,44.69Z"/><path class="e19425e5-d579-402b-affc-9a65f4281e10" d="M33.42,48.4a.46.46,0,0,0,.57.26.6.6,0,0,0,.4-.52.8.8,0,0,0,.32.42.58.58,0,0,0,.26,0,.83.83,0,0,0,.8-.42.13.13,0,0,0,.21,0,.82.82,0,0,0,.19-.22.87.87,0,0,1,1-.28c.25.09.47.3.73.27a.92.92,0,0,0,.55-.44,2.22,2.22,0,0,0-.09.37,3.67,3.67,0,0,0,.64-.72,1.39,1.39,0,0,1-.35,1.11,1.27,1.27,0,0,1-1.1.1,1.08,1.08,0,0,0-.83,0c-.28.17-.32.56-.54.79a1.35,1.35,0,0,1-1,.27H33.87a.52.52,0,0,1-.28-.05.55.55,0,0,1-.15-.19,2.87,2.87,0,0,1-.22-1.09C33.29,48.23,33.38,48.28,33.42,48.4Z"/><path class="e19425e5-d579-402b-affc-9a65f4281e10" d="M28.84,48.4a.46.46,0,0,1-.57.26.6.6,0,0,1-.4-.52.8.8,0,0,1-.32.42.58.58,0,0,1-.26,0,.83.83,0,0,1-.8-.42.13.13,0,0,1-.21,0,.82.82,0,0,1-.19-.22.87.87,0,0,0-1-.28c-.25.09-.47.3-.73.27a.92.92,0,0,1-.55-.44,2.22,2.22,0,0,1,.09.37,3.67,3.67,0,0,1-.64-.72,1.42,1.42,0,0,0,.34,1.11,1.28,1.28,0,0,0,1.1.1,1.11,1.11,0,0,1,.84,0c.27.17.32.56.54.79a1.34,1.34,0,0,0,1,.27h1.29a.54.54,0,0,0,.28-.05.55.55,0,0,0,.15-.19A3.07,3.07,0,0,0,29,48.13C29,48.23,28.88,48.28,28.84,48.4Z"/><path class="e19425e5-d579-402b-affc-9a65f4281e10" d="M41.47,45.23a.52.52,0,0,0,.5.42.68.68,0,0,0,.58-.34.49.49,0,0,0,.38.51,1.11,1.11,0,0,0,.69-.1,3.23,3.23,0,0,0,.49-.25.22.22,0,0,1,.13-.06.26.26,0,0,1,.15,0l.69.19a.71.71,0,0,0,.06.76.49.49,0,0,0,.27.26c.13,0,.29-.06.27-.19a.52.52,0,0,0,.38.55.77.77,0,0,0,.66-.19,2.1,2.1,0,0,0,.43-.55,1.14,1.14,0,0,1-.16.88,1.13,1.13,0,0,1-.75.49,1,1,0,0,1-.35,0,1.33,1.33,0,0,1-1-.54,3.66,3.66,0,0,1-.29-.67.42.42,0,0,0-.1-.17.37.37,0,0,0-.21-.1c-.48-.08-.87.42-1.34.49a1.27,1.27,0,0,1-.64-.09,3.85,3.85,0,0,1-.81-.41.35.35,0,0,1-.13-.11.42.42,0,0,1-.05-.25c0-.3,0-.61,0-.91A1.11,1.11,0,0,1,41.47,45.23Z"/><path class="e19425e5-d579-402b-affc-9a65f4281e10" d="M20.79,45.23a.52.52,0,0,1-.5.42.68.68,0,0,1-.58-.34.49.49,0,0,1-.38.51,1.11,1.11,0,0,1-.69-.1,3.23,3.23,0,0,1-.49-.25.22.22,0,0,0-.13-.06.26.26,0,0,0-.15,0l-.69.19a.73.73,0,0,1-.06.76.49.49,0,0,1-.27.26c-.13,0-.29-.06-.27-.19a.52.52,0,0,1-.38.55.77.77,0,0,1-.66-.19,2.1,2.1,0,0,1-.43-.55,1.14,1.14,0,0,0,.16.88,1.13,1.13,0,0,0,.75.49,1,1,0,0,0,.35,0,1.33,1.33,0,0,0,1-.54,3.66,3.66,0,0,0,.29-.67.42.42,0,0,1,.1-.17.37.37,0,0,1,.21-.1c.48-.08.87.42,1.34.49a1.27,1.27,0,0,0,.64-.09,3.85,3.85,0,0,0,.81-.41.35.35,0,0,0,.13-.11.42.42,0,0,0,0-.25c0-.3,0-.61,0-.91A1.11,1.11,0,0,0,20.79,45.23Z"/><path class="bb664869-0cc5-4ea3-9128-f43732a3fb69" d="M53,36.93a2.92,2.92,0,0,1-.35,2.23c.32-.22.62-.45.91-.69a4.73,4.73,0,0,1-2.55,3,4.65,4.65,0,0,1-3.88,0,5.83,5.83,0,0,0,5.07-2.83C52.33,38.31,53.08,37.25,53,36.93Z"/><path class="bb664869-0cc5-4ea3-9128-f43732a3fb69" d="M9.31,36.93a2.92,2.92,0,0,0,.35,2.23c-.32-.22-.62-.45-.91-.69a4.73,4.73,0,0,0,2.55,3,4.65,4.65,0,0,0,3.88,0,5.83,5.83,0,0,1-5.07-2.83C9.93,38.31,9.18,37.25,9.31,36.93Z"/><path class="bb664869-0cc5-4ea3-9128-f43732a3fb69" d="M53,28.35a5.85,5.85,0,0,0,.48-1.05A11.76,11.76,0,0,1,53.65,31,15.45,15.45,0,0,0,55.24,26a1.76,1.76,0,0,0-.64.66l-.3-1.33c-.12.07-.15.24-.2.38s-.18.3-.32.25a.39.39,0,0,1-.17-.19,17.53,17.53,0,0,0-3-4.41,24.33,24.33,0,0,1,1.22,3,15,15,0,0,1,.74,2C52.65,26.71,53.19,28,53,28.35Z"/><path class="bb664869-0cc5-4ea3-9128-f43732a3fb69" d="M9.25,28.35a6.64,6.64,0,0,1-.48-1.05A11.76,11.76,0,0,0,8.61,31,15.19,15.19,0,0,1,7,26a1.81,1.81,0,0,1,.63.66L8,25.37c.13.07.16.24.2.38s.18.3.32.25a.39.39,0,0,0,.17-.19,17.53,17.53,0,0,1,3-4.41,24.33,24.33,0,0,0-1.22,3,15,15,0,0,0-.74,2C9.6,26.71,9.07,28,9.25,28.35Z"/><path class="bb664869-0cc5-4ea3-9128-f43732a3fb69" d="M31.13,37.73l.3-.46a2.65,2.65,0,0,1,.93-.86,1.68,1.68,0,0,1,1.78.11A2.83,2.83,0,0,0,32,35l.5.48a2.87,2.87,0,0,0-1.39.43,2.83,2.83,0,0,0-1.38-.43l.5-.48a2.85,2.85,0,0,0-2.13,1.56,1.68,1.68,0,0,1,1.78-.11,2.59,2.59,0,0,1,.94.86C30.89,37.36,31,37.54,31.13,37.73Z"/><path class="ed96c18a-4141-420a-9981-6750a8cf1d40" d="M46.29,40.8a1.12,1.12,0,0,1-.51-.15.32.32,0,0,1-.2-.29c0-.13.14-.21.25-.27A2.71,2.71,0,0,1,47,39.84c-.16-.05-.35-.15-.32-.31s.13-.16.23-.2A5,5,0,0,1,48.5,39a.25.25,0,0,1-.2-.26.5.5,0,0,1,.15-.32,1.43,1.43,0,0,1,.85-.5.66.66,0,0,1-.21-.56.52.52,0,0,1,.42-.32,3.33,3.33,0,0,0,.53-.11.74.74,0,0,1-.44-.56.66.66,0,0,1,.36-.59,2,2,0,0,1,.71-.18,1.11,1.11,0,0,1-.32-.25.36.36,0,0,1-.07-.37c.08-.19.32-.23.52-.24a1.1,1.1,0,0,1-.38-.29.34.34,0,0,1,0-.44c.18-.15.48,0,.68-.11a1.29,1.29,0,0,1-.47-.4.12.12,0,0,1,0-.1s0-.05.06-.07a.63.63,0,0,1,.4-.1.71.71,0,0,1-.36-.47c0-.19.14-.39.33-.36a1.33,1.33,0,0,1-.34-.37.46.46,0,0,1,0-.48.67.67,0,0,1,.67-.13,5.12,5.12,0,0,0-1.31-2A13.33,13.33,0,0,1,49,36.12a6.11,6.11,0,0,1-3.15,3.14c-.28.11-.57.21-.85.3l-1.12.34a2.92,2.92,0,0,1-1.75.12,6.3,6.3,0,0,0,3.11,1,2.1,2.1,0,0,0,1.69-.25A2.78,2.78,0,0,1,46.29,40.8Z"/><path class="ed96c18a-4141-420a-9981-6750a8cf1d40" d="M51.49,31.86a1,1,0,0,1-.37,1.23.85.85,0,0,1,.45.33c.08.17,0,.43-.21.42a1.21,1.21,0,0,1,.3.25.38.38,0,0,1,.07.37.57.57,0,0,1-.47.23,1,1,0,0,1,.35.39.37.37,0,0,1,.06.22.35.35,0,0,1-.24.26.93.93,0,0,1-.37,0c.16.09.35.24.31.41a.28.28,0,0,1-.22.19.7.7,0,0,1-.29,0c.1.07.22.15.25.27a.37.37,0,0,1-.21.41,1,1,0,0,1-.48.09,1.1,1.1,0,0,1,.25.23.12.12,0,0,1,0,.09c0,.05,0,.07-.09.09a1.4,1.4,0,0,1-.49.15.48.48,0,0,1,.08.49,1.12,1.12,0,0,1-.3.42,2.28,2.28,0,0,1-1.17.43c.16,0,.23.22.14.36a.67.67,0,0,1-.41.24,8,8,0,0,1-1.37.22.37.37,0,0,1,.27.32.5.5,0,0,1-.16.41,6.7,6.7,0,0,0,4.47-3.94,4.77,4.77,0,0,0,.37-1.82q0-.34-.06-.69l-.12-1.11a5.65,5.65,0,0,0-.16-.93,2.55,2.55,0,0,0-.26-.61C51.53,31.54,51.38,31.65,51.49,31.86Z"/><path class="ed96c18a-4141-420a-9981-6750a8cf1d40" d="M18.76,9.66a3.27,3.27,0,0,1-.35,1.27c-.19.55-.25,1.15-.45,1.7a7,7,0,0,1-.69,1.26.64.64,0,0,1-.32.29c-.2.05-.39-.11-.56-.23a.65.65,0,0,0-.68-.08.92.92,0,0,0-.22.22l-.92,1.23a1.35,1.35,0,0,1-.39.4,1.6,1.6,0,0,0-.81-.73,2.6,2.6,0,0,0,.56-.06.2.2,0,0,0,.17-.12.12.12,0,0,0,0-.1.88.88,0,0,0-.57-.39c.44-.15.88-.32,1.31-.51a.47.47,0,0,0,.19-.12c.11-.15,0-.36-.09-.52l1.06.3c.12,0,.29,0,.35-.06s0-.23-.12-.29S16,13,15.9,13a1.28,1.28,0,0,0,.55-.1c.08,0,.17-.09.18-.17s-.13-.21-.26-.25a6.89,6.89,0,0,0-1.2-.24s0,0,0,0,0,0,0,0a8.06,8.06,0,0,1,1.62-.35c.09,0,.21-.05.21-.14a.17.17,0,0,0-.13-.13,1.05,1.05,0,0,1-.19-.05.83.83,0,0,0,.42-.08.28.28,0,0,0,.14-.36c-.06-.12-.22-.15-.36-.16a10.93,10.93,0,0,0-1.4,0c.54-.2,1.14-.18,1.69-.36a.58.58,0,0,0,.25-.12.27.27,0,0,0,.09-.25c-.05-.16-.26-.19-.43-.18a3.2,3.2,0,0,0-.68.16l.76-.34s.08,0,.07-.08a.07.07,0,0,0,0-.06,1.53,1.53,0,0,0-.51-.21l-1.26-.33L16.11,9a.09.09,0,0,0,.07,0c.06-.05,0-.15-.09-.19a2,2,0,0,0-.76-.16,6.76,6.76,0,0,0,1.08-.25c.11,0,.24-.11.21-.21A.19.19,0,0,0,16.53,8a.68.68,0,0,0-.44-.12l.77-.14a.6.6,0,0,0-.35-.33A2,2,0,0,0,16,7.33a2.18,2.18,0,0,0,.91-.22l.06,0c0-.05,0-.13,0-.18a1.81,1.81,0,0,0-.46-.32l-.6-.32c.38,0,.74,0,1.12.1a.85.85,0,0,1,.38.12.49.49,0,0,1,.13.12,1.27,1.27,0,0,1,.1,1.08c-.11.36-.29.69-.38,1.05a.22.22,0,0,0,0,.16.32.32,0,0,0,.17.19,2.38,2.38,0,0,0,.82.3C18.43,9.41,18.75,9.44,18.76,9.66Z"/><path class="ed96c18a-4141-420a-9981-6750a8cf1d40" d="M12.68,15a1.73,1.73,0,0,1-.45-.1.47.47,0,0,1-.26-.36.61.61,0,0,1,.21-.4,2.8,2.8,0,0,1,.74-.58,1.74,1.74,0,0,1-.64-.09c-.07,0-.15-.07-.16-.14s.2-.2.28-.32a2.65,2.65,0,0,1-1.34,0c-.07,0-.15,0-.15-.12s.05-.08.09-.11a10,10,0,0,1,1.11-.5l-.55-.06c-.1,0-.23,0-.26-.14s.12-.21.23-.25l1.11-.39c-.11-.1-.28-.08-.43-.1s-.34-.09-.34-.24a.34.34,0,0,1,.17-.25,2.37,2.37,0,0,1,1-.44c-.06-.09-.19-.07-.29-.05s-.24,0-.25-.11,0-.1.09-.14a1.37,1.37,0,0,1,.57-.27.31.31,0,0,1-.31-.23A.35.35,0,0,1,13,9.3a1.11,1.11,0,0,1,.31-.15L14,8.89c-.14-.08-.36,0-.42-.16s0-.18.09-.25A4.33,4.33,0,0,1,15,7.5c-.07,0-.22,0-.24-.08s0-.09.08-.12a5.73,5.73,0,0,1,.84-.46c-.14-.06-.1-.27,0-.38s.24-.2.25-.35a.78.78,0,0,0-.47.19,15.47,15.47,0,0,0-5,5A3.92,3.92,0,0,0,10,12.8a1,1,0,0,0,.21.78.87.87,0,0,0,.64.24,2.21,2.21,0,0,0,.67-.13c.09.07,0,.23,0,.34l-.15.48a1.49,1.49,0,0,0-.08.41.44.44,0,0,0,.18.36.64.64,0,0,0,.54,0L13,15A.88.88,0,0,0,12.68,15Z"/><path d="M62.08,28a1.62,1.62,0,0,0-.84-1.54,2,2,0,0,0-1.7.22A6.69,6.69,0,0,0,57,29.08a10.56,10.56,0,0,0-1.27,3.22,5,5,0,0,1-.33-2.4,9.35,9.35,0,0,0-.92,5.4,16.42,16.42,0,0,1,.26,2.08A6.86,6.86,0,0,1,54,40.2a2.64,2.64,0,0,0,0-.63.86.86,0,0,0-.32-.54c0,.31-.08.65-.14.95a2.92,2.92,0,0,1-.85,1.4,5.17,5.17,0,0,1-1,.8,5.37,5.37,0,0,1-2.89.68c-1,0-2-.19-3-.3a11.85,11.85,0,0,0-5.77.52l-1.81.74a5.19,5.19,0,0,1-1.59.46.43.43,0,0,1-.33-.07c-.19-.17,0-.47.17-.65a9.29,9.29,0,0,0-1.77.42A2.43,2.43,0,0,1,33,43.92l.76.62a6.58,6.58,0,0,1-2.61.26,6.59,6.59,0,0,1-2.61-.26l.76-.62A2.43,2.43,0,0,1,27.5,44a9.11,9.11,0,0,0-1.77-.42c.18.18.36.48.17.65a.41.41,0,0,1-.33.07A5.27,5.27,0,0,1,24,43.82l-1.8-.74a11.89,11.89,0,0,0-5.78-.52,30,30,0,0,1-3,.3,5.33,5.33,0,0,1-2.89-.68,4.92,4.92,0,0,1-1-.8A3.09,3.09,0,0,1,8.71,40c-.06-.3-.09-.64-.13-.95a.88.88,0,0,0-.33.54,2.64,2.64,0,0,0,0,.63,7.19,7.19,0,0,1-.73-2.82,18.5,18.5,0,0,1,.27-2.08,9.42,9.42,0,0,0-.92-5.4,5,5,0,0,1-.34,2.4,8.24,8.24,0,0,0-1.27-3.22,6.73,6.73,0,0,0-.68-.91c-.53.69-1.13,1.19-1,2a3.46,3.46,0,0,1,.48.46,5.68,5.68,0,0,1,1,5.65,3.12,3.12,0,0,0-.2,2.18.82.82,0,0,0-1.1.44,1.52,1.52,0,0,0,.17,1.29,1.8,1.8,0,0,0,.89.79,1.07,1.07,0,0,0,1.12-.23,1.14,1.14,0,0,1-1.3.91c.28.41.89.35,1.38.26a1.08,1.08,0,0,1-1.09.33,2.17,2.17,0,0,1-1-.62,4,4,0,0,1-1.12-2.24,3.08,3.08,0,0,0,.55,2.78A2.36,2.36,0,0,0,6,42.86a4,4,0,0,0,1.56-1.64A5.75,5.75,0,0,0,10.94,44a10.09,10.09,0,0,0,4,.19,27.71,27.71,0,0,1,4-.33,19.41,19.41,0,0,1,5.09,1.07,46.17,46.17,0,0,0,5.23,1.69,18.5,18.5,0,0,0,2,.19,19,19,0,0,0,2-.19,44.7,44.7,0,0,0,5.22-1.69,19.41,19.41,0,0,1,5.09-1.07,27.85,27.85,0,0,1,4,.33A10,10,0,0,0,51.33,44a5.75,5.75,0,0,0,3.39-2.74,4,4,0,0,0,1.56,1.64A2.36,2.36,0,0,0,59,42.21a3.07,3.07,0,0,0,.55-2.78,4,4,0,0,1-1.12,2.24,2.17,2.17,0,0,1-1,.62A1.09,1.09,0,0,1,56.28,42c.49.09,1.1.15,1.39-.26a1.14,1.14,0,0,1-1.31-.91,1.07,1.07,0,0,0,1.12.23,1.8,1.8,0,0,0,.89-.79,1.52,1.52,0,0,0,.17-1.29.82.82,0,0,0-1.1-.44,3.18,3.18,0,0,0-.2-2.18,5.66,5.66,0,0,1,1-5.65,1.94,1.94,0,0,1,1.16-.75.88.88,0,0,1,1,.74,5.16,5.16,0,0,0,.32-2c0-.19,0-.42.15-.52s.44.08.54.28a2.83,2.83,0,0,1,.17,1.39A4.72,4.72,0,0,0,62.08,28Z"/><path d="M34.26,28.66a6.08,6.08,0,0,0-.16,2.4,10.25,10.25,0,0,1-.65-5,12.2,12.2,0,0,0,.41,8.7,12.22,12.22,0,0,0,2.3,3.28,6.49,6.49,0,0,1-.82-2.25,5.88,5.88,0,0,0,3.45,2.88,10.28,10.28,0,0,1-2.46-5A9.3,9.3,0,0,1,36,32a8.48,8.48,0,0,1,.33-2.6A9.13,9.13,0,0,1,38.82,25a5.57,5.57,0,0,1,4.68-1.52.72.72,0,0,1,.57-.11c.19,0,.37.12.55.16s.48.05.71.12A2,2,0,0,1,46,24a9.84,9.84,0,0,0,1.56,1.18,2,2,0,0,1,.46.29,1.54,1.54,0,0,1,.25.32l1.08,1.75a9.74,9.74,0,0,0-1.12-3.05c.15.05.29,0,.45.07a12.73,12.73,0,0,0-2.5-2,6.18,6.18,0,0,0-1.86-.82,6.57,6.57,0,0,0-1.88-.1,9.42,9.42,0,0,0-2.29.41,6.72,6.72,0,0,0-2.49,1.54,9,9,0,0,0-2.94,6.78A11.24,11.24,0,0,1,34.26,28.66Z"/><path d="M12.94,27.53,14,25.78a2.6,2.6,0,0,1,.25-.33,2.35,2.35,0,0,1,.46-.28A9.92,9.92,0,0,0,16.29,24a1.81,1.81,0,0,1,.64-.38c.23-.07.47-.07.71-.12s.36-.12.55-.16a.71.71,0,0,1,.57.11A5.57,5.57,0,0,1,23.44,25a9.14,9.14,0,0,1,2.46,4.39,8.47,8.47,0,0,1,.32,2.6,9.44,9.44,0,0,1-.29,1.74,10.32,10.32,0,0,1-2.46,5,5.92,5.92,0,0,0,3.45-2.88,6.49,6.49,0,0,1-.82,2.25,12,12,0,0,0,2.3-3.28,12.2,12.2,0,0,0,.41-8.7,10.32,10.32,0,0,1-.64,4.95A6.2,6.2,0,0,0,28,28.66a11.24,11.24,0,0,1-.44,1.68,9,9,0,0,0-2.93-6.78A6.8,6.8,0,0,0,22.14,22a9.41,9.41,0,0,0-2.3-.41,6.52,6.52,0,0,0-1.87.1,6.07,6.07,0,0,0-1.86.82,12.17,12.17,0,0,0-2.5,2c.15-.06.29,0,.45-.07A9.74,9.74,0,0,0,12.94,27.53Z"/><path class="b45b8f11-46dc-4e6f-a322-2403f07b55a1" d="M49.66,26.34c0-.09-.1-.18-.16-.27A1.91,1.91,0,0,0,49.66,26.34Z"/><path class="b45b8f11-46dc-4e6f-a322-2403f07b55a1" d="M49.66,26.34a3.48,3.48,0,0,1,.43,1.32.28.28,0,0,1-.08.28c-.1.07-.22,0-.32-.06l-.58-.39a14.55,14.55,0,0,1,2.78,4.93,6.09,6.09,0,0,1,.19-1.31,11.22,11.22,0,0,0,0-1.42,10.69,10.69,0,0,0-.47-2.7c-.08-.28-.18-.75-.51-.87s-.27.06-.3.39C50.75,27.52,50.05,26.9,49.66,26.34Z"/><path class="b45b8f11-46dc-4e6f-a322-2403f07b55a1" d="M12.6,26.34a1.91,1.91,0,0,0,.16-.27C12.7,26.16,12.65,26.25,12.6,26.34Z"/><path d="M13.15,27.49l-.58.39c-.09.06-.22.13-.32.06a.28.28,0,0,1-.08-.28,3.48,3.48,0,0,1,.43-1.32c-.39.56-1.09,1.18-1.18.17,0-.33.11-.52-.29-.39s-.43.59-.51.87a10.69,10.69,0,0,0-.47,2.7,11.22,11.22,0,0,0,0,1.42,6.09,6.09,0,0,1,.19,1.31A14.22,14.22,0,0,1,13.15,27.49Z"/><path d="M36.39,43.13a2.37,2.37,0,0,0,1.2-.45,1.77,1.77,0,0,0,.49-1.42,3.21,3.21,0,0,0-1.27-2.41,3.76,3.76,0,0,1,.52,1.65,2,2,0,0,1-.58,1.58,4.82,4.82,0,0,0-.07-1.2,1.54,1.54,0,0,0-.67-1,4.23,4.23,0,0,1,.34,1.15A1.45,1.45,0,0,1,36,42.17a1.73,1.73,0,0,1-1.22.38,1.49,1.49,0,0,1-.69-.13,1.29,1.29,0,0,1-.42-.35,3.14,3.14,0,0,1-.75-1.43,1.41,1.41,0,0,0-.33,1,4,4,0,0,0,.17,1,1.59,1.59,0,0,1-.64-.86,4.29,4.29,0,0,1-.19-1.07,2,2,0,0,1-.61.33l-.19,0-.2,0a2.08,2.08,0,0,1-.6-.33,4.8,4.8,0,0,1-.19,1.07,1.59,1.59,0,0,1-.64.86,4,4,0,0,0,.17-1,1.41,1.41,0,0,0-.33-1,3.34,3.34,0,0,1-.75,1.43,1.4,1.4,0,0,1-.42.35,1.51,1.51,0,0,1-.7.13,1.72,1.72,0,0,1-1.21-.38,1.4,1.4,0,0,1-.35-1.11,4.23,4.23,0,0,1,.34-1.15,1.54,1.54,0,0,0-.67,1,4.79,4.79,0,0,0-.07,1.2,2,2,0,0,1-.58-1.58,3.88,3.88,0,0,1,.51-1.65,3.17,3.17,0,0,0-1.26,2.41,1.77,1.77,0,0,0,.49,1.42,2.37,2.37,0,0,0,1.2.45,1.28,1.28,0,0,1-.45-.5,7.75,7.75,0,0,0,2.34.85A3.12,3.12,0,0,0,30.14,43a2.86,2.86,0,0,1,.41-.3,1.17,1.17,0,0,1,.58-.12,1.11,1.11,0,0,1,.57.12,2.47,2.47,0,0,1,.42.3,3.1,3.1,0,0,0,2.37.53,7.71,7.71,0,0,0,2.35-.85A1.28,1.28,0,0,1,36.39,43.13Z"/><path d="M33.76,37a2.1,2.1,0,0,0-.43,0,1.59,1.59,0,0,0-1.28.87,2.56,2.56,0,0,0-.21,1.57c.06-.13.13-.25.2-.38a2.1,2.1,0,0,0,.49,1.5,3.6,3.6,0,0,1,.23-2.27,1,1,0,0,1,.68-.57,1.28,1.28,0,0,1,.43.06,2.9,2.9,0,0,1,1.24.76,4.73,4.73,0,0,0-.36-.71,2.42,2.42,0,0,1,1,.64A3,3,0,0,0,33.76,37Z"/><path d="M30.21,37.8a1.59,1.59,0,0,0-1.28-.87,2.18,2.18,0,0,0-.43,0,3,3,0,0,0-2,1.42,2.53,2.53,0,0,1,1-.64,5.26,5.26,0,0,0-.36.71,2.9,2.9,0,0,1,1.24-.76,1,1,0,0,1,.43-.05,1,1,0,0,1,.68.56,3.6,3.6,0,0,1,.23,2.27,2.1,2.1,0,0,0,.49-1.5c.07.13.14.25.2.38A2.56,2.56,0,0,0,30.21,37.8Z"/><path d="M29.1,24.82a2.56,2.56,0,0,0,1.52-.89l.06.64.24-.59a.27.27,0,0,1,.12-.17.1.1,0,0,1,.09,0,.08.08,0,0,1,.08,0,.28.28,0,0,1,.13.17l.23.59c0-.21.05-.43.07-.64a2.57,2.57,0,0,0,3.26.59,6.75,6.75,0,0,1-1.79-.34,2.52,2.52,0,0,0,1.24-.45,2.77,2.77,0,0,1-1.66-.12,1.41,1.41,0,0,0,.93-.53c.1-.12.33-.39.32-.55s-.19,0-.25,0a.83.83,0,0,1-.32.14,1,1,0,0,1-.85-.27,2,2,0,0,1-.46-1.31,8.69,8.69,0,0,1,0-1.35,2.46,2.46,0,0,1-.38.62.71.71,0,0,1-1.08,0,2.2,2.2,0,0,1-.38-.62,8.69,8.69,0,0,1,0,1.35,2,2,0,0,1-.46,1.31,1,1,0,0,1-.85.27.71.71,0,0,1-.32-.14c-.07,0-.25-.23-.25,0s.21.43.31.55a1.41,1.41,0,0,0,.94.53,2.78,2.78,0,0,1-1.66.12,2.59,2.59,0,0,0,1.24.45,6.82,6.82,0,0,1-1.8.34A2.6,2.6,0,0,0,29.1,24.82Z"/><path class="b45b8f11-46dc-4e6f-a322-2403f07b55a1" d="M53,34.44a.48.48,0,0,0,.45-.12.77.77,0,0,0,.27-.74.54.54,0,0,0-.63-.4l-.16,0a1.07,1.07,0,0,0-.17.85A.47.47,0,0,0,53,34.44Z"/><path class="b45b8f11-46dc-4e6f-a322-2403f07b55a1" d="M53.35,35.3a.64.64,0,0,0,0,.24.48.48,0,0,0-.31.17.74.74,0,0,0-.17.62.76.76,0,0,0,.37.52.43.43,0,0,0,.41,0,.52.52,0,0,0,.24-.35,2,2,0,0,0,0-1.12.36.36,0,0,0-.21-.28A.26.26,0,0,0,53.35,35.3Z"/><path d="M22.24,15.89a1.12,1.12,0,0,0,.47.18,1.43,1.43,0,0,0,1.34-.52,1.33,1.33,0,0,0,.13-1.42,1,1,0,0,0-.29-.32,1.22,1.22,0,0,0-.46-.13,1.52,1.52,0,0,0-1.57.91A1.2,1.2,0,0,0,22.24,15.89Z"/><path d="M24.13,17.24a1,1,0,0,0,.64.8,1.15,1.15,0,0,0,1.52-1.17,1,1,0,0,0-.73-.86A1.3,1.3,0,0,0,24.13,17.24Z"/><path d="M21.31,16.72a.55.55,0,0,0-.63-.75.54.54,0,0,0-.25.92A.59.59,0,0,0,21.31,16.72Z"/><path class="b45b8f11-46dc-4e6f-a322-2403f07b55a1" d="M49.73,24.7a.77.77,0,0,0,.68-.29.64.64,0,0,0-.06-.91.76.76,0,0,0-.47-.13.7.7,0,0,0-.73.88A.72.72,0,0,0,49.73,24.7Z"/><path class="b45b8f11-46dc-4e6f-a322-2403f07b55a1" d="M36.23,23.52a.94.94,0,0,0,.69-.56.73.73,0,0,0,.07-.29.6.6,0,0,0-.31-.47,1,1,0,0,0-.57-.1.72.72,0,1,0,.12,1.42Z"/><path class="b45b8f11-46dc-4e6f-a322-2403f07b55a1" d="M37.69,22.35a.46.46,0,0,0,.23.06.59.59,0,0,0,.52-.37.47.47,0,0,0-.25-.57.41.41,0,0,0-.55.24l0,0A.46.46,0,0,0,37.69,22.35Z"/><path d="M8.43,19.89a.7.7,0,0,0,.65-.1A2.16,2.16,0,0,0,10,18.46a1.09,1.09,0,0,0-.14-1c-.42-.45-1.13-.11-1.43.31a2.63,2.63,0,0,0-.29,1.71A.59.59,0,0,0,8.43,19.89Z"/><path d="M10.77,20.78a1,1,0,0,0,.65-.25l1.11-.78a3.08,3.08,0,0,0,.9-.86,1,1,0,0,0,0-1.17,1.12,1.12,0,0,0-.7-.3,2.19,2.19,0,0,0-2.06,1.28,2,2,0,0,0-.38,1.49A.72.72,0,0,0,10.77,20.78Z"/><path class="b45b8f11-46dc-4e6f-a322-2403f07b55a1" d="M10.28,21.25A.51.51,0,0,0,9.89,21c-.44,0-.78.68-.8,1.06a.57.57,0,0,0,0,.26.45.45,0,0,0,.27.2.78.78,0,0,0,.74-.17,1,1,0,0,0,.28-.72A.78.78,0,0,0,10.28,21.25Z"/><path d="M7.35,23.25c.13,0,.23-.1.29-.21.18-.34.31-.71.52-1a7.75,7.75,0,0,0,.51-.76.7.7,0,0,0,.08-.47.37.37,0,0,0-.32-.31.49.49,0,0,0-.24.08,2.77,2.77,0,0,0-1,2.37C7.18,23.05,7.22,23.22,7.35,23.25Z"/><path d="M28.58,7.92a.86.86,0,0,0,.73-.11C30,7.36,30.17,5.73,29,6,28.3,6.11,27.74,7.57,28.58,7.92Z"/><path class="bc369f87-8587-4409-89ea-fbc95c16e9e1" d="M15.56,7.73c-.21,0-.42,0-.62,0a.16.16,0,0,1,.15.1c0,.06-.07.17-.13.2a3.1,3.1,0,0,0-.73.46s-.08.08-.06.13a.11.11,0,0,0,.07,0l.24,0a.16.16,0,0,1,.12.18.22.22,0,0,1-.1.09c-.21.12-.42.24-.62.37.08.1.24.1.33.2a.3.3,0,0,1,0,.36.88.88,0,0,1-.29.25,3.73,3.73,0,0,1-.78.31,1.46,1.46,0,0,1,.41.11.53.53,0,0,1,.3.29.28.28,0,0,1,0,.2c0,.08-.12.13-.21.18l-.52.27s-.06,0-.05.07l0,0a1.5,1.5,0,0,0,.29.06.24.24,0,0,1,.23.16.21.21,0,0,1-.08.21.7.7,0,0,1-.21.11l-.5.19s0,.05,0,.08l.08.05a4.94,4.94,0,0,1,.48.13.43.43,0,0,1,.29.36c0,.17-.17.3-.32.39a4,4,0,0,1-.34.23.35.35,0,0,1,.19.1.14.14,0,0,1,0,.19.15.15,0,0,1-.09.06,1.38,1.38,0,0,0-.6.37.09.09,0,0,0,0,.06c0,.07.08.11.15.13a2.8,2.8,0,0,0,.5,0c-.08,0-.17-.12-.13-.21s.06-.06.1-.08c.34-.16.68-.31,1-.45.11,0,.24-.12.23-.24s-.11-.16-.21-.18a1,1,0,0,1-.3,0,1,1,0,0,1,.5-.42,1.83,1.83,0,0,0,.58-.32c-.19-.18-.56,0-.76-.19a5.74,5.74,0,0,0,.8-.26c.05,0,.1-.05.09-.1s0,0,0-.06c-.19-.12-.46-.09-.6-.26a.1.1,0,0,1,0-.07.15.15,0,0,1,.07-.11,4.09,4.09,0,0,1,1-.62,2.08,2.08,0,0,1-.82-.14.22.22,0,0,1-.09-.07c0-.06,0-.14.08-.19a1.46,1.46,0,0,1,.68-.34.52.52,0,0,1-.16-1c-.14-.07-.31-.18-.29-.34a.38.38,0,0,1,.16-.22.39.39,0,0,1-.15,0,.12.12,0,0,1-.07-.12.18.18,0,0,1,.05-.07,5.52,5.52,0,0,1,.71-.54.09.09,0,0,0,0,0S15.6,7.73,15.56,7.73Z"/><path class="bc369f87-8587-4409-89ea-fbc95c16e9e1" d="M49.86,37.4a1.56,1.56,0,0,1,.48-.08c-.11-.22-.45-.23-.64-.15s-.2.11-.21.21a.37.37,0,0,0,.15.3c.07.09.15.21.1.32a.33.33,0,0,1-.26.15l-.37.08a.28.28,0,0,0-.16.09.47.47,0,0,0,.29,0,1.69,1.69,0,0,0,.49-.13c.12-.05.25-.14.26-.27s-.11-.27-.19-.41a.11.11,0,0,1,0-.11A.12.12,0,0,1,49.86,37.4Z"/><path class="bc369f87-8587-4409-89ea-fbc95c16e9e1" d="M50.64,35.79a1.2,1.2,0,0,0-.38,0,.56.56,0,0,0-.38.21.34.34,0,0,0,0,.41.38.38,0,0,0,.16.12.94.94,0,0,0,.5.07l-.27-.17a.48.48,0,0,1-.11-.09.11.11,0,0,1,0-.12.1.1,0,0,1,.1-.05,1.15,1.15,0,0,1,.37,0,.81.81,0,0,1-.29-.12.05.05,0,0,1,0,0l0,0a.85.85,0,0,1,.52,0l-.09-.08Z"/><path class="bc369f87-8587-4409-89ea-fbc95c16e9e1" d="M50.93,34.74c.12-.05.27-.14.29-.27a.42.42,0,0,0-.58-.34c-.38.14.22.14.26.26s0,.09-.06.13a1,1,0,0,1-.3.2c.07.07.21,0,.28.1s0,.16,0,.23a.3.3,0,0,1-.22.11.75.75,0,0,0,.53,0,.15.15,0,0,0,.09-.06.08.08,0,0,0,0-.07.28.28,0,0,0-.1-.2A.88.88,0,0,0,50.93,34.74Z"/><path class="bc369f87-8587-4409-89ea-fbc95c16e9e1" d="M51.15,33.38a.44.44,0,0,0-.2,0v0a.15.15,0,0,0,0,.21.24.24,0,0,0,.23,0s.08,0,.09-.08a.14.14,0,0,0,0-.11Z"/><path class="bc369f87-8587-4409-89ea-fbc95c16e9e1" d="M50.93,31.67c0,.06.14.21.2.24a.33.33,0,0,0-.26,0,.48.48,0,0,1,.28.22.23.23,0,0,1-.08.31h.13v0c0,.14-.15.23-.18.36a.29.29,0,0,0,.23-.08.46.46,0,0,0,.11-.22C51.45,32.22,51.33,31.66,50.93,31.67Z"/><path class="bc369f87-8587-4409-89ea-fbc95c16e9e1" d="M48.67,38.47c-.12,0-.1.14,0,.21a.21.21,0,0,0,.18,0,.16.16,0,0,0,.16-.1C49,38.45,48.76,38.46,48.67,38.47Z"/><path class="bc369f87-8587-4409-89ea-fbc95c16e9e1" d="M47,40c-.33.05-.66.1-1,.18l-.12,0c-.07.05-.09.15,0,.19s.19,0,.26,0l.63-.14a.6.6,0,0,0,.3-.14.07.07,0,0,0,0-.07S47,40,47,40Z"/><path class="bc369f87-8587-4409-89ea-fbc95c16e9e1" d="M48.56,39.19l-1.4.13c-.07,0-.28.07-.18.18s.29,0,.37,0a8.65,8.65,0,0,1,.88-.05.64.64,0,0,0,.36-.14s0,0,0-.06Z"/><path class="a7a00f40-d5c3-4295-8b35-8e8a2f0141c1" d="M32.3,4.25a.38.38,0,0,0,.1.42.32.32,0,0,0,.19,0,2.64,2.64,0,0,0,.49-.08,1.32,1.32,0,0,1,1.05.1,3,3,0,0,0-1.79.69.5.5,0,0,1-.19.1.26.26,0,0,1-.15,0,6.32,6.32,0,0,1-.61-.22.51.51,0,0,1-.24-.16.55.55,0,0,1,0-.44,1.19,1.19,0,0,1,.24-.55,1.07,1.07,0,0,1,.45-.23c.16-.06.68-.33.83-.23C32.52,3.82,32.3,4,32.3,4.25Z"/><path class="a7a00f40-d5c3-4295-8b35-8e8a2f0141c1" d="M32.75,6.28a1.06,1.06,0,0,1,0,.53,2.43,2.43,0,0,0-.08.53A1.5,1.5,0,0,1,34,7.22a2.63,2.63,0,0,0-1.13.53.34.34,0,0,0-.11.18c0,.17.11.3.24.41a1.68,1.68,0,0,1,.59.95A.93.93,0,0,0,33,8.86a.65.65,0,0,0-.66.25.51.51,0,0,0,.09.67.79.79,0,0,0,.29.11,3.51,3.51,0,0,0,1.37,0c.3,0,.6-.12.9-.18a3.75,3.75,0,0,1-.49.38c.32,0,.56-.33.88-.33a4.84,4.84,0,0,1-.38.58s-.05.07-.09.08a.17.17,0,0,1-.12,0,3.86,3.86,0,0,0-1.36.32,7.79,7.79,0,0,1-1.18.28.87.87,0,0,1-.36,0,.66.66,0,0,1-.39-.36,1.63,1.63,0,0,1-.12-.9,4.56,4.56,0,0,1,.23-.88L32,7.46a8.05,8.05,0,0,0,.27-1,.87.87,0,0,0-.09-.65A.76.76,0,0,1,32.75,6.28Z"/><path class="a7a00f40-d5c3-4295-8b35-8e8a2f0141c1" d="M36.85,4.7a2.06,2.06,0,0,1,1.71-.22,6.18,6.18,0,0,0-.91.41,1.9,1.9,0,0,0-.71.67c-.08.14-.13.34,0,.44a4.48,4.48,0,0,0-.62.2,1.92,1.92,0,0,0-.88-1.08,6.08,6.08,0,0,1,.94-.89,2,2,0,0,1,1.21-.42,3.73,3.73,0,0,0-.38.28A2.09,2.09,0,0,0,36.85,4.7Z"/><path class="a7a00f40-d5c3-4295-8b35-8e8a2f0141c1" d="M35.94,7.87c.16.1.29.25.45.34a2.14,2.14,0,0,0,.83.19,7.51,7.51,0,0,1,1.41.29l-.37.15a1.1,1.1,0,0,1,.51.51A3.13,3.13,0,0,1,39,10a3.16,3.16,0,0,0-2.59-.83h-.09s-.08-.06-.1-.1A3,3,0,0,0,35.15,8s-.28-.11-.27-.16.2-.11.25-.12A1.1,1.1,0,0,1,35.94,7.87Z"/><path class="a7a00f40-d5c3-4295-8b35-8e8a2f0141c1" d="M35.45,11.13c.06.25,0,.51.06.77a1.68,1.68,0,0,1,.57-.45,4.18,4.18,0,0,0-.44,1.5,9.44,9.44,0,0,1,.91-.65A5.17,5.17,0,0,1,38,11.7a1.8,1.8,0,0,1,.8-.06,1.5,1.5,0,0,1-.65.67c-1,.67-2,1.34-3,2a1,1,0,0,1-.34.18c0-1.05,0-2.1,0-3.15,0-.19-.07-.58.18-.63S35.4,10.94,35.45,11.13Z"/><path class="a7a00f40-d5c3-4295-8b35-8e8a2f0141c1" d="M41,12.27a.89.89,0,0,1,0,.64A1.76,1.76,0,0,1,39.47,14a.67.67,0,0,1-.64-.22,5,5,0,0,1,.25.52.71.71,0,0,0,.41.39.81.81,0,0,0,.48-.08,7,7,0,0,0,1.12-.78,2.07,2.07,0,0,1,1.24-.49.49.49,0,0,0,.17,0c.16,0,.19-.27.17-.44a1.86,1.86,0,0,0-.93-1.36c-.3-.17-1-.44-1.29-.16S40.84,12,41,12.27Z"/><path class="a7a00f40-d5c3-4295-8b35-8e8a2f0141c1" d="M44.23,14.37a.5.5,0,0,1,0,.38.32.32,0,0,1-.35.15.47.47,0,0,1-.26-.26c-.12-.26-.18-.6-.43-.73-.06,0-.13,0-.17,0a.14.14,0,0,0,0,.09,4.87,4.87,0,0,0,.17,2.18.3.3,0,0,0,.11.19c.1.07.24,0,.35-.05a24.55,24.55,0,0,0,2.24-2.1A.36.36,0,0,0,46,14c0-.15-.12-.26-.26-.32a3.21,3.21,0,0,0-1.59-.24c-.23,0-.56.15-.33.36S44.17,14.08,44.23,14.37Z"/><path class="a7a00f40-d5c3-4295-8b35-8e8a2f0141c1" d="M49.16,11.17a1.93,1.93,0,0,0,0-1,2.58,2.58,0,0,1,.38.64,4.88,4.88,0,0,0-.15-1.74,1,1,0,0,1,.58.68,3,3,0,0,1-.6,2.92c-.07.08-.2.15-.26.07a.16.16,0,0,1,0-.09,3.67,3.67,0,0,0-.84-1.83c-.05-.06-.31-.26-.27-.34s.32,0,.4,0A2.26,2.26,0,0,1,49.16,11.17Z"/><path class="a7a00f40-d5c3-4295-8b35-8e8a2f0141c1" d="M48.67,14.93a.27.27,0,0,0-.21.2.72.72,0,0,0,0,.29.66.66,0,0,0,.13.37.47.47,0,0,0,.59,0,1.39,1.39,0,0,0,.38-.51c-.11.22.35.44.48.48s.25.09.31.21,0,.32-.19.45a13,13,0,0,1-1,1,.43.43,0,0,1-.26.11c-.2,0-.34-.19-.44-.37a22.74,22.74,0,0,1-1.06-2.23c-.07-.17-.46-.84-.37-1s.48.09.57.17A6.64,6.64,0,0,0,48.67,14.93Z"/><path class="a7a00f40-d5c3-4295-8b35-8e8a2f0141c1" d="M51.93,18.42s.12.11.18.08a.24.24,0,0,0,.06-.08l.18-.37a3,3,0,0,0,.38.41.76.76,0,0,0,.93-.12,1.32,1.32,0,0,0,.38-.91A3.88,3.88,0,0,1,54.16,19a.8.8,0,0,0-.8.25,7.48,7.48,0,0,0-.54.69.23.23,0,0,1-.11.08.2.2,0,0,1-.15-.09,12.94,12.94,0,0,1-1.31-1.8c0-.1-.16-.28-.2-.38a.94.94,0,0,1-.1-.43C51.38,17.58,51.61,18.06,51.93,18.42Z"/><path class="a7a00f40-d5c3-4295-8b35-8e8a2f0141c1" d="M43.77,7.44a1.46,1.46,0,0,0-1-.08,2.15,2.15,0,0,0-.88.5,1.74,1.74,0,0,1,.56-.8,1,1,0,0,0-.69.26,2.79,2.79,0,0,0-.5.58,1.76,1.76,0,0,0-1.16-.12,5,5,0,0,1,.63.37,1.89,1.89,0,0,0-1.45.77,2.29,2.29,0,0,1,2.2-.09,3.39,3.39,0,0,0,.47.23,1.38,1.38,0,0,1,.59-.9,2.33,2.33,0,0,1,1-.34c.1,0,.41,0,.43-.1S43.85,7.49,43.77,7.44Z"/><path class="bd29416d-de27-4eb7-86b1-74d810eaa4b3" d="M41.19,10a.82.82,0,0,0,.54.21l.07,0a.13.13,0,0,0,0-.12.83.83,0,0,0-.21-.28,1,1,0,0,1,.71.39.61.61,0,0,0,.3.21,1.31,1.31,0,0,0-.6-.86A2.69,2.69,0,0,0,39.81,9a.66.66,0,0,0-.26.11c-.11.09-.18.34,0,.39,0,0,.11,0,.16,0a.94.94,0,0,1,.29,0A3,3,0,0,1,41.19,10Z"/><path class="bd29416d-de27-4eb7-86b1-74d810eaa4b3" d="M41.8,6.17a.41.41,0,0,1,.1-.09A2,2,0,0,1,42.55,6a4.49,4.49,0,0,1,1.32,0,3.21,3.21,0,0,1,1.71.86,2,2,0,0,1,.53.92.53.53,0,0,1,0,.25.56.56,0,0,1-.42.28,1.26,1.26,0,0,0,.72,0,.14.14,0,0,0,.08-.05.22.22,0,0,0,0-.11,2.35,2.35,0,0,0-.28-1.42,4.73,4.73,0,0,0-.89-1.15,2.37,2.37,0,0,0-.65-.49A2.44,2.44,0,0,0,44,4.93a3.87,3.87,0,0,0-1.27,0A13.34,13.34,0,0,0,41,5.67c.22-.08,0,1.62.63.8A2.73,2.73,0,0,1,41.8,6.17Z"/><path class="bd29416d-de27-4eb7-86b1-74d810eaa4b3" d="M39.24,6A3,3,0,0,1,40,7s0,.09.09.08,0,0,.05-.07a1.84,1.84,0,0,0-.07-1.42,1.87,1.87,0,0,0-1.06-1c-.1.19.18.44.09.64a1.61,1.61,0,0,0-.86-.15.42.42,0,0,0-.24.09c-.27.26.32.26.45.29A2.08,2.08,0,0,1,39.24,6Z"/><path class="bd29416d-de27-4eb7-86b1-74d810eaa4b3" d="M33.91,5.37a1.68,1.68,0,0,1,.92.38,1.67,1.67,0,0,0-.6.55A3.82,3.82,0,0,1,35,6a2.84,2.84,0,0,0-.3.89.92.92,0,0,0,0,.52A3.49,3.49,0,0,1,36.2,6.16s0,0,.06,0a.06.06,0,0,0,0-.06,1.49,1.49,0,0,0-.43-.68,3.07,3.07,0,0,0-.67-.46,2.1,2.1,0,0,0-.52-.21,2.55,2.55,0,0,0-.78,0,3.68,3.68,0,0,0-.81.19c-.2.08-.65.29-.69.53.15,0,.38-.1.54-.11A4.26,4.26,0,0,1,33.91,5.37Z"/><path class="bd29416d-de27-4eb7-86b1-74d810eaa4b3" d="M37.52,10.61c.45,0,.9.05,1.35.06a.11.11,0,0,0,.08,0s0-.08-.05-.11a1.31,1.31,0,0,0-.7-.31,2,2,0,0,1,1.2.28A2.28,2.28,0,0,0,38,9.85a2.26,2.26,0,0,0-1.51.5.81.81,0,0,0-.27.31c0,.08-.09.33,0,.36s.3-.15.38-.19A2.48,2.48,0,0,1,37.52,10.61Z"/><path class="bd29416d-de27-4eb7-86b1-74d810eaa4b3" d="M47,10.32a1,1,0,0,0-.25-.5,1.6,1.6,0,0,1,1,.36,1.39,1.39,0,0,0-.62-.91A1.84,1.84,0,0,0,46.45,9a2.65,2.65,0,0,0-1.66.29,2.24,2.24,0,0,0-1.06,1.3c.06-.2.48-.49.65-.61a1.74,1.74,0,0,1,.86-.24A2.52,2.52,0,0,1,47,10.32Z"/><path class="bd29416d-de27-4eb7-86b1-74d810eaa4b3" d="M47.71,11.34a.39.39,0,0,1,.11.17.17.17,0,0,1-.06.19.28.28,0,0,1-.18,0l-2.06,0a1.25,1.25,0,0,1,.59-.22.34.34,0,0,0-.27-.13.7.7,0,0,1-.29,0C46.14,11.13,47.19,10.82,47.71,11.34Z"/><path class="bd29416d-de27-4eb7-86b1-74d810eaa4b3" d="M47.67,8.6a.08.08,0,0,1,0-.08.05.05,0,0,1,.05,0,1.94,1.94,0,0,1,1.62.26,2.25,2.25,0,0,0-1.78-1.19c-.31,0-.62,0-.92,0a1.27,1.27,0,0,1-.1.64c0,.06-.05.12,0,.17a.14.14,0,0,0,.1.07,2.09,2.09,0,0,1,.85.74s0,.09.1.11C48,9.53,47.76,8.73,47.67,8.6Z"/><path class="bd29416d-de27-4eb7-86b1-74d810eaa4b3" d="M50.28,12.83l.53.4a1.9,1.9,0,0,0-.25-1,1.82,1.82,0,0,1,1.12.74,1.86,1.86,0,0,1,.32,1.3,2,2,0,0,0-.85-.57,2.7,2.7,0,0,1,.5,1.67,2.21,2.21,0,0,0,.59-3.09,2.78,2.78,0,0,0-1.83-1.11.14.14,0,0,0-.11,0,.2.2,0,0,0-.1.12,3.31,3.31,0,0,1-1.14,1.4c.14-.1.63.67.67.76a4.27,4.27,0,0,1,.19.93C50.34,14.15,50.37,13.23,50.28,12.83Z"/><path class="bd29416d-de27-4eb7-86b1-74d810eaa4b3" d="M52.42,15.65c.17,0,.29.16.37.31a3.41,3.41,0,0,1,.38,1.51,1.49,1.49,0,0,0,.29-.79,2.22,2.22,0,0,0-.17-1.17,1.79,1.79,0,0,0-.79-.86,1.66,1.66,0,0,1-.67.74.11.11,0,0,0-.07.06.12.12,0,0,0,0,.1c.1.18.19.37.3.54A1.07,1.07,0,0,0,52.42,15.65Z"/><path class="a73fc115-fb68-478d-9b11-5496ad0f7174" d="M31.51,3.17c-1.76,0-3.52,0-5.27.1A35.18,35.18,0,0,0,21,3.85a18,18,0,0,0-4.76,1.57,12.54,12.54,0,0,0-3.89,3.17A27.74,27.74,0,0,0,7,19.1a45.86,45.86,0,0,0-1.17,6.27s0,.07,0,.1A4.46,4.46,0,0,0,4.16,24.2l-.06,0a.28.28,0,0,0-.25,0h0l0,0h0l-.06.07,0,.07a.3.3,0,0,0,0,.21.26.26,0,0,0,.07.1l.07.09c-.35.17-.71.32-1.06.48a.31.31,0,0,0-.11.42L3.6,27,4.33,28a5.14,5.14,0,0,0-1,1.26.85.85,0,0,0-.07.92l.28.45a1.23,1.23,0,0,1-.25-.05c-.25-.07-.46-.27-.74-.24s-.42.32-.5.59c0,.1-.06.19-.08.29a4.79,4.79,0,0,1-.49-.92A.3.3,0,0,0,1,30.16l-.87.55a.36.36,0,0,0-.09.08.28.28,0,0,0,0,.34,19.71,19.71,0,0,1,1,1.7,10.19,10.19,0,0,1,.68,1.68,10.46,10.46,0,0,1,.39,1.83c.08.66.1,1.32.15,2s.12,1.4.23,2.1A4.53,4.53,0,0,0,3,41.89a2.69,2.69,0,0,0,2.56,1.46A3,3,0,0,0,7.8,41.6a6.18,6.18,0,0,0,.62.92,5.85,5.85,0,0,0,4.51,2.13,12.53,12.53,0,0,0,1.49-.15l.5,0A7.85,7.85,0,0,0,15,47a1.66,1.66,0,0,0,.66.82,1.38,1.38,0,0,0,1.19.06,2.66,2.66,0,0,0,.58-.3,1.92,1.92,0,0,0,.56-.46,1.31,1.31,0,0,0,.19-.51.58.58,0,0,1,.08-.22s0,0,0,0h0a1.44,1.44,0,0,0,.23.32.94.94,0,0,0,.6.22,2.88,2.88,0,0,0,.59-.06l.69-.11a1.31,1.31,0,0,0,.65-.24.86.86,0,0,0,.28-.62c0-.26,0-.53,0-.79s0-.4,0-.6c.49.08,1,.18,1.48.31l.45.13c-.33,1.38-.6,3.85,1.35,4a1.51,1.51,0,0,0,.56-.07c.12,0,.32-.18.46-.16s0,0,0,0l0,0a.53.53,0,0,1,.08.17,2,2,0,0,0,.23.4.73.73,0,0,0,.48.23c.24,0,.5,0,.75,0l.67,0a5.1,5.1,0,0,0,.68,0c.55,0,.7-.65.82-1.09a5.77,5.77,0,0,0,.17-1.43,7.18,7.18,0,0,0,2.31.14,8.51,8.51,0,0,0,1-.17A6.14,6.14,0,0,0,33,48.34c0,.22.12.44.19.65a1,1,0,0,0,.35.52,1,1,0,0,0,.58.09l.79,0,.67,0a1.65,1.65,0,0,0,.67-.1c.29-.15.35-.46.5-.72l0,0s0,0,0,0a.25.25,0,0,1,.14,0,3.28,3.28,0,0,0,.61.18,1.6,1.6,0,0,0,1.72-1.18,3.67,3.67,0,0,0,.1-1.36,8.65,8.65,0,0,0-.21-1.43A15.36,15.36,0,0,1,41,44.49l.13,0c0,.42,0,.84,0,1.26a1.2,1.2,0,0,0,.11.56.93.93,0,0,0,.54.39c.2,0,.42.07.62.1l.68.11a1,1,0,0,0,1-.4l.08-.12s0,0,0,0,.11.35.16.5a1.8,1.8,0,0,0,.95.85,1.62,1.62,0,0,0,1.25.19,1.5,1.5,0,0,0,.79-.68c.51-.88.16-1.86.23-2.81h.17a9.67,9.67,0,0,0,2.89.09,5.92,5.92,0,0,0,4.05-2.93v0a3.12,3.12,0,0,0,1.77,1.65,2.49,2.49,0,0,0,2.69-.9A3.89,3.89,0,0,0,59.83,41a10.49,10.49,0,0,0,.28-1.84,30.34,30.34,0,0,1,.4-3.82A10.78,10.78,0,0,1,61.87,32a13.51,13.51,0,0,0,1.65-3,3.9,3.9,0,0,0-6.87-3.54c0-.42-.13-.84-.19-1.25-.16-1.14-.32-2.26-.57-3.38a.25.25,0,0,0-.14-.18c0-.22,0-.44,0-.65a6.37,6.37,0,0,0,0-1c-.11-.45-.76-.39-1.16-.39a1.65,1.65,0,0,0-.72-1.94,1.71,1.71,0,0,0-.08-.85,2,2,0,0,0-1-1.16,2.73,2.73,0,0,0,0-1.93,2.59,2.59,0,0,0-2.26-1.61,3.39,3.39,0,0,0-.38-1.93,3.12,3.12,0,0,0-3.24-1.76A4.25,4.25,0,0,0,45.06,5a3.59,3.59,0,0,0-3.9.41A3,3,0,0,0,39.5,3.84a3.69,3.69,0,0,0-4.06.93l-.2-.08a1.84,1.84,0,0,0-1.42-1.38,2.45,2.45,0,0,0-2.09.43,1.34,1.34,0,0,1,.07-.18h0a.13.13,0,0,0,0-.06V3.44h0s0,0,0-.05h0l0,0v0s0,0,0,0a.29.29,0,0,0-.15-.1ZM33,3.76a2,2,0,0,1,.49,0,1.73,1.73,0,0,1,1.27.8,3,3,0,0,0-2.51.74s0,0-.06-.06h0a.9.9,0,0,0-.35-.18l-.11,0-.1,0c-.26-.08-.16-.33-.09-.53a1.21,1.21,0,0,1,.05-.18s0-.09.05-.13A5.54,5.54,0,0,1,33,3.76Zm-1.89,0a3.14,3.14,0,0,0-.26.94.45.45,0,0,0,0,.12h0a.81.81,0,0,0,.18.48h0l.05,0,0,0h0l.12.08a.86.86,0,0,0,.27.09l.22.07c.39.18.34.69.24,1h0a.14.14,0,0,1,0,.06h0l0,.09c-.12.34-.26.66-.37,1l0,.06,0,.08a.56.56,0,0,1,0,.12l0,.09,0,.1h0l0,.1s0,.06,0,.09,0,.05,0,.08a.5.5,0,0,0,0,.12.09.09,0,0,0,0,0l0,.16V9a7,7,0,0,0-.09.8V10h0v.13h0c0,.05,0,.09,0,.14v0s0,.06,0,.09l0,.11h0a.87.87,0,0,0,.3.49h0l.07,0a.82.82,0,0,0,.24.1h0a2.49,2.49,0,0,0,1.11-.1l.39-.08h0l.54-.11h0l.31-.06c.08,0,.34-.1.39,0a.6.6,0,0,1,0,.19c0,.07,0,.13,0,.2a1,1,0,0,1,0,.17c0,.11,0,.23,0,.34a2.26,2.26,0,0,1,0,.26c0,.24,0,.48,0,.72,0,.64-.07,1.28-.11,1.92v.14a.26.26,0,0,0,.19.28.38.38,0,0,0,.31,0l0,0a18.42,18.42,0,0,1,3.35-2.23L38.69,14a3.85,3.85,0,0,0,.39.92h0l0,.06h0a.69.69,0,0,0,.33.22.63.63,0,0,0,.36,0h0a3.2,3.2,0,0,0,.82-.53l.21-.16.69-.49.34-.25.07,0,.08-.05c.2-.12.32-.09.41.13h0v0a5.29,5.29,0,0,1,.15.69c.08.47,0,.95.08,1.42,0,0,0,0,0,0s0,.06,0,.09a1.1,1.1,0,0,0,.26.59l0,0h0a.55.55,0,0,0,.37.16.76.76,0,0,0,.6-.31h0c.09-.09.16-.2.24-.29l.16-.21a2.09,2.09,0,0,0,.14-.17l.13-.13.17-.19.11-.12.2-.2.1-.09.24-.22.06-.05.31-.26h0c.24-.2.5-.38.76-.56.45.91.89,1.82,1.33,2.74l.13.26a2.79,2.79,0,0,0,.39.72.59.59,0,0,0,.18.13.46.46,0,0,0,.49,0,1.9,1.9,0,0,0,.44-.41l.22-.24.37-.39c.79,1.17,1.53,2.36,2.2,3.6h0a.26.26,0,0,0,.21.14.3.3,0,0,0,.27-.08l.15-.17c.16-.2.31-.42.49-.62l.14-.13a.46.46,0,0,0,.07-.07l0,0,.06,0h0l0,.05a1.54,1.54,0,0,1,.09.37,2.94,2.94,0,0,1,0,.42c0,.16,0,.31,0,.47v0a2.41,2.41,0,0,0,.09.58.06.06,0,0,0,0,0s0,0,0,0a.57.57,0,0,0,.12.18.44.44,0,0,0,.3.15h.05a.87.87,0,0,0,.31-.07l.52-.27c.19.93.34,1.87.47,2.82A6.35,6.35,0,0,1,56,27a28.56,28.56,0,0,0-1.77,5.61,8.7,8.7,0,0,0,.13,3A22.1,22.1,0,0,1,55,38.85a4.38,4.38,0,0,1-.8,2.39,5.48,5.48,0,0,1-1.67,1.88,5.22,5.22,0,0,1-2.31.88,12.6,12.6,0,0,1-2.87-.19,23.78,23.78,0,0,0-6.58.1,38.24,38.24,0,0,0-6,2,13.28,13.28,0,0,1-2.9.74,7.7,7.7,0,0,1-3.05-.37c-2-.56-3.83-1.5-5.81-2a20,20,0,0,0-6.55-.51c-1.07.08-2.14.27-3.21.34a5.28,5.28,0,0,1-2.45-.43,5.43,5.43,0,0,1-1.94-1.48A7.51,7.51,0,0,1,8.15,41a5.82,5.82,0,0,1-.53-1.13,5.5,5.5,0,0,1,.25-2.92,12.73,12.73,0,0,0,.52-3.12A16,16,0,0,0,7,28.2a11.46,11.46,0,0,1-.49-1.39,3.93,3.93,0,0,1,0-1.49c.14-1.06.29-2.12.48-3.17a30.76,30.76,0,0,1,2.93-8.71.85.85,0,0,0,.4.52,1.19,1.19,0,0,0,1,0c-.25.57-.52,1.32.13,1.54a1.14,1.14,0,0,0,.91-.2,1.08,1.08,0,0,1,1.61.52.22.22,0,0,0,.37.09A5.54,5.54,0,0,0,15.79,14c.49.2,1.28.59,1.62.18a4.57,4.57,0,0,0,.52-1.12c.16-.4.33-.79.48-1.19s.34-.9.49-1.35a1.35,1.35,0,0,0,.16-.92.65.65,0,0,0-.39-.35,6.89,6.89,0,0,0-1.22-.36c.26-.65.72-1.56.4-2.18a1.51,1.51,0,0,0-1.48-.7,15.07,15.07,0,0,1,2.57-1A35.22,35.22,0,0,1,29,3.8C29.7,3.79,30.38,3.77,31.07,3.78Zm7,.41a3,3,0,0,1,1,.14,2.42,2.42,0,0,1,1.47,1.19,9.75,9.75,0,0,1,.38,1.73.11.11,0,0,0,.19,0,1.61,1.61,0,0,0,.17-1.61h0c.58-.08,1.12-.36,1.7-.46a2.46,2.46,0,0,1,1.92.38A3.41,3.41,0,0,1,46,6.89a11.71,11.71,0,0,1,.38,1.28,2,2,0,0,0-1.63.59s0,.09,0,.07a2.91,2.91,0,0,1,1.56-.27c.63.12.8.57,1.27.87a.2.2,0,0,0,.28-.07c.08-.19,0-.2-.16-.35a2.19,2.19,0,0,0-.9-.72,1.45,1.45,0,0,0,.05-.51c.39.1.8.11,1.19.23A2.37,2.37,0,0,1,49.45,9.2,3.1,3.1,0,0,1,49.86,11a4.22,4.22,0,0,1-.69,1.45,2.64,2.64,0,0,0-1.32-2.06s-.09,0-.05.08a4.36,4.36,0,0,1,.73,1.11c.13.28.18.57.3.84a1.57,1.57,0,0,0-1.59.25s0,.11,0,.1A3,3,0,0,1,49,13c.59.32.45.87.76,1.34a.18.18,0,0,0,.33,0,1.54,1.54,0,0,0-.65-1.58,1.93,1.93,0,0,0,.94-1.39A2.8,2.8,0,0,1,52.18,13a2.59,2.59,0,0,1-.3,2,3.58,3.58,0,0,0-.11-.35,3,3,0,0,0-.5-.82.07.07,0,0,0-.11.06,5.31,5.31,0,0,1,.26.86c0,.15,0,.33.07.5l-.09,0a1.43,1.43,0,0,0-1.35.07,0,0,0,0,0,0,.09,2.42,2.42,0,0,1,1.16.21,1.72,1.72,0,0,1,.45.31c.13.14.19.29.36.37a.16.16,0,0,0,.24-.13.82.82,0,0,0-.4-.64v0a.17.17,0,0,0,.12,0,1.2,1.2,0,0,0,.57-.52,2.38,2.38,0,0,1,.7,1.31c.06.49-.27.87-.27,1.34a.16.16,0,0,0,.24.13,1.16,1.16,0,0,0,.48-.68,2,2,0,0,1,.16,1.82c-.48,0-.87.51-1.18.93-.68-1.21-1.4-2.38-2.19-3.51l0-.05A.3.3,0,0,0,50,16.1l-.54.57L49.2,17a1.82,1.82,0,0,0-.27.29h0c0-.07-.1-.18-.11-.2l-.08-.16c-.07-.15-.14-.3-.22-.45l-.06-.13a.47.47,0,0,0-.05-.1s0,0,0,0c-.44-.92-.89-1.84-1.34-2.76v0a.25.25,0,0,0-.16-.12.3.3,0,0,0-.23,0h0c-.24.15-.48.31-.71.48a.76.76,0,0,0-.2-.2,1.06,1.06,0,0,0-.21-.63,1.34,1.34,0,0,0-.64-.51s-.1,0-.07.07a2.87,2.87,0,0,1,.34.62,2,2,0,0,1,.08.26l-.29-.06a1.84,1.84,0,0,0-1.31.31.08.08,0,0,0,.06.14,2.88,2.88,0,0,1,1.24,0c.24,0,.46.21.69.28l-.33.27-.06.05-.15.13-.12.11-.11.1-.15.14a.94.94,0,0,1-.1.1l-.12.13h0v0l-.08.09c-.28.3-.53.62-.79.93l0,0a.65.65,0,0,1-.09.08s0,0,0,0a1,1,0,0,1-.09-.34,1.92,1.92,0,0,1,0-.24,2.53,2.53,0,0,0,0-.28v-.18c0-.05,0-.1,0-.15s0-.14,0-.21a.77.77,0,0,0,0-.15,2,2,0,0,0,0-.24.09.09,0,0,0,0-.05A3.18,3.18,0,0,0,43,13.4a1.5,1.5,0,0,0-.31-1.12,4.43,4.43,0,0,1,1.22-.84c.4-.15.81,0,1.19-.17a.12.12,0,0,0,0-.19c-.33-.34-1-.18-1.36,0a3,3,0,0,0-1.23,1,2.15,2.15,0,0,0-.44-.42,2.1,2.1,0,0,0-2.22-.27.06.06,0,0,0,0,.11,2.63,2.63,0,0,1,2,.53,2,2,0,0,1,.51.92,1.24,1.24,0,0,0-.91.33l-1.33,1h0l-.09.07c-.12.08-.23.17-.35.24a.09.09,0,0,1-.06,0h-.07a1.64,1.64,0,0,1-.26-.57v0l-.1-.27-.54-1.46a.34.34,0,0,0-.19-.2.31.31,0,0,0-.25,0h0a19.41,19.41,0,0,0-3.24,2c.06-1,.11-1.92.16-2.88a1.14,1.14,0,0,0-.11-.77l0,0a3,3,0,0,1,1.65-1c.66-.08,1.12.26,1.72.35.1,0,.16-.13.11-.21-.35-.61-1.38-.69-2-.58h0a2.94,2.94,0,0,0-.52-.59,2.18,2.18,0,0,0-1.13-.57.06.06,0,0,0-.05.1,3.32,3.32,0,0,1,1.17,1,1.28,1.28,0,0,1,.1.15,2.11,2.11,0,0,0-1.25,1.11h0l-.06,0h-.23l-.27,0-.6.12-.63.13h0l-.24.05-.22,0-.31.05c-.25,0-.4,0-.46-.29h0v0a2.42,2.42,0,0,1,0-.6,7,7,0,0,1,.12-.78h0a.53.53,0,0,1,0-.12c0-.1,0-.19.07-.29s0,0,0,0a2.76,2.76,0,0,0,.08-.27,2.16,2.16,0,0,1,.76.3,2.48,2.48,0,0,1,.68.76s.11,0,.1,0a1.2,1.2,0,0,0-.14-.59A1.85,1.85,0,0,0,33,8.11L32.93,8a2,2,0,0,1,.37-.35A5,5,0,0,1,34,7.39a.07.07,0,0,0,0-.13,1.09,1.09,0,0,0-.8.16,1.61,1.61,0,0,0-.51.43,1.73,1.73,0,0,0-.44-.14l.17-.42v0a.5.5,0,0,0,.05-.13.08.08,0,0,0,0,0s0-.09.05-.13v0l0-.13a.08.08,0,0,0,0,0l0-.14v0a.78.78,0,0,0,0-.16V6.24h0c0-.06,0-.12,0-.17h0c0-.06,0-.11,0-.17v0c0-.05,0-.1,0-.14l0-.06a.41.41,0,0,0,0-.09,3.19,3.19,0,0,1,2.15-.42,4.22,4.22,0,0,1,1.5.82,1.5,1.5,0,0,0-1,.86c0,.07.06.12.11.09.67-.41,1.17-.82,2-.63.17,0,.66.29.66-.08A.24.24,0,0,0,37.75,6,2.22,2.22,0,0,0,37,5.85v0a1.6,1.6,0,0,1,.26-.38A2.2,2.2,0,0,1,38,5c.08,0,0-.14,0-.15a1.37,1.37,0,0,0-1.32,1l-.21,0A1.68,1.68,0,0,0,35.87,5a5.34,5.34,0,0,1,1.22-.67A3.53,3.53,0,0,1,38.06,4.19Zm-8,.14a.07.07,0,0,0-.06,0,1.07,1.07,0,0,0-.28,1.06,1.56,1.56,0,0,0,.29.46,1.46,1.46,0,0,1,.32,1.41c-.22,1.12-.63,2.6-.13,3.69a.08.08,0,0,0,.14,0,8.25,8.25,0,0,0,.06-1.57,13.37,13.37,0,0,1,.28-2,2.14,2.14,0,0,0,0-1.15,1.34,1.34,0,0,0-.29-.45c-.34-.41-.54-.81-.23-1.31C30.25,4.41,30.18,4.33,30.11,4.33ZM18.2,5.71a.08.08,0,0,0,0,.1A2.55,2.55,0,0,1,18.48,7c0,.25-.18.59,0,.81a.09.09,0,0,0,.08,0c.36-.09.33-.7.3-1a1.86,1.86,0,0,0-.52-1.14S18.23,5.68,18.2,5.71ZM16,6.28a.14.14,0,0,0,.1.1c.68.2,1.59.11,1.35,1.15l0,.15a1.74,1.74,0,0,0-.51,0,2.73,2.73,0,0,0-.75.12c-.05,0,0,.08,0,.09.26,0,.53,0,.79,0s.27,0,.4,0c0,.13-.09.27-.14.41a4.51,4.51,0,0,0-1.93.12,7.13,7.13,0,0,0-2,.76s0,.06,0,.05a13.22,13.22,0,0,1,2-.54c.62-.11,1.28-.07,1.89-.19-.05.16-.11.31-.16.47l-.05,0a4.52,4.52,0,0,0-2.37.35s0,.08,0,.07a8,8,0,0,1,2.33-.23h0a.24.24,0,0,0,.17.2l.88.24.44.12a.61.61,0,0,1,.18.23,2,2,0,0,0-1.47,0s0,.08,0,.08a5.21,5.21,0,0,1,.79,0,4.93,4.93,0,0,1,.67.11s0,.07,0,.1a2.75,2.75,0,0,1-.19.69,4.11,4.11,0,0,0-1.94-.21,6.14,6.14,0,0,0-2.11.5,0,0,0,0,0,0,0A9.93,9.93,0,0,1,16.4,11c.63,0,1.26.14,1.89.11l-.18.42a1.21,1.21,0,0,0-.57-.1,1.76,1.76,0,0,0-.79.07,0,0,0,0,0,0,.06c.25.06.51.05.76.1a2.77,2.77,0,0,0,.5.1c0,.06-.05.12-.07.17l-.13.31a2.38,2.38,0,0,0-1.4-.21,9.66,9.66,0,0,0-2,.3c-.05,0,0,.1,0,.09a17.54,17.54,0,0,1,1.78-.12c.53,0,1,.11,1.54.14-.05.14-.1.27-.16.41a1.64,1.64,0,0,0-.5,0,5.86,5.86,0,0,0-1,.09c-.1,0-.11.17,0,.16a7.7,7.7,0,0,1,1,0l.43.06c-.09.19-.18.38-.28.56-.19.33-.23.22-.59.1l-.84-.29a.25.25,0,0,0-.31.17c-.05.13-.11.25-.17.38a1.43,1.43,0,0,0-.82,0,3.52,3.52,0,0,0-1.06.32s0,.06,0,.05c.37,0,.72-.1,1.08-.12a4.85,4.85,0,0,0,.66,0,5,5,0,0,1-.91,1.18A1.53,1.53,0,0,0,13,14.74a1.9,1.9,0,0,0-.85.2c-.21.17-.45.14-.7-.09l.13-.39.15-.42c.42-.09.82-.2,1.23-.33s.89-.15,1.31-.29a.11.11,0,0,0,0-.22,4.05,4.05,0,0,0-2.47.73l.09-.25c.07-.19-.16-.31-.32-.24a1.56,1.56,0,0,1-.56.2c-.33.13-.56-.05-.7-.53a.18.18,0,0,0,0-.19c.45-.12.91-.27,1.38-.35s1-.09,1.55-.2c.09,0,.09-.17,0-.19a5.64,5.64,0,0,0-3,.55l.36-.63c.32-.08.62-.21.94-.29s.78-.14,1.15-.27a.07.07,0,0,0,0-.14,3.9,3.9,0,0,0-1.26.23,3.94,3.94,0,0,0-.68.25c.13-.22.27-.44.41-.65l.07-.11a21.25,21.25,0,0,1,2.2-.64c.83-.17,1.68-.11,2.5-.27.07,0,.07-.13,0-.14a6.4,6.4,0,0,0-2.46.16,8.31,8.31,0,0,0-2.07.65l.43-.63.51-.1c.31-.08.65-.12,1-.23a.07.07,0,0,0,0-.13,2.36,2.36,0,0,0-1.35.3A18,18,0,0,1,13.53,8.2a10.84,10.84,0,0,1,1.66-.57c.64-.17,1.28-.18,1.91-.29.14,0,.09-.21,0-.22a5.6,5.6,0,0,0-3.19.73c.21-.2.43-.4.65-.58A4.5,4.5,0,0,0,15,7.11c.28-.09.57-.17.86-.24a0,0,0,0,0,0-.06,3.23,3.23,0,0,0-.76,0C15.38,6.64,15.67,6.46,16,6.28ZM43.68,7.59a1.85,1.85,0,0,0-1,.25,1.36,1.36,0,0,0-.7.89l-.18-.09a2.16,2.16,0,0,0-1.48-.1.07.07,0,0,0,0,.13A3.53,3.53,0,0,1,41.69,9c.38.19.62.59,1,.76a.14.14,0,0,0,.21-.16,1.3,1.3,0,0,0-.73-.8,1.61,1.61,0,0,1,.75-.66c.36-.15.76-.09,1.11-.25a.13.13,0,0,0,0-.22A.92.92,0,0,0,43.68,7.59ZM19,8.42c-.11,0-.11.14,0,.17,1.32.5.78,2.33.41,3.28s-1,1.78-1.41,2.73c-.05.1.1.15.17.1A5.73,5.73,0,0,0,19.35,13a7.5,7.5,0,0,0,.83-2.18C20.33,9.88,20.13,8.55,19,8.42Zm14.08,3.47c-.29.08-.55.24-.84.31a3,3,0,0,1-1.07,0c-.07,0-.13.09-.05.13A1.71,1.71,0,0,0,33.2,12,.1.1,0,0,0,33.09,11.89Zm.34,1.23a.08.08,0,0,0-.08.07,8.27,8.27,0,0,0,0,2.33,1,1,0,0,0,.76.8A2.86,2.86,0,0,0,36.9,15c.08-.15-.09-.36-.24-.25A4.63,4.63,0,0,1,34.57,16c-.86.09-.89-.57-1-1.23,0-.51-.07-1-.12-1.53A.06.06,0,0,0,33.43,13.12ZM15.92,15a.12.12,0,0,0-.12.08c-.05.32.3.53.57.62a1.07,1.07,0,0,0,1-.07.1.1,0,0,0-.05-.19,2.09,2.09,0,0,1-.78-.16C16.31,15.18,16.15,15,15.92,15Zm-6,0a.12.12,0,0,0-.1,0c-.46.37-.07,1.11.32,1.39a1.64,1.64,0,0,0,1.71,0,1,1,0,0,1,1,.21c.1.09.13.19.25.27a1.07,1.07,0,0,0,.76.13,2.73,2.73,0,0,0,1.73-1c.09-.13-.12-.28-.22-.17-.38.38-1.08,1-1.68.89s-.6-.71-1.1-.87-.74.15-1.09.29a1.07,1.07,0,0,1-1.21-.17c-.24-.26-.2-.55-.3-.86A.09.09,0,0,0,9.9,15Zm28,.08a.07.07,0,0,0-.06.07,1.62,1.62,0,0,0,1.24,1.41,1.84,1.84,0,0,0,1.79-.86.09.09,0,0,0-.08-.13c-.49,0-.78.43-1.23.57-.76.23-1.25-.46-1.58-1C38,15.07,38,15.07,37.94,15.07Zm8.31.54c-.32,0-.52.22-.75.42s-.52.54-.79.8c-.07.06,0,.18.1.13.3-.22.63-.39.93-.62s.52-.33.57-.65A.08.08,0,0,0,46.25,15.61Zm.42.5a.08.08,0,0,0-.06.11,2.92,2.92,0,0,0,.41,1,1.36,1.36,0,0,0,.69.63.11.11,0,0,0,.12-.16,3.41,3.41,0,0,0-.52-.63,3.86,3.86,0,0,1-.52-.87A.11.11,0,0,0,46.67,16.11Zm-27.3,1.45a10.51,10.51,0,0,0-3.59.74,6.49,6.49,0,0,0-2.9,2.25A3.22,3.22,0,0,0,12,22.8a.24.24,0,0,0,.36.2c1.06-.56,1.75-1.58,2.79-2.16a4.78,4.78,0,0,1,2.21-.43,7.57,7.57,0,0,0,1.94-.32,4.42,4.42,0,0,1,2.19-.22,15.16,15.16,0,0,1,2.09.72l2.26.88a9.38,9.38,0,0,0,2,.68h0c.13.1.32,0,.23-.18a8.85,8.85,0,0,0-3.13-3,9.56,9.56,0,0,0-4.31-1.38Q20,17.54,19.37,17.56Zm23.77,0c-.42,0-.83,0-1.25,0a9.39,9.39,0,0,0-4.22,1.33A9,9,0,0,0,34.44,22c-.08.15.11.28.24.18h0a9.46,9.46,0,0,0,2-.68l2.26-.88a15.47,15.47,0,0,1,2-.69,4.21,4.21,0,0,1,2.3.2,7.54,7.54,0,0,0,1.83.31,5.1,5.1,0,0,1,2.32.43c1,.57,1.73,1.6,2.79,2.16a.24.24,0,0,0,.36-.2,3.27,3.27,0,0,0-.9-2.25,6.33,6.33,0,0,0-2.8-2.21A10.61,10.61,0,0,0,43.14,17.56Zm-23.68.6a10.84,10.84,0,0,1,1.14,0,8.76,8.76,0,0,1,4,1.27,15.41,15.41,0,0,1,2.36,2c-.42-.17-.87-.31-1.27-.47l-2.25-.9a9.31,9.31,0,0,0-2.13-.69,4.62,4.62,0,0,0-2,.23A8.8,8.8,0,0,1,17,20a4.8,4.8,0,0,0-1.88.36,19.63,19.63,0,0,0-2.63,2A4.38,4.38,0,0,1,13.19,21c.31-.32.61-.63.93-.93a6.23,6.23,0,0,1,2-1.2A10.44,10.44,0,0,1,19.46,18.16Zm23.54,0a10.83,10.83,0,0,1,3.23.63A6.29,6.29,0,0,1,48.29,20c.35.32.68.66,1,1A4.72,4.72,0,0,1,50,22.35a22.12,22.12,0,0,0-2.55-2,4.71,4.71,0,0,0-2-.4,9.35,9.35,0,0,1-2.35-.36,4.41,4.41,0,0,0-2-.24,9,9,0,0,0-2,.65L36.77,21c-.4.16-.85.3-1.27.47a14.58,14.58,0,0,1,2.28-1.92,8.68,8.68,0,0,1,4.11-1.32A10.28,10.28,0,0,1,43,18.16Zm7,0c-.26,0-.54.36-.67.53s0,.18.1.13l.27-.18c.32-.16.29-.13.48.08a6.49,6.49,0,0,1,.58,1,9.53,9.53,0,0,0,1.07,1.83,1,1,0,0,0,1,.37.71.71,0,0,0,.26-.13,1.18,1.18,0,0,0,.19,1c.28.31.55.24.88.18a4,4,0,0,0,.68,1.79c.08.1.2,0,.19-.1-.13-.68-.4-1.3-.5-2,0-.12-.16-.17-.26-.15-.32.05-.28.13-.6-.12s-.3-.34-.33-.73a.11.11,0,0,0-.09-.1.58.58,0,0,0,0-.33.13.13,0,0,0-.22-.05c-.59.75-1.17-.09-1.5-.63l-1-1.73C50.5,18.72,50.34,18.22,50,18.2ZM9.8,18.64s-.05,0-.06.05a2.79,2.79,0,0,0-.59,1.42c0,.1.12.11.17.05a6.12,6.12,0,0,0,.6-1.36A.11.11,0,0,0,9.8,18.64Zm45,.45a1,1,0,0,1,.38.05c.1.06.07,0,0,.19a3,3,0,0,0,0,.42c0,.31,0,.63.07.95l-.58.31-.14.07a1.23,1.23,0,0,0,0-.16.34.34,0,0,0,0-.1v-.05c0-.16,0-.33,0-.49s0,0,0,0a2.76,2.76,0,0,0-.05-.81l0-.05a1.1,1.1,0,0,0-.12-.29h0C54.52,19.11,54.67,19.09,54.82,19.09Zm-24.4-1.17a.14.14,0,0,0-.14.13,25.12,25.12,0,0,0-.16,2.9c-.07.55-.23,1.11-.7,1.27s-.94-.23-1.28-.5c0,0-.07,0-.06.07.37,1.07,1.49,1.62,2.17.61a3.08,3.08,0,0,0,.42-1.51,7.93,7.93,0,0,0-.11-2.84C30.53,18,30.48,17.92,30.42,17.92Zm1.65,1.82a.17.17,0,0,0-.13.09,4.2,4.2,0,0,0-.1,1.8,1.91,1.91,0,0,0,.37,1.09,1.12,1.12,0,0,0,1.85-.41,0,0,0,0,0-.05,0,1.88,1.88,0,0,1-1,.33c-.49,0-.66-.43-.72-.84a15.23,15.23,0,0,0-.15-1.93A.11.11,0,0,0,32.07,19.74ZM19.83,21.48a8,8,0,0,0-3.5.82,5.08,5.08,0,0,0-2.56,2.29s0,0,0,0a29.4,29.4,0,0,1,2.58-1.84,7.36,7.36,0,0,1,6.79,0,13.5,13.5,0,0,1,2.73,2.08.05.05,0,0,0,.09-.06C24.93,22.63,22.1,21.49,19.83,21.48Zm22.83,0c-2.27,0-5.1,1.16-6.16,3.31a.05.05,0,0,0,.09.06,13.13,13.13,0,0,1,2.65-2,7.56,7.56,0,0,1,3.42-.88,7.68,7.68,0,0,1,3.36.79,27.69,27.69,0,0,1,2.66,1.88s0,0,0,0a5.2,5.2,0,0,0-2.56-2.29A8,8,0,0,0,42.66,21.48Zm-34.09.69s0,0-.06,0a10.64,10.64,0,0,0-.85,2.92c-.07.53-.41,2,.24,2.31A.1.1,0,0,0,8,27.34a4.66,4.66,0,0,1,0-1.18c0-.47.08-.94.14-1.4a20.65,20.65,0,0,1,.51-2.46A.12.12,0,0,0,8.57,22.17Zm10.54.77a6.74,6.74,0,0,0-1.17.17,7.22,7.22,0,0,0-3.88,2.49,9.3,9.3,0,0,0-2,4.66A9.5,9.5,0,0,0,12,31.57a9.65,9.65,0,0,0,1.38,5,7.64,7.64,0,0,0,3.48,3.1,6.54,6.54,0,0,0,4.61.21,6.32,6.32,0,0,0,1.59-.77,9.58,9.58,0,0,1-1.88,1.48,21.42,21.42,0,0,1-2.41,1,.19.19,0,0,0,.1.35,6.53,6.53,0,0,0,2.45-1,10.33,10.33,0,0,0,2.18-1.72,9.58,9.58,0,0,0,1.28-1.7,5.56,5.56,0,0,0,.42-.54,9.3,9.3,0,0,0,1.66-4.8,9.74,9.74,0,0,0-1-5.12,8,8,0,0,0-3.29-3.41A6.75,6.75,0,0,0,19.11,22.94Zm24.24,0a6.55,6.55,0,0,0-2.32.32A7.51,7.51,0,0,0,37.3,26.1a9.33,9.33,0,0,0-1.66,4.81,9.76,9.76,0,0,0,1,5.12,9,9,0,0,0,1,1.56A9.51,9.51,0,0,0,39,39.28,10,10,0,0,0,41.1,41a6.73,6.73,0,0,0,2.53,1,.19.19,0,0,0,.1-.35,21.42,21.42,0,0,1-2.41-1,9.8,9.8,0,0,1-1.87-1.46l.16.1a9.9,9.9,0,0,0,3.87,1.64,7.22,7.22,0,0,0,3.19.2,5.55,5.55,0,0,0,1.54-.48A6.81,6.81,0,0,0,50.47,39a6.48,6.48,0,0,0,1.79-3.86,7.18,7.18,0,0,0-2.13-6.25,9.16,9.16,0,0,0-1-2.34,7.7,7.7,0,0,0-3.48-3.1A6.76,6.76,0,0,0,43.35,22.94Zm-12.69.13a.07.07,0,0,0-.08.07,1.89,1.89,0,0,1-.69,1.22,3.35,3.35,0,0,1-1.21.33.09.09,0,0,0,0,.16,1.31,1.31,0,0,0,1.51-.22,1.56,1.56,0,0,0,.56-1.49A.07.07,0,0,0,30.66,23.07Zm1.17,0a.09.09,0,0,0-.09.07,1.56,1.56,0,0,0,.57,1.49,1.31,1.31,0,0,0,1.51.22.09.09,0,0,0,0-.16,3.37,3.37,0,0,1-1.2-.34,1.81,1.81,0,0,1-.69-1.21A.08.08,0,0,0,31.83,23.07Zm-12.65.48a5.84,5.84,0,0,1,2.11.3,6.85,6.85,0,0,1,3.39,2.59,8.85,8.85,0,0,1,1.56,4.49,9.42,9.42,0,0,1-.39,3.38s0,0,0,0l-.15.52a8,8,0,0,1-.38.84,7.38,7.38,0,0,1-3,3.17,6,6,0,0,1-4.16.55,6.7,6.7,0,0,1-3.58-2.32,8.53,8.53,0,0,1-1.81-4.28,8.93,8.93,0,0,1-.09-1.27,9.06,9.06,0,0,1,1.27-4.65A7.1,7.1,0,0,1,17.1,24,6,6,0,0,1,19.18,23.55Zm24.16,0a6.15,6.15,0,0,1,1.06.15A6.69,6.69,0,0,1,48,26,8.62,8.62,0,0,1,49.8,30.3a10.84,10.84,0,0,1,.09,1.27,9.09,9.09,0,0,1-1.27,4.66,7.15,7.15,0,0,1-3.24,2.89,5.93,5.93,0,0,1-4.19.18,6.85,6.85,0,0,1-3.39-2.59,8.7,8.7,0,0,1-1-1.86c0-.16-.1-.33-.14-.49a.08.08,0,0,0,0,0,8.75,8.75,0,0,1-.38-2.09,9.16,9.16,0,0,1,1-4.8,7.36,7.36,0,0,1,3-3.16A6,6,0,0,1,43.34,23.55ZM60,24.4a2.32,2.32,0,0,1,.59.07,3.49,3.49,0,0,1,2.45,3.89,7.83,7.83,0,0,1-1.37,2.81,12.74,12.74,0,0,0-1.49,3,9.67,9.67,0,0,0-.4,1.69,17.66,17.66,0,0,0-.17,1.77c0,.63-.09,1.27-.16,1.9a6.44,6.44,0,0,1-.31,1.56,2.31,2.31,0,0,1-1.81,1.62,2.08,2.08,0,0,1-2-1.14A3.25,3.25,0,0,1,55.1,41L55.05,41a4.2,4.2,0,0,0,.54-1.77A11.22,11.22,0,0,0,55,36.05a9,9,0,0,1-.26-3.18A13.14,13.14,0,0,1,55.5,30c.34-.93.71-1.83,1-2.76a3,3,0,0,0,.12-.58.05.05,0,0,0,0,0,3.41,3.41,0,0,1,1.61-1.7A3.75,3.75,0,0,1,60,24.4Zm-48.12.36s-.05,0-.06,0a9.92,9.92,0,0,0-1.48,3.05,10,10,0,0,0-.15,3.36c0,.16.25.21.29,0a5.28,5.28,0,0,0,.08-1.54A9,9,0,0,1,10.74,28a12.67,12.67,0,0,1,1.17-3.22A0,0,0,0,0,11.89,24.76Zm38.71,0a0,0,0,0,0,0,.06A12.65,12.65,0,0,1,51.74,28a8.23,8.23,0,0,1,.17,1.64A5.28,5.28,0,0,0,52,31.22a.15.15,0,0,0,.29,0,9.73,9.73,0,0,0-.15-3.36,10.12,10.12,0,0,0-1.47-3.05A0,0,0,0,0,50.6,24.76Zm-46,.36a6.12,6.12,0,0,1,.5.39l.24.26c.08.1.12.14.19.24s.12.2.18.3l.08.16,0,.05s0,.05,0,.08,0,0,0,0,0,.18,0,.26a8.86,8.86,0,0,0,.5,1.42c.35.93.72,1.86,1,2.82a9.48,9.48,0,0,1,.42,3,17.42,17.42,0,0,1-.63,3.2,4.89,4.89,0,0,0-.06,2.86,6.71,6.71,0,0,0,.35.77.22.22,0,0,0-.05.08,2.52,2.52,0,0,1-1.75,1.68A2.05,2.05,0,0,1,3.51,41.5a4.2,4.2,0,0,1-.41-1.43c-.1-.63-.15-1.27-.2-1.9s-.07-1.28-.15-1.91a10.43,10.43,0,0,0-.35-1.75,11.76,11.76,0,0,0-.74-1.89,17.09,17.09,0,0,0-.92-1.55l.31-.2a6.25,6.25,0,0,0,.82,1.29A.31.31,0,0,0,2.38,32l.21-.75A1.68,1.68,0,0,0,2.67,31l.08,0a1.78,1.78,0,0,0,1.39.15.31.31,0,0,0,.18-.45c-.15-.24-.31-.48-.47-.72-.05-.08-.13-.15-.09-.25a1.34,1.34,0,0,1,.17-.31,5.06,5.06,0,0,1,.74-.92l.06.06a5.12,5.12,0,0,1,.49.44,7.59,7.59,0,0,1,1.14,2.7,6.41,6.41,0,0,1-.58,4A4.72,4.72,0,0,0,5.63,39a4.76,4.76,0,0,1,.18,1.13c0,.65-.68.79-1.12.41a1.64,1.64,0,0,1-.51-1A.9.9,0,0,1,4.27,39c.29-.37.6-.14.79.09s.4,0,.35-.2a.87.87,0,0,0-1.35-.44c-.61.46-.44,1.42-.09,2a1.53,1.53,0,0,0,1.75.78c.7-.3.6-1.24.49-1.84a15.22,15.22,0,0,1-.35-1.76,3.89,3.89,0,0,1,.41-1.83A7.22,7.22,0,0,0,7,33.22a8.1,8.1,0,0,0-2-5.3l0,0c-.5-.72-1-1.49-1.56-2.24l1.09-.5ZM29.05,26a.07.07,0,0,0-.05.09A12.32,12.32,0,0,1,27.66,36,11.08,11.08,0,0,1,26,38a9.13,9.13,0,0,0-1.66,1.85c-.56,1-.64,2.65.59,3.14.17.08.32-.19.18-.32-1.6-1.4,0-3.1,1.11-4.17a11.9,11.9,0,0,0,2.59-3.69,11.23,11.23,0,0,0,.31-8.7A.09.09,0,0,0,29.05,26Zm4.38,0a.08.08,0,0,0-.09,0,11.26,11.26,0,0,0,.31,8.71,11.67,11.67,0,0,0,2.58,3.68c1.11,1.07,2.72,2.77,1.11,4.17-.14.13,0,.4.19.32,1.19-.47,1.16-2.1.63-3.06A8.07,8.07,0,0,0,36.45,38a11.1,11.1,0,0,1-1.62-2,12.37,12.37,0,0,1-1.35-9.86A.06.06,0,0,0,33.43,26Zm27.21.08a2.07,2.07,0,0,0-.65.08c-2,.49-3.38,2.59-4,4.4a6.71,6.71,0,0,0-.38,3.2c.15,1.1.8,2,1,3.1s-.56,2.33-.37,3.52a1,1,0,0,0,1.59.71,1.92,1.92,0,0,0,.93-2.23.88.88,0,0,0-1.66,0c-.09.24.25.34.38.16.4-.55.87,0,.84.44a1.52,1.52,0,0,1-.22.69c-.33.56-1.37,1-1.4-.06s.45-1.79.45-2.71a6.26,6.26,0,0,0-.72-2.38,5.64,5.64,0,0,1-.39-2.6,7.3,7.3,0,0,1,1.21-3.35A2.94,2.94,0,0,1,59.48,28c1.23.18,1,1.69,1,2.59a0,0,0,0,0,.06,0c.39-.93.58-2.42-.58-2.92a2,2,0,0,0-1.66.16l.18-.17c.65-.59,1.9-1.41,2.78-.84s.53,2,.26,2.91c0,.05.07.08.1,0a3,3,0,0,0,.52-2.66A1.55,1.55,0,0,0,60.64,26.11Zm-10.37,3.4a12,12,0,0,1,.9,1.7,3.32,3.32,0,0,0-.55.09s0,.07,0,.07c.21,0,.43.09.65.11a5.62,5.62,0,0,1,.19.53,9.48,9.48,0,0,1,.35,1.73l-.38,0h-.89a.07.07,0,1,0,0,.13l1,.05a2.11,2.11,0,0,0,.35,0c0,.32.07.65.1,1s-.11.46-.18.68a3.27,3.27,0,0,0-2.12-.09c.11-.25.21-.49.3-.74a9.75,9.75,0,0,0,1.43,0,.09.09,0,0,0,0-.17,11.73,11.73,0,0,0-1.34-.1,8.82,8.82,0,0,0,.3-1.23,2,2,0,0,0,.42,0,5,5,0,0,0,.67-.13s0-.06,0-.06a4.36,4.36,0,0,0-.62-.07c-.13,0-.28,0-.42,0s0-.07,0-.1a4,4,0,0,0,.05-.5.08.08,0,0,0,.07,0l.35.06a.71.71,0,0,0,.29,0,.08.08,0,0,0,0-.14.55.55,0,0,0-.28-.07l-.32,0a.14.14,0,0,0-.12.06c0-.24,0-.49,0-.74A9.55,9.55,0,0,0,50.27,29.51Zm-40,4.21a.11.11,0,0,0-.08.08A6.56,6.56,0,0,0,12,39a6.81,6.81,0,0,0,2.23,1.56c.66.29,1.69.73,2.4.38.07,0,.05-.12,0-.16a2.56,2.56,0,0,0-.93-.35,6.58,6.58,0,0,1-1.2-.42,6.78,6.78,0,0,1-2.08-1.43,7.6,7.6,0,0,1-2.07-4.8A.07.07,0,0,0,10.3,33.72Zm40.33,2c.37,0,.71.13,1.07.17a6.58,6.58,0,0,1-.35.87,6.93,6.93,0,0,0-1.2.05c-.39,0-.78,0-1.18,0a8.81,8.81,0,0,0,.61-1.08A7.38,7.38,0,0,1,50.63,35.68Zm0,.42c-.13,0-.25,0-.37,0a0,0,0,0,0,0,.06,2,2,0,0,0,.73.08c.07,0,.06-.11,0-.13A1,1,0,0,0,50.6,36.1Zm-21.27.67a1.37,1.37,0,0,0-.92.27.12.12,0,0,0,.06.23c.58,0,1.1-.32,1.56.22a3.05,3.05,0,0,1,.57,1.42,0,0,0,0,0,.06,0,2.07,2.07,0,0,0-.48-1.75A1.27,1.27,0,0,0,29.33,36.77Zm3.83,0a1.25,1.25,0,0,0-.85.39,2.07,2.07,0,0,0-.48,1.75,0,0,0,0,0,.06,0,3,3,0,0,1,.57-1.42c.46-.54,1-.23,1.55-.22a.12.12,0,0,0,.06-.23A1.36,1.36,0,0,0,33.16,36.77Zm15.73.15h0a7.52,7.52,0,0,0,2.32,0c-.11.2-.22.39-.34.58a2.13,2.13,0,0,0-.87,0,.06.06,0,0,0,0,.11,3.18,3.18,0,0,0,.76,0,7.25,7.25,0,0,1-.75.91l-.26.23c.09,0,.08-.18,0-.17a11,11,0,0,0-2.13.35.09.09,0,0,0,0,.17,7.78,7.78,0,0,0,2.14-.34,7.91,7.91,0,0,1-1,.79l0,0a4.32,4.32,0,0,0-2.08.1,5.66,5.66,0,0,1-1.16.22H45a7.12,7.12,0,0,0,2.82-1.68c.17,0,.33-.08.49-.11A10.27,10.27,0,0,1,49.36,38c.07,0,.07-.1,0-.11a5.24,5.24,0,0,0-1.12,0h-.08l.27-.32C48.59,37.34,48.74,37.14,48.89,36.92ZM28.73,38a2.09,2.09,0,0,0-1.17.67,3.18,3.18,0,0,0-1.64,2.15A1.7,1.7,0,0,0,28,42.77c1.54-.38,1.6-2.1,1.6-3.41,0-.45,0-1-.47-1.26A.7.7,0,0,0,28.73,38Zm5.09,0a.77.77,0,0,0-.4,0c-.54.18-.55.82-.55,1.29,0,1.31.07,3,1.61,3.41a1.69,1.69,0,0,0,2.08-1.91,3.13,3.13,0,0,0-1.64-2.15A2.1,2.1,0,0,0,33.82,38.05Zm0,.53a.69.69,0,0,1,.2,0,5.33,5.33,0,0,1,1.75,1.55c.47.78.32,2-.81,2.07a.38.38,0,0,1-.15,0,1.23,1.23,0,0,0,.67-.36,1.25,1.25,0,0,0,.07-1.39s-.06,0,0,0a1.24,1.24,0,0,1-.22,1.24.89.89,0,0,1-.71.27,1,1,0,0,0,.68-.81c.15-1.11-1-1.85-1.62-2.57A.67.67,0,0,1,33.81,38.58Zm-5.39.07a.78.78,0,0,1,.32.11c-.64.68-1.63,1.39-1.49,2.44a1,1,0,0,0,.68.8.89.89,0,0,1-.72-.26A1.24,1.24,0,0,1,27,40.5a0,0,0,0,0-.06,0A1.24,1.24,0,0,0,27,41.87a1.26,1.26,0,0,0,.67.36.75.75,0,0,1-.15,0c-1.13,0-1.28-1.28-.81-2.07A5.12,5.12,0,0,1,28.42,38.65Zm5.09.08c.23.43.66.73.93,1.15a2.19,2.19,0,0,1,.4.91c.1.83-.49,1.08-1.08.72a4.56,4.56,0,0,1-.33-1.46,2.93,2.93,0,0,1,0-1.1A.58.58,0,0,1,33.51,38.73Zm-4.6.12c.25.14.21.18.19.51a5.34,5.34,0,0,1-.05.69,4.3,4.3,0,0,1-.32,1.46c-.59.36-1.18.11-1.09-.72a2.35,2.35,0,0,1,.41-.91C28.29,39.5,28.67,39.22,28.91,38.85Zm-20,.78a.11.11,0,0,0-.08.08c-.18.95.9,2.09,1.59,2.6a4.77,4.77,0,0,0,3.6.78,26.61,26.61,0,0,1,5-.45,17.39,17.39,0,0,1,4.83,1s.09-.06,0-.09a13.91,13.91,0,0,0-8.07-1.17c-1.51.22-3,.67-4.48,0a4.1,4.1,0,0,1-1.46-1.19c-.35-.46-.46-1-.82-1.49A.11.11,0,0,0,8.86,39.63Zm44.77,0a.11.11,0,0,0-.11,0c-.33.4-.44,1-.74,1.38a4.18,4.18,0,0,1-1.47,1.27c-1.47.75-3,.3-4.55.07a13.9,13.9,0,0,0-8.07,1.17s0,.11,0,.09a18.21,18.21,0,0,1,4.84-1,26.61,26.61,0,0,1,5,.45,4.76,4.76,0,0,0,3.6-.77c.69-.52,1.77-1.65,1.59-2.61A.13.13,0,0,0,53.63,39.63Zm-5.27.21-.3.15a7.51,7.51,0,0,1-1.2.44l-.42.1a4.34,4.34,0,0,1-1,.1,11.08,11.08,0,0,1-2.22-.3l-.52-.14a6.4,6.4,0,0,0,1.75-.13,4.69,4.69,0,0,0,1.71.06,10.8,10.8,0,0,1,1.26-.25C47.72,39.83,48,39.85,48.36,39.84Zm-17.88,1a0,0,0,0,0,0,0,3.47,3.47,0,0,1-.22,1.1,2.89,2.89,0,0,1-.55.7.07.07,0,0,0,.07.12c.81-.13.87-1.31.79-1.92C30.53,40.81,30.5,40.8,30.48,40.8Zm1.52,0a0,0,0,0,0,0,0c-.08.61,0,1.79.78,1.92.07,0,.13-.06.08-.12a2.89,2.89,0,0,1-.55-.7,3.47,3.47,0,0,1-.22-1.1A.05.05,0,0,0,32,40.8Zm-5.25,2.79c-.09,0-.18.1-.09.17a2.7,2.7,0,0,0,3.27.13.09.09,0,0,0-.09-.16C28.8,44.2,27.79,43.78,26.75,43.59Zm9,0c-1,.19-2,.61-3.08.14a.09.09,0,0,0-.1.16,2.7,2.7,0,0,0,3.28-.13C35.92,43.69,35.82,43.58,35.73,43.59Zm-17.51.65c.41,0,.82,0,1.23,0h.15c0,.13.08.27.11.4.08.31.16.63.22.95,0,.14.23.07.21-.06-.05-.32-.1-.64-.17-1l-.06-.31.82.08c0,.4,0,.79,0,1.18,0,.12,0,.33,0,.44s-.27.11-.38.13a6.39,6.39,0,0,1-1.14.16.3.3,0,0,1-.26-.09c-.13-.15-.18-.31-.37-.4a.7.7,0,0,0-.91.49c-.06.14-.07.31-.13.45s-.26.25-.39.33a1.35,1.35,0,0,1-1,.31.87.87,0,0,1-.54-.47,2,2,0,0,1-.18-1,11.4,11.4,0,0,0,.06-1.43.07.07,0,0,0,0,0l.58-.06.38,0c0,.37.11.74.15,1.11s0,.76.07,1.14c0,.07.14.11.15,0a6.09,6.09,0,0,0-.09-2.29c.4,0,.8,0,1.2,0a1.51,1.51,0,0,0,.06.41c.05.25.1.5.17.75,0,.07.15.06.14,0,0-.26,0-.51-.06-.77A1.5,1.5,0,0,0,18.22,44.24Zm26.05,0a1.44,1.44,0,0,0-.05.37c0,.25,0,.51-.06.77,0,.08.12.09.14,0,.06-.25.11-.5.17-.75a1.51,1.51,0,0,0,.06-.41c.4,0,.8,0,1.2,0a5.89,5.89,0,0,0-.09,2.29c0,.09.14.06.15,0,0-.38,0-.76.07-1.14s.13-.74.15-1.11l1,.08s0,0,0,0a9.14,9.14,0,0,1,0,2.28,1.09,1.09,0,0,1-.47.6,1,1,0,0,1-.89-.12,3.4,3.4,0,0,1-.45-.28.6.6,0,0,1-.24-.41c-.08-.36-.29-.76-.71-.78a.58.58,0,0,0-.46.2c-.09.11-.13.28-.26.33a1,1,0,0,1-.39,0l-.6-.1a2.2,2.2,0,0,1-.62-.12c-.13-.07-.12-.2-.11-.33,0-.45,0-.9,0-1.35l.82-.08-.06.31c-.07.32-.12.64-.17,1,0,.14.18.2.21.06.06-.32.13-.64.22-.95,0-.13.09-.27.11-.4Q43.58,44.24,44.27,44.24Zm-5.65.85a7.27,7.27,0,0,1,.17,1,4.42,4.42,0,0,1,0,1.09,1.3,1.3,0,0,1-.37.81,1,1,0,0,1-.76.25c-.34,0-.62-.3-1-.2s-.45.35-.56.62c0,0-.05.11-.08.15l0,0,0,0a.39.39,0,0,1-.15,0h-.36L34.21,49a1.07,1.07,0,0,1-.31,0h0a.24.24,0,0,1-.06-.11,3.7,3.7,0,0,1-.19-.59A4.83,4.83,0,0,1,33.51,47a.09.09,0,0,0,0-.07l.58-.17a7,7,0,0,0,.06.8,3.73,3.73,0,0,0,.15.81.06.06,0,0,0,.11,0,3.69,3.69,0,0,0,.05-.88,5.7,5.7,0,0,0,0-.83q.63-.21,1.26-.45a8.6,8.6,0,0,0,.12,2s.05,0,.05,0a6.79,6.79,0,0,0,0-2.11l1.19-.46a2.36,2.36,0,0,0,0,.53c0,.27,0,.53,0,.81,0,.07.1.06.11,0a7.84,7.84,0,0,0,.15-1.45l.48-.18.28-.1a4.86,4.86,0,0,0,0,1.08.06.06,0,0,0,.11,0,3.45,3.45,0,0,0,.24-1.23Zm-14.76,0,.12,0a3.58,3.58,0,0,0,.24,1.22c0,.06.12,0,.12,0a5,5,0,0,0,0-1.09l.77.29A7.82,7.82,0,0,0,25.26,47a.06.06,0,0,0,.11,0,7.3,7.3,0,0,1,0-.81,4.51,4.51,0,0,0,0-.52l.45.17.73.29a7.12,7.12,0,0,0,.05,2.11,0,0,0,1,0,.06,0,8.6,8.6,0,0,0,.12-2c.41.16.83.32,1.25.46a5.49,5.49,0,0,0,0,.81,3.69,3.69,0,0,0,.05.88.06.06,0,0,0,.12,0,3.61,3.61,0,0,0,.14-.81,6.48,6.48,0,0,0,.06-.77l.58.17V47a5.06,5.06,0,0,1-.1,1.16,5.32,5.32,0,0,1-.16.57c0,.07-.05.14-.08.2l0,0,0,0h0L27.3,49l-.61,0a.46.46,0,0,1-.2,0h0l0,0v0a2.17,2.17,0,0,0-.38-.64.67.67,0,0,0-.52-.16,3.69,3.69,0,0,0-.56.19,1,1,0,0,1-.79-.11,1.06,1.06,0,0,1-.47-.69,3.52,3.52,0,0,1,0-1.17A7.82,7.82,0,0,1,23.86,45.1Z"/><path class="a901e490-99fa-4cca-b382-b652c5cfedf8" d="M48.54,27.4h0v0Z"/><path class="a901e490-99fa-4cca-b382-b652c5cfedf8" d="M42.83,44.73s0,0,0,0S42.84,44.73,42.83,44.73Z"/><path class="a901e490-99fa-4cca-b382-b652c5cfedf8" d="M44.12,46.34h0Z"/></g></g></g></svg>