<svg xmlns="http://www.w3.org/2000/svg" viewBox="0 0 137 131.08"><defs><style>.b1e4e8d4-d755-438f-90e7-2048f3303a60{fill:#eb2893;}.a4eb53b7-4add-461c-afd8-a0ad7a7840b9,.a6e2159d-2a4c-4161-83e8-5b8d6bc8b1df,.ab11a032-0201-4570-94a0-0dea0c95852d,.ab7499f7-87d7-47e6-b36b-a0994dd46914,.b01f213e-12f0-49f5-89a8-a8fd0689d946,.b1e4e8d4-d755-438f-90e7-2048f3303a60,.bf69fd1a-dacd-4d4b-9cbb-a3d92cf7f14a,.e343c1db-7758-4ee8-a85e-cdb489ec3600,.e593339f-f528-48fb-aa2d-30d661cad9dc{stroke:#161412;}.a6e2159d-2a4c-4161-83e8-5b8d6bc8b1df,.ab11a032-0201-4570-94a0-0dea0c95852d,.ab7499f7-87d7-47e6-b36b-a0994dd46914,.b01f213e-12f0-49f5-89a8-a8fd0689d946,.b1e4e8d4-d755-438f-90e7-2048f3303a60,.bf69fd1a-dacd-4d4b-9cbb-a3d92cf7f14a,.e343c1db-7758-4ee8-a85e-cdb489ec3600,.e593339f-f528-48fb-aa2d-30d661cad9dc{stroke-miterlimit:10;}.b01f213e-12f0-49f5-89a8-a8fd0689d946{fill:#e289c3;}.ab7499f7-87d7-47e6-b36b-a0994dd46914{fill:#e277ba;}.e343c1db-7758-4ee8-a85e-cdb489ec3600{fill:#423737;}.a4eb53b7-4add-461c-afd8-a0ad7a7840b9{stroke-miterlimit:10;}.bf69fd1a-dacd-4d4b-9cbb-a3d92cf7f14a{fill:#f9accf;}.e593339f-f528-48fb-aa2d-30d661cad9dc{fill:#f85fad;}.ab11a032-0201-4570-94a0-0dea0c95852d{fill:#c92683;}.a6e2159d-2a4c-4161-83e8-5b8d6bc8b1df{fill:#df359c;}</style></defs><g id="fed891ce-6457-4d62-b1e0-394d558b5c12" data-name="Layer 2"><g id="b3c6bc2d-3d6c-4141-9268-658b7eda2a2f" data-name="Layer 1"><path class="b1e4e8d4-d755-438f-90e7-2048f3303a60" d="M48.42,19.87l-.27,0a1.83,1.83,0,0,1-1.54-2.08L48.94,2.06a1.83,1.83,0,1,1,3.61.54L50.22,18.31A1.82,1.82,0,0,1,48.42,19.87Z"/><path class="b1e4e8d4-d755-438f-90e7-2048f3303a60" d="M88.43,19.87a1.82,1.82,0,0,1-1.8-1.56L84.3,2.6a1.83,1.83,0,0,1,3.62-.54l2.32,15.71a1.83,1.83,0,0,1-1.54,2.08Z"/><path class="b01f213e-12f0-49f5-89a8-a8fd0689d946" d="M123.28,56.09S96.05,31.91,96.05,23.15a13.78,13.78,0,1,0-27.55,0,13.78,13.78,0,1,0-27.55,0c0,8.76-27.23,32.94-27.23,32.94Z"/><path class="ab7499f7-87d7-47e6-b36b-a0994dd46914" d="M82.28,9.37a13.51,13.51,0,0,0-3.79.54C83.76,8,92,8.64,93.09,22.74c.67,8.73,22.31,33.35,22.31,33.35l9.65,2s-29-26.18-29-34.94A13.77,13.77,0,0,0,82.28,9.37Z"/><path class="e343c1db-7758-4ee8-a85e-cdb489ec3600" d="M13.72,56.09H123.28v7.83H13.72Z"/><circle class="a4eb53b7-4add-461c-afd8-a0ad7a7840b9" cx="68.5" cy="58.09" r="5.38"/><path class="bf69fd1a-dacd-4d4b-9cbb-a3d92cf7f14a" d="M68.5,63.79l54.78.13s10.66,7.24,13.21,40.36c.16,2-1.8,3.84-5,4.67-8.69,2.27-28.87,6.29-63,6.29s-54.34-4-63-6.29c-3.16-.83-5.12-2.68-5-4.67C3.06,71.16,13.72,63.92,13.72,63.92l54.78-.13Z"/><path class="e593339f-f528-48fb-aa2d-30d661cad9dc" d="M66.67,63.48H90.29s31.51,10.13,33,49.89c.07,1.87-1.8,3.6-4.83,4.44-8.19,2.28-26.32,6.32-51.78,6.32s-43.6-4-51.79-6.32c-3-.84-4.9-2.57-4.83-4.44,1.49-39.76,33-49.89,33-49.89Z"/><path class="ab11a032-0201-4570-94a0-0dea0c95852d" d="M68.11,63.79h11.4S103,77.17,104,122.4c0,2-1.75,3.8-4.55,4.56-5.5,1.51-16,3.62-31.37,3.62S42.24,128.47,36.73,127c-2.79-.76-4.59-2.58-4.54-4.56,1-45.23,24.52-58.61,24.52-58.61Z"/><path class="a6e2159d-2a4c-4161-83e8-5b8d6bc8b1df" d="M84.09,63.79H80A36.79,36.79,0,0,1,91.59,90.42c0,20.78-17.69,37.66-39.63,37.94a102.16,102.16,0,0,0,22.15,2.22c13.47,0,22.63-2.11,27.44-3.62,2.45-.76,4-2.58,4-4.56-.9-45.23-21.44-58.61-21.44-58.61Z"/></g></g></svg>