<svg xmlns="http://www.w3.org/2000/svg" viewBox="0 0 61.78 51.33"><defs><style>.a98c35db-7311-4f38-9dbc-f81ae1a392d6{fill:#0d161d;stroke:#0d161d;}.a0cbdae3-3f27-4662-ac05-a0bbe7513249,.a22aa169-4a69-406d-b860-c7f2a6f1d24e,.a3bd1a51-65d8-4ea6-9fc1-b2a0014073a9,.a4fed33e-2a3b-4f5d-b271-c6b6dccd75d5,.a60e85ad-e69b-4e7c-b2ce-05020491cf25,.a652bbf1-aa0a-4a77-8faf-9d00d7a4b998,.a98c35db-7311-4f38-9dbc-f81ae1a392d6,.a9f43a81-fc65-4736-97a4-a7d78a1868e0,.adb94aa7-0408-4a87-a2de-f0afe6c3cf09,.af2d765f-f96e-4f19-9571-7e4b394e9842,.b91a9f53-4aa2-4380-955f-32e32d9d44b3,.bab653ae-0272-489c-afb4-b9c0dc984415,.bb0b65c4-4ac3-4f81-b5db-77a3bc8e5664,.e15a4682-3f30-4d16-a504-08c8ccd8f7bd,.e8ce036c-b6e5-48dd-98d2-9ed5e62075fe,.e930da69-f73d-4df2-ac02-f3ebfc65492c,.ed2600da-e6b5-4f04-aaa7-0d87e469744c,.ef77c3ee-31c3-4d13-90e0-57db285d8b93,.f295c0b4-a837-4a43-9ce0-7d87e0c116ac,.f364add9-7182-4871-aacc-9fc5b5528bef,.fa1c837e-6fc2-4dde-8178-20c3545ff932,.fa2dd782-253c-453e-8df0-93c52d7fb8cf,.ffac86e5-cf6c-4b67-9343-9e6e49fd7278{stroke-linecap:round;stroke-linejoin:round;stroke-width:0.84px;}.e3c79298-eb98-4828-a770-a03ca06db12d{fill:#ff4b4b;}.fa1c837e-6fc2-4dde-8178-20c3545ff932{fill:#ff7b7b;stroke:#ff7b7b;}.a9f43a81-fc65-4736-97a4-a7d78a1868e0{fill:#f1b8d0;stroke:#f1b8d0;}.ad77172e-84f8-4471-8f47-47b277843510{fill:#ab3737;}.f364add9-7182-4871-aacc-9fc5b5528bef{fill:#1fdae1;stroke:#1fdae1;}.bb0b65c4-4ac3-4f81-b5db-77a3bc8e5664{fill:#dbeced;stroke:#dbeced;}.fa2dd782-253c-453e-8df0-93c52d7fb8cf{fill:#21f986;stroke:#21f986;}.ef77c3ee-31c3-4d13-90e0-57db285d8b93{fill:#1ed1da;stroke:#1ed1da;}.ffac86e5-cf6c-4b67-9343-9e6e49fd7278{fill:#e9e9f6;stroke:#e9e9f6;}.e15a4682-3f30-4d16-a504-08c8ccd8f7bd{fill:#20ecf7;stroke:#20ecf7;}.a3bd1a51-65d8-4ea6-9fc1-b2a0014073a9{fill:#edf1f1;stroke:#edf1f1;}.bab653ae-0272-489c-afb4-b9c0dc984415{fill:#e9e9ea;stroke:#e9e9ea;}.a22aa169-4a69-406d-b860-c7f2a6f1d24e{fill:#fbfbfb;stroke:#fbfbfb;}.a652bbf1-aa0a-4a77-8faf-9d00d7a4b998{fill:#f4f4f4;stroke:#f4f4f4;}.a4fed33e-2a3b-4f5d-b271-c6b6dccd75d5{fill:#dadbdc;stroke:#dadbdc;}.adb94aa7-0408-4a87-a2de-f0afe6c3cf09{fill:#20f2a3;stroke:#20f2a3;}.ed2600da-e6b5-4f04-aaa7-0d87e469744c{fill:#dddedf;stroke:#dddedf;}.f295c0b4-a837-4a43-9ce0-7d87e0c116ac{fill:#c7c7c9;stroke:#c7c7c9;}.a0cbdae3-3f27-4662-ac05-a0bbe7513249{fill:#d6e7e7;stroke:#d6e7e7;}.e8ce036c-b6e5-48dd-98d2-9ed5e62075fe{fill:#c1c1c3;stroke:#c1c1c3;}.e930da69-f73d-4df2-ac02-f3ebfc65492c{fill:#e6e6e7;stroke:#e6e6e7;}.af2d765f-f96e-4f19-9571-7e4b394e9842{fill:#f6f7f7;stroke:#f6f7f7;}.b91a9f53-4aa2-4380-955f-32e32d9d44b3{fill:#ebebf5;stroke:#ebebf5;}.a60e85ad-e69b-4e7c-b2ce-05020491cf25{stroke:#454cb6;}.a88908b5-9b2f-422a-88f6-8ff331f63736{fill:#fff;}</style></defs><g id="b57c54e3-1156-4ae2-8001-0da91d54cc5e" data-name="Layer 2"><g id="bd1eccfd-4220-468a-97e8-26b16de65f0a" data-name="Layer 1"><g id="b639f95a-b677-411f-b8e2-7241bcfdfbc2" data-name="Layer 1"><path class="a98c35db-7311-4f38-9dbc-f81ae1a392d6" d="M30.49.42l-.31.2L29.51,1a46,46,0,0,0-5.93,3.6A15.39,15.39,0,0,0,19.21,9.3a.9.9,0,0,1-.58.4,2.06,2.06,0,0,1-.68.53.79.79,0,0,1-.58.58,11.31,11.31,0,0,1-4.5.28,32,32,0,0,1-3.17-.53l-1.2-.24c-1.69-.33-2.26-.43-3-.55L5.28,10c-.74.89-1,1.29-1.41,1.79A13.16,13.16,0,0,0,2,15.5a12.48,12.48,0,0,0-.13,2.82c0,.14,0,.27,0,.53,0,.48,0,.67,0,.93a2.18,2.18,0,0,0,.45,1.34.53.53,0,0,0,.06.1.71.71,0,0,1,.29.92A21.94,21.94,0,0,0,.59,34.87a39.72,39.72,0,0,0,.8,3.91A25,25,0,0,0,8.26,50.41c.23.17.48.33.72.5a14,14,0,0,1-.82-1.44,16.22,16.22,0,0,1-1.61-5.1,6.29,6.29,0,0,1,.3-2.65,2.08,2.08,0,0,1,1.6-1.47,1.06,1.06,0,0,1,.28-.15,6.45,6.45,0,0,1,2.51-.22h.18a4.51,4.51,0,0,0,1.86-.17c0-.14,0-.3.05-.42s0-.11,0-.2c0-.28.05-.31.07-.43a1.71,1.71,0,0,1,.43-1,1.3,1.3,0,0,1,.94-.42,2.77,2.77,0,0,1,.84.16,2.89,2.89,0,0,0,.63.13,4.77,4.77,0,0,0,1,0l.35-.08h0l.08,0h.08l.14,0a3.45,3.45,0,0,1,.24-.3h0a2.19,2.19,0,0,1,1.09-1.34s0,0,0-.07h0l.06-.07.1-.06a.58.58,0,0,1,.25-.09.91.91,0,0,1,.41.1,2.64,2.64,0,0,1,.58.4l.24.21.41.39c.11.11.19.17.2.18l.08,0a12.36,12.36,0,0,0,2.31.14,3.91,3.91,0,0,0,.62-.15.36.36,0,0,0,0-.09v0a1.86,1.86,0,0,1,.29-.63,2,2,0,0,1,2.1-1,5.14,5.14,0,0,1,2,1c1,.66,1.48.89,2,.88h.64a2.79,2.79,0,0,1,.54-.43l.07,0a2.67,2.67,0,0,0,.46-.35c.06-.06.14-.18.27-.35l.5-.73c.4-.57.64-.85.89-1a.69.69,0,0,1,.25,0,1,1,0,0,1,.28,0h0l.12,0c.34,0,.51.28.72.77,0,.07.13.29.14.31a1.43,1.43,0,0,0,.09.18,6.08,6.08,0,0,0,1.45,1.53l.25,0a2.88,2.88,0,0,1,.51.1.93.93,0,0,1,.21-.08l.09,0,.36-.1a3.47,3.47,0,0,0,1.62-.83s.08,0,.13,0a3.18,3.18,0,0,1,.51-.36l.14-.07a1.17,1.17,0,0,1,.86-.39.87.87,0,0,1,.72.57h0s0,0,0,.06v0l0,.09h0s0,0,0,0v0a.73.73,0,0,0,0,.21l.06.14.12.29A3,3,0,0,0,45,38.13,6.1,6.1,0,0,0,46,38l.18,0c.34-.07.56-.1.78-.13h0a.92.92,0,0,1,.32-.07,1.2,1.2,0,0,1,.32.06.56.56,0,0,1,.36.2s0,0,0,0l.15.12a2.62,2.62,0,0,1,.45.81c0,.07.05.13.08.21a.56.56,0,0,0,0,.08c.1.18.2.34.29.48s.16.23.23.33a3.82,3.82,0,0,0,1.62.74l0,0a3.22,3.22,0,0,1,1,.39,2.69,2.69,0,0,1,1,1.65c.06.2.12.41.17.64s.1.5.1.48a5.66,5.66,0,0,1-.34,3l-.22.63c-.14.39-.21.58-.28.81s-.17.56-.35,1.23c-.06.25-.11.4-.16.6l.22-.07.26-.06.58-.39.8-.5a18.74,18.74,0,0,0,2.53-1.8c.24-.2.44-.4.8-.76l.09-.08c.5-.49.79-.76,1.12-1,5.08-5.71,3.29-19.77,0-25.42,2.71-2.31-.18-8.87-3-10.7h0a17.25,17.25,0,0,0-9,1.31,1.14,1.14,0,0,1-.25.06s0,0-.05,0l.17.05-.17-.05a1,1,0,0,1-.87.2c-.3-.07-.56-.11-1.14-.19h0L43,10.74a.86.86,0,0,1-.73-.66h0c-.13-.33-.28-.63-.43-.94a13.72,13.72,0,0,0-2-2.66,26.82,26.82,0,0,0-6-4.24l-.66-.38-.66-.4A19.37,19.37,0,0,0,30.49.42Z"/><path class="e3c79298-eb98-4828-a770-a03ca06db12d" d="M28.41,12.74a39.78,39.78,0,0,0-9.64,1.18c-1.63.4-9.22,2.83-8.78,4.36,2.38-1,2.91-.66,3.66,1.25h-.24l-.12.83-.12-.21a9.2,9.2,0,0,0-.49.93l.24.11-.36.21.24.1a2.44,2.44,0,0,0-.37.52c0-.93-.59.2-.48.83l-.13-.21a17.27,17.27,0,0,1-1.7.83L10,23.16c-2.36,1-4.66-.7-2.43-2.6-.18-.29-.06-.15-.37-.41-.71.45-3.31,3.08-2.8,4-1,.58-1.47,2.82-1.35,3.74l-.12-.32c-1.38,2.37.27,5.88-1,8h.24v.62h.24a18.32,18.32,0,0,0,.86,5.2h.24c0,.41.15,1.87.73,1.87,0,1.32,1.67,2.31,2.32,3.42l.24-.2C3.52,40.8,5.63,31.57,13.9,29.81c15.22-3.24,49-5.21,40.36,16.93.44,0,.79-.51,1-.83.43.18,1.45-2.36,1.83-3l.13.31c1.2-3.07,2.55-8.75,1.58-12h-.24c0-.78-1.53-9.14-3.3-9.14,0-.67-.92-1.34-1.34-1.87l-.24.1A5.13,5.13,0,0,0,51,17.86c0-.6-2.65-1.62-3.3-1.76l.13-.21C40.82,14.41,35,12.75,28.41,12.74Z"/><path class="fa1c837e-6fc2-4dde-8178-20c3545ff932" d="M2.07,31c0-6.07,2.48-12.82,8.9-16.1v.21h.24c0-.43,0-.49.49-.62l.12.2C16.94,11.74,22.66,11,29,10.7,47.7,10,58.43,16.92,59,32.82a4.84,4.84,0,0,0-.25-1.66h-.24c0-.78-1.53-9.14-3.3-9.14,0-.67-.92-1.34-1.34-1.87l-.24.1A5.13,5.13,0,0,0,51,17.86c0-.6-2.65-1.62-3.3-1.76l.13-.21c-9.95-2.12-17.08-4.54-28.17-2.18-3.14.67-6.73,1.81-9.15,3.64-.56.42-2.3,3.64-3.29,2.8-.71.45-3.31,3.08-2.8,4-1,.58-1.47,2.82-1.35,3.74l-.12-.32A12.68,12.68,0,0,0,2.07,31Z"/><path class="a9f43a81-fc65-4736-97a4-a7d78a1868e0" d="M19.38,37.29Z"/><path class="ad77172e-84f8-4471-8f47-47b277843510" d="M25.33,26.4,22,26.63c-3.13.29-5.79,1.52-8.65,2.19C10,29.59,3.14,35.38,5.06,39c0-1,.85-1.58,1.23-2.3l.25.11.25-.23-.13-.23c.61-.14.38,0,.75-.34l-.25-.23c.85-1,2.55-3.34,4.08-3.34,0-1,3.07-1.74,3.83-1.38v-.23h-.25c.38-.36.61-.93,1.36-.58.57-1.07,6.12-1.55,7-1.27.6-1.1,2.64-.31,4-.34a89.44,89.44,0,0,1,10.87.23c.61.06,5.2.37,5.2,1.15,1.92,0,3.71,1,5.43,1.84l-.12.23c.55,0,2.1.71,2.1,1.27.89,0,2.29,1.62,2.47,2.3h.25v.23h.25c0,.58.61.57.61,1.15.58,0,1,1.19.75,1.61h.24c1.78-8.27-14.45-12-20.51-12.08C31.59,26.45,28.46,26.4,25.33,26.4Z"/><path class="f364add9-7182-4871-aacc-9fc5b5528bef" d="M22.68,9.24c5.46-9.3,10-6.47,15-.1C33.05,9.93,27.44,9.24,22.68,9.24Z"/><path class="bb0b65c4-4ac3-4f81-b5db-77a3bc8e5664" d="M40,9.45c-.5-.85-1.84-3-2.92-3.43l.12-.2c-2.11-.45-5-5.07-7.93-3.43C33.54,3.6,36,9.45,40,9.45Z"/><path class="fa2dd782-253c-453e-8df0-93c52d7fb8cf" d="M23.53,9.24c-.93.16-1.87.23-2.8.32,1-1.23,3-5,5-5l-.12-.31c1.69-.72,2.69-2.11,4.64-1.56a16.61,16.61,0,0,0-7.56,6.44Z"/><path class="ef77c3ee-31c3-4d13-90e0-57db285d8b93" d="M4,18.38c.62-.79.74-4.59,1.34-6.12,1.78,0,6.6.4,5.12,1.24-.32-.54-.69,0-1.1.21l.13.31c-1.58.34-2.69,1.67-3.78,2.6l.24.1c-.86.18-1.64,1-1.34,1.77C4.26,18.49,4.46,18.51,4,18.38Z"/><path class="ffac86e5-cf6c-4b67-9343-9e6e49fd7278" d="M13.65,19.53h-.24l-.12.83-.12-.21a9.2,9.2,0,0,0-.49.93l.24.11-.36.21.24.1a2.44,2.44,0,0,0-.37.52c0-.93-.59.2-.48.83l-.13-.21a17.27,17.27,0,0,1-1.7.83L10,23.16C2.4,26.39,11,12.71,13.65,19.53Z"/><path class="e15a4682-3f30-4d16-a504-08c8ccd8f7bd" d="M55.48,16.83c-1.22-2.09-4.37-2.89-6.22-4.47a17.4,17.4,0,0,1,4.39-.83A10.49,10.49,0,0,1,55.48,16.83Z"/><path class="a3bd1a51-65d8-4ea6-9fc1-b2a0014073a9" d="M56.82,18.28c.13-1.26.14-3-.73-4.15l.24-.21H56c0-.52-.42-1-.61-1.46h-.25c0-.71-1-1.25-1.7-1.45l-.13.21C55.45,13.06,55.19,16.2,56.82,18.28Z"/><path class="bab653ae-0272-489c-afb4-b9c0dc984415" d="M23.67,31.51a9.89,9.89,0,0,0-1.36.06c-4.55.94-.5,5.55,1.46,5C25,36.2,25.65,32.69,25.24,32,25,31.64,24.34,31.53,23.67,31.51Z"/><path class="a22aa169-4a69-406d-b860-c7f2a6f1d24e" d="M29.93,31.16c-1.13,0-2.25.49-2.25,1.25,0,.94,3.25,5.35,3.65,3.63a14,14,0,0,0,.86-3.22C32.19,31.64,31.06,31.15,29.93,31.16Z"/><path class="a652bbf1-aa0a-4a77-8faf-9d00d7a4b998" d="M37.69,31.6c-.93,0-1.84.22-1.84.7,0,.78,1.78,6,2.92,3.74.54-1.09,2.41-3,.86-4.36A8.21,8.21,0,0,0,37.69,31.6Z"/><path class="a4fed33e-2a3b-4f5d-b271-c6b6dccd75d5" d="M45.11,33.41a8.43,8.43,0,0,0-.85,0c-1.54.15-.89,4,.73,4C47.86,37.39,49,33.52,45.11,33.41Z"/><path class="adb94aa7-0408-4a87-a2de-f0afe6c3cf09" d="M4,18.8H3.78c0,.24.12.38.12.62-.48-.27-.23-.24-.73-.1,0-2.26-.38-6,2.19-7.06C5.36,14.28,4,16.67,4,18.8Z"/><path class="ed2600da-e6b5-4f04-aaa7-0d87e469744c" d="M15.76,33.13c-.68-.08-1.25.48-1.25,2.18h.24c.1.34.37.53.37.83.67,0,.93,1.49,2,1.15C19.33,36.52,17.27,33.29,15.76,33.13Z"/><path class="f295c0b4-a837-4a43-9ce0-7d87e0c116ac" d="M31.21,36c-.46-1.18,2.58-4,.12-4.67v-.21C34.78,31.16,33.21,35.19,31.21,36Z"/><path class="a0cbdae3-3f27-4662-ac05-a0bbe7513249" d="M11.46,12.78c.19-.34,0-.21.61-.21l-.37-.11c.31-.26.19-.12.37-.41-2,0-6.16-1.77-7.32.21C6.06,12.26,9.88,12.1,11.46,12.78Z"/><path class="e8ce036c-b6e5-48dd-98d2-9ed5e62075fe" d="M38.77,36c0-1.59,1.93-2.44.86-4.26C42.85,31.78,40.42,35.57,38.77,36Z"/><path class="e930da69-f73d-4df2-ac02-f3ebfc65492c" d="M50,36.56c-.7,0-.58.48-.73,1C48,42.58,56.1,36.17,50,36.56Z"/><path class="af2d765f-f96e-4f19-9571-7e4b394e9842" d="M10.6,36.56c-2.08,0-1.42,2.39.25,2.39v.21a5.65,5.65,0,0,0,1.22.2C12,38.33,12.3,36.56,10.6,36.56Z"/><path class="b91a9f53-4aa2-4380-955f-32e32d9d44b3" d="M5.73,23.47c.78-.18,2.49,1.52.85,1.87S4.16,23.84,5.73,23.47Z"/></g><g id="bf415416-8a3e-4d5b-b875-07a335135ac8" data-name="Layer 2"><path class="a60e85ad-e69b-4e7c-b2ce-05020491cf25" d="M26.75,18.42a2.59,2.59,0,0,1,2.76-2.35,2.58,2.58,0,0,1,2.76,2.35,2.57,2.57,0,0,1-2.76,2.35A2.58,2.58,0,0,1,26.75,18.42Z"/><path class="a60e85ad-e69b-4e7c-b2ce-05020491cf25" d="M32.64,18.53a2.59,2.59,0,0,1,2.77-2.36,2.59,2.59,0,0,1,2.77,2.36,2.59,2.59,0,0,1-2.77,2.36A2.59,2.59,0,0,1,32.64,18.53Z"/><path class="a88908b5-9b2f-422a-88f6-8ff331f63736" d="M7,18.7c1.6-2.17,4.39-3.13,6.25-2.14s2.06,3.55.47,5.72-4.39,3.13-6.25,2.14S5.41,20.87,7,18.7Z"/></g></g></g></svg>