<svg xmlns="http://www.w3.org/2000/svg" xmlns:xlink="http://www.w3.org/1999/xlink" viewBox="0 0 60.08 23.29"><defs><style>.a077c24f-6b42-4303-8df4-f9a48c3a1a74,.a3fca15a-f5fd-4666-9369-740e83966484,.ab02efa7-2743-4839-96ae-1ad881cf1900,.aff4c8ec-13e1-42ff-a5d3-29c25dd05082,.e0a3efe2-8f99-4b39-9f11-bfec88d1355d,.f58ac256-cb5d-4ced-9661-bb04142afe7e{stroke:#000;}.a077c24f-6b42-4303-8df4-f9a48c3a1a74,.a3fca15a-f5fd-4666-9369-740e83966484,.a69be23b-81a2-432a-a0f6-b0a42069a90d,.a793c039-a5c3-4cef-8e3c-62aff7d8d7af,.ab02efa7-2743-4839-96ae-1ad881cf1900,.aff4c8ec-13e1-42ff-a5d3-29c25dd05082,.b4a63c22-0931-4262-abfb-dfc4447fc2bb,.b6377072-cc27-4824-b1ab-70a9e82e102b,.bbe2c983-26a9-4a88-a9ef-1ed42c46bdec,.bd3dae71-1d01-42c5-8380-871231b3bc7a,.e0a3efe2-8f99-4b39-9f11-bfec88d1355d,.e4d2d30b-f05d-4c91-9460-b7d2a6ce11eb,.e9b01227-3701-4468-a5a7-f7895752827a,.f58ac256-cb5d-4ced-9661-bb04142afe7e{stroke-linecap:round;stroke-linejoin:round;}.a077c24f-6b42-4303-8df4-f9a48c3a1a74,.a3fca15a-f5fd-4666-9369-740e83966484,.ab02efa7-2743-4839-96ae-1ad881cf1900,.aff4c8ec-13e1-42ff-a5d3-29c25dd05082,.f58ac256-cb5d-4ced-9661-bb04142afe7e{stroke-width:4.61px;}.f58ac256-cb5d-4ced-9661-bb04142afe7e{fill:url(#a1f3dc36-f088-4ec8-af7e-d611f4ee4757);}.b6377072-cc27-4824-b1ab-70a9e82e102b{fill:#040104;stroke:#040104;}.a69be23b-81a2-432a-a0f6-b0a42069a90d,.a793c039-a5c3-4cef-8e3c-62aff7d8d7af,.b4a63c22-0931-4262-abfb-dfc4447fc2bb,.b6377072-cc27-4824-b1ab-70a9e82e102b,.bbe2c983-26a9-4a88-a9ef-1ed42c46bdec,.bd3dae71-1d01-42c5-8380-871231b3bc7a,.e0a3efe2-8f99-4b39-9f11-bfec88d1355d,.e4d2d30b-f05d-4c91-9460-b7d2a6ce11eb,.e9b01227-3701-4468-a5a7-f7895752827a{stroke-width:0.33px;}.bbe2c983-26a9-4a88-a9ef-1ed42c46bdec{fill:#010001;stroke:#010001;}.e9b01227-3701-4468-a5a7-f7895752827a{fill:#030003;stroke:#030003;}.a077c24f-6b42-4303-8df4-f9a48c3a1a74{fill:url(#aabe4298-fa1d-4390-a84a-723a987b5b1e);}.aff4c8ec-13e1-42ff-a5d3-29c25dd05082{fill:url(#af35f341-2625-4b79-9164-b1e462c1e8f8);}.b4a63c22-0931-4262-abfb-dfc4447fc2bb{fill:#020300;stroke:#020300;}.e4d2d30b-f05d-4c91-9460-b7d2a6ce11eb{fill:#010200;stroke:#010200;}.a793c039-a5c3-4cef-8e3c-62aff7d8d7af{fill:#040400;stroke:#040400;}.a69be23b-81a2-432a-a0f6-b0a42069a90d{fill:#090b01;stroke:#090b01;}.a3fca15a-f5fd-4666-9369-740e83966484{fill:url(#b5a0f806-5431-469b-b3ef-7349158dc052);}.ab02efa7-2743-4839-96ae-1ad881cf1900{fill:#d4fb0e;}.bd3dae71-1d01-42c5-8380-871231b3bc7a{fill:#ef1dee;stroke:#ef1dee;}</style><linearGradient id="a1f3dc36-f088-4ec8-af7e-d611f4ee4757" x1="-322.72" y1="3318.94" x2="-153.78" y2="3318.94" gradientTransform="translate(108.8 -1088.27) scale(0.33)" gradientUnits="userSpaceOnUse"><stop offset="0" stop-color="#fedf1a"/><stop offset="0.15" stop-color="#fba658"/><stop offset="0.23" stop-color="#f6789c"/><stop offset="0.29" stop-color="#c86bd5"/><stop offset="0.39" stop-color="#9c88db"/><stop offset="0.49" stop-color="#ae9ee2"/><stop offset="0.56" stop-color="#5caee4"/><stop offset="0.65" stop-color="#19d2e3"/><stop offset="0.75" stop-color="#18ddd4"/><stop offset="0.84" stop-color="#2de4ba"/><stop offset="0.89" stop-color="#80efd5"/><stop offset="0.95" stop-color="#62fc6c"/><stop offset="1" stop-color="#62fc6c"/></linearGradient><linearGradient id="aabe4298-fa1d-4390-a84a-723a987b5b1e" x1="-288.88" y1="3349.08" x2="-163.63" y2="3346.15" xlink:href="#a1f3dc36-f088-4ec8-af7e-d611f4ee4757"/><linearGradient id="af35f341-2625-4b79-9164-b1e462c1e8f8" x1="-313.26" y1="3344.84" x2="-191.85" y2="3351.08" xlink:href="#a1f3dc36-f088-4ec8-af7e-d611f4ee4757"/><linearGradient id="b5a0f806-5431-469b-b3ef-7349158dc052" x1="-313.42" y1="3333.35" x2="-246.55" y2="3333.35" xlink:href="#a1f3dc36-f088-4ec8-af7e-d611f4ee4757"/></defs><g id="b55d1475-1190-46b2-9e2d-27ad733b133e" data-name="Layer 2"><g id="abb86f32-7987-4a43-b6d4-db0b8d530522" data-name="Layer 1"><g id="bac1715b-fc1d-4938-8d5a-ab9d747236a5" data-name="fec8f7f5-3fec-4f71-a7db-d3e31e41ae63"><g id="afb5bd34-c637-44c4-a8ff-17943d3adbb9" data-name="a5348c7c-accf-484e-a07b-77aa835310b8"><g id="a9a389ee-cc61-4b39-adeb-356cbb8e683d" data-name="f868d17c-ddc9-440b-b8f9-92548b796f7f"><path class="f58ac256-cb5d-4ced-9661-bb04142afe7e" d="M54.61,11.65l-22.09,0v-.06h-.07l0-.1h-.07v-.2h-.07l0-.1h-.07l0-.06-.06,0,0-.07-.06,0a.15.15,0,0,1,0-.07l-.07,0,0-.07-.07,0c0-.08,0,0,0-.13h-.06l0-.1h-.07l0-.06h-.07l0-.07-.06,0,0-.07-.06,0,0-.1H32l0-.07H32L32,10l-.06,0,0-.07H31.9l0-.06-.07,0,0-.06h-.07l0-.07-.07,0,0-.07h-.06l0-.06-.07,0,0-.06H31.7l0-.07h-.06l0-.06-.07,0,0-.06H31.6a.15.15,0,0,0,0-.07l-.06,0a.15.15,0,0,0,0-.07h-.06l0-.09H31.5c0-.09,0-.06-.06-.1l0-.07H31.4c0-1.16-2-1.09-2.66-.46a6.84,6.84,0,0,0-1,2.46,3.27,3.27,0,0,1-.29.82c-7.36,0-14.71,0-22.06,0a3.77,3.77,0,0,1,0-.75H5.24a6.4,6.4,0,0,1,0-1.38H5.14c0-.18,0-.35,0-.52H5.05l0-.07L5,8.86l0-.07L5,8.76l0-.1H5l0-.07H4.91l0-.06c-.2-.1-.16-.29-.36-.4l0-.06c-.11,0-1.15-.56-1.15-.69-.27,0-.51-.52-.72-.62l0-.07a.31.31,0,0,1-.13-.1l0-.06H2.62l0-.07H2.58l0-.07H2.55l0-.06H2.52l0-.07H2.49l0-.06-.07,0,0-.1H2.42l0-.1H2.39a8.57,8.57,0,0,1-.07-1.25c.32-2.22,5.69-2,7.32-2.2a42,42,0,0,1,12,.5c2.31.42,4.62,1.11,7,1.37,3.25.36,6.37-.71,9.52-1.34a44,44,0,0,1,12.07-.49c1.46.11,6.8-.1,7.42,1.77,1,2.89-1.56,2.6-2.49,4.17C54.51,9.42,54.94,10.65,54.61,11.65Z"/><path class="b6377072-cc27-4824-b1ab-70a9e82e102b" d="M52.87,8.56a5.41,5.41,0,0,0,0,1h.06c0,.24.15.61-.06.72,0,.14,0,.23-.17.23l-5.87,0q-5.94,0-11.89,0c-.51,0-.66-2.23-.32-2.29,2.14-.43,4.37,0,6.56,0,1.36,0,2.71-.1,4.07-.14,2,0,4,0,6,.07l1.15,0C52.74,8.25,52.66,8.35,52.87,8.56Z"/><path class="bbe2c983-26a9-4a88-a9ef-1ed42c46bdec" d="M25.49,8.27l0,.06h.07l0,.07h.07c0,.49-.29,1.1-.13,1.57-.1,0-.08.08,0,.17l-.07.06c.19.39-.93.36-1,.36l-9,0c-2.67,0-5.34,0-8,0-.24,0-.42-1.9,0-2.23h.07l3,0c3.38,0,6.77,0,10.15,0,1.09,0,2.18,0,3.28-.07h1.51C25.39,8.2,25.44,8.25,25.49,8.27Z"/><path class="e0a3efe2-8f99-4b39-9f11-bfec88d1355d" d="M24.35,5.71A33.71,33.71,0,0,0,14.17,4C12,3.92,9.47,3.92,8,5.84c4.74,0,9.48,0,14.21,0C22.67,5.87,24.17,6.23,24.35,5.71Z"/><path class="e9b01227-3701-4468-a5a7-f7895752827a" d="M52,5.84c-.28-.82-2-1.22-2.76-1.45-3.22-.92-6.52-.4-9.75.13-.41.07-3.87.79-3.87,1.35H50.9A3.23,3.23,0,0,0,52,5.84Z"/><path class="a077c24f-6b42-4303-8df4-f9a48c3a1a74" d="M32.55,11.75a.1.1,0,0,1,.07,0q11,0,22,0a8.91,8.91,0,0,1-.89,3.09,9.24,9.24,0,0,1-8.4,6.14l-1.84,0a10.94,10.94,0,0,1-3.81-.82c-.16-.07-.91-.32-.91-.49-.14,0-.53-.17-.53-.3s-.15-.06-.26-.1V19.2h-.1v-.07h-.1v-.07h-.1V19c-.13,0-.09-.1-.23-.1v-.06a10.24,10.24,0,0,1-2.72-2.79l-.1,0c0-.12-.07-.05-.07-.19h-.06v-.1h-.07v-.1h-.06v-.1h-.07c0-.09,0,0-.06-.1l0-.07h-.07v-.09h-.06l0-.07c-.09,0,0,0-.13-.1l0-.06H34v-.1h-.07a.15.15,0,0,0,0-.07H33.9a.17.17,0,0,1,0-.06c-.11,0-.1-.07-.1-.17h-.06l0-.06h-.07l0-.07H33.7l0-.06h-.06l0-.07h-.07c0-.17-.15-.35-.19-.52-.11,0-.11,0-.07-.13h-.06A7.94,7.94,0,0,0,32.55,11.75Z"/><path class="aff4c8ec-13e1-42ff-a5d3-29c25dd05082" d="M27.37,11.71a30.62,30.62,0,0,1-2.2,4.4A11.26,11.26,0,0,1,14.5,20.9c-1.9-.21-3.26-1-5-1.57v-.07h-.1V19.2a6.77,6.77,0,0,1-1.87-2l-.09,0a1.12,1.12,0,0,0-.33-.49l0-.07A.25.25,0,0,1,7,16.31H7l0-.07c-.09,0-.05,0-.13-.1l0-.06H6.82l0-.07H6.78l0-.06c-.08,0-.1-.1-.17-.17l0-.06H6.62l0-.07H6.59l0-.06H6.56c0-.15-.2-.3-.14-.43H6.36l0-.06H6.33c0-.17-.15-.25-.1-.4H6.16c0-.19-.19-.35-.13-.52H6c0-.14-.08-.16,0-.3H5.87c0-.45-.3-.91-.3-1.34H5.51c0-.12-.2-.82,0-.82C12.77,11.69,20.07,11.71,27.37,11.71Z"/><path class="b4a63c22-0931-4262-abfb-dfc4447fc2bb" d="M24.58,12.89c0,.14-.15.47-.1.56-.12.06-.32.49-.26.59-.26.26-.25.91-.69.92-2,0-4.05,0-6.08,0l-6,0c-1,0-2,.42-2.92,0-.36-.15-1-1.8-.76-2a17.14,17.14,0,0,1,3-.2h2.29c1.46,0,2.92.08,4.37.1q1.92,0,3.84,0C22.37,12.89,23.53,12.54,24.58,12.89Z"/><path class="e4d2d30b-f05d-4c91-9460-b7d2a6ce11eb" d="M44,12.83c1.88,0,3.76,0,5.64,0l1.78,0c.29,0,.78-.18.88.1s-.09.68-.2.95C51.63,15.13,51.68,15,50,15H36.46c-.39,0-1.28-2.09-.92-2.1,1.8,0,3.61,0,5.41,0C42,12.89,43,12.84,44,12.83Z"/><path class="a793c039-a5c3-4cef-8e3c-62aff7d8d7af" d="M44.4,17.19c.89,0,1.77,0,2.66,0,.25,0,1,0,1.31.07a8.18,8.18,0,0,1,1.45.2c-.65,1.5-5.17,1.83-6.27,1.83A9.62,9.62,0,0,1,40,18.41a4.41,4.41,0,0,1-1-.62c-.06-.05-.53-.43-.46-.43.88-.05,1.75,0,2.63,0l1.11,0C43,17.27,43.68,17.22,44.4,17.19Z"/><path class="a69be23b-81a2-432a-a0f6-b0a42069a90d" d="M21.52,17.39c0,.58-2.47,1.45-3,1.58-2,.5-5.47.72-7.36-.69A9.35,9.35,0,0,0,10,17.39l0-.1c2.93,0,5.86,0,8.79,0l2,0A1.78,1.78,0,0,1,21.52,17.39Z"/><path class="a3fca15a-f5fd-4666-9369-740e83966484" d="M27.37,11.71c-7.3,0-14.6,0-21.9,0,0,0,0,0,0,.07l0-.1Z"/><path class="ab02efa7-2743-4839-96ae-1ad881cf1900" d="M54.64,11.68l-22,0a.1.1,0,0,0-.07,0v-.07Z"/><path class="bd3dae71-1d01-42c5-8380-871231b3bc7a" d="M50.74,5.9l-12.64,0C42.31,5.92,46.52,5.9,50.74,5.9Z"/></g></g></g></g></g></svg>