<svg xmlns="http://www.w3.org/2000/svg" viewBox="0 0 35.75 31.83"><defs><style>.a5bf7891-1d65-47e7-836e-1f70452cf0a7{fill:#282823;stroke:#282823;}.a021ab46-c2fb-41d0-a971-3ae62911a7f2,.a31e3eeb-d534-4b6a-9cd9-641ac5ef2fb0,.a3af23f2-0e47-46fe-b7ca-cf08c4b295cd,.a55110c1-12f1-458b-8542-e222a81195e8,.a5bf7891-1d65-47e7-836e-1f70452cf0a7,.a89bb9cf-bace-4c09-98a1-5284cb72bd72,.ab634a63-dac3-43c3-82f2-e6a133428b9e,.acb8bac9-aaaf-487d-bf64-0a1108c9a7b1,.b66c9f4c-6158-4261-bcb8-b6d937500698,.b87ec4ad-da52-47a9-9da3-b0ed3871ee64,.bac37a7e-ee7b-40d6-babc-bf65bda14e07,.bacf925e-4a46-4f35-89cf-370552ebb143,.ee966802-b870-4692-88ee-ab7a48c316ad,.f1dedd9b-95fd-4ec8-bb9d-c23192753e47,.f6a3df50-072d-48d8-b8ec-5f01ea244ece{stroke-linecap:round;stroke-linejoin:round;stroke-width:0.21px;}.ab634a63-dac3-43c3-82f2-e6a133428b9e{fill:#232220;stroke:#232220;}.a31e3eeb-d534-4b6a-9cd9-641ac5ef2fb0,.a89bb9cf-bace-4c09-98a1-5284cb72bd72,.b87ec4ad-da52-47a9-9da3-b0ed3871ee64,.f1dedd9b-95fd-4ec8-bb9d-c23192753e47{fill-opacity:0.32;}.a31e3eeb-d534-4b6a-9cd9-641ac5ef2fb0{stroke:#76a609;}.b87ec4ad-da52-47a9-9da3-b0ed3871ee64{stroke:#76a606;}.a021ab46-c2fb-41d0-a971-3ae62911a7f2{fill:#232121;stroke:#232121;}.a55110c1-12f1-458b-8542-e222a81195e8{fill:#34352c;stroke:#34352c;}.f1dedd9b-95fd-4ec8-bb9d-c23192753e47{stroke:#79aa06;}.b66c9f4c-6158-4261-bcb8-b6d937500698{fill:#fcfcfc;stroke:#fcfcfc;}.a89bb9cf-bace-4c09-98a1-5284cb72bd72{stroke:#82ad1b;}.acb8bac9-aaaf-487d-bf64-0a1108c9a7b1{fill:#efefef;stroke:#efefef;}.f6a3df50-072d-48d8-b8ec-5f01ea244ece{fill:#2b2d20;stroke:#2b2d20;}.ee966802-b870-4692-88ee-ab7a48c316ad{fill:#dadada;stroke:#dadada;}.bacf925e-4a46-4f35-89cf-370552ebb143{fill:#e7e6e6;stroke:#e7e6e6;}.a3af23f2-0e47-46fe-b7ca-cf08c4b295cd{fill:#a2a597;stroke:#a2a597;}.bac37a7e-ee7b-40d6-babc-bf65bda14e07{fill:#f3f3f3;stroke:#f3f3f3;}</style></defs><g id="a3dff794-9e76-4742-8bf8-ae97e580cd6c" data-name="Layer 2"><g id="acd311d3-b205-4270-bd34-78ca81edd9b2" data-name="Layer 1"><g id="f4d4be67-95ac-409f-be32-0eb2dc9c7f90" data-name="Layer 1"><path class="a5bf7891-1d65-47e7-836e-1f70452cf0a7" d="M28.38,21.74a.91.91,0,0,1-.07.14c.39,0,1.08.44,1.08.86.8.27,2.86,3.64,2,4.31-1,.82-4-.12-5.24-.14-3.4,0-6.81-.07-10.21-.07-4.55,0-9.12.6-13.65,0a18.52,18.52,0,0,0,2.51-.43c.2-.09,0-.47-.07-.58-.34-1.35-1-4,.79-4.67,3.12-1.25,5.68,3.83,7.69,3.95a77.15,77.15,0,0,0,11.07-.36C25.06,24.69,25.46,21.32,28.38,21.74Z"/><path class="ab634a63-dac3-43c3-82f2-e6a133428b9e" d="M9.2.32V.46c2.12,0,3.42,3.05,3.81,4.6h.14c0,1.82.1,3.22-.86,4.82a9.24,9.24,0,0,1-2.52,2.8C1.59,18.53-4.87,2.89,5.39.32A8.6,8.6,0,0,1,9.2.32Z"/><path class="a31e3eeb-d534-4b6a-9cd9-641ac5ef2fb0" d="M1.08,10.67c3.53,7.06,13.19,1.1,12.07-5.61H13a3,3,0,0,0-.36-1.22c.25,0,.5.43.57.65.42,0,.16.72.58.72,0,.25-.09.5.21.5,0,1.76,1,5.2-.93,6.47l.07.14a24.65,24.65,0,0,1-3.74,3.31C6.27,17.72,1.65,13.51,1.08,10.67Z"/><path class="b87ec4ad-da52-47a9-9da3-b0ed3871ee64" d="M35.07,6.93h.14c.09.37,0,.24.29.43-.07.22-.13.36.14.36,0,4.28-.39,7.46-5.1,8.05l.22.07c-4.23.15-8.15-2.48-8.41-7.11-.09-1.64-.23-3.06,1.15-4.1a13.24,13.24,0,0,1-.29,2.81c0,1.9,1.38,3.75,2.59,5C29.77,16.37,36,11.81,35.07,6.93Z"/><path class="a021ab46-c2fb-41d0-a971-3ae62911a7f2" d="M35.07,6.64h-.15c.12-.23,0-.41-.07-.64h-.14c0-1.42-2.44-2.42-2.44-3.38H32C32,2,30,1.46,29.53,1.4V1.26c-12.41,0-4,19,4.53,10.42C35.56,10.18,34.45,7.88,35.07,6.64Z"/><path class="a55110c1-12f1-458b-8542-e222a81195e8" d="M19,12.75v.15c.74,0,1,.58,1.51,1.07l-.07.15c1,.51,0,2-.58,2.37a4.74,4.74,0,0,1-4.52.07C12.32,14.73,16.91,12,19,12.75Z"/><path class="f1dedd9b-95fd-4ec8-bb9d-c23192753e47" d="M14.37,15.34c0,1.88,6.11,2.74,6.47-.5.1.21,0,.12.29.21C21.13,20.61,13,18.08,14.37,15.34Z"/><path class="b66c9f4c-6158-4261-bcb8-b6d937500698" d="M10.78,25.62a39.81,39.81,0,0,0-5.32.64c0-.52-.47-3.48.5-3.81C6.55,22.26,10.78,25.3,10.78,25.62Z"/><path class="a89bb9cf-bace-4c09-98a1-5284cb72bd72" d="M23.21,31.37c.81,0,.54-1.56-.14-1.73V29.5h-.22v-.15c-2.75,0-5.54-1.06-7.4,1.73.59.19,1.3-1,1.94-1.15C18.62,29.62,22.71,29.37,23.21,31.37Z"/><path class="acb8bac9-aaaf-487d-bf64-0a1108c9a7b1" d="M28.38,5.71c1.94-.54,3.89,2.94,1.37,4C26.78,10.85,25.7,6.45,28.38,5.71Z"/><path class="f6a3df50-072d-48d8-b8ec-5f01ea244ece" d="M23.35,31.44c-.11.08-.32.28-.5.28-2.54,0-5.08,0-7.62-.07,0-.95,2.39-1.33,3-1.36.86,0,1.73-.07,2.59-.07.08,0,.68.12.79.14C22.59,30.57,22.75,31.13,23.35,31.44Z"/><path class="ee966802-b870-4692-88ee-ab7a48c316ad" d="M17.53,13.26c.51-.08,2.09-.1,1.94.93a24.77,24.77,0,0,1-2.73,0,2.77,2.77,0,0,0-1.36.79s-.32.61-.36.5C14.45,14.07,16.67,13.39,17.53,13.26Z"/><path class="bacf925e-4a46-4f35-89cf-370552ebb143" d="M28.82,24.9c-1,.33-2.61-.08-3.67-.15C27.45,22,27.46,22.86,28.82,24.9Z"/><path class="a3af23f2-0e47-46fe-b7ca-cf08c4b295cd" d="M16.38,30.65c1-1.56,4.71-1.41,6-.15C21,31,18.35,30.16,16.38,30.65Z"/><path class="bac37a7e-ee7b-40d6-babc-bf65bda14e07" d="M7.69,6.57C9,6.22,10,8.91,8.48,9,6.79,9.14,6,7,7.69,6.57Z"/></g></g></g></svg>