<svg xmlns="http://www.w3.org/2000/svg" viewBox="0 0 256.18 183.01"><defs><style>.ac649fc2-dd43-464f-aecf-8d9c3bc97d4f{fill:#6f777e;}.a1b0574a-1310-4b39-9d55-f51c4df97aa5,.a993a495-fae6-422b-b89b-d273cc8fd03b,.ab762bfe-8548-4708-b99e-5875323bc42b,.ac649fc2-dd43-464f-aecf-8d9c3bc97d4f,.bba23a02-3f0d-4168-87a5-620f78bb9b0b,.e171311a-d112-4e09-96d3-423f16f7c4c8,.e3ef6aa9-fb24-4e28-9c38-0d7647e665db,.ee7c47a5-3b6a-442e-aafa-c6d2631c01e6,.f1f3a06b-df5c-414f-88dd-1dc7592764fa{fill-rule:evenodd;}.ee7c47a5-3b6a-442e-aafa-c6d2631c01e6{fill:#454a4d;}.ab762bfe-8548-4708-b99e-5875323bc42b{fill:#e6b975;}.a993a495-fae6-422b-b89b-d273cc8fd03b{fill:#be9163;}.bba23a02-3f0d-4168-87a5-620f78bb9b0b{fill:#78421a;}.a1b0574a-1310-4b39-9d55-f51c4df97aa5{fill:#15242e;}.f1f3a06b-df5c-414f-88dd-1dc7592764fa{fill:#1b1c1c;}.e171311a-d112-4e09-96d3-423f16f7c4c8{fill:#4e371e;}.e3ef6aa9-fb24-4e28-9c38-0d7647e665db{fill:#210e07;}</style></defs><g id="bd56b07c-4614-43d5-9825-fb0972971e8e" data-name="Layer 2"><g id="a76d1297-e0d5-4db0-b4e7-65e70c743339" data-name="Layer 1"><path class="ac649fc2-dd43-464f-aecf-8d9c3bc97d4f" d="M240.87,3.34,244,8.7l-1.51.92-3.1-5.36Z"/><path class="ac649fc2-dd43-464f-aecf-8d9c3bc97d4f" d="M253.21,24.59l-3.05-5.17-1.63.85,3.17,5.25Z"/><path class="ac649fc2-dd43-464f-aecf-8d9c3bc97d4f" d="M232.81,7.16l3.1,5.36-1.63.86-3-5.29Z"/><path class="ac649fc2-dd43-464f-aecf-8d9c3bc97d4f" d="M245.83,29.78l-3-5.29-1.63.85,3.1,5.37Z"/><path class="ac649fc2-dd43-464f-aecf-8d9c3bc97d4f" d="M224.33,10.58l3.1,5.37-1.51.92-3.1-5.36Z"/><path class="ac649fc2-dd43-464f-aecf-8d9c3bc97d4f" d="M238.68,35.43l-3-5.29-1.63.85,3.1,5.36Z"/><path class="ee7c47a5-3b6a-442e-aafa-c6d2631c01e6" d="M242,1.38a2.94,2.94,0,0,1-1,3.8,2.84,2.84,0,0,1-3.86-.92A2.84,2.84,0,0,1,238,.39a3,3,0,0,1,4,1Z"/><path class="ee7c47a5-3b6a-442e-aafa-c6d2631c01e6" d="M255.53,24.79a3.07,3.07,0,0,0-3.91-1.11,3,3,0,0,0-1,4,2.84,2.84,0,0,0,3.86.92,2.92,2.92,0,0,0,1-3.79Z"/><path class="ee7c47a5-3b6a-442e-aafa-c6d2631c01e6" d="M233.81,5.14A2.84,2.84,0,0,1,232.89,9a3,3,0,0,1-4-1A3.08,3.08,0,0,1,230,4.09a2.93,2.93,0,0,1,3.79,1Z"/><path class="ee7c47a5-3b6a-442e-aafa-c6d2631c01e6" d="M248.23,29.86a2.79,2.79,0,0,0-3.87-.92,2.66,2.66,0,0,0-1,3.79,2.77,2.77,0,0,0,3.79,1.05,2.94,2.94,0,0,0,1.12-3.92Z"/><path class="ee7c47a5-3b6a-442e-aafa-c6d2631c01e6" d="M225.45,8.63a2.92,2.92,0,0,1-1,3.79,2.81,2.81,0,0,1-2.94-4.78,3,3,0,0,1,4,1Z"/><path class="ee7c47a5-3b6a-442e-aafa-c6d2631c01e6" d="M241,35.44a2.85,2.85,0,0,0-3.86-.92A2.85,2.85,0,0,0,240,39.43a3,3,0,0,0,1-4Z"/><path class="ab762bfe-8548-4708-b99e-5875323bc42b" d="M132.5,72.64c-6.29-13.39-25.95-27.3-39.76-13.76C82,69.94,77.24,79.9,60.07,75.23c-49.14-13.29-75.29,35.28-50.68,76,18.26,30.2,52.63,46.55,81,13.9a70.73,70.73,0,0,0,11.37-21.45c2.29-6.82,6.64-12.13,14.92-14.36,6.71-1.18,29.65-4.59,16.35-14.84-14.73-11.73-6.83-26.87-.53-41.79Z"/><path class="a993a495-fae6-422b-b89b-d273cc8fd03b" d="M216.7,25.56,105.93,86.31l8.27,14.19L221.85,34.7Z"/><path class="bba23a02-3f0d-4168-87a5-620f78bb9b0b" d="M211.47,28.41l-1.63.85,5.45,9.48,1.51-.92Zm-7.63,4.23-1.63.85L208,43.31l1.51-.93Zm-7.57,4.11-1.63.85,5.92,10.08,1.43-.8ZM188.63,41l-1.51.92,6.09,10.34,1.51-.93Zm-7.57,4.1-1.51.92,6.2,10.73,1.51-.92Zm-7.64,4.23-1.51.92,6.5,11.06,1.5-.92Zm-7.57,4.11-1.51.92,6.6,11.44,1.51-.92Zm-7.64,4.23-1.51.92,6.9,11.78,1.5-.92Zm-7.57,4.1-1.5.93,7,12.16,1.51-.92ZM143,66l-1.5.93,7.29,12.49,1.51-.92Zm-7.57,4.11-1.5.92,7.4,12.88,1.5-.92Zm-7.64,4.23-1.5.92L134,88.45l1.51-.92Zm-7.44,4.18-1.63.85,7.87,13.47L128,92Zm-7.64,4.23-1.63.85,8.16,13.81,1.51-.92Z"/><path class="a1b0574a-1310-4b39-9d55-f51c4df97aa5" d="M254.13,10h0l-6.9-6.41c-8.43,7-18.6,10.29-29,13.09a12.87,12.87,0,0,1-1.53,8.89l2.58,4.57h0l2.57,4.57a11.5,11.5,0,0,1,8.48,3.09c7.65-7.64,15.59-14.95,25.85-18.65Z"/><path class="f1f3a06b-df5c-414f-88dd-1dc7592764fa" d="M65.76,147.65A15.37,15.37,0,0,1,55.65,150a37.43,37.43,0,0,1-3.38-7.15L39.35,120.59a45.67,45.67,0,0,1-4.42-6.45,14.84,14.84,0,0,1,7-7.68c3.25,12.45,14.67,32.19,23.81,41.19Z"/><path class="e171311a-d112-4e09-96d3-423f16f7c4c8" d="M111.63,92.52a19.62,19.62,0,1,1-26.81-7.13,19.73,19.73,0,0,1,26.81,7.13Z"/><path class="e3ef6aa9-fb24-4e28-9c38-0d7647e665db" d="M107.71,94.82a15.07,15.07,0,1,1-20.6-5.5,15,15,0,0,1,20.6,5.5Z"/></g></g></svg>