<svg xmlns="http://www.w3.org/2000/svg" xmlns:xlink="http://www.w3.org/1999/xlink" viewBox="0 0 38.18 30.23"><defs><style>.bb68666c-ee24-4c48-b7f4-1eb7e73ec144{fill:#0a1313;stroke:#662f83;}.a6e02cc9-25cb-43d1-91d1-5b22c914713a,.a9718334-4348-436f-a9bd-bdee5f706259,.aaa30066-3b76-4b51-acf2-4918188d6b38,.b274cf0b-3208-4b93-be2f-8dc5f0c7cd51,.b364abe1-342c-4a4f-b17e-b94e7d56386a,.b43237fe-cf23-4ce5-8bdc-3c620cd86a29,.b5a4f3a9-0130-4821-90e8-c49ce5ebfb04,.b716764e-5893-4996-b1ed-83826834affd,.bb68666c-ee24-4c48-b7f4-1eb7e73ec144,.bc03e2f7-c96d-4e1f-a8fd-1dc55b8db96d,.bc5a8d25-9a73-45af-ba7c-61ce68178809,.f4853205-29ba-40a5-86b5-7614912a3ac0,.f62fbfe3-84db-4cd8-b73c-0a7d5d16ea40,.fa5841c4-ee30-46e9-99b3-83cdf7dc9c40{stroke-linecap:round;stroke-linejoin:round;stroke-width:0.84px;}.bc03e2f7-c96d-4e1f-a8fd-1dc55b8db96d{fill:#833d42;stroke:#833d42;}.a9718334-4348-436f-a9bd-bdee5f706259{stroke:#f4f6e9;fill:url(#e6eaa8a6-1e0f-40df-8f80-3811c9757c2d);}.b274cf0b-3208-4b93-be2f-8dc5f0c7cd51{stroke:#f1f2e5;fill:url(#a009fd71-2a73-4c31-8970-1f331d893997);}.b364abe1-342c-4a4f-b17e-b94e7d56386a{stroke:#88d1ee;fill:url(#bb2fcc79-9a8c-41eb-a756-e308e8c191ca);}.aaa30066-3b76-4b51-acf2-4918188d6b38{stroke:#89d0ed;fill:url(#bfed192f-f0a7-497e-869b-4cfaabfb1b2c);}.f62fbfe3-84db-4cd8-b73c-0a7d5d16ea40{fill:#c3262e;stroke:#c3262e;}.b716764e-5893-4996-b1ed-83826834affd{fill:#1d2022;stroke:#1d2022;}.a6e02cc9-25cb-43d1-91d1-5b22c914713a{fill:#1b1d1e;stroke:#1b1d1e;}.f4853205-29ba-40a5-86b5-7614912a3ac0{fill:#f2f2e5;stroke:#f2f2e5;}.b43237fe-cf23-4ce5-8bdc-3c620cd86a29{fill:#f2f2e4;stroke:#f2f2e4;}.bc5a8d25-9a73-45af-ba7c-61ce68178809{fill:#f2f3e5;stroke:#f2f3e5;}.b5a4f3a9-0130-4821-90e8-c49ce5ebfb04{fill:#f1f0e3;stroke:#f1f0e3;}.fa5841c4-ee30-46e9-99b3-83cdf7dc9c40{fill:#2a292a;stroke:#2a292a;}</style><radialGradient id="e6eaa8a6-1e0f-40df-8f80-3811c9757c2d" cx="-640.56" cy="389.17" r="15.58" gradientTransform="matrix(0.84, 0, 0, -0.84, 567.16, 334.86)" gradientUnits="userSpaceOnUse"><stop offset="0" stop-color="#fedf1a"/><stop offset="0.15" stop-color="#fba658"/><stop offset="0.23" stop-color="#f6789c"/><stop offset="0.29" stop-color="#c86bd5"/><stop offset="0.39" stop-color="#9c88db"/><stop offset="0.49" stop-color="#ae9ee2"/><stop offset="0.56" stop-color="#5caee4"/><stop offset="0.65" stop-color="#19d2e3"/><stop offset="0.75" stop-color="#18ddd4"/><stop offset="0.84" stop-color="#2de4ba"/><stop offset="0.89" stop-color="#80efd5"/><stop offset="0.95" stop-color="#62fc6c"/><stop offset="1" stop-color="#62fc6c"/></radialGradient><radialGradient id="a009fd71-2a73-4c31-8970-1f331d893997" cx="-658.65" cy="389.2" r="17.33" gradientTransform="matrix(0.84, 0, 0, -0.84, 567.16, 334.86)" gradientUnits="userSpaceOnUse"><stop offset="0" stop-color="#fedf1a"/><stop offset="0.08" stop-color="#fba658"/><stop offset="0.17" stop-color="#f6789c"/><stop offset="0.26" stop-color="#c86bd5"/><stop offset="0.36" stop-color="#9c88db"/><stop offset="0.46" stop-color="#ae9ee2"/><stop offset="0.56" stop-color="#5caee4"/><stop offset="0.65" stop-color="#19d2e3"/><stop offset="0.75" stop-color="#18ddd4"/><stop offset="0.76" stop-color="#2de4ba"/><stop offset="0.89" stop-color="#80efd5"/><stop offset="0.92" stop-color="#62fc6c"/><stop offset="1" stop-color="#62fc6c"/></radialGradient><radialGradient id="bb2fcc79-9a8c-41eb-a756-e308e8c191ca" cx="-640.63" cy="389.2" r="5.25" gradientTransform="matrix(0.84, 0, 0, -0.84, 567.16, 334.86)" gradientUnits="userSpaceOnUse"><stop offset="0" stop-color="#0079ff"/><stop offset="1" stop-color="#fff"/></radialGradient><radialGradient id="bfed192f-f0a7-497e-869b-4cfaabfb1b2c" cx="-658.64" cy="389.15" r="5.23" xlink:href="#bb2fcc79-9a8c-41eb-a756-e308e8c191ca"/></defs><g id="fac7a968-8268-4194-849f-476807a25b43" data-name="Layer 2"><g id="ac3f9b90-24e6-4b04-bfd7-45b6d3b5276a" data-name="Layer 1"><g id="a9f21a5c-d393-43f3-9103-7fff7ad8ce5f" data-name="Layer 1"><path class="bb68666c-ee24-4c48-b7f4-1eb7e73ec144" d="M32.38,29.6c-8.93.46-17.89,0-26.83,0-6.8,0-6.92-11.91.14-11.93q13.48,0,27-.05a4.38,4.38,0,0,1,2.1.73C39.27,21.73,38.85,29.26,32.38,29.6Z"/><path class="bc03e2f7-c96d-4e1f-a8fd-1dc55b8db96d" d="M11.81,19.59H26.26c0,1.06-.51,2.34.13,3.2.49.65,1.77.9,2.15-.05s.08-2.1.09-3.15h.83c0,1.06-.51,2.34.13,3.2.49.64,1.77.9,2.15-.05s.08-2.1.09-3.15c3.81,0,5.13,4.6,2.61,7.13a3.43,3.43,0,0,1-2.06.86c-1.81,0-3.62,0-5.44.05,0-1.39-5.34-1.9-6.08-1.92-1.2,0-2.4-.05-3.61-.05a15.77,15.77,0,0,0-3,.37c-.72.14-3.15.54-3.15,1.6-1.77,0-3.54,0-5.31,0a3.11,3.11,0,0,1-1.6-.5c-3.51-2.64-2.2-6.7,2-7.54,0,.94,0,1.88,0,2.83a1.15,1.15,0,0,0,.32.59c.53.53,1.79.51,2-.36a13.59,13.59,0,0,0,0-3.06h.83c0,1.13-.53,2.58.27,3.38.53.53,1.82.61,2.06-.32A13.59,13.59,0,0,0,11.81,19.59Z"/><path class="a9718334-4348-436f-a9bd-bdee5f706259" d="M25.89.52c2.42-.37,3.83.54,5.44,2.15,3.24,3.24.6,9-3.52,9.78a6.08,6.08,0,0,1-6.76-8.22A5.78,5.78,0,0,1,25.89.52Z"/><path class="b274cf0b-3208-4b93-be2f-8dc5f0c7cd51" d="M10.76.52a5.53,5.53,0,0,1,5.9,2.93c2.05,3.41-.07,8.83-4.35,9.05C4.26,12.91,2.63,2.07,10.76.52Z"/><path class="b364abe1-342c-4a4f-b17e-b94e7d56386a" d="M26.07,2.12a4.06,4.06,0,0,1,4.44,2.24c1.47,2.46-.15,6.36-3.16,6.54C21.4,11.26,20.13,3.4,26.07,2.12Z"/><path class="aaa30066-3b76-4b51-acf2-4918188d6b38" d="M10.85,2.12c5.61-.83,7,7.66,1.6,8.73C6.62,12,4.6,3.05,10.85,2.12Z"/><path class="f62fbfe3-84db-4cd8-b73c-0a7d5d16ea40" d="M26.94,27.63c0-1.39-5.34-1.9-6.08-1.92-1.2,0-2.4-.05-3.61-.05a15.77,15.77,0,0,0-3,.37c-.72.14-3.15.54-3.15,1.6Z"/><path class="b716764e-5893-4996-b1ed-83826834affd" d="M13.41,6.05a2.25,2.25,0,0,1-.27,1.56C9.89,11.67,7.53,3.45,11.9,4.55A1.47,1.47,0,0,0,13.41,6.05Z"/><path class="a6e02cc9-25cb-43d1-91d1-5b22c914713a" d="M26.39,4.5c2-.38,3.45,3.32,1,3.93A2,2,0,1,1,26.39,4.5Z"/><path class="f4853205-29ba-40a5-86b5-7614912a3ac0" d="M28.63,19.59c0,1,0,1.92,0,2.88s-1.55,1-2.1.5c-.8-.8-.25-2.25-.27-3.38Z"/><path class="b43237fe-cf23-4ce5-8bdc-3c620cd86a29" d="M31.83,19.59c0,1,0,1.92,0,2.88s-1.56,1-2.1.5c-.8-.8-.25-2.25-.27-3.38Z"/><path class="bc5a8d25-9a73-45af-ba7c-61ce68178809" d="M11.81,19.59c0,1,0,1.95,0,2.92s-1.67,1-2.15.41C9,22,9.45,20.7,9.44,19.59Z"/><path class="b5a4f3a9-0130-4821-90e8-c49ce5ebfb04" d="M8.61,19.59c0,1,0,1.95,0,2.92s-1.73,1-2.19.32c-.6-.9-.17-2.16-.18-3.24Z"/><path class="fa5841c4-ee30-46e9-99b3-83cdf7dc9c40" d="M13.41,6.05A1.39,1.39,0,0,1,12,4.55,2.39,2.39,0,0,1,13.41,6.05Z"/></g></g></g></svg>