<svg xmlns="http://www.w3.org/2000/svg" viewBox="0 0 240.26 52.23"><defs><style>.e1c6c04b-2bba-4313-a56a-34d15683d6ae{fill:#787878;}</style></defs><g id="aabf29f7-77d9-4b59-9399-31353ad8cab4" data-name="Layer 2"><g id="ba4c577f-693a-410e-99e2-ed670ba0ac34" data-name="Layer 1"><path d="M199.42,28.93a35.2,35.2,0,0,0-.35-5c13.25,0,18.14-13.08,20-23.91,2.47,2.47,13.41,10.53,13.41,13.77h.24v.35h.23v.34h.23v.35h.24v.35h.23c0,.45.21.52.35.94h.23c0,.35,0,.16.12.58h.23c0,.37.06.82.47.82,0,.4.25,1.28.7,1.28l-.12.23h.24l-.12.24h.23l-.11.23h.23l-.12.23h.24l-.12.24h.23c-.21.42.32,1.07.47,1.51H237c-.16.34,0,.47.12.82h.23l-.11.23c.45.45.48,1.23.7,1.87h.23c0,.63.47,2.8.93,3a5.81,5.81,0,0,0,.7,3c-.4.8.6,9.83.47,10.73-1.46-14.61-6.46-20-15.87-29.4-.48.74.44,3.06.59,4a67.76,67.76,0,0,1,.46,7.93c.32,7-.51,14-1.28,20.88-.06-5.38.65-13.85-.82-19.71-2,4-5.77,6.35-8.86,9.45s-5,7.66-6.07,11.89c-.44-5.8,2.78-11.73,6.65-15.86,3.59-3.82,8.86-9.81,5.95-15.63-1.26,1.26-1.89,3.2-3.15,4.55A30,30,0,0,1,199.42,28.93Z"/><path d="M16.06,49.9c0-11.12-2.22-21.8,0-32.9-1.74,1.74-3.85,3.15-5.6,4.9C3.72,28.64,1,37.27.07,46.52c-1-16.39,7.5-32,21.24-41.18,0,1.15.12,5.49,1.05,5.95l-.12.35.23.12-.11.34.23.12c-.32.64.81,3,1.05,3.73h.23c-.16.34,0,.47.12.82h.23c-.19.39.61,2.1,1.05,2.1l-.11.23h.23c0,.36-.05.59.35.59,0,.35,0,.16.11.58h.24v.35h.23c.71,2.13,4,5.21,6.18,5.95v.23c1.63,0,6.71,2.07,8.64,2.45a31.23,31.23,0,0,1-.35,5c-6.8,0-13.75-4.88-18.08-9.22-1.4-1.39-2-3.55-3.39-4.9-1.84,1.84-.74,7.26.82,9.34,5.32,7.1,11.08,12.2,11.78,22-1.1-4.4-3.24-9.07-6.42-12.24-3-3-6.5-5.09-8.51-9.1C15.53,36,16.17,44.54,16.06,49.9Z"/><path class="e1c6c04b-2bba-4313-a56a-34d15683d6ae" d="M17,30.19c2,4,5.56,6.14,8.51,9.1,3.15,3.14,5.21,7.88,6.3,12.24C32.48,42,25.4,37.43,21,30.77,19.12,28,17.33,23,19.32,20c2.71,8.13,13.5,12.9,21.47,14.23,0,4.9.58,9.76.58,14.58-4-1.33-8.36-.91-9.22,3.38-.56,0-3.76-3.87-6.18-4.08-1.93-.17-5.91.08-7.46,1.63a3.81,3.81,0,0,1-2.22,1.29c-1-4-.21-7-.12-12.13C16.22,36.36,16,32.6,17,30.19Z"/><path class="e1c6c04b-2bba-4313-a56a-34d15683d6ae" d="M198.72,43.51c0-4.79.7-9.61.7-14.46,9.37-1.34,16.38-6.54,21.58-14.35,0,2.53,1.05,4.74,0,7.35-1.61,4-4.75,6.52-7.46,9.91a25.09,25.09,0,0,0-5.25,14.23c1.45-4.36,3-8.33,6.18-11.78,3-3.25,6.84-5.52,8.86-9.56,0,6.46.51,13.33.7,19.71,0,.47.42.75-.11,1.28-3.73-1.86-6.92-4.37-11.43-2.56-1.77.7-2.65,3-4.2,3.73C207.14,42.42,202.75,42.17,198.72,43.51Z"/><path class="e1c6c04b-2bba-4313-a56a-34d15683d6ae" d="M16.06,17C5.7,27.36.86,32.59.07,47.57c1.25,0,3.74-2.48,5.14-3,7.47-3,7.83,1.08,10.85,5.6C16.06,38.94,13.82,28.17,16.06,17Z"/><path class="e1c6c04b-2bba-4313-a56a-34d15683d6ae" d="M224.31,13.07c9.14,9.13,15.75,15.89,15.75,30.56-1.62-3.23-9.58-4.54-12-2.92-2.64,1.77-2.07,3.71-3.85,5.48,0-7,1.4-14,1.4-21.11C225.59,21,224.31,17,224.31,13.07Z"/></g></g></svg>