<svg xmlns="http://www.w3.org/2000/svg" xmlns:xlink="http://www.w3.org/1999/xlink" viewBox="0 0 112.76 91.63"><defs><style>.fbc76e7c-f050-4a45-ba16-c63be99b2f9b{fill:none;}.a16f3de6-b0e1-4e60-9f02-3c7d92c15696{clip-path:url(#bedb6d47-9cd0-4e02-982a-79d2543d16e4);}.abb741e0-f847-407d-b4e2-e47233a23b2e{fill:#fff;}.a2868245-b18e-4a3f-9ac9-00fd5a50e551,.a9bc1a5f-e1dc-4c9f-bc33-f331d136ccfe,.abb741e0-f847-407d-b4e2-e47233a23b2e,.acfe0b7a-a78f-4d29-8b61-10d487ddabaa,.ae738df9-550f-4599-94cf-5bda56517284,.af28d988-ecc2-4cec-8b2f-64fc441a476f,.b00aea96-1bc5-49ab-b081-6df979195b81,.bac1a6a4-989a-4a9c-b47e-028c4bd954bf,.e71586a7-03ff-43dd-9815-c9c16386bfc4{stroke:#161412;}.a2868245-b18e-4a3f-9ac9-00fd5a50e551,.a9bc1a5f-e1dc-4c9f-bc33-f331d136ccfe,.abb741e0-f847-407d-b4e2-e47233a23b2e,.acfe0b7a-a78f-4d29-8b61-10d487ddabaa,.ae738df9-550f-4599-94cf-5bda56517284,.af28d988-ecc2-4cec-8b2f-64fc441a476f,.bac1a6a4-989a-4a9c-b47e-028c4bd954bf,.e71586a7-03ff-43dd-9815-c9c16386bfc4{stroke-miterlimit:10;}.a2868245-b18e-4a3f-9ac9-00fd5a50e551{fill:#bfbfbf;}.bac1a6a4-989a-4a9c-b47e-028c4bd954bf{fill:#bbb;}.a9bc1a5f-e1dc-4c9f-bc33-f331d136ccfe{fill:#a0a0a0;}.e71586a7-03ff-43dd-9815-c9c16386bfc4{fill:#8b8b8b;}.ae738df9-550f-4599-94cf-5bda56517284,.b00aea96-1bc5-49ab-b081-6df979195b81{fill:#b5b5b5;}.b00aea96-1bc5-49ab-b081-6df979195b81{stroke-miterlimit:10;}.acfe0b7a-a78f-4d29-8b61-10d487ddabaa{fill:#c2c2c2;}.af28d988-ecc2-4cec-8b2f-64fc441a476f{fill:#8f8f8f;}</style><clipPath id="bedb6d47-9cd0-4e02-982a-79d2543d16e4" transform="translate(1.7 -36.08)"><path class="fbc76e7c-f050-4a45-ba16-c63be99b2f9b" d="M97.07,42H70.76c-2.58-2.61-5.07-5.43-6.17-9,0-.14-.09-.28-.13-.42a17.77,17.77,0,1,0-19.82-.18c-.38,2.4-.78,4.81-2.56,6.66-.91,1-1.87,2-2.87,2.94H12.5A12.46,12.46,0,0,0,0,54.44v87.91a12.45,12.45,0,0,0,12.5,12.4H42.34v-.07a5.43,5.43,0,0,1-.63-.88c-.07-.1-.13-.21-.19-.31s-.05-.11-.07-.16-.05-.07-.07-.06a17.77,17.77,0,1,1,32.84-9.37,17.26,17.26,0,0,1-3,9.84v0a12.16,12.16,0,0,1-.71,1H97.12a12.44,12.44,0,0,0,12.44-12.45V54.44A12.44,12.44,0,0,0,97.07,42Z"/></clipPath></defs><g id="b8ddcba1-bf38-48a0-911f-f56f80bdc7be" data-name="Layer 2"><g id="f3574e7e-fe3c-4002-bafb-056078887e63" data-name="Layer 1"><g class="a16f3de6-b0e1-4e60-9f02-3c7d92c15696"><path class="abb741e0-f847-407d-b4e2-e47233a23b2e" d="M11.55,40.18,7.61,42.33A17.61,17.61,0,0,0-1.2,57.88v67a2.06,2.06,0,0,0,2,2.15H11.55V40.18Z" transform="translate(1.7 -36.08)"/><path class="abb741e0-f847-407d-b4e2-e47233a23b2e" d="M98,39.49l3.88,2.16c5.31,3,8.67,9,8.67,15.67v67.59a2.06,2.06,0,0,1-1.94,2.16H98V39.49Z" transform="translate(1.7 -36.08)"/><path class="a2868245-b18e-4a3f-9ac9-00fd5a50e551" d="M105.85,44.81v82.26h2.77a2.06,2.06,0,0,0,1.94-2.16V57.32A18.56,18.56,0,0,0,105.85,44.81Z" transform="translate(1.7 -36.08)"/><path class="abb741e0-f847-407d-b4e2-e47233a23b2e" d="M23.55,37.23l-10.33,4v83.94a2.29,2.29,0,0,0,2.52,1.94h50.6V72.57L32.17,44.35Z" transform="translate(1.7 -36.08)"/><path class="bac1a6a4-989a-4a9c-b47e-028c4bd954bf" d="M66.34,127.07V76.88L52,62.52,43.59,70.9a14.75,14.75,0,0,0-4.33,10.47v45.7Z" transform="translate(1.7 -36.08)"/><path class="a9bc1a5f-e1dc-4c9f-bc33-f331d136ccfe" d="M55,61.28l-.37.54-2,2.88L49,70l-10.13-4a1.78,1.78,0,0,1-1.07-2.07L40.15,54a1.77,1.77,0,0,0-.29-1.46l-4.3-6a1.79,1.79,0,0,1,.34-2.45l6.38-5a3.85,3.85,0,0,1,.95-.53v3.12A10.8,10.8,0,0,0,45.3,48Z" transform="translate(1.7 -36.08)"/><path class="e71586a7-03ff-43dd-9815-c9c16386bfc4" d="M49,70l6-8.67-2.48-3.39L45.22,68.44Z" transform="translate(1.7 -36.08)"/><path class="abb741e0-f847-407d-b4e2-e47233a23b2e" d="M87.36,36.64l10.65,4v84.48c0,1.08-1.17,1.95-2.61,1.95H43.23V77.12a10.57,10.57,0,0,1,4.63-8.38L77.91,44.32Z" transform="translate(1.7 -36.08)"/><path class="ae738df9-550f-4599-94cf-5bda56517284" d="M69.41,54l2.32,9.78a1.78,1.78,0,0,1-1.18,2.11L46.4,73.71,49,70l3.64-5.25,2-2.88.37-.54L64.26,48a10.81,10.81,0,0,0,2.08-6.37V38.48a3.49,3.49,0,0,1,1,.53l6.37,5A1.81,1.81,0,0,1,74,46.5l-4.31,6A1.82,1.82,0,0,0,69.41,54Z" transform="translate(1.7 -36.08)"/><circle class="b00aea96-1bc5-49ab-b081-6df979195b81" cx="53.6" cy="49.62" r="2.89"/><circle class="ae738df9-550f-4599-94cf-5bda56517284" cx="65.15" cy="49.62" r="2.89"/><circle class="b00aea96-1bc5-49ab-b081-6df979195b81" cx="53.6" cy="63.92" r="2.89"/><circle class="ae738df9-550f-4599-94cf-5bda56517284" cx="65.15" cy="63.92" r="2.89"/><circle class="b00aea96-1bc5-49ab-b081-6df979195b81" cx="51.9" cy="114.29" r="2.89" transform="translate(-38.09 -7.51) rotate(-22.5)"/><circle class="ae738df9-550f-4599-94cf-5bda56517284" cx="65.15" cy="78.22" r="2.89"/><path class="acfe0b7a-a78f-4d29-8b61-10d487ddabaa" d="M100.69,124.6v-71l3.11-7.24a2.68,2.68,0,0,0-.26-2.6c-.64-.76-1.57-.52-2,.47l-.86,2V41.52c0-1.07-.56-2-1.3-2S98,40.34,98,41.44V127.2h.89C99.89,127.2,100.69,126,100.69,124.6Z" transform="translate(1.7 -36.08)"/><path class="af28d988-ecc2-4cec-8b2f-64fc441a476f" d="M10.54,124.62V54.2L7.43,47a2.64,2.64,0,0,1,.26-2.58c.64-.76,1.56-.51,2,.47l.86,2V42.2c0-1.06.56-2,1.29-2s1.39.84,1.39,1.93V127.2h-.9C11.34,127.2,10.54,126.05,10.54,124.62Z" transform="translate(1.7 -36.08)"/><polygon class="abb741e0-f847-407d-b4e2-e47233a23b2e" points="39.82 6.22 30.48 5.48 36.32 10.3 39.82 6.22"/><path class="abb741e0-f847-407d-b4e2-e47233a23b2e" d="M71.71,42l9.6-.43Z" transform="translate(1.7 -36.08)"/><polygon class="abb741e0-f847-407d-b4e2-e47233a23b2e" points="76.45 9.04 75.3 11.59 83.01 5.48 73.41 5.91 76.45 9.04"/></g></g></g></svg>