<svg xmlns="http://www.w3.org/2000/svg" xmlns:xlink="http://www.w3.org/1999/xlink" viewBox="0 0 229.67 156.35"><defs><style>.f75e7eb6-305f-42ff-a672-536f5188233a{fill:none;}.bede725c-4a27-452d-99c5-ad688c7fb38f{clip-path:url(#f845d506-a591-4a83-9591-71d6882f2ffd);}.e73dadad-0a75-4dad-b766-9d620b7f6cf2{fill:#f9d5c6;}.b278bea6-5f97-43f5-aeed-10eea55c0180{fill:#dbbaae;}</style><clipPath id="f845d506-a591-4a83-9591-71d6882f2ffd" transform="translate(37.33 -52.78)"><path class="f75e7eb6-305f-42ff-a672-536f5188233a" d="M137.33,59.46H100.1c-3.65-3.69-7.18-7.68-8.73-12.73-.07-.2-.12-.39-.18-.59a25.15,25.15,0,1,0-28-.25c-.53,3.39-1.1,6.79-3.62,9.41q-1.91,2.17-4,4.17H17.69A17.62,17.62,0,0,0,0,77V201.38a17.62,17.62,0,0,0,17.69,17.55H59.9v-.11a7.85,7.85,0,0,1-.9-1.24l-.26-.4a.68.68,0,0,0-.1-.27c0-.09-.12-.12-.11-.08l.15.25A25.15,25.15,0,1,1,105,203.58a24.4,24.4,0,0,1-4.25,13.91v.08c-.31.49-.64,1-1,1.43H137.4A17.6,17.6,0,0,0,155,201.38V77A17.6,17.6,0,0,0,137.33,59.46Z"/></clipPath></defs><g id="a65e25d0-94fa-4bd6-a612-61c283e9f9f3" data-name="Layer 2"><g id="ae2e765a-f9b3-4e45-9ac3-3430485c3282" data-name="Layer 1"><g class="bede725c-4a27-452d-99c5-ad688c7fb38f"><path class="e73dadad-0a75-4dad-b766-9d620b7f6cf2" d="M-27.63,81.52v0c.77-.83,1.63-1.64,2.53-2.44" transform="translate(37.33 -52.78)"/><path class="e73dadad-0a75-4dad-b766-9d620b7f6cf2" d="M190.77,59.28V209.12H-37.33V59.28" transform="translate(37.33 -52.78)"/><path class="b278bea6-5f97-43f5-aeed-10eea55c0180" d="M192.33,127.41v3.81L84,82.89,47.12,66.46,25.64,56.88c1.84-.47,3.7-.9,5.59-1.31L55.12,66.23,85,79.55l24.56,10.94,5.93,2.64,10.72,4.79,4.52,2Z" transform="translate(37.33 -52.78)"/><path class="b278bea6-5f97-43f5-aeed-10eea55c0180" d="M118.17,53.7l-.55,8L115.54,92.1l-.09,1,0,.56-6.11-.08.21-3.12.06-.92,1.87-27.16.64-9.63C114.13,53.06,116.18,53.37,118.17,53.7Z" transform="translate(37.33 -52.78)"/><path class="b278bea6-5f97-43f5-aeed-10eea55c0180" d="M192.33,146.84v3.44L123.51,129l-6.9-2.13L49.1,105.9-13.76,86.44l-9.93-3.08h0c.77-.9,1.62-1.78,2.51-2.65l12.92,4L53.93,104Z" transform="translate(37.33 -52.78)"/><polygon class="b278bea6-5f97-43f5-aeed-10eea55c0180" points="162.16 76.03 160.84 76.18 4.05 94.75 4.05 91.8 153.94 74.05 160.66 73.25 162.16 76.03"/><polygon class="b278bea6-5f97-43f5-aeed-10eea55c0180" points="229.66 108.23 229.66 111.1 4.05 105.06 4.05 102.18 229.66 108.23"/><polygon class="b278bea6-5f97-43f5-aeed-10eea55c0180" points="229.66 140.41 229.66 143.33 106.66 130.07 94.19 128.74 4.05 119.02 4.05 116.09 229.66 140.41"/><polygon class="b278bea6-5f97-43f5-aeed-10eea55c0180" points="107.36 129.99 106.66 130.07 4.05 143.55 4.05 140.57 94.19 128.74 105.71 127.22 107.36 129.99"/><path class="b278bea6-5f97-43f5-aeed-10eea55c0180" d="M166.43,69.39l-1.13,1L132.37,98.49l-1.68,1.44-1,.85-5.46-1.21,1.92-1.65,1.37-1.15,33.15-28.33,1.49-1.28C163.65,67.89,165.09,68.63,166.43,69.39Z" transform="translate(37.33 -52.78)"/></g></g></g></svg>