<svg xmlns="http://www.w3.org/2000/svg" viewBox="0 0 139.49 180.05"><defs><style>.ff1f6637-fe87-4bed-9c0e-78a0988d5a05{fill:#1c222e;}.e901eb71-09e6-4139-a678-596873a9a96b{fill:#f7941d;}.b27faf00-4767-477d-bbcb-a7485adffefd{fill:#f15a29;}</style></defs><g id="bfab3470-3604-441c-9d91-ffe5a380e836" data-name="Layer 2"><g id="aae2ac3a-ac56-451c-bd68-f2b1bc73fee0" data-name="Layer 1"><path class="ff1f6637-fe87-4bed-9c0e-78a0988d5a05" d="M70.05,108.77a54.39,54.39,0,1,1,54.38-54.38A54.45,54.45,0,0,1,70.05,108.77Zm0-103.19a48.81,48.81,0,1,0,48.8,48.81A48.86,48.86,0,0,0,70.05,5.58Z"/><path class="e901eb71-09e6-4139-a678-596873a9a96b" d="M139.49,116.17c0,24.43-15,45.67-37,56.42a51,51,0,0,1-5,2.18A75.59,75.59,0,0,1,46,176.23c-1.79-.58-3.52-1.24-5.22-2C16.69,164.18,0,142,0,116.17A60.81,60.81,0,0,1,18,73.34H121.49A60.81,60.81,0,0,1,139.49,116.17Z"/><path class="b27faf00-4767-477d-bbcb-a7485adffefd" d="M41.31,169.37A44.75,44.75,0,0,0,46,176.23c-1.79-.58-3.52-1.24-5.22-2a33.66,33.66,0,0,1-2.09-3.4C33,160.69,30.14,148,30.2,133.07A123.3,123.3,0,0,1,46.07,73.34h3.52A120.19,120.19,0,0,0,33.23,133.1C33.17,147.49,35.87,159.69,41.31,169.37Z"/><path class="b27faf00-4767-477d-bbcb-a7485adffefd" d="M111.05,134.53c.09,14.93-2.76,27.62-8.44,37.79-.06.09-.09.18-.15.27a51,51,0,0,1-5,2.18,39.44,39.44,0,0,0,2.48-3.94c5.44-9.68,8.17-21.88,8.08-36.27A119.93,119.93,0,0,0,90.78,73.34h3.55A123.24,123.24,0,0,1,111.05,134.53Z"/></g></g></svg>