<svg xmlns="http://www.w3.org/2000/svg" xmlns:xlink="http://www.w3.org/1999/xlink" viewBox="0 0 18.24 36.44"><defs><style>.ba48e1ac-97f4-40fe-9bc2-150fd7cc4c06{fill:url(#bc1642ad-32db-484a-93f8-16330c498f20);}.b45c3f0c-3e62-4473-b24b-a43eee0168a4{fill:url(#a4e9a621-2a32-4e9b-ab7e-a1bce48607c1);}.bd7e7ffc-0458-4f4b-8b2d-ea4be70c0e99{fill:url(#a722a9f8-b081-4c8c-946b-455702fbea1f);}.ac8fa9d5-64bc-4a44-adf6-f592d844679e{fill-opacity:0;fill:url(#b1ec6cdd-2a05-418c-a1ee-3e35251cf498);}.b2a3d0fc-8383-4992-9fa6-163e1e8680f0{fill:#bc3331;}.afbd6239-f1bc-459e-b335-0fa90641bf50{fill:#1b1c1a;}.a02b6dfe-bc67-44ad-bef6-f6e8bad9b7b3{fill:#f1f5e6;}.a3ae5a1c-a337-4723-820e-49e5b1b2543c{fill:#f2f6e5;}.e40dd0d1-47bf-4eef-8f5a-505952a70880{fill:#fff;}.e51598a5-6433-43ea-8ff5-83236cab91d1{fill:#828280;}</style><radialGradient id="bc1642ad-32db-484a-93f8-16330c498f20" cx="-658.43" cy="357.61" r="17.7" gradientTransform="matrix(0.84, 0, 0, -0.84, 565.49, 342.82)" gradientUnits="userSpaceOnUse"><stop offset="0" stop-color="#fedf1a"/><stop offset="0.08" stop-color="#fba658"/><stop offset="0.17" stop-color="#f6789c"/><stop offset="0.26" stop-color="#c86bd5"/><stop offset="0.36" stop-color="#9c88db"/><stop offset="0.46" stop-color="#ae9ee2"/><stop offset="0.56" stop-color="#5caee4"/><stop offset="0.65" stop-color="#19d2e3"/><stop offset="0.75" stop-color="#18ddd4"/><stop offset="0.76" stop-color="#2de4ba"/><stop offset="0.89" stop-color="#80efd5"/><stop offset="0.92" stop-color="#62fc6c"/><stop offset="1" stop-color="#62fc6c"/></radialGradient><radialGradient id="a4e9a621-2a32-4e9b-ab7e-a1bce48607c1" cx="-504.91" cy="320.84" r="7.07" gradientTransform="matrix(1.29, 0, 0, -1.26, 659.77, 412.7)" xlink:href="#bc1642ad-32db-484a-93f8-16330c498f20"/><radialGradient id="a722a9f8-b081-4c8c-946b-455702fbea1f" cx="-622.35" cy="394.68" r="7.07" gradientTransform="matrix(0.91, 0, 0, -0.89, 575.3, 360.72)" gradientUnits="userSpaceOnUse"><stop offset="0" stop-color="#255631"/><stop offset="1" stop-color="#3bff00"/></radialGradient><radialGradient id="b1ec6cdd-2a05-418c-a1ee-3e35251cf498" cx="-659.3" cy="395.62" r="10.71" gradientTransform="matrix(0.84, 0, 0, -0.84, 565.49, 342.82)" gradientUnits="userSpaceOnUse"><stop offset="0" stop-color="#fff"/><stop offset="1" stop-color="#aaffcd"/></radialGradient></defs><g id="efa72351-a4c4-421c-a2e4-36eb0b49f7d1" data-name="Layer 2"><g id="b8e14f10-49c2-4f0a-b804-077c15f129d1" data-name="Layer 1"><g id="eba1fbb2-24cd-4b77-8a3e-1273d82e2052" data-name="Layer 1"><path class="ba48e1ac-97f4-40fe-9bc2-150fd7cc4c06" d="M15.11,33.52c-.28-.56-1.33-.94-1.9-1.17-3.85-1.54-6.58-.47-9.86,1.17A10.09,10.09,0,0,1,2,28.23c0-.12.25-1.56.39-1.56,1.65-.06,3.3,0,5-.06A1.57,1.57,0,0,0,8.7,25.33c0-1.17,0-2.34.06-3.51h1c0,1.11,0,2.23,0,3.34A1.59,1.59,0,0,0,11,26.5c1.69.05,3.38.07,5.07.11C16.67,28.84,16.91,31.72,15.11,33.52Z"/><path class="b45c3f0c-3e62-4473-b24b-a43eee0168a4" d="M9.07,0c11.27-.85,12.68,17.36,1.19,18.11C-2.23,19-4.12,1,9.07,0Z"/><path class="bd7e7ffc-0458-4f4b-8b2d-ea4be70c0e99" d="M8.42,3.39c8-.6,9,12.27.84,12.8C.43,16.76-.91,4.08,8.42,3.39Z"/><path class="ac8fa9d5-64bc-4a44-adf6-f592d844679e" d="M3.24,2.37c5-5,14.66-1.2,15,5.8.19,4.17-1.82,8.35-6.13,9.58C11.52,17.92,1.09,4.52,3.24,2.37Z"/><path class="b2a3d0fc-8383-4992-9fa6-163e1e8680f0" d="M15.11,33.52C15.16,31,7.45,31.58,6,32.07c-.55.19-2.44.89-2.56,1.51s2.53,2.09,3,2.28C8.86,36.84,15,36.87,15.11,33.52Z"/><path class="afbd6239-f1bc-459e-b335-0fa90641bf50" d="M11.1,8.89c0,6.7-9.84,1.08-4.24-2.28a4.42,4.42,0,0,1,1.9-.34C7.3,6.64,8.64,10.12,11.1,8.89Z"/><path class="a02b6dfe-bc67-44ad-bef6-f6e8bad9b7b3" d="M2.4,26.56c.84-1.69,2.13-3.74,4.13-4.24a12.27,12.27,0,0,0,2.23-.5c0,.82.74,4.71-1.45,4.74C5.67,26.57,4,26.56,2.4,26.56Z"/><path class="a3ae5a1c-a337-4723-820e-49e5b1b2543c" d="M16.11,26.56c-1.69,0-3.38,0-5.07,0-.61,0-1.21-.85-1.23-1.4,0-1.11,0-2.23-.05-3.34A7.09,7.09,0,0,1,16.11,26.56Z"/><path class="e40dd0d1-47bf-4eef-8f5a-505952a70880" d="M11.1,8.84c2.36-1.58-.82-4.9-2.57-2.57C10,6.27,10.78,7.58,11.1,8.84Z"/><path class="e51598a5-6433-43ea-8ff5-83236cab91d1" d="M11.1,8.89c-1,1.1-4-.69-2.68-2.45C9.35,5.2,11.53,8.43,11.1,8.89Z"/></g></g></g></svg>