<svg xmlns="http://www.w3.org/2000/svg" viewBox="0 0 121.39 123.36"><defs><style>.a6dd5657-7fc7-41ee-834e-99da0e63cac3,.b3175b12-a635-4d89-ac4d-7d5e00cc35e7{fill:#f4258d;}.bec9924e-5081-422b-9300-e1ab62e8a210{fill:#0049ff;}.b3175b12-a635-4d89-ac4d-7d5e00cc35e7,.b391ceda-d32f-4b78-a4c5-f330e3917088,.bec9924e-5081-422b-9300-e1ab62e8a210,.f92de868-bdfb-42f4-9aec-9a84cc13bdde{isolation:isolate;}.b3175b12-a635-4d89-ac4d-7d5e00cc35e7,.bec9924e-5081-422b-9300-e1ab62e8a210{opacity:0.11;}.b391ceda-d32f-4b78-a4c5-f330e3917088{fill:#ffce63;opacity:0.17;}.e9719cae-91d1-445b-84d4-a29a69b5506d,.f92de868-bdfb-42f4-9aec-9a84cc13bdde{fill:#fff463;}.f92de868-bdfb-42f4-9aec-9a84cc13bdde{opacity:0.57;}</style></defs><g id="a9361a77-d06d-4cd9-a2bc-623d337bdec4" data-name="Layer 2"><g id="ee848689-73c6-41aa-a48e-41b8fefa59ea" data-name="Layer 1"><g id="e37169cd-abf9-41a2-8cbd-0ce96a06924b" data-name="a2b7f4d4-e085-4d0c-9377-538e1c2c2145"><g id="a84fd68d-1203-4dbe-b7ae-2b9fbd9a7d09" data-name="adebd589-0e94-4c34-9617-c88e5199dec2"><g id="ab16e8b2-f6a3-41fa-b68e-72bfb40c5de6" data-name="f0434e01-ce1c-46ca-81fc-8357e3b28120"><path class="a6dd5657-7fc7-41ee-834e-99da0e63cac3" d="M67,10.4a129.4,129.4,0,0,1,1.12,19.07c0,1.89-.13,3.73-.31,5.46,0,.49-.11,1-.17,1.43-.62,4.46-1.87,7.8-4.17,8.17a8.7,8.7,0,0,1-4.92-.79l-.21-1.25c-.11-1.79-.4-3.89-.64-6.2-.16-1.39-.29-2.85-.53-4.35h0c-.26-4.62-.51-9.65-.5-14.34,0-9.22,1-17.09,3.87-17.56C64.38-.58,66.42,6.59,67,10.4Z"/><path class="bec9924e-5081-422b-9300-e1ab62e8a210" d="M67,10.4a129.4,129.4,0,0,1,1.12,19.07,12.72,12.72,0,0,1-1.17-4c-.77-4.67-.19-7.7-.89-11.94A7.34,7.34,0,0,0,64.24,9a13,13,0,0,1-.73,1.67l-.22.3c0-.15-.07-.31-.1-.46A6.36,6.36,0,0,0,61.6,6.43c-.1,0-.19,0-.3,0a34.2,34.2,0,0,0-4.59,11.14c0-9.22,1-17.09,3.87-17.56C64.38-.58,66.42,6.59,67,10.4Z"/><path class="bec9924e-5081-422b-9300-e1ab62e8a210" d="M67.67,35c0,.5-.1,1-.17,1.44-.62,4.46-1.87,7.79-4.17,8.17a7.72,7.72,0,0,1-4.74-.82l-.21-1.25c-.29-1.76-.57-3.86-.82-6.18-.15-1.39-.29-2.85-.41-4.36A8.54,8.54,0,0,0,58,33.4l1,.09c3-4.58,2.87-12.17,4.17-14.23.56,6.42-.41,10.29.09,13.37.3,1.83,1.13,3.23,3,2.91A4.93,4.93,0,0,0,67.67,35Z"/><path class="bec9924e-5081-422b-9300-e1ab62e8a210" d="M67.5,36.42c-.62,4.46-1.87,7.79-4.17,8.17a7.78,7.78,0,0,1-4.74-.82l-.21-1.26c-.29-1.76-.57-3.85-.82-6.17,2.47-.57,3.51-5.43,3.94-8,.1,1.19.07,2.94.33,4.51C62.73,38.37,65.67,35.31,67.5,36.42Z"/><path class="b391ceda-d32f-4b78-a4c5-f330e3917088" d="M58.67,15.1a23.51,23.51,0,0,0-.94,10.47,9.92,9.92,0,0,0,.59,2.15l.19.09c2.65-2.9,1.71-7.07,3.24-10.57l.1,0c.72-.12,1.23.23,1.8.13,1.52-.25,1.76-2.52,1.53-3.91-.33-2.07-1.82-3.33-3.32-3.08a3.31,3.31,0,0,0-2.23,1.76A18.16,18.16,0,0,0,58.67,15.1Z"/><path class="a6dd5657-7fc7-41ee-834e-99da0e63cac3" d="M92.72,8.71c.26,1.62-.69,4.9-2.33,8.81A108.49,108.49,0,0,1,79.23,37.45,36.47,36.47,0,0,1,77,40.32a9.12,9.12,0,0,1-4.14,3.24,5.48,5.48,0,0,1-3-.39,32.37,32.37,0,0,1,.59-6.29c.23-1.29.52-2.68.86-4.11a88,88,0,0,1,3.45-11h0C78,13.17,82.7,5.43,87.63,4.62a4.39,4.39,0,0,1,5,3.65c0,.15,0,.29,0,.44Z"/><path class="bec9924e-5081-422b-9300-e1ab62e8a210" d="M90.3,17.54A13.91,13.91,0,0,0,90.16,15c-.22-1.34-.94-3.42-2.33-3.7h-.07c-.81.13-3.79,4.28-4.47,4.82a8.39,8.39,0,0,0,.13-3.73l0-.32L83,11.69h-.13c-2.26.36-5.39,5.16-8.18,10,3.32-8.57,8-16.3,12.91-17.11a4.39,4.39,0,0,1,5,3.64,2.42,2.42,0,0,1,.05.47C92.89,10.34,91.93,13.62,90.3,17.54Z"/><path class="bec9924e-5081-422b-9300-e1ab62e8a210" d="M79.23,37.44c-.78,1.08-1.55,2.05-2.28,2.88a9,9,0,0,1-4.14,3.23,5.39,5.39,0,0,1-3-.39,31.51,31.51,0,0,1,.59-6.28c.23-1.29.52-2.68.86-4.12,3.1-2.31,4.56-6.46,7.56-9-.26,2.32-3.21,7.88-2.63,11.4A2.57,2.57,0,0,0,79,37.5l.25,0Z"/><path class="bec9924e-5081-422b-9300-e1ab62e8a210" d="M77,40.32a9.12,9.12,0,0,1-4.14,3.24,5.5,5.5,0,0,1-3-.39,31.62,31.62,0,0,1,.6-6.29c1.44-.94,2.74-3.86,4.1-4.9-.15,1.37-1.24,3.47-1,5C73.83,38.83,76,39.32,77,40.32Z"/><path class="b391ceda-d32f-4b78-a4c5-f330e3917088" d="M78.42,17.41c-2,2-2.91,5.44-3.64,8,1.93-.72,7.06-7.23,6.75-9.09-.06-.4-.36-.55-.77-.48A5,5,0,0,0,78.42,17.41Z"/><path class="b391ceda-d32f-4b78-a4c5-f330e3917088" d="M84.78,17.26c-2.71,2.49-5.42,10.34-5.31,14.12l.26.16c2.26-.8,8.32-10.13,7.72-13.77a2.85,2.85,0,0,0-.6-1.39l-.33.05A2.88,2.88,0,0,0,84.78,17.26Z"/><path class="a6dd5657-7fc7-41ee-834e-99da0e63cac3" d="M56.67,42.53a2.48,2.48,0,0,1,0,1.15c-.44,1.44-2.87,2-4.31,2.41L52,46.2l-.32-.59v0a56,56,0,0,1-2.25-5.85c-.25-.72-.5-1.43-.77-2.15s-.47-1.24-.72-1.84c-1.79-4.17-4-9.3-5.74-14.4a54.65,54.65,0,0,1-2.12-8.16c-.69-4.2,0-4.7.5-8a1.55,1.55,0,0,0,.21,0c1.71-.29,3.5,1.76,5.23,5C49.33,16.35,52.4,27,54.31,34.4h0l.84,1.75v0C56.1,39.93,56.67,42.51,56.67,42.53Z"/><path class="bec9924e-5081-422b-9300-e1ab62e8a210" d="M46.12,10.11a.66.66,0,0,0-.39-.09c-.43.07-.72.83-.84,2.85a3.34,3.34,0,0,0-2.26-1.29c-1,2.11-1,6.06-.76,9.8a49.78,49.78,0,0,1-2.16-8.16c-.69-4.19,0-4.7.63-8a1.85,1.85,0,0,0,.23,0C42.39,4.83,44.3,6.84,46.12,10.11Z"/><path class="bec9924e-5081-422b-9300-e1ab62e8a210" d="M56.68,42.57a2.48,2.48,0,0,1,0,1.15c-.44,1.44-2.85,2-4.31,2.41l-.36.11c-.11-.2-.21-.4-.32-.59h0a51.58,51.58,0,0,1-2.37-5.88c-.27-.72-.53-1.44-.81-2.16l.19,0a19.65,19.65,0,0,0-.11-6,21.31,21.31,0,0,0-1-3.79c1.64,2.51,3.27,6.38,5.83,8.06l.62-.2a10.2,10.2,0,0,0,.6-1.3c.16.63.32,1.24.46,1.82h0C56.11,40,56.68,42.55,56.68,42.57Z"/><path class="bec9924e-5081-422b-9300-e1ab62e8a210" d="M56.63,42.53a2.74,2.74,0,0,1,0,1.14c-.44,1.42-2.83,2-4.28,2.39a6.63,6.63,0,0,1-.69-.49h0a49,49,0,0,1-2.35-5.83.66.66,0,0,1,.2-.06,8.37,8.37,0,0,0,.33-4.49c-.07-.46-.18-.94-.28-1.46,1.13,1,1.94,4.05,3.73,3.74.78-.13,1.31-.93,1.79-1.28C56.06,39.94,56.63,42.5,56.63,42.53Z"/><path class="b391ceda-d32f-4b78-a4c5-f330e3917088" d="M45.53,21.06c-.28-.75-2-3.73-2.85-3.59-.45.07-.52.89-.43,1.43A36.63,36.63,0,0,0,45.7,28l.24,0a9,9,0,0,0,.55-2.76l.24,0c1.35,1.21,2,3.12,3.52,4.25l.24-.09a9,9,0,0,0,.1-3.8c-.36-2.21-3.23-9.56-5-9.27-.49.08-.69,1-.58,1.65s.46,1.44.57,2.13A2.3,2.3,0,0,1,45.53,21.06Z"/><path class="a6dd5657-7fc7-41ee-834e-99da0e63cac3" d="M50.36,45.46a3.87,3.87,0,0,1-.46,2.86h0a4.33,4.33,0,0,1-3,1.6,12,12,0,0,1-2.4.14L44,49.59h0c-1.51-1.62-3.09-3.4-4.67-5.29-1.2-1.43-2.4-2.91-3.56-4.45-5.11-6.75-9.7-14.41-11.37-21.63-.14-.59-.26-1.19-.36-1.78a7,7,0,0,1,0-2.82,3.39,3.39,0,0,1,.55-.13,6.29,6.29,0,0,1,4.28,1.88C34.1,19.5,41.32,29.51,45.92,37c.64,1,1.23,2,1.76,2.94h0A25.07,25.07,0,0,1,50.36,45.46Z"/><path class="bec9924e-5081-422b-9300-e1ab62e8a210" d="M50.26,45.05a3.73,3.73,0,0,1-.45,2.75l0,.16a4.3,4.3,0,0,1-3.05,1.61,12.9,12.9,0,0,1-2.41.14l-.44-.48h0L39.45,44c-1.18-1.39-2.35-2.87-3.49-4.37a14.52,14.52,0,0,0,4.16,2.52,3.79,3.79,0,0,1,.42-.18l0-.15c-.75-4.54-3.89-8.54-5.44-12.94C37.85,32.79,40.84,37.6,45.13,40A5,5,0,0,0,46,36.83c.63,1,1.19,1.94,1.7,2.83h0A24.29,24.29,0,0,1,50.26,45.05Z"/><path class="bec9924e-5081-422b-9300-e1ab62e8a210" d="M50.32,45.2a3.85,3.85,0,0,1-.46,2.85h0a6.71,6.71,0,0,1-3.15,1.4A6.38,6.38,0,0,1,44,49.32h0L39.29,44a7.8,7.8,0,0,0,4.06,1.21l.18-.18q0-.36-.09-.72A17.15,17.15,0,0,0,41.14,39c2,1,3.53,3.25,5.71,3.75a3.93,3.93,0,0,0,.78-3.07A25.11,25.11,0,0,1,50.32,45.2Z"/><path class="bec9924e-5081-422b-9300-e1ab62e8a210" d="M28.05,16.74c.32,2,1.8,3.69,2.36,5.6-1.17-1.47-3.13-4.31-5.23-3.95l-.11,0q-.21-.89-.36-1.74a6.8,6.8,0,0,1,0-2.77,3.53,3.53,0,0,1,.54-.13,6.24,6.24,0,0,1,4.21,1.82,4.68,4.68,0,0,0-1.47.88Z"/><path class="b391ceda-d32f-4b78-a4c5-f330e3917088" d="M34.06,29.81c-1.54-4.88-4.67-7-5.39-6.85-.39.06-.32,1.18-.26,1.57.21,1.25,5.81,11.38,7.86,13.23.59-.24.72-.83.6-1.57C36.55,34.25,34.49,31.18,34.06,29.81Z"/><path class="b391ceda-d32f-4b78-a4c5-f330e3917088" d="M32.41,21.8c.56,1.11,6.44,10.49,8.49,12.28l.22-.12a5.66,5.66,0,0,0-.06-.82c-.44-2.65-6.26-11.9-8.51-11.53h0Z"/><path class="a6dd5657-7fc7-41ee-834e-99da0e63cac3" d="M44.41,49c.32,1.94-.61,4.21-3.39,7a34.28,34.28,0,0,1-9-3.61c-1.55-.82-3.18-1.75-4.82-2.73h0A110.13,110.13,0,0,1,18,43.46c-4.92-3.72-8.81-7.45-9.54-10a1.8,1.8,0,0,1-.1-.4,1.28,1.28,0,0,1,.72-1.29,3.85,3.85,0,0,1,1.43-.56c1.39-.22,5.06.82,9.51,2.56a111.33,111.33,0,0,1,16.34,7.91c1.23.74,2.39,1.48,3.4,2.21C42.39,45.82,44.19,47.6,44.41,49Z"/><path class="bec9924e-5081-422b-9300-e1ab62e8a210" d="M17.24,35.43h0c.15.9,1.76,1.73,2.37,2.23a9.44,9.44,0,0,0-4.55-1c-.22,0-.45.1-.67.16a1.52,1.52,0,0,0-.12.89,14.79,14.79,0,0,0,3.93,5.72c-4.93-3.72-8.82-7.46-9.54-10a4.67,4.67,0,0,1,.6-1.7,3.82,3.82,0,0,1,1.44-.55c1.38-.23,5.06.82,9.5,2.56-.33,0-.65.05-1,.1C18,34.06,17.1,34.5,17.24,35.43Z"/><path class="bec9924e-5081-422b-9300-e1ab62e8a210" d="M44.41,49c.32,1.94-.61,4.21-3.39,7a34.28,34.28,0,0,1-9-3.61c-1.55-.82-3.18-1.75-4.82-2.73a13.3,13.3,0,0,0,2.36-.13,5.5,5.5,0,0,0,3.83-2.24c-1-3.16-5.44-4.76-8.2-6.16,3.38-.05,6.88,2.88,9.78,2.41a1.53,1.53,0,0,0,1.37-1.65l0-.18c1.23.74,2.38,1.48,3.39,2.21C42.39,45.82,44.19,47.6,44.41,49Z"/><path class="bec9924e-5081-422b-9300-e1ab62e8a210" d="M44.41,49c.32,1.94-.61,4.21-3.39,7a34.28,34.28,0,0,1-9-3.61l.31,0a7.29,7.29,0,0,0,4.43-2.29,5.84,5.84,0,0,0-2.65-3.67,15.88,15.88,0,0,0,1.69-.19c1.75-.28,3.46-.91,3.92-2.27C42.39,45.82,44.19,47.6,44.41,49Z"/><path class="b391ceda-d32f-4b78-a4c5-f330e3917088" d="M25.77,43.71a19.39,19.39,0,0,0-7.51-2.19v.07c.36,2.2,6.5,6.91,10.06,6.33.93-.16,1.53-.6,1.44-1.24s-.61-1.14-1.76-1.84C27.27,44.43,26.53,44.05,25.77,43.71Z"/><path class="b391ceda-d32f-4b78-a4c5-f330e3917088" d="M22.57,36a1.67,1.67,0,0,0-.8,0c-.24,0-.48.11-.72.15H21l-.08.18c1.29,1.44,6.89,4.57,9,4.49C29,38.34,25,36.78,22.57,36Z"/><path class="a6dd5657-7fc7-41ee-834e-99da0e63cac3" d="M107.86,20.44c.24,1.44-1.08,4.22-3.23,7.55a105.25,105.25,0,0,1-8.17,10.75c-1.46,1.69-2.92,3.32-4.31,4.76-3.33,3.46-6.25,6-7.58,6.17a1.7,1.7,0,0,1-.39,0c-2.13-.13-4.72-2.55-6.07-4.13a21.93,21.93,0,0,1,3.63-6c.86-1.16,1.85-2.4,2.94-3.68A99.94,99.94,0,0,1,98.41,22.14l0,0a17.53,17.53,0,0,1,6.71-3.75,2.14,2.14,0,0,1,2.64,1.51,1.89,1.89,0,0,1,.08.58Z"/><path class="bec9924e-5081-422b-9300-e1ab62e8a210" d="M92.82,39.83a19.77,19.77,0,0,0,3.64-1.07c-1.43,1.69-2.91,3.31-4.31,4.76-3.32,3.46-6.24,5.94-7.57,6.16a2.56,2.56,0,0,1-.39,0c-2.13-.13-4.72-2.56-6.07-4.13a22,22,0,0,1,3.61-6c.87-1.16,1.85-2.4,2.94-3.68a7.84,7.84,0,0,0-.24,1.73,2.22,2.22,0,0,0,1.41.22c1.07-.19.92-.06,10.66-8.13C94.06,32.76,91,35.9,89.83,39.73A7,7,0,0,0,92.82,39.83Z"/><path class="bec9924e-5081-422b-9300-e1ab62e8a210" d="M92.15,43.53c-3.32,3.45-6.24,5.94-7.57,6.16a1.7,1.7,0,0,1-.39,0c-2.13-.13-4.72-2.55-6.07-4.13a22,22,0,0,1,3.61-6,10.58,10.58,0,0,0-.47,2.15c0,.08.09.15.14.23A14.25,14.25,0,0,0,88,39.27a6.19,6.19,0,0,0-1.34,3.92c0,.1,0,.18.06.29C88.5,43.87,90.65,43.08,92.15,43.53Z"/><path class="bec9924e-5081-422b-9300-e1ab62e8a210" d="M104.64,28a17.89,17.89,0,0,0,.36-4.73l-.76-.56c-1.53.26-2.52,1.84-3.83,2.57a11.43,11.43,0,0,0,2-4.6l-.17-.2H102a11.09,11.09,0,0,0-3.59,1.62,17.53,17.53,0,0,1,6.71-3.75,2.16,2.16,0,0,1,2.66,1.49,2.33,2.33,0,0,1,.08.59C108.1,21.9,106.78,24.68,104.64,28Z"/><path class="b391ceda-d32f-4b78-a4c5-f330e3917088" d="M97.51,23.9c-2.51,1.55-9.32,8.37-9.18,9.87l.22.18c4.48-1.34,12.3-9.73,12.21-11.2a1.23,1.23,0,0,0-1-.26C99,22.64,98.22,23.47,97.51,23.9Z"/><path class="b391ceda-d32f-4b78-a4c5-f330e3917088" d="M101.1,27.13c-1.66,1.72-6.75,7.19-6.79,9.7l.18.19c3.49-1.26,8.9-7.45,9.74-11.47a1.55,1.55,0,0,0-.77-.07A5.16,5.16,0,0,0,101.1,27.13Z"/><path class="a6dd5657-7fc7-41ee-834e-99da0e63cac3" d="M76.55,90.11v.1c.55,3.69,1,7,1.37,9.86,1.16,9.37,1.29,14.88.7,18.24h0a6.63,6.63,0,0,1-3,5A12.19,12.19,0,0,1,71,117.82a60.24,60.24,0,0,1-4.29-12.89h0c-.87-3.76-1.5-7.31-1.91-9.81l-.08-.48C64.08,90.81,63.55,87,63,83.07a35.42,35.42,0,0,1,8.66-3.44c2.44-.4,3.93,5.46,4.6,9C76.4,89.16,76.48,89.69,76.55,90.11Z"/><path class="bec9924e-5081-422b-9300-e1ab62e8a210" d="M76.43,90.26v.1c.55,3.65,1,6.88,1.35,9.74-1.15-3.85-2.77-8.3-5.42-10.77l-.12.08c0,.36,0,.72-.06,1.11-.18,5.62,1.52,12.1-.72,17.06-.3-1.18-.54-2.39-.72-3.59-.45-2.69-.72-5.44-1.16-8.14-.07-.42-.13-.84-.21-1.26a.3.3,0,0,1,0-.1c-.14-.87-.09-2-.26-3.08a3.06,3.06,0,0,0-.8-1.8,36.23,36.23,0,0,0-1.56,15.3c-.87-3.72-1.49-7.24-1.89-9.7l-.08-.47C64.12,91,63.59,87.15,63,83.31a35.56,35.56,0,0,1,8.56-3.4c2.4-.39,3.88,5.39,4.55,8.85C76.26,89.33,76.36,89.85,76.43,90.26Z"/><path class="bec9924e-5081-422b-9300-e1ab62e8a210" d="M76.16,88.74c-1.08-1-2.87-3.74-4.1-4.7l-.31.07a22.85,22.85,0,0,0-.17,6.5,5.77,5.77,0,0,1-1,3.57,10.32,10.32,0,0,1-.55-2.1c-.18-1.08-.26-2.22-.44-3.31a7.62,7.62,0,0,0-1.39-3.59l-.24,0a39.69,39.69,0,0,0-3.11,10l-.08-.47C64.12,91,63.59,87.15,63,83.31a35.16,35.16,0,0,1,8.56-3.4C74,79.51,75.49,85.3,76.16,88.74Z"/><path class="bec9924e-5081-422b-9300-e1ab62e8a210" d="M78.54,118.12a6.55,6.55,0,0,1-2.92,5,12.14,12.14,0,0,1-4.6-5.47,4.69,4.69,0,0,0,3.24,1.83,7.75,7.75,0,0,0,.38-5c-.09-.56-.2-1.12-.29-1.65,0-.19,0-.36-.08-.55a18.2,18.2,0,0,0,2.56,6.37,4.36,4.36,0,0,0,.72,0A2.06,2.06,0,0,0,78.54,118.12Z"/><path class="b391ceda-d32f-4b78-a4c5-f330e3917088" d="M67.86,101.53a13.59,13.59,0,0,0,.17,3.82,42.88,42.88,0,0,0,3.26,10h.14a4.59,4.59,0,0,0,.13-2.21c-.21-1.23-.74-2.43-1-3.82-.36-2.15-.25-4.7-.57-6.66-.14-.84-.59-3.12-1.25-3h0C68.06,99.82,67.93,101,67.86,101.53Z"/><path class="b391ceda-d32f-4b78-a4c5-f330e3917088" d="M74.13,97.43a20.33,20.33,0,0,0,.28,3.65,62.61,62.61,0,0,0,.6,7,16.94,16.94,0,0,0,1.56,5.1l.18-.06a21.59,21.59,0,0,0,.77-10.7c-.24-1.49-1-5.67-2.49-5.42A1.94,1.94,0,0,0,74.13,97.43Z"/><path class="a6dd5657-7fc7-41ee-834e-99da0e63cac3" d="M103.43,110c.34,2,.2,4.35-1.84,4.67-1.6.26-4-1.14-6.79-3.52h0a73,73,0,0,1-7.26-7.46h0a128.67,128.67,0,0,1-8.3-10.78c-3.95-5.75-6.94-11.1-7.38-13.79a12.38,12.38,0,0,1-.18-1.72,11.65,11.65,0,0,1,3.56-2.67,12.29,12.29,0,0,1,4-1.53c2.1-.36,6,3.92,10.12,9.73,1.47,2.07,2.94,4.34,4.37,6.66,4.49,7.3,8.45,15.18,9.55,19.36A9.26,9.26,0,0,1,103.43,110Z"/><path class="bec9924e-5081-422b-9300-e1ab62e8a210" d="M84.46,82.52C89.42,96,90.76,95,91.3,98.3a5.25,5.25,0,0,1,.07,1.19c-2.88-3.53-6.26-8.72-8.46-11.88a16.2,16.2,0,0,0-2.12-2.69,2.78,2.78,0,0,1,.2.68c.11.65.07,1.44.17,2.05,1,6.11,5.12,13.71,6.36,16a131.34,131.34,0,0,1-8.3-10.78c-4-5.74-6.94-11.1-7.38-13.78a11.14,11.14,0,0,1-.17-1.73,11.77,11.77,0,0,1,3.55-2.67,12.27,12.27,0,0,1,4-1.52c2.1-.35,6,3.91,10.13,9.73,1.47,2.07,2.94,4.33,4.36,6.65C89.94,86.42,85.56,82.76,84.46,82.52Z"/><path class="bec9924e-5081-422b-9300-e1ab62e8a210" d="M82.13,79.4a4.8,4.8,0,0,0,0,1.69c.31,1.92,1.49,4,1.81,6,0,.1,0,.21,0,.31a21.12,21.12,0,0,0-5.08-6.94c-1.35,1.17-.29,9.17-.07,10.53.12.71.25,1.35.36,1.91-4-5.75-6.94-11.1-7.38-13.79a14.12,14.12,0,0,1-.18-1.72,11.77,11.77,0,0,1,3.56-2.67,12.51,12.51,0,0,1,3.93-1.53c2.1-.36,6,3.92,10.13,9.73a.57.57,0,0,1-.36.24C87.74,83.36,84.53,80.05,82.13,79.4Z"/><path class="bec9924e-5081-422b-9300-e1ab62e8a210" d="M103.43,110c.34,2,.2,4.35-1.84,4.67-1.6.26-4-1.14-6.79-3.52a4.66,4.66,0,0,0,2.87.82,1.94,1.94,0,0,0,1.48-2.31.94.94,0,0,0,0-.16,36.93,36.93,0,0,0-1.53-3.81c1.28,1.24,3.46,3.74,5,3.48a1.22,1.22,0,0,0,.55-.23A7.43,7.43,0,0,1,103.43,110Z"/><path class="b391ceda-d32f-4b78-a4c5-f330e3917088" d="M92.37,102.34C84.68,93,85,91.56,83.43,91.77A2.62,2.62,0,0,0,83.37,93c0,.33,7.86,15.33,11.85,16.41a2.94,2.94,0,0,0,.29-1.91A12.78,12.78,0,0,0,92.37,102.34Z"/><path class="b391ceda-d32f-4b78-a4c5-f330e3917088" d="M96.94,97.54c-1-2.39-3.57-7.31-5.36-7-.63.1-.86,1.07-.75,1.74.22,1.35,4.55,10.44,7.52,11.19l.16-.11a10.28,10.28,0,0,0-.13-1.35A19.37,19.37,0,0,0,96.94,97.54Z"/><path class="a6dd5657-7fc7-41ee-834e-99da0e63cac3" d="M114,91a1.93,1.93,0,0,1-1.35,2.46,11,11,0,0,1-4.86-1.26A106.85,106.85,0,0,1,92.83,83.8h0c-1.46-.94-2.9-1.91-4.31-2.87a112.31,112.31,0,0,1-8.94-6.8c0-2.87,2.66-9.57,6.3-10.17,1.2-.19,6,3.75,11.22,8.69,1.25,1.18,2.52,2.41,3.8,3.65h0c4.42,4.36,8.7,8.88,11.09,11.79h0A10.09,10.09,0,0,1,114,91Z"/><path class="bec9924e-5081-422b-9300-e1ab62e8a210" d="M89.72,77.58a1.67,1.67,0,0,0-.18,1.12,13.68,13.68,0,0,0,3.23,4.84c-1.46-.94-2.9-1.91-4.31-2.89a110.28,110.28,0,0,1-8.93-6.79c0-2.88,2.65-9.57,6.29-10.17,1.21-.2,6,3.74,11.22,8.69,1.25,1.17,2.53,2.4,3.8,3.65-2.12-1.27-4.22-2.76-6.61-2.37l-.22,0a1,1,0,0,0,0,.43c.41,2.54,5.91,6.1,6.82,8.6C98.32,80.88,92.51,77.61,89.72,77.58Z"/><path class="bec9924e-5081-422b-9300-e1ab62e8a210" d="M90.3,72.78a2,2,0,0,0,0,.42,9.26,9.26,0,0,0,2.68,4A9.37,9.37,0,0,0,88.28,76a1.14,1.14,0,0,0-1.09,1.18.91.91,0,0,0,.06.32,13.69,13.69,0,0,0,1.27,3.44c-3.35-2.32-6.47-4.67-8.94-6.79,0-2.88,2.66-9.57,6.29-10.17,1.21-.2,6,3.74,11.23,8.69a10.9,10.9,0,0,0-4.64-.88A4.41,4.41,0,0,0,90.3,72.78Z"/><path class="bec9924e-5081-422b-9300-e1ab62e8a210" d="M114,91a1.93,1.93,0,0,1-1.35,2.46,11,11,0,0,1-4.86-1.26c1-.16,1.34-.81,1.24-1.44-.2-1.23-2.23-2.45-2.87-3.12,1.37.3,3.59,1.63,4.9,1.42a1.19,1.19,0,0,0,1-1A10.34,10.34,0,0,1,114,91Z"/><path class="b391ceda-d32f-4b78-a4c5-f330e3917088" d="M100.29,83.92c-1-1.12-4.76-4.18-6.43-4.06h-.09a2.35,2.35,0,0,0-1,.62l0,.22A31.64,31.64,0,0,0,102,87.32h0a.63.63,0,0,0,.28-.68C102.1,85.72,100.68,84.38,100.29,83.92Z"/><path class="b391ceda-d32f-4b78-a4c5-f330e3917088" d="M97.71,76.92c1.58,1.44,2.9,3.14,4.43,4.62a14.81,14.81,0,0,1,2.94,2.87c-.36-2-4-8.1-7-7.61A2.77,2.77,0,0,0,97.71,76.92Z"/><path class="a6dd5657-7fc7-41ee-834e-99da0e63cac3" d="M118.29,42.84l.11.8a13.23,13.23,0,0,1-3.23,2.54,104.76,104.76,0,0,1-14.09,6.76c-2.33,1-4.58,1.79-6.49,2.5a42.42,42.42,0,0,1-5.39,1.65c-3,.49-5.36,0-5.78-2.5a7.46,7.46,0,0,1,.21-2.9c.18-.8,1.43-1.75,3.34-2.76a78.33,78.33,0,0,1,10.1-4.12,111.73,111.73,0,0,1,11.34-3.36,16.77,16.77,0,0,1,7.19.15A9.41,9.41,0,0,1,118.29,42.84Z"/><path class="bec9924e-5081-422b-9300-e1ab62e8a210" d="M93.47,53.08a22.75,22.75,0,0,0,7.59-.14c-2.33,1-4.57,1.8-6.49,2.52a41.78,41.78,0,0,1-5.38,1.65c-3,.49-5.36,0-5.78-2.52a7.66,7.66,0,0,1,.2-2.9c.19-.8,1.46-1.75,3.35-2.75a77.81,77.81,0,0,1,10.1-4.13,34.92,34.92,0,0,0-3.49,3.39l.18.2a13.11,13.11,0,0,0,3.7-.16,57,57,0,0,0,7-1.89c-2.64,2-6.87,1.87-11.11,6.44Z"/><path class="bec9924e-5081-422b-9300-e1ab62e8a210" d="M118.29,42.84l.11.8a13.23,13.23,0,0,1-3.23,2.54,1.17,1.17,0,0,0,0-.2c-1-1.1-2.51-.63-3.91-.6,1.38-.6,4.44-2.26,4.29-3.77A9.38,9.38,0,0,1,118.29,42.84Z"/><path class="bec9924e-5081-422b-9300-e1ab62e8a210" d="M94.57,55.44a41.78,41.78,0,0,1-5.38,1.65c-3,.49-5.36.06-5.78-2.51a7.72,7.72,0,0,1,.2-2.91c.19-.79,1.45-1.75,3.35-2.75a5.27,5.27,0,0,0-.19.68c2.21,1.56,4.43.88,7,.62-1.11,1-2.73,2.14-3.11,3.65A7.3,7.3,0,0,0,94.57,55.44Z"/><path class="b391ceda-d32f-4b78-a4c5-f330e3917088" d="M112.08,42.14c-.58,0-1.28.13-2,.25-2.57.43-5.83,1.33-7.18,2.88a46.24,46.24,0,0,0,6.65-.44,13.46,13.46,0,0,0,5-1.74,1.72,1.72,0,0,1,.11-.51A3.49,3.49,0,0,0,112.08,42.14Z"/><path class="b391ceda-d32f-4b78-a4c5-f330e3917088" d="M107.61,46.85a39.24,39.24,0,0,0-10.33,5.28,4,4,0,0,0,1.9.18h0A48.56,48.56,0,0,0,110.58,47a2.51,2.51,0,0,0-2-.41A5.14,5.14,0,0,0,107.61,46.85Z"/><path class="a6dd5657-7fc7-41ee-834e-99da0e63cac3" d="M121.34,67.84c.33,2-2.28,2.9-4.65,3.35l-.55.1c-1.55.25-2.1.23-3.64.48-.72.13-1.47.27-2.21.39a33.9,33.9,0,0,1-12.07-1,8,8,0,0,1-.84-.22h0c-5.6-1.48-10.73-4.08-11.47-7.45-.06-.24-.11-.48-.14-.69-.56-3.41.72-4.78,2.84-5.12a20,20,0,0,1,4.87.47c1,.18,2.16.4,3.35.65a108.28,108.28,0,0,1,21.61,6.66C120.15,66.28,121.22,67.11,121.34,67.84Z"/><path class="bec9924e-5081-422b-9300-e1ab62e8a210" d="M94.45,66A8,8,0,0,0,98,70.84c-.27-.06-.53-.13-.8-.21h0c-5.3-1.4-10.15-3.85-10.85-7,0-.23-.1-.45-.13-.65-.53-3.23.69-4.51,2.68-4.84a18.91,18.91,0,0,1,4.62.44c1,.17,2,.38,3.16.61a4.26,4.26,0,0,0-.24,2.26v.07c.34,1.87,6.11,2.91,7.33,3.36-2.9.36-6-.09-8.83.38-.19.24-.36.48-.54.72Z"/><path class="bec9924e-5081-422b-9300-e1ab62e8a210" d="M121.36,67.94c.33,2-2.28,2.91-4.65,3.35a4.35,4.35,0,0,0,.27-1.64,5.58,5.58,0,0,0-3.1-1.24l.4-.07,1.33-.19c2-.34,2.85-1.37,2.85-2.64C120.17,66.38,121.24,67.21,121.36,67.94Z"/><path class="bec9924e-5081-422b-9300-e1ab62e8a210" d="M92.85,65.62c.28,1.69,3.14,4,4.54,5.38-5.6-1.48-10.72-4.08-11.46-7.45a6.5,6.5,0,0,1-.14-.69c-.56-3.4.72-4.77,2.83-5.11a19.52,19.52,0,0,1,4.88.46,2.94,2.94,0,0,0,0,.66,5.75,5.75,0,0,0,3,4C95.5,63.76,92.55,63.76,92.85,65.62Z"/><path class="b391ceda-d32f-4b78-a4c5-f330e3917088" d="M109.39,69.42A1.87,1.87,0,0,0,110.92,68c-3.21-.61-7.8-2.68-10.42-2.24-.8.13-1.88.72-1.76,1.49.33,2,7.54,2.73,9.82,2.36C108.83,69.55,109.11,69.49,109.39,69.42Z"/><path class="b391ceda-d32f-4b78-a4c5-f330e3917088" d="M105.59,63.73c.61.42,5.57,3.11,8,2.72.32,0,.51-.18.47-.41-.18-1.17-5-3.17-7.42-2.77A1.8,1.8,0,0,0,105.59,63.73Z"/><path class="a6dd5657-7fc7-41ee-834e-99da0e63cac3" d="M41.48,57.72c.36,3.47-2.38,5-5.41,5.46a24.63,24.63,0,0,1-5.15.21h0a52.29,52.29,0,0,1-7-.94c-8.3-1.66-17.32-5.18-21.55-8.62A6,6,0,0,1,0,50.56c-.33-2,3.79-3,6.52-3.44l1.13-.2c3.13-.51,9.39.16,16.53,2.39h0c2,.63,4.06,1.38,6.14,2.26A60.18,60.18,0,0,1,41.48,57.72Z"/><path class="bec9924e-5081-422b-9300-e1ab62e8a210" d="M10.58,52.23c-1.76.19-4-.14-5.8.15a3,3,0,0,0-2.36,1.44A6,6,0,0,1,0,50.56c-.33-2,3.79-3,6.52-3.45C5.18,47.68,4.2,48.33,4.32,49,4.6,50.73,8.93,51,10.58,52.23Z"/><path class="bec9924e-5081-422b-9300-e1ab62e8a210" d="M17.66,46.26Z"/><path class="bec9924e-5081-422b-9300-e1ab62e8a210" d="M41.48,57.72c.36,3.47-2.38,5-5.41,5.46a24.63,24.63,0,0,1-5.15.21h0a52.29,52.29,0,0,1-7-.94c3.66-.69,7-1,7.68-2.72-2-2.46-3.77-.62-11.2-5.44,2.3.78,7.6,3.23,12,2.51.62-.1,1.22-.3,1.11-.92a60.19,60.19,0,0,0-9.31-6.54c2,.63,4.06,1.38,6.14,2.27A60.23,60.23,0,0,1,41.48,57.72Z"/><path class="bec9924e-5081-422b-9300-e1ab62e8a210" d="M41.48,57.72c.36,3.47-2.38,5-5.41,5.46a24.63,24.63,0,0,1-5.15.21c1.17-1.31,3.08-2,3.73-3.64-.72-1-2.3-1.47-3.31-2.12a17.73,17.73,0,0,0,4.08.72A1.62,1.62,0,0,0,36.79,57c-1.89-1.89-4.54-3.39-6.46-5.38A60.08,60.08,0,0,1,41.48,57.72Z"/><path class="a6dd5657-7fc7-41ee-834e-99da0e63cac3" d="M43.17,63.65c.36,5.25-3.47,7.39-7.72,8.57l.17,0-2.52.41.36-.06c-.66.14-1.31.26-1.95.38-1.2.22-2.4.45-3.59.65-2.92.48-17,1.49-23.81.12C2,73.27.52,72.6.33,71.59s.65-2.12,2-3.09C6,66,13.28,64,16.18,63.51c.84-.14,2.26-.3,4-.44h-.09l11.06-.72-.34.06C36.2,62.39,41.27,62.68,43.17,63.65Z"/><path class="bec9924e-5081-422b-9300-e1ab62e8a210" d="M42.87,63.53c.36,5-3.28,7-7.31,8.12h0c-.82.22-1.68.41-2.52.58a8,8,0,0,0,2-3.06c-1-1.12-15.09-.27-15.63-.24.35,0,.83-.12,1.43-.22,3.35-.55,9.85-1.83,10.82-3A82.3,82.3,0,0,0,20,62.91c3.06-.26,7.2-.48,11.15-.53h0C36.28,62.34,41.07,62.61,42.87,63.53Z"/><path class="bec9924e-5081-422b-9300-e1ab62e8a210" d="M42.83,63.79c.36,4.94-3.26,7-7.26,8.08a9,9,0,0,0,1-3.52,8.83,8.83,0,0,0-5.28-.78,6.22,6.22,0,0,0,3.88-2,6.74,6.74,0,0,0-4-2.87C36.28,62.6,41.05,62.88,42.83,63.79Z"/><path class="bec9924e-5081-422b-9300-e1ab62e8a210" d="M4,72.84a2.43,2.43,0,0,0,.36.72C2.27,73.14.86,72.48.69,71.5s.63-2.08,2-3a2.87,2.87,0,0,0-.24,1.16A9.65,9.65,0,0,0,7,70.91C6.11,71.69,4.7,71.92,4,72.84Z"/><path class="b391ceda-d32f-4b78-a4c5-f330e3917088" d="M22.29,64.94a19.09,19.09,0,0,0-5.59.4c-2.8.46-6.9,1.31-7.84,2.77l.13.26A19.28,19.28,0,0,0,17.2,68l4-.1,1.28-.21a10.2,10.2,0,0,0,3.54-2C25,64.71,23.65,65.14,22.29,64.94Z"/><path class="b391ceda-d32f-4b78-a4c5-f330e3917088" d="M19.38,70.57c-1.59.13-3.28.13-4.89.4a9.07,9.07,0,0,0-3.42,1.19l0,.22c3.29,1.5,8.07,1.2,11.64.6,1.08-.17,4.71-1,4.54-2.08-.15-.9-3.59-.59-4.76-.52Z"/><path class="a6dd5657-7fc7-41ee-834e-99da0e63cac3" d="M47.46,73c1,5.83-6.88,12.67-14.93,18-2.44,1.62-4.91,3.1-7.16,4.36s-4,2.21-5.57,2.94a26.84,26.84,0,0,1-3.46,1.55c-1.44.24-3,.13-3.23-1.34a6.62,6.62,0,0,1,.13-2.62,11.32,11.32,0,0,1,.86-2.45A40.59,40.59,0,0,1,24.56,81.09c6.77-5.75,15.11-10.57,20.84-11.64A5.4,5.4,0,0,1,47.46,73Z"/><path class="bec9924e-5081-422b-9300-e1ab62e8a210" d="M47.46,73c1,5.83-6.88,12.67-14.93,18-2.44,1.62-4.91,3.1-7.16,4.36,4.31-4.74,10-11.9,10.25-12.28A101.94,101.94,0,0,0,21,91.08c3.23-3.26,1.89-3.79,12.68-11.86A37.17,37.17,0,0,0,14.11,93.44v0A40.08,40.08,0,0,1,24.57,81.13c6.77-5.75,15.1-10.57,20.85-11.65A5.46,5.46,0,0,1,47.46,73Z"/><path class="bec9924e-5081-422b-9300-e1ab62e8a210" d="M38.59,79.51a43.49,43.49,0,0,1-6.66,3.65,21.62,21.62,0,0,0,5.38-6.28,15.3,15.3,0,0,0-3,.21,26.68,26.68,0,0,0-9.7,4c6.78-5.74,15.11-10.57,20.86-11.64a5.39,5.39,0,0,1,2,3.49c1,5.83-6.87,12.67-14.92,18C35,87.61,39.05,82.42,38.59,79.51Z"/><path class="bec9924e-5081-422b-9300-e1ab62e8a210" d="M19.67,98.26a26.23,26.23,0,0,1-3.47,1.55c-1.46.24-3,.13-3.23-1.33a6.79,6.79,0,0,1,.12-2.62s0,.1,0,.14c.11.64.36,1.08,1,1a7,7,0,0,0,2.44-1.52c-.22.62-.86,1.38-.72,2.05v0C16.94,98.31,18.36,98,19.67,98.26Z"/><path class="b391ceda-d32f-4b78-a4c5-f330e3917088" d="M21.2,86.83c-2.29,1.9-6,5-6.63,8l.22.3a5,5,0,0,0,.54-.06,11.29,11.29,0,0,0,3.47-1.73c-.05.78-.75,1.51-.63,2.28a1.35,1.35,0,0,0,.11.34,3,3,0,0,0,1.2,0,10.05,10.05,0,0,0,6.31-4.83L25.63,91a2.2,2.2,0,0,0-.36,0c-1.24.2-2.39.81-3.6,1A3.74,3.74,0,0,1,20,91.94c-.1-1.16,2.75-4.22,3.43-5.89a1,1,0,0,0-.8-.24C22.15,85.89,21.67,86.43,21.2,86.83Z"/><path class="a6dd5657-7fc7-41ee-834e-99da0e63cac3" d="M53.89,81.72c.36,2.22-1,6.34-3.28,10.89a69.44,69.44,0,0,1-4,7,51.48,51.48,0,0,1-8.72,10.47h0a11.79,11.79,0,0,1-5.29,3,5.51,5.51,0,0,1-1.57,0,5,5,0,0,1-.56-1.68,7.77,7.77,0,0,1-.09-1.36,18,18,0,0,1,.31-3c0-.19.07-.36.11-.54A65.63,65.63,0,0,1,36.4,91.17c.88-1.76,1.83-3.49,2.8-5.11C42.62,80.41,46.43,76,49.56,75.47h0A9.88,9.88,0,0,1,53.89,81.72Z"/><path class="bec9924e-5081-422b-9300-e1ab62e8a210" d="M53.89,81.72c.36,2.22-1,6.34-3.28,10.89a69.44,69.44,0,0,1-4,7c1.17-4,2.38-8.53,1.9-11.47a4.54,4.54,0,0,0-.12-.53c-2.77,5.2-6,10.93-10.63,14.66,0-.06.21-.74.51-1.8,1.23-4.13,4.19-14.07,4.24-15.31a20,20,0,0,0-6.1,6c.88-1.76,1.84-3.49,2.81-5.11C42.59,80.37,46.4,76,49.53,75.44h0A9.86,9.86,0,0,1,53.89,81.72Z"/><path class="bec9924e-5081-422b-9300-e1ab62e8a210" d="M50.62,92.61A24.56,24.56,0,0,0,50.9,86a5.51,5.51,0,0,0-.82-2.25,61.23,61.23,0,0,1-8.16,10,35.53,35.53,0,0,0,2.94-12.21A25.38,25.38,0,0,0,39.2,86C42.61,80.37,46.43,76,49.55,75.44h.05a9.84,9.84,0,0,1,4.32,6.27C54.26,83.94,52.9,88.06,50.62,92.61Z"/><path class="bec9924e-5081-422b-9300-e1ab62e8a210" d="M38.08,110a11.68,11.68,0,0,1-5.29,3,5.23,5.23,0,0,1-1.58,0,5.59,5.59,0,0,1-.57-1.7,6.87,6.87,0,0,1-.1-1.36.81.81,0,0,0,.55.08c1.67-.27,4.31-4.54,5.48-5.5-.67,1.38-2.36,3.8-2.09,5.43l0,.11a7.36,7.36,0,0,0,3,0A5,5,0,0,0,38.08,110Z"/><path class="b391ceda-d32f-4b78-a4c5-f330e3917088" d="M36,96.29a32.71,32.71,0,0,0-4.53,10.81l.1.16.68.11c2.18-1.33,5.75-7.06,5.25-10.14a.9.9,0,0,0-.34-.63A2,2,0,0,0,36,96.29Z"/><path class="b391ceda-d32f-4b78-a4c5-f330e3917088" d="M42.06,100.48c-1,1-5.05,4.21-4.63,6.72a1,1,0,0,0,.88.81h0c.29-.05,7.2-8.37,7.61-11a1.7,1.7,0,0,0-.45,0C44.08,97.23,43,99.57,42.06,100.48Z"/><path class="a6dd5657-7fc7-41ee-834e-99da0e63cac3" d="M66.26,85.24a28.92,28.92,0,0,1-.16,8.36,62.65,62.65,0,0,1-1.75,8.11A59.21,59.21,0,0,1,58.47,116c-1.23,2-2.41,3.19-3.37,3.35-1.57.26-2.59-.87-3.24-2.39a15.56,15.56,0,0,1-1-3.55,55.18,55.18,0,0,1-.38-8.62c0-2.49.16-5.22.36-8,.64-8.57,2.1-17.33,4.31-19.48a1.74,1.74,0,0,1,.6-.41,5.5,5.5,0,0,1,.88-.25C60.17,76.12,65.18,78.71,66.26,85.24Z"/><path class="bec9924e-5081-422b-9300-e1ab62e8a210" d="M66.26,85.24a28.92,28.92,0,0,1-.16,8.36,62.65,62.65,0,0,1-1.75,8.11,28.38,28.38,0,0,0,0-7.48,12.37,12.37,0,0,0-1.37-4,61.72,61.72,0,0,1-7.18,19.17c.24-2.46,1.17-19.66,1.17-19.7a53.56,53.56,0,0,0-6.5,15.13c0-2.48.16-5.21.36-8,.63-8.57,2.1-17.33,4.31-19.47a1.92,1.92,0,0,1,.6-.42,4.59,4.59,0,0,1,.88-.24C60.17,76.12,65.18,78.71,66.26,85.24Z"/><path class="bec9924e-5081-422b-9300-e1ab62e8a210" d="M66.26,85.24a28.92,28.92,0,0,1-.16,8.36c-1-2.72-.87-6.11-4-7.91-.94,2.88-.32,5.51-3.83,12.6a32.79,32.79,0,0,0,.25-10.13,15.61,15.61,0,0,0-.5-2.15l-.36-.19a41.08,41.08,0,0,0-6.84,11c.64-8.57,2.1-17.33,4.31-19.48a2,2,0,0,1,.61-.41,4.23,4.23,0,0,1,.88-.24C60.17,76.12,65.18,78.71,66.26,85.24Z"/><path class="bec9924e-5081-422b-9300-e1ab62e8a210" d="M58.47,116c-1.23,2-2.41,3.19-3.38,3.35-1.56.26-2.58-.87-3.23-2.39a1.67,1.67,0,0,0,.23.12,6.64,6.64,0,0,0,2.39-5.18,23.63,23.63,0,0,1,.88,3.6,5.62,5.62,0,0,1,.09.57,4.61,4.61,0,0,0,2.08.24A3.46,3.46,0,0,0,58.47,116Z"/><path class="b391ceda-d32f-4b78-a4c5-f330e3917088" d="M54.25,105.65a16.27,16.27,0,0,0,.73-5.18,2,2,0,0,0-.77-1.39C50.43,101.21,50.83,110,51,111a2.14,2.14,0,0,0,.77,1.47C53.55,111,53.79,107.85,54.25,105.65Z"/><path class="b391ceda-d32f-4b78-a4c5-f330e3917088" d="M61.17,103c-.81,1.46-4.21,8.21-4,9.86a.89.89,0,0,0,.4.65c1.78-1.83,6.44-8.19,5.89-11.56a2.5,2.5,0,0,0-.24-.76,1.06,1.06,0,0,0-.47,0C62,101.24,61.52,102.32,61.17,103Z"/><path class="e9719cae-91d1-445b-84d4-a29a69b5506d" d="M93.54,61.66c.06.38.12.76.16,1.12,1,8.37-3.08,15-9,19.65a35.58,35.58,0,0,1-15.93,7l-.49.08A37.28,37.28,0,0,1,47.14,87a21.89,21.89,0,0,1-12.65-17,30.26,30.26,0,0,1,2.7-18.4c.34-.66.72-1.3,1.1-1.94a28.84,28.84,0,0,1,5.47-6.5,29.87,29.87,0,0,1,14.84-7,26.22,26.22,0,0,1,3.64-.35H64C72.63,36.05,84,41,89,48.15a2.14,2.14,0,0,1,.13.19,24.26,24.26,0,0,1,3.33,7.94C92.92,58.09,93.25,59.89,93.54,61.66Z"/><path class="b3175b12-a635-4d89-ac4d-7d5e00cc35e7" d="M93.7,62.78c1,8.37-3.08,15-9,19.65a35.58,35.58,0,0,1-15.93,7l-.49.08A37.28,37.28,0,0,1,47.14,87a21.89,21.89,0,0,1-12.65-17,30.26,30.26,0,0,1,2.7-18.4c.34-.66.72-1.3,1.1-1.94a28.84,28.84,0,0,1,5.47-6.5,29.87,29.87,0,0,1,14.84-7,26.22,26.22,0,0,1,3.64-.35c-1.7,1.07-2.84,2.45-2.61,3.83.16,1,1,1.93,2.74,2.75-1.71,1.42-7.3,5.28-6.46,10.26a4,4,0,0,0,4.6,3.34l.38-.08A7.72,7.72,0,0,0,63.18,55a24.38,24.38,0,0,0-.4,6.82,6.18,6.18,0,0,0,.25,1c.69,2,2.24,2.47,4.58,2.09a6.63,6.63,0,0,0,4-2.23,12.39,12.39,0,0,0,.18,1.61c.8,4.89,3.84,7.54,6.63,7.08a4.13,4.13,0,0,0,.83-.24,5,5,0,0,0,1.9-1.44s0,0,0,0A10.11,10.11,0,0,0,83,65.55a4.16,4.16,0,0,0,.91,1.74,3.92,3.92,0,0,0,3.65,1.07c2.76-.45,5.59-3,5.08-6.08a1.69,1.69,0,0,0,0-.24C93,62.27,93.35,62.52,93.7,62.78Z"/><path class="b3175b12-a635-4d89-ac4d-7d5e00cc35e7" d="M84.75,82.42a35.58,35.58,0,0,1-15.93,7l-.49.08c-14.26,2.18-31-2.34-33.85-19.55a29.42,29.42,0,0,1,2.71-18.4,28.66,28.66,0,0,1,6.57-8.43,2.49,2.49,0,0,0,0,.47c.28,1.67,1.71,3.05,4.6,3-2.29,4.52-4.31,8.15-3.67,12a12.31,12.31,0,0,0,3.12,6,13.64,13.64,0,0,0,2.71,0,4.19,4.19,0,0,0,1.76-.69,41.25,41.25,0,0,0,.41,5.2c.54,3.27,1.84,6.16,5.21,5.6a7.68,7.68,0,0,0,1.82-.56c1.62,4.12,2.12,10.23,8.39,9.2a6.3,6.3,0,0,0,4.88-4c2.81,1.12,4.63,4.44,10.22,3.52A9.63,9.63,0,0,0,84.75,82.42Z"/><path class="b3175b12-a635-4d89-ac4d-7d5e00cc35e7" d="M68.33,89.46c-14.26,2.19-31-2.33-33.85-19.54a29.42,29.42,0,0,1,2.71-18.4,4.71,4.71,0,0,0,3.38,1.84c-1.1,2.38-3,6.12-2.52,8.81a3.66,3.66,0,0,0,3.14,3,36.26,36.26,0,0,0-.83,10.23C40.87,78.6,42.81,80.84,48,80c1.15,3.56,2.81,8.2,6.51,7.59a7.49,7.49,0,0,0,3.21-1.57C62.64,89.74,63.52,89.57,68.33,89.46Z"/><path class="f92de868-bdfb-42f4-9aec-9a84cc13bdde" d="M69.36,38.62a3.91,3.91,0,0,0-1.08,0,2.76,2.76,0,0,0-2.16,1.65,2.79,2.79,0,0,0,2.25,1.84c-2.94,2-5.69,4.84-5.11,8.36A4.06,4.06,0,0,0,68,53.83l.36-.07a6.71,6.71,0,0,0,3-1.32,5.39,5.39,0,0,0-.57,3.08,2.41,2.41,0,0,0,2.65,2.14l.23,0a5.21,5.21,0,0,0,3.23-2.3c0,.33.06.66.11,1a5.22,5.22,0,0,0,5.47,5c.2,0,.41,0,.61-.06a7.91,7.91,0,0,0,6.11-8.4,11.83,11.83,0,0,0-3.79-6.06A28.65,28.65,0,0,0,69.36,38.62Z"/><path class="f92de868-bdfb-42f4-9aec-9a84cc13bdde" d="M71.51,42.32c-2.29.72-3.05,2.07-2.87,3.11a1.86,1.86,0,0,0,2.27,1.43,3.39,3.39,0,0,0,1.35-.55,12.84,12.84,0,0,0,.15,2c.3,1.79,1.06,3.4,2.6,3.15a4.67,4.67,0,0,0,2.22-1.29,5.41,5.41,0,0,0,4.59,2.94c1.17-.18,1.93-1.39,1.52-4V49a8.69,8.69,0,0,0-10-7.11L73,42A10.55,10.55,0,0,0,71.51,42.32Z"/><path class="b391ceda-d32f-4b78-a4c5-f330e3917088" d="M21.2,56.11a17,17,0,0,0-8.95-1.87,2.89,2.89,0,0,0-1.91.94c1.87,3.33,12.65,4.44,13.07,4.37a1.3,1.3,0,0,0,1.12-.9A8.58,8.58,0,0,0,21.2,56.11Z"/><path class="b391ceda-d32f-4b78-a4c5-f330e3917088" d="M14.33,49.07l-.39.06c-.48.08-1,.19-1.44.3a1.06,1.06,0,0,0-.08.63h0c2.52,1.55,13.76,3.77,14.29,3.68a2.72,2.72,0,0,0,.63-.2l.17-.36C24.87,49.66,18.64,48.51,14.33,49.07Z"/><path class="b3175b12-a635-4d89-ac4d-7d5e00cc35e7" d="M93.54,61.66c.06.38.12.76.16,1.12,1,8.37-3.08,15-9,19.65a35.58,35.58,0,0,1-15.93,7l-.49.08A37.28,37.28,0,0,1,47.14,87a21.89,21.89,0,0,1-12.65-17,30.26,30.26,0,0,1,2.7-18.4c.34-.66.72-1.3,1.1-1.94A24.51,24.51,0,0,0,63,62.84c.58-.06,1.16-.14,1.75-.23,10-1.66,19.79-9,24.24-14.43l.14.18a24.43,24.43,0,0,1,3.33,8C92.92,58.09,93.25,59.89,93.54,61.66Z"/><path class="b3175b12-a635-4d89-ac4d-7d5e00cc35e7" d="M93.54,61.66c.06.38.12.76.16,1.12,1,8.37-3.08,15-9,19.65a35.58,35.58,0,0,1-15.93,7l-.49.08A37.28,37.28,0,0,1,47.14,87a21.89,21.89,0,0,1-12.65-17,28.68,28.68,0,0,1-.39-3.69c6.28,8.91,20.32,12.87,31.07,11.1a34.26,34.26,0,0,0,14-6.19c.65-.46,1.28-.94,1.9-1.44,0,0,0,0,0,0,1-.78,1.89-1.58,2.78-2.4a40.28,40.28,0,0,0,8.56-11C92.92,58.09,93.25,59.89,93.54,61.66Z"/></g></g></g></g></g></svg>