<svg xmlns="http://www.w3.org/2000/svg" viewBox="0 0 250.51 186.02"><defs><style>.bf3f5439-7e3e-4b3c-9feb-3b0bf903de7a{fill:gray;}.a1c68fa8-aeed-439a-8410-c9a1073710fd,.b3346686-fc49-4b7c-b2cf-fc4cd4d8e41d,.bf3f5439-7e3e-4b3c-9feb-3b0bf903de7a,.e1e41f5e-fd2d-42a9-b303-0d52e8a8e210,.ec0db67b-1675-4459-9901-6f0a68b05b30,.fcfcda66-6424-4774-8cd9-729f0e8d175b{fill-rule:evenodd;}.a1c68fa8-aeed-439a-8410-c9a1073710fd{fill:#823d39;}.e1e41f5e-fd2d-42a9-b303-0d52e8a8e210{fill:#590700;stroke:#2b281d;stroke-miterlimit:16;stroke-width:4px;}.b3346686-fc49-4b7c-b2cf-fc4cd4d8e41d{fill:#343433;}.ec0db67b-1675-4459-9901-6f0a68b05b30{fill:#3d0f00;}.fcfcda66-6424-4774-8cd9-729f0e8d175b{fill:#452e27;}.fc470948-74a5-494d-bf55-42bd989121c1{fill:#fdfdfd;}</style></defs><g id="b1ad6d40-d6e7-4227-911c-8060e80a395d" data-name="Layer 2"><g id="af3fde32-9a7b-4b34-b4fd-eb97dcf8eec5" data-name="Layer 1"><path class="bf3f5439-7e3e-4b3c-9feb-3b0bf903de7a" d="M231.45.7l15.78,24.36a1.32,1.32,0,0,1-.4,1.88h0a1.4,1.4,0,0,1-1.88-.41L229.17,2.16a1.28,1.28,0,0,1,.4-1.87h0a1.4,1.4,0,0,1,1.88.41ZM223.9,5.63,239.68,30a1.29,1.29,0,0,1-.41,1.88h0a1.5,1.5,0,0,1-1.87-.41L221.61,7.1A1.32,1.32,0,0,1,222,5.22h0a1.4,1.4,0,0,1,1.88.41Z"/><path class="a1c68fa8-aeed-439a-8410-c9a1073710fd" d="M3.08,149.21c-21-55,71.3-85.43,108.36-53.1,14.49,47-50.77,119-92.49,77.51-5.28-8.17-10.55-16.33-15.87-24.41Z"/><path class="e1e41f5e-fd2d-42a9-b303-0d52e8a8e210" d="M5.62,145.1c5.06,7.73,10,15.41,15.1,23.14,6.16,6,13.43,9.79,22.08,10,19.27.7,37.43-15.39,47.46-30.36,9.22-13.61,16.22-32.53,12-49.17-13.47-10.58-33.61-11.95-49.8-9C25.77,94.5-5.79,113.86,5.62,145.1Z"/><path class="b3346686-fc49-4b7c-b2cf-fc4cd4d8e41d" d="M9,146.19c5.06,7.73,10,15.41,15.09,23.14a34.32,34.32,0,0,0,3.48,3.08c5.51-6.95,6.71-16.21,2.13-23.15s-13.49-9.71-22-7.36A30.55,30.55,0,0,0,9,146.19Z"/><path class="ec0db67b-1675-4459-9901-6f0a68b05b30" d="M78.07,117.73a20.29,20.29,0,1,1-28-5.92,20.22,20.22,0,0,1,28,5.92Z"/><path class="fcfcda66-6424-4774-8cd9-729f0e8d175b" d="M74,120.46A15.31,15.31,0,1,1,52.74,116,15.33,15.33,0,0,1,74,120.46Z"/><path class="b3346686-fc49-4b7c-b2cf-fc4cd4d8e41d" d="M218.25,32.9C176.54,60.59,127.85,93,86.14,120.63a26.47,26.47,0,0,0-7.49-11.37L212.58,24c1.25-3.31,2.58-6.58,3.87-10l21.6-14c2.08,3.25,4.15,6.5,6.27,9.66s4.2,6.41,6.19,9.61C243.39,24,236.19,28.65,229,33.33c-3.53-.16-7.07-.31-10.74-.43Z"/><path class="fc470948-74a5-494d-bf55-42bd989121c1" d="M236.62,11.88a.46.46,0,0,1,.61.09c.13.18,0,.44-.18.57L28.83,147.94c-.13-.17-.35-.39-.56-.61Zm2.07,3.25a.46.46,0,0,1,.62.09.37.37,0,0,1-.18.57L30.86,151.28c-.08-.26-.3-.48-.38-.75Z"/></g></g></svg>