<svg xmlns="http://www.w3.org/2000/svg" viewBox="0 0 247.09 172.21"><defs><style>.bec184e1-4bb1-4b63-ae72-94e76139f252{fill:#333;}.ac6de781-487a-4592-a4dd-a7beaa22eed7,.b369e665-6df2-43ba-a930-8ad7935cf5f5,.bd6baaeb-dea2-4fe4-8c2d-138128a14404,.bec184e1-4bb1-4b63-ae72-94e76139f252,.e5c51ccf-5db7-4da1-a36f-0e93b0f79ef9{fill-rule:evenodd;}.fa9e92f6-3ee2-4150-9cb8-b7bfef627604{fill:none;stroke:#d5d6d6;stroke-miterlimit:16;stroke-width:4px;}.bd6baaeb-dea2-4fe4-8c2d-138128a14404{fill:#081212;}.e5c51ccf-5db7-4da1-a36f-0e93b0f79ef9{fill:#4e4e4d;}.b369e665-6df2-43ba-a930-8ad7935cf5f5{fill:#d5d6d6;}.ac6de781-487a-4592-a4dd-a7beaa22eed7{fill:#7f7f7f;}</style></defs><g id="ef666e58-0d94-4af4-99c9-533870d85ba7" data-name="Layer 2"><g id="f90ba783-65a9-4564-b956-c33127658d89" data-name="Layer 1"><path class="bec184e1-4bb1-4b63-ae72-94e76139f252" d="M103.13,76.76c-7.31-3.73-9.72-8.69-8-14.75,1-4.76,2.73-9.25,6.52-12.58,2.37-2.08,1.08-3.62-2.42-4.3C88.05,43.73,81,52.42,74.62,62.77c-8.89,12.91-21,18.72-35.68,18.34-36,5-47.23,20.79-32.89,47.73C12.7,139,19.27,149.18,25.88,159.46,39,175.12,54.38,180.79,78.7,150.3c8.66-12.48,17-21.5,24.6-22.23,8.75-.81,17.37-1.57,21.88-9.14,1.11-2,2.48-4.44,1.28-6.59-1.51-2.86-4.49-1.3-6.69-.45C108.9,115.79,95,108.6,99.83,97.23c1-6.81,2.24-13.67,3.3-20.47Z"/><path class="fa9e92f6-3ee2-4150-9cb8-b7bfef627604" d="M100.94,77.83C93.19,74.1,91.79,74.7,87.08,79c-4.93,4.73-7.62,7.85-14.5,9.72-7.4,2-14.74.94-22.14,3-14.15,4.52-18.78,10-13.1,16.46,12.25,14,29.52,31.17,18,51-2.58,5.27.76,8.62,4.93,6.47,6.41-4.19,12.27-10.75,16.86-16.52a97.7,97.7,0,0,1,13-15.77c3.48-3.38,8.09-6.84,13-7.28,5.16-.44,11.54-.92,15.94-3.72a13.1,13.1,0,0,0,4.45-4.43c.58-1.13,2-3.35,1.3-4.71-.13-.17-.3-.48-.61-.53-.87-.22-2.89.73-3.76.94a20.81,20.81,0,0,1-13,.38c-3.88-1.22-7.57-3.65-9.38-7.42a11.93,11.93,0,0,1-.1-9.92l3-18.86Z"/><path class="bd6baaeb-dea2-4fe4-8c2d-138128a14404" d="M198.48,16.44c0-1-.11-2.14-.14-3.15-.08-1.35-.07-2.66-.15-4,12-2.79,22.06-4.55,33.18-6.78,3.59-.8,7.27-1.56,11-2.49,13,14-4.67,22.3-10.2,14.21C226,20.06,221.63,29.12,215.32,25.8c-3.22-1.65-6.54-1.37-10.06,1.23-2.24-3.56-4.53-7-6.78-10.59Z"/><path class="e5c51ccf-5db7-4da1-a36f-0e93b0f79ef9" d="M198.48,16.44c1.08,1.76,2.25,3.56,3.33,5.31s2.29,3.48,3.46,5.27c-15.42,10.24-31.9,21.26-49.65,33.05-19.24,12.79-46.78,31.11-69.32,46.05-.35-6-3.42-10.29-8.64-13.17,23-14.51,50.86-32.21,70.32-44.56,18.09-11.4,34.82-22.06,50.5-31.95Z"/><path class="b369e665-6df2-43ba-a930-8ad7935cf5f5" d="M199.6,30.83l-1.28.77-6.95-10.67,1.27-.78Zm-10.59,7-1.19.82-7.17-10.9,1.32-.86Zm-10.5,7-1.28.77L170,34.49l1.27-.78ZM168,51.78l-1.23.91-7.43-11.47,1.27-.78Zm-10.5,7-1.23.91L148.63,48l1.28-.78Zm-10.5,7-1.32.87-7.73-12,1.27-.78Zm-10.59,7-1.19.82-7.94-12.17,1.27-.77Zm-10.5,7-1.28.78-8.07-12.34,1.31-.86Zm-10.59,7-1.19.82-8.24-12.65,1.27-.78Zm-10.46,7-1.31.86L95.18,81.81,96.46,81Zm-10.58,7-1.19.82-8.51-13,1.19-.82Z"/><path class="b369e665-6df2-43ba-a930-8ad7935cf5f5" d="M33.82,115.9,47.51,137a2.21,2.21,0,0,1-.68,3.05l-4.09,2.64a2.24,2.24,0,0,1-3.1-.6L26,121a2.29,2.29,0,0,1,.6-3.1l4.21-2.68a2.22,2.22,0,0,1,3.06.68Z"/><path class="e5c51ccf-5db7-4da1-a36f-0e93b0f79ef9" d="M234.4,5.79a1.89,1.89,0,0,1-.54,2.58,2,2,0,0,1-2.71-.51,2,2,0,0,1,.59-2.66,1.9,1.9,0,0,1,2.66.59Zm-7.17,1.39a2,2,0,0,1-.6,2.66A2,2,0,0,1,224,9.25a1.93,1.93,0,0,1,3.26-2.07ZM220,8.65a1.89,1.89,0,0,1-.54,2.58,2,2,0,0,1-2.71-.51,2,2,0,0,1,.59-2.66,2,2,0,0,1,2.66.59ZM212.74,10a2,2,0,0,1-.5,2.71,2,2,0,0,1-2.67-.59,1.88,1.88,0,0,1,.55-2.57,1.84,1.84,0,0,1,2.62.45Zm-7.23,1.48a1.92,1.92,0,0,1-.5,2.7,2,2,0,0,1-2.66-.59,2,2,0,0,1,.59-2.66,1.88,1.88,0,0,1,2.57.55Zm36.12-7.15A2,2,0,0,1,241,7a2,2,0,0,1-2.66-.59A2,2,0,0,1,239,3.73a2,2,0,0,1,2.66.59Z"/><path class="ac6de781-487a-4592-a4dd-a7beaa22eed7" d="M83.22,97.54l-43.14,28a14.21,14.21,0,0,1-.95-1.59L82,96.13a7.31,7.31,0,0,1,1.26,1.41Zm1.94,3.29-43,28a13.73,13.73,0,0,0-1-1.63l43.22-28a14.4,14.4,0,0,1,.82,1.62Zm1,3.9L44.27,132l-1-1.63L85.8,102.8c.13.61.25,1.23.33,1.93Zm-5.6-9.88-42.48,27.6-1-1.63L78.83,93.65a7.29,7.29,0,0,1,1.7,1.2Z"/></g></g></svg>