<svg xmlns="http://www.w3.org/2000/svg" viewBox="0 0 108.85 15.28"><defs><style>.fb8842e6-1758-4fe2-b2ea-2b4e1a48d620{fill:#270908;}.a0000c84-0285-4658-8e7a-b9555b1f3d01,.af15a797-ad2d-4305-9c12-4e46ab97eacf,.b3d2cdff-e032-4988-9de1-e7faec6a9ca8,.ba9cbaf3-c96d-4538-a6f4-d39f27736ca0,.bcb0f0af-30ff-4c6c-9a29-454085bbe01e,.e81ba6f8-a260-48be-990b-39a71c540c43,.ec95ba81-c4ef-4b0d-8453-8ae23255c47d,.fb8842e6-1758-4fe2-b2ea-2b4e1a48d620{stroke:#242020;}.a0000c84-0285-4658-8e7a-b9555b1f3d01,.af15a797-ad2d-4305-9c12-4e46ab97eacf,.b3d2cdff-e032-4988-9de1-e7faec6a9ca8,.bcb0f0af-30ff-4c6c-9a29-454085bbe01e,.e81ba6f8-a260-48be-990b-39a71c540c43,.ec95ba81-c4ef-4b0d-8453-8ae23255c47d,.fb8842e6-1758-4fe2-b2ea-2b4e1a48d620{stroke-miterlimit:10;}.af15a797-ad2d-4305-9c12-4e46ab97eacf{fill:#230909;}.b3d2cdff-e032-4988-9de1-e7faec6a9ca8{fill:#220c0b;}.e81ba6f8-a260-48be-990b-39a71c540c43{fill:#210c0c;}.a0000c84-0285-4658-8e7a-b9555b1f3d01{fill:#fbb620;}.ec95ba81-c4ef-4b0d-8453-8ae23255c47d{fill:#fd9f1a;}.ba9cbaf3-c96d-4538-a6f4-d39f27736ca0{fill:#9c9c9c;stroke-miterlimit:10;}.bcb0f0af-30ff-4c6c-9a29-454085bbe01e{fill:#858585;}</style></defs><g id="eaa48c94-c56d-4960-bcbe-5964a65db46b" data-name="Layer 2"><g id="ae0fde95-4273-4917-8e88-98a1b4ea38f7" data-name="Layer 1"><path class="fb8842e6-1758-4fe2-b2ea-2b4e1a48d620" d="M108.35,12.45H4.71c-2.33,0-4.21-.33-4.21-.73V3.55c0-.4,1.88-.72,4.21-.72H108.35Z"/><path class="af15a797-ad2d-4305-9c12-4e46ab97eacf" d="M51,12.45V2.83H46.49L46,3.35a4.5,4.5,0,0,0-1.24,3.11V8.81a4.71,4.71,0,0,0,.22,1.4.44.44,0,0,1-.41.57h-12v.94a.73.73,0,0,0,.72.73Z"/><path class="b3d2cdff-e032-4988-9de1-e7faec6a9ca8" d="M72.89,12.45H49.32A1.48,1.48,0,0,1,48.26,12l-1.1-1.18a2.91,2.91,0,0,1-.8-2V6.46a3,3,0,0,1,.8-2l1.1-1.16a1.48,1.48,0,0,1,1.06-.46H72.89a.72.72,0,0,1,.72.72v8.17a.73.73,0,0,1-.72.73Z"/><path class="e81ba6f8-a260-48be-990b-39a71c540c43" d="M73.61,10.78H49.32a1.48,1.48,0,0,1-1.06-.46l-1.1-1.18a2.91,2.91,0,0,1-.8-2V6.46h0V8.81a2.91,2.91,0,0,0,.8,2L48.26,12a1.48,1.48,0,0,0,1.06.46H72.89a.73.73,0,0,0,.72-.73Z"/><path class="a0000c84-0285-4658-8e7a-b9555b1f3d01" d="M58,12.45V2.83H68.51a1.17,1.17,0,0,0,0-2.33H57a1.31,1.31,0,0,0-1.31,1.31V13.47A1.31,1.31,0,0,0,57,14.78H68.51a1.17,1.17,0,0,0,0-2.33Z"/><path class="ec95ba81-c4ef-4b0d-8453-8ae23255c47d" d="M69.67,1.67a1.27,1.27,0,0,0-.13-.55,1.17,1.17,0,0,1-1,.63H58.75a.73.73,0,0,0-.73.73v.35H68.51a1.16,1.16,0,0,0,1.16-1.16Z"/><path class="ec95ba81-c4ef-4b0d-8453-8ae23255c47d" d="M69.67,13.61a1.23,1.23,0,0,0-.13-.54,1.16,1.16,0,0,1-1,.62H57a1.31,1.31,0,0,1-1.31-1.31v1.09A1.31,1.31,0,0,0,57,14.78H68.51a1.17,1.17,0,0,0,1.16-1.17Z"/><path class="a0000c84-0285-4658-8e7a-b9555b1f3d01" d="M61.52,7.75a1.16,1.16,0,0,0,1.16,1.16h5.83a1.17,1.17,0,0,0,0-2.33H62.68A1.16,1.16,0,0,0,61.52,7.75Z"/><path class="ec95ba81-c4ef-4b0d-8453-8ae23255c47d" d="M69.67,7.75a1.18,1.18,0,0,0-.12-.53,1.17,1.17,0,0,1-1,.64H62.68a1.17,1.17,0,0,1-1-.64,1.17,1.17,0,0,0,1,1.69h5.83a1.16,1.16,0,0,0,1.16-1.16Z"/><circle class="ba9cbaf3-c96d-4538-a6f4-d39f27736ca0" cx="51.71" cy="7.75" r="0.87"/><path class="bcb0f0af-30ff-4c6c-9a29-454085bbe01e" d="M42.9,7.13a.87.87,0,1,1-1.23,0A.87.87,0,0,1,42.9,7.13Z"/><path class="bcb0f0af-30ff-4c6c-9a29-454085bbe01e" d="M38.25,7.13a.87.87,0,0,1,0,1.23.88.88,0,0,1-1.24,0,.87.87,0,0,1,0-1.23A.88.88,0,0,1,38.25,7.13Z"/></g></g></svg>