<svg xmlns="http://www.w3.org/2000/svg" viewBox="0 0 146.14 175.62"><defs><style>.a8d53034-65f4-475b-be18-45691e908333{fill:#00af68;}.b95f5a02-765f-4a17-87f6-5aaec22ae416{fill:#1a8957;}.b023bdc0-067e-4117-a21c-bdbb03d3410f{fill:#0b1d15;}.a9a676f2-1ec2-42c6-9842-37e0d83e4067{fill:#082819;}.ea3cf2ba-b78e-45de-8652-d00602e15555{fill:#06341e;}.e588d079-8e95-4a74-919c-5f90668b4ef6{fill:#0d7f47;}.a78c01ab-53f5-4332-97c5-8309cd662e62{fill:#345e4a;opacity:0.54;}.a78c01ab-53f5-4332-97c5-8309cd662e62,.f26144f2-1057-480d-b5a7-479d1d092a28{isolation:isolate;}.b6886b58-f984-4e81-9b76-d22bfbabd8e7{fill:#092016;}.f26144f2-1057-480d-b5a7-479d1d092a28{fill:#afdbb9;opacity:0.76;}</style></defs><g id="ba16a574-4551-45df-abaa-e5fdd4eb242a" data-name="Layer 2"><g id="bb79dfcd-e009-4c89-b060-6284bae66e55" data-name="Layer 1"><path class="a8d53034-65f4-475b-be18-45691e908333" d="M18.51,127s-44.76-69.62,5-108.3S137.69,6.81,145,49.63c9.4,54.71-43.65,126-73.49,126C49.17,175.62,18.51,127,18.51,127Z"/><path class="b95f5a02-765f-4a17-87f6-5aaec22ae416" d="M77.5,115.1S70.44,73.54,104,61.56s41.56,10.11,26.38,37S77.5,128.16,77.5,115.1Z"/><path class="b023bdc0-067e-4117-a21c-bdbb03d3410f" d="M78.55,112.05s-6.69-39.33,25.08-50.68,39.32,9.58,25,35S78.55,124.4,78.55,112.05Z"/><path class="a9a676f2-1ec2-42c6-9842-37e0d83e4067" d="M82.72,105s-4-33.3,23.06-43,31.83,8,19.58,29.65S82.72,115.56,82.72,105Z"/><path class="ea3cf2ba-b78e-45de-8652-d00602e15555" d="M85.08,91.9s4.26-26.71,27.13-30.72c20.94-3.67,22.52,11.9,8.77,27.54S83.05,100.57,85.08,91.9Z"/><path class="e588d079-8e95-4a74-919c-5f90668b4ef6" d="M23.48,18.69S8,37.15,11.28,51s23.27-9.16,46.65,17.73c17.35,20,13.46,51.45,4.79,53.24-4.27.88-17.2,1.79-29.91-2.72-7.58-2.69-10.46,4.22-1.49,18.57A323.32,323.32,0,0,0,52.55,167S14.43,138.59,2.45,87.81C-8.72,40.46,21.81,20,23.48,18.69Z"/><path class="a78c01ab-53f5-4332-97c5-8309cd662e62" d="M120.25,63.53S104.53,63,97.59,73.3s3.37,16.15,15.93,9.42S128.74,62.57,120.25,63.53Z"/><path class="b6886b58-f984-4e81-9b76-d22bfbabd8e7" d="M65.58,112.05S72.27,72.72,40.5,61.37s-39.33,9.58-25,35S65.58,124.4,65.58,112.05Z"/><path class="a9a676f2-1ec2-42c6-9842-37e0d83e4067" d="M62.91,105.27s5.76-32.21-21.61-41.5S7.41,71.61,19.79,92.47,62.91,115.39,62.91,105.27Z"/><path class="ea3cf2ba-b78e-45de-8652-d00602e15555" d="M61.9,91.26S61,70.21,37.05,63.94C12.48,57.51,11.9,76.54,25.59,90S63.82,99,61.9,91.26Z"/><path class="a78c01ab-53f5-4332-97c5-8309cd662e62" d="M48.7,76.8s-8.2-9.93-20.64-9.63S16.83,78.26,29.59,84.62,54.38,83.17,48.7,76.8Z"/><path class="f26144f2-1057-480d-b5a7-479d1d092a28" d="M67.42,1.34S120.74-4.55,138,41.61c0,0-9.14-1.23-16.55-10.77C106.76,11.9,88.69,3.83,67.42,1.34Z"/><path class="b6886b58-f984-4e81-9b76-d22bfbabd8e7" d="M90.91,137s-8.66,4.8-17.83,4.33c-9.67-.49-18.75-6.81-18.75-6.81s4.5,9,18.75,9S90.91,137,90.91,137Z"/></g></g></svg>