<svg xmlns="http://www.w3.org/2000/svg" xmlns:xlink="http://www.w3.org/1999/xlink" viewBox="0 0 61.78 59.43"><defs><style>.a7eec204-fe4a-4144-8adb-670721cf01ed{fill:url(#a1aaae51-706e-4b06-a523-299645d107e9);}.b9bd161e-8ac2-4a43-a0da-8ed922ccb4fd{fill:url(#b6c03f1e-eb18-4df8-81f5-ea77ad93df38);}.f5d2b11e-6768-434e-8486-7b38e876a0c7{fill:url(#b2e6e30d-92c8-4d99-a495-947e5f0222e3);}.bb3ff8c4-1b8e-4106-b99b-5b3c2ec7849a{fill:url(#fe1500ea-430f-4f43-a2b0-fb40c03ca98a);}.a69f9049-b71c-4ce4-a166-be4edb36f23c{fill:url(#f7f8a44d-5b40-4480-a0c1-c63fa0bd031e);}.f54e6aae-c070-465f-bb74-dc2d31d0a2d0{fill:#131b28;}.f2989ebd-6d0e-48ee-a61b-20a9cf24c16f{fill:#1a1918;}.b0b74790-280c-4bf1-af19-0c145651a518{fill:#dedede;}.b667bc59-4839-4e49-8ee6-6290f6ee085c{fill:#bfbfbf;}.f9275a25-0598-4d38-8c0b-057b2fb43d0a{fill:#7a7a79;}.f31d534c-7b65-47dc-b7c9-261193298eb7{fill:#af9880;}.b95baf5b-0298-4c04-bbf7-ebc8719f32dd{fill:url(#a4cbde62-9d60-46c0-a86f-1777f679a6c1);}.b90b37eb-e427-47b6-b1de-6408086daa0f{fill:url(#ff4034d6-0a40-44b5-b2f7-f380b7287b8d);}.bf3803c6-191f-4b20-8394-298c8674c760{fill:url(#b47f685a-62d5-49fc-8333-55eb623b73a5);}.b2815302-cc14-4815-8e16-666aee37520d{fill:url(#eb311381-a564-405d-a4d3-ea8b2459c908);}.b16e254c-d8a0-4153-882f-43f8dcec0968{fill:url(#f0efb99d-ab49-4644-b089-4bf981a0479a);}.e2e206e4-bdb1-4d5d-8a22-0a595cdf266f{fill:#fff;}.a5b55059-d199-46d4-91ba-2ee65562c6ad{fill:url(#ff1459f6-9c47-476c-be47-6e6cd393e651);}.bd421c3d-7b02-49eb-b21d-aaa57fcea725{fill:#c5c5c5;}.b2eff0a4-26a3-4680-bbe1-067a683d770f{fill:#b9b9b9;}.b6b92554-fce4-4fef-be61-82d5b12a9553{fill:#1e2838;}.ba7192b6-c6ee-4d8d-bdc8-25a566d34905{fill:#596982;}</style><linearGradient id="a1aaae51-706e-4b06-a523-299645d107e9" x1="-940.73" y1="527.07" x2="-938.09" y2="527.07" gradientTransform="matrix(1.67, 0, 0, -1.67, 1602.28, 932.86)" gradientUnits="userSpaceOnUse"><stop offset="0" stop-color="#ffaf00"/><stop offset="1" stop-color="#feff00"/></linearGradient><linearGradient id="b6c03f1e-eb18-4df8-81f5-ea77ad93df38" x1="-947.58" y1="527.07" x2="-944.94" y2="527.07" xlink:href="#a1aaae51-706e-4b06-a523-299645d107e9"/><linearGradient id="b2e6e30d-92c8-4d99-a495-947e5f0222e3" x1="-944.56" y1="526.64" x2="-941.11" y2="526.64" xlink:href="#a1aaae51-706e-4b06-a523-299645d107e9"/><linearGradient id="fe1500ea-430f-4f43-a2b0-fb40c03ca98a" x1="-950.3" y1="527.32" x2="-947.95" y2="527.32" xlink:href="#a1aaae51-706e-4b06-a523-299645d107e9"/><linearGradient id="f7f8a44d-5b40-4480-a0c1-c63fa0bd031e" x1="-937.71" y1="527.32" x2="-935.37" y2="527.32" xlink:href="#a1aaae51-706e-4b06-a523-299645d107e9"/><linearGradient id="a4cbde62-9d60-46c0-a86f-1777f679a6c1" x1="-944.83" y1="526.74" x2="-940.85" y2="526.74" xlink:href="#a1aaae51-706e-4b06-a523-299645d107e9"/><linearGradient id="ff4034d6-0a40-44b5-b2f7-f380b7287b8d" x1="-940.88" y1="527.08" x2="-937.93" y2="527.08" xlink:href="#a1aaae51-706e-4b06-a523-299645d107e9"/><linearGradient id="b47f685a-62d5-49fc-8333-55eb623b73a5" x1="-947.74" y1="527.08" x2="-944.79" y2="527.08" xlink:href="#a1aaae51-706e-4b06-a523-299645d107e9"/><linearGradient id="eb311381-a564-405d-a4d3-ea8b2459c908" x1="-937.81" y1="527.33" x2="-935.31" y2="527.33" xlink:href="#a1aaae51-706e-4b06-a523-299645d107e9"/><linearGradient id="f0efb99d-ab49-4644-b089-4bf981a0479a" x1="-950.36" y1="527.33" x2="-947.86" y2="527.33" xlink:href="#a1aaae51-706e-4b06-a523-299645d107e9"/><linearGradient id="ff1459f6-9c47-476c-be47-6e6cd393e651" x1="-939.8" y1="527.51" x2="-938.58" y2="527.51" gradientTransform="matrix(1.67, 0, 0, -1.67, 1602.28, 932.86)" gradientUnits="userSpaceOnUse"><stop offset="0" stop-color="#fff"/><stop offset="1" stop-color="#feff00"/></linearGradient></defs><g id="b6290224-d68e-4c7e-9142-f84766c8d7df" data-name="Layer 2"><g id="bd5c22dc-ed3c-42e8-8fbe-6928ebc6931f" data-name="Layer 1"><g id="e315a413-03f2-4c94-8d75-ff0ed26dd047" data-name="Untitled"><path class="a7eec204-fe4a-4144-8adb-670721cf01ed" d="M37.86,51.26a2.06,2.06,0,0,0-1-.21,4.62,4.62,0,0,1,.1,2.12.09.09,0,0,1-.17,0,13.58,13.58,0,0,1-.07-2.12h-.14a3.53,3.53,0,0,0-2.18,1.06v0a1.55,1.55,0,0,0,0,.21c0,.18.07.36.11.53.11.47.23.94.35,1.41s.25,1,.38,1.42c.06.24.13.47.19.7s.12.46.2.67a1.1,1.1,0,0,0,1.48.57,1.16,1.16,0,0,0,.4-.33,4.81,4.81,0,0,0,.52-.67,3.56,3.56,0,0,0,.56-1.4,19.37,19.37,0,0,0,.17-3A2.67,2.67,0,0,0,37.86,51.26Zm-2.48,3a1.42,1.42,0,0,1-.26-.81,3.24,3.24,0,0,1,0-.62,4.41,4.41,0,0,1,.09-.62s.09-.07.1,0c.05.36.15.71.19,1.07a2.41,2.41,0,0,1,.07,1A.09.09,0,0,1,35.38,54.3Zm.93,2.92a2.45,2.45,0,0,1-.78-1.91c0-.09.14-.11.15,0a3.69,3.69,0,0,0,.29,1c.14.29.35.53.49.81C36.5,57.17,36.41,57.29,36.31,57.22ZM38,56a.66.66,0,0,0-.09.27.58.58,0,0,1-.1.21c-.09.13-.2.32-.37.34a.11.11,0,0,1-.13-.1.71.71,0,0,1,.23-.41.58.58,0,0,1,.17-.18.49.49,0,0,0,.2-.18C37.91,55.91,38,56,38,56Zm.34-3.88a3.3,3.3,0,0,1,.11,1.53A3,3,0,0,1,38.15,55,.06.06,0,0,1,38,55a11.62,11.62,0,0,1,.19-1.41c0-.47,0-1,0-1.42A0,0,0,0,1,38.3,52.13Z"/><path class="b9bd161e-8ac2-4a43-a0da-8ed922ccb4fd" d="M25.07,51.05A16.57,16.57,0,0,1,25,53.17c0,.09-.15.08-.18,0a4.63,4.63,0,0,1,.11-2.12,2.1,2.1,0,0,0-1,.21,2.6,2.6,0,0,0-.93,1,14.83,14.83,0,0,0,.26,3.46A3.68,3.68,0,0,0,24,57a2.77,2.77,0,0,0,.48.54,1,1,0,0,0,.41.2.78.78,0,0,0,.22,0h.19a1.17,1.17,0,0,0,.44-.16,1.34,1.34,0,0,0,.51-.82c.28-.94.53-1.88.77-2.82.1-.4.2-.79.28-1.19,0-.15.07-.3.1-.45l0-.18a3.54,3.54,0,0,0-2.18-1.07ZM23.73,55a.06.06,0,0,1-.1,0,2.9,2.9,0,0,1-.27-1.34,3.44,3.44,0,0,1,.11-1.53c0-.05.07,0,.08,0,0,.47,0,1,0,1.42A9.93,9.93,0,0,1,23.73,55Zm.64,1.86c-.17,0-.27-.21-.36-.34a.38.38,0,0,1-.11-.23.81.81,0,0,0-.08-.25s.05-.1.09,0a.59.59,0,0,0,.22.19.77.77,0,0,1,.15.16c.09.12.23.25.23.41A.12.12,0,0,1,24.37,56.83Zm1.95-3.52c.05-.36.14-.71.19-1.07,0-.07.1,0,.1,0a4.44,4.44,0,0,1,.1.62c0,.21,0,.41-.05.62a1.43,1.43,0,0,1-.27.81.08.08,0,0,1-.13,0A2.23,2.23,0,0,1,26.32,53.31Zm-1,3.77c.13-.28.35-.52.48-.81a3.35,3.35,0,0,0,.29-1,.08.08,0,0,1,.16,0,2.46,2.46,0,0,1-.79,1.91C25.37,57.29,25.28,57.17,25.32,57.08Z"/><path class="f5d2b11e-6768-434e-8486-7b38e876a0c7" d="M31.05,51.42a4.81,4.81,0,0,1,.05,1.2A4.12,4.12,0,0,1,31,53.83a.06.06,0,0,1-.09,0,.07.07,0,0,1-.1,0,4.48,4.48,0,0,1-.12-1.21,6,6,0,0,1,0-1.2,4.69,4.69,0,0,0-2.71.95A17.92,17.92,0,0,0,28.4,56,7.09,7.09,0,0,0,29,57.57a2.22,2.22,0,0,0,.89,1,2.13,2.13,0,0,0,2.31-.17A2.82,2.82,0,0,0,33,57.18a8,8,0,0,0,.49-1.67,18.34,18.34,0,0,0,.29-3.14,4.42,4.42,0,0,0-1.12-.63A4.84,4.84,0,0,0,31.05,51.42Zm-2.26,3.47a1.34,1.34,0,0,1-.19-1,5,5,0,0,1,.12-1.22.1.1,0,0,1,.19,0c0,.4,0,.8.06,1.2s.14.65,0,.93A.1.1,0,0,1,28.79,54.89Zm1.45,3.45C29.29,58,29,56.6,29,55.72a0,0,0,0,1,.06,0c.22.45.39.91.61,1.36s.53.72.76,1.11A.12.12,0,0,1,30.24,58.34Zm1.29,0a.12.12,0,0,1-.13-.18c.22-.39.55-.69.75-1.1s.4-.91.62-1.36c0,0,0,0,0,0C32.8,56.6,32.49,58,31.53,58.34Zm1.28-4.4c0-.4,0-.8.06-1.2a.1.1,0,0,1,.19,0,5,5,0,0,1,.12,1.22c0,.32,0,.71-.2,1a.1.1,0,0,1-.15,0A1.55,1.55,0,0,1,32.81,53.94Z"/><path class="bb3ff8c4-1b8e-4106-b99b-5b3c2ec7849a" d="M20.33,51.14a4.48,4.48,0,0,1-.06.63,5.14,5.14,0,0,0-.07.88s-.08.05-.09,0A3,3,0,0,1,20,51.1a1.56,1.56,0,0,0-1.56.55,11.45,11.45,0,0,0,.14,1.54,5,5,0,0,0,.3,1.26,6.25,6.25,0,0,0,.68,1.17,12.38,12.38,0,0,0,.83,1.08.5.5,0,0,0,.72.09.78.78,0,0,0,.19-.35l.19-.61c.13-.45.26-.9.38-1.35a18,18,0,0,0,.49-2.38,4,4,0,0,0-1.92-.94Zm-1.22,1.71s0,0-.06,0a2.31,2.31,0,0,1-.16-1.2.07.07,0,0,1,.14,0A4,4,0,0,1,19.11,52.85Zm.94,2.92a3.26,3.26,0,0,1-.91-2.2,0,0,0,0,1,.06,0c.16.35.25.72.42,1.07s.43.67.58,1A.1.1,0,0,1,20.05,55.77Zm1.41-3c.05-.21.08-.42.15-.63,0,0,.11-.06.12,0a2.15,2.15,0,0,1,0,.67.63.63,0,0,1-.18.48.1.1,0,0,1-.13,0C21.36,53.11,21.43,53,21.46,52.78ZM21,55.21a6.64,6.64,0,0,0,.22-1c0-.12.19-.07.18,0-.05.32-.1.65-.17,1A1.38,1.38,0,0,1,21,56s-.12,0-.12,0A1.7,1.7,0,0,1,21,55.21Z"/><path class="a69f9049-b71c-4ce4-a166-be4edb36f23c" d="M41.77,51.1a2.77,2.77,0,0,1-.11,1.56s-.08,0-.08,0a8.47,8.47,0,0,0-.07-.88,4.48,4.48,0,0,1-.06-.63l-.11,0a4,4,0,0,0-1.92.94A17.63,17.63,0,0,0,40,54.84c.11.43.24.87.38,1.3a2.07,2.07,0,0,0,.18.53.49.49,0,0,0,.64.18,1.41,1.41,0,0,0,.38-.39,11.91,11.91,0,0,0,.84-1.17A4.38,4.38,0,0,0,43,54.17a7.25,7.25,0,0,0,.24-1.3c0-.41.08-.81.1-1.22A1.57,1.57,0,0,0,41.77,51.1Zm-1.56,2.2a.59.59,0,0,1-.18-.48,2.15,2.15,0,0,1,0-.67c0-.06.1,0,.12,0,.06.21.1.42.14.63a.69.69,0,0,1,0,.49A.08.08,0,0,1,40.21,53.3ZM40.92,56c0,.06-.09.07-.13,0a1.29,1.29,0,0,1-.28-.74c-.07-.32-.13-.65-.17-1,0-.11.16-.16.18,0a6.48,6.48,0,0,0,.22,1A1.7,1.7,0,0,1,40.92,56Zm.81-.2a.1.1,0,0,1-.16-.12c.15-.35.42-.67.58-1s.26-.73.42-1.08a0,0,0,0,1,.06,0A3.21,3.21,0,0,1,41.73,55.77Zm1-2.91a0,0,0,0,1-.06,0,4.34,4.34,0,0,1,.08-1.19.08.08,0,0,1,.15,0A2.32,2.32,0,0,1,42.72,52.86Z"/><path class="f54e6aae-c070-465f-bb74-dc2d31d0a2d0" d="M28.56,45.21c-.24.62-.54,2,.18,2.48a2.82,2.82,0,0,0,.74-1.43,8.5,8.5,0,0,0,.32-1.48,2.91,2.91,0,0,0,0-1.14A3.7,3.7,0,0,0,28.56,45.21Z"/><path class="f2989ebd-6d0e-48ee-a61b-20a9cf24c16f" d="M27.94,45.8a4.26,4.26,0,0,1,.95-2.07l-.12.11a6.12,6.12,0,0,0-1.55,2,1.64,1.64,0,0,0-.06,1.35,1.1,1.1,0,0,0,1,.64,1,1,0,0,0,.35-.07C27.87,47.52,27.82,46.42,27.94,45.8Z"/><path class="b0b74790-280c-4bf1-af19-0c145651a518" d="M30.89,14.7c-.28.14-.55.29-.82.44a39.67,39.67,0,0,0-7.21,5.29A59.54,59.54,0,0,0,16.75,27l-.91,1.16A5.16,5.16,0,0,1,18.37,28c.1,0,.07.16,0,.17a9.3,9.3,0,0,0-3.15.83,48.09,48.09,0,0,0-3.73,5.59c-.27.48-.52,1-.76,1.45a.28.28,0,0,1,0,.13,25.74,25.74,0,0,0-.28,3.71,6.6,6.6,0,0,0,1.75,4.36c.12.12,0,.36-.19.25C9.83,43,9.69,40.44,9.86,38a16.45,16.45,0,0,0-1.12,5.51v.36a.05.05,0,0,1,0,0,6.42,6.42,0,0,0,2.49,4,10.11,10.11,0,0,0,5,1.33.07.07,0,0,1,0,.13A6.47,6.47,0,0,1,9,46.21a11.78,11.78,0,0,0,.64,2.25,5.92,5.92,0,0,0,1.88,1.41,5.4,5.4,0,0,0,1,.34,4.72,4.72,0,0,0,.74.11,13.62,13.62,0,0,0,1.69,0,9.2,9.2,0,0,0,1.74-.21,6.43,6.43,0,0,0,.78-.24l.3-.15.12-.07.07-.05H18a.26.26,0,0,1,.19-.08h.07a.29.29,0,0,1,.14.08h0a.26.26,0,0,1,.07.21v.12a1.77,1.77,0,0,1,.89-.37c.08,0,.1.11,0,.15a3.48,3.48,0,0,0-.94.71l0,0c0,.12,0,.24,0,.36a3,3,0,0,1,2-.26,4.5,4.5,0,0,1,2.24,1,2.85,2.85,0,0,1,.75-.76,3.12,3.12,0,0,1,2.43-.26,4.23,4.23,0,0,1,2,1.18,5,5,0,0,1,1-.57,5.41,5.41,0,0,1,5,.57,4,4,0,0,1,1-.78,3.93,3.93,0,0,1,2.44-.49,2.44,2.44,0,0,1,1.12.45,3,3,0,0,1,.62.66,4.46,4.46,0,0,1,2.23-1,3,3,0,0,1,2,.26c0-.12,0-.24,0-.36l0,0a3.64,3.64,0,0,0-.94-.71c-.07,0,0-.16,0-.15a1.8,1.8,0,0,1,.9.37s0-.08,0-.12a.28.28,0,0,1,.08-.21h0a.23.23,0,0,1,.14-.08l.07,0a.26.26,0,0,1,.19.08h0l0,0,.07,0a1.29,1.29,0,0,0,.16.09l.33.16a6.7,6.7,0,0,0,.88.23,11.27,11.27,0,0,0,3.43.14l.17,0H49a4.37,4.37,0,0,0,.52-.12,4.77,4.77,0,0,0,1-.38,6,6,0,0,0,1.68-1.33,12.3,12.3,0,0,0,.63-2.25,6.45,6.45,0,0,1-7.32,3.15.06.06,0,0,1,0-.12,10,10,0,0,0,5-1.34,6.37,6.37,0,0,0,2.49-4l0,0A13.3,13.3,0,0,0,53,42.33,16.31,16.31,0,0,0,51.9,38c.18,2.43,0,5-2.12,6.52-.15.11-.31-.12-.19-.24a6.66,6.66,0,0,0,1.76-4.36,27.14,27.14,0,0,0-.29-3.71.28.28,0,0,1,0-.13c-.41-.84-.86-1.66-1.34-2.45A54.72,54.72,0,0,0,46.59,29a9.36,9.36,0,0,0-3.16-.83c-.09,0-.13-.15,0-.18a5.33,5.33,0,0,1,2.54.16c-.53-.68-1.07-1.36-1.62-2a55.29,55.29,0,0,0-6.24-6.47A37.54,37.54,0,0,0,30.89,14.7Zm-10,13.89a3.76,3.76,0,0,1,2.15.75,9.15,9.15,0,0,1,1.85,1.43,8,8,0,0,1,1.4,1.87,7.18,7.18,0,0,1,.48,1.1,4.83,4.83,0,0,1,.17,1.14.07.07,0,0,1-.12,0,14.83,14.83,0,0,0-1.06-2,9.24,9.24,0,0,0-1.35-1.71,8.13,8.13,0,0,0-1.78-1.37,8,8,0,0,0-1-.5,2.09,2.09,0,0,1-.82-.4A.23.23,0,0,1,20.88,28.59Zm20,0A.23.23,0,0,1,41,29a2.63,2.63,0,0,1-.89.43,9.7,9.7,0,0,0-1,.51,8.18,8.18,0,0,0-1.71,1.33A9.58,9.58,0,0,0,36,33a13.78,13.78,0,0,0-1,1.89c0,.05-.12,0-.11,0A5.16,5.16,0,0,1,35,33.65a7,7,0,0,1,.46-1,7.75,7.75,0,0,1,1.4-1.87,8.81,8.81,0,0,1,1.85-1.43A3.76,3.76,0,0,1,40.89,28.59Zm2.41.83a6.43,6.43,0,0,1,2.12.45,6.84,6.84,0,0,1,3.22,2.84,10.9,10.9,0,0,1,1.51,4.84,9.78,9.78,0,0,1-.09,2.7,5.16,5.16,0,0,1-1,2.17A8.29,8.29,0,0,1,45.38,45q-.66.24-1.35.42A6.87,6.87,0,0,1,38.84,45,6.79,6.79,0,0,1,36,41.49a8.78,8.78,0,0,1-.12-5.27,12,12,0,0,1,1-2.58,10.12,10.12,0,0,1,1.37-2.1,6.48,6.48,0,0,1,3.34-2,6.35,6.35,0,0,1,1-.14A5.77,5.77,0,0,1,43.3,29.42Zm-24.13,0a6,6,0,0,1,1.88.42,6.51,6.51,0,0,1,3.08,2.52,12.59,12.59,0,0,1,2,5.16,8,8,0,0,1-.86,5,6.37,6.37,0,0,1-3.37,2.91A8.27,8.27,0,0,1,16.4,45c-.36-.14-.72-.3-1.07-.47a6.8,6.8,0,0,1-3.22-3.09,6.5,6.5,0,0,1-.53-2.65,12.8,12.8,0,0,1,.22-2.55,9.91,9.91,0,0,1,2.06-4.57,6.2,6.2,0,0,1,3.39-2.13A6.53,6.53,0,0,1,19.17,29.44Zm8.31,8.18a.2.2,0,0,1,.2.1,4,4,0,0,1,0,2.44,7,7,0,0,1-1,2.58.1.1,0,0,1-.18-.07c.15-.83.47-1.61.61-2.44s0-1.65.16-2.46A.2.2,0,0,1,27.48,37.62Zm6.82,0a.19.19,0,0,1,.17.15c.14.81,0,1.64.16,2.46s.47,1.61.61,2.44a.1.1,0,0,1-.18.07,7,7,0,0,1-1-2.58,3.91,3.91,0,0,1,0-2.44A.22.22,0,0,1,34.3,37.62ZM28,42.13s0,0,0,0a23,23,0,0,0-1.83,2.57,4.51,4.51,0,0,0-.5,1.76,11.69,11.69,0,0,1,.05,1.44c0,.09-.14.1-.2.05-.75-.69-.28-2.33.07-3.11A6.53,6.53,0,0,1,28,42.13Zm5.86,0a6.52,6.52,0,0,1,2.37,2.75c.36.78.83,2.42.07,3.11-.06,0-.18,0-.2-.05a11.72,11.72,0,0,1,.06-1.44,4.52,4.52,0,0,0-.51-1.76,23,23,0,0,0-1.82-2.57S33.8,42.12,33.82,42.13Zm-4.18.65a.73.73,0,0,1,.25.08,1.12,1.12,0,0,1,.51.87,4.94,4.94,0,0,1-.09,1.67,10,10,0,0,1-.43,1.6,2.47,2.47,0,0,1-.81,1.19,1.59,1.59,0,0,1-1.52.18,1.76,1.76,0,0,1-1-1.08,2.3,2.3,0,0,1,.12-1.61.05.05,0,0,0,0,0,0,0,0,0,0,0,0,6,6,0,0,1,1-1.5A5.5,5.5,0,0,1,28.89,43,1.18,1.18,0,0,1,29.64,42.78Zm2.75,0a1.87,1.87,0,0,1,.79.41,8.56,8.56,0,0,1,1.08,1.09,5.71,5.71,0,0,1,.83,1.33v0l0,0a2.24,2.24,0,0,1,0,1.83,1.71,1.71,0,0,1-1.33,1A1.62,1.62,0,0,1,32.44,48a3.56,3.56,0,0,1-.66-1.3,11.42,11.42,0,0,1-.4-1.73,3.48,3.48,0,0,1,.05-1.47,1,1,0,0,1,.66-.68A.76.76,0,0,1,32.39,42.78Zm-8.25,3c.05,0,.11,0,.07.07a5.5,5.5,0,0,1-3.94,2,7,7,0,0,1-2.54-.25,5.23,5.23,0,0,1-2.21-1,.26.26,0,0,1,.25-.42c.73.21,1.38.65,2.12.87a7.37,7.37,0,0,0,2.19.29A6.59,6.59,0,0,0,24.14,45.76Zm13.43,0s0,0,.07,0a6.51,6.51,0,0,0,4.06,1.56A7.1,7.1,0,0,0,44,47c.7-.21,1.32-.63,2-.83a.25.25,0,0,1,.24.42,5.31,5.31,0,0,1-2.2,1,7.26,7.26,0,0,1-2.54.25,5.52,5.52,0,0,1-3.95-2A0,0,0,0,1,37.57,45.76Zm-7.32,1.67s.07,0,.06,0a2.25,2.25,0,0,1-3.22,1.65c-.19-.11-.05-.36.14-.33a2.92,2.92,0,0,0,1.89-.14A3,3,0,0,0,30.25,47.43Zm1.28,0a2.45,2.45,0,0,0,3,1.34.18.18,0,0,1,.14.33,2.25,2.25,0,0,1-3.22-1.65S31.51,47.4,31.53,47.43Zm-6,2a4,4,0,0,1,1.86,1c.08.06,0,.18-.1.13A7.43,7.43,0,0,0,26.12,50a9.62,9.62,0,0,0-1.18-.18.14.14,0,0,1,0-.25A1.1,1.1,0,0,1,25.57,49.41Zm10.64,0a1.12,1.12,0,0,1,.66.14.14.14,0,0,1,0,.25,9.62,9.62,0,0,0-1.18.18,7.85,7.85,0,0,0-1.21.57c-.08.05-.17-.07-.1-.13A4,4,0,0,1,36.21,49.41Zm-15.94.06a2.42,2.42,0,0,1,1.72.85s0,.1,0,.07a4.76,4.76,0,0,0-1-.45c-.32-.1-.65-.07-1-.16a.14.14,0,0,1,0-.27A1.17,1.17,0,0,1,20.27,49.47Zm21.23,0a1.09,1.09,0,0,1,.26,0,.14.14,0,0,1,0,.27c-.31.1-.64.07-1,.17a4.18,4.18,0,0,0-1,.44c-.05,0-.08,0-.05-.07A2.4,2.4,0,0,1,41.5,49.47Zm-17.68.15c.06,0,.12.07.06.12a1.84,1.84,0,0,1-.2.19l-.2.14c-.12.11-.22.27-.39.31a.15.15,0,0,1-.18-.18c0-.17.24-.29.38-.38A1.27,1.27,0,0,1,23.82,49.62Zm14.14,0a1,1,0,0,1,.29.07l.23.13c.15.1.34.21.38.38a.15.15,0,0,1-.18.18c-.16,0-.26-.2-.39-.31a1.66,1.66,0,0,1-.21-.16c-.07,0-.12-.12-.19-.17S37.9,49.61,38,49.62ZM29.79,50s.05,0,0,.08c-.27.19-.55.35-.81.54s-.45.48-.74.53a.13.13,0,0,1-.15-.15c.05-.32.45-.53.7-.68A2,2,0,0,1,29.79,50ZM32,50a2,2,0,0,1,1,.32c.25.15.65.36.7.68a.13.13,0,0,1-.15.15c-.28,0-.51-.36-.73-.53s-.55-.35-.81-.54C31.94,50.08,31.94,50,32,50Z"/><path class="f54e6aae-c070-465f-bb74-dc2d31d0a2d0" d="M32.4,46.59a2.31,2.31,0,0,0,.5,1,.53.53,0,0,0,.14.12c.71-.45.41-1.85.17-2.47A3.62,3.62,0,0,0,32,43.64a1.42,1.42,0,0,0,0,.22A4,4,0,0,0,32,45.15,11.69,11.69,0,0,0,32.4,46.59Z"/><path d="M33.28,47.81a1,1,0,0,0,.65,0,1.12,1.12,0,0,0,.74-.73,1.78,1.78,0,0,0-.12-1.24,4.74,4.74,0,0,0-.77-1.22,7.18,7.18,0,0,0-.9-.93,4.35,4.35,0,0,1,1,2.08C34,46.42,33.9,47.51,33.28,47.81Z"/><path d="M41.9.62a10.4,10.4,0,0,0-2,.16c-1.76.29-3.52.68-5.26,1.09s-3.42.85-5.11,1.38A38.54,38.54,0,0,0,20,7.63,37.46,37.46,0,0,0,15.71,11a29.32,29.32,0,0,0-3.78,3.94A40.5,40.5,0,0,0,6.26,25.05,90.05,90.05,0,0,0,2.8,36.21q-.75,3-1.52,6a14.5,14.5,0,0,0-.64,5,5,5,0,0,0,.75,2.22A5.31,5.31,0,0,0,3.2,51a21.19,21.19,0,0,0,2.35,1.14l2.79,1.25,2.76,1.23a4.67,4.67,0,0,0,2.66.51c1.51-.28,2.74-1.35,4.26-1.59l-.06-.4a15.08,15.08,0,0,1-.11-2.77,5.07,5.07,0,0,1-1.16.37A12.14,12.14,0,0,1,13,50.9a5.85,5.85,0,0,1-2.1-.65c.15.11.3.22.45.31a6.94,6.94,0,0,0,1.75.69,7.27,7.27,0,0,0,1.86.2c.61,0,1.2-.15,1.81-.17a.05.05,0,0,1,0,.1,5.32,5.32,0,0,1-3.71.28,7.48,7.48,0,0,1-1.86-.7l-.41-.23.22.3c.32.19.6.45.93.65a6.21,6.21,0,0,0,1.64.74,5.09,5.09,0,0,0,3.79-.37.08.08,0,0,1,.08.13,4.6,4.6,0,0,1-3.68.67,6.26,6.26,0,0,1-1.32-.46c.21.15.42.3.64.44.38.23.78.41,1.18.62a6,6,0,0,0,1,.17,3.69,3.69,0,0,0,1.31-.23c.05,0,.08.06,0,.09a3.25,3.25,0,0,1-1.58.4l.15.11s0,0,0,0a5.73,5.73,0,0,1-2.28-.81,9,9,0,0,1-1.33-.73l-.09-.06a10.42,10.42,0,0,1-1.44-1.73,13.29,13.29,0,0,1-1.73-9.33A23.64,23.64,0,0,1,12,32.53,69.49,69.49,0,0,1,17.62,25a53.7,53.7,0,0,1,6.54-6.52,40,40,0,0,1,3.72-2.74c.64-.41,1.29-.81,1.95-1.18l.51-.28a1.65,1.65,0,0,1,.5-.24c.19,0,.4.14.55.22l.49.27a40,40,0,0,1,7.4,5.4,58.48,58.48,0,0,1,6.28,6.79A55.19,55.19,0,0,1,51,34.56a19.32,19.32,0,0,1,2.67,9.2,13.64,13.64,0,0,1-.9,4.94l0,0a10.43,10.43,0,0,1-2.43,3.66l-.08.05a8.34,8.34,0,0,1-1.35.74,5.63,5.63,0,0,1-2.27.81s0,0,0,0l.16-.11a3.25,3.25,0,0,1-1.58-.4s0-.11,0-.09a3.65,3.65,0,0,0,1.31.23,5.9,5.9,0,0,0,.95-.17c.4-.21.81-.39,1.18-.62s.44-.29.65-.44a6.26,6.26,0,0,1-1.32.46,4.6,4.6,0,0,1-3.68-.67.08.08,0,0,1,.08-.13,5.07,5.07,0,0,0,3.78.37,6.31,6.31,0,0,0,1.73-.79c.3-.2.56-.43.86-.61l.23-.3c-.18.11-.36.2-.52.28a7,7,0,0,1-1.77.66A5.26,5.26,0,0,1,45,51.38a.05.05,0,0,1,0-.1c.6,0,1.2.16,1.81.17a7.27,7.27,0,0,0,1.86-.2,6.72,6.72,0,0,0,1.74-.69,2.9,2.9,0,0,0,.41-.27l-.24.11a7.92,7.92,0,0,1-3.76.54,10.41,10.41,0,0,1-1.93-.25,5.05,5.05,0,0,1-1-.32,13.76,13.76,0,0,1-.16,3.14v0a5,5,0,0,1,1,.26c.8.3,1.54.75,2.33,1.06a4.93,4.93,0,0,0,1.14.31A3.7,3.7,0,0,0,49.66,55a23.12,23.12,0,0,0,2.86-1.21l3-1.34c.88-.39,1.78-.76,2.64-1.22a6.25,6.25,0,0,0,2-1.58,6.25,6.25,0,0,0,.87-4.83,26.16,26.16,0,0,0-.56-2.63c-.27-1-.53-2.1-.8-3.15-.53-2.06-1-4.12-1.59-6.17a63,63,0,0,0-4.24-11.53,39.61,39.61,0,0,0-3-5.13,28.49,28.49,0,0,0-3.18-3.76,7.24,7.24,0,0,1-.69-.67l-.1-.11a.19.19,0,0,1-.06-.07l-.27-.27A18.48,18.48,0,0,1,44.8,9.74s0-.09,0-.08a6.4,6.4,0,0,1,1.89,1.18c.3.24.76.55,1.12.89a7.17,7.17,0,0,1,5.26.35c1.44.58,3.16,1.42,4.71.86-.58-.28-1.14-.57-1.7-.88a30,30,0,0,1-8-6.48c-.55-.63-1.06-1.29-1.57-2a11.83,11.83,0,0,0-1.66-1.88A4.72,4.72,0,0,0,41.9.62Zm-22.43,14a0,0,0,1,1,.05.06,51.38,51.38,0,0,0-4.85,6.34A56.26,56.26,0,0,0,8.86,33.86a33.49,33.49,0,0,0-1.74,7.58A17.33,17.33,0,0,0,7.23,45a14.8,14.8,0,0,0,1.09,3.48s0,0,0,0A9.3,9.3,0,0,1,6.8,44.71a13.48,13.48,0,0,1-.11-4.06,35.58,35.58,0,0,1,1.83-7.52,63.2,63.2,0,0,1,2.66-6.76A34.65,34.65,0,0,1,19.47,14.65Zm22.78,0h0a28.77,28.77,0,0,1,5.21,6.17,53.26,53.26,0,0,1,6,13.18,30.07,30.07,0,0,1,1.63,7.67,12.74,12.74,0,0,1-.32,3.64,8.66,8.66,0,0,1-1.35,3.22s-.05,0,0,0a14.22,14.22,0,0,0,1.15-4.07,17.63,17.63,0,0,0-.08-4.17A41.77,41.77,0,0,0,52.63,33,62.87,62.87,0,0,0,50,26.37a50.05,50.05,0,0,0-7.75-11.66S42.24,14.67,42.25,14.65ZM10.1,22.27a.09.09,0,0,1,0,.11A53.32,53.32,0,0,0,6.69,30c-.45,1.31-.83,2.65-1.16,4-.16.66-.3,1.32-.42,2a11.88,11.88,0,0,1-.41,2,.12.12,0,0,1-.23,0,14.67,14.67,0,0,1,.65-4.15,37.16,37.16,0,0,1,1.17-4A32.68,32.68,0,0,1,10,22.29.09.09,0,0,1,10.1,22.27Zm41.58,0a.08.08,0,0,1,.11,0,32.48,32.48,0,0,1,3.69,7.5,36.78,36.78,0,0,1,1.2,4.09,14.07,14.07,0,0,1,.62,4,.12.12,0,0,1-.23,0,12.17,12.17,0,0,1-.42-2.08c-.13-.67-.27-1.32-.43-2-.33-1.31-.7-2.61-1.14-3.89a52.18,52.18,0,0,0-3.43-7.63A.07.07,0,0,1,51.68,22.27ZM3.62,43.35a.15.15,0,0,1,.14.1A13,13,0,0,1,4.07,45a10.39,10.39,0,0,0,.48,1.46,10.72,10.72,0,0,0,1.64,2.71,23.54,23.54,0,0,0,5,4.25.07.07,0,1,1-.07.11,17.28,17.28,0,0,1-5.48-4.34A11,11,0,0,1,4,46.42a5.21,5.21,0,0,1-.53-3A.14.14,0,0,1,3.62,43.35Zm54.54,0a.14.14,0,0,1,.14.1,5.29,5.29,0,0,1-.57,3.06,11.26,11.26,0,0,1-1.56,2.66,17.18,17.18,0,0,1-5.49,4.34.06.06,0,0,1-.06-.11,23.79,23.79,0,0,0,5-4.25,10.77,10.77,0,0,0,1.7-2.86A9.5,9.5,0,0,0,57.7,45,13,13,0,0,1,58,43.45.18.18,0,0,1,58.16,43.35ZM1.58,45.42s0,0,0,0a6.1,6.1,0,0,0,1.62,3.3A9.5,9.5,0,0,0,4.8,50a7,7,0,0,1,1.31.88s0,.09,0,.08a4.16,4.16,0,0,1-1.7-.83,7.58,7.58,0,0,1-1.52-1.3,4.83,4.83,0,0,1-1.31-3.39A0,0,0,0,1,1.58,45.42Zm58.62,0a0,0,0,0,1,0,0,4.84,4.84,0,0,1-1.32,3.39,7.8,7.8,0,0,1-1.51,1.3,4.35,4.35,0,0,1-1.7.83,0,0,0,0,1,0-.08A7.38,7.38,0,0,1,57.06,50a8.92,8.92,0,0,0,1.46-1.22,6.19,6.19,0,0,0,1.63-3.3S60.17,45.41,60.2,45.42Z"/><path class="b667bc59-4839-4e49-8ee6-6290f6ee085c" d="M30.89,14.36a1,1,0,0,1,.28.12c5.6,2.8,10.06,7.46,13.92,12.39a5.76,5.76,0,0,0,1.27,1.29,8.89,8.89,0,0,0,1.2,1.68A28.33,28.33,0,0,1,51,35.62a31.79,31.79,0,0,1,1.73,4.08A13.36,13.36,0,0,1,53.36,44a15.83,15.83,0,0,1-.4,3.49,3.64,3.64,0,0,1-.47,1.22,3.75,3.75,0,0,1-1.13,1,6.74,6.74,0,0,1-1.12.61,8.41,8.41,0,0,1-3,.45,8.26,8.26,0,0,1-1.86-.09,2.85,2.85,0,0,1-1.61-.87,9.7,9.7,0,0,0,3.56.16c.21,0,.45-.1.5-.31a11.5,11.5,0,0,1-2.27-.32,6.76,6.76,0,0,0,4.95-1.89.78.78,0,0,0,.29-.52,3.57,3.57,0,0,1-1.54.58c.93-.65,2.12-1.14,2.33-2.26a5.88,5.88,0,0,0,0-2.4c0-.24-.16-.51-.4-.56a7.45,7.45,0,0,1-1,2l-.9.31c-.1,0-.21.1-.19.2s.1.11.17.14l.51.16a23.54,23.54,0,0,1-2.13,1.07c.11-.21.28-.38.39-.59a.57.57,0,0,0,0-.66c-.23-.21-.6-.07-.86.1a.82.82,0,0,0-.43.5c0,.22.23.47.41.34a8.64,8.64,0,0,1-4.63,1.79,6.42,6.42,0,0,1-4.68-1.49,3.1,3.1,0,0,1-1.61,2c.11-.22.29-.29.32-.54a5.09,5.09,0,0,0-.61-3,10.65,10.65,0,0,0-1.88-2.41,2.37,2.37,0,0,1,1.53,1.12,8.6,8.6,0,0,1-.93-2.92c.2.08.29.31.37.52a10.07,10.07,0,0,0,2.53,4,7.51,7.51,0,0,1-1.34-3.8,11.73,11.73,0,0,0,1.59,2.64,4.06,4.06,0,0,0,2.93,1.67,18.61,18.61,0,0,0,4.07-.53,9.29,9.29,0,0,0,2.18-.78A5.54,5.54,0,0,0,49.74,40c.36-2.71.1-5.77-1.75-7.8a7.44,7.44,0,0,0-3.34-2.17,4.88,4.88,0,0,0-3.88.12,10.15,10.15,0,0,0-4.48,5.59,5.25,5.25,0,0,1,.39-3.08A24.08,24.08,0,0,0,35,35.3a6.5,6.5,0,0,1,1.62-3.84,16.87,16.87,0,0,1,3.25-2.4c.56-.42,1.1-.87,1.64-1.31a3.65,3.65,0,0,0,.67-.69,1,1,0,0,0,.13-.92A7.8,7.8,0,0,0,40.33,24c-.75-.73-1.53-1.42-2.31-2.11a38.22,38.22,0,0,0-4.47-3.57,17.38,17.38,0,0,0-2.66-1.42,17.38,17.38,0,0,0-2.66,1.42,38.22,38.22,0,0,0-4.47,3.57c-.78.69-1.56,1.38-2.31,2.11a7.8,7.8,0,0,0-1.93,2.13,1,1,0,0,0,.13.92,3.37,3.37,0,0,0,.67.69c.54.44,1.08.89,1.64,1.31a16.87,16.87,0,0,1,3.25,2.4,6.5,6.5,0,0,1,1.62,3.84,24.08,24.08,0,0,0-1.73-2.61,5.34,5.34,0,0,1,.39,3.08A10.15,10.15,0,0,0,21,30.18a4.88,4.88,0,0,0-3.88-.12,7.53,7.53,0,0,0-3.35,2.17c-1.84,2-2.1,5.09-1.74,7.8a5.54,5.54,0,0,0,2.87,4.08,9.29,9.29,0,0,0,2.18.78,18.61,18.61,0,0,0,4.07.53,4.06,4.06,0,0,0,2.93-1.67,11.34,11.34,0,0,0,1.58-2.64,7.33,7.33,0,0,1-1.34,3.8,10,10,0,0,0,2.54-4c.08-.21.16-.44.37-.52a8.6,8.6,0,0,1-.93,2.92,2.37,2.37,0,0,1,1.53-1.12A10.65,10.65,0,0,0,26,44.62a5.09,5.09,0,0,0-.61,3c0,.25.21.32.32.54a3.07,3.07,0,0,1-1.61-2,6.43,6.43,0,0,1-4.68,1.49,8.64,8.64,0,0,1-4.63-1.79c.18.13.44-.12.41-.34a.82.82,0,0,0-.43-.5c-.26-.17-.63-.31-.86-.1a.57.57,0,0,0,0,.66c.11.21.28.38.39.59A23.54,23.54,0,0,1,12.09,45l.51-.16c.07,0,.16-.06.17-.14s-.09-.17-.19-.2l-.9-.31a8,8,0,0,1-1.06-2c-.23,0-.34.32-.39.56a5.88,5.88,0,0,0,0,2.4c.21,1.12,1.4,1.61,2.33,2.26A3.57,3.57,0,0,1,11,46.89a.75.75,0,0,0,.29.52,6.76,6.76,0,0,0,4.95,1.89,11.6,11.6,0,0,1-2.27.32c.05.2.29.28.49.31A9.75,9.75,0,0,0,18,49.77a2.85,2.85,0,0,1-1.61.87,8.26,8.26,0,0,1-1.86.09,8.41,8.41,0,0,1-3-.45,6.74,6.74,0,0,1-1.12-.61,3.75,3.75,0,0,1-1.13-1,3.64,3.64,0,0,1-.47-1.22A15.83,15.83,0,0,1,8.42,44,13.36,13.36,0,0,1,9,39.7a31.79,31.79,0,0,1,1.73-4.08,28.33,28.33,0,0,1,3.45-5.78,8.89,8.89,0,0,0,1.2-1.68,5.76,5.76,0,0,0,1.27-1.29c3.86-4.93,8.32-9.59,13.92-12.39A.88.88,0,0,1,30.89,14.36Z"/><path class="f9275a25-0598-4d38-8c0b-057b2fb43d0a" d="M30.89,46.9c.45.47.69,1.15,1.25,1.47.29.17.46.52.78.6a2.49,2.49,0,0,0,.61,0l.85-.05a1.16,1.16,0,0,0,.56-.14.31.31,0,0,1-.37-.23.33.33,0,0,1,.27-.35.31.31,0,0,1,.32.31c.13,0,.21-.16.25-.28a2.1,2.1,0,0,0-.13-1.68,2.52,2.52,0,0,1-.58,1.26,1.34,1.34,0,0,1-1.27.42,2,2,0,0,1-.65-.34,2.8,2.8,0,0,1-.45-.39,2.63,2.63,0,0,1-.43-1.24,2.32,2.32,0,0,0-.33-.78,5.31,5.31,0,0,1-.68.1,5.06,5.06,0,0,1-.68-.1,2.32,2.32,0,0,0-.33.78,2.54,2.54,0,0,1-.44,1.24,2.36,2.36,0,0,1-.44.39,2,2,0,0,1-.65.34,1.34,1.34,0,0,1-1.27-.42,2.54,2.54,0,0,1-.59-1.26,2.1,2.1,0,0,0-.12,1.68c0,.12.12.26.25.28a.31.31,0,0,1,.32-.31.31.31,0,0,1,.26.35.3.3,0,0,1-.37.23,1.12,1.12,0,0,0,.57.14l.85.05a2.4,2.4,0,0,0,.6,0c.33-.08.5-.43.79-.6C30.2,48.05,30.43,47.37,30.89,46.9Z"/><path class="f31d534c-7b65-47dc-b7c9-261193298eb7" d="M33.48,51.11c.15,0,.29,0,.43,0s.31-.12.27-.26-.07-.11-.06-.17a.17.17,0,0,1,.1-.13,5.63,5.63,0,0,1,2.83-1.11.32.32,0,0,0-.06.41.57.57,0,0,0,.39.2.49.49,0,0,0,.33-.07.26.26,0,0,0,.09-.3l.1,0c.35.27.72.53,1.07.79.06,0,.05,0,.05.09a.75.75,0,0,0,0,.2c0,.13.23.13.35.07a.4.4,0,0,0,.23-.23.35.35,0,0,1,0-.11.2.2,0,0,1,.08-.08,4.34,4.34,0,0,1,2-.87.43.43,0,0,0,0,.38.29.29,0,0,0,.32.12.26.26,0,0,0,.17-.28.11.11,0,0,1,0-.05.08.08,0,0,1,0,0,.53.53,0,0,1,.44,0,5,5,0,0,1,.63.37.82.82,0,0,1,.15.93,3.78,3.78,0,0,0-2.3-.22,3.7,3.7,0,0,0-2,1.17l-.57-.64a1.34,1.34,0,0,0-.21-.2,1.16,1.16,0,0,0-.44-.19,4.33,4.33,0,0,0-3.8.93A.39.39,0,0,1,34,52a.34.34,0,0,1-.22,0,1,1,0,0,1-.55-.47.7.7,0,0,0,.06-.53C33.33,51,33.38,51.1,33.48,51.11Z"/><path class="f31d534c-7b65-47dc-b7c9-261193298eb7" d="M28.29,51.11c-.14,0-.28,0-.43,0s-.3-.12-.27-.26.07-.11.07-.17a.22.22,0,0,0-.1-.13,5.67,5.67,0,0,0-2.84-1.11.31.31,0,0,1,.06.41.55.55,0,0,1-.38.2.46.46,0,0,1-.33-.07.26.26,0,0,1-.1-.3l-.1,0c-.34.27-.72.53-1.06.79-.06,0-.06,0,0,.09s0,.14,0,.2-.22.13-.35.07a.36.36,0,0,1-.22-.23.36.36,0,0,0,0-.11s0-.06-.08-.08a4.26,4.26,0,0,0-2-.87.43.43,0,0,1,0,.38.28.28,0,0,1-.31.12.24.24,0,0,1-.17-.28s0,0,0-.05,0,0,0,0a.53.53,0,0,0-.44,0,4.23,4.23,0,0,0-.62.37.79.79,0,0,0-.15.93,3.73,3.73,0,0,1,4.28.95l.56-.64a2,2,0,0,1,.21-.2,1.2,1.2,0,0,1,.45-.19,4.31,4.31,0,0,1,3.79.93.45.45,0,0,0,.17.11A.34.34,0,0,0,28,52a1,1,0,0,0,.56-.47.71.71,0,0,1-.07-.53C28.44,51,28.39,51.1,28.29,51.11Z"/><path class="b95baf5b-0298-4c04-bbf7-ebc8719f32dd" d="M30.89,59a3.17,3.17,0,0,0,2-1.32,7.08,7.08,0,0,0,1-2.55,8.57,8.57,0,0,0,.29-2.8.54.54,0,0,0-.09-.27.42.42,0,0,0-.21-.13,12.32,12.32,0,0,0-3-.9,12.18,12.18,0,0,0-3,.9.61.61,0,0,0-.22.13.53.53,0,0,0-.08.27,8.31,8.31,0,0,0,.29,2.8,7.32,7.32,0,0,0,1,2.55A3.19,3.19,0,0,0,30.89,59Zm0-7.62c.25.21.71.42.82.52a.9.9,0,0,1,.07,1.33l.48-.32a2.16,2.16,0,0,1,.61,1.41,4,4,0,0,1-.08.84,7.81,7.81,0,0,1-.69,2.18,4.16,4.16,0,0,1-1.21,1.48,4.16,4.16,0,0,1-1.21-1.48A7.92,7.92,0,0,1,29,55.11a3.42,3.42,0,0,1-.08-.84,2.16,2.16,0,0,1,.61-1.41l.48.32a.9.9,0,0,1,.07-1.33C30.18,51.75,30.63,51.54,30.89,51.33Z"/><path class="b90b37eb-e427-47b6-b1de-6408086daa0f" d="M35.38,52.14a4.63,4.63,0,0,0,0,1.89,10.48,10.48,0,0,0,.5,2.3,1.42,1.42,0,0,0,.3.52.59.59,0,0,0,.54.19,1,1,0,0,1-.23-.31,1.64,1.64,0,0,0,.75-.19,1,1,0,0,1-.37-.29,1.15,1.15,0,0,0,.9-.46,2,2,0,0,0,.28-.68,9.46,9.46,0,0,0,.3-3c.08.23.16.46.23.68.06-.34.11-.67.17-1a6.55,6.55,0,0,1,.14,3.57A5.17,5.17,0,0,1,38.32,57,2.5,2.5,0,0,1,37,58.14a1.21,1.21,0,0,1-.42,0,1.23,1.23,0,0,1-.45-.17,2,2,0,0,1-.69-.76,3.6,3.6,0,0,1-.3-.91l-.93-3.88a.91.91,0,0,1,0-.63.88.88,0,0,1,.38-.33,10.61,10.61,0,0,1,2-.87.72.72,0,0,1,.54,0C36.42,51,35.65,51.18,35.38,52.14Z"/><path class="bf3803c6-191f-4b20-8394-298c8674c760" d="M26.4,52.14a4.63,4.63,0,0,1,0,1.89,10,10,0,0,1-.51,2.3,1.42,1.42,0,0,1-.3.52.59.59,0,0,1-.54.19.92.92,0,0,0,.24-.31,1.65,1.65,0,0,1-.76-.19,1,1,0,0,0,.38-.29,1.13,1.13,0,0,1-.9-.46,2.06,2.06,0,0,1-.29-.68,9.17,9.17,0,0,1-.29-3l-.24.68c-.05-.34-.11-.67-.16-1a6.46,6.46,0,0,0-.15,3.57A5.69,5.69,0,0,0,23.45,57a2.5,2.5,0,0,0,1.32,1.12,1.21,1.21,0,0,0,.42,0,1.11,1.11,0,0,0,.45-.17,2,2,0,0,0,.7-.76,4,4,0,0,0,.29-.91c.32-1.29.63-2.58.94-3.88a1,1,0,0,0,0-.63.94.94,0,0,0-.38-.33,10.88,10.88,0,0,0-2.05-.87.75.75,0,0,0-.55,0C25.36,51,26.13,51.18,26.4,52.14Z"/><path class="b2815302-cc14-4815-8e16-666aee37520d" d="M40.53,51.87l.28.17a1.46,1.46,0,0,0-.38,1.06,8.47,8.47,0,0,0,.13,2,1.45,1.45,0,0,0,.16.51.56.56,0,0,0,.44.27.78.78,0,0,0,.54-.38,5.61,5.61,0,0,0,.91-1.89c0-.07,0-.15.08-.23a.76.76,0,0,0,.13-.31.65.65,0,0,0,0-.19,2.41,2.41,0,0,1,.09-.84.87.87,0,0,0-.19-.79,1.27,1.27,0,0,1,.55.35,1.36,1.36,0,0,1,.12,1.07,11.18,11.18,0,0,1-.61,2.44,3.92,3.92,0,0,1-1.55,1.94.38.38,0,0,1-.21.07.39.39,0,0,1-.21-.08,2.19,2.19,0,0,1-.73-1.21,18.21,18.21,0,0,1-.79-3.73.41.41,0,0,1,0-.19.46.46,0,0,1,.16-.15,4.62,4.62,0,0,1,2.33-1,5.63,5.63,0,0,0-.62.37C41.1,51.25,40.51,51.86,40.53,51.87Z"/><path class="b16e254c-d8a0-4153-882f-43f8dcec0968" d="M21.25,51.87,21,52a1.45,1.45,0,0,1,.37,1.06,8.46,8.46,0,0,1-.12,2,1.28,1.28,0,0,1-.17.51.54.54,0,0,1-.43.27.79.79,0,0,1-.55-.38,5.61,5.61,0,0,1-.91-1.89c0-.07,0-.15-.07-.23a1,1,0,0,1-.14-.31,1.48,1.48,0,0,1,0-.19,2.68,2.68,0,0,0-.09-.84.82.82,0,0,1,.19-.79,1.3,1.3,0,0,0-.56.35,1.32,1.32,0,0,0-.11,1.07,11.76,11.76,0,0,0,.6,2.44,4,4,0,0,0,1.55,1.94.44.44,0,0,0,.22.07.46.46,0,0,0,.21-.08,2.25,2.25,0,0,0,.73-1.21,18.19,18.19,0,0,0,.78-3.73.31.31,0,0,0,0-.19.39.39,0,0,0-.16-.15,4.58,4.58,0,0,0-2.33-1,5.63,5.63,0,0,1,.62.37C20.68,51.25,21.26,51.86,21.25,51.87Z"/><path class="e2e206e4-bdb1-4d5d-8a22-0a595cdf266f" d="M32.29,54.8A1.22,1.22,0,0,0,32,53.6a1.38,1.38,0,0,1-.08.45,1.21,1.21,0,0,0-.45-.42,7.48,7.48,0,0,1-.45,3.88A4.85,4.85,0,0,0,32.29,54.8Z"/><path class="e2e206e4-bdb1-4d5d-8a22-0a595cdf266f" d="M29.48,54.8a1.27,1.27,0,0,1,.26-1.2,1.17,1.17,0,0,0,.09.45,1.18,1.18,0,0,1,.44-.42,7.48,7.48,0,0,0,.46,3.88A4.86,4.86,0,0,1,29.48,54.8Z"/><path class="a5b55059-d199-46d4-91ba-2ee65562c6ad" d="M36.1,55.26a1,1,0,0,0,.32.58c.32.21.74,0,1.07-.18a.52.52,0,0,1-.48-.22,1.26,1.26,0,0,1-.22-.5,7,7,0,0,1-.08-3.13,1.53,1.53,0,0,1,.21,1c0-.34.17-.76.51-.84a.9.9,0,0,1,.55.13,1.11,1.11,0,0,0-.88-.65,1.14,1.14,0,0,0-.94.34,1.38,1.38,0,0,0-.16.75A9,9,0,0,0,36.1,55.26Z"/><path class="e2e206e4-bdb1-4d5d-8a22-0a595cdf266f" d="M25.67,55.26a.91.91,0,0,1-.32.58c-.32.21-.74,0-1.06-.18a.53.53,0,0,0,.48-.22,1.24,1.24,0,0,0,.21-.5,6.76,6.76,0,0,0,.08-3.13,1.46,1.46,0,0,0-.2,1c-.06-.34-.17-.76-.51-.84a1,1,0,0,0-.56.13,1.11,1.11,0,0,1,.88-.65,1.13,1.13,0,0,1,.94.34,1.29,1.29,0,0,1,.16.75A9,9,0,0,1,25.67,55.26Z"/><path class="e2e206e4-bdb1-4d5d-8a22-0a595cdf266f" d="M41.37,51.87a4.15,4.15,0,0,0-.46,1.91A2.15,2.15,0,0,0,41,54.91a.37.37,0,0,0,.16.19c.18.09.39-.05.54-.19a.36.36,0,0,1-.27-.25,1,1,0,0,1-.05-.38,5.21,5.21,0,0,1,.19-1.85.39.39,0,0,1,.11-.17s.14-.06.18,0a.29.29,0,0,1,0,.13c0,.22.06.44.1.66a2.17,2.17,0,0,0,.26-1c0-.3-.14-.45-.45-.41A.68.68,0,0,0,41.37,51.87Z"/><path class="e2e206e4-bdb1-4d5d-8a22-0a595cdf266f" d="M20.4,51.87a4,4,0,0,1,.47,1.91,2.26,2.26,0,0,1-.11,1.13.49.49,0,0,1-.16.19c-.18.09-.39-.05-.54-.19a.4.4,0,0,0,.27-.25,1.65,1.65,0,0,0,.05-.38,5.22,5.22,0,0,0-.2-1.85.37.37,0,0,0-.1-.17.15.15,0,0,0-.19,0,.2.2,0,0,0,0,.13c0,.22-.07.44-.1.66a2.07,2.07,0,0,1-.27-1c0-.3.14-.45.46-.41A.68.68,0,0,1,20.4,51.87Z"/><path class="bd421c3d-7b02-49eb-b21d-aaa57fcea725" d="M43.14,48.14a20.3,20.3,0,0,0,7.33-3,4.19,4.19,0,0,1-1.65,1.61,1.58,1.58,0,0,0,1-.3,3.45,3.45,0,0,0,1.47-2.16,2.31,2.31,0,0,1-1,2.23,6.9,6.9,0,0,1-2.34,1,3.36,3.36,0,0,0,1.61.12,2,2,0,0,1-.94.43,14,14,0,0,1-2.41.37l.63-.57a9.94,9.94,0,0,1-4.76.43,1.21,1.21,0,0,1-.58-.25A4.6,4.6,0,0,0,43.14,48.14Z"/><path class="b2eff0a4-26a3-4680-bbe1-067a683d770f" d="M18.63,48.14a20.25,20.25,0,0,1-7.32-3A4.12,4.12,0,0,0,13,46.75a1.56,1.56,0,0,1-1-.3,3.46,3.46,0,0,1-1.48-2.16,2.33,2.33,0,0,0,1,2.23,7,7,0,0,0,2.34,1,3.32,3.32,0,0,1-1.6.12,2,2,0,0,0,.93.43,14.31,14.31,0,0,0,2.42.37l-.64-.57a10,10,0,0,0,4.77.43,1.26,1.26,0,0,0,.58-.25A4.65,4.65,0,0,1,18.63,48.14Z"/><path class="b6b92554-fce4-4fef-be61-82d5b12a9553" d="M47.72,55.35a1.74,1.74,0,0,0,1.57,0,79.14,79.14,0,0,0,8.49-3.6A10.15,10.15,0,0,0,59.2,51a5.25,5.25,0,0,0,2.2-4.92,4.32,4.32,0,0,1-2,3.17,6.24,6.24,0,0,0,.76-3.62A4.85,4.85,0,0,1,59,48a9.86,9.86,0,0,1-2,1.71,1.29,1.29,0,0,1-1,.3.31.31,0,0,1-.2-.13.4.4,0,0,1,0-.37A2,2,0,0,1,56,49a17.11,17.11,0,0,1-2,1.87,6.84,6.84,0,0,1-2.45,1.24,2.61,2.61,0,0,0,.76-1.21,9,9,0,0,1-3.62,2.26,12.17,12.17,0,0,0,2.49-2.32A3.72,3.72,0,0,0,52,49.4,10.35,10.35,0,0,1,48,50.58a8,8,0,0,1-1.2,0l-1.51-.08a2,2,0,0,1-1.22-.36c-.14-.13-.29-.32-.48-.27a9.39,9.39,0,0,1,0,1.91,16.12,16.12,0,0,0-.33,2.16,9.52,9.52,0,0,1,4.23,1.59C47.59,55.37,47.58,55.34,47.72,55.35Z"/><path class="b6b92554-fce4-4fef-be61-82d5b12a9553" d="M14.05,55.35a1.73,1.73,0,0,1-1.57,0A80,80,0,0,1,4,51.75,10.63,10.63,0,0,1,2.58,51,5.23,5.23,0,0,1,.37,46.07a4.32,4.32,0,0,0,2,3.17,6.32,6.32,0,0,1-.76-3.62A4.94,4.94,0,0,0,2.79,48a9.91,9.91,0,0,0,2.05,1.71,1.26,1.26,0,0,0,1,.3.34.34,0,0,0,.2-.13.47.47,0,0,0,0-.37A1.79,1.79,0,0,0,5.74,49a17.11,17.11,0,0,0,2,1.87,7,7,0,0,0,2.45,1.24,2.59,2.59,0,0,1-.75-1.21,9,9,0,0,0,3.62,2.26,12,12,0,0,1-2.5-2.32,3.57,3.57,0,0,1-.78-1.41,10.3,10.3,0,0,0,3.92,1.18,8.15,8.15,0,0,0,1.21,0l1.51-.08a2,2,0,0,0,1.22-.36c.14-.13.29-.32.47-.27a11.09,11.09,0,0,0,0,1.91,16.15,16.15,0,0,1,.34,2.16,9.52,9.52,0,0,0-4.23,1.59C14.19,55.37,14.2,55.34,14.05,55.35Z"/><path class="b6b92554-fce4-4fef-be61-82d5b12a9553" d="M50.51,34.72a17.61,17.61,0,0,1,2.19,4.13,24.68,24.68,0,0,1,.78,5,16.48,16.48,0,0,1,0,4.21A10.51,10.51,0,0,0,54.93,43a24.39,24.39,0,0,0-.46-5.31,8.24,8.24,0,0,1,.94,2,13.12,13.12,0,0,0,.45-4L57,38a36.92,36.92,0,0,0-3.26-12.1A7.68,7.68,0,0,0,52,23.15a44.52,44.52,0,0,1,2.67,9.61,15.08,15.08,0,0,1,.23,3.79q-.78-2.77-1.73-5.51a14.48,14.48,0,0,1,.33,4.15c-1.36-4.93-2.81-10-6.11-13.94,1.28,3,2.59,6.09,2.82,9.36-2.84-3.93-6.1-7.8-10.5-9.85C44.18,24.71,47.33,29.56,50.51,34.72Z"/><path class="b6b92554-fce4-4fef-be61-82d5b12a9553" d="M11.26,34.72a18.39,18.39,0,0,0-2.19,4.13,24.67,24.67,0,0,0-.77,5,15.62,15.62,0,0,0,0,4.21A10.3,10.3,0,0,1,6.85,43a24.38,24.38,0,0,1,.45-5.31,8.2,8.2,0,0,0-.93,2,12.82,12.82,0,0,1-.45-4L4.74,38A36.7,36.7,0,0,1,8,25.93a7.55,7.55,0,0,1,1.73-2.78,44,44,0,0,0-2.67,9.61,15.56,15.56,0,0,0-.24,3.79c.53-1.85,1.1-3.69,1.73-5.51a15.23,15.23,0,0,0-.33,4.15c1.36-4.93,2.81-10,6.12-13.94-1.29,3-2.59,6.09-2.82,9.36,2.84-3.93,6.1-7.8,10.5-9.85C17.6,24.71,14.44,29.56,11.26,34.72Z"/><path class="b6b92554-fce4-4fef-be61-82d5b12a9553" d="M58.39,12.8a28.31,28.31,0,0,1-9.55-7,7.09,7.09,0,0,0,2.35,3.49,1.86,1.86,0,0,0-1-.18L52,10.42c-.39.09-.72-.31-1.12-.36a2.3,2.3,0,0,0-.63.1,4.22,4.22,0,0,1-1.23,0,6,6,0,0,1-1.63-.29,8.29,8.29,0,0,1-1.35-.78,17.87,17.87,0,0,0-5.42-1.87,15.7,15.7,0,0,1,7.1,4.84,4.86,4.86,0,0,1,1.94-.41,9.44,9.44,0,0,1,2.6.6l3.05,1a2.89,2.89,0,0,0,.66.16,2.32,2.32,0,0,0,.69-.07l1.25-.23C58.17,13.13,58.37,13,58.39,12.8Z"/><path class="ba7192b6-c6ee-4d8d-bdc8-25a566d34905" d="M29.81,9.11a8.57,8.57,0,0,0-3.07.07A16.28,16.28,0,0,1,41.13,7.62a10,10,0,0,0-7.3-2.92A28,28,0,0,0,25.9,6.09l1.75.44a27.91,27.91,0,0,0-16,14c2.56-3.16,5.2-6.38,8.7-8.46a34.74,34.74,0,0,0-7.67,11.54c1.72-3.12,3.95-6.74,6.73-9A32.65,32.65,0,0,1,29.81,9.11Z"/><path class="ba7192b6-c6ee-4d8d-bdc8-25a566d34905" d="M43.51,20.71a25.66,25.66,0,0,0-5.12-7.14,6.78,6.78,0,0,1,1.84,1.06,61.32,61.32,0,0,1,7.45,6.49,11.31,11.31,0,0,0-1.76-2.5q-3-3.5-6.28-6.7a16.38,16.38,0,0,1,7,4.41,32.81,32.81,0,0,1,4.9,6.78c-.42-2.95-2.48-5.36-4.52-7.54a23.84,23.84,0,0,0-3.86-3.52,25.85,25.85,0,0,0-7.07-3q1.61,2,3,4.08-3-.73-5.87-1.69a8.94,8.94,0,0,1,3.33,2.64c-.1-.11-.44-.17-.58-.22l-.68-.24c-.43-.15-.87-.3-1.31-.43s-.88-.27-1.32-.39c-.24-.07-1-.4-1.19-.26a1.62,1.62,0,0,0,.5.23,16,16,0,0,1,3.79,2c1.25.78,2.46,1.63,3.64,2.52C40.84,18.38,42.2,19.52,43.51,20.71Z"/><path class="ba7192b6-c6ee-4d8d-bdc8-25a566d34905" d="M55,47.33l.94-.72a7.75,7.75,0,0,1-.81,2.82,1.27,1.27,0,0,0,.64-.63,11.39,11.39,0,0,0,1.51-4.42,10.27,10.27,0,0,0-.67,1.16,4.24,4.24,0,0,0-.34-3,18.25,18.25,0,0,1-.36,2.09C55.79,45.27,55.61,46.88,55,47.33Z"/><path class="ba7192b6-c6ee-4d8d-bdc8-25a566d34905" d="M6.75,47.33l-.93-.72a7.74,7.74,0,0,0,.8,2.82A1.31,1.31,0,0,1,6,48.8a11.39,11.39,0,0,1-1.51-4.42,9,9,0,0,1,.67,1.16,4.25,4.25,0,0,1,.35-3,16.28,16.28,0,0,0,.35,2.09C6,45.27,6.17,46.88,6.75,47.33Z"/><path class="ba7192b6-c6ee-4d8d-bdc8-25a566d34905" d="M58.18,37.17a23.9,23.9,0,0,1,.82,4.5,24.93,24.93,0,0,1-.18,3.66,14.89,14.89,0,0,0,.78-2.21,16.57,16.57,0,0,1,.09,4c.37-.18.45-.66.48-1.06a30.08,30.08,0,0,0-3-15.5c.61,2.27,1.13,4.56,1.58,6.87-.21-.53-.48-1.58-1-1.86C57.88,36.1,58,36.64,58.18,37.17Z"/><path class="ba7192b6-c6ee-4d8d-bdc8-25a566d34905" d="M3.6,37.17a23.9,23.9,0,0,0-.82,4.5A23.61,23.61,0,0,0,3,45.33a13.79,13.79,0,0,1-.77-2.21,16.08,16.08,0,0,0-.1,4c-.36-.18-.45-.66-.48-1.06a30.18,30.18,0,0,1,3-15.5Q3.68,33.95,3,37.41c.22-.53.48-1.58,1-1.86C3.89,36.1,3.73,36.64,3.6,37.17Z"/><path d="M41.75,0l-.68,0A27.63,27.63,0,0,0,37,.74Q34.29,1.3,31.63,2a44.91,44.91,0,0,0-10,3.92A30.86,30.86,0,0,0,17.15,9,41.25,41.25,0,0,0,13,12.76a35.75,35.75,0,0,0-6.3,9.75A69.55,69.55,0,0,0,2.82,33.76c-.54,2-1,4-1.55,6.06A39.3,39.3,0,0,0,.06,45.27a6.46,6.46,0,0,0,1,4.71C2.14,51.36,3.82,52,5.36,52.71c1.89.85,3.77,1.73,5.68,2.53a5,5,0,0,0,2.67.5A7.59,7.59,0,0,0,16,54.91a7.15,7.15,0,0,1,2.14-.78c0,.14.08.27.13.41a7.33,7.33,0,0,0,.7,1.29c.3.43.62.85,1,1.25a1.1,1.1,0,0,0,1.16.39,1.12,1.12,0,0,0,.52-.32,1.52,1.52,0,0,0,.3-.61c.14-.46.28-.91.41-1.38l.15-.53a6,6,0,0,0,.14.95,4.13,4.13,0,0,0,.69,1.54,3.13,3.13,0,0,0,1.08,1.09,1.73,1.73,0,0,0,2.18-.66,2.83,2.83,0,0,0,.25-.65l.21-.75c.15-.52.28-1,.42-1.55l.09-.36a12.35,12.35,0,0,0,.24,1.6,9.32,9.32,0,0,0,.57,1.79,3.15,3.15,0,0,0,1,1.31,2.71,2.71,0,0,0,2.81.19,2.55,2.55,0,0,0,1.1-1.08,7.9,7.9,0,0,0,.68-1.77,11.74,11.74,0,0,0,.34-2c.13.51.27,1,.4,1.53s.25,1,.43,1.46a1.72,1.72,0,0,0,2,1.09,2.09,2.09,0,0,0,1.1-.82,4.71,4.71,0,0,0,.87-1.5,6.38,6.38,0,0,0,.26-1.37.94.94,0,0,0,0,.16c.13.48.26,1,.41,1.43a1.76,1.76,0,0,0,.63,1.12,1.09,1.09,0,0,0,1.2,0,2.36,2.36,0,0,0,.48-.52c.17-.21.34-.43.49-.65a8.3,8.3,0,0,0,.79-1.28,3.91,3.91,0,0,0,.26-.75c1.69.22,3,1.57,4.76,1.66A6.54,6.54,0,0,0,51.31,55l3-1.35,3-1.32A11.72,11.72,0,0,0,59.66,51a5.12,5.12,0,0,0,1.63-2,6.33,6.33,0,0,0,.49-2.55,22.12,22.12,0,0,0-1-5.58c-.54-2.14-1.08-4.29-1.64-6.43a72,72,0,0,0-4-11.86,35.61,35.61,0,0,0-6.76-10.24l-.09-.09c1.68-.63,3.63,0,5.2.67s3.59,1.3,5.22.31c.17-.11.21-.43,0-.52a29.56,29.56,0,0,1-8.69-6c-.62-.62-1.21-1.27-1.76-1.94s-1.07-1.37-1.61-2A8.3,8.3,0,0,0,44.84.9,5.74,5.74,0,0,0,41.75,0Zm.16.63a4.73,4.73,0,0,1,3,1.1A12.35,12.35,0,0,1,46.6,3.61c.51.68,1,1.34,1.57,2a30,30,0,0,0,8,6.47c.55.31,1.12.6,1.7.88-1.55.56-3.27-.27-4.72-.85a7,7,0,0,0-5.25-.35,13.94,13.94,0,0,0-1.12-.89,6,6,0,0,0-1.89-1.18s-.07,0,0,.07a17,17,0,0,0,1.7,1.59l.28.27a.35.35,0,0,0,.05.08l.11.1a4.85,4.85,0,0,0,.69.67,30.2,30.2,0,0,1,3.18,3.77,38.78,38.78,0,0,1,3,5.12A63,63,0,0,1,58.1,32.87c.56,2.05,1.07,4.12,1.6,6.18l.8,3.14a26.16,26.16,0,0,1,.56,2.63,6.25,6.25,0,0,1-.87,4.83,6.13,6.13,0,0,1-2,1.58c-.85.46-1.75.83-2.63,1.22l-3,1.34A24.9,24.9,0,0,1,49.66,55a3.65,3.65,0,0,1-1.43.16,4.48,4.48,0,0,1-1.14-.31c-.8-.31-1.53-.76-2.33-1.06a5.17,5.17,0,0,0-1-.26v0a14.36,14.36,0,0,0,.17-3.14,5.21,5.21,0,0,0,.94.32,10.51,10.51,0,0,0,1.94.25,8,8,0,0,0,3.75-.53l.25-.12a3.62,3.62,0,0,1-.41.27,6.72,6.72,0,0,1-1.74.69,7.38,7.38,0,0,1-1.86.21c-.61,0-1.21-.16-1.81-.17-.06,0-.07.06,0,.09a5.27,5.27,0,0,0,3.71.28A7.44,7.44,0,0,0,50.44,51l.51-.28-.22.29c-.3.19-.56.42-.86.61a6.81,6.81,0,0,1-1.73.8,5.14,5.14,0,0,1-3.79-.37.07.07,0,1,0-.07.12,4.54,4.54,0,0,0,3.67.67,5.8,5.8,0,0,0,1.33-.45c-.21.15-.43.29-.65.43-.37.23-.78.41-1.18.62a5,5,0,0,1-1,.17,3.88,3.88,0,0,1-1.31-.22s-.09.06,0,.08a3,3,0,0,0,1.57.4l-.15.11s0,0,0,0a5.49,5.49,0,0,0,2.27-.81,7.83,7.83,0,0,0,1.34-.73l.09-.06a10.48,10.48,0,0,0,2.43-3.65.14.14,0,0,0,0-.06,13.44,13.44,0,0,0,.91-4.94A19.32,19.32,0,0,0,51,34.56a54.53,54.53,0,0,0-5.4-7.81A57.86,57.86,0,0,0,39.28,20a39.64,39.64,0,0,0-7.4-5.4l-.48-.26c-.16-.09-.37-.26-.55-.23a1.65,1.65,0,0,0-.5.24l-.52.29c-.66.37-1.31.76-1.94,1.17a38.52,38.52,0,0,0-3.73,2.75A52.23,52.23,0,0,0,17.63,25,68.4,68.4,0,0,0,12,32.53a23.47,23.47,0,0,0-3.68,8.82,13.29,13.29,0,0,0,1.73,9.33,9.89,9.89,0,0,0,1.43,1.73.24.24,0,0,0,.09.06,8.66,8.66,0,0,0,1.34.73A5.59,5.59,0,0,0,15.2,54s0,0,0,0l-.15-.11a3,3,0,0,0,1.57-.4c.05,0,0-.1,0-.08a3.74,3.74,0,0,1-1.32.22,6.1,6.1,0,0,1-.95-.17c-.4-.21-.81-.39-1.18-.62l-.64-.43a6.15,6.15,0,0,0,1.31.45,4.56,4.56,0,0,0,3.68-.67.07.07,0,1,0-.07-.12,5.14,5.14,0,0,1-3.79.37A6.82,6.82,0,0,1,12,51.68c-.32-.2-.61-.46-.92-.65l-.23-.3.42.23a7.2,7.2,0,0,0,1.86.7,5.27,5.27,0,0,0,3.71-.28s0-.1,0-.09c-.61,0-1.2.16-1.81.17a7.83,7.83,0,0,1-1.87-.21,6.87,6.87,0,0,1-1.74-.69,2.77,2.77,0,0,1-.45-.31,5.79,5.79,0,0,0,2.1.65,12.16,12.16,0,0,0,3.66-.16,4.62,4.62,0,0,0,1.16-.37A15.08,15.08,0,0,0,18,53.14l.06.4c-1.53.24-2.75,1.31-4.26,1.59a4.65,4.65,0,0,1-2.66-.51c-.93-.4-1.84-.82-2.76-1.23l-2.22-1-.57-.25A25.44,25.44,0,0,1,3.21,51,5.41,5.41,0,0,1,1.4,49.39a5,5,0,0,1-.76-2.23,14.42,14.42,0,0,1,.65-5c.51-2,1-4,1.52-6A90.69,90.69,0,0,1,6.26,25.05a41.31,41.31,0,0,1,5.67-10.13A31.28,31.28,0,0,1,15.71,11,36.71,36.71,0,0,1,20,7.63a38,38,0,0,1,9.54-4.37c1.68-.53,3.39-1,5.11-1.39s3.5-.8,5.26-1.09A9.64,9.64,0,0,1,41.91.63Zm-22.44,14a34.49,34.49,0,0,0-8.28,11.72,61.23,61.23,0,0,0-2.67,6.76,35.58,35.58,0,0,0-1.83,7.52,13.81,13.81,0,0,0,.11,4.06,9.3,9.3,0,0,0,1.48,3.82s.06,0,.05,0A14.35,14.35,0,0,1,7.24,45a17.33,17.33,0,0,1-.12-3.6,33.49,33.49,0,0,1,1.74-7.58,56.7,56.7,0,0,1,5.81-12.81,51.46,51.46,0,0,1,4.86-6.34A0,0,0,0,0,19.47,14.65Zm22.78,0a0,0,0,0,0,0,.06A49.74,49.74,0,0,1,50,26.37,62.87,62.87,0,0,1,52.63,33a41.77,41.77,0,0,1,1.89,7.29,17.63,17.63,0,0,1,.09,4.17,14.4,14.4,0,0,1-1.16,4.06,0,0,0,0,0,0,0,8.73,8.73,0,0,0,1.35-3.22,12.77,12.77,0,0,0,.32-3.65A29.67,29.67,0,0,0,53.53,34a52.81,52.81,0,0,0-6-13.19,29,29,0,0,0-5.2-6.16A0,0,0,0,0,42.25,14.65Zm-11.36,0a38.44,38.44,0,0,1,7.2,5,55.2,55.2,0,0,1,6.23,6.47c.55.66,1.09,1.34,1.62,2A5.33,5.33,0,0,0,43.4,28c-.1,0,0,.18,0,.18a14.21,14.21,0,0,1,3.16.82c1.12,1.49,2.18,3,3.14,4.6a27.62,27.62,0,0,1,1.34,2.45.28.28,0,0,0,0,.13,27,27,0,0,1,.29,3.71,6.63,6.63,0,0,1-1.76,4.35c-.12.13,0,.36.19.25C51.94,43,52.08,40.42,51.9,38A16.38,16.38,0,0,1,53,42.33c0,.51.07,1,.07,1.55a0,0,0,0,0,0,0,6.36,6.36,0,0,1-2.5,4,10.11,10.11,0,0,1-5,1.33c-.07,0-.09.11,0,.13a6.45,6.45,0,0,0,7.32-3.15,11.75,11.75,0,0,1-.63,2.25,6.21,6.21,0,0,1-1.68,1.33,5.43,5.43,0,0,1-1,.38l-.52.11-.1,0h-.21a11.27,11.27,0,0,1-3.43-.13,5.46,5.46,0,0,1-.88-.24,1.89,1.89,0,0,1-.33-.15l-.15-.09-.07,0,0,0h0l0,0a.29.29,0,0,0-.19-.07l-.07,0a.27.27,0,0,0-.14.07h0a.26.26,0,0,0-.08.2s0,.08,0,.12a1.67,1.67,0,0,0-.89-.36.07.07,0,0,0,0,.14,3.91,3.91,0,0,1,.94.72l0,0c0,.12,0,.24,0,.36a3,3,0,0,0-2-.26,4.54,4.54,0,0,0-2.23,1,3.52,3.52,0,0,0-.62-.66,2.54,2.54,0,0,0-1.12-.44,3.88,3.88,0,0,0-2.43.48,4.47,4.47,0,0,0-1,.78,5.42,5.42,0,0,0-5-.56,5.55,5.55,0,0,0-1.05.56,4.21,4.21,0,0,0-2-1.17,3.1,3.1,0,0,0-2.42.26,2.85,2.85,0,0,0-.76.75,4.57,4.57,0,0,0-2.24-1,3,3,0,0,0-2,.26c0-.12,0-.24,0-.36l0,0a3.73,3.73,0,0,1,.94-.72c.06,0,0-.15,0-.14a1.76,1.76,0,0,0-.89.36v-.12a.25.25,0,0,0-.07-.2h0a.28.28,0,0,0-.15-.08h-.07a.32.32,0,0,0-.19.07l0,0h0l-.08.05-.12.07-.29.15a5.48,5.48,0,0,1-.79.23,10.1,10.1,0,0,1-1.74.22,11.92,11.92,0,0,1-1.69,0,4.7,4.7,0,0,1-.74-.1,5.4,5.4,0,0,1-1-.34A6.07,6.07,0,0,1,9.6,48.46,11.88,11.88,0,0,1,9,46.2a6.45,6.45,0,0,0,7.31,3.13.06.06,0,0,0,0-.12,10,10,0,0,1-5-1.34,6.37,6.37,0,0,1-2.49-4l0,0v-.36A16.22,16.22,0,0,1,9.87,38c-.18,2.43,0,5,2.12,6.5.15.11.31-.12.19-.25a6.55,6.55,0,0,1-1.75-4.35,25.63,25.63,0,0,1,.28-3.71.28.28,0,0,0,0-.13c.24-.49.5-1,.76-1.45A49.52,49.52,0,0,1,15.19,29a9.06,9.06,0,0,1,3.15-.82c.09,0,.14-.15,0-.18a5.29,5.29,0,0,0-2.53.15L16.75,27a58.66,58.66,0,0,1,6.11-6.59,39.2,39.2,0,0,1,7.21-5.29ZM10.1,22.27a.09.09,0,0,0-.12,0,32.88,32.88,0,0,0-3.69,7.5,36.5,36.5,0,0,0-1.17,4,14.67,14.67,0,0,0-.65,4.15.12.12,0,0,0,.23,0,12,12,0,0,0,.41-2q.18-1,.42-2c.33-1.34.71-2.68,1.16-4a53.32,53.32,0,0,1,3.44-7.63A.09.09,0,0,0,10.1,22.27Zm41.58,0a.07.07,0,0,0,0,.11A52.18,52.18,0,0,1,55.08,30c.44,1.28.81,2.58,1.14,3.89.16.66.3,1.32.43,2A12,12,0,0,0,57.07,38a.12.12,0,0,0,.23,0,14.07,14.07,0,0,0-.62-4,36.78,36.78,0,0,0-1.2-4.09,32.21,32.21,0,0,0-3.69-7.49A.08.08,0,0,0,51.68,22.27Zm-30.8,6.32a.23.23,0,0,0-.1.38,2.24,2.24,0,0,0,.82.4,9.55,9.55,0,0,1,1,.49,8.49,8.49,0,0,1,1.78,1.38A9.24,9.24,0,0,1,25.75,33a14.83,14.83,0,0,1,1.06,2,.07.07,0,0,0,.12,0,4.83,4.83,0,0,0-.17-1.14,7.18,7.18,0,0,0-.48-1.1,8.08,8.08,0,0,0-1.4-1.88A9.1,9.1,0,0,0,23,29.34,3.76,3.76,0,0,0,20.88,28.59Zm20,0a3.76,3.76,0,0,0-2.14.75,8.56,8.56,0,0,0-1.85,1.43,8.24,8.24,0,0,0-1.4,1.87,9.35,9.35,0,0,0-.46,1,5,5,0,0,0-.19,1.22c0,.06.09.08.11,0A15.68,15.68,0,0,1,36,33a9.58,9.58,0,0,1,1.39-1.78,8.59,8.59,0,0,1,1.72-1.33,7.3,7.3,0,0,1,1-.5A2.65,2.65,0,0,0,41,29,.23.23,0,0,0,40.89,28.59Zm2.41.83a5.77,5.77,0,0,0-.72,0,6.17,6.17,0,0,0-1,.14,6.45,6.45,0,0,0-3.34,2,9.91,9.91,0,0,0-1.37,2.09,12,12,0,0,0-1,2.59A8.7,8.7,0,0,0,36,41.49,6.76,6.76,0,0,0,38.84,45a9.08,9.08,0,0,0,1.63.63A16.11,16.11,0,0,0,44,45.46,12.47,12.47,0,0,0,45.38,45a8.27,8.27,0,0,0,3.73-2.62,5.06,5.06,0,0,0,1-2.16,10.19,10.19,0,0,0,.09-2.7,10.9,10.9,0,0,0-1.51-4.84,6.84,6.84,0,0,0-3.22-2.84A6.24,6.24,0,0,0,43.3,29.42Zm-24.13,0a6.53,6.53,0,0,0-1.92.14,6.28,6.28,0,0,0-3.39,2.12,10.07,10.07,0,0,0-2.07,4.58,13.54,13.54,0,0,0-.21,2.54,6.68,6.68,0,0,0,.52,2.66,6.87,6.87,0,0,0,3.23,3.09c.35.17.7.32,1.07.46a8.27,8.27,0,0,0,5.52.41,6.37,6.37,0,0,0,3.37-2.91,8.06,8.06,0,0,0,.86-5,12.59,12.59,0,0,0-2-5.16,6.4,6.4,0,0,0-3.08-2.52A6,6,0,0,0,19.17,29.44ZM42.85,30c.22,0,.44,0,.66,0a5.23,5.23,0,0,1,.87.13,5.8,5.8,0,0,1,3.08,1.92c.12.15.22.32.34.48a1.94,1.94,0,0,1,.23.26,1.72,1.72,0,0,1,.21.4A10.24,10.24,0,0,1,49.3,36c0,.11.07.22.1.33a8.45,8.45,0,0,1,.14,1.14c0,.43.05.85.05,1.28a6,6,0,0,1-.44,2.43,6.25,6.25,0,0,1-3,2.84,9.25,9.25,0,0,1-1,.43,7.74,7.74,0,0,1-5.19.41,5.72,5.72,0,0,1-3-2.68,7.44,7.44,0,0,1-.76-4.64,12.14,12.14,0,0,1,1.92-4.83,5.86,5.86,0,0,1,2.76-2.28A6.17,6.17,0,0,1,42.85,30ZM19,30A5.91,5.91,0,0,1,23.08,32a9.65,9.65,0,0,1,1.25,1.93,11.2,11.2,0,0,1,1,2.42,8.23,8.23,0,0,1-.09,5,6.12,6.12,0,0,1-2.56,3.15,6.08,6.08,0,0,1-4.45.48.9.9,0,0,1-.43-.09c-.4-.11-.81-.23-1.2-.38A7.38,7.38,0,0,1,13.13,42a4.74,4.74,0,0,1-.85-2,10,10,0,0,1,0-2.51c.25-2.78,1.58-6,4.34-7.07A5.92,5.92,0,0,1,18.31,30C18.53,30,18.75,30,19,30Zm8.5,7.59a.19.19,0,0,0-.17.15c-.14.81,0,1.64-.16,2.46s-.46,1.61-.61,2.44a.1.1,0,0,0,.18.07,7,7,0,0,0,1-2.58,4,4,0,0,0,0-2.44A.22.22,0,0,0,27.47,37.62Zm6.83,0a.22.22,0,0,0-.21.1,3.91,3.91,0,0,0,0,2.44,7,7,0,0,0,1,2.58.1.1,0,0,0,.18-.07c-.14-.83-.46-1.61-.61-2.44s0-1.65-.16-2.46A.19.19,0,0,0,34.3,37.62ZM28,42.13a6.53,6.53,0,0,0-2.38,2.75c-.35.78-.82,2.42-.07,3.11.06,0,.18,0,.2-.05a10,10,0,0,0-.05-1.44,4.51,4.51,0,0,1,.5-1.76A23,23,0,0,1,28,42.17S28,42.12,28,42.13Zm5.86,0s0,0,0,0a21.73,21.73,0,0,1,1.82,2.57,4.52,4.52,0,0,1,.51,1.76,11.72,11.72,0,0,0-.06,1.44c0,.09.14.1.2.05.76-.69.29-2.33-.07-3.11A6.52,6.52,0,0,0,33.82,42.13Zm-4.18.65a1.18,1.18,0,0,0-.75.2,5.5,5.5,0,0,0-1.23,1.13,6,6,0,0,0-1,1.5,0,0,0,0,1,0,0,.05.05,0,0,1,0,0,2.3,2.3,0,0,0-.12,1.61,1.76,1.76,0,0,0,1,1.08,1.62,1.62,0,0,0,1.52-.18A2.47,2.47,0,0,0,29.88,47a10,10,0,0,0,.43-1.6,4.94,4.94,0,0,0,.09-1.67,1.12,1.12,0,0,0-.51-.87A.73.73,0,0,0,29.64,42.78Zm2.76,0a.81.81,0,0,0-.31,0,.93.93,0,0,0-.65.68,3.48,3.48,0,0,0-.05,1.47,11.42,11.42,0,0,0,.4,1.73,3.39,3.39,0,0,0,.65,1.3,1.63,1.63,0,0,0,1.38.51,1.73,1.73,0,0,0,1.34-1,2.21,2.21,0,0,0,0-1.83s0,0,0,0l0,0a5.22,5.22,0,0,0-.83-1.33,8.56,8.56,0,0,0-1.08-1.09A1.84,1.84,0,0,0,32.4,42.78Zm5.74,0s0,0,0,.06l.05,0Zm-34.53.53a.13.13,0,0,0-.13.1,5.2,5.2,0,0,0,.52,3,11.33,11.33,0,0,0,1.61,2.75A13.12,13.12,0,0,0,7.14,50.8a20.2,20.2,0,0,0,4,2.71.07.07,0,1,0,.07-.11,23.54,23.54,0,0,1-5-4.25,10.72,10.72,0,0,1-1.64-2.71A10.39,10.39,0,0,1,4.07,45a13,13,0,0,0-.31-1.53A.16.16,0,0,0,3.61,43.35Zm54.55,0a.18.18,0,0,0-.15.1A13,13,0,0,0,57.7,45a9.94,9.94,0,0,1-.41,1.31,10.77,10.77,0,0,1-1.7,2.86,23.54,23.54,0,0,1-5,4.25.06.06,0,0,0,.06.11,17.14,17.14,0,0,0,5.48-4.34,11.16,11.16,0,0,0,1.57-2.66,5.28,5.28,0,0,0,.57-3.06A.14.14,0,0,0,58.16,43.35Zm-28.4.29a2.91,2.91,0,0,1,0,1.14,8.2,8.2,0,0,1-.32,1.47,2.81,2.81,0,0,1-.74,1.44c-.72-.46-.42-1.86-.18-2.48A3.7,3.7,0,0,1,29.76,43.64Zm2.25,0a3.62,3.62,0,0,1,1.2,1.57c.24.62.54,2-.17,2.47l-.15-.12a2.35,2.35,0,0,1-.49-1A10.14,10.14,0,0,1,32,45.15,4,4,0,0,1,32,43.86,1.42,1.42,0,0,1,32,43.64Zm.87.09a6.52,6.52,0,0,1,.9.92,5,5,0,0,1,.77,1.22,1.78,1.78,0,0,1,.12,1.24,1.12,1.12,0,0,1-.74.73,1,1,0,0,1-.65,0c.62-.3.67-1.39.56-2A4.27,4.27,0,0,0,32.88,43.73Zm-4,0a4.26,4.26,0,0,0-.95,2.07c-.12.62-.07,1.72.56,2a1,1,0,0,1-.35.07,1.1,1.1,0,0,1-1-.64,1.64,1.64,0,0,1,.06-1.35,6.22,6.22,0,0,1,1.55-2ZM1.58,45.42s0,0-.05,0a4.89,4.89,0,0,0,1.32,3.39,7.27,7.27,0,0,0,1.52,1.3,4.28,4.28,0,0,0,1.7.83s.06-.06,0-.08A7,7,0,0,0,4.8,50a9.5,9.5,0,0,1-1.55-1.28,6.1,6.1,0,0,1-1.62-3.3S1.6,45.41,1.58,45.42Zm58.62,0s-.05,0-.05,0a6.19,6.19,0,0,1-1.63,3.3A8.92,8.92,0,0,1,57.06,50a7.38,7.38,0,0,0-1.39.94,0,0,0,0,0,0,.08,4.22,4.22,0,0,0,1.7-.83,7.8,7.8,0,0,0,1.51-1.3,4.84,4.84,0,0,0,1.32-3.39A0,0,0,0,0,60.2,45.42Zm-36.06.34a6.59,6.59,0,0,1-4.06,1.56,7.07,7.07,0,0,1-2.19-.3c-.74-.21-1.39-.65-2.12-.86a.25.25,0,0,0-.25.42,5.35,5.35,0,0,0,2.21,1,7,7,0,0,0,2.54.25,5.5,5.5,0,0,0,3.94-2S24.19,45.71,24.14,45.76Zm13.43,0a0,0,0,0,0,0,.07,5.52,5.52,0,0,0,3.95,2,7.26,7.26,0,0,0,2.54-.25,5.25,5.25,0,0,0,2.2-1,.25.25,0,0,0-.24-.42c-.7.2-1.32.62-2,.83a7.1,7.1,0,0,1-2.29.33,6.51,6.51,0,0,1-4.06-1.56S37.58,45.74,37.57,45.76Zm-7.32,1.67a3,3,0,0,1-1.13,1.2,2.92,2.92,0,0,1-1.89.14c-.19,0-.33.22-.14.33a2.25,2.25,0,0,0,3.22-1.65S30.26,47.4,30.25,47.43Zm1.28,0s-.07,0-.06,0a2.25,2.25,0,0,0,3.22,1.65.18.18,0,0,0-.14-.33,2.45,2.45,0,0,1-3-1.34Zm-6,2a1.1,1.1,0,0,0-.66.14.14.14,0,0,0,0,.25,9.78,9.78,0,0,1,1.19.18,7.33,7.33,0,0,1,1.2.57c.08.05.18-.07.1-.13A4,4,0,0,0,25.57,49.41Zm10.64,0a4,4,0,0,0-1.87,1c-.07.06,0,.18.1.13A7.85,7.85,0,0,1,35.65,50a9.62,9.62,0,0,1,1.18-.18.14.14,0,0,0,0-.25A1.12,1.12,0,0,0,36.21,49.41Zm-15.94.06a1.17,1.17,0,0,0-.26,0,.14.14,0,0,0,0,.27c.31.09.65.06,1,.16a4.76,4.76,0,0,1,1,.45s.08,0,0-.07A2.42,2.42,0,0,0,20.27,49.47Zm21.23,0a2.4,2.4,0,0,0-1.71.85s0,.1.05.07a4.68,4.68,0,0,1,1-.45c.32-.1.65-.07,1-.16a.14.14,0,0,0,0-.27A1.09,1.09,0,0,0,41.5,49.47Zm-17.68.15a1.31,1.31,0,0,0-.52.2c-.15.1-.35.21-.39.38a.16.16,0,0,0,.18.19c.17,0,.27-.21.4-.32l.19-.14a1.84,1.84,0,0,0,.2-.19C23.94,49.69,23.88,49.61,23.82,49.62Zm14.14,0c-.06,0-.13.07-.07.12s.12.12.19.17a1.66,1.66,0,0,0,.21.16c.12.11.23.27.39.31a.15.15,0,0,0,.18-.18c0-.17-.24-.28-.38-.38a1.71,1.71,0,0,0-.23-.13A1.37,1.37,0,0,0,38,49.62ZM29.79,50a2,2,0,0,0-1,.32c-.25.15-.65.36-.7.68a.13.13,0,0,0,.15.15c.29,0,.51-.36.74-.53s.54-.35.81-.54C29.84,50.08,29.83,50,29.79,50ZM32,50s0,0,0,.08c.26.19.54.35.81.54s.45.48.73.53a.13.13,0,0,0,.15-.15c0-.32-.45-.53-.7-.68A2,2,0,0,0,32,50Zm-7.06,1a4.67,4.67,0,0,0-.11,2.13c0,.08.16.09.18,0a15,15,0,0,0,.07-2.12h.13a3.53,3.53,0,0,1,2.19,1.06c0,.06,0,.13,0,.19s-.06.3-.1.45c-.09.39-.18.79-.28,1.18-.24,1-.5,1.89-.77,2.82a1.33,1.33,0,0,1-.51.83,1.17,1.17,0,0,1-.44.16h-.19a.53.53,0,0,1-.22,0,.91.91,0,0,1-.41-.19A3.14,3.14,0,0,1,24,57a3.76,3.76,0,0,1-.71-1.32A14.92,14.92,0,0,1,23,52.21a2.65,2.65,0,0,1,.93-1A2.23,2.23,0,0,1,24.93,51Zm11.92,0a2.21,2.21,0,0,1,1,.21,2.52,2.52,0,0,1,.93,1,18.17,18.17,0,0,1-.16,3,3.72,3.72,0,0,1-.56,1.4,5.7,5.7,0,0,1-.52.67,1.08,1.08,0,0,1-1.27.36,1.12,1.12,0,0,1-.61-.6,5.16,5.16,0,0,1-.2-.67c-.07-.23-.13-.46-.2-.69l-.38-1.43c-.12-.47-.23-.94-.34-1.41l-.12-.53c0-.07,0-.14,0-.21v0a3.55,3.55,0,0,1,2.18-1.06h.13a14.86,14.86,0,0,0,.08,2.12.09.09,0,0,0,.17,0A4.76,4.76,0,0,0,36.85,51.05Zm-17.29,0a3.23,3.23,0,0,1,.44,0,3,3,0,0,0,.11,1.57c0,.05.08,0,.08,0a8.47,8.47,0,0,1,.07-.88,4.5,4.5,0,0,0,.07-.63l.11,0a3.91,3.91,0,0,1,1.91.94,15.24,15.24,0,0,1-.49,2.38c-.11.45-.24.9-.37,1.35l-.19.61a.79.79,0,0,1-.2.35.5.5,0,0,1-.72-.09,12.27,12.27,0,0,1-.82-1.08,6,6,0,0,1-.68-1.18,5.3,5.3,0,0,1-.3-1.25,11.45,11.45,0,0,1-.14-1.54A1.31,1.31,0,0,1,19.56,51.09Zm22.66,0a1.3,1.3,0,0,1,1.11.56c0,.41,0,.81-.09,1.22a8.26,8.26,0,0,1-.24,1.3,4.38,4.38,0,0,1-.57,1.12,13.84,13.84,0,0,1-.84,1.17,1.29,1.29,0,0,1-.38.39.49.49,0,0,1-.64-.18,2.07,2.07,0,0,1-.18-.53c-.14-.43-.27-.86-.39-1.3a18.83,18.83,0,0,1-.58-2.74,4,4,0,0,1,1.92-.94l.11,0a4.48,4.48,0,0,0,.06.63,8.47,8.47,0,0,1,.07.88s.07.06.08,0a2.89,2.89,0,0,0,.11-1.57A3.38,3.38,0,0,1,42.22,51.09Zm-11.49.33a5.34,5.34,0,0,0-.06,1.2,4.48,4.48,0,0,0,.12,1.21.07.07,0,0,0,.1,0,.06.06,0,0,0,.09,0,4.12,4.12,0,0,0,.12-1.21,4.81,4.81,0,0,0-.05-1.2,4.84,4.84,0,0,1,1.59.32,4.42,4.42,0,0,1,1.12.63,19.4,19.4,0,0,1-.29,3.14A8,8,0,0,1,33,57.18a2.82,2.82,0,0,1-.81,1.22,2.13,2.13,0,0,1-2.31.17,2.22,2.22,0,0,1-.89-1A7.18,7.18,0,0,1,28.4,56,18,18,0,0,1,28,52.38,4.64,4.64,0,0,1,30.73,51.42ZM19,51.59a.06.06,0,0,0-.07.07,2.31,2.31,0,0,0,.16,1.2s.06,0,.06,0A3.68,3.68,0,0,0,19,51.66.07.07,0,0,0,19,51.59Zm23.86,0a.08.08,0,0,0-.08.07,4.34,4.34,0,0,0-.08,1.19,0,0,0,0,0,.06,0,2.32,2.32,0,0,0,.17-1.2A.07.07,0,0,0,42.82,51.59Zm-19.31.51s0,0,0,0a3.59,3.59,0,0,0-.11,1.53A2.83,2.83,0,0,0,23.63,55a.05.05,0,0,0,.1,0,13.94,13.94,0,0,0-.18-1.41c0-.47,0-1,0-1.42C23.54,52.12,23.53,52.1,23.51,52.1Zm14.75,0a0,0,0,0,0,0,0c0,.47,0,1,0,1.42A14,14,0,0,0,38,55a.06.06,0,0,0,.11,0,3,3,0,0,0,.26-1.33,3.3,3.3,0,0,0-.11-1.53S38.28,52.1,38.26,52.1Zm-16.59,0a.07.07,0,0,0-.06,0c-.07.21-.1.42-.15.63s-.1.33,0,.49a.1.1,0,0,0,.13,0,.63.63,0,0,0,.18-.48,2.15,2.15,0,0,0,0-.67A.06.06,0,0,0,21.67,52.11Zm18.43,0s-.05,0-.05,0a2.15,2.15,0,0,0,0,.67.62.62,0,0,0,.17.48.1.1,0,0,0,.13,0,.69.69,0,0,0,0-.49c0-.21-.08-.42-.14-.63A.08.08,0,0,0,40.1,52.11Zm-13.54.09a.05.05,0,0,0,0,0c-.05.36-.14.71-.19,1.07a2.23,2.23,0,0,0-.06,1,.08.08,0,0,0,.13,0,1.43,1.43,0,0,0,.27-.81,4.32,4.32,0,0,0,.05-.62c0-.21-.07-.4-.09-.62A.1.1,0,0,0,26.56,52.2Zm8.65,0a.12.12,0,0,0-.05,0c0,.22-.09.4-.09.62a3.24,3.24,0,0,0,0,.62,1.43,1.43,0,0,0,.27.81.08.08,0,0,0,.13,0,2.4,2.4,0,0,0-.06-1c-.05-.36-.15-.71-.2-1.07C35.26,52.21,35.23,52.2,35.21,52.2Zm-6.39.45a.08.08,0,0,0-.1.07,5,5,0,0,0-.12,1.22,1.34,1.34,0,0,0,.19,1,.1.1,0,0,0,.15,0c.17-.28,0-.62,0-.93s0-.8-.07-1.2A.1.1,0,0,0,28.82,52.65Zm4.14,0a.11.11,0,0,0-.09.09c0,.4,0,.8-.07,1.2a1.63,1.63,0,0,0,0,.93.1.1,0,0,0,.15,0c.24-.24.19-.63.2-1a5,5,0,0,0-.12-1.22C33,52.66,33,52.64,33,52.65Zm-13.76.91s-.06,0-.06,0a3.26,3.26,0,0,0,.91,2.2.1.1,0,0,0,.15-.12c-.15-.35-.41-.67-.58-1S19.36,53.91,19.2,53.56Zm23.37,0c-.16.35-.24.72-.41,1.07s-.43.67-.58,1a.1.1,0,0,0,.15.12,3.25,3.25,0,0,0,.9-2.2A0,0,0,0,0,42.57,53.56Zm-21.21.62a.08.08,0,0,0-.1.06,6.48,6.48,0,0,1-.22,1,1.7,1.7,0,0,0-.18.76A.07.07,0,0,0,21,56a1.38,1.38,0,0,0,.29-.74c.07-.32.12-.65.16-1A.1.1,0,0,0,21.36,54.18Zm19.06,0a.1.1,0,0,0-.08.11c0,.33.1.66.17,1a1.29,1.29,0,0,0,.28.74s.12,0,.13,0a1.84,1.84,0,0,0-.18-.76,6.21,6.21,0,0,1-.22-1A.08.08,0,0,0,40.42,54.18ZM26.18,55.24a.07.07,0,0,0-.09,0,3.35,3.35,0,0,1-.29,1c-.13.29-.35.53-.48.81,0,.08.05.21.14.14a2.46,2.46,0,0,0,.79-1.91A.08.08,0,0,0,26.18,55.24Zm9.42,0a.07.07,0,0,0-.07.07,2.42,2.42,0,0,0,.78,1.91c.1.07.19,0,.15-.14-.14-.28-.35-.52-.49-.81a3.69,3.69,0,0,1-.29-1S35.64,55.23,35.6,55.24ZM29,55.7a0,0,0,0,0-.06,0c0,.89.34,2.29,1.29,2.63a.13.13,0,0,0,.14-.18c-.22-.39-.55-.69-.76-1.1S29.22,56.15,29,55.7Zm3.76,0c-.22.45-.4.91-.62,1.36s-.53.72-.75,1.1a.12.12,0,0,0,.13.18c1-.34,1.27-1.74,1.29-2.62C32.83,55.69,32.78,55.67,32.77,55.7ZM23.84,56s0,0,0,.06a.73.73,0,0,1,.08.25.54.54,0,0,0,.11.23c.09.13.19.31.36.34a.11.11,0,0,0,.14-.11c0-.16-.14-.28-.23-.4a.77.77,0,0,0-.15-.16.74.74,0,0,1-.23-.2S23.86,55.94,23.84,56Zm14.1,0a.06.06,0,0,0-.07,0,.49.49,0,0,1-.2.18.58.58,0,0,0-.17.18c-.1.12-.24.25-.23.41a.11.11,0,0,0,.13.1c.17,0,.28-.21.37-.34a.41.41,0,0,0,.1-.21A1,1,0,0,1,38,56,0,0,0,0,0,37.94,56Z"/></g></g></g></svg>