<svg xmlns="http://www.w3.org/2000/svg" xmlns:xlink="http://www.w3.org/1999/xlink" viewBox="0 0 122.28 97.61"><defs><style>.b7ae8aa4-72ee-4e4a-a93a-42d3b75b9978{fill:none;}.e0b21438-8f86-473f-8032-81c14beae3a9{clip-path:url(#bcbf640b-a582-4c9e-890b-3d4b7d4623d6);}.a4cf2826-2cb9-4890-8bd7-1a2083c2a57a{fill:#141212;}.a367d55e-19a3-4783-9cdd-69d669819acf,.a4cf2826-2cb9-4890-8bd7-1a2083c2a57a,.a6227915-521b-4f37-889f-68edff960a0b,.a9b8f19b-0497-4dc1-8e77-937923d9ad7f,.b6541462-4f89-43d5-876c-805c25eac6f1,.b65e4a2f-2698-4036-a306-e39d29e5e8b3,.bf497dda-7858-4bec-9617-022b8b115beb,.e5fbec6a-9606-490f-8cda-1bc12eea0087,.f644aae5-0706-4f61-ad79-69f283984056{stroke:#10100f;stroke-miterlimit:10;}.f644aae5-0706-4f61-ad79-69f283984056{fill:#141213;}.a367d55e-19a3-4783-9cdd-69d669819acf{fill:#24abcf;}.a9b8f19b-0497-4dc1-8e77-937923d9ad7f{fill:#43bdd6;}.a6227915-521b-4f37-889f-68edff960a0b{fill:#f73350;}.e5fbec6a-9606-490f-8cda-1bc12eea0087{fill:#fb2814;}.bf497dda-7858-4bec-9617-022b8b115beb{fill:#faf7f5;}.b65e4a2f-2698-4036-a306-e39d29e5e8b3{fill:#efe4d0;}.b6541462-4f89-43d5-876c-805c25eac6f1{fill:#efede9;}</style><clipPath id="bcbf640b-a582-4c9e-890b-3d4b7d4623d6" transform="translate(6.26 -39.92)"><path class="b7ae8aa4-72ee-4e4a-a93a-42d3b75b9978" d="M97.07,42H70.76c-2.58-2.61-5.07-5.43-6.17-9,0-.14-.09-.28-.13-.42a17.77,17.77,0,1,0-19.82-.18c-.38,2.4-.78,4.81-2.56,6.66-.91,1-1.87,2-2.87,2.94H12.5A12.46,12.46,0,0,0,0,54.44v87.91a12.45,12.45,0,0,0,12.5,12.4H42.34v-.07a5.43,5.43,0,0,1-.63-.88c-.07-.1-.13-.21-.19-.31s-.05-.11-.07-.16-.05-.07-.07-.06a17.77,17.77,0,1,1,32.84-9.37,17.26,17.26,0,0,1-3,9.84v0a12.16,12.16,0,0,1-.71,1H97.12a12.44,12.44,0,0,0,12.44-12.45V54.44A12.44,12.44,0,0,0,97.07,42Z"/></clipPath></defs><g id="f1d0a7bd-9ebe-492d-bddb-bfe9a0d6c752" data-name="Layer 2"><g id="bc181d81-b175-4f37-b410-2847239375c0" data-name="Layer 1"><g class="e0b21438-8f86-473f-8032-81c14beae3a9"><path class="a4cf2826-2cb9-4890-8bd7-1a2083c2a57a" d="M82.17,40.42h6.91V65.19H82.17Z" transform="translate(6.26 -39.92)"/><path class="f644aae5-0706-4f61-ad79-69f283984056" d="M20.48,40.42h6.91V65.19H20.48Z" transform="translate(6.26 -39.92)"/><path class="a367d55e-19a3-4783-9cdd-69d669819acf" d="M100.61,77.37c0,8.52-9,15.45-20,15.45-11.4,0-20.53-7.36-20-16.16a32.31,32.31,0,0,1-11.56,0c.52,8.8-8.6,16.16-20,16.16-11,0-20-6.93-20-15.45,0-6.75,5.6-12.67,13.93-14.72l1.77-.44a58.59,58.59,0,0,0,20.87,8.4,59.91,59.91,0,0,0,9.26,1.25A59.76,59.76,0,0,0,64,70.61a58.63,58.63,0,0,0,20.87-8.4l1.77.44c8.33,2.05,13.93,8,13.93,14.72Z" transform="translate(6.26 -39.92)"/><path class="a9b8f19b-0497-4dc1-8e77-937923d9ad7f" d="M100.61,77.37c0,8.52-9,15.45-20,15.45-11.4,0-20.53-7.36-20-16.16a44.08,44.08,0,0,1-5.78.53V71.86A59.76,59.76,0,0,0,64,70.61a58.63,58.63,0,0,0,20.87-8.4l1.77.44c8.33,2.05,13.93,8,13.93,14.72Z" transform="translate(6.26 -39.92)"/><path class="a6227915-521b-4f37-889f-68edff960a0b" d="M115.35,113.43c-12.64,4-39.62,13.74-45.59,21.76L68.39,137h-27c-1.71-2.3-2.7-4.09-8.62-7.66-10.09-6.1-25.38-11.79-38.34-15.94l6.43-15H108.92Z" transform="translate(6.26 -39.92)"/><path class="e5fbec6a-9606-490f-8cda-1bc12eea0087" d="M115.35,113.43c-12.64,4-39.62,13.74-45.59,21.76L68.39,137H54.88V98.39h54Z" transform="translate(6.26 -39.92)"/><path class="bf497dda-7858-4bec-9617-022b8b115beb" d="M32.76,98.39v31a103.91,103.91,0,0,0-10.22-5.3V98.39Z" transform="translate(6.26 -39.92)"/><path class="e5fbec6a-9606-490f-8cda-1bc12eea0087" d="M49.78,98.39H60V137H49.78Z" transform="translate(6.26 -39.92)"/><path class="b65e4a2f-2698-4036-a306-e39d29e5e8b3" d="M54.88,98.39H60V137H54.88Z" transform="translate(6.26 -39.92)"/><path class="b6541462-4f89-43d5-876c-805c25eac6f1" d="M87.23,98.39v25.68A103.91,103.91,0,0,0,77,129.37v-31Z" transform="translate(6.26 -39.92)"/></g></g></g></svg>