<svg xmlns="http://www.w3.org/2000/svg" viewBox="0 0 60.7 46.15"><defs><style>.ac9cd386-eb88-4c03-9c29-a02a09a03b34{fill:#d7f6ff;}.a79eda5c-9cff-4e9d-94a1-361c410c5178{fill:#ce3939;}.e77f8603-4e5a-4d13-a920-ec9eb39922a6{fill:#072a35;}.bc59e9e3-d349-44dc-a609-02d440e4d8f6{fill:#ffe6d5;}.ba2ba779-76fb-4f23-8330-73f27ca050d9{fill:#f1f2f2;}.b2a5a2bb-9cad-41c8-af2e-9162247c063b{fill:#144a56;}.ff39e0f5-513f-4b7d-be7c-7228a8740183{fill:#d7c2b4;}.ec48c2dc-c0d1-4a71-b639-6835c92d78c3{fill:#a58e6d;}.fb889ed3-825a-49df-a16e-3b0c4f7d28fc{fill:#dcc7b8;}.abeb5838-fc93-47ce-bb67-d0328c25596a{fill:#297182;}</style></defs><g id="b86ebc62-3016-477b-94d4-f92bb8c4c378" data-name="Layer 2"><g id="bfcd77af-326b-4819-b949-af02b1c67d6e" data-name="Layer 1"><g id="a54ff838-2a73-4695-a398-5af46b083410" data-name="Untitled"><path class="ac9cd386-eb88-4c03-9c29-a02a09a03b34" d="M50.9,19.83c.09.37.18.76.24,1.15l.52-1.14.17-.36s0-.07.06-.11a.14.14,0,0,1,0-.07l0,0v0a.56.56,0,0,1,0-.13c0-.17,0-.34,0-.5V18.5a11.14,11.14,0,0,1-1.09.69C50.79,19.4,50.85,19.61,50.9,19.83Z"/><path class="ac9cd386-eb88-4c03-9c29-a02a09a03b34" d="M49.82,16.77A11.58,11.58,0,0,1,50.35,18c.08.2.14.4.21.6a13.9,13.9,0,0,0,1.2-.8l0-.25c-.07-.63-.17-1.27-.28-1.89-.21.17-.43.34-.65.49A7.6,7.6,0,0,1,49.82,16.77Z"/><path class="ac9cd386-eb88-4c03-9c29-a02a09a03b34" d="M49.56,16.25a7.32,7.32,0,0,0,.93-.55,6.58,6.58,0,0,0,.83-.67,20.11,20.11,0,0,0-.73-2.55c-.74.62-1.5,1.21-2.29,1.76A15,15,0,0,1,49.56,16.25Z"/><path class="a79eda5c-9cff-4e9d-94a1-361c410c5178" d="M45.29,41.41s-.08,0-.07,0,.07-.36.09-.55a3.18,3.18,0,0,1-.43.06,1.33,1.33,0,0,1,0,1.12c0,.05-.1,0-.1,0s0-.39-.06-.58a2.89,2.89,0,0,1,0-.5l-.3,0h0c0,.11,0,.22,0,.34s-.09.07-.1,0-.05-.22-.07-.33v0l-.31,0a14,14,0,0,0,.94,1.69,7.74,7.74,0,0,0,.89-1.91l-.23,0A1.7,1.7,0,0,1,45.29,41.41Z"/><path class="e77f8603-4e5a-4d13-a920-ec9eb39922a6" d="M19.08,9.11a11.3,11.3,0,0,1,5.76-.57,11.63,11.63,0,0,1,5.51,2.57,11.61,11.61,0,0,1,7.06-2.72,11.67,11.67,0,0,1,5.47,1.27A15.09,15.09,0,0,1,48,13.78a29.18,29.18,0,0,0,2.43-1.88,18.6,18.6,0,0,0-.8-1.76,15,15,0,0,0-4.81-5.56,20.54,20.54,0,0,0-6.92-3A35.64,35.64,0,0,0,33.62.88L31.44.66c-.35,0-.7-.07-1.05-.08A10,10,0,0,0,29.3.66,37.24,37.24,0,0,0,21,2.14a18.06,18.06,0,0,0-6.47,3.55,15.9,15.9,0,0,0-4.15,6.11,1,1,0,0,1,0,.1,29.18,29.18,0,0,0,2.43,1.88A15,15,0,0,1,19.08,9.11Z"/><path class="a79eda5c-9cff-4e9d-94a1-361c410c5178" d="M33.61,42s0,0,0,0a5.83,5.83,0,0,0,.06-.73,1.23,1.23,0,0,1,0-.19l-.56.18a2.18,2.18,0,0,1,.09.63,2.64,2.64,0,0,1-.16,1s-.08,0-.08,0c0-.31-.08-.63-.11-.95a5.82,5.82,0,0,1-.05-.6l-.4.14a1,1,0,0,1,0,.34,4.67,4.67,0,0,1,0,.52.05.05,0,0,1-.1,0,3.09,3.09,0,0,1-.18-.51,2.8,2.8,0,0,1-.06-.28l-.48.19h0c.45.67,1,1.27,1.43,1.94.51-1,1.07-1.92,1.54-2.91L34,41C34,41.33,33.72,41.74,33.61,42Z"/><path class="a79eda5c-9cff-4e9d-94a1-361c410c5178" d="M28.53,41.88a2.42,2.42,0,0,1-.19.51s-.09,0-.09,0,0-.34,0-.52a2,2,0,0,1,0-.34l-.39-.14c0,.2-.05.41-.06.6s-.06.63-.1.95c0,.05-.07.07-.09,0a2.74,2.74,0,0,1-.15-1,1.89,1.89,0,0,1,.09-.63l-.09,0L27,41.08c0,.06,0,.13,0,.19a5.83,5.83,0,0,0,.06.73s0,0,0,0a2.73,2.73,0,0,1-.38-1l-.63-.16c.47,1,1,1.94,1.54,2.91.44-.67,1-1.27,1.44-1.94h0l-.49-.19A1.37,1.37,0,0,1,28.53,41.88Z"/><path class="a79eda5c-9cff-4e9d-94a1-361c410c5178" d="M38.42,41.07a1.43,1.43,0,0,1-.36.62,0,0,0,0,1-.08,0,2.88,2.88,0,0,1,.14-.71c0-.13,0-.27.08-.4l-.75,0a2.43,2.43,0,0,1-.08,1.6s0,0,0,0a5.35,5.35,0,0,1-.31-1.6c-.28,0-.55,0-.83,0a5.14,5.14,0,0,1,.2.55c.09.26.18.52.29.78,0,0,0,0,0,0A2.67,2.67,0,0,1,36,40.59c-.26,0-.53.07-.79.12.7.9,1.47,1.75,2.19,2.64A18.17,18.17,0,0,0,39.1,40.6l-.55,0A1.37,1.37,0,0,1,38.42,41.07Z"/><path class="a79eda5c-9cff-4e9d-94a1-361c410c5178" d="M24,41.93s-.05,0,0,0c.11-.25.2-.52.29-.78a4.18,4.18,0,0,1,.2-.56l-.49,0h-.35a5.1,5.1,0,0,1-.3,1.61s0,0,0,0a2.47,2.47,0,0,1-.09-1.61l-.75,0c0,.13.06.27.09.4a3.43,3.43,0,0,1,.14.71.05.05,0,0,1-.09,0,1.5,1.5,0,0,1-.36-.61,2,2,0,0,1-.13-.51l-.54,0a17.42,17.42,0,0,0,1.73,2.75c.71-.89,1.49-1.74,2.19-2.64-.27-.05-.53-.09-.8-.12A2.72,2.72,0,0,1,24,41.93Z"/><path class="a79eda5c-9cff-4e9d-94a1-361c410c5178" d="M42.81,41.66a2.65,2.65,0,0,1-.42.84s-.09,0-.08,0c.07-.32.19-.62.28-.94s.09-.39.14-.58c-.31,0-.63,0-.94-.07a6.13,6.13,0,0,1-.09,1.55,6.33,6.33,0,0,1-.64,1.94s-.08,0-.07,0a12.91,12.91,0,0,0,.39-2.06c0-.47,0-1,0-1.43l-.9-.1c0,.52,0,1,.09,1.57,0,0,0,0,0,0a4.16,4.16,0,0,1-.33-1.6l-.57-.06a21.64,21.64,0,0,1,.89,4.71,4.11,4.11,0,0,0,.62-.48A8.59,8.59,0,0,0,43.34,41H43A4,4,0,0,1,42.81,41.66Z"/><path class="ac9cd386-eb88-4c03-9c29-a02a09a03b34" d="M10.86,16.79v0a6.47,6.47,0,0,1-1-.58,7.51,7.51,0,0,1-.65-.5q-.16.93-.27,1.86l0,.29a10.8,10.8,0,0,0,1.2.79A15.11,15.11,0,0,1,10.86,16.79Z"/><path class="ac9cd386-eb88-4c03-9c29-a02a09a03b34" d="M11.13,16.25a15.09,15.09,0,0,1,1.27-2c-.79-.55-1.56-1.14-2.29-1.76A20.49,20.49,0,0,0,9.37,15a5.44,5.44,0,0,0,.84.68A6.58,6.58,0,0,0,11.13,16.25Z"/><path class="ac9cd386-eb88-4c03-9c29-a02a09a03b34" d="M8.86,19.47l.17.35c.14.32.29.63.43.95a2,2,0,0,1,.1.21c.06-.39.14-.78.23-1.15.05-.22.11-.43.17-.64a12.32,12.32,0,0,1-1.08-.69v.13c0,.18,0,.36,0,.54a.53.53,0,0,1,0,.13c0,.05,0,.06,0,0h0s0,.05,0,.07Z"/><path class="a79eda5c-9cff-4e9d-94a1-361c410c5178" d="M16.49,41c0,.11,0,.22-.07.33s-.11.05-.1,0,0-.23,0-.34h0l-.3,0a2.63,2.63,0,0,1,0,.49c0,.2,0,.4-.06.59s-.09.06-.11,0a1.41,1.41,0,0,1,0-1.12,3,3,0,0,1-.42-.06,3.32,3.32,0,0,0,.09.55s-.05.06-.07,0a1.48,1.48,0,0,1-.21-.61l-.23,0a7.52,7.52,0,0,0,.88,1.91,13.43,13.43,0,0,0,1-1.7h-.31Z"/><path class="a79eda5c-9cff-4e9d-94a1-361c410c5178" d="M20.46,40.72a5.69,5.69,0,0,1-.33,1.6s0,0,0,0c.06-.52.05-1,.09-1.57l-.89.1c0,.47,0,1,0,1.43a12.89,12.89,0,0,0,.38,2.06s-.05.07-.07,0A6.31,6.31,0,0,1,19,42.43a6.13,6.13,0,0,1-.09-1.55L18,41c.05.19.08.39.14.58s.2.62.28.94a0,0,0,0,1-.08,0,2.65,2.65,0,0,1-.42-.84,4,4,0,0,1-.19-.7h-.34a11.38,11.38,0,0,0,.43,1.24,6.67,6.67,0,0,0,2.35,3.15A21.53,21.53,0,0,1,21,40.66l-.51.05Z"/><path class="bc59e9e3-d349-44dc-a609-02d440e4d8f6" d="M9.46,30.37a14.58,14.58,0,0,0,.66-3.59,13.07,13.07,0,0,0,0-1.77,11.33,11.33,0,0,0-.37-1.73,7.42,7.42,0,0,1-.2-1A3.73,3.73,0,0,1,9.39,22c-.3-.63-.59-1.27-.88-1.9-.08-.17-.16-.33-.23-.49s0,0,0,0l-.38-.7a18.76,18.76,0,0,0-4.27-5.19,15,15,0,0,0-1.29-1l-.18-.12h0L2,12.81c-.11.3-.2.61-.29.92a27.86,27.86,0,0,0-.86,3.72A20.78,20.78,0,0,0,1,25a17.55,17.55,0,0,0,2.84,6.56A7.71,7.71,0,0,0,8.8,35a3.51,3.51,0,0,1-.27-1.6A15,15,0,0,1,9.46,30.37ZM7,33.34a2.6,2.6,0,0,1-2.53-3.2,1.6,1.6,0,0,1,2-1.15,1.45,1.45,0,0,1,.89,2.08.24.24,0,0,1-.46-.13,1.09,1.09,0,0,0-.09-1,1,1,0,0,0-.92-.34,1.12,1.12,0,0,0-.79,1.18A2.12,2.12,0,0,0,6.2,32.53c1.84.88,2.54-2.16,2.67-3.36a9.76,9.76,0,0,0-1-5.54c-1.39-2.76-3.66-5.06-4.35-8.11a22.91,22.91,0,0,0-.73,10.53c0,.17-.22.24-.26.07A17.15,17.15,0,0,1,2,20.24,24.08,24.08,0,0,1,3.32,14.5c.07-.21.45-.27.49,0,.42,2.8,2.15,5,3.63,7.27a11.71,11.71,0,0,1,2.15,6.77C9.52,30.17,9,33.14,7,33.34Z"/><path class="ba2ba779-76fb-4f23-8330-73f27ca050d9" d="M58.67,12.76c0,.12.07.16-.05-.25l0,0,0,.06Z"/><path class="e77f8603-4e5a-4d13-a920-ec9eb39922a6" d="M16.3,14.85a3.46,3.46,0,0,0-1.43.26,1.85,1.85,0,0,0-1.11,1.45,2.6,2.6,0,0,0,.58,1.91,5,5,0,0,0,1.87,1.32,27,27,0,0,0,5.17,1.37A14.53,14.53,0,0,1,26,22.85a7.38,7.38,0,0,1,1.1.83,8,8,0,0,0-.83-1.11,8.91,8.91,0,0,0-2.94-2.19,10.62,10.62,0,0,0-2.05-.65l-2.4-.57c-.75-.18-1.52-.36-2.25-.61a2.55,2.55,0,0,1-1.47-1,1.74,1.74,0,0,1,.23-1.9A2.85,2.85,0,0,1,16.3,14.85Z"/><path class="e77f8603-4e5a-4d13-a920-ec9eb39922a6" d="M40,21c.9-.19,1.8-.37,2.69-.61A10.82,10.82,0,0,0,45,19.53,3.83,3.83,0,0,0,46.64,18a2.32,2.32,0,0,0,.17-2,2.39,2.39,0,0,0-2.4-1.21,2.77,2.77,0,0,1,1.06,1,1.66,1.66,0,0,1-.2,2,3.58,3.58,0,0,1-1.62.8c-.8.23-1.6.43-2.4.63A18.1,18.1,0,0,0,37,20.58a8.83,8.83,0,0,0-3.35,3.07,8.52,8.52,0,0,1,1.59-1.1A18.08,18.08,0,0,1,40,21Z"/><path class="ba2ba779-76fb-4f23-8330-73f27ca050d9" d="M58.56,12.49l0,0h0Z"/><path class="bc59e9e3-d349-44dc-a609-02d440e4d8f6" d="M23.16,9a11.17,11.17,0,0,0-5.28,1.32,14.86,14.86,0,0,0-7.12,8.28c-.18.55-.34,1.1-.47,1.66a6.64,6.64,0,0,0-.21,1.72c.07,1.11.57,2.14.63,3.26a15.87,15.87,0,0,1-.24,3.51,18.22,18.22,0,0,1-.94,3.16,6.73,6.73,0,0,0-.42,1.52,3.05,3.05,0,0,0,.22,1.43,10.49,10.49,0,0,0,1.5,2.54,7.44,7.44,0,0,0,5.1,3c2.23.25,4.46-.27,6.69-.38a13,13,0,0,1,3.35.26,19.61,19.61,0,0,1,2.68.8l0,0a2.07,2.07,0,0,1-.51-.62,2.35,2.35,0,0,0-.56-.42,3,3,0,0,0-1.22-.24H24.86a3,3,0,0,1-1.19-.21,1.38,1.38,0,0,1-.74-.95,2.48,2.48,0,0,1,0-1.18,2.3,2.3,0,0,1,.57-1.18,1.78,1.78,0,0,1,2.25,0s0,0,0,0c-.59.09-1.51,0-1.9.56a2.68,2.68,0,0,0-.4,1.51,1,1,0,0,0,.19.44,1.29,1.29,0,0,0,.9.33c.44,0,.88,0,1.31,0a5.71,5.71,0,0,1,1.49.13l.29.1a5.61,5.61,0,0,1-.19-.67,4.06,4.06,0,0,1,.43-2.94s.08,0,.08,0a5.54,5.54,0,0,0,.12,2.94A8.85,8.85,0,0,0,28.64,40l.05.1a21.17,21.17,0,0,1,1.66,2.67c.35-.52.63-1.13,1-1.68a5.76,5.76,0,0,1,.68-1s.05-.09.07-.13a10.06,10.06,0,0,0,.55-1.31,5.54,5.54,0,0,0,.12-2.94s.05-.07.07,0a4.62,4.62,0,0,1,.25,3.62,5.8,5.8,0,0,1,2.16-.24,6.62,6.62,0,0,0,1.18,0,.93.93,0,0,0,.76-.48,1.17,1.17,0,0,0,.07-.25,2.62,2.62,0,0,0-.4-1.52c-.39-.54-1.3-.46-1.89-.56a0,0,0,0,1,0,0,1.78,1.78,0,0,1,2.25,0,2.34,2.34,0,0,1,.57,1.18.64.64,0,0,0,0,.07,2.33,2.33,0,0,1-.09,1.43c-.37.83-1.35.83-2.13.85a4.8,4.8,0,0,0-2.61.38,2,2,0,0,0-.36.29,2,2,0,0,1-.49.62s0,0,0,0l.9-.32A14.45,14.45,0,0,1,36.39,40a19.37,19.37,0,0,1,3.32.12c2.18.23,4.46.61,6.59-.09a8.34,8.34,0,0,0,4.35-3.8,4.72,4.72,0,0,0,.94-2.74,14,14,0,0,0-.94-3A15.88,15.88,0,0,1,50,27a15.27,15.27,0,0,1,0-1.79,7.43,7.43,0,0,1,.28-1.62A11.25,11.25,0,0,0,50.61,22a6.15,6.15,0,0,0-.19-1.71A14.79,14.79,0,0,0,41.61,9.73a10.66,10.66,0,0,0-5.53-.65,11.18,11.18,0,0,0-5.53,2.61.3.3,0,0,1-.41,0A11.57,11.57,0,0,0,29,10.78,10.91,10.91,0,0,0,23.16,9Zm-6.82,5.32a6.14,6.14,0,0,1,1.06.12.29.29,0,0,1,.07.53,3.28,3.28,0,0,0-1.79,1.3,1.11,1.11,0,0,0-.07.91,1.34,1.34,0,0,0,.55.58,7.53,7.53,0,0,0,1.84.62c.78.21,1.57.4,2.36.59s1.53.33,2.28.57a9.15,9.15,0,0,1,1.75.78,9.41,9.41,0,0,1,4.19,5.21,2.69,2.69,0,0,0,.14-.76c0-.37.59-.37.58,0A3.7,3.7,0,0,1,29,26.12c-.19.4-.42.78-.62,1.18A2.67,2.67,0,0,0,28,28.54a5.54,5.54,0,0,0,.16,1.28c.09.46.15.92.2,1.38s.13.67.19,1a2.27,2.27,0,0,1,0,1A1.61,1.61,0,0,1,28,34a8.87,8.87,0,0,0-.9.72,1.29,1.29,0,0,0-.48.81.31.31,0,0,1-.29.29.3.3,0,0,1-.29-.29c.08-.95.94-1.45,1.61-2a1.22,1.22,0,0,0,.31-.33.61.61,0,0,0,.07-.17l0-.1c0-.05,0,0,0-.05a2.81,2.81,0,0,0-.1-.86,9.33,9.33,0,0,1-.18-1.18c-.05-.44-.15-.88-.23-1.32a4.5,4.5,0,0,1-.07-1.37,4,4,0,0,1,.44-1.3c.11-.2.22-.39.32-.59a.79.79,0,0,1,0-.09c-.06-.18-.14-.35-.22-.53a5.1,5.1,0,0,0-1.14-1.47,7.52,7.52,0,0,0-2-1.36,22.09,22.09,0,0,0-5-1.43,23.73,23.73,0,0,1-2.76-.7,8.22,8.22,0,0,1-2.26-1.07,3.73,3.73,0,0,1-1.45-1.89,2.62,2.62,0,0,1,.21-2.22A3.09,3.09,0,0,1,16.34,14.28Zm28.05,0a2.92,2.92,0,0,1,3,1.78,3,3,0,0,1-.27,2.25A4.24,4.24,0,0,1,45.44,20a10.31,10.31,0,0,1-2.45,1c-.9.26-1.82.44-2.74.64a17,17,0,0,0-4.88,1.57,7.77,7.77,0,0,0-1.85,1.43,5,5,0,0,0-1,1.65l0,.08c.15.29.32.58.46.88a3.37,3.37,0,0,1,.33,1.37,7.54,7.54,0,0,1-.16,1.34c-.09.44-.15.88-.2,1.32s-.13.73-.2,1.09a1.52,1.52,0,0,0,0,.79,1.6,1.6,0,0,0,.61.66c.61.47,1.31,1,1.38,1.81a.29.29,0,0,1-.29.29.3.3,0,0,1-.28-.29,1.49,1.49,0,0,0-.6-.91c-.33-.29-.73-.51-1-.83a1.43,1.43,0,0,1-.4-.9,3.31,3.31,0,0,1,.1-.94,10.5,10.5,0,0,0,.18-1.1c.05-.46.15-.91.23-1.37a4,4,0,0,0,.08-1.29,3.51,3.51,0,0,0-.46-1.2,5.06,5.06,0,0,1-.82-2.28.29.29,0,0,1,.58,0,2.39,2.39,0,0,0,.15.76,9.33,9.33,0,0,1,4.56-5.41A17.66,17.66,0,0,1,40.9,18.8c.8-.19,1.59-.4,2.37-.62a3.48,3.48,0,0,0,1.57-.69A1.1,1.1,0,0,0,44.9,16a3.64,3.64,0,0,0-1.67-1.09c-.22-.09-.16-.48.07-.53l.56-.08A4.55,4.55,0,0,1,44.39,14.28Zm-15.54,4a0,0,0,0,1,.06,0,7.12,7.12,0,0,1,.74,4.18,2.45,2.45,0,0,1-1,1.8c-.08,0-.23,0-.21-.13a3,3,0,0,1,.3-.75,4.39,4.39,0,0,0,.29-1.06,20.73,20.73,0,0,0-.25-4S28.82,18.28,28.85,18.28Zm3,0a0,0,0,0,1,0,0,20.73,20.73,0,0,0-.25,4,4.59,4.59,0,0,0,.3,1.1,2.53,2.53,0,0,1,.29.71c0,.12-.13.18-.22.13a2.48,2.48,0,0,1-1-1.8,7.12,7.12,0,0,1,.74-4.18A0,0,0,0,1,31.85,18.28Zm-4.05.1a.12.12,0,0,1,.08,0c.67.44.64,1.37.57,2.07a3.5,3.5,0,0,1-.6,1.94s-.1,0-.07-.06a4.09,4.09,0,0,0,.34-1.81,4.71,4.71,0,0,0,0-.75,3,3,0,0,0-.44-1.22A.13.13,0,0,1,27.8,18.38Zm5.09,0a.13.13,0,0,1,.09.19,2.94,2.94,0,0,0-.44,1.22,6.27,6.27,0,0,0,0,.75,4.12,4.12,0,0,0,.35,1.81s0,.1-.08.06a3.49,3.49,0,0,1-.59-1.94c-.08-.7-.1-1.63.57-2.07A.1.1,0,0,1,32.89,18.38ZM11.74,21.8c1.56,0,3.15,0,4.71.15a11.58,11.58,0,0,1,3.38.8,11.38,11.38,0,0,1,2.73,1.62,10.86,10.86,0,0,1,3.57,5.1.24.24,0,0,1,0,.22,11.45,11.45,0,0,1-4.9,5.81c-2.06,1.19-4.86,1.92-7.17,1a.18.18,0,0,1,.09-.34,10.12,10.12,0,0,0,3.68,0A10.2,10.2,0,0,0,21,35a12.32,12.32,0,0,0,4.16-4.24l-.18.16a10.31,10.31,0,0,1-3.06,2l-.14.06a11.34,11.34,0,0,1-3.58,1,10.42,10.42,0,0,1-3.85-.37,6.67,6.67,0,0,1-3.3-1.85c-.1-.14,0-.33.19-.24.54.28,1,.66,1.58.94a9.86,9.86,0,0,0,5.29,1c.28,0,.56-.06.83-.1a6.9,6.9,0,0,1-1.36-.23,6.49,6.49,0,0,1-2-.92,7.11,7.11,0,0,1-1.63-1.61,12.11,12.11,0,0,1-1.8-4.13,22.23,22.23,0,0,1-.68-4.36A.29.29,0,0,1,11.74,21.8ZM49,21.8a.29.29,0,0,1,.29.29A22.36,22.36,0,0,1,48.42,27a11,11,0,0,1-2,4.05,6.66,6.66,0,0,1-4.69,2.32,8.24,8.24,0,0,0,.85.11,9.89,9.89,0,0,0,3.63-.38,10.54,10.54,0,0,0,1.74-.7c.53-.27,1-.63,1.51-.9a.15.15,0,0,1,.18.24,6.69,6.69,0,0,1-3.29,1.86,10.49,10.49,0,0,1-3.86.36,11.28,11.28,0,0,1-3.61-1c-.22-.08-.43-.18-.65-.28a11,11,0,0,1-2.49-1.75l-.21-.17A12.44,12.44,0,0,0,39.7,35,10.17,10.17,0,0,0,43,36.23a10,10,0,0,0,3.58,0,.18.18,0,0,1,.1.34c-2.31.9-5.11.17-7.17-1a11.42,11.42,0,0,1-4.91-5.81.28.28,0,0,1,0-.22v0a10.59,10.59,0,0,1,1.63-3.08,11.36,11.36,0,0,1,5-3.74,12.29,12.29,0,0,1,3.56-.7C46.17,21.82,47.57,21.83,49,21.8Z"/><path class="bc59e9e3-d349-44dc-a609-02d440e4d8f6" d="M58.69,12.83l0-.07c0-.07-.06-.17-.08-.22h0l-.15.1-.68.48a15.77,15.77,0,0,0-1.25,1,19.17,19.17,0,0,0-4,5.35l0,0c-.19.48-.43,1-.65,1.42s-.41.88-.61,1.32c-.13.88-.47,1.73-.56,2.61a12.63,12.63,0,0,0,.2,3.63,16.45,16.45,0,0,0,.72,2.58,10,10,0,0,1-.39-3.54A13.17,13.17,0,0,1,53.75,21c1.37-2,2.77-4,3.14-6.52,0-.27.41-.21.49,0a25.13,25.13,0,0,1,1.34,5.73,17.44,17.44,0,0,1-.5,5.89c0,.17-.28.09-.26-.07a23.19,23.19,0,0,0-.73-10.53,13.32,13.32,0,0,1-1.92,4.24,31.71,31.71,0,0,0-2.76,4.57A9.51,9.51,0,0,0,52,30c.27,1.3,1.38,3.69,3,2.23a2,2,0,0,0,.69-1.83,1,1,0,0,0-1.22-.78c-.64.2-.69.75-.55,1.32a.24.24,0,0,1-.46.13,1.44,1.44,0,0,1,.08-1.51,1.62,1.62,0,0,1,1.14-.64,1.73,1.73,0,0,1,1.77,1.77c0,1.55-1.62,3.16-3.18,2.51a3.11,3.11,0,0,1-1.63-1.92l.18.5a7.08,7.08,0,0,1,.42,1.61,3.26,3.26,0,0,1-.2,1.45,1.08,1.08,0,0,1-.08.19,3,3,0,0,0,.43-.07c2.24-.48,3.89-2.32,5.07-4.17a17.5,17.5,0,0,0,2.52-6.74,21.73,21.73,0,0,0-.24-7.5A31.81,31.81,0,0,0,58.69,12.83Z"/><path class="b2a5a2bb-9cad-41c8-af2e-9162247c063b" d="M30.35,9.25A8.16,8.16,0,0,1,31.9,8.13a10.1,10.1,0,0,1,2.33-.89,13.13,13.13,0,0,1,13.45,4.55,13.07,13.07,0,0,0-2.25-3.24A3.62,3.62,0,0,1,45,8a7.92,7.92,0,0,1,1.91.69A8.16,8.16,0,0,0,43,6a5.63,5.63,0,0,0-2.38.07,5.26,5.26,0,0,1,2-.73,1.36,1.36,0,0,0-.76-.26,14.66,14.66,0,0,0-4.9.15c.32-.34.59-.88.91-1.22a.81.81,0,0,0-.64.07l-2.4,1a9.14,9.14,0,0,0-1.56.79,15.74,15.74,0,0,0,1-1.3c-.21-.13-.47,0-.66.17a21,21,0,0,0-3.22,3,21,21,0,0,0-3.22-3c-.19-.15-.46-.3-.66-.17a15.74,15.74,0,0,0,1,1.3,9.14,9.14,0,0,0-1.56-.79l-2.4-1a.81.81,0,0,0-.64-.07c.32.34.59.88.91,1.22a14.4,14.4,0,0,0-4.9-.15,1.36,1.36,0,0,0-.76.26,5.26,5.26,0,0,1,2,.73A5.63,5.63,0,0,0,17.75,6a8.16,8.16,0,0,0-3.93,2.61A7.92,7.92,0,0,1,15.73,8a4.26,4.26,0,0,1-.46.59A13.07,13.07,0,0,0,13,11.79,13.13,13.13,0,0,1,26.47,7.24a10.1,10.1,0,0,1,2.33.89A8.16,8.16,0,0,1,30.35,9.25Z"/><path class="ff39e0f5-513f-4b7d-be7c-7228a8740183" d="M47,34.41a9.41,9.41,0,0,0,2.55-.72,2.74,2.74,0,0,1-1.3,1.45l1.3-.55a.94.94,0,0,1-.35.75,7.55,7.55,0,0,1-1.51,1.37c-1.41.85-3.2.69-4.73,1.3a8.56,8.56,0,0,0,5.85-1.3,5.27,5.27,0,0,0,1-.82,3.81,3.81,0,0,0,.85-3.48,2.24,2.24,0,0,1-.57.85,4.73,4.73,0,0,0,.22-2.33,2.82,2.82,0,0,1-1,2C48.66,33.5,47.8,33.93,47,34.41Z"/><path class="ff39e0f5-513f-4b7d-be7c-7228a8740183" d="M13.66,34.41a9.58,9.58,0,0,1-2.56-.72,2.8,2.8,0,0,0,1.31,1.45l-1.3-.55a.91.91,0,0,0,.35.75A7.55,7.55,0,0,0,13,36.71c1.4.85,3.2.69,4.72,1.3a8.54,8.54,0,0,1-5.84-1.3,5.27,5.27,0,0,1-1-.82A3.81,3.81,0,0,1,10,32.41a2.24,2.24,0,0,0,.57.85,4.73,4.73,0,0,1-.23-2.33,2.87,2.87,0,0,0,1,2C12,33.5,12.9,33.93,13.66,34.41Z"/><path class="ec48c2dc-c0d1-4a71-b639-6835c92d78c3" d="M31.31,41.67a4.79,4.79,0,0,0,.4.78c.07.11.29.6.46.37s0-.48,0-.62a.22.22,0,0,1,0-.11.17.17,0,0,1,.12,0,.57.57,0,0,1,.43.26,1.57,1.57,0,0,1,.2.48,1.93,1.93,0,0,1,.53-1.18.19.19,0,0,1,.15-.06c.09,0,.13.12.14.21s.09.46.13.69a4.45,4.45,0,0,0,.59-1c.09-.22.19-.43.29-.65a.22.22,0,0,0,0-.19c0-.09-.18-.09-.27-.07A14,14,0,0,0,31.31,41.67Z"/><path class="ec48c2dc-c0d1-4a71-b639-6835c92d78c3" d="M29.38,41.67a4.73,4.73,0,0,1-.39.78c-.07.11-.3.6-.46.37s0-.48,0-.62a.22.22,0,0,0-.05-.11.17.17,0,0,0-.12,0,.55.55,0,0,0-.43.26,1.57,1.57,0,0,0-.2.48,1.88,1.88,0,0,0-.54-1.18.16.16,0,0,0-.14-.06c-.09,0-.13.12-.15.21l-.12.69a4.11,4.11,0,0,1-.59-1c-.1-.22-.2-.43-.29-.65a.22.22,0,0,1,0-.19c0-.09.17-.09.27-.07A13.91,13.91,0,0,1,29.38,41.67Z"/><path class="ec48c2dc-c0d1-4a71-b639-6835c92d78c3" d="M36.09,41.16a2.56,2.56,0,0,1,.46.62,2.45,2.45,0,0,1,.16-.66c.06-.15.21-.32.36-.25s.12.15.14.24l.15.71.2-.41c.12-.24.3-.51.55-.48a.11.11,0,0,1,.08,0,.09.09,0,0,1,0,.07,4.89,4.89,0,0,1-.29,1,1.78,1.78,0,0,1,.82-.83h.08s0,.07,0,.11,0,.31,0,.47a6,6,0,0,0,.55-1,.51.51,0,0,0,0-.52c-.08-.12-.25-.14-.39-.16a13.37,13.37,0,0,0-3.84.21.39.39,0,0,0-.15.06c-.12.1-.06.29,0,.43a7.36,7.36,0,0,0,1.54,1.93,3.28,3.28,0,0,1-.45-.73A1.12,1.12,0,0,1,36.09,41.16Z"/><path class="ec48c2dc-c0d1-4a71-b639-6835c92d78c3" d="M24.61,41.16a2.56,2.56,0,0,0-.46.62,2.45,2.45,0,0,0-.16-.66c-.06-.15-.21-.32-.36-.25s-.12.15-.14.24l-.15.71-.21-.41c-.11-.24-.29-.51-.55-.48a.08.08,0,0,0-.07,0,.09.09,0,0,0,0,.07,4.32,4.32,0,0,0,.29,1,1.76,1.76,0,0,0-.83-.83H21.9s0,.07,0,.11l.06.47a5.33,5.33,0,0,1-.55-1c-.08-.17-.15-.38,0-.52a.56.56,0,0,1,.4-.16,13.37,13.37,0,0,1,3.84.21.39.39,0,0,1,.15.06c.12.1.06.29,0,.43a7.36,7.36,0,0,1-1.54,1.93A2.94,2.94,0,0,0,24.6,42,1.08,1.08,0,0,0,24.61,41.16Z"/><path class="ec48c2dc-c0d1-4a71-b639-6835c92d78c3" d="M40.26,41.54a1.57,1.57,0,0,1,.3.7,5.43,5.43,0,0,1,.23-.88c.11,0,.15.15.18.26a8.86,8.86,0,0,1,.2,2.24,16,16,0,0,0,1-2.31,6.07,6.07,0,0,1-.08,1l.52-.92a.7.7,0,0,1,.15-.19.2.2,0,0,1,.22,0,.28.28,0,0,1,.06.2,7.3,7.3,0,0,1-.08.93,3.72,3.72,0,0,0,.63-1.84.21.21,0,0,0,0-.11c0-.13-.21-.15-.34-.15a33.48,33.48,0,0,1-3.47-.21.25.25,0,0,0-.17,0,.16.16,0,0,0,0,.07.89.89,0,0,0-.09.39,1.93,1.93,0,0,0,.08.47c.19.69.35,1.4.49,2.11,0-.15.08-.33,0-.5a1.8,1.8,0,0,1-.1-.33A1.83,1.83,0,0,1,40.26,41.54Z"/><path class="ec48c2dc-c0d1-4a71-b639-6835c92d78c3" d="M20.44,41.54a1.71,1.71,0,0,0-.31.7,4.53,4.53,0,0,0-.22-.88c-.11,0-.16.15-.18.26a9.35,9.35,0,0,0-.21,2.24,15.93,15.93,0,0,1-1-2.31,6.07,6.07,0,0,0,.08,1L18,41.67a.67.67,0,0,0-.14-.19.2.2,0,0,0-.22,0,.24.24,0,0,0-.06.2c0,.31,0,.62.07.93a3.93,3.93,0,0,1-.63-1.84.41.41,0,0,1,0-.11c0-.13.2-.15.34-.15a33.48,33.48,0,0,0,3.47-.21c.06,0,.12,0,.16,0a.12.12,0,0,1,.05.07,1.06,1.06,0,0,1,.09.39,2,2,0,0,1-.09.47c-.18.69-.34,1.4-.48,2.11,0-.15-.08-.33,0-.5a1.8,1.8,0,0,0,.1-.33A1.83,1.83,0,0,0,20.44,41.54Z"/><path class="ec48c2dc-c0d1-4a71-b639-6835c92d78c3" d="M44.7,41.38l.15.44a1.79,1.79,0,0,1,.27-.51c.06-.08.19-.17.26-.08a.2.2,0,0,1,0,.11v.47c.17-.32.33-.64.49-1a.32.32,0,0,0,0-.28c0-.1-.17-.13-.28-.14a1.94,1.94,0,0,0-.48,0,5.66,5.66,0,0,1-.8.16,2.61,2.61,0,0,0-.56,0,.25.25,0,0,0-.14.06c-.09.08-.08.24-.06.36a3.13,3.13,0,0,0,.63,1.34c0-.23-.2-.51-.11-.75S44.59,41,44.7,41.38Z"/><path class="ec48c2dc-c0d1-4a71-b639-6835c92d78c3" d="M16,41.38c0,.15-.09.29-.14.44a2.49,2.49,0,0,0-.27-.51c-.06-.08-.2-.17-.26-.08a.2.2,0,0,0,0,.11c0,.16,0,.32,0,.47-.17-.32-.33-.64-.49-1a.32.32,0,0,1-.05-.28c0-.1.17-.13.28-.14a1.94,1.94,0,0,1,.48,0,5.53,5.53,0,0,0,.79.16,2.63,2.63,0,0,1,.56,0,.25.25,0,0,1,.15.06.38.38,0,0,1,.05.36,3,3,0,0,1-.62,1.34c.05-.23.2-.51.1-.75S16.11,41,16,41.38Z"/><path class="ff39e0f5-513f-4b7d-be7c-7228a8740183" d="M35.43,36.89a.62.62,0,0,1,.49.23.43.43,0,0,1,0,.35.75.75,0,0,1-.24.29,1.16,1.16,0,0,1-1.15.12l0,0a.08.08,0,0,1,0-.09l.21-.17a1.65,1.65,0,0,0-.44-.1.88.88,0,0,1-.62-.59c.23.18.43.05.67,0A3.77,3.77,0,0,1,35.43,36.89Z"/><path class="ff39e0f5-513f-4b7d-be7c-7228a8740183" d="M25.27,36.89a.61.61,0,0,0-.49.23.36.36,0,0,0,0,.35.75.75,0,0,0,.24.29,1.16,1.16,0,0,0,1.15.12l0,0a.1.1,0,0,0,0-.09l-.21-.17a1.67,1.67,0,0,1,.43-.1A.89.89,0,0,0,27,36.9c-.23.18-.43.05-.68,0A3.7,3.7,0,0,0,25.27,36.89Z"/><path class="ff39e0f5-513f-4b7d-be7c-7228a8740183" d="M29.05,27.19a5.15,5.15,0,0,0,0,3.71,7.75,7.75,0,0,1,.25,1.44,2.26,2.26,0,0,1-.46,1.55c-.21.25-.5.45-.58.76a1.23,1.23,0,0,0,.08.73,4,4,0,0,0,1.39,2.11,5.76,5.76,0,0,1-.43-1.27c0-.18-.05-.4.09-.52a.57.57,0,0,1,.36-.09h1.2c-.49-.25-1-.55-1.16-1.08a2.07,2.07,0,0,1,.11-1,5.5,5.5,0,0,0,.05-3A8.92,8.92,0,0,1,29.44,29a4.66,4.66,0,0,1,.66-2.43,3.07,3.07,0,0,0,.32-2.43,3.43,3.43,0,0,1-.29,1.34C29.83,26.09,29.38,26.6,29.05,27.19Z"/><path class="fb889ed3-825a-49df-a16e-3b0c4f7d28fc" d="M58.09,17.48a4.59,4.59,0,0,0-.46-1.64c-.17-.35-.36-.7-.56-1a7.33,7.33,0,0,1-1.21,3.07c-1.07,1.82-2,3.6-3.12,5.42a11.39,11.39,0,0,0-.91,1.77,10.76,10.76,0,0,0-.4,4.23,20.18,20.18,0,0,0,.18,2.2c.18,1.14.53,2.35,0,3.4a.2.2,0,0,0,0,.18.16.16,0,0,0,.08.06A1.62,1.62,0,0,0,52.77,35a7.71,7.71,0,0,0,2.06-.76,4.83,4.83,0,0,0,.72-.71A12.4,12.4,0,0,0,57.41,31a14.76,14.76,0,0,1-1.63,1.07,2,2,0,0,0,.31-1.57,1.62,1.62,0,0,0-1-1.17,1.36,1.36,0,0,0-1.47.45,3.77,3.77,0,0,1,.39-3,1.85,1.85,0,0,1,.57-.75.77.77,0,0,1,.89,0,2.66,2.66,0,0,1-1-1.6,2.05,2.05,0,0,1,.29-1.07,2.39,2.39,0,0,1,1-1,1.38,1.38,0,0,1,1.39.07,1.82,1.82,0,0,1,.61.94A6.09,6.09,0,0,1,58,26.15,22.38,22.38,0,0,0,58.09,17.48Z"/><path class="ff39e0f5-513f-4b7d-be7c-7228a8740183" d="M9.08,31.5a18,18,0,0,0,.19-2.2,10.69,10.69,0,0,0-.41-4.22A11,11,0,0,0,8,23.3c-1.07-1.82-2-3.6-3.12-5.42a7.2,7.2,0,0,1-1.21-3.07,10.26,10.26,0,0,0-.56,1,4.71,4.71,0,0,0-.32.81,7.58,7.58,0,0,0-.15.83,22.57,22.57,0,0,0,.06,8.67A6.24,6.24,0,0,1,3,23.28a1.88,1.88,0,0,1,.61-.94A1.41,1.41,0,0,1,5,22.27a2.45,2.45,0,0,1,1,1,2,2,0,0,1,.29,1.07,2.66,2.66,0,0,1-1,1.6.78.78,0,0,1,.89,0,2,2,0,0,1,.58.75,3.81,3.81,0,0,1,.39,3,1.35,1.35,0,0,0-1.47-.44A1.6,1.6,0,0,0,4.6,30.5a2,2,0,0,0,.31,1.56A15.76,15.76,0,0,1,3.28,31a12.4,12.4,0,0,0,1.86,2.53,4.83,4.83,0,0,0,.72.71A7.67,7.67,0,0,0,7.93,35a1.65,1.65,0,0,0,1,.14.16.16,0,0,0,.08-.06s0-.12,0-.18C8.56,33.85,8.91,32.64,9.08,31.5Z"/><path class="abeb5838-fc93-47ce-bb67-d0328c25596a" d="M43.24,35.18l.19.06Z"/><path class="ff39e0f5-513f-4b7d-be7c-7228a8740183" d="M44.58,32.16A6,6,0,0,1,43,33a4.85,4.85,0,0,1-2.67,0c0-.05-.09.07-.08,0a6,6,0,0,1-3.56-1.76q-.87-.76-1.68-1.59a3.25,3.25,0,0,0,.52,1.52,11.46,11.46,0,0,0,5.08,4.76.41.41,0,0,0,.29.22,9.42,9.42,0,0,0,5.8.1,1.3,1.3,0,0,0,.93-.66,11.29,11.29,0,0,1-3,.54,4.69,4.69,0,0,1-2.91-.87c-.11-.08-.23-.26-.12-.35a.28.28,0,0,1,.18,0,6.19,6.19,0,0,1,1.48.31,1.86,1.86,0,0,1-.83-.6.54.54,0,0,1-.11-.23.34.34,0,0,1,.23-.32A1.18,1.18,0,0,1,43,34a12.63,12.63,0,0,0,5.18-1.4,4.58,4.58,0,0,0,1.13-.71,1.71,1.71,0,0,0,.6-1.15,10.21,10.21,0,0,1-3.23,1.74,3.7,3.7,0,0,0,1.27-1.15,7.11,7.11,0,0,1-2.37,1,6.68,6.68,0,0,0,3-6.84A14.86,14.86,0,0,1,47.3,29a7.17,7.17,0,0,1-1.23,2A7.94,7.94,0,0,1,44.58,32.16Z"/><path class="ff39e0f5-513f-4b7d-be7c-7228a8740183" d="M15.17,32.33a7.39,7.39,0,0,1-2.38-1,3.82,3.82,0,0,0,1.28,1.15,10.21,10.21,0,0,1-3.23-1.74,1.74,1.74,0,0,0,.6,1.16,4.86,4.86,0,0,0,1.13.7A12.4,12.4,0,0,0,17.75,34a1.13,1.13,0,0,1,.41.05.34.34,0,0,1,.23.32.4.4,0,0,1-.1.23,1.91,1.91,0,0,1-.83.6,6.19,6.19,0,0,1,1.48-.31.28.28,0,0,1,.18,0c.1.1,0,.27-.12.35a4.69,4.69,0,0,1-2.91.87,10.85,10.85,0,0,1-3-.54,1.3,1.3,0,0,0,.92.66,9.45,9.45,0,0,0,5.81-.1.41.41,0,0,0,.29-.22,11.51,11.51,0,0,0,5.08-4.76,3.25,3.25,0,0,0,.52-1.52q-.81.83-1.68,1.59A6,6,0,0,1,20.43,33c0,.05-.08-.07-.08,0a4.85,4.85,0,0,1-2.67,0,6.15,6.15,0,0,1-1.56-.83,8.06,8.06,0,0,1-1.49-1.23,7.56,7.56,0,0,1-1.24-2,15.55,15.55,0,0,1-1.19-3.5,6.68,6.68,0,0,0,3,6.85Z"/><path class="abeb5838-fc93-47ce-bb67-d0328c25596a" d="M17.46,35.18l-.19.06Z"/><path class="abeb5838-fc93-47ce-bb67-d0328c25596a" d="M33.15,37.93s0,0,0,0h0v0Z"/><path class="abeb5838-fc93-47ce-bb67-d0328c25596a" d="M27.56,37.89h0s0,0,0,0h0Z"/><path class="ff39e0f5-513f-4b7d-be7c-7228a8740183" d="M48.1,37.84c-2.27,1.29-5,1.27-7.64,1.16a6.92,6.92,0,0,1-2.92-.36,1.54,1.54,0,0,0,.07-1,1.86,1.86,0,0,0-.74-1.28,2.28,2.28,0,0,0-1.63-.13c.26.1.54.14.8.24a1,1,0,0,1,.6.54.79.79,0,0,1-.19.76,1.54,1.54,0,0,1-.69.42,3.15,3.15,0,0,1-2.61-.31h0l0,0a4.05,4.05,0,0,0-.44-2,3.06,3.06,0,0,1-1.22,2.8,2.57,2.57,0,0,1-1.13.44,2.61,2.61,0,0,1-1.14-.44A3,3,0,0,1,28,35.85a4.05,4.05,0,0,0-.44,2s0,0,0,0h0a3.16,3.16,0,0,1-2.61.31,1.63,1.63,0,0,1-.7-.42.82.82,0,0,1-.19-.76,1,1,0,0,1,.61-.54c.26-.1.54-.14.8-.24a2.31,2.31,0,0,0-1.64.13,1.86,1.86,0,0,0-.74,1.28,1.61,1.61,0,0,0,.08,1,7,7,0,0,1-2.92.36c-2.61.11-5.38.13-7.65-1.16a14.68,14.68,0,0,1-3.52-3.16,7.44,7.44,0,0,0,3,4.4,9.53,9.53,0,0,0,4.55,1.53,21.89,21.89,0,0,0,4.85-.23,13.54,13.54,0,0,1,1.8-.17,11.92,11.92,0,0,1,2.14.26l2.61.47a2.34,2.34,0,0,1,1.16.43c.43.38.52,1,.84,1.48a.7.7,0,0,0,.36.28.64.64,0,0,0,.35-.28c.32-.47.41-1.1.84-1.48a2.37,2.37,0,0,1,1.17-.43l2.61-.47a11.81,11.81,0,0,1,2.14-.26,13.7,13.7,0,0,1,1.8.17,21.8,21.8,0,0,0,4.84.23,9.57,9.57,0,0,0,4.56-1.53,7.47,7.47,0,0,0,3-4.4A14.68,14.68,0,0,1,48.1,37.84Z"/><path class="ff39e0f5-513f-4b7d-be7c-7228a8740183" d="M17.12,21.39c1.27.42,2.61.52,3.9.87a10.68,10.68,0,0,1,4.61,2.62,2.12,2.12,0,0,1,.57.76A1.76,1.76,0,0,0,25,25.23c.3,0,.93.64,1.13.83A6.26,6.26,0,0,1,27,27.13a3.65,3.65,0,0,1,.54,1.44h0c-.32,0-.51.66-.54.89-.05.47.07,1,0,1.43a2.21,2.21,0,0,1-.92,1.59l.95,0a4.65,4.65,0,0,1-2.24,2.92c-.3.16-.67.39-.61.72l1.15,0a1.1,1.1,0,0,0,.44-.07c.32-.14.44-.53.58-.86a2.65,2.65,0,0,1,.68-.91c.37-.31.84-.55,1-1a1.91,1.91,0,0,0,.08-1c-.1-1-.18-1.9-.28-2.85a2.9,2.9,0,0,0-.07-.51,7.16,7.16,0,0,1,.68-2.51.65.65,0,0,0,.11-.32.35.35,0,0,0,0-.14,1.82,1.82,0,0,0,.27-.64,1.4,1.4,0,0,1,.11-.4,1.39,1.39,0,0,1,.4-.36,2.3,2.3,0,0,0,.9-1.62l.06.1.06-.1a2.3,2.3,0,0,0,.9,1.62,1.39,1.39,0,0,1,.4.36,1.4,1.4,0,0,1,.11.4,1.82,1.82,0,0,0,.27.64.58.58,0,0,0,0,.14.65.65,0,0,0,.11.32,7,7,0,0,1,.68,2.51,2.9,2.9,0,0,0-.07.51c-.1.95-.18,1.9-.27,2.85a1.91,1.91,0,0,0,.07,1c.19.44.66.68,1,1a2.53,2.53,0,0,1,.68.91c.15.33.26.72.58.86a1.12,1.12,0,0,0,.45.07l1.14,0c.06-.33-.31-.56-.6-.72a4.58,4.58,0,0,1-2.24-2.92l1,0a2.22,2.22,0,0,1-.93-1.59c0-.47.07-1,0-1.43,0-.23-.21-.91-.53-.89h0a3.62,3.62,0,0,1,.55-1.44,6.21,6.21,0,0,1,.91-1.07c.21-.19.83-.85,1.13-.83a1.76,1.76,0,0,0-1.21.41,2.12,2.12,0,0,1,.57-.76,10.73,10.73,0,0,1,4.61-2.62c1.29-.35,2.64-.45,3.9-.87a4.45,4.45,0,0,0,2.94-2.51,5.91,5.91,0,0,1-1.92,1.06,39,39,0,0,1-6,1.74c-.59.12-1.19.23-1.77.4a8.32,8.32,0,0,0-3.78,2.44c.24-.41.5-.81.76-1.21a.8.8,0,0,1-1.06.11.63.63,0,0,1,.08-1,5.48,5.48,0,0,1-.48-3.4A2.88,2.88,0,0,0,32,20.67a8.7,8.7,0,0,1-.17-1.37c0-.37.23-.75.24-1.11a3.85,3.85,0,0,0-1.42,2.64.75.75,0,0,1-.25-.31.73.73,0,0,1-.24.31c-.12-.81-.61-2.24-1.43-2.64,0,.36.22.74.25,1.11a11.92,11.92,0,0,1-.17,1.37A2.81,2.81,0,0,0,28.33,19a5.41,5.41,0,0,1-.47,3.4.63.63,0,0,1,.08,1,.82.82,0,0,1-1.07-.11c.27.39.52.8.76,1.21a8.21,8.21,0,0,0-3.78-2.44c-.58-.17-1.17-.28-1.76-.4a38.64,38.64,0,0,1-6-1.74,5.91,5.91,0,0,1-1.92-1.06A4.41,4.41,0,0,0,17.12,21.39Z"/><path class="ff39e0f5-513f-4b7d-be7c-7228a8740183" d="M36,14.77a48,48,0,0,1-5.22-.21l-.43,0-.43,0a48,48,0,0,1-5.22.21c-2.09-.07-4.23-.41-6.24.15l4.14.53a16,16,0,0,0,2.59.19c.72,0,1.44-.14,2.16-.19a25,25,0,0,1,3,0,25,25,0,0,1,3,0c.72.05,1.44.17,2.16.19a16,16,0,0,0,2.59-.19l4.14-.53C40.22,14.36,38.09,14.71,36,14.77Z"/><path class="ff39e0f5-513f-4b7d-be7c-7228a8740183" d="M33.22,16.77c-.95,0-1.91,0-2.87,0s-1.92,0-2.88,0-2,.06-3,.1l-5.12.22c2.84.67,5.81.1,8.72.15.77,0,1.53.11,2.3.17s1.53-.15,2.3-.17c2.91,0,5.88.52,8.72-.15l-5.12-.22C35.24,16.82,34.23,16.78,33.22,16.77Z"/><path class="ff39e0f5-513f-4b7d-be7c-7228a8740183" d="M24.66,13.36c.87-.06,1.74-.23,2.61-.29.66-.05,1.31,0,2,0h2.24c.65,0,1.3,0,2,0,.87.06,1.74.23,2.61.29a21.3,21.3,0,0,0,2.65,0l4.54-.24a5.41,5.41,0,0,0-1.65-.36c-.62-.07-1.23-.11-1.85-.14-1.25-.06-2.49-.06-3.74,0-1.88,0-3.76,0-5.64-.07-1.88.09-3.76.08-5.64.07-1.24,0-2.49,0-3.74,0-.62,0-1.23.07-1.85.14a5.19,5.19,0,0,0-1.65.36l4.54.24A21.3,21.3,0,0,0,24.66,13.36Z"/><path class="e77f8603-4e5a-4d13-a920-ec9eb39922a6" d="M30.31,0c-.37,0-.74.06-1.1.09-.74.06-1.48.14-2.22.23a37.49,37.49,0,0,0-4.34.75,20.82,20.82,0,0,0-7.1,3.07,15.67,15.67,0,0,0-5,5.74A20.65,20.65,0,0,0,8.8,15a.28.28,0,0,0,0,.13c-.17.8-.29,1.6-.38,2.41l-.09.88L8,17.83c-.31-.51-.65-1-1-1.48a19.09,19.09,0,0,0-2.37-2.63c-.44-.4-.9-.77-1.37-1.13-.23-.17-.46-.33-.7-.48a.81.81,0,0,0-.45-.18.53.53,0,0,0-.42.27,1.52,1.52,0,0,0-.16.4c-.06.17-.11.33-.16.49-.1.31-.2.63-.29.95-.18.65-.34,1.3-.48,2A23,23,0,0,0,.2,24,17.74,17.74,0,0,0,2.83,31.1c1.26,2,3,3.94,5.44,4.43a7,7,0,0,0,.8.11c.12.23.24.45.37.67a9.33,9.33,0,0,0,4.39,4.1l.49.17a8.18,8.18,0,0,0,1.28,2.74.29.29,0,0,0,.5,0,12.82,12.82,0,0,0,.92-1.5,8.44,8.44,0,0,0,2.12,3.51,5.45,5.45,0,0,0,1.11.79.29.29,0,0,0,.43-.25,20.51,20.51,0,0,1,.72-4.41A20.08,20.08,0,0,0,23.12,44a.3.3,0,0,0,.41,0c.7-.9,1.47-1.74,2.19-2.63.51,1,1.11,2,1.63,3.09a.29.29,0,0,0,.5,0,23.58,23.58,0,0,1,1.55-2.16,9.66,9.66,0,0,0,.75,1.17.28.28,0,0,0,.4,0,9.66,9.66,0,0,0,.75-1.17,21.81,21.81,0,0,1,1.55,2.16.29.29,0,0,0,.5,0c.52-1,1.12-2,1.64-3.09.71.89,1.48,1.73,2.18,2.63a.3.3,0,0,0,.41,0,20.08,20.08,0,0,0,1.72-2.56A20.51,20.51,0,0,1,40,45.87a.29.29,0,0,0,.43.25,7,7,0,0,0,3-3.7c.09-.2.16-.4.23-.6a12.82,12.82,0,0,0,.92,1.5.28.28,0,0,0,.49,0,8,8,0,0,0,1.29-2.75,8.26,8.26,0,0,0,4.07-3,12.41,12.41,0,0,0,1.18-1.91c2.44-.18,4.36-1.87,5.74-3.78a17.86,17.86,0,0,0,3-6.94,22,22,0,0,0,0-8,30.64,30.64,0,0,0-1-3.89l-.15-.46a1.38,1.38,0,0,0-.19-.43.47.47,0,0,0-.36-.23.7.7,0,0,0-.49.17,16,16,0,0,0-1.41,1,19.17,19.17,0,0,0-4.38,5.27c0-.31,0-.62-.09-.92-.08-.72-.18-1.43-.32-2.14l-.06-.3a21.65,21.65,0,0,0-1-3.44A16.58,16.58,0,0,0,46.6,5.28,18.61,18.61,0,0,0,40,1.62,37.44,37.44,0,0,0,31.44.09,10.75,10.75,0,0,0,30.31,0Zm.08.58c.35,0,.7.05,1.05.08.73.06,1.46.14,2.18.22a35.64,35.64,0,0,1,4.23.74,20.54,20.54,0,0,1,6.92,3,15.05,15.05,0,0,1,4.81,5.55c.3.58.56,1.17.8,1.77A29.18,29.18,0,0,1,48,13.78a15.19,15.19,0,0,0-5.07-4.12,11.67,11.67,0,0,0-5.47-1.27,11.35,11.35,0,0,0-6,1.94,10.07,10.07,0,0,0-1,.78,11.58,11.58,0,0,0-5.51-2.57,11.19,11.19,0,0,0-5.76.57,15,15,0,0,0-6.33,4.67,29.18,29.18,0,0,1-2.43-1.88l0-.1a15.9,15.9,0,0,1,4.15-6.11A18.06,18.06,0,0,1,21,2.14,37.24,37.24,0,0,1,29.3.66,10,10,0,0,1,30.39.58ZM23.16,9A10.91,10.91,0,0,1,29,10.78a11.57,11.57,0,0,1,1.18.91.3.3,0,0,0,.41,0,11.1,11.1,0,0,1,5.53-2.61,10.66,10.66,0,0,1,5.53.64,14.7,14.7,0,0,1,7.8,7.52,15,15,0,0,1,1,3.05A6.22,6.22,0,0,1,50.61,22a11.12,11.12,0,0,1-.34,1.6A7.62,7.62,0,0,0,50,25.24,15.1,15.1,0,0,0,50,27a16.08,16.08,0,0,0,.64,3.43,14,14,0,0,1,.94,3,4.69,4.69,0,0,1-.94,2.73A8.3,8.3,0,0,1,46.3,40c-2.13.71-4.41.33-6.59.1A17.54,17.54,0,0,0,36.39,40a14.43,14.43,0,0,0-3.44.72l-.9.32,0,0a2,2,0,0,0,.49-.61,2.6,2.6,0,0,1,.36-.3,4.8,4.8,0,0,1,2.61-.37c.78,0,1.76,0,2.13-.86a2.3,2.3,0,0,0,.09-1.42.64.64,0,0,0,0-.07,2.3,2.3,0,0,0-.57-1.18,1.78,1.78,0,0,0-2.25,0s0,0,0,0c.59.09,1.5,0,1.89.55a2.64,2.64,0,0,1,.4,1.52,1,1,0,0,1-.07.25.92.92,0,0,1-.76.49,6.62,6.62,0,0,1-1.18,0,6,6,0,0,0-2.16.23,3.9,3.9,0,0,0,.18-.67,4,4,0,0,0-.43-2.94,0,0,0,0,0-.07,0,5.54,5.54,0,0,1-.12,2.94A10.68,10.68,0,0,1,32.06,40l-.07.12a6.5,6.5,0,0,0-.68,1c-.33.55-.61,1.16-1,1.68a22.88,22.88,0,0,0-1.66-2.67.31.31,0,0,0-.05-.1,9.32,9.32,0,0,1-.55-1.31,5.58,5.58,0,0,1-.12-3,0,0,0,0,0-.08,0,4.07,4.07,0,0,0-.43,2.94,5.27,5.27,0,0,0,.19.68l-.29-.1a5.31,5.31,0,0,0-1.49-.13c-.43,0-.87,0-1.31,0a1.28,1.28,0,0,1-.9-.32,1,1,0,0,1-.19-.44,2.69,2.69,0,0,1,.4-1.52c.39-.53,1.31-.46,1.9-.55,0,0,0,0,0,0a1.78,1.78,0,0,0-2.25-.05A2.37,2.37,0,0,0,23,37.35a2.48,2.48,0,0,0,0,1.18,1.34,1.34,0,0,0,.74.94,2.83,2.83,0,0,0,1.19.22c.49,0,1,0,1.48,0a3,3,0,0,1,1.22.24,2.11,2.11,0,0,1,.56.42,2.07,2.07,0,0,0,.51.62l0,0A19.65,19.65,0,0,0,26,40.2,13.49,13.49,0,0,0,22.62,40c-2.23.11-4.46.62-6.69.38a7.48,7.48,0,0,1-5.1-3,10.75,10.75,0,0,1-1.5-2.55,3,3,0,0,1-.22-1.42,6.81,6.81,0,0,1,.42-1.53,18.12,18.12,0,0,0,.94-3.15,15.91,15.91,0,0,0,.24-3.51c-.06-1.12-.56-2.16-.63-3.27a6.7,6.7,0,0,1,.21-1.72c.13-.56.29-1.11.47-1.65a14.91,14.91,0,0,1,7.12-8.29A11.19,11.19,0,0,1,23.16,9Zm27.43,3.51A20.74,20.74,0,0,1,51.32,15a6.58,6.58,0,0,1-.83.67,6.15,6.15,0,0,1-.93.55,16.11,16.11,0,0,0-1.26-2C49.09,13.69,49.85,13.1,50.59,12.47Zm-40.48,0c.74.62,1.5,1.21,2.29,1.76a15.09,15.09,0,0,0-1.27,2,7.21,7.21,0,0,1-.92-.55A5.44,5.44,0,0,1,9.37,15,20.49,20.49,0,0,1,10.11,12.48Zm48.44,0s0,0,0,0l.09.22-.06-.17,0-.06,0,0c.13.41.1.37,0,.25a.25.25,0,0,1,0,.07,29.94,29.94,0,0,1,1,3.72,21.78,21.78,0,0,1,.25,7.51,17.53,17.53,0,0,1-2.53,6.73c-1.17,1.86-2.82,3.69-5.06,4.17l-.43.08.08-.2a3.38,3.38,0,0,0,.2-1.44,6.82,6.82,0,0,0-.42-1.61c-.07-.17-.12-.34-.18-.51a3.07,3.07,0,0,0,1.62,1.92c1.56.65,3.22-1,3.18-2.51a1.72,1.72,0,0,0-1.76-1.77,1.6,1.6,0,0,0-1.14.64,1.42,1.42,0,0,0-.08,1.51.24.24,0,0,0,.46-.13c-.14-.56-.09-1.12.55-1.31a1,1,0,0,1,1.21.77,2,2,0,0,1-.68,1.83c-1.6,1.46-2.71-.92-3-2.23a9.6,9.6,0,0,1,.6-5.67,31.65,31.65,0,0,1,2.75-4.57,13.11,13.11,0,0,0,1.92-4.24A23.05,23.05,0,0,1,58,26.05c0,.17.21.24.25.07a16.91,16.91,0,0,0,.5-5.88,24.08,24.08,0,0,0-1.34-5.74c-.07-.21-.45-.27-.49,0C56.51,17,55.11,19,53.75,21a13.21,13.21,0,0,0-2.63,6.58,10,10,0,0,0,.39,3.54,17.3,17.3,0,0,1-.73-2.58,13.39,13.39,0,0,1-.2-3.63c.1-.88.44-1.73.56-2.61.21-.44.41-.88.61-1.32s.47-.94.66-1.42l0,0a18.89,18.89,0,0,1,4-5.36,13.78,13.78,0,0,1,1.25-1c.22-.17.44-.33.67-.48l.16-.11h0S58.56,12.49,58.55,12.49Zm-56.44,0h0l.17.12a15,15,0,0,1,1.29,1,18.76,18.76,0,0,1,4.27,5.19c.13.23.26.47.38.71,0,0,0,0,0,0s.15.32.23.49c.29.63.58,1.27.88,1.9,0,.12.11.24.16.35a9.59,9.59,0,0,0,.2,1A11.33,11.33,0,0,1,10.12,25a13.07,13.07,0,0,1,0,1.77,14.58,14.58,0,0,1-.66,3.59,15.19,15.19,0,0,0-.93,3.06A3.51,3.51,0,0,0,8.8,35a7.73,7.73,0,0,1-5-3.52A17.55,17.55,0,0,1,1,25a21,21,0,0,1-.08-7.5,29.5,29.5,0,0,1,.86-3.72c.09-.31.19-.62.29-.92Zm42.28,1.74a4.55,4.55,0,0,0-.53,0l-.56.08c-.23,0-.29.44-.07.53A3.64,3.64,0,0,1,44.9,16a1.1,1.1,0,0,1-.06,1.47,3.44,3.44,0,0,1-1.56.69c-.79.22-1.58.43-2.38.62a17.66,17.66,0,0,0-4.21,1.28,9.48,9.48,0,0,0-2.85,2.3,9.11,9.11,0,0,0-1.71,3.11,2.39,2.39,0,0,1-.15-.76.29.29,0,0,0-.58,0A5.06,5.06,0,0,0,32.22,27a3.51,3.51,0,0,1,.46,1.2,4,4,0,0,1-.08,1.29c-.08.46-.18.91-.23,1.37A10.45,10.45,0,0,1,32.2,32a3,3,0,0,0-.11.94,1.45,1.45,0,0,0,.41.9c.3.32.69.54,1,.83a1.52,1.52,0,0,1,.6.91.3.3,0,0,0,.28.29.29.29,0,0,0,.29-.29c-.07-.83-.76-1.34-1.38-1.81a1.6,1.6,0,0,1-.61-.66,1.52,1.52,0,0,1,0-.79c.07-.36.16-.72.2-1.09s.11-.88.2-1.32a6.72,6.72,0,0,0,.16-1.34A3.37,3.37,0,0,0,33,27.17c-.14-.3-.31-.59-.46-.88a.59.59,0,0,0,0-.08,4.81,4.81,0,0,1,1-1.65,7.52,7.52,0,0,1,1.84-1.43,17,17,0,0,1,4.88-1.57c.92-.2,1.84-.38,2.74-.64a10.48,10.48,0,0,0,2.45-1,4.24,4.24,0,0,0,1.71-1.65,3,3,0,0,0,.27-2.25A2.92,2.92,0,0,0,44.39,14.28Zm-28,0a3.11,3.11,0,0,0-2.82,1.25,2.7,2.7,0,0,0-.21,2.22,3.88,3.88,0,0,0,1.46,1.9A8.22,8.22,0,0,0,17,20.72a26.32,26.32,0,0,0,2.75.69,22.2,22.2,0,0,1,5,1.44,7.73,7.73,0,0,1,2,1.35,5.05,5.05,0,0,1,1.36,2,.59.59,0,0,0,0,.08l-.32.59a3.64,3.64,0,0,0-.44,1.3,4.58,4.58,0,0,0,.07,1.38c.07.43.18.87.23,1.31a9.33,9.33,0,0,0,.18,1.18,2.81,2.81,0,0,1,.1.86c0,.05,0,0,0,.05a.52.52,0,0,1,0,.11.4.4,0,0,1-.08.16,1.38,1.38,0,0,1-.3.34c-.67.53-1.54,1-1.62,2a.3.3,0,0,0,.29.29.3.3,0,0,0,.29-.29,1.35,1.35,0,0,1,.49-.81A8.87,8.87,0,0,1,28,34a1.67,1.67,0,0,0,.6-.85,2.27,2.27,0,0,0,0-1,8.63,8.63,0,0,1-.19-1c-.06-.47-.12-.92-.21-1.38A7.11,7.11,0,0,1,28,28.54a3,3,0,0,1,.33-1.24c.2-.4.44-.78.63-1.18a3.51,3.51,0,0,0,.34-1.38.29.29,0,0,0-.57,0,2.45,2.45,0,0,1-.15.77,9.36,9.36,0,0,0-4.18-5.21,8.86,8.86,0,0,0-1.75-.79c-.75-.24-1.52-.4-2.29-.57s-1.57-.38-2.35-.59a6.88,6.88,0,0,1-1.84-.62,1.28,1.28,0,0,1-.55-.58,1.07,1.07,0,0,1,.06-.91,3.32,3.32,0,0,1,1.8-1.3c.22-.09.16-.48-.08-.53A5.92,5.92,0,0,0,16.34,14.28Zm-12.76,0a.31.31,0,0,0-.26.18A24,24,0,0,0,2,20.23a17.44,17.44,0,0,0,.5,5.89c0,.17.28.09.26-.07a22.91,22.91,0,0,1,.73-10.53c.69,3.05,3,5.35,4.35,8.11a9.83,9.83,0,0,1,1.06,5.53c-.14,1.2-.84,4.25-2.68,3.37a2.14,2.14,0,0,1-1.15-1.77,1.12,1.12,0,0,1,.79-1.18,1,1,0,0,1,.92.34,1.11,1.11,0,0,1,.09,1,.24.24,0,0,0,.46.13A1.46,1.46,0,0,0,6.42,29a1.59,1.59,0,0,0-2,1.15A2.6,2.6,0,0,0,7,33.34c2.09-.2,2.57-3.17,2.63-4.8a11.6,11.6,0,0,0-2.14-6.77C6,19.46,4.23,17.3,3.81,14.5A.2.2,0,0,0,3.58,14.32Zm12.72.53a3,3,0,0,0-.92.77,1.74,1.74,0,0,0-.23,1.9,2.55,2.55,0,0,0,1.47,1c.73.25,1.5.43,2.25.61l2.4.57a10.62,10.62,0,0,1,2.05.65,9,9,0,0,1,3.78,3.3A8.91,8.91,0,0,0,26,22.85a14.78,14.78,0,0,0-4.61-1.69,26.79,26.79,0,0,1-5.17-1.37,5,5,0,0,1-1.87-1.32,2.6,2.6,0,0,1-.58-1.91,1.84,1.84,0,0,1,1.11-1.45A3.46,3.46,0,0,1,16.3,14.85Zm28.1,0a2.39,2.39,0,0,1,2.41,1.21,2.32,2.32,0,0,1-.17,2A3.83,3.83,0,0,1,45,19.53a10.71,10.71,0,0,1-2.35.88c-.88.24-1.79.42-2.69.61a18,18,0,0,0-4.76,1.53,8.59,8.59,0,0,0-1.6,1.1A8.94,8.94,0,0,1,37,20.58a18.58,18.58,0,0,1,4.27-1.27c.8-.2,1.6-.4,2.4-.63a3.55,3.55,0,0,0,1.62-.81,1.66,1.66,0,0,0,.2-2A2.73,2.73,0,0,0,44.4,14.86Zm-35.16.83c.21.17.43.34.65.49a7,7,0,0,0,1,.59,0,0,0,0,0,0,0,14.63,14.63,0,0,0-.72,1.84,12.51,12.51,0,0,1-1.2-.8l0-.29C9,16.92,9.12,16.3,9.24,15.69Zm42.21,0c.12.62.22,1.26.29,1.89a2.11,2.11,0,0,0,0,.25c-.39.29-.79.55-1.2.8-.07-.2-.13-.4-.21-.6a11.58,11.58,0,0,0-.53-1.26,8.33,8.33,0,0,0,1-.59A7.73,7.73,0,0,0,51.45,15.69Zm-22.6,2.59s-.05,0,0,0a20.73,20.73,0,0,1,.25,4,4.27,4.27,0,0,1-.29,1.06,3.08,3.08,0,0,0-.3.76c0,.11.13.17.22.12a2.44,2.44,0,0,0,1-1.8,7.12,7.12,0,0,0-.74-4.18A0,0,0,0,0,28.85,18.28Zm3,0a0,0,0,0,0-.06,0,7.12,7.12,0,0,0-.74,4.18,2.44,2.44,0,0,0,1,1.8c.09,0,.24,0,.22-.13a2.53,2.53,0,0,0-.29-.71,4.59,4.59,0,0,1-.3-1.1,20.73,20.73,0,0,1,.25-4A0,0,0,0,0,31.85,18.28Zm-4,.1a.13.13,0,0,0-.09.19,2.94,2.94,0,0,1,.44,1.22,4.71,4.71,0,0,1,0,.75,4.09,4.09,0,0,1-.34,1.81s0,.1.08.06a3.49,3.49,0,0,0,.59-1.94c.08-.7.1-1.63-.56-2.07A.13.13,0,0,0,27.81,18.38Zm5.08,0a.1.1,0,0,0-.07,0c-.67.44-.65,1.37-.57,2.07a3.49,3.49,0,0,0,.59,1.94s.11,0,.08-.06a4.12,4.12,0,0,1-.35-1.81,6.27,6.27,0,0,1,0-.75A2.94,2.94,0,0,1,33,18.57.13.13,0,0,0,32.89,18.38Zm-24,.12c.35.24.71.48,1.08.69-.06.21-.12.42-.17.63-.09.38-.17.77-.23,1.16a2,2,0,0,0-.1-.21c-.14-.32-.29-.63-.43-.95l-.17-.35,0-.1a.24.24,0,0,0,0-.08v0c0,.05,0,0,0,0a.53.53,0,0,0,0-.13c0-.18,0-.36,0-.54Zm42.94,0c0,.05,0,.11,0,.17s0,.34,0,.5,0,.11,0,.13v0l0,0a.14.14,0,0,0,0,.07s0,.08-.06.11-.11.24-.17.36L51.14,21c-.06-.39-.14-.78-.23-1.15-.06-.21-.11-.43-.17-.64A12.32,12.32,0,0,0,51.82,18.5ZM11.74,21.8a.29.29,0,0,0-.29.29,22.23,22.23,0,0,0,.68,4.36,12.4,12.4,0,0,0,1.8,4.13,7.16,7.16,0,0,0,1.64,1.61,6.44,6.44,0,0,0,2,.92,6.9,6.9,0,0,0,1.36.23l-.83.1a10.32,10.32,0,0,1-3.54-.35,10.86,10.86,0,0,1-1.74-.69c-.56-.28-1.05-.66-1.59-.94-.16-.09-.29.1-.19.24a6.67,6.67,0,0,0,3.3,1.85,10.21,10.21,0,0,0,3.85.36,11.32,11.32,0,0,0,3.58-1l.14-.06a10.31,10.31,0,0,0,3.06-2l.19-.17A12.38,12.38,0,0,1,21,35a10.2,10.2,0,0,1-3.19,1.25,10.12,10.12,0,0,1-3.68,0,.18.18,0,0,0-.09.34c2.31.9,5.11.17,7.17-1a11.35,11.35,0,0,0,4.9-5.81.24.24,0,0,0,0-.22,10.86,10.86,0,0,0-3.57-5.1A11,11,0,0,0,16.45,22C14.89,21.8,13.31,21.83,11.74,21.8ZM49,21.8c-1.39,0-2.79,0-4.18.11a12,12,0,0,0-3.56.7,11.36,11.36,0,0,0-5,3.74,10.59,10.59,0,0,0-1.63,3.08v0a.24.24,0,0,0,0,.22,11.46,11.46,0,0,0,4.9,5.82c2.06,1.19,4.86,1.91,7.17,1a.18.18,0,0,0-.09-.34,10.31,10.31,0,0,1-3.59,0A10.17,10.17,0,0,1,39.7,35a12.44,12.44,0,0,1-4.17-4.24l.21.17a10.67,10.67,0,0,0,2.49,1.75c.22.1.43.2.65.28a11.27,11.27,0,0,0,3.62,1,10.42,10.42,0,0,0,3.85-.36,6.76,6.76,0,0,0,3.3-1.86.16.16,0,0,0-.19-.24c-.52.27-1,.63-1.5.9a10.65,10.65,0,0,1-1.75.7,9.84,9.84,0,0,1-3.62.38,7.9,7.9,0,0,1-.85-.11,6.61,6.61,0,0,0,.88-.11A6.55,6.55,0,0,0,46.42,31a10.75,10.75,0,0,0,2-4.05,22.36,22.36,0,0,0,.83-4.87A.29.29,0,0,0,49,21.8Zm-36.91.58c1.25,0,2.5,0,3.75.1a11.78,11.78,0,0,1,3.44.66A10.62,10.62,0,0,1,24,26.66a9.87,9.87,0,0,1,1.52,2.82,11.12,11.12,0,0,1-3.3,2.64,6.33,6.33,0,0,1-4,.54,6.42,6.42,0,0,1-1.94-.73,6.12,6.12,0,0,1-1.59-1.37,10.45,10.45,0,0,1-1.85-3.84A21.9,21.9,0,0,1,12.05,22.38Zm36.6,0A20.39,20.39,0,0,1,48,26.26a11.82,11.82,0,0,1-1.68,3.91A6.06,6.06,0,0,1,43,32.54a6.34,6.34,0,0,1-4.08-.21,10.61,10.61,0,0,1-3.76-2.85,10.55,10.55,0,0,1,5.93-6.2,11.2,11.2,0,0,1,3.29-.77C45.8,22.4,47.23,22.41,48.65,22.38ZM23.25,40.51a2.46,2.46,0,0,0,.08,1.61s0,0,0,0a5.1,5.1,0,0,0,.3-1.61l.35,0c.17,0,.33,0,.49,0-.09.18-.13.38-.2.56s-.18.53-.29.78c0,0,0,0,0,0a2.83,2.83,0,0,0,.69-1.34c.26,0,.53.07.79.12-.7.91-1.47,1.75-2.19,2.64A17.42,17.42,0,0,1,21.6,40.6l.54,0a1.9,1.9,0,0,0,.13.51,1.56,1.56,0,0,0,.37.62,0,0,0,0,0,.08,0,3.57,3.57,0,0,0-.14-.71c0-.13,0-.27-.08-.4Zm14.2,0,.75,0a3.14,3.14,0,0,0-.08.4,3.57,3.57,0,0,0-.14.71,0,0,0,0,0,.08,0,1.43,1.43,0,0,0,.36-.62,1.37,1.37,0,0,0,.13-.51l.55,0a18.17,18.17,0,0,1-1.73,2.75c-.72-.89-1.49-1.73-2.19-2.64.26-.05.53-.09.79-.12a2.74,2.74,0,0,0,.69,1.34s0,0,0,0c-.1-.25-.19-.52-.28-.78a3.62,3.62,0,0,0-.2-.55c.28,0,.56,0,.83,0a5.41,5.41,0,0,0,.31,1.6s0,0,0,0A2.43,2.43,0,0,0,37.45,40.52ZM21,40.66a21.53,21.53,0,0,0-.89,4.71,6.6,6.6,0,0,1-2.35-3.15c-.17-.41-.31-.82-.44-1.24h.35a4,4,0,0,0,.19.7,2.85,2.85,0,0,0,.41.84s.1,0,.09,0c-.08-.32-.19-.62-.28-.94S18,41.14,18,41l.94-.07A6.13,6.13,0,0,0,19,42.43a6.31,6.31,0,0,0,.63,1.94s.08,0,.07,0a13.32,13.32,0,0,1-.38-2.06c-.06-.47,0-1,0-1.43l.89-.1c0,.52,0,1-.08,1.57,0,0,0,0,0,0a4.36,4.36,0,0,0,.33-1.6h.06Zm18.64,0,.57.06a4.16,4.16,0,0,0,.33,1.6,0,0,0,1,0,0,0c-.06-.52-.05-1-.09-1.57l.9.1c0,.47,0,1,0,1.43A14.36,14.36,0,0,1,41,44.34a0,0,0,0,0,.06,0,6.61,6.61,0,0,0,.64-1.94,6.08,6.08,0,0,0,.09-1.54l.94.06c0,.19-.08.39-.14.58s-.21.62-.28.94c0,.05,0,.07.08,0a2.65,2.65,0,0,0,.42-.84A4,4,0,0,0,43,41h.34a8.59,8.59,0,0,1-2.16,3.91,5,5,0,0,1-.62.49A21.61,21.61,0,0,0,39.67,40.66Zm6.06.09A7.68,7.68,0,0,1,45,42.41l-.15.25a12.3,12.3,0,0,1-1-1.7h.31v0a1.94,1.94,0,0,0,.07.33c0,.05.11,0,.1,0s0-.22,0-.34h0l.3,0a2,2,0,0,0,0,.49c0,.2,0,.39,0,.58s.1.07.12,0a1.37,1.37,0,0,0,0-1.12l.43-.06c0,.18-.06.37-.09.55s0,.06.07,0a1.7,1.7,0,0,0,.21-.61ZM15,40.75l.23,0a1.48,1.48,0,0,0,.21.61s.08,0,.07,0-.07-.36-.09-.54l.43.06a1.34,1.34,0,0,0,0,1.11c0,.05.11,0,.11,0l.06-.58a2.81,2.81,0,0,0,0-.5l.3,0h0c0,.11,0,.22,0,.34s.09.07.1,0,0-.22.07-.33v0l.31,0a14,14,0,0,1-1,1.69A7.37,7.37,0,0,1,15,40.75Zm19.64.07c-.47,1-1,2-1.53,2.92-.45-.67-1-1.27-1.45-1.94h0l.49-.19a2.3,2.3,0,0,0,.06.28,2.38,2.38,0,0,0,.18.51s.09,0,.09,0a4.61,4.61,0,0,0,0-.52,1.31,1.31,0,0,0,0-.34l.4-.14a5.82,5.82,0,0,0,.05.6c0,.32.06.63.11.95a0,0,0,0,0,.08,0,2.58,2.58,0,0,0,.15-1,2.29,2.29,0,0,0-.08-.64l.56-.17a1.23,1.23,0,0,0,0,.19,4.4,4.4,0,0,1-.07.73s0,0,0,0A2.52,2.52,0,0,0,34,41Zm-8.52,0,.63.16c0,.34.26.75.37,1,0,0,0,0,0,0a6.15,6.15,0,0,1-.06-.74c0-.06,0-.13,0-.19l.48.15.08,0a2.59,2.59,0,0,0-.09.63,2.64,2.64,0,0,0,.16,1s.08,0,.08,0c0-.32.08-.63.1-.95a5.8,5.8,0,0,0,.06-.6l.39.14a1.3,1.3,0,0,0,0,.34,4.67,4.67,0,0,0,0,.52.06.06,0,0,0,.1,0,3.09,3.09,0,0,0,.18-.51,2.8,2.8,0,0,0,.06-.28l.48.19h0c-.45.67-1,1.27-1.44,1.94C27.11,42.77,26.56,41.82,26.09,40.83Z"/></g></g></g></svg>