<svg xmlns="http://www.w3.org/2000/svg" xmlns:xlink="http://www.w3.org/1999/xlink" viewBox="0 0 100.7 99.88"><defs><style>.b75f32ea-9939-4b6f-b230-9884adbd1cdd{stroke:#33102e;fill:url(#b36407eb-5705-4adb-bfbf-402e624e878e);}.a8b0a3d5-4859-4427-927c-46ab41b730a7,.ae39f566-452b-41ad-a8ae-74966ae0a7ed,.b1c6821f-8d0a-49ab-9874-d0e89175e156,.b75f32ea-9939-4b6f-b230-9884adbd1cdd,.e1e187cc-f13f-4e9b-a05d-2de3a2d596ed,.ef4807b9-86a3-4764-982b-14e7befd23a3,.f33e7dab-15e7-44c6-bcad-1e2ac8ed1acb,.fa8a3b96-997c-4b44-af31-39a93be5bd01{stroke-linecap:round;stroke-linejoin:round;stroke-width:1.05px;}.e1e187cc-f13f-4e9b-a05d-2de3a2d596ed,.f33e7dab-15e7-44c6-bcad-1e2ac8ed1acb,.fa8a3b96-997c-4b44-af31-39a93be5bd01{fill:#fff;}.e1e187cc-f13f-4e9b-a05d-2de3a2d596ed{stroke:#cdc5c6;}.fa8a3b96-997c-4b44-af31-39a93be5bd01{stroke:#eae8e3;}.f33e7dab-15e7-44c6-bcad-1e2ac8ed1acb{stroke:#d2cccb;}.b1c6821f-8d0a-49ab-9874-d0e89175e156{fill:#3f1436;stroke:#3f1436;}.ae39f566-452b-41ad-a8ae-74966ae0a7ed{fill:#d55c13;stroke:#d55c13;}.ef4807b9-86a3-4764-982b-14e7befd23a3{fill:#e7e4df;stroke:#e7e4df;}.a8b0a3d5-4859-4427-927c-46ab41b730a7{fill:#f3f2eb;stroke:#f3f2eb;}</style><linearGradient id="b36407eb-5705-4adb-bfbf-402e624e878e" x1="-955.4" y1="343.95" x2="-834.79" y2="220.89" gradientTransform="matrix(1.05, 0, 0, -1.05, 1019.83, 379.61)" gradientUnits="userSpaceOnUse"><stop offset="0" stop-color="#fedf1a"/><stop offset="0.15" stop-color="#fba658"/><stop offset="0.23" stop-color="#f6789c"/><stop offset="0.29" stop-color="#c86bd5"/><stop offset="0.39" stop-color="#9c88db"/><stop offset="0.49" stop-color="#ae9ee2"/><stop offset="0.56" stop-color="#5caee4"/><stop offset="0.65" stop-color="#19d2e3"/><stop offset="0.75" stop-color="#18ddd4"/><stop offset="0.84" stop-color="#2de4ba"/><stop offset="0.89" stop-color="#80efd5"/><stop offset="0.95" stop-color="#62fc6c"/><stop offset="1" stop-color="#62fc6c"/></linearGradient></defs><g id="a955600c-1ac2-40e7-aad8-b9a51658f1a2" data-name="Layer 2"><g id="bd1a97eb-4496-4440-9f35-741832458881" data-name="Layer 1"><g id="ec07de70-d6d9-46cd-8c05-31953d61bacb" data-name="Layer 1"><path class="b75f32ea-9939-4b6f-b230-9884adbd1cdd" d="M69.39,70.67c-6.93,3.46-12.79,12.27-16.8,19-1.47,2.45-3.24,8.21-6.19,8.94-4.8,1.2-10.7.44-15.72.59-4.7.14-10.22.2-14.63.2S7.86,97.94,3.77,97.58c-1.09-.09-2.76.58-3.24-.39C2,95.72,5.68,95.92,7.6,95.71c5.6-.59,11.27-1.25,16.8-2.25,6-1.09,14.76-2.45,18.86-7.57,2.39-3,3.26-7.89,5.3-11.3a47.27,47.27,0,0,1,5.9-7.76c.23-.24,1.85-1.15,1.67-2.06s-2.7-3.1-3.44-4c-1.8-2.25-2.32-5.28-4-7.56-.95-1.27-2-2-2.55-3.63-2.52,0-5.18-.9-7.67-1.28-6.24-1-12.74-1.8-19-1.28,1-1.51,4.25-1.92,5.79-2,2.36-.06,4.72-.1,7.08-.1A47,47,0,0,1,46,47.09c-.54-2.14-2.2-4.45-3-6.58-2.2-5.5-2.55-11.3-2.55-17.19,0-.68.39-5.31,1.57-5.31A67,67,0,0,0,46.7,42.37a10.4,10.4,0,0,0,2.06,3.54c1.9,1.9,2.79-1.17,3.14,3.05,4.49,0,8.22,3.55,12.28,4.91,2.87-5.74,12.25-8.85,17.88-11.1,2.75-1.1,7.11-3.39,7.86-6.39a41.23,41.23,0,0,0-.1-20.14c-.9-3.61-4.31-12.51-3.24-15.71.92.46,2.85,6,3.34,7.27,3.06,7.64,5.25,15.66,7.86,23.47.68,2.07,3.43,7.4,2,9.24-1.61,2-4.4,3.45-6.38,5.11-6.72,5.59-14.48,11.27-18.47,19.25,5.21,0,11.3,5.22,11.3,10.51S76.77,80.73,73.91,79a5.91,5.91,0,0,1-3-4.32c-.06-1.08.39-2.27-.1-3.24C70.69,71.11,69.67,71,69.39,70.67Z"/><path class="e1e187cc-f13f-4e9b-a05d-2de3a2d596ed" d="M68.11,70.08c-.54,1.08-2.6,2-3.54,2.75a38.14,38.14,0,0,0-5.4,5.6,79.13,79.13,0,0,0-8.84,14c-.84,1.69-1.63,4.78-3.73,5.31-5.28,1.32-11.81.72-17.29.88-3.25.1-8.21.2-11.1.2A52.24,52.24,0,0,1,5.73,97.78C18,97.22,30.53,99.42,42.67,97c1.95-.39,3.42-1.89,5.11-2.45,1.34-.45,2.34-4.24,3-5.41C54,83.91,56.05,77.52,60.55,73,62.75,70.82,64.94,66.91,68.11,70.08Z"/><path class="fa8a3b96-997c-4b44-af31-39a93be5bd01" d="M48.07,47.29c.9,0,1.68-.88,2.56,0,.63.63.39,1.45.39,2.16S55,53.71,55.73,54a.44.44,0,0,0,.3,0c.64-.33.78-2.15,1-2.75,1.54,0,.15,3-.29,3.63a23.3,23.3,0,0,0,2.35,1.77c.64-1.27.52-2.36.89-3.73.21-.81,1.08,1.42,1.08,2.25,0,3.67-1.63,1.23,1.57,4.42,1.1-1.09.42-3.26,1.38-4.22,1.47,1.47.74,3.53-.1,5.21a10.5,10.5,0,0,0,2.45,1.86,12.94,12.94,0,0,0,1-4.12c.08-.52,1,.93,1.08,1.18a6.64,6.64,0,0,1-.89,3.93c1.73,1.72,2.09,0,2.26-1.87,1,1,.68,2.47-.1,3.63.6.2,1.07.88,1.67,1.18.15-.28.4-1.92.49-2,1-.5.41,2,.1,2.45a6.27,6.27,0,0,1,1.38,1.08c1-.5.83-1.76,2.45-1.76,4.33,0,12.58,7.16,8.25,11.49-1.82,1.83-9.92,2-9.92.2l-.29-.1v-.3c-.34,0-.3-.19-.3-.49h-.19a9.47,9.47,0,0,0-1.28-3c.22-.45-.22-.93-.29-1.28-.14-.66.23-1.67.09-2.36-.18-.9-1.21-1.15-1.57-1.86a2.3,2.3,0,0,1-1.57.49c0-.42-.28-.25-.1-.79a1.17,1.17,0,0,0,1-.49,3.13,3.13,0,0,1-1.27-1.18c-.91.68-2.61,2-3,.3,2.53-.64,1.32-2.41.69-2.07S60.84,69.34,60.84,66a32.84,32.84,0,0,0,4.32-2.16,11.73,11.73,0,0,0-2.55-2.16c-1.65,1.65-4,3.78-5.5,1.47,1.21-.4,3.48-2.16,4.52-2.16,0-.78-2-1.66-2.46-2.36-.53.43-4.29,4-5.2,2.16-.14-.28-.32-.39-.1-.68.43-.58,4.12-1.23,4.12-2.17s-1.91-1.46-2.26-2.16c-1.22.62-3.34,2.64-4,.59a24.13,24.13,0,0,1,3-1.18c-.57-.85-4-4-5-4-.79,0-1,.33-2,.19-.35-.05-.38-1-.59-1.18C47.28,50,48.07,47.48,48.07,47.29Z"/><path class="f33e7dab-15e7-44c6-bcad-1e2ac8ed1acb" d="M94,21.06c0,5.79,5.6,12.69,5.6,18.66,0,.84-6.1,5-7,5.7A155.12,155.12,0,0,0,78.23,58.19c-1.68,1.68-2.62,4.1-4.22,5.7-1.27-3.8,1.33-6.4,4.32-8.84L93.06,43c2.36-1.93,2.86-2.71,3.54-5.3.18-.71,1.19-.69,1.67-.69a1.13,1.13,0,0,0-.3-1c.22-.43-.26-1.31-.39-1.77C97.08,32.46,93.51,21.94,94,21.06Z"/><path class="b1c6821f-8d0a-49ab-9874-d0e89175e156" d="M80.59,76.36c5.26.33,1.39-7-3.25-7C73.76,69.39,78.11,76.21,80.59,76.36Z"/><path class="ae39f566-452b-41ad-a8ae-74966ae0a7ed" d="M84.61,78.23c.45-.52.8-1.19,1.28-1.67A3.69,3.69,0,0,1,87.27,79C86.3,79.26,85.52,78.23,84.61,78.23Z"/><path class="ef4807b9-86a3-4764-982b-14e7befd23a3" d="M47.88,47.58c-.49.12-1.34-1.37-.69-1.47S48.39,47.45,47.88,47.58Z"/><path class="a8b0a3d5-4859-4427-927c-46ab41b730a7" d="M45.22,42.28c.82.2.78.65.89,1.47C45.44,43.62,44.74,43,45.22,42.28Z"/></g></g></g></svg>