<svg xmlns="http://www.w3.org/2000/svg" viewBox="0 0 182.5 261.02"><defs><style>.af8b9a06-30a1-4cb3-b468-166bafe99a25,.bcbad111-c117-4c97-a65a-f99825082592{fill:#010101;}.aa73cddd-0364-45e2-b0ec-fa01269fd5de{fill:#c72d5a;}.b8c0776c-8ecc-4e05-88e3-cf580a64b6a2,.be83f8f4-dd8d-4f3d-9ba8-9da1f508a024,.fa4d1279-18de-4bc3-bb57-48c5479152ce{fill:none;}.af8b9a06-30a1-4cb3-b468-166bafe99a25,.b8c0776c-8ecc-4e05-88e3-cf580a64b6a2,.fa4d1279-18de-4bc3-bb57-48c5479152ce{stroke:#010101;}.af8b9a06-30a1-4cb3-b468-166bafe99a25,.b8c0776c-8ecc-4e05-88e3-cf580a64b6a2,.be83f8f4-dd8d-4f3d-9ba8-9da1f508a024,.fa4d1279-18de-4bc3-bb57-48c5479152ce{stroke-miterlimit:10;}.b8c0776c-8ecc-4e05-88e3-cf580a64b6a2{stroke-width:4px;}.af8b9a06-30a1-4cb3-b468-166bafe99a25,.fa4d1279-18de-4bc3-bb57-48c5479152ce{stroke-width:2px;}.be83f8f4-dd8d-4f3d-9ba8-9da1f508a024{stroke:#fff;stroke-width:3px;}</style></defs><g id="b141f047-bd46-4895-8860-4af8c6aa23fb" data-name="Layer 2"><g id="f6805ae7-426f-4f80-8257-747187f9f5f7" data-name="Layer 1"><path class="bcbad111-c117-4c97-a65a-f99825082592" d="M161.69,72.94H117.85c-4.29-4.32-8.44-9-10.27-14.93q-.12-.35-.21-.69a29.61,29.61,0,1,0-33-.3c-.62,4-1.3,8-4.26,11-1.5,1.7-3.08,3.34-4.72,4.9H20.83A20.7,20.7,0,0,0,0,93.53V239.47a20.71,20.71,0,0,0,20.83,20.59h49.7v-.13a8.83,8.83,0,0,1-1.06-1.45c-.11-.16-.2-.31-.3-.47a1,1,0,0,0-.13-.32c0-.1-.14-.14-.13-.09l.18.29a29.58,29.58,0,1,1,54.54-15.84,28.47,28.47,0,0,1-5,16.32.17.17,0,0,1,0,.1,19.39,19.39,0,0,1-1.17,1.68h44.33a20.71,20.71,0,0,0,20.72-20.68V93.53A20.7,20.7,0,0,0,161.69,72.94Z"/><path class="aa73cddd-0364-45e2-b0ec-fa01269fd5de" d="M.08,244.67a18.21,18.21,0,0,0,16.28,15.68s53.11-.24,52.78-.86c-4.8-7.88-6.59-17.79-3.79-26.58,3.37-10.6,13.45-18.63,24.5-19.93a30.23,30.23,0,0,1,27.8,48s48-.72,48.17-1a20.15,20.15,0,0,0,16.44-16.51s-.58-154.25-.87-154.47A21.14,21.14,0,0,0,163.88,72.2s-45.88.09-46,0a31.81,31.81,0,0,1-9-12.41c11.6-7.72,17.37-22.93,13.59-36.12S105.54.4,91.5,0s-27.81,9.08-32,22.15S61.15,50.73,73.39,57.7a12.3,12.3,0,0,1-2.22,8.49,36.44,36.44,0,0,1-6.07,6.59s-48-.2-48.42-.08A24.44,24.44,0,0,0,0,87.62"/><path class="b8c0776c-8ecc-4e05-88e3-cf580a64b6a2" d="M0,151.63l181.33-.49L0,151.63"/><line class="b8c0776c-8ecc-4e05-88e3-cf580a64b6a2" x1="0.24" y1="156.5" x2="181.89" y2="156.79"/><path class="fa4d1279-18de-4bc3-bb57-48c5479152ce" d="M91.24,59.59q0,56.54.13,112.75"/><path class="bcbad111-c117-4c97-a65a-f99825082592" d="M103,83.2C99,85.57,94.39,86,89.78,85.55a51.75,51.75,0,0,1-11-1.81A19.89,19.89,0,0,0,92.4,87.79a23.06,23.06,0,0,0,11.49-5.08c.27-.21.53-.43.79-.66A15.15,15.15,0,0,1,103,83.2Z"/><circle class="af8b9a06-30a1-4cb3-b468-166bafe99a25" cx="91.23" cy="33.97" r="25.62"/><g id="a9c1307c-b5f8-4662-a3cf-0a99985b41aa" data-name="Layer 4"><circle class="be83f8f4-dd8d-4f3d-9ba8-9da1f508a024" cx="91.23" cy="33.97" r="15.37"/></g></g></g></svg>