<svg xmlns="http://www.w3.org/2000/svg" xmlns:xlink="http://www.w3.org/1999/xlink" viewBox="0 0 110.75 52.64"><defs><style>.e91af175-ec48-4ca7-8f79-fe769b4bc447{fill:none;}.ff2ca957-72ad-4492-9573-5104a050fe7e{clip-path:url(#bf3a603e-198b-4b8a-b8bc-93b06714ffec);}.fa2238e2-86fc-4f6a-8627-9153ecf5f78c{fill:#dd270b;}.a081c8bd-ab16-4cd6-86c2-60e369a6c0e4,.b68efbd6-6955-4002-8611-8526a6cb8d25,.b6b36a3e-6640-4c3d-94f9-7d0d0ce64eb7,.fa190ae1-a437-43fc-8984-48a57ec7ae51,.fa2238e2-86fc-4f6a-8627-9153ecf5f78c{stroke:#000;stroke-miterlimit:10;stroke-width:0.75px;}.b6b36a3e-6640-4c3d-94f9-7d0d0ce64eb7{fill:#fbd4d9;}.fa190ae1-a437-43fc-8984-48a57ec7ae51{fill:#9c1b06;}.b68efbd6-6955-4002-8611-8526a6cb8d25{fill:#bd1b17;}.a081c8bd-ab16-4cd6-86c2-60e369a6c0e4{fill:#80110f;}</style><clipPath id="bf3a603e-198b-4b8a-b8bc-93b06714ffec" transform="translate(0.59 -94.89)"><path class="e91af175-ec48-4ca7-8f79-fe769b4bc447" d="M97.07,42H70.76c-2.58-2.61-5.07-5.43-6.17-9,0-.14-.09-.28-.13-.42a17.77,17.77,0,1,0-19.82-.18c-.38,2.4-.78,4.81-2.56,6.66-.91,1-1.87,2-2.87,2.94H12.5A12.46,12.46,0,0,0,0,54.44v87.91a12.45,12.45,0,0,0,12.5,12.4H42.34v-.07a5.43,5.43,0,0,1-.63-.88c-.07-.1-.13-.21-.19-.31s-.05-.11-.07-.16-.05-.07-.07-.06a17.77,17.77,0,1,1,32.84-9.37,17.26,17.26,0,0,1-3,9.84v0a12.16,12.16,0,0,1-.71,1H97.12a12.44,12.44,0,0,0,12.44-12.45V54.44A12.44,12.44,0,0,0,97.07,42Z"/></clipPath></defs><g id="bd1b1e27-d962-4ad6-9caf-9fcf0bd53485" data-name="Layer 2"><g id="ac5710f9-4117-4f1b-8caa-2368a5492b12" data-name="Layer 1"><g class="ff2ca957-72ad-4492-9573-5104a050fe7e"><path class="fa2238e2-86fc-4f6a-8627-9153ecf5f78c" d="M-.22,103.91v4a1.43,1.43,0,0,0,0,.29h0l.6.05c.72.07.72.06,2.65.32A76.58,76.58,0,0,1,27.13,116c10.69,5.56,20.45,15,20.5,31a6.55,6.55,0,0,0,1.34.13H60.59a6.65,6.65,0,0,0,1.35-.13c.05-16,9.81-25.46,20.5-31a76.52,76.52,0,0,1,24.06-7.39c1.93-.26,1.94-.25,2.66-.32l.6-.05h0a2.83,2.83,0,0,0,0-.29v-4Z" transform="translate(0.59 -94.89)"/><path class="b6b36a3e-6640-4c3d-94f9-7d0d0ce64eb7" d="M4.7,99.59c0-2.39,3.2-4.33,7.16-4.33S19,97.2,19,99.59Z" transform="translate(0.59 -94.89)"/><path class="b6b36a3e-6640-4c3d-94f9-7d0d0ce64eb7" d="M19,99.59c0-2.39,3.2-4.33,7.15-4.33s7.16,1.94,7.16,4.33Z" transform="translate(0.59 -94.89)"/><path class="b6b36a3e-6640-4c3d-94f9-7d0d0ce64eb7" d="M33.32,99.59c0-2.39,3.2-4.33,7.15-4.33s7.16,1.94,7.16,4.33Z" transform="translate(0.59 -94.89)"/><path class="b6b36a3e-6640-4c3d-94f9-7d0d0ce64eb7" d="M47.63,99.59c0-2.39,3.2-4.33,7.15-4.33s7.16,1.94,7.16,4.33Z" transform="translate(0.59 -94.89)"/><path class="b6b36a3e-6640-4c3d-94f9-7d0d0ce64eb7" d="M61.94,99.59c0-2.39,3.2-4.33,7.15-4.33s7.16,1.94,7.16,4.33Z" transform="translate(0.59 -94.89)"/><path class="b6b36a3e-6640-4c3d-94f9-7d0d0ce64eb7" d="M76.24,99.59c0-2.39,3.21-4.33,7.16-4.33s7.15,1.94,7.15,4.33Z" transform="translate(0.59 -94.89)"/><path class="b6b36a3e-6640-4c3d-94f9-7d0d0ce64eb7" d="M90.55,99.59c0-2.39,3.21-4.33,7.16-4.33s7.15,1.94,7.15,4.33Z" transform="translate(0.59 -94.89)"/><path class="fa190ae1-a437-43fc-8984-48a57ec7ae51" d="M82.44,116a76.52,76.52,0,0,1,24.06-7.39c1.93-.26,1.94-.25,2.66-.32l.6-.05h0a2.83,2.83,0,0,0,0-.29v-4H82.63A21.62,21.62,0,0,1,82.44,116Z" transform="translate(0.59 -94.89)"/><path class="b68efbd6-6955-4002-8611-8526a6cb8d25" d="M109.78,103.91H-.22v-3c0-.74,1-1.33,2.22-1.33H107.57c1.22,0,2.21.59,2.21,1.33v3Z" transform="translate(0.59 -94.89)"/><path class="a081c8bd-ab16-4cd6-86c2-60e369a6c0e4" d="M81,99.59a22,22,0,0,1,1.67,4.32h27.15v-3c0-.74-1-1.33-2.21-1.33Z" transform="translate(0.59 -94.89)"/></g></g></g></svg>