<svg xmlns="http://www.w3.org/2000/svg" xmlns:xlink="http://www.w3.org/1999/xlink" viewBox="0 0 123.38 90.11"><defs><style>.a5d466e0-2a2d-4368-a730-07fab77c731d{fill:none;}.e015ad58-7226-4343-9ee6-b1ce376f399e{clip-path:url(#a13aaa3a-0626-4e7d-93a3-67a576155e6e);}.fc56dc39-96c7-4be9-8f4b-55dc495d8109{fill:#cf1f12;}.ab5f8fd8-8617-4a53-98ae-73ccceebc7d0,.b8e6f423-6dd1-4dc9-9ebb-67e73f280cf6,.bf601a60-e267-4061-9988-0cc2230da306,.e3616cfa-c9ab-4b4c-9922-6cc8c92c0d66,.e4bd61a0-6ca6-4d53-a86f-587c1e55c2d8,.ed2f671a-d4d1-4db1-9ada-e7c0ab635102,.f6926bda-e6ca-4e87-9afb-4f421e4826cc,.fc56dc39-96c7-4be9-8f4b-55dc495d8109,.fda9af34-56bf-4047-a2cb-5dd8b55ea86e{stroke:#362c2c;stroke-miterlimit:10;}.e4bd61a0-6ca6-4d53-a86f-587c1e55c2d8{fill:#7a150d;}.e3616cfa-c9ab-4b4c-9922-6cc8c92c0d66{fill:#2d242e;}.ab5f8fd8-8617-4a53-98ae-73ccceebc7d0{fill:#fff;}.f6926bda-e6ca-4e87-9afb-4f421e4826cc{fill:#a9a9a9;}.fda9af34-56bf-4047-a2cb-5dd8b55ea86e{fill:#acacac;}.ed2f671a-d4d1-4db1-9ada-e7c0ab635102{fill:#ff2a0c;}.bf601a60-e267-4061-9988-0cc2230da306{fill:#ff3721;}</style><clipPath id="a13aaa3a-0626-4e7d-93a3-67a576155e6e" transform="translate(10.37 -39.14)"><path class="a5d466e0-2a2d-4368-a730-07fab77c731d" d="M97.07,42H70.76c-2.58-2.61-5.07-5.43-6.17-9,0-.14-.09-.28-.13-.42a17.77,17.77,0,1,0-19.82-.18c-.38,2.4-.78,4.81-2.56,6.66-.91,1-1.87,2-2.87,2.94H12.5A12.46,12.46,0,0,0,0,54.44v87.91a12.45,12.45,0,0,0,12.5,12.4H42.34v-.07a5.43,5.43,0,0,1-.63-.88c-.07-.1-.13-.21-.19-.31s-.05-.11-.07-.16-.05-.07-.07-.06a17.77,17.77,0,1,1,32.84-9.37,17.26,17.26,0,0,1-3,9.84v0a12.16,12.16,0,0,1-.71,1H97.12a12.44,12.44,0,0,0,12.44-12.45V54.44A12.44,12.44,0,0,0,97.07,42Z"/></clipPath></defs><g id="b42e4cfe-2144-417d-ad5d-8c21188a7efa" data-name="Layer 2"><g id="a5da8eac-93a6-476c-a6c6-9c26cbbf7cb2" data-name="Layer 1"><g class="e015ad58-7226-4343-9ee6-b1ce376f399e"><path class="fc56dc39-96c7-4be9-8f4b-55dc495d8109" d="M-2.08,122.39v4.37c0,1.1,2,2,4.54,2H105.18c2.51,0,4.55-.89,4.55-2v-4.37Z" transform="translate(10.37 -39.14)"/><path class="e4bd61a0-6ca6-4d53-a86f-587c1e55c2d8" d="M85.28,122.39v4.37c0,1.1-5.11,2-11.41,2H98.32c6.3,0,11.41-.89,11.41-2v-4.37Z" transform="translate(10.37 -39.14)"/><path class="e3616cfa-c9ab-4b4c-9922-6cc8c92c0d66" d="M85.31,41.7h-68L-9.87,44.88v73.53c0,2.2,3.8,4,8.49,4H104c4.7,0,8.5-1.78,8.5-4V44.88Z" transform="translate(10.37 -39.14)"/><path class="ab5f8fd8-8617-4a53-98ae-73ccceebc7d0" d="M97,39.8l1.68.42a15.38,15.38,0,0,1,11.86,14.86v52.65a1.68,1.68,0,0,1-1.69,1.66H97V39.8Z" transform="translate(10.37 -39.14)"/><path class="f6926bda-e6ca-4e87-9afb-4f421e4826cc" d="M102.19,42.68a14.46,14.46,0,0,1,4,9.92v55.15a1.7,1.7,0,0,1-1.77,1.64h4.35a1.7,1.7,0,0,0,1.76-1.64V55.87A15,15,0,0,0,102.19,42.68Z" transform="translate(10.37 -39.14)"/><path class="ab5f8fd8-8617-4a53-98ae-73ccceebc7d0" d="M12.72,41.53l-1.58.39A14.71,14.71,0,0,0,0,56.19v50.53a1.59,1.59,0,0,0,1.59,1.59H12.72V41.53Z" transform="translate(10.37 -39.14)"/><path class="fda9af34-56bf-4047-a2cb-5dd8b55ea86e" d="M16.11,39.8a13.79,13.79,0,0,0-3.39,1.52v67h3.39Z" transform="translate(10.37 -39.14)"/><path class="fc56dc39-96c7-4be9-8f4b-55dc495d8109" d="M97,109.39v6.36H106a2,2,0,0,0,2-2v-4.37Z" transform="translate(10.37 -39.14)"/><path class="ed2f671a-d4d1-4db1-9ada-e7c0ab635102" d="M104.29,109.39v4.37a2,2,0,0,1-2,2H106a2,2,0,0,0,2-2v-4.37Z" transform="translate(10.37 -39.14)"/><path class="bf601a60-e267-4061-9988-0cc2230da306" d="M10.94,108.48v6.36H2a2,2,0,0,1-2-2v-4.37Z" transform="translate(10.37 -39.14)"/><path class="fc56dc39-96c7-4be9-8f4b-55dc495d8109" d="M7.11,108.48h3.83v6.36H7.11Z" transform="translate(10.37 -39.14)"/><path class="b8e6f423-6dd1-4dc9-9ebb-67e73f280cf6" d="M90.2,42.68v74.75a4,4,0,0,1-4,4H91.1a4,4,0,0,0,4-4V43.9Z" transform="translate(10.37 -39.14)"/><path class="ab5f8fd8-8617-4a53-98ae-73ccceebc7d0" d="M77.93,101.32v4a1.2,1.2,0,0,1-1.2,1.19H63.22A1.19,1.19,0,0,1,62,105.3v-4a1.19,1.19,0,0,1,1.19-1.19H76.73A1.19,1.19,0,0,1,77.93,101.32Z" transform="translate(10.37 -39.14)"/><path class="ab5f8fd8-8617-4a53-98ae-73ccceebc7d0" d="M33.41,101.32v4a1.19,1.19,0,0,0,1.19,1.19H48.12a1.2,1.2,0,0,0,1.19-1.19v-4a1.19,1.19,0,0,0-1.19-1.19H34.6A1.19,1.19,0,0,0,33.41,101.32Z" transform="translate(10.37 -39.14)"/><path class="ab5f8fd8-8617-4a53-98ae-73ccceebc7d0" d="M49,59.81a2,2,0,1,1-2,2A2,2,0,0,1,49,59.81Z" transform="translate(10.37 -39.14)"/><path class="ab5f8fd8-8617-4a53-98ae-73ccceebc7d0" d="M49,72.93a2,2,0,1,1-2,2A2,2,0,0,1,49,72.93Z" transform="translate(10.37 -39.14)"/><path class="ab5f8fd8-8617-4a53-98ae-73ccceebc7d0" d="M49,86.05a2,2,0,1,1-2,2A2,2,0,0,1,49,86.05Z" transform="translate(10.37 -39.14)"/><path class="ab5f8fd8-8617-4a53-98ae-73ccceebc7d0" d="M57.16,122.39V43.26a1.49,1.49,0,1,0-3,0v79.13Z" transform="translate(10.37 -39.14)"/></g></g></g></svg>