<svg xmlns="http://www.w3.org/2000/svg" viewBox="0 0 34.03 31.8"><defs><style>.b4d79253-b231-4a1b-a899-01676df54491{fill:#211f20;stroke:#211f20;}.b0a174d6-d7c0-46ca-bb22-87e6b75de5f2,.b3dd7748-f630-4a5a-aab9-e3912c176137,.b4d79253-b231-4a1b-a899-01676df54491,.b93f0026-1ad9-4d32-a2cc-4e25fc0fb47e,.bb3cb4b9-da17-40eb-8823-7c0a0b5af9ca,.be6a11c6-ba76-474a-8a49-626ef76d1bed,.be966c33-7e1f-4da2-9c14-ca93dd5307b0,.fdf39bda-3afb-4a89-8307-970c4b97a178{stroke-linecap:round;stroke-linejoin:round;stroke-width:0.21px;}.be6a11c6-ba76-474a-8a49-626ef76d1bed{fill:#222324;stroke:#222324;}.b0a174d6-d7c0-46ca-bb22-87e6b75de5f2{fill:#232223;stroke:#232223;}.fdf39bda-3afb-4a89-8307-970c4b97a178{fill:#f1f1f1;stroke:#f1f1f1;}.b3dd7748-f630-4a5a-aab9-e3912c176137{fill:#fafafa;stroke:#fafafa;}.b93f0026-1ad9-4d32-a2cc-4e25fc0fb47e{fill:#f6f6f6;stroke:#f6f6f6;}.bb3cb4b9-da17-40eb-8823-7c0a0b5af9ca{fill:#242828;stroke:#242828;}.be966c33-7e1f-4da2-9c14-ca93dd5307b0{fill:#222425;stroke:#222425;}</style></defs><g id="fe68fc35-255f-44b1-a261-31ea5a2581ab" data-name="Layer 2"><g id="b12f21bf-88a8-421f-baa6-1713436341b6" data-name="Layer 1"><g id="bd76d13a-7def-4d33-a013-9ec01533b77a" data-name="afcb7c29-80d7-4f1c-b08b-a64977f0da76"><g id="b33630c1-08f9-42a5-95cc-2e07790ef8b0" data-name="b9a64861-a9b4-4ce0-91e3-8a1b31b87fdf"><g id="fac05b96-92a0-4be3-b024-fe620b0c6748" data-name="a5f100bd-3c0e-4d40-9330-685fb90aa0ed"><path class="b4d79253-b231-4a1b-a899-01676df54491" d="M32.79,15.5l-.07.15c.2.11.1,0,.29.22l-.07.15h.14l-.07.14h.15l-.08.15h.15a1,1,0,0,0,.29,1,.91.91,0,0,0-.07.14h.14c0,.91.71,3.25.08,3.88a1.81,1.81,0,0,1-.3,1.31c.29.56-.77,1.94-1.09,2.42a13.54,13.54,0,0,1-8.19,5.77C16.57,32.67,8.33,31.84,2.88,26.4-3.29,20.23,1.59,12.19,10,13.31c3.32.44,6.5,1.64,9.87,2,3.58.35,7.2-1.81,10.67-1.17C31.55,14.3,32,15.12,32.79,15.5Z"/><path class="be6a11c6-ba76-474a-8a49-626ef76d1bed" d="M15,1V1.1c.87,0,1.3,1.46,1.9,1.76L16.85,3c.19.1.14,0,.14.22.25.08.35.12.22.37h.15l-.07.14h.15l-.08.15h.15L17.44,4h.14v.36h.14c-.11.22-.09.1,0,.37h.15c-.1.28-.13.16.07.36l-.07.15H18c0,1,.81,3.14.15,3.8a.69.69,0,0,1,.07.15c-.24.12-.69,1.11-.87,1.31a8.15,8.15,0,0,1-3,1.46C5.2,14.61,1.58,6.36,8.73,1.25a5.76,5.76,0,0,1,4.54-1C13.82.35,14.57,1,15,1Z"/><path class="b0a174d6-d7c0-46ca-bb22-87e6b75de5f2" d="M26.35,2v.14c.27,0,.1,0,.52.08v.14c.65.17,2.19,1.31,2.19,2.05l.22.07-.07.15c.19.1.14,0,.14.22l.22.07-.07.15h.14l-.07.15h.15c-.11.2,0,.58.29.58l-.07.15h.14L30,6.07h.15l-.08.22.15.08-.07.14h.14l-.07.15c.53.26.06,2.37.22,2.7-1,1-1,2-2.78,2.34s-6.54,0-7.67-2.26C18,5.43,22.72,1.46,26.35,2Z"/><path class="fdf39bda-3afb-4a89-8307-970c4b97a178" d="M11.66,14.4c1.05-.09,6.89,1.19,7.31,1.62s.1,2.37.07,2.85c-.15,2.59-1.08,5.48-4.38,4.75-2.6-.58-2.91-4.19-3.08-6.29C11.53,16.6,10.85,14.48,11.66,14.4Z"/><path class="b3dd7748-f630-4a5a-aab9-e3912c176137" d="M26.87,15.14c.25-.09.41,2.24.43,2.56.11,1.44-.05,4.62-2,5.12-3.84.95-6.21-2.86-5.19-6.59.19-.72,1.51-.07,2.26-.07A16,16,0,0,0,26.87,15.14Z"/><path class="b93f0026-1ad9-4d32-a2cc-4e25fc0fb47e" d="M12.6,5.41c2.25-.35,2.45,2.8.88,2.93C11.7,8.49,10.49,5.75,12.6,5.41Z"/><path class="b93f0026-1ad9-4d32-a2cc-4e25fc0fb47e" d="M23.79,5.41c2.25-.35,2.45,2.8.88,2.93C22.89,8.49,21.69,5.75,23.79,5.41Z"/><path class="bb3cb4b9-da17-40eb-8823-7c0a0b5af9ca" d="M16.7,12.36C16.7,11.17,18.65,11,19,12,19.48,13.52,16.7,13.61,16.7,12.36Z"/><path class="be966c33-7e1f-4da2-9c14-ca93dd5307b0" d="M21.31,12.07c.16,1.24-1.83,1.75-1.83.29C19.48,11.4,21.19,11.21,21.31,12.07Z"/></g></g></g></g></g></svg>