<svg xmlns="http://www.w3.org/2000/svg" xmlns:xlink="http://www.w3.org/1999/xlink" viewBox="0 0 68.17 64.09"><defs><style>.af5bc760-04da-4f01-99da-795debf6eb1f,.f54e9494-645e-444e-912d-3d48ea284f5a{fill:#f1f2f2;}.f7943854-a132-4181-bf2a-2bb1598fc92a{fill:#76504d;}.e74a850e-2801-4f58-a63d-582c16a08927{fill:#34bf3f;}.eed74215-60be-4549-a8d5-5b12f3bf6c8c{fill:url(#ecc4f91f-3578-4553-919b-4dc204d0c3f1);}.eff2d1b9-8cf5-4a4c-82bd-d9cc56d2c457{fill:#16172d;}.f4396cbf-9a11-4116-a744-be8548400a48{fill:#484848;}.f54e9494-645e-444e-912d-3d48ea284f5a{fill-opacity:0;}.faa568c2-83bd-4650-b9f9-e7e43c2c5f64{fill:#442726;}.a60583e9-b852-46e4-98ac-68ec4d9aa3cd{fill:#d5f2c7;}.a0d3061d-96f0-4a31-b07e-da89641e45e2{fill:#2a8b32;}.abbed6d5-102e-424e-b2a9-123eb231971b{fill:#469a4d;}.bbad4a77-905e-4503-bd4d-80b9ff2e007c{fill:#8a578e;}.bd95760d-940d-471e-a581-920bce57540c{fill:#89cd8e;}.bb8aeeac-ef2c-4327-9593-8739e968e5a2{fill:#47974d;}.b8df23eb-c1bc-4ed0-80f2-b767b7092b39{fill:#8bc990;}.a1d56c0c-9554-4e3b-9fa0-71bf96c2cbdc{fill:#3a3e6d;}.a83336ef-0e8b-47e7-8246-ef1cf21bcf8b{fill:#323232;}.ec807489-2379-4371-a818-a2002528d549{fill:#5b5b5b;}.bc335e3a-e0d2-49f9-8055-d0866f64f4b2{fill:#4e4e4f;}.ea62efca-6a6b-41b3-9808-8d2e150297bd{fill:#2b2b2b;}</style><linearGradient id="ecc4f91f-3578-4553-919b-4dc204d0c3f1" x1="-944.44" y1="551.13" x2="-934.67" y2="551.13" gradientTransform="matrix(1.67, 0, 0, -1.67, 1600, 945.79)" gradientUnits="userSpaceOnUse"><stop offset="0" stop-color="#fedf1a"/><stop offset="0.15" stop-color="#fba658"/><stop offset="0.23" stop-color="#f6789c"/><stop offset="0.29" stop-color="#c86bd5"/><stop offset="0.39" stop-color="#9c88db"/><stop offset="0.49" stop-color="#ae9ee2"/><stop offset="0.56" stop-color="#5caee4"/><stop offset="0.65" stop-color="#19d2e3"/><stop offset="0.75" stop-color="#18ddd4"/><stop offset="0.84" stop-color="#2de4ba"/><stop offset="0.89" stop-color="#80efd5"/><stop offset="0.95" stop-color="#62fc6c"/><stop offset="1" stop-color="#62fc6c"/></linearGradient></defs><g id="ac5965d9-b06b-4236-8602-f4f9237206c2" data-name="Layer 2"><g id="ac19dffb-b229-43ff-9cf6-b8c17d648eb5" data-name="Layer 1"><g id="a0ecd405-cd33-4e02-b9f7-a11f1278115e" data-name="Untitled"><path class="af5bc760-04da-4f01-99da-795debf6eb1f" d="M17.54,42.7Z"/><path class="f7943854-a132-4181-bf2a-2bb1598fc92a" d="M40.29,35.88H38.36a12.13,12.13,0,0,0,2.36,1.79,12.82,12.82,0,0,0,2.85,1.22,13.51,13.51,0,0,0,3.23.5,28.43,28.43,0,0,1,3.57.25,5,5,0,0,1,2.51,1.07c.09-.25.2-.5.31-.75-1.83-1.79-4.62-1.45-6.94-1.75a16,16,0,0,1-3.72-.93A4.75,4.75,0,0,1,40.29,35.88Z"/><path class="f7943854-a132-4181-bf2a-2bb1598fc92a" d="M53.1,55.26l.15-.11a2.91,2.91,0,0,1,1.2-.52c-.07-.17,0-.37,0-.56a8.67,8.67,0,0,1,.13-.89,2.29,2.29,0,0,1-.94-.32A7.68,7.68,0,0,1,53.1,55.26Z"/><path class="f7943854-a132-4181-bf2a-2bb1598fc92a" d="M55.94,53a3.35,3.35,0,0,1-1,.19,2.37,2.37,0,0,1,0,.88,1.24,1.24,0,0,1-.11.54,1.89,1.89,0,0,1,.85.19,1.66,1.66,0,0,1,.39.26.66.66,0,0,0,.23.18,4.75,4.75,0,0,1-.1-.94C56.11,53.86,56,53.43,55.94,53Z"/><path class="f7943854-a132-4181-bf2a-2bb1598fc92a" d="M47.2,35.61l-2.68.14a4.53,4.53,0,0,0,.59.28,7,7,0,0,0,1.43.29c1,.1,2,0,3,.07a7.24,7.24,0,0,1,2.58.63A4.17,4.17,0,0,1,54,38.41c.25-.46.52-.9.8-1.33a9.05,9.05,0,0,0-2.63-1.42c-.63-.14-1.26-.15-1.87-.28Z"/><path class="f7943854-a132-4181-bf2a-2bb1598fc92a" d="M40.67,35.87a13.73,13.73,0,0,0,6.85,2c2.09.14,4.25.22,5.82,1.76a5.7,5.7,0,0,1,.37-.69,2.44,2.44,0,0,1,.14-.28h0a11,11,0,0,1-1.12-.85,6.13,6.13,0,0,0-1.22-.63,9.42,9.42,0,0,0-3.08-.44,14.52,14.52,0,0,1-2.71-.23A3.58,3.58,0,0,1,44,35.77C42.88,35.82,41.77,35.85,40.67,35.87Z"/><path class="f7943854-a132-4181-bf2a-2bb1598fc92a" d="M57.06,52.24h0a3.29,3.29,0,0,1-.88.65,6.74,6.74,0,0,1,.36,1.26,3.43,3.43,0,0,1,.08.9.64.64,0,0,0,.1-.13,9.51,9.51,0,0,0,.46-.9l.14-.29a5.18,5.18,0,0,1-.11-.79C57.18,52.71,57.11,52.48,57.06,52.24Z"/><path class="f7943854-a132-4181-bf2a-2bb1598fc92a" d="M55.82,35.68c.27-.34.56-.67.86-1l-1.92.23A2.65,2.65,0,0,1,55.82,35.68Z"/><path class="f7943854-a132-4181-bf2a-2bb1598fc92a" d="M51.57,35.26A5.54,5.54,0,0,1,55,36.83c.22-.33.45-.64.69-.95-.12-.07-.22-.25-.34-.33a7.26,7.26,0,0,1-.78-.59Q53.05,35.13,51.57,35.26Z"/><path class="e74a850e-2801-4f58-a63d-582c16a08927" d="M57.79,43.08c.4-1.57,1.05-3.07,1.56-4.61A10.43,10.43,0,0,0,60,34.23l-2.45.35a17.52,17.52,0,0,0-3.39,4.66c-.12.2-.22.4-.33.61a15.26,15.26,0,0,0-1,2.62c-.1.37-.19.75-.26,1.12,0,.09,0,.17,0,.26V44s0,0,0,.07a2.19,2.19,0,0,0,0,.36,14.18,14.18,0,0,0,.16,3.12A10,10,0,0,0,53.09,49a10.28,10.28,0,0,1,.41,1.22,8.15,8.15,0,0,1,.22,2,.23.23,0,0,1,.14,0,1.66,1.66,0,0,0,.48.24A2.29,2.29,0,0,0,56.48,52a10.58,10.58,0,0,0,.81-.83,10.45,10.45,0,0,0,.79-1,3,3,0,0,0,.48-.83,2,2,0,0,0,.07-.77,7.11,7.11,0,0,0-.43-1.72,13,13,0,0,1-.55-1.84,4.69,4.69,0,0,1-.07-.92A5.63,5.63,0,0,1,57.79,43.08ZM55.3,48.56a1.37,1.37,0,0,0,1.57-1.75.8.8,0,1,0-1.57.33c0,.16-.18.34-.31.18a1.1,1.1,0,0,1,.39-1.61,1.44,1.44,0,0,1,1.81.44,2,2,0,0,1-1.81,3.06c-1.89-.26-2.15-2.65-2.06-4.15a10.77,10.77,0,0,1,1.93-5.17,41.28,41.28,0,0,0,2.83-4.68c0-.07.14,0,.13.06-.59,3.06-3.27,5.24-4.05,8.25C53.8,44.91,53.44,48,55.3,48.56Z"/><path class="e74a850e-2801-4f58-a63d-582c16a08927" d="M52.67,49.46a10.68,10.68,0,0,1-.67-3,11,11,0,0,1,0-2.63,14,14,0,0,1,.55-2.23c0-.11.07-.2.1-.31l0,0a5,5,0,0,0-2.92-1.13C48.48,40,47.24,40,46,39.91a12.8,12.8,0,0,1-3.13-.64A13.09,13.09,0,0,1,40,37.91a12.09,12.09,0,0,1-2.44-2c-1.78,0-3.56,0-5.35,0l-1.68,0a12.4,12.4,0,0,1-2.77,2.22,13.41,13.41,0,0,1-6.1,1.82c-1.2.07-2.4,0-3.59.22a4.63,4.63,0,0,0-2.58,1.09l0,0c.11.31.2.62.29.93a10,10,0,0,1,.41,2,13.68,13.68,0,0,1-.11,3,10,10,0,0,1-.34,1.53c-.13.43-.32.84-.45,1.27A7.48,7.48,0,0,0,15.53,55a5.8,5.8,0,0,0,.72,1.26l0,0a.2.2,0,0,1,.07.1,5.22,5.22,0,0,0,.6.64,5.92,5.92,0,0,0,2.59,1.35,5.79,5.79,0,0,0,1.44.17,9.32,9.32,0,0,0,1.66-.22c.57-.12,1.13-.23,1.71-.31s1-.12,1.48-.16a2.69,2.69,0,0,1-.3-.88c-.22-1.29.65-2,1.76-2.38.6-.19,1.22-.31,1.84-.45a4,4,0,0,0,1.56-.51c.07-.06.15,0,.1.11A5.41,5.41,0,0,1,28.21,55a4.87,4.87,0,0,0-1.51.62,1.19,1.19,0,0,0-.45,1.15,3,3,0,0,1,.59-.7,2.05,2.05,0,0,1,2.21-.28s0,.07,0,.07a2.26,2.26,0,0,0-2.07.57,2,2,0,0,0-.46.89l0,.14.15.26a1.79,1.79,0,0,1,2.17-.47,3.1,3.1,0,0,1,1.09,1,4.3,4.3,0,0,1,.4-2.89s.08,0,.07,0a4.62,4.62,0,0,0,.58,3.88c.39.52.86,1,1.29,1.46.1.12.21.23.32.35a5.27,5.27,0,0,1,.57.68,7.36,7.36,0,0,1,.61.77,5.19,5.19,0,0,1,.37.65,4.13,4.13,0,0,1,.36-.65,9.08,9.08,0,0,1,.62-.77A3.66,3.66,0,0,1,35.6,61l.4-.44c.41-.46.86-.9,1.23-1.4a4.59,4.59,0,0,0,.59-3.88,0,0,0,0,1,.06,0,4.24,4.24,0,0,1,.41,2.89,3.17,3.17,0,0,1,1.08-1,1.77,1.77,0,0,1,2.17.47l.15-.26a1.55,1.55,0,0,0,0-.21,2,2,0,0,0-.44-.82,2.27,2.27,0,0,0-2.07-.57s-.08-.05,0-.07a2,2,0,0,1,2.2.28,2.58,2.58,0,0,1,.59.7,1.2,1.2,0,0,0-.49-1.18A5.39,5.39,0,0,0,39.94,55a5.28,5.28,0,0,1-2.56-1.23c-.06-.06,0-.17.09-.11a4,4,0,0,0,1.56.51c.62.14,1.24.26,1.85.45,1.11.35,2,1.09,1.76,2.38a3,3,0,0,1-.31.88l.56.05c.59.06,1.18.13,1.76.24s1.12.24,1.69.33a6,6,0,0,0,3-.32,5.68,5.68,0,0,0,2.3-1.56c.06-.07.11-.14.17-.2a.19.19,0,0,1,.07-.11l0,0a6.16,6.16,0,0,0,.91-1.81A7.5,7.5,0,0,0,52.67,49.46ZM29.35,41.1c.53-.12,1,.06,1.48-.31a2.25,2.25,0,0,0,.54-1.88c0-.07.12-.09.13,0a2.07,2.07,0,0,1-.35,2.17c-.41.38-1.34.71-1.84.34C29.21,41.32,29.2,41.13,29.35,41.1ZM24.68,56.8c-1.19.09-2.34.45-3.54.43a6.2,6.2,0,0,1-2.64-.62,5,5,0,0,1-2-1.82A2.66,2.66,0,0,1,16,52.56a.13.13,0,0,1,.22,0,5,5,0,0,1,.3,1,4.29,4.29,0,0,0,.56,1.16,4.54,4.54,0,0,0,2,1.59c1.78.72,3.68.31,5.53.39A.05.05,0,0,1,24.68,56.8Zm-7.29-9.6a12.46,12.46,0,0,0,1.22,2,8.31,8.31,0,0,0,.82,1A2.2,2.2,0,0,1,20,51a.17.17,0,0,1-.2.21c-.68-.14-1.24-1.06-1.61-1.6a7,7,0,0,1-1-2.29C17.17,47.17,17.34,47.09,17.39,47.2Zm12.28,2.19c-1.48,2.67-5.58,5.84-8.37,3-.15-.15,0-.42.22-.3a4.18,4.18,0,0,0,4.44.39,13,13,0,0,0,3.56-3.18C29.59,49.19,29.72,49.3,29.67,49.39Zm0-1.45-.11.12a10.61,10.61,0,0,1-2.26,1.79,6.22,6.22,0,0,1-4.2.92,6.75,6.75,0,0,1-2.38-1,9.61,9.61,0,0,1-1.9-1.52A6.88,6.88,0,0,1,17.11,45,6.74,6.74,0,0,1,17,42.47a5.93,5.93,0,0,1,.16-.73.65.65,0,0,1,.21-.4,4.84,4.84,0,0,1,.72-.36,7,7,0,0,1,1.76-.46,6.22,6.22,0,0,1,2.43.15A7.63,7.63,0,0,1,25,42.06a18.53,18.53,0,0,1,3.56,3.68,14.51,14.51,0,0,1,1.2,1.87h0A.29.29,0,0,1,29.72,47.94Zm1.2,4.87c0,.2-.3.24-.35,0-.43-1.91.76-3.51.94-5.36s-1.09-3.5-2.38-4.84a.1.1,0,0,1,.12-.16,5.29,5.29,0,0,1,3,4.33C32.39,48.93,30.73,50.71,30.92,52.81Zm2.21-6.92A4.23,4.23,0,0,1,33,42.78a.08.08,0,0,1,.16,0,11.16,11.16,0,0,0,0,1.53c0,.5.18,1,.17,1.51A.1.1,0,0,1,33.13,45.89Zm-.36-3.62c-.43.52-2,1.3-2.4.37a.11.11,0,0,1,0-.14c.3-.14.57,0,.89-.06a1.51,1.51,0,0,0,1.17-.74,3.75,3.75,0,0,0,.36-1.55c.05-.46.11-.94.12-1.41,0-.06.1-.07.11,0A4,4,0,0,1,32.77,42.27Zm3.88-3.37a.07.07,0,0,1,.13,0c0,.64,0,1.45.55,1.88s.94.19,1.47.31c.15,0,.14.22,0,.3-.5.37-1.43,0-1.84-.33A2.1,2.1,0,0,1,36.65,38.9Zm-1.62,7a.1.1,0,0,1-.19,0A12.92,12.92,0,0,1,35,44.33a11.16,11.16,0,0,0,0-1.53.08.08,0,0,1,.16,0A4.28,4.28,0,0,1,35,45.89Zm.36-3.62a4,4,0,0,1-.3-3.54.06.06,0,0,1,.11,0c0,.47.07.95.12,1.41a3.75,3.75,0,0,0,.36,1.55,1.55,1.55,0,0,0,1.17.74c.32,0,.59-.08.89.06.06,0,.06.09,0,.14C37.38,43.57,35.82,42.8,35.39,42.27Zm2.19,10.58c0,.2-.37.16-.35,0,.19-2.1-1.47-3.88-1.31-6a5.28,5.28,0,0,1,3-4.33c.11-.05.22.07.13.16-1.3,1.34-2.58,2.85-2.38,4.84S38,50.94,37.58,52.85Zm.81-5.23h0l.08-.13a17.8,17.8,0,0,1,1.79-2.59A18.28,18.28,0,0,1,42,43a11.58,11.58,0,0,1,2.42-1.81,6.67,6.67,0,0,1,4.82-.5,7.73,7.73,0,0,1,1.31.51l.2.12a.38.38,0,0,1,.14.21A5.64,5.64,0,0,1,51.2,43a6.6,6.6,0,0,1-.37,2.75,7.52,7.52,0,0,1-2.34,3.17,10.5,10.5,0,0,1-2.29,1.44,5,5,0,0,1-2.33.47,7.24,7.24,0,0,1-3.82-1.5,9,9,0,0,1-1.61-1.41A.28.28,0,0,1,38.39,47.62ZM51,47.28a7.15,7.15,0,0,1-1,2.29c-.37.54-.94,1.47-1.61,1.6-.12,0-.25-.08-.2-.21a2.09,2.09,0,0,1,.61-.75,9.43,9.43,0,0,0,.82-1,12.46,12.46,0,0,0,1.22-2C50.82,47.09,51,47.17,51,47.28ZM38.49,49.39c-.05-.09.07-.2.15-.11a13.13,13.13,0,0,0,3.55,3.18,4.2,4.2,0,0,0,4.44-.38c.18-.13.37.14.23.29C44.07,55.23,40,52.06,38.49,49.39Zm13.13,5.47a5,5,0,0,1-2,1.75,6.13,6.13,0,0,1-2.73.62c-1.17,0-2.29-.34-3.44-.43a.05.05,0,1,1,0-.1c1.85-.08,3.75.33,5.52-.39a4.49,4.49,0,0,0,2-1.59,4,4,0,0,0,.57-1.16,5.73,5.73,0,0,1,.29-1,.13.13,0,0,1,.22,0A2.71,2.71,0,0,1,51.62,54.86Z"/><path class="f7943854-a132-4181-bf2a-2bb1598fc92a" d="M22.45,36.52a14.55,14.55,0,0,1-2.72.23,9.45,9.45,0,0,0-3.08.44,6.33,6.33,0,0,0-1.21.63,10.11,10.11,0,0,1-1.13.85h0l.15.28c.11.19.22.39.32.6l0,.09c1.57-1.53,3.74-1.62,5.82-1.76a13.74,13.74,0,0,0,6.86-2c-1.11,0-2.21,0-3.31-.1A3.58,3.58,0,0,1,22.45,36.52Z"/><path class="f7943854-a132-4181-bf2a-2bb1598fc92a" d="M15,40c.11.25.21.5.31.75a5.38,5.38,0,0,1,2.89-1.13c1.21-.16,2.43-.14,3.65-.22a12.45,12.45,0,0,0,8-3.48l-1.93,0a4.89,4.89,0,0,1-2.34,1.46,16.24,16.24,0,0,1-3.62.89C19.58,38.53,16.79,38.19,15,40Z"/><path class="f7943854-a132-4181-bf2a-2bb1598fc92a" d="M16,35.66a9,9,0,0,0-2.64,1.42c.29.43.55.88.8,1.33A4.28,4.28,0,0,1,16.08,37a7.25,7.25,0,0,1,2.51-.59c1-.07,2.07,0,3.11-.08A7,7,0,0,0,23.05,36a4.41,4.41,0,0,0,.58-.28c-1.92-.09-3.85-.21-5.77-.37C17.25,35.51,16.62,35.52,16,35.66Z"/><path class="f7943854-a132-4181-bf2a-2bb1598fc92a" d="M8.38,38.93l-.12-.34c-.13-.39-.25-.79-.35-1.2C7.49,38.2,7,39,6.56,39.76a10.34,10.34,0,0,0-.65,1.53c-.13.39-.19.8-.34,1.18,0,.66-.06,1.32-.05,2l.85-.71.07,0a7.48,7.48,0,0,1,.72-2.54A7.23,7.23,0,0,1,8.38,38.93Z"/><path class="f7943854-a132-4181-bf2a-2bb1598fc92a" d="M12.33,35.68a2.72,2.72,0,0,1,1.07-.75l-1.92-.23C11.77,35,12.06,35.34,12.33,35.68Z"/><path class="f7943854-a132-4181-bf2a-2bb1598fc92a" d="M12.83,35.55c-.11.08-.22.26-.34.33.25.31.48.62.7.95a5.5,5.5,0,0,1,3.39-1.57q-1.48-.13-3-.3A5.7,5.7,0,0,1,12.83,35.55Z"/><path d="M35,29.33c1.67,0,3.33-.07,5-.07v-4h-1.1q-2.4,0-4.8.09l-.92,0c-1.66,0-3.32-.07-5-.08v4c.91,0,1.81,0,2.71,0C32.25,29.31,33.61,29.36,35,29.33Z"/><path class="eed74215-60be-4549-a8d5-5b12f3bf6c8c" d="M34.08,30.81q1.86.06,3.72.06c1.47,0,3,0,4.42-.06a.28.28,0,0,1,0-.09c0-.54,0-1.07,0-1.61a48.24,48.24,0,0,0-.38-5.5q-2.91.2-5.82.32c-.71,0-1.42.08-2.13.07s-1.69-.06-2.53-.1c-1.68-.08-3.36-.18-5-.29-.07.49-.12,1-.17,1.47a46.16,46.16,0,0,0-.2,5.64.29.29,0,0,1,0,.09C28.65,30.88,31.36,30.89,34.08,30.81ZM27.62,29V25a.29.29,0,0,1,.28-.28h1.37c1.6,0,3.21,0,4.81.09l.91,0c1.76,0,3.51-.08,5.27-.08a.28.28,0,0,1,.27.28v4.53a.28.28,0,0,1-.27.28c-1,0-2,0-3,0-1.37,0-2.73.08-4.1.05-1.75,0-3.51-.08-5.27-.08a.29.29,0,0,1-.28-.28Z"/><path class="eff2d1b9-8cf5-4a4c-82bd-d9cc56d2c457" d="M39.11,58.18a10.26,10.26,0,0,0-.94,1.15l-.17.24.09,0A9.94,9.94,0,0,0,41.25,58a2,2,0,0,0-.91-.38A1.58,1.58,0,0,0,39.11,58.18Z"/><path d="M25.41,30.8a.24.24,0,0,1,0-.08c0-.54,0-1.07,0-1.61a46.42,46.42,0,0,1,.39-5.53l-2.64-.18c-2.74-.2-5.49-.42-8.23-.73q-1.55,3.55-2.8,7.23,3.4.36,6.82.59Q22.16,30.7,25.41,30.8Z"/><path class="f7943854-a132-4181-bf2a-2bb1598fc92a" d="M5.77,40.61a10.36,10.36,0,0,1,.45-.94,11.79,11.79,0,0,1,1.64-2.49,10.36,10.36,0,0,1-.29-1.92c-.24.46-.48.92-.7,1.39s-.34.75-.49,1.13a3.32,3.32,0,0,1-.22.55.22.22,0,0,1,0,.14C6,39.18,5.87,39.89,5.77,40.61Z"/><path class="f7943854-a132-4181-bf2a-2bb1598fc92a" d="M5.82,38.12a6.79,6.79,0,0,1,.69-1.57,10.23,10.23,0,0,1,1-1.7,5.37,5.37,0,0,1,0-.7l-.52-.09a13.45,13.45,0,0,0-1.72,4.21l.45-.15Z"/><path class="f7943854-a132-4181-bf2a-2bb1598fc92a" d="M10.69,51.83c-.18-.19-.35-.39-.52-.59l-.12.49L10,52l0,0,.51,1.05a2.65,2.65,0,0,1,.42-1Z"/><path class="f7943854-a132-4181-bf2a-2bb1598fc92a" d="M11.58,52.66a4,4,0,0,1-.49-.42c-.05.24-.12.47-.15.71a5.18,5.18,0,0,1-.11.79c.09.18.18.36.26.54a3.73,3.73,0,0,0,.44.78,3.37,3.37,0,0,1,.09-.89A5.58,5.58,0,0,1,12,52.9,2.23,2.23,0,0,1,11.58,52.66Z"/><path class="f7943854-a132-4181-bf2a-2bb1598fc92a" d="M13.26,53.19a2.63,2.63,0,0,1-1-.19c-.09.43-.18.87-.23,1.3a4.17,4.17,0,0,1-.1.94l.11-.06a3.17,3.17,0,0,1,.35-.29,1.74,1.74,0,0,1,1-.29,1.32,1.32,0,0,1-.11-.53A2.37,2.37,0,0,1,13.26,53.19Z"/><path class="f7943854-a132-4181-bf2a-2bb1598fc92a" d="M14.46,52.86a1.9,1.9,0,0,1-.43.21,2.78,2.78,0,0,1-.5.11,8.66,8.66,0,0,1,.12.89,1,1,0,0,1,0,.56,3.09,3.09,0,0,1,1.35.62c-.06-.14-.12-.29-.17-.43A7.3,7.3,0,0,1,14.46,52.86Z"/><path class="eff2d1b9-8cf5-4a4c-82bd-d9cc56d2c457" d="M29.05,58.18a1.58,1.58,0,0,0-1.24-.55,2,2,0,0,0-.91.38,9.83,9.83,0,0,0,3.16,1.52l.09,0L30,59.33A11.5,11.5,0,0,0,29.05,58.18Z"/><path class="f7943854-a132-4181-bf2a-2bb1598fc92a" d="M9.84,50.84a5.86,5.86,0,0,1-.67-1A2.41,2.41,0,0,1,9,49.28a1.59,1.59,0,0,1-.25.72c.22.76.42,1.52.58,2.3L9.51,52v0a1.86,1.86,0,0,1,.16-.45A3.55,3.55,0,0,1,10,51Z"/><path class="f7943854-a132-4181-bf2a-2bb1598fc92a" d="M9.28,41.44c-.26-.76-.55-1.51-.82-2.27-.23.78-.64,1.53-.91,2.3a23.36,23.36,0,0,1-.71,2.38v0c.1.42.18.84.25,1.27l0-.13a7.49,7.49,0,0,1,.5-1.37A6.23,6.23,0,0,1,9.28,41.44Z"/><path class="e74a850e-2801-4f58-a63d-582c16a08927" d="M8.14,34.23c0,.1,0,.2,0,.29A11.69,11.69,0,0,0,9,39a37.5,37.5,0,0,1,1.51,4.64c.26,1.27-.33,2.51-.7,3.69a4.35,4.35,0,0,0-.29,1.7,1.75,1.75,0,0,0,.22.68,6.79,6.79,0,0,0,.71,1,11.81,11.81,0,0,0,.82.91,3.6,3.6,0,0,0,.84.72,2.08,2.08,0,0,0,2.18,0,.23.23,0,0,1,.14,0,8,8,0,0,1,.4-2.63c.15-.46.34-.89.47-1.35a11.14,11.14,0,0,0,.28-1.53c.05-.53.08-1.06.08-1.59A8.77,8.77,0,0,0,15.61,44a.25.25,0,0,1,0-.08l0-.1c0-.08,0-.15,0-.23s-.07-.35-.11-.53c-.1-.41-.22-.82-.34-1.23A13.08,13.08,0,0,0,14,39.24a17.49,17.49,0,0,0-3.38-4.66Zm6.7,11.64c-.05,1.44-.74,3.71-2.64,3.32-1.42-.29-2.22-2.42-.92-3.36a1.37,1.37,0,0,1,1.71,0,1.08,1.08,0,0,1,.18,1.45c-.13.16-.35,0-.32-.18.2-1.1-1.22-1.34-1.57-.33a1.37,1.37,0,0,0,1.58,1.75c1.85-.54,1.49-3.65,1.13-5-.77-3-3.46-5.19-4.05-8.25,0-.08.1-.13.13-.06a58.92,58.92,0,0,0,3.21,5.28A9.62,9.62,0,0,1,14.84,45.87Z"/><path class="f7943854-a132-4181-bf2a-2bb1598fc92a" d="M9,48.21a8.06,8.06,0,0,1,.29-1.07c.2-.63.44-1.24.6-1.89a3.9,3.9,0,0,0,.12-.9,2.53,2.53,0,0,0,0-.28,16.31,16.31,0,0,0-1.1,1.65,11.75,11.75,0,0,0-.54,1.06c-.15.31-.25.66-.41,1a.05.05,0,0,1,0,0c.22.55.42,1.11.61,1.68a5.06,5.06,0,0,1,.21-.66Q8.89,48.51,9,48.21Z"/><path class="f7943854-a132-4181-bf2a-2bb1598fc92a" d="M10,43.77c0-.13-.06-.26-.09-.4-.15-.6-.33-1.19-.53-1.77A15.16,15.16,0,0,0,8,43.74a9.31,9.31,0,0,0-.53,1.45,9,9,0,0,1-.22.93c.06.57.1,1.13.11,1.7l.15-.16,0,0a6.12,6.12,0,0,1,1-2.14A8.88,8.88,0,0,1,10,43.77Z"/><path class="f4396cbf-9a11-4116-a744-be8548400a48" d="M67.27,29.68a3.53,3.53,0,0,0-.21-.65c-.08-.14-.08-.13-.22-.1l-.37.06c-1.18.21-2.37.4-3.55.58-4.76.72-9.55,1.21-14.35,1.51s-9.66.41-14.49.29c-1.18,0-2.35.05-3.53.05q-7.29,0-14.56-.6c-4.75-.39-9.49-1-14.18-1.81l-.5-.08c-.12,0-.11,0-.19.06a1.87,1.87,0,0,0-.22.64c-.07.25-.14.49-.2.74a2.77,2.77,0,0,0,0,1.84c.19.31.76.31,1.08.36l1.7.32c1.19.22,2.37.42,3.56.62s2.48.37,3.72.54h0c3.51.47,7,.82,10.58,1,2.41.15,4.82.23,7.23.26h1.89c1.75,0,3.49,0,5.24,0l1.95,0h.12q6.19,0,12.37-.51,3.63-.3,7.23-.79h0c2.37-.32,4.73-.69,7.08-1.13.56-.1,1.13-.2,1.69-.32l.79-.2a.94.94,0,0,0,.46-.19c.4-.39.15-1.32,0-1.78C67.41,30.17,67.34,29.92,67.27,29.68Z"/><path class="f7943854-a132-4181-bf2a-2bb1598fc92a" d="M60.56,34.15l0,.31c0,.13,0,.26,0,.4a10.15,10.15,0,0,1,1,1.69,6.37,6.37,0,0,1,.68,1.57h0l.46.15a13.72,13.72,0,0,0-1.73-4.21Z"/><path class="f7943854-a132-4181-bf2a-2bb1598fc92a" d="M61.77,37.78c-.15-.38-.32-.76-.49-1.13s-.45-.92-.69-1.37a10.27,10.27,0,0,1-.29,1.9,12.62,12.62,0,0,1,1.64,2.49c.14.28.3.6.45.94-.11-.72-.24-1.43-.4-2.14a.33.33,0,0,1,0-.14A5.72,5.72,0,0,1,61.77,37.78Z"/><path class="f7943854-a132-4181-bf2a-2bb1598fc92a" d="M59.25,45.72a14,14,0,0,0-1.11-1.65,4.69,4.69,0,0,0,.24,1.65c.19.63.44,1.25.62,1.88,0,.2.1.4.13.6s.16.41.23.61a5.68,5.68,0,0,1,.21.66q.27-.86.6-1.68l0,0c-.16-.31-.26-.66-.4-1S59.44,46.07,59.25,45.72Z"/><path class="f7943854-a132-4181-bf2a-2bb1598fc92a" d="M59.13,49.43a2.6,2.6,0,0,1-.42.87c-.18.26-.36.5-.56.75a2.51,2.51,0,0,1,.32.52,1.26,1.26,0,0,1,.16.46h0l.19.26c.16-.77.35-1.54.58-2.3a1.48,1.48,0,0,1-.25-.72Z"/><path class="f7943854-a132-4181-bf2a-2bb1598fc92a" d="M62.25,41.29a10.34,10.34,0,0,0-.65-1.53c-.42-.81-.93-1.56-1.35-2.36-.14.52-.3,1-.47,1.53A7.42,7.42,0,0,1,61,41.16a7.26,7.26,0,0,1,.72,2.54l.08,0,.84.71c0-.67,0-1.33-.05-2C62.44,42.09,62.37,41.68,62.25,41.29Z"/><path class="f7943854-a132-4181-bf2a-2bb1598fc92a" d="M59.69,39.17h0c-.27.76-.55,1.51-.82,2.27a6.25,6.25,0,0,1,1.65,2.2A8.07,8.07,0,0,1,61,45.09v0c.07-.43.16-.85.26-1.27v0a21.75,21.75,0,0,1-.72-2.38C60.33,40.7,59.93,40,59.69,39.17Z"/><path class="f7943854-a132-4181-bf2a-2bb1598fc92a" d="M60.16,43.74a14.25,14.25,0,0,0-1.34-2.14,15.9,15.9,0,0,0-.63,2.17,8,8,0,0,1,1.45,1.72,5.94,5.94,0,0,1,1,2.14l0,0,.16.16c0-.57,0-1.13.11-1.7-.11-.3-.15-.62-.23-.93A9.31,9.31,0,0,0,60.16,43.74Z"/><path d="M24.25,22.92c2.63.18,5.25.34,7.88.46.71,0,1.43.08,2.14.06s1.68-.06,2.53-.1q4.11-.19,8.22-.5c2.67-.19,5.34-.4,8-.7a98,98,0,0,0-4.71-9.25.28.28,0,0,1,.31-.4l1.14.3,5,1.3,2.36.62h0l-.93-1.22L53.34,9.77,50.05,5.45,47.34,1.9l-1-1.28c-.46.23-.94.43-1.4.64L41.8,2.74l-4.24,2L32.81,6.92,28.1,9.11,24,11,21,12.4l-.88.41c-.1,0-.23.09-.33.15h0l-.12.22c-.21.36-.42.72-.62,1.09-.4.72-.8,1.45-1.19,2.19q-1.15,2.21-2.2,4.47l-.54,1.2.48.05C18.48,22.5,21.37,22.72,24.25,22.92Z"/><path class="f7943854-a132-4181-bf2a-2bb1598fc92a" d="M58,51.24l-.1.13c-.22.25-.44.49-.68.72a2.73,2.73,0,0,1,.43,1L58.15,52l0,0c0-.1,0-.2-.07-.29S58,51.4,58,51.24Z"/><path d="M43.9,23.47l-1.52.11q.1.75.18,1.5a46.16,46.16,0,0,1,.2,5.64s0,.05,0,.08q5.11-.15,10.21-.6l3.1-.3c-.43-1.24-.87-2.47-1.35-3.69s-1-2.37-1.46-3.54l-.7.08C49.67,23.05,46.79,23.27,43.9,23.47Z"/><path class="f54e9494-645e-444e-912d-3d48ea284f5a" d="M11.89,51a1,1,0,1,1,1,1A1,1,0,0,1,11.89,51Z"/><path class="f54e9494-645e-444e-912d-3d48ea284f5a" d="M54.21,51a1,1,0,1,1,1,1A1,1,0,0,1,54.21,51Z"/><path class="faa568c2-83bd-4650-b9f9-e7e43c2c5f64" d="M41.76,38.45h0a.18.18,0,0,1-.14.1c-.24,0-.56-.22-.75-.35l-.59-.43a20,20,0,0,1-1.61-1.31,3.23,3.23,0,0,1-.86-1,.88.88,0,0,0,.58.11c1.59-.06,3.08,0,4.66-.06,4.59.11,9.14-.78,13.71-1.13l.56,0L56.06,35.9a.18.18,0,0,1-.13.09s-.1,0-.14-.07a1.42,1.42,0,0,0-1.18-.44.73.73,0,0,0-.55,1,6.59,6.59,0,0,0-4-.68.73.73,0,0,0-.54.25c-.12.17.06.53.26.49a4.86,4.86,0,0,1-1.32,0,14.82,14.82,0,0,0-3.88,0c-.22,0-.48.14-.51.35s.41.47.57.76l-2.13-.17a1.45,1.45,0,0,0-.51,0,.47.47,0,0,0-.35.34C41.61,38,41.85,38.26,41.76,38.45Z"/><path class="faa568c2-83bd-4650-b9f9-e7e43c2c5f64" d="M26.39,38.45h0a.2.2,0,0,0,.15.1c.24,0,.55-.22.74-.35l.59-.43a17,17,0,0,0,1.61-1.31,3.11,3.11,0,0,0,.86-1,.88.88,0,0,1-.58.11c-1.58-.06-3.07,0-4.66-.06-4.59.11-9.14-.78-13.71-1.13l-.56,0,1.25,1.57s.08.09.13.09.1,0,.14-.07a1.44,1.44,0,0,1,1.19-.44.73.73,0,0,1,.54,1,6.61,6.61,0,0,1,4-.68.76.76,0,0,1,.54.25c.11.17-.06.53-.26.49a4.79,4.79,0,0,0,1.31,0,14.9,14.9,0,0,1,3.89,0c.21,0,.47.14.51.35s-.41.47-.58.76l2.13-.17a1.45,1.45,0,0,1,.51,0,.47.47,0,0,1,.35.34C26.54,38,26.3,38.26,26.39,38.45Z"/><path class="faa568c2-83bd-4650-b9f9-e7e43c2c5f64" d="M62,35.29a.37.37,0,0,0-.55.08.78.78,0,0,0-.05.62c.06.21.16.4.2.61a.59.59,0,0,0-.69.38,1.41,1.41,0,0,0,0,.86,5.35,5.35,0,0,0,.53,1.26.64.64,0,0,0-.86.28,1.58,1.58,0,0,0-.11,1,7.43,7.43,0,0,0,.23,1,.42.42,0,0,0-.61.06,1,1,0,0,0-.23.68,2.49,2.49,0,0,0,.51,1.6.58.58,0,0,0-.86.13,1.35,1.35,0,0,0-.14,1,4.22,4.22,0,0,0,.49,1.45c-.06-.13-.19-.24-.32-.18a.61.61,0,0,0-.29.3,2.62,2.62,0,0,0-.26,1.7,5.44,5.44,0,0,0,.62,1.64A11,11,0,0,1,59,52.7a1.12,1.12,0,0,0-.27-.3.35.35,0,0,0-.38,0,.46.46,0,0,0-.15.23,17.08,17.08,0,0,1-1.16,2.25c-.19.33-.49.69-.86.62s-.54-.52-.89-.65a1,1,0,0,0-.53,0,6.11,6.11,0,0,0-2,.63c.21-1,.44-1.95.7-2.92a2.64,2.64,0,0,0,1.87.35,2.8,2.8,0,0,0,1-.59,9.24,9.24,0,0,0,2.49-2.83c.13-.23,0-.46-.07-.72A24.2,24.2,0,0,0,58,45.28a3.11,3.11,0,0,1-.21-1,2.69,2.69,0,0,1,.15-.79c.22-.78.45-1.55.67-2.33.34-1.16.81-2.14,1.14-3.31a14.11,14.11,0,0,0,.69-3.56.75.75,0,0,1,.05-.26.41.41,0,0,1,.15-.14,3.88,3.88,0,0,1,.63-.35C61.26,34.24,62.09,34.65,62,35.29Z"/><path class="faa568c2-83bd-4650-b9f9-e7e43c2c5f64" d="M6.15,35.29a.37.37,0,0,1,.55.08.74.74,0,0,1,0,.62c-.06.21-.16.4-.2.61a.59.59,0,0,1,.69.38,1.41,1.41,0,0,1,0,.86,5,5,0,0,1-.54,1.26.64.64,0,0,1,.86.28,1.58,1.58,0,0,1,.11,1,6.24,6.24,0,0,1-.23,1,.42.42,0,0,1,.61.06,1,1,0,0,1,.23.68,2.54,2.54,0,0,1-.5,1.6.58.58,0,0,1,.86.13,1.34,1.34,0,0,1,.13,1,4.22,4.22,0,0,1-.49,1.45c.06-.13.19-.24.32-.18a.61.61,0,0,1,.29.3,2.5,2.5,0,0,1,.26,1.7,5.44,5.44,0,0,1-.62,1.64,11.85,11.85,0,0,0,.62,2.94,1.12,1.12,0,0,1,.27-.3.37.37,0,0,1,.39,0,.45.45,0,0,1,.14.23,17.08,17.08,0,0,0,1.16,2.25c.2.33.49.69.87.62s.54-.52.88-.65a1.06,1.06,0,0,1,.53,0,6.11,6.11,0,0,1,2,.63c-.21-1-.44-1.95-.7-2.92a2.62,2.62,0,0,1-1.86.35,2.84,2.84,0,0,1-1-.59,9.24,9.24,0,0,1-2.49-2.83c-.12-.23,0-.46.07-.72a25.62,25.62,0,0,1,.87-3.45,3.11,3.11,0,0,0,.21-1,2.69,2.69,0,0,0-.15-.79C10,42.76,9.8,42,9.58,41.21c-.34-1.16-.81-2.14-1.14-3.31a14.56,14.56,0,0,1-.69-3.56.47.47,0,0,0,0-.26.41.41,0,0,0-.15-.14,3.19,3.19,0,0,0-.63-.35C6.9,34.24,6.06,34.65,6.15,35.29Z"/><path class="a60583e9-b852-46e4-98ac-68ec4d9aa3cd" d="M47.88,53.26A18.49,18.49,0,0,0,51,50.37a4.55,4.55,0,0,1-2.56,4.2l.3-.69a5.66,5.66,0,0,1-4,1.27,2.52,2.52,0,0,1-2.08-1.08C44.36,55,46.35,54.3,47.88,53.26Z"/><path class="a60583e9-b852-46e4-98ac-68ec4d9aa3cd" d="M20.27,53.26a18.49,18.49,0,0,1-3.11-2.89,4.57,4.57,0,0,0,2.56,4.2c-.1-.23-.2-.46-.29-.69a5.63,5.63,0,0,0,4,1.27,2.55,2.55,0,0,0,2.09-1.08C23.79,55,21.81,54.3,20.27,53.26Z"/><path d="M34.08,33.71c2.86,0,5.73-.09,8.59-.21.89,0,10.75-.48,10.75-.73a.36.36,0,0,0,.27.45,1.09,1.09,0,0,0,.59-.07l3.53-1.09a.33.33,0,0,0,.2.43.88.88,0,0,0,.51,0c1.89-.31,3.79-.55,5.7-.7.94-.08,2-.23,2.5-1a2.93,2.93,0,0,0-.09-2.37c1.09.55,1.31,2,1.39,3.21a.94.94,0,0,1-.15.74,1,1,0,0,1-.5.23c-7.78,1.92-15.83,2.48-23.83,2.9-1,.06-2,.11-3.08.12-2.13,0-4.27-.19-6.39-.11-2.11-.08-4.25.12-6.38.11-1,0-2.06-.06-3.08-.12-8-.43-16-1-23.83-2.9a1,1,0,0,1-.5-.23.94.94,0,0,1-.15-.74c.08-1.22.3-2.66,1.39-3.21a2.89,2.89,0,0,0-.09,2.37c.47.81,1.56,1,2.5,1,1.91.15,3.81.39,5.69.7a1,1,0,0,0,.52,0,.34.34,0,0,0,.2-.43l3.53,1.09a1.09,1.09,0,0,0,.59.07.36.36,0,0,0,.27-.45c0,.25,9.86.69,10.75.73C28.34,33.62,31.21,33.68,34.08,33.71Z"/><path class="a60583e9-b852-46e4-98ac-68ec4d9aa3cd" d="M33.13,47.08c-.34.07-.43.5-.47.84a11.16,11.16,0,0,1-.51,2.29,5.06,5.06,0,0,0-.46,2,4.11,4.11,0,0,1,.12,1.51c-.13.41-.5.74-.54,1.16a1.3,1.3,0,0,0,.09.55,3.85,3.85,0,0,0,2.09,2.19c-.3-.85-1.13-1.58-1-2.47.08-.47.44-.86.54-1.34a3.78,3.78,0,0,0-.13-1.41A8.6,8.6,0,0,1,33.21,49a1.3,1.3,0,0,1,.36-.74,1.9,1.9,0,0,1,.67-.23,1.84,1.84,0,0,0,1.08-.77c-.14.08-.49.27-.66.21s0-.28-.12-.31-.48.08-.67.07S33.38,47,33.13,47.08Z"/><path class="a0d3061d-96f0-4a31-b07e-da89641e45e2" d="M19.62,50.71a.74.74,0,0,0,.35.18c.19,0,.36-.11.55-.18a.85.85,0,0,1,.87.18c.17.16.25.47.06.6a.4.4,0,0,1-.32,0,1.49,1.49,0,0,1-.73-.31,5.89,5.89,0,0,0,3.24,1.86,5.1,5.1,0,0,0,3.22-1A7.27,7.27,0,0,0,29,50.13a3.58,3.58,0,0,0,.7-2.6l0,0c.34.37.13-.81.07-1-.12-.31-.28-.6-.43-.9A3.61,3.61,0,0,1,29,45c-.05-.17,0-.44-.11-.58.27.4.75.72,1.05,1.11A5.57,5.57,0,0,1,30.74,47,6.8,6.8,0,0,1,31,50.36a13.32,13.32,0,0,0,.71-2.54,5,5,0,0,0-.27-2.59,5.34,5.34,0,0,0-1.39-1.84,9.74,9.74,0,0,1-.83-.74,7.29,7.29,0,0,0-.66-.81c-.17-.15-.35-.28-.53-.41s-.48-.27-.49-.35l.18,1.28A9.85,9.85,0,0,0,23.4,40a7.1,7.1,0,0,0-4.84.55,2.25,2.25,0,0,0-.92.78,7.24,7.24,0,0,1,6.21.34,14.55,14.55,0,0,1,4.8,4.5,13.54,13.54,0,0,0,1,1.32,3.87,3.87,0,0,1-.43.7,6.14,6.14,0,0,1-1.93,1.36,8.11,8.11,0,0,1-1.54.68,5.89,5.89,0,0,1-4.33-.63,9.4,9.4,0,0,1-4-4.09A6.23,6.23,0,0,0,19.62,50.71Z"/><path class="abbed6d5-102e-424e-b2a9-123eb231971b" d="M54.4,48.43A1.66,1.66,0,0,0,57,46.61a1.09,1.09,0,0,0-.57-.67,1,1,0,0,0-.93.1,2.1,2.1,0,0,0-.66.7,5,5,0,0,1,.54-3.65c.57-1.13,1.33-2.15,1.86-3.3a8.08,8.08,0,0,0,.8-4.07,6.59,6.59,0,0,0-.48,1.22,11.11,11.11,0,0,1-.72,1.26c-.54.83-1.15,1.61-1.66,2.45A11.18,11.18,0,0,0,53.63,46,2.92,2.92,0,0,0,54.4,48.43Z"/><path class="a0d3061d-96f0-4a31-b07e-da89641e45e2" d="M12.74,43a5,5,0,0,1,.55,3.66,2.17,2.17,0,0,0-.67-.71,1,1,0,0,0-.93-.1,1.1,1.1,0,0,0-.56.67,1.66,1.66,0,0,0,2.62,1.83,3,3,0,0,0,.78-2.43,11.3,11.3,0,0,0-1.59-5.36c-.5-.84-1.12-1.62-1.66-2.44a12.2,12.2,0,0,1-.72-1.27,6.59,6.59,0,0,0-.48-1.22,8.19,8.19,0,0,0,.8,4.07C11.41,40.81,12.18,41.83,12.74,43Z"/><path class="bbad4a77-905e-4503-bd4d-80b9ff2e007c" d="M52.4,43.48c0,.44,0,.88,0,1.31A5.22,5.22,0,0,0,52.4,43.48Z"/><path class="a0d3061d-96f0-4a31-b07e-da89641e45e2" d="M58.68,47.92a7.35,7.35,0,0,0-.32-1.16,6.72,6.72,0,0,1-.47-1,9,9,0,0,1,.24,3.33,4.15,4.15,0,0,1-2.85,2.88.83.83,0,0,1-.52-.06.93.93,0,0,1-.39-.46,7.28,7.28,0,0,1-.31-.77,4.93,4.93,0,0,0-.28-.9v0c-.1-.18-.23-.35-.35-.53a7.1,7.1,0,0,1-.8-2.6,13.76,13.76,0,0,1-.22-1.81c0,.5-.1,1-.09,1.46a11.14,11.14,0,0,0,.45,2.81c.12.38.26.75.38,1.13a4.67,4.67,0,0,1-.4,2c-.06.13-.16.27-.3.25a.33.33,0,0,1-.18-.15c-.13-.16-.26-.33-.38-.5A4.86,4.86,0,0,1,51.61,54a4.66,4.66,0,0,1-1.3,1.77A5.74,5.74,0,0,1,46.58,57a.54.54,0,0,1-.31,0l-1.64-.11a1.5,1.5,0,0,1-1.11-.42l-.09,0a2.35,2.35,0,0,0-1.2-1.47,2.49,2.49,0,0,0-1.95-.1,1.54,1.54,0,0,1,.73.47.61.61,0,0,1,.15.27.26.26,0,0,1-.11.26.37.37,0,0,1-.31,0,5.91,5.91,0,0,0-.82-.24,1.28,1.28,0,0,0-.84.1c.15,0,.32.11.35.26s-.11.25-.24.3a.9.9,0,0,1-.91-.33,2.34,2.34,0,0,1-.37-.89A5.33,5.33,0,0,1,36,58.21a5.25,5.25,0,0,1-1.91.94,5.27,5.27,0,0,1-3.83-4,2.21,2.21,0,0,1-.38.89.89.89,0,0,1-.9.33c-.13,0-.26-.17-.24-.3s.2-.22.35-.26a1.28,1.28,0,0,0-.84-.1,5.91,5.91,0,0,0-.82.24.37.37,0,0,1-.31,0A.24.24,0,0,1,27,55.7a.7.7,0,0,1,.14-.27,1.52,1.52,0,0,1,.74-.47,2.49,2.49,0,0,0-1.95.1,2.32,2.32,0,0,0-1.2,1.47l-.1,0a1.48,1.48,0,0,1-1.1.42L21.88,57a.54.54,0,0,1-.31,0,5.75,5.75,0,0,1-3.74-1.21A4.63,4.63,0,0,1,16.54,54a4.74,4.74,0,0,1-.27-2.27l-.38.5a.33.33,0,0,1-.18.15c-.14,0-.24-.12-.3-.25a4.84,4.84,0,0,1-.41-2c.13-.38.27-.75.38-1.13a10.31,10.31,0,0,0,.45-2.81,12.35,12.35,0,0,0-.08-1.46,13.76,13.76,0,0,1-.22,1.81,6.93,6.93,0,0,1-.81,2.6c-.11.18-.24.35-.34.53v0a3.75,3.75,0,0,0-.28.9,7.28,7.28,0,0,1-.31.77.93.93,0,0,1-.39.46.84.84,0,0,1-.52.06A4.15,4.15,0,0,1,10,49.06a9,9,0,0,1,.24-3.33,7.84,7.84,0,0,1-.47,1,6.41,6.41,0,0,0-.32,1.16A3,3,0,0,0,9.6,50a6.2,6.2,0,0,0,1.5,1.77A3.61,3.61,0,0,0,13.46,53a1.88,1.88,0,0,0,1.19-.5l.06-.06a7.71,7.71,0,0,0,.08,1.07,6.08,6.08,0,0,0,1.35,3,7.78,7.78,0,0,0,1.35,1.21,4.83,4.83,0,0,0,1.05.62,5.39,5.39,0,0,0,1,.28,8.28,8.28,0,0,0,2,.28,11,11,0,0,0,2.39-.49,15.1,15.1,0,0,1,2.4-.43l.28.06c.09-.3.41-.46.7-.59a1.9,1.9,0,0,1,1-.24,1.7,1.7,0,0,1,.49.18,3.32,3.32,0,0,1,.58.4,6.38,6.38,0,0,1,.73.74c1.08,1.23,2.15,2.48,3.19,3.75A5.17,5.17,0,0,1,34,63.34l0,.09,0-.09a5.59,5.59,0,0,1,.74-1.06q1.56-1.91,3.2-3.75a5.59,5.59,0,0,1,.72-.74,3.32,3.32,0,0,1,.58-.4,1.7,1.7,0,0,1,.49-.18,1.9,1.9,0,0,1,1,.24c.29.13.61.29.7.59l.28-.06a15.22,15.22,0,0,1,2.41.43,10.83,10.83,0,0,0,2.38.49,8.28,8.28,0,0,0,2-.28,5.39,5.39,0,0,0,1-.28,4.83,4.83,0,0,0,1-.62A7.78,7.78,0,0,0,52,56.51a6,6,0,0,0,1.35-3,7.72,7.72,0,0,0,.09-1.07l.05.06a1.88,1.88,0,0,0,1.19.5A3.61,3.61,0,0,0,57,51.81,6.2,6.2,0,0,0,58.54,50,3,3,0,0,0,58.68,47.92ZM15,50.22a8.44,8.44,0,0,0-.25,1.42A4.13,4.13,0,0,1,15,50.22Zm38.15,0a4.39,4.39,0,0,1,.26,1.42A8.46,8.46,0,0,0,53.15,50.22Z"/><path class="bbad4a77-905e-4503-bd4d-80b9ff2e007c" d="M15.75,43.48a5.74,5.74,0,0,0,0,1.31A9.54,9.54,0,0,0,15.75,43.48Z"/><path class="a0d3061d-96f0-4a31-b07e-da89641e45e2" d="M40.62,41.08c0,.08-.42.29-.5.35s-.35.27-.52.41a7.19,7.19,0,0,0-.67.81,8.42,8.42,0,0,1-.83.74,5.34,5.34,0,0,0-1.39,1.84,4.86,4.86,0,0,0-.26,2.59,12.6,12.6,0,0,0,.7,2.54A6.8,6.8,0,0,1,37.41,47a5.6,5.6,0,0,1,.77-1.45c.3-.39.77-.71,1-1.11-.09.14-.06.41-.11.59a3.16,3.16,0,0,1-.27.66,9.47,9.47,0,0,0-.43.91c0,.14-.27,1.32.07,1l0,0a3.59,3.59,0,0,0,.71,2.6,7.23,7.23,0,0,0,2.08,1.93,5.12,5.12,0,0,0,3.23,1,5.86,5.86,0,0,0,3.24-1.86,1.44,1.44,0,0,1-.73.31.46.46,0,0,1-.33,0c-.19-.14-.11-.45.06-.61a.88.88,0,0,1,.88-.18,1.24,1.24,0,0,0,.54.18.62.62,0,0,0,.35-.18,6.23,6.23,0,0,0,2.25-5.19,9.29,9.29,0,0,1-4,4.09,5.86,5.86,0,0,1-4.32.63,7.93,7.93,0,0,1-1.55-.68A6.3,6.3,0,0,1,39,48.2a3.87,3.87,0,0,1-.43-.7,13.54,13.54,0,0,0,1-1.32,14.65,14.65,0,0,1,4.8-4.5,7.26,7.26,0,0,1,6.22-.34,2.28,2.28,0,0,0-.93-.78A7.09,7.09,0,0,0,44.75,40a9.85,9.85,0,0,0-4.32,2.35C40.49,41.94,40.55,41.51,40.62,41.08Z"/><path class="abbed6d5-102e-424e-b2a9-123eb231971b" d="M30.32,43.14a1.7,1.7,0,0,0,1.31.43,1.72,1.72,0,0,0,1.18-.72.67.67,0,0,0,.84.44.94.94,0,0,0,.43-.25.91.91,0,0,0,.42.25.67.67,0,0,0,.85-.44,1.68,1.68,0,0,0,1.17.72,1.71,1.71,0,0,0,1.32-.43.73.73,0,0,1-.75-.32.71.71,0,0,1,.07-.81c.34-.41,1-.33,1.4-.69-.1.1-.85-.15-1-.2a1.4,1.4,0,0,1-.79-.66c-.09-.18-.09-.8-.34-.74s-.18.92-.19,1.13A3.83,3.83,0,0,1,35,38.58a6.6,6.6,0,0,0-.24,2.77,1.18,1.18,0,0,1-.72-.68,1.19,1.19,0,0,1-.73.68,6.6,6.6,0,0,0-.24-2.77,3.87,3.87,0,0,1-1.21,2.27c0-.21.08-1.06-.2-1.13s-.24.56-.33.74a1.43,1.43,0,0,1-.79.66c-.13.05-.88.3-1,.2.38.36,1.07.28,1.41.69a.7.7,0,0,1-.68,1.13Z"/><path class="abbed6d5-102e-424e-b2a9-123eb231971b" d="M32.81,45.87a.28.28,0,0,0,.2,0c.05,0,.08-.08.14-.1a.34.34,0,0,1,.25.06,1.24,1.24,0,0,0,1.35,0,.35.35,0,0,1,.26-.06c.05,0,.08.07.13.1a.3.3,0,0,0,.21,0,.91.91,0,0,0,.65-.56,2.55,2.55,0,0,0,.18-.87c-.16.14-.37.3-.57.21a.47.47,0,0,1-.23-.3,1.6,1.6,0,0,1-.08-.72c0,.25-.11,1.22-.53,1a.45.45,0,0,1-.22-.21,3.88,3.88,0,0,1-.46-1,.35.35,0,0,1,0,.14.23.23,0,0,1,0-.14,3.88,3.88,0,0,1-.46,1,.55.55,0,0,1-.22.21c-.42.19-.51-.78-.53-1a1.48,1.48,0,0,1-.09.72.47.47,0,0,1-.23.3c-.2.09-.41-.07-.57-.21a2.81,2.81,0,0,0,.18.87A.89.89,0,0,0,32.81,45.87Z"/><path class="abbed6d5-102e-424e-b2a9-123eb231971b" d="M28.76,37.89a13.85,13.85,0,0,1,3.89-1,13.71,13.71,0,0,1,1.43-.08,13.52,13.52,0,0,1,1.42.08,13.76,13.76,0,0,1,3.89,1,3.8,3.8,0,0,0,1.72.45,7,7,0,0,1-2.71-2.12,2,2,0,0,0-.48-.53,1.87,1.87,0,0,0-1.12-.21l-2.73.07-2.72-.07a1.87,1.87,0,0,0-1.12.21,2,2,0,0,0-.48.53A7,7,0,0,1,27,38.34,3.77,3.77,0,0,0,28.76,37.89Z"/><path class="a0d3061d-96f0-4a31-b07e-da89641e45e2" d="M51.47,49.72a.66.66,0,0,0,.63-.52c.13-.5-.38-1.18-.86-.74S50.86,49.67,51.47,49.72Z"/><path class="a0d3061d-96f0-4a31-b07e-da89641e45e2" d="M52,50.55v-.14a.5.5,0,0,0-.2.45.39.39,0,0,0,.34.32.34.34,0,0,0,.36-.28.58.58,0,0,0,0-.19.5.5,0,0,0-.19-.24A.21.21,0,0,0,52,50.55Z"/><path class="bd95760d-940d-471e-a581-920bce57540c" d="M36.6,55.69A1.38,1.38,0,0,0,37,54.11a.84.84,0,0,0-.25-.36c-1.06-.92-2.63.86-1.7,1.85A1.22,1.22,0,0,0,36.6,55.69Z"/><path class="abbed6d5-102e-424e-b2a9-123eb231971b" d="M36.23,52.66a.53.53,0,0,0,.77-.34.52.52,0,0,0-.62-.56l-.13.05A.54.54,0,0,0,36.23,52.66Z"/><path class="a0d3061d-96f0-4a31-b07e-da89641e45e2" d="M27.86,54a.73.73,0,0,0,.48-1.25C27.31,51.71,26.56,54,27.86,54Z"/><path class="a0d3061d-96f0-4a31-b07e-da89641e45e2" d="M26.18,53.82h-.09a.32.32,0,0,0,.05.49.29.29,0,0,0,.43-.22A.29.29,0,0,0,26.18,53.82Z"/><path class="a0d3061d-96f0-4a31-b07e-da89641e45e2" d="M16.16,50.37a.5.5,0,0,0,.31-.22,3.88,3.88,0,0,1,.23-.33c.1-.11.23-.18.32-.29a.55.55,0,0,0,.05-.58.68.68,0,0,0-1.19.06C15.74,49.33,15.56,50.45,16.16,50.37Z"/><path class="a0d3061d-96f0-4a31-b07e-da89641e45e2" d="M16.59,48.26h.13A.44.44,0,0,0,17,48a.34.34,0,0,0-.16-.38.3.3,0,0,0-.39.12l0,0a.29.29,0,0,0-.12.3A.29.29,0,0,0,16.59,48.26Z"/><path class="bb8aeeac-ef2c-4327-9593-8739e968e5a2" d="M17.57,50.19A.33.33,0,0,0,18,50a.34.34,0,0,0-.3-.39.27.27,0,0,0-.24.09l.05,0A.3.3,0,0,0,17.57,50.19Z"/><path class="a0d3061d-96f0-4a31-b07e-da89641e45e2" d="M15.77,51.17a.39.39,0,0,0,.34.11.34.34,0,0,0,.17-.05.31.31,0,0,0,0-.46.41.41,0,0,0-.5,0l0,.07A.23.23,0,0,0,15.77,51.17Z"/><path class="a0d3061d-96f0-4a31-b07e-da89641e45e2" d="M51.44,41.85a.38.38,0,0,0,.5.16.44.44,0,0,0,.14-.13.55.55,0,0,0,.1-.43.46.46,0,0,0-.3-.33.36.36,0,0,0-.4.16h0A.52.52,0,0,0,51.44,41.85Z"/><path class="a0d3061d-96f0-4a31-b07e-da89641e45e2" d="M51.54,42.75h0a.38.38,0,0,0-.09.18.22.22,0,0,0,.07.19l.12,0a.29.29,0,0,0,.24-.15.23.23,0,0,0,0-.28A.2.2,0,0,0,51.54,42.75Z"/><path class="abbed6d5-102e-424e-b2a9-123eb231971b" d="M38.85,40.19a1.17,1.17,0,0,0,1,.05.88.88,0,0,0,.2-1.51,1.23,1.23,0,0,0-.71-.28.93.93,0,0,0-1,.51.86.86,0,0,0,0,.72A1.17,1.17,0,0,0,38.85,40.19Z"/><path class="abbed6d5-102e-424e-b2a9-123eb231971b" d="M37.81,38.73a.42.42,0,0,0,.09-.56.4.4,0,0,0-.56-.06l-.05,0a.27.27,0,0,0-.15.24.37.37,0,0,0,.1.28A.44.44,0,0,0,37.81,38.73Z"/><path class="abbed6d5-102e-424e-b2a9-123eb231971b" d="M41.27,40.56a.23.23,0,0,0,.16,0,.29.29,0,0,0,.21-.4A.42.42,0,0,0,41.2,40l-.05,0A.39.39,0,0,0,41.27,40.56Z"/><path class="b8df23eb-c1bc-4ed0-80f2-b767b7092b39" d="M30.05,39.79a1.24,1.24,0,0,0,.21-.52.61.61,0,0,0-.14-.52.72.72,0,0,0-.37-.21,1,1,0,0,0-.52,0,.82.82,0,0,0-.44,1.09.81.81,0,0,0,.57.51.58.58,0,0,0,.37,0A.84.84,0,0,0,30.05,39.79Z"/><path class="bd95760d-940d-471e-a581-920bce57540c" d="M27.17,40.39a.45.45,0,0,0,.59-.17.48.48,0,0,0-.12-.61.5.5,0,0,0-.66.07l0,.12A.44.44,0,0,0,27.17,40.39Z"/><path class="a0d3061d-96f0-4a31-b07e-da89641e45e2" d="M26.33,39.72a.24.24,0,0,0,.18-.31.23.23,0,0,0-.33-.11h-.11a.2.2,0,0,0-.05.22A.27.27,0,0,0,26.33,39.72Z"/><path class="a0d3061d-96f0-4a31-b07e-da89641e45e2" d="M9.57,36.34c.18-.46-.13-1.12-.66-.71-.34.27-.45,1.2.17,1.19C9.32,36.81,9.48,36.57,9.57,36.34Z"/><path class="a0d3061d-96f0-4a31-b07e-da89641e45e2" d="M9.57,38.09a.34.34,0,1,0-.28-.61h0a.34.34,0,0,0,.3.6Z"/><path class="a0d3061d-96f0-4a31-b07e-da89641e45e2" d="M12.33,38.06a.45.45,0,0,0,.2,0,.37.37,0,0,0,.12-.2c.11-.37-.25-1.11-.7-.79S11.9,38,12.33,38.06Z"/><path class="abbed6d5-102e-424e-b2a9-123eb231971b" d="M47.84,55.17c-.58-.13-1.16.59-.66,1.06a.69.69,0,0,0,.8.07.67.67,0,0,0,.35-.59A.6.6,0,0,0,47.84,55.17Z"/><path class="a0d3061d-96f0-4a31-b07e-da89641e45e2" d="M49.08,55.2l-.1,0h0a.35.35,0,0,0-.06.44.41.41,0,0,0,.43.17.46.46,0,0,0,.33-.33.32.32,0,0,0-.09-.36A.51.51,0,0,0,49.08,55.2Z"/><path class="a0d3061d-96f0-4a31-b07e-da89641e45e2" d="M39.31,53.45a.74.74,0,0,0,.79-.1.91.91,0,0,0,.34-.74.88.88,0,0,0-1.39-.72C38.54,52.26,38.81,53.21,39.31,53.45Z"/><path class="a0d3061d-96f0-4a31-b07e-da89641e45e2" d="M38.57,51.41a.37.37,0,0,0,.49-.06.39.39,0,0,0,0-.5.41.41,0,0,0-.5,0v.08A.36.36,0,0,0,38.57,51.41Z"/><path class="abbed6d5-102e-424e-b2a9-123eb231971b" d="M41.06,53.28c0,.17.11.54.33.55s.18-.15.27-.2a.72.72,0,0,1,.38-.05.21.21,0,0,0,.19,0,.09.09,0,0,0,0-.07c0-.14-.13-.24-.26-.3C41.65,53,41,52.58,41.06,53.28Z"/><path class="bd95760d-940d-471e-a581-920bce57540c" d="M37.53,49.2a.53.53,0,0,0,0,.59.31.31,0,0,0,.44,0,.36.36,0,0,0,.07-.45C38,49.23,37.69,49.05,37.53,49.2Z"/><path class="a1d56c0c-9554-4e3b-9fa0-71bf96c2cbdc" d="M51.87,7.34,51.62,7Z"/><path class="a83336ef-0e8b-47e7-8246-ef1cf21bcf8b" d="M53.39,22.41l-.2-.53L50.3,15.73l-1.59-2.84,8.92,2.21L51.86,7.34c.65.89,2.24,3.35.82,3.86-1.76.63-8.13-.73-8.13-.73A26.62,26.62,0,0,1,47.89,13s2.88,8.15-.2,9.94A31.53,31.53,0,0,0,53.39,22.41Z"/><path class="ec807489-2379-4371-a818-a2002528d549" d="M47.69,23a2.38,2.38,0,0,1-.85.3s5.23.52,5.35,3.25-3.94,4.36-3.94,4.36l8-.76-2.88-7.7A31.53,31.53,0,0,1,47.69,23Z"/><path class="bc335e3a-e0d2-49f9-8055-d0866f64f4b2" d="M11.77,30.19l7.16.68s-6.19-7.69.79-7.74l-.08-.22c-1.61-.15-3.23-.46-4.84-.56Z"/><path class="ea62efca-6a6b-41b3-9808-8d2e150297bd" d="M20.6,15.9C23.15,13.32,45.5,1.5,45.5,1.5l2.4.77-1.37-2L19.6,12.89l-4.75,9.33,0,.13c1.61.1,3.23.41,4.84.56C19.35,21.94,18.38,18.15,20.6,15.9Z"/><path d="M40.6,16.33a8.31,8.31,0,0,1-2.38,1.33c.32.46,1,.36,1.56.2a34.11,34.11,0,0,0,5.07-2c-1,1.47-2.73,2.18-4.39,2.77-2.8,1-5.81,1.92-8.7,1.2-1.92-.47-4.83-2-5.84-3.77,1.86.27,3.46,1.48,5.43,1.67A17.2,17.2,0,0,0,36,17.45C37.16,17.24,39.67,17.07,40.6,16.33Z"/><path d="M27.9,29.81c1.76,0,3.52,0,5.27.08,1.37,0,2.73,0,4.1-.05l3,0a.29.29,0,0,0,.28-.28V25a.29.29,0,0,0-.28-.28c-1.75,0-3.5,0-5.26.08l-.91,0c-1.6,0-3.21-.07-4.81-.09H27.9a.29.29,0,0,0-.28.28v4.53A.29.29,0,0,0,27.9,29.81Zm.28-4.54c1.66,0,3.32,0,5,.08l.92,0q2.4-.06,4.8-.09H40v4c-1.67,0-3.33,0-5,.07-1.37,0-2.73,0-4.1,0l-2.7,0v-4Zm-18.24,10c.59,3.06,3.28,5.24,4.05,8.25.36,1.39.72,4.5-1.13,5a1.37,1.37,0,0,1-1.58-1.75c.35-1,1.77-.77,1.57.33,0,.16.19.34.32.18A1.08,1.08,0,0,0,13,45.87a1.37,1.37,0,0,0-1.71,0c-1.3.94-.5,3.07.92,3.36,1.9.39,2.59-1.88,2.64-3.32a9.62,9.62,0,0,0-1.56-5.38,58.92,58.92,0,0,1-3.21-5.28C10,35.14,9.93,35.19,9.94,35.27Zm19.58,14A13,13,0,0,1,26,52.46a4.21,4.21,0,0,1-4.44-.38c-.18-.13-.37.14-.22.29,2.79,2.86,6.89-.31,8.37-3C29.72,49.3,29.59,49.19,29.52,49.28Zm-9.68,1.89A.17.17,0,0,0,20,51a2.2,2.2,0,0,0-.61-.75,8.31,8.31,0,0,1-.82-1,12.46,12.46,0,0,1-1.22-2c-.05-.11-.22,0-.19.08a7,7,0,0,0,1,2.29C18.6,50.11,19.16,51,19.84,51.17Zm4.84,5.53c-1.85-.09-3.75.33-5.53-.39a4.54,4.54,0,0,1-2-1.59,4.29,4.29,0,0,1-.56-1.16,5,5,0,0,0-.3-1,.13.13,0,0,0-.22,0,2.66,2.66,0,0,0,.45,2.23,5,5,0,0,0,2,1.82,6.35,6.35,0,0,0,2.64.62c1.2,0,2.35-.34,3.54-.43A.05.05,0,0,0,24.68,56.7Zm4.63-15.3c.5.37,1.43,0,1.84-.34a2.08,2.08,0,0,0,.36-2.16.07.07,0,0,0-.14,0,2.25,2.25,0,0,1-.54,1.88c-.48.37-.95.19-1.48.31C29.2,41.13,29.21,41.32,29.31,41.4ZM68,30.35c-.06-.27-.13-.52-.2-.78s-.2-.89-.54-1.13-.92,0-1.27.08l-1.88.31c-1.24.2-2.48.38-3.73.55s-2.52.32-3.78.46a96.77,96.77,0,0,0-5.8-13.54c-.55-1.05-1.12-2.08-1.71-3.11l2.5.66,5,1.3,1.14.3c.21.06.47-.2.31-.4l-1.13-1.49L54.2,10q-1.64-2.16-3.29-4.31L48.08,2,46.7.16l0,0a.28.28,0,0,0-.37-.1l-1.08.5L42.39,1.85l-4,1.89-4.72,2.2L28.83,8.16l-4.31,2-3.27,1.52-1.68.78-.1,0c-.17.11-.26.38-.36.55-.21.36-.41.72-.61,1.09q-1.21,2.17-2.31,4.41a95.56,95.56,0,0,0-3.9,9.15q-.39,1.07-.75,2.13-3.84-.42-7.65-1L2.08,28.5c-.37-.06-.94-.3-1.26,0a2.15,2.15,0,0,0-.48,1.1,7.19,7.19,0,0,0-.2.8,3.28,3.28,0,0,0,0,2,1,1,0,0,0,.56.56,11,11,0,0,0,1.71.34c1.34.26,2.69.5,4,.72A13.91,13.91,0,0,0,4.7,38.62c0,.2.13.43.35.35l.45-.14A26,26,0,0,0,5,45.06a.29.29,0,0,0,.49.2l.94-.79A18,18,0,0,1,6.76,49a.29.29,0,0,0,.56.07,2.11,2.11,0,0,1,.29-.69A27.17,27.17,0,0,1,8.9,53.09c0,.27.39.25.52.07l.29-.41c.27.54.53,1.08.79,1.62s.5,1.25,1.11,1.43a.88.88,0,0,0,.85-.26,1.27,1.27,0,0,1,.69-.35,2,2,0,0,1,1.37.39,10.81,10.81,0,0,1,1.34,1.09l0,0,.31.36a6.4,6.4,0,0,0,2.47,1.62,6.67,6.67,0,0,0,3.1.33c.58-.08,1.15-.21,1.72-.32s1.15-.19,1.74-.25l.88-.08.07,0a6,6,0,0,0,2.42,1.42,13.69,13.69,0,0,1,2.37,1,8.83,8.83,0,0,1,1.5,1.09,5.78,5.78,0,0,1,.75.9,5,5,0,0,1,.37.63l.06.14,0,0,0,0a2.33,2.33,0,0,1,.11.28.28.28,0,0,0,.53,0l.11-.27,0-.07,0,0,.06-.14a4.45,4.45,0,0,1,.37-.64,7.16,7.16,0,0,1,.75-.9,8.83,8.83,0,0,1,1.5-1.09,13.69,13.69,0,0,1,2.37-1A6,6,0,0,0,42,58.34l.07,0c.59,0,1.19.1,1.77.19s1.15.2,1.73.32a8.88,8.88,0,0,0,1.71.2,6.43,6.43,0,0,0,1.51-.18,6.32,6.32,0,0,0,3.48-2.18l.06,0a13.62,13.62,0,0,1,1.18-1,2.2,2.2,0,0,1,1.36-.51,1.28,1.28,0,0,1,.72.23c.25.19.44.43.78.42.65,0,1-.72,1.2-1.21s.6-1.25.91-1.87l.29.41c.13.18.48.2.53-.07a26.27,26.27,0,0,1,1.28-4.67,1.91,1.91,0,0,1,.29.69A.29.29,0,0,0,61.4,49a17.54,17.54,0,0,1,.36-4.57l.94.79a.29.29,0,0,0,.49-.2,25.53,25.53,0,0,0-.54-6.23l.45.14c.22.08.39-.15.35-.35A13.91,13.91,0,0,0,61.68,34l.35-.06q1.86-.3,3.69-.66a14.32,14.32,0,0,0,1.6-.38,1,1,0,0,0,.68-.55A3.16,3.16,0,0,0,68,30.35ZM54.71,26.21c.48,1.22.92,2.45,1.34,3.69q-1.54.17-3.09.3c-3.4.3-6.81.5-10.21.6,0,0,0-.05,0-.08a46.16,46.16,0,0,0-.2-5.64c-.05-.5-.11-1-.18-1.51l1.52-.1c2.89-.2,5.77-.42,8.64-.73l.71-.08C53.76,23.84,54.25,25,54.71,26.21Zm-39-5.27q1.05-2.27,2.2-4.47c.39-.74.78-1.47,1.19-2.19.2-.37.41-.73.61-1.09A2.53,2.53,0,0,0,19.8,13h0c.1-.06.23-.1.33-.15L21,12.4,24,11,28.1,9.11l4.71-2.19,4.75-2.21,4.24-2L45,1.26c.46-.21.94-.41,1.39-.64l1,1.28c.9,1.18,1.8,2.37,2.71,3.55l3.28,4.32,2.84,3.72.93,1.22h0l-2.36-.62-5-1.3-1.14-.3a.27.27,0,0,0-.31.4A98,98,0,0,1,53,22.14c-2.66.3-5.33.51-8,.7s-5.48.37-8.22.5c-.85,0-1.69.08-2.54.1s-1.42,0-2.13-.06c-2.63-.12-5.25-.28-7.88-.46-2.88-.2-5.77-.42-8.64-.73l-.48-.05Zm10.48,4.14c.05-.49.1-1,.17-1.47,1.68.11,3.36.2,5,.29.84,0,1.68.08,2.53.09s1.42,0,2.13-.06q2.91-.12,5.82-.32a48.08,48.08,0,0,1,.38,5.5c0,.53,0,1.07,0,1.61a.28.28,0,0,0,0,.09c-1.47,0-2.95.06-4.42.06-1.24,0-2.48,0-3.72-.06-2.72.07-5.43.07-8.15,0a.29.29,0,0,0,0-.09A46.16,46.16,0,0,1,26.15,25.08ZM14.9,22.67c2.74.31,5.49.53,8.23.73l2.64.18a46.42,46.42,0,0,0-.39,5.53c0,.54,0,1.07,0,1.61,0,0,0,.05,0,.08q-3.26-.11-6.49-.31-3.42-.22-6.82-.59Q13.36,26.23,14.9,22.67ZM5.36,38.27a13.45,13.45,0,0,1,1.72-4.21l.51.09c0,.23,0,.46,0,.7a10.23,10.23,0,0,0-1,1.7,6.79,6.79,0,0,0-.69,1.57h0Zm.8.06a4.5,4.5,0,0,0,.22-.55c.15-.38.32-.76.49-1.13s.46-.93.7-1.39a10.34,10.34,0,0,0,.28,1.92,12.14,12.14,0,0,0-1.63,2.49,10.36,10.36,0,0,0-.45.94c.1-.72.23-1.43.39-2.14A.22.22,0,0,0,6.16,38.33Zm.28,5.37-.07,0-.85.71c0-.67,0-1.33.05-2,.15-.38.21-.79.34-1.18a10.34,10.34,0,0,1,.65-1.53C7,39,7.49,38.2,7.91,37.4c.1.4.22.8.35,1.19l.12.34a7.23,7.23,0,0,0-1.22,2.23A7.48,7.48,0,0,0,6.44,43.7Zm14.19-5.81c-2.09.14-4.25.22-5.82,1.76l0-.09c-.1-.21-.21-.41-.32-.6l-.15-.28h0a10.11,10.11,0,0,0,1.13-.85,6.33,6.33,0,0,1,1.21-.63,9.45,9.45,0,0,1,3.08-.44,14.55,14.55,0,0,0,2.72-.23,3.5,3.5,0,0,0,1.72-.75c1.11,0,2.21.08,3.32.1A13.74,13.74,0,0,1,20.63,37.89Zm7.24-2,1.93,0a12.45,12.45,0,0,1-8,3.48c-1.22.08-2.44.06-3.65.22a5.38,5.38,0,0,0-2.89,1.13c-.1-.25-.2-.5-.31-.75,1.82-1.79,4.61-1.45,6.93-1.75a16,16,0,0,0,3.62-.89A4.92,4.92,0,0,0,27.87,35.88ZM23.05,36a6.89,6.89,0,0,1-1.35.28c-1,.11-2.08,0-3.11.08a7,7,0,0,0-2.51.6,4.18,4.18,0,0,0-1.92,1.42c-.25-.45-.51-.9-.8-1.33A9.22,9.22,0,0,1,16,35.66c.62-.14,1.25-.15,1.86-.28q2.88.24,5.78.37A5.25,5.25,0,0,1,23.05,36Zm-7.5-.58a6,6,0,0,0-2.36,1.38c-.22-.33-.45-.64-.69-.95.11-.07.22-.25.33-.33a5.7,5.7,0,0,0,.78-.59q1.48.16,3,.3A6,6,0,0,0,15.55,35.45Zm-3.22.23c-.27-.34-.56-.67-.85-1l1.92.23A2.69,2.69,0,0,0,12.33,35.68ZM14,39.24a13.08,13.08,0,0,1,1.12,2.61c.12.41.24.82.34,1.23,0,.18.07.35.11.53s0,.15,0,.23l0,.1s0,.06,0,.07a8.85,8.85,0,0,1,.05,1.15c0,.54,0,1.07-.08,1.6a11.43,11.43,0,0,1-.28,1.53c-.13.46-.32.89-.47,1.34a8.09,8.09,0,0,0-.4,2.64.23.23,0,0,0-.14,0,2.08,2.08,0,0,1-2.18,0,3.6,3.6,0,0,1-.84-.72,10.05,10.05,0,0,1-.82-.91,7.39,7.39,0,0,1-.71-1,1.81,1.81,0,0,1-.22-.68,4.35,4.35,0,0,1,.29-1.7c.37-1.18,1-2.42.7-3.69A37.5,37.5,0,0,0,9,39a11.69,11.69,0,0,1-.88-4.51c0-.09,0-.19,0-.29l2.45.35A17.49,17.49,0,0,1,14,39.24ZM7.1,45.14c-.07-.43-.15-.85-.25-1.27v0a23.36,23.36,0,0,0,.71-2.38c.27-.77.68-1.52.91-2.3.27.76.56,1.51.82,2.27a6.23,6.23,0,0,0-1.64,2.2A7.23,7.23,0,0,0,7.14,45S7.11,45.09,7.1,45.14Zm.44,2.49,0,0-.15.16c0-.57,0-1.13-.11-1.7a9,9,0,0,0,.22-.93A9.31,9.31,0,0,1,8,43.74,14.3,14.3,0,0,1,9.34,41.6c.2.58.38,1.17.53,1.77l.09.4a8.88,8.88,0,0,0-1.45,1.72A6.12,6.12,0,0,0,7.54,47.63Zm.44.16,0,0c.16-.31.26-.66.4-1s.35-.71.55-1.06A14.79,14.79,0,0,1,10,44.07a2.53,2.53,0,0,1,0,.28,3.9,3.9,0,0,1-.12.9c-.16.65-.4,1.26-.61,1.89A9.9,9.9,0,0,0,9,48.21c-.08.2-.15.4-.22.6s-.16.44-.21.66Q8.31,48.61,8,47.79Zm1.7,3.78a1.26,1.26,0,0,0-.16.46h0l-.18.26c-.16-.78-.36-1.54-.58-2.3A1.72,1.72,0,0,0,9,49.28a2.41,2.41,0,0,0,.17.58,6.47,6.47,0,0,0,.66,1l.17.21A3,3,0,0,0,9.68,51.57ZM10,52l0,0,.06-.29c0-.17.07-.33.11-.49.17.2.35.4.53.59l.25.26a2.65,2.65,0,0,0-.42,1Zm1.61,2.12a3.48,3.48,0,0,0-.09.9,3.73,3.73,0,0,1-.44-.78c-.08-.18-.17-.36-.26-.54a5.18,5.18,0,0,0,.11-.79c0-.24.1-.47.15-.71a4,4,0,0,0,.49.42,2.55,2.55,0,0,0,.39.24A6.21,6.21,0,0,0,11.62,54.16Zm1.11.54a1.93,1.93,0,0,0-.38.19,3.17,3.17,0,0,0-.35.29l-.11.06a4.14,4.14,0,0,0,.1-.93c0-.44.14-.87.23-1.3a3,3,0,0,0,1,.19,2.54,2.54,0,0,0,0,.87,1.41,1.41,0,0,0,.11.54A1.69,1.69,0,0,0,12.73,54.7Zm1-.06a1,1,0,0,0,0-.57,8.66,8.66,0,0,0-.12-.89,2.78,2.78,0,0,0,.5-.11,1.9,1.9,0,0,0,.43-.21,7.3,7.3,0,0,0,.42,2c0,.15.11.29.17.43A3.07,3.07,0,0,0,13.7,54.64Zm16.36,4.89A9.83,9.83,0,0,1,26.9,58a2,2,0,0,1,.91-.38,1.61,1.61,0,0,1,1.24.55A11.5,11.5,0,0,1,30,59.33l.16.24Zm8,0-.09,0,.17-.24a10.26,10.26,0,0,1,.94-1.15,1.55,1.55,0,0,1,1.23-.55,2,2,0,0,1,.91.38A9.94,9.94,0,0,1,38.09,59.53Zm13.82-3.29,0,0a.26.26,0,0,0-.07.11c-.05.07-.11.13-.17.2a5.64,5.64,0,0,1-2.29,1.56,6.06,6.06,0,0,1-3,.32c-.57-.08-1.13-.22-1.69-.32s-1.17-.19-1.76-.25l-.56-.05a2.7,2.7,0,0,0,.31-.88c.22-1.28-.65-2-1.76-2.38-.6-.19-1.23-.31-1.85-.45a3.88,3.88,0,0,1-1.56-.51c-.07-.06-.15.06-.09.12A5.36,5.36,0,0,0,39.94,55a5.39,5.39,0,0,1,1.47.59,1.2,1.2,0,0,1,.49,1.18,2.74,2.74,0,0,0-.58-.7,2.06,2.06,0,0,0-2.21-.28s0,.08,0,.07a2.25,2.25,0,0,1,2.07.58,1.89,1.89,0,0,1,.44.81,1.7,1.7,0,0,1,0,.22,1.28,1.28,0,0,1-.15.25,1.8,1.8,0,0,0-2.17-.47,3.29,3.29,0,0,0-1.08,1,4.28,4.28,0,0,0-.4-2.89s-.08,0-.07,0a4.59,4.59,0,0,1-.59,3.88c-.37.5-.82.94-1.23,1.4-.13.15-.27.29-.4.45a3.81,3.81,0,0,0-.54.65,6.34,6.34,0,0,0-.61.76,4.7,4.7,0,0,0-.37.65,6,6,0,0,0-.37-.65,6.34,6.34,0,0,0-.61-.76,4.19,4.19,0,0,0-.57-.68l-.32-.36c-.43-.48-.9-.94-1.29-1.46a4.62,4.62,0,0,1-.58-3.88s-.05-.06-.07,0a4.28,4.28,0,0,0-.4,2.89,3.13,3.13,0,0,0-1.09-1,1.77,1.77,0,0,0-2.16.47,2.26,2.26,0,0,1-.16-.26l0-.13a1.86,1.86,0,0,1,.46-.89A2.27,2.27,0,0,1,29,55.81s.07-.05,0-.07a2.05,2.05,0,0,0-2.21.28,3,3,0,0,0-.59.7,1.22,1.22,0,0,1,.45-1.15A4.87,4.87,0,0,1,28.21,55a5.39,5.39,0,0,0,2.57-1.22c0-.06,0-.18-.09-.12a3.88,3.88,0,0,1-1.57.51c-.61.14-1.24.26-1.84.45-1.11.35-2,1.1-1.76,2.38a2.49,2.49,0,0,0,.31.88c-.5,0-1,.1-1.49.17s-1.14.19-1.7.3a9.43,9.43,0,0,1-1.67.22,6.29,6.29,0,0,1-1.44-.16,5.54,5.54,0,0,1-3.18-2,.38.38,0,0,0-.08-.11h0A6.31,6.31,0,0,1,15.53,55a7.51,7.51,0,0,1-.24-5c.12-.43.31-.84.44-1.27a8.9,8.9,0,0,0,.34-1.53,14.31,14.31,0,0,0,.12-3,10.93,10.93,0,0,0-.42-2c-.09-.31-.18-.62-.29-.92a.08.08,0,0,0,0,0,4.71,4.71,0,0,1,2.59-1.09c1.18-.17,2.38-.15,3.58-.22a13.29,13.29,0,0,0,6.1-1.82,12.13,12.13,0,0,0,2.77-2.22l1.68,0c1.79,0,3.57,0,5.35,0a11.57,11.57,0,0,0,2.45,2,12.8,12.8,0,0,0,2.84,1.36,12.35,12.35,0,0,0,3.13.64c1.23.1,2.47.06,3.7.21a5,5,0,0,1,2.93,1.14l0,0c0,.1-.07.2-.1.3A14.27,14.27,0,0,0,52,43.82a12.18,12.18,0,0,0,0,2.63,10.7,10.7,0,0,0,.68,3,7.57,7.57,0,0,1,.15,5A6.31,6.31,0,0,1,51.91,56.24Zm5.74-11.17a13,13,0,0,0,.55,1.84,7.14,7.14,0,0,1,.44,1.72,2,2,0,0,1-.08.78,2.75,2.75,0,0,1-.48.82,8.16,8.16,0,0,1-.79,1c-.26.29-.52.57-.8.83a2.32,2.32,0,0,1-2.15.53,1.69,1.69,0,0,1-.48-.25.23.23,0,0,0-.14,0,8.2,8.2,0,0,0-.22-2A10.28,10.28,0,0,0,53.09,49a9.73,9.73,0,0,1-.41-1.52,14.14,14.14,0,0,1-.16-3.12,2.19,2.19,0,0,1,0-.36s0-.05,0-.06v-.11c0-.08,0-.17,0-.25a10.92,10.92,0,0,1,.27-1.13,14.71,14.71,0,0,1,1-2.62l.33-.61a17.69,17.69,0,0,1,3.39-4.66c.82-.11,1.63-.22,2.45-.35a10.43,10.43,0,0,1-.67,4.24c-.51,1.54-1.16,3-1.56,4.61a5.73,5.73,0,0,0-.21,1.08A4.65,4.65,0,0,0,57.65,45.07Zm-1.83-9.39a2.65,2.65,0,0,0-1.06-.75l1.92-.23C56.38,35,56.1,35.34,55.82,35.68Zm-.5-.13c.11.08.22.26.34.33-.24.31-.47.62-.69.95a5.54,5.54,0,0,0-3.4-1.57q1.49-.13,3-.3A5.7,5.7,0,0,0,55.32,35.55Zm-3.16.11a9.05,9.05,0,0,1,2.63,1.42c-.28.43-.55.88-.79,1.33A4.25,4.25,0,0,0,52.15,37a7.19,7.19,0,0,0-2.58-.63c-1-.07-2,0-3-.07A6.94,6.94,0,0,1,45.11,36a4.53,4.53,0,0,1-.59-.28l2.68-.14,3.1-.23C50.9,35.51,51.54,35.52,52.16,35.66Zm-6.45.86a14.44,14.44,0,0,0,2.71.23,9.42,9.42,0,0,1,3.08.44,6.13,6.13,0,0,1,1.22.63,11,11,0,0,0,1.12.85h0L53.7,39c-.13.22-.25.46-.36.69-1.57-1.53-3.73-1.62-5.82-1.76a13.73,13.73,0,0,1-6.85-2c1.1,0,2.2,0,3.31-.1A3.58,3.58,0,0,0,45.71,36.52Zm-3.18.78a16.48,16.48,0,0,0,3.72.93c2.32.3,5.12,0,6.94,1.75a7,7,0,0,0-.31.75,5,5,0,0,0-2.51-1.07,28.44,28.44,0,0,0-3.57-.26,13.5,13.5,0,0,1-3.23-.49,12.82,12.82,0,0,1-2.85-1.22,11.79,11.79,0,0,1-2.36-1.8h1.93A4.75,4.75,0,0,0,42.53,37.3Zm12,16.77c0,.19-.12.39,0,.56a2.91,2.91,0,0,0-1.2.52l-.15.11a7.68,7.68,0,0,0,.59-2.4,2.1,2.1,0,0,0,.93.31C54.54,53.46,54.56,53.78,54.5,54.07Zm1.53,1a1.48,1.48,0,0,0-.39-.26,1.88,1.88,0,0,0-.84-.19,1.4,1.4,0,0,0,.1-.54,2.37,2.37,0,0,0,0-.88,3.67,3.67,0,0,0,1-.19c.09.43.17.86.22,1.3a4.1,4.1,0,0,0,.11.94A.61.61,0,0,1,56,55.06Zm1.15-1a9.51,9.51,0,0,1-.46.9l-.1.14a3.51,3.51,0,0,0-.08-.91,7,7,0,0,0-.36-1.26,3.46,3.46,0,0,0,.88-.65h0c0,.24.12.47.15.71a5.18,5.18,0,0,0,.11.79Zm1-2-.51,1.05a2.73,2.73,0,0,0-.43-1c.24-.23.46-.47.68-.72l.1-.13c0,.16.08.32.11.49s0,.19.07.29Zm.68.26L58.64,52h0a1.26,1.26,0,0,0-.16-.46,2.51,2.51,0,0,0-.32-.52c.2-.25.38-.5.56-.75a2.6,2.6,0,0,0,.42-.87l0-.15a1.48,1.48,0,0,0,.25.72C59.18,50.76,59,51.53,58.83,52.3Zm1.34-4.51q-.33.83-.6,1.68a5.68,5.68,0,0,0-.21-.66c-.07-.2-.14-.41-.23-.61s-.08-.4-.13-.6c-.18-.63-.43-1.25-.62-1.88a4.69,4.69,0,0,1-.24-1.65,14,14,0,0,1,1.11,1.65c.19.35.37.7.54,1.06s.24.66.4,1Zm.64,0-.16-.16,0,0a5.94,5.94,0,0,0-1-2.14,8.22,8.22,0,0,0-1.45-1.72,15.9,15.9,0,0,1,.63-2.17,14.25,14.25,0,0,1,1.34,2.14,9.36,9.36,0,0,1,.54,1.45,9,9,0,0,0,.22.93C60.86,46.69,60.82,47.25,60.81,47.82Zm.5-4c-.1.42-.19.84-.26,1.27,0,0,0,0,0,0a8.36,8.36,0,0,0-.52-1.45,6.25,6.25,0,0,0-1.65-2.2c.27-.76.55-1.51.82-2.27h0c.24.78.64,1.53.91,2.3a21.11,21.11,0,0,0,.72,2.38Zm1.32.59-.84-.71-.08,0A7.26,7.26,0,0,0,61,41.16a7.21,7.21,0,0,0-1.21-2.23c.17-.5.33-1,.47-1.53.42.8.93,1.55,1.35,2.36a10.34,10.34,0,0,1,.65,1.53c.12.39.19.8.33,1.18C62.62,43.13,62.64,43.79,62.63,44.46Zm-.64-6c.16.71.3,1.42.4,2.14-.15-.34-.31-.66-.45-.94a12.19,12.19,0,0,0-1.64-2.49,10.27,10.27,0,0,0,.29-1.9c.24.45.48.91.69,1.37s.34.75.49,1.13a5.72,5.72,0,0,0,.22.55A.33.33,0,0,0,62,38.47Zm.81-.2-.46-.15h0a6.37,6.37,0,0,0-.68-1.57,10.15,10.15,0,0,0-1-1.69c0-.14,0-.27,0-.4l0-.31.51-.09A13.72,13.72,0,0,1,62.8,38.27Zm4.62-6.06a1.1,1.1,0,0,1-.46.19l-.79.2c-.56.12-1.13.22-1.69.32-2.35.44-4.71.81-7.08,1.13h0c-2.4.32-4.81.59-7.23.79q-6.16.51-12.37.51h-.12l-1.95,0c-1.75,0-3.49,0-5.24,0H28.58q-3.61,0-7.23-.26c-3.54-.21-7.07-.56-10.58-1h0C9.52,33.88,8.28,33.7,7,33.5s-2.37-.39-3.56-.61l-1.7-.32c-.32,0-.89,0-1.08-.36a2.77,2.77,0,0,1,0-1.84c.06-.25.13-.49.2-.74A1.8,1.8,0,0,1,1.12,29c.08-.1.07-.09.19-.07l.5.09c4.69.83,9.43,1.42,14.18,1.81s9.71.61,14.56.6c1.18,0,2.35,0,3.53-.05,4.83.12,9.67,0,14.49-.29s9.59-.79,14.35-1.51c1.18-.18,2.37-.37,3.55-.58l.37-.07c.14,0,.14,0,.22.11a3.69,3.69,0,0,1,.21.64c.07.25.14.5.2.75C67.57,30.89,67.82,31.82,67.42,32.21Zm-9.21,3.06c0-.08-.09-.13-.13-.06a41.28,41.28,0,0,1-2.83,4.68,10.77,10.77,0,0,0-1.93,5.17c-.09,1.5.17,3.89,2.06,4.15a2,2,0,0,0,1.81-3.06,1.44,1.44,0,0,0-1.81-.44A1.1,1.1,0,0,0,55,47.32c.13.16.34,0,.31-.18a.8.8,0,1,1,1.57-.33,1.37,1.37,0,0,1-1.57,1.75c-1.86-.54-1.5-3.65-1.14-5C54.94,40.51,57.62,38.33,58.21,35.27ZM46.86,52.37c.14-.15,0-.42-.23-.3a4.18,4.18,0,0,1-4.44.39,13.3,13.3,0,0,1-3.55-3.18c-.08-.09-.2,0-.15.11C40,52.06,44.07,55.23,46.86,52.37Zm5,.19a5.73,5.73,0,0,0-.29,1A4,4,0,0,1,51,54.72a4.49,4.49,0,0,1-2,1.59c-1.77.72-3.67.31-5.52.39a.05.05,0,1,0,0,.1c1.15.09,2.27.44,3.44.43a6.13,6.13,0,0,0,2.73-.62,5,5,0,0,0,2-1.75,2.71,2.71,0,0,0,.49-2.3A.13.13,0,0,0,51.89,52.56Zm-11.84-3.2a7.31,7.31,0,0,0,3.82,1.49,4.92,4.92,0,0,0,2.33-.47,10.5,10.5,0,0,0,2.29-1.44,7.52,7.52,0,0,0,2.34-3.17A6.58,6.58,0,0,0,51.2,43a5.72,5.72,0,0,0-.29-1.47.38.38,0,0,0-.14-.21l-.2-.11a6.14,6.14,0,0,0-1.31-.51,6.61,6.61,0,0,0-4.82.49A11.58,11.58,0,0,0,42,43a18.28,18.28,0,0,0-1.76,1.87,17.8,17.8,0,0,0-1.79,2.59l-.08.13h0a.31.31,0,0,0,0,.33A9.86,9.86,0,0,0,40.05,49.36Zm-.47-2.64a19.73,19.73,0,0,1,2.07-2.57,17.74,17.74,0,0,1,1.56-1.44,8.44,8.44,0,0,1,1.95-1.23,6,6,0,0,1,3.59-.32,6.44,6.44,0,0,1,.72.2,1.75,1.75,0,0,1,.32.12l.11,0,.1,0c.14.06.27.13.4.2a2.29,2.29,0,0,1,.08.28c0,.14.07.29.1.44s0,.08,0,.13v.09c0,.1,0,.2,0,.3s0,.47,0,.7l0,.39c0,.06,0,.12,0,.18s0,.08,0,.08v.09a6.45,6.45,0,0,1-.2.87,5,5,0,0,1-.34.85,8.44,8.44,0,0,1-3.71,3.53,5.17,5.17,0,0,1-1.37.52,4.16,4.16,0,0,1-1.27.07,6,6,0,0,1-2.29-.72,9.51,9.51,0,0,1-1.71-1.16,9.74,9.74,0,0,1-.74-.7C39.16,47.37,39.37,47,39.58,46.72Zm11.19.48a12.46,12.46,0,0,1-1.22,2,9.43,9.43,0,0,1-.82,1,2.09,2.09,0,0,0-.61.75c0,.13.08.23.2.21.67-.13,1.24-1.06,1.61-1.6a7.15,7.15,0,0,0,1-2.29C51,47.17,50.82,47.09,50.77,47.2ZM33,38.74c0,.47-.07.95-.12,1.41a3.75,3.75,0,0,1-.36,1.55,1.51,1.51,0,0,1-1.17.74c-.32,0-.59-.08-.89.06a.11.11,0,0,0,0,.14c.41.93,2,.15,2.4-.37a4.07,4.07,0,0,0,.3-3.54A.06.06,0,0,0,33,38.74Zm-3.7,3.74a.11.11,0,0,0-.12.17c1.29,1.34,2.57,2.85,2.38,4.84s-1.37,3.44-.94,5.36c.05.19.37.16.35-.05-.19-2.09,1.47-3.87,1.32-6A5.31,5.31,0,0,0,29.25,42.48Zm3.89.32c0-.09-.13-.11-.16,0a4.23,4.23,0,0,0,.15,3.11.1.1,0,0,0,.19,0c0-.5-.13-1-.17-1.51A11.16,11.16,0,0,1,33.14,42.8Zm-3.38,4.81a14.51,14.51,0,0,0-1.2-1.87A18.53,18.53,0,0,0,25,42.06a7.32,7.32,0,0,0-2.7-1.39,6.26,6.26,0,0,0-2.44-.15,7.06,7.06,0,0,0-1.75.46,4.12,4.12,0,0,0-.73.36.7.7,0,0,0-.2.4,5.93,5.93,0,0,0-.16.73,6.61,6.61,0,0,0,1.85,5.73,9.66,9.66,0,0,0,1.9,1.53,6.75,6.75,0,0,0,2.38,1,6.22,6.22,0,0,0,4.2-.92,10.61,10.61,0,0,0,2.26-1.79l.11-.12a.27.27,0,0,0,0-.32ZM17.54,42.7Zm11.2,5.44a10,10,0,0,1-1.51,1.14,5.37,5.37,0,0,1-4.75.73,8.47,8.47,0,0,1-1.4-.73,9.88,9.88,0,0,1-1.18-.86,7.41,7.41,0,0,1-1.56-1.8,5.86,5.86,0,0,1-.71-1.76c0-.14-.06-.28-.08-.43s0,0,0-.07v-.07c0-.07,0-.14,0-.21a6.26,6.26,0,0,1,0-.75c0-.21,0-.43.05-.64h0a.13.13,0,0,0,0-.06l0-.15c0-.08,0-.16,0-.23s.09-.32.14-.48l.3-.15.19-.09.07,0,.15-.06a6.17,6.17,0,0,1,.61-.19,6,6,0,0,1,3.42.06,9.67,9.67,0,0,1,3.65,2.49,19.24,19.24,0,0,1,2.25,2.68,12.28,12.28,0,0,1,.78,1.24C29,47.86,28.89,48,28.74,48.14ZM39,42.65c.09-.09,0-.21-.13-.16a5.28,5.28,0,0,0-3,4.33c-.16,2.11,1.5,3.89,1.31,6,0,.2.31.24.35,0,.44-1.91-.75-3.51-.93-5.36S37.73,44,39,42.65Zm-1.25,0s0-.12,0-.14c-.3-.14-.57,0-.89-.06a1.52,1.52,0,0,1-1.17-.74,3.91,3.91,0,0,1-.36-1.55c0-.46-.1-.94-.12-1.41a.06.06,0,0,0-.11,0,4,4,0,0,0,.3,3.54C35.82,42.8,37.38,43.57,37.78,42.64ZM35,42.8a11.16,11.16,0,0,1,0,1.53,12.92,12.92,0,0,0-.17,1.51.1.1,0,0,0,.19,0,4.28,4.28,0,0,0,.14-3.11A.08.08,0,0,0,35,42.8Zm3.83-1.4c.1-.08.11-.27,0-.3-.53-.12-1,.06-1.47-.31s-.55-1.24-.55-1.88a.07.07,0,0,0-.13,0A2.1,2.1,0,0,0,37,41.06C37.41,41.44,38.34,41.77,38.84,41.4Z"/></g></g></g></svg>