<svg xmlns="http://www.w3.org/2000/svg" viewBox="0 0 31.66 32.67"><defs><style>.b712e182-75dd-4974-b2f5-5dac3ac90ead{stroke:#461121;}.a1f4c7e2-37d6-4283-9017-5edfad8303ce,.a6ae6d3b-2c6d-45c0-9b24-7eac3f797264,.a841705c-f361-40ae-9cb6-5b1654a60b02,.b712e182-75dd-4974-b2f5-5dac3ac90ead,.b7e4b230-e80b-4613-9c0e-6fb1105aeec7,.bba6ad51-844c-4235-a3e6-c899d90dd783{stroke-linecap:round;stroke-linejoin:round;stroke-width:0.23px;}.a1f4c7e2-37d6-4283-9017-5edfad8303ce{stroke:#451020;}.a841705c-f361-40ae-9cb6-5b1654a60b02{stroke:#471323;}.bba6ad51-844c-4235-a3e6-c899d90dd783{fill:#e21959;stroke:#e21959;}.a6ae6d3b-2c6d-45c0-9b24-7eac3f797264{fill:#e31959;stroke:#e31959;}.b7e4b230-e80b-4613-9c0e-6fb1105aeec7{fill:#e41959;stroke:#e41959;}</style></defs><g id="b631c27c-fbc1-4cd4-9fec-dd8961cd45a3" data-name="Layer 2"><g id="a8480f74-01c5-4e75-956b-e2f5ed5a89cd" data-name="Layer 1"><g id="b0c963db-686b-4e97-b8a6-4f2b8e8c2774" data-name="afcb5ab7-75be-4671-99aa-9bd861933183"><g id="f2dd6b07-eec6-4a36-aaa3-dad355d6d707" data-name="e18eaab4-289c-47f3-8208-879a0ded9242"><path class="b712e182-75dd-4974-b2f5-5dac3ac90ead" d="M9.16,20a4.29,4.29,0,0,0,.5.07c.08.52,1.94.23,2,.82.27,0,.82-.06.86.25a7.29,7.29,0,0,1,.79.08l0,.14c.33,0,.65.13,1,.14l0,.1.38-.06,0,.14c.52-.08.91.21,1.34.14v.09a3,3,0,0,1,.67-.05l0,.14a7.58,7.58,0,0,1,1.26,0l0,.1c2.64-.4,5.6-.1,7.92-1.74a1.89,1.89,0,0,0,.13.52H26a2.11,2.11,0,0,0,.07.77L26,21.8l.13.22-.13.07.12.18L26,22.18a1,1,0,0,1-.06.25h.1c0,.22.08.15-.06.25.1.21,0,.24.07.48l-.14.06.14.23c-.14,0-.09,0-.13.12l.09,0,0,.1c.69-.5,5-3.89,5.25-3.92l-.09.11.12.12c-.11.15-.1.07,0,.25l-.13.07.11.13-.08.11.06.08-.13.07c.16.18.14.24,0,.4.18.13.06.67-.12.8l.09,0c-.06.2,0,.31-.18.42l.11,0-.13.12.1,0c0,.2,0,.13-.16.22l.1,0a.71.71,0,0,1-.23.42h.1c-.14.41-.38.88-.49,1.24h.09a.45.45,0,0,1-.2.27h.09a.45.45,0,0,1-.2.27h.1a4.21,4.21,0,0,1-.39.64h.09c-.12.08-.06,0-.16.17l.06.09c-.14,0-.08,0-.18.12h.1c-.05.14-.11.09-.21.22l.06.09c-.18.09-.1,0-.22.18l.07.09c-.12.15-.17.11-.3.29l.06.08c-.52.71-2.17,2-2.41,2.71l-.1,0-.21.27a2.23,2.23,0,0,0-1,.69c-.23,0-.5.09-.54.32-7.77,4.6-20-.13-21.56-9.44.1.14.21.12.37.14s.12.13.26.16c0,.21.25,0,.28.25l.2,0,0,.09.19,0c0,.21.18.18.37.19,0,.22,1.33.71,1.62.73l0,.09a2,2,0,0,0,.35,0v.1a2.09,2.09,0,0,0,.35,0c0,.21.35.17.51.17l0,.1.09,0,0,.1c.3,0,.55.13.9.15,0,.1.74.29.93.35C9.67,22.7,9.37,21.36,9.16,20Z"/><path class="a1f4c7e2-37d6-4283-9017-5edfad8303ce" d="M8.54.21v.1a1.85,1.85,0,0,1,.53,0V.45A3.72,3.72,0,0,1,9.69.6V.69c.21,0,1.06.44,1.06.58l.24.05c3.28,2.86,4.48,8.48,1.78,12.23a6.52,6.52,0,0,1-10.4,1C-2.57,9.78,1.1-1,8.54.21Z"/><path class="a841705c-f361-40ae-9cb6-5b1654a60b02" d="M28,2.12v.15c.37,0,.65.34,1,.43v.1l.19.05c0,.38.82.55.82,1l.19.05-.05.14a.54.54,0,0,1,.34.53h.15c0,.19,0,.11.09.24l-.09,0c.07.14,0,.1.19.1a2.48,2.48,0,0,0,.19.72h.1a.82.82,0,0,0,.09.38l-.09,0h.09l0,.1c.9.9-.11,3.1.19,4l-.1,0,.05.15-.14.05.09.09-.14.1.09.1-.14,0,.09.1-.14,0,.1.1-.15,0,.1.1-.15.05.1,0c-.07.22,0,.11-.24.29h.09c-.12.25-.12.57-.42.67h.09a.47.47,0,0,1-.24.24h.1c-.13.12-.06.08-.2.14.11.22-.11.21-.24.34l.05.1c-.61.61-1.52.93-2.07,1.49-1.2,1.2-4-.58-4.82-1.64C20.41,9.32,22,.13,28,2.12Z"/><path class="bba6ad51-844c-4235-a3e6-c899d90dd783" d="M15.6,25.53c1.88-.37,8.07,1.36,8.28,3.52-.08.32-3.69,1.17-4,1.2C16.29,30.68,4.19,27.93,15.6,25.53Z"/><path class="a6ae6d3b-2c6d-45c0-9b24-7eac3f797264" d="M7,5.49c2.83-.61,4.25,5,1.16,5.78C4.55,12.17,3.42,6.27,7,5.49Z"/><path class="b7e4b230-e80b-4613-9c0e-6fb1105aeec7" d="M26.91,6.09c2.35-.29,2.94,4.28.53,4.62S24.58,6.38,26.91,6.09Z"/></g></g></g></g></svg>
