<svg xmlns="http://www.w3.org/2000/svg" viewBox="0 0 29.41 19.53"><defs><style>.a574677a-4bd7-41c8-9b4a-84878b3c76c8{fill:#0a3a6f;}.a35491f2-d011-4c20-aaed-8635f71e080e{fill:#1b5d85;}.ae5eddf6-85eb-4044-bb4e-593497010cb1{fill:#2f3944;stroke:#2f3944;}.a032d633-337c-472c-b1bf-a5f7a8b67327,.a17c2ac6-6e17-4420-8571-4c2219d70204,.a2c37d0f-e905-4363-8539-ba6c0dd9d7d8,.a2c859fa-3260-4fde-9c8f-7bb0397a8170,.a3d850e9-9d87-4619-99cf-7903f77f2b62,.a4f661bf-0421-43f6-a6fc-00650bddd181,.a568acf7-224b-41d7-9c4e-ca4273ebceb9,.a5b2c44d-1bbf-492c-976b-a52b2a2832e7,.a7a1b05b-80d2-44c7-9c90-e778ebf0c823,.a8336599-a88a-4756-a8b9-0ec907b8359f,.aa560a62-1f94-4531-a73e-e3ac85a0dcba,.aa66b5bf-3435-43d6-8e1a-bc0e1d4b8d17,.ab1d0b01-8247-4b8d-acd7-315cdf60b236,.ab89a41b-63df-4e5b-9450-4d4e76246043,.abaf006e-083b-4dbb-bffa-c24f949e6d02,.acf7ba5f-aa48-40b3-ac84-44a16ae3f446,.ad5c5cfe-3342-4e8a-aeeb-d37be8996e1e,.ad8d3c22-6b49-4a5a-b97f-75e581047214,.ae0b00dc-0b11-4a1c-b38a-659b1be078ec,.ae30ffa8-b2d4-4026-84a5-c8fe04351794,.ae5eddf6-85eb-4044-bb4e-593497010cb1,.ae8693c4-11cf-4c94-b0ee-b8d47518862d,.aeb4cf5f-8f81-41fb-8a0e-15654c057fa6,.aeb5e8e5-ab63-4588-a141-a6d3b63386f1,.aef5da1a-5e18-4c6f-a83e-50e9f11fa14a,.af93d06f-00f1-4948-b596-378f6230ccdb,.af98ac72-53a4-45bd-b8f0-339e63637406,.b0025572-7930-4236-b92b-32810633433d,.b0467d81-0ed8-4362-b06d-ef7fb106ef56,.b0b8decb-42ee-4dec-9399-30d2725b542c,.b122a2a8-2fc3-4eb4-903d-5384c4ce1ef8,.b1242bd6-f64a-4e4d-a822-a25c46ca2ec4,.b2271c23-6c4b-48a4-8ffe-388805a6ecd3,.b29b85bb-9e68-4072-9842-a4e8e6267696,.b36a6a3c-63f7-4129-86b8-0eaae7ea0632,.b423a472-ed37-420c-9407-f47ce30649cf,.b50afc4d-46f6-451d-91c8-a589f0fc505a,.b5af20c1-720d-44dc-bd91-145bfe1b663a,.b5d24312-01b4-4ea3-adaa-64a1f3e4a407,.b630cd2e-9b03-43c4-868d-f8f12a44cba5,.b65fc2fd-0c64-4ca1-8df1-98cfa562c987,.b68da048-e031-4761-ac94-da565a5e115b,.b7540f6a-a16e-4dbd-b39b-a13b5ea6ac52,.b75b6820-9b5a-4bdc-b337-049f6386288c,.b7fc9cfd-cabb-44dd-929a-aa882ad9fa6d,.b8cbc60d-7fff-40c0-9b21-4ab7b93b34fb,.b8f63214-89ca-44b4-b0c9-becf5602e13f,.b91a1a20-7748-491d-bf5b-6f8bb5727b62,.b98ac9e5-8ac3-47b0-8b25-727114dbcad3,.b9e15b80-f9db-4684-9e50-a8c0f03fb283,.ba3d6379-aff1-4972-b902-e466d4bbbb56,.ba76712b-e354-4753-ae38-7ac263870104,.baaf7cee-f53e-4c15-9606-c35af81a4ba6,.bafa48f6-2d65-4c1d-a1e9-f4f657dca261,.bb96e05a-58d5-4941-b3ae-a57a5676a00e,.bba6d1e6-8fb7-40ca-a014-2bcdcd05a34a,.bbde4ac3-c81e-418c-8811-b269f01ae586,.bc0f9a1a-8706-4f72-a61f-bca309de015c,.bd43f438-3a81-4ca1-8d04-8e1297acfbc0,.bda762f4-ce3a-4426-b8d2-3075ea1084c2,.becd7dbe-32a4-48d6-8a3e-ddd5b6954e43,.bfccadad-328b-498d-8ee0-b3f9101789e5,.e0adb055-e8a6-4884-8056-948f9483dafd,.e14d4b13-b3f0-4c10-9c53-03040471d5db,.e36b85d4-42f8-454d-a7fe-b661a2d9933e,.e42ce013-9157-44b6-baf5-4e066cfeee90,.e6c55e28-7c79-42e8-a204-b83cda002b18,.e7678372-de37-484d-8cba-a719032e5970,.e7a885d8-47a7-4ef5-a954-a983077ef1d8,.e7ebe556-3ab9-4d60-9f58-7c351d610378,.e9832b52-bcdf-4bb1-8599-da00653ca4ac,.ed17340e-9fb2-4248-85bb-62cb5f5afcfe,.ef991b5a-113a-4ba2-961c-14f23dfa4a6b,.eff28ab9-ed0b-44e7-9d99-0aa2eea988e9,.f039918e-537a-4399-b2a8-5de324aaa98c,.f0b137a9-2c09-4eea-942e-ec1081d800c5,.f11ba47d-42fc-416a-9c3d-bbb142d9d8a9,.f29f81e1-e53f-42e1-8231-6df416c72db5,.f3608892-cf9f-4208-88b0-748563270db5,.f3a60231-5bd2-4029-86bd-9a5ca93e5a6e,.f89b4c4a-fd10-4903-aab0-50b21558fc79,.fd37fa07-d051-4e77-97cc-8fef6ba83274,.fd3f6c16-9805-4312-9066-a21f3321dc42,.fec77f47-e8d9-4fc4-9f97-a77842f1a6d6,.ff404262-54d4-4471-b0fa-e0c10d25b458{stroke-linecap:round;stroke-linejoin:round;stroke-width:0.84px;}.f3a60231-5bd2-4029-86bd-9a5ca93e5a6e{fill:#1d99a9;stroke:#1d99a9;}.b122a2a8-2fc3-4eb4-903d-5384c4ce1ef8{fill:#4e94c9;stroke:#4e94c9;}.abaf006e-083b-4dbb-bffa-c24f949e6d02{fill:#1c6c96;stroke:#1c6c96;}.b7540f6a-a16e-4dbd-b39b-a13b5ea6ac52{fill:#0e5889;stroke:#0e5889;}.f039918e-537a-4399-b2a8-5de324aaa98c{fill:#2a3643;stroke:#2a3643;}.b9e15b80-f9db-4684-9e50-a8c0f03fb283{fill:#176497;stroke:#176497;}.f3608892-cf9f-4208-88b0-748563270db5{fill:#184f74;stroke:#184f74;}.a17c2ac6-6e17-4420-8571-4c2219d70204{fill:#0c67a8;stroke:#0c67a8;}.b65fc2fd-0c64-4ca1-8df1-98cfa562c987{fill:#19232e;stroke:#19232e;}.bc0f9a1a-8706-4f72-a61f-bca309de015c{fill:#5196cc;stroke:#5196cc;}.aa560a62-1f94-4531-a73e-e3ac85a0dcba{fill:#064e86;stroke:#064e86;}.becd7dbe-32a4-48d6-8a3e-ddd5b6954e43{fill:#5197ce;stroke:#5197ce;}.e6c55e28-7c79-42e8-a204-b83cda002b18{fill:#2a323d;stroke:#2a323d;}.b68da048-e031-4761-ac94-da565a5e115b{fill:#141f2b;stroke:#141f2b;}.aef5da1a-5e18-4c6f-a83e-50e9f11fa14a{fill:#313a44;stroke:#313a44;}.aeb4cf5f-8f81-41fb-8a0e-15654c057fa6{fill:#6facd3;stroke:#6facd3;}.e14d4b13-b3f0-4c10-9c53-03040471d5db{fill:#72b0d9;stroke:#72b0d9;}.b75b6820-9b5a-4bdc-b337-049f6386288c{fill:#394049;stroke:#394049;}.e7ebe556-3ab9-4d60-9f58-7c351d610378{fill:#36aba9;stroke:#36aba9;}.fec77f47-e8d9-4fc4-9f97-a77842f1a6d6{fill:#0f6bad;stroke:#0f6bad;}.b5af20c1-720d-44dc-bd91-145bfe1b663a{fill:#116fb0;stroke:#116fb0;}.b0025572-7930-4236-b92b-32810633433d{fill:#2c303a;stroke:#2c303a;}.e7678372-de37-484d-8cba-a719032e5970{fill:#0b1324;stroke:#0b1324;}.a2c37d0f-e905-4363-8539-ba6c0dd9d7d8{fill:#55a29d;stroke:#55a29d;}.ae8693c4-11cf-4c94-b0ee-b8d47518862d{fill:#d8c27d;stroke:#d8c27d;}.f89b4c4a-fd10-4903-aab0-50b21558fc79{fill:#c3a865;stroke:#c3a865;}.ae0b00dc-0b11-4a1c-b38a-659b1be078ec{fill:#e2ce86;stroke:#e2ce86;}.eff28ab9-ed0b-44e7-9d99-0aa2eea988e9{fill:#c5bc80;stroke:#c5bc80;}.bda762f4-ce3a-4426-b8d2-3075ea1084c2{fill:#aca66f;stroke:#aca66f;}.b91a1a20-7748-491d-bf5b-6f8bb5727b62{fill:#afa36c;stroke:#afa36c;}.af93d06f-00f1-4948-b596-378f6230ccdb{fill:#ad617f;stroke:#ad617f;}.b50afc4d-46f6-451d-91c8-a589f0fc505a{fill:#8db79c;stroke:#8db79c;}.bd43f438-3a81-4ca1-8d04-8e1297acfbc0{fill:#7abae3;stroke:#7abae3;}.ab89a41b-63df-4e5b-9450-4d4e76246043{fill:#e0c983;stroke:#e0c983;}.e7a885d8-47a7-4ef5-a954-a983077ef1d8{fill:#74b4e1;stroke:#74b4e1;}.b98ac9e5-8ac3-47b0-8b25-727114dbcad3{fill:#bda460;stroke:#bda460;}.b36a6a3c-63f7-4129-86b8-0eaae7ea0632{fill:#a4747d;stroke:#a4747d;}.fd37fa07-d051-4e77-97cc-8fef6ba83274{fill:#e4cc84;stroke:#e4cc84;}.b2271c23-6c4b-48a4-8ffe-388805a6ecd3{fill:#c0ab68;stroke:#c0ab68;}.ef991b5a-113a-4ba2-961c-14f23dfa4a6b{fill:#80b6d0;stroke:#80b6d0;}.b423a472-ed37-420c-9407-f47ce30649cf{fill:#70b1de;stroke:#70b1de;}.ae30ffa8-b2d4-4026-84a5-c8fe04351794{fill:#d3c382;stroke:#d3c382;}.aa66b5bf-3435-43d6-8e1a-bc0e1d4b8d17{fill:#baa462;stroke:#baa462;}.e9832b52-bcdf-4bb1-8599-da00653ca4ac{fill:#e2c980;stroke:#e2c980;}.ad8d3c22-6b49-4a5a-b97f-75e581047214{fill:#0a60a3;stroke:#0a60a3;}.a5b2c44d-1bbf-492c-976b-a52b2a2832e7{fill:#c9ac65;stroke:#c9ac65;}.a8336599-a88a-4756-a8b9-0ec907b8359f{fill:#c2aa67;stroke:#c2aa67;}.af98ac72-53a4-45bd-b8f0-339e63637406{fill:#43b9af;stroke:#43b9af;}.e0adb055-e8a6-4884-8056-948f9483dafd{fill:#e6cd82;stroke:#e6cd82;}.b1242bd6-f64a-4e4d-a822-a25c46ca2ec4{fill:#edda9e;stroke:#edda9e;}.e36b85d4-42f8-454d-a7fe-b661a2d9933e{fill:#cbba7a;stroke:#cbba7a;}.f29f81e1-e53f-42e1-8231-6df416c72db5{fill:#ddcb96;stroke:#ddcb96;}.b8cbc60d-7fff-40c0-9b21-4ab7b93b34fb{fill:#6fb0dd;stroke:#6fb0dd;}.f11ba47d-42fc-416a-9c3d-bbb142d9d8a9{fill:#b3af80;stroke:#b3af80;}.b8f63214-89ca-44b4-b0c9-becf5602e13f{fill:#c6ab69;stroke:#c6ab69;}.aeb5e8e5-ab63-4588-a141-a6d3b63386f1{fill:#bfb284;stroke:#bfb284;}.ba76712b-e354-4753-ae38-7ac263870104{fill:#d7c37d;stroke:#d7c37d;}.a2c859fa-3260-4fde-9c8f-7bb0397a8170{fill:#7f5d82;stroke:#7f5d82;}.ff404262-54d4-4471-b0fa-e0c10d25b458{fill:#384048;stroke:#384048;}.a032d633-337c-472c-b1bf-a5f7a8b67327{fill:#cbbd90;stroke:#cbbd90;}.baaf7cee-f53e-4c15-9606-c35af81a4ba6{fill:#a1a177;stroke:#a1a177;}.bb96e05a-58d5-4941-b3ae-a57a5676a00e{fill:#bdab69;stroke:#bdab69;}.fd3f6c16-9805-4312-9066-a21f3321dc42{fill:#213c54;stroke:#213c54;}.bba6d1e6-8fb7-40ca-a014-2bcdcd05a34a{fill:#8cc8ea;stroke:#8cc8ea;}.b0b8decb-42ee-4dec-9399-30d2725b542c{fill:#e9d69d;stroke:#e9d69d;}.b630cd2e-9b03-43c4-868d-f8f12a44cba5{fill:#84c2e7;stroke:#84c2e7;}.a7a1b05b-80d2-44c7-9c90-e778ebf0c823{fill:#b1ad71;stroke:#b1ad71;}.ad5c5cfe-3342-4e8a-aeeb-d37be8996e1e{fill:#e5cb80;stroke:#e5cb80;}.ab1d0b01-8247-4b8d-acd7-315cdf60b236{fill:#c3a88b;stroke:#c3a88b;}.b29b85bb-9e68-4072-9842-a4e8e6267696{fill:#edd99e;stroke:#edd99e;}.f0b137a9-2c09-4eea-942e-ec1081d800c5{fill:#b0b07c;stroke:#b0b07c;}.a4f661bf-0421-43f6-a6fc-00650bddd181{fill:#e5d59e;stroke:#e5d59e;}.a568acf7-224b-41d7-9c4e-ca4273ebceb9{fill:#7dbde5;stroke:#7dbde5;}.b5d24312-01b4-4ea3-adaa-64a1f3e4a407{fill:#d8c17b;stroke:#d8c17b;}.ed17340e-9fb2-4248-85bb-62cb5f5afcfe{fill:#ebd697;stroke:#ebd697;}.a3d850e9-9d87-4619-99cf-7903f77f2b62{fill:#e6cb81;stroke:#e6cb81;}.bfccadad-328b-498d-8ee0-b3f9101789e5{fill:#e7cc80;stroke:#e7cc80;}.acf7ba5f-aa48-40b3-ac84-44a16ae3f446{fill:#e8cf82;stroke:#e8cf82;}.bafa48f6-2d65-4c1d-a1e9-f4f657dca261{fill:#ecd99e;stroke:#ecd99e;}.b7fc9cfd-cabb-44dd-929a-aa882ad9fa6d{fill:#8ecbec;stroke:#8ecbec;}.ba3d6379-aff1-4972-b902-e466d4bbbb56{fill:#6fcbc6;stroke:#6fcbc6;}.e42ce013-9157-44b6-baf5-4e066cfeee90{fill:#253a4f;stroke:#253a4f;}.bbde4ac3-c81e-418c-8811-b269f01ae586{fill:#ead89b;stroke:#ead89b;}.b0467d81-0ed8-4362-b06d-ef7fb106ef56{fill:#a5dbf4;stroke:#a5dbf4;}</style></defs><g id="e3e1e926-5a95-4fce-955a-ae9984fd2c71" data-name="Layer 2"><g id="a0875a4a-e3cf-4f2d-9441-423f68dd8107" data-name="Layer 1"><g id="a25d914e-2135-4fff-b681-6417c5fcdcbb" data-name="Layer 1"><path class="a574677a-4bd7-41c8-9b4a-84878b3c76c8" d="M2.09,2.05a8.34,8.34,0,0,0,.19,4.09c.19.8.4,1.6.63,2.39,0,.15.19.41.24.54a10.36,10.36,0,0,1,.41,1.73,1.25,1.25,0,0,0,0,.29c.11.2.32.33.41.54a8.19,8.19,0,0,1,.27.79c.16.43.39.84.58,1.26.09.19.14.4.24.59a5.19,5.19,0,0,0,.36.46,4.33,4.33,0,0,0,.51.82c.44.42,1,.34,1.53.51.33.11.62.31,1,.43s.46,0,.68.08a8.86,8.86,0,0,1,1.09.49,5.16,5.16,0,0,0,.85.25c.22,0,.45,0,.68.09s.46.26.73.31a4,4,0,0,0,1-.06H14c.48,0,1,.06,1.45,0,.31,0,.59-.13.9-.17s.83,0,1.25-.05l.87-.12c.58-.05,1.19,0,1.77-.06.29,0,.58-.15.87-.19a5.88,5.88,0,0,0,.6,0c.5-.16.45-.64.76-1a6.17,6.17,0,0,1,.66-.48A4.11,4.11,0,0,0,24,14.22c.59-1.2,1.34-2.31,1.93-3.5A20.85,20.85,0,0,0,27,8.19a9.45,9.45,0,0,0,.51-1.82,9.54,9.54,0,0,0-.16-2.5c0-.13,0-.45-.05-.57s0-.21,0-.28S27.1,3,27,2.93a1.11,1.11,0,0,0-.25-.05,2.73,2.73,0,0,0-1.28.42c-.25.13-.55.22-.79.37s-.61.45-.92.66a1.87,1.87,0,0,1-.63.28,4.62,4.62,0,0,0-.65.06,3.55,3.55,0,0,0-.55.28c-.36.18-.76.3-1.12.48a3.27,3.27,0,0,1-.65.32c-.24.06-.49,0-.73.08a2.5,2.5,0,0,1-.66.09c-.33,0-.67-.1-1-.12-.69,0-1.38,0-2.07-.08-.43,0-.87,0-1.3,0a4.58,4.58,0,0,0-.68-.12c-.3,0-.58.17-.87.2a8.38,8.38,0,0,1-2.29-.25c-.42-.07-.84,0-1.25-.12A7.55,7.55,0,0,1,8,4.89a4.72,4.72,0,0,1-1.09-.51,7.69,7.69,0,0,0-1.2-.88c-.26-.1-.44,0-.68-.17s-.23-.16-.36-.23A3.64,3.64,0,0,1,3.31,2"/><path class="a35491f2-d011-4c20-aaed-8635f71e080e" d="M3.23.14a1.86,1.86,0,0,0-.72.18A1.79,1.79,0,0,0,.36,1.62,8.16,8.16,0,0,0,.17,4.45,18.28,18.28,0,0,0,.7,7.18c.11.44.22.89.34,1.33.07.24.13.48.22.72a3.48,3.48,0,0,0,.24.52l0,.08c0,.06,0,.12.05.18s.07.31.1.47.07.41.12.62v.08l0,.16a2.86,2.86,0,0,0,.07.28c0,.1.08.2.13.3a2.12,2.12,0,0,0,.12.2,2.15,2.15,0,0,0,.18.24l.1.12,0,.07.12.4A10.59,10.59,0,0,0,3.06,14c.06.14.14.27.19.41a6.65,6.65,0,0,0,.34.77,3.11,3.11,0,0,0,.31.43l.1.1v0a.54.54,0,0,1,.07.13l.18.32a3,3,0,0,0,1.86,1.37l.49.1c.12,0,.24,0,.36.06l.14.07.24.12a4.78,4.78,0,0,0,.62.26,3.64,3.64,0,0,0,.66.11h.11l.55.28a8.29,8.29,0,0,0,.83.31,4.7,4.7,0,0,0,.74.18l.41,0,.07,0,.24.12a3.22,3.22,0,0,0,.69.2,3.14,3.14,0,0,0,.81,0l.46-.06a2.54,2.54,0,0,1,.39,0h.34a9.39,9.39,0,0,0,1.5,0,4,4,0,0,0,.5-.09c.11,0,.22-.06.33-.07a3.39,3.39,0,0,1,.45,0l.6,0,.53-.05a4.46,4.46,0,0,1,.51-.07c.23,0,.46,0,.69,0a7.45,7.45,0,0,0,1.16-.05l.63-.14.18-.05h.24c.1,0,.21,0,.31,0l.27-.05a2.55,2.55,0,0,0,.87-.4,2.5,2.5,0,0,0,.69-.79,3,3,0,0,0,.16-.31l.07,0,.36-.26a3.73,3.73,0,0,0,.79-.94c.26-.42.45-.88.68-1.32.32-.62.68-1.21,1-1.81a23.92,23.92,0,0,0,1.49-3c.18-.43.34-.87.49-1.31a9.33,9.33,0,0,0,.56-2.07,9.18,9.18,0,0,0-.07-2.34c0-.25-.08-.49-.1-.73a2.11,2.11,0,0,1,0-.26V3.16a2.26,2.26,0,0,0,0-.26A2.92,2.92,0,0,0,29,2.41,1.81,1.81,0,0,0,28.82,2a2.82,2.82,0,0,0-.33-.36,1.64,1.64,0,0,0-.26-.2A1.83,1.83,0,0,0,28,1.28a2,2,0,0,0-.53-.15h0l-.2-.05A2.6,2.6,0,0,0,26.56,1a3.71,3.71,0,0,0-1.31.32c-.28.12-.54.27-.82.39S24.1,1.87,24,2a6.39,6.39,0,0,0-.75.48l-.36.26-.09.07a2.42,2.42,0,0,0-.47,0,2.72,2.72,0,0,0-.49.13,4.06,4.06,0,0,0-.69.35l0,0,0,0-.14.06c-.13.05-.27.1-.39.16a6.46,6.46,0,0,0-.6.27l-.17.1,0,0h0l-.27,0L18.84,4h-.07L18.34,4c-.46-.05-.93-.06-1.39-.07-.26,0-.52,0-.78,0s-.32,0-.48,0h-.41l-.5,0h-.15a4,4,0,0,0-1-.12,3.39,3.39,0,0,0-.71.11l-.33.1h-.24c-.21,0-.42,0-.63-.08l-.88-.17c-.21,0-.41,0-.62-.06l-.39,0H9.67l-.06,0L9.47,3.5,9,3.28,8.43,3A1.81,1.81,0,0,1,8,2.85a2.43,2.43,0,0,1-.25-.2l-.34-.29a4.4,4.4,0,0,0-.87-.55,3.26,3.26,0,0,0-.75-.23l-.05,0-.24-.14-.32-.18A1.57,1.57,0,0,1,5,1,.81.81,0,0,1,4.83.9,1.91,1.91,0,0,0,3.23.14Zm.59,4.64L4,4.87a2.88,2.88,0,0,0,.83.35l.26,0h0l.09.08.29.24a4.93,4.93,0,0,0,.88.61,5.89,5.89,0,0,0,.63.29l.44.17.46.23.55.23a4.49,4.49,0,0,0,1.2.24c.21,0,.42,0,.63,0s.5.09.75.14a8.28,8.28,0,0,0,1.49.16,4.28,4.28,0,0,0,1.07-.12l.25-.07h.06a2.93,2.93,0,0,0,.41.07c.21,0,.42,0,.63,0l.53,0c.14,0,.27,0,.41,0l.5,0,1,0,.48,0a11.31,11.31,0,0,0,1.17.12,4.21,4.21,0,0,0,.78-.12l.51,0a3,3,0,0,0,.71-.18,3.3,3.3,0,0,0,.43-.19c.14-.07.27-.16.41-.22s.49-.2.73-.3a4.74,4.74,0,0,0,.5-.26,2.12,2.12,0,0,0,.44,0,3,3,0,0,0,.72-.22,5.27,5.27,0,0,0,1-.62c.16-.11.31-.24.48-.35h0a1.37,1.37,0,0,0,0,.19,3.18,3.18,0,0,1-.16,1.35c-.07.22-.15.43-.22.64s-.22.62-.34.93-.37.9-.58,1.34c-.5,1-1.13,2-1.68,3-.18.33-.35.66-.5,1-.08.16-.16.32-.25.48h0l-.19.13a2.79,2.79,0,0,0-.43.34,2.75,2.75,0,0,0-.48.59h-.1l-.49.11-.24.06-.16,0H19.2a6.33,6.33,0,0,0-.87,0,5.15,5.15,0,0,0-.53.07l-.3,0c-.44,0-.89,0-1.33.07a3.71,3.71,0,0,0-.58.11l-.18,0h-.05a.71.71,0,0,0-.14,0h-.61c-.24,0-.49,0-.73,0h-.65l-.34.05h0a3.58,3.58,0,0,0-.71-.27,2.74,2.74,0,0,0-.5-.07l-.18,0h-.05l-.34-.1-.13,0h0l-.05,0-.08,0-.38-.19a3.5,3.5,0,0,0-1-.35l-.36,0H9l-.16-.08-.43-.2a3.58,3.58,0,0,0-.55-.19l-.6-.11a.41.41,0,0,0,0-.09,3.25,3.25,0,0,0-.36-.55l-.12-.15h0l0,0-.09-.24c-.09-.21-.19-.41-.29-.62S6.06,12,6,11.81s-.16-.54-.27-.8a3.29,3.29,0,0,0-.41-.7c0-.16-.07-.33-.1-.5A7.12,7.12,0,0,0,4.8,8.39,3.26,3.26,0,0,0,4.62,8l0,0c-.06-.23-.13-.46-.19-.7C4.21,6.53,4,5.79,3.86,5,3.85,5,3.83,4.86,3.82,4.78Z"/><path class="ae5eddf6-85eb-4044-bb4e-593497010cb1" d="M10.21,7a1.83,1.83,0,0,1,0,.87h.1c0,.66-.1.53-.1,1.46h.16c-.26.52.52.64-.16.81v-.1c-.43,0-.74.62-1,.92-1.82,1.83-1.37,2.5-1.24,4.93-.55,0-1.28.36-1.63-.16L7,15.69c0-.61-.45-1.26-.49-1.89A24.65,24.65,0,0,1,6.63,10a2,2,0,0,0-2,1.79l-.27,0v-.11H4.13v-.11H4c0-.3-.35-.69-.43-1.08H3.48a3,3,0,0,0-.32-1.57c-.38.18-.37.34-.49.7h.38v.87h.11c0,.73-.11-.53-.11,1.3H2.94A5.36,5.36,0,0,0,2.83,11H2.72v-.32H2.61a6.59,6.59,0,0,0-.1-.76H2.4c0-.24.11-.13.11-.33H2.29V9.19H2.18V8.75H2.07V8.1H2l.11-.21H1.85V7.24h-.1V6.48H1.64V6.15H1.53V5.5H1.42c0-.4,0-.17.16-.43.14.27.54.15.82.21v.87h.21v.11h.11v.11h.11c.13.38,0,.1.11.87h.11v.21c1.89,0,.63-.59,1.08-1.73.48.24.22,0,.22,1l-.06-.1A6.18,6.18,0,0,0,4.35,8.1h.11v.22h.11v.11h.1v.22h.22v.1h.22v.11H6.63c0-.49,0-1,0-1.46,0-.08.1-.14.1-.22l.22,0L7,7.34l.1-.1c.28.55.28.35.28,1h.1v.11c-.25,0-.12.11-.38.11,0,.38-.2.87.28.87v.1a1.38,1.38,0,0,0,.54.11v.11s1.7.26,1.73-.43,0-1.41,0-2.12Z"/><path class="f3a60231-5bd2-4029-86bd-9a5ca93e5a6e" d="M13.68,7h-.44v-.7h-.11V6h-.21V5.93H12.7v-.1h-.11V5.72c-.16,0-.76.46-.76.65a6.24,6.24,0,0,1-1.46.11l-.06.21c-.4-.08-.24,0-.38-.43H9.55V6.15h-.1V6H9.34V5.93H9.23v-.1L8.9,5.72V5.61a1.41,1.41,0,0,0-.48-.11c-.27.54-1.14.34-1.14.92.15,0,.21,0,.21.17a.51.51,0,0,0-.32,0V6.37H7a1.63,1.63,0,0,1,0-.54H6.73V5.72h-.1V5.61H6.52V5.5H6.3V5.39H5.87V5.28H5.65v-.1H5.43V5.07H5.32V5c-.67,0-1,.21-1,.87-.42-.14-.16,0-.22-.87H4a2.91,2.91,0,0,0-.1-.54H3.81V4.31c-.33,0-.65-.08-1-.11V4.09H2.61V4c-.51,0-.26.11-.65.11a6.63,6.63,0,0,1,.11-.76H2a2.19,2.19,0,0,1-.11-.43H1.2c0-.64.11.75.11-1.09h.33v.11h.11v.22h.1v.11H2v.11h.11v.1h.22v.22H2.4v.11h.11V2.9h.1V3h.11v.1h.11c0,.54.87.5.87.87a2.08,2.08,0,0,1,.54.11V4.2a3.45,3.45,0,0,1,.54.11v.11h.11v.1c.86,0,1.75.68,2.6.71,2.63.1,5.87-.19,8.35.43-.29,0-.35.17-.54.17V5.72c-.44,0-1.42.14-1.3.76-.2,0-.14-.05-.22.11h.11c0,.2-.11.08-.11.32h.11v1C13.4,7.94,13.68,7.49,13.68,7Z"/><path class="b122a2a8-2fc3-4eb4-903d-5384c4ce1ef8" d="M19.91,4.9c-.91.61-4.31.84-4.72-.38-.06.53-.12.35,0,.6a.56.56,0,0,1-.32-.38c-.44.33-4.34.41-4.34.11H10.1V4.52c-.28-.09-.24-.34-.33-.59-.28.28.07-.12-.11.59S7.24,4.66,7,4.63V4.52C6.7,4.44,6.73,4.3,6.68,4a.72.72,0,0,0,0,.59,7.74,7.74,0,0,0-1-.27l.16-.05V4.2H5.32V4.09H4.67l.11,0A3.08,3.08,0,0,1,4,3.77V3.66c-.39,0-.58-.62-.76-1-.14.14-.1.25-.16.43H2.72V3H2.61V2.9h-.1V2.79H2.4V2.68H2.29V2.46H2.07v-.1H2V2.25H1.85V2.14h-.1V1.92H1.64V1.81H1.26a.73.73,0,0,0-.6-.54c.5-1,2.73.55,3.53.81-1.63.28,0,1.23.59,1.36A2.44,2.44,0,0,0,4.35,2.3C5,2.08,6.57,3,7.33,3c2.36.17,4.74.08,7.1.1v.11h5.21c-.85.06-1.7.09-2.55.11l.49.06c-2.89.08-3,1.32-.54,1.46V5a17.44,17.44,0,0,1,2.6-.33v.22Z"/><path class="abaf006e-083b-4dbb-bffa-c24f949e6d02" d="M.55,3.55H.44A5.12,5.12,0,0,1,.66,1.27L1,1.38A33.11,33.11,0,0,0,1.1,5.72h.1a20.13,20.13,0,0,0,1,4.77h.11v.32H2.4a8.3,8.3,0,0,0,.76,2.5h.1v.32h.11c0,.65.58,1.19.76,1.74h.44v.22h.1v.1h.22v.11h.22v.11h.21v.22H5V16c-.41,0-.61-.2-1-.33v-.21h-.1v-.11H3.81v-.22H3.7c0-.16-.05-.32-.22-.32v-.22H3.37c.09-.17.07-.07,0-.33H3.26v-.21h-.1a2.36,2.36,0,0,0-.11-.44H2.94v-.32H2.83v-.22H2.72v-.21H2.61v-.33h-.1v-.33H2.4V11.9H2.29v-.33H2.18v-.32H2.07v-.33H2V10.6H1.85v-.44h-.1V9.84H1.64V9.4H1.53V9.08H1.42V8.54H1.31V8.32H1.2c0-.51.11-.26.11-.65H1.1V7.24H1V6.69H.88c0-.5-.08-.87-.11-1.41H.66V4.74H.55Z"/><path class="b7540f6a-a16e-4dbd-b39b-a13b5ea6ac52" d="M25,15.69c-.52,0-.5,1-1.08,1.2v-.11h-.33v-.22c.38,0,1.63-2.82,1.63-3.14h.11v.21c.41,0,.88-2.05,1-2.44a67.72,67.72,0,0,0,1.62-7c.13-.9-.42-1.8.54-2,0,.52-.33,5.32-.76,5.53.15.07.11,0,.11.17h.11c0,.48.09.39-.22.54V8.32c-.18.09,0,.18-.21.27.25.13-.11.38-.11.6h.11v.43h-.11V9.3c-.52.26-.75,3.9-1,3.9v-.11H26.2l-.05.44H26v-.22A4.93,4.93,0,0,0,25,15.69Z"/><path class="f039918e-537a-4399-b2a8-5de324aaa98c" d="M23.71,16.45c-.43.86-1.92.22-2.88.22,0-.45,0-.47.44-.54v.11a4.27,4.27,0,0,0,1.08.16v-.16h-.76L21.7,16h-.33v-.33l-.37,0c1.24-2.08.44-3.34-.22-5.31h-.11c0-.16-.16-.32-.27-.44.07-.14.05-.07.05-.21.6,0,1.53-.48,1.79.05.11-.21,0-.11.38-.11V9.4l.16.11c.08-.15,0-.11.22-.11v.22h.11A7.85,7.85,0,0,0,23,8.81c1.12-.05,1-.16,1.57-.16l-.05.1c.47,0,.37.13.49-.1.15.3,0,.1.7.1V8.1H25.6c.2-.4.06-.06.11-1.08H25.6c0-.45.11-.43.11-.81l1-.06c0,.91.26.74-.11.92.18.09,0,.6,0,.82h.11v.43h.11c0,.31-.11.16-.11.43h-.16l-.06.33h-.16l0,.54c-.11-.21-.05-.07-.11-.43-.23.11-.11,0-.11.43h-.16a9.93,9.93,0,0,0-.28,2.28h.11c0,.49-.5,2-1,2.17v-.22c-.25,0-1.61-.1-1.63.38,0,.7,0,1.41,0,2.12h.11v.1Z"/><path class="b9e15b80-f9db-4684-9e50-a8c0f03fb283" d="M24.85,3.77v.1c-.31,0-.49.36-.76.49.15.08.1,0,.1.22l-.32,0V4.52a6,6,0,0,0-1.19.76h.1v.11h.11c0,.15,0,.09-.11.16h.11v.17H23v.11h.22V7c-.11-.21,0-.07-.11-.43-.24.11-.07,0-.54.1V6.15h-.11V5.72c-3.7,0-8.24-.23-12.25-.38C8.68,5.28,6.5,5.33,5,4.58c1-.17,2.32.41,3.36.49v.11a22.44,22.44,0,0,1,2.6,0v.1c1.61,0,3.28,0,4.88.11V5.5A22.14,22.14,0,0,0,22.13,5C22.82,4.82,24.25,3.57,24.85,3.77Z"/><path class="f3608892-cf9f-4208-88b0-748563270db5" d="M1.31,3.77h.11c0,.27.09.86.43.86v.55H1.64V5.07c-.21.2-.22.07-.22.43h.11v.65h.11v.33h.11v.76h.1v.65h.22c0,.15,0,.09-.11.16.31.15.11,0,.11.7h.11v.44h.11v.43h.22c0,.2-.11.09-.11.33h.11a2.26,2.26,0,0,0,.1.76h.11V11h.11a2,2,0,0,0,.11.76h.11V12h.11v.43h.1v.22h.11a2,2,0,0,0,.11.54h.11v.33H3.7c0,.28-.08.43.22.43v.32H4v.22h.11v.33h.11V15h.11v.22h.11v.11H4.13c-.18-.55-.6-1.12-.76-1.74H3.26v-.32h-.1c0-.8-.66-1.66-.76-2.5H2.29v-.32H2.18c0-1.54-.85-3.2-1-4.77H1.1c0-1.38-.69-3-.06-4.29.27.27.58,1.1.16,1.31A10.17,10.17,0,0,1,1.31,3.77Z"/><path class="a17c2ac6-6e17-4420-8571-4c2219d70204" d="M20.24,5.39c-1.47,0-2.9.22-4.4.11V5.39A20.91,20.91,0,0,1,11,5.28v-.1A2.44,2.44,0,0,1,10,5c-.25.5-1.11.19-1.68.22V5.07a27.51,27.51,0,0,1-3.47-.55v-.1H4.78V4.31c-.18,0-.54,0-.54-.22A1.68,1.68,0,0,1,3.7,4V3.87c-.45,0-.71-.44-.87-.76H3.1a.53.53,0,0,1,.16-.43c0,.47.42.59.55,1H4c0,.23.6.33.76.38l-.11,0h.65V4.2h.44v.11H5.65c.39.19.61.08,1,.32,0-.19-.09-.37,0-.54.06.24.08.35.32.43v.11c.3,0,2.57.47,2.71-.11s-.17-.31.11-.59c0,.48.33.48.33.92h.43V5c1.24,0,3.38.69,4.28-.22a2.73,2.73,0,0,0,.38.38,2.25,2.25,0,0,0,0-.54c.6,1.19,3.95.87,4.93.22V5h.11c0,.16,0,.25-.16.32Z"/><path class="b65fc2fd-0c64-4ca1-8df1-98cfa562c987" d="M17.36,9.62v.11H18v.11a1.74,1.74,0,0,1,.55.11c.07-.16,0-.11.21-.11l-.05-.11c.2-.2.06-.11.49-.11a1.89,1.89,0,0,1,.16-.81c.19.13.16,0,.16.22.26,0,.4.39.44.59,1.28,0,1.84,3.54,1.84,4.34,0,.54-.55,1.18-.81,1.63,0-.06.07-1.09-.28-1.09v-.11c-.34,0-.68,0-1,0a3,3,0,0,1-.43.11c-.14.57-.16-.11-.16.87-.25-.08-.26-.06-.33-.33h-.11v-.21a6.63,6.63,0,0,1-.76-.11V14h-.1c0-.56-.43-1-.6-1.52h-.11c0-.71-1.12-1.1-1.73-1.19-.08.16,0,.11-.22.11,0-.28-.1-.82.22-1l-.06-.11a5.23,5.23,0,0,1,.87-.11v.22h.22v.11c.16,0,.15-.08.21-.22h-.16a1.93,1.93,0,0,1,.27-.87v.11A2.59,2.59,0,0,0,17.36,9.62Z"/><path class="bc0f9a1a-8706-4f72-a61f-bca309de015c" d="M18.77,3.33a26.56,26.56,0,0,0,2.82-.22V3h.54c0,.48-1.24,0-1.24,1.41,0,.09,0,.25.11.27,1.33.27,2.66-1.86,1.24-1.63,0-.59.42-.23.6-.6.07.14,0,.11.16.11,0-.4.68-.58,1-.43,0-.55,4.19-2.88,4.44-.11C27.14,2,25.9,3,24.85,3.66c.14,0,.07,0,.21,0-.67,0-1.08.65-1.62.65a1.31,1.31,0,0,0,.21-.7c-.33,0-.36.77-.76,1a6.19,6.19,0,0,1-2.49.55V4.36c-.28.19-.22.22-.22.6h-.11V4.8c-.14.07-.06,0-.21,0C19.86,3.75,20,3.46,18.77,3.33Z"/><path class="aa560a62-1f94-4531-a73e-e3ac85a0dcba" d="M27.66,2.36a1.42,1.42,0,0,0-.81.32l.06.11h-.17l0,.32c-.6,0-.82.51-1.41.66V3.66c-.17,0-.28.07-.43,0A6.77,6.77,0,0,1,28.42,2v.16c-.69,0-.53,2.39-.65,3.2-.15,1.07-1.64,7.82-2.49,8.24v-.21h-.11a20,20,0,0,0,2.17-7.7h.11C27.45,4.6,27.63,3.49,27.66,2.36Z"/><path class="becd7dbe-32a4-48d6-8a3e-ddd5b6954e43" d="M19.53,18.13l-.05-.21c-.07.14-.07.25-.22.32v-.43c-.28.56-1-.08-1.3.49-.13-.44,0-.34-.27-.44v-.1c-.52.26-2.14,1.18-2.33,0-.44.88-1.79-.23-2.17.54L13.13,18l-.05.44h-.16v-.6l-.06.32c-.67,0-1.28-.06-1.95-.1l-.05.16c-.15,0-.08,0-.22,0a1.93,1.93,0,0,0-.06-.48c-.18.27-5.09-.43-5.36-1.25.27-.09,1.19-.11,1.19.16.15,0,.09,0,.16-.11.27.53,2.87.38,3.53.54v.33c.36,0,.22-.05.43.05.08-.15,0-.08.16-.21v.32c.21,0,.1,0,.22-.27l.05.11c.32-.64,1.14-.27,1.74-.27.08.23.07.11,0,.38h.16v-.16l.11.27c.07-.14,0-.25.11-.38l.05.27a1.53,1.53,0,0,1,.27-.44v.28c1-.52,1.24-.34,1.85.27.63-1.27,2-.17,2.71.05,0-.36-.1-.28.11-.38v.16h.11v-.21l.05.11c.21-.11.07-.06.43-.06v.11h.22v-.11h-.11v-.11h-.21a6.87,6.87,0,0,1,3.63-.05c.18-.37.59-.22.92-.38v.11c.13,0,.24-.15.38-.22.1.21,0,.11.38.11v.11H24C24,17.26,20,17.69,19.53,18.13Z"/><path class="e6c55e28-7c79-42e8-a204-b83cda002b18" d="M6.41,15.91l-.11-.16L7,15.69c0-.61-.45-1.26-.49-1.89A24.65,24.65,0,0,1,6.63,10a2,2,0,0,0-2,1.79l-.27,0v-.11H4.13v-.11H4c0-.3-.35-.69-.43-1.08H3.48a3,3,0,0,0-.32-1.57c-.38.18-.37.34-.49.7h.38v.87h.11c0,.1-.1.17-.11.27,0,.41,0,.83,0,1.25h.11v.43h.1v.22h.11a2,2,0,0,0,.11.54h.11v.33H3.7c0,.68,1,.1,1.73.1v.22h.11c0,.15,0,.09-.11.16l.22.06c0,.36.1.27-.11.38C6,14.65,5.57,15.91,6.41,15.91Z"/><path class="b68da048-e031-4761-ac94-da565a5e115b" d="M12.54,11.79l-.06-.16c-2.38,0-1.85.65-2.93,2.44-.41.68-1.19-.54-1.41.76-.2,0-.11,0-.27.05C6.28,13.28,9.21,11,10.1,10c.14.07.11,0,.11.16.52,0-.06-.14.75-.05l-.1.05C12.12,10.16,14.18,10.15,12.54,11.79Z"/><path class="aef5da1a-5e18-4c6f-a83e-50e9f11fa14a" d="M15.57,10.16l-.27.11.06.11c-1,.49.34,2.26.05,3-.38,1-2.74,1-3.36.49-1.2-.9,1.82-2.62.76-3.69.15-.15.1-.21.32-.21,0-.93.16-1.88.11-2.88L13.68,7v.87h.1c0,1.15-.1.55-.1,1.41h.1a2.07,2.07,0,0,0,.11.54H14V10h.11v.11C14.56,10.06,15.2,10.15,15.57,10.16Z"/><path class="aeb4cf5f-8f81-41fb-8a0e-15654c057fa6" d="M9.23,2.9V3a12.86,12.86,0,0,1,2.06.05A20.22,20.22,0,0,1,6.63,3,13,13,0,0,0,4.35,2.3c.2.41.34.72.49,1.09-1.26,0-1.9-1.25-.65-1.25A14.72,14.72,0,0,0,1.31,1.05V1H1.1V.78A6.24,6.24,0,0,1,4,1.49V1.6c.15,0,.08,0,.22-.06A3.56,3.56,0,0,0,6,2.14v.11h.1v.11h.28v.1H7v.22A13.34,13.34,0,0,0,9.23,2.9Z"/><path class="e14d4b13-b3f0-4c10-9c53-03040471d5db" d="M13.57,16.56v.11h7.37v.11c-1.28,0-2.57,0-3.85,0,0,0,0,.07-.05.11h.11c.15.9-1.44-.17-1.9.76-.09-.17-.27-.4-.27-.55-.56,0-1.23-.31-1.52.28l-.06-.28a.63.63,0,0,0-.21.44l-.06-.33c-.07.14-.09.29-.16.44l-.05-.33-.06.22H12.7v-.38a4.11,4.11,0,0,1-1.41-.11c-.3.3-.21.16-.33.38l-.05-.11c-.07.27,0,.19-.22.27v-.32c-.25.25-.16.23-.59.16V17.1a21.65,21.65,0,0,1-3.47-.43v-.11l-.22.11c0-.27-.61-.11-.76-.11v-.27H5.43l1.2-.05v.11H8.8v.1h1.73v.11Z"/><path class="b75b6820-9b5a-4bdc-b337-049f6386288c" d="M23.11,7.89h.11V8.1h.11v.22h.21v.11c.57.14.15.05,1.31.11a1.05,1.05,0,0,1,0-.44h.16c0-.2,0-.43.27-.43a4.9,4.9,0,0,0,0-2.71h.27V5.5h.11c.07.33,0,.24.22.33v.1c.16,0,.18.12.38.17l-.54.05c-.08.44-.17.38-.17.87h.11c0,.34.2.87-.11,1,.31.15.11,0,.11.7h-.65v-.1c-.24.12-.07,0-.54.1l.05-.1c-.09,0-.17.1-.27.1-.41,0-.83,0-1.24,0a1.42,1.42,0,0,0,.05.87H23V9.4c-.24,0-.12.11-.32.11V9.4l-.11.06.05.16c-.36,0-.27-.1-.38.11-.08-.16,0-.11-.21-.11.24-.24.57-.44.59-.81,0-.65,0-1.3.06-1.95l.21-.06c0-.16.09-.15.22-.21Z"/><path class="e7ebe556-3ab9-4d60-9f58-7c351d610378" d="M25.5,4.85c0-.56.1-.26.1-.81.58-.08.86-.38,1.41-.38V3.55c.45,0,.39,1.26.44,1.52a10.9,10.9,0,0,0,.21-2.71,1.42,1.42,0,0,0-.81.32l.06.11h-.17l0,.32c-.6,0-.82.51-1.41.66V3.66c-.28,0-.12.11-.43.11v.1c-.31,0-.49.36-.76.49.15.08.1,0,.1.22l-.32,0V4.52a6,6,0,0,0-1.19.76h.1v.11h.11c0,.15,0,.09-.11.16h.11v.17H23v.11h.22l.05.54c.09-.43.32-.2.49-.54h-.43c.19-.2.26-.29.54-.22V5.5h-.33A10.62,10.62,0,0,1,24.9,4.36c.1.21,0,.1.38.16v.33Z"/><path class="fec77f47-e8d9-4fc4-9f97-a77842f1a6d6" d="M13,18.41h.11V18l.16.32c.51-.76,1.79.39,2.12-.59l.05.37a4,4,0,0,0,2.28-.37v.1c.29.1.14,0,.27.44.28-.56,1,.12,1.25-.44l.05.38c.15-.07.09-.12.16-.27l.06.16a12.81,12.81,0,0,1,4.39-1.08c-1,1.47-7.21,1.69-8.89,1.36C14.36,18.28,13.59,18.82,13,18.41Z"/><path class="b5af20c1-720d-44dc-bd91-145bfe1b663a" d="M12.92,18.41c-3,.16-5.1-.95-7.81-1.63v-.11H4.89v-.11H4.67c.06-.1,0-.14.17-.11,1,.25,5.23,2.07,5.74,1.31,0,.42-.05.26.06.48.14-.07.07,0,.22,0v-.11a13.36,13.36,0,0,1,2,.05v-.27Z"/><path class="b0025572-7930-4236-b92b-32810633433d" d="M11.18,14.83H11v-.11a10.82,10.82,0,0,1-1.46,0c-.1-1.2,2.07-4.85,3-2.93-.58.59-1.06,1.84-.06,2.17a3.44,3.44,0,0,0-1.41.33c.34.11.24.39.54.49v.11h.44a6,6,0,0,1-.27,1.41c-.08-.16-.32-.18-.49-.22A8.75,8.75,0,0,0,11.18,14.83Z"/><path class="e7678372-de37-484d-8cba-a719032e5970" d="M13.13,14.12c2.45,0,2.21-.8,2-2.76a3.63,3.63,0,0,1,1.46.32c0,.2.4.47.49.76.47,0,.39,1.52.81,1.52v.54a1.59,1.59,0,0,1-.65-.11v-.11c-.9,0-1.5-.21-2.6-.21-.54,0-.62.35-1.3.21v-.1Z"/><path class="a2c37d0f-e905-4363-8539-ba6c0dd9d7d8" d="M17.8,6.64V6.8h-.27L17.47,7h-.16l-.06.32h-.16A9.55,9.55,0,0,1,16.82,9h.11c0,.31-.11.16-.11.43a6,6,0,0,1-.22-1.95h.17l-.17,0a4.83,4.83,0,0,0,0-1.14h-.21V6.15h-.22V6h-.54V5.93h-.22V5.77c1.26-.09,2.59,0,3.8,0,0,.24-.11.07-.11.43A1.89,1.89,0,0,0,18.61,6c-.26.52-1.18.19-1.36.55Z"/><path class="ae8693c4-11cf-4c94-b0ee-b8d47518862d" d="M14.43,10.16V10h-.1c.12-.24.05-.07.1-.55h-.1V8.75h-.17L14.11,9c-.1-.21,0-.07-.11-.43h-.11a9.74,9.74,0,0,1,0-1.63h-.11c0-.24.11-.12.11-.32h-.11c.08-.16,0-.11.22-.11L14,6.21c2.51-.23,1.27,1.61,2.38,2.16.12-.34-.12-.78.27-.92,0,.35-.18,2,.33,2v.11h-.22V9.4c-.39.4.1.88-.32,1.09v-.11h-.22v-.22Z"/><path class="f89b4c4a-fd10-4903-aab0-50b21558fc79" d="M10.31,6.53c.59,0,1.1-.16,1.52-.16,0-.16.6-.65.76-.65v.11h.11v.1h.22V6h.21v.22h.11v.33l-.11-.22c-.65.33.73,3.47-.59,3.47,0-2.14-.11-2.69-2.23-3Z"/><path class="ae0b00dc-0b11-4a1c-b38a-659b1be078ec" d="M10.75,10.06c.08-.16,0-.11.21-.11V9.73h-.1A.86.86,0,0,0,11,9.4h-.21c0-.48,0-1,0-1.46,0-.31.11-.61.11-.92h-.11V6.86c1.8,0,1.86,1.53,1.79,3,1.27,0,0-3.2.59-3.47a5.59,5.59,0,0,0,.11.59h.44L13.3,7c-.05,1-.17,2-.17,2.93-.65,0-1.17.18-2.27.21l.1-.05Z"/><path class="eff28ab9-ed0b-44e7-9d99-0aa2eea988e9" d="M8.36,9.62c.08-.16,0-.11.22-.11V9.3c-.53,0-.34-.08-.6,0V9.24c-.16,0-.07,0-.27.06.32-.32.09-1.51,0-2H7.44c.08-.23,0-.14.27-.21V6.91H7.6V6.59H7.49c1.59-.15,1.73.77,1.79,2.16h.17a12.66,12.66,0,0,0-.06-2.54l.16-.06v.11h.38c.08.44,0,.29.38.43V6.8h-.05l0,.22H9.72c0,.72,0,1.45-.06,2.17C9.62,9.71,8.67,9.6,8.36,9.62Z"/><path class="bda762f4-ce3a-4426-b8d2-3075ea1084c2" d="M7.17,6.37H7a1.63,1.63,0,0,1,0-.54H6.73V5.72h-.1V5.61H6.52V5.5H6.3V5.39H5.87V5.28H5.65v-.1H5.43V5.07H5.32V5c-.48,0-.86,0-.86.54C6,5.5,6,6.49,6.14,7.89l.16-.06v.76l.11-.05c.07.21,0,.14.22.21,0-.45,0-.9,0-1.35,0-.08.1-.14.1-.22l.22,0L7,7.34A2.25,2.25,0,0,0,7.17,6.37Z"/><path class="b91a1a20-7748-491d-bf5b-6f8bb5727b62" d="M18.56,9.4h-.17c.77-1.53,1.12-2.59-1.14-2.81.19-.38,1.1,0,1.36-.55.34.07.18,0,.49.11v.11h.11v.11h.21v.11h.11v.11h.11v.1h.11c0,.47-.11.23-.11.65H20v.11l-.33,0c-.13.79-.32,1.43-.43,2.22C18.86,9.62,18.56,9.82,18.56,9.4Z"/><path class="af93d06f-00f1-4948-b596-378f6230ccdb" d="M13.78,15h-.1v-.1h-.11v-.11h-1c-.07.25-.17.2-.17.43h-.1V15h-.22v-.1h-.44v-.11c-.32-.11-.18-.4-.54-.49a4.69,4.69,0,0,1,2.06-.27l-.05.11h.27v.1c1,.26,2.9-1,3.69,0,.1.14-.84.45-.92.49C15.76,15,13.78,15.78,13.78,15Z"/><path class="b50afc4d-46f6-451d-91c8-a589f0fc505a" d="M4.46,15.37v-.11H4.35V15H4.24l0-.1c1,1,1,0,.82-.82.79,1.6.75,2,2.82,1.79v.44H6.63v-.11h-1v-.11H5.32v-.22H5.11V15.8H4.89v-.11H4.67v-.1h-.1v-.22Z"/><path class="bd43f438-3a81-4ca1-8d04-8e1297acfbc0" d="M19.86,4.85h-.22V4.63c-.82,0-1.65.29-2.6.33V4.85c-2.24,0-2.64-1.41.54-1.41l-.54,0C19,3.34,20.1,2.89,19.86,4.85Z"/><path class="ab89a41b-63df-4e5b-9450-4d4e76246043" d="M23.87,5.5c1.19-.2,1.17,1,1.25,1.9-.15-.07-.22-.07-.22.11.86,0,.37-2,.27-2.5l.16,0c0,.7.17,1.36.17,2.06s-.44.61-.44,1.08h-.27V8c-.18,0-.6.06-.6-.21h-.32V7.67h-.11V7.56h-.22V7.45h-.21c0-.31,0-.19.05-.38-.8-.4.28-1,.38-1.24h-.43c.19-.2.26-.29.54-.22Z"/><path class="e7a885d8-47a7-4ef5-a954-a983077ef1d8" d="M20.94,16.67c.76,0,1.52,0,2.28,0,.11,0,.21-.11.32-.11,0,.19-.27.25-.43.33v-.11c-1.33.66-3.19-.28-4.5.38l.16.05v.11h.11v.11h-.22v-.11c-.36,0-.22-.05-.43.06v-.17l-.05.27h-.11v-.16c-.21.1-.11,0-.11.38-.27-.13-.28-.14-.38-.43a.9.9,0,0,1-.43-.06v-.32H17s0-.11.05-.11c1.28,0,2.57,0,3.85,0Z"/><path class="b98ac9e5-8ac3-47b0-8b25-727114dbcad3" d="M8.42,5.5a4.32,4.32,0,0,1,.48.11c0,.19.15.17.33.22v.1h.11V6h.11c0,.9,0,1.8,0,2.71H9.28c0-1,.1-1.21-.38-1.84-.29-.39-1.83-.18-1.62-.7S8.17,6,8.42,5.5Z"/><path class="b36a6a3c-63f7-4129-86b8-0eaae7ea0632" d="M17,15.69h-.11v-.1c-.37,0-.19.1-.44.1v-.1a14.43,14.43,0,0,0-2.71.1v-.37c1.36,0,2.37-1,3.47-1v.11a3.53,3.53,0,0,1,.65.11v.22c.36,0,.76-.1.76.32h.11l-.05.17c-.17-.33-1-.47-1.14-.06h-.49Z"/><path class="fd37fa07-d051-4e77-97cc-8fef6ba83274" d="M5.76,8.86V8.75H5.65V8.32H5.54V8.21H5.16c0-.16,0-.32-.21-.32,0-.25,0-.44-.28-.44V7h-.1V6l.21-.06V5.5c1.33,0,1.28,1.42,1.36,2.39l.16-.06v.76l.11-.05c.07.21,0,.14.22.21v.11Z"/><path class="b2271c23-6c4b-48a4-8ffe-388805a6ecd3" d="M14.11,6.15a1.34,1.34,0,0,1,1.19-.43v.11h.11v.1h.22V6h.54v.11h.22v.11h.21a10.81,10.81,0,0,1,0,1.14h.17l-.28,0c0,.76,0,.48-.1.87C16.34,8.32,15.56,6.33,14.11,6.15Z"/><path class="ef991b5a-113a-4ba2-961c-14f23dfa4a6b" d="M2.94.62V.51A2.86,2.86,0,0,0,1.15.62h.27V.73A7.12,7.12,0,0,1,4,1.49V1.6c.15,0,.08,0,.22-.06A2.92,2.92,0,0,0,5.43,2V1.92H5.22V1.81c-.25,0-.32-.14-.55-.21V1.49c-.17,0-.43,0-.43-.22C4,1.2,3.81,1.21,3.81,1H3.59V.73A2.06,2.06,0,0,1,2.94.62Z"/><path class="b423a472-ed37-420c-9407-f47ce30649cf" d="M10.69,3.28a12.63,12.63,0,0,1,1.74,0c.65,0,3.06.74,1.79,1.24s-2.53,0-3.8,0C9.84,4.52,10.05,3.34,10.69,3.28Z"/><path class="ae30ffa8-b2d4-4026-84a5-c8fe04351794" d="M20.94,15.59c0-.06.15-1.09-.22-1.09v-.11c-.34,0-.68,0-1,0a3,3,0,0,1-.43.11c-.31,1.24-.32,1.85,1,1.85.84,0-.34-1.85.22-1.85,0,.49,0,.07,0,1.25.06-1-.22-.79.16-1a12.26,12.26,0,0,0,.17,1.47c.1-.21,0-.11.38-.11v.11a4.27,4.27,0,0,0,1.08.16v-.16h-.76L21.7,16h-.33v-.33Z"/><path class="aa66b5bf-3435-43d6-8e1a-bc0e1d4b8d17" d="M2.07,4.52l.11-.21H2.07V4.09c.29,0,0-.11.54-.11v.11h.22V4.2a2.46,2.46,0,0,1,1,.11v.11h.11l.1.32-.16,0a10.39,10.39,0,0,0,.06,2.55l-.33.1C4.51,6.11,3.22,4.67,2.07,4.52Z"/><path class="e9832b52-bcdf-4bb1-8599-da00653ca4ac" d="M17.15,7.34h.1V7.07L17.47,7V6.86l.33-.06V6.64c1.56,0,1.68,2,.59,2.71l.17.05c0,.3.06.21.21.44-.25,0-.76.32-.76-.22H17.8V9.51h-.11V9.3h-.16c0-.47,0-.94-.06-1.41h-.32Z"/><path class="ad8d3c22-6b49-4a5a-b97f-75e581047214" d="M20.34,4.36l.06.82a4.28,4.28,0,0,0,2.82-.82c.27-.27,0-.59.43-.7C23.65,5,21,5.54,20,5.34,20.33,5.16,20.07,4.64,20.34,4.36Z"/><path class="a5b2c44d-1bbf-492c-976b-a52b2a2832e7" d="M20.29,6.59c.43-.43,2.69-1.26,1.95.21h.11c0,.59.52,2-.11,2A5,5,0,0,0,22,7.07L22,7.72C21.7,6.37,21.64,6.59,20.29,6.59Z"/><path class="a8336599-a88a-4756-a8b9-0ec907b8359f" d="M25.22,5c-.13.79.55,2.26-.32,2.55,0-.18.07-.18.22-.11,0-1.21-.18-2.1-1.58-1.9A10.62,10.62,0,0,1,24.9,4.36c.1.21,0,.1.38.16v.33h.22V5Z"/><path class="af98ac72-53a4-45bd-b8f0-339e63637406" d="M20.72,6.59v.1h-.16c-.16.64-.12.72-.92.65,0-.42.11-.18.11-.65h-.11v-.1h-.11V6.48h-.11V6.37h-.21V6.26H19.1c0-.51.11-.26.11-.54.76,0,1.52,0,2.27,0,.29,0,.57-.45.87,0a4.82,4.82,0,0,0-2.06.81A.92.92,0,0,0,20.72,6.59Z"/><path class="e0adb055-e8a6-4884-8056-948f9483dafd" d="M20.29,8.21h.11v.11c.12,0,.43.18.43.33h.22v.1h.32v.11h.11V9c.42,0,.87.39.87-.22h-.11A5,5,0,0,0,22,7.07L22,7.72c-.18-.92-.19-1.49-1.41-1.19l.16.06v.1h-.16a3.63,3.63,0,0,0-.27.87h.11C20.4,7.89,20.29,7.54,20.29,8.21Z"/><path class="b1242bd6-f64a-4e4d-a822-a25c46ca2ec4" d="M5.76,8.86H5.11V8.75H4.89v-.1H4.67V8.43h-.1V8.32H4.46V8.1H4.35c0-.52-.06-1-.06-1.51l.06.1c0-1.82.11-.63.11-1.19h.32v.43H4.62L4.57,7h.1v.43h.17c0,.19,0,.44.21.44,0,.35.16.32.49.32v.11h.11v.43h.11Z"/><path class="e36b85d4-42f8-454d-a7fe-b661a2d9933e" d="M23.22,16.45v-.1h-.11c0-1.74-.2-2.8,1.63-2.5v.22H25C25,14.78,24,16.45,23.22,16.45Z"/><path class="f29f81e1-e53f-42e1-8231-6df416c72db5" d="M7.17,6.64a1.36,1.36,0,0,0,.43,0v.32h.11v.22H7.55l-.06.16c.43.11.46,1.77.22,2,.17,0,.07,0,.27-.06v.11c.26-.13.07,0,.6,0v.21c-.36,0-.07.11-.65.11V9.51a2.22,2.22,0,0,1-.54-.11V9.3H7.17c0-.25-.09-.59-.11-.82.25-.06.2-.16.43-.16V8.21h-.1c0-.65-.22-.58-.33-1.25C7.25,6.87,7.17,7,7.17,6.64Z"/><path class="b8cbc60d-7fff-40c0-9b21-4ab7b93b34fb" d="M23.76,2.36c-1.46.73.32.89,1.09.32.47-.35,1.81-2,.16-1.14,1.15.19-.85,1.49-1.3,1C23.78,2.43,23.76,2.5,23.76,2.36Z"/><path class="f11ba47d-42fc-416a-9c3d-bbb142d9d8a9" d="M11.72,16.56a1.93,1.93,0,0,1,.44-1.19c.1.2-.2.62,0,.76,0,0,2.71.36,2.82.38l-.49,0,.16.06-1.08.05v-.11Z"/><path class="b8f63214-89ca-44b4-b0c9-becf5602e13f" d="M27.45,5.72a4.76,4.76,0,0,0-.33-2.23c-.14.07-.11,0-.11.17-.55,0-.79.32-1.35.32l-.06.27c1.43,0,1.35-.19,1.63,1.47Z"/><path class="aeb5e8e5-ab63-4588-a141-a6d3b63386f1" d="M19.31,16.67H17.15c0-.2.1-.09.1-.32h-.1v-.22H17v-.92l.54-.06V15c.26-.06.18,0,.27-.16,1.18.17,1.23.56,1.36,1.68h.1Z"/><path class="ba76712b-e354-4753-ae38-7ac263870104" d="M3.05,7.45V7.24H2.94c-.07-.87-.16-1.73-.16-2.61.55.56,1.64,1.83.81,2.66.63.31.27-2.32.27-2.6l.16,0V5h.11C4.13,6.27,4.59,7.45,3.05,7.45Z"/><path class="a2c859fa-3260-4fde-9c8f-7bb0397a8170" d="M14.43,16.62l.6-.11c-.8-.1-1.25,0-1.25-.82a16.3,16.3,0,0,0,2.71-.1v.1c.25,0,.07-.1.44-.1v.1H17v.44h.11v.22h.1c0,.23-.1.12-.1.32A11.23,11.23,0,0,1,14.43,16.62Z"/><path class="ff404262-54d4-4471-b0fa-e0c10d25b458" d="M20.89,9.62h-.38l-.06.16c-.18,0-.25-.12-.32-.27L20,9.62c0-.23-.17-.59-.44-.59,0-.17-.08-.15-.22-.22a7.24,7.24,0,0,0,.33-1.41l.33,0V7.34c.32.07.24,0,.32.22h.11C20.4,8.59,19.9,9.23,20.89,9.62Z"/><path class="a032d633-337c-472c-b1bf-a5f7a8b67327" d="M22.51,9.08c-1.12,1.69-2.14.36-2.22-.87h.11v.11c.12,0,.43.18.43.33h.22v.1h.32v.11h.11V9A3.47,3.47,0,0,1,22.51,9.08Z"/><path class="baaf7cee-f53e-4c15-9606-c35af81a4ba6" d="M22.35,6.8h-.11a.74.74,0,0,0-.43-1l.65,0v.43h.11v.54h.32V6.8h-.16c0,.11.37,2.09-.38,2.28A11.58,11.58,0,0,0,22.35,6.8Z"/><path class="bb96e05a-58d5-4941-b3ae-a57a5676a00e" d="M20.83,16.67H19.31v-.11h-.1v-.38c.28,0,1.24.47,1.3,0,0-.21-.25-1.68,0-1.68,0,.49,0,.07,0,1.25.06-1-.22-.79.16-1A11.13,11.13,0,0,1,20.83,16.67Z"/><path class="fd3f6c16-9805-4312-9066-a21f3321dc42" d="M25.6,11.9c0-.91.22-1.49.22-2.22L26,9.62c0-.42-.12-.32.11-.43,0,.36,0,.23.05.43.06-.56-.1-.45.27-.54V8.81l.22-.06C26.69,9.15,26,11.9,25.6,11.9Z"/><path class="bba6d1e6-8fb7-40ca-a014-2bcdcd05a34a" d="M10.58,3.44a19.73,19.73,0,0,1,2.55,0c.17,0,.55,0,.65.22.58,1-3.16.67-3.36.38S10.18,3.48,10.58,3.44Z"/><path class="b0b8decb-42ee-4dec-9399-30d2725b542c" d="M25.93,5.93v-.1c-.25-.09-.15,0-.22-.33H25.6V5h-.1c0-.8,0-.26.16-.71l.16.06c0,.15-.3.76.11.76v.11H26v.1h.11v.11h.32c0,.49.41.11.6.49l.05-.33c.14.27.22.2.22.49C26.86,6,26.28,5.93,25.93,5.93Z"/><path class="b630cd2e-9b03-43c4-868d-f8f12a44cba5" d="M22.13,3.11c1.78-.24,0,1.69-1.13,1.58-.13,0-.2-1,.1-1.2A3.53,3.53,0,0,1,22.13,3.11Z"/><path class="a7a1b05b-80d2-44c7-9c90-e778ebf0c823" d="M9.83,15.69c.11.22.32.26.54.33,1.15.38.49-.43.81-1.08.22.43.05.06.11,1.19.38,0,.43,0,.43.43H10.53v-.11H9.77C9.77,15.84,9.73,16.09,9.83,15.69Z"/><path class="ad5c5cfe-3342-4e8a-aeeb-d37be8996e1e" d="M27.34,5.83c-.19-.1-.1,0-.16-.33l-.06.38a1.45,1.45,0,0,0-.65-.27V5.39h-.32V5.28H26v-.1h-.11V5.07h-.11a4,4,0,0,0-.11-.6c.14-.07.11,0,.11-.16l-.16-.06c1.33-.66,1.4.42,1.57,1.47h.11Z"/><path class="ab1d0b01-8247-4b8d-acd7-315cdf60b236" d="M9.23,14.83c-.26,0-.64-.09-.87-.11v-.44c-.16.08-.11,0-.11.22l-.05-.22c.78-.38,1.22-.39,1.3.49l.27.06v1.08c-.16,0-.07,0-.27-.05C9.5,15.45,9.23,15.13,9.23,14.83Z"/><path class="b29b85bb-9e68-4072-9842-a4e8e6267696" d="M16.82,9.4c0-.27.11-.12.11-.43h-.11c.16-.31-.06-1.43.33-1.63v.55h.32c0,.29-.36,1.41.22,1.41v.21h.11v.11H18v.11h-.65V9.62c-.43-.06-.34.07-.43-.22Z"/><path class="f0b137a9-2c09-4eea-942e-ec1081d800c5" d="M7.93,16.35v-.44c.71.36,2-.51,1.14-.92.43-.15.39.58.43.87.41,0,.27.1.27.59h-1v-.1Z"/><path class="a4f661bf-0421-43f6-a6fc-00650bddd181" d="M24.9,8.1a1,1,0,0,1,0,.44,5.12,5.12,0,0,1-1.31-.11V8.32h-.21V8.1h-.11V7.89h-.11c0-.25-.19-1,.27-.82-.09.19-.05.07-.05.38h.21v.11h.22v.11h.11v.11h.32v.11a5.77,5.77,0,0,1,.6.1V8.1Z"/><path class="a568acf7-224b-41d7-9c4e-ca4273ebceb9" d="M7.55,3.22c.54-.12,1.73-.1,1.73.71,0,.09-.12.31-.21.32C8.3,4.36,5.61,3.65,7.55,3.22Z"/><path class="b5d24312-01b4-4ea3-adaa-64a1f3e4a407" d="M5.65,14.61V14.5H5.54c.11-.21,0-.07.11-.43H5.43l.11-.22H5.43v-.22c-.68,0-1.51-.17-1.51.65H4v.22h.11v.33c.93,0,1.32,1,1-.71C5.28,14.46,5.29,14.47,5.65,14.61Z"/><path class="ed17340e-9fb2-4248-85bb-62cb5f5afcfe" d="M10.53,10.06c0-.22-.32-.4-.16-.71h-.16c0-.93.1-.8.1-1.46h-.1c0-.37,0-.72,0-1.09l.49.06V7h.11c0,.31-.09.61-.11.92,0,.49,0,1,0,1.46H11c0,.26.07.19-.1.28.17.08.1,0,.1.27C10.69,10,10.84,10.06,10.53,10.06Z"/><path class="a3d850e9-9d87-4619-99cf-7903f77f2b62" d="M13.78,16.13c-.59-.3-2.07.73-1.57-.76-.21.14-.12.13-.22.32-.07-.35.06-.29.06-.65h.22v.22h.1c0-.26.11-.12.11-.38l1.09-.05v.11h.11V15h.1Z"/><path class="bfccadad-328b-498d-8ee0-b3f9101789e5" d="M7.93,14.88l.21-.05c0-.19,0-.46.22-.55v.44c.12,0,.87-.13.87.22L9.07,15c1,.51-.67,1.08-1.14.92Z"/><path class="acf7ba5f-aa48-40b3-ac84-44a16ae3f446" d="M9.77,14.83A11.79,11.79,0,0,1,11,14.72v.11h.22C11.18,16.6,9.77,16.4,9.77,14.83Z"/><path class="bafa48f6-2d65-4c1d-a1e9-f4f657dca261" d="M1.85,5.18V4.74H2V4.58c1.13-.11.82.81.87,1.79H2.72V6.26H2.61V6.15H2.4V5.28A1.79,1.79,0,0,0,1.85,5.18Z"/><path class="b7fc9cfd-cabb-44dd-929a-aa882ad9fa6d" d="M24,2.14a1.88,1.88,0,0,1,.92-.54C27,1.39,22.43,3.4,24,2.14Z"/><path class="ba3d6379-aff1-4972-b902-e466d4bbbb56" d="M2,4.74H1.85V4.63H1.69c0-.23-.23-.58-.27-.86H1.31c0-.78-.4-.79.54-.87L2,3.33h.11A2,2,0,0,1,2,4.09h.11v.22h.11C2.18,4.55,2,4.49,2,4.74Z"/><path class="e42ce013-9157-44b6-baf5-4e066cfeee90" d="M26.69,6.15A1.81,1.81,0,0,0,27.34,6c0,.71-.54,1.53-.54,2.28h-.11V7.89h-.11c0-.86.11-.39.11-.76h-.11C26.76,6.76,26.63,7.06,26.69,6.15Z"/><path class="bbde4ac3-c81e-418c-8811-b269f01ae586" d="M14.38,10.16c-.16-.05-.27,0-.27-.21H14V9.84c-.26,0-.19-.34-.22-.54h-.1c0-.81.1-.29.1-1.31l.11.55H14c0,.36-.05.23.05.43.08-.23,0-.15.28-.22V9.4h.1c0,.48.13.37-.1.49l.1.06Z"/><path class="b0467d81-0ed8-4362-b06d-ef7fb106ef56" d="M10.58,3.66c.52-.54,1.49,0,2.23,0C14,3.68,9.84,4.43,10.58,3.66Z"/><path class="a574677a-4bd7-41c8-9b4a-84878b3c76c8" d="M2.73,10.65a2.83,2.83,0,0,1-.61-1.28C2,9.08,2,8.78,1.87,8.48S1.68,8,1.59,7.75a4.19,4.19,0,0,1-.17-1.06"/><path class="a35491f2-d011-4c20-aaed-8635f71e080e" d="M1.42,6.67a0,0,0,0,0,0,0,6.07,6.07,0,0,0,.13.94c.08.27.22.52.3.79s.12.43.18.65.08.28.13.41a2.52,2.52,0,0,0,.58,1.18h0a0,0,0,0,0,0,0,2.69,2.69,0,0,1-.59-1.21c0-.14-.09-.28-.13-.43s-.09-.39-.16-.58-.22-.52-.29-.79a4.85,4.85,0,0,1-.13-.93S1.44,6.66,1.42,6.67Z"/></g></g></g></svg>