<svg xmlns="http://www.w3.org/2000/svg" viewBox="0 0 37.16 27.16"><defs><style>.a23f09e6-3eaa-4de7-ba29-444b49fa9a2e{fill:#242023;stroke:#242023;}.a0fcae64-6ce0-47b8-9eed-65a03d19e4fc,.a23f09e6-3eaa-4de7-ba29-444b49fa9a2e,.a3b94c2f-0cac-4d15-b7bb-eb7a89be1c12,.a8cc2c57-402c-4f06-8ad3-7f417a54973e,.b23bf52a-1c3e-4cf9-9198-5b006b815096,.b9bc2730-3ed7-4be4-b13d-a4d022e9343f,.e5b1b01d-2917-4837-9398-d2cada4c07c8,.e9feabe8-6690-4933-b1c9-a949aad8de66,.eac30070-715f-45c4-a779-9d99dd4533da,.eb4869d0-06c8-44c8-91f8-109ddc9620c7,.ee5f17bb-9a9f-4f43-bca6-5201b26cb2ca,.f0875793-66c0-429b-846d-20bf205ea14a,.f437e8a6-93e0-4f04-ab6b-257f9c3ee4d8,.f5d4a39c-c79e-4201-b45e-15b317e1563d{stroke-linecap:round;stroke-linejoin:round;stroke-width:0.21px;}.f5d4a39c-c79e-4201-b45e-15b317e1563d{fill-opacity:0.39;stroke:#ba60a4;}.f0875793-66c0-429b-846d-20bf205ea14a{fill:#292427;stroke:#292427;}.a0fcae64-6ce0-47b8-9eed-65a03d19e4fc{fill:#a2a2a2;stroke:#a2a2a2;}.a8cc2c57-402c-4f06-8ad3-7f417a54973e{fill:#262224;stroke:#262224;}.eb4869d0-06c8-44c8-91f8-109ddc9620c7{fill:#9e9d9e;stroke:#9e9d9e;}.a3b94c2f-0cac-4d15-b7bb-eb7a89be1c12{fill:#efeeee;stroke:#efeeee;}.b23bf52a-1c3e-4cf9-9198-5b006b815096{fill:#eaeaea;stroke:#eaeaea;}.ee5f17bb-9a9f-4f43-bca6-5201b26cb2ca{fill:#352731;stroke:#352731;}.e9feabe8-6690-4933-b1c9-a949aad8de66{fill:#33262f;stroke:#33262f;}.e5b1b01d-2917-4837-9398-d2cada4c07c8{fill:#2a2227;stroke:#2a2227;}.f437e8a6-93e0-4f04-ab6b-257f9c3ee4d8{fill:#e8e7e8;stroke:#e8e7e8;}.eac30070-715f-45c4-a779-9d99dd4533da{fill:#f0f0f0;stroke:#f0f0f0;}.b9bc2730-3ed7-4be4-b13d-a4d022e9343f{fill:#252023;stroke:#252023;}</style></defs><g id="b276ff41-7fbb-4e9f-860c-dce5a8591a8d" data-name="Layer 2"><g id="b1c885da-3492-43c3-b286-2703eb547dc2" data-name="Layer 1"><g id="bffbbee3-79a1-4db9-bc57-9db4cc0e57ae" data-name="b63b0f37-c1b4-44b8-b904-8f22f6f3eb68"><g id="e688bc6f-61f3-40ab-897c-7fb05fc2bb6f" data-name="b79f85e2-7e9a-496c-b87e-144292a23327"><g id="ea8cbeab-acf3-4ffb-ba01-86afeb03bfc8" data-name="b5956d99-f660-4ac6-9434-45d2585d5677"><path class="a23f09e6-3eaa-4de7-ba29-444b49fa9a2e" d="M36.68,17l-.11-.11.18-.14c-.25-.75.84-4.39-.58-4.59,0-.22,0-.26-.25-.29l.12-.11a10.09,10.09,0,0,1-.78-.95l-.14,0a1.59,1.59,0,0,0-.07-.2l-.13,0-.07-.21c-.61.21-1.79-1.29-2.62-1l0-.16c-.89.07-1.84,0-2.73,0l0-.13a10,10,0,0,1-1.73.28l0-.16c-4,1.35-8.27,3.39-12.42,4.08l.11-.12a7.88,7.88,0,0,1-1.81.24l0-.16c-1.52.52-4.53-1.34-5.1-1.15A1.59,1.59,0,0,0,8.5,12c-.28,0-.55-.27-.75-.2l0-.14-.14.05c-.08-.24-.59-.25-.77-.5l-.14,0c-.54-1.59-4.6-.48-5.21,1.4-2,6.09,3.92,10.82,8.37,13,5.93,2.92,16.59.76,21.43-2.59A15.64,15.64,0,0,0,35.54,19C35.71,18.7,36.38,17.09,36.68,17Z"/><path class="f5d4a39c-c79e-4201-b45e-15b317e1563d" d="M14.13,3.57c1.66-.14,1.54,1.63,2.63,1.92.17,0,.59-1.15,1-1.4a7,7,0,0,1,3.46-1.41l0,.14c1.69-.57,3,2.56,3.34,3.57,1.36,4-5,6.44-7.16,3-3.15,4.11-9.78,2.5-7.56-3.26C10.24,5.17,13.65,2.14,14.13,3.57Z"/><path class="f0875793-66c0-429b-846d-20bf205ea14a" d="M19.23,4.27c3.41-2.07,5.88,4,3.28,5.63C18.66,12.39,16.21,6.1,19.23,4.27Z"/><path class="a0fcae64-6ce0-47b8-9eed-65a03d19e4fc" d="M7.72,16.15a19.4,19.4,0,0,0-1.37-3.56c.48-.16,1.65.81,2.1,1a14.9,14.9,0,0,0,4.78,1.1c-.45,1-.4.89-.76,1.78C11.41,19.11,9.19,15.65,7.72,16.15Z"/><path class="a8cc2c57-402c-4f06-8ad3-7f417a54973e" d="M12.23,5.13c3.59-2.11,5.86,3.85,3,5.5C11.73,12.66,9.45,6.76,12.23,5.13Z"/><path class="eb4869d0-06c8-44c8-91f8-109ddc9620c7" d="M21.41,16c-2.09-2.75-2.75-2.06,1.71-3.69,1.66-.61,3.28-1.63,5.05-1.64C29.55,14.75,21.59,14.74,21.41,16Z"/><path class="a3b94c2f-0cac-4d15-b7bb-eb7a89be1c12" d="M21.41,16c-.08-.31,5.27-2.18,5.33-2.19s.54-.12.61,0c.58,1.08-.8,2.32-1.34,3.41C24.83,19.69,22,18,21.41,16Z"/><path class="b23bf52a-1c3e-4cf9-9198-5b006b815096" d="M12,17.51a7.56,7.56,0,0,1-4.05-1.43c.2,1.11.84,3.13,2,3.71C10.8,20.21,12.1,17.89,12,17.51Z"/><path class="ee5f17bb-9a9f-4f43-bca6-5201b26cb2ca" d="M4.17,9.31l-.49.32.16,0c-.79.3-2.68.84-3.17,1.83l.11.12-.68.23.46-.23C-.56,11.45,2.72,6.44,4.17,9.31Z"/><path class="e9feabe8-6690-4933-b1c9-a949aad8de66" d="M20.86,1.05C20.58.21,22.72-.14,23.34.29c.18.12.32.57.61.47a2.81,2.81,0,0,1,.49,1.66C23.28,2.63,22.21,1,20.86,1.05Z"/><path class="e5b1b01d-2917-4837-9398-d2cada4c07c8" d="M33.75,8.58c1.24-.83,4.17,1.88,3.06,2.53-.18.1-1.31-1.1-1.55-1.22C34.85,9.69,33.1,9,33.75,8.58Z"/><path class="f437e8a6-93e0-4f04-ab6b-257f9c3ee4d8" d="M13,6.76a1.23,1.23,0,0,1,1.67,1.78C13.81,9.83,11.56,7.76,13,6.76Z"/><path class="eac30070-715f-45c4-a779-9d99dd4533da" d="M20.24,6.58c.79-.54,2.19,1,1.12,1.51S19.15,7.32,20.24,6.58Z"/><path class="b9bc2730-3ed7-4be4-b13d-a4d022e9343f" d="M13.37,1.33c-1.72.68-.88.37-2.49.92C10.18,1.33,12.57,0,13.37,1.33Z"/></g></g></g></g></g></svg>