<svg xmlns="http://www.w3.org/2000/svg" xmlns:xlink="http://www.w3.org/1999/xlink" viewBox="0 0 608.93 541.27"><defs><style>.b51b0bce-fae2-4c78-903c-290d4cfc2dc0{fill:url(#bb1e7612-dc0a-47b3-b8b4-990ce57d086c);}.b4ddd275-c7a2-4943-adf6-a3228679968f{fill:#fff;}.b23cafe3-597e-42bb-a33d-361113703360{fill:#010101;}.b917c4c9-7bf0-426d-9c24-35f7c72c8e1f{fill:#ee3724;stroke:#231f20;stroke-miterlimit:10;stroke-width:6px;}</style><radialGradient id="bb1e7612-dc0a-47b3-b8b4-990ce57d086c" cx="304.45" cy="239.92" r="302.92" gradientTransform="matrix(1, 0, 0, 0.9, 0.02, 55.19)" gradientUnits="userSpaceOnUse"><stop offset="0.57" stop-color="#130c0e"/><stop offset="0.8" stop-color="#130c0e"/><stop offset="1" stop-color="#130c0e"/></radialGradient></defs><g id="a72e94b4-fefe-4f9b-81bb-422f91ead3dc" data-name="Layer 2"><g id="f444a847-5ac3-4ffb-b712-2ac7e7a53f67" data-name="Layer 1"><path class="b51b0bce-fae2-4c78-903c-290d4cfc2dc0" d="M608.75,0l.18,497.74c0,23.92-21.6,43.34-48.24,43.35l-512.28.18C21.77,541.28.18,521.88.17,498L0,.21Z"/><circle class="b4ddd275-c7a2-4943-adf6-a3228679968f" cx="198.67" cy="201.26" r="139.59" transform="translate(-84.12 199.43) rotate(-45)"/><circle class="b4ddd275-c7a2-4943-adf6-a3228679968f" cx="407.65" cy="201.19" r="139.59" transform="translate(-22.86 347.18) rotate(-45)"/><path class="b4ddd275-c7a2-4943-adf6-a3228679968f" d="M524.49,490a383,383,0,0,1-3.41,51.06l-435.61.15A378,378,0,0,1,82,490.19c0-63.81,15.73-122.78,42.5-170.63,33.67-60.31,84.75-102.91,143.59-115.16a170.75,170.75,0,0,1,70.09,0c58.85,12.21,110,54.78,143.67,115.06C508.64,367.26,524.46,426.22,524.49,490Z"/><path class="b4ddd275-c7a2-4943-adf6-a3228679968f" d="M479,198.94A60,60,0,1,1,419,139,59.95,59.95,0,0,1,479,198.94Z"/><circle class="b23cafe3-597e-42bb-a33d-361113703360" cx="419.05" cy="198.96" r="48.35" transform="translate(-17.95 354.58) rotate(-45)"/><circle class="b4ddd275-c7a2-4943-adf6-a3228679968f" cx="183.67" cy="199.04" r="59.95" transform="matrix(0.25, -0.97, 0.97, 0.25, -55.47, 326.18)"/><circle class="b23cafe3-597e-42bb-a33d-361113703360" cx="183.67" cy="199.04" r="48.35" transform="translate(-86.31 220.59) rotate(-51.86)"/><path class="b917c4c9-7bf0-426d-9c24-35f7c72c8e1f" d="M407.69,327.45c0,39.26-76.49,90.31-96.67,90.32s-96.72-49.95-96.73-89.22c0-21.44,36.05-13.89,51.86-26.93,13.13-10.84,26.06-30.94,44.82-30.95,20.67,0,29.52,14.95,43.07,27.81S407.68,307.82,407.69,327.45Z"/></g></g></svg>