<svg xmlns="http://www.w3.org/2000/svg" viewBox="0 0 39.89 50.37"><defs><style>.fe194c61-f6a9-4ce7-b793-dfbc32d2122e{fill:#fb2825;}.b3e2e38b-2618-43a8-a7b0-99894491233b,.b42c312a-4ae2-42d3-a58a-41730ff58388,.b43313d0-5a59-498e-aa76-dd806a532861,.b67ae38e-0d06-44db-ad70-add8f903fe23,.bf4ce88a-3766-4a7f-8df9-c826330c0789,.e123f326-36c3-4dde-b00c-796523f520f0,.e6206d03-925c-46f2-af7f-8276a77be730,.fbe020b1-51c1-4823-8bf7-c380eb942d69,.fe194c61-f6a9-4ce7-b793-dfbc32d2122e,.fe427e43-02a4-4fbf-b105-37807b30259f{stroke:#000;stroke-miterlimit:10;}.bf4ce88a-3766-4a7f-8df9-c826330c0789{fill:#ec3720;}.b43313d0-5a59-498e-aa76-dd806a532861{fill:#56bf43;}.b67ae38e-0d06-44db-ad70-add8f903fe23{fill:#48bc62;}.b3e2e38b-2618-43a8-a7b0-99894491233b{fill:#f5382c;}.e123f326-36c3-4dde-b00c-796523f520f0{fill:#95d748;}.fe427e43-02a4-4fbf-b105-37807b30259f{fill:#f9cc2d;}.b42c312a-4ae2-42d3-a58a-41730ff58388{fill:#80140b;}.e6206d03-925c-46f2-af7f-8276a77be730{fill:#f53138;}.fbe020b1-51c1-4823-8bf7-c380eb942d69{fill:#ac1f18;}</style></defs><g id="bba4b569-9cbe-4705-a3dc-efe9d23a0618" data-name="Layer 2"><g id="bc3e6ff6-c65b-4d30-b424-d9739a6d1071" data-name="Layer 1"><path class="fe194c61-f6a9-4ce7-b793-dfbc32d2122e" d="M28.35,16.26V42.15a1,1,0,0,0,1,1h8.09a1,1,0,0,0,1-1,170.19,170.19,0,0,0-2.06-25.89Z"/><path class="bf4ce88a-3766-4a7f-8df9-c826330c0789" d="M36.81,19.18c-.15-1.05-.3-2-.44-2.92h-8V42.15a1,1,0,0,0,1,1h6.45a168.5,168.5,0,0,0-2.17-21.81,1,1,0,0,1,.69-1.17C35.22,19.85,36.06,19.52,36.81,19.18Z"/><path class="b43313d0-5a59-498e-aa76-dd806a532861" d="M28.35,33.06h9.8c-.06-1.15-.14-2.28-.22-3.36H28.35v3.36Z"/><path class="b67ae38e-0d06-44db-ad70-add8f903fe23" d="M34.79,29.7H28.35v3.36h6.79c-.11-1.17-.23-2.29-.35-3.36Z"/><path class="b43313d0-5a59-498e-aa76-dd806a532861" d="M28.35,39.78h10q0-1.71-.09-3.36h-10v3.36Z"/><path class="b67ae38e-0d06-44db-ad70-add8f903fe23" d="M35.42,36.42H28.35v3.36h7.29C35.57,38.63,35.5,37.51,35.42,36.42Z"/><path class="b3e2e38b-2618-43a8-a7b0-99894491233b" d="M33.39,48.87C33.28,29.26,30,16.26,30,16.26H19.94V48.87a1,1,0,0,0,1,1H32.39A1,1,0,0,0,33.39,48.87Z"/><path class="e123f326-36c3-4dde-b00c-796523f520f0" d="M33.11,39.78H19.94V36.42h13c.08,1.09.15,2.21.22,3.36Z"/><path class="e123f326-36c3-4dde-b00c-796523f520f0" d="M33.36,46.51H19.94V43.15H33.26C33.31,44.24,33.34,45.36,33.36,46.51Z"/><path class="fe427e43-02a4-4fbf-b105-37807b30259f" d="M19.94.5l16,0a3.15,3.15,0,0,1,3,4L38.22,7a4.18,4.18,0,0,0,.15,2.79l.78,1.87a3.15,3.15,0,0,1-1.34,3.94c-2.86,1.66-8.56,4-17.87,4s-15-2.35-17.87-4A3.16,3.16,0,0,1,.74,11.67L1.52,9.8A4.18,4.18,0,0,0,1.67,7L1,4.57a3.14,3.14,0,0,1,3-4Z"/><path class="b42c312a-4ae2-42d3-a58a-41730ff58388" d="M30,16.26H19.94v6.09A47.43,47.43,0,0,0,31,21.13c-.55-3.15-1-4.87-1-4.87Z"/><path class="e6206d03-925c-46f2-af7f-8276a77be730" d="M19.94.5l16,0a3.15,3.15,0,0,1,3,4L38.22,7a4.18,4.18,0,0,0,.15,2.79l.78,1.87a3.15,3.15,0,0,1-1.34,3.94c-2.86,1.66-8.56,4-17.87,4s-15-2.35-17.87-4A3.16,3.16,0,0,1,.74,11.67L1.52,9.8A4.18,4.18,0,0,0,1.67,7L1,4.57a3.14,3.14,0,0,1,3-4Z"/><path class="fbe020b1-51c1-4823-8bf7-c380eb942d69" d="M39.15,11.67,38.37,9.8A4.18,4.18,0,0,1,38.22,7l.71-2.44a3.15,3.15,0,0,0-3-4H35.5a3.88,3.88,0,0,1,.9,3.76l-.88,3a5.15,5.15,0,0,0,.19,3.44l.95,2.3a3.85,3.85,0,0,1-.13,3.27c.48-.24.91-.47,1.28-.69a3.15,3.15,0,0,0,1.34-3.94Z"/></g></g></svg>