<svg xmlns="http://www.w3.org/2000/svg" xmlns:xlink="http://www.w3.org/1999/xlink" viewBox="0 0 33.96 38.14"><defs><style>.aa723ea0-a401-4e42-9bdf-240b23eb8d4c,.abaf3114-cf6e-41d9-af46-ecb4e02cc24c,.b5dc5f46-4365-42fc-938b-d867b5cd8a18,.b709a26d-8970-46de-b314-b372a515684f,.bd1b91bd-d419-4cf4-9901-9016c1ebc618,.e29901f4-401a-409b-8518-0fd2c407bf67,.e4f00934-039d-4eba-898a-bd00e108a8d2,.f32e2cdf-9c71-4b76-b82d-037006de7261{stroke:#fff;stroke-miterlimit:10;stroke-width:0.25px;}.aa723ea0-a401-4e42-9bdf-240b23eb8d4c{fill:url(#a66ba4bc-bf8a-4859-acb1-9de75358ee28);}.abaf3114-cf6e-41d9-af46-ecb4e02cc24c{fill:url(#e13306e5-21d4-42b6-9b97-a5ea4adce755);}.e4f00934-039d-4eba-898a-bd00e108a8d2{fill:#c1262f;}.b5dc5f46-4365-42fc-938b-d867b5cd8a18{fill:#191a1b;}.b709a26d-8970-46de-b314-b372a515684f{fill:url(#b63edf5b-94a0-4ebb-b450-a0b1641e9c6c);}.e29901f4-401a-409b-8518-0fd2c407bf67{fill:#edede3;}.bd1b91bd-d419-4cf4-9901-9016c1ebc618{fill:#efefe4;}</style><radialGradient id="a66ba4bc-bf8a-4859-acb1-9de75358ee28" cx="-651.08" cy="393.86" r="10.52" gradientTransform="matrix(0.84, 0, 0, -0.84, 566.98, 342.15)" gradientUnits="userSpaceOnUse"><stop offset="0" stop-color="#0086ff"/><stop offset="1" stop-color="#dfd9ff"/></radialGradient><radialGradient id="e13306e5-21d4-42b6-9b97-a5ea4adce755" cx="-650.91" cy="393.89" r="8.13" gradientTransform="matrix(0.84, 0, 0, -0.84, 566.98, 342.15)" gradientUnits="userSpaceOnUse"><stop offset="0" stop-color="#1892ff"/><stop offset="1" stop-color="#fff"/></radialGradient><linearGradient id="b63edf5b-94a0-4ebb-b450-a0b1641e9c6c" x1="-662.99" y1="363.88" x2="-658.16" y2="363.88" gradientTransform="matrix(0.84, 0, 0, -0.84, 566.98, 342.15)" gradientUnits="userSpaceOnUse"><stop offset="0" stop-color="#ffaf00"/><stop offset="1" stop-color="#feff00"/></linearGradient></defs><g id="f50490d2-fb3e-4f3a-bc49-b39fb90f5ecf" data-name="Layer 2"><g id="b487169c-f8bf-465e-a26f-0509c92e2c60" data-name="Layer 1"><g id="f3e48da3-6149-4e50-bd91-47e284843571" data-name="Layer 1"><path class="f32e2cdf-9c71-4b76-b82d-037006de7261" d="M30.79,33.09c-2.59-2.59-4.53-4.27-8.74-3.9-3.73.32-8.64,4.44-7,8.62a10.67,10.67,0,0,1-3.54-.41c0-1.07.37-2.28-.18-3.19-1.76-2.94-3.66-.3-3.83,1.89C4,33.74.46,31.81.14,27a4.75,4.75,0,0,1,1.72-4.25c1.56-1.57,4.06-1.06,6-.59.25.06,1.87.29,1.89.47,0,.35-.27,2.27.3,3,2.36,3.15,3.65-.39,3.72-2.48,2.2-.13,4.4,0,6.61-.06,0,2.23.08,3.48,2.54,3.48.4,0,.93-.55,1.12-.83.52-.77.28-2.7.3-3.13,2-.28,4.22-1.48,6.2-.82C35.76,23.56,34,30.1,30.79,33.09Z"/><path class="f32e2cdf-9c71-4b76-b82d-037006de7261" d="M16.91.2c4.18-.49,7.3,1.58,9.39,5.07,3.36,5.6-.71,13.5-7.08,14.18C6.2,20.82,3.66,1.74,16.91.2Z"/><path class="aa723ea0-a401-4e42-9bdf-240b23eb8d4c" d="M17.09.9a8.54,8.54,0,0,1,8.33,4.31c2.75,5.51.21,12.86-6.5,13.53-5.83.58-10.15-3.69-10.15-9.45A7.11,7.11,0,0,1,9.83,5.63C12,2.71,13.62,1.26,17.09.9Z"/><path class="abaf3114-cf6e-41d9-af46-ecb4e02cc24c" d="M17,3c2.94-.55,5.24,1,6.73,3.48,2.4,4-.41,9.85-5.13,10.16C9.6,17.27,7.8,4.77,17,3Z"/><path class="e4f00934-039d-4eba-898a-bd00e108a8d2" d="M15.08,37.81C13.36,28.88,27.74,26.05,30.73,33c.24.56-1.67,1.64-2.18,1.95a21,21,0,0,1-9.86,3C16.7,38,15.14,38.12,15.08,37.81Z"/><path class="b5dc5f46-4365-42fc-938b-d867b5cd8a18" d="M17.45,7.05c3.76-.51,4.13,5.66.17,5.66C14.24,12.71,13.93,7.52,17.45,7.05Z"/><path class="b709a26d-8970-46de-b314-b372a515684f" d="M11.54,37.34c0-1.05.36-2.24-.18-3.13-1.73-2.89-3.68-.38-3.78,1.89C8.73,36.1,10.39,37.05,11.54,37.34Z"/><path class="e29901f4-401a-409b-8518-0fd2c407bf67" d="M14.2,23.11h-.42c0,1.77-.07,3.54-2.24,3.54a1.94,1.94,0,0,1-1.42-.83c-.56-.85-.33-2.54-.35-3.19A36.8,36.8,0,0,1,14.2,23.11Z"/><path class="bd1b91bd-d419-4cf4-9901-9016c1ebc618" d="M20.34,23.11a20.41,20.41,0,0,0,4-.48,8.4,8.4,0,0,1-.12,2.78c-.45,1.12-1.34,1.18-2.42,1.18C20.2,26.59,20.36,23.75,20.34,23.11Z"/></g></g></g></svg>