<svg xmlns="http://www.w3.org/2000/svg" xmlns:xlink="http://www.w3.org/1999/xlink" viewBox="0 0 26.06 35.02"><defs><style>.a3cd0ad7-fa09-496f-9ba0-bff916567e13{fill:url(#e84cf68e-98b4-4202-b3d7-64abc2469ad8);}.e7078039-a961-486c-8e1d-4acb493ae816{fill:#5d6773;}.af840cf4-6889-41bc-a46a-74915a32f705{fill:url(#afbed49d-46b7-47d4-b56b-71d6790417fd);}.a7cdbe51-eb3b-465e-a272-bb3edee0af15{fill:#bc2d35;}.a93a6d63-844c-4162-be3f-8c4412836a61{fill:#1c1b1c;}.beaf3ea2-5461-48c8-92ac-fd8f9801902f{fill:#e2e5db;}.b454977e-bdc1-4047-b14c-a0d0afae9639{fill:#eaede0;}</style><radialGradient id="e84cf68e-98b4-4202-b3d7-64abc2469ad8" cx="-655.46" cy="391.85" r="10.37" gradientTransform="matrix(0.84, 0, 0, -0.84, 566.11, 339.27)" gradientUnits="userSpaceOnUse"><stop offset="0" stop-color="#791d56"/><stop offset="1" stop-color="#ffc2c2"/></radialGradient><radialGradient id="afbed49d-46b7-47d4-b56b-71d6790417fd" cx="-655.45" cy="391.88" r="7.21" gradientTransform="matrix(0.84, 0, 0, -0.84, 566.11, 339.27)" gradientUnits="userSpaceOnUse"><stop offset="0" stop-color="#791d56"/><stop offset="1" stop-color="#fff5fb"/></radialGradient></defs><g id="bcc4bbf2-fb5e-46ad-abf4-db9103bc7bef" data-name="Layer 2"><g id="b423ae15-a28e-4d5c-b42d-9e3370cf102b" data-name="Layer 1"><g id="f1f57178-109d-46b5-9815-8e41e33a4921" data-name="Layer 1"><path class="a3cd0ad7-fa09-496f-9ba0-bff916567e13" d="M8.83,16.33c-.3,0-.38-.17-.66-.26v-.13C7.47,15.7,6.51,14,6,14c0-.29-.24-.31-.32-.66H5.54c0-.69-.83-1.68-1-2.43A8.8,8.8,0,0,1,6.4,3,8.81,8.81,0,0,1,21.79,8.11a8.71,8.71,0,0,1-6.51,9.08C14.9,17.28,8.83,17.61,8.83,16.33Z"/><path class="e7078039-a961-486c-8e1d-4acb493ae816" d="M4.56,26.59c.66-.33,1.24-3.6,1.51-4.4,4.66,0,9.28.66,13.94,0a13.47,13.47,0,0,0,1.45,4.47c1.18-.59.59-4.25,1.71-5,2.53-1.69,2.89,3.69,2.89,4.41,0,2.25-2.06,5.17-3.75,6.38-.15.11-.53.46-.72.46s-1.17-1.09-1.45-1.25a7.59,7.59,0,0,0-3.68-.73c-1.43,0-2.14.75-3.29,1.32a.25.25,0,0,1-.19,0c-1.83-.73-2.62-1.62-5-1.25a4.82,4.82,0,0,0-2.44,1c-.35.3-.59,1-1,.92C1,32.22-2.7,21.25,2.78,21.59c.12,0,.18.27.2.33C3.46,23.35,3.72,25.34,4.56,26.59Z"/><path class="af840cf4-6889-41bc-a46a-74915a32f705" d="M12.25,2.65c2.64-.49,4.74.73,6.12,3,2.13,3.55-.28,8.72-4.47,9C5.91,15.24,4.19,4.16,12.25,2.65Z"/><path class="a7cdbe51-eb3b-465e-a272-bb3edee0af15" d="M21.46,32.91c.28,1.94-9.34,2.17-10.13,2.1a16.56,16.56,0,0,1-2.7-.46c-.37-.09-4-1.3-4-1.64,0-1.23,3-1.86,3.82-1.91a6.54,6.54,0,0,1,3.09.33c.29.12,1.39,1,1.64.92C15.55,31.23,21,29.38,21.46,32.91Z"/><path class="a93a6d63-844c-4162-be3f-8c4412836a61" d="M12.65,6c3-.53,4.53,4.58,1.11,5.26C10.08,12,9.13,6.63,12.65,6Z"/><path class="beaf3ea2-5461-48c8-92ac-fd8f9801902f" d="M4.56,26.66a17.9,17.9,0,0,0-1.65-4.93,6.14,6.14,0,0,1,3.16.46c.08.06-.11.46-.13.52C5.59,23.77,5.33,25.88,4.56,26.66Z"/><path class="b454977e-bdc1-4047-b14c-a0d0afae9639" d="M20,22.19c1-.21,2.11-.35,3.16-.53-.38.76-1.2,4.74-1.71,5C21.46,25.16,20,23.63,20,22.19Z"/></g></g></g></svg>