<svg xmlns="http://www.w3.org/2000/svg" viewBox="0 0 56.48 55.42"><defs><style>.afebc0f7-b0ed-4e6e-bc2e-5ea0915b566b{fill:#fff;}.a3c5fcc4-bb7b-4064-ae9d-46c70ff4f9e8{fill:#c4c4c4;}.b98d4ed4-e72b-4a97-86e3-3706171d74fa{fill:#7a7a7a;}</style></defs><g id="ecd7b321-c952-44ce-9594-c42897c3a7fa" data-name="Layer 2"><g id="a3b6de2e-a259-41f3-a9e1-0939ac864f27" data-name="Layer 1"><g id="a320bc3b-a976-409d-bb66-e6063e9a253d" data-name="Untitled"><path class="afebc0f7-b0ed-4e6e-bc2e-5ea0915b566b" d="M4.16,42.69c0-.35.53-.26.63,0A47.92,47.92,0,0,0,8.5,50.48a18.71,18.71,0,0,1,1.76-6.25.33.33,0,0,1,.6.08,23.41,23.41,0,0,0,.9,3.48c.57-1,1.11-2,1.62-3a.33.33,0,0,1,.6.08,22.63,22.63,0,0,1,.83,5,11.86,11.86,0,0,0,1,4.1q1-2.74,2-5.49a.33.33,0,0,1,.63,0,8.75,8.75,0,0,0,1,1.81l1.44-2.59a.33.33,0,0,1,.6.08,24.11,24.11,0,0,0,.92,3.43L23.6,48.7a.33.33,0,0,1,.6.08,26,26,0,0,0,2.32,5.64,26,26,0,0,0,2.32-5.64.33.33,0,0,1,.6-.08l1.23,2.54a24.11,24.11,0,0,0,.92-3.43.33.33,0,0,1,.6-.08l1.44,2.59a8.75,8.75,0,0,0,1-1.81.33.33,0,0,1,.63,0q1,2.75,2,5.49a11.86,11.86,0,0,0,1-4.1,22.63,22.63,0,0,1,.83-5,.33.33,0,0,1,.6-.08c.51,1,1.05,2,1.62,3a23.41,23.41,0,0,0,.9-3.48.33.33,0,0,1,.6-.08,18.71,18.71,0,0,1,1.76,6.25,47.92,47.92,0,0,0,3.71-7.79c.1-.26.58-.35.64,0a12.48,12.48,0,0,0,1.59,4.55c.15-3.28,1.91-6.32,1.91-9.64a27.19,27.19,0,0,0-.5-4.49c-.17-1-.38-2-.62-3A49,49,0,0,0,49,23.33a37.25,37.25,0,0,0-4.54-8.19l0,0a.61.61,0,0,1-.07-.1,29.08,29.08,0,0,0-1.88-2.25A9,9,0,0,1,41,11.3L40.7,11c-.25-.21-.5-.43-.76-.63a.41.41,0,0,1-.1-.14c-.13-.12-.26-.24-.4-.35-.85-.75-1.75-1.47-2.63-2.18-.05,0,0-.11.07-.08a14.1,14.1,0,0,1,3,1.85q.51.39,1,.81l.31.27a25.19,25.19,0,0,1,2.14,2.12,8.18,8.18,0,0,1-.4-2.13.34.34,0,0,1,.5-.29c.93.66,1.8,1.4,2.67,2.13a13.77,13.77,0,0,0,4.93,3,5.7,5.7,0,0,0,4.24-.29c-.42-.07-.84-.15-1.25-.26a14,14,0,0,1-7.23-4.74,13.41,13.41,0,0,1-2.15-3.81A21.78,21.78,0,0,1,44,3.89a5.62,5.62,0,0,0-1-2.31,2.31,2.31,0,0,0-2-.92,8,8,0,0,0-2.54.88,27.9,27.9,0,0,0-4.35,2.78c-.72.52-1.43,1-2.15,1.55A4.83,4.83,0,0,1,29.64,7c-1.56.11-2.61-1.35-3.9-2a6,6,0,0,0-4.86.37,31.48,31.48,0,0,0-4.66,2.72,34.85,34.85,0,0,0-4.14,3.13,26.63,26.63,0,0,0-3,3.25A36,36,0,0,0,4.56,22,46.91,46.91,0,0,0,1.9,29.64c-.28,1.09-.53,2.19-.73,3.3a25.84,25.84,0,0,0-.52,4.88C.7,41.06,2.4,44,2.56,47.24A12.69,12.69,0,0,0,4.16,42.69Zm34,2.43c-.79.6-2.26.26-3.12,0a5.6,5.6,0,0,1-2.66-1.91.1.1,0,0,1,.14-.14,7.43,7.43,0,0,0,2.78,1.49,6.13,6.13,0,0,0,1.59.25,4,4,0,0,1,1.24.1A.14.14,0,0,1,38.18,45.12Zm7.18-3c-.41.33-.84.65-1.28,1a4,4,0,0,1-1.4.74.13.13,0,0,1-.12-.22,6.5,6.5,0,0,1,1.24-.82c.46-.29.91-.6,1.35-.92C45.31,41.69,45.51,42,45.36,42.08Zm.24-11.91A11.37,11.37,0,0,1,47.25,35a11.17,11.17,0,0,1,0,2.71,3.71,3.71,0,0,1-.69,2.1c-.07.08-.2,0-.21-.09a10.31,10.31,0,0,1,.33-2.33,13.38,13.38,0,0,0-1.13-7.13S45.56,30.12,45.6,30.17Zm-8.36-4.75a5.05,5.05,0,0,1,3.63.95A13,13,0,0,1,44.2,30a9.47,9.47,0,0,1,1.43,4.46,7.75,7.75,0,0,1-.3,2.71,6.5,6.5,0,0,1-1.12,2.07,8.88,8.88,0,0,1-3.94,2.72,8.15,8.15,0,0,1-1.31.35,6.28,6.28,0,0,1-4.86-1,4.93,4.93,0,0,1-1.54-1.79,7.08,7.08,0,0,1-.66-2.43,17.39,17.39,0,0,1,.34-5.43A19.35,19.35,0,0,1,33,29a6,6,0,0,1,1-1.84A5.06,5.06,0,0,1,37.24,25.42Zm-4.7-.29A5.51,5.51,0,0,1,36.29,23a.18.18,0,0,1,.05.36,6.57,6.57,0,0,0-3.5,2.05,10.5,10.5,0,0,0-2.35,3.78c0,.07-.13.06-.12,0C30.44,27.7,31.58,26.22,32.54,25.13Zm-3,10.29c0-.06.13-.07.14,0a20.85,20.85,0,0,0,.51,2.73,5.88,5.88,0,0,1,.54,2.34c0,.08-.12.09-.17,0a4.55,4.55,0,0,1-1-2.46A5.18,5.18,0,0,1,29.54,35.42ZM10.36,43.77A4,4,0,0,1,9,43c-.44-.3-.86-.62-1.28-1-.15-.13.06-.39.21-.27.44.32.89.63,1.35.92a6.58,6.58,0,0,1,1.25.82A.13.13,0,0,1,10.36,43.77Zm10.29-.61A5.63,5.63,0,0,1,18,45.07c-.86.31-2.33.65-3.12,0a.14.14,0,0,1,0-.26,4.55,4.55,0,0,1,1.33-.1,6.28,6.28,0,0,0,1.49-.25A7.21,7.21,0,0,0,20.5,43,.1.1,0,0,1,20.65,43.16Zm2.71-7.74c0-.07.13-.06.15,0a5.4,5.4,0,0,1,0,2.65,4.62,4.62,0,0,1-1,2.46.1.1,0,0,1-.17,0,6.05,6.05,0,0,1,.54-2.34A20.85,20.85,0,0,0,23.36,35.42ZM16.75,23a5.51,5.51,0,0,1,3.75,2.11c1,1.1,2.1,2.57,2.17,4.07,0,.07-.1.08-.12,0a10.5,10.5,0,0,0-2.35-3.78,6.57,6.57,0,0,0-3.5-2.05A.18.18,0,0,1,16.75,23ZM9.49,29a14.19,14.19,0,0,1,1.69-1.86,7.94,7.94,0,0,1,1.8-1.3,5.06,5.06,0,0,1,6.59,2.05,10.33,10.33,0,0,1,.88,2.34A19.35,19.35,0,0,1,21,33a18.91,18.91,0,0,1,.19,2.82,10.73,10.73,0,0,1-.29,2.53,5.46,5.46,0,0,1-1.1,2.19A5.21,5.21,0,0,1,18,41.89a7.08,7.08,0,0,1-5.2,0,10.21,10.21,0,0,1-1.22-.53A8,8,0,0,1,8.2,38.28a7.69,7.69,0,0,1-.65-5.08A10.26,10.26,0,0,1,9.49,29ZM5.79,35a11.23,11.23,0,0,1,1.65-4.79c0-.05.12,0,.09,0a13.57,13.57,0,0,0-1.2,4.85,13.4,13.4,0,0,0,.07,2.28,10.31,10.31,0,0,1,.33,2.33.13.13,0,0,1-.21.09,3.9,3.9,0,0,1-.71-2.21A11.89,11.89,0,0,1,5.79,35Z"/><path class="a3c5fcc4-bb7b-4064-ae9d-46c70ff4f9e8" d="M26.52,50.21a2.89,2.89,0,0,0,.77-.86c.34-.57.54-1.22.86-1.8a5,5,0,0,1,1.58-1.73,13,13,0,0,1,.82,2c0-.11.81-1,.92-1.09.29-.36.67-1.25,1.1-.61s.82,1.36,1.22,2c.45-.45.86-.9,1.32-1.35,0,0,0,0,.09-.06s.11,0,.15.09A10,10,0,0,1,37,50c-.05-.12.18-.56.22-.69s.17-.52.25-.79c.16-.52.32-1,.47-1.57s.35-1.17.51-1.75c.12-.4.23-1,.6-1.23a.66.66,0,0,1,.88.06,2.89,2.89,0,0,1,.54.91l.46.78.77-1.54a1.05,1.05,0,0,1,.29-.39,1.14,1.14,0,0,1,.44-.14,3.74,3.74,0,0,0,1.67-.79,2.52,2.52,0,0,0,0,2c.26,1,.52,2,.77,2.94a46,46,0,0,0,2.81-5.56,1,1,0,0,1,.16-.28.8.8,0,0,1,.27-.18c.33-.18.67-.34,1-.5a.35.35,0,0,0,0,.35c.07.11.27.11.29,0,.32.93.19,2,.77,2.82a17.59,17.59,0,0,1,1.73-2.12,13.86,13.86,0,0,0-1.15,5.87,12.74,12.74,0,0,1-2.26-4.93c-.34.87-.67,1.62-1,2.5-.2.51-.41,1-.65,1.52a21.49,21.49,0,0,1-1.21,2.07l-1.16,1.81a1.79,1.79,0,0,1-.11-.95,10.84,10.84,0,0,0-1.41-4.74l-.27-.6c-.11.38-.22.7-.33,1.07a8.8,8.8,0,0,1-1,2.4c-.16,0-.25-.2-.32-.34a11.27,11.27,0,0,0-1.64-2.41C39,48.09,38.5,50.5,37.94,53a6.75,6.75,0,0,1-.29,1,3.6,3.6,0,0,1-.33.61s-.06.09-.11.1a.2.2,0,0,1-.14-.08,2.26,2.26,0,0,1-.38-.7c-.61-1.63-.88-3.41-1.85-4.87a.09.09,0,0,0-.07-.06c-.06,0-.11,0-.14.09-.34.54-.66,1.09-1,1.65-.79-.56-.92-1.57-1.5-2.34,0,0-.09-.1-.15-.09a.16.16,0,0,0-.12.08A5.93,5.93,0,0,0,31,50.44c-.15.53-.3,1.07-.43,1.61a7.86,7.86,0,0,0-1.49-2.72,6.11,6.11,0,0,1-.34,1.2c-.17.35-.41.67-.59,1s-.3.75-.46,1.13a9.91,9.91,0,0,1-1.2,2,9.91,9.91,0,0,1-1.2-2c-.16-.38-.27-.77-.46-1.13s-.42-.67-.58-1a5,5,0,0,1-.34-1.2,7.73,7.73,0,0,0-1.5,2.72c-.13-.54-.27-1.08-.42-1.61a6,6,0,0,0-.9-2.08.16.16,0,0,0-.12-.08c-.06,0-.11,0-.15.09-.58.77-.71,1.78-1.5,2.34-.29-.56-.61-1.11-.94-1.65,0-.05-.09-.11-.15-.09s-.05,0-.07.06c-1,1.46-1.24,3.24-1.85,4.87a2.07,2.07,0,0,1-.38.7.18.18,0,0,1-.14.08c-.05,0-.08-.06-.11-.1a3.6,3.6,0,0,1-.33-.61,6.75,6.75,0,0,1-.29-1c-.56-2.47-1.08-4.88-1.43-7.39A10.87,10.87,0,0,0,12,48c-.08.14-.17.31-.33.34a8.8,8.8,0,0,1-1-2.4c-.11-.37-.22-.69-.33-1.07l-.27.6A10.84,10.84,0,0,0,8.72,50.2a1.89,1.89,0,0,1-.1.95L7.45,49.34a21.49,21.49,0,0,1-1.21-2.07c-.24-.5-.44-1-.65-1.52-.34-.88-.66-1.63-1-2.5a12.72,12.72,0,0,1-2.25,4.93,13.9,13.9,0,0,0-1.16-5.87A17.59,17.59,0,0,1,2.9,44.43c.58-.8.46-1.89.77-2.82,0,.12.23.12.29,0a.37.37,0,0,0,0-.35c.34.16.68.32,1,.5A.71.71,0,0,1,5.2,42a.85.85,0,0,1,.16.28,46,46,0,0,0,2.81,5.56c.26-1,.51-2,.77-2.94a2.47,2.47,0,0,0,0-2,3.74,3.74,0,0,0,1.67.79,1.14,1.14,0,0,1,.44.14,1,1,0,0,1,.29.39l.77,1.54s.43-.71.46-.78a2.92,2.92,0,0,1,.55-.91A.65.65,0,0,1,14,44c.37.25.48.83.6,1.23L15.12,47c.16.52.31,1.05.48,1.57l.24.79c0,.13.27.57.22.69a10,10,0,0,1,1.61-3.18c0-.05.09-.1.15-.09a.2.2,0,0,1,.09.06c.46.45.87.9,1.33,1.35.39-.69.76-1.39,1.21-2s.81.25,1.1.61c.11.13,1,1,.93,1.09a12.07,12.07,0,0,1,.81-2,5,5,0,0,1,1.58,1.73c.32.58.52,1.23.87,1.8A2.79,2.79,0,0,0,26.52,50.21Z"/><path class="a3c5fcc4-bb7b-4064-ae9d-46c70ff4f9e8" d="M31.5,38.72a3.49,3.49,0,0,1-.65-1.34,6,6,0,0,0,1.65,4.26,3.39,3.39,0,0,1-1.6-1.28,10,10,0,0,1-1-1.84,12.11,12.11,0,0,0,2.72,4.72A5.94,5.94,0,0,0,37.8,45a3.19,3.19,0,0,1-1-1.4,12.48,12.48,0,0,0,8.12-2.81,3.1,3.1,0,0,0-1,0,4.79,4.79,0,0,0,2.54-2.23c1.34-2.56.16-6.31-1.09-8.69A17.17,17.17,0,0,1,46,35.19c-.19-.77-.37-1.54-.56-2.31,0,.68.07,1.36.07,2a7.08,7.08,0,0,1-.4,2.6,5.46,5.46,0,0,1-2,2.37,14.7,14.7,0,0,1-2.78,1.45,5.72,5.72,0,0,1-3.87.65,5,5,0,0,1-1.25-.62,8,8,0,0,1-1.45-1.08,5.84,5.84,0,0,1-1.6-3.64,13.07,13.07,0,0,1,.36-4,9.06,9.06,0,0,1-.6,1.26,8.28,8.28,0,0,0-.43,1.55A8.52,8.52,0,0,0,31.5,38.72Z"/><path class="a3c5fcc4-bb7b-4064-ae9d-46c70ff4f9e8" d="M21.54,38.72a3.47,3.47,0,0,0,.64-1.34,6,6,0,0,1-1.65,4.26,3.29,3.29,0,0,0,1.6-1.28,9.46,9.46,0,0,0,1-1.84,12.21,12.21,0,0,1-2.71,4.72A6,6,0,0,1,15.24,45a3.25,3.25,0,0,0,1-1.4,12.5,12.5,0,0,1-8.12-2.81,3.09,3.09,0,0,1,1,0,4.73,4.73,0,0,1-2.53-2.23C5.21,36,6.39,32.28,7.64,29.9a16.87,16.87,0,0,0-.58,5.29c.18-.77.37-1.54.55-2.31-.05.68-.07,1.36-.06,2a6.88,6.88,0,0,0,.39,2.6,5.46,5.46,0,0,0,2,2.37,14.7,14.7,0,0,0,2.78,1.45,5.72,5.72,0,0,0,3.87.65,5,5,0,0,0,1.25-.62,8.11,8.11,0,0,0,1.46-1.08,5.88,5.88,0,0,0,1.59-3.64,13.06,13.06,0,0,0-.35-4,9,9,0,0,0,.59,1.26,9.15,9.15,0,0,1,.44,1.55A8.72,8.72,0,0,1,21.54,38.72Z"/><path class="a3c5fcc4-bb7b-4064-ae9d-46c70ff4f9e8" d="M30.45,25.64a12.78,12.78,0,0,1,1.76-3.27,4,4,0,0,1,0,1.2,8,8,0,0,1,12.44,0,9.45,9.45,0,0,0-1.67-.4,17.11,17.11,0,0,0-5.33-.39A8.61,8.61,0,0,0,30.31,30,12.13,12.13,0,0,0,30.09,28,7.09,7.09,0,0,1,30.45,25.64Z"/><path class="a3c5fcc4-bb7b-4064-ae9d-46c70ff4f9e8" d="M22.58,25.64a12.78,12.78,0,0,0-1.76-3.27,4,4,0,0,0,0,1.2,8,8,0,0,0-12.44,0,9.66,9.66,0,0,1,1.67-.4,17.13,17.13,0,0,1,5.33-.39A8.61,8.61,0,0,1,22.72,30,12.13,12.13,0,0,1,22.94,28,7.09,7.09,0,0,0,22.58,25.64Z"/><path class="a3c5fcc4-bb7b-4064-ae9d-46c70ff4f9e8" d="M43.82,13.35a5.68,5.68,0,0,1-.4-2.82,12,12,0,0,1,2,1.64,24.11,24.11,0,0,0,3.3,2.48,9.76,9.76,0,0,0,1.35.73,7.44,7.44,0,0,0,4.71.27A1.62,1.62,0,0,0,55.9,15c-.58-.35-1.31,0-2,.1a4.7,4.7,0,0,1-2.13-.24,12.05,12.05,0,0,1-3.5-1.78,5.71,5.71,0,0,1-1.47-1.51.94.94,0,0,1,.55,0,10.36,10.36,0,0,1-4.1-5,4.66,4.66,0,0,0-.45,1.73L41.06,7a.75.75,0,0,0-.64-.23,6.37,6.37,0,0,1,.84,1.86,7.32,7.32,0,0,0-4.37-1.09.9.9,0,0,0-.23.08,4.71,4.71,0,0,1,1.2.79c.28.21.58.39.87.59a17,17,0,0,1,1.76,1.64l.94.86,1,.89c.39.35.69.7,1,1.08l.61.66A6.52,6.52,0,0,0,43.82,13.35Z"/><path class="b98d4ed4-e72b-4a97-86e3-3706171d74fa" d="M41.22,0a3.2,3.2,0,0,0-.61.05A9.73,9.73,0,0,0,38.08,1a19.66,19.66,0,0,0-2.27,1.31c-1.46,1-2.83,2.06-4.27,3.05a3.42,3.42,0,0,1-2.28,1,4.42,4.42,0,0,1-1.89-1,6.2,6.2,0,0,0-2.08-1.13,5.76,5.76,0,0,0-2.48-.06A14.36,14.36,0,0,0,18,6.18a36.27,36.27,0,0,0-8,6.22,32.85,32.85,0,0,0-5.05,7.4,46.71,46.71,0,0,0-3.12,7.82A48.19,48.19,0,0,0,.24,34.75a21.68,21.68,0,0,0-.24,3,13.15,13.15,0,0,0,.34,2.72c.4,1.78,1,3.5,1.39,5.29a9.82,9.82,0,0,1,.16,2.59c0,.36.44.41.62.17A12.83,12.83,0,0,0,4.58,44a49.34,49.34,0,0,0,3.88,7.72.34.34,0,0,0,.62-.16,18.26,18.26,0,0,1,1.34-6.06,25.29,25.29,0,0,0,1,3.18.33.33,0,0,0,.6.08c.56-.94,1.09-1.89,1.6-2.86.75,3,.29,6.38,2.07,9.07a.33.33,0,0,0,.6-.08l1.91-5.37a10.45,10.45,0,0,0,1.06,1.67.33.33,0,0,0,.52-.07c.42-.75.84-1.51,1.25-2.27a24.42,24.42,0,0,0,1,3.35c.09.24.46.36.6.08l1.2-2.48a26.68,26.68,0,0,0,2.43,5.49.34.34,0,0,0,.57,0,26.68,26.68,0,0,0,2.43-5.49l1.2,2.48c.13.28.51.16.6-.08a23.06,23.06,0,0,0,1-3.35l1.26,2.27a.34.34,0,0,0,.52.07,9.74,9.74,0,0,0,1.05-1.67c.65,1.79,1.28,3.58,1.92,5.37a.33.33,0,0,0,.6.08c1.78-2.69,1.32-6,2.07-9.07.51,1,1,1.92,1.6,2.86a.33.33,0,0,0,.6-.08,25.29,25.29,0,0,0,1-3.18A18.26,18.26,0,0,1,44,51.53a.33.33,0,0,0,.61.16A48.53,48.53,0,0,0,48.47,44a12.83,12.83,0,0,0,2.07,4.56c.17.24.64.19.61-.17C50.91,45,52.66,42,53,38.76a20.33,20.33,0,0,0-.35-5.16c-.15-1-.34-1.93-.56-2.88A48.82,48.82,0,0,0,50,23.93a41.63,41.63,0,0,0-3.58-7.16c-.45-.7-.92-1.39-1.41-2a7.75,7.75,0,0,1-1-2,9.8,9.8,0,0,1-.39-1.53c3,2.27,5.84,5.52,9.93,5.07a5.08,5.08,0,0,0,2.8-1.17c.23-.2,0-.53-.24-.56a12.92,12.92,0,0,1-7.85-3.76,13,13,0,0,1-2.56-3.58A11.84,11.84,0,0,1,45,5.13a22,22,0,0,0-.71-2.65A4.43,4.43,0,0,0,42.89.58,2.8,2.8,0,0,0,41.22,0ZM41,.66a2.34,2.34,0,0,1,2,.92,5.68,5.68,0,0,1,1,2.31,24.24,24.24,0,0,0,.65,2.4,13.44,13.44,0,0,0,2.16,3.81A13.93,13.93,0,0,0,54,14.84c.41.1.82.19,1.24.25a5.7,5.7,0,0,1-4.24.3,13.73,13.73,0,0,1-4.92-3c-.88-.73-1.75-1.47-2.68-2.13a.34.34,0,0,0-.5.28,8.18,8.18,0,0,0,.4,2.14,25.19,25.19,0,0,0-2.14-2.12l-.31-.27q-.48-.42-1-.81a14.26,14.26,0,0,0-3-1.85c-.05,0-.12,0-.06.08.87.71,1.77,1.43,2.63,2.18l.39.35a.33.33,0,0,0,.1.14l.76.63.33.32a9,9,0,0,0,1.5,1.46c.66.72,1.29,1.47,1.88,2.25l.07.1,0,0a37.67,37.67,0,0,1,4.54,8.19,47.64,47.64,0,0,1,2.22,6.82c.24,1,.45,2,.62,3a26.15,26.15,0,0,1,.5,4.49c0,3.32-1.75,6.36-1.91,9.64a12.42,12.42,0,0,1-1.59-4.55c-.06-.35-.54-.26-.64,0a47.92,47.92,0,0,1-3.71,7.79,18.93,18.93,0,0,0-1.75-6.25.33.33,0,0,0-.6.08,24.74,24.74,0,0,1-.91,3.48c-.56-1-1.1-2-1.62-3a.33.33,0,0,0-.6.08,23.23,23.23,0,0,0-.83,5,11.8,11.8,0,0,1-1,4.1c-.65-1.83-1.31-3.66-2-5.48a.33.33,0,0,0-.63,0,8.89,8.89,0,0,1-1,1.8c-.48-.86-1-1.72-1.45-2.59a.33.33,0,0,0-.6.08,24.08,24.08,0,0,1-.91,3.43L29.44,48.7a.33.33,0,0,0-.6.08,25.67,25.67,0,0,1-2.32,5.64,26.17,26.17,0,0,1-2.32-5.64.33.33,0,0,0-.6-.08l-1.23,2.54a24.11,24.11,0,0,1-.92-3.43.33.33,0,0,0-.6-.08l-1.44,2.59a8.42,8.42,0,0,1-1-1.8.33.33,0,0,0-.64,0q-1,2.73-2,5.48a11.79,11.79,0,0,1-1-4.1,23.87,23.87,0,0,0-.83-5,.33.33,0,0,0-.6-.08c-.52,1-1.06,2-1.62,3a23.44,23.44,0,0,1-.91-3.48.33.33,0,0,0-.6-.08A19,19,0,0,0,8.5,50.48a47.53,47.53,0,0,1-3.71-7.79c-.1-.26-.58-.35-.63,0a12.43,12.43,0,0,1-1.6,4.55C2.41,44,.71,41.05.66,37.81A24.92,24.92,0,0,1,1.18,33c.2-1.12.44-2.22.72-3.32A48.15,48.15,0,0,1,4.57,22a36,36,0,0,1,4.49-7.55,26.63,26.63,0,0,1,3-3.25,35.2,35.2,0,0,1,4.14-3.14,32.77,32.77,0,0,1,4.65-2.71A6,6,0,0,1,25.74,5c1.29.61,2.34,2.07,3.9,2a4.75,4.75,0,0,0,2.27-1.08c.73-.5,1.44-1,2.15-1.55a28.38,28.38,0,0,1,4.35-2.78A7.89,7.89,0,0,1,41,.66ZM16.75,23a.18.18,0,0,0-.05.36,6.6,6.6,0,0,1,3.51,2.05,10.43,10.43,0,0,1,2.34,3.79c0,.06.13.05.12,0-.07-1.5-1.21-3-2.16-4.07A5.51,5.51,0,0,0,16.75,23Zm19.54,0a5.49,5.49,0,0,0-3.75,2.11c-1,1.1-2.1,2.57-2.17,4.07,0,.07.11.08.13,0a10.3,10.3,0,0,1,2.34-3.79,6.57,6.57,0,0,1,3.5-2.05A.18.18,0,0,0,36.29,23Zm1.91,2.37a5.14,5.14,0,0,0-1,0A5.09,5.09,0,0,0,34,27.14,6.05,6.05,0,0,0,33,29a19.22,19.22,0,0,0-.77,2.69,17.46,17.46,0,0,0-.35,5.44,7.34,7.34,0,0,0,.67,2.42,4.83,4.83,0,0,0,1.54,1.79,6.28,6.28,0,0,0,4.86,1,8.43,8.43,0,0,0,1.31-.35,8.88,8.88,0,0,0,3.94-2.72,6.47,6.47,0,0,0,1.11-2.07,7.49,7.49,0,0,0,.31-2.7A9.37,9.37,0,0,0,44.19,30a12.85,12.85,0,0,0-3.32-3.61A5.17,5.17,0,0,0,38.2,25.39Zm-23.41,0a5.23,5.23,0,0,0-1.81.48,7.68,7.68,0,0,0-1.8,1.31A13.5,13.5,0,0,0,9.49,29,10.17,10.17,0,0,0,7.56,33.2a7.61,7.61,0,0,0,.64,5.08,8,8,0,0,0,3.35,3.13,11,11,0,0,0,1.22.53,7,7,0,0,0,5.2,0,5.21,5.21,0,0,0,1.86-1.36,5.34,5.34,0,0,0,1.1-2.19,10.23,10.23,0,0,0,.29-2.53A19,19,0,0,0,21,33a18.9,18.9,0,0,0-.57-2.71,10.94,10.94,0,0,0-.89-2.35,5,5,0,0,0-4.78-2.53Zm.06.65a5.06,5.06,0,0,1,.87,0,4.43,4.43,0,0,1,2.83,1.54,5.08,5.08,0,0,1,.89,1.67,18.82,18.82,0,0,1,.72,2.54,17,17,0,0,1,.35,5.07,5.17,5.17,0,0,1-1.9,3.88,5.69,5.69,0,0,1-4.41.88A8.52,8.52,0,0,1,13,41.31,8.27,8.27,0,0,1,9.33,38.8a6.29,6.29,0,0,1-1.26-4.41A10.52,10.52,0,0,1,12.47,27,4.6,4.6,0,0,1,14.85,26.05Zm23.33,0a4.38,4.38,0,0,1,1.62.43,7.3,7.3,0,0,1,1.68,1.24A13.38,13.38,0,0,1,43,29.44a9.83,9.83,0,0,1,1.8,3.84A6.91,6.91,0,0,1,44.27,38a7.33,7.33,0,0,1-3.07,2.87,8.36,8.36,0,0,1-1.1.49,6.37,6.37,0,0,1-4.74,0A4.79,4.79,0,0,1,33.65,40a4.93,4.93,0,0,1-.94-2,10.35,10.35,0,0,1-.23-2.35A19.12,19.12,0,0,1,32.66,33a20.1,20.1,0,0,1,.55-2.56A10.8,10.8,0,0,1,34,28.3,4.44,4.44,0,0,1,38.18,26.05ZM7.51,30.16s0,0-.06,0A11.25,11.25,0,0,0,5.79,35a12,12,0,0,0,0,2.61,4,4,0,0,0,.71,2.21.13.13,0,0,0,.21-.09,10.89,10.89,0,0,0-.32-2.33,12.46,12.46,0,0,1-.08-2.28,13.57,13.57,0,0,1,1.2-4.85S7.53,30.17,7.51,30.16Zm38,0a0,0,0,0,0,0,.06,13.16,13.16,0,0,1,1.2,4.85,13.4,13.4,0,0,1-.07,2.28,10.31,10.31,0,0,0-.33,2.33c0,.1.14.17.21.09a3.74,3.74,0,0,0,.69-2.1,11.28,11.28,0,0,0-1.61-7.5A0,0,0,0,0,45.53,30.16Zm-22.1,5.21a.06.06,0,0,0-.07.05,20.82,20.82,0,0,1-.5,2.73,5.89,5.89,0,0,0-.55,2.34.1.1,0,0,0,.17,0,4.59,4.59,0,0,0,1-2.46,5.25,5.25,0,0,0,0-2.64A.07.07,0,0,0,23.43,35.37Zm6.18,0a.08.08,0,0,0-.07.05,5.18,5.18,0,0,0,0,2.65,4.55,4.55,0,0,0,1,2.46c.05,0,.16,0,.17,0a5.84,5.84,0,0,0-.54-2.34,20.85,20.85,0,0,1-.51-2.73S29.65,35.37,29.61,35.37ZM7.77,41.78c-.11,0-.2.21-.09.3.42.33.84.65,1.28,1a4,4,0,0,0,1.4.74.13.13,0,0,0,.13-.22,6.28,6.28,0,0,0-1.25-.82c-.46-.29-.91-.6-1.35-.92A.14.14,0,0,0,7.77,41.78Zm37.5,0a.14.14,0,0,0-.12,0c-.44.32-.88.63-1.35.92a6.5,6.5,0,0,0-1.24.82.13.13,0,0,0,.12.22,4,4,0,0,0,1.4-.74c.44-.3.87-.62,1.28-1C45.47,42,45.39,41.81,45.27,41.78ZM20.58,43a.06.06,0,0,0-.07,0,7.33,7.33,0,0,1-2.79,1.49,6.19,6.19,0,0,1-1.49.25,4.23,4.23,0,0,0-1.33.1.15.15,0,0,0,0,.26c.79.6,2.26.25,3.12,0a5.68,5.68,0,0,0,2.67-1.91A.11.11,0,0,0,20.58,43Zm11.89,0a.1.1,0,0,0-.07.17,5.62,5.62,0,0,0,2.66,1.91c.86.3,2.33.65,3.12,0a.14.14,0,0,0,0-.26,4,4,0,0,0-1.24-.1,6.13,6.13,0,0,1-1.59-.25A7.21,7.21,0,0,1,32.54,43S32.49,43,32.47,43Z"/></g></g></g></svg>