<svg xmlns="http://www.w3.org/2000/svg" xmlns:xlink="http://www.w3.org/1999/xlink" viewBox="0 0 218.38 165.26"><defs><style>.f3384b0a-0378-4b91-b96d-b75ba3b3ed68{fill:none;}.b6d3aa9a-b9c4-40ad-92b0-0f75a20159d1{clip-path:url(#b91c12c9-fd90-4cb2-afa7-24a9b8c2fc8b);}.e176609d-302f-45bd-87c5-18efa623e87f{fill:#1c232f;}.ff20e000-06a3-413f-b61a-3afe6ef03fea{fill:#d24e34;}.f265efa3-3141-455e-907d-08c254215c0d{fill:#ed593f;}</style><clipPath id="b91c12c9-fd90-4cb2-afa7-24a9b8c2fc8b" transform="translate(0 -53.74)"><path class="f3384b0a-0378-4b91-b96d-b75ba3b3ed68" d="M153.73,59.46H116.5c-3.65-3.69-7.17-7.68-8.73-12.73-.07-.2-.12-.39-.18-.59a25.15,25.15,0,1,0-28-.25c-.53,3.39-1.1,6.79-3.62,9.41q-1.91,2.17-4,4.17H34.09A17.62,17.62,0,0,0,16.4,77V201.38a17.62,17.62,0,0,0,17.69,17.55H76.3v-.11a7.85,7.85,0,0,1-.9-1.24c-.09-.13-.17-.27-.25-.4a.9.9,0,0,0-.11-.27c0-.09-.12-.12-.11-.08l.15.25a25.15,25.15,0,1,1,46.32-13.5,24.4,24.4,0,0,1-4.25,13.91v.08c-.31.49-.64,1-1,1.43H153.8a17.6,17.6,0,0,0,17.6-17.62V77A17.6,17.6,0,0,0,153.73,59.46Z"/></clipPath></defs><g id="a6edd7f2-595e-4ca1-9059-f5afca5aeb52" data-name="Layer 2"><g id="fce5f1e8-3835-4fbd-ada6-33ed29522c5a" data-name="Layer 1"><g class="b6d3aa9a-b9c4-40ad-92b0-0f75a20159d1"><rect class="e176609d-302f-45bd-87c5-18efa623e87f" x="13.7" y="13.72" width="161.57" height="151.55"/><polygon class="ff20e000-06a3-413f-b61a-3afe6ef03fea" points="178.1 165.26 14.49 165.26 11.58 97.3 175.98 97.3 178.1 165.26"/><polygon class="e176609d-302f-45bd-87c5-18efa623e87f" points="12.58 165.26 218.38 165.26 176.6 153.75 9.66 153.75 12.58 165.26"/><path class="f265efa3-3141-455e-907d-08c254215c0d" d="M143.58,59.9l-.45,29.85-.1,6.11-.46,30.61-.09,6.11-.2,18.46H41.64l.19-18.46.1-6.11.46-30.61.1-6.11.44-29.85" transform="translate(0 -53.74)"/></g><path class="e176609d-302f-45bd-87c5-18efa623e87f" d="M0,76.63S9.45,63.38,33.78,56.78,96,60.65,96,60.65" transform="translate(0 -53.74)"/><path class="e176609d-302f-45bd-87c5-18efa623e87f" d="M189.91,75.35S180.36,62.18,156,55.77s-62.17,4.37-62.17,4.37" transform="translate(0 -53.74)"/></g></g></svg>