<svg xmlns="http://www.w3.org/2000/svg" xmlns:xlink="http://www.w3.org/1999/xlink" viewBox="0 0 235.68 258.63"><defs><style>.ac67b42d-f536-4a96-b712-5b0a2e416f01{fill:none;}.a8a5eb8b-73b5-4fe2-933c-f0928f6accb8{fill:#b1c3e5;}.b739ada2-1557-4748-b9d0-5d72b5901ad7{clip-path:url(#a771b70d-bbfb-46d4-b187-7f772d5d35ce);}.bfbdc252-9a5b-43de-b059-bc365475a8de{fill:#b8e5f8;}.a6cb0d95-4f7c-4065-9a93-04c7498b3889{fill:#93b2dd;}.a7f79d67-27fd-402c-9719-a40e878b9556{fill:#b7c4e5;}.bc521992-c22d-4de3-985e-e65bd511c783{fill:#091417;}.a1b31a60-1af0-4f52-9065-0603d7dc25d7{fill:#0b0e17;}.fe61f1ca-ac1c-4182-a955-10ce23a02c2a{fill:#0a0f18;}.eec9ab2b-eb9e-4a4d-ab37-275cb141e8f2{fill:#21130e;}.a215f79d-5862-4564-8256-3114e2b91b8a{fill:#ffd9a2;}.a44c192f-1616-46bb-9b2f-df62e06df28d{fill:#0e66b2;}.a44c192f-1616-46bb-9b2f-df62e06df28d,.a579ca69-77c5-442a-97a3-51e439adecae,.f41108a2-3acb-4460-8763-f39efd64a041{stroke:#000;stroke-miterlimit:10;}.f41108a2-3acb-4460-8763-f39efd64a041{fill:#f4fafa;}.ba805ca1-1783-45b2-94bc-da8eb899e73f{fill:#fab766;}.a579ca69-77c5-442a-97a3-51e439adecae{fill:#fff;}</style><clipPath id="a771b70d-bbfb-46d4-b187-7f772d5d35ce"><path class="ac67b42d-f536-4a96-b712-5b0a2e416f01" d="M178.13,116.28H140.9c-3.65-3.69-7.17-7.68-8.73-12.73-.07-.19-.12-.39-.18-.58a25.15,25.15,0,1,0-28-.26c-.53,3.39-1.1,6.8-3.62,9.41-1.27,1.45-2.61,2.84-4,4.17H58.49A17.62,17.62,0,0,0,40.8,133.83V258.2a17.62,17.62,0,0,0,17.69,17.55H100.7a.2.2,0,0,0,0-.11,7.85,7.85,0,0,1-.9-1.24c-.08-.13-.17-.26-.25-.4a1,1,0,0,0-.11-.27c0-.09-.12-.12-.11-.08l.16.25a25.14,25.14,0,1,1,46.31-13.5,24.3,24.3,0,0,1-4.25,13.91.11.11,0,0,1,0,.08,14.09,14.09,0,0,1-1,1.43H178.2a17.6,17.6,0,0,0,17.6-17.62V133.83A17.61,17.61,0,0,0,178.13,116.28Z"/></clipPath></defs><g id="e2dbd4f9-0029-478d-8e5c-bdfdc57a8307" data-name="Layer 2"><g id="a4147665-8ca5-4813-bf1c-373f1d53526d" data-name="Layer 1"><ellipse class="a8a5eb8b-73b5-4fe2-933c-f0928f6accb8" cx="171.24" cy="179" rx="20.42" ry="69.53" transform="translate(-64.88 253.91) rotate(-63.87)"/><ellipse class="a8a5eb8b-73b5-4fe2-933c-f0928f6accb8" cx="163.38" cy="138.58" rx="84.73" ry="24.89" transform="translate(-50.14 156.12) rotate(-45)"/><ellipse class="a8a5eb8b-73b5-4fe2-933c-f0928f6accb8" cx="62.46" cy="138.58" rx="24.89" ry="84.73" transform="translate(-79.7 84.76) rotate(-45)"/><ellipse class="a8a5eb8b-73b5-4fe2-933c-f0928f6accb8" cx="59.72" cy="166.32" rx="69.53" ry="20.42" transform="translate(-87.81 69.04) rotate(-36.85)"/><g class="b739ada2-1557-4748-b9d0-5d72b5901ad7"><path class="bfbdc252-9a5b-43de-b059-bc365475a8de" d="M40.8,114.61v81h155v-81"/><rect class="a6cb0d95-4f7c-4065-9a93-04c7498b3889" x="40.8" y="202.09" width="155" height="16.6"/><rect class="a7f79d67-27fd-402c-9719-a40e878b9556" x="40.8" y="192.04" width="155" height="11.14"/><path class="bc521992-c22d-4de3-985e-e65bd511c783" d="M115.54,150.94a4.39,4.39,0,1,1-4.39-4.39A4.39,4.39,0,0,1,115.54,150.94Z"/><circle class="a1b31a60-1af0-4f52-9065-0603d7dc25d7" cx="111.15" cy="171.08" r="4.39" transform="translate(-75.52 253.38) rotate(-80.78)"/><circle class="fe61f1ca-ac1c-4182-a955-10ce23a02c2a" cx="111.15" cy="191.21" r="4.39"/></g><rect class="eec9ab2b-eb9e-4a4d-ab37-275cb141e8f2" x="206.41" y="147.08" width="2.11" height="55.14" transform="translate(230.67 444.85) rotate(-135)"/><polygon class="a215f79d-5862-4564-8256-3114e2b91b8a" points="222.51 159.61 224.59 166.32 228.65 160.58 235.68 160.67 231.48 155.04 233.73 148.38 227.08 150.64 221.44 146.44 221.53 153.47 215.79 157.52 222.51 159.61"/><path class="a44c192f-1616-46bb-9b2f-df62e06df28d" d="M195.8,218.69c16.21,7.84,35.95,15.65,35.95,15.65s-28.07,10.1-78.61,21c-55.5,12-142.32-18.39-142.32-18.39l30-18.25"/><path class="f41108a2-3acb-4460-8763-f39efd64a041" d="M231.62,234.09s-28,10.1-78.52,21C97.66,267.06,11,236.69,11,236.69l13.92-10.75c26.75,7.95,86.39,23,128.23,14,25.59-5.53,45.41-10.85,58.73-14.75C223.55,230.68,231.62,234.09,231.62,234.09Z"/><polygon class="ba805ca1-1783-45b2-94bc-da8eb899e73f" points="134.11 54.86 102.5 54.86 117.25 0 134.11 54.86"/><circle class="a579ca69-77c5-442a-97a3-51e439adecae" cx="46.23" cy="131.73" r="18.34" transform="translate(-36.19 19.05) rotate(-16.85)"/><path class="a579ca69-77c5-442a-97a3-51e439adecae" d="M118.28,123.17a8.56,8.56,0,1,1-8.56-8.56A8.56,8.56,0,0,1,118.28,123.17Z"/><circle class="a579ca69-77c5-442a-97a3-51e439adecae" cx="126.86" cy="123.17" r="8.56"/><circle class="a579ca69-77c5-442a-97a3-51e439adecae" cx="191.15" cy="134.95" r="18.34" transform="translate(-39.44 174.69) rotate(-45)"/></g></g></svg>