<svg xmlns="http://www.w3.org/2000/svg" viewBox="0 0 613.49 745.36"><defs><style>.bdef4572-0325-4e49-a84f-c6e13a3c987d{fill:#fff;}.bea76469-4520-4d90-a5fd-4a4c1c218a86{fill:#f1bed4;}.bba9f2dc-bcfb-4b32-a320-1b2f60cea8a1{fill:#010101;}.acd5a6c0-4f85-4065-85b3-5145f8f48703{fill:#231f20;}.a6fa696f-0571-432b-ade2-4b2efe6d73c2{fill:#f5a0c5;}.b67f66ae-4b55-4cd4-8b7c-29df61e0e24c{fill:#fff200;}.f433361c-a4d1-424c-a72d-059c5e0e4aee{fill:#ed1c24;}.b72e8e7d-146a-4637-9ae7-6d016a2f1bc1{fill:#00aeef;}</style></defs><g id="a4c82fe5-309c-4acf-8b54-b96119c24c02" data-name="Layer 2"><g id="a0e49fbc-df94-4d65-ae66-a93c9af8489a" data-name="Layer 1"><path class="bdef4572-0325-4e49-a84f-c6e13a3c987d" d="M596.79,143.14c10.28,105.19-81.27,76.69-128.13,69.15s-96.54-14.76-89-61.61S458.45-3.88,505.31,3.67s86.87,92.24,91.48,139.47Z"/><path class="bea76469-4520-4d90-a5fd-4a4c1c218a86" d="M555.2,163.75C549.85,197,489,208.86,455.66,203.5a61.05,61.05,0,0,1-50.57-70c5.36-33.29,54.45-105.54,87.71-100,47.1,7.88,67.77,96.9,62.4,130.19Z"/><path class="bdef4572-0325-4e49-a84f-c6e13a3c987d" d="M16.39,138.19c-12.07,105,80,78.07,126.93,71.32s96.78-13.11,90-60.08S157.22-6.44,110.24.3,21.81,91.05,16.39,138.19Z"/><path class="bea76469-4520-4d90-a5fd-4a4c1c218a86" d="M57.62,159.51c4.79,33.37,65.47,46.23,98.85,41.44a61.05,61.05,0,0,0,51.76-69.1c-4.79-33.38-52.65-106.45-86-101.45C75,37.47,52.83,126.13,57.62,159.51Z"/><path class="bdef4572-0325-4e49-a84f-c6e13a3c987d" d="M613.49,143.28l-4.73,554.24a48.34,48.34,0,0,1-48.65,47.84L47.84,741A48.27,48.27,0,0,1,0,692.33L4.73,138.09l608.76,5.19"/><path class="bdef4572-0325-4e49-a84f-c6e13a3c987d" d="M488,412.09a44.82,44.82,0,1,1-44.43-45.2A44.81,44.81,0,0,1,488,412.09Z"/><path class="bba9f2dc-bcfb-4b32-a320-1b2f60cea8a1" d="M479.38,412a36.16,36.16,0,1,1-35.85-36.46A36.16,36.16,0,0,1,479.38,412Z"/><path class="bdef4572-0325-4e49-a84f-c6e13a3c987d" d="M437,411.82a12.79,12.79,0,1,1-12.69-12.95A12.8,12.8,0,0,1,437,411.82Z"/><path class="bdef4572-0325-4e49-a84f-c6e13a3c987d" d="M122.34,409a44.82,44.82,0,1,0,45.2-44.44A44.82,44.82,0,0,0,122.34,409Z"/><path class="bba9f2dc-bcfb-4b32-a320-1b2f60cea8a1" d="M131,409.05a36.15,36.15,0,1,0,36.46-35.84A36.16,36.16,0,0,0,131,409.05Z"/><path class="bdef4572-0325-4e49-a84f-c6e13a3c987d" d="M169.51,409.25a12.84,12.84,0,1,0,13-12.73,12.83,12.83,0,0,0-13,12.73Z"/><path class="bdef4572-0325-4e49-a84f-c6e13a3c987d" d="M448.12,573.61c-.49,57.16-62,79.72-135.38,79.1S181.87,628.5,182.35,571.35s60.38-103,133.77-102.36,132.48,47.47,132,104.62"/><path class="acd5a6c0-4f85-4065-85b3-5145f8f48703" d="M317.28,529.22a98.11,98.11,0,0,0-.25,23.16c2,17.61,9.3,31,19.26,39.62a45.4,45.4,0,0,0,35.07,11c14.87-1.7,29.54-10.85,39.45-27.8a1.69,1.69,0,1,0-2.92-1.71C398.42,589.63,384.72,598,371,599.62a42,42,0,0,1-32.46-10.19c-9.25-8-16.16-20.55-18.11-37.43a94.67,94.67,0,0,1,.25-22.37,1.7,1.7,0,0,0-3.37-.41Z"/><path class="acd5a6c0-4f85-4065-85b3-5145f8f48703" d="M312.27,529.56c2.32,22-2.38,38.42-10.72,49.76a47.32,47.32,0,0,1-33,19.11,50.88,50.88,0,0,1-46.13-19.66,1.69,1.69,0,1,0-2.69,2.06,54.29,54.29,0,0,0,49.2,21,50.73,50.73,0,0,0,35.39-20.47c8.92-12.13,13.76-29.53,11.37-52.12a1.7,1.7,0,0,0-3.38.35Z"/><path class="acd5a6c0-4f85-4065-85b3-5145f8f48703" d="M361.38,509.82c-.12,14-28,37.85-45.79,37.7S268.16,523.05,268.28,509s21.06-25.21,46.76-25,46.45,11.76,46.34,25.78"/><path class="a6fa696f-0571-432b-ade2-4b2efe6d73c2" d="M309.32,513.11a31.1,31.1,0,0,1-3.91.2c-9.33-.08-16.87-4.1-16.83-9,0-4.18,5.62-7.64,13.08-8.5a32.94,32.94,0,0,1,3.9-.2c9.34.08,16.88,4.1,16.84,9,0,4.18-5.62,7.64-13.08,8.5"/><path class="b67f66ae-4b55-4cd4-8b7c-29df61e0e24c" d="M346.09,222,344.8,373.21a29,29,0,1,1-58-.5l1.29-151.21,58,.5Z"/><path class="f433361c-a4d1-424c-a72d-059c5e0e4aee" d="M345.76,211.58l-1,119.26a29,29,0,0,1-58-.49l1-119.26,58,.49Z"/><path class="b72e8e7d-146a-4637-9ae7-6d016a2f1bc1" d="M346,143.85l-1,119.26a29,29,0,1,1-58-.5l1-119.26,58,.5Z"/></g></g></svg>