<svg xmlns="http://www.w3.org/2000/svg" xmlns:xlink="http://www.w3.org/1999/xlink" viewBox="0 0 612.8 744.78"><defs><style>.aae92497-f008-4330-9395-14f1eab552da{fill:none;}.f92eab22-c18e-4255-9d1f-03a5f9be6cf4{fill:#231f20;}.b4bd913d-e57a-4d12-95ce-cb285b6f23cb{fill:#010101;}.b1d1a9cf-60bb-492f-9711-45b904cfcb9d{fill:#dbe4eb;}.f30a7efa-b99a-4dd1-be8c-93e7b13937aa{fill:url(#ac1f6c49-179c-4e30-bb06-81b13078c5fe);}.a10a5a3d-8533-4fd4-9c4c-9941ed44d41f{fill:url(#f7d7a39f-bc2b-45a8-99e3-bc0f68e88707);}.b74b1b13-3126-4060-bbea-1c0d7b189945{fill:url(#f3e7c551-1c97-411a-8cb2-6ca9ca7fee55);}.b74f6387-f8ed-4bd6-91e8-3bdd6c7a3b3b{fill:url(#b8e9900d-83e2-4ac4-95a1-16bdd2959f9e);}.b343e16e-5c4e-4961-ba3b-45d6e3ebe082{fill:#161b21;}.a5ef39d6-b617-41ee-8340-32d5aa874437{clip-path:url(#f710a767-6c54-4ef9-9bbf-b5af26fc3ae7);}.b2bd451c-d7f0-4b44-848c-cc0115dc5755{fill:#545357;}</style><radialGradient id="ac1f6c49-179c-4e30-bb06-81b13078c5fe" cx="444.62" cy="424.2" fx="399.89109504294873" r="44.82" gradientUnits="userSpaceOnUse"><stop offset="0.06" stop-color="#e8f3dd"/><stop offset="0.45" stop-color="#d5e8bf"/><stop offset="1" stop-color="#d1e397"/></radialGradient><radialGradient id="f7d7a39f-bc2b-45a8-99e3-bc0f68e88707" cx="444.62" cy="424.2" r="36.15" gradientUnits="userSpaceOnUse"><stop offset="0.01" stop-color="#fce6f0"/><stop offset="0.45" stop-color="#ed1c24"/><stop offset="1" stop-color="#f7b2d0"/></radialGradient><linearGradient id="f3e7c551-1c97-411a-8cb2-6ca9ca7fee55" x1="110.89" y1="426.31" x2="200.53" y2="426.31" gradientUnits="userSpaceOnUse"><stop offset="0" stop-color="#e8f3dd"/><stop offset="0.45" stop-color="#d5e8bf"/></linearGradient><radialGradient id="b8e9900d-83e2-4ac4-95a1-16bdd2959f9e" cx="155.71" cy="426.31" r="36.15" gradientUnits="userSpaceOnUse"><stop offset="0.01" stop-color="#e8f3dd"/><stop offset="0.45" stop-color="#ed1c24"/><stop offset="1" stop-color="#d1e397"/></radialGradient><clipPath id="f710a767-6c54-4ef9-9bbf-b5af26fc3ae7"><path class="aae92497-f008-4330-9395-14f1eab552da" d="M309.07,528.45c-.87.06-1.75.09-2.64.1-13.72.1-24.89-5.94-24.94-13.48-.06-7.05,9.63-12.93,22.1-13.74.87-.06,1.75-.09,2.64-.1,13.73-.1,24.89,5.93,24.95,13.48.05,7-9.63,12.93-22.11,13.74"/></clipPath></defs><g id="a8aa4fc1-c130-4582-8a12-55160c852b3c" data-name="Layer 2"><g id="a7a5f6b0-5f28-4aa2-b1f3-4c9326d43038" data-name="Layer 1"><path class="f92eab22-c18e-4255-9d1f-03a5f9be6cf4" d="M593.7,138.31c11.94,105-80.05,78-127,71.17s-96.76-13.24-90-60.2S453.06-6.5,500,.3s88.33,90.86,93.68,138Z"/><path class="b4bd913d-e57a-4d12-95ce-cb285b6f23cb" d="M552.44,159.58c-4.82,33.37-65.52,46.15-98.89,41.32a61,61,0,0,1-51.67-69.17C406.71,98.36,454.66,25.35,488,30.39c47.2,7.13,69.28,95.82,64.44,129.19Z"/><path class="f92eab22-c18e-4255-9d1f-03a5f9be6cf4" d="M13.3,142.55c-10.41,105.17,81.18,76.79,128,69.3s96.56-14.64,89.07-61.5S151.82-4.3,105,3.18,18,95.32,13.3,142.55Z"/><path class="b4bd913d-e57a-4d12-95ce-cb285b6f23cb" d="M54.86,163.2c5.32,33.3,66.2,45.2,99.49,39.88A61,61,0,0,0,205,133.17c-5.32-33.3-54.32-105.6-87.58-100.08C70.32,40.91,49.54,129.91,54.86,163.2Z"/><path class="b1d1a9cf-60bb-492f-9711-45b904cfcb9d" d="M608.77,138.2l4,554.25A48.34,48.34,0,0,1,564.91,741L52.64,744.78A48.28,48.28,0,0,1,4,696.89L0,142.64l608.77-4.44"/><path class="f92eab22-c18e-4255-9d1f-03a5f9be6cf4" d="M1.88,399.29C1.34,324.42,0,142.64,0,142.64l608.75-4.44S610,310.75,610.63,395c-48.36-65.67-161.16-105.81-233.32-71.63-66.93,31.69-3.63,171.12-70.67,171.61-68.34.49-10.25-124.94-64.94-166C176.87,280.34,43.37,311,1.88,399.29"/><path class="f92eab22-c18e-4255-9d1f-03a5f9be6cf4" d="M610.89,428.86l1.91,263.59a47.84,47.84,0,0,1-16.61,36.72c-30.89-58.13-88.94-180-204.37-259.76C336.93,431.53,365.31,336.07,438,343.3c66.51,6.6,126.19,32.42,172.91,85.56Z"/><path class="f30a7efa-b99a-4dd1-be8c-93e7b13937aa" d="M489.44,423.88a44.82,44.82,0,1,1-45.15-44.5,44.83,44.83,0,0,1,45.15,44.5Z"/><path class="a10a5a3d-8533-4fd4-9c4c-9941ed44d41f" d="M480.77,423.94a36.15,36.15,0,1,1-36.42-35.89,36.16,36.16,0,0,1,36.42,35.89Z"/><path class="f92eab22-c18e-4255-9d1f-03a5f9be6cf4" d="M457.46,424.11a12.84,12.84,0,1,1-12.94-12.75,12.84,12.84,0,0,1,12.94,12.75Z"/><path class="f92eab22-c18e-4255-9d1f-03a5f9be6cf4" d="M209.18,470.74c-108.83,77.51-165,192.51-196.11,253.88a47.88,47.88,0,0,1-9-27.73L2,419.73c44-44.73,98.62-67.52,159.13-74.41,72.59-8.29,102.33,86.74,48,125.42Z"/><path class="b74b1b13-3126-4060-bbea-1c0d7b189945" d="M110.89,426.64a44.82,44.82,0,1,0,44.49-45.15,44.82,44.82,0,0,0-44.49,45.15Z"/><path class="b74f6387-f8ed-4bd6-91e8-3bdd6c7a3b3b" d="M119.56,426.57a36.15,36.15,0,1,0,35.89-36.41,36.15,36.15,0,0,0-35.89,36.41Z"/><path class="f92eab22-c18e-4255-9d1f-03a5f9be6cf4" d="M142.87,426.4a12.84,12.84,0,1,0,12.75-12.93,12.84,12.84,0,0,0-12.75,12.93Z"/><path class="b343e16e-5c4e-4961-ba3b-45d6e3ebe082" d="M364.58,652c.15,19.28-25.58,35.09-57.46,35.33s-57.83-15.21-58-34.49,25.45-53.71,57.33-53.94,58,33.82,58.1,53.1"/><g class="a5ef39d6-b617-41ee-8340-32d5aa874437"><rect class="b2bd451c-d7f0-4b44-848c-cc0115dc5755" x="281.09" y="501.18" width="50.49" height="27.43" transform="translate(-32.94 21.09) rotate(-3.74)"/></g></g></g></svg>