<svg xmlns="http://www.w3.org/2000/svg" viewBox="0 0 542.56 527.99"><defs><style>.a265a366-8b75-4f6f-811e-08c4e3103310,.a3b63414-522f-4be5-ac45-553a56a204fe,.ab3d8432-da10-46ef-8781-bcb88305fd8f{fill-rule:evenodd;}.a3b63414-522f-4be5-ac45-553a56a204fe{fill:#63bf08;}.a265a366-8b75-4f6f-811e-08c4e3103310{fill:#8bbf56;}</style></defs><g id="a9296c08-064a-4cab-9f8d-ea5af0e31da0" data-name="Layer 2"><g id="bd3a72b8-35dd-49ef-820b-a1b268f2cd20" data-name="Layer 1"><g id="a671141c-dcf8-4192-93b4-17b1cc6f91e9" data-name="Untitled"><path class="ab3d8432-da10-46ef-8781-bcb88305fd8f" d="M322.34,486l11.48,11.48L322.34,509,310.86,497.5Zm-51.06,42H129.41V479.33C196.25,477.76,241,448,271.28,399.83c30.29,48.17,75,77.93,141.87,79.5V528Zm0-80.18-28.45,28.44,28.45,28.45,28.44-28.45ZM220.22,486,208.74,497.5,220.22,509,231.7,497.5ZM181.66,497.5,170.19,486,158.71,497.5,170.19,509Zm179.23,0L372.37,486l11.48,11.48L372.37,509Z"/><path class="a3b63414-522f-4be5-ac45-553a56a204fe" d="M271.28,0V385.84l6.3,10c31.54,50.16,76.19,74.63,135.74,76l7.27.17c46.77-11.08,80.17-36.83,122-73.69-46.11,9.19-70.16,10.44-119.54,9.09a313.63,313.63,0,0,0-51,2.59,323.8,323.8,0,0,0,32.25-22.59c75.55-60.44,87.93-127.79,95.38-217.53-16,20.72-30.12,39.79-49.51,58-43.71,41.12-95.39,71.06-135.57,116.7a414.8,414.8,0,0,0,11.75-97.16C326.64,159.33,301.92,81.4,271.28,0Z"/><path class="a265a366-8b75-4f6f-811e-08c4e3103310" d="M271.28,0V385.84l-6.3,10c-31.54,50.16-76.19,74.63-135.74,76l-7.28.17C75.2,461,41.79,435.23,0,398.37c46.11,9.19,70.15,10.44,119.54,9.09a313.69,313.69,0,0,1,51,2.59,322.64,322.64,0,0,1-32.25-22.59C62.73,327,50.34,259.67,42.9,169.93c16,20.72,30.12,39.79,49.5,58C136.12,269.07,187.79,299,228,344.65a415.33,415.33,0,0,1-11.75-97.16C215.92,159.33,240.63,81.4,271.28,0Z"/></g></g></g></svg>