<svg xmlns="http://www.w3.org/2000/svg" viewBox="0 0 746.08 796.56"><defs><style>.a78b6eff-e44d-4662-843b-8b4a72d33e61,.e79feb6f-d35b-468a-91a7-0452165c76dc{fill:#f2b52e;stroke:#231f20;stroke-miterlimit:10;}.a78b6eff-e44d-4662-843b-8b4a72d33e61{stroke-width:6px;}.bb1f3727-bf45-447e-9451-9bbd91ae07cf{fill:#231f20;}.b7bcedc5-1e95-4ac6-8495-cce4281d81b7{fill:#241e21;}.e79feb6f-d35b-468a-91a7-0452165c76dc{stroke-width:7px;}.a54d67fb-74f9-4cc1-bcf3-6dfd34f2287e{fill:#fff;}.bed4e91e-9184-433a-9cce-9656cdaf22f4{fill:#010101;}.f7d4e08a-49c2-4f62-bc73-9aca0437021a{fill:#ed1c24;}.bd38da80-73c6-46b2-b726-5e3e918f17df{fill:#414042;}</style></defs><g id="fc4e8ff3-769c-43c4-9f2b-6e1c3176abd0" data-name="Layer 2"><g id="e466cb41-fc24-410d-b044-9a5c63d7b3b0" data-name="Layer 1"><path class="a78b6eff-e44d-4662-843b-8b4a72d33e61" d="M619.62,139.75c13.12,128.83-68.28,133.3-86,106.45-19.27-24.89,1.22-67.9,7.68-115.38C551.9,82,531.18,32.63,538.69,22.38c6-12.29,75,28.82,80.93,117.37Z"/><path class="bb1f3727-bf45-447e-9451-9bbd91ae07cf" d="M746,56.78c4.09,85.77-116.31,178.14-138.43,157.64-21-19.46-33.69-83,6.61-130.63C657,33.16,734,49.47,746,56.78Z"/><path class="b7bcedc5-1e95-4ac6-8495-cce4281d81b7" d="M746,56.78C571.1,76.32,629.67,234.92,607.55,214.42c-21-19.46-33.69-83,6.61-130.63C657,33.16,734,49.47,746,56.78Z"/><path class="e79feb6f-d35b-468a-91a7-0452165c76dc" d="M140.49,124.15c-11.16,129,70.29,132.25,87.58,105.14,18.88-25.18-2.26-67.87-9.43-115.25-11.3-48.69,8.66-98.33,1-108.48-6.21-12.19-74.51,30-79.15,118.59Z"/><path class="bb1f3727-bf45-447e-9451-9bbd91ae07cf" d="M.05,79.46C-2.75,165.27,119,255.82,140.84,235c20.71-19.78,32.44-83.48-8.58-130.52C88.68,54.49,11.88,72,.05,79.46Z"/><path class="b7bcedc5-1e95-4ac6-8495-cce4281d81b7" d="M.05,79.46C175.21,96.35,119,255.82,140.84,235c20.71-19.78,32.44-83.48-8.58-130.52C88.68,54.49,11.88,72,.05,79.46Z"/><path class="a54d67fb-74f9-4cc1-bcf3-6dfd34f2287e" d="M673.64,189.84l4.18,554.24a48.25,48.25,0,0,1-47.88,48.61l-512.27,3.87a48.23,48.23,0,0,1-48.58-47.88L64.9,194.43l608.74-4.59Z"/><path class="a54d67fb-74f9-4cc1-bcf3-6dfd34f2287e" d="M552.77,433.5A44.82,44.82,0,1,1,507.61,389a44.82,44.82,0,0,1,45.16,44.48Z"/><path class="bed4e91e-9184-433a-9cce-9656cdaf22f4" d="M544.1,433.57a36.15,36.15,0,1,1-36.42-35.88,36.15,36.15,0,0,1,36.42,35.88Z"/><path class="f7d4e08a-49c2-4f62-bc73-9aca0437021a" d="M514.76,433.79a6.81,6.81,0,0,1-6.89,6.86,6.92,6.92,0,0,1-6.73-6.69,6.81,6.81,0,1,1,13.62-.17Z"/><path class="a54d67fb-74f9-4cc1-bcf3-6dfd34f2287e" d="M276.46,435.59A44.82,44.82,0,1,1,231.3,391.1a44.83,44.83,0,0,1,45.16,44.49Z"/><path class="bed4e91e-9184-433a-9cce-9656cdaf22f4" d="M267.79,435.65a36.15,36.15,0,1,1-36.42-35.88,36.16,36.16,0,0,1,36.42,35.88Z"/><path class="a54d67fb-74f9-4cc1-bcf3-6dfd34f2287e" d="M238.45,433.79a6.81,6.81,0,1,1-6.86-6.76,6.82,6.82,0,0,1,6.86,6.76Z"/><path class="b7bcedc5-1e95-4ac6-8495-cce4281d81b7" d="M500.4,231.2C498.82,260.64,387.87,328,392.74,388.14c4.58,56.47-178-92.85-156.75-150.9,8.2-22.4,17.26-34.44,27.32-44.3L483,191.28c11.13,15.05,17.94,30.1,17.42,39.92Z"/><path class="b7bcedc5-1e95-4ac6-8495-cce4281d81b7" d="M67.15,492.09l-2-266.64q3.61-10.95,7.59-21.75c64.9-2.35,10.59,75.47,21.92,106.49,18.33,50.52,59.43,12.39,83.3,72.25,16.82,42.26-60.3,100.64-110.8,109.65Z"/><path class="b7bcedc5-1e95-4ac6-8495-cce4281d81b7" d="M674.31,278l1.34,179c-4.53-27.8-14.83-52.7-37.34-64-42.75-21.58-66.85-140-34.86-151.22,15.53-5.43,42,23.44,70.86,36.24Z"/><path class="bd38da80-73c6-46b2-b726-5e3e918f17df" d="M547.38,651.24c.42,53.62-75.52,97.66-169.58,98.37s-170.64-42.18-171-95.79,75.52-97.66,169.58-98.36,170.64,42.17,171,95.78Z"/><path class="bb1f3727-bf45-447e-9451-9bbd91ae07cf" d="M464.71,607.85c-1.7,1.4-11-4.61-22.12-3.49-11,.44-19.72,6.37-22.74,3.83-3.46-2.21,5.13-15.63,22-15.1s25,13.68,22.88,14.76Z"/><path class="bb1f3727-bf45-447e-9451-9bbd91ae07cf" d="M285.1,609.21c1.72,1.37,11-4.79,22.07-3.82,11,.26,19.81,6.06,22.79,3.48,3.42-2.27-5.37-15.56-22.21-14.76s-24.81,14-22.65,15.1Z"/></g></g></svg>