<svg xmlns="http://www.w3.org/2000/svg" viewBox="0 0 55.76 22.98"><defs><style>.e2d4b653-a0a7-4f49-92cd-09ff9a716bfd{fill:#080808;stroke:#080808;stroke-linecap:round;stroke-linejoin:round;stroke-width:0.56px;}.bcb1b27d-cca7-4ca8-9668-6d81bfe8ecef{fill:#030303;fill-opacity:0;}</style></defs><g id="a29a2ab5-658f-498f-8f42-80d0e4be7736" data-name="Layer 2"><g id="e8e12316-2e50-4a51-9e42-e8f7fe979a1c" data-name="Layer 1"><g id="a7c6db5b-6a30-4b63-999d-39c08e6bef20" data-name="Layer 1"><path class="e2d4b653-a0a7-4f49-92cd-09ff9a716bfd" d="M14,.28h-.42C8.36.49,4.38,5,3.4,9.86A11.28,11.28,0,0,0,1,10C-.13,10.24.23,11.8.91,12.3s1.63.14,2.44.14C4.08,18.25,8.83,23.1,15,22.66a11.36,11.36,0,0,0,5.2-1.44,15.85,15.85,0,0,0,3.63-3.37c.45-.56.79-2.27,1.31-2.53a.61.61,0,0,1,.17-.53s.45-2.76.48-3h4.28c1,6,4.3,11,11.1,11a18.92,18.92,0,0,0,4.9-1c1.89-.48,3.69-2.59,4.76-4.2.32-.48.49-1.28.88-1.66a.26.26,0,0,1,0-.09l.13-.13c-.06-.12,0-.16.09-.22l0-.08.08,0,0-.09.09,0L51.9,15,52,15a10.48,10.48,0,0,1,.48-2.32c0-.07-.07-.21,0-.21.85,0,1.83.29,2.54-.18.53-.35.77-2.18-.09-2.18V10a1.49,1.49,0,0,0-.39-.13c-.73,0-1.46,0-2.19,0,0-.3-.09-.56-.09-.87h-.08c-.06-.24-.21-.55-.13-.79H52a.81.81,0,0,1-.09-.52h-.09c-.05-.16-.1-.18,0-.35-.16,0-.13-.09-.09-.22h-.09A.26.26,0,0,0,51.6,7h-.09l0-.08c-.14,0-.14-.07-.08-.18-.22-.11-.18-.43-.35-.52l0-.09h-.09a.73.73,0,0,0,0-.09H51l0-.09H51l0-.08c-.22-.07-.1-.18-.26-.26l0-.09c-.11-.06-.09,0-.09-.13h-.08l0-.09-.13,0c0-.17-.09-.07-.09-.27l-.13,0A6.17,6.17,0,0,0,47.67,2.3V2.21h-.14V2.12H47.4V2h-.13V2c-.16-.06-.08-.05-.22-.05V1.82a.86.86,0,0,0-.3-.09V1.64C43.19.46,39.59-.58,36,1.55a12.23,12.23,0,0,0-2.75,2.1,11.36,11.36,0,0,1-1.23,1.44c-2.79,0-5.59,0-8.39-.08V4.92l-.13,0c0-.59-1.22-1-1.22-1.53A10.92,10.92,0,0,1,20.44,1.9c-.37-.12-.78-.56-1.18-.56V1.25C17.36.87,16.06.28,14,.28ZM15,2.81c9.37-.12,11.54,15.83.66,17.19-2.64.33-3.7-.6-5.85-1.32V18.6c-.18-.06-.12-.13-.31-.13v-.09c-.47-.16-1.92-1.51-1.92-2l-.13,0a.72.72,0,0,0-.26-.4l0-.08H7.11a.26.26,0,0,1,0-.09c-.13-.06-.07,0-.18-.13l0-.09H6.94l0-.09H6.89l.05-.08H6.85c.06-.12.05-.18-.09-.18a.73.73,0,0,0,0-.09c-.14,0-.15-.06-.09-.17-.14,0-.15-.06-.09-.18-.14-.07-.14-.11-.09-.26H6.46l0-.08H6.41c0-.17-.06-.09,0-.22-.24-.13-.35-1.24-.35-1.49H6a10.26,10.26,0,0,1,1-5.2A8.58,8.58,0,0,1,9.87,4.31,9.14,9.14,0,0,1,13.54,3,10.32,10.32,0,0,1,15,2.81Zm26.56.08a7.61,7.61,0,0,1,2.73.5C50.53,5.9,52,15.09,45.74,18.86a8.59,8.59,0,0,1-6.68,1c-.8-.27-1.55-.75-2.32-1v-.09h-.13v-.09h-.13v-.09h-.13v-.08c-.5-.17-2-1.49-2-2l-.13-.05c0-.13-.16-.28-.27-.39a.26.26,0,0,0,.05-.09c-.13-.06-.07,0-.18-.13l0-.09c-.15,0-.14-.08-.14-.22h-.08l0-.08h-.09l0-.09h-.09l0-.09h-.08l0-.09h-.09l0-.08h-.09c-.05-.16-.06-.09,0-.22h-.09l.05-.09h-.09l0-.09a.32.32,0,0,1-.13-.39h-.09c0-.53-.43-1.1-.3-1.62h-.09c0-.62-.34-2,.09-2.4-.06-.12-.05-.41.08-.48-.39-.8,1-2.43,1.36-3.15C35.46,4.21,38.63,2.86,41.53,2.89Zm-15,4.81,4.13,0a5.31,5.31,0,0,1-.35,1.35c-1.61,0-3.21,0-4.81,0-.08-.33-.16-.65-.26-1,0,0-.2-.35-.09-.35Z"/><path class="bcb1b27d-cca7-4ca8-9668-6d81bfe8ecef" d="M45.17,5.36v.08h.14v.09c.43,0,.75.73,1.17.88a3.76,3.76,0,0,0,.92,1.17c0,.12,0,.08.09.14l0,.08h.08c0,.17.18.12.09.31h.09l0,.09h.08c0,.11,0,.17.09.17l0,.09h.08l0,.09h.09c-.06.16,0,.18,0,.35h.09c-.15.28.31,1.44.35,1.79h.09a8.18,8.18,0,0,0-.09,2.14c-.48.48-.56,1.87-1,2.53a9.74,9.74,0,0,1-2.62,2.45c-2.84,2.13-8.12.54-9.66-2.53-1.63-3.27-1.27-7,1.66-9.44a7.42,7.42,0,0,1,3.63-1.49C42.43,4,43.48,4.79,45.17,5.36Z"/><path class="bcb1b27d-cca7-4ca8-9668-6d81bfe8ecef" d="M18.12,5.18v.09a4.46,4.46,0,0,1,2.32,2.14l.13,0,0,.09c.16.08,0,.19.26.26l0,.09h.08l0,.09h.09l-.05.09h.09a1.13,1.13,0,0,0,.09.35h.09l-.05.08h.09l0,.09h.08l0,.09h.09l-.05.08.09.05,0,.09h.08c0,.17,0,.08,0,.26h.09c-.1.31.17,1,.22,1.31h.09c0,.89.21,3.11-.61,3.93.27.56-1.5,2.2-1.8,2.49-1.9,1.91-5.25,2.2-7.69,1.23C6.53,16.08,6,8.7,10.43,5.53,12.84,3.81,15.53,4.32,18.12,5.18Z"/></g></g></g></svg>