<svg xmlns="http://www.w3.org/2000/svg" viewBox="0 0 32.23 24.22"><defs><style>.a2129ef3-3f81-45b4-a863-88d1e24a7f1f{fill:#231f20;}.f9c24fec-46e8-4c0e-ab81-1c706e5b1c0c{fill:#fcfcfc;}</style></defs><g id="a905c192-58fa-4d28-9d34-1773c477b195" data-name="Layer 2"><g id="bd021ce1-e0d4-4a46-bdbe-b42a39ea554a" data-name="Layer 1"><g id="b7f27d92-510c-434e-b187-6fd97d7c656d" data-name="e7155db5-10c1-4add-8491-accac09bbb84"><g id="b80580bb-0e5c-41df-8e33-7b2abf20f6d9" data-name="f8118e6a-305d-4657-80f7-dfe25b331bb7"><g id="fe5a5e79-df1d-4200-bc8f-ab25e1500c29" data-name="b005fd43-afa4-4343-8e88-91326eab18c0"><path class="a2129ef3-3f81-45b4-a863-88d1e24a7f1f" d="M6.36,1.34C5.57,0,2.8-.63,1.9,1a.07.07,0,0,0,0,.09H2c1.39-.31,2.65.49,3.92.89a.41.41,0,0,0,.46-.6"/><path class="a2129ef3-3f81-45b4-a863-88d1e24a7f1f" d="M30.91,1.73A3.23,3.23,0,0,0,29.72,1a3,3,0,0,0-1.44,0,3.67,3.67,0,0,0-2.23,1.42.13.13,0,0,0,.14.19,4.75,4.75,0,0,1,2.13-.39l1.1.11c.4.05.79.05,1.19.09a.43.43,0,0,0,.3-.72"/><path class="a2129ef3-3f81-45b4-a863-88d1e24a7f1f" d="M6.35,4.46c-1-.28-2-.32-2.95-.61A6.52,6.52,0,0,1,2,3.24,4.89,4.89,0,0,0,.59,2.49a.38.38,0,0,0-.47.36,1.47,1.47,0,0,0,.28.86A1.29,1.29,0,0,0,.16,5.3,3.89,3.89,0,0,0,2.09,7.06a3.54,3.54,0,0,0,2.72.24A2.31,2.31,0,0,0,6.19,5a.5.5,0,0,0,0-.13l.24-.22a.09.09,0,0,0,0-.12l0,0"/><path class="a2129ef3-3f81-45b4-a863-88d1e24a7f1f" d="M25.83,6.37c1,.11,2,.46,3,.57a7.72,7.72,0,0,0,1.52,0,4.56,4.56,0,0,1,1.6-.15.37.37,0,0,1,.3.51,1.42,1.42,0,0,1-.59.69,1.27,1.27,0,0,1-.39,1.56,3.78,3.78,0,0,1-2.45.88,3.51,3.51,0,0,1-2.61-.82,2.3,2.3,0,0,1-.37-2.69.31.31,0,0,1,.09-.11,2,2,0,0,1-.14-.3.07.07,0,0,1,0-.1h0"/><path class="a2129ef3-3f81-45b4-a863-88d1e24a7f1f" d="M10.48,17.37a2,2,0,0,1-1.15-.72A2.63,2.63,0,0,1,9.16,15a7,7,0,0,1,.31-1.69c.75.37,1.44.86,2.16,1.27a8.25,8.25,0,0,0,3,.87c.41.06.82.1,1.24.12a1.44,1.44,0,0,1-.83,1.76,6.64,6.64,0,0,1-3,.31,7.29,7.29,0,0,1-1.6-.3m11-2.61a21.8,21.8,0,0,1,2.77-1.09c0,.11,0,.23.07.35a4.31,4.31,0,0,1,0,.88,3,3,0,0,1-.51,1.31,3.51,3.51,0,0,1-2.27,1.33A4,4,0,0,1,19,17.27a2.81,2.81,0,0,1-.91-.77,2.5,2.5,0,0,1-.43-.9,11.86,11.86,0,0,0,3.84-.84m5.31-1.44c-1.13-1.44-3.23-.52-4.56.06a14.85,14.85,0,0,1-3.17,1.09,14.3,14.3,0,0,1-3.58.16A10,10,0,0,1,12.26,14c-.87-.39-1.66-.91-2.53-1.29A2.47,2.47,0,0,0,7.5,12.6a2.36,2.36,0,0,0-1,1.28A3.9,3.9,0,0,0,6,15a5,5,0,0,0,0,2.31,7.32,7.32,0,0,0,2.68,3.79,15.17,15.17,0,0,0,9,3.13c3.13.11,6.88-.51,8.84-3.23a7,7,0,0,0,1.09-3.77,5.78,5.78,0,0,0-.89-3.89"/><path class="f9c24fec-46e8-4c0e-ab81-1c706e5b1c0c" d="M3.38,4.91a.6.6,0,0,0,0,1.2.6.6,0,0,0,0-1.2"/><path class="f9c24fec-46e8-4c0e-ab81-1c706e5b1c0c" d="M27.78,7.67a.7.7,0,0,0-.71.7.71.71,0,0,0,.71.71.7.7,0,0,0,.7-.71h0a.7.7,0,0,0-.7-.7"/></g></g></g></g></g></svg>