<svg xmlns="http://www.w3.org/2000/svg" xmlns:xlink="http://www.w3.org/1999/xlink" viewBox="0 0 199.11 229.65"><defs><style>.f35604df-6fb1-45c5-a3e8-d077a21e2adb{fill:none;}.e8af4bc6-2f30-48da-8b30-a4fcf7b031e1{clip-path:url(#ab264d7d-85bf-4950-ba26-3a1871fe8c6f);}.aa4b73bc-1781-479f-baeb-fcae106ac61a{fill:#faf3f8;}.b600248d-8c22-427b-b009-9f8c35a6498c{fill:#1c232f;}.e728dbf0-27ab-4fda-80bf-1a24919ee297{fill:#ed593f;}.b081110b-2cce-4a57-9901-923bdf377a79{fill:#53424b;}</style><clipPath id="ab264d7d-85bf-4950-ba26-3a1871fe8c6f" transform="translate(19.66)"><path class="f35604df-6fb1-45c5-a3e8-d077a21e2adb" d="M137.33,70.11H100.1c-3.65-3.69-7.18-7.68-8.73-12.73-.07-.19-.12-.39-.18-.58a25.15,25.15,0,1,0-28-.26c-.53,3.39-1.1,6.8-3.62,9.41q-1.91,2.17-4,4.17H17.69A17.62,17.62,0,0,0,0,87.66V212a17.62,17.62,0,0,0,17.69,17.55H59.9v-.11a7.85,7.85,0,0,1-.9-1.24l-.26-.4a.74.74,0,0,0-.1-.27c0-.09-.12-.12-.11-.08l.15.25A25.15,25.15,0,1,1,105,214.23a24.37,24.37,0,0,1-4.25,13.91v.08a15.9,15.9,0,0,1-1,1.43H137.4A17.6,17.6,0,0,0,155,212V87.66A17.61,17.61,0,0,0,137.33,70.11Z"/></clipPath></defs><g id="e271ccae-1c63-437f-a845-be42242556ad" data-name="Layer 2"><g id="b95fa9cb-b253-4821-a2b0-6214b38c4a7a" data-name="Layer 1"><g class="e8af4bc6-2f30-48da-8b30-a4fcf7b031e1"><path class="aa4b73bc-1781-479f-baeb-fcae106ac61a" d="M165.89,69.23v101.7H-3V69.23" transform="translate(19.66)"/><rect class="b600248d-8c22-427b-b009-9f8c35a6498c" x="7.11" y="161.23" width="187.2" height="4"/><rect class="b600248d-8c22-427b-b009-9f8c35a6498c" x="7.11" y="148.28" width="187.2" height="4.02"/><rect class="b600248d-8c22-427b-b009-9f8c35a6498c" x="7.11" y="135.19" width="187.2" height="4.02"/><rect class="b600248d-8c22-427b-b009-9f8c35a6498c" x="7.11" y="122.25" width="187.2" height="4.02"/><rect class="b600248d-8c22-427b-b009-9f8c35a6498c" x="7.11" y="109.3" width="187.2" height="4"/><path class="b600248d-8c22-427b-b009-9f8c35a6498c" d="M174.54,100.37h-187a21.36,21.36,0,0,1,.8-4H173.76A19.84,19.84,0,0,1,174.54,100.37Z" transform="translate(19.66)"/><path class="b600248d-8c22-427b-b009-9f8c35a6498c" d="M169,87.42H-6.9a39.77,39.77,0,0,1,3.66-4H165.37A34.55,34.55,0,0,1,169,87.42Z" transform="translate(19.66)"/><path class="e728dbf0-27ab-4fda-80bf-1a24919ee297" d="M49.27,62.06V170.91l-5.65,0V69.1A46.48,46.48,0,0,1,49.27,62.06Z" transform="translate(19.66)"/><path class="e728dbf0-27ab-4fda-80bf-1a24919ee297" d="M109.4,68.78V170.83l-5.1.1v-106A41.39,41.39,0,0,1,109.4,68.78Z" transform="translate(19.66)"/><polygon class="b600248d-8c22-427b-b009-9f8c35a6498c" points="183.34 229.65 0 229.65 18.63 183.39 191.54 183.32 183.34 229.65"/><polygon class="b081110b-2cce-4a57-9901-923bdf377a79" points="0 229.65 199.11 229.65 184.37 223.88 2.32 223.88 0 229.65"/><polygon class="b600248d-8c22-427b-b009-9f8c35a6498c" points="7.02 183.32 194.32 183.32 194.32 170.81 51.57 170.91 7.11 170.93 7.02 183.32"/><polygon class="e728dbf0-27ab-4fda-80bf-1a24919ee297" points="97.16 67.93 106.74 78.62 112.21 71.69 97.16 67.93"/><polygon class="e728dbf0-27ab-4fda-80bf-1a24919ee297" points="97.16 67.93 87.58 78.62 82.11 71.69 97.16 67.93"/></g><path class="b600248d-8c22-427b-b009-9f8c35a6498c" d="M53,24.29H102.9s2-9.27-20.57-20.84S48.55,12.12,53,24.29Z" transform="translate(19.66)"/></g></g></svg>