<svg xmlns="http://www.w3.org/2000/svg" xmlns:xlink="http://www.w3.org/1999/xlink" viewBox="0 0 66.33 82.98"><defs><style>.abdaf76d-3587-4f4c-86ff-64b77326c417{fill:url(#b6a20769-8188-45a0-9ebd-ad1d24faa824);}.a79fbffd-a35c-4ae0-a5c0-e6a7b12a56cd{fill:url(#f7d92b7c-bda6-4ff7-9cc1-aed0cce77bb7);}.b695829d-f90e-423c-9953-cde6b793a542{fill:url(#b78906fb-2f0e-41f3-9cc9-c69ef5d19b2b);}.fd37ba62-6688-4950-b8d4-1d2ff2caee92{fill:url(#ad943d07-e9bd-4117-862d-715aa70e22b2);}.f83791ac-2931-4952-949f-19a96fc00dcc{fill:url(#a31ce73e-edcb-4709-a910-b272952077af);}.ba036205-6540-45a5-8d73-ffe0e2bc440d{fill:url(#ad872f68-e0ee-4bc2-b136-9b151559c525);}.a06d8095-e129-4fa5-a748-79942a875f1b{fill:url(#b2bb19dd-03dc-48c3-8cbc-eafd5003960b);}.ba7365c4-5c78-4915-ad48-deb8f7b2e987{fill:url(#a6b9e919-0be7-4eb5-b74e-7a164f9b56eb);}.edf789c8-e199-4830-b3f1-20477dbe50c6{fill:url(#f60d895c-fe47-46ac-881b-496a4ad0e857);}.bc39f255-644c-405d-b40f-4f09f1548422{fill:url(#a45b91ba-09a8-4edf-b7a7-f075b4435222);}.ad47b1d6-2455-4eef-a8c1-0445c3e8beb5{fill:url(#a5b7a68b-79fc-4b48-9730-8f0c56f32577);}.f99d8557-fc2c-4a0c-829f-918d9cf2bf80{fill:url(#b123767c-11c9-41c3-bd56-95317cee3311);}.b3fcf539-fb9e-4673-b79d-54161c77dc8d{fill:url(#b10a1866-3249-40ad-8780-efb945a2ffe8);}.a873fd60-1fcc-4fc0-81e4-13abd06c5800{fill:url(#bffb7171-36cf-416b-af72-f2687f960aef);}.aa4f72c6-d22a-4f5f-92fa-e26ac4368dda{fill:url(#a8dac2ed-c14f-481f-a471-03be8ee2ebb7);}.b673dff6-8748-4508-aefc-746e4ef328cf{fill:url(#a53e7520-4ae8-4fa4-afaa-d2ce91cd30da);}.bfe36aca-0e03-4ac6-8cf1-594816f1a8cc{fill:url(#f7307d86-b8f7-4018-afb6-9488b8c9291a);}.be132b2a-7d04-40e5-85a2-a8c927400d61{fill:url(#a8dc4b37-33a2-45a7-8e1b-3ddf4d3f57e4);}.b7893373-f53d-46f0-85ea-cdeacc27a3e4{fill:url(#f54fbff9-3608-4f47-9026-15c05dbebf7d);}.bc7ed881-ed1e-4c0c-b688-4becf247a734{fill:url(#ff388109-272b-48d1-af1b-218f41343af7);}.aa36260e-74a6-4576-86c3-0605b3110320{fill:url(#ea09104c-0116-4145-b151-b49e2a4b63ad);}.fde82e13-0d7b-4673-a84b-5977de7bc954{fill:url(#e0c9bf63-3fa7-4e53-93a0-4ff95ef752f3);}.b50d0d62-c59d-425e-b475-1f87de9cc500{fill:url(#af794641-d3b7-415b-b45f-a897f026840e);}.b0e06949-61fe-43a4-9bf3-906e57bcc052{fill:url(#f3ef13e7-6aa1-49c8-96a9-5ff95787e438);}.a75c4604-9b68-4822-b56a-054fbf9fb2f3{fill:url(#feed8d23-82ca-4f94-ae81-ed0b7e1d94c7);}.f4ae1a1d-e537-4b7e-90ee-eb5238062154{fill:url(#b079d854-fd69-4e36-9e20-629d83c91227);}.e464309c-c601-4658-8e10-343447c26662{fill:url(#a318a338-6136-4eaa-b544-e24548ac8875);}.ac84ce99-6ea9-4917-933d-e933883fa514{fill:red;}.f1305c91-69e4-456a-a13b-bae53fe7b99a{fill:#d63a74;}</style><linearGradient id="b6a20769-8188-45a0-9ebd-ad1d24faa824" x1="-1100.17" y1="499.51" x2="-1074.56" y2="499.51" gradientTransform="matrix(0.98, 0, 0, -0.98, 1114.46, 500.51)" gradientUnits="userSpaceOnUse"><stop offset="0" stop-color="#ffac5c"/><stop offset="0.16" stop-color="#ffe752"/><stop offset="1" stop-color="#fff31c"/></linearGradient><linearGradient id="f7d92b7c-bda6-4ff7-9cc1-aed0cce77bb7" x1="-1116.28" y1="500.74" x2="-1098.31" y2="500.74" xlink:href="#b6a20769-8188-45a0-9ebd-ad1d24faa824"/><linearGradient id="b78906fb-2f0e-41f3-9cc9-c69ef5d19b2b" x1="-1125.06" y1="498.23" x2="-1114.51" y2="498.23" xlink:href="#b6a20769-8188-45a0-9ebd-ad1d24faa824"/><linearGradient id="ad943d07-e9bd-4117-862d-715aa70e22b2" x1="-1126.35" y1="495.07" x2="-1120.85" y2="495.07" xlink:href="#b6a20769-8188-45a0-9ebd-ad1d24faa824"/><linearGradient id="a31ce73e-edcb-4709-a910-b272952077af" x1="-1125.42" y1="495.3" x2="-1120.83" y2="495.3" xlink:href="#b6a20769-8188-45a0-9ebd-ad1d24faa824"/><linearGradient id="ad872f68-e0ee-4bc2-b136-9b151559c525" x1="-1081.36" y1="496.6" x2="-1077.26" y2="496.6" xlink:href="#b6a20769-8188-45a0-9ebd-ad1d24faa824"/><linearGradient id="b2bb19dd-03dc-48c3-8cbc-eafd5003960b" x1="-1112.95" y1="499.44" x2="-1109.86" y2="499.44" xlink:href="#b6a20769-8188-45a0-9ebd-ad1d24faa824"/><linearGradient id="a6b9e919-0be7-4eb5-b74e-7a164f9b56eb" x1="-1116.93" y1="499.56" x2="-1113.86" y2="499.56" xlink:href="#b6a20769-8188-45a0-9ebd-ad1d24faa824"/><linearGradient id="f60d895c-fe47-46ac-881b-496a4ad0e857" x1="-1083.68" y1="497.34" x2="-1080.26" y2="497.34" xlink:href="#b6a20769-8188-45a0-9ebd-ad1d24faa824"/><linearGradient id="a45b91ba-09a8-4edf-b7a7-f075b4435222" x1="-1104.73" y1="501.54" x2="-1102.03" y2="501.54" xlink:href="#b6a20769-8188-45a0-9ebd-ad1d24faa824"/><linearGradient id="a5b7a68b-79fc-4b48-9730-8f0c56f32577" x1="-1090.67" y1="499.49" x2="-1088.35" y2="499.49" xlink:href="#b6a20769-8188-45a0-9ebd-ad1d24faa824"/><linearGradient id="b123767c-11c9-41c3-bd56-95317cee3311" x1="-1099.7" y1="502.56" x2="-1097.59" y2="502.56" xlink:href="#b6a20769-8188-45a0-9ebd-ad1d24faa824"/><linearGradient id="b10a1866-3249-40ad-8780-efb945a2ffe8" x1="-1121.03" y1="497.02" x2="-1118.89" y2="497.02" xlink:href="#b6a20769-8188-45a0-9ebd-ad1d24faa824"/><linearGradient id="bffb7171-36cf-416b-af72-f2687f960aef" x1="-1114.46" y1="500.38" x2="-1113.02" y2="500.38" xlink:href="#b6a20769-8188-45a0-9ebd-ad1d24faa824"/><linearGradient id="a8dac2ed-c14f-481f-a471-03be8ee2ebb7" x1="-1135.09" y1="455.48" x2="-1102.22" y2="455.48" xlink:href="#b6a20769-8188-45a0-9ebd-ad1d24faa824"/><linearGradient id="a53e7520-4ae8-4fa4-afaa-d2ce91cd30da" x1="-1098.68" y1="457.35" x2="-1067.54" y2="457.35" xlink:href="#b6a20769-8188-45a0-9ebd-ad1d24faa824"/><linearGradient id="f7307d86-b8f7-4018-afb6-9488b8c9291a" x1="-1132.49" y1="473.55" x2="-1104.27" y2="473.55" xlink:href="#b6a20769-8188-45a0-9ebd-ad1d24faa824"/><linearGradient id="a8dc4b37-33a2-45a7-8e1b-3ddf4d3f57e4" x1="-1096.44" y1="474.53" x2="-1069.53" y2="474.53" xlink:href="#b6a20769-8188-45a0-9ebd-ad1d24faa824"/><linearGradient id="f54fbff9-3608-4f47-9026-15c05dbebf7d" x1="-1130.6" y1="438.04" x2="-1124.2" y2="438.04" xlink:href="#b6a20769-8188-45a0-9ebd-ad1d24faa824"/><linearGradient id="ff388109-272b-48d1-af1b-218f41343af7" x1="-1077.82" y1="439.56" x2="-1072.64" y2="439.56" xlink:href="#b6a20769-8188-45a0-9ebd-ad1d24faa824"/><linearGradient id="ea09104c-0116-4145-b151-b49e2a4b63ad" x1="-1078.19" y1="461.11" x2="-1068.78" y2="461.11" xlink:href="#b6a20769-8188-45a0-9ebd-ad1d24faa824"/><linearGradient id="e0c9bf63-3fa7-4e53-93a0-4ff95ef752f3" x1="-1133.89" y1="460.48" x2="-1124.39" y2="460.48" xlink:href="#b6a20769-8188-45a0-9ebd-ad1d24faa824"/><linearGradient id="af794641-d3b7-415b-b45f-a897f026840e" x1="-1133.14" y1="465.16" x2="-1123.64" y2="465.16" xlink:href="#b6a20769-8188-45a0-9ebd-ad1d24faa824"/><linearGradient id="f3ef13e7-6aa1-49c8-96a9-5ff95787e438" x1="-1078.93" y1="465.82" x2="-1069.53" y2="465.82" xlink:href="#b6a20769-8188-45a0-9ebd-ad1d24faa824"/><linearGradient id="feed8d23-82ca-4f94-ae81-ed0b7e1d94c7" x1="-1113.82" y1="469.73" x2="-1111.63" y2="469.73" xlink:href="#b6a20769-8188-45a0-9ebd-ad1d24faa824"/><linearGradient id="b079d854-fd69-4e36-9e20-629d83c91227" x1="-1102.69" y1="478.7" x2="-1098.4" y2="478.7" xlink:href="#b6a20769-8188-45a0-9ebd-ad1d24faa824"/><linearGradient id="a318a338-6136-4eaa-b544-e24548ac8875" x1="-1122.43" y1="478.96" x2="-1118.71" y2="478.96" xlink:href="#b6a20769-8188-45a0-9ebd-ad1d24faa824"/></defs><g id="adeed2d7-015e-4fa9-b473-b3ee6645e5c2" data-name="Layer 2"><g id="a74cab9a-776c-4ebc-b8dd-855b49075ae8" data-name="Layer 1"><g id="fc8cc2b7-0638-4ab0-afe1-05d7867c69dc" data-name="Layer 1"><path class="abdaf76d-3587-4f4c-86ff-64b77326c417" d="M37.85,16.5a4.29,4.29,0,0,1,3.57,2.2C44.87,17,46.53,6.43,43.71,3.61c2.73,1.37,2,10.58.82,12.89,1.48.74,4.75,1,6.13.92,2-.06,3-9.55,3-10.06a2.34,2.34,0,0,0-.09-.46c1.89,3.77-.16,7.82-2.47,10.7a2.11,2.11,0,0,1,1.56,1c2.84-2.59,3.66-5.22,3.66-9.06,0-.92-.64-1.77-.64-2.65C57.3,10.13,57.51,17.45,52.94,19a4.78,4.78,0,0,1,.19,1.19c6.91,0,7.95-10.33,4-14.26C51.33.08,42.35-.44,34.29.23l.36.09c0,1.33,1.3,3.17,1.56,4.57.52,2.85.22,5.72.46,8.6C36.73,14.22,37.71,15.52,37.85,16.5Z"/><path class="a79fbffd-a35c-4ae0-a5c0-e6a7b12a56cd" d="M32.46,13.49c-.65-3.91-1.6-7.79-2.56-11.62-.31,4,.53,8.47,1.19,12.44-1.75.87-4.23,1.38-6.13,2.19-.41.18-1.8-3.94-1.92-4.29a22,22,0,0,1-.91-9.06,21.86,21.86,0,0,0,.27,9.42c.3,1.06,2.05,3.74,1.92,4.67-.06.45-.68,0-.82-.1-1.87-.74-2.87-.59-3.66-2.56a18.62,18.62,0,0,1-1.37-7.4c0-1.31.91-2.54.91-3.75A64.33,64.33,0,0,1,34.65.32c0,1.66,1,3.52,1.19,5.21a61.1,61.1,0,0,1,.28,7.77C34.85,12.67,33.68,13.18,32.46,13.49Z"/><path class="b695829d-f90e-423c-9953-cde6b793a542" d="M14.08,19.25c-1.1-2.2-4-3.7-4.21-6.68C9.47,6.69,14.66,5,19.38,3.43a12.77,12.77,0,0,0-1.19,9.05c.16.53,2,4.28,2,4.3-1.69,1.13-2.54-.88-4.3,0a12.51,12.51,0,0,1-1.19-9A9.5,9.5,0,0,0,14,14c.1.4,1.47,2.88,1.37,3.1A19.46,19.46,0,0,1,14.08,19.25Z"/><path class="fd37ba62-6688-4950-b8d4-1d2ff2caee92" d="M10.24,8.37c0,1.46-.82,3-.82,4.57,0,2.14,2.67,6.13,4.57,6.76,0,2.72-3.74-2.12-4.39-3.2C7.69,13.32,8.82,11.2,10.24,8.37Z"/><path class="f83791ac-2931-4952-949f-19a96fc00dcc" d="M14,19.7c-3.48-1.74-5.65-7.36-3.84-11,.41.82-.53,3.72.18,5.49C10.92,15.68,14.23,18.51,14,19.7Z"/><path class="ba036205-6540-45a5-8d73-ffe0e2bc440d" d="M52.94,19c4.33-2.16,4.62-8.31,2.75-12.07-.28.82.64,5.08.64,5.49,0,2.31-2.24,4.72-3.57,6.31Z"/><path class="a06d8095-e129-4fa5-a748-79942a875f1b" d="M24.32,17.05A22.14,22.14,0,0,1,22,3.24c.51,3.52-.33,10.1,2.75,13.17Z"/><path class="ba7365c4-5c78-4915-ad48-deb8f7b2e987" d="M19.38,3.43c.2.39-.44,1.54-.55,2a21.21,21.21,0,0,0-.36,4.66c0,2.34,1.38,4.5,2.38,6.5-.94.46-2-2.67-2.29-3.39C17.23,9.88,17.85,6.5,19.38,3.43Z"/><path class="edf789c8-e199-4830-b3f1-20477dbe50c6" d="M50.47,17.51C53.24,16.13,54,9,53.58,6.9,54.19,8.11,54,18.09,50.47,17.51Z"/><path class="bc39f255-644c-405d-b40f-4f09f1548422" d="M31.09,14.22c0-4-.95-8.23-1.28-12.26a64.24,64.24,0,0,1,2.65,11.53C32.49,13.73,31.33,14.22,31.09,14.22Z"/><path class="ad47b1d6-2455-4eef-a8c1-0445c3e8beb5" d="M44.71,16.69l-.27-.09c1.71-3.43,2.38-10.06-.64-13.08,0,1.12.87,2.4,1,3.57.35,2.91.21,6.82-1.18,9.6Z"/><path class="f99d8557-fc2c-4a0c-829f-918d9cf2bf80" d="M34.75.68a21.13,21.13,0,0,1,1.73,12.81c-1.19-.8-.25-2.87-.27-4.3A28.47,28.47,0,0,0,34.75.68Z"/><path class="b3fcf539-fb9e-4673-b79d-54161c77dc8d" d="M15.36,17.14c-1.44-2.87-2.25-6.19-.73-9.23.61,1.23-.37,2.74-.37,4.11,0,1.86,1.24,3.2,1.65,4.85Z"/><path class="a873fd60-1fcc-4fc0-81e4-13abd06c5800" d="M21.67,3.61c0,1.31-.86,2.73-.92,4.12-.11,2.65.64,4.73.64,7.13C20.45,11.07,19.29,7.18,21.67,3.61Z"/><path class="aa4f72c6-d22a-4f5f-92fa-e26ac4368dda" d="M32,30.86h.28a11,11,0,0,0-2.66,1.83c.4.2.12.21-.36.09-.46.93-1.58.79,0,1.74a2,2,0,0,1-1.19-.82A4.26,4.26,0,0,0,26.42,35c.42.2-3.65,3.56-3.65,5.57,0,.28,0,.46.27.46,0,.42,1.13,1.45,1.46,1.56,0,.25-.05.15.19.27-.13.25,0,.55.27.55-.35,1.07.3,2.46-1.37,3,1.69-1.69-2.16-3.81-3-4.67-1.46-1.46-.11-3.18.82-4.39-.87-.44-4.29,2-5.12,2.38s-2.33.61-3,1.46C10.18,45,9.71,55.46,10.42,59.76h.18a2.51,2.51,0,0,0,0,.82h.19v.28H11a2.2,2.2,0,0,1-.18.64l.18.09-.09.27.18.09-.09.28.18.09-.09.18.18.09a.87.87,0,0,0,.28.92l-.09.18.18.09-.09.18.18.1c-.14.27,0,.45.09.73H12l-.1.18c.24.24.17.41.28.73h.18l-.09.18h.18c-.19.59.43.35.19.83h.18l-.09.18h.18l-.09.18H13c-.12.25,0,.55.28.55l-.1.19c.89,0-1.56.7-1.92.82-1.36.45-3.36,1.31-3.74,2.83-1,4.18,4.55,10.16-2.29,11.52,3.27-1.08,1.69-4.79.27-6.67C1.89,71.52,3.42,66.15,9.6,64.6c0-.72-2.28-2.46-2.84-3a25,25,0,0,1-5.12-8.05C-3.09,41.71,3,31.3,12,23.64c.32.64-.31,1.6,0,2.37.38.95,1.73.73,2.37,1.38s.57,1.66,1.19,2.28c-.77.52-2.11.52-3,.83a10,10,0,0,0,3.66-.19c1.39,2.77,6.42-1.24,8.14-1.73.49-.14,2.84.08,2.84.73-2,0-4.79,1.72-6.77,2.28-3.61,1-8.5,1.37-11.8,3,6.82.3,12.8-2.67,18.93-5.12C28.33,29.17,32,30.07,32,30.86Z"/><path class="b673dff6-8748-4508-aefc-746e4ef328cf" d="M55.32,49c-.49-2.44-1.46-7.46-3.57-9.15-1.48-1.18-4.6-1.66-6.4-2.56-1.15-.57-3.27-2.47-4.48-2.47-.65,0-1.23,1.1-2,1.1a17.09,17.09,0,0,1,1.92-1.19,18,18,0,0,0-1.92-1.19c-.29.29-1,1-1.37,1,.41-.42.87-.78,1.28-1.19a20.07,20.07,0,0,1-3-2.1c.4-.8,1.49-.73,2.2-1,.58,1.16,2.51,2.14,3.56,2.93,6.61,5,14.74,6,22.86,6.12-8.21-1-19.67-3-25.87-9.23,1.84-1.23,4.12.9,6.21,1.74a53,53,0,0,0,16.74,3.47C56.33,34,51.3,33.18,46.27,31.5c1-.34,2,.43,3.11,0S50.71,30,51.3,29.12c.27-.4,1,0,1.46,0,1,0,.18-.91,2.56-.91l-1.55-.09c1-2,1.36-5.4-1-6.59.13-.25.13-.52.37-.64,3.68,3.69,7.32,7.08,10.15,11.8,5.8,9.68,3.08,24-6.13,30.91,3.37.84,7.09,4.17,6.13,8.05-1,4.08-6.18,6.25-2,10.42-5.75-.82-1.92-7.74-1.92-11.34,0-2.16-4.11-3.21-5.67-3.47.51-1.52,1-3,1.38-4.58C53.66,63.61,55.87,51.73,55.32,49Z"/><path class="bfe36aca-0e03-4ac6-8cf1-594816f1a8cc" d="M30.26,30.13c-1.08,1.62-4,2.84-5.66,3.84-6.81,4.08-14,6.81-22,7C12.72,39,21.17,34.68,30.26,30.13Z"/><path class="be132b2a-7d04-40e5-85a2-a8c927400d61" d="M38,30.22A1.12,1.12,0,0,0,38.5,30c5.78,5.79,18.24,8.19,25.87,9.14C57,39.3,42.75,37.43,38,30.22Z"/><path class="b7893373-f53d-46f0-85ea-cdeacc27a3e4" d="M10.7,65.7c-5.42,2.71-5,4.35-5,9.51C3.58,72.09,4.05,69,7.4,67,8,66.61,10.08,65.4,10.7,65.7Z"/><path class="bc7ed881-ed1e-4c0c-b688-4becf247a734" d="M56.24,64.88c4,0,6.41,5,4.29,8.14,0-1,.37-1.94.37-3C60.9,66.71,57.05,66.52,56.24,64.88Z"/><path class="aa36260e-74a6-4576-86c3-0605b3110320" d="M55.87,46.22c1.13,2.27,7.36,2.57,9.24,2.84C63.68,49.77,55.87,49.27,55.87,46.22Z"/><path class="fde82e13-0d7b-4673-a84b-5977de7bc954" d="M10.51,46.86c0,3.19-8.19,3.31-9.32,2.93A18.66,18.66,0,0,0,10.51,46.86Z"/><path class="b50d0d62-c59d-425e-b475-1f87de9cc500" d="M11.24,42.29c0,3.26-8.2,3.21-9.32,2.93A18.56,18.56,0,0,0,11.24,42.29Z"/><path class="b0e06949-61fe-43a4-9bf3-906e57bcc052" d="M55.14,41.65c1.13,2.27,7.36,2.57,9.23,2.84C63.2,44.88,55.14,44.9,55.14,41.65Z"/><path class="a75c4604-9b68-4822-b56a-054fbf9fb2f3" d="M23,36.71c-1.22,1.53-2,2-2,4,0,.47.55.69.55,1.19C20.52,39.8,20.44,38,23,36.71Z"/><path class="f4ae1a1d-e537-4b7e-90ee-eb5238062154" d="M36,30.31c0,1.9-3.62,0-4.21-.18C33.16,29.6,34.67,30,36,30.31Z"/><path class="e464309c-c601-4658-8e10-343447c26662" d="M16.09,30.31c-.78.39-3,.24-3.66.28C13.53,30.22,15.24,29.46,16.09,30.31Z"/><path class="ac84ce99-6ea9-4917-933d-e933883fa514" d="M12.25,26.2h-.18c0-1.95,2-9.12,4.2-9.51,1.68-.3,1.46.73,2.66.73,1.78,0,3.18-1,5.21,0,2.08-2.08,3.5-2,6.4-2.65.53-.13,1.44-1,1.92-1.28,3.11-1.56,5,.13,5.39,3a4.29,4.29,0,0,1,3.57,2.2c.19-.1.91-1.49,1.19-1.74,1-.84,9.42.55,10.15,1.65.59.88-.24,2.37.09,2.92,1.34,2.23,2.34,3.75.92,6.59h1.55a10.86,10.86,0,0,0-2.56,1c-.49,0-1.19-.4-1.46,0-1,1.44-1.32,2.56-3.39,2.56-1.44,0-3.31-.11-4.39-1.18-.77-.78-1.82-3.3-3.1-3.3,0,3.86-6.05,4.25-8.42,3.66,0-.25.06-.15-.18-.27A50.18,50.18,0,0,0,25,28.3c-2.5,0-5.39,4.29-7.95,2.74-1.45-.86-1.51-2.89-2.66-3.65C13.68,26.94,12.56,27.14,12.25,26.2Z"/><path d="M40.42,27.2a4.25,4.25,0,0,1-.83,2,54,54,0,0,0,21.86,6c-3.13-.78-6.39-1-9.51-1.92-1.75-.5-3.93-1.72-5.67-1.92-.53-.06-1.3.14-1.83-.18C43.14,30.45,42,27.2,40.42,27.2Z"/><path d="M28.07,29.31c-1.89,0-5,2-6.77,2.74A38.49,38.49,0,0,1,8.5,34.7c2-1,4.81-1,7-1.64,4-1.14,7.81-2.45,11.71-3.75v-.19C27.59,29.12,27.28,29.11,28.07,29.31Z"/><path class="ac84ce99-6ea9-4917-933d-e933883fa514" d="M35.57,29.86c1.92-1.92,3-3.52,1.74-6.68-.85-2.11-4.37-4-5.76-1.19-.92-2.76,4.18-2.42,5.3-2.1C41.53,21.22,40.56,33.18,35.57,29.86Z"/><path class="ac84ce99-6ea9-4917-933d-e933883fa514" d="M30.91,27.93c2.38-.59,6.38-1,5.12-4.84-.46-1.36-3.39-1.36-3.39,0,0,.78,1.56.78,1.56-.46H34c.3-.29.1-.2.64-.09.29,2.59-2.92,2-2.92-.09,0-2.4,3.95-1.43,4.75-.09C39.76,27.82,34.13,32.78,30.91,27.93Z"/><path class="ac84ce99-6ea9-4917-933d-e933883fa514" d="M37.21,18.52c-.42,0-1.54-1.9-2-2.29-2.33-1.94-5.22.76-5.76,2.93-3.22-1.61,7.17-10.5,8-3A6.76,6.76,0,0,1,37.21,18.52Z"/><path class="ac84ce99-6ea9-4917-933d-e933883fa514" d="M46.18,30.59c5.5-.92,3.92-10.06-.19-7.32,1.38-1.55,5.23-.92,5.49,1.46C51.82,27.83,50.36,33.38,46.18,30.59Z"/><path class="ac84ce99-6ea9-4917-933d-e933883fa514" d="M43.52,27.2c.74,1.48,4.79,1.07,5.22-.64,1-4.07-3.5-1.9-1.65-1.37.76.22.38-.42.82-.64.78.77-.55,1.26-1.18,1.19-1.54-.17-.78-2.69,1-2.56,3.32.24,1.44,5.33,0,6.77C46,31.7,43.52,28.74,43.52,27.2Z"/><path class="ac84ce99-6ea9-4917-933d-e933883fa514" d="M29.44,20.71c0,.65.55,1.19.82,1.74-2.66,2.66,2,4.17,3.66,4.3C30.61,31.16,24.89,20.71,29.44,20.71Z"/><path class="ac84ce99-6ea9-4917-933d-e933883fa514" d="M38,20.07c-4.19-2.09-6.5-.48-7,3.57-.67-2,0-5.24,2.65-5.49C34.55,18.06,38,18.52,38,20.07Z"/><path class="ac84ce99-6ea9-4917-933d-e933883fa514" d="M19.66,19.06c-2.87,0-4.48-.08-4.48,3.39a1.94,1.94,0,0,0,.55,1.19l-.19.18C11.38,21.74,16.67,13.1,19.66,19.06Z"/><path class="ac84ce99-6ea9-4917-933d-e933883fa514" d="M51.3,22.81c0-3.13-3.53-5.72-5.76-2.37-.79-3.15,5.54-3.52,7-1.65C53.1,19.61,52.59,22.81,51.3,22.81Z"/><path class="ac84ce99-6ea9-4917-933d-e933883fa514" d="M37.85,16.87c3.51,0,6.53,7.56,2.47,8.14C40.32,21.76,37,19.85,37.85,16.87Z"/><path class="ac84ce99-6ea9-4917-933d-e933883fa514" d="M36.39,18.24c-4.51,0-4.14-.78-6.22,3.39C28.65,17.06,34.14,13.75,36.39,18.24Z"/><path class="ac84ce99-6ea9-4917-933d-e933883fa514" d="M24.05,27.11c-.61.61-1.71.5-2.47.55.69-1.38,1.71-2.18,1.55-4.11a1.66,1.66,0,1,0-3.29.45c.86.18,1.33-.62.37-1,.16-.32,0-.15.45-.46.57.57.79,1.34.09,1.92-1.69,1.41-3.05-2.77,0-3.11C24.91,20.89,23,25.09,24.05,27.11Z"/><path class="ac84ce99-6ea9-4917-933d-e933883fa514" d="M29.9,15.13c0,1.58-2.07,1.37-2.93,2-1.52,1.15-1.46,2.12-1.46,4C23.58,17.31,25.46,15.13,29.9,15.13Z"/><path class="ac84ce99-6ea9-4917-933d-e933883fa514" d="M25.24,21.44c1.37-.3,1.14,4,1.18,4.67A4.29,4.29,0,0,0,27.06,28c.2.26.87.5.64.73C25.68,30.78,21.69,22.22,25.24,21.44Z"/><path class="ac84ce99-6ea9-4917-933d-e933883fa514" d="M24.14,22.63c-2-2-5.67-2-5.67,1.46C15.33,17.83,27.58,19.19,24.14,22.63Z"/><path class="ac84ce99-6ea9-4917-933d-e933883fa514" d="M28.71,17a14.47,14.47,0,0,0,.64,3.38c-3.42,0-1.19,3.45-1.19,5C27.12,23.3,23.21,17,28.71,17Z"/><path class="ac84ce99-6ea9-4917-933d-e933883fa514" d="M26.79,24.28c1.6,1.6,4.37,3.33,5.4,5.39C28.23,29.67,26.79,28.28,26.79,24.28Z"/><path class="ac84ce99-6ea9-4917-933d-e933883fa514" d="M14.26,23c.42.83,1.44,1,2.2,1.37-1.51,2,.64,2.65,2.1,3.38C16.72,27.91,10.56,24.85,14.26,23Z"/><path class="ac84ce99-6ea9-4917-933d-e933883fa514" d="M35.2,22.45a4,4,0,0,1,.73,2.47c0,3.72-8,.62-5.57-1.83,0,.46.46,1.28.91,1.28,0,1,1.51,1.34,2.2.82.53-.4,1.37-.94,1.55-1.64C35.12,23.14,34.75,22.67,35.2,22.45Z"/><path class="ac84ce99-6ea9-4917-933d-e933883fa514" d="M44,21.26c2.16-.58-.09,3-.09,4.39,0,.61.9,1.27,1.37,1.46.31.12,1.13.43.82.55C42.87,29,41.18,22,44,21.26Z"/><path class="ac84ce99-6ea9-4917-933d-e933883fa514" d="M20.94,19.34c-2.15,1.07-5,4.21-1.74,5.85C17.05,25.91,15.52,18.8,20.94,19.34Z"/><path class="ac84ce99-6ea9-4917-933d-e933883fa514" d="M14.81,27.29c1.5-.91,2.21,1.26,3.48,2,.5.3,2.21.61,1.92.91C18.13,32.3,13.35,28.18,14.81,27.29Z"/><path class="ac84ce99-6ea9-4917-933d-e933883fa514" d="M16.64,24.64c1.18-.78,1.33,1,2.19,1.65a2.47,2.47,0,0,0,2.47.18c.47-.35,1.07-1.73,1.28-1.19C24.21,29.36,13.3,26.87,16.64,24.64Z"/><path class="ac84ce99-6ea9-4917-933d-e933883fa514" d="M51.48,24.19c-1.56-3.12-5-2.54-6.4.18C44.4,20.31,51.48,20.17,51.48,24.19Z"/><path class="ac84ce99-6ea9-4917-933d-e933883fa514" d="M52.67,21.81a3.39,3.39,0,0,1,1.37,2c.42,1.47,0,5.47-2.38,5a.27.27,0,0,1-.18-.18c-.31-1.08.55-2.4.55-3.48,0-.49-.6-1.68-.46-2.1S52.32,21.58,52.67,21.81Z"/><path class="ac84ce99-6ea9-4917-933d-e933883fa514" d="M19,19.16c0,1.69-4.13,1.26-1.37,5.39C15.52,25.26,13.65,18.08,19,19.16Z"/><path class="ac84ce99-6ea9-4917-933d-e933883fa514" d="M20.75,16.87c2.58-.11,2.76.33,3.3,2.47.05.2.52.84.36,1a5.5,5.5,0,0,1-.55-.27c-1.13-.57-4.75-.86-4.75-2.29C19.11,17.25,20.41,16.89,20.75,16.87Z"/><path class="ac84ce99-6ea9-4917-933d-e933883fa514" d="M18.47,25.47c1.74-.58,3,1.09,3-1.92a1.18,1.18,0,0,0-.83-1.19c.34-.69,2,.63,2.11,1.19C23.23,25.86,19.83,27.5,18.47,25.47Z"/><path class="ac84ce99-6ea9-4917-933d-e933883fa514" d="M50.93,22.27c-1.39-2.79-4.14-.63-5.76.18C45.17,18.61,50.93,18.05,50.93,22.27Z"/><path class="ac84ce99-6ea9-4917-933d-e933883fa514" d="M44.71,23.55c.16.46,0,.88.09,1.37H45c0,2.16,3.16,1.45,3.56-.19C50.4,28.42,41.77,28,44.71,23.55Z"/><path class="ac84ce99-6ea9-4917-933d-e933883fa514" d="M47.27,17.6c-.83,1.66-5-.69-5,2.38h-.18C41,16.75,45.17,16.2,47.27,17.6Z"/><path class="ac84ce99-6ea9-4917-933d-e933883fa514" d="M45.81,18.7a3.77,3.77,0,0,0-.64,2.47c-1.52,0-1.83-.09-2.56,1.37C41.8,20.11,44.57,16.21,45.81,18.7Z"/><path class="ac84ce99-6ea9-4917-933d-e933883fa514" d="M13.8,21.35a2,2,0,0,0,.28,1.28c-1.17,1.56-.94,3.51.82,4.39C11,28.33,12.6,22.86,13.8,21.35Z"/><path class="ac84ce99-6ea9-4917-933d-e933883fa514" d="M42.06,24.55c.59,1.19.75,3.41,1.65,4.3-.35.35-.87-.11-1.19-.37-1-.82-1.77-1.46-1.65-3C40.89,25.22,41.89,24.81,42.06,24.55Z"/><path class="ac84ce99-6ea9-4917-933d-e933883fa514" d="M23.22,27.84c0,2.37-5.67,2.37-5.67.28A26.53,26.53,0,0,0,23.22,27.84Z"/><path class="f1305c91-69e4-456a-a13b-bae53fe7b99a" d="M43.43,29.31c.41-.43,1.77.67,2.2,1.09.11.12.73.72.55.74C45.59,31.17,42.46,30.31,43.43,29.31Z"/><path class="ac84ce99-6ea9-4917-933d-e933883fa514" d="M31.45,22.72c0,1.06,1.11,1.74,2,1.92C32.21,26.53,31.45,23.54,31.45,22.72Z"/><path class="ac84ce99-6ea9-4917-933d-e933883fa514" d="M45.63,23.91c0,.69,0,1.66.82,1.92V26C45.2,26,45,24.89,45.63,23.91Z"/><path class="ac84ce99-6ea9-4917-933d-e933883fa514" d="M21.12,24.55c0,1.54-1.41.53-2.1.18C19.72,24.5,20.41,25,21.12,24.55Z"/></g></g></g></svg>