<svg xmlns="http://www.w3.org/2000/svg" xmlns:xlink="http://www.w3.org/1999/xlink" viewBox="0 0 55.54 36.39"><defs><style>.a4845b75-ab72-47c6-b6f8-35840bcd836b,.ac8868cf-6588-4c28-be52-98ed4f72d01a,.e58bedd1-2f12-489e-bd3e-17826151c463,.ed136189-c290-4a9d-b466-f3d6656d063e,.ee63a471-4e36-43b8-9173-a74c80338b07{stroke:#000;stroke-miterlimit:5;stroke-width:1.25px;}.ee63a471-4e36-43b8-9173-a74c80338b07{fill:url(#abdb3570-f9fe-4e39-8bb1-45f6b689dcd8);}.a4845b75-ab72-47c6-b6f8-35840bcd836b{fill:url(#a210cfd3-8af0-46be-a645-f3f359ad3e3d);}.ed136189-c290-4a9d-b466-f3d6656d063e{fill:url(#a4c1d486-f7ad-4ade-a157-aa1ab2683af1);}.e58bedd1-2f12-489e-bd3e-17826151c463{fill:url(#e728c447-6ed1-4c1a-8ec4-3dd41f3bbe2d);}</style><linearGradient id="abdb3570-f9fe-4e39-8bb1-45f6b689dcd8" x1="-972.76" y1="529.51" x2="-929.36" y2="529.51" gradientTransform="matrix(1.25, 0, 0, -1.25, 1216.58, 692.39)" gradientUnits="userSpaceOnUse"><stop offset="0"/><stop offset="1" stop-color="#2f2c2c"/></linearGradient><linearGradient id="a210cfd3-8af0-46be-a645-f3f359ad3e3d" x1="-972.76" y1="531.47" x2="-929.33" y2="531.47" xlink:href="#abdb3570-f9fe-4e39-8bb1-45f6b689dcd8"/><linearGradient id="a4c1d486-f7ad-4ade-a157-aa1ab2683af1" x1="-971.49" y1="531.84" x2="-930.21" y2="531.84" xlink:href="#abdb3570-f9fe-4e39-8bb1-45f6b689dcd8"/><linearGradient id="e728c447-6ed1-4c1a-8ec4-3dd41f3bbe2d" x1="-966.19" y1="543.87" x2="-935.94" y2="543.87" gradientTransform="matrix(1.25, 0, 0, -1.25, 1216.58, 692.39)" gradientUnits="userSpaceOnUse"><stop offset="0"/><stop offset="1" stop-color="#353535"/></linearGradient></defs><g id="bfe99320-b6c8-47a2-8949-889f71ffbce2" data-name="Layer 2"><g id="b87e34ca-a69d-4623-b757-0e43f06f647d" data-name="Layer 1"><g id="b8d97aca-01fa-41f4-973b-5744a5d04e4c" data-name="Untitled"><path class="ee63a471-4e36-43b8-9173-a74c80338b07" d="M54.88,25.44a5.36,5.36,0,0,1-.1.62,7.44,7.44,0,0,1-2.3,3.7A20,20,0,0,1,44.59,34a29.71,29.71,0,0,1-5.42,1.1c-10.31,1.2-21.13,1-31.07-2.27C4.92,31.75.55,29.12.63,25.26h0c.28.39.6.81,1,1.26A15.15,15.15,0,0,0,8.1,31.27a36.45,36.45,0,0,0,7.62,2.05,92.74,92.74,0,0,0,24.4.51,24.43,24.43,0,0,0,6.74-1.68,19.31,19.31,0,0,0,4.4-2.49,12.32,12.32,0,0,0,2.86-2.86A10.57,10.57,0,0,0,54.88,25.44Z"/><path class="a4845b75-ab72-47c6-b6f8-35840bcd836b" d="M53.53,21.82c-1.2-.47-2.6.65-2.78.8-3.65,3-7.89,3.39-12.43,3.57a119.5,119.5,0,0,1-15.49,0A61.92,61.92,0,0,1,12.65,24.6c-1-.27-3.09-.85-5.43-1.61-1.48-.48-3.2-1.37-4.8-1.21S.66,23.93.63,25.25c.28.39.6.81,1,1.26A15.15,15.15,0,0,0,8.1,31.27a36.45,36.45,0,0,0,7.62,2.05,92.74,92.74,0,0,0,24.4.51,24.43,24.43,0,0,0,6.74-1.68,19.31,19.31,0,0,0,4.4-2.49,12.52,12.52,0,0,0,2.86-2.86,10.57,10.57,0,0,0,.76-1.36h0C55,24.12,54.8,22.31,53.53,21.82Zm0,3a10.45,10.45,0,0,1-4.12,4.06C44,32,37.33,32.15,31.17,32c-6.71-.18-14-.16-20.43-2.1a20.77,20.77,0,0,1-4.47-2c-1.21-.72-3.8-2.32-4-3.84a.72.72,0,0,1,.14-.61c.91-.89,3.7.5,4.56.93,3,1.5,6.76,2.18,10,2.68a81.49,81.49,0,0,0,11.9.81c3.07,0,6.14-.08,9.19-.17,4.57-.13,9.38-.71,13.15-3.52C52,23.56,54.61,22.79,53.57,24.78Z"/><path class="ed136189-c290-4a9d-b466-f3d6656d063e" d="M53.57,24.78a10.45,10.45,0,0,1-4.12,4.06C44,32,37.33,32.15,31.17,32c-6.71-.18-14-.16-20.43-2.1a20.77,20.77,0,0,1-4.47-2c-1.21-.72-3.8-2.32-4-3.84a.72.72,0,0,1,.14-.61c.91-.89,3.7.5,4.56.93,3,1.5,6.76,2.18,10,2.68a81.49,81.49,0,0,0,11.9.81c3.07,0,6.14-.08,9.19-.17,4.57-.13,9.38-.71,13.15-3.52C52,23.56,54.61,22.79,53.57,24.78Z"/><path class="ac8868cf-6588-4c28-be52-98ed4f72d01a" d="M47.32,29.8a44.68,44.68,0,0,1-17.63,3,72.43,72.43,0,0,1-17.86-2.71c-1.31-.38-2.47-.74-3.41-1.06.06-1.37.13-2.63.2-3.76s.14-2.05.22-3.07A68.18,68.18,0,0,0,19,24a103.39,103.39,0,0,0,13.17.42c4.09-.12,8.65-.08,12.64-1.08.66-.17,1.29-.36,1.87-.55C46.85,25,47.08,27.29,47.32,29.8Z"/><path class="e58bedd1-2f12-489e-bd3e-17826151c463" d="M46.65,22.8c-.58.19-1.21.38-1.87.55-4,1-8.55,1-12.64,1.08A103.39,103.39,0,0,1,19,24,68.18,68.18,0,0,1,8.84,22.23C9,20.6,9.11,19,9.2,17.35a34.65,34.65,0,0,1,1.32-8.8,10.28,10.28,0,0,1,5.37-6.07A13.27,13.27,0,0,1,20,1.16,46.4,46.4,0,0,1,30.22.74c3.21.24,7.06.67,9.92,2.23a10.1,10.1,0,0,1,4.19,3.66,9.63,9.63,0,0,1,1.31,4.56C45.82,13.9,46.18,17.84,46.65,22.8Z"/></g></g></g></svg>