<svg xmlns="http://www.w3.org/2000/svg" viewBox="0 0 209.48 384.77"><defs><style>.b5245374-279e-4fe3-a1c9-9a49784f97e2{fill:#010101;fill-rule:evenodd;}</style></defs><g id="a04eb8b9-0cae-4bfb-a247-21d31187c031" data-name="Layer 2"><g id="fc0e5339-ccdc-450a-a48c-7ac2b02457b3" data-name="Layer 1"><path class="b5245374-279e-4fe3-a1c9-9a49784f97e2" d="M27.5,124.15a4,4,0,0,1,4.64,3.23L71.51,347a4,4,0,1,1-7.86,1.41L24.28,128.79a4,4,0,0,1,3.22-4.64Zm47.25-4.48a4,4,0,0,0,0,8h26v42.7a4,4,0,0,0,8,0v-42.7h26a4,4,0,1,0,0-8h-26V100a4,4,0,0,0-8,0v19.67ZM55.88,384.77h97.77a4,4,0,0,0,4-3.49l51.78-266.13a4.09,4.09,0,0,0-.19-2.22L168.28,2.61A4,4,0,0,0,164.47,0H45a4,4,0,0,0-3.8,2.71L.25,113a4,4,0,0,0-.12,2.39L51.91,381.51a4,4,0,0,0,4,3.26ZM141.2,351.6A4,4,0,0,1,138,347l18.27-101.89,21.1-117.69a4,4,0,1,1,7.86,1.41l-3.87,21.6-35.5,198A4,4,0,0,1,141.2,351.6Z"/></g></g></svg>