<svg xmlns="http://www.w3.org/2000/svg" xmlns:xlink="http://www.w3.org/1999/xlink" viewBox="0 0 28.88 40.46"><defs><style>.a1fd3414-d647-4050-bbf1-6c0ef9beefe2,.a2cd900a-e65e-4ea1-806a-5afa30ee7296,.a72a911f-08ab-4d53-bcb4-daf18342a31e,.b7a46170-38bb-41a1-98e8-684167702597,.e06f3e81-1026-4b27-ba28-aa2d659f90a9,.e638afe9-9b99-4153-bf29-c66c9348607f,.e97b9e97-7560-4952-91d7-4a07b6fa107f,.f34a4abc-fcb2-4bc2-bd2c-24b08ac0bb57,.faa622b0-9063-4600-93f6-aa031f1ff457{stroke:#000;stroke-linecap:round;stroke-linejoin:round;stroke-width:0.84px;}.a1fd3414-d647-4050-bbf1-6c0ef9beefe2{fill:#f5f7e9;}.faa622b0-9063-4600-93f6-aa031f1ff457{fill:url(#f16e8d81-7779-4c1e-bd7f-319649486f16);}.e06f3e81-1026-4b27-ba28-aa2d659f90a9{fill:url(#af858742-0853-408d-836c-d659edb61801);}.e638afe9-9b99-4153-bf29-c66c9348607f{fill:#c52b31;}.a72a911f-08ab-4d53-bcb4-daf18342a31e{fill:#fff;}.a2cd900a-e65e-4ea1-806a-5afa30ee7296{fill:#2b2929;}.f34a4abc-fcb2-4bc2-bd2c-24b08ac0bb57{fill:#f4e5cd;}.e97b9e97-7560-4952-91d7-4a07b6fa107f{fill:#f4e5ce;}</style><radialGradient id="f16e8d81-7779-4c1e-bd7f-319649486f16" cx="-654.22" cy="392.8" r="9.37" gradientTransform="matrix(0.84, 0, 0, -0.84, 566.46, 344.29)" gradientUnits="userSpaceOnUse"><stop offset="0" stop-color="red"/><stop offset="0.08" stop-color="#fba658"/><stop offset="0.21" stop-color="#f6789c"/><stop offset="0.33" stop-color="#c86bd5"/><stop offset="0.44" stop-color="#9c88db"/><stop offset="1" stop-color="#fff"/></radialGradient><radialGradient id="af858742-0853-408d-836c-d659edb61801" cx="-654.21" cy="392.91" r="5.49" gradientTransform="matrix(0.84, 0, 0, -0.84, 566.46, 344.29)" gradientUnits="userSpaceOnUse"><stop offset="1"/><stop offset="1" stop-color="#fff"/></radialGradient></defs><g id="f69ea10c-5cee-437f-9e1d-ff4f2f10e4a6" data-name="Layer 2"><g id="b859bbd0-9acd-49a8-9812-3da41501a0d2" data-name="Layer 1"><path class="b7a46170-38bb-41a1-98e8-684167702597" d="M13.63.45C18.88.15,22.78,2.68,25.37,7c4.26,7.09-.94,17.22-9,18.12C4,26.49-2.83,12.53,6.11,3.58A11.34,11.34,0,0,1,13.63.45Z"/><path class="a1fd3414-d647-4050-bbf1-6c0ef9beefe2" d="M13.74,1.2a11.65,11.65,0,0,1,10.87,6c4,6.69-.81,16.9-8.87,17.2a12.4,12.4,0,0,1-9.95-3.68C1,15.91,2.1,6.64,8,3.1A11.73,11.73,0,0,1,13.74,1.2Z"/><path class="b7a46170-38bb-41a1-98e8-684167702597" d="M20,38.85a2.73,2.73,0,0,0-3.52-3.46c-.85.34-1.24,1.46-2.16,1.46-.77,0-1.27-1.11-2-1.41-2-.78-4.67,1.23-3.57,3.41-3.1-.77-6.18-4.37-7.31-7.19-.38-.95-2.2-4.91.11-4.33v.11c.19,0,5.27,1.7,5.3,1.73.8.64.28,2.76,1,3.52a16.86,16.86,0,0,0,.81-3.2c3.74-.28,7.57.58,11.36,0a15.16,15.16,0,0,0,.81,3.25H21a10.46,10.46,0,0,1,.87-3.52c.08-.18,1.33-.27,1.56-.33,1.2-.26,3.54-1.79,4.66-1.51,0,.24.38.51.38.87C28.46,32.27,23.61,37.65,20,38.85Z"/><path class="faa622b0-9063-4600-93f6-aa031f1ff457" d="M18.61,6v.11l.32.1v.11h.17a20.06,20.06,0,0,0,1.78,1.79c0,.41.63,1.12.81,1.57a8.05,8.05,0,0,1,.49,4.92,7.34,7.34,0,0,1-1.78,3.46A8.23,8.23,0,0,1,17,20.35C6.22,24,1.91,7.12,13.25,5,15.5,4.57,16.72,5.39,18.61,6Z"/><path class="e06f3e81-1026-4b27-ba28-aa2d659f90a9" d="M15.69,8.29c-1.54,3.08,1.3,3.35,3.24,3.35a4.4,4.4,0,0,1-.48,3.63c-.57.76-1.27,1.74-2.27,1.94a6.19,6.19,0,0,1-3.36.11C7.47,15.54,9.89,6.36,15.69,8.29Z"/><path class="e638afe9-9b99-4153-bf29-c66c9348607f" d="M20,38.85c1.28-1.8-1.3-4.35-3.52-3.46-.85.34-1.24,1.46-2.16,1.46-1.41,0-1.5-2.46-4-1.46-.84.34-2.61,2.36-1.56,3.41.74.75,2.77,1,3.73,1.08a23.59,23.59,0,0,0,3.14.16C17.13,40,19.21,40,20,38.85Z"/><path class="a72a911f-08ab-4d53-bcb4-daf18342a31e" d="M18.93,11.48c1.13,0,1.14-2,1.14-2.6,0-1.34-1.95-1.73-2.87-1.73-.48,0-1.32.82-1.46,1.09C16.91,8.82,18.93,9.9,18.93,11.48Z"/><path class="a2cd900a-e65e-4ea1-806a-5afa30ee7296" d="M18.93,11.48c0,.51-1.79.36-1.89.33a2.52,2.52,0,0,1-1.68-2.44C15.36,6.9,18.93,10.1,18.93,11.48Z"/><path class="f34a4abc-fcb2-4bc2-bd2c-24b08ac0bb57" d="M8.77,29.44c-.59-.15-1.22-.13-1.79-.32a7.5,7.5,0,0,0,.92,3.57C8.37,31.74,8.36,30.45,8.77,29.44Z"/><path class="e97b9e97-7560-4952-91d7-4a07b6fa107f" d="M20.07,29.44a8.42,8.42,0,0,1,1.73-.27c.23.92-.58,2.58-.81,3.52h-.11A11.65,11.65,0,0,0,20.07,29.44Z"/></g></g></svg>