<svg xmlns="http://www.w3.org/2000/svg" xmlns:xlink="http://www.w3.org/1999/xlink" viewBox="0 0 59.11 46.02"><defs><style>.a790e7bd-ea43-4fb2-9dec-6915d16136ec,.a7b567b5-ab80-4373-b9f3-f6606e7d3c34,.aad7f454-e881-4358-a0d5-0224fcc4bb06,.ac321504-1fba-4dcd-8dd1-176ff82d3676,.b41874ca-eb9d-496e-ab5a-351ab0ac5067,.bfed800b-b4ee-45e8-a2fe-e8e2d1ed2477,.ee6d38aa-9e54-4fde-a6ec-fd21853364a5{stroke:#000;stroke-miterlimit:10;}.ee6d38aa-9e54-4fde-a6ec-fd21853364a5{fill:url(#e3044b18-cb2c-4b9f-b220-abef93796eb7);}.b41874ca-eb9d-496e-ab5a-351ab0ac5067{fill:url(#ff10aa59-c45b-4bba-938e-62d75d5053c5);}.a790e7bd-ea43-4fb2-9dec-6915d16136ec{fill:url(#abc617c0-0f96-4095-8a8d-2566105c40ce);}.a7b567b5-ab80-4373-b9f3-f6606e7d3c34{fill:url(#a779eedf-9f1d-4a56-a066-123753234a88);}.ac321504-1fba-4dcd-8dd1-176ff82d3676{fill:url(#bdab3c53-3b7f-4008-8e12-f5c2dab28848);}.bfed800b-b4ee-45e8-a2fe-e8e2d1ed2477{fill:url(#ff238a79-688f-43ec-85fd-6bee1e7881ec);}.aad7f454-e881-4358-a0d5-0224fcc4bb06{fill:url(#e167bb2b-cbb4-48b4-b5d0-1ef083e18dc3);}</style><linearGradient id="e3044b18-cb2c-4b9f-b220-abef93796eb7" x1="-641.75" y1="440.02" x2="-634.84" y2="440.02" gradientTransform="matrix(0.84, 0, 0, -0.84, 568.73, 375.21)" gradientUnits="userSpaceOnUse"><stop offset="0" stop-color="#fedf1a"/><stop offset="0.15" stop-color="#fba658"/><stop offset="0.23" stop-color="#f6789c"/><stop offset="0.29" stop-color="#c86bd5"/><stop offset="0.39" stop-color="#9c88db"/><stop offset="0.49" stop-color="#ae9ee2"/><stop offset="0.56" stop-color="#5caee4"/><stop offset="0.65" stop-color="#19d2e3"/><stop offset="0.75" stop-color="#18ddd4"/><stop offset="0.84" stop-color="#2de4ba"/><stop offset="0.89" stop-color="#80efd5"/><stop offset="0.95" stop-color="#62fc6c"/><stop offset="1" stop-color="#62fc6c"/></linearGradient><linearGradient id="ff10aa59-c45b-4bba-938e-62d75d5053c5" x1="-660.79" y1="434.18" x2="-654.05" y2="434.18" xlink:href="#e3044b18-cb2c-4b9f-b220-abef93796eb7"/><linearGradient id="abc617c0-0f96-4095-8a8d-2566105c40ce" x1="-621.87" y1="433.9" x2="-615.87" y2="433.9" xlink:href="#e3044b18-cb2c-4b9f-b220-abef93796eb7"/><linearGradient id="a779eedf-9f1d-4a56-a066-123753234a88" x1="-648.42" y1="433.6" x2="-644.41" y2="433.6" xlink:href="#e3044b18-cb2c-4b9f-b220-abef93796eb7"/><linearGradient id="bdab3c53-3b7f-4008-8e12-f5c2dab28848" x1="-631.81" y1="433.3" x2="-627.77" y2="433.3" xlink:href="#e3044b18-cb2c-4b9f-b220-abef93796eb7"/><radialGradient id="ff238a79-688f-43ec-85fd-6bee1e7881ec" cx="-657.2" cy="406.44" r="16.26" gradientTransform="matrix(0.84, 0, 0, -0.84, 568.73, 375.21)" gradientUnits="userSpaceOnUse"><stop offset="0" stop-color="#fedf1a"/><stop offset="0.08" stop-color="#fba658"/><stop offset="0.17" stop-color="#f6789c"/><stop offset="0.26" stop-color="#c86bd5"/><stop offset="0.36" stop-color="#9c88db"/><stop offset="0.46" stop-color="#ae9ee2"/><stop offset="0.56" stop-color="#5caee4"/><stop offset="0.65" stop-color="#19d2e3"/><stop offset="0.75" stop-color="#18ddd4"/><stop offset="0.76" stop-color="#2de4ba"/><stop offset="0.89" stop-color="#80efd5"/><stop offset="0.92" stop-color="#62fc6c"/><stop offset="1" stop-color="#62fc6c"/></radialGradient><radialGradient id="e167bb2b-cbb4-48b4-b5d0-1ef083e18dc3" cx="-620.85" cy="406.29" r="16.26" xlink:href="#ff238a79-688f-43ec-85fd-6bee1e7881ec"/></defs><g id="f5e44e6d-27ad-4387-87ef-e676ed4adbbb" data-name="Layer 2"><g id="b87a6e7b-4dec-4c98-9220-3dedf50f7a7e" data-name="Layer 1"><g id="b5a1ea70-6b5b-49c4-b477-2b1968740de3" data-name="Layer 1"><path class="ee6d38aa-9e54-4fde-a6ec-fd21853364a5" d="M30.24.67a18.44,18.44,0,0,1,2.84,3.55c-.64.32-1,.45-1.14,1.14l-.14-.28c-.54.8-.88,1.94-1.85,2.13,0-1.77-1.37-2.47-2.7-3.13C28.47,2.87,29.44,2.27,30.24.67Z"/><path class="b41874ca-eb9d-496e-ab5a-351ab0ac5067" d="M14.32,5.93c0,.84.47,1.26.71,2h.43v.43c.46,0,.86.33,1.42.42,0,.88-1.49,1.18-2,1.85-2.51,3.34-.8-1.42-3.7-1.42C11.48,8.62,13.69,5.93,14.32,5.93Z"/><path class="a790e7bd-ea43-4fb2-9dec-6915d16136ec" d="M47,5.93c0,.89,1.37,1.52,1,2.27,1.51.76,1,.63,1,2.14h-.28c0-.39,0-.2-.15-.57-.21.84-.54.46-1,1.13h.28c0,.68.17.49-.28.72v-.29c-.5.25-.42,1.57-1.42.57l.14-.28H46c0-1.37-1.48-1.53-2-2.56C44.6,8.48,46.55,5.93,47,5.93Z"/><path class="a7b567b5-ab80-4373-b9f3-f6606e7d3c34" d="M24.27,8.35l.57-.15c.2.62.41,2-.57,2,0,.33-.14.53-.14.86-1.58-.18-1.15.26-1.57-1-1.13,0-1.31-1.28-.14-1.28C22.67,7.79,23.64,7.08,24.27,8.35Z"/><path class="ac321504-1fba-4dcd-8dd1-176ff82d3676" d="M38.91,8.2l-.14.29h.28c0,.06-.71,2.4-.71,2.41l-.14-.71c-.51,2.05-2.23-.15-2.56-1C37.53,7.94,36.76,8.2,38.91,8.2Z"/><path class="bfed800b-b4ee-45e8-a2fe-e8e2d1ed2477" d="M16,20.65l1.28,2.6A8.55,8.55,0,0,0,23,27.43l2.87.42c2.2.32,2.69,1.83,1.1,3.38l-2.08,2A8.54,8.54,0,0,0,22.73,40l.49,2.86c.37,2.19-.92,3.12-2.88,2.09l-2.57-1.35a8.57,8.57,0,0,0-7.11,0L8.09,45c-2,1-3.25.1-2.87-2.09L5.71,40a8.55,8.55,0,0,0-2.2-6.76l-2.08-2c-1.59-1.55-1.09-3.06,1.1-3.38l2.87-.42a8.57,8.57,0,0,0,5.76-4.18l1.28-2.6C13.42,18.66,15,18.66,16,20.65Z"/><path class="aad7f454-e881-4358-a0d5-0224fcc4bb06" d="M46.67,20.78,48,23.38a8.55,8.55,0,0,0,5.76,4.18l2.87.42c2.19.32,2.68,1.83,1.09,3.38l-2.07,2a8.58,8.58,0,0,0-2.2,6.77L53.89,43c.38,2.18-.91,3.12-2.88,2.09l-2.56-1.35a8.51,8.51,0,0,0-7.12,0L38.77,45.1c-2,1-3.26.09-2.88-2.09l.49-2.86a8.54,8.54,0,0,0-2.2-6.77l-2.07-2C30.52,29.81,31,28.3,33.2,28l2.87-.42a8.55,8.55,0,0,0,5.76-4.18l1.28-2.6C44.09,18.79,45.69,18.79,46.67,20.78Z"/></g></g></g></svg>