<svg xmlns="http://www.w3.org/2000/svg" xmlns:xlink="http://www.w3.org/1999/xlink" viewBox="0 0 110.56 102.74"><defs><style>.eb5159f6-b85c-4c8d-b759-9adfde269d1a{fill:none;}.fc95188c-a1d9-4d8f-a6a7-e1908be79f45{clip-path:url(#b5843d98-cd5b-4139-9df0-9dc71b8b2c34);}.a2bd23bf-3b7d-4de4-861a-71726dbe0c77,.a3f8eb69-b9bc-4221-83a6-82d03206c3ad,.b1fc5da9-1440-4972-bcbe-a4a10801a423,.b2608b63-f1cb-4d46-a5e2-9f1a19b818b0,.b8efdf23-215f-4b94-a7fd-aa0ff1c7e037,.b94b31b9-a92e-428b-b018-29d0ff6bbc67,.b991bc36-2cd1-427e-b1a3-ed502130dd60,.f718cc64-3e84-4acf-b9f8-355704c8b5d0,.f8e4e8b0-86d4-4611-8b35-8455bb281fe6{stroke:#362c2c;stroke-miterlimit:10;}.a3f8eb69-b9bc-4221-83a6-82d03206c3ad{fill:#3b2009;}.f8e4e8b0-86d4-4611-8b35-8455bb281fe6{fill:#151310;}.b94b31b9-a92e-428b-b018-29d0ff6bbc67{fill:#1b1610;}.b991bc36-2cd1-427e-b1a3-ed502130dd60{fill:#f9aac9;}.a2bd23bf-3b7d-4de4-861a-71726dbe0c77{fill:#91d6e7;}.b1fc5da9-1440-4972-bcbe-a4a10801a423{fill:#37798a;}.b2608b63-f1cb-4d46-a5e2-9f1a19b818b0{fill:#2f8da3;}.b8efdf23-215f-4b94-a7fd-aa0ff1c7e037{fill:#1c140d;}</style><clipPath id="b5843d98-cd5b-4139-9df0-9dc71b8b2c34" transform="translate(0.5 -38.13)"><path class="eb5159f6-b85c-4c8d-b759-9adfde269d1a" d="M97.07,42H70.76c-2.58-2.61-5.07-5.43-6.17-9,0-.14-.09-.28-.13-.42a17.77,17.77,0,1,0-19.82-.18c-.38,2.4-.78,4.81-2.56,6.66-.91,1-1.87,2-2.87,2.94H12.5A12.46,12.46,0,0,0,0,54.44v87.91a12.45,12.45,0,0,0,12.5,12.4H42.34v-.07a5.43,5.43,0,0,1-.63-.88c-.07-.1-.13-.21-.19-.31s-.05-.11-.07-.16-.05-.07-.07-.06a17.77,17.77,0,1,1,32.84-9.37,17.26,17.26,0,0,1-3,9.84v0a12.16,12.16,0,0,1-.71,1H97.12a12.44,12.44,0,0,0,12.44-12.45V54.44A12.44,12.44,0,0,0,97.07,42Z"/></clipPath></defs><g id="f1b0f903-f34a-4b6d-9627-886296429208" data-name="Layer 2"><g id="f47cb485-0132-4650-a87d-63be50a4d2e2" data-name="Layer 1"><g class="fc95188c-a1d9-4d8f-a6a7-e1908be79f45"><path class="f718cc64-3e84-4acf-b9f8-355704c8b5d0" d="M67.61,83H42a1.53,1.53,0,1,1,0-3H67.61a1.53,1.53,0,1,1,0,3Z" transform="translate(0.5 -38.13)"/><path class="f718cc64-3e84-4acf-b9f8-355704c8b5d0" d="M103.67,106.05c-4.34-2.86-12.42-2.89-12.76-2.89a2.58,2.58,0,0,0-2,.84h0l-7.42,9.78c-.57.75-.11,1.66,1,2a3.26,3.26,0,0,0,1,.16,2.6,2.6,0,0,0,2.05-.84l4.29-5.66A9.22,9.22,0,0,0,93,113.08a10.54,10.54,0,0,0,10.67,0h0c2.94-1.94,2.94-5.09,0-7Zm-3.24,4.89a4.14,4.14,0,0,1-4.19,0,7.37,7.37,0,0,1-2.83-4.62c2.3.21,5.3.74,7,1.87A1.52,1.52,0,0,1,100.43,110.94Z" transform="translate(0.5 -38.13)"/><path class="a3f8eb69-b9bc-4221-83a6-82d03206c3ad" d="M5.9,113.08a9.82,9.82,0,0,0,5.33,1.45,9.82,9.82,0,0,0,5.33-1.45,9.22,9.22,0,0,0,3.17-3.61l4.3,5.66a2.6,2.6,0,0,0,2,.84,3.24,3.24,0,0,0,1-.16c1.13-.37,1.59-1.28,1-2L20.7,104h0a2.57,2.57,0,0,0-2.05-.84c-.34,0-8.42,0-12.75,2.89-2.94,1.94-2.94,5.09,0,7Zm3.24-4.89c1.72-1.13,4.72-1.66,7-1.87a7.33,7.33,0,0,1-2.83,4.62,4.12,4.12,0,0,1-4.18,0A1.53,1.53,0,0,1,9.14,108.19Z" transform="translate(0.5 -38.13)"/><path class="f718cc64-3e84-4acf-b9f8-355704c8b5d0" d="M24.52,64.63a2.21,2.21,0,0,1-.76-.13,1.37,1.37,0,0,1-1-2l13-23a2.12,2.12,0,0,1,2.49-.76,1.38,1.38,0,0,1,1,2l-13,23A2,2,0,0,1,24.52,64.63Z" transform="translate(0.5 -38.13)"/><path class="f8e4e8b0-86d4-4611-8b35-8455bb281fe6" d="M85,64.63a2,2,0,0,1-1.72-.88l-13-23a1.38,1.38,0,0,1,1-2,2.12,2.12,0,0,1,2.49.76l13,23a1.37,1.37,0,0,1-1,2,2.27,2.27,0,0,1-.77.13Z" transform="translate(0.5 -38.13)"/><path class="f718cc64-3e84-4acf-b9f8-355704c8b5d0" d="M1.89,87.57a2,2,0,0,1-1.62-.72,1.32,1.32,0,0,1,.65-2L15.51,78a2.19,2.19,0,0,1,2.59.52,1.32,1.32,0,0,1-.65,2L2.86,87.36a2.2,2.2,0,0,1-1,.21Z" transform="translate(0.5 -38.13)"/><path class="b94b31b9-a92e-428b-b018-29d0ff6bbc67" d="M107.67,87.57a2.16,2.16,0,0,1-1-.21L92.12,80.52a1.32,1.32,0,0,1-.66-2A2.2,2.2,0,0,1,94.05,78l14.59,6.84a1.33,1.33,0,0,1,.66,2,2.07,2.07,0,0,1-1.63.72Z" transform="translate(0.5 -38.13)"/><path class="b991bc36-2cd1-427e-b1a3-ed502130dd60" d="M90.91,104.47c-23.6,10.58-29.16,25.95-30.47,32.61-.37,1.88-2.79,3.29-5.66,3.29s-5.28-1.41-5.65-3.29c-1.31-6.66-6.88-22-30.48-32.61Z" transform="translate(0.5 -38.13)"/><path class="a2bd23bf-3b7d-4de4-861a-71726dbe0c77" d="M50,80.29C48.31,76.37,42,64.56,25.69,61.38a3,3,0,0,0-2.16.37c-3,1.89-11.68,8.3-12,19.25A1.61,1.61,0,0,0,12,82.1c1.35,1.62,6.16,6.25,16.87,6.25a38.46,38.46,0,0,0,20.35-5.91A1.73,1.73,0,0,0,50,80.29Z" transform="translate(0.5 -38.13)"/><path class="b1fc5da9-1440-4972-bcbe-a4a10801a423" d="M41.76,69.08c0,.39.05.79.05,1.19,0,8.41-7.06,15.52-16.78,17.87a32.33,32.33,0,0,0,3.81.22,38.45,38.45,0,0,0,20.35-5.92A1.74,1.74,0,0,0,50,80.29a31.89,31.89,0,0,0-8.22-11.21Z" transform="translate(0.5 -38.13)"/><path class="a2bd23bf-3b7d-4de4-861a-71726dbe0c77" d="M59.59,80.29c1.66-3.92,7.94-15.73,24.29-18.91a3,3,0,0,1,2.15.37c3,1.88,11.69,8.3,12,19.25a1.7,1.7,0,0,1-.41,1.11c-1.36,1.61-6.17,6.25-16.88,6.25a38.37,38.37,0,0,1-20.34-5.92,1.72,1.72,0,0,1-.79-2.15Z" transform="translate(0.5 -38.13)"/><path class="b2608b63-f1cb-4d46-a5e2-9f1a19b818b0" d="M87.27,62.58a15.34,15.34,0,0,1,2.1,7.69c0,8-6.38,14.8-15.34,17.48a37.88,37.88,0,0,0,6.69.61c10.71,0,15.52-4.64,16.88-6.25A1.66,1.66,0,0,0,98,81c-.27-9.68-7.1-15.8-10.73-18.39Z" transform="translate(0.5 -38.13)"/><path class="b8efdf23-215f-4b94-a7fd-aa0ff1c7e037" d="M107.27,106H2.29C1,106,0,105.31,0,104.47S1,103,2.29,103h105c1.27,0,2.29.68,2.29,1.51S108.54,106,107.27,106Z" transform="translate(0.5 -38.13)"/></g></g></g></svg>