<svg xmlns="http://www.w3.org/2000/svg" xmlns:xlink="http://www.w3.org/1999/xlink" viewBox="0 0 109.7 83.01"><defs><style>.a3cd5907-531e-4e44-bef4-8975371cc9e0{fill:none;}.bd09477a-332e-43e9-991a-3bca3e530e37{clip-path:url(#a10e916d-9b9d-49c5-9cae-d16d90143ee4);}.e60f2793-fb7d-4655-a8b0-253b0fed153b{fill:#d5250d;}.a338c8c8-61cd-452c-bd53-fb7198996b7d,.a3fe8dfd-c708-4d68-aabc-784b6b9e1352,.b873a351-d98f-4181-a641-252442580578,.bea3bcd6-f154-47a9-a304-b9e8f07b896a,.e60f2793-fb7d-4655-a8b0-253b0fed153b{stroke:#000;stroke-miterlimit:10;}.bea3bcd6-f154-47a9-a304-b9e8f07b896a{fill:#e5290e;}.a3fe8dfd-c708-4d68-aabc-784b6b9e1352{fill:#151112;}.a338c8c8-61cd-452c-bd53-fb7198996b7d{fill:#7fcd31;}.b873a351-d98f-4181-a641-252442580578{fill:#1f051a;}</style><clipPath id="a10e916d-9b9d-49c5-9cae-d16d90143ee4" transform="translate(0.13 -38.59)"><path class="a3cd5907-531e-4e44-bef4-8975371cc9e0" d="M97.07,42H70.76c-2.58-2.61-5.07-5.43-6.17-9,0-.14-.09-.28-.13-.42a17.77,17.77,0,1,0-19.82-.18c-.38,2.4-.78,4.81-2.56,6.66-.91,1-1.87,2-2.87,2.94H12.5A12.46,12.46,0,0,0,0,54.44v87.91a12.45,12.45,0,0,0,12.5,12.4H42.34v-.07a5.43,5.43,0,0,1-.63-.88c-.07-.1-.13-.21-.19-.31s-.05-.11-.07-.16-.05-.07-.07-.06a17.77,17.77,0,1,1,32.84-9.37,17.26,17.26,0,0,1-3,9.84v0a12.16,12.16,0,0,1-.71,1H97.12a12.44,12.44,0,0,0,12.44-12.45V54.44A12.44,12.44,0,0,0,97.07,42Z"/></clipPath></defs><g id="bcd986ac-0cd2-47d2-8029-eeeceb9e23ba" data-name="Layer 2"><g id="e7bb338b-f9f5-42b9-970c-865216705430" data-name="Layer 1"><g class="bd09477a-332e-43e9-991a-3bca3e530e37"><path class="e60f2793-fb7d-4655-a8b0-253b0fed153b" d="M109.06,81.65v37.78c0,.92-1.26,1.67-2.83,1.67h-56V77.2a7,7,0,0,1,1.93-4.63l2.6-2.92L81.85,39.11a6.94,6.94,0,0,1,.93.14l15.32,3.1c1.14.23,1.91.86,1.91,1.57v20a16.12,16.12,0,0,0,4.18,10.44l3.68,4.33a4.64,4.64,0,0,1,1.19,3Z" transform="translate(0.13 -38.59)"/><path class="bea3bcd6-f154-47a9-a304-b9e8f07b896a" d="M59.25,77.2v43.9H3.2c-1.56,0-2.83-.75-2.83-1.67V81.65a4.64,4.64,0,0,1,1.19-3l3.68-4.33A16.14,16.14,0,0,0,9.43,63.9v-20c0-.71.76-1.34,1.91-1.57l15.31-3.1a7.19,7.19,0,0,1,.93-.14L54.72,69.65l2.59,2.92a7,7,0,0,1,1.94,4.63Z" transform="translate(0.13 -38.59)"/><path class="a3fe8dfd-c708-4d68-aabc-784b6b9e1352" d="M104.19,74.34A16.12,16.12,0,0,1,100,63.9v-20c0-.71-.77-1.34-1.91-1.57l-4-.82V64.71a16.12,16.12,0,0,0,4.18,10.44l4.28,5a2.31,2.31,0,0,1,.6,1.49V121.1h3.11c1.57,0,2.83-.75,2.83-1.67V81.65a4.64,4.64,0,0,0-1.19-3Z" transform="translate(0.13 -38.59)"/><path class="a338c8c8-61cd-452c-bd53-fb7198996b7d" d="M8.68,101.66H21.84a1,1,0,0,0,1-.83l.5-3.32a1,1,0,0,0-.95-1.14H8.17a1,1,0,0,0-1,1.14l.5,3.32A1,1,0,0,0,8.68,101.66Z" transform="translate(0.13 -38.59)"/><path class="a338c8c8-61cd-452c-bd53-fb7198996b7d" d="M92.59,101.66H79.43a1,1,0,0,1-1-.83L78,97.51a1,1,0,0,1,1-1.14H93.09a1,1,0,0,1,1,1.14l-.51,3.32a1,1,0,0,1-1,.83Z" transform="translate(0.13 -38.59)"/><path class="b873a351-d98f-4181-a641-252442580578" d="M52.94,81.8H51.33a1.24,1.24,0,0,1,0-2.47h1.61a1.24,1.24,0,0,1,0,2.47Z" transform="translate(0.13 -38.59)"/><path class="b873a351-d98f-4181-a641-252442580578" d="M52.94,89.05H51.33a1.24,1.24,0,0,1,0-2.47h1.61a1.24,1.24,0,0,1,0,2.47Z" transform="translate(0.13 -38.59)"/><path class="b873a351-d98f-4181-a641-252442580578" d="M52.94,96.3H51.33a1.24,1.24,0,0,1,0-2.47h1.61a1.24,1.24,0,0,1,0,2.47Z" transform="translate(0.13 -38.59)"/><path class="b873a351-d98f-4181-a641-252442580578" d="M52.94,103.55H51.33a1.24,1.24,0,0,1,0-2.47h1.61a1.24,1.24,0,0,1,0,2.47Z" transform="translate(0.13 -38.59)"/><path class="b873a351-d98f-4181-a641-252442580578" d="M52.94,110.8H51.33a1.24,1.24,0,0,1,0-2.47h1.61a1.24,1.24,0,0,1,0,2.47Z" transform="translate(0.13 -38.59)"/></g></g></g></svg>