<svg xmlns="http://www.w3.org/2000/svg" viewBox="0 0 38.95 34.63"><defs><style>.bf50b7f9-df39-4db1-b207-8fa901e66ffc{fill:#7cc3db;}.a37852bc-ef20-44fc-88d9-a43869fa930b,.b1b7c342-d065-490d-b3de-70526fe2d1db,.b66057d5-dad3-4130-93b9-d1e36efaea65,.bf50b7f9-df39-4db1-b207-8fa901e66ffc{stroke:#2b2828;stroke-miterlimit:10;}.a37852bc-ef20-44fc-88d9-a43869fa930b{fill:#6fafd2;}.b66057d5-dad3-4130-93b9-d1e36efaea65{fill:#8bcee3;}.b1b7c342-d065-490d-b3de-70526fe2d1db{fill:#151210;}</style></defs><g id="a6054b65-476d-4e2e-b8bf-5170a3958380" data-name="Layer 2"><g id="fac6fa45-b2b0-43e2-9ca0-bb725681afbb" data-name="Layer 1"><path class="bf50b7f9-df39-4db1-b207-8fa901e66ffc" d="M34.29,21.79,37.82,26a2.65,2.65,0,0,1,.63,1.73,2.68,2.68,0,0,1-1.38,2.34c-2.53,1.41-8.52,4.08-17.59,4.08S4.41,31.46,1.88,30.05A2.68,2.68,0,0,1,.5,27.71,2.65,2.65,0,0,1,1.13,26l3.54-4.19Z"/><path class="a37852bc-ef20-44fc-88d9-a43869fa930b" d="M37.79,25.94l-3.5-4.15H4.67L3.33,23.37l.44.21c.22.11,5.48,2.68,15.71,2.68a47,47,0,0,0,12.28-1.47,2.3,2.3,0,0,1,2.37.74l.34.41a2.71,2.71,0,0,1,.65,1.5,2.67,2.67,0,0,1-1.36,2.61A35.71,35.71,0,0,1,17.82,34.1c.54,0,1.09,0,1.66,0,9.07,0,15.06-2.67,17.59-4.08a2.7,2.7,0,0,0,1.37-2.61,2.79,2.79,0,0,0-.65-1.5Z"/><path class="b66057d5-dad3-4130-93b9-d1e36efaea65" d="M19.48,24.26c9.87,0,14.81-2.47,14.81-2.47V10.56a9.26,9.26,0,0,0-7.45-9.08L24.36,1a25.1,25.1,0,0,0-9.77,0l-2.48.5a9.25,9.25,0,0,0-7.44,9.08V21.79s4.93,2.47,14.81,2.47Z"/><path class="bf50b7f9-df39-4db1-b207-8fa901e66ffc" d="M28.21,1.86a16.22,16.22,0,0,1-12,22.3c1,.06,2.14.1,3.32.1,9.87,0,14.81-2.47,14.81-2.47V10.56a9.27,9.27,0,0,0-6.08-8.7Z"/><path class="a37852bc-ef20-44fc-88d9-a43869fa930b" d="M19.48,24.26h.57V15.81a.58.58,0,0,0-1.15,0v8.45Z"/><path class="a37852bc-ef20-44fc-88d9-a43869fa930b" d="M20.05,12.38V.51H18.9V12.38a.58.58,0,0,0,1.15,0Z"/><path class="b1b7c342-d065-490d-b3de-70526fe2d1db" d="M23.33,16.85H15.62a1.54,1.54,0,0,1-1.54-1.54V12.22a1.54,1.54,0,0,1,1.54-1.54h7.71a1.55,1.55,0,0,1,1.55,1.54v3.09A1.55,1.55,0,0,1,23.33,16.85Z"/></g></g></svg>