<svg xmlns="http://www.w3.org/2000/svg" viewBox="0 0 153.92 368.68"><defs><style>.eff7a8b7-52e1-4513-b4b7-4e78c29430ad{fill:#717375;}.f8ab6764-ad9e-4112-be21-bbce9a69814f{fill:#640000;}.f3acea24-28c4-4f04-b02d-db16d969c25e{fill:#e4e5e6;}.b9c2838e-0715-4da7-a156-5d3bbf46d259{fill:#091318;}.a68ea1d9-7ff5-4b24-94a7-fa72d2e18b50{fill:#231f20;}.a267a2bd-5ca9-42e7-bbae-cb73310543b4,.b3969b90-be60-4004-b124-03fd42cdf9ce{fill:#f79421;}.a267a2bd-5ca9-42e7-bbae-cb73310543b4,.e0d6dd7a-8168-45e9-be7a-4e76d54e9bb7{isolation:isolate;opacity:0.43;}.e0d6dd7a-8168-45e9-be7a-4e76d54e9bb7{fill:#fbb03c;}.b451a169-d989-4005-aaca-47d48c5f02ea{fill:#faed24;}.a4099af3-393d-4645-b825-40d1150aa655{fill:#0a1911;}.f40d2918-031c-441b-a139-5d89753503fe{fill:#061b20;}.f108ab8b-43e3-451e-a24f-dedd4a6dc268{fill:#fff;}.b42c5a93-b8d1-4149-98b6-af6e899fc637{fill:#f47a47;}.f0a037ca-b9c0-40c3-bd1c-5148cadf187a{fill:#ef3932;}.b684def1-8a24-4654-a720-47ed30589662{fill:#bfdbed;}.e5c6c73b-a6a0-403e-b6ae-21a221740074{fill:#0a1c29;}.f03deab6-99df-4fa8-acee-d4fd8e821b14{fill:#0a1118;}.a104b781-e12f-4355-b423-dee595aaf3c3{fill:#a1a3a6;}</style></defs><g id="aa41a104-14aa-48aa-b061-bfc358974170" data-name="Layer 2"><g id="b5589b3f-aec8-495e-bfe2-33df3c8c512f" data-name="Layer 1"><path class="eff7a8b7-52e1-4513-b4b7-4e78c29430ad" d="M45.16,34.21S1.67,91.49.06,163.26c-1.27,57,16.72,92.23,26.49,107a18.1,18.1,0,0,0,15.1,8.13h72.47a18.08,18.08,0,0,0,15.67-9.07c8.66-15,23.53-49.45,23.53-108.7,0-37.83-24.3-100.89-40.63-124.1C102.07,21.45,57.89,23.55,45.16,34.21Z"/><path class="f8ab6764-ad9e-4112-be21-bbce9a69814f" d="M42.56,37.87S65.74,0,77.62,0c15.15,0,35.07,36.56,35.07,36.56s-5.78,9-35.07,9C59.78,45.52,42.56,37.87,42.56,37.87Z"/><path class="f3acea24-28c4-4f04-b02d-db16d969c25e" d="M53.86,47.63S43.52,66.73,36.26,97c-.38,1.59,38.59-11.87,65.72,0,34.6,15.13,40.55,61.14,28.73,83.06-13,24.16-30.59,42.66-65.94,39.69C43.55,218,22.62,199.43,22.62,199.43a145.45,145.45,0,0,0,4.58,31.5c4.27,15.62,16,31,19.34,30.51,51.72-7.44,83.25,7.92,83.25,7.92s30.72-44.63,22.84-120.7C146.76,92.1,116.39,42.28,116.39,42.28S93.58,53.66,53.86,47.63Z"/><path class="b9c2838e-0715-4da7-a156-5d3bbf46d259" d="M105.75,292.11s3.13-3,16.19-3c11.54,0,17.3,3,17.3,3l1.3,6.81H104.71Z"/><path class="a68ea1d9-7ff5-4b24-94a7-fa72d2e18b50" d="M104.71,298.83c0-1.54,8-2.79,17.92-2.79s17.91,1.25,17.91,2.79-8,2.8-17.91,2.8S104.71,300.38,104.71,298.83Z"/><path class="a267a2bd-5ca9-42e7-bbae-cb73310543b4" d="M107.73,299.75a18.7,18.7,0,0,0,3.2,7.33c5.19,7.76,14.35,18.29,14.4,13.27,0-4,5.84-8.84,8.81-12.93a16.86,16.86,0,0,0,3.39-7.67Z"/><path class="b3969b90-be60-4004-b124-03fd42cdf9ce" d="M107.73,299.32c0-1.28,6.67-2.32,14.9-2.32s14.9,1,14.9,2.32-6.67,2.33-14.9,2.33S107.73,300.61,107.73,299.32Z"/><path class="e0d6dd7a-8168-45e9-be7a-4e76d54e9bb7" d="M111.77,299.75a12.22,12.22,0,0,0,2.34,4.94c3.78,5.22,10.45,12.31,10.49,8.93,0-2.66,4.25-5.95,6.41-8.71a10.78,10.78,0,0,0,2.47-5.16Z"/><path class="a68ea1d9-7ff5-4b24-94a7-fa72d2e18b50" d="M135.16,291.72a55.69,55.69,0,0,0-21.22-1.28v4.77s11.55-1.21,21.95.83Z"/><path class="b451a169-d989-4005-aaca-47d48c5f02ea" d="M111.77,299.36c0-.93,4.86-1.69,10.86-1.69s10.85.76,10.85,1.69-4.86,1.7-10.85,1.7S111.77,300.3,111.77,299.36Z"/><path class="a4099af3-393d-4645-b825-40d1150aa655" d="M12.92,292.66s3.14-3,16.19-3c11.55,0,17.3,3,17.3,3l1.31,6.81H11.89Z"/><path class="a68ea1d9-7ff5-4b24-94a7-fa72d2e18b50" d="M11.89,299.38c0-1.54,8-2.79,17.91-2.79s17.92,1.25,17.92,2.79-8,2.8-17.92,2.8S11.89,300.93,11.89,299.38Z"/><path class="a267a2bd-5ca9-42e7-bbae-cb73310543b4" d="M14.9,300.3a18.7,18.7,0,0,0,3.2,7.33c5.19,7.76,14.35,18.29,14.41,13.27,0-4,5.83-8.84,8.8-12.93a16.86,16.86,0,0,0,3.39-7.67Z"/><path class="b3969b90-be60-4004-b124-03fd42cdf9ce" d="M14.9,299.87c0-1.29,6.67-2.32,14.9-2.32s14.9,1,14.9,2.32S38,302.2,29.8,302.2,14.9,301.16,14.9,299.87Z"/><path class="e0d6dd7a-8168-45e9-be7a-4e76d54e9bb7" d="M18.94,300.3a12.22,12.22,0,0,0,2.34,4.94c3.78,5.22,10.45,12.31,10.49,8.93,0-2.66,4.25-6,6.42-8.71a10.9,10.9,0,0,0,2.47-5.16Z"/><path class="f40d2918-031c-441b-a139-5d89753503fe" d="M42.34,292.27A55.72,55.72,0,0,0,21.12,291v4.77s11.54-1.21,22,.83Z"/><path class="b451a169-d989-4005-aaca-47d48c5f02ea" d="M18.94,299.91c0-.93,4.87-1.69,10.86-1.69s10.86.76,10.86,1.69-4.86,1.7-10.86,1.7S18.94,300.85,18.94,299.91Z"/><path class="f108ab8b-43e3-451e-a24f-dedd4a6dc268" d="M67.33,56.14,63.49,78.43s40-2.55,55.93,16.09S143,141.2,143.54,158.16s10.42,6,7.13-12.65S127.86,68.75,117.06,51.2C117.06,51.2,81,57.23,67.33,56.14Z"/><path class="f108ab8b-43e3-451e-a24f-dedd4a6dc268" d="M144.09,193s-15.13,54.55-27,56.2S77.2,255.58,59.65,243,38,217.34,38,217.34s47,15.72,69.43,4.85S137.51,180.07,144.09,193Z"/><path class="a68ea1d9-7ff5-4b24-94a7-fa72d2e18b50" d="M76.66,49.39l-1.79,219.5h2.75L80,49.35Z"/><path class="b42c5a93-b8d1-4149-98b6-af6e899fc637" d="M73.82,2.7,56.53,37.51S90.36,49.69,110,33.38c0,0-15.82-25.41-24.51-30.69S73.82,2.7,73.82,2.7Z"/><path class="f0a037ca-b9c0-40c3-bd1c-5148cadf187a" d="M78.78,6.23l-3.91,30.3s24.26,4.25,31.66-4.93c0,0-13.29-23.71-22.18-28.34A3.86,3.86,0,0,0,78.78,6.23Z"/><path class="b684def1-8a24-4654-a720-47ed30589662" d="M62.2,105.59h0a3.31,3.31,0,0,0,3.36,1.34c7.91-1.54,36.53-4.75,52.12,25.37a3.35,3.35,0,0,0,5,1.13l.35-.26a3.34,3.34,0,0,0,1-4.18c-4.49-8.82-22.13-37.17-59.8-28.61A3.35,3.35,0,0,0,62.2,105.59Z"/><path class="b684def1-8a24-4654-a720-47ed30589662" d="M50.24,107.91a3.8,3.8,0,1,1,3.8,3.8A3.8,3.8,0,0,1,50.24,107.91Z"/><path class="a68ea1d9-7ff5-4b24-94a7-fa72d2e18b50" d="M39.88,41.88s14.25,5.35,37.74,5.35,36.64-8.36,36.64-8.36l-1.57-2.31s-9.7,7.38-35.07,7.38-35.06-6.07-35.06-6.07Z"/><path class="e5c6c73b-a6a0-403e-b6ae-21a221740074" d="M36.65,194a54,54,0,1,1,76.43,0A54.05,54.05,0,0,1,36.65,194Z"/><path class="a68ea1d9-7ff5-4b24-94a7-fa72d2e18b50" d="M80.77,270.59s-31.52-2-42.53,7.51L38,288.26l79.07.32V278.19S108.07,271.85,80.77,270.59Z"/><path class="a68ea1d9-7ff5-4b24-94a7-fa72d2e18b50" d="M32.62,288.29s8.53-8.25,44-8.25c31.41,0,47.06,8.25,47.06,8.25l3.56,18.53H29.8Z"/><path class="f03deab6-99df-4fa8-acee-d4fd8e821b14" d="M29.8,306.59c0-4.2,21.82-7.61,48.74-7.61s48.74,3.41,48.74,7.61-21.82,7.6-48.74,7.6S29.8,310.79,29.8,306.59Z"/><path class="a267a2bd-5ca9-42e7-bbae-cb73310543b4" d="M38,309.09s1,8.42,8.73,19.93c14.11,21.1,39,49.77,39.18,36.1.12-10.76,15.88-24.06,24-35.18,8.45-11.63,9.23-20.85,9.23-20.85Z"/><path class="b3969b90-be60-4004-b124-03fd42cdf9ce" d="M38,307.91c0-3.5,18.16-6.33,40.55-6.33s40.55,2.83,40.55,6.33-18.16,6.33-40.55,6.33S38,311.4,38,307.91Z"/><path class="e0d6dd7a-8168-45e9-be7a-4e76d54e9bb7" d="M49,309.09s.74,5.67,6.35,13.42C65.64,336.71,83.8,356,83.9,346.8c.09-7.24,11.57-16.19,17.45-23.68,6.16-7.82,6.72-14,6.72-14Z"/><path class="a104b781-e12f-4355-b423-dee595aaf3c3" d="M112.65,287.23s-24.44-7.56-57.74-3.47v13s31.4-3.3,59.72,2.25Z"/><path class="b451a169-d989-4005-aaca-47d48c5f02ea" d="M49,308c0-2.55,13.22-4.61,29.53-4.61s29.53,2.06,29.53,4.61-13.22,4.61-29.53,4.61S49,310.58,49,308Z"/></g></g></svg>