<svg xmlns="http://www.w3.org/2000/svg" xmlns:xlink="http://www.w3.org/1999/xlink" viewBox="0 0 110.56 97.73"><defs><style>.bebbc785-e366-4854-951e-4888439ce47d{fill:none;}.f66e7586-919b-4e46-9944-2ff63c0869ee{clip-path:url(#ba0a3468-f045-4132-ba65-ae03bd07e72e);}.b880e3f8-c6b9-4dde-b563-fa794cac24e0{fill:#7e328d;}.a2ec8103-de8d-462a-9047-47ec79ae9731,.aa04c2f2-9185-4f5b-ae65-adde3ba5ed62,.b880e3f8-c6b9-4dde-b563-fa794cac24e0,.b9abdc08-55ba-43d5-a359-1457b38ce877,.bc5aa283-97d1-4f7e-8262-7b0a15545c96,.e97ddabd-75b0-4606-8f99-938cd8ae3e45,.ed3d0eab-4403-4630-bfa0-c466e2dc6081,.ef121e0f-03ac-4b26-9fbb-488a162c7ccc,.f190f7ae-483d-425a-9149-284f5b0f5fb1{stroke:#161412;stroke-miterlimit:10;}.ed3d0eab-4403-4630-bfa0-c466e2dc6081{fill:#5b2473;}.aa04c2f2-9185-4f5b-ae65-adde3ba5ed62{fill:#5c1b5e;}.b9abdc08-55ba-43d5-a359-1457b38ce877{fill:#43b83d;}.ef121e0f-03ac-4b26-9fbb-488a162c7ccc{fill:#3c134d;}.bc5aa283-97d1-4f7e-8262-7b0a15545c96{fill:#1c101e;}.a2ec8103-de8d-462a-9047-47ec79ae9731{fill:#1a081f;}.e97ddabd-75b0-4606-8f99-938cd8ae3e45{fill:#00984a;}.f190f7ae-483d-425a-9149-284f5b0f5fb1{fill:#fff;}</style><clipPath id="ba0a3468-f045-4132-ba65-ae03bd07e72e" transform="translate(0.5 -40.62)"><path class="bebbc785-e366-4854-951e-4888439ce47d" d="M97.07,42H70.76c-2.58-2.61-5.07-5.43-6.17-9,0-.14-.09-.28-.13-.42a17.77,17.77,0,1,0-19.82-.18c-.38,2.4-.78,4.81-2.56,6.66-.91,1-1.87,2-2.87,2.94H12.5A12.46,12.46,0,0,0,0,54.44v87.91a12.45,12.45,0,0,0,12.5,12.4H42.34v-.07a5.43,5.43,0,0,1-.63-.88c-.07-.1-.13-.21-.19-.31s-.05-.11-.07-.16-.05-.07-.07-.06a17.77,17.77,0,1,1,32.84-9.37,17.26,17.26,0,0,1-3,9.84v0a12.16,12.16,0,0,1-.71,1H97.12a12.44,12.44,0,0,0,12.44-12.45V54.44A12.44,12.44,0,0,0,97.07,42Z"/></clipPath></defs><g id="a59aa439-2866-4fef-adc1-f32596850143" data-name="Layer 2"><g id="b7023f7f-4f52-4a72-a46e-62ced91b7cb8" data-name="Layer 1"><g class="f66e7586-919b-4e46-9944-2ff63c0869ee"><path class="b880e3f8-c6b9-4dde-b563-fa794cac24e0" d="M13.16,41.28l-3.28.66A12.34,12.34,0,0,0,0,54v71.34H13.16Z" transform="translate(0.5 -40.62)"/><path class="b880e3f8-c6b9-4dde-b563-fa794cac24e0" d="M96.41,41.28l3.27.66A12.34,12.34,0,0,1,109.56,54v71.34H96.41Z" transform="translate(0.5 -40.62)"/><path class="ed3d0eab-4403-4630-bfa0-c466e2dc6081" d="M104.81,44.3a12.43,12.43,0,0,1,.52,3.57v77.5h4.23V54a12.34,12.34,0,0,0-4.75-9.73Z" transform="translate(0.5 -40.62)"/><path class="aa04c2f2-9185-4f5b-ae65-adde3ba5ed62" d="M75.59,41.45H34l-20.81.6v86.17H96.41V41.45Z" transform="translate(0.5 -40.62)"/><path class="b9abdc08-55ba-43d5-a359-1457b38ce877" d="M0,70.27H5a2,2,0,0,0,2-2v-2.5a2,2,0,0,0-2-2H0Z" transform="translate(0.5 -40.62)"/><path class="ef121e0f-03ac-4b26-9fbb-488a162c7ccc" d="M53.43,137.85V93.33c0-.84.9-1.52,2-1.52a1.82,1.82,0,0,1,2,1.52v44.52Z" transform="translate(0.5 -40.62)"/><path class="bc5aa283-97d1-4f7e-8262-7b0a15545c96" d="M35.51,122.27H33.22a1.53,1.53,0,1,1,0-3h1.42L41.89,107l-.9-1.81a1.53,1.53,0,0,1,2.73-1.37L45,106.41a1.52,1.52,0,0,1-.06,1.46l-8.12,13.66a1.51,1.51,0,0,1-1.31.74Z" transform="translate(0.5 -40.62)"/><path class="a2ec8103-de8d-462a-9047-47ec79ae9731" d="M75.63,122.94H73.34A1.51,1.51,0,0,1,72,122.2l-8.12-13.66a1.52,1.52,0,0,1-.06-1.46l1.28-2.56a1.53,1.53,0,1,1,2.73,1.37l-.9,1.8,7.25,12.2h1.42a1.53,1.53,0,1,1,0,3Z" transform="translate(0.5 -40.62)"/><path class="e97ddabd-75b0-4606-8f99-938cd8ae3e45" d="M109.56,70.27h-5a2,2,0,0,1-2-2v-2.5a2,2,0,0,1,2-2h5Z" transform="translate(0.5 -40.62)"/><path class="b9abdc08-55ba-43d5-a359-1457b38ce877" d="M105.33,63.69h4.23v6.58h-4.23Z" transform="translate(0.5 -40.62)"/><path class="f190f7ae-483d-425a-9149-284f5b0f5fb1" d="M54.33,94.47a2,2,0,0,1-1.24-.62l-15-15.74a2,2,0,0,1-.51-1.9l2.3-9.69a2.08,2.08,0,0,0-.43-1.81l-9.8-11.5a2.06,2.06,0,0,1,.28-2.94l10.72-8.54h0a2.77,2.77,0,0,1,.81-.44Z" transform="translate(0.5 -40.62)"/><path class="f190f7ae-483d-425a-9149-284f5b0f5fb1" d="M71.41,64.71A2.05,2.05,0,0,0,71,66.52l2.31,9.69a2.05,2.05,0,0,1-.52,1.9l-15,15.74a2,2,0,0,1-1.25.62L69.38,41.28a2.77,2.77,0,0,1,.81.44h0l10.72,8.54a2,2,0,0,1,.28,2.94Z" transform="translate(0.5 -40.62)"/></g></g></g></svg>