<svg xmlns="http://www.w3.org/2000/svg" viewBox="0 0 17.05 20.39"><defs><style>.a735d9c0-7a27-4783-9c05-6ec6845822bd{fill:red;stroke:#000;stroke-linecap:round;stroke-linejoin:round;}</style></defs><g id="fb37f2d6-fd62-430d-b1ce-e43a3a02b3a5" data-name="Layer 2"><g id="b540be2f-e0d1-44e8-b458-defad47ceab7" data-name="Layer 1"><g id="ad097220-c3cd-4a4e-a2d1-2e2ae65bee14" data-name="f3f391c6-6653-4914-a030-f21e5c24cfb4"><path class="a735d9c0-7a27-4783-9c05-6ec6845822bd" d="M16.41,10.65a9.34,9.34,0,0,0-.3,2.41c.08-.26.17-.52.24-.79a5.59,5.59,0,0,0,.2-1.29C16.5,10.86,16.45,10.76,16.41,10.65Z"/><path class="a735d9c0-7a27-4783-9c05-6ec6845822bd" d="M7.41.5c-.6.11-.94.16-1.28.2L5.78,1l-.37.33a20.18,20.18,0,0,1,4-.09v.17l.68-.17A11.83,11.83,0,0,0,8.94.81H8.68A5.47,5.47,0,0,1,7.41.5Z"/><path class="a735d9c0-7a27-4783-9c05-6ec6845822bd" d="M.52,13.12c0,.1,0,.21,0,.31,0,.34,0,.67,0,1.05a14.39,14.39,0,0,0,.91,1.74.24.24,0,0,0,0-.12c.44-.3.17-.52.17-1H1.43L1.6,15a4.8,4.8,0,0,1-.34-1.2A1,1,0,0,1,.52,13.12Z"/><path class="a735d9c0-7a27-4783-9c05-6ec6845822bd" d="M15.11,15.45a4,4,0,0,1-.29.39h.09C15,15.71,15.05,15.58,15.11,15.45Z"/><path class="a735d9c0-7a27-4783-9c05-6ec6845822bd" d="M14.65,16.27l-.17.25-.26-.08c-.18.35-.6.63-.6,1h-.17v-.25a2.15,2.15,0,0,0-.51.76l-.26-.08-.08.25c-.46,0-.32.06-.6.35h.26v.17a2.61,2.61,0,0,0-.77.17h.26v.25L11.49,19a1.42,1.42,0,0,1-.94.42v-.17c-.12.25,0,.17-.34.17l.08.17a1,1,0,0,1-.55.3h.08l.27-.06a5.23,5.23,0,0,1,.77-.15,10.13,10.13,0,0,0,1.92-1,11.14,11.14,0,0,0,1.87-2.44Z"/><path class="a735d9c0-7a27-4783-9c05-6ec6845822bd" d="M1.68,15.92a1,1,0,0,1-.3.21,11.69,11.69,0,0,0,.9,1.31,2.59,2.59,0,0,1,1.58,1l.19.12a3.37,3.37,0,0,1,.37.24c.26.17.48.33.67.48l.23.2a8.92,8.92,0,0,1,1.75.42l0,0c.33-.05.66-.08,1-.1a8.32,8.32,0,0,1,1.12.05c.1-.15.09-.08.57-.15H8.25v-.17a11.52,11.52,0,0,0-1.62-.09v-.17C6,19.1,5.37,19,4.76,18.75l.08-.17a2.52,2.52,0,0,1-2-1.37H2.71c-.18-.52-.5-.64-.68-1.19C1.79,16,1.9,16,1.68,15.92Z"/><path class="a735d9c0-7a27-4783-9c05-6ec6845822bd" d="M8.25,2.62l-.09.17c.25.12.16,0,.26.34H8V3c-1.38-.46-2.76.72-3.67,1.62-.24-.12-.17,0-.17-.34-.27.14-.16,0-.25.42.09-.68.15-.4,0-.85-1.76,2.63-1.37,4.9-1.37,8.28.3,0,.15-.06.34.34-.47.31-.25.07-.25.94.35-.18.12-.45.42-.6.19.37.5.87.17,1.19h.26v.17c.39,0,.6.69.85.94a1.78,1.78,0,0,0-.59-1.28c.45,0,.22.34.68.34l.08-.34-.17.09v-.34H4.15c0-.24,0-.12.09-.34-.25.12-.11.08-.43.08v-.43H3.56c.07-.47.15-.61-.18-.93l.18-.26c-.62-.31-.35-.8-.35-1.36H3c0-.67-.18-.51.17-.69L3,9.19l.17.08c.22-.21.17-.09.17-.34H3.21l.09-.6v.34c.25,0,.26-.1.26-.34l-.18.09c.07-.52.16-.79.26-1.28l.17.08V7.05H3.64c0-.34.67-1.45.94-1.45l.08-.25V5.6l.26-.08c0-.61,1-1.31,1.36-.51,0-.35.08-.34.43-.43H6.28V4.41l-.34-.09c2-1,3.38.6,5.29.6V5.1h.26c-.12-.36-.51-.59-.51-1-.52,0-.35-.6-.77-.6C10.07,2.77,8.93,2.79,8.25,2.62Z"/><path class="a735d9c0-7a27-4783-9c05-6ec6845822bd" d="M12.31,1.82A1.27,1.27,0,0,1,12,2c.22.21.1.14.34.26a.39.39,0,0,1,.19-.12Z"/><path class="a735d9c0-7a27-4783-9c05-6ec6845822bd" d="M13.82,3.64a1.07,1.07,0,0,0,.4.6c-.13.54-.05.68.51.68V5.1h.17v.16H15l-.24-.34A8.62,8.62,0,0,0,13.82,3.64Z"/><path class="a735d9c0-7a27-4783-9c05-6ec6845822bd" d="M15.45,6.36a1.16,1.16,0,0,1,0,.18h.1Z"/><path class="a735d9c0-7a27-4783-9c05-6ec6845822bd" d="M15.69,7.35a1.53,1.53,0,0,1-.11.47h.16C15.73,7.67,15.71,7.52,15.69,7.35Z"/><path class="a735d9c0-7a27-4783-9c05-6ec6845822bd" d="M15.8,8.3a.74.74,0,0,0,.06.36C15.85,8.54,15.82,8.43,15.8,8.3Z"/><path class="a735d9c0-7a27-4783-9c05-6ec6845822bd" d="M16.11,9.78c0,.8,0,1.59.07,2.48.14-.48.07-1.18.21-1.64a4.23,4.23,0,0,1-.24-.68h0A1.24,1.24,0,0,1,16.11,9.78Z"/><path class="a735d9c0-7a27-4783-9c05-6ec6845822bd" d="M12.79,9.09c-.17-.07-.77.82-.28,1.8-.34.17-.15.55-.08.85h-.17v-.16c-.11,1,0,.57-.43,1H12c-.1.32-.12.18,0,.43-.23.23-.17.09-.17.42l-.26.09v-.26c-.15.48-.34.33-.34.94-.38,0-.36.6-.76.6V15c-.38,0-.67.68-1,.68-.89,0-2-.19-3-.25,0-.62-.36-.69-.86-.86v-.17l-.25-.08.34-.09-.43-.09L5.35,14c-.95-.31-1.13-2.77-.86-3.58H4.32c0-.32.15-.65,0-.94-.11.33-.06.43-.42.43V9.7a1.86,1.86,0,0,1-.43.25V9.7H3.3c-.1-.49,0-.36-.26-.51l.09.42c-.35.18-.17,0-.17.69h.25c0,.56-.27,1,.35,1.36l-.18.26c.33.32.25.47.18.93h.25v.43c.32,0,.18,0,.43-.08-.11.22-.09.1-.09.34h.17v.34l.17-.09a3.35,3.35,0,0,0,.35,1.37l-.18.08.26.09v.25h.34c0,.56.13.66.68.77v.17H6.2v.17c.63,0,.27-.05.68-.25-.11.22-.08.11-.08.34l.25-.09c-.1-.43,0-.3-.34-.42v-.35L7,15.84v.34h.25v.17h.26v.43c.36-.06,1-.26,1.28-.26v-.25l.34-.09v.43c.59,0,1-.29,1.71-.17l.17-.52.34.18c0-.36.23-.35.51-.26,0-.46.13-.35.34-.77l.26.17c0-.49.41-.57.25-1l.26-.09a4.93,4.93,0,0,1,.51-2.3l.09.43h.25l-.17-.09c.16-.16.61-.59.09-.59V11.4c-.31.21-.26.07-.26.34h-.17c0-.63.28-1.3,0-1.87l-.17.08.08.17h-.25c0-.51,0-.29.08-.68l-.26.09C12.86,9.25,12.85,9.12,12.79,9.09Z"/><path class="a735d9c0-7a27-4783-9c05-6ec6845822bd" d="M9.05,1.85a1.41,1.41,0,0,0-.29,0V2c.48,0,.27.12.68.26v.25l.34-.08c.11.22.09.1.09.34l.25-.09c0,.25,0,.13-.17.34L10.21,3v.25c.2,0,.4.1.6.17-.11.31,0,.32,0,.6h.25v.17l.52-.08c0,.34-.17.12-.17.59h.34c0,.51.1.33-.17.6.43.22,1.55.14,1.19.85.25.13.26.26.34.52l.26-.09v.34c-.23-.11-.12-.11-.34,0a1.36,1.36,0,0,1,.51.6c-.46.23.26,1.19,0,1.71,1.06.53.17,1.79.17,2.39.52,0,.07.44-.08.59l.17.09h-.26l-.08-.43A3.25,3.25,0,0,0,13,13.37h.25l.08-.26.17.09.09-.26v.17a1,1,0,0,1,.51-.17,2.69,2.69,0,0,0,0,.94c.13-.26.72-.55.77-.68.26-.78.19-4.61-.51-4.61a24.62,24.62,0,0,1-.69-2.82c-.8-.26.09-.93-.42-1.19l.08-.26c-.27,0-.41-.08-.68-.08V4.07c-.31-.11-1.11-.54-1.11-.86h-.51C11.06,2.53,9.81,1.92,9.05,1.85Z"/><path class="a735d9c0-7a27-4783-9c05-6ec6845822bd" d="M2.45,6c-.12.23-.12.11,0,.34-.5.5-.3,1.3-.43,2,0-.25,0-.25-.09-.51-.31.62-.17.21-.17,1.28l-.08-.17c-.36.53-.09,2-.09,2.73h.17a17.73,17.73,0,0,1,.35,1.88c.38.12.33.51.76.51.11.43.33,1.45.77,1.45,0,.6.43.23.43.77h.17v.17l.34-.09v.26a1.05,1.05,0,0,0,.51.08L5,16.86c.32.11.17.09.43.09,0,.32,0,.34.34.34v-.17H5.6v-.51l.09.34h.17v.17c.38,0,.4-.26.68-.26v-.17H6.2v-.17H6v-.17c-.55-.11-.68-.21-.68-.77H4.93v-.25l-.26-.09.17-.08c-.32-.95-.56-.7-.94-1.45l-.17.17H3.9c.15.44.43.71.43,1.19-.25-.25-.51-.94-.86-.94V14H3.22l.17-.08a2.76,2.76,0,0,1-.34-1.11c-.32.16-.08.42-.43.6a3.5,3.5,0,0,0,.09-1.28H2.53C2.14,10.11,2.73,8,2.45,6Z"/><path class="a735d9c0-7a27-4783-9c05-6ec6845822bd" d="M10.26.7l-.14,0a4.72,4.72,0,0,1-.54.07,4.51,4.51,0,0,1-.9,0l-.27,0A19.23,19.23,0,0,0,11.75,2a.74.74,0,0,0,.57-.18l-.07-.11v0c-.1-.16-.14-.21-.17-.27l0,0-.22-.21A5.2,5.2,0,0,0,10.26.7Z"/><path class="a735d9c0-7a27-4783-9c05-6ec6845822bd" d="M1.51,10.72c-.48.24-.19,1-.17,1.37,0,.57-.36,1.16-.17,1.7.25.76,1.45,1.3,1.45,2,.4,0,.45.76.85.76V17c.58-.39.63.25,1.19.25.12.36.42.48.77.6v.16c.42.11.61.32.77-.17h.34v-.34H6.37A.82.82,0,0,1,6.29,17c-.25.12-.11.09-.43.09V17c-.27,0-.14,0-.34-.26l.08.43h.17v.17c-.22-.11-.1-.09-.34-.09,0-.36-.08-.34-.43-.34l.09-.17a2.09,2.09,0,0,0-.85-.25v-.17c-.4,0-.12-.43-.6-.43V15.5C2.87,15.5,3.2,14,2.53,14c-.27-.84-.76-1.17-.76-2.3H1.59A4.73,4.73,0,0,1,1.51,10.72Z"/><path class="a735d9c0-7a27-4783-9c05-6ec6845822bd" d="M13.28,15.67a4.83,4.83,0,0,0-1.62,1.62c-.56,0-1.36.87-2,1-1.21.31-2.48-.21-3.67.09l.09.17-.34.26.08.17-.17.08a3.38,3.38,0,0,0,.94.17v.17a4.43,4.43,0,0,0,1.62.09v.17l1.54.08c-.48.07-.53,0-.59.08l.25,0,.28,0h.09l.13,0a.77.77,0,0,0,.35-.27l-.17-.09c.4-.1.29,0,.43-.25v.17c.51,0,.63-.53,1.19-.34,0-.32.08-.22-.17-.34.39-.13.16-.09.68-.09v-.17H12c.28-.28.14-.34.59-.34a2.67,2.67,0,0,0,.09-.26c.41,0,.51-.36.77-.68v.26h.17c.16-.48.44-.65.59-1.11C13.73,16.23,13.28,16.27,13.28,15.67Z"/><path class="a735d9c0-7a27-4783-9c05-6ec6845822bd" d="M10.21,3.21v.26c.16,0,.35.16.55.39,0-.1.05-.27.05-.47A3.8,3.8,0,0,1,10.21,3.21Z"/><path class="a735d9c0-7a27-4783-9c05-6ec6845822bd" d="M10.75,3.86a.1.1,0,0,0,.06.08Z"/><path class="a735d9c0-7a27-4783-9c05-6ec6845822bd" d="M10.82,3.94a5.09,5.09,0,0,1,.67,1.15h-.26V4.92c-.44-.15-.15-.09-.85-.09a1.75,1.75,0,0,1,.17.43h.17c-.09.58,0,.36-.17.68.54-.18.09-.25.85-.25.24.71.86,1,.86,1.87h.17v.18c1.33.44.85,3,.85,4h.17c0-.5,1.46-1.87.09-2.55.29-.59-.58-1.43,0-1.71a1.1,1.1,0,0,0-.6-.6h.43l-.09-.25c-.67,0-.19-1.57-1.1-1.11a.73.73,0,0,0-.6-.26c.22-.22.17-.28.17-.59h-.34c0-.45-.07-.25.17-.6l-.52.08V4A.51.51,0,0,1,10.82,3.94Z"/><path class="a735d9c0-7a27-4783-9c05-6ec6845822bd" d="M3.73,3.3c-.54.53-1.22,2.23-1.93,2.81-.09.24-.16.48-.24.74a7.82,7.82,0,0,1-.22,1.74c-.11-.32-.09-.17-.09-.43a1.42,1.42,0,0,0-.1.29l0,.13A3.41,3.41,0,0,1,.91,9.7h.17c-.14.42.18,1-.26,1.19.3.88-.89,2.66.35,2.9,0-.45-.18-2.81.34-3.07a1.26,1.26,0,0,1,.17.51c-.09-.74-.43-1.65,0-2.3l.08.17c.09-1.09-.06-.72.17-1.2l.18.43c.1-.63-.11-1.51.34-2C2.11,5.7,3.73,4.08,3.73,3.3Z"/><path class="a735d9c0-7a27-4783-9c05-6ec6845822bd" d="M7.74,4.07c-.62.2-1.27,0-1.88.34h.43v.17l.42.08-.42.09L6.37,5C5.69,4.33,5,4.83,4.84,5.6c-.24,0-.15.05-.26-.17V5.6c-.32,0-.94,1.13-.94,1.45h.17v.17l-.17-.08a2.8,2.8,0,0,0-.26,1.28l.18-.09c0,.24,0,.34-.26.34l-.09-.25v.51h.17c-.14.42-.08.16-.08.77h.17V10A1.86,1.86,0,0,0,3.9,9.7v.17c.36,0,.31-.1.42-.43l.09.17c0-.25-.15-1.39.43-1.1l.16-1v.17h.18c0-.87.18-.45.51-1.1.47.12.22.11.77,0a1.82,1.82,0,0,0-.69-.26A2.85,2.85,0,0,1,8.16,4.84V4.67H8V4.41C7.74,4.41,7.74,4.31,7.74,4.07Z"/><path class="a735d9c0-7a27-4783-9c05-6ec6845822bd" d="M3.3,3.47l-.1,0a7.12,7.12,0,0,0-1,1.63c-.12.27-.23.57-.34.88.37-.39,1-1.34.87-1.53A1.78,1.78,0,0,0,3.3,3.47Z"/><path class="a735d9c0-7a27-4783-9c05-6ec6845822bd" d="M1.47,7.16c-.11.4-.21.82-.31,1.25a1.06,1.06,0,0,1,.09-.25,1.75,1.75,0,0,1,.17.43A3.64,3.64,0,0,1,1.47,7.16Z"/><path class="a735d9c0-7a27-4783-9c05-6ec6845822bd" d="M1.11,8.6a26.8,26.8,0,0,0-.56,3.86,1.5,1.5,0,0,0,0,.22c.41-.27.51-2.43.51-3H.91A3.33,3.33,0,0,0,1.11,8.6Z"/><path class="a735d9c0-7a27-4783-9c05-6ec6845822bd" d="M11.92,8.67l-.43.09c0,.84-.94.86-.94,1.36-.26,0-2-.56-1.45.43-.23.11-.11.11-.34,0L8.42,11c.77.38,1.3,1.45,2.3,1.45.06.5-.55,2.67-.08,2.39.27-.16.25-.6.59-.6,0-.61.19-.46.34-.94v.26l.26-.09c0-.33-.06-.19.17-.42-.12-.26-.1-.11,0-.43h-.17c.45-.45.32,0,.43-1v.16h.17c-.08-.3-.26-.68.08-.85A4.25,4.25,0,0,1,12.26,9C11.91,8.9,12,9,11.92,8.67Z"/><path class="a735d9c0-7a27-4783-9c05-6ec6845822bd" d="M13.88,4.66c-.94.94.51,2.42.51,3.93.4.1.22.08.51.08,0,.32-.3,3.25.43,3.25v.17c.31,0,.18,0,.43-.09a14.15,14.15,0,0,0-.26,1.54h.17a2.77,2.77,0,0,1,.12.41c.13-.35.26-.71.37-1.07,0-1.06,0-2.11-.05-3.11-.1-.38-.18-.74-.24-1.11a.54.54,0,0,1-.06-.35c0-.15-.05-.32-.06-.48h-.34a6.12,6.12,0,0,1-.17-1.1h-.17A4.16,4.16,0,0,0,13.88,4.66Z"/><path class="a735d9c0-7a27-4783-9c05-6ec6845822bd" d="M7.84,1a9.4,9.4,0,0,0-2.37.24,25.06,25.06,0,0,0-1.91,1.8c-.14.15-.26.29-.38.44.23.07.28,0,.54-.22L4,3.81c.19-.38.34-.6.77-.6L4.66,3A2.71,2.71,0,0,1,6.53,2c0-.13,0-.13.09-.26.68.17,1.27,0,2,.17.17.05.83,2.18,1.54.77l-.26.09c0-.24,0-.12-.08-.34l-.35.08V2.28C9,2.14,9.23,2,8.75,2l.09-.26a11.56,11.56,0,0,0,2.21-.08V1.51a4.62,4.62,0,0,0-1.62-.09V1.25A6.15,6.15,0,0,0,7.84,1Z"/><path class="a735d9c0-7a27-4783-9c05-6ec6845822bd" d="M12.55,2.18a.51.51,0,0,0-.38.18,6.08,6.08,0,0,1,2,2.29,1.13,1.13,0,0,1,.05-.41,1.07,1.07,0,0,1-.4-.6c-.21-.23-.44-.48-.75-.8A6.55,6.55,0,0,1,12.55,2.18Z"/><path class="a735d9c0-7a27-4783-9c05-6ec6845822bd" d="M14.17,4.65a.25.25,0,0,0,.12.2Z"/><path class="a735d9c0-7a27-4783-9c05-6ec6845822bd" d="M14.29,4.85a8.74,8.74,0,0,1,.79,1.86h.17a4.59,4.59,0,0,1,.17,1.11c.13,0,.22-.26.27-.55,0-.09,0-.21,0-.32s-.1-.28-.15-.42h-.09c0-.06,0-.12,0-.18a.94.94,0,0,1,0-.09s-.16-.51-.28-.85L15,5.24h-.12V5.1h-.17V4.93A1,1,0,0,1,14.29,4.85Z"/><path class="a735d9c0-7a27-4783-9c05-6ec6845822bd" d="M7.31,11.92c-1.12.55-.58,1.8-2.06,2.39l.35.08v.17c.7,0,.55.81.85.85a27,27,0,0,0,3,.26c.36,0,.66-.68,1-.68-.11-.23-.26-.18-.26-.43H9.26v-.17c-.5,0-.43-.61-.51-1l.17.08a1.61,1.61,0,0,0-.08-.77c-.54,0-.46-.44-.94-.68l-.09.26C7.47,12.26,7.54,12.15,7.31,11.92Z"/><path class="a735d9c0-7a27-4783-9c05-6ec6845822bd" d="M6.62,10.85c-.15,0-.25.16-.25.55h.34c-.11.24,0,.27,0,.52h.17v.17c-.26.08-.39,0-.51.25.22.22.14.1.26.34a1.52,1.52,0,0,1,.68-.76c.23.23.16.34.51.34L7.91,12c.47.24.4.68.93.68a1.49,1.49,0,0,1,.09.77l-.17-.08c.08.41,0,1,.51,1v.17l1.11-.08c0-.56.34-1.31.34-2.06a2.93,2.93,0,0,1-2.13-1.36l-.18.17-.17-.09-.34.35-.08-.17C7.52,11.42,6.94,10.82,6.62,10.85Z"/><path class="a735d9c0-7a27-4783-9c05-6ec6845822bd" d="M9.27,4.49l.16,0,0,0Z"/><path class="a735d9c0-7a27-4783-9c05-6ec6845822bd" d="M9.43,4.51l-.16.16.25.25a1.34,1.34,0,0,1-1.19.43v.17c-.28,0-.51.12-.51.43h.25v.17c-.24,0-.31,0-.42.25.31.16.91.48,1.1.09l.68.17V6.8H9.6V7h.18A2.21,2.21,0,0,1,9,8.59a4,4,0,0,1,.59-.17l-.08-.17A2.88,2.88,0,0,1,11,7.4c-.23-.12-.37-.32-.6-.43l.26-.17-.09-.17-.17.08c.38-.47.16-.42.51-.42L11,6a1.43,1.43,0,0,1,.43.17c.1-.32.12-.18,0-.43-.66.09-.51-.09-.69.26l-.17-.09c.32-.16.17,0,.17-.6h-.17A1.1,1.1,0,0,0,9.43,4.51Z"/><path class="a735d9c0-7a27-4783-9c05-6ec6845822bd" d="M6.71,7.22c-.43.22-.11.77-.25,1.2h.17a1.44,1.44,0,0,1,.08.68c-.21-.22-.13-.1-.25-.34a2.31,2.31,0,0,0-.52.34c.32.47.54,1,.86,1.45l.25-.17L7,10.21,7.14,10v.17c.22-.11.11-.09.34-.09v.18h.17c0-.26,0-.26.09-.52.2.41,1,1,1.36.77-.51-1,1.25-.43,1.45-.43-.16-.31-.3-.61-.68-.42a3.65,3.65,0,0,1,.34-1.8L10,8l-.08-.17c-.4.49-.34.25-.34.68-.64.11-.48-.08-.6.43l-.09-.17C7.49,10.12,6.71,8.76,6.71,7.22Z"/><path class="a735d9c0-7a27-4783-9c05-6ec6845822bd" d="M11.49,5.94a.91.91,0,0,1-.09.17C11.13,6,11.3,6,10.89,6v.26c-.35,0-.13,0-.51.42l.26-.08c-.13.24,0,.12-.26.34.6.4,1,1.7,1.54,1.7.19.6,1.15-.06.85.86L13,9.44c-.13.39-.08.16-.08.68h.26L13.11,10l.17-.08c.21.42.08.11.17,1,0-.72.13-2.2-.68-2.47,0-.7-.34-.41-.34-.86h-.17A4.77,4.77,0,0,0,11.49,5.94Z"/><path class="a735d9c0-7a27-4783-9c05-6ec6845822bd" d="M10.29,1.65a1.78,1.78,0,0,0-.68.2A5.51,5.51,0,0,0,11.06,3v.26h.51c0,.53,1.11.51,1.11,1,.32.11.45,0,.77.09l-.17.34h.17l.08.35c.39-.3.28-.13.43-.43a16.49,16.49,0,0,1-1.79-2.39A5,5,0,0,0,10.29,1.65Z"/><path class="a735d9c0-7a27-4783-9c05-6ec6845822bd" d="M7,15.84l-.26.09v.34c.37.12.24,0,.34.43l-.25.08c0-.23,0-.12.08-.34-.17.18-.34.18-.34.43.7.07,1.52.34,2.21.34-.13.51-.34.42-.85.42l-.09-.25-.25.17c.11.22.08.11.08.34L7.39,18c0,.23.05.14-.17.25a2.26,2.26,0,0,0-.17-.43c-.2.39-.53.06-.69.52,1.24.41,4.64.18,5.37-1.28h-.34c-.08-.72.12-.84-.42-1.11l-.17.51a8.12,8.12,0,0,0-1.71.17v-.42l-.34.08v.26c-.24,0-.92.2-1.28.26v-.43H7.21v-.17H7Z"/><path class="a735d9c0-7a27-4783-9c05-6ec6845822bd" d="M7,1.8a2.73,2.73,0,0,0-.5.05V2c-.42.11-2.09.59-1.79,1.19C4,3.21,3.87,4,4,4.66c0-.4-.1-.29.17-.42l-.08.34C5.84,4,6,3,8,3v.17h.43c-.11-.32,0-.22-.26-.34l.09-.17a1.7,1.7,0,0,0,.59.08c-.06-.27-.25-.5-.25-.77A13.31,13.31,0,0,0,7,1.8Z"/><path class="a735d9c0-7a27-4783-9c05-6ec6845822bd" d="M4.66,8.33a9,9,0,0,0-.34,2.06h.17c-.2.62-.07,2.94.51,3.24l-.08-.34c.3-.21.26-.07.26-.35l-.26-.08L5,12.69l-.16-.09.25-.08.17.34c0-.46.38-.71.51-1.11l.52.09c.1-.42,0-1,.59-1C6.88,9.72,5.49,8.74,4.66,8.33Z"/><path class="a735d9c0-7a27-4783-9c05-6ec6845822bd" d="M15,11.83c-.07.61-1,2.16-.77,2.56H14c0,.43-.66.91-.85,1.28.29,0,.26.17.26.43a2.26,2.26,0,0,0,.85.25v.17a.93.93,0,0,0,.39-.18,4.14,4.14,0,0,0,.3-.5h-.09a1.81,1.81,0,0,1,.25-.3c.24-.47.47-1,.67-1.47a1.2,1.2,0,0,1-.07-.53H15.5A4.79,4.79,0,0,0,15.76,12c-.25.12-.11.09-.43.09C15.33,11.83,15.22,11.83,15,11.83Z"/><path class="a735d9c0-7a27-4783-9c05-6ec6845822bd" d="M13.62,12.94l-.08.26-.17-.09a2.67,2.67,0,0,0-.09.26H13a1.56,1.56,0,0,0-.08.76l-.26.09c.16.45-.25.53-.25,1l-.26-.17c-.21.42-.34.32-.34.77-.35-.12-.18-.14-.51.08.14.6.08.23.08,1.11,1,0,2.39-2,2.82-2.81h-.17a4.85,4.85,0,0,0,.08-1.28,1.28,1.28,0,0,0-.42.17Z"/><path class="a735d9c0-7a27-4783-9c05-6ec6845822bd" d="M8.76,6.46l-.09.17a2.55,2.55,0,0,0-1.28.08l.09.17H7l.17-.25a1.34,1.34,0,0,0-.68-.09c.76,1.54.28,3.79,2.38,2.21l.09.17c.21-.63,1-1.29.85-2H9.61V6.79H9.44V6.62A3.2,3.2,0,0,1,8.76,6.46Z"/><path class="a735d9c0-7a27-4783-9c05-6ec6845822bd" d="M7.14,4c.27.14.29.19.6.09,0,.23,0,.34.25.34v.25h.17v.17A2.84,2.84,0,0,0,5.77,6.29a3,3,0,0,1,.6.17V6.29H6.2V5.94L6.46,6c.69-1.4,2.19-.24,3.07-1.11l-.26-.25.17-.17C8.21,4.08,9.27,4.09,7.14,4Z"/><path class="a735d9c0-7a27-4783-9c05-6ec6845822bd" d="M1.59,14.74c0,.31.07.21-.17.34.44,0,.17.44.25.77s.86.85,1,1.36h.18c.14.44.35.56.76.77.12-.23.28-.29.43-.51H3.89c0-.41-.1-.29.17-.43l-.34-.17c-.11.22,0,.17-.26.17v-.51C3,16.52,2.13,15,1.59,14.74Z"/><path class="a735d9c0-7a27-4783-9c05-6ec6845822bd" d="M6.71,11.4c-.42,0-.42,0-.42.43l-.52-.09a8.46,8.46,0,0,0-.59,1.11c-.11-.22-.09-.11-.09-.34l-.25.08.16.09-.08.26h.26c-.23.46-.43.82.17,1a.91.91,0,0,0-.09.17c2.13,0,.57-2.05,1.62-2.05v-.17C6.55,11.92,6.6,11.64,6.71,11.4Z"/><path class="a735d9c0-7a27-4783-9c05-6ec6845822bd" d="M3.9,17.12c0,.41-.11.29.17.43A1.56,1.56,0,0,1,3.5,18l.09.08a4.58,4.58,0,0,0,1.25.46l-.09.17c1,.26.59.34,1.36-.17L6,18.4l.26-.17a2.6,2.6,0,0,1-.86-.17V17.9C4.75,17.71,4.69,17.12,3.9,17.12Z"/><path class="a735d9c0-7a27-4783-9c05-6ec6845822bd" d="M7.57,16.79c-.6-.05-1.2.13-1.2.76h.17v.35L6.11,18c0,.24.06.15-.17.26a1.1,1.1,0,0,0,.52.08c.12-.51.26-.3.68-.51a2,2,0,0,1,.17.43l.17-.09L7.39,18l.26-.08c-.11-.23-.08-.11-.08-.35l.25-.08.09.17a2.47,2.47,0,0,1,.85-.17C8.76,17.13,8.16,16.85,7.57,16.79Z"/><path class="a735d9c0-7a27-4783-9c05-6ec6845822bd" d="M5.86,6.67c-.35,0-.68.33-.68,1L5,7.48C5,9.07,4.94,8.43,6.11,9c.22-.22.1-.14.34-.26.12.24,0,.12.26.34,0-.52,0-.29-.09-.68H6.37C7.1,7.33,6.45,6.62,5.86,6.67Z"/><path class="a735d9c0-7a27-4783-9c05-6ec6845822bd" d="M10.81,7.56c-.38,0-.86.05-.86.43l.26-.09c0,.64-.34,1-.34,1.8.4-.2.69.29,1.28,0,.41-.21.16-.85.51-1a7.32,7.32,0,0,1-.51-1.1Z"/><path class="a735d9c0-7a27-4783-9c05-6ec6845822bd" d="M7.87,5.2H7.66A1.77,1.77,0,0,0,6.46,6L6.2,5.94v.34h.17c0,.36.47.35.77.43L7,6.88h.51l-.09-.17c.58-.1.36,0,.69-.17-.31-.21-.16-.18-.43-.18.11-.22.18-.25.43-.25V5.94H7.82c0-.31.23-.43.51-.43A.54.54,0,0,0,7.87,5.2Z"/><path class="a735d9c0-7a27-4783-9c05-6ec6845822bd" d="M7.74,9.78c0,.26,0,.26-.09.52H7.48v-.18c-.23,0-.12,0-.34.09L7.05,10c-.11.23-.11.11,0,.34l-.25.25c.4.4.78.85,1.28.85,0-.3.51-.6.51-1.19C8.09,10.15,7.88,10.23,7.74,9.78Z"/></g></g></g></svg>