<svg xmlns="http://www.w3.org/2000/svg" xmlns:xlink="http://www.w3.org/1999/xlink" viewBox="0 0 141.3 105.57"><defs><style>.ff4af931-1bde-419c-9046-025457406a79{fill:none;}.a371b927-4a36-455a-9179-cca70dabb495{clip-path:url(#e57ba479-6599-43c4-b1f7-7142ceb46b87);}.a6529a34-935c-4e86-b53b-6d9b723eaa0b{fill:#f9c928;}.a6529a34-935c-4e86-b53b-6d9b723eaa0b,.eb391155-0ea8-4d50-b76d-d50eab2a23b1,.f195cb74-b84e-40c4-b945-f4c95c2c9077{stroke:#362c2c;stroke-miterlimit:10;}.eb391155-0ea8-4d50-b76d-d50eab2a23b1{fill:#f19d19;}.f195cb74-b84e-40c4-b945-f4c95c2c9077{fill:#f19418;}</style><clipPath id="e57ba479-6599-43c4-b1f7-7142ceb46b87" transform="translate(13.92 -33.89)"><path class="ff4af931-1bde-419c-9046-025457406a79" d="M97.07,42H70.76c-2.58-2.61-5.07-5.43-6.17-9,0-.14-.09-.28-.13-.42a17.77,17.77,0,1,0-19.82-.18c-.38,2.4-.78,4.81-2.56,6.66-.91,1-1.87,2-2.87,2.94H12.5A12.46,12.46,0,0,0,0,54.44v87.91a12.45,12.45,0,0,0,12.5,12.4H42.34v-.07a5.43,5.43,0,0,1-.63-.88c-.07-.1-.13-.21-.19-.31s-.05-.11-.07-.16-.05-.07-.07-.06a17.77,17.77,0,1,1,32.84-9.37,17.26,17.26,0,0,1-3,9.84v0a12.16,12.16,0,0,1-.71,1H97.12a12.44,12.44,0,0,0,12.44-12.45V54.44A12.44,12.44,0,0,0,97.07,42Z"/></clipPath></defs><g id="b8806c19-4ce1-47fe-8864-ffc71aa17e77" data-name="Layer 2"><g id="a9556532-9aa0-4ff3-9e6d-d14259cd27e4" data-name="Layer 1"><g class="a371b927-4a36-455a-9179-cca70dabb495"><path class="a6529a34-935c-4e86-b53b-6d9b723eaa0b" d="M112.64,139H.83c-3,0-5.48-1-5.48-2.12v-6.38H118.12v6.38C118.12,138,115.66,139,112.64,139Z" transform="translate(13.92 -33.89)"/><path class="a6529a34-935c-4e86-b53b-6d9b723eaa0b" d="M119.2,45.87H1V37.36c0-1.64,4.63-3,10.34-3h97.52c5.71,0,10.34,1.33,10.34,3v8.51Z" transform="translate(13.92 -33.89)"/><path class="eb391155-0ea8-4d50-b76d-d50eab2a23b1" d="M118.12,130.46H-4.65c-4.84,0-8.77-1.52-8.77-3.4V115.58c0-1.88,3.93-3.4,8.77-3.4H118.12c4.84,0,8.77,1.52,8.77,3.4v11.48C126.89,128.94,123,130.46,118.12,130.46Z" transform="translate(13.92 -33.89)"/><path class="f195cb74-b84e-40c4-b945-f4c95c2c9077" d="M118.12,112.18H-4.65c-4.84,0-8.77-1.52-8.77-3.4V99c0-1.87,3.93-3.4,8.77-3.4H118.12c4.84,0,8.77,1.53,8.77,3.4v9.78C126.89,110.66,123,112.18,118.12,112.18Z" transform="translate(13.92 -33.89)"/><path class="eb391155-0ea8-4d50-b76d-d50eab2a23b1" d="M118.12,95.6H-4.65c-4.84,0-8.77-1.52-8.77-3.4V82.42c0-1.87,3.93-3.4,8.77-3.4H118.12c4.84,0,8.77,1.53,8.77,3.4V92.2C126.89,94.08,123,95.6,118.12,95.6Z" transform="translate(13.92 -33.89)"/><path class="f195cb74-b84e-40c4-b945-f4c95c2c9077" d="M118.12,79H-4.65c-4.84,0-8.77-1.52-8.77-3.4V65.85c0-1.88,3.93-3.4,8.77-3.4H118.12c4.84,0,8.77,1.52,8.77,3.4v9.77C126.89,77.5,123,79,118.12,79Z" transform="translate(13.92 -33.89)"/><path class="eb391155-0ea8-4d50-b76d-d50eab2a23b1" d="M118.12,62.44H-4.65c-4.84,0-8.77-1.52-8.77-3.4V50.33c0-2.47,5.16-4.46,11.51-4.46H115.38c6.35,0,11.51,2,11.51,4.46V59C126.89,60.92,123,62.44,118.12,62.44Z" transform="translate(13.92 -33.89)"/></g></g></g></svg>