<svg xmlns="http://www.w3.org/2000/svg" viewBox="0 0 321.59 261.93"><defs><style>.a1a9e29e-67f0-4641-8a2a-3ad5c027df50{fill:#60ccf2;opacity:0.14;}.a1a9e29e-67f0-4641-8a2a-3ad5c027df50,.a1c095c8-aba4-480a-8ff8-4af27dc3e448,.a88c8971-1c93-4a58-bf5a-f2a717069a40,.e4a73f85-143e-482e-ac4b-c4fa7e780158,.e902af3a-b571-4325-b3a9-ec1d55ce65f7,.eb2b9e50-bd44-4d7d-947c-7a942b9851ee{isolation:isolate;}.a88c8971-1c93-4a58-bf5a-f2a717069a40,.e4a73f85-143e-482e-ac4b-c4fa7e780158{fill:#e9f2da;}.e4a73f85-143e-482e-ac4b-c4fa7e780158{opacity:0.11;}.f5cf7d6d-a046-4204-9c6d-83650c3b5fcf{fill:#6fbeea;}.a1eb6cd9-6df7-473d-9fbc-b685329e8b0b{fill:#92ccef;}.ec245ec5-a133-408a-af1c-de54b0a8e790{fill:#012c35;}.a88c8971-1c93-4a58-bf5a-f2a717069a40{opacity:0.18;}.eb2b9e50-bd44-4d7d-947c-7a942b9851ee{fill:#cbebf9;opacity:0.42;}.a1c095c8-aba4-480a-8ff8-4af27dc3e448,.f0a7db42-2462-441d-8e30-324efb61f834{fill:#fff;}.a1c095c8-aba4-480a-8ff8-4af27dc3e448{opacity:0.53;}.e99094d9-be23-47a5-bbd2-51d9c4ccd6fa{fill:#600;}.b7051737-5a7f-4701-8a43-d3539f55c712{fill:#231f20;}.b791824f-c0a4-4e12-ae69-0ed54058b18b{fill:#286030;}.fb976ad7-4a75-490d-9460-0899fb7a90a5{fill:#c4c6c8;}.e902af3a-b571-4325-b3a9-ec1d55ce65f7{fill:#faed24;opacity:0.43;}.a7431dc6-0842-433b-a5bf-c9fa54ec084b{fill:#f5faf2;}.ecf7fb13-c94c-431a-a33d-71c3ec6df136{fill:#141b0f;}.a0da9b52-d9d1-4bc8-906e-a9ae4ea0a4e5{fill:#545456;}.b9de22f1-ecf4-4b58-bcb7-5f6d0c793bcd{fill:#263218;}.a1ef5ea6-7d86-4b94-a5f5-4c94ac81f41b{fill:#f68b62;}.f02e9abd-672d-4020-81e6-ed84ba74417a{fill:#a1a3a6;}.b7c762d8-b479-4ab1-bc9c-0d4c5155a1ba{fill:#808285;}.b4b126f0-5f22-4c47-a449-da453eed7325{fill:#4d4d4f;}</style></defs><g id="bea764f3-47b7-4c11-8d7a-b641d1e978f6" data-name="Layer 2"><g id="bc06208c-2335-4571-b128-081cecd2ee59" data-name="Layer 1"><path class="a1a9e29e-67f0-4641-8a2a-3ad5c027df50" d="M48.74,169.44S-7.11,94,67.21,28.82c62-54.37,171.36-25.26,196.16,33,17.4,40.85,3.38,93-20.76,106.46C210.28,186.28,48.74,169.44,48.74,169.44Z"/><path class="e4a73f85-143e-482e-ac4b-c4fa7e780158" d="M59.82,166s-36-61.86,21.72-112C136.73,6.05,225.26,35.39,244.13,81.46c19.94,48.66-8.65,80.89-8.65,80.89C208,174.59,59.82,166,59.82,166Z"/><path class="f5cf7d6d-a046-4204-9c6d-83650c3b5fcf" d="M74,149.39s-4.49-95,77.28-95c84,0,77.31,95,77.31,95Z"/><path class="a1eb6cd9-6df7-473d-9fbc-b685329e8b0b" d="M77.82,150s-7-91,73.28-91C233.61,59,225,146.87,225,146.87Z"/><path class="ec245ec5-a133-408a-af1c-de54b0a8e790" d="M77.84,151.1c0-12.61,33-22.83,73.75-22.83s73.75,10.22,73.75,22.83-33,22.82-73.75,22.82S77.84,163.71,77.84,151.1Z"/><path class="a88c8971-1c93-4a58-bf5a-f2a717069a40" d="M154.45,66S106.29,54.5,91.26,94.12c-15.4,40.59,8.83,49.7,52.06,43.35C184.49,131.41,154.45,66,154.45,66Z"/><path class="eb2b9e50-bd44-4d7d-947c-7a942b9851ee" d="M102,164.74S94.45,73.9,148.54,59c0,0-73.18-4-70.72,91C77.82,150,77.53,159.18,102,164.74Z"/><path class="a1c095c8-aba4-480a-8ff8-4af27dc3e448" d="M132,62.18S102.54,75.1,94.17,111.69a3.51,3.51,0,0,1-3.7,2.71h0a3.5,3.5,0,0,1-3.07-4.47C90.62,98.88,102,69,132,62.18Z"/><path class="e99094d9-be23-47a5-bbd2-51d9c4ccd6fa" d="M59.82,166S67.2,151.74,74,149.4c20.87-7.17,123.22-10.76,154.72-1.29,0,0,8,7,9.22,11.48C239.06,163.71,139.6,150.73,59.82,166Z"/><path class="b7051737-5a7f-4701-8a43-d3539f55c712" d="M8.24,190s43.07-39.74,166.69-35.69c129,4.23,142,37.31,145.93,49.56,4.19,13-38.74,51.3-183.89,53.67C12.82,259.6-17,208,8.24,190Z"/><path class="b791824f-c0a4-4e12-ae69-0ed54058b18b" d="M142.79,236.33c0-7.31,5.38-13.23,12-13.23s12,5.92,12,13.23-5.38,13.23-12,13.23S142.79,243.63,142.79,236.33Z"/><path class="fb976ad7-4a75-490d-9460-0899fb7a90a5" d="M1.75,203.85S13,164.74,159.94,164.74c135.82,0,156.66,30.8,156.66,30.8s22.12,18.1-26.78,37.1c0,0,30.61-14.49,10.43-25.06-28.18-14.76-95.35-22.33-142.3-21.05-168.34,4.59-139.26,45.52-139.26,45.52C-3.61,217.49,1.75,203.85,1.75,203.85Z"/><path class="f0a7db42-2462-441d-8e30-324efb61f834" d="M67.37,190.43S54.8,178,62.07,176.6c120.6-22.55,203.07,0,203.07,0-1.29,3.19-8.22,14.65-12.46,14-2.3-.36-14.59-2.42-14.59-2.42-10.94-2.14-67.85-11.56-147.83-.59C90.26,187.55,68.55,190.27,67.37,190.43Z"/><path class="b7051737-5a7f-4701-8a43-d3539f55c712" d="M71.86,235.91c0-12.3,35.22-22.27,78.66-22.27s78.66,10,78.66,22.27S194,258.18,150.52,258.18,71.86,248.21,71.86,235.91Z"/><path class="e902af3a-b571-4325-b3a9-ec1d55ce65f7" d="M200,248.34H104"/><path class="a7431dc6-0842-433b-a5bf-c9fa54ec084b" d="M94.9,241.15c0-8.7,24.9-15.75,55.62-15.75s55.62,7,55.62,15.75-24.9,15.75-55.62,15.75S94.9,249.85,94.9,241.15Z"/><path class="ecf7fb13-c94c-431a-a33d-71c3ec6df136" d="M104,248.34c0-7.51,21.5-13.6,48-13.6s48,6.09,48,13.6-21.51,13.59-48,13.59S104,255.85,104,248.34Z"/><path class="a0da9b52-d9d1-4bc8-906e-a9ae4ea0a4e5" d="M61.57,200.93s10.91,13.22,19.6,15.43l-12,5.14s-14.33-1.33-26.59-14.56A73.51,73.51,0,0,1,61.57,200.93Z"/><path class="b9de22f1-ecf4-4b58-bcb7-5f6d0c793bcd" d="M59.82,166s69.63-12.73,132-10.9c0,0-33.43-6.65-129.26,6.17C62.56,161.26,59.9,164.63,59.82,166Z"/><path class="a1ef5ea6-7d86-4b94-a5f5-4c94ac81f41b" d="M154.06,144.29c31.55.35,66.77,9.9,66.77,9.9s-78-10.14-153.46,4.09c0,0,3.87-5,7.38-6.49C87.32,146.6,121.82,143.92,154.06,144.29Z"/><path class="f02e9abd-672d-4020-81e6-ed84ba74417a" d="M60.87,169s120.84-17.4,209.48,3.43c0,0-7.27-6.46-26.22-10.14C227.39,159.07,127.54,148.92,60.87,169Z"/><path class="f0a7db42-2462-441d-8e30-324efb61f834" d="M51.85,179.32s-.4,5.39,6.95,13.8c0,0-11.77,2.2-20.83,6.29,0,0-7.64-8.35-6.37-13.23A67.47,67.47,0,0,1,51.85,179.32Z"/><path class="b7c762d8-b479-4ab1-bc9c-0d4c5155a1ba" d="M234.55,219s23.36-9.68,33-19.42c0,0,11.59,4,14.85,5.48,0,0-17.93,12.88-41.21,18A37.5,37.5,0,0,0,234.55,219Z"/><path class="f0a7db42-2462-441d-8e30-324efb61f834" d="M272.07,193.81s11.76,3,14.58,4.88a38.44,38.44,0,0,0,9.8-12.35s-10.41-4.41-16.3-5.51A35.18,35.18,0,0,1,272.07,193.81Z"/><path class="b4b126f0-5f22-4c47-a449-da453eed7325" d="M67.37,199.41s14.22,12.89,19.89,14.23c0,0,74.86-15.24,133.57,0,0,0,19.06-1.63,30.37-14.95C251.2,198.69,173.26,181.59,67.37,199.41Z"/><path class="f0a7db42-2462-441d-8e30-324efb61f834" d="M126.43,246.72c-.06-4,11.34-7.42,25.46-7.64s25.62,2.84,25.68,6.84-11.33,7.42-25.45,7.64S126.49,250.72,126.43,246.72Z"/></g></g></svg>