<svg xmlns="http://www.w3.org/2000/svg" viewBox="0 0 45.47 58.18"><defs><style>.adc1dc9b-5e7e-4f90-906f-a179dbc02a4c{fill:#fff;}.ac849649-9f87-4fd8-ab03-351f5807eec1,.adc1dc9b-5e7e-4f90-906f-a179dbc02a4c,.b45b0a7b-b4d1-4046-a986-d684fa2d5ed4,.baaafec9-3cd3-402b-b4e1-8fb9d9c230e8,.e12492c8-3ce1-4940-a341-1826511887e6,.eca91d02-e021-43d7-a9ee-bf89919bf2b5,.f6abb26d-611c-4858-87cf-1f6a4b7440e6{stroke:#242020;}.ac849649-9f87-4fd8-ab03-351f5807eec1,.adc1dc9b-5e7e-4f90-906f-a179dbc02a4c,.baaafec9-3cd3-402b-b4e1-8fb9d9c230e8,.e12492c8-3ce1-4940-a341-1826511887e6,.eca91d02-e021-43d7-a9ee-bf89919bf2b5,.f6abb26d-611c-4858-87cf-1f6a4b7440e6{stroke-miterlimit:10;}.e12492c8-3ce1-4940-a341-1826511887e6{fill:#fafafa;}.eca91d02-e021-43d7-a9ee-bf89919bf2b5{fill:#f32b19;}.ac849649-9f87-4fd8-ab03-351f5807eec1{fill:#ba1c0d;}.f6abb26d-611c-4858-87cf-1f6a4b7440e6{fill:#f0f0f0;}.baaafec9-3cd3-402b-b4e1-8fb9d9c230e8{fill:#d4d4d4;}.b45b0a7b-b4d1-4046-a986-d684fa2d5ed4{fill:#ebebeb;stroke-miterlimit:10;}</style></defs><g id="a3c2386c-7a04-45ea-9af3-17d6d21a5a36" data-name="Layer 2"><g id="e882a8d9-80b0-4d92-87e2-2bf5978cd61c" data-name="Layer 1"><path class="adc1dc9b-5e7e-4f90-906f-a179dbc02a4c" d="M5.48,54.49H4.4V45.13c0-.36-.42-.65-.94-.65s-.94.29-.94.65v9.36H1.44c-.52,0-.94.29-.94.64s.42.64.94.64H2.52V57c0,.36.42.65.94.65s.94-.29.94-.65V55.77H5.48c.52,0,.94-.28.94-.64S6,54.49,5.48,54.49Z"/><path class="e12492c8-3ce1-4940-a341-1826511887e6" d="M40,54.49h1.09V45.13c0-.36.42-.65.93-.65s.94.29.94.65v9.36H44c.52,0,.94.29.94.64s-.42.64-.94.64H43V57c0,.36-.42.65-.94.65s-.93-.29-.93-.65V55.77H40c-.52,0-.94-.28-.94-.64S39.47,54.49,40,54.49Z"/><path class="eca91d02-e021-43d7-a9ee-bf89919bf2b5" d="M43,27.71a20.22,20.22,0,1,0-40.43.2V46.67a1.25,1.25,0,0,0,1.25,1.25H8.08a2.52,2.52,0,0,0,2.53-2.52V34A5.06,5.06,0,0,1,15.66,29H29.81A5.06,5.06,0,0,1,34.86,34V45.4a2.53,2.53,0,0,0,2.53,2.52H41.7A1.25,1.25,0,0,0,43,46.67v-19Z"/><path class="ac849649-9f87-4fd8-ab03-351f5807eec1" d="M22.73,7.5a19.05,19.05,0,0,0-2,.1A20.22,20.22,0,0,1,38.91,27.71V47.92H41.7A1.25,1.25,0,0,0,43,46.67v-19A20.21,20.21,0,0,0,22.73,7.5Z"/><path class="f6abb26d-611c-4858-87cf-1f6a4b7440e6" d="M42.77,25a19.72,19.72,0,0,0-1-4.14c-.95-.43-1.33-1.29-2.85-1.29-2,0-2,1.52-4,1.52s-2-1.52-4-1.52-2,1.52-4,1.52-2-1.52-4-1.52-2,1.52-4,1.52-2-1.52-4-1.52-2,1.52-4,1.52-2-1.52-4-1.52c-1.48,0-1.88.82-2.79,1.26a19.89,19.89,0,0,0-1,4.17c1.81-.1,1.88-1.51,3.83-1.51S8.59,25,10.61,25s2-1.51,4-1.51,2,1.51,4,1.51,2-1.51,4-1.51,2,1.51,4,1.51,2-1.51,4-1.51,2,1.51,4,1.51,2-1.51,4-1.51,2,1.42,3.86,1.51Z"/><path class="baaafec9-3cd3-402b-b4e1-8fb9d9c230e8" d="M41.76,20.88c-.95-.43-1.33-1.29-2.85-1.29a2.79,2.79,0,0,0-1.53.41,20.09,20.09,0,0,1,1.1,3.53l.43,0c2,0,2,1.42,3.86,1.51A19.72,19.72,0,0,0,41.76,20.88Z"/><circle class="b45b0a7b-b4d1-4046-a986-d684fa2d5ed4" cx="22.74" cy="4.08" r="3.41"/><path class="adc1dc9b-5e7e-4f90-906f-a179dbc02a4c" d="M24.06.94a3.41,3.41,0,0,1-3.14,4.74,3.47,3.47,0,0,1-1.33-.27A3.41,3.41,0,1,0,24.06.94Z"/><path class="adc1dc9b-5e7e-4f90-906f-a179dbc02a4c" d="M24.74,12.06a.94.94,0,0,0-1.33,0l-.67.68-.68-.68a.94.94,0,0,0-1.33,0,1,1,0,0,0,0,1.33l.68.67-.68.68a1,1,0,0,0,0,1.33,1,1,0,0,0,.67.27.93.93,0,0,0,.66-.27l.68-.68.67.68a1,1,0,0,0,.67.27.94.94,0,0,0,.66-1.6l-.68-.68.68-.67a.94.94,0,0,0,0-1.33Z"/><path class="adc1dc9b-5e7e-4f90-906f-a179dbc02a4c" d="M38,32.65a.93.93,0,0,0,.9.67,1,1,0,0,0,.9-.67.93.93,0,0,0,.67-.9,1,1,0,0,0-.67-.9,1,1,0,0,0-.9-.67.94.94,0,0,0-.9.67,1,1,0,0,0-.67.9A.93.93,0,0,0,38,32.65Z"/><path class="adc1dc9b-5e7e-4f90-906f-a179dbc02a4c" d="M39.81,36.59a1,1,0,0,0-.9-.67.93.93,0,0,0-.9.67,1,1,0,0,0-.67.9.93.93,0,0,0,.67.9.93.93,0,0,0,.9.67,1,1,0,0,0,.9-.67.94.94,0,0,0,.67-.9A1,1,0,0,0,39.81,36.59Z"/><path class="adc1dc9b-5e7e-4f90-906f-a179dbc02a4c" d="M39.81,42.33a1,1,0,0,0-.9-.67.93.93,0,0,0-.9.67,1,1,0,0,0-.67.9.93.93,0,0,0,.67.9.93.93,0,0,0,.9.67,1,1,0,0,0,.9-.67.94.94,0,0,0,.67-.9A1,1,0,0,0,39.81,42.33Z"/><path class="adc1dc9b-5e7e-4f90-906f-a179dbc02a4c" d="M7.46,30.85a.93.93,0,0,0-1.79,0,1,1,0,0,0-.68.9.94.94,0,0,0,.68.9.93.93,0,0,0,1.79,0,.93.93,0,0,0,.67-.9A1,1,0,0,0,7.46,30.85Z"/><path class="adc1dc9b-5e7e-4f90-906f-a179dbc02a4c" d="M7.46,36.59a.93.93,0,0,0-1.79,0,1,1,0,0,0-.68.9.94.94,0,0,0,.68.9.93.93,0,0,0,1.79,0,.93.93,0,0,0,.67-.9A1,1,0,0,0,7.46,36.59Z"/><path class="adc1dc9b-5e7e-4f90-906f-a179dbc02a4c" d="M7.46,42.33a.93.93,0,0,0-1.79,0,1,1,0,0,0-.68.9.94.94,0,0,0,.68.9.93.93,0,0,0,1.79,0,.93.93,0,0,0,.67-.9A1,1,0,0,0,7.46,42.33Z"/></g></g></svg>