<svg xmlns="http://www.w3.org/2000/svg" xmlns:xlink="http://www.w3.org/1999/xlink" viewBox="0 0 113.2 56.74"><defs><style>.e8dd6fec-89a9-49de-876c-0934b848c7d8{fill:url(#f3ac0956-90b6-49d4-805c-b8018c543a04);}.aefffd48-b5b7-4d0e-a6e6-5822b0718bd4{fill:url(#a7b4cdf6-be2e-403e-bca1-f7a4e0514797);}.a74d119f-acbe-4e56-a634-40a86a822e70{fill:#2baae2;fill-rule:evenodd;}</style><linearGradient id="f3ac0956-90b6-49d4-805c-b8018c543a04" x1="-713.78" y1="260.93" x2="-706.51" y2="268.26" gradientTransform="translate(3890.49 -1391.8) scale(5.35)" gradientUnits="userSpaceOnUse"><stop offset="0.21" stop-color="#f15b27"/><stop offset="0.68" stop-color="#fbb03c"/></linearGradient><linearGradient id="a7b4cdf6-be2e-403e-bca1-f7a4e0514797" x1="-719.14" y1="269.86" x2="-726.41" y2="262.53" gradientTransform="translate(3890.49 -1391.8) scale(5.35)" gradientUnits="userSpaceOnUse"><stop offset="0.21" stop-color="#ed2079"/><stop offset="0.89" stop-color="#532d84"/></linearGradient></defs><g id="a86cd82f-dcf0-4311-a428-313afcc0b7dd" data-name="Layer 2"><g id="fc2934b7-053d-4d6b-9e93-9e67d90e27b4" data-name="Layer 1"><g id="a9762a1d-ef7a-4093-95c5-f92fdb3352cb" data-name="Untitled"><path class="e8dd6fec-89a9-49de-876c-0934b848c7d8" d="M85.71,0C79.4,0,72.49,3.44,65.2,10.22a89.88,89.88,0,0,0-8.68,9.41s3.53,4.07,7.41,8.46a88.19,88.19,0,0,1,8.62-9.5C79,12.53,83.25,11.3,85.68,11.3c9.09,0,16.47,7.63,16.47,17.07A16.9,16.9,0,0,1,85.68,45.44a7.88,7.88,0,0,1-1.58-.19,20.17,20.17,0,0,0,8.2,2.12c16.67,0,20-11.52,20.14-12.34a30.41,30.41,0,0,0,.76-6.6C113.16,12.75,100.86,0,85.71,0Z"/><path class="aefffd48-b5b7-4d0e-a6e6-5822b0718bd4" d="M27.49,56.74c6.31,0,13.22-3.44,20.51-10.22a89.88,89.88,0,0,0,8.68-9.41S53.14,33,49.26,28.65a86.94,86.94,0,0,1-8.61,9.5c-6.47,6-10.73,7.29-13.13,7.29-9.09,0-16.47-7.63-16.47-17.07A16.9,16.9,0,0,1,27.52,11.3a8,8,0,0,1,1.58.19,20.25,20.25,0,0,0-8.21-2.12C4.23,9.34,1,20.86.76,21.71A29.8,29.8,0,0,0,0,28.31C0,44,12.31,56.74,27.49,56.74Z"/><path class="a74d119f-acbe-4e56-a634-40a86a822e70" d="M40.17,18.84c-1.83-1.77-10.73-9-19.25-9.25C5.71,9.21,1.26,20.26.85,21.68,3.79,9.31,14.64.06,27.52,0,38,0,48.66,10.32,56.52,19.63l0,0s3.53,4.07,7.42,8.45c0,0,4.41,5.21,9.08,9.79,1.84,1.76,10.7,8.9,19.22,9.15,15.62.44,20-11.24,20.17-12.12a27.8,27.8,0,0,1-26.7,21.81c-10.51,0-21.14-10.32-29-19.63,0,0,0,0,0,.06S53.14,33,49.26,28.65C49.29,28.65,44.87,23.42,40.17,18.84Zm-39.32,3a.12.12,0,0,1,0-.1A.12.12,0,0,0,.85,21.81Z"/></g></g></g></svg>