<svg xmlns="http://www.w3.org/2000/svg" viewBox="0 0 244.47 43.14"><defs><style>.e0d43fa4-abe6-4367-b66f-4d726fcff418{fill:red;}.facb524a-7ec4-4e30-b406-1ddb142c8b2b{fill:none;}</style></defs><g id="bc02ba96-c926-4de6-b2fe-d3c380ec9bee" data-name="Layer 2"><g id="a2c0c4ea-3da5-4214-b2a5-096731f43605" data-name="Layer 1"><path d="M36.58,39.49c0-1.74-3.55-5.08-4.71-6.23-5.05-5-10.61-8.9-14-15.66-1.15,1.14-.32,3.23-.28,4.85.13,5.62,2.49,10.72,2.49,16.63,0,.78-.14,1.57-.14,2.35l-.41.14c0-4.64-2.71-9.62-4.3-13.86-2.3-6.15-1.62-13,.42-19.12C6,13.43,1.74,29.76.55,39.21-2.32,24.86,6.23,6.72,19.68,0c.18.91,1.58,3.06,1.24,3.74h.28c0,.55-.1.32.28.69l-.14.28c.32.32.37.65.69,1L21.89,6h.28c-.22.45.6,2.22,1.11,2.22l-.14.27h.28a2.83,2.83,0,0,0,.28,1H24c0,.43,0,.19.14.7h.28l-.14.27h.28v.42h.27v.41h.28v.42h.28v.42h.28c0,.58.22.41.41,1h.28c0,2.07,4.71,3.57,4.71,5.12.38,0,.55,0,.55.42H32v.28h.42v.27c.42,0,.69-.06.69.42,3.22,0,6.68,3.58,10.25,1.8a6.58,6.58,0,0,0,.14,2.49c-2.31,0-4.6.47-6.93.14-9.84-1.4-10.72-7.39-16.49-13.16C18.73,21.68,36.58,28.24,36.58,39.49Z" transform="translate(0 1.57)"/><path class="e0d43fa4-abe6-4367-b66f-4d726fcff418" d="M36.31,37.41c-1.69-3.36-3-7-5.69-9.7-4.35-4.35-10.53-9.87-10.53-17,3,8.92,14.25,15,23.42,13.16a6.24,6.24,0,0,0,.14,2.36C37.72,26.19,34.32,31.46,36.31,37.41Z" transform="translate(0 1.57)"/><path class="e0d43fa4-abe6-4367-b66f-4d726fcff418" d="M19.4,41.43C14.9,34.68,6.28,35.67.55,39.49c-.77-1.55.55-6.48,1.11-8.17,2.51-7.51,6.13-18.8,14-22.73,0,5.35-2.38,9.7-1.53,15.66S19.4,35.38,19.4,41.43Z" transform="translate(0 1.57)"/><path class="e0d43fa4-abe6-4367-b66f-4d726fcff418" d="M20,41.43c-1.09-2.19.14-4.89.14-7.34,0-3.78-4.08-13.84-2.21-16.63C19.19,24,27.5,28.88,31.73,33.12c1.29,1.29,4.71,4.38,4.71,6.37C31.29,36.05,23.34,36.36,20,41.43Z" transform="translate(0 1.57)"/><path d="M224.2,10.67c-1.54,1.54-2.43,4-3.88,5.68-4.72,5.58-12,9.36-19.53,7.48,0-.83-.56-2.49.27-2.49,6.8,0,10.48-1.34,15.38-6.24C218.52,13,221.51,9,222.26,6c.27-1.06,2-6.08,2.77-5.82V.42c3.41,1.13,10.75,8.12,11.92,11.64h.28c0,.58.23.41.41,1h.28v.41h.28v.42h.28v.41h.27v.42H239c0,.42,0,.19.14.69h.28c0,.42,0,.19.13.69h.28c0,.45.2,1.25.69,1.25l-.13.28h.27l-.14.28c.44,0,.46.19.28.55h.28l-.14.28h.28c-.36.71.77.81.41,1.52,3.79,3.79,2.93,14.75,2.08,19-1.26-10.08-5.37-25.54-15.24-30.48,1.09,5.46,2.67,10.42,1.38,16.21-1.21,5.48-5.12,10.81-5.12,16.49l-.42.14c0-2.45-.28-4.88-.28-7.34,0-4.65,4.51-12.48,2.36-16.77-1.88,1.88-2.87,5.36-5,7.48-4.36,4.37-11.79,8.37-13.86,14.55C207.57,28.62,223,22.63,224.2,10.67Z" transform="translate(0 1.57)"/><path class="e0d43fa4-abe6-4367-b66f-4d726fcff418" d="M224.76,41.43c-1.06-5.3,4.37-11.76,5.12-17a37.15,37.15,0,0,0,.28-9.42c-.14-1.24-2-5.39-1.52-6.38,6.76,6.77,10.57,13.15,13.72,22.59.45,1.36,1.94,7.47,1.1,8.31C238.68,34.71,228,35,224.76,41.43Z" transform="translate(0 1.57)"/><path class="e0d43fa4-abe6-4367-b66f-4d726fcff418" d="M200.65,26.19a7.14,7.14,0,0,1,.14-2.36c12.73,0,16.15-2.26,23.41-13.16,0,10.91-12.78,16.6-16.07,26.47-.37-1.1.14-3,.14-4C208.27,28.52,204.71,26.53,200.65,26.19Z" transform="translate(0 1.57)"/><path class="e0d43fa4-abe6-4367-b66f-4d726fcff418" d="M224.34,41.43c0-2.4-.28-4.78-.28-7.2,0-4.65,4.51-12.48,2.36-16.77-1.88,1.88-2.87,5.36-5,7.48-4.64,4.65-10.82,8.35-13.86,14.41l.28.14a7,7,0,0,1,2.36-1.25C216.35,36.71,220.08,37.17,224.34,41.43Z" transform="translate(0 1.57)"/><line class="facb524a-7ec4-4e30-b406-1ddb142c8b2b" x1="110" x2="110"/></g></g></svg>