<svg xmlns="http://www.w3.org/2000/svg" viewBox="0 0 31.67 30.81"><defs><style>.e22cda5a-38aa-41c7-b36c-b8aeff90ddc5{fill:#fc3640;}.adeb7638-a667-4b02-b0a6-9ab723abc537{fill:#050102;}.eeae6187-71d9-46c1-b366-6f881cada3af{fill:#fe3640;}.f847d272-f492-4a6e-b862-3dcc5e878ec9{fill:#fffcfc;}.ba32c6b4-2fa3-4ae5-80ec-61c0432579aa{fill:#ef706d;}.ff5211cc-329d-46ce-9562-eebd626ed833{fill:#fef2f2;}.a68604a5-b69e-4526-a17f-32b371de0ca0{fill:#0f0305;}.ac77de6f-dab7-4a45-8d39-d26f74538972{fill:#fdf4f4;}.bb314a4d-a0df-4cd4-91c9-d9ebbd5275c5{fill:#fcd7d6;}</style></defs><g id="fac70643-ac58-4257-8f0d-d19271b284c0" data-name="Layer 2"><g id="b6a04cf4-4f97-4884-a706-6392e66ec7a1" data-name="Layer 1"><g id="a779d1f8-dede-4ba0-9aaa-fe95c1083896" data-name="Layer 1"><path class="e22cda5a-38aa-41c7-b36c-b8aeff90ddc5" d="M23.31,7.74a29.36,29.36,0,0,1,3.41-.14c3.05.35,5.35,2.5,4.89,5.6a5.54,5.54,0,0,1-.83,2.15c-1.45,2.33-4.43,3.39-6.19,5.46-2.07,2.43-1.87,5.9-4.23,8.17a6.41,6.41,0,0,1-2.49,1.56,8.12,8.12,0,0,1-2.56.27c-1.26,0-1.85-.62-2.87-.95v0c-.55-.17-.94-.74-1.29-1.07-1.34-1.29-1.82-3.09-2.42-4.82a7.08,7.08,0,0,0-.88-2.06,13.74,13.74,0,0,0-3.07-3.16C3.3,17.65,1.32,16.64.65,14.9a6.56,6.56,0,0,1-.64-3c.28-3.59,4.93-5,8-4.23a6.26,6.26,0,0,0,.68,2.12,7.47,7.47,0,0,0,7,4.35,9.39,9.39,0,0,0,4-1.18,8,8,0,0,0,2.6-2.65c.13-.19.57-1.45.66-1.49a1.17,1.17,0,0,1,.15-.49c-.05-.09.08-.2,0-.28A1,1,0,0,0,23.31,7.74Z"/><path class="adeb7638-a667-4b02-b0a6-9ab723abc537" d="M6.78,10.91c-.49.12-2.49.46-2.65.92.2.1.3.45.52.52,0,.12.35.37.44.45a6.13,6.13,0,0,0,1.78,1.42v0c.09,0,.12.1.2.1v0h.06v0c.1,0,.08.09.18.09v0h.05v0h.06v0h0v0h0v0h.06c0,.08.13.1.2.12v0s0,0,.09,0v0h0v0c.06,0,0,0,.09,0v0c.27.06.48.31.78.38v0h.05v0h.08v0a1.76,1.76,0,0,1,.55.26c.18,0,.39.17.56.21v0c.23,0,.48.19.71.23v0a7.1,7.1,0,0,1,1.15.33,18.23,18.23,0,0,0,2.84.44,16.53,16.53,0,0,0,10.16-3.09,15.33,15.33,0,0,0,1.92-1.45c.09-.09.52-.35.52-.49a16.16,16.16,0,0,1-1.8-.66c-.07,0-.52-.12-.44-.28.28-.52,1.74.13,2.21.25v0c.1,0,.19.09.29.12v0h.05v0h.05v0h.06v0c.59.19.82,1,1.32,1.22l0,0c.08,0,.06.08.14.12l0,0,.08,0,0,0,.07,0,0,0a.2.2,0,0,1,.09.13h.06l0,0c.06,0,.08,0,.05.07s0,0,0,.05l.05,0v0c.06,0,0,.08.1.11v0h0l0,0c.09,0,.1.3.15.39-.14.13-.37-.31-.45-.42-.22-.28-1.21-1.37-1.57-1.37-.11,0-.57.67-.64.75s-1.91,1.67-1.91,1.8h0v0a19.52,19.52,0,0,0-2,1.9,15.13,15.13,0,0,1-1.09,1.68c0,.06,0,.12-.07.16s-.2.28-.14.4l-.06.05,0,0-.05.05,0,0-.06.05,0,0,0,0c0,.08-.08.09,0,.17l0,0c0,.07-.05.07,0,.14h0v0l0,0,0,0a.31.31,0,0,0-.09.26l0,0,0,0,0,0,0,0,0,0,0,0h0v0l0,0,0,0a1.24,1.24,0,0,0-.2.64,1.19,1.19,0,0,0-.17.59l0,0,0,0c-.05.05,0,0,0,.09l0,0,0,0,0,0,0,0a.19.19,0,0,0-.05.21.44.44,0,0,0-.09.33l0,0,0,0a.65.65,0,0,0-.11.4.28.28,0,0,0-.07.24l0,0c0,.11-.11.16-.05.27s-.09.11,0,.18c-.26.24-.15.74-.4,1l0,0-.06.05c0,.07,0,.15-.09.19.11.22-.87,1.24-.87,1.44a12.39,12.39,0,0,1-1.19.94,4.6,4.6,0,0,1-3.55,0c-3.09-1.18-3-5-4.07-7.59A10,10,0,0,0,8,15.92c-.86-.83-2-1.42-2.89-2.23a5.17,5.17,0,0,1-1-1.18A2.11,2.11,0,0,0,3.84,12c-.24-.11-1.63,1.35-1.75,1.49s-.36.62-.49.45.51-1.38.72-1.59C3.32,11.28,5.29,10.19,6.78,10.91Z"/><path class="eeae6187-71d9-46c1-b366-6f881cada3af" d="M12.78,12.75c-.11,0-.61-.19-.61-.29s-.1,0-.1-.06-.09,0-.09-.05h-.05v0h0v0a6.51,6.51,0,0,1-1.72-1.66l-.05,0a.77.77,0,0,0-.22-.31l0,0c-.07,0-.06-.07-.11-.1l0,0h0l0,0c-.05,0,0,0-.07-.05l0,0h0s0,0,0-.05l0,0h0v0h0l0,0h0l0,0c-.05,0,0,0-.07-.05v0h0l0,0h0l0,0h0l0,0h0l0,0h0l0,0h0v0h0l0,0h0l0,0h0l0,0h0l0,0h0v0h0c0-.06,0-.07,0-.12h0c0-.07-.06-.26-.1-.26s0-.07,0-.14h0l0,0c-.06,0-.06-.06,0-.12h0c0-.1-.09-.28-.09-.4H9c0-.33-.25-.69-.18-1h0c0-.21,0-.38,0-.61h0c0-.17.08-2.12.31-2.23A.5.5,0,0,1,9.11,4C9,3.86,9.65,3,9.75,2.8A5.7,5.7,0,0,1,13.3.32C17-.7,20.46.75,21.86,4.1a6.48,6.48,0,0,1-2.94,8.41,7,7,0,0,1-4.61.74C14.15,13.22,12.78,12.9,12.78,12.75Z"/><path class="f847d272-f492-4a6e-b862-3dcc5e878ec9" d="M10.47,5.16l0,0-.08,0,0,0h0V5h0c0-.19-.34-.84-.07-1a.51.51,0,0,1,.16-.45c-.11-.2,1-1.29,1.08-1.34A6.88,6.88,0,0,1,15.69,1,2.11,2.11,0,0,1,17,1.4c.95.91-.08,2.22-.86,2.86a6.29,6.29,0,0,1-4.91,1.37C10.9,5.54,10.74,5.29,10.47,5.16Z"/><path class="ba32c6b4-2fa3-4ae5-80ec-61c0432579aa" d="M15.88,23c-.48.47-.88.68-1,1.35s0,1,.11.92a8,8,0,0,0,.24-.8,2.54,2.54,0,0,1,1.39-1.18c.73-.14,2.76-.45,2.76.89,0,.54-.8,1.24-1.12,1.54a3.49,3.49,0,0,1-3.65.56c-.44-.26-.94-.74-1.32-.92l0,0a1.91,1.91,0,0,1-.68-1.09c0-.17.37-.49.5-.59A3,3,0,0,1,15.88,23Z"/><path class="ff5211cc-329d-46ce-9562-eebd626ed833" d="M20,10.86a5.64,5.64,0,0,1-5.22,1.6,16.66,16.66,0,0,1-2-.8v0c-.07,0-.08,0-.15,0v0a2.22,2.22,0,0,1-.69-.47c.09-.06,2.19.36,2.44.38a13.34,13.34,0,0,0,3.94-.14A17.47,17.47,0,0,1,20,10.86Z"/><path class="a68604a5-b69e-4526-a17f-32b371de0ca0" d="M12.56,27a.88.88,0,0,0,.2.09v0c.1,0,.19.08.29.12v0c.14,0,.28.15.42.19v0a1.21,1.21,0,0,1,.25.08v0c.06,0,.14,0,.14.07a1.09,1.09,0,0,1,.24.07v0a8.58,8.58,0,0,1,1,.24A5.31,5.31,0,0,0,17.28,28a8.74,8.74,0,0,0,1.6-.92l.06,0c0,.1,0,.06,0,.12l-.05,0,0,0c-.18.11-.33.45-.51.61a4.83,4.83,0,0,1-.9.59,3.36,3.36,0,0,1-1.17.29C15.43,28.78,12.56,28.36,12.56,27Z"/><path class="ac77de6f-dab7-4a45-8d39-d26f74538972" d="M18.59,23.46v0a7.45,7.45,0,0,0-3.1,1.07c-.08-.15.46-.59.5-.64A2.76,2.76,0,0,1,18.59,23.46Z"/><path class="bb314a4d-a0df-4cd4-91c9-d9ebbd5275c5" d="M15.2,23.13v0c-.62.15-1.64.93-2.15.93C13.05,23.36,14.71,23.08,15.2,23.13Z"/></g></g></g></svg>