<svg xmlns="http://www.w3.org/2000/svg" xmlns:xlink="http://www.w3.org/1999/xlink" viewBox="0 0 120.18 132.37"><defs><style>.acee4b6f-c74e-43ad-b82c-17a6bc2f5ec8{fill:none;}.ac6e4066-f79c-4693-b437-3ed4048306c1{clip-path:url(#e2d303c0-8166-4f3c-bfac-3593a843a558);}.b71e5338-71d8-4b71-8f72-c34b28abdaa5{fill:#da261e;}.b71e5338-71d8-4b71-8f72-c34b28abdaa5,.bc37fef5-95bd-4690-bfbd-36ed8ef706ca,.f29bc629-c786-440c-b706-9f16b7f0bb3a,.f8d89f33-025b-40f4-a05e-b40d35fcd4bf,.fe9d464f-3e95-4550-8da9-8cede63197f5{stroke:#10100f;stroke-miterlimit:10;}.fe9d464f-3e95-4550-8da9-8cede63197f5{fill:#f3fafc;}.f8d89f33-025b-40f4-a05e-b40d35fcd4bf{fill:#cfedf1;}.f29bc629-c786-440c-b706-9f16b7f0bb3a{fill:#090908;}</style><clipPath id="e2d303c0-8166-4f3c-bfac-3593a843a558" transform="translate(5.31 -35.69)"><path class="acee4b6f-c74e-43ad-b82c-17a6bc2f5ec8" d="M97.07,42H70.76c-2.58-2.61-5.07-5.43-6.17-9,0-.14-.09-.28-.13-.42a17.77,17.77,0,1,0-19.82-.18c-.38,2.4-.78,4.81-2.56,6.66-.91,1-1.87,2-2.87,2.94H12.5A12.46,12.46,0,0,0,0,54.44v87.91a12.45,12.45,0,0,0,12.5,12.4H42.34v-.07a5.43,5.43,0,0,1-.63-.88c-.07-.1-.13-.21-.19-.31s-.05-.11-.07-.16-.05-.07-.07-.06a17.77,17.77,0,1,1,32.84-9.37,17.26,17.26,0,0,1-3,9.84v0a12.16,12.16,0,0,1-.71,1H97.12a12.44,12.44,0,0,0,12.44-12.45V54.44A12.44,12.44,0,0,0,97.07,42Z"/></clipPath></defs><g id="b977f401-1c9e-4890-836a-e912e4cc2d04" data-name="Layer 2"><g id="b97adcd8-8f8c-4713-a677-546dba8a8bbc" data-name="Layer 1"><g class="ac6e4066-f79c-4693-b437-3ed4048306c1"><path class="b71e5338-71d8-4b71-8f72-c34b28abdaa5" d="M114.37,55.93V159.32H95.68l-4.15,5.47-74.7.06-2.94-5.53H-4.81V55.93a11.55,11.55,0,0,1,7.2-11l23.82-8.74H83.36l23.82,8.74a11.54,11.54,0,0,1,7.19,11Z" transform="translate(5.31 -35.69)"/><path class="fe9d464f-3e95-4550-8da9-8cede63197f5" d="M13.89,143.34H95.68v24.22H13.89Z" transform="translate(5.31 -35.69)"/><path class="f8d89f33-025b-40f4-a05e-b40d35fcd4bf" d="M54.78,143.34h40.9v24.22H54.78Z" transform="translate(5.31 -35.69)"/><path class="bc37fef5-95bd-4690-bfbd-36ed8ef706ca" d="M95.68,68.9h7v90.42h-7Z" transform="translate(5.31 -35.69)"/><path class="bc37fef5-95bd-4690-bfbd-36ed8ef706ca" d="M6.88,68.9h7v90.42h-7Z" transform="translate(5.31 -35.69)"/><path class="f29bc629-c786-440c-b706-9f16b7f0bb3a" d="M73.24,36.19c0,4,.08,5.38-.33,7.72C71.27,53.29,63.76,60.4,54.78,60.4S38.3,53.29,36.66,43.91c-.42-2.35-.34-3.78-.34-7.72Z" transform="translate(5.31 -35.69)"/><path class="fe9d464f-3e95-4550-8da9-8cede63197f5" d="M28.84,77.4H80.72v40.7H28.84Z" transform="translate(5.31 -35.69)"/><path class="f8d89f33-025b-40f4-a05e-b40d35fcd4bf" d="M54.78,77.4H80.72v40.7H54.78Z" transform="translate(5.31 -35.69)"/></g></g></g></svg>