<svg xmlns="http://www.w3.org/2000/svg" viewBox="0 0 46.71 55.55"><defs><style>.ee4d4236-7f65-4704-903e-a03e778a8b3f{fill:#ddd9a3;stroke:#ddd9a3;}.a02a0a6d-3a66-4315-8602-ea62863b3025,.a0512851-ab19-44b4-bee0-804c5951e211,.a0fbd284-2d2e-4ead-bdea-4c6abd5f87db,.a1f17fe9-2b82-444d-959f-5d4688ac38a9,.a263ed05-8ed2-4012-b662-3748fa3f8ed6,.a33e3f2b-6b57-44a7-84fe-fd9afa6c4f27,.a391d163-eda4-4086-a6a0-4e63e5add11d,.a3ada56e-53f8-4d2d-91d4-dc58c57bae51,.a429c673-4bfb-4a8e-8aa1-60570361eaef,.a5dfbc8c-33eb-4dc8-8f60-0c66e70dd788,.a70e34ee-5e10-4d81-8680-e50c166e0bd9,.a8005937-efd1-4ded-aeed-77f1906e5f39,.aa045c9a-c950-499d-a6ed-8110b7d4edd8,.aa50fa37-d150-4c3e-836a-f2493beef93b,.aafeda01-5077-400f-a507-5406bfe10119,.ab81cd1b-0f7a-4c08-9059-ec688441a14a,.aba79ea7-c1a1-4fa7-9911-56bb3b572414,.ac019e3e-c35c-470e-90ea-01314e551bf8,.ad58e73c-e206-4138-b7e9-b5141d0c582e,.ae934c3a-4ca3-4721-927f-f73463d3fb1e,.ae95e7d8-04a8-4aee-8016-d86a016d08c5,.afbb9ae4-4a9a-43aa-8d90-a763a6637db6,.b0575f64-8938-4586-8817-eb2c8adc9cc1,.b215df5a-8ec3-4646-be4a-d579bb3eb672,.b2d027b6-99f7-41b2-a637-2535d68d670d,.b2dcc3f9-6635-4938-800a-17daec769f78,.b353498e-4d2a-42ec-8821-13ae5e027965,.b43487eb-4605-417a-8cc3-6988f084b5e6,.b442d9fb-1bd1-4d0a-8b64-ca557b338577,.b44b49c8-9a75-4b51-b799-2ab812f6a909,.b496677d-97d8-4e23-ae24-11e94cbdb789,.b587eff7-283a-46f4-a67c-6d651fab36f4,.b8082712-ebd7-4e14-95e1-c0500dce5fe8,.b8c6678b-8367-46fd-bba3-1cd094ac4de1,.b9413ace-d1f8-4c30-b346-b77ae8cd2c1d,.b999043b-5d43-48bd-9896-b587c060fa92,.bbb741cc-dfb8-418d-a671-8b0f7fc172af,.bc69a0e2-32b2-45c8-a962-b15ee66be81f,.be756bc7-9021-4782-a392-a5c6e10b18d9,.e4f08802-8389-406d-9632-21612d36adf7,.e59c7486-a954-46b7-a8b4-091471e0b114,.e6c3552f-e457-4ecb-974a-ce33c5dc52d2,.e6d1058a-fbc3-4211-95ed-4dcd1d898c8f,.e7133bb7-5bbc-4b2d-a3d8-847fcdcedfaa,.e729ee7f-c5b4-4804-a269-d76f2dae4b4a,.e83472e6-554e-4bb7-b34d-25333589fd7b,.e9684344-cd3f-4e63-9cfb-92158513eebc,.ea6261da-a763-4704-8a44-d01935a3a841,.ed0d38d8-77e3-43be-b106-345daf3e293b,.ee4d4236-7f65-4704-903e-a03e778a8b3f,.ee6690ec-7c89-4223-8852-79531bdbf475,.f03ed343-bdf1-48dd-a329-6d7be54b6893,.f327534c-d376-4550-ba80-452cffe19cab,.f65267b3-0bda-496f-be9d-be003496d905,.f87a7b21-9bb8-4694-8d39-fe1a79433ecb,.f8d41252-820a-4c1f-a3da-de3aaf8e6d05,.f9144632-866a-44c2-9480-93ce3e99cff0,.fa8fb094-75cd-46a9-bddc-3faaf74e7ce1,.fac75096-8e8a-4152-9474-68965b9aa6ef,.fb2bf0b0-cf4c-4100-93b7-9c92d6d214cc,.fbde24f6-85db-4016-98f5-897dfde29537,.fbf91caf-77f2-4eb0-8e73-04899e64ef4a,.fc99dd12-a48c-4fce-8a5b-e3c9d7139d25,.fe7410ed-215c-43c8-86bd-b537a0b41627,.ff8645b2-b951-4fc2-b519-7c51612c985f{stroke-linecap:round;stroke-linejoin:round;stroke-width:0.45px;}.b2dcc3f9-6635-4938-800a-17daec769f78{fill:#b9b687;stroke:#b9b687;}.a429c673-4bfb-4a8e-8aa1-60570361eaef{fill:#d0cc9b;stroke:#d0cc9b;}.ae95e7d8-04a8-4aee-8016-d86a016d08c5{fill:#b4b182;stroke:#b4b182;}.aa50fa37-d150-4c3e-836a-f2493beef93b{fill:#060605;stroke:#060605;}.f65267b3-0bda-496f-be9d-be003496d905{fill:#b4b17d;stroke:#b4b17d;}.a3ada56e-53f8-4d2d-91d4-dc58c57bae51{fill:#010101;stroke:#010101;}.b215df5a-8ec3-4646-be4a-d579bb3eb672{fill:#c02f29;stroke:#c02f29;}.f9144632-866a-44c2-9480-93ce3e99cff0{fill:#bd1f1f;stroke:#bd1f1f;}.e7133bb7-5bbc-4b2d-a3d8-847fcdcedfaa{fill:#ddd8a0;stroke:#ddd8a0;}.ff8645b2-b951-4fc2-b519-7c51612c985f{fill:#c02e29;stroke:#c02e29;}.a02a0a6d-3a66-4315-8602-ea62863b3025{fill:#d6d2a0;stroke:#d6d2a0;}.afbb9ae4-4a9a-43aa-8d90-a763a6637db6{fill:#d3cfa0;stroke:#d3cfa0;}.e729ee7f-c5b4-4804-a269-d76f2dae4b4a{fill:#cecb97;stroke:#cecb97;}.b496677d-97d8-4e23-ae24-11e94cbdb789{fill:#baba90;stroke:#baba90;}.f8d41252-820a-4c1f-a3da-de3aaf8e6d05{fill:#dedaa6;stroke:#dedaa6;}.a1f17fe9-2b82-444d-959f-5d4688ac38a9{fill:#dfdba7;stroke:#dfdba7;}.ad58e73c-e206-4138-b7e9-b5141d0c582e{fill:#bfbf98;stroke:#bfbf98;}.a70e34ee-5e10-4d81-8680-e50c166e0bd9{fill:#bab589;stroke:#bab589;}.e9684344-cd3f-4e63-9cfb-92158513eebc{fill:#24241b;stroke:#24241b;}.b2d027b6-99f7-41b2-a637-2535d68d670d{fill:#bdbc92;stroke:#bdbc92;}.e59c7486-a954-46b7-a8b4-091471e0b114{fill:#c0c19d;stroke:#c0c19d;}.be756bc7-9021-4782-a392-a5c6e10b18d9{fill:#d4d1a0;stroke:#d4d1a0;}.aba79ea7-c1a1-4fa7-9911-56bb3b572414{fill:#212119;stroke:#212119;}.fc99dd12-a48c-4fce-8a5b-e3c9d7139d25{fill:#0e0e0a;stroke:#0e0e0a;}.e6d1058a-fbc3-4211-95ed-4dcd1d898c8f{fill:#11110d;stroke:#11110d;}.fa8fb094-75cd-46a9-bddc-3faaf74e7ce1{fill:#090907;stroke:#090907;}.fb2bf0b0-cf4c-4100-93b7-9c92d6d214cc{fill:#10100c;stroke:#10100c;}.a8005937-efd1-4ded-aeed-77f1906e5f39{fill:#0d0d0a;stroke:#0d0d0a;}.a0fbd284-2d2e-4ead-bdea-4c6abd5f87db{fill:#bdbb90;stroke:#bdbb90;}.b43487eb-4605-417a-8cc3-6988f084b5e6{fill:#12120d;stroke:#12120d;}.a33e3f2b-6b57-44a7-84fe-fd9afa6c4f27{fill:#0a0907;stroke:#0a0907;}.aafeda01-5077-400f-a507-5406bfe10119{fill:#d2ce9f;stroke:#d2ce9f;}.fe7410ed-215c-43c8-86bd-b537a0b41627{fill:#b6b380;stroke:#b6b380;}.e4f08802-8389-406d-9632-21612d36adf7{fill:#0a0a07;stroke:#0a0a07;}.b442d9fb-1bd1-4d0a-8b64-ca557b338577{fill:#080806;stroke:#080806;}.b8c6678b-8367-46fd-bba3-1cd094ac4de1{fill:#0a0a08;stroke:#0a0a08;}.a391d163-eda4-4086-a6a0-4e63e5add11d{fill:#020202;stroke:#020202;}.ab81cd1b-0f7a-4c08-9059-ec688441a14a{fill:#040403;stroke:#040403;}.b999043b-5d43-48bd-9896-b587c060fa92{fill:#a5a37d;stroke:#a5a37d;}.e6c3552f-e457-4ecb-974a-ce33c5dc52d2{fill:#dfdbab;stroke:#dfdbab;}.aa045c9a-c950-499d-a6ed-8110b7d4edd8{fill:#e0ddab;stroke:#e0ddab;}.a0512851-ab19-44b4-bee0-804c5951e211{fill:#dfd6a2;stroke:#dfd6a2;}.e83472e6-554e-4bb7-b34d-25333589fd7b{fill:#cac798;stroke:#cac798;}.b44b49c8-9a75-4b51-b799-2ab812f6a909{fill:#e0d9b0;stroke:#e0d9b0;}.ac019e3e-c35c-470e-90ea-01314e551bf8{fill:#dfdca8;stroke:#dfdca8;}.a263ed05-8ed2-4012-b662-3748fa3f8ed6{fill:#acaa7e;stroke:#acaa7e;}.ed0d38d8-77e3-43be-b106-345daf3e293b{fill:#dfdcaa;stroke:#dfdcaa;}.b8082712-ebd7-4e14-95e1-c0500dce5fe8{fill:#ddca9e;stroke:#ddca9e;}.bbb741cc-dfb8-418d-a671-8b0f7fc172af{fill:#e2dfb0;stroke:#e2dfb0;}.bc69a0e2-32b2-45c8-a962-b15ee66be81f{fill:#b7b48a;stroke:#b7b48a;}.f03ed343-bdf1-48dd-a329-6d7be54b6893{fill:#bdba8d;stroke:#bdba8d;}.b353498e-4d2a-42ec-8821-13ae5e027965{fill:#b9b88c;stroke:#b9b88c;}.fac75096-8e8a-4152-9474-68965b9aa6ef{fill:#e2deae;stroke:#e2deae;}.b0575f64-8938-4586-8817-eb2c8adc9cc1{fill:#b5b288;stroke:#b5b288;}.ea6261da-a763-4704-8a44-d01935a3a841{fill:#bcb186;stroke:#bcb186;}.b587eff7-283a-46f4-a67c-6d651fab36f4{fill:#bcba8d;stroke:#bcba8d;}.fbde24f6-85db-4016-98f5-897dfde29537{fill:#e0dca8;stroke:#e0dca8;}.a5dfbc8c-33eb-4dc8-8f60-0c66e70dd788{fill:#b7b481;stroke:#b7b481;}.f327534c-d376-4550-ba80-452cffe19cab{fill:#bdbb8d;stroke:#bdbb8d;}.ae934c3a-4ca3-4721-927f-f73463d3fb1e{fill:#bdbb8e;stroke:#bdbb8e;}.fbf91caf-77f2-4eb0-8e73-04899e64ef4a{fill:#e1ddaa;stroke:#e1ddaa;}.ee6690ec-7c89-4223-8852-79531bdbf475{fill:#e1ddac;stroke:#e1ddac;}.b9413ace-d1f8-4c30-b346-b77ae8cd2c1d{fill:#bebd93;stroke:#bebd93;}.f87a7b21-9bb8-4694-8d39-fe1a79433ecb{fill:#b5b388;stroke:#b5b388;}</style></defs><g id="afcfff71-df94-4cdc-b163-f71ab60d39ca" data-name="Layer 2"><g id="a40899ac-1c34-46e6-913f-e61a882041db" data-name="Layer 1"><g id="b146a8a3-7384-479a-93df-15a8870392cc" data-name="Layer 1"><path class="ee4d4236-7f65-4704-903e-a03e778a8b3f" d="M25.53,40.77a2,2,0,0,0-.41.78h-.29c0-.12.05-.16.17-.16-.14,0-.25,0-.25-.17-.15.15,0,.09-.37,0a2.07,2.07,0,0,0-.12-.49h-.13c.11-.11.08-.05.08-.21-.2-.05-.37-.15-.57-.2.1-.2.12,0,.12-.33L23.64,40l0,.13a.6.6,0,0,0-.54.33c-.25-.1-.17,0-.29-.21.15-.07.05,0,.29,0l-.17,0c.1-.18-.1-.26-.24-.33l0,.21a1.15,1.15,0,0,0-.38,0c0,.13-.1.13-.16.24l-.08,0,0,.25c-.12-.11-.07,0-.13-.21a.54.54,0,0,0-.29,0v-.08l-.41,0v.13h.08v.29a5.81,5.81,0,0,0,.58-.09v.13c-.67.06-1.85.43-2.47.12-.13.13,0,.08-.29.08l0,.13c.21,0,.13,0,.24.16h-.08c-.05.15,0,.11-.12.17l0,.08H19l-.05.21h.17v.12c-.17,0-.14.23-.29.33.1.2.06.25.29.25-.05.1,0,0,0,.16h.08c0-.12.06-.11.17-.16,0,.16-.16.19-.09.41H19.1v0a1.55,1.55,0,0,1-.5.16l.13,0c0,.29.39.91.29,1.11h.08v.16a1.61,1.61,0,0,0,.66-.12,1.23,1.23,0,0,0,.12.37h-.16l.12,0v.21c-.17.06-.24.19-.41.25V45c-.3,0-.87.2-.87.58h-.29l.05-.16-.09,0c.08-.15.14,0,.21-.17-.3-.06-.33-.07-.41-.33h-.09v-.12H17.7c0-.16,0-.09,0-.21.1.19,0,.08.41.08-.07-.21,0-.11-.33-.16a4.4,4.4,0,0,1,.12-.74h-.08v-.25c-.32,0-.4-.5-.7-.54-1.38-.16-1.24.85-1.48,1.82l0-.17h-.46c.11-.05.08,0,.08-.12h-.08l.29,0c-.18-.1,0-.28-.21-.42l-.08.25,0-.16h-.08c0-.36.25-.54.25-.75h-.17c0-.27.08-.14.08-.33H15.1c0-.3.24-.22.33-.41-.2,0-.14,0-.21-.12l.09-.08h-.13c.06-.12,0-.09.17-.09l-.13,0a1,1,0,0,1,.09-.33h-.17v-.08a.42.42,0,0,1-.29-.21l0,.13c-.18-.06-.16-.15-.21-.33h-.16V41.3l.12,0c0-.19-.06-.24-.24-.24,0-.16,0-.09-.05-.21-.12.06-.08,0-.08.16-.18,0-.25,0-.25-.16-.18.09,0,.37,0,.54h-.08l0,.16,0-.21c-.13.09-.3.07-.21.25-.19.1-.34,0-.53-.08v-.08c-.12.06-.08,0-.13.16-.1-.2,0-.12-.16-.25-.19.13-.08.08-.37.13l.08.12c-.24,0-.24.2-.33-.16.15-.08.08-.19,0-.33a.84.84,0,0,1-.66,0c.13-.14.09-.05,0-.29h-.08l0-.13c-.08.12-.21.2-.21.33h-.08c-.05.15,0,.24,0,.38-.12-.24-.36-.8-.58-.87.18-.36-.75-1.49-.7-2H9.65c.28-.28.82-1.24,1.2-1.24v-.08h-.08a.78.78,0,0,0,.12-.21L11,37c.05-.11,0-.06.12-.12,0,.11.09.22.12.33h.09v-.08c.15,0,.08-.06.2,0,0-.1-.91-.66,0-.66,0-.19.58-.95.83-.87l0-.12.16.16c-.11.06-.07,0-.12.13l.12,0,.08-.13.13.05c-.06-.11,0-.07-.13-.13.08-.14,0-.31-.08-.45.12-.06.06,0,.21,0,0-.43.73-.89,1-1.24.08.16.17.06.33,0L14,34h.16v-.12h-.08c0-.66.56-.77.91-1.11-.12-.23.24-.39.24-.62-.3,0-1.36.5-1.36.78-.23,0-.62.11-.62.37-.54-.27-3.2,2.83-3.5,2.23l-.17.08c.06-.17.06-.08,0-.29-.48,0-.22,0-.53.21,0-.24,0-.14,0-.29.12-.06.08,0,.08-.16-.38,0-.21.06-.21.29H8.83l0,.16c.33,0,.08.33,0,.45-.1-.19,0-.13-.17-.2-.08.17.12.22,0,.37a9.1,9.1,0,0,1-.37-1H8.09A1.85,1.85,0,0,0,8,34.7H7.84v-.12c-.11.05,0,0-.16,0v-.08a1.15,1.15,0,0,1-.38,0l0-.25.09,0c-.17,0-.29-.11-.29-.29.42-.1.06-.46.41-.57a1.53,1.53,0,0,1-.17-.79H7.22v-.08a2.77,2.77,0,0,0-.41-.12v-.09c-.07.14,0,.09-.21.09l.13,0c0-.34,0-.31.33-.25,0-.37-.1-.63-.46-.74v-.13H6.31l.17,0a1.48,1.48,0,0,0,0-.54H6.36c0-.11,0-.07.08-.12a.71.71,0,0,1-.08-.21l.2,0A7.53,7.53,0,0,0,6.36,29C6.6,29,7.72,30.7,8,31c1,1,2.78,1,4.08,1.08L12,32l.49-.08,0,.08H13c0-.18.43-.28.58-.28v-.09c.21,0,.49-.16.66-.16v-.08c.33-.1.2-.12.41-.05.16-.31.92-.47,1.2-.61,0,.16.07.09,0,.2.07.15,0,.08.25.08a.52.52,0,0,1,.45-.7c0-.19.27-.37.45-.37l-.08-.08c.15-.19.41-.5.66-.5,0-.35.47-.86.83-.74v-.08h-.09v-.08h-.12c.11-.22.78-1.32,1-1.32,0,.14,0,.05,0,.24h.08c0,.57.7-.07.25-.37l0,.09c-.12-.13-.09-.05,0-.25h-.13A3.3,3.3,0,0,1,20,25.3a.58.58,0,0,1,0-.45l0,.08c.11-.05.07,0,.12-.12l-.08-.09c.1-.15.1-.08,0-.2.27-.14,0-.74.37-.74v-.09h-.12c0-.14,0-.07.16-.16l-.12,0c0-.41.25-.48.25-.87-.14.07-.17,0-.17.21a8.41,8.41,0,0,1,0-2.35h-.08A2.46,2.46,0,0,0,20,19l.12,0V19c.19,0,.21-.17.21-.33l.16.08c-.1.15-.08.08-.08.21h.08v.08c.31,0,.09-.38.21-.62l-.17,0,0-.12h.09v.08h.12l0,.21h.08a1.45,1.45,0,0,1,0-.37h-.2c.15-.31.56-.21.78-.21,0-.12.43-.62,0-.62,0,.32-.08.2,0,.37a1,1,0,0,1-.33,0c-.05.11,0,.08-.12.08v-.08H21l0,.17c-.13,0-.21,0-.21.16a2.8,2.8,0,0,0-.58.08c0-.19-.2-.57-.2-.2-.27,0-.29.1-.5.2a6.07,6.07,0,0,0-4.29-2.76v-.08c-.27,0-.21-.07-.16-.33h-.13l0-.21c.2-.06.08-.05.37,0a2.88,2.88,0,0,1-.16-.7c.12-.06.08,0,.08-.16h-.08c.14-.07.12-.13.12-.29-.16.16,0,.09-.41,0v-.25a3.21,3.21,0,0,1-.62,0c0-.15,0-.09,0-.2-.11.05,0,0-.17,0,.12-.18.09-.08.09-.33-.14.13-.25.15-.25.37l0-.08c-.11.05-.28.34-.41.45.1,0,.11.1.16.21l-.25.08.09.12h-.09l0,.17h-.08v-.13c-.11.23-.6-.05-.29-.2a2.09,2.09,0,0,1-.16-.29c-.18,0-.24,0-.29.16h-.13c-.05-.16,0-.11-.16-.16.1-.16,0-.13.2-.13,0-.26-.25-.22-.45-.12v-.21h-.08c0,.14,0,.07-.13.17h.09c0,.3-.48.23-.29.62l-.08,0h.12v.16h-.12l0,.13h.17c.06.18,0,.11.21.16-.83.41.65.49,1,.37v.09H13v-.09l.12,0v-.16H13v-.13c.06.13.18.1.33.13-.21.05-.15,0-.21.16l.08,0-.08.05h.08v.45c.31.06.19,0,.29.33h.25a8.89,8.89,0,0,0-3.67,1.44c-.64.48-1.28,1.6-2,1.78A1.09,1.09,0,0,1,8,18.41l0,.13H7.84l0,.12h.08l-.12,0A1.6,1.6,0,0,0,7.55,18c.15-.1.1,0,.17-.17H7.55c0-.3-.12-.2-.12-.49l-.08,0c0,.25.09.16,0,.29v-.29c-.14.1-.12,0-.12.17l0-.13-.08,0v-.08H6.93a2,2,0,0,0,0-.53H6.81v-.13a3.25,3.25,0,0,0-.45.08c-.14-.26,0-1.37-.62-.9-.16.11-.15.29-.37.29,0-.22-.21-.3-.21-.46l-.08.08,0-.16c-.15,0-.17,0-.17-.17H4.79c0-.12,0-.2-.13-.2.06-.16,0-.11.13-.17l-.13,0,.13,0a1.24,1.24,0,0,1,.12-.7l0,.08v-.2l-.08,0c0-.2-.12-.35.08-.46l-.08,0c.15-.14.1-.07.17-.2l0,.08c.18-.09.13,0,.29,0v.25h.12V14h.12c0,.11,0,.06,0,.16h.21c0,.13,0,.06,0,.21.16,0,.47.07.57,0a.71.71,0,0,1-.08-.21l.13,0a2.41,2.41,0,0,1,.16-.45l.12.08v-.12H6.56c.08-.09.16-.11.21-.21v.17c.14,0,.14,0,.29,0,0,.15,0,.05,0,.28.12,0,.16,0,.16-.16H7.1c.08-.17,0-.19.25-.25v.08h.08a.51.51,0,0,0,0,.25c.23,0,.21,0,.21-.25H7.55a.8.8,0,0,1,.08-.37H7.55c0-.19.08-.09.08-.29-.23,0-.45,0-.66,0,0-.13,0-.19.13-.25v.12c.05-.22,0-.15.2-.2v-.09H7.18c.05-.1,0-.08.12-.08-.06-.13,0-.07-.2-.12-.08.15-.3.08-.46.08,0-.11,0-.17-.12-.17l0,.13c-.13-.07-.07,0-.17-.17A1,1,0,0,1,6.52,12v-.21l.12,0c0,.13,0,.06,0,.21h.21c0-.2,0-.14.08-.21.11.12.05.07.21.13,0,.15-.06.08,0,.2.18-.06.08,0,.29,0a.83.83,0,0,1,.2-.37c0,.15.12.13.25.17v-.09l.25-.08c.11.33.41,0,.58.33.39-.8.9-1.51,1.27-2.27l.09,0c0-.21,0-.11.08-.28l.12.08c0-.16,0-.09,0-.21a.86.86,0,0,0,.21-.29v.09a.36.36,0,0,0,.33-.17L10.6,9c.09-.18.16-.36.25-.54v.09c.11-.06.05,0,.17,0V8.6h.33l-.13,0c.06-.11,0-.06,0-.17.34-.05.89.15,1.16-.08.1-.09.32-.5.45-.5C12.61,7,13,6.37,12,6c0-.32,0-.2,0-.37l.42,0v.08l-.17,0c.1.1.12.11.25,0l0,.09h.08c0-.12,0-.07.08-.13v.13c.22,0,.25-.11.5,0,.06-.11.16-.15.16-.28h-.08c0-.16,0-.19-.16-.25.05-.11.08-.13.2-.13V5.3h.08l.05-.17c.06.12,0,0,0,.21h.08V4.93l0,.12h.08v.21c.23-.19.17-.09.25-.25v.08c.11,0,.07,0,.12-.08l-.08,0c.11-.12.05-.1.21,0,0-.22.29-.3.29-.5l-.09.08c-.11,0-.06,0-.12-.12.19,0,.25,0,.25-.25-.25,0-.05-.18,0-.24l0,.28h.08v.09A.29.29,0,0,0,14.81,4c.24-.06.13,0,.33-.21v.08l.12,0-.08,0c.12-.18.33-.23.33-.45h-.16l0-.08h-.08c.22-.12.94-.06.94-.5.14,0,.21-.12.33-.12l.05.12h.12c.05.35,0,.56.37.62,0,.2.05.14-.08.21h.12c0,.34-.22.45.25.53v.13c.06-.14.18-.11.29-.21.12.06,0,.51,0,.7h.24v.12h-.08c-.05.35-.39.46-.29.79h.09c-.06.11-.05,0-.05.16h.25c0,.22-.29.34,0,.54.16-.46.29.1.29-.66l.12,0V5.5l.17,0c0,.26,0,.19.21.25,0-.11,0-.16-.13-.16a1.49,1.49,0,0,1,.08-.42h-.12c.09-.17.37-.71.37-.12H19c0-.22.2-.37.37-.12a1,1,0,0,0-.17.41c.25,0,.21-.17.21-.37h.08l0,.29h.13a1,1,0,0,0-.09-.42c.2-.1,0-.12.33-.12v.08H20c0-.14,0-.29-.13-.29.41-.08.32.19.62.29V4.68c.15,0,.22,0,.29-.17v.17c.11,0,.06,0,.17,0a.36.36,0,0,0,.12-.16c0,.22.11.16.29.12l0-.17c.11.24.05.25.33.25V5h.08v.08h.12c-.08.16-.14.29.09.29,0,.13,0,.07-.13.16l0,.13c.16,0,.33-.06.33.12.17,0,.26,0,.46.08,0-.12.08-.12.08-.24h-.08c.36-.18.85-.25,1-.75-.07.14,0,.09-.21.09V4.72a.43.43,0,0,1-.25,0c0-.27-.17-.24-.41-.29,0-.28.16-.27.08-.58.12-.06.06,0,.17-.12l-.09-.12c.33-.17.29-.12.17-.58H23V2.91c.19-.05.14,0,.2-.13l.09,0c0-.15.08-.12.2-.08l0-.08c.06.22.59.45.33.58.43,0-.18.35,0,.53-.06.13-.06.06,0,.21L24,3.9c0,.27,0,.3.29.37,0,.11,0,.07-.09.12h.13a1.73,1.73,0,0,0,.16.83c-.1.1-.08,0-.08.16.15,0,.1,0,.16-.08l.05.16c0-.11.12-.24.24-.24L24.71,5a.36.36,0,0,0,.12-.46c.11,0,.06,0,.17,0,.14-.29.07-.55.2-.82.05.21,0,.46.25.54V4l.21,0c0-.32,0-.2.08-.37h-.08l.25,0,0,.12c.06-.12,0-.08.16-.08V3.44H26c0-.37.33-.74.7-.62v.09h.12v.16h-.08c.27.14-.29.4-.29,0-.32,0-.25.28-.16.54l-.09,0h.13c0,.11,0,.07-.08.12l0,.09-.09,0h.13V4c.24,0,.14,0,.29,0,0,.18-.22.45,0,.58.11-.17.1-.09.25-.17v.17c.27,0,.21.07.28-.09.15.07.26.07.33-.08.22.06.16,0,.21.21.21,0,.21-.1.21-.29h-.09l.05-.25h-.17V4c-.4,0-.26.05-.45,0,.14-.08.08,0,.08-.25.34,0,.19-.07.45,0,.1-.18.14,0,.25,0,0-.13,0-.06,0-.21s.09,0,.21,0c-.09.17-.13.05-.13.28h.09a1.48,1.48,0,0,0,.08.29h.12l0,.17a.92.92,0,0,0,.29,0c.09.45,0,.37.21.45,0,.3-.08.15-.08.41H29a1.1,1.1,0,0,0,.16.58H29l0,.12H29a1.91,1.91,0,0,0,.54.75c-.19.09,0,.34,0,.49.49,0,.31-.05.57,0l-.08.13c.16,0,.15,0,.33,0,0,.12,0,0,0,.2.17,0,.09,0,.25,0v.17h.12v.16h.09c-.84.42-1.1,2.17,0,2.31.38.05,1-.27,1.19-.16.06-.11,0-.32.09-.5l.16,0c0,.1,0,.15,0,.25l.16-.17v.09h.09l0-.13c-.24-.12-.06-.16-.41-.16.06-.13,0-.08.2-.13-.08-.17-.3-.46,0-.57v.08h.17c0-.15,0-.09,0-.21.1-.1.08,0,.08-.16-.33.16-.42-.54-.08-.37V7.81a1.76,1.76,0,0,1-.66-.08V7.65c-.12,0-.06,0-.17,0-.06.12-.1.12-.16,0l.12-.08-.16,0c0-.12.05-.17,0-.28.11-.12.08,0,.08-.21l.16,0c0-.25.18-.4.33-.17,0-.21.09-.2.17-.37,1.77.89,1-.07,1.85-.49V6h.13v.08h.08v.08c-.21,0-.17,0-.25.17l.09,0c-.12.06-.07,0-.17.12a3.81,3.81,0,0,0,.54.79,5,5,0,0,1,.24-.62h-.08l.08-.25c.08.16,0,0,0,.33H35v.13c.33,0,.23.42,0,.53.06.12,0,.15,0,.29-.38,0-.06.37,0,.58l0-.13c.17,0,.06,0,.33,0V8.06l.13,0c0,.34.24.64.24,1h.09v.12c.14,0,.16,0,.2.17-.56.19-.32.71.17.78,0,.5-.07.32.2.87-.14.07.34,1.36.5,1.52.32-.16-.07-.56.33-.66v.09h.08c0,.13-.08.06-.08.2l.08,0a2.07,2.07,0,0,0,0,.5c-.2,0-.29.26-.29.41h.17v.37l.12,0c0-.16.08-.18.12-.33l.09.08,0-.08a1.63,1.63,0,0,1,0,.58h.12c0,.11,0,.07-.08.12h.08v.21c.5,0,0-.5.37-.5v.13l.08-.17.05.13.08-.09,0,.09.08-.17.08.08.05-.08v.12h.08c0-.2,0-.12-.08-.24.06-.13,0-.09.2-.09,0-.15,0-.1.08-.16.1.1.2.2.13.33.2,0,.18.06.25.25.38,0,.3,0,.41.37.07-.14.1-.24.16-.37v.08c.16,0,.17-.11.17-.25h-.08c0-.13.09-.15.2-.2v.16l.13,0,0-.08h-.09v-.12c.21,0,.1.08.33.08,0-.16,0-.09,0-.21l.09,0-.09,0c.1-.19,0-.33.21-.41v-.21l-.12,0v-.12c.13,0,.24-.11.37,0,0-.11.07-.21.2-.21,0,.18-.19.31-.29.45h.09a2.92,2.92,0,0,0,.16.71c-.2.06-.12,0-.16.28h-.09v-.12c-.08.09-.16.09-.16.21h-.08l0-.13,0,.13h-.08v-.09a1.23,1.23,0,0,1-.37,0l0,.25h.12c0,.18-.15.13-.08.33-.12.06-.15,0-.25.12l0-.16-.08,0c0,.23.12.27.12.41a1.48,1.48,0,0,0-.29-.08.45.45,0,0,1-.45.37c.11.06.08,0,.08.13h.09c0,.12-.08.11-.13.24C39,15,39,15.06,39,15l0,.08a.63.63,0,0,0-.29,0l0-.25c-.1.1-.08,0-.08.17h-.09v-.08h-.08v-.17c-.18.06-.08.05-.29,0V14.5H38v-.09l0,.25,0-.08c-.11.05-.09.12-.21.12v-.08c0,.17-.05.32.12.41l-.08,0H38c0,.24,0,.15,0,.29l-.12.08c.1.22,0,.17.24.17v.08h.09v.08h.08v.09c-.9-.3-1.64-.75-2.6-1v-.09c-1,0-2-.08-3-.08-.32,0-.74.22-1,.13v-.09a.34.34,0,0,0-.33,0c.06-.12.06-.25.12-.37-.14.07-.05,0-.29,0v-.16c-.31,0,0,.41-.41.21l0,.2c-.24,0-.18-.06-.25.08.11,0,.05,0,.17,0a2.43,2.43,0,0,1-.13.42h-.08V15l-.08.08c.06.12,0,.09.16.09v.2l-.2,0,0,.29h.09A7.69,7.69,0,0,0,28,19.32c-.71,3.17,2.05,8.27,4.49,10.11,2.28,1.7,6.39,2.46,8.38.08v.08H41c0-.14.08-.07.08-.21H41c0-.11,0-.06.12-.12.07.14.16.09.29,0,0,.29.05.33-.12.5.14.07,0,0,.29.08,0,.24,0,.35-.09.58l0-.17c-.14.08-.23.09-.29.25H41l0,.21c.19.06.27.16.45.2a3.11,3.11,0,0,0,.13.79c-.28-.1-.16-.33-.41-.42-.06.12,0,.09-.17.09v-.13h-.08c0,.14,0,.24,0,.37l.12,0c0,.29,0,.33,0,.62a1,1,0,0,0-.41.37c.12,0,.11.07.16.17.16-.08.18,0,.25.16l-.12.09H41v.08h.17c0,.13-.07.37,0,.49-.46.15-.69-.31-.75-.66a.75.75,0,0,1-.2.09,1.1,1.1,0,0,0-.09-.33c-.1,0-.05,0-.16,0v-.17a2.15,2.15,0,0,0-.17,1.08,1.07,1.07,0,0,0-.45.08c-.05-.32,0-.25-.12-.33,0,.14,0,.3,0,.41h.24c0,.19,0,.2-.2.25l.16,0c0,.23-.08.12-.08.29h-.08v-.13c-.39,0-.2.09-.5.09v-.09c-.35,0-.24-.08-.37.17.15,0,.16.06.29.12l0-.08c0,.16-.08.37.08.45,0-.25.18,0,.21.09.36,0-.07-.38.37-.38,0,.21,0,.12,0,.29h-.08v-.08l-.12.08c.17.36.5.07.61-.16l.05.12h.2a1.13,1.13,0,0,1,0,.41h.25l0,.29c-.25,0-.21.06-.25.33h.09c0-.11,0-.07.08-.12,0,.19.07.2.25.29v-.08l.16,0c.07.14,0,.07.21.17-.12.06-.09,0-.09.16.17,0,.23.11.42.17-.06.18-.06.08,0,.29-.15-.05-.15,0-.29,0-.06.16,0,.11-.17.16,0,.23-.08.21-.08.5-.23-.12-.2,0-.41,0-.06.38-.14.29-.08.74a1.43,1.43,0,0,1-.7-.87c-.15,0-3.72-3.78-3.72-3.79-1.37-.35-2.4-2.22-3.91-2.6a2.85,2.85,0,0,1-.05-.66h-.08c0-.15-.17-.82-.33-.33h.25a.75.75,0,0,1,0,.33l0-.12c-.06.16-.17.22-.17.37s-.06,0-.16,0l0,.12c-.17,0-.1,0-.21.08l.08.09c-.18.08-.1.32-.29.41l.21,0a.64.64,0,0,1-.12.25c-.25-.15-.13-.1-.33-.17a.67.67,0,0,0,0,.46c.32,0,.2,0,.37,0,.1-.15.11-.17.29-.17,0-.13,0-.06.08-.2l0,.08c0-.17,0-.21-.16-.21l.24,0c0-.28,0-.17,0-.33.44-.14.77.65,1,.91.55.55,1,1.16,1.57,1.69.1.1.57.17.58.21.15.47.38,1.22.9,1.48-.14.1-.12,0-.12.16h-.12c.11.12.07,0,.12.21-.16.08-.08,0-.08.29h.08c0,.14,0,.21-.16.21l0-.17H35v-.16c-.12.12-.08,0-.08.24a2.57,2.57,0,0,1-.62,0c0-.25.08-.12.08-.37-.19,0-.14,0-.2.08h.08c0,.34,0,.2,0,.42h.24v.12h.09c0,.23-.09.09-.09.37-.15,0-.42.07-.33.25-.5,0-.11,0-.45.33l0-.12c-.36,0-.07.37-.33.41-.42.07-.6-.64-.21-.37-.06-.14,0-.19,0-.33l-.08,0c-.06-.13,0-.08-.2-.08V36.6c-.38-.05-.23-.12-.46.17-.16-.11-.12,0-.12-.21a.55.55,0,0,0,0,.45c-.28,0-.18,0-.33-.08.06-.13,0,0,0-.25-.23,0-.08.2-.41.13V36.6c-.1.19-.25.17-.17.41h-.08v-.08l-.13,0v-.2c0,.17-.05.29-.24.29,0-.12,0-.06,0-.17-.3.15-.38-.19-.38.29l0-.08,0,.08,0-.5c0,.16,0,.11-.12.17l.08.12a.8.8,0,0,0-.33.75h-.12v-.09c-.14,0-.21,0-.33,0-.06.32-.06.17,0,.46h-.09v-.13a1.73,1.73,0,0,1-.29.13c.11.05.07,0,.13.12H29.2v-.08h-.12c.17-.17.13-.27.08-.5-.16,0-.24,0-.16.17-.22.11-.18.2-.46.2l.09.29h-.17v-.33h-.12l.12,0c-.11-.23,0-.05-.08-.58h-.21l.17,0v-.12c-.16,0-.09,0-.21,0l0-.13.09.09c0-.17.09-.2.16-.38l.08,0c0-.23.13-.23.13-.42a2.21,2.21,0,0,0-.42,0c-.1-.43.32-.05.25-.7H28.3l.2,0v-.2a1,1,0,0,0,.29-.13l0-.08a.77.77,0,0,0,.21-.41,2.27,2.27,0,0,1-.5.12v-.08c-.27,0-.37,0-.29.2-.2.06-.11.06-.29,0v-.28c-.2,0-.09-.09-.33-.09v-.08h-.16l0,.17h-.08c0-.14.13-.51-.13-.38v-.24l0,.16c-.11,0-.06,0-.16,0,0-.15.06-.33-.13-.33l0,.46h.12c0,.15.05.2,0,.37a.75.75,0,0,0-.33,0v-.08l-.12,0c.13.19.2.16.25.41-.11,0-.07,0-.13.08a.43.43,0,0,1,.25,0l0-.12,0,.12c.12,0,.07,0,.13-.08l.25,0-.09,0,.13,0c0,.11,0,.05,0,.16s-.21-.07-.21.08h.08c0,.13.08.12.13.25-.12.06-.09,0-.09.17.29,0,.17.16.17.49a2.45,2.45,0,0,1,.58,0,.51.51,0,0,0,0,.25,1.64,1.64,0,0,0-.58,0l0,.12c-.18-.09-.1-.16-.33-.16v-.09H27v-.12h-.17v-.08c-.19,0-.2-.12-.24-.29l-.05.08a.41.41,0,0,0-.24,0l0,.17c-.27,0-.1.32-.21.53h.08c0,.11,0,.07-.12.13l.12,0c-.17.08-.08,0-.12.33-.38,0-.34-.14-.29-.5h-.21l0,.17c-.42,0-.32.3-.29.66h.09c-.06.12,0,.05,0,.2s.16,0,.16.17h-.16v-.08c-.22,0-.09,0-.38.08.14.13.09,0,.05.29h-.17l0,.16.08,0a.53.53,0,0,0-.37.54h.12v.12c.12,0,.06,0,.17,0a1.07,1.07,0,0,0,.12-.37.86.86,0,0,1,.37,0l.05-.08c0,.35-.06.27.2.33-.11.06-.08,0-.08.13-.23,0-.17.09-.37.16v.08c-.13,0-.19,0-.25-.16-.11,0-.17.1-.29,0-.15.15,0,.3,0,.49-.14-.07-.16,0-.16.13h.08c0,.28.07.21-.08.29h.12v.08c.11,0,.06,0,.17,0-.07.12,0,.07-.17.12.13,0,.25,0,.25.17A4.4,4.4,0,0,1,25.53,40.77Z"/><path class="b2dcc3f9-6635-4938-800a-17daec769f78" d="M.62,22.33l0,.17c.18-.35.08-1,.17-1.36l0,.08v-.08L1,21.09c-.05-.16-.07-.09.05-.2C.89,20.8.93,20,1,20v.12c0-.18.06-.33.25-.33v-.2h-.2c.1-.22.29-.13.37-.29.21.1.24-.13.24-.29H1.57c.11,0,.19,0,.25-.16.05.11.05.05,0,.16H2v-.08H1.9c0-.41-.17-.33-.58-.37a8.62,8.62,0,0,0,.33-1.16c.12.23.21,0,.25-.12.2,0,.17.06.12.25.15-.08,0-.14.17-.21v.29c.25,0,.28-.25.54-.25v.12l.16.05c-.17,0-.1,0-.21.16l.13,0a1.12,1.12,0,0,1-.17.66l.17,0v.09H3v.08a.82.82,0,0,0,.33,0v.16l0-.25.05.21c.13,0,.06,0,.16-.12.06.12,0,.07.17.12v-.12H3.59l.17,0v-.25H3.63a1.25,1.25,0,0,0,.09-.37c-.14.2-.33.09-.33-.13l.12,0-.12,0,.08,0c-.17-.08-.17-.17-.33-.17,0-.23.08-.12.08-.33-.35,0-.58,0-.7-.32H2.44c0-.26,0-.82-.25-.91v-.17h.12c-.05-.15-.06-.08,0-.2v.08c.19-.06.25-.17.42-.25l-.13,0,.17,0c-.07-.13,0-.08-.21-.12a6.25,6.25,0,0,1,1-2.4v.09h.21v-.13H3.59c0-.26.47-.49.7-.49,0-.27.18-.12.33,0a.51.51,0,0,0,0-.25h-.2l.16,0v-.09c-.58,0-.18-.38,0-.66v.13c.23,0,.37-.07.37.16l-.12,0,0,.13h.08c0,.17,0,.16.21.16v-.12H5c0-.25-.06-.14,0-.33-.17-.09-.07-.3,0-.45l-.08,0c-.06-.13-.13-.33.08-.33,0-.1.15-.29.25-.29s0-.06.08-.25l0,.12.13,0c-.06-.1,0-.08-.13-.08,0-.19.09-.16.25-.12s0-.05,0-.17H5.49c0-.26.55-.75.78-.7a1.34,1.34,0,0,1,.25-.37l-.08,0-.08-.08c.21-.22.37-.52.57-.78v.2h.42A.71.71,0,0,1,7.14,8c.05-.11,0-.08.12-.08V7.81c.6-.12.07-.35.42-.7l.08.09c.1-.11,0-.09.16-.09-.13-.52.84-1,1.16-1.36v.08c.12-.06.19-.19.29-.28l.12.08c-.07-.22.52-.74.74-.74v.2h.13a.86.86,0,0,1,.78-.74l0-.12,0,.08c.12-.36.37-.25.74-.25-.06-.14,0-.07-.2-.16a.77.77,0,0,1,.49-.25v.08c.29,0,.19-.16.29-.37h-.08c.16,0,.22,0,.41,0,0,.23.08.18.13.45h.08c0,.25-.13.48-.13.66l-.16,0V4.35c-.12.12,0,.09-.25,0V4.31c-.14.07-.19,0-.25.2.14,0,.19,0,.25.13l-.08.08.16,0c0,.11,0,0,0,.17h.09V5c.15-.08.32-.13.2-.37.25-.1.14-.11.33,0V4.47h-.08a.56.56,0,0,0,0-.29c.12,0,.11-.06.17-.16h-.09c.15-.07.09,0,.09-.25-.26,0-.09-.56-.13-.78h-.08c.58-.29,1.8-1.2,2.47-1V1.87h-.12c.15-.15.26,0,.41-.08l-.12,0c.34-.11,1-.52,1.32-.41a1,1,0,0,1,0,.29h.08c.09.26.29.14.29-.09h-.08a.5.5,0,0,0,0-.28h-.17c.48-.16,1.2-.58,1.69-.42-.2.31-.7.36-.7.75l0-.17c-.33.16-.58.49-.91.66.11,0,.17,0,.17.12-.43-.14-.59.52-.79-.08-.18.09-.21.21-.24.41h.12c0-.19-.05-.14.08-.2,0,.25.05.37-.2.37-.19.55-.64.3-1,.54a.76.76,0,0,0,.2.08c0,.21-.18.31-.33.45l.08,0-.12,0V3.77c-.19.2-.09.17-.29.17,0,.2-.11.24-.29.33V4.18h-.08V3.9c-.16.1-.09,0-.21.16.06.11,0,.08.13.08,0,.18,0,.21-.21.21,0,.15,0,.1.08.16l.09-.08c0,.2-.24.28-.29.5-.16-.06-.1-.08-.21,0h.08c0,.11,0,.07-.12.12V5c-.08.15,0,.06-.21.25l0-.21h-.08V4.89l0,.45h-.08c0-.16,0-.09,0-.21l-.05.17H13.2V5.17c-.12,0-.15,0-.2.13.11.06.12.12.16.25h.08c0,.13-.1.17-.16.28a.72.72,0,0,0-.5,0V5.75c-.1.06-.08,0-.08.13h-.08l0-.09c-.11.06-.05,0-.17,0V5.75h-.08l.17,0V5.63H12c-.07.2,0,.08,0,.37a1.23,1.23,0,0,0-.58,2.31c-.17,0-.14.1-.21.25h.13L11,8.6V8.52c-.12,0-.06,0-.17,0V8.47c-.09.18-.16.37-.25.54h.13c-.07.13-.2.16-.33.21V9.13c-.1.21-.25.26-.17.5h-.12V9.55c-.07.14,0,0-.08.28l-.09,0a8.68,8.68,0,0,0-1.27,2.27c-.12-.22-.75-.41-.83-.16l-.25-.09v-.08a.83.83,0,0,0-.2.37c-.21,0-.11-.06-.29,0-.06-.12,0,0,0-.2-.17-.06-.11,0-.17-.17-.14.07-.07,0-.12.25H6.6c0-.13,0-.06,0-.21H6.56l0,.25c-.22,0-.21.14,0,.25v-.08l.12,0c0,.24.23.17.42.21a.15.15,0,0,1,.28,0c-.11,0-.07,0-.12.08H7.3v.09H7.18l0,.2,0-.12c-.12.06-.08.12-.13.25.24,0,.38-.14.66,0,0,.2-.08.1-.08.29h.08a2.45,2.45,0,0,0-.08.37h.13c0,.22,0,.25-.21.25,0-.14,0-.25-.12-.25v-.08H7.22a.64.64,0,0,1-.12.25l.08.08c-.1.1,0,.08-.16.08,0-.2,0-.11,0-.28-.21,0-.29.12-.29-.17,0,.1-.13.12-.21.21h.08v.12H6.52v-.08c0,.22-.16.3-.16.45H6.27c0,.2,0,.12,0,.25-.24.12-.36,0-.57,0,0-.13,0-.06,0-.21H5.57c.06-.1,0,0,0-.16H5.49v-.08H5.37v-.25H5.28v-.12c-.16.05-.09,0-.2.12l0-.12c-.07.12,0,.06-.17.16l.08.08c-.17.09-.16.29-.08.46l.08,0v.2l0-.08a2.63,2.63,0,0,0-.12.7H4.71l.08.08c-.22.11,0,.21,0,.37h.08v.13c.17,0,.17,0,.17.2l.12-.08c0,.76.7.1,1.15.25,0,.38-.11.37.05.82H6.6v.09h.09c0,.22-.1.38-.05.61H6.56V17.3c0,.2,0,.56-.25.66v-.08c-.17.08-.2,1.23-.28,1.4h.08a1.91,1.91,0,0,1,0,.54c-.16-.06-.09-.06-.21,0a1.64,1.64,0,0,1,0,1.07l0-.13a.36.36,0,0,0-.29.13h.17c0,.17,0,.16-.21.16l0-.12H5.32c0-.49-.16-.33-.16,0l.25,0c0,.21-.11.42.24.25a.91.91,0,0,1,.17.78c-.21,0-.16,0-.33-.12,0,.21.08.27.29.2l0,.13c-.18.12-.12,0-.12.29l.08,0,0,.66,0-.09-.13.09.17,0c0,.34,0,.05,0,.86H5.65c.13-.19.09-.07.09-.37H5.61l0,.17a.18.18,0,0,0-.29.08c.14.07.08,0,.13.21L5.53,24v.17c.18,0,.1-.08.25-.08,0,1.79-.13,3.29.66,4.86-.24.12.07,1.12.12,1.36H6.4c0,.17,0,.09,0,.25-.11.05-.08,0-.08.12h.08a2.2,2.2,0,0,0,0,.54H6.36l.24,0,0,.13c.42.12.37.36.5.74-.33-.06-.33-.09-.33.25H6.64l.13,0,0-.09v.09a2.77,2.77,0,0,1,.41.12v.08H7.3c-.1.31.1.51.17.79H7.39c-.07.26,0,.53-.29.53l0,.17c.15.07.08.11.29.16l-.09,0c.1.58.19,0,.5.29l.08,0v.12H8a1.76,1.76,0,0,0,.13.5h.08a5,5,0,0,0,.5,1.4c-.27,0-.58.07-.58-.25L8,36.4l0-.09-.08,0,0,.09c-.18.09-.08.32-.12.49h.08v.17c-.14,0-.26,0-.33.16.23,0,.24,0,.29.25-.12-.24-.51.08-.08.08v.17h.08c-.32.38-.23.55.21.7,0,.15,0,.09,0,.2-.35-.17-.48-.09-.54-.53-.14.14-.12.06-.12.2s-.78.58-.41.58v.17c-.12,0-.06,0-.17,0l0-.13c-.27.14-.34.27-.29.54-.14.07-.07.12-.25.12v-.08c-1.56,1.57.33,2.77,1,4,.09,0,.17-.74.21-.91.18.13.1.2.33.25l-.08,0a1,1,0,0,1,.37.08c-.07-.14-.13-.07-.13-.24-.27-.06-.19,0-.24-.25H7.51c0-.3.08-.45.37-.5v-.08H7.72A1,1,0,0,1,8,41.3v.13c.17,0,.09,0,.25,0l0-.08.17,0v-.09A.51.51,0,0,1,8,41.18l.2,0c-.07-.14-.05-.06,0-.25l-.08,0c.06-.11,0-.07.12-.12l0-.09.13-.08c0,.25.1.17.37.17V40.6c-.13,0-.13-.12-.25-.12-.06-.22.3-1,.58-.87-.06-.17-.05-.08,0-.29l.12.09A.62.62,0,0,1,9.28,39a1.18,1.18,0,0,1,.33.12c0-.2,0-.2-.2-.25.18-.37.21,0,.41,0,.07.28.81,1.46.66,1.61a1.39,1.39,0,0,1,.58,1.07c.25,0,.66.77.66,1h.12a6.63,6.63,0,0,0,1.36,1.94l-.08.08,0,.09.08-.09c.08.33.34.51.46.87h-.13c-.06.18-.05.08,0,.29-.11.06-.15,0-.2-.08-.06.11,0,.06-.13.12,0,.14,0,.17,0,.29-.13.13-.08,0-.08.29h-.08l.12,0c0,.11,0,.07-.08.12.06.12,0,.08.17.08,0,.13-.09.14-.09.29.16.05.09.06.21,0v.21c-.15,0-.29,0-.29.21h.17c0,.21-.15.24-.33.24l-.05.5h-.08l0,.12H13c0,1.08.19.71-.75,1v-.08l0,.12c-.08-.16-.23-.11-.37,0v-.21l-.29,0,0,.12h-.24c.32,0,.23.06.45.16l0,.13-.13,0v-.09c-.29,0-.36.13-.66.13l.09.12a.51.51,0,0,0-.25,0v-.08c-.08.08-.12.17-.21.25-.26-.13-.39-.36-.66-.5.06-.1,0,0,0-.16a2.09,2.09,0,0,1-.41-.17l0-.08c-.22-.07-1-.78-.86-1.07H8.54v-.08l.13,0c-.08-.15-.06,0,.08-.28.16.08.31,0,.49,0v.12l0-.08,0,.12h.13l0,.08h.24v-.08c.37-.12.36,0,.29-.49.25,0,.24,0,.46.08v.12a.75.75,0,0,1,.33,0c-.06-.16,0-.11-.17-.16.18-.12.08-.09.33,0v-.17l-.08,0,0-.08c.11,0,.05,0,.16,0,0-.11,0-.06,0-.16.14-.07.17,0,.17.12h.08c0-.22-.14-.22-.21-.41-.12.06,0,0-.2,0-.05.32-.09.2,0,.37a1.67,1.67,0,0,1-.37,0v-.08c-.13,0-.1-.07-.21-.13.12-.06.08,0,.08-.16h-.08c0-.14,0-.25-.12-.25v-.08c.24-.08.25-.1.45,0-.07.14,0,.16.12.25-.08-.43.17-.15.17-.46-.14-.05-.15-.16-.29-.16v-.13l-.08,0c-.15-.28-.33,0-.33.21a5.7,5.7,0,0,1-.62,0l0,.08c-.07-.13-.11-.09-.21,0,0-.11,0-.08-.12-.08,0,.21.08.25-.17.33l0-.08,0,.12c.36,0,.12.38.12.62H8.83l0-.12H8.79v-.09l-.21,0c0-.25-.05-.37.21-.37,0-.16-.16-.2-.21-.37-.22.11-.2-.14-.16-.29-.21.16-.17.06-.17.29h.09V46h.08c-.11.21,0,.42-.21.5a.34.34,0,0,1,.21.25H8.5v.08a.75.75,0,0,1-.33,0l0,.16H8.05l0,.21c-.76-.38-.93-1.45-1.65-1.82.1-.21,0-.16.37-.16v.12h.16v.09H6.81l0,.12c.16,0,.22,0,.37,0a.39.39,0,0,0-.33-.41v-.17c-.16.08,0,0-.33.08v-.08c-.85.17-1-1.43-1.61-1.73.17-.34-.54-.66-.54-1H4.25l.08,0-.12,0,0-.08c-.17-.09-.15-.17-.2-.33H4l0-.09H3.92l0-.08c-.12-.06-.08-.15-.2-.21l0-.08H3.72l0-.08a1.17,1.17,0,0,1-.25-.54c-.12,0-.1-.07-.21-.12l0-.08H3.26l0-.09H3.22c.13-.06.08,0,.08-.2-.12,0,0,0-.2,0A.75.75,0,0,1,3.3,40v-.16l.25,0v.16c.16,0,.11-.13.29,0v-.16c.19-.05.11-.07.25,0,0-.28-.17-.25-.17-.58H3.84c0-.18.08-.1.08-.25-.14,0-.06,0-.2.13l-.05-.13H3.55c0-.19,0-.11,0-.25l-.08.09c-.08-.12-.12-.27-.25-.33-.06.12-.12.1-.17.24H3.1a.48.48,0,0,1-.46.42c0-.3-.88-1.86-.66-1.86V37.1H1.74v-.21H1.65l0-.08c-.11-.11-.11-.3-.16-.46H1.45c0-.31-.21-.58-.21-.9H1.12c.15-.3-.44-1.2-.5-1.49s0-1-.08-1.32l0-.12.08,0a1.71,1.71,0,0,0-.08-.29c.12-.06.08,0,.08-.17-.27,0-.24-1.09-.25-1.23l.17,0c0-.1-.51-2,0-1.78,0-.65-.17-1.38-.17-2.06H.25a2.43,2.43,0,0,1,0-.66c.1.25,0,.18.21.25v-.09l.25-.08-.13,0a.86.86,0,0,0,0-.33H.46c.26-.13-.45-1.34.12-1.52,0-.18.12-.2.25-.13.09-.29.12,0,.12-.45a1.49,1.49,0,0,1-.41-.08v-.13a1.37,1.37,0,0,1,.49.13v-.13H1v-.08H.87v-.21c-.17,0-.08,0-.25,0l0,.08A2.27,2.27,0,0,1,.62,22.33Z"/><path class="a429c673-4bfb-4a8e-8aa1-60570361eaef" d="M16.5,53.43c-.19,0-1-.29-1-.5-.14,0-.49-.1-.49-.24-.62,0-1.21-.76-1.78-.95l0-.08c-.67,0-2.72-1.76-2.43-2.19v.08c.17,0,.08,0,.25,0v-.12H11c.21,0,.12-.06.29,0,.09-.18,0-.08.37-.13,0,.12,0,.07.09.13l.08-.13a1.15,1.15,0,0,0-.5-.12l.29,0,0-.12.29,0v.21c.11-.06.33-.17.33,0l.08-.12c.21.13.68.14.83-.08,0,.72,1.5.88,1.94.94.11-.22,0-.28.29-.28v-.13h-.17l.17,0v-.12l-.13,0v-.13l.29,0a.94.94,0,0,0,.08.33c.09-.16.29-.14.29-.37h-.08c.06-.13.06-.15,0-.25.09-.19,0-.08.41-.08l0,.08c.31.1.13-.09.21-.25a.51.51,0,0,1-.25,0v-.24h-.13v-.13c-.42-.08-.33-.08-.33.29a3.09,3.09,0,0,1-.12-.62c-.38,0-.54-.1-.66-.45.21,0,.11-.06.29,0,0-.2.19-.14.29-.29L15.31,47l.12,0c-.25,0-.16-.1-.29,0-.07-.15,0-.06-.08-.29L15,47c-.25-.09-.37-.32-.66-.17h.16c0,.26.21.47.21.74a1,1,0,0,0-1.69.62h-.21v-.08l.12,0c0-.66.38-.35.38-.74h-.17c0-.18.14-.21.29-.21v-.21c-.12.06,0,.05-.21,0,0-.23.09-.12.09-.29-.2,0-.19,0-.09-.2h-.16l.12,0c0-.25,0-.16.08-.29a.34.34,0,0,1,.09-.41c.12.25.26,0,.16-.17l.17,0a.78.78,0,0,0-.46-.62c.06-.12,0-.05,0-.21l-.08.09c-.05-.16-.07-.1,0-.21-.38-.19-1-1.94-1.44-1.94-.13-.38-.41-.66-.54-1h-.16c0-.18.13-.36,0-.53l.12-.05c0-.15.13-.16.13-.33h.08l0,.13h.08c.06.21.07.12,0,.29.21.1.36,0,.58.08l0-.08a2,2,0,0,0,.08.29l-.08,0,.08.24c.15,0,.07-.08.25-.08v-.12h-.08c.29,0,.18,0,.37-.13.12.12.06.05.16.21.06-.11,0-.07.13-.12,0,.14.11.13.24.16l0,.25c.17.08.08,0,.13.33.55,0,.69-.62,1.44-.37l0-.13c.08.15.12.17.29.21v.08h.17a1,1,0,0,1-.09.33h.13c-.16,0-.11,0-.17.13l.13,0-.09,0c.07.13,0,.08.21.08-.1.21-.33.17-.33.45h.12c0,.19-.08.06-.08.33h.17a5,5,0,0,1-.25.75h.08l0,.12,0-.16c.22,0,.23.15.17.33h.08l-.29.08.08.08-.08,0h.46v.17a1,1,0,0,1,.16-.33c.5,1,.67.37,1.57.82,0-.17.17-.18.24-.33A1.73,1.73,0,0,1,18,45v-.12c.08.25.2.23.45.33-.1.1-.05.07-.17.12.06.12.05.06.05.21l.24,0c0-.36.57-.58.87-.58v.09c.21,0,.18-.21.37-.21l0-.25h-.16l.2,0c-.06-.12-.06-.25-.12-.37a1.61,1.61,0,0,1-.66.12v-.16H19a1.52,1.52,0,0,0-.33-.91c.06-.11.08-.18,0-.25a1.83,1.83,0,0,0,.45-.16v-.12l.12.08c-.07-.22.09-.25.09-.41-.11,0-.17,0-.17.16h-.08c0-.11,0-.06,0-.16h-.17a.51.51,0,0,0,0-.25h-.08c.18-.09.07-.26.29-.33v-.12h-.17v-.17l.13,0c-.08-.15,0-.2.16-.25-.07-.15-.24-.08-.24-.25a2.12,2.12,0,0,1,1.27,0c-1.57,2.1,1,2,1,2.31h.12c.07-.34,0-.15.33-.49.15.07.21,0,.21-.13-.13,0-.05-1-.05-1.27l.13,0v-.21a1.58,1.58,0,0,1-.7-.29c.09-.19,0-.08.41-.08l0-.17a1.47,1.47,0,0,0-.58.09V40.4h-.08c.08-.25,0-.12.41-.17v.08a.7.7,0,0,0,.29,0,.84.84,0,0,1,.08.21l.05-.21c.39,0,.14-.28.66-.2V39.9c.16,0,.38.09.28.29h.17c-.24,0-.15,0-.29,0,.08.17,0,.07.29.21,0-.17.36-.33.54-.33V40h.16l0,.2-.16.08c.21.11.54.14.62.38l-.13.08h.13c.06.2.1.8.45.45.06.12.15.09.29.13-.11,0-.17.08-.17.2h.29c0,1.79,2.1,1.61,2.1.83H27.1c0-1.61-.1-1.76-1.85-1.82v-.12c-.39.06-.21-.13-.46-.13,0-.25.07-.24.29-.24l0,.2h.08v-.12c.32,0,.23,0,.29-.25h-.12a.84.84,0,0,1,0-.33c.07.15.2.11.33,0v.09l.2-.05,0-.08.13,0c-.09-.25.12-.36.12-.58-.29,0-.17,0-.37,0v-.08l-.12,0v-.16c-.2,0-.15-.05-.21.08a1.59,1.59,0,0,1-.33-.08v-.09c-.2,0-.12,0-.25,0v-.08h-.08v-.12l.21,0c0-.21,0-.12,0-.29h-.09l.38-.08v.08h.16V38c-.18,0-.2-.09-.12-.24H25.2c0-.45.07-.29,0-.5.16-.16.06-.16.33-.16V37l.25,0a1.38,1.38,0,0,0,0,.5H26v-.25l.12,0-.12,0c0-.11,0-.07.12-.13l-.08,0c.1-.2-.09-.53.21-.53,0-.24.1-.22.28-.13l.05-.08.08.25c.11,0,.16,0,.16.12H27v.12h.08v.09c.22,0,.16,0,.33.16-.05-.11-.05,0,0-.16.17,0,.32,0,.54.08,0-.39-.3-.24-.62-.29v-.45c-.16,0-.26-.12-.08-.21-.05-.13-.13-.12-.13-.25h-.08c0-.15.08-.12.21-.08s0,0,0-.16h-.13l.09-.09-.25,0c-.06.12-.11.12-.17,0-.07.14-.15.09-.29,0,.06-.1,0-.08.13-.08-.05-.26,0-.19-.21-.25l0-.16h-.08l.12,0v.08a.82.82,0,0,0,.33,0c0-.19.14-.37-.12-.37V34l.12,0c0,.17,0,.06.05.33.1,0,0,0,.16,0v-.12l0,.2c.12,0,.15,0,.21.09-.13.13-.08,0-.08.29.12-.19,0-.12.28-.17v.08c.26,0,.29.13.33.37.17,0,.09,0,.25,0,0-.29,0-.25.33-.25v.08a2.27,2.27,0,0,0,.5-.12.77.77,0,0,1-.21.41l0,.08c-.25.09-.24,0-.29.33h-.16c.55.19-.18.53-.13.74.34,0,.2,0,.42,0,0,.19-.13.19-.13.42l-.08,0c-.05.21-.11.17-.16.38h-.09V37l0,.13c.13,0,.06,0,.21,0v.12h-.13l.17,0c0,.5,0,.31.08.58h-.08c.18.09.08,0,.08.37h.17V38h-.09a2.37,2.37,0,0,0,.46-.2c-.08-.17,0-.17.16-.17,0,.19.11.36-.08.46l.12,0v.08h.13c-.06-.11,0-.07-.13-.12.24,0,.18,0,.25-.13l0,.13h.09a1,1,0,0,0,0-.42c.16,0,.23-.05.38,0v.09H30a.77.77,0,0,1,.33-.75c-.11-.16-.11-.08,0-.24l.08.45,0-.08v.08c.08-.48.1-.13.42-.29,0,.29.24.14.24-.08l0,.16c.16,0,.1-.07.21,0-.07-.21.07-.22.17-.41v.21c.26.07.22-.13.41-.13v.25l.29.08a1.13,1.13,0,0,1,0-.41c.06.14.09,0,.16.17.27-.34.33-.14.62,0v.08l.08,0c.08.14-.07.18,0,.33H33V37c-.39.2.13.45.33.5.14-.29,0-.35.33-.45l0,.12c.15-.31.07-.46.45-.33-.09-.18.18-.25.33-.25,0-.28.09-.14.09-.37h-.09v-.12h-.24a1.58,1.58,0,0,1,0-.42H34.2c.06-.13,0-.08.2-.08,0,.25-.08.12-.08.37a2.57,2.57,0,0,0,.62,0c0-.2,0-.12.08-.24v.16l.16,0,0,.21c.15,0,.16-.07.16-.21h-.08c0-.28-.08-.21.08-.29,0-.16,0-.11-.16-.16l.16,0v-.08l.17,0a13.14,13.14,0,0,0,1,1.36,1.82,1.82,0,0,0-.42,1.2c-.16.08-.13.18-.16.37h.08v.25h.08l0-.17c.21,0,.16.09.16.29.16,0,.21-.06.21.12l.08-.28c0,.1,0,0,0,.16l.29-.25,0,.13a.25.25,0,0,0-.21.24h.09v.09a2.79,2.79,0,0,0-.91,0l0-.13c-.12.07-.07,0-.13.17l-.08-.08a1.89,1.89,0,0,0-.25.78h-.08c-.08.32-.35,1.31-.37,1.32l0-.08c-.11,0-.07,0-.12.12.1.06.08,0,.08.13-.3.09-.37.47-.46.74h.09c0,.15,0,.08,0,.2-.31,0-1,1.16-.87,1.49l-.08,0v-.12c-.09.17-.38.56-.29.74-.34,0-.43,1.19-.49,1.32h.16v.25h.13v.12c.15,0,0,0,.28,0,0-.29.11-.21.42-.25.06.25,0,.16.29.21v.08c.27,0,.17,0,.32,0-3.73.29,1,4.63.75,1.07,0-.44-.66-.8-.66-1h.08c0-.21,0-.37.16-.49l.09.08-.09.08a.58.58,0,0,1,.09.21H35v.12a.69.69,0,0,0,.45-.33l0,.13c.12,0,.07,0,.13-.09.16.11.15.2.2.37h.21a.34.34,0,0,0-.25.29c.23,0,.28-.2.5-.2,0,.34-.24.34.2.45,0-.42.41-.21.71-.16,0-.23.08-.09.08-.38.16-.05.21,0,.33-.08l0,.13h.41v.08h.08v.25c.16,0,.06,0,.29-.05-.06-.19.14-.22,0-.41l.17-.08a3.73,3.73,0,0,0-.58-.12c.18-.24.11-.1.17-.42h-.09c0-.15.09-.12.21-.08v.08h.33c0,.45.25.06.25.66.16.06.11,0,.16.17h.09v.08h.08a18.66,18.66,0,0,1-2.85,2.93V49a2.33,2.33,0,0,1-.58-.09v-.2c-.33-.06-.32,0-.45.24l.08,0-.08,0c.12.06.06,0,.17.12-.11,0-.06,0-.17,0a.84.84,0,0,1-.08.21l-.17,0c-.12.19-.08.07-.08.37H35c-.09-.26-.39-.24-.46,0-.11,0-.05,0-.16,0v-.12a.35.35,0,0,0,0,.41l-.12,0V50c0,.14-.12.33.08.33,0,.24-.08.39.12.49-1.67,1.25-6,3.84-8.08,3.84-.21,0-.24-.34-.45-.29s-.07.29-.38.29c.12-.34-.08-.3-.08-.66-.12.06-.05,0-.2,0,0,.38.13.19.28.49h-.08v-.08c-.11,0-.05,0-.16,0l0-.12h-.13v-.17h-.2l-.05-.29-.08,0,0,.09h-.41v-.17c-.11,0-.16,0-.16-.12l-.17.08v-.08c-.13.06-.05,0-.25,0l0,.12H24l0,.09c.2.1.08,0,.08.45-.29,0-.22,0-.29.16h-.08l0,.38h.12V55a.91.91,0,0,0,.49,0c-.14.07-.07,0-.12.25-.6,0-1.21,0-1.81,0a1,1,0,0,1,.08-.46c-.12.06-.06.05-.21,0v-.2H22c-.05-.21-.06-.12,0-.29l-.13,0c.11-.21,0-.06.09-.5-.15.07-.08,0-.13.25v-.21a4.59,4.59,0,0,1-.74,0v-.08H21c0-.83.62-.17,1.19-.46v.17h-.08l0,.12c.22,0,.06,0,.37-.29l0,.13,0-.25.38,0c-.41-.05-.26,0-.46-.08.27-.41.26-2.19-.45-2.19.11-.22.58-.2.58-.66h-.09v-.08a2.76,2.76,0,0,1-1.07-.17c0-.22-.16-.1-.16-.33h.2l-.2,0v-.08a.84.84,0,0,1-.42,0c.1-.36.11-.19,0-.5l0,.38,0-.13h-.2v-.12h-.09v-.13c-.15,0-.1,0-.16.09h.12v.08h.08c0,.11,0,.07-.08.12.13.07.08,0,.08.21l.13,0c-.12.06-.1.1,0,.21h-.09v-.21a.75.75,0,0,1-.49,0v-.08H20l0,.12c.19.07.45.31.57.25-.05.11-.07.15,0,.21l0,.08c-.19-.1-.16.1-.29.16l.05.17h.08c0,.39,0,.36.33.45v.08h.08c0,.16,0,.11-.08.17h.12v.25h.08a2.11,2.11,0,0,0-.24,1.32H20.5v-.29h-.12c0-.33,0-.57,0-.91-.19,0-.16-.07-.21-.25.2-.1,0-.18-.08-.25-.06.12,0,.19,0,.33h-.17v-.16h-.12a.8.8,0,0,0,.08.62l-.08,0c.15,0,.1,0,.16.12-.25.26-.49.58-.78.29-.19.1-.08,0,0,.41-.09-.46-.06-.45-.45-.45,0-.16,0-.33-.13-.41l0-.08.13,0c.07-.15,0-.09.24-.09v-.16c-.27,0-.21.11-.49,0l0,.21a1.81,1.81,0,0,1-.17-.46h-.08v-.16h-.08a.55.55,0,0,0,0-.45H18a.51.51,0,0,1,0-.25.32.32,0,0,0-.17.33h-.08l0,.12h.12c0,.11,0,.06,0,.17-.14.14-.35.25-.24.45h-.13a.51.51,0,0,0,0,.45c-.2,0-.24,0-.24.17a1.39,1.39,0,0,1,.41.08c0,.13,0,.06,0,.21a.18.18,0,0,0-.13.2h-.08v-.08c-.14,0-.45,0-.45.12H17l-.05.13h-.08c.13.06.08,0,.08.2-.38,0-.14,0-.37.13l.09,0C16.48,53.17,16.5,53.28,16.5,53.43Z"/><path class="ae95e7d8-04a8-4aee-8016-d86a016d08c5" d="M34.2,45.8v-.08c-.31,0-.23,0-.29-.21-.34,0-.35-.06-.42.25-.2,0-.11,0-.28,0v-.12h-.13v-.25h-.16c.13-.28,0-.49.33-.83a.31.31,0,0,1,.16-.49c-.09-.18.2-.57.29-.74v.12l.08,0A2.06,2.06,0,0,1,34.65,42c0-.12,0-.05,0-.2h-.09c0-.19.21-.7.42-.7l0-.13h-.13c.14-.27.38.06.38-.29a.71.71,0,0,1-.21-.08c.13-.26.21-.94.49-1a1.37,1.37,0,0,1,.25-.78l.08.08c.06-.15,0-.1.13-.17v.13a3.8,3.8,0,0,1,1,0v-.09h-.09a.25.25,0,0,1,.21-.24v-.13l-.29.25-.08-.16,0,.28c-.06-.16-.08-.18-.25-.12,0-.2,0-.29-.16-.29l0,.17h-.08v-.25H36c0-.3.28-1.48.62-1.57.63,1.27,1.67,2.36,2.14,3.8.06.17,0,.33.25.33,0,.11,0,.07-.08.12.17.52-.19.24-.5.17,0-.13-.07-.1-.12-.21-.19.09-.11.36-.5.16l0,.33h.09l0,.13-.12-.08v.12c.13,0,.24.11.37,0,0,.41.06.42.41.54v.16H38.4l0,.21h-.12a3.56,3.56,0,0,0-.13.45c.13,0,.29,0,.29-.16h-.12l0-.17.21.08-.05-.16c.17.16.3,0,.5.12l.08-.16c.12.23,0,.26-.16.41L39,43H38.9l0,.13h.08v.08h.16c0,.15,0,.11-.08.16l.17,0c-.1,0-.16.18-.21.28h.08v.13a.91.91,0,0,1,.33,0,2.79,2.79,0,0,0-.12-1.28l.12,0v.12c.32,0,.6-.06.37-.41l0,.12h-.08c0-.19,0-.14.08-.2l0-.12.12,0,.05.13a.46.46,0,0,1,.49,0V42c.1.2.17,0,.29,0-.06-.12,0-.07-.17-.12v-.08h-.2v-.21a.3.3,0,0,1-.29.12,2.79,2.79,0,0,1,.78-1.27c0-.11,0-.07-.12-.13.12-.06.06,0,.16-.12l0,.08.13,0c0,.11,0,.17.12.17a2.91,2.91,0,0,0-.16-.83h-.13c0-.27-.23-.77-.12-1-.56-.14-.28-.46-.41-.86.14-.08.08,0,.08-.25.26-.09.2-.13.45,0,0-.33-.07-.22.08-.37l0-.09c.21-.07.22-.29.5-.2v-.17h-.08l0-.12c-.22,0-.23-.17-.42-.17,0-.15,0-.1.09-.16-.17-.08-.17-.17-.33-.17l0,.13c-.17-.06-.2-.13-.25-.29-.11,0-.08,0-.08.12h-.09v-.24l.25-.09,0-.24c-.17,0-.09,0-.25,0,0-.3.16-.41-.2-.41,0-.28-.19-.37.2-.45,0-.11,0-.07-.12-.13l.08-.12a.64.64,0,0,0,.5.08c.05.22,0,.15.2.21,0-.19.12-.17.29-.17,0-.2,0-.23.25-.28,0-.23.33-.21.45-.46.12.17,0,.11.25.17l0-.08c-.11-.06-.08,0-.08-.13-.06.11,0,.08-.13.08,0-.3,0-.28-.28-.28,0-.14,0-.06,0-.25-.12.06-.08.12-.08.25-.16-.08-.16,0-.16-.25a.53.53,0,0,1-.25-.08L41,33a.61.61,0,0,0-.41-.33V32.6c.26-.05.19,0,.25-.2l0,.12.08,0c.06.23,0,.15.25.2l0-.12a.74.74,0,0,0,.21.17,1.2,1.2,0,0,0,.12-.21h-.08l0-.08.08,0v-.21h-.08c.08-.15,0-.3-.08-.45l.12,0v.08h.12v-.08c.08.08.16.1.21.2h-.12L42,32A4.59,4.59,0,0,0,42,33.14c.16,0,.12-.09.08-.21H42v-.12a.63.63,0,0,1,.33,0V33h.17v.21h.08l0-.08c.25-.17.2-.08.2-.37.12,0,.07,0,.13-.09v.09c.3.07.12.26.45.33-.14,0-.33.29-.41.45.25,0,.25,0,.33-.25l.12,0,0-.08,0,.33-.08,0c.06.12,0,.15-.08.21.13.27.32.12.58.24-.06-.17,0-.08,0-.28l.12,0v-.25c-.11.05,0,0-.17,0v-.17c-.11.06-.08,0-.08.17-.11,0-.06,0-.16,0a2.74,2.74,0,0,1,.2-.91h-.08c0-.1,0-.08.12-.08a1,1,0,0,1,.05-.41h-.21A3.06,3.06,0,0,0,43.8,31h-.08a2.71,2.71,0,0,1-.08-.41c.25-.06.11-.05.41,0v-.08H44v-.09c.32-.08.05-.31.33-.41,0-.12,0-.25-.17-.25v-.12h-.08c-.06.18,0,.08,0,.29-.12,0-.2,0-.2-.12-.11,0-.09,0-.09.12h.09c-.06.11-.05.05-.05.16l0-.12c-.14,0-.07,0-.16.17-.1-.06-.11-.12-.21-.17l0,.08c-.21-.05-.12-.07-.29,0,.12.12.07.05.13.21h.08v-.12l.12,0v.41c-.15,0-.18,0-.25-.17-.07.23-.24.21-.24,0h-.33v-.12h-.08l-.05.12a.86.86,0,0,0-.33,0v-.16H42v-.33l.17,0c0-.11,0-.17-.13-.17v-.08H42c0-.19,0-.16-.25-.16l.09,0c-.12-.06-.11-.17-.17-.29,0,.1,0,.08-.12.08-.06.23-.06.11,0,.37l-.09,0h.09c0,.19-.08.22-.25.17.1-.21.08-.2.08-.5-.14,0,0,0-.25,0-.12-.25.46-.27.46-.53.19,0,.31-.25,0-.25,0-.14.08-.41.25-.41v.12H42c0-.16-.08-.21,0-.33l-.08,0c.19-.13.08-.29.25-.45v.12l.12,0,0-.17h-.08c.05-.11.06-.21.12-.33.06.12.2.11.33.17,0-.17,0-.08,0-.25-.34,0-.34-.07-.17-.33l.09,0c0-.17,0-.23.16-.29a.41.41,0,0,0,0-.24h-.08c0-.13,0-.17.16-.17,0-1.06-.29-2-.29-3h-.08c0-.95-1.49-3.46-1.36-4h-.08l0-.08c.16.08.18-.06.29-.17.1.06.08,0,.08.13h.25v-.09h-.13c.29-.09.27-.22.42.21l0-.08,0,.29h.13v.08H42A.71.71,0,0,0,42,19h.12l0-.12c.21-.11.07-.27.33-.33v-.09c.17-.05.11,0,.17-.16-.22-.06-.15,0-.21-.21h-.08c0-.13.12-.33-.08-.33.15-.05.08,0,.2,0,.07.27.23.15.41.33l0-.08a1.47,1.47,0,0,0,.61.12V18h-.08c0-.35-.11-.53.21-.66l-.13,0v-.21a.5.5,0,0,0-.41.17l0-.29c.12-.06.08,0,.08-.17l.13,0-.09,0c.08-.12.14-.32.25-.37v.17h.08v.08c.22-.15.16,0,.33,0l.13-.12-.08-.13.2,0c0-.18.06-.42.21-.49.11.32.66,1.21.66,1.27l-.13,0c-.2.83.61,2.77.83,3.63h.08a9.41,9.41,0,0,0,.21,1.82h.16c-.2.1-.08,0-.12.45h.16c-.32.16,0,1.34,0,1.65h.2l0,.12H46.2c-.06.24-.06.11,0,.38h.08c0,.16.12.2.12.33l-.08-.05a16.88,16.88,0,0,0,0,2.93h.21c0,.19,0,.35-.17.41v-.16a4.85,4.85,0,0,0,0,1.86c-.13.06-.08.11,0,.24h.16c0,.14-.08.19-.2.13,0,.29-.35,2.27,0,2.27a8.57,8.57,0,0,1-.46,1.11c-.05-.27-.05-.22-.28-.33l-.09.12c.12,0,.07,0,.13.08-.17,0-.29,0-.29-.2H45l0,.25c-.19,0-.16.12-.16.28h.08c0,.18-.22.42.08.42v.12c.11,0,.06,0,.17,0a.7.7,0,0,1,.12-.33c.07.14,0,.08.21.13,0,1.91-1.74,4.66-2.73,6.31-.47.78-.69,1.9-1.44,1.52.14-.07.1-.16,0-.29-.25.13-.42.52-.7.66h.08V43c-.63,0-.38.13-.29.49l-.08,0a2.55,2.55,0,0,0,.66-.16c.24.47,0,.18-.25.41v-.08c-.14,0-.24,0-.24.2h.08c0,.12,0,.06,0,.17-.11,0-.07,0-.12-.08l-.09.12,0-.17h-.08c.08-.15,0-.17-.16-.24-.07.13,0,.16-.21.16,0-.19,0-.11,0-.25-.09,0-.29.15-.29.25l-.12,0,0,.09c-.14,0-.07.08-.21.08V44l0,.16h.08c.06.18,0,.11.21.17v.16l.08,0c0,.15,0,.1-.08.16l.5.09c0,.09-.15.29-.25.29s-.13.12-.13.24.06,0,.17,0c-.16.24-.5.87-.78.87v-.08H39.1c-.05-.17,0-.11-.16-.17v-.37c-.13,0-.06,0-.21,0,0-.14,0,0,0-.25h-.33v-.08c-.12,0-.21-.07-.21.08h.09c0,.32.06.2-.17.37.21.11.41.06.58.17l-.17.08c.1.19-.1.22,0,.41a.46.46,0,0,0-.29.05v-.25h-.08V46c-.44,0-.35.12-.45-.09a.26.26,0,0,1-.29,0c0,.24-.12.23-.12.42-.3-.05-.71-.26-.71.16-.13,0-.24,0-.24-.12h-.09c0-.15.13-.18.13-.33-.2,0-.26.2-.5.2a.23.23,0,0,1,.25-.24l-.21,0c0-.22-.1-.44-.33-.28v-.13c-.13.14-.3.33-.49.33v-.12h-.08c0-.16,0-.1-.09-.21l.09-.08-.09-.08c-.16.08-.13.33-.16.49A2.78,2.78,0,0,1,34.2,45.8Z"/><path class="aa50fa37-d150-4c3e-836a-f2493beef93b" d="M20.42,20.48h.08a9.21,9.21,0,0,0,0,2.35c.05-.15.08-.14.21-.21a3.44,3.44,0,0,1-.25.87l.08,0c-.12.06-.07,0-.12.16h.12v.09c-.23,0-.39.79-.33.9l-.08,0,.08.17-.08,0,0-.12c-.12.23-.14.21,0,.49-.29.15-.2.64-.5.78.14.28-.29.5-.29.79h.13c-.05.2-.08.12,0,.25l0-.09c.38.2.08.62-.21.62,0-.14,0,0,0-.25H19.1a.41.41,0,0,1,0-.24c-.25,0-.64.74-.82,1l.08,0a.55.55,0,0,0-.29.25l.12,0v.08h.09v.08a.83.83,0,0,0-.83.74c-.29,0-.47.31-.66.5l.08,0c-.2.07-.28.26-.49.33l0,.08A.52.52,0,0,0,16,31c-.24,0-.18.07-.25-.08.11-.11.09,0,0-.2-.19.06-.43.06-.58.2l0,.08c-.38.19-2.31.63-2.31,1h-.49l0-.08A.9.9,0,0,0,12,32l.08,0c-4.06,0-7.39-3.18-6.27-7.63,1.26-5,4.65-9.62,10.48-8.79,1.09.16,1.62,1,2.39,1.61C19.74,18.05,20,19.31,20.42,20.48Z"/><path class="f65267b3-0bda-496f-be9d-be003496d905" d="M39.85,17.46c0-.39-.67-.63-.79-1-.19,0-.78-.47-.78-.71H38.2v-.08h-.09v-.08H38v-.17h-.08c.17-.08.11-.2.08-.37h-.21l.08,0c-.13-.07-.12-.27-.12-.41l.08.08c.06-.11,0-.07.13-.12v.08l.08-.25c.12.12.08.05.08.25.2,0,.23,0,.29.17h.08v.08h.09c0-.12,0-.07.08-.17l0,.25a.63.63,0,0,1,.29,0L39,15c0,.11,0,.07.08.12,0-.13.13-.12.13-.24H39.1v-.09H39c.24-.08.39-.1.45-.37a.75.75,0,0,1,.33,0c0-.14-.09-.18-.12-.41l.08,0v.16c.12-.08.17-.06.29-.12,0-.17,0-.18.08-.33H40v-.21c.15,0,.41-.13.41.09h.08l0-.17,0,.17h.08c0-.12.08-.12.16-.21v.12h.09v-.2c.25-.09.15-.79-.09-.79a1,1,0,0,0,.29-.45,1.16,1.16,0,0,0-.57.37h.08l0,.17h-.08a2.8,2.8,0,0,1-.13.41l.09,0c-.14.07-.09.12,0,.25-.24,0-.11,0-.28-.13l0,.17h.09c-.07.13,0,.08-.21.08l0-.2c-.11.05-.2.07-.2.2h.08c0,.15,0,.18-.17.25v-.08a.65.65,0,0,0-.12.37c-.14-.14-.08-.05-.12-.33a1.26,1.26,0,0,1-.33,0c0-.2-.07-.2-.25-.25.06-.13,0-.24-.08-.37-.14.06-.08,0-.13.2-.29,0-.18.12-.12.33h-.08v-.12c-.06.11,0,.08-.13.08v-.08l0,.17,0-.09-.08.09c-.11-.06-.09,0-.09-.13l0,.17,0-.13c-.12,0-.12.08-.2.17a.58.58,0,0,1,.12.25l-.29.08v-.21h-.08c.11-.05.08,0,.08-.12h-.12c0-.21.11-.37,0-.58-.06.11,0,.08-.13.08V13c0,.15-.12.17-.12.33-.21-.07-.17-.22-.12-.41h-.17c0-.15.09-.41.29-.41a2.07,2.07,0,0,1,0-.5l-.08,0c0-.14.08-.07.08-.2h-.08v-.09h-.13c0,.24,0,.53-.16.7-.24-.12-.48-1.24-.62-1.52l.08,0c-.1-.2-.26-.4-.37-.62.12-.06.12-.12.17-.25-.42-.06-.75-.82-.17-.82-.08-.17-.2,0-.2-.25H35.8V8.89h-.12c0-.27-.15-.42-.21-.66.14-.07.09,0,.09-.21h-.09l0,.17a.85.85,0,0,0-.33,0v.13a1.68,1.68,0,0,0-.29-.5c.07-.13,0-.08.21-.08-.05-.14,0-.17,0-.29.21-.1,0-.31.2-.45-.15-.06-.2,0-.2-.21h-.13c0-.28,0-.17,0-.33-.09.3-.13.18,0,.37-.17.12-.18.33-.24.54-.07-.19-.61-.91-.37-.91l-.13,0c.09-.18,0-.16.29-.21V6.08h-.08V6h-.13V5.92h-.08c0-.25.24-.83-.08-.83,0-.9-1.11-.41-1.44-.74-.77-.77-1.31-1.72-2.07-2.48l0-.08-.12,0a.84.84,0,0,0,.21-.08v.12c1.22,0,4,2.11,5.07,2.72.5.3.85.83,1.44.91,0,.51,1,1,1.28,1.32a40.75,40.75,0,0,1,2.89,3.34c.38.48.7,1.55,1.24,1.82-.08.21.44,1.19.74,1.19a7.35,7.35,0,0,0,1,2.68.92.92,0,0,0-.21.54h-.16l0,.12.08.05c-.24.15-.23-.11-.41.08-.06-.11,0-.08-.13-.08v-.17c-.1.05-.17.22-.25.33l.09,0c-.14.07-.07.18-.21.25l0,.25a.74.74,0,0,1,.41-.13c0,.24-.06.18.09.25l-.17.08c.08.3,0,.11,0,.58h.08v.12a4.48,4.48,0,0,0-.7,0c-.11-.22-.3-.05-.37-.33l-.2,0c.13.14.13.14.08.33h.08c.06.22,0,.15.21.21v.08c-.17.06-.11,0-.17.17h-.12c-.05.23-.37.5-.25.74h-.12V19.2h-.13l0-.29,0,.08c0-.22-.06-.23-.25-.33,0,.11,0,.08-.12.08.1.06.08,0,.08.13h-.25c0-.27-.2,0-.29,0v-.13H41c.2-.06.12,0,.16-.28H41c0-.13,0-.06,0-.21h-.08a.74.74,0,0,1,.16-.41v.2h.09c-.09.27.16.35.24.09l.21.08v-.13l.12,0v-.16l-.08,0c0-.15,0-.09,0-.21h-.08c0-.13.12-.13.12-.29-.19,0-.16.13-.37.13v-.13l-.25.13,0-.13h-.24c.13-.26-.1-.72.2-.82v-.21c.13,0,.21-.06.21-.2-.16,0-.23-.08-.37-.13l0,.17c-.26,0-.22.05-.17.29a.54.54,0,0,1-.29,0c-.06.17-.05.08,0,.29h.08c0,.13.06.21,0,.32h.09C40.55,17.53,40.1,17.46,39.85,17.46Z"/><path class="a3ada56e-53f8-4d2d-91d4-dc58c57bae51" d="M41,19c-.07.27,1.22,3.38,1.36,4h.08c0,1,.26,2,.29,3-.12,0-.16,0-.16.17h.08a.41.41,0,0,0,0,.24h-.08a1.71,1.71,0,0,1-.08.29l-.09,0c-.17.26-.17.33.17.33,0,.16,0,.09,0,.21-.18.06-.33,0-.33-.17-.06.12-.1.25-.16.37h.08l0,.17-.12,0v-.12c-.15.14-.12.32-.25.45l.08,0c-.12.12,0,.17,0,.33h-.08v-.12c-.18,0-.19.24-.25.37l.12,0c0,.11,0,.06,0,.16a2.42,2.42,0,0,0-.82.66H41c0,.14-.08.07-.08.21h-.12v-.08c-1.6,1.91-4.27,1.76-6.4.91-3.37-1.35-6.33-5.7-6.56-9.45-.15-2.58,1.78-6.14,4.71-6.23a12.38,12.38,0,0,1,3.09,0v.09c.77,0,2.94.77,3.22,1.61C39.83,16.48,40.24,18.61,41,19Z"/><path class="b215df5a-8ec3-4646-be4a-d579bb3eb672" d="M13.28,33.34c0-.31.4-.29.62-.37,0-.37,1-.7,1.36-.78a1.22,1.22,0,0,1-.28.54l0,.08c-.16.15-.37,0-.37.33-.48.16-.49.38-.54.78h.08V34H14l0-.12a1.71,1.71,0,0,0-.29.08v-.08c-.35.35-.92.78-1,1.24-.12-.06-.06,0-.21,0,0,.18.18.26.08.45.11.06.07,0,.13.13a.94.94,0,0,0-.33.08c.06-.12,0-.06.12-.17-.1-.1,0-.08-.16-.08v-.08l0,.12c-.26-.08-.87.72-.83.87-.26,0-.13,0-.37.2.13.27.29.21.41.46-.11,0-.06,0-.16,0l0,.12h-.09c0-.11-.08-.22-.12-.33-.11.06-.07,0-.12.12l-.13,0-.12.17c.11,0,.08,0,.08.12-.24,0-.59.41-.54.62a2.6,2.6,0,0,0-.66.62h.17c0,.36.1.28-.08.37,0-.12,0-.06-.09-.16-.08.08-.16.12-.24.2l.16,0c0,.13,0,.06,0,.21A.88.88,0,0,1,9.28,39c-.16.22-.13.09-.08.37-.13-.07-.06-.06-.2,0l.08.16c-.32-.1-.64.63-.58.87.12,0,.12.08.25.12v.13H8.42c0-.12,0-.06,0-.17l-.13.08,0,.09c-.13.06-.15.27-.08.41l-.2,0a1.59,1.59,0,0,0,.33.08v.09l-.17,0,0,.08a.44.44,0,0,1-.25,0V41.3a2.1,2.1,0,0,0-.24.5c.19.09.16,0,.16.16h-.2a4.91,4.91,0,0,0-.17.5h.17c.05.27,0,.19.24.25,0,.17.06.1.13.24a1,1,0,0,0-.37-.08l.08,0c-.21,0-.15,0-.21-.16H7.43v-.09c0,.3-.1.57-.13.87-1,0-1.56-2.48-1.56-3.13,0-.3.38-.64.53-.83v.08c.18,0,.11,0,.25-.12-.06-.3.08-.37.29-.58l0,.17c.11-.06.05,0,.17,0v-.17H6.93c0-.18.33-.58.5-.58,0-.14,0-.06.12-.2.06.46.22.32.54.53,0-.25-.2-.27-.41-.33,0-.3,0-.78.49-.78,0-.18.13-.25.29-.25,0-.46,3.17-2.94,3.71-3.34C12.38,33.8,13,33.21,13.28,33.34Z"/><path class="f9144632-866a-44c2-9480-93ce3e99cff0" d="M35.76,33.59c1,.33,1.46,2,2.48,2.27a3.51,3.51,0,0,0,1.28,1.44l-.05.13c.26.12.53.86.79.86,0,.2.16.26.33.29,0,.12,0,.06-.08.17a2.53,2.53,0,0,1,.2.82c.27,0,.27.54.33.79l-.12,0c0-.15,0-.17-.17-.17l0-.12c-.1.1,0,.06-.16.12.11.06.07,0,.12.13h-.16a4.9,4.9,0,0,1-1.12,1.73h.13v.08c-.27,0-.3.21-.37-.16.1-.06.16,0,.16-.17h-.2c0-.3-.31-.91-.17-1.11H38.9a3.16,3.16,0,0,0-.58-1.36c-.51-.86-1-1.75-1.49-2.6-.64-1.12-1.84-1.8-2.22-3.05,0-.13-2.84-2.13-2.72-2.69.05-.29,1.19.56,1.32.62A19.47,19.47,0,0,1,35.76,33.59Z"/><path class="e7133bb7-5bbc-4b2d-a3d8-847fcdcedfaa" d="M16.5,2.62h.08l.05.12h.12c.05.35,0,.56.37.62,0,.2.05.14-.08.21h.12c0,.34-.22.45.25.53v.13c.06-.14.18-.11.29-.21.12.06,0,.51,0,.7h.24v.12h-.08c-.05.35-.39.46-.29.79h.09c-.06.11-.05,0-.05.16h.25c0,.22-.29.34,0,.54.16-.46.29.1.29-.66l.12,0V5.5l.17,0c0,.26,0,.19.21.25,0-.11,0-.16-.13-.16a1.49,1.49,0,0,1,.08-.42h-.12c.09-.17.37-.71.37-.12H19c0-.22.2-.37.37-.12a1,1,0,0,0-.17.41c.25,0,.21-.17.21-.37h.08l0,.29h.13a1,1,0,0,0-.09-.42c.2-.1,0-.12.33-.12v.08H20c0-.14,0-.29-.13-.29.41-.08.32.19.62.29V4.68c.15,0,.22,0,.29-.17v.17c.11,0,.06,0,.17,0a.36.36,0,0,0,.12-.16c0,.22.11.16.29.12l0-.17c.11.24.05.25.33.25V5h.08v.08h.12c-.08.16-.14.29.09.29,0,.13,0,.07-.13.16l0,.13c.16,0,.33-.06.33.12.17,0,.26,0,.46.08,0-.12.08-.12.08-.24h-.08c.36-.18.85-.25,1-.75-.07.14,0,.09-.21.09V4.72a.43.43,0,0,1-.25,0c0-.27-.17-.24-.41-.29,0-.28.16-.27.08-.58.12-.06.06,0,.17-.12l-.09-.12c.33-.17.29-.12.17-.58H23V2.91c.19-.05.14,0,.2-.13l.09,0c0-.15.08-.12.2-.08l0-.08c.06.22.59.45.33.58.43,0-.18.35,0,.53-.06.13-.06.06,0,.21L24,3.9c0,.27,0,.3.29.37,0,.11,0,.07-.09.12h.13a1.73,1.73,0,0,0,.16.83c-.1.1-.08,0-.08.16.15,0,.1,0,.16-.08l.05.16c0-.11.12-.24.24-.24L24.71,5a.36.36,0,0,0,.12-.46c.11,0,.06,0,.17,0,.14-.29.07-.55.2-.82.05.21,0,.46.25.54V4l.21,0c0-.32,0-.2.08-.37h-.08l.25,0,0,.12c.06-.12,0-.08.16-.08V3.44H26c0-.37.33-.74.7-.62v.09h.12v.16h-.08c.27.14-.29.4-.29,0-.32,0-.25.28-.16.54l-.09,0h.13c0,.11,0,.07-.08.12l0,.09-.09,0h.13V4c.24,0,.14,0,.29,0,0,.18-.22.45,0,.58.11-.17.1-.09.25-.17v.17c.27,0,.21.07.28-.09.15.07.26.07.33-.08.22.06.16,0,.21.21.21,0,.21-.1.21-.29h-.09l.05-.25h-.17V4c-.4,0-.26.05-.45,0,.14-.08.08,0,.08-.25.34,0,.19-.07.45,0,.1-.18.14,0,.25,0,0-.13,0-.06,0-.21s.09,0,.21,0c-.09.17-.13.05-.13.28h.09a1.48,1.48,0,0,0,.08.29h.12l0,.17a.92.92,0,0,0,.29,0c0-.13,0-.06,0-.21l.08,0-.08,0c.05-.1,0-.17.17-.17s0,.21.12.21v.33c.25,0,.29-.25.29-.45.25,0,.3-.21.54-.29.05.11.07.2.2.2s.17.29.33.21a.44.44,0,0,1,0,.25h.08v.12h.09c0-.16.12-.16.12-.29h-.12l0-.16h-.09V3.85l.25,0V3.9c.24,0,.21-.19.21-.38l.12,0v.29a.23.23,0,0,0,.25-.2l.41-.13v.08h.13a7.39,7.39,0,0,0-1.41-1.65l0-.08A27.11,27.11,0,0,0,22.69.22l.12.05c0,.29,0,.17,0,.37h-.08V.47c-.05.55-.08.34,0,.66h.08v.21c-.13,0-.13.06-.08.16h-.08a1,1,0,0,1,.25.42l-.09,0L23,2c.06-.12,0-.08.16-.08-.18.12-.13,0-.08.28.07-.13,0-.07.21-.12-.09.18.07.4-.13.5l.09,0C23,2.76,23,2.7,23,2.37l0,.12h-.21V2.41h-.12c0-.14,0-.05-.05-.25-.18,0-.22,0-.33.13h.09v.29h.08c0,.18-.07.33-.29.33V2.82l0,.13c-.05-.25,0-.16-.12-.29l-.09,0,0-.21H21.7c.08-.16.11-.33.33-.33l0-.12H22a.51.51,0,0,1,0-.25H22V1.67h-.21c0-.21,0-.11,0-.29l.08,0c0-.16-.12-.17-.12-.29-.61,0,.21-.3-.42-.45,0-.14.09-.07.09-.21-.25,0-.26.07-.33.29a4.28,4.28,0,0,0-1.74,0l.13,0c0,.13-.28.2-.37.2V.72c-.2,0-.09,0-.33.08l.12,0c-.2.31-.7.36-.7.75l0-.17c-.33.16-.58.49-.91.66.11,0,.17,0,.17.12-.43-.14-.59.52-.79-.08-.18.09-.21.21-.24.41h.12c0-.19-.05-.14.08-.2Z"/><path class="ff8645b2-b951-4fc2-b519-7c51612c985f" d="M25.12,12.72v.08h.13v-.08c.38-.13,4.61-1.29,4.78-1.24a.54.54,0,0,0-.08.46c.06-.14.19-.13.33-.17,0,.19-.09.1-.09.25h-.08c-.05.17,0,.11-.16.17V12.1c-.07.15,0,.09-.25.09l0,.16c-.19,0-.19.08-.37.08v-.08c-.33-.11-.59.23-.83.41h.08v.17c-.12,0-.06,0-.16-.08-.17.08-.7.42-.7.57l.08,0a1,1,0,0,1,0,.37c-.3,0-.08-.18-.08-.33-.14,0-.18.14-.13.25-.18,0-.55.21-.24.21,0,.12-.06.12-.17.12v-.21c-.18,0-.37.28-.37.46h-.17l.05-.13a2.08,2.08,0,0,0-.21.25l-.08,0c-.12.11-.05.07-.21.12,0,.2,0,.21-.2.21l0-.08c-.22.16-.21.14-.21.41h.08c-.1.2-.7-.32-.7.5-.18-.06-.11,0-.16-.21-.23.11-.91.49-.91.78l-.12,0V16c-.77.76-1.52,0-2.4-.25-2.2-.73-3.91-2.38-5.89-3.38a14.06,14.06,0,0,1,3.13.33A30,30,0,0,0,25.12,12.72Z"/><path class="a02a0a6d-3a66-4315-8602-ea62863b3025" d="M22.73,55.29l-.74,0,0-.25c-1.17-.17-5-.93-5.45-1.9l.13,0-.09,0c.18-.17.05-.17.37-.17v-.16h-.12l.12,0v-.08l.17,0c0-.18.43-.14.53,0,0-.42.3-.31-.32-.49v-.13l.24,0c0-.17,0-.24,0-.41l.17,0c0-.11,0-.06-.05-.17.11-.05.09,0,.09-.12.19-.06.33-.33,0-.33v-.08l.12,0a.32.32,0,0,1,.17-.33.45.45,0,0,1,0,.25h.12a1.12,1.12,0,0,0,0,.37l-.08,0c.13.06.08,0,.08.2h.08a.91.91,0,0,0,.13.46c.05-.2.13-.27.33-.17.07-.14,0-.08.24-.08v.16c-.23,0-.17-.06-.24.09-.16-.06-.1-.07-.21,0l.12,0a.84.84,0,0,0,0,.37,1.67,1.67,0,0,1,.37,0v.46c.22-.12-.1-.35.12-.46.29.29.53,0,.78-.29-.06-.12,0-.07-.16-.12.17-.08,0-.48,0-.62l.16,0v.16h.17a.63.63,0,0,1,0-.33c.17.06.1,0,.21.17-.15.07-.09.2-.05.33h.13a5.53,5.53,0,0,0,0,.91h.12v.29l.17,0c.14.22.39.45.49.66-.14.07-.1.31-.12.46h.08v.08a1.69,1.69,0,0,0,.74,0V54c.05-.2,0-.14.13-.21,0,.4.05.26,0,.45l.08.09c-.14.14-.07.29.12.29v.2c.15.05.09.06.21,0,0,.14-.07.32-.08.46Z"/><path class="afbb9ae4-4a9a-43aa-8d90-a763a6637db6" d="M8.25,18.83c-.24,0-.24-.2-.29-.42l0,.13H7.84l0,.12h.08l-.12,0A1.6,1.6,0,0,0,7.55,18c.15-.1.1,0,.17-.17H7.55c0-.3-.12-.2-.12-.49l-.08,0c0,.25.09.16,0,.29v-.29c-.14.1-.12,0-.12.17l0-.13-.08,0v-.08H6.93a2,2,0,0,0,0-.53H6.81v-.13c-.15,0-.16,0-.21.17h.09c0,.22-.1.38-.05.61H6.56V17.3c0,.2,0,.56-.25.66v-.08c-.17.08-.2,1.23-.28,1.4h.08a1.91,1.91,0,0,1,0,.54c-.16-.06-.09-.06-.21,0a1.64,1.64,0,0,1,0,1.07l0-.13a.36.36,0,0,0-.29.13h.17c0,.17,0,.16-.21.16l0-.12H5.32c0-.49-.16-.33-.16,0l.25,0c0,.21-.11.42.24.25a.91.91,0,0,1,.17.78c-.21,0-.16,0-.33-.12,0,.21.08.27.29.2l0,.13c-.18.12-.12,0-.12.29l.08,0,0,.66,0-.09-.13.09.17,0c0,.34,0,.05,0,.86H5.65c.13-.19.09-.07.09-.37H5.61l0,.17a.18.18,0,0,0-.29.08c.14.07.08,0,.13.21L5.53,24v.17c.18,0,.1-.08.25-.08v.33h.08C5.86,22.4,7.4,20.54,8.25,18.83Z"/><path class="e729ee7f-c5b4-4804-a269-d76f2dae4b4a" d="M32.3,9.05c-.12-1-.45-1.26-1.49-1.32V7.57h-.12V7.4a.51.51,0,0,0-.25,0c0-.3-.16-.2-.37-.2l.08-.09c-.25-.16-.07-.08-.57-.08a2,2,0,0,0-.09-.45l.09,0A2.29,2.29,0,0,1,29,5.75l.24,0c-.08-.17,0-.58-.24-.58,0-.26.08-.11.08-.41-.28-.09-.16-.41-.25-.66l.08,0-.08,0c.05-.1,0-.17.17-.17s0,.21.12.21v.33c.25,0,.29-.25.29-.45.25,0,.3-.21.54-.29.05.11.07.2.2.2s.17.29.33.21a.44.44,0,0,1,0,.25h.08v.12h.09c0-.16.12-.16.12-.29h-.12l0-.16h-.09V3.85l.25,0V3.9c.24,0,.21-.19.21-.38l.12,0v.29a.23.23,0,0,0,.25-.2l.41-.13v.08l.13,0c.23.35.51.64.74,1a1.38,1.38,0,0,0-.29,1.94c-.17.08-.15.23-.25.37l0-.12a.32.32,0,0,0-.29.29l-.12,0c0,.16,0,.09-.08.21.05.11,0,.16,0,.28l.12,0-.08.08c.09.19.33-.17.33.12.21,0,.44.06.66.08v.13c-.34-.17-.25.53.08.37,0,.18-.11.16,0,.37h-.17V8.6h-.08A2.88,2.88,0,0,1,32.3,9.05Z"/><path class="b496677d-97d8-4e23-ae24-11e94cbdb789" d="M41.54,29.88h-.21a.34.34,0,0,0,.21-.25h-.09c.16-.08.09-.23,0-.37.16-.05.11,0,.16-.16,0,.16,0,.25.17.33l-.09,0H42c0,.11,0,.16.12.16v.08h.09c0,.12,0,.06,0,.17l-.17,0c-.05.25-.06.14,0,.33h.08v.16a.61.61,0,0,0,.33,0v-.08l.13,0v.12h.33v.17c.11,0,.06,0,.16,0l.08-.17a.43.43,0,0,0,.21.21l0-.45h-.08l0,.16h-.08c0-.13,0-.21-.13-.21.17-.11.08-.09.29,0l0-.08c.1,0,.11.11.21.17,0-.17,0-.11.16-.17V30l.09-.16h-.09c0-.11,0-.07.09-.12v.08c.12,0,0,0,.2,0,0-.2,0-.12,0-.25l.12,0v.12h.09a.44.44,0,0,0,.08.25h-.08c-.07.55-.13.15-.25.5h.08v.08c-.29,0-.17,0-.37,0a1.1,1.1,0,0,0,0,.45h.08a2.75,2.75,0,0,1-.16,1.2h.21a1.06,1.06,0,0,1-.05.41c-.11,0-.07,0-.12.08h.08a4.17,4.17,0,0,1-.2.91c.1,0,0,0,.16,0,0-.16,0-.11.08-.17v.17c.12,0,.06,0,.17,0v.25h-.08l0,.2H44c-.13.27-.58.12-.66-.12.11-.06.14-.09.08-.21.18-.09.08,0,.08-.37-.11.06,0,0-.2,0-.07.21-.11.2-.33.25.1-.21.2-.08.2-.37l.21,0c-.29-.12-.17-.3-.45-.37v-.09a1.59,1.59,0,0,0,.33-.08v-.12a.51.51,0,0,0-.25,0c0-.34.18-.61.08-1l0,.08c-.05-.11,0-.13,0-.25-.32-.06-.41-.11-.41.25l-.12,0v-.12a.6.6,0,0,1-.29.08c.1.05.08,0,.08.12-.16-.05-.21-.05-.21.13H42c0-.21-.05-.47.17-.58v.21c.28,0,.15-.37.12-.54-.12,0-.1.07-.21.12v-.12H42c0-.11,0-.06,0-.16-.19,0-.21-.12-.37-.17,0-.15,0-.1.08-.16l-.08-.05,0-.12C41.45,30.18,41.49,30.09,41.54,29.88Z"/><path class="f8d41252-820a-4c1f-a3da-de3aaf8e6d05" d="M15.72,15.61c-.26-.07-.35-.25-.54-.25v-.08c-.27,0-.21-.07-.16-.33h-.13l0-.21c.2-.06.08-.05.37,0a2.88,2.88,0,0,1-.16-.7c.12-.06.08,0,.08-.16h-.08c.14-.07.12-.13.12-.29-.16.16,0,.09-.41,0v-.25a3.21,3.21,0,0,1-.62,0c0-.15,0-.09,0-.2-.11.05,0,0-.17,0,.12-.18.09-.08.09-.33-.14.13-.25.15-.25.37l0-.08c-.11.05-.28.34-.41.45.1,0,.11.1.16.21l-.25.08.09.12h-.09l0,.17h-.08v-.13c-.11.23-.6-.05-.29-.2a2.09,2.09,0,0,1-.16-.29c-.18,0-.24,0-.29.16h-.13c-.05-.16,0-.11-.16-.16.1-.16,0-.13.2-.13,0-.26-.25-.22-.45-.12v-.21h-.08c0,.14,0,.07-.13.17h.09c0,.3-.48.23-.29.62l-.08,0h.12v.16h-.12l0,.13h.17c.06.18,0,.11.21.16-.83.41.65.49,1,.37v.09H13v-.09l.12,0v-.16H13v-.13c.06.13.18.1.33.13-.21.05-.15,0-.21.16l.08,0-.08.05h.08v.45c.31.06.19,0,.29.33Z"/><path class="a1f17fe9-2b82-444d-959f-5d4688ac38a9" d="M19.8.51a14.18,14.18,0,0,0,3-.24c0,.29,0,.17,0,.37h-.08V.47c-.05.55-.08.34,0,.66h.08v.21c-.13,0-.13.06-.08.16h-.08a1,1,0,0,1,.25.42l-.09,0L23,2c.06-.12,0-.08.16-.08-.18.12-.13,0-.08.28.07-.13,0-.07.21-.12-.09.18.07.4-.13.5l.09,0C23,2.76,23,2.7,23,2.37l0,.12h-.21V2.41h-.12c0-.14,0-.05-.05-.25-.18,0-.22,0-.33.13h.09v.29h.08c0,.18-.07.33-.29.33V2.82l0,.13c-.05-.25,0-.16-.12-.29l-.09,0,0-.21H21.7c.08-.16.11-.33.33-.33l0-.12H22a.51.51,0,0,1,0-.25H22V1.67h-.21c0-.21,0-.11,0-.29l.08,0c0-.16-.12-.17-.12-.29-.61,0,.21-.3-.42-.45,0-.14.09-.07.09-.21-.25,0-.26.07-.33.29A8.22,8.22,0,0,1,19.8.51Z"/><path class="ad58e73c-e206-4138-b7e9-b5141d0c582e" d="M39.19,35l.08-.08c0,.11,0,.08.12.08a.63.63,0,0,0,0-.29c-.45,0,0,.38-.37.38a.71.71,0,0,0-.08-.21l-.13,0V35c-.18-.09-.11-.28-.08-.45l0,.08c-.11,0-.07,0-.12-.12l-.13,0v-.17l.33,0v.09c.3,0,.11-.09.5-.09v.13h.08c0-.17.08-.06.08-.29h-.2c.21-.06.18-.09.24-.29h-.24c.07-.14,0-.2,0-.37h.12l0,.29c.2,0,.27-.08.45-.08,0-.12,0-.06,0-.17.24-.24,0-.59.17-.91l0,.17c.11,0,.06,0,.16,0,.08.15,0,0,.09.33.15,0,.1,0,.16-.09.08.2.06.27.25.33,0,.43.19.22.49.38a3.1,3.1,0,0,0,.05-.54H41V33.1h-.08c.2-.07.29,0,.29.2.13,0,.06,0,.2.09l0-.21.08,0c0,.27,0,.25.29.25,0,.15,0,0,0,.28.12,0,.07,0,.13-.08v.08H42c-.07.14,0,.09-.21.09l0-.13c-.16.08-.45.3-.49.46a.25.25,0,0,0-.25.28c-.17,0-.29,0-.29.17-.22-.06-.15,0-.2-.21l-.09.09c-.09-.18-.24-.12-.41-.09v-.08l-.08.12c.11.06.07,0,.12.13h-.16C39.81,34.72,39.54,35.52,39.19,35Z"/><path class="a70e34ee-5e10-4d81-8680-e50c166e0bd9" d="M39.93,41.55c.09.19.2,0,.33,0v.21h.2v.08c.16.05.11,0,.17.12-.14.07-.07.13-.25.13v-.13l0,.13c-.23,0-.32-.09-.49.08L39.8,42l-.12,0,0,.12c-.13.06-.08,0-.08.2h.08l0-.16c.12.45,0,.35-.37.45V42.5h-.08c-.13.52.18.65.12,1.28-.15,0-.22-.05-.37,0v-.13H39a.79.79,0,0,1,.21-.24l-.17,0a1,1,0,0,0,.08-.21h-.16v-.08h-.08V43L39,43c-.13-.26.21-.27.08-.53l-.08.16a.59.59,0,0,0-.41,0v-.12l-.09,0,.05.16h-.21v-.08l0,.17h.12c0,.15-.16.2-.29.16s.09-.16.09-.41l.16,0v-.17l.12,0v-.16c-.38,0-.35-.22-.41-.54a.27.27,0,0,1-.41-.12l.12,0,0,.08,0-.08c-.17-.09-.09,0-.09-.33.22-.08.08-.05.42,0,0-.12,0-.15.12-.21,0,.11.12.08.12.21.56,0,.63.35.75.82h.2c0,.12-.06.11-.16.17,0,.23,0,.17.12.24.15-.15.07-.14.25-.08v-.08h-.13A3.37,3.37,0,0,0,39.93,41.55Z"/><path class="e9684344-cd3f-4e63-9cfb-92158513eebc" d="M21.2,8.89c.17,0,.42.14.42.33h.16c0,.4-.31,1.16.08,1.23,0,.1-.39.29-.49.37.09.19,0,.09.37.09.07.2,0,.11.29.16,0,.13,0,.06,0,.21H22c0,.36.05.28-.13.37-.05-.17-.07-.27-.24-.33v-.21c-.07,0-.25,1.05-.25.29h-.08l0-.08h-.09l.09-.08c-.88-.35-1.69-.2-1.69-1.53C19.64,9,21.2,8.21,21.2,8.89Z"/><path class="b2d027b6-99f7-41b2-a637-2535d68d670d" d="M8.13,46.91v-.12c.26,0,.14-.06.37,0v-.08H8.42c-.05-.15-.08-.14-.21-.21.17-.17.1-.33.21-.54H8.34v-.08H8.25c0-.22,0-.12.13-.29,0,.14,0,.27.12.33l.08-.08c.05.22.12.23.21.41-.26,0-.21.12-.21.37.37-.07.16.06.37.17,0-.45.09-.22.09-.58-.13,0-.06,0-.21,0l0-.12,0,.08c.2-.07.17-.14.17-.33h.08v.08c.12-.08.18-.14.25,0l0-.08a5.7,5.7,0,0,0,.62,0c0-.28,0-.29.29-.29v.08l.08,0,0,.13c.49,0,.08.4.12.62-.12-.06-.19-.12-.12-.25-.12-.06-.05-.05-.21,0V46c-.25.05-.18,0-.24.16h.08a.51.51,0,0,0,0,.25h.08c0,.15,0,.1-.08.16.11.06.08.13.21.13v.08c.32,0,.2,0,.37,0a1.3,1.3,0,0,0,0-.33.74.74,0,0,0,.24-.08c.06.18.19.2.25.37l-.12,0c0-.25-.23-.17-.13,0-.1,0-.16,0-.16.08l.08,0,0,.17c-.23,0-.14-.07-.29,0,.12.11.07,0,.13.2a.63.63,0,0,1-.33,0c0-.22-.22-.2-.42-.24,0,.37,0,.22,0,.45-.14.09-.19.11-.33,0l0,.12H9.41l0-.08H9.32v-.16l0,.12,0-.12c-.17,0-.32,0-.49,0-.05.19,0,.14-.13.2l.05.08H8.58l0,.13h.21c-.06.11,0,0,0,.16C8.48,47.9,7.74,47,8.13,46.91Z"/><path class="e59c7486-a954-46b7-a8b4-091471e0b114" d="M40.92,32.35H41c.08-.58,0-.46-.12-1l.12,0v.13c.15,0,.11,0,.17-.09.26.09.11.34.41.42,0-.53-.07-.87-.58-1v-.17l.12,0c0-.17.18-.1.25-.25l.08.13c.06-.16,0-.1.13-.21l.08,0,0,.12.08.05c-.12.06-.08,0-.08.16a2.48,2.48,0,0,1,.37.17c-.05.1,0,.05,0,.16h.12V31c.11-.05.09-.12.21-.12,0,.21.21.54-.12.54v-.21c-.2.1-.15.39-.17.58h.08c0-.18,0-.18.21-.13v-.08h-.12a1.31,1.31,0,0,0,.33-.12v.12h.08c0-.4.09-.35.45-.29,0,.12,0,.07-.08.17l.08.08,0-.08a3.66,3.66,0,0,0,0,.66c-.17.08-.07,0-.12.33a.44.44,0,0,0,.25,0v.12c-.51,0-.36.33-.66.54l0,.08h-.08V33h-.17v-.12a.44.44,0,0,0-.37,0c0,.11,0,.08.12.08s.08.21-.08.21A3.16,3.16,0,0,1,42,32h-.17L42,32v-.12h-.12l0-.12,0,.12h-.12v-.08l-.12,0c.07.15.16.29.08.45h.08v.21h-.12l.08.12c-.19.12-.19.13-.29-.08l0,.12H41l0-.16-.08,0Z"/><path class="be756bc7-9021-4782-a392-a5c6e10b18d9" d="M20.83,51.33v-.25h-.12c.12-.06.08,0,.08-.17h-.08v-.08a.53.53,0,0,1-.33-.08c.05-.29.07-.17,0-.37H20.3c-.05-.17,0-.45.24-.33l.09-.08-.13,0c0-.11,0-.05,0-.16-.16.08-.16,0-.2-.17a.91.91,0,0,1-.42,0c.06-.16,0-.11.17-.16v.08c.16,0,.35.07.49,0v.21h.09c0-.12,0-.06,0-.17l.08,0-.13,0v-.17H20.5l.08-.16H20.5V49h-.12c.06-.12,0-.09.16-.09v.13h.09v.12h.2v.13l0-.33a1.9,1.9,0,0,1,.09.53c.15-.08.05,0,.33,0v.08h.2l-.2,0c0,.15,0,.16.16.21,0,.39.81.29,1.07.29v.08h.09c0,.43-.48.46-.58.66h.08c0,.1,0,.15,0,.25C21.38,50.69,21.39,51.33,20.83,51.33Z"/><path class="aba79ea7-c1a1-4fa7-9911-56bb3b572414" d="M15.43,49.14c-.2,0-.25,0-.25.17l.13,0v.12h-.13l.13,0v.13c-.51,0,.08.34-.58.28s-.09-.24-1-.24c-.71,0-.81-1.49-.54-1.86C14.27,46.34,15.19,48.17,15.43,49.14Z"/><path class="fc99dd12-a48c-4fce-8a5b-e3c9d7139d25" d="M22.48,53c.2.09.05,0,.46.08l-.33,0-.05.29,0-.13c-.35.31-.18.29-.41.29v-.08l.12,0v-.17c-1.45.73-2.09-1.42-1-2.18S23.18,52.28,22.48,53Z"/><path class="e6d1058a-fbc3-4211-95ed-4dcd1d898c8f" d="M32.42,9.17c-.15,0-.1,0-.16.09.14,0,.37.1.37.29l-.13,0V9.5c-.1.11-.08.05-.08.17h-.08a.44.44,0,0,1,0-.25l-.16,0c-.24.72-1.86,1.16-2-.12-.08-.76.58-2.39,1.65-1.32C32.19,8.24,32.25,8.84,32.42,9.17Z"/><path class="fa8fb094-75cd-46a9-bddc-3faaf74e7ce1" d="M25.33,8.56v.08c.36.12.33.38.41.7h.08a2.06,2.06,0,0,1,0,.49h.08c0,.16,0,.11.09.17l-.09,0,0-.12a2.49,2.49,0,0,0-.49,1.15l0-.2C23,10.87,23.54,8,25.33,8.56Z"/><path class="fb2bf0b0-cf4c-4100-93b7-9c92d6d214cc" d="M27.14,51.86v.25h.17v.12h.08v.13c-.11,0-.06,0-.17,0-.12.12-.09.27-.12.45H27v-.08c-.12.23-.17.23-.17.53-.38-.19-1,.22-1.44-.16-1.09-.87-.06-2.21,1-2.15C26.89,50.94,26.9,51.86,27.14,51.86Z"/><path class="a8005937-efd1-4ded-aeed-77f1906e5f39" d="M22,41.14v.21c-.15,0-.07,0-.17.16l.09,0a2.07,2.07,0,0,0-.05,1l-.08,0c.06.11,0,.08.13.08s-.08.26-.17.09c-.37.37-.33.17-.33.49l-.16,0V43.2a1.3,1.3,0,0,1-1-2.23C20.82,40.41,21.48,41.07,22,41.14Z"/><path class="a0fbd284-2d2e-4ead-bdea-4c6abd5f87db" d="M1.9,16.72l.08,0A1.43,1.43,0,0,1,2.15,16c.29.22.25.41.29.79h.08c0,.44.42.23.7.32,0,.21-.08.1-.08.33.16,0,.16.09.33.17l-.08,0,.08,0c-.24.12,0,.23.16.29v-.12c.21,0,.08.2,0,.33.16.08.09,0,.09.29H3.63c.12.06.09,0,.09.16-.16-.05-.11,0-.17-.12a.36.36,0,0,1-.16.12v-.25l-.05.29,0-.16a.63.63,0,0,0-.33,0V18.5H2.81v-.09H2.64a1.4,1.4,0,0,0,.17-.7H2.64l0-.16c.13,0,.06,0,.21,0l-.16-.05v-.12c-.26,0-.29.25-.54.25V17.3c-.14.07,0,.13-.17.21,0-.14,0-.23-.08-.29-.05.2-.06.18-.25.24A2,2,0,0,1,1.9,16.72Z"/><path class="b43487eb-4605-417a-8cc3-6988f084b5e6" d="M17.94,44.73H17.7c0-.16,0-.09,0-.21.1.19,0,.08.41.08-.07-.21,0-.11-.33-.16a4.4,4.4,0,0,1,.12-.74h-.08v-.25c-.47,0-.58-.58-1.28-.58-1,0-1,1.79-.37,2.23.34.25.88,0,1.16.12,0-.17.17-.18.24-.33A1.73,1.73,0,0,1,18,45C18,44.81,18,44.89,17.94,44.73Z"/><path class="a33e3f2b-6b57-44a7-84fe-fd9afa6c4f27" d="M15.18,10.08v.13h.08a.63.63,0,0,1,0,.33h-.08c-.05.15,0,.29-.08.41h.08c0,.22-.52.62-.7.62v-.09c-1.78,0-1.61-2.29-.58-2.35C15.05,9.07,15,10.08,15.18,10.08Z"/><path class="aafeda01-5077-400f-a507-5406bfe10119" d="M15.55,49.47c.09-.16.29-.14.29-.37h-.08c.06-.13.06-.15,0-.25.09-.19,0-.08.41-.08l0,.08c.31.1.13-.09.21-.25a.51.51,0,0,1-.25,0v-.24h-.13v-.13c-.42-.08-.33-.08-.33.29a3.09,3.09,0,0,1-.12-.62c-.38,0-.54-.1-.66-.45.21,0,.11-.06.29,0,0-.2.19-.14.29-.29L15.31,47l.12,0c-.25,0-.16-.1-.29,0-.07-.15,0-.06-.08-.29L15,47c-.25-.09-.37-.32-.66-.17h.16C14.52,47.63,15.29,48.7,15.55,49.47Z"/><path class="fb2bf0b0-cf4c-4100-93b7-9c92d6d214cc" d="M30.85,41.55c1.18-.31,1.94,1.87.91,2.31C30.2,44.53,29.4,41.93,30.85,41.55Z"/><path class="fe7410ed-215c-43c8-86bd-b537a0b41627" d="M41,18.91v-.13H41c.2-.06.12,0,.16-.28H41c0-.13,0-.06,0-.21h-.08a.74.74,0,0,1,.16-.41v.2h.09c-.09.27.16.35.24.09l.21.08v-.13l.12,0v-.16l-.08,0c0-.15,0-.09,0-.21h-.08c0-.13.12-.13.12-.29-.19,0-.16.13-.37.13v-.13l-.25.13,0-.13h-.24c.13-.26-.1-.72.2-.82v-.21c.13,0,.21-.06.21-.2-.16,0-.23-.08-.37-.13l0,.17c-.26,0-.22.05-.17.29a.54.54,0,0,1-.29,0c-.06.17-.05.08,0,.29h.08c0,.13.06.21,0,.32h.09c0,.38-.26.35-.54.25l-.08.13a6,6,0,0,1,1,1.44C41,18.9,40.93,18.91,41,18.91Z"/><path class="e4f08802-8389-406d-9632-21612d36adf7" d="M11.43,8.35c-1.25-.74-.29-3.1.86-2.23C13.26,6.85,12.85,9.2,11.43,8.35Z"/><path class="b442d9fb-1bd1-4d0a-8b64-ca557b338577" d="M21.24,45.84c1.4-.33,1.52,2.16.66,2.35A1.22,1.22,0,0,1,21.24,45.84Z"/><path class="b8c6678b-8367-46fd-bba3-1cd094ac4de1" d="M27.1,42.38h.12c0,.83-2.1,1-2.1-.91C25.12,40.24,27.48,40.08,27.1,42.38Z"/><path class="a391d163-eda4-4086-a6a0-4e63e5add11d" d="M34.61,45.88V46c.81,0,1,2.43-.54,2.31C32.93,48.19,32.79,45.88,34.61,45.88Z"/><path class="ab81cd1b-0f7a-4c08-9059-ec688441a14a" d="M34,5.09h.08c0,1.79-1.81,2.32-2,.79C32,4.59,33.63,3.64,34,5.09Z"/><path class="b999043b-5d43-48bd-9896-b587c060fa92" d="M34.36,50.75a2.59,2.59,0,0,0,0-.45h-.08a.92.92,0,0,0,0-.29l0,.12.12,0c0-.13-.11-.24,0-.37l0,.08c.11,0,0,0,.16,0v-.12a1.57,1.57,0,0,1,.42,0l0,.13h.08c0-.3,0-.18.08-.37l.17,0c0-.11,0,0,0-.17a1,1,0,0,0,.21-.08l-.17-.08.08-.08-.08-.09c.12-.24.17-.25.45-.2v.2c.16,0,.47,0,.58.09s0,.23-.08.28C36,49.62,34.92,50.75,34.36,50.75Z"/><path class="ab81cd1b-0f7a-4c08-9059-ec688441a14a" d="M26.81,47.86l0,.08c-.1.1-.13.07-.24.13l0,.08c-.33-.11-.7.13-1-.08-1.95-1.46,1.4-3.64,1.4-.91A.8.8,0,0,1,26.81,47.86Z"/><path class="e6c3552f-e457-4ecb-974a-ce33c5dc52d2" d="M24.83,40.73c-.1.1,0,.08-.16.08v-.08a1,1,0,0,1-.29,0c.19,0,.14,0,.21-.13-.11-.05-.17,0-.17-.16H24.3c.15-.08.08,0,.08-.29H24.3c0-.15,0-.2.16-.13,0-.18-.12-.37,0-.49.12.06.17,0,.29,0,.06.12.12.12.25.16v-.08c.23-.06.3-.21.45-.29l-.16,0v-.29c-.19.09-.32,0-.5.08l0,.09s-.29.51-.29.08h-.12c0-.38.23-.54.62-.54,0,.18.18.14.33.17.06-.13,0-.08.21-.08l0,.12a4.93,4.93,0,0,1,.54.12c0,.13-.07.41-.16.46l0,.12h-.09v.12l-.2.05v-.09c-.15.07-.05,0-.29,0v-.08c-.15.15-.1,0,0,.33h.12v.17c-.3,0-.22,0-.29.2h-.08l0-.2c-.25,0-.29,0-.29.24.34,0,.71.25,1.2.25C25.59,40.69,25.31,41,24.83,40.73Z"/><path class="aa045c9a-c950-499d-a6ed-8110b7d4edd8" d="M19.43,18.12c.23-.07.27-.2.54-.2,0-.42.18.09.2.2a2.25,2.25,0,0,0,.58-.08c0-.14,0-.06.12-.2l.09,0v-.13l.12,0v.08c.15,0,.23-.15.45,0a1,1,0,0,0,0-.33l.13,0a.6.6,0,0,0,.08.29.4.4,0,0,0-.21.33c-.22,0-.62-.11-.78.21h.2a.74.74,0,0,1,0,.37h-.08v-.25l-.16,0v-.08c-.14,0-.07,0-.17.12l.21,0c-.12.24.1.62-.21.62V19h-.08c0-.12,0-.06.08-.16l-.12-.09c-.07.14-.07.29-.25.29V19C19.88,19,19.53,18.33,19.43,18.12Z"/><path class="a0512851-ab19-44b4-bee0-804c5951e211" d="M20.79,12.85v-.62h-.08c.18-.1.16-.09.41,0l0-.09.08.09c.06-.11,0-.09.13-.09,0,.17-.08.06-.08.29.19-.05.11-.06.24,0,.06-.12,0-.05,0-.2h-.08c.27-.55.4-.2,1-.29a.41.41,0,0,0,0,.24l-.12,0c.18.08.14,0,.29-.09a1.94,1.94,0,0,1,0,.42h.16c0,.14.12.16.25.2v.08c.23,0,.22-.09.53,0,0-.11,0-.07.09-.12v.12l.08-.12c.11,0,.08,0,.08.12h.66A23.66,23.66,0,0,1,20.79,12.85Z"/><path class="e83472e6-554e-4bb7-b34d-25333589fd7b" d="M23.72,55V55H23.6v-.33l.12-.05V54.5l.25,0L24,54h-.08l0-.09-.17,0V53.8c.24,0,.15,0,.29-.08v.08c.11,0,.07,0,.12-.08.09.17.21,0,.21.29.33,0,.2.07.41,0l0-.09c.12.24.1.33.33.25v.17h.13c.05.15,0,.1.12.16l0-.08c.05.11,0,.08.12.08-.08-.25-.27-.16-.33-.45a.73.73,0,0,0,.25-.08c0,.25.2.39.13.61.23.12.1-.2.33-.24s.24.24.45.24A5,5,0,0,1,23.72,55Z"/><path class="b44b49c8-9a75-4b51-b799-2ab812f6a909" d="M31.84,31.08c-.15-.16-.18-.12-.37-.21-.06.2,0,.08,0,.37h-.2c.11.06.08.12.12.25l0-.08a.76.76,0,0,0-.08.2c-.31,0-.29.18-.66.13a.86.86,0,0,0-.09-.42c.31,0,.3.12.54-.12l-.25,0c.16-.08.13-.33.29-.41L31,30.7c.1-.15,0-.12.21-.12V30.5c.15-.05.08-.06.2,0,0-.17.13-.15.13-.33l0,.08a1.59,1.59,0,0,0,.08-.33h-.25c0-.43.32.18.33.33h.08c0,.28-.15.6.17.7Z"/><path class="ac019e3e-c35c-470e-90ea-01314e551bf8" d="M18.73,36v.13h.12v.08h.25v-.08l.16,0c0,.11,0,.07-.08.12.32.05.2,0,.37.21l.09-.13v.17a1,1,0,0,1-.46,0,.65.65,0,0,0,.08.28c-.11.06-.06,0-.12.13l.08,0c-.11.23-.12.22,0,.54h.17c0,.15-.18.23-.21.49a.71.71,0,0,1-.08-.21h-.25v-.12c.18-.06.11,0,.17-.21h-.33v-.12l.41,0V37.1c-.16,0-.41.08-.41-.13-.14,0-.07,0-.17.13-.18-.09-.21-.11-.12-.29-.14,0-.07.08-.21.08,0-.33.16-.47.25-.74.11,0,.06,0,.16,0S18.68,36.09,18.73,36Z"/><path class="a263ed05-8ed2-4012-b662-3748fa3f8ed6" d="M39.89,45.06c.12,0,.29-.21.29-.33a2,2,0,0,1-.54,0c.13-.07.07,0,.12-.21l-.08,0v-.16c-.21-.06-.15,0-.21-.17h-.08l0-.16.09.08c0-.11,0-.08.12-.08l0-.09.12,0c0-.1.2-.25.29-.25-.07.14,0,.06,0,.25.16,0,.14,0,.21-.16.13,0,.24.09.16.24h.08l0,.13.09-.08,0,.12c.13-.06.11-.21,0-.21,0-.17.19-.31.29-.12l0-.08c.16,0,.08,0,.24,0C40.87,44.11,39.89,45.71,39.89,45.06Z"/><path class="ed0d38d8-77e3-43be-b106-345daf3e293b" d="M19.92,37.3c.06.11,0,.09.13.09l0,.12c.1.05,0,0,.16,0s0,.06,0,.21.06,0,.17,0v.12H20.3l-.05.37h.17c0,.21-.18.18-.25.37a2.08,2.08,0,0,0-.7.21l.08.08c-.12,0-.05,0-.2,0v-.08h-.09a2,2,0,0,1-.08.29c-.28,0-.11-.42,0-.5l0,.12.17.05v-.13c.48,0,.38.1.49-.12-.15-.08-.08,0-.08-.29l.12,0-.12,0C20,37.84,19.74,37.57,19.92,37.3Z"/><path class="b8082712-ebd7-4e14-95e1-c0500dce5fe8" d="M8.54,35.9l0-.08c.14.07.07,0,.17.2.09-.18.16-.19.2-.41-.14,0-.16,0-.16-.16l.12,0v-.09H8.79l0-.16c.11,0,.17,0,.29,0,0,.24-.1.14,0,.45.26,0,.11-.21.53-.21.05.2.07.12,0,.25l.09,0,0-.08c.11.11,0,.08.2.08-.17.27-.81,1.12-1.19,1.12A7,7,0,0,0,8.54,35.9Z"/><path class="bbb741cc-dfb8-418d-a671-8b0f7fc172af" d="M19.72,1.87,19.8,2h-.08l.08.08c.14-.14.2-.07.41,0V2l.17,0c0,.17.16.24.25.41l-.13.08h.08c0,.21,0,.11,0,.29l-.08-.25c-.19.19-.72.53-.78.7-.21,0-.21.17-.46.17,0-.16.09-.21.13-.37h-.13c0-.13,0-.06,0-.21H19.1l.29,0A1.14,1.14,0,0,1,19.72,1.87Z"/><path class="bc69a0e2-32b2-45c8-a962-b15ee66be81f" d="M30.19,15.73v-.24c.29-.06.2,0,.25-.29-.15,0-.19,0-.12-.17l0,.13h.08c0-.19.13-.29.13-.42s-.06,0-.17,0c.07-.14,0-.08.25-.08v-.16c.16-.06.09-.08.2,0,.14-.14,0-.29.25-.29v.16c.24,0,.15,0,.29,0a2,2,0,0,1-.12.37c.19,0,.09-.1.33,0v.09h.12A9.39,9.39,0,0,1,30.19,15.73Z"/><path class="f03ed343-bdf1-48dd-a329-6d7be54b6893" d="M3.1,40a6.23,6.23,0,0,0-.42-1c.25,0,.34-.19.42-.42H3c0-.37.32-.11.42.09l0-.09a.92.92,0,0,1,.08.25h.12V39c.19-.14.1-.13.25-.13,0,.15-.08.07-.08.25h.08c0,.31.08.31.17.58-.13,0-.06,0-.21,0l0,.2c-.11,0-.06,0-.17,0,0,.11,0,.08-.12.08v-.16H3.34l0,.2C3.18,40,3.25,40,3.1,40Z"/><path class="b353498e-4d2a-42ec-8821-13ae5e027965" d="M43.52,35.41v.12h.08v.08h.08v.08c.18.06.11,0,.17.21l-.05-.08c0,.15,0,.1-.12.16l0,.09a1.07,1.07,0,0,1-.58.16c0-.43-.15-.46-.49-.29v-.08c-.12.06,0,0-.21,0,.11.05.09,0,.09.12l-.13,0,0,.08c-.2,0-.45-.09-.45.16h-.12v-.12h-.09v-.12l.13,0c0-.11.13-.2.25-.2v.08c.14,0,.06,0,.2-.12v.08c.18-.09.12-.18,0-.33.17-.06.11,0,.17-.17C43,35.7,43,35.22,43.52,35.41Z"/><path class="fac75096-8e8a-4152-9474-68965b9aa6ef" d="M16.13,46.83c.25,0,.61.11.83,0v.08h.12v.17H17c.13.13.07,0,.12.29h-.21v-.09c-.21.11-.05,0-.53,0v-.09a.73.73,0,0,1-.08.25.23.23,0,0,0-.33.17c.11,0,0,0,.16,0,0,.2.05.14-.08.21h.12c0,.21,0,.37-.2.37v-.25h-.13v-.08h-.08l0-.08c-.21-.1,0-.28-.12-.45l.16,0c0-.22.08-.12.08-.28C16.13,46.94,16.07,47,16.13,46.83Z"/><path class="b0575f64-8938-4586-8817-eb2c8adc9cc1" d="M41.17,43.65c-.11-.16-.07-.07-.13-.24a2.9,2.9,0,0,1-.66.16c.4-.2-.62-.53.37-.53V43h-.08c.3-.15.46-.53.7-.66a.51.51,0,0,0,0,.25l-.08,0c.15.07.19.29.37.29C41.53,43.13,41.36,43.4,41.17,43.65Z"/><path class="ea6261da-a763-4704-8a44-d01935a3a841" d="M7.76,37.76v-.17c-.29,0-.24-.16,0-.16v.08l0-.25c-.24.05-.14.07-.29,0,.11-.22.26,0,.33-.33H7.8c0-.17,0-.41.12-.49l0-.09L8,36.27l0,.13.08,0v.17c.26,0,.66-.07.66.25h.08c-.43.47-.5.27-.37.53-.16,0-.29.07-.29.25C8,37.55,7.94,37.76,7.76,37.76Z"/><path class="b587eff7-283a-46f4-a67c-6d651fab36f4" d="M36.3,42c.12.06.08,0,.08.17.18,0,.3.23.37.37a.36.36,0,0,1-.16.12h.08v.09h.12v.37c-.16.05-.2,0-.37,0,0-.21-.49-.16-.37.08-.16-.08-.16-.16-.16-.33a5.55,5.55,0,0,0-.71-.13c0-.19.13-.16.29-.16a3,3,0,0,0-.08-.41c.18-.06.08-.05.29,0l0-.08,0,.2-.08,0c.49.13.34.07.49.54A1.38,1.38,0,0,0,36.3,42Z"/><path class="fbde24f6-85db-4016-98f5-897dfde29537" d="M13.37,42.13c0-.32,0-.25-.13-.33l0-.25c.13,0,.18.06.29,0-.09-.18.06-.14.17-.25l0,.21c.05-.16,0-.11.16-.16a1.06,1.06,0,0,0-.08-.5l.08,0v.12c.14,0,.06,0,.25,0,0-.15,0-.1.08-.16,0,.12,0,.06.05.21h.16a.53.53,0,0,0,.08.24h-.08l0,.17h.16C14.6,41.6,13.59,42.05,13.37,42.13Z"/><path class="a5dfbc8c-33eb-4dc8-8f60-0c66e70dd788" d="M37.12,6.91a.41.41,0,0,0,0,.24c-.11.06-.08,0-.08.17h.29l-.16,0c-.05.46,0,.28-.09.54h.25V7.81h.08c0,.2.12.39.17.58-.13.07,0,0-.25,0V8.35h-.58l0-.12c-.09.19,0,.16-.16.16s0-.07-.09-.12c.07-.13,0,0,0-.25.3,0,.34-.11.24-.41l-.12,0V7.53c.13,0,.06,0,.21,0V7.4l.12,0V7.11h-.08c-.05.24,0,.18-.13.25C36.79,7.05,36.76,6.83,37.12,6.91Z"/><path class="f327534c-d376-4550-ba80-452cffe19cab" d="M5.24,30.7h.25v.09c.35.05.18.05.37.24l-.08,0c.11.05.08.12.12.24H5.78c-.06.19.12.29.29.37l0,.09c-.22-.08-.62,0-.62-.25H5.12v-.12a1.36,1.36,0,0,1-.5.37v-.09H4.5c.06-.12,0-.08.16-.08-.08-.27-.23-.42.21-.33L4.79,31,5,31v.09a.45.45,0,0,0,.29,0v.09h.13C5.41,30.88,5.24,30.93,5.24,30.7Z"/><path class="ae934c3a-4ca3-4721-927f-f73463d3fb1e" d="M43.64,22.21h.12c0,.18-.14.57,0,.66l.05-.29.08,0c-.06.19,0,.08,0,.33h.16v.12c-.17-.05-.09-.06-.25.05.17.42.21,0,.5.12,0,.21.09.23-.12.37l.12,0v.13h-.08l0,.12h-.09v-.12c-.12,0-.09.06-.2.12l.16,0c0,.14,0,.26,0,.41h-.25c.06-.11,0-.07.13-.12-.12-.06-.09,0-.09-.17-.1.06,0,.05-.16.05A8.6,8.6,0,0,1,43.64,22.21Z"/><path class="fbf91caf-77f2-4eb0-8e73-04899e64ef4a" d="M16.58,48.81c.16.11.67.19.58.37.34.17.25.34.41.66a1.14,1.14,0,0,1-.33.17c0-.2,0-.12.05-.25-.14.06-.09,0-.09.21H17v-.09a.78.78,0,0,0-.33.37c-.16-.08-.08,0-.17-.28a1.93,1.93,0,0,1,.41-.09V49.8c-.18,0-.22-.2-.41-.25.05-.21,0-.12.13-.29l-.05.09c.13.06.06,0,.21,0v-.13h-.12c.1,0,.08,0,.08-.12h-.12C16.63,48.93,16.52,49,16.58,48.81Z"/><path class="ee6690ec-7c89-4223-8852-79531bdbf475" d="M27.93,50.67H28c0,.13,0,.24-.13.24l0,.13c.42,0,.33-.09.58-.21,0,.16,0,.09,0,.21-.19.13-.2.17-.2.41h.12c-.07.13,0,0,0,.25h-.08c0,.4,0,.54-.42.41,0-.34,0-.18-.37-.25.06-.11,0-.15.13-.25.06.14,0,.09.2.09v-.17l-.12,0c-.07-.28.12-.54,0-.7C28,50.77,27.93,50.86,27.93,50.67Z"/><path class="ae934c3a-4ca3-4721-927f-f73463d3fb1e" d="M5.45,34.79c.15.29.26,0,.33.45a.36.36,0,0,0,.12-.16c.14.27.18.21.13.61H5.94c-.05-.29,0-.22-.16-.28-.21.31-.08.41-.54.49v-.08H5.16v-.17c-.26-.06-.51-.49-.08-.49-.06-.11,0-.16,0-.29.21,0,.11,0,.29,0C5.37,34.8,5.34,34.84,5.45,34.79Z"/><path class="b9413ace-d1f8-4c30-b346-b77ae8cd2c1d" d="M8.46,9.3v.08c.11,0,.06,0,.16,0v.08c.18,0,.09,0,.25-.08.19.29.25.1.25.45a.73.73,0,0,0-.25-.08c.12.06.08,0,.08.17.17,0,.09,0,.25,0a.83.83,0,0,1-.33.24h.21c0,.13,0,.06,0,.21-.27,0-.52,0-.78,0l-.05-.21H8.21a1.64,1.64,0,0,0-.12-.7C8.31,9.26,8.18,9.3,8.46,9.3Z"/><path class="f87a7b21-9bb8-4694-8d39-fe1a79433ecb" d="M45.54,34.87c-.07-.19-.17-.09-.25-.25,0,.12-.09.22-.12.33s-.17,0-.17-.16c-.28,0-.12-.24-.08-.42h-.08c0-.16,0-.28.16-.28v-.21l.25,0c0,.18.12.2.29.2-.06-.1,0-.08-.13-.08l0-.16c.2.15.1.1.29.16A1.72,1.72,0,0,1,45.54,34.87Z"/></g></g></g></svg>