<svg xmlns="http://www.w3.org/2000/svg" viewBox="0 0 259.08 165.39"><defs><style>.b5951a62-45f7-437f-a9bc-694790b7e86b{fill:#262626;}.a2c6ff9d-8f39-405f-9027-01df87d14a5f,.a54cc41d-a41d-4d8b-af31-e23e155ae6c9,.a831d503-1e83-449c-9133-82f7a4a60bff,.a896d4c3-64c6-4a66-bc32-16fab9ec437e,.abd65468-272e-4da7-9795-40eafcd0394d,.ae617cb6-1406-465d-bf3e-0aacf779a036,.b0d900f9-bdfe-4c74-8b27-62de4976c83f,.b5951a62-45f7-437f-a9bc-694790b7e86b{fill-rule:evenodd;}.b0d900f9-bdfe-4c74-8b27-62de4976c83f{fill:#bd6919;}.a54cc41d-a41d-4d8b-af31-e23e155ae6c9{fill:#53300d;}.ae617cb6-1406-465d-bf3e-0aacf779a036{fill:#1b1c1c;}.a831d503-1e83-449c-9133-82f7a4a60bff{fill:#454a4d;}.a896d4c3-64c6-4a66-bc32-16fab9ec437e{fill:#140d06;}.abd65468-272e-4da7-9795-40eafcd0394d{fill:#2d3234;}.a2c6ff9d-8f39-405f-9027-01df87d14a5f{fill:#d6d6d6;}.a14fa946-5807-4a08-885d-bbff0c5bc3a2{fill:#fdfdfd;}</style></defs><g id="eea2da93-fc9a-4e97-9007-549557f9d8ef" data-name="Layer 2"><g id="b67b9603-d1bb-4b6e-9c47-2d7d1477b43d" data-name="Layer 1"><path class="b5951a62-45f7-437f-a9bc-694790b7e86b" d="M230,7.31l1.67,3.32a2.19,2.19,0,0,1-1,2.95h0a2.22,2.22,0,0,1-3.06-.92c-.58-1.13-1.15-2.27-1.68-3.31a2.33,2.33,0,0,1,1-3.11h0a2.32,2.32,0,0,1,3,1.07Zm-7.55,5.12,1.73,3.41a2.29,2.29,0,0,1-1,3h0a2.31,2.31,0,0,1-3.06-.92l-1.72-3.41a2.3,2.3,0,0,1,1.07-3h0a2.28,2.28,0,0,1,3,1Zm15-10.33,1.68,3.31a2.33,2.33,0,0,1-1,3.11h0a2.31,2.31,0,0,1-3-1.07l-1.67-3.31a2.2,2.2,0,0,1,1-3h0a2.23,2.23,0,0,1,3.06.92Zm4.12,28.17L240,27a2.31,2.31,0,0,0-3-1.07h0a2.33,2.33,0,0,0-1,3.11c.53,1,1.1,2.17,1.68,3.31a2.23,2.23,0,0,0,3.06.92h0a2.2,2.2,0,0,0,1-3ZM233,33.21l-1.67-3.31a2.2,2.2,0,0,0-3-1h0a2.23,2.23,0,0,0-1.08,3L229,35.25a2.31,2.31,0,0,0,3.11,1h0a2.31,2.31,0,0,0,.92-3.06Zm17.28-5.88-1.73-3.41a2.3,2.3,0,0,0-3.06-.92h0a2.28,2.28,0,0,0-1,2.95l1.73,3.42a2.28,2.28,0,0,0,3,1h0a2.31,2.31,0,0,0,1.07-3Z"/><path class="b0d900f9-bdfe-4c74-8b27-62de4976c83f" d="M50.89,68.79c11.46,1.86,21.55-.51,29.6-9.25,21.61-23,43.11-12.58,53.06,10.95,13,22,8.65,45.36-22.64,49.23C99.1,121,91.15,127.63,85.86,138c-55.14,92.53-142.18-79.64-35-69.18Z"/><path class="a54cc41d-a41d-4d8b-af31-e23e155ae6c9" d="M99.94,87.48A18.95,18.95,0,1,1,74.41,79.1a19,19,0,0,1,25.53,8.38Z"/><path class="ae617cb6-1406-465d-bf3e-0aacf779a036" d="M93.73,90.62A12,12,0,1,1,77.54,85.3a11.95,11.95,0,0,1,16.19,5.32Z"/><path class="a831d503-1e83-449c-9133-82f7a4a60bff" d="M214.93,29.35l-3.5-6.93L93.17,80h0a18.6,18.6,0,0,1,6.77,7.48,18.24,18.24,0,0,1,2,9.79h0l116.48-61.1Z"/><path class="a896d4c3-64c6-4a66-bc32-16fab9ec437e" d="M37.57,93.3l20.71,41a3.34,3.34,0,0,1-1.54,4.41L53,140.55a3.34,3.34,0,0,1-4.46-1.38L27.85,98.22a3.26,3.26,0,0,1,1.54-4.41l3.72-1.89a3.27,3.27,0,0,1,4.46,1.38Z"/><path class="abd65468-272e-4da7-9795-40eafcd0394d" d="M259.08,7h0L243.72,0,211.43,22.43l3.5,6.92h0l3.45,6.83,37.25-12.6Z"/><path class="a2c6ff9d-8f39-405f-9027-01df87d14a5f" d="M243.4,10.42h0a2,2,0,0,1-.87,2.64l-18,9.1a1.92,1.92,0,0,1-2.54-.92h0a1.92,1.92,0,0,1,.76-2.6l18-9.09a2,2,0,0,1,2.65.87Zm3.66,7.24h0a1.92,1.92,0,0,1-.93,2.54l-18,9.09a1.83,1.83,0,0,1-2.49-.81h0a1.87,1.87,0,0,1,.77-2.6l18-9.09a2,2,0,0,1,2.65.87Z"/><path class="a14fa946-5807-4a08-885d-bbff0c5bc3a2" d="M214.09,27.7l-167,84.43-.89-1.76,167-84.43Zm2.57,5.07-167,84.42-.94-1.86,167-84.43Z"/></g></g></svg>