<svg width="28" height="28" viewBox="0 0 28 28" fill="none" xmlns="http://www.w3.org/2000/svg">
<g opacity="0.8">
<path opacity="0.8" fill-rule="evenodd" clip-rule="evenodd" d="M4.56971 20.0901C3.69731 19.9311 2.90041 19.4923 2.29969 18.8401C1.80006 18.2971 1.45461 17.6306 1.29908 16.9093C1.14355 16.188 1.18359 15.4383 1.41508 14.7377C1.64657 14.0372 2.0611 13.4112 2.61573 12.9246C3.17036 12.438 3.84497 12.1084 4.56971 11.9701V4.55005H11.9997C12.1809 3.60296 12.6863 2.74855 13.429 2.13358C14.1717 1.5186 15.1054 1.18146 16.0697 1.18005C17.0323 1.18378 17.9636 1.52197 18.7042 2.13675C19.4449 2.75153 19.9488 3.60464 20.1297 4.55005H27.5497V12.9001L27.0297 12.8401H26.7797C25.9284 12.8401 25.1119 13.1783 24.5099 13.7802C23.9079 14.3822 23.5697 15.1987 23.5697 16.05C23.5697 16.9014 23.9079 17.7179 24.5099 18.3199C25.1119 18.9219 25.9284 19.2601 26.7797 19.2601H26.9997L27.5197 19.2001V27.55H19.1697L19.2297 27.0301C19.2343 26.9468 19.2343 26.8633 19.2297 26.7801C19.2297 25.9287 18.8915 25.1122 18.2895 24.5103C17.6875 23.9083 16.871 23.5701 16.0197 23.5701C15.1683 23.5701 14.3519 23.9083 13.7499 24.5103C13.1479 25.1122 12.8097 25.9287 12.8097 26.7801C12.8049 26.8633 12.8049 26.9468 12.8097 27.0301L12.8697 27.55H4.51969L4.56971 20.0901ZM5.4997 12.8101H5.06971C4.27575 12.8871 3.53891 13.257 3.00279 13.8476C2.46666 14.4383 2.16966 15.2074 2.16966 16.0051C2.16966 16.8027 2.46666 17.5719 3.00279 18.1625C3.53891 18.7532 4.27575 19.123 5.06971 19.2001H5.4997V26.5301H11.9197C11.9719 25.4686 12.4304 24.4678 13.2001 23.735C13.9699 23.0022 14.9919 22.5935 16.0547 22.5935C17.1175 22.5935 18.1396 23.0022 18.9093 23.735C19.6791 24.4678 20.1375 25.4686 20.1897 26.5301H26.6097V20.11C25.5482 20.0578 24.5475 19.5994 23.8146 18.8297C23.0818 18.0599 22.6731 17.0378 22.6731 15.9751C22.6731 14.9123 23.0818 13.8902 23.8146 13.1205C24.5475 12.3507 25.5482 11.8923 26.6097 11.8401V5.42007H19.2797V4.99005C19.2027 4.1961 18.8328 3.45928 18.2421 2.92316C17.6515 2.38703 16.8824 2.09003 16.0847 2.09003C15.287 2.09003 14.5179 2.38703 13.9273 2.92316C13.3366 3.45928 12.9667 4.1961 12.8897 4.99005V5.42007H5.4997V12.8101Z" fill="white"/>
<path opacity="0.8" d="M2.2999 18.84L2.0899 19.03L2.2999 18.84ZM4.56992 20.09H4.84991V19.86H4.6199L4.56992 20.09ZM2.2999 13.2301L2.50992 13.4201L2.2999 13.2301ZM4.56992 11.97L4.6199 12.25H4.84991V12L4.56992 11.97ZM4.56992 4.55003V4.26006H4.28992V4.55003H4.56992ZM11.9899 4.55003V4.83003H12.2299V4.60005L11.9899 4.55003ZM13.2499 2.28004L13.0599 2.07005L13.2499 2.28004ZM18.8599 2.28004L18.6699 2.49004L18.8599 2.28004ZM20.1199 4.55003L19.8399 4.60005V4.83003H20.0799L20.1199 4.55003ZM27.5399 4.55003H27.8299V4.26006H27.5399V4.55003ZM27.5399 12.9V13.18H27.8599V12.86L27.5399 12.9ZM27.0199 12.84V12.56V12.84ZM27.0199 19.2301V18.9501V19.2301ZM27.5399 19.1701H27.8299V18.8501H27.5099L27.5399 19.1701ZM27.5399 27.52V27.8H27.8299V27.52H27.5399ZM19.1899 27.52H18.9099V27.83H19.2299L19.1899 27.52ZM19.2499 27H19.5299H19.2499ZM12.8599 27H12.5799H12.8599ZM12.9199 27.52V27.8H13.2399V27.49L12.9199 27.52ZM4.56992 27.52H4.28992V27.8H4.56992V27.52ZM5.06992 12.84V13.12V12.84ZM5.49991 12.84V13.12H5.75992V12.86L5.49991 12.84ZM5.06992 19.2001V18.91V19.2001ZM5.49991 19.2001H5.77991V19H5.5199L5.49991 19.2001ZM5.49991 26.53H5.21991V26.81H5.49991V26.53ZM11.9199 26.53V26.81H12.1899V26.5401L11.9199 26.53ZM20.1899 26.53H19.9099V26.8H20.1799L20.1899 26.53ZM26.6099 26.53V26.81H26.8999V26.53H26.6099ZM26.6099 20.11H26.8999V19.84H26.6199L26.6099 20.11ZM26.6099 11.84V12.12H26.8899V11.8501L26.6099 11.84ZM26.6099 5.42006H26.8999V5.13005H26.6099V5.42006ZM19.2799 5.42006H18.9999V5.68004H19.2599L19.2799 5.42006ZM19.2799 4.99004H18.9999H19.2799ZM12.8899 4.99004H13.1799H12.8899ZM12.8899 5.42006V5.70006H13.1499V5.44005L12.8899 5.42006ZM5.55991 5.42006V5.13005H5.27991V5.42006H5.55991ZM2.0899 19C2.73416 19.6971 3.58656 20.1672 4.5199 20.34L4.6199 19.7901C3.80914 19.6369 3.06928 19.2266 2.50992 18.62L2.0899 19ZM0.919922 16C0.919809 17.1114 1.33741 18.1822 2.0899 19L2.50992 18.62C1.85906 17.9035 1.50202 16.968 1.50992 16H0.919922ZM2.09991 13C1.34208 13.8153 0.920561 14.887 0.919922 16H1.4899C1.48156 15.035 1.83883 14.1025 2.4899 13.3901L2.09991 13ZM4.5199 11.66C3.59015 11.8349 2.74155 12.3048 2.09991 13L2.50992 13.3901C3.06928 12.7835 3.80914 12.3732 4.6199 12.22L4.5199 11.66ZM4.28992 4.52003V12H4.84991V4.58003L4.28992 4.52003ZM11.9899 4.23006H4.56992V4.80003H11.9999L11.9899 4.23006ZM13.0599 2.04005C12.3647 2.68169 11.8948 3.53029 11.7199 4.46004L12.2699 4.57005C12.4203 3.7583 12.8311 3.0176 13.4399 2.46004L13.0599 2.04005ZM16.0599 0.870041C14.9476 0.86497 13.8751 1.28328 13.0599 2.04005L13.4399 2.46004C14.157 1.81003 15.0921 1.45312 16.0599 1.46004V0.870041ZM19.0599 2.04005C18.2437 1.285 17.1718 0.866969 16.0599 0.870041V1.43004C17.0248 1.42269 17.957 1.77982 18.6699 2.43004L19.0599 2.04005ZM20.3999 4.46004C20.221 3.53174 19.7518 2.68431 19.0599 2.04005L18.6699 2.46004C19.2788 3.0176 19.6895 3.7583 19.8399 4.57005L20.3999 4.46004ZM27.5399 4.23006H20.1199V4.80003H27.5399V4.23006ZM27.8299 12.87V4.52003H27.2599V12.87H27.8299ZM26.9899 13.09L27.5099 13.15L27.5799 12.59L27.0599 12.53L26.9899 13.09ZM26.7699 13.09H26.9999L27.0699 12.53H26.7799L26.7699 13.09ZM23.8499 16C23.8499 15.2256 24.1576 14.4829 24.7052 13.9353C25.2528 13.3877 25.9955 13.08 26.7699 13.08V12.5101C25.8451 12.5127 24.959 12.8812 24.305 13.5352C23.6511 14.1891 23.2825 15.0753 23.2799 16H23.8499ZM26.7699 18.93C25.9945 18.9274 25.2519 18.6175 24.7046 18.0683C24.1572 17.5191 23.8499 16.7754 23.8499 16H23.2799C23.2799 16.9266 23.6473 17.8153 24.3015 18.4714C24.9557 19.1275 25.8434 19.4974 26.7699 19.5V18.93ZM26.9899 18.93H26.7699V19.5H27.0599L26.9899 18.93ZM27.5099 18.87L26.9999 19L27.0699 19.56L27.5899 19.5L27.5099 18.87ZM27.8299 27.5V19.15H27.2599V27.5H27.8299ZM19.1899 27.78H27.5399V27.22H19.1899V27.78ZM18.9999 27L18.9399 27.52L19.4999 27.58L19.5599 27.06L18.9999 27ZM18.9999 26.78C19.0047 26.8533 19.0047 26.9268 18.9999 27L19.5599 27.06C19.5649 26.9668 19.5649 26.8733 19.5599 26.78H18.9999ZM16.0799 23.8501C16.8552 23.8527 17.5979 24.1626 18.1453 24.7117C18.6926 25.2609 18.9999 26.0047 18.9999 26.78H19.5699C19.5699 25.8544 19.2022 24.9667 18.5477 24.3122C17.8932 23.6577 17.0055 23.2901 16.0799 23.2901V23.8501ZM13.1499 26.78C13.1499 26.003 13.4586 25.2577 14.0081 24.7082C14.5576 24.1588 15.3028 23.8501 16.0799 23.8501V23.2901C15.1534 23.2901 14.2646 23.6574 13.6086 24.3116C12.9525 24.9658 12.5825 25.8535 12.5799 26.78H13.1499ZM13.1499 27C13.1452 26.9268 13.1452 26.8533 13.1499 26.78H12.5799C12.5749 26.8733 12.5749 26.9668 12.5799 27.06L13.1499 27ZM13.2099 27.52L13.1499 27L12.5899 27.06L12.6499 27.58L13.2099 27.52ZM4.5799 27.83H12.9299V27.27H4.5799V27.83ZM4.2999 20.12V27.55H4.85989V20.12H4.2999ZM5.09991 13.12H5.52991V12.55H5.09991V13.12ZM2.40991 16C2.41224 15.2678 2.68864 14.5631 3.18466 14.0245C3.68068 13.4859 4.36037 13.1525 5.0899 13.09V12.53C4.21889 12.6027 3.40683 12.9995 2.8143 13.642C2.22177 14.2845 1.89191 15.126 1.88992 16H2.40991ZM5.0899 18.91C4.36037 18.8476 3.68068 18.5142 3.18466 17.9756C2.68864 17.437 2.41224 16.7322 2.40991 16H1.84991C1.85169 16.8751 2.18123 17.7178 2.77356 18.362C3.36589 19.0061 4.17802 19.4051 5.0499 19.4801L5.0899 18.91ZM5.5199 18.91H5.0899V19.4801H5.5199V18.91ZM5.77991 26.52V19.19H5.21991V26.52H5.77991ZM11.9199 26.24H5.49991V26.8H11.9199V26.24ZM16.0599 22.24C14.9165 22.2392 13.8173 22.6815 12.9931 23.474C12.1689 24.2664 11.6839 25.3475 11.6399 26.49H12.1999C12.2412 25.4934 12.6657 24.5511 13.3849 23.8598C14.1041 23.1686 15.0624 22.7818 16.0599 22.78V22.24ZM20.4699 26.49C20.4285 25.3484 19.9456 24.2674 19.123 23.4746C18.3004 22.6819 17.2023 22.2393 16.0599 22.24V22.8C17.0564 22.8019 18.0137 23.189 18.7313 23.8805C19.4488 24.572 19.8712 25.5143 19.9099 26.5101L20.4699 26.49ZM26.6099 26.22H20.1899V26.78H26.6099V26.22ZM26.3299 20.08V26.5H26.8999V20.08H26.3299ZM22.3299 15.94C22.3315 17.0827 22.7746 18.1805 23.5666 19.0042C24.3586 19.8278 25.4382 20.3136 26.5799 20.36V19.8C25.5841 19.7587 24.643 19.3339 23.9533 18.6144C23.2637 17.895 22.8791 16.9367 22.8799 15.94H22.3299ZM26.5799 11.53C25.4382 11.5715 24.3572 12.0544 23.5645 12.8769C22.7717 13.6995 22.3291 14.7976 22.3299 15.94H22.8999C22.9016 14.9452 23.2874 13.9894 23.9768 13.272C24.6662 12.5547 25.6059 12.1313 26.5999 12.09L26.5799 11.53ZM26.3099 5.39006V11.81H26.8799V5.39006H26.3099ZM19.2599 5.67006H26.5899V5.10005H19.2599V5.67006ZM18.9499 4.98006V5.41005L19.5199 5.36003V4.94005L18.9499 4.98006ZM16.0399 2.30003C16.7721 2.30236 17.4769 2.57876 18.0155 3.07478C18.5541 3.57081 18.8874 4.25052 18.9499 4.98006H19.5099C19.4374 4.1081 19.041 3.29489 18.3987 2.70073C17.7564 2.10657 16.9149 1.77453 16.0399 1.77003V2.30003ZM13.1299 4.98006C13.1924 4.25052 13.5257 3.57081 14.0643 3.07478C14.6029 2.57876 15.3077 2.30236 16.0399 2.30003V1.73006C15.1639 1.73434 14.3211 2.06603 13.6772 2.65999C13.0333 3.25395 12.6348 4.06723 12.5599 4.94005L13.1299 4.98006ZM13.1299 5.41005V4.98006H12.5599V5.40004L13.1299 5.41005ZM5.5199 5.67006H12.8499V5.10005H5.49991L5.5199 5.67006ZM5.7999 12.72V5.39006H5.2399V12.72H5.7999Z" fill="white"/>
</g>
</svg>
